ply
format ascii 1.0
element vertex 179
property float x
property float y
property float z
element face 133
property list uchar int vertex_index
end_header
15.875747 -63.764957 80.334564
24.994198 -55.923443 76.853355
21.354721 -57.250072 79.19976
20.272354 -62.244965 79.001137
17.299648 -58.585712 81.148994
11.546202 -65.021545 81.401718
19.360138 -57.923397 80.204834
26.640673 -53.045197 74.962227
18.091137 -63.0242 79.703804
19.422709 -64.734421 78.618942
14.92065 -66.328079 79.693382
25.126675 -53.610268 76.48568
23.458733 -54.19334 77.856354
23.24431 -56.580135 78.096252
22.906736 -59.007378 78.230469
20.911922 -59.742401 79.182991
18.818666 -60.472244 80.031509
16.672691 -61.177856 80.813972
25.598139 -49.210217 75.822693
23.977859 -49.640976 77.362244
14.521805 -61.836365 81.548302
12.702675 -67.014343 80.114334
25.962571 -52.205023 75.539215
26.705982 -51.959073 74.736801
16.526937 -64.661364 79.765583
17.634632 -64.290985 79.450203
16.983442 -63.394579 80.019184
15.398198 -65.046518 80.013973
16.049388 -65.942925 79.444992
16.526937 -64.661364 79.765583
22.69031 -53.294118 78.404221
23.560337 -53.032553 77.72221
22.299515 -56.915104 78.648006
22.451907 -55.686206 78.5993
21.507112 -56.021175 79.151054
25.886822 -48.188643 75.736805
26.349151 -48.999376 74.993915
23.372585 -48.766758 78.037415
24.246863 -48.583265 77.29332
23.116661 -49.863318 78.085354
23.372585 -48.766758 78.037415
25.784821 -55.604429 76.145641
25.851059 -54.447842 75.961804
25.060437 -54.766855 76.669517
20.936909 -63.065563 78.466831
21.320625 -61.847901 78.596463
19.507917 -66.738899 77.72086
20.023117 -65.511826 78.022469
18.90751 -65.961495 78.317333
13.836763 -60.818462 82.229035
14.868638 -60.527493 81.800618
11.980189 -63.722015 81.812599
10.971566 -63.965841 82.100292
12.61181 -64.730881 81.153751
11.980189 -63.722015 81.812599
12.124439 -66.017944 80.758026
13.190046 -65.72728 80.510059
12.61181 -64.730881 81.153751
20.55563 -56.325695 79.729565
21.507112 -56.021175 79.151054
19.558338 -56.662357 80.232101
20.35743 -57.586735 79.702297
20.55563 -56.325695 79.729565
18.570791 -56.96707 80.783337
19.558338 -56.662357 80.232101
17.540546 -57.298227 81.255416
18.329893 -58.254554 80.676914
18.570791 -56.96707 80.783337
27.312645 -52.771445 74.11586
26.705982 -51.959073 74.736801
27.303739 -53.856637 74.39656
27.312645 -52.771445 74.11586
25.716985 -56.748066 76.34689
24.877763 -57.102333 76.991272
18.300418 -65.146096 78.907772
18.756923 -63.879311 79.161373
17.634632 -64.290985 79.450203
18.90751 -65.961495 78.317333
18.300418 -65.146096 78.907772
15.518511 -67.190727 79.093032
16.049388 -65.942925 79.444992
14.384721 -67.589416 79.284301
15.518511 -67.190727 79.093032
10.537873 -65.251373 81.591232
10.971566 -63.965841 82.100292
9.963237 -64.195669 82.289806
11.060192 -66.303421 80.920437
10.537873 -65.251373 81.591232
24.394309 -52.741017 77.036873
25.205572 -52.487558 76.300941
24.292704 -53.901804 77.171017
24.394309 -52.741017 77.036873
23.560337 -53.032553 77.72221
22.559118 -54.492809 78.479351
22.69031 -53.294118 78.404221
23.351521 -55.386737 77.976303
22.559118 -54.492809 78.479351
22.451907 -55.686206 78.5993
24.002819 -57.430679 77.61272
24.877763 -57.102333 76.991272
24.119254 -56.251789 77.474804
23.834032 -58.6443 77.679829
24.002819 -57.430679 77.61272
23.075523 -57.793757 78.163361
23.619968 -59.83379 77.730477
23.834032 -58.6443 77.679829
22.637816 -60.229107 78.211129
23.619968 -59.83379 77.730477
21.640409 -60.596619 78.687389
22.637816 -60.229107 78.211129
21.909329 -59.37489 78.70673
20.592138 -60.993683 79.092064
21.320625 -61.847901 78.596463
21.640409 -60.596619 78.687389
26.184715 -50.041583 75.167034
26.349151 -48.999376 74.993915
25.441305 -50.287533 75.969448
26.184715 -50.041583 75.167034
25.057003 -48.367886 76.523544
25.886822 -48.188643 75.736805
24.787999 -49.425596 76.592468
25.057003 -48.367886 76.523544
24.246863 -48.583265 77.29332
24.631164 -50.502913 76.739224
25.441305 -50.287533 75.969448
24.787999 -49.425596 76.592468
23.8199 -50.756371 77.475155
24.631164 -50.502913 76.739224
23.8199 -50.756371 77.475155
23.116661 -49.863318 78.085354
25.883674 -53.327732 75.723953
25.962571 -52.205023 75.539215
25.205572 -52.487558 76.300941
26.608058 -54.165306 75.200077
25.883674 -53.327732 75.723953
25.851059 -54.447842 75.961804
27.303739 -53.856637 74.39656
26.608058 -54.165306 75.200077
25.784821 -55.604429 76.145641
25.716985 -56.748066 76.34689
20.512086 -64.310292 78.275734
20.936909 -63.065563 78.466831
19.847532 -63.489693 78.81004
20.512086 -64.310292 78.275734
20.023117 -65.511826 78.022469
16.534509 -57.596345 81.789856
17.540546 -57.298227 81.255416
16.257559 -58.902166 81.600964
16.534509 -57.596345 81.789856
15.944081 -60.198238 81.433453
16.98617 -59.881784 80.981483
16.257559 -58.902166 81.600964
15.597248 -61.50711 81.181137
15.944081 -60.198238 81.433453
14.868638 -60.527493 81.800618
13.46799 -62.129425 81.885891
13.836763 -60.818462 82.229035
14.099611 -63.138291 81.227044
13.46799 -62.129425 81.885891
14.776582 -64.102587 80.620174
15.198776 -62.800661 80.941433
14.099611 -63.138291 81.227044
14.299034 -65.384148 80.299583
15.398198 -65.046518 80.013973
14.776582 -64.102587 80.620174
13.811663 -66.671211 79.903858
14.299034 -65.384148 80.299583
13.190046 -65.72728 80.510059
13.275733 -67.932548 79.494777
14.384721 -67.589416 79.284301
13.811663 -66.671211 79.903858
11.638429 -67.29982 80.276745
12.124439 -66.017944 80.758026
11.060192 -66.303421 80.920437
12.171957 -68.279968 79.637378
11.638429 -67.29982 80.276745
12.745015 -69.198173 79.017822
13.275733 -67.932548 79.494777
12.171957 -68.279968 79.637378
3 22 7 23
3 0 24 26
3 26 25 8
3 24 25 26
3 0 27 29
3 27 10 28
3 27 28 29
3 30 12 31
3 2 32 34
3 32 13 33
3 32 33 34
3 2 14 13
3 2 15 14
3 4 16 6
3 4 17 16
3 35 18 36
3 37 19 38
3 40 39 19
3 1 41 43
3 43 42 11
3 41 42 43
3 3 44 45
3 48 47 9
3 46 47 48
3 49 20 50
3 5 51 52
3 5 53 54
3 5 55 57
3 55 21 56
3 55 56 57
3 58 2 59
3 60 6 61
3 62 61 2
3 60 61 62
3 63 6 64
3 65 4 66
3 67 66 6
3 65 66 67
3 7 68 69
3 7 70 71
3 73 72 1
3 8 9 3
3 74 9 75
3 76 75 8
3 74 75 76
3 78 77 9
3 10 79 80
3 10 81 82
3 83 5 84
3 83 84 85
3 87 86 5
3 88 11 89
3 12 90 92
3 90 11 91
3 90 91 92
3 12 1 11
3 93 12 94
3 13 95 97
3 95 12 96
3 95 96 97
3 13 1 12
3 13 98 100
3 100 99 1
3 98 99 100
3 14 101 103
3 103 102 13
3 101 102 103
3 14 104 105
3 14 106 107
3 15 108 110
3 110 109 14
3 108 109 110
3 15 111 113
3 111 3 112
3 111 112 113
3 6 15 2
3 16 15 6
3 16 3 15
3 16 8 3
3 17 8 16
3 17 0 8
3 18 114 115
3 18 116 117
3 118 18 119
3 19 120 122
3 120 18 121
3 120 121 122
3 19 123 125
3 125 124 18
3 123 124 125
3 19 126 127
3 129 128 19
3 11 130 132
3 130 7 131
3 130 131 132
3 133 7 134
3 135 134 11
3 133 134 135
3 137 136 7
3 139 138 1
3 9 140 142
3 142 141 3
3 140 141 142
3 144 143 9
3 145 4 146
3 147 4 148
3 149 17 150
3 151 150 4
3 149 150 151
3 20 152 154
3 152 17 153
3 152 153 154
3 20 0 17
3 155 20 156
3 157 20 158
3 159 0 160
3 161 160 20
3 159 160 161
3 162 10 163
3 164 163 0
3 162 163 164
3 21 165 167
3 165 10 166
3 165 166 167
3 21 168 170
3 170 169 10
3 168 169 170
3 171 21 172
3 173 172 5
3 171 172 173
3 174 21 175
3 178 177 21
3 176 177 178
