ply
format ascii 1.0
element vertex 720
property float x
property float y
property float z
element face 605
property list uchar int vertex_index
end_header
-21.638996 -104.221436 24.208786
-40.031567 -81.838455 -26.799374
-29.314949 -99.270218 -23.590366
-39.472492 -94.853226 -23.750153
-41.539722 -105.369675 1.383375
-44.519089 -102.341888 -6.280317
-37.577251 -108.005997 9.18726
-22.765997 -108.977631 19.365032
-35.159283 -90.920837 -25.160561
-30.196171 -92.376205 -23.739368
-35.521255 -83.761017 -26.091106
-35.563919 -76.195786 -27.249119
-32.149452 -106.588074 20.298494
-39.496723 -106.665894 5.251007
-47.323154 -96.32222 -5.880501
-45.462242 -99.967056 -10.055141
-38.936657 -107.937851 -17.90097
-34.650402 -97.434921 -24.422703
-39.771881 -88.699387 -25.209599
-39.187763 -108.733948 -3.491049
-43.283192 -104.045288 -2.430103
-46.358521 -98.722382 -1.80233
-27.563839 -107.747177 18.92532
-41.971733 -106.1828 -10.585917
-42.768929 -103.894913 -14.151756
-43.496815 -96.714951 -19.612328
-43.570206 -91.882935 -21.696682
-37.712433 -86.438629 -25.983738
-35.375107 -87.406815 -25.598793
-37.822708 -82.866028 -26.624626
-37.84573 -79.192642 -27.301949
-39.286163 -102.4431 -21.455284
-30.599514 -88.680603 -23.934612
-27.767258 -92.66684 -22.728737
-28.305708 -108.083618 -23.558659
-34.429596 -100.390793 -24.088943
-37.1488 -96.213943 -24.285053
-37.338161 -93.142319 -24.817989
-39.60944 -91.878464 -24.465717
-40.356083 -107.078018 -1.116724
-41.339542 -106.466522 -2.91692
-42.474018 -104.730347 -0.523075
-45.823917 -99.688858 0.278242
-26.695765 -105.570511 20.899437
-28.931341 -105.207809 21.282932
-33.168495 -107.852005 18.526405
-30.857635 -108.77919 17.629169
-31.769527 -109.921112 15.863333
-39.015316 -106.376053 12.025162
-38.152935 -106.910187 14.004572
-36.710651 -108.568237 11.143314
-35.999966 -109.676666 6.435442
-40.526524 -106.006165 3.305403
-38.115551 -108.342178 2.571924
-39.254822 -107.697098 0.704986
-38.013878 -109.357346 -1.801178
-42.81221 -105.10405 -6.587679
-41.486614 -106.985565 -8.725439
-43.353588 -104.232086 -8.467518
-45.881119 -98.513519 -11.822699
-44.241844 -101.901001 -12.124834
-44.605633 -100.435608 -13.807232
-43.071022 -102.409134 -15.749834
-45.325981 -92.755142 -19.210308
-43.531784 -94.407593 -20.672905
-15.929918 -106.559402 29.41058
-23.4132 -111.146271 17.220407
-32.355057 -95.214966 -24.352226
-29.757231 -95.914383 -23.629997
-32.686714 -91.775452 -24.585583
-32.977104 -88.176712 -24.885605
-33.201229 -84.447495 -25.260361
-33.351509 -80.616325 -25.715496
-35.582485 -80.014923 -26.64019
-37.777153 -75.450378 -28.015121
-31.169361 -109.36058 -23.24625
-31.286072 -106.975281 -23.621716
-34.148895 -105.641846 -23.289608
-39.379051 -97.608826 -23.039459
-42.671326 -103.660828 3.956002
-43.538166 -102.989868 1.951518
-34.271709 -105.860275 21.467161
-35.344215 -106.757324 19.657846
-38.504368 -107.346069 7.21634
-46.005699 -99.390366 -6.032263
-45.010887 -101.245804 -8.194599
-46.475204 -98.106216 -7.968508
-39.117401 -106.354782 -19.29438
-27.189583 -96.316467 -22.707329
-24.723492 -96.378326 -21.69175
-33.439999 -76.707626 -26.254837
-15.894108 -104.427612 32.56794
-17.536484 -103.584641 30.41016
-28.906326 -102.424606 -23.594704
-31.464251 -104.35994 -23.855598
-31.711765 -101.522385 -24.019665
-32.017845 -98.470123 -24.171772
-34.90498 -94.272171 -24.772121
-37.538757 -89.875107 -25.381481
-39.925617 -85.341263 -25.988773
-40.166275 -108.160492 -5.16375
-42.156029 -105.827499 -4.732964
-43.956535 -103.264664 -4.350519
-44.305344 -102.272339 -0.048926
-44.957893 -101.45845 -2.050457
-45.512276 -100.506149 -4.05024
-46.844139 -97.601273 -3.861996
-25.168327 -108.331818 18.897081
-25.94034 -110.37886 16.91802
-29.904264 -107.188843 19.416513
-36.344872 -107.193253 17.82173
-37.274197 -107.216705 15.93907
-37.014168 -109.012558 4.486639
-35.518021 -110.699707 1.823666
-43.823547 -103.168701 -10.3302
-42.398312 -105.155884 -12.415257
-40.69397 -107.192108 -14.418324
-41.006889 -105.921432 -16.095854
-41.246174 -104.398163 -17.601406
-41.403378 -102.639954 -18.919464
-41.487617 -100.659058 -20.062416
-41.525909 -98.459702 -21.066402
-41.555149 -96.039764 -21.981678
-41.608982 -93.395737 -22.860226
-43.641117 -89.135513 -22.727627
-41.705147 -90.528519 -23.744316
-13.919641 -101.074829 -18.24361
-20.814447 -105.781029 23.523999
-20.634586 -104.602104 24.886387
-21.908409 -105.429299 22.94437
-20.814447 -105.781029 23.523999
-40.044857 -80.034126 -27.216522
-38.940427 -80.547912 -27.129148
-38.927138 -82.352241 -26.712
-39.256954 -103.480415 -20.963265
-38.029936 -104.368759 -21.605886
-27.96618 -99.527817 -23.181151
-27.700989 -101.161537 -23.243259
-29.460425 -88.771668 -23.393968
-30.773646 -86.768044 -24.080272
-28.219893 -109.328606 -23.473591
-26.673216 -109.806168 -23.357678
-38.310646 -95.533585 -24.017603
-37.073721 -97.643318 -24.022463
-38.235567 -96.96296 -23.755012
-29.47461 -104.002601 22.649795
-28.445166 -104.065689 22.284979
-32.949024 -109.283798 16.306016
-32.469011 -108.886559 17.194869
-33.648508 -108.249245 17.637552
-32.199087 -110.258537 14.968243
-32.949024 -109.283798 16.306016
-36.331238 -109.136467 8.790713
-35.897937 -109.417587 9.76874
-37.143951 -108.287117 10.165287
-36.788608 -108.841331 7.811351
-35.542595 -109.971801 7.414804
-36.331238 -109.136467 8.790713
-45.430447 -98.667228 -13.637805
-45.243376 -99.474564 -12.814965
-46.06819 -97.706184 -12.645539
-44.752899 -99.610375 -14.578648
-45.430447 -98.667228 -13.637805
-46.199036 -90.80143 -19.075836
-46.141979 -91.938744 -18.445162
-46.227092 -89.601272 -19.650219
-45.354038 -91.554985 -19.784691
-46.199036 -90.80143 -19.075836
-15.929242 -107.661781 27.892767
-16.826373 -106.179314 28.373875
-21.834683 -110.442147 18.672839
-21.585838 -109.327179 19.843204
-23.089599 -110.061951 18.29272
-22.158285 -111.526466 17.600527
-21.834683 -110.442147 18.672839
-38.883847 -75.001427 -28.250206
-37.811442 -77.32151 -27.658535
-38.918135 -76.872558 -27.89362
-38.805863 -73.143203 -28.683157
-38.883847 -75.001427 -28.250206
-32.620228 -108.641471 -22.972324
-31.130654 -110.431602 -22.949745
-34.109995 -106.782105 -22.994003
-32.659128 -107.501213 -23.267929
-32.620228 -108.641471 -22.972324
-39.352026 -98.874061 -22.665983
-38.137897 -99.659019 -23.120651
-43.579235 -102.466408 4.210873
-43.179242 -102.819985 5.262738
-35.263469 -105.393287 22.132248
-34.673296 -104.901138 23.067715
-35.799723 -105.841812 21.22759
-34.807962 -106.308799 20.562503
-35.263469 -105.393287 22.132248
-43.179242 -102.819985 5.262738
-42.208308 -103.995071 4.962864
-37.749178 -108.9142 -18.699308
-37.65535 -109.600464 -17.946796
-39.027029 -107.146316 -18.597675
-37.83955 -108.122665 -19.396013
-37.749178 -108.9142 -18.699308
-25.095247 -94.493103 -21.675579
-26.245375 -94.522583 -22.210243
-26.617131 -92.63736 -22.194073
-23.567554 -96.227753 -21.181797
-25.095247 -94.493103 -21.675579
-16.58197 -102.950714 33.09743
-15.816674 -103.408584 34.189919
-17.403158 -102.529229 32.01854
-16.715296 -104.006126 31.48905
-16.58197 -102.950714 33.09743
-28.734952 -103.89479 -23.598914
-27.269877 -104.264572 -23.317823
-32.863309 -103.744339 -23.792994
-31.375162 -105.66761 -23.738657
-32.77422 -105.052009 -23.676052
-39.677019 -108.44722 -4.3274
-39.136841 -109.202874 -5.401656
-38.647585 -109.489601 -4.565305
-44.754858 -101.398575 1.159878
-43.921755 -102.631103 0.951296
-44.371269 -101.75734 2.1601
-31.026858 -106.888459 19.857503
-30.497775 -106.035241 20.76388
-31.620369 -105.734856 21.20487
-29.647083 -109.190582 17.348622
-30.07479 -109.916733 16.446151
-37.370728 -106.366661 18.395925
-36.856143 -106.319153 19.363017
-36.573957 -108.073761 14.501254
-37.713566 -107.063446 14.971821
-37.013326 -107.920502 13.534005
-36.149472 -108.10186 15.435871
-36.573957 -108.073761 14.501254
-36.136656 -110.358101 0.895151
-36.816786 -109.520943 2.197795
-37.435421 -109.179337 1.26928
-34.816105 -111.532791 0.524588
-36.136656 -110.358101 0.895151
-38.041305 -109.819748 -3.827919
-37.454363 -110.131447 -2.982984
-38.60082 -109.045647 -2.646113
-38.647585 -109.489601 -4.565305
-38.041305 -109.819748 -3.827919
-40.945069 -107.556526 -10.662182
-40.702509 -107.957909 -9.731943
-41.729174 -106.584182 -9.655678
-41.148705 -107.188987 -11.598436
-40.945069 -107.556526 -10.662182
-42.268641 -102.555359 -17.393982
-42.158598 -103.403649 -16.67562
-43.181064 -101.560845 -16.468196
-42.347242 -101.676254 -18.053011
-41.324776 -103.519058 -18.260435
-42.268641 -102.555359 -17.393982
-43.462141 -97.764634 -19.038645
-44.372423 -95.833023 -18.817572
-42.492216 -98.687005 -19.837372
-42.457542 -99.736687 -19.263689
-43.462141 -97.764634 -19.038645
-43.697499 -87.652451 -23.261267
-44.598602 -87.018173 -22.719468
-42.729513 -88.348953 -23.769611
-42.673132 -89.832016 -23.235971
-43.697499 -87.652451 -23.261267
-41.771946 -88.988503 -24.201922
-42.729513 -88.348953 -23.769611
-14.559145 -99.131767 -18.142933
-15.513967 -99.728454 -18.593813
-22.471909 -107.807396 20.522493
-21.585838 -109.327179 19.843204
-38.951938 -78.711219 -27.46781
-37.834219 -81.029335 -26.963287
-38.940427 -80.547912 -27.129148
-38.918135 -76.872558 -27.89362
-38.951938 -78.711219 -27.46781
-38.058596 -103.280777 -22.005134
-38.029936 -104.368759 -21.605886
-39.305582 -101.291199 -21.873895
-38.058596 -103.280777 -22.005134
-48.198917 -94.0578 -6.837477
-47.573751 -95.610267 -6.855983
-47.94832 -94.769753 -5.861995
-38.811407 -108.591172 -17.098631
-37.65535 -109.600464 -17.946796
-28.044297 -90.764786 -22.791031
-29.183386 -90.673721 -23.331674
-29.460425 -88.771668 -23.393968
-26.617131 -92.63736 -22.194073
-28.044297 -90.764786 -22.791031
-35.527086 -74.25975 -27.58477
-36.598723 -73.929451 -28.007281
-26.793687 -108.507751 -23.35508
-26.673216 -109.806168 -23.357678
-28.434643 -106.724297 -23.580891
-26.793687 -108.507751 -23.35508
-35.714119 -99.731743 -23.924408
-34.345981 -101.759766 -23.909666
-35.789198 -98.302368 -24.186998
-35.714119 -99.731743 -23.924408
-37.073721 -97.643318 -24.022463
-46.183127 -98.826156 1.444163
-45.514145 -100.106834 1.323462
-46.443247 -98.34079 0.36069
-46.183127 -98.826156 1.444163
-46.710549 -97.857552 -0.679596
-46.091219 -99.20562 -0.762044
-46.443247 -98.34079 0.36069
-46.952038 -97.300255 -1.750279
-46.710549 -97.857552 -0.679596
-27.327378 -104.24704 22.093232
-26.270856 -104.371292 21.974614
-27.813553 -105.38916 21.091184
-27.327378 -104.24704 22.093232
-28.445166 -104.065689 22.284979
-30.530736 -110.487694 15.563233
-30.07479 -109.916733 16.446151
-31.313581 -109.350151 16.746251
-30.941017 -110.988006 14.658334
-30.530736 -110.487694 15.563233
-30.941017 -110.988006 14.658334
-32.199087 -110.258537 14.968243
-38.584125 -106.64312 13.014867
-39.196766 -105.846115 14.479266
-39.627956 -105.579048 13.489562
-36.292184 -108.749527 12.103376
-37.013326 -107.920502 13.534005
-37.431793 -107.739212 12.573943
-35.479198 -109.627578 10.738947
-36.292184 -108.749527 12.103376
-35.479198 -109.627578 10.738947
-35.897937 -109.417587 9.76874
-34.682963 -110.840019 6.084727
-35.542595 -109.971801 7.414804
-35.188509 -110.52864 5.095562
-34.682963 -110.840019 6.084727
-38.005056 -108.856797 0.335811
-37.435421 -109.179337 1.26928
-38.685187 -108.019638 1.638455
-38.63435 -108.527222 -0.548096
-37.384585 -109.686921 -0.917271
-38.005056 -108.856797 0.335811
-42.149412 -106.044807 -7.656559
-41.198667 -107.298385 -7.813578
-41.861466 -106.357628 -6.744698
-43.985594 -100.597138 -15.549948
-43.838327 -101.422371 -14.778533
-44.752899 -99.610375 -14.578648
-43.181064 -101.560845 -16.468196
-43.985594 -100.597138 -15.549948
-45.287007 -93.853119 -18.616562
-46.141979 -91.938744 -18.445162
-44.411398 -94.735047 -19.411318
-44.372423 -95.833023 -18.817572
-45.287007 -93.853119 -18.616562
-44.45694 -92.381211 -20.515989
-44.428883 -93.581367 -19.941606
-45.354038 -91.554985 -19.784691
-44.476151 -91.118882 -21.027878
-43.550995 -93.145264 -21.184793
-44.45694 -92.381211 -20.515989
-15.010555 -107.920921 28.9681
-15.093208 -106.853096 30.526446
-15.010555 -107.920921 28.9681
-15.929242 -107.661781 27.892767
-22.448654 -112.541741 16.493199
-22.158285 -111.526466 17.600527
-23.760936 -112.095917 16.202688
-22.448654 -112.541741 16.493199
-32.074504 -84.651489 -24.743147
-30.773646 -86.768044 -24.080272
-31.900371 -86.564049 -24.597487
-33.276369 -82.53191 -25.487929
-32.149644 -82.735905 -24.970714
-32.074504 -84.651489 -24.743147
-37.70534 -73.556747 -28.390282
-36.598723 -73.929451 -28.007281
-36.670536 -75.823082 -27.63212
-37.70534 -73.556747 -28.390282
-38.805863 -73.143203 -28.683157
-29.601506 -111.092186 -23.128709
-31.130654 -110.431602 -22.949745
-29.65172 -109.967086 -23.317386
-29.601506 -111.092186 -23.128709
-31.227716 -108.16793 -23.433983
-29.710076 -108.774437 -23.505119
-29.65172 -109.967086 -23.317386
-34.205631 -104.385292 -23.509999
-32.77422 -105.052009 -23.676052
-32.717484 -106.308563 -23.455662
-35.489962 -104.88015 -22.922297
-34.109995 -106.782105 -22.994003
-35.522819 -103.67553 -23.245725
-35.489962 -104.88015 -22.922297
-34.205631 -104.385292 -23.509999
-35.522819 -103.67553 -23.245725
-38.188846 -98.340759 -23.399666
-38.137897 -99.659019 -23.120651
-39.425771 -96.231026 -23.394806
-38.235567 -96.96296 -23.755012
-38.188846 -98.340759 -23.399666
-44.012655 -102.130928 3.208631
-43.104746 -103.325348 2.95376
-43.579235 -102.466408 4.210873
-44.371269 -101.75734 2.1601
-44.012655 -102.130928 3.208631
-32.647014 -105.541176 21.790466
-31.620369 -105.734856 21.20487
-33.708143 -105.177277 22.3748
-34.673296 -104.901138 23.067715
-33.21058 -106.224175 20.882828
-32.647014 -105.541176 21.790466
-33.708143 -105.177277 22.3748
-34.736368 -107.701904 18.203272
-33.648508 -108.249245 17.637552
-34.256355 -107.304665 19.092126
-40.061437 -105.251541 12.454025
-39.627956 -105.579048 13.489562
-40.674078 -104.454536 13.918425
-39.455023 -106.046761 11.020291
-40.061437 -105.251541 12.454025
-40.501145 -104.922248 11.449154
-38.73599 -106.861732 9.60134
-38.296284 -107.191025 10.606211
-39.455023 -106.046761 11.020291
-39.199549 -106.531768 8.61588
-38.040809 -107.676033 8.2018
-38.73599 -106.861732 9.60134
-39.656176 -106.182274 7.604273
-39.199549 -106.531768 8.61588
-40.152353 -105.842186 6.621607
-39.000546 -107.005981 6.233674
-39.656176 -106.182274 7.604273
-40.621006 -105.497604 5.610366
-40.152353 -105.842186 6.621607
-41.135907 -105.16774 4.637564
-40.011623 -106.336029 4.278205
-40.621006 -105.497604 5.610366
-41.598925 -104.833496 3.630702
-41.135907 -105.16774 4.637564
-42.208308 -103.995071 4.962864
-47.149776 -96.502265 -7.899986
-46.899179 -97.214218 -6.924504
-47.573751 -95.610267 -6.855983
-46.707279 -97.385384 -8.897268
-47.149776 -96.502265 -7.899986
-46.200798 -98.315804 -9.940585
-45.968723 -99.036636 -9.011824
-46.707279 -97.385384 -8.897268
-46.410236 -97.589035 -10.824364
-45.671681 -99.240287 -10.93892
-46.200798 -98.315804 -9.940585
-46.636494 -96.797669 -11.699673
-46.410236 -97.589035 -10.824364
-46.06819 -97.706184 -12.645539
-46.636494 -96.797669 -11.699673
-37.904815 -107.289993 -20.022041
-37.83955 -108.122665 -19.396013
-39.172573 -105.436256 -19.882812
-37.904815 -107.289993 -20.022041
-28.187321 -97.849899 -23.200966
-27.96618 -99.527817 -23.181151
-29.53609 -97.5923 -23.610181
-26.903497 -98.050941 -22.739632
-28.187321 -97.849899 -23.200966
-28.473407 -96.115425 -23.168663
-25.594185 -98.144287 -22.264834
-26.903497 -98.050941 -22.739632
-24.36114 -98.175217 -21.757044
-25.594185 -98.144287 -22.264834
-25.956537 -96.347397 -22.19954
-23.121026 -98.089767 -21.263178
-22.758673 -99.886657 -21.328472
-24.36114 -98.175217 -21.757044
-23.121026 -98.089767 -21.263178
-23.567554 -96.227753 -21.181797
-32.295155 -80.772186 -25.167427
-32.149644 -82.735905 -24.970714
-32.339399 -78.817836 -25.437098
-32.295155 -80.772186 -25.167427
-33.395754 -78.661976 -25.985166
-32.4639 -76.814827 -25.685821
-32.339399 -78.817836 -25.437098
-34.465126 -74.51567 -27.087629
-34.501959 -76.451706 -26.751978
-35.527086 -74.25975 -27.58477
-33.467776 -74.723877 -26.566961
-34.465126 -74.51567 -27.087629
-32.4639 -76.814827 -25.685821
-33.467776 -74.723877 -26.566961
-15.121802 -104.752869 33.694595
-15.044369 -103.733841 35.316574
-15.816674 -103.408584 34.189919
-15.075302 -105.787201 32.105126
-15.121802 -104.752869 33.694595
-15.912013 -105.493507 30.98926
-15.093208 -106.853096 30.526446
-15.075302 -105.787201 32.105126
-17.629656 -104.691933 28.873665
-16.826373 -106.179314 28.373875
-16.733201 -105.072022 29.91037
-18.208233 -102.025109 31.01929
-17.403158 -102.529229 32.01854
-18.074907 -100.969696 32.627669
-18.407908 -103.128906 29.455188
-18.208233 -102.025109 31.01929
-19.079656 -101.569374 30.064318
-18.501079 -104.236199 27.918693
-17.629656 -104.691933 28.873665
-18.407908 -103.128906 29.455188
-21.379013 -103.019501 25.589655
-20.634586 -104.602104 24.886387
-20.374603 -103.40017 26.267256
-27.496678 -102.738731 -23.245428
-27.269877 -104.264572 -23.317823
-29.110637 -100.847412 -23.592535
-27.700989 -101.161537 -23.243259
-27.496678 -102.738731 -23.245428
-29.79589 -107.529449 -23.590187
-28.219893 -109.328606 -23.473591
-29.710076 -108.774437 -23.505119
-30.013914 -104.862458 -23.72936
-28.434643 -106.724297 -23.580891
-29.88498 -106.221779 -23.707128
-32.946923 -102.375366 -23.972271
-32.863309 -103.744339 -23.792994
-34.345981 -101.759766 -23.909666
-30.137671 -103.44368 -23.811394
-30.013914 -104.862458 -23.72936
-31.588008 -102.941162 -23.937632
-30.309045 -101.973495 -23.807184
-28.734952 -103.89479 -23.598914
-30.137671 -103.44368 -23.811394
-39.554665 -108.97136 -6.162393
-39.136841 -109.202874 -5.401656
-40.538498 -107.885849 -6.032733
-39.554665 -108.97136 -6.162393
-41.533375 -106.719352 -5.81734
-40.538498 -107.885849 -6.032733
-41.161152 -106.993996 -4.948357
-42.484119 -105.465775 -5.660322
-41.861466 -106.357628 -6.744698
-41.533375 -106.719352 -5.81734
-45.06463 -100.980598 0.114658
-44.754858 -101.398575 1.159878
-45.514145 -100.106834 1.323462
-47.194847 -96.7397 -2.780112
-46.60133 -98.161828 -2.832163
-46.952038 -97.300255 -1.750279
-47.440426 -96.108261 -3.831142
-47.194847 -96.7397 -2.780112
-47.679934 -95.468735 -4.840394
-47.083647 -96.961747 -4.871249
-47.440426 -96.108261 -3.831142
-47.94832 -94.769753 -5.861995
-47.679934 -95.468735 -4.840394
-22.339536 -102.672546 25.0658
-21.379013 -103.019501 25.589655
-22.681377 -103.911987 23.782447
-22.339536 -102.672546 25.0658
-22.950791 -105.11985 22.518031
-21.908409 -105.429299 22.94437
-22.681377 -103.911987 23.782447
-23.597108 -107.508225 20.195061
-22.471909 -107.807396 20.522493
-25.561992 -105.804665 20.962263
-25.137083 -104.605446 22.03744
-26.270856 -104.371292 21.974614
-24.798273 -107.185318 19.961085
-25.561992 -105.804665 20.962263
-25.932046 -106.951165 19.898259
-23.967162 -108.654725 19.131056
-23.597108 -107.508225 20.195061
-24.798273 -107.185318 19.961085
-25.024506 -111.712211 16.051495
-23.760936 -112.095917 16.202688
-24.67677 -110.762565 17.069214
-30.011313 -105.044724 21.697089
-29.47461 -104.002601 22.649795
-30.554583 -103.839516 23.063952
-29.417803 -106.198326 20.349722
-30.011313 -105.044724 21.697089
-30.497775 -106.035241 20.76388
-29.170397 -108.395409 18.242294
-30.380949 -107.984016 18.522841
-29.647083 -109.190582 17.348622
-28.000185 -108.674576 17.996697
-28.734051 -107.46801 19.170916
-29.170397 -108.395409 18.242294
-27.188435 -109.990417 16.993047
-26.75209 -109.063018 17.92167
-28.000185 -108.674576 17.996697
-26.33307 -111.232529 15.970021
-27.188435 -109.990417 16.993047
-25.024506 -111.712211 16.051495
-26.33307 -111.232529 15.970021
-36.355814 -106.101189 20.281074
-35.799723 -105.841812 21.22759
-35.844544 -106.975289 18.739788
-36.355814 -106.101189 20.281074
-36.856143 -106.319153 19.363017
-35.236697 -107.919869 17.285214
-34.736368 -107.701904 18.203272
-35.844544 -106.975289 18.739788
-38.74995 -106.098495 15.495363
-39.793782 -105.034424 15.970058
-39.196766 -105.846115 14.479266
-38.310581 -106.251755 16.462612
-38.74995 -106.098495 15.495363
-37.713566 -107.063446 14.971821
-37.835391 -106.378388 17.454595
-38.310581 -106.251755 16.462612
-36.809534 -107.204979 16.8804
-37.370728 -106.366661 18.395925
-37.835391 -106.378388 17.454595
-35.684809 -108.090134 16.377201
-36.809534 -107.204979 16.8804
-36.149472 -108.10186 15.435871
-35.236697 -107.919869 17.285214
-35.684809 -108.090134 16.377201
-35.69561 -110.196586 4.121161
-35.188509 -110.52864 5.095562
-36.507067 -109.344612 5.461041
-34.947536 -111.040161 2.789674
-35.69561 -110.196586 4.121161
-36.266094 -109.856133 3.155153
-34.163714 -111.895294 1.477003
-34.947536 -111.040161 2.789674
-34.163714 -111.895294 1.477003
-34.816105 -111.532791 0.524588
-36.762516 -110.492829 -2.17403
-37.384585 -109.686921 -0.917271
-36.762516 -110.492829 -2.17403
-37.454363 -110.131447 -2.982984
-40.479571 -108.207031 -8.805636
-41.198667 -107.298385 -7.813578
-40.479571 -108.207031 -8.805636
-40.702509 -107.957909 -9.731943
-41.361994 -106.67553 -12.513105
-41.148705 -107.188987 -11.598436
-42.185023 -105.669342 -11.500587
-40.509823 -107.693642 -13.514639
-41.361994 -106.67553 -12.513105
-41.546141 -106.173996 -13.416791
-39.538826 -108.722283 -14.46664
-40.509823 -107.693642 -13.514639
-39.690064 -108.2183 -15.357308
-39.538826 -108.722283 -14.46664
-39.846523 -107.582962 -16.196073
-39.690064 -108.2183 -15.357308
-40.85043 -106.55677 -15.257089
-39.971773 -106.929642 -16.998412
-38.811407 -108.591172 -17.098631
-39.846523 -107.582962 -16.196073
-40.315562 -103.578843 -19.695355
-39.172573 -105.436256 -19.882812
-40.26039 -104.497368 -19.106922
-42.415422 -100.727135 -18.692213
-42.347242 -101.676254 -18.053011
-41.445498 -101.649506 -19.49094
-42.415422 -100.727135 -18.692213
-42.457542 -99.736687 -19.263689
-40.357681 -102.588394 -20.26683
-40.315562 -103.578843 -19.695355
-41.445498 -101.649506 -19.49094
-40.38689 -101.551079 -20.75885
-39.256954 -103.480415 -20.963265
-40.357681 -102.588394 -20.26683
-40.425455 -99.299499 -21.679454
-39.305582 -101.291199 -21.873895
-40.406036 -100.451401 -21.260843
-40.440075 -98.08953 -22.137093
-40.425455 -99.299499 -21.679454
-41.540529 -97.249733 -21.52404
-40.4671 -96.824295 -22.510568
-39.352026 -98.874061 -22.665983
-40.440075 -98.08953 -22.137093
-44.51086 -89.810395 -21.605764
-44.476151 -91.118882 -21.027878
-44.546316 -88.436684 -22.121237
-45.503801 -86.319344 -22.113077
-44.598602 -87.018173 -22.719468
-43.605661 -90.509224 -22.212154
-44.51086 -89.810395 -21.605764
-44.546316 -88.436684 -22.121237
-40.724092 -89.663475 -24.562622
-40.657293 -91.203491 -24.105017
-41.771946 -88.988503 -24.201922
-40.805313 -88.073937 -24.934563
-39.69066 -90.288926 -24.837658
-40.724092 -89.663475 -24.562622
-40.877956 -86.438629 -25.411648
-40.805313 -88.073937 -24.934563
-40.954825 -84.759568 -25.801235
-39.848749 -87.020325 -25.599186
-40.877956 -86.438629 -25.411648
-41.014597 -83.045716 -26.294935
-40.954825 -84.759568 -25.801235
-41.067572 -81.294311 -26.700235
-39.978592 -83.589859 -26.394073
-41.014597 -83.045716 -26.294935
-41.096209 -79.522285 -27.204323
-41.067572 -81.294311 -26.700235
-42.132214 -78.978142 -27.105185
-40.044857 -80.034126 -27.216522
-41.096209 -79.522285 -27.204323
-14.945093 -101.621032 -18.71068
-16.53942 -100.274658 -19.060883
-15.513967 -99.728454 -18.593813
-13.355604 -102.922111 -18.365063
-14.381056 -103.468315 -18.832133
-14.945093 -101.621032 -18.71068
-13.00057 -100.382904 -17.762518
-14.559145 -99.131767 -18.142933
-13.640074 -98.439842 -17.66184
-12.381093 -102.275597 -17.85879
-13.00057 -100.382904 -17.762518
-11.817056 -104.122879 -17.980242
-13.355604 -102.922111 -18.365063
-12.381093 -102.275597 -17.85879
3 0 127 128
3 0 129 130
3 1 29 27
3 1 131 133
3 133 132 29
3 131 132 133
3 134 31 135
3 2 136 137
3 139 138 32
3 140 34 141
3 3 142 144
3 142 36 143
3 142 143 144
3 3 38 36
3 4 41 39
3 145 44 146
3 147 47 148
3 149 148 45
3 147 148 149
3 151 150 47
3 6 50 48
3 6 152 154
3 154 153 50
3 152 153 154
3 6 155 157
3 155 51 156
3 155 156 157
3 4 54 52
3 4 39 54
3 5 58 56
3 158 61 159
3 160 159 59
3 158 159 160
3 162 161 61
3 163 63 164
3 167 166 63
3 165 166 167
3 169 168 65
3 7 170 171
3 7 172 174
3 172 66 173
3 172 173 174
3 8 69 67
3 10 70 28
3 10 71 70
3 10 73 71
3 175 74 176
3 177 176 30
3 175 176 177
3 179 178 74
3 180 75 181
3 182 77 183
3 184 183 75
3 182 183 184
3 185 78 186
3 188 187 79
3 189 81 190
3 191 82 192
3 193 192 81
3 191 192 193
3 194 79 195
3 14 86 84
3 16 196 197
3 16 198 200
3 198 87 199
3 198 199 200
3 9 88 68
3 201 89 202
3 203 202 33
3 201 202 203
3 205 204 89
3 11 90 72
3 206 91 207
3 208 92 209
3 210 209 91
3 208 209 210
3 211 93 212
3 213 94 214
3 215 214 76
3 213 214 215
3 17 95 35
3 17 96 95
3 17 97 96
3 18 98 37
3 18 99 98
3 19 216 218
3 216 100 217
3 216 217 218
3 20 101 40
3 20 102 101
3 219 103 220
3 221 220 80
3 219 220 221
3 21 104 42
3 21 105 104
3 21 106 105
3 22 107 43
3 22 108 107
3 12 222 224
3 222 109 223
3 222 223 224
3 226 225 46
3 227 110 228
3 229 111 230
3 231 230 49
3 229 230 231
3 233 232 111
3 13 112 83
3 234 113 235
3 236 235 53
3 234 235 236
3 238 237 113
3 19 239 241
3 241 240 55
3 239 240 241
3 19 242 243
3 23 244 246
3 246 245 57
3 244 245 246
3 23 247 248
3 15 114 85
3 24 115 60
3 24 116 115
3 24 117 116
3 249 118 250
3 251 250 62
3 249 250 251
3 252 119 253
3 254 253 118
3 252 253 254
3 25 255 256
3 25 257 259
3 257 120 258
3 257 258 259
3 25 121 120
3 26 122 64
3 26 123 122
3 260 124 261
3 262 125 263
3 264 263 124
3 262 263 264
3 266 265 125
3 267 126 268
3 269 7 270
3 27 28 8
3 29 28 27
3 29 10 28
3 29 30 10
3 271 30 272
3 273 272 29
3 271 272 273
3 275 274 30
3 31 276 277
3 31 278 279
3 282 281 14
3 280 281 282
3 283 16 284
3 32 33 9
3 285 33 286
3 287 286 32
3 285 286 287
3 289 288 33
3 291 290 11
3 34 292 293
3 34 294 295
3 296 35 297
3 36 298 300
3 298 35 299
3 298 299 300
3 36 17 35
3 36 37 17
3 38 37 36
3 38 18 37
3 39 40 19
3 41 40 39
3 41 20 40
3 301 42 302
3 303 42 304
3 305 21 306
3 307 306 42
3 305 306 307
3 309 308 21
3 310 43 311
3 44 312 314
3 312 43 313
3 312 313 314
3 44 22 43
3 45 46 12
3 47 46 45
3 47 315 317
3 317 316 46
3 315 316 317
3 47 318 319
3 321 320 47
3 48 322 324
3 322 49 323
3 322 323 324
3 50 49 48
3 50 325 327
3 327 326 49
3 325 326 327
3 50 328 329
3 331 330 50
3 51 332 333
3 51 334 335
3 52 53 13
3 54 53 52
3 54 336 338
3 338 337 53
3 336 337 338
3 54 339 341
3 339 55 340
3 339 340 341
3 39 55 54
3 39 19 55
3 56 342 344
3 342 57 343
3 342 343 344
3 58 57 56
3 58 23 57
3 59 60 15
3 61 60 59
3 61 24 60
3 61 62 24
3 345 62 346
3 347 346 61
3 345 346 347
3 349 348 62
3 63 350 351
3 63 352 354
3 352 25 353
3 352 353 354
3 63 64 25
3 355 64 356
3 357 356 63
3 355 356 357
3 358 26 359
3 360 359 64
3 358 359 360
3 65 361 362
3 364 363 65
3 66 365 366
3 66 367 368
3 67 68 2
3 69 68 67
3 69 9 68
3 28 69 8
3 70 69 28
3 70 9 69
3 70 32 9
3 71 32 70
3 71 369 371
3 371 370 32
3 369 370 371
3 71 372 374
3 372 72 373
3 372 373 374
3 73 72 71
3 73 11 72
3 30 73 10
3 74 73 30
3 74 11 73
3 74 375 377
3 377 376 11
3 375 376 377
3 379 378 74
3 75 380 381
3 75 382 383
3 75 384 386
3 384 76 385
3 384 385 386
3 77 76 75
3 77 387 389
3 389 388 76
3 387 388 389
3 390 77 391
3 392 77 393
3 395 394 77
3 78 396 397
3 78 398 400
3 398 3 399
3 398 399 400
3 79 80 4
3 401 80 402
3 403 402 79
3 401 402 403
3 405 404 80
3 406 12 407
3 81 408 409
3 81 410 412
3 410 12 411
3 410 411 412
3 81 45 12
3 82 45 81
3 82 413 415
3 415 414 45
3 413 414 415
3 416 48 417
3 416 417 418
3 419 48 420
3 419 420 421
3 422 6 423
3 424 423 48
3 422 423 424
3 425 83 426
3 427 426 6
3 425 426 427
3 428 83 429
3 430 13 431
3 432 431 83
3 430 431 432
3 433 13 434
3 435 52 436
3 437 436 13
3 435 436 437
3 79 438 440
3 438 52 439
3 438 439 440
3 79 4 52
3 84 85 5
3 86 85 84
3 86 15 85
3 441 86 442
3 443 442 14
3 441 442 443
3 444 86 445
3 446 15 447
3 448 447 86
3 446 447 448
3 449 59 450
3 451 450 15
3 449 450 451
3 452 59 453
3 455 454 59
3 87 456 457
3 87 458 459
3 68 460 462
3 462 461 2
3 460 461 462
3 88 463 465
3 465 464 68
3 463 464 465
3 88 466 467
3 33 88 9
3 89 88 33
3 89 468 470
3 470 469 88
3 468 469 470
3 89 471 473
3 471 472 473
3 475 474 89
3 72 476 477
3 90 478 480
3 480 479 72
3 478 479 480
3 90 481 482
3 483 90 484
3 485 484 11
3 483 484 485
3 486 90 487
3 489 488 90
3 91 490 492
3 490 491 492
3 91 493 494
3 91 495 497
3 495 65 496
3 495 496 497
3 92 65 91
3 92 498 500
3 500 499 65
3 498 499 500
3 501 92 502
3 501 502 503
3 504 92 505
3 504 505 506
3 509 508 92
3 507 508 509
3 510 0 511
3 510 511 512
3 93 513 514
3 93 515 517
3 515 2 516
3 515 516 517
3 76 518 520
3 518 34 519
3 518 519 520
3 94 34 76
3 94 521 523
3 523 522 34
3 521 522 523
3 35 524 526
3 524 94 525
3 524 525 526
3 95 94 35
3 95 527 529
3 529 528 94
3 527 528 529
3 95 530 532
3 530 93 531
3 530 531 532
3 96 93 95
3 96 2 93
3 96 67 2
3 97 67 96
3 97 8 67
3 37 97 17
3 98 97 37
3 98 8 97
3 98 27 8
3 99 27 98
3 99 1 27
3 100 533 534
3 100 535 536
3 40 100 19
3 101 100 40
3 101 537 539
3 539 538 100
3 537 538 539
3 101 540 542
3 540 56 541
3 540 541 542
3 102 56 101
3 102 5 56
3 80 41 4
3 103 41 80
3 103 20 41
3 42 543 545
3 543 103 544
3 543 544 545
3 104 103 42
3 104 20 103
3 104 102 20
3 105 102 104
3 105 5 102
3 105 84 5
3 106 84 105
3 106 14 84
3 546 106 547
3 548 547 21
3 546 547 548
3 549 106 550
3 551 14 552
3 553 552 106
3 551 552 553
3 555 554 14
3 556 0 557
3 558 0 559
3 562 561 0
3 560 561 562
3 563 7 564
3 43 565 567
3 565 566 567
3 107 568 570
3 570 569 43
3 568 569 570
3 107 571 573
3 571 7 572
3 571 572 573
3 107 66 7
3 108 66 107
3 108 574 576
3 576 575 66
3 574 575 576
3 577 44 578
3 577 578 579
3 109 580 582
3 580 44 581
3 580 581 582
3 109 22 44
3 46 109 12
3 583 109 584
3 585 584 46
3 583 584 585
3 586 22 587
3 588 587 109
3 586 587 588
3 589 108 590
3 591 590 22
3 589 590 591
3 592 108 593
3 595 594 108
3 596 82 597
3 110 598 600
3 598 82 599
3 598 599 600
3 110 601 603
3 603 602 82
3 601 602 603
3 49 604 606
3 604 605 606
3 111 607 609
3 609 608 49
3 607 608 609
3 111 610 611
3 111 612 614
3 612 110 613
3 612 613 614
3 615 110 616
3 617 616 111
3 615 616 617
3 619 618 110
3 83 51 6
3 112 51 83
3 112 620 622
3 622 621 51
3 620 621 622
3 53 112 13
3 113 112 53
3 113 623 625
3 625 624 112
3 623 624 625
3 113 626 627
3 629 628 113
3 55 630 631
3 633 632 55
3 57 634 635
3 637 636 57
3 85 58 5
3 114 58 85
3 114 23 58
3 60 114 15
3 115 114 60
3 115 23 114
3 115 638 640
3 640 639 23
3 638 639 640
3 116 641 643
3 643 642 115
3 641 642 643
3 116 644 645
3 116 646 647
3 117 648 650
3 650 649 116
3 648 649 650
3 117 651 653
3 651 16 652
3 651 652 653
3 62 117 24
3 118 117 62
3 118 16 117
3 118 87 16
3 119 87 118
3 119 654 656
3 656 655 87
3 654 655 656
3 657 119 658
3 120 659 661
3 659 119 660
3 659 660 661
3 120 662 664
3 664 663 119
3 662 663 664
3 120 665 667
3 665 31 666
3 665 666 667
3 121 31 120
3 121 668 670
3 670 669 31
3 668 669 670
3 64 121 25
3 122 121 64
3 122 671 673
3 673 672 121
3 671 672 673
3 122 674 676
3 674 78 675
3 674 675 676
3 123 78 122
3 123 3 78
3 677 26 678
3 124 679 681
3 679 680 681
3 124 682 684
3 682 26 683
3 682 683 684
3 124 123 26
3 125 123 124
3 125 3 123
3 125 38 3
3 685 38 686
3 687 686 125
3 685 686 687
3 688 18 689
3 690 689 38
3 688 689 690
3 691 18 692
3 693 99 694
3 695 694 18
3 693 694 695
3 696 99 697
3 698 1 699
3 700 699 99
3 698 699 700
3 701 1 702
3 701 702 703
3 705 704 1
3 126 706 708
3 706 707 708
3 126 709 711
3 709 710 711
3 712 126 713
3 712 713 714
3 715 126 716
3 719 718 126
3 717 718 719
