ply
format ascii 1.0
element vertex 237
property float x
property float y
property float z
element face 200
property list uchar int vertex_index
end_header
0.00713 -70.259232 56.205048
-1.857832 -61.226097 63.784149
-2.012274 -59.482075 53.710415
-0.707052 -65.465454 60.14175
-1.910244 -60.505024 58.557682
-0.064501 -70.371902 61.512379
0.321688 -75.495705 57.384922
-3.308002 -55.291439 56.806473
-2.919086 -53.68861 52.472118
-0.3041 -67.790794 58.202412
-0.766594 -65.242126 57.518929
-0.38159 -67.628006 55.58292
-0.392181 -68.003036 63.525265
0.167189 -75.442902 60.013741
0.344645 -78.159088 55.292274
-1.966303 -60.031853 56.081207
-2.61488 -57.941509 57.70018
-2.593954 -57.326988 55.333134
-3.162575 -54.533531 54.567593
-2.519291 -56.627892 53.091965
-1.223299 -63.285007 62.006523
-1.867823 -60.90147 61.131447
-1.25597 -63.004448 59.37326
-1.337473 -62.663498 56.810444
-1.446901 -62.257851 54.33115
0.236134 -72.841537 54.168407
-0.077091 -70.148766 53.585846
-1.255741 -63.511436 64.688187
-0.721407 -65.643555 62.806843
-0.303099 -67.913971 60.857208
0.01539 -70.331696 58.853546
0.174294 -72.880966 59.461807
0.248089 -72.878586 56.810879
0.383974 -75.510361 54.744053
0.379637 -78.163177 52.666168
-2.605293 -58.464691 60.189808
-3.624561 -51.641212 53.78804
-3.180647 -50.661751 51.848408
-2.018482 -58.862911 51.443947
-2.601326 -49.630962 50.038513
-1.900627 -48.586517 48.317883
-1.10605 -47.567238 46.641327
-0.258476 -46.608414 44.9683
-2.221691 -60.061861 63.285589
-2.21609 -60.236401 64.625458
-1.110319 -63.81546 55.883224
-1.052033 -63.952812 57.164687
-0.824879 -65.104774 56.237467
-1.165033 -63.612637 54.643577
-1.392187 -62.460674 55.570797
-1.110319 -63.81546 55.883224
0.192375 -72.802696 52.859725
0.298563 -74.162689 53.139645
-1.039916 -64.646534 65.088173
-1.312223 -63.600122 66.037819
-0.772749 -65.712593 64.147501
-0.988574 -64.577495 63.747515
-1.039916 -64.646534 65.088173
0.282588 -79.482845 52.929487
0.362141 -78.161133 53.979221
0.265092 -79.480801 54.24254
0.275731 -79.464729 51.626402
0.282588 -79.482845 52.929487
-3.340613 -55.619507 57.998979
-2.994052 -56.944542 58.445833
-2.961441 -56.616474 57.253327
-3.707098 -54.309065 57.477995
-3.340613 -55.619507 57.998979
-3.619369 -53.914332 56.345753
-3.707098 -54.309065 57.477995
-0.297747 -68.784012 53.299602
-0.148892 -70.071171 52.29735
-1.984847 -58.526138 50.358211
-1.823546 -60.061386 50.539379
-2.192011 -57.36137 51.206058
-1.984847 -58.526138 50.358211
-2.344041 -50.736755 49.334829
-2.582179 -51.205984 50.270683
-1.993691 -50.214533 48.474514
-2.250977 -49.108739 49.178198
-2.344041 -50.736755 49.334829
-0.954554 -48.791251 45.842979
-1.299958 -49.238096 46.732027
-0.530767 -48.311839 45.006466
-0.682263 -47.087826 45.804813
-0.954554 -48.791251 45.842979
-0.632378 -66.297714 55.269463
-0.824879 -65.104774 56.237467
-0.574092 -66.435066 56.550925
-0.488914 -68.031639 64.850866
-0.608136 -66.892334 64.506712
-0.318543 -69.192863 63.84035
-0.488914 -68.031639 64.850866
-0.154703 -70.377296 62.833906
-0.228341 -69.187469 62.518822
-0.318543 -69.192863 63.84035
0.079894 -76.723641 60.253397
0.038726 -75.396981 61.309334
-0.048569 -76.677719 61.54899
0.19258 -76.774746 58.961159
0.079894 -76.723641 60.253397
0.26983 -76.801147 57.646749
0.244439 -75.469303 58.699331
0.19258 -76.774746 58.961159
0.281308 -78.132839 56.600426
0.333166 -76.827396 56.338598
0.26983 -76.801147 57.646749
0.225461 -79.468326 55.541366
0.281308 -78.132839 56.600426
0.145908 -80.790039 54.491632
0.265092 -79.480801 54.24254
0.225461 -79.468326 55.541366
0.035762 -71.456311 52.568445
0.079521 -71.495151 53.877127
0.192375 -72.802696 52.859725
-0.148892 -70.071171 52.29735
0.035762 -71.456311 52.568445
-1.877368 -61.35594 65.136212
-2.21609 -60.236401 64.625458
-1.576322 -62.49861 65.588231
-1.312223 -63.600122 66.037819
-1.556786 -62.368767 64.236168
-1.877368 -61.35594 65.136212
-1.576322 -62.49861 65.588231
-0.556794 -66.823296 63.166054
-0.772749 -65.712593 64.147501
-0.608136 -66.892334 64.506712
-0.029771 -71.611831 61.805434
-0.154703 -70.377296 62.833906
0.086074 -74.147332 61.056115
0.038726 -75.396981 61.309334
0.089626 -72.866364 60.780147
0.086074 -74.147332 61.056115
0.170741 -74.161934 59.737774
0.054897 -71.626434 60.487093
-0.029771 -71.611831 61.805434
0.089626 -72.866364 60.780147
0.372482 -75.497101 53.427467
0.298563 -74.162689 53.139645
0.310054 -74.175949 54.45623
0.370314 -76.823509 52.388525
0.372482 -75.497101 53.427467
0.381806 -76.836769 53.705111
0.35355 -78.13977 51.356857
0.370314 -76.823509 52.388525
0.35355 -78.13977 51.356857
0.275731 -79.464729 51.626402
-2.226687 -59.899547 61.959238
-2.221691 -60.061861 63.285589
-1.862827 -61.063783 62.457798
-2.595422 -58.681158 61.488418
-2.226687 -59.899547 61.959238
-2.236558 -59.683081 60.660628
-2.991405 -57.480869 60.950398
-2.595422 -58.681158 61.488418
-2.989259 -57.206133 59.690647
-2.610086 -58.2031 58.944994
-2.994052 -56.944542 58.445833
-2.991405 -57.480869 60.950398
-2.989259 -57.206133 59.690647
-3.546655 -53.535378 55.226313
-3.619369 -53.914332 56.345753
-3.235289 -54.912485 55.687033
-3.777648 -52.089218 54.836537
-3.546655 -53.535378 55.226313
-3.393568 -53.087372 54.177817
-4.029789 -50.653984 54.368784
-3.777648 -52.089218 54.836537
-3.786097 -50.142715 53.395466
-4.029789 -50.653984 54.368784
-3.56414 -49.652985 52.42565
-3.786097 -50.142715 53.395466
-3.402604 -51.151482 52.818224
-3.236244 -49.104414 51.535668
-3.56414 -49.652985 52.42565
-0.449996 -67.523632 54.29814
-0.229341 -68.888386 54.584383
-0.297747 -68.784012 53.299602
-0.632378 -66.297714 55.269463
-0.449996 -67.523632 54.29814
-1.240177 -63.447415 53.397001
-1.165033 -63.612637 54.643577
-1.501417 -62.022824 53.135576
-1.240177 -63.447415 53.397001
-1.784104 -60.634935 52.825209
-1.729588 -60.869963 54.020782
-1.501417 -62.022824 53.135576
-1.787208 -60.325353 51.691975
-1.823546 -60.061386 50.539379
-2.015378 -59.172493 52.577181
-1.784104 -60.634935 52.825209
-1.787208 -60.325353 51.691975
-2.442416 -56.24386 52.030068
-2.268886 -57.745401 52.267956
-2.192011 -57.36137 51.206058
-2.642313 -54.77422 51.720144
-2.719189 -55.158251 52.782042
-2.442416 -56.24386 52.030068
-2.741059 -53.234808 51.487486
-2.642313 -54.77422 51.720144
-2.87184 -51.721379 51.17563
-3.049867 -52.17518 52.160263
-2.741059 -53.234808 51.487486
-2.890986 -50.146356 50.943461
-2.87184 -51.721379 51.17563
-2.582179 -51.205984 50.270683
-2.946584 -48.589019 50.63072
-3.236244 -49.104414 51.535668
-2.890986 -50.146356 50.943461
-2.546229 -48.022054 49.804331
-2.946584 -48.589019 50.63072
-2.19588 -47.499832 48.944016
-2.546229 -48.022054 49.804331
-2.250977 -49.108739 49.178198
-1.74213 -46.934799 48.154856
-2.19588 -47.499832 48.944016
-1.697246 -49.747736 47.570305
-1.993691 -50.214533 48.474514
-1.503338 -48.076878 47.479605
-1.697246 -49.747736 47.570305
-1.299958 -49.238096 46.732027
-1.344842 -46.42516 47.316578
-1.74213 -46.934799 48.154856
-1.503338 -48.076878 47.479605
-0.863112 -45.881487 46.537166
-1.344842 -46.42516 47.316578
-0.439325 -45.402075 45.700653
-0.863112 -45.881487 46.537166
-0.682263 -47.087826 45.804813
0.040887 -44.896264 44.908224
-0.439325 -45.402075 45.700653
-0.153863 -47.899868 44.119716
-0.530767 -48.311839 45.006466
0.166431 -46.17317 44.119366
-0.153863 -47.899868 44.119716
0.040887 -44.896264 44.908224
0.166431 -46.17317 44.119366
3 0 11 9
3 1 43 44
3 2 17 15
3 2 19 17
3 3 22 20
3 45 23 46
3 47 46 10
3 45 46 47
3 48 24 49
3 50 49 23
3 48 49 50
3 52 51 25
3 53 27 54
3 55 28 56
3 57 56 27
3 55 56 57
3 5 29 12
3 5 30 29
3 6 31 13
3 6 32 31
3 6 33 32
3 58 34 59
3 60 59 14
3 58 59 60
3 62 61 34
3 4 35 21
3 7 63 65
3 65 64 16
3 63 64 65
3 7 66 67
3 7 68 69
3 8 36 18
3 8 37 36
3 71 70 26
3 72 38 73
3 75 74 38
3 76 39 77
3 78 40 79
3 80 79 39
3 78 79 80
3 81 41 82
3 83 42 84
3 85 84 41
3 83 84 85
3 9 10 3
3 11 10 9
3 11 86 88
3 88 87 10
3 86 87 88
3 89 12 90
3 91 12 92
3 93 5 94
3 95 94 12
3 93 94 95
3 96 13 97
3 96 97 98
3 99 13 100
3 101 6 102
3 103 102 13
3 101 102 103
3 104 14 105
3 106 105 6
3 104 105 106
3 107 14 108
3 111 110 14
3 109 110 111
3 15 16 4
3 17 16 15
3 17 7 16
3 17 18 7
3 19 18 17
3 19 8 18
3 20 21 1
3 22 21 20
3 22 4 21
3 10 22 3
3 23 22 10
3 23 4 22
3 23 15 4
3 24 15 23
3 24 2 15
3 25 26 0
3 112 26 113
3 114 113 25
3 112 113 114
3 116 115 26
3 117 1 118
3 27 119 120
3 27 121 123
3 121 1 122
3 121 122 123
3 27 20 1
3 28 20 27
3 28 3 20
3 12 124 126
3 124 28 125
3 124 125 126
3 29 28 12
3 29 3 28
3 29 9 3
3 30 9 29
3 30 0 9
3 127 5 128
3 13 129 130
3 31 131 133
3 133 132 13
3 131 132 133
3 31 134 136
3 134 5 135
3 134 135 136
3 31 30 5
3 32 30 31
3 32 0 30
3 32 25 0
3 33 25 32
3 33 137 139
3 139 138 25
3 137 138 139
3 14 33 6
3 34 33 14
3 34 140 142
3 142 141 33
3 140 141 142
3 34 143 144
3 146 145 34
3 21 147 149
3 149 148 1
3 147 148 149
3 35 150 152
3 152 151 21
3 150 151 152
3 35 153 154
3 16 35 4
3 155 35 156
3 157 156 16
3 155 156 157
3 159 158 35
3 18 160 162
3 162 161 7
3 160 161 162
3 36 163 165
3 165 164 18
3 163 164 165
3 36 166 167
3 36 168 169
3 37 170 172
3 172 171 36
3 170 171 172
3 37 173 174
3 26 11 0
3 175 11 176
3 177 176 26
3 175 176 177
3 179 178 11
3 180 24 181
3 182 24 183
3 184 2 185
3 186 185 24
3 184 185 186
3 38 187 188
3 38 189 191
3 189 2 190
3 189 190 191
3 38 19 2
3 192 19 193
3 194 193 38
3 192 193 194
3 195 8 196
3 197 196 19
3 195 196 197
3 198 8 199
3 200 37 201
3 202 201 8
3 200 201 202
3 39 203 205
3 203 37 204
3 203 204 205
3 39 206 208
3 208 207 37
3 206 207 208
3 39 209 210
3 40 211 213
3 213 212 39
3 211 212 213
3 40 214 215
3 216 40 217
3 41 218 220
3 218 40 219
3 218 219 220
3 41 221 223
3 223 222 40
3 221 222 223
3 41 224 225
3 42 226 228
3 228 227 41
3 226 227 228
3 42 229 230
3 231 42 232
3 233 42 234
3 236 235 42
