ply
format ascii 1.0
element vertex 176
property float x
property float y
property float z
element face 156
property list uchar int vertex_index
end_header
-1.320612 43.338524 39.24865
0.837196 37.18626 31.773525
-1.142218 51.175541 36.977783
-1.199747 47.994343 32.503166
-0.070536 44.671894 28.762617
-0.801781 40.420868 35.141296
-0.839918 46.178028 44.034668
2.067709 40.843422 25.762974
3.142323 33.162323 29.083796
-1.257505 47.23341 38.145744
-1.302853 49.592693 34.653896
-1.292267 45.723866 35.909454
-1.038538 44.19519 33.852306
-1.21015 41.896347 37.10321
-1.045319 38.113129 38.235741
-0.609404 50.187504 43.077534
-0.429873 47.542667 46.617935
-0.682035 43.55048 47.446785
-0.274372 44.817616 50.071697
0.362598 40.942715 30.298248
0.906322 42.852737 27.174282
1.419853 39.105896 28.794781
2.613262 37.04208 27.457111
1.945951 35.304108 30.352482
1.341068 33.392544 33.189461
-1.291349 51.813213 31.096909
-1.031555 50.117016 29.03673
-0.453808 48.37788 27.168121
-0.787977 46.366817 30.537983
-0.477789 42.618145 31.981834
-0.103258 38.870178 33.366058
-0.803341 52.729877 39.451927
-0.99765 48.728268 40.544643
-1.171267 44.767246 41.566345
-1.297503 40.869263 42.518349
-1.058416 42.222801 44.914303
0.416931 46.54929 25.492264
1.51754 44.569206 24.003128
-1.315992 41.42067 39.767776
-1.260762 40.699581 38.695056
-1.265381 42.617435 38.17593
-0.241826 48.17738 47.94026
-0.317972 49.554825 46.158848
-0.164076 46.814854 49.667141
-0.352123 46.180142 48.344816
-0.241826 48.17738 47.94026
-1.199318 52.332504 35.158766
-1.069282 53.158474 36.362348
-0.644863 38.544148 35.75629
-0.295601 37.768803 34.868671
-0.452519 39.645523 34.253677
-0.919571 36.239607 38.773083
-1.130161 36.919442 39.749588
-0.600032 53.473613 40.745632
-0.708857 54.733562 38.869814
-0.805871 41.585943 47.819124
-0.606987 42.206499 49.114628
2.415845 41.607137 24.224965
2.14076 43.470029 23.345042
1.792624 42.706314 24.883051
2.697972 39.711726 25.136735
2.415845 41.607137 24.224965
3.50183 33.928045 27.673018
3.237299 35.867924 26.859676
2.877792 35.102201 28.270454
3.747714 31.937452 28.51162
3.50183 33.928045 27.673018
3.391699 31.180304 29.862195
3.747714 31.937452 28.51162
-1.324854 38.956228 42.960862
-1.265999 39.605337 44.119102
-1.178346 38.807972 39.261322
-1.127735 40.004738 37.669475
-1.260762 40.699581 38.695056
-1.130161 36.919442 39.749588
-1.178346 38.807972 39.261322
-0.407738 50.877243 44.388647
-0.503063 52.202427 42.558436
-0.519639 48.865085 44.847735
-0.407738 50.877243 44.388647
-0.317972 49.554825 46.158848
-0.403155 42.840067 50.427084
-0.606987 42.206499 49.114628
-0.478204 44.184048 48.759241
2.208112 33.371269 31.099766
2.806298 32.300377 30.465423
2.544137 34.233216 29.718139
1.90567 32.415487 32.518256
2.208112 33.371269 31.099766
1.643509 34.348326 31.770972
1.598993 31.469463 33.867992
1.90567 32.415487 32.518256
-1.279635 51.54108 33.996822
-1.199318 52.332504 35.158766
-1.222535 50.384117 35.81584
-1.273884 52.651341 32.218328
-1.279635 51.54108 33.996822
-1.297101 50.702953 32.875402
-1.306196 53.726005 30.369146
-1.273884 52.651341 32.218328
-1.249752 52.838131 29.291342
-1.306196 53.726005 30.369146
-1.119855 51.990032 28.261252
-1.249752 52.838131 29.291342
-1.161452 50.965114 30.06682
-0.905932 51.08833 27.279094
-1.119855 51.990032 28.261252
-0.742681 49.247448 28.102425
-0.617058 50.218761 26.344789
-0.905932 51.08833 27.279094
0.112806 36.99237 34.029089
0.583033 36.150411 33.232822
0.366969 38.028219 32.569792
0.112806 36.99237 34.029089
-0.295601 37.768803 34.868671
-0.766632 37.390278 37.303512
-0.644863 38.544148 35.75629
-0.92355 39.266998 36.688519
-0.766632 37.390278 37.303512
-0.919571 36.239607 38.773083
-0.899844 53.935642 37.59942
-0.708857 54.733562 38.869814
-0.972779 51.952709 38.214855
-1.069282 53.158474 36.362348
-0.899844 53.935642 37.59942
-0.706372 51.458691 41.26473
-0.600032 53.473613 40.745632
-0.503063 52.202427 42.558436
-1.146456 40.282106 45.317079
-1.265999 39.605337 44.119102
-1.17796 41.546032 43.716326
-0.994061 40.922104 46.552883
-0.870225 42.88664 46.180544
-0.805871 41.585943 47.819124
-1.146456 40.282106 45.317079
-0.994061 40.922104 46.552883
-0.1097 45.394429 51.398667
-0.164076 46.814854 49.667141
-0.21066 43.42117 51.755415
-0.1097 45.394429 51.398667
-0.403155 42.840067 50.427084
-0.21066 43.42117 51.755415
-0.245725 49.287109 25.461172
-0.617058 50.218761 26.344789
0.189644 48.372815 24.623244
-0.245725 49.287109 25.461172
-0.018438 47.463585 26.330192
0.695552 47.384365 23.837204
0.189644 48.372815 24.623244
1.245856 46.394323 23.092636
0.695552 47.384365 23.837204
0.967235 45.559248 24.747696
1.847916 45.316343 22.399403
1.245856 46.394323 23.092636
1.847916 45.316343 22.399403
2.14076 43.470029 23.345042
2.970749 37.811054 25.983804
2.697972 39.711726 25.136735
2.340485 38.942751 26.610042
2.970749 37.811054 25.983804
3.237299 35.867924 26.859676
3.055674 30.318358 31.243821
3.391699 31.180304 29.862195
2.806298 32.300377 30.465423
0.834969 34.253553 33.940791
1.089132 35.289402 32.481493
0.583033 36.150411 33.232822
1.073059 32.364064 34.57598
0.834969 34.253553 33.940791
1.598993 31.469463 33.867992
1.073059 32.364064 34.57598
-1.304438 40.186039 41.402626
-1.315992 41.42067 39.767776
-1.309057 42.103893 40.883499
-1.304438 40.186039 41.402626
-1.324854 38.956228 42.960862
3 0 11 9
3 0 13 11
3 0 38 40
3 40 39 13
3 38 39 40
3 41 16 42
3 43 18 44
3 45 44 16
3 43 44 45
3 1 21 19
3 1 23 21
3 1 24 23
3 2 46 47
3 3 25 10
3 3 26 25
3 3 28 26
3 5 29 12
3 5 30 29
3 5 48 50
3 50 49 30
3 48 49 50
3 52 51 14
3 53 31 54
3 6 32 15
3 6 33 32
3 6 35 33
3 56 55 17
3 4 36 27
3 7 37 20
3 7 57 59
3 59 58 37
3 57 58 59
3 7 60 61
3 8 62 64
3 64 63 22
3 62 63 64
3 8 65 66
3 8 67 68
3 70 69 34
3 9 10 2
3 11 10 9
3 11 3 10
3 11 12 3
3 13 12 11
3 13 5 12
3 13 14 5
3 71 14 72
3 73 72 13
3 71 72 73
3 75 74 14
3 76 15 77
3 16 78 80
3 78 15 79
3 78 79 80
3 16 6 15
3 16 17 6
3 18 17 16
3 18 81 83
3 83 82 17
3 81 82 83
3 19 20 4
3 21 20 19
3 21 7 20
3 21 22 7
3 23 22 21
3 23 8 22
3 23 84 86
3 86 85 8
3 84 85 86
3 24 87 89
3 89 88 23
3 87 88 89
3 24 90 91
3 10 92 94
3 94 93 2
3 92 93 94
3 25 95 97
3 97 96 10
3 95 96 97
3 25 98 99
3 25 100 101
3 26 102 104
3 104 103 25
3 102 103 104
3 26 105 106
3 26 107 109
3 107 27 108
3 107 108 109
3 28 27 26
3 28 4 27
3 12 28 3
3 29 28 12
3 29 4 28
3 29 19 4
3 30 19 29
3 30 1 19
3 30 110 112
3 112 111 1
3 110 111 112
3 114 113 30
3 14 115 117
3 117 116 5
3 115 116 117
3 119 118 14
3 31 120 121
3 31 122 124
3 122 2 123
3 122 123 124
3 15 125 127
3 125 31 126
3 125 126 127
3 32 31 15
3 32 2 31
3 32 9 2
3 33 9 32
3 33 0 9
3 33 34 0
3 35 34 33
3 35 128 130
3 130 129 34
3 128 129 130
3 17 35 6
3 131 35 132
3 133 132 17
3 131 132 133
3 135 134 35
3 136 18 137
3 138 18 139
3 141 140 18
3 27 142 143
3 36 144 146
3 146 145 27
3 144 145 146
3 36 147 148
3 20 36 4
3 37 36 20
3 37 149 151
3 151 150 36
3 149 150 151
3 37 152 153
3 155 154 37
3 22 156 158
3 158 157 7
3 156 157 158
3 160 159 22
3 163 162 8
3 161 162 163
3 164 24 165
3 166 165 1
3 164 165 166
3 167 24 168
3 170 169 24
3 34 171 173
3 173 172 0
3 171 172 173
3 175 174 34
