ply
format ascii 1.0
element vertex 272
property float x
property float y
property float z
element face 265
property list uchar int vertex_index
end_header
-59.159092 6.019045 -37.769821
-44.108215 7.119026 -56.67881
-44.140678 17.083576 -50.972939
-61.070885 -3.822349 -43.191689
-52.854301 8.579321 -48.775024
-59.970253 1.82518 -41.293442
-43.647507 12.994282 -54.564659
-48.391716 13.639507 -50.336632
-48.527985 8.2805 -53.317184
-53.474503 2.486261 -50.97081
-49.395569 1.723694 -54.740509
-45.207684 18.2929 -46.279846
-40.440544 18.335308 -50.48185
-39.285702 15.925457 -54.57061
-61.973091 -10.494195 -43.799828
-56.262276 11.066013 -39.175217
-48.903713 16.664906 -46.041458
-52.764381 12.992882 -45.070972
-56.525139 7.834194 -43.497143
-57.178104 2.599318 -46.35743
-58.065136 -3.861901 -47.699554
-60.439957 3.146149 -36.913288
-59.50592 4.141405 -39.732224
-43.757656 10.203255 -55.823586
-46.051125 10.815252 -54.086006
-46.297989 7.79414 -55.178871
-48.882454 5.090654 -54.22979
-46.748062 4.546267 -55.864136
-44.663071 3.869518 -57.101601
-61.575668 -7.049277 -43.623123
-54.660225 13.095806 -39.756882
-44.648117 18.09391 -48.733246
-47.018677 17.753281 -46.270485
-46.574516 17.07476 -48.6437
-50.61919 11.265163 -49.666008
-50.661724 13.481548 -47.806446
-52.745361 11.06085 -47.099369
-54.672604 10.556725 -44.359955
-54.804417 8.343845 -46.206898
-56.804321 5.412336 -45.128674
-55.053722 5.667601 -47.669212
-53.941578 -0.91128 -51.50515
-55.837685 -0.640787 -49.43515
-62.077484 -1.019938 -33.166878
-43.784794 15.33971 -52.934303
-46.217255 15.608425 -50.778305
-46.027615 13.471779 -52.608444
-48.3624 11.177307 -52.013084
-50.73748 8.551167 -51.16201
-53.101982 5.681635 -50.06588
-51.020859 5.479126 -52.272987
-51.449738 2.16889 -52.996323
-51.986748 -1.287546 -53.33577
-42.846081 18.544708 -48.551102
-42.203362 18.000195 -50.888687
-39.769547 17.477493 -52.674393
-41.683792 16.694698 -52.967827
-41.374249 14.724609 -54.734993
-41.323902 12.230436 -56.145905
-41.54203 9.36688 -57.162781
-42.003357 6.276785 -57.75103
-39.447563 8.327955 -58.047279
-57.76545 8.682198 -38.517895
-51.056351 15.865482 -43.228638
-48.591644 15.515179 -48.325459
-50.830315 15.056618 -45.633801
-52.868031 14.242691 -42.759674
-54.642242 12.181087 -42.178974
-56.352531 9.757856 -41.487823
-57.978378 7.053513 -40.676472
-58.297386 4.902822 -42.475887
-58.715458 2.332071 -43.867886
-59.193329 -0.575005 -44.856247
-55.408005 2.641378 -48.738358
-57.612419 -0.515625 -47.200558
-59.678253 -3.753078 -45.482681
-60.119507 -7.151313 -45.80555
-59.799525 4.582597 -37.341555
-60.267692 3.952807 -35.856274
-59.62726 5.389255 -36.28454
-61.929215 -5.473114 -42.295143
-61.624174 -3.961657 -42.022985
-61.323276 -5.435813 -43.407406
-62.181606 -7.086578 -42.51086
-61.929215 -5.473114 -42.295143
-53.819191 13.898607 -40.011826
-54.648701 13.151937 -38.485485
-55.123253 -2.508678 -50.648533
-54.20162 -2.676031 -51.595791
-61.843229 -0.448828 -34.551237
-61.610935 0.463727 -33.599968
-62.371941 -2.013361 -34.000543
-61.843229 -0.448828 -34.551237
-60.749525 0.236113 -40.624695
-60.448438 1.453466 -39.97015
-60.241785 0.48792 -41.864673
-60.749525 0.236113 -40.624695
-49.707024 -0.006858 -54.790467
-51.002613 -1.512478 -54.088097
-50.691159 0.218074 -54.038139
-41.643313 18.440008 -49.516476
-42.020872 18.500788 -48.299181
-40.818104 18.396088 -49.264555
-39.527625 16.701475 -53.622501
-38.59988 17.012325 -53.355194
-38.357958 16.236307 -54.303303
-40.219946 11.718512 -56.720821
-40.191154 13.009151 -56.135162
-40.32901 10.286734 -57.229259
-41.432966 10.798658 -56.654343
-40.219946 11.718512 -56.720821
-39.281776 9.767272 -57.671509
-40.494796 8.847417 -57.60503
-40.32901 10.286734 -57.229259
-62.791 -12.188751 -42.765173
-62.627756 -10.443756 -42.73285
-62.099971 -12.309345 -43.789692
-62.791 -12.188751 -42.765173
-56.940794 10.371744 -37.637808
-56.224766 11.357128 -37.925288
-57.013863 9.874105 -38.846556
-57.692381 9.179837 -37.309147
-56.940794 10.371744 -37.637808
-46.325254 17.941108 -45.008093
-45.455524 17.990957 -44.980686
-49.070549 16.827328 -44.804241
-48.128031 17.371516 -44.918755
-47.961195 17.209094 -46.155971
-49.980032 16.265194 -44.635048
-50.146868 16.427616 -43.397831
-49.070549 16.827328 -44.804241
-42.330223 4.674779 -57.81493
-41.007462 5.778097 -58.04758
-60.792171 2.546771 -35.473173
-60.267692 3.952807 -35.856274
-61.024466 1.634215 -36.424442
-60.792171 2.546771 -35.473173
-60.68329 2.11395 -37.780073
-61.024466 1.634215 -36.424442
-60.216272 2.611578 -39.189541
-60.68329 2.11395 -37.780073
-59.972938 3.643777 -38.322756
-59.738087 2.983293 -40.512833
-60.448438 1.453466 -39.97015
-60.216272 2.611578 -39.189541
-47.052773 2.862076 -55.993035
-48.376526 1.450789 -55.431221
-48.071815 3.134981 -55.302323
-46.010277 2.523702 -56.611767
-47.052773 2.862076 -55.993035
-45.705567 4.207892 -56.482869
-45.014109 2.207903 -57.083928
-46.010277 2.523702 -56.611767
-39.659264 18.231308 -50.094918
-40.818104 18.396088 -49.264555
-40.036823 18.292088 -48.877623
-38.152607 15.364849 -55.150779
-38.357958 16.236307 -54.303303
-39.172055 14.856661 -55.347515
-38.152607 15.364849 -55.150779
-62.429045 -8.721297 -42.644497
-62.181606 -7.086578 -42.51086
-61.774379 -8.771736 -43.711475
-62.627756 -10.443756 -42.73285
-62.429045 -8.721297 -42.644497
-55.42374 12.372025 -38.21612
-54.648701 13.151937 -38.485485
-55.46125 12.08091 -39.466049
-56.224766 11.357128 -37.925288
-55.42374 12.372025 -38.21612
-56.071306 -2.373432 -49.613533
-54.889632 -0.776034 -50.47015
-55.123253 -2.508678 -50.648533
-57.185032 -3.983989 -48.745735
-56.951411 -2.251344 -48.567352
-56.071306 -2.373432 -49.613533
-58.279845 -5.623557 -47.799982
-57.185032 -3.983989 -48.745735
-61.882658 -0.219231 -32.137178
-61.610935 0.463727 -33.599968
-62.24609 -1.66317 -31.759367
-61.882658 -0.219231 -32.137178
-62.488314 -2.557751 -32.680817
-62.24609 -1.66317 -31.759367
-62.488314 -2.557751 -32.680817
-62.371941 -2.013361 -34.000543
-60.792101 -2.335844 -42.813797
-61.624174 -3.961657 -42.022985
-53.224205 -2.864164 -52.511101
-54.20162 -2.676031 -51.595791
-52.964163 -1.099413 -52.42046
-52.283676 -3.05776 -53.314705
-53.224205 -2.864164 -52.511101
-52.283676 -3.05776 -53.314705
-51.002613 -1.512478 -54.088097
-49.707024 -0.006858 -54.790467
-48.376526 1.450789 -55.431221
-59.040751 6.688655 -36.625576
-59.62726 5.389255 -36.28454
-44.353617 18.300993 -46.1481
-45.455524 17.990957 -44.980686
-43.172815 18.426897 -47.283728
-42.020872 18.500788 -48.299181
-44.026882 18.418804 -47.415474
-44.353617 18.300993 -46.1481
-43.172815 18.426897 -47.283728
-39.259844 18.004814 -51.246849
-39.659264 18.231308 -50.094918
-38.924346 17.575907 -52.34312
-38.59988 17.012325 -53.355194
-40.105046 17.906401 -51.578122
-39.259844 18.004814 -51.246849
-38.924346 17.575907 -52.34312
-40.216328 14.256237 -55.429707
-40.329976 15.325033 -54.652802
-39.172055 14.856661 -55.347515
-41.349075 13.477522 -55.440449
-40.216328 14.256237 -55.429707
-40.191154 13.009151 -56.135162
-39.729565 6.803681 -58.195705
-41.007462 5.778097 -58.04758
-40.72546 7.30237 -57.899155
-38.25642 9.137584 -58.008117
-39.281776 9.767272 -57.671509
-38.473747 7.714276 -58.242992
-38.25642 9.137584 -58.008117
-39.729565 6.803681 -58.195705
-38.473747 7.714276 -58.242992
-58.34393 8.020231 -36.999613
-57.692381 9.179837 -37.309147
-58.462271 7.350621 -38.143858
-59.040751 6.688655 -36.625576
-58.34393 8.020231 -36.999613
-47.230751 17.671299 -45.003412
-46.325254 17.941108 -45.008093
-46.11318 18.023091 -46.275165
-47.230751 17.671299 -45.003412
-48.128031 17.371516 -44.918755
-51.149116 15.847721 -41.959536
-50.146868 16.427616 -43.397831
-52.017254 15.283445 -41.747704
-51.149116 15.847721 -41.959536
-52.923094 14.47205 -41.513222
-52.017254 15.283445 -41.747704
-51.962191 15.054087 -42.994156
-53.764128 13.669249 -41.258278
-53.819191 13.898607 -40.011826
-52.923094 14.47205 -41.513222
-59.614387 0.741366 -43.151895
-60.241785 0.48792 -41.864673
-59.342855 2.078626 -42.580664
-59.853323 -0.712172 -43.646076
-59.614387 0.741366 -43.151895
-58.954393 0.878533 -44.362066
-60.132107 -2.198677 -44.023968
-60.792101 -2.335844 -42.813797
-59.853323 -0.712172 -43.646076
-59.30703 -7.268263 -46.85298
-59.092321 -5.506607 -46.752552
-58.279845 -5.623557 -47.799982
-60.297634 -8.940046 -45.842565
-59.30703 -7.268263 -46.85298
-61.224426 -10.611486 -44.839704
-61.046299 -8.822754 -44.802689
-60.297634 -8.940046 -45.842565
-62.099971 -12.309345 -43.789692
-61.224426 -10.611486 -44.839704
-43.66008 3.471145 -57.490216
-43.333214 5.073151 -57.426316
-42.330223 4.674779 -57.81493
-45.014109 2.207903 -57.083928
-43.66008 3.471145 -57.490216
3 0 77 79
3 77 21 78
3 77 78 79
3 0 22 21
3 1 25 23
3 1 27 25
3 1 28 27
3 3 80 81
3 3 82 84
3 82 29 83
3 82 83 84
3 85 30 86
3 2 33 31
3 4 36 34
3 4 38 36
3 4 40 38
3 88 87 41
3 89 43 90
3 92 91 43
3 5 93 94
3 5 95 96
3 6 46 44
3 8 47 24
3 8 48 47
3 8 50 48
3 10 51 26
3 10 52 51
3 10 97 99
3 99 98 52
3 97 98 99
3 12 100 102
3 100 53 101
3 100 101 102
3 12 54 53
3 13 103 105
3 103 55 104
3 103 104 105
3 13 56 55
3 13 57 56
3 106 58 107
3 108 59 109
3 110 109 58
3 108 109 110
3 111 61 112
3 113 112 59
3 111 112 113
3 14 114 115
3 14 116 117
3 15 118 119
3 15 120 122
3 120 62 121
3 120 121 122
3 11 123 124
3 16 125 127
3 127 126 32
3 125 126 127
3 16 128 130
3 128 63 129
3 128 129 130
3 7 64 45
3 17 65 35
3 17 66 65
3 17 67 66
3 18 68 37
3 18 69 68
3 18 70 69
3 19 71 39
3 19 72 71
3 9 73 49
3 20 74 42
3 20 75 74
3 20 76 75
3 132 131 60
3 21 133 134
3 21 135 136
3 21 137 138
3 22 139 141
3 141 140 21
3 139 140 141
3 22 142 144
3 142 5 143
3 142 143 144
3 23 24 6
3 25 24 23
3 25 8 24
3 25 26 8
3 27 26 25
3 27 10 26
3 27 145 147
3 147 146 10
3 145 146 147
3 28 148 150
3 150 149 27
3 148 149 150
3 28 151 152
3 153 12 154
3 153 154 155
3 156 13 157
3 159 158 13
3 29 160 161
3 29 162 164
3 162 14 163
3 162 163 164
3 30 165 166
3 30 167 169
3 167 15 168
3 167 168 169
3 31 32 11
3 33 32 31
3 33 16 32
3 34 35 7
3 36 35 34
3 36 17 35
3 36 37 17
3 38 37 36
3 38 18 37
3 38 39 18
3 40 39 38
3 40 19 39
3 41 42 9
3 170 42 171
3 172 171 41
3 170 171 172
3 173 20 174
3 175 174 42
3 173 174 175
3 177 176 20
3 43 178 179
3 43 180 181
3 43 182 183
3 185 184 43
3 186 3 187
3 44 45 2
3 46 45 44
3 46 7 45
3 24 46 6
3 47 46 24
3 47 7 46
3 47 34 7
3 48 34 47
3 48 4 34
3 48 49 4
3 50 49 48
3 50 9 49
3 26 50 8
3 51 50 26
3 51 9 50
3 51 41 9
3 52 41 51
3 52 188 190
3 190 189 41
3 188 189 190
3 52 191 192
3 194 193 52
3 196 195 10
3 197 0 198
3 199 11 200
3 53 201 202
3 53 203 205
3 203 11 204
3 203 204 205
3 53 31 11
3 54 31 53
3 54 2 31
3 206 12 207
3 55 208 209
3 55 210 212
3 210 12 211
3 210 211 212
3 55 54 12
3 56 54 55
3 56 2 54
3 56 44 2
3 57 44 56
3 57 6 44
3 213 57 214
3 215 214 13
3 213 214 215
3 58 216 218
3 216 57 217
3 216 217 218
3 58 6 57
3 58 23 6
3 59 23 58
3 59 1 23
3 59 60 1
3 61 60 59
3 61 219 221
3 221 220 60
3 219 220 221
3 222 61 223
3 224 61 225
3 227 226 61
3 62 228 229
3 62 230 232
3 230 0 231
3 230 231 232
3 32 233 235
3 235 234 11
3 233 234 235
3 237 236 32
3 63 238 239
3 63 240 241
3 45 33 2
3 64 33 45
3 64 16 33
3 35 64 7
3 65 64 35
3 65 16 64
3 65 63 16
3 66 63 65
3 66 242 244
3 244 243 63
3 242 243 244
3 66 245 247
3 245 30 246
3 245 246 247
3 67 30 66
3 67 15 30
3 37 67 17
3 68 67 37
3 68 15 67
3 68 62 15
3 69 62 68
3 69 0 62
3 69 22 0
3 70 22 69
3 70 5 22
3 39 70 18
3 71 70 39
3 71 5 70
3 71 248 250
3 250 249 5
3 248 249 250
3 72 251 253
3 253 252 71
3 251 252 253
3 72 254 256
3 254 3 255
3 254 255 256
3 49 40 4
3 73 40 49
3 73 19 40
3 42 73 9
3 74 73 42
3 74 19 73
3 74 72 19
3 75 72 74
3 75 3 72
3 75 29 3
3 76 29 75
3 76 14 29
3 257 76 258
3 259 258 20
3 257 258 259
3 260 76 261
3 262 14 263
3 264 263 76
3 262 263 264
3 266 265 14
3 60 28 1
3 267 28 268
3 269 268 60
3 267 268 269
3 271 270 28
