ply
format ascii 1.0
element vertex 333
property float x
property float y
property float z
element face 254
property list uchar int vertex_index
end_header
-16.946491 -125.937897 -13.051924
-20.306087 -123.670959 -2.616957
-7.141888 -108.973022 -16.60247
-7.38973 -125.646332 6.793852
-17.795033 -123.926102 3.021054
-10.419382 -117.037354 -18.927902
-22.618553 -123.249863 -12.883871
-10.708435 -123.485428 10.962181
-15.685439 -117.668777 -20.986736
-12.372656 -125.788925 4.532166
-18.207005 -125.618271 -7.934795
-13.800889 -125.973328 -14.795216
-6.60046 -124.191452 10.323257
-13.132877 -114.991516 -20.088528
-10.667276 -114.383926 -19.01355
-6.785734 -124.890411 -11.575005
-12.911697 -119.806564 -19.69836
-15.683014 -119.835327 -20.618565
-11.448538 -124.821838 7.763455
-14.093466 -124.374817 6.720985
-18.944267 -123.983185 0.169012
-16.194172 -125.390518 0.620174
-17.546741 -125.296982 -2.381472
-16.389027 -126.255295 -5.016462
-19.138416 -124.829544 -5.260273
-20.98827 -124.014664 -7.934111
-21.91185 -123.026901 -5.261396
-8.883163 -125.684998 -12.878119
-11.233387 -126.050797 -13.970858
-21.713757 -122.203537 -0.058826
-23.078821 -121.70929 -2.626463
-8.080881 -118.640488 -17.376698
-8.164913 -116.176346 -17.727718
-9.008095 -110.371582 -17.812889
-19.766096 -124.782501 -13.126997
-8.274389 -123.218063 12.340301
-8.592148 -124.341339 -14.509146
-10.366703 -119.407394 -18.604404
-12.93619 -117.536087 -20.02198
-18.635656 -119.501251 -21.304882
-8.934401 -124.768295 8.977233
-15.052617 -125.086456 3.672337
-13.491259 -126.35347 1.291049
-17.488676 -125.994141 -10.563042
-20.285477 -124.612442 -10.583506
-16.742001 -125.696091 -14.178014
-15.580431 -126.301094 -12.850651
-6.320502 -123.319748 12.070175
-5.546926 -123.642364 11.036199
-5.266968 -122.77066 12.783117
-13.333137 -113.582664 -20.029686
-14.645853 -113.764274 -20.521895
-6.931511 -125.475212 -10.637254
-5.986893 -124.924019 -9.935564
-15.736481 -120.779267 -20.257599
-14.350074 -120.817948 -19.834373
-15.041872 -123.490478 7.71122
-13.694817 -123.821556 8.228321
-6.022063 -109.741035 -15.904289
-5.719931 -111.313217 -15.898601
-6.839755 -110.545204 -16.596782
-6.347359 -108.129776 -15.936667
-5.227534 -108.897789 -15.238485
-6.022063 -109.741035 -15.904289
-11.429619 -126.490715 -12.951079
-10.233115 -126.388535 -12.45099
-13.637728 -125.441521 -15.699423
-15.011608 -125.270241 -16.013623
-6.754803 -125.88575 5.634088
-6.288225 -125.207199 7.460195
-7.896587 -126.195458 5.018787
-6.754803 -125.88575 5.634088
-22.527985 -121.350571 1.164905
-21.139361 -122.287582 1.265854
-23.101816 -121.169761 -0.061524
-22.527985 -121.350571 1.164905
-9.802993 -112.433258 -18.38991
-9.56523 -113.901512 -18.433419
-10.90504 -112.915672 -18.970042
-10.075449 -110.9095 -18.369711
-8.73564 -111.89534 -17.833088
-9.802993 -112.433258 -18.38991
-22.45283 -123.219017 -14.085654
-21.026601 -123.985336 -14.207217
-21.192324 -124.016182 -13.005434
-9.754437 -124.587364 -15.093112
-8.737655 -125.013169 -13.693632
-9.899945 -125.259193 -14.277598
-10.414298 -120.452507 -18.293577
-9.263235 -120.112495 -17.675857
-15.759699 -116.451583 -21.029545
-14.385074 -116.385238 -20.547166
-14.310814 -117.602432 -20.504358
-20.168235 -118.188667 -21.805115
-20.173608 -119.160743 -21.497217
-18.630492 -118.472198 -21.538052
-20.168235 -118.188667 -21.805115
-11.087029 -125.886978 5.057114
-10.62497 -125.403435 6.672759
-11.910597 -125.305382 6.147811
-11.625108 -126.302765 3.352062
-11.087029 -125.886978 5.057114
-16.423825 -124.506279 3.346696
-15.936802 -124.278358 4.775259
-17.308011 -123.698182 4.449618
-14.157127 -126.429787 -0.31153
-14.842715 -125.871994 0.955611
-15.508583 -125.948311 -0.646967
-12.831615 -126.794098 0.037727
-14.157127 -126.429787 -0.31153
-16.8367 -126.216347 -7.800374
-15.927711 -126.534859 -6.341207
-17.298016 -125.936783 -6.475629
-17.847841 -125.806206 -9.248919
-16.477536 -126.404282 -9.114497
-16.8367 -126.216347 -7.800374
-22.043834 -123.443596 -9.127596
-22.382444 -123.049248 -7.80881
-23.883729 -121.323257 -3.831539
-24.46703 -120.607468 -2.523949
-14.00763 -126.31881 -13.722297
-12.71337 -126.451981 -13.363259
-15.1692 -125.713807 -15.04966
-14.00763 -126.31881 -13.722297
-15.011608 -125.270241 -16.013623
-15.1692 -125.713807 -15.04966
-5.89359 -124.479759 9.224897
-4.840057 -123.930672 9.937839
-5.546926 -123.642364 11.036199
-6.995095 -124.918892 8.558554
-6.288225 -125.207199 7.460195
-5.89359 -124.479759 9.224897
-12.100337 -113.278869 -19.492197
-11.900077 -114.687721 -19.551039
-13.333137 -113.582664 -20.029686
-10.90504 -112.915672 -18.970042
-12.100337 -113.278869 -19.492197
-23.899582 -122.392929 -13.829273
-24.036279 -122.331047 -12.616682
-5.874885 -124.29245 -10.847481
-5.986893 -124.924019 -9.935564
-6.658418 -124.169952 -12.366436
-5.874885 -124.29245 -10.847481
-12.964416 -120.803566 -19.374271
-11.686795 -120.652092 -18.840555
-14.297356 -119.820945 -20.158462
-12.964416 -120.803566 -19.374271
-14.350074 -120.817948 -19.834373
-12.372353 -124.045066 8.749555
-11.078487 -124.153633 9.362818
-12.002302 -123.376861 10.348918
-12.771002 -124.598327 7.24222
-12.372353 -124.045066 8.749555
-13.694817 -123.821556 8.228321
-16.184867 -125.901543 -2.14779
-15.508583 -125.948311 -0.646967
-16.870456 -125.34375 -0.880649
-16.967884 -125.776139 -3.698967
-15.606011 -126.380699 -3.465285
-16.184867 -125.901543 -2.14779
-22.844234 -122.555366 -6.472453
-22.382444 -123.049248 -7.80881
-21.45006 -123.520782 -6.597753
-9.058003 -126.205635 -11.904621
-7.980225 -125.872505 -11.288811
-10.058275 -125.867897 -13.424488
-9.058003 -126.205635 -11.904621
-10.233115 -126.388535 -12.45099
-11.075057 -125.442093 -14.823968
-9.899945 -125.259193 -14.277598
-10.058275 -125.867897 -13.424488
-12.517138 -126.012062 -14.383037
-11.429619 -126.490715 -12.951079
-12.71337 -126.451981 -13.363259
-12.353976 -125.480255 -15.287244
-12.517138 -126.012062 -14.383037
-13.637728 -125.441521 -15.699423
-11.075057 -125.442093 -14.823968
-12.353976 -125.480255 -15.287244
-18.692502 -123.045853 4.138534
-17.308011 -123.698182 4.449618
-19.179998 -123.148865 2.805794
-18.692502 -123.045853 4.138534
-19.754615 -123.177407 1.379773
-18.36965 -123.954644 1.595033
-19.179998 -123.148865 2.805794
-20.329012 -123.093361 0.055093
-19.754615 -123.177407 1.379773
-21.139361 -122.287582 1.265854
-23.784348 -120.922638 -1.345343
-22.396289 -121.956413 -1.342645
-23.101816 -121.169761 -0.061524
-24.46703 -120.607468 -2.523949
-23.784348 -120.922638 -1.345343
-7.079172 -118.079971 -16.70429
-7.108344 -119.207238 -16.37774
-7.121188 -116.8479 -16.879799
-7.079172 -118.079971 -16.70429
-8.122897 -117.408417 -17.552208
-7.179168 -115.572632 -17.073835
-7.121188 -116.8479 -16.879799
-8.314049 -114.797722 -17.790503
-9.416094 -115.280136 -18.370634
-9.56523 -113.901512 -18.433419
-7.328303 -114.194008 -17.13662
-7.179168 -115.572632 -17.073835
-8.314049 -114.797722 -17.790503
-7.772858 -111.244484 -17.201992
-8.73564 -111.89534 -17.833088
-8.074991 -109.672302 -17.207679
-6.839755 -110.545204 -16.596782
-7.772858 -111.244484 -17.201992
-19.576222 -124.647858 -14.298368
-18.166419 -125.225556 -14.260832
-18.356293 -125.360199 -13.08946
-19.576222 -124.647858 -14.298368
-21.026601 -123.985336 -14.207217
-22.45283 -123.219017 -14.085654
-23.899582 -122.392929 -13.829273
-8.051046 -122.312019 14.004159
-7.157466 -122.833054 13.078697
-9.213885 -122.527428 13.232912
-8.051046 -122.312019 14.004159
-10.430908 -122.66111 12.543852
-9.491412 -123.351745 11.651241
-9.213885 -122.527428 13.232912
-11.681302 -122.645882 11.836099
-10.430908 -122.66111 12.543852
-12.975169 -122.537315 11.222837
-12.002302 -123.376861 10.348918
-11.681302 -122.645882 11.836099
-7.834448 -125.287704 -12.226562
-6.931511 -125.475212 -10.637254
-7.980225 -125.872505 -11.288811
-7.561625 -123.895416 -13.833506
-6.658418 -124.169952 -12.366436
-7.688941 -124.615875 -13.042075
-9.624379 -123.825142 -15.762322
-9.754437 -124.587364 -15.093112
-8.468592 -123.528908 -15.154055
-9.624379 -123.825142 -15.762322
-7.561625 -123.895416 -13.833506
-8.468592 -123.528908 -15.154055
-8.120324 -119.729042 -17.062005
-7.108344 -119.207238 -16.37774
-9.223792 -119.023941 -17.990551
-8.120324 -119.729042 -17.062005
-9.263235 -120.112495 -17.675857
-11.6392 -119.606979 -19.151382
-10.414298 -120.452507 -18.293577
-11.686795 -120.652092 -18.840555
-14.483418 -115.112953 -20.580441
-13.034534 -116.263801 -20.055254
-14.385074 -116.385238 -20.547166
-14.645853 -113.764274 -20.521895
-14.483418 -115.112953 -20.580441
-16.742001 -125.696091 -14.178014
-18.166419 -125.225556 -14.260832
-18.683865 -120.386711 -20.882223
-20.173608 -119.160743 -21.497217
-17.212802 -120.612229 -20.600758
-18.683865 -120.386711 -20.882223
-17.159335 -119.668289 -20.961723
-15.736481 -120.779267 -20.257599
-17.212802 -120.612229 -20.600758
-17.154171 -118.639237 -21.194893
-17.159335 -119.668289 -20.961723
-18.630492 -118.472198 -21.538052
-17.155383 -117.555961 -21.378979
-15.684227 -118.752052 -20.80265
-17.154171 -118.639237 -21.194893
-17.208973 -116.393639 -21.457079
-17.155383 -117.555961 -21.378979
-18.678917 -116.280823 -21.849322
-15.759699 -116.451583 -21.029545
-17.208973 -116.393639 -21.457079
-15.850505 -126.444451 -11.647063
-15.580431 -126.301094 -12.850651
-7.437424 -123.704757 11.331779
-6.320502 -123.319748 12.070175
-7.157466 -122.833054 13.078697
-9.367902 -125.376663 7.279648
-10.19147 -124.795066 8.370344
-10.62497 -125.403435 6.672759
-8.595567 -125.815682 6.187957
-8.162066 -125.207313 7.885542
-9.367902 -125.376663 7.279648
-7.896587 -126.195458 5.018787
-8.595567 -125.815682 6.187957
-15.457227 -123.922539 6.299583
-15.041872 -123.490478 7.71122
-14.573041 -124.730637 5.196661
-15.457227 -123.922539 6.299583
-15.936802 -124.278358 4.775259
-12.18441 -126.585037 1.731503
-11.625108 -126.302765 3.352062
-12.931957 -126.071198 2.911608
-12.18441 -126.585037 1.731503
-12.831615 -126.794098 0.037727
-15.043174 -126.743599 -4.768695
-15.606011 -126.380699 -3.465285
-15.043174 -126.743599 -4.768695
-15.927711 -126.534859 -6.341207
-16.121598 -126.472572 -10.402621
-16.477536 -126.404282 -9.114497
-17.217584 -125.966019 -11.807483
-15.850505 -126.444451 -11.647063
-16.121598 -126.472572 -10.402621
-21.692438 -123.742485 -10.452293
-20.636874 -124.313553 -9.258809
-22.043834 -123.443596 -9.127596
-22.858975 -123.061195 -11.602476
-21.452015 -123.931152 -11.733688
-21.692438 -123.742485 -10.452293
-24.036279 -122.331047 -12.616682
-22.858975 -123.061195 -11.602476
-23.300244 -121.982063 -5.149006
-22.495336 -122.368095 -3.94393
-23.883729 -121.323257 -3.831539
-22.844234 -122.555366 -6.472453
-23.300244 -121.982063 -5.149006
-10.431788 -109.30397 -18.272001
-10.075449 -110.9095 -18.369711
-9.407435 -108.710053 -17.740137
-10.431788 -109.30397 -18.272001
-8.474331 -108.010773 -17.134927
-8.074991 -109.672302 -17.207679
-9.407435 -108.710053 -17.740137
-7.576637 -107.265571 -16.558329
-8.474331 -108.010773 -17.134927
-8.90908 -106.303322 -17.090787
-6.347359 -108.129776 -15.936667
-7.576637 -107.265571 -16.558329
3 0 45 46
3 47 12 48
3 47 48 49
3 51 50 13
3 52 15 53
3 54 17 55
3 56 19 57
3 1 22 20
3 1 24 22
3 1 26 24
3 2 58 60
3 58 59 60
3 2 61 63
3 61 62 63
3 64 28 65
3 67 66 11
3 3 68 69
3 3 70 71
3 72 29 73
3 75 74 29
3 5 32 31
3 78 77 14
3 76 77 78
3 79 33 80
3 79 80 81
3 6 82 84
3 84 83 34
3 82 83 84
3 85 36 86
3 87 86 27
3 85 86 87
3 88 37 89
3 8 38 16
3 8 90 92
3 92 91 38
3 90 91 92
3 93 39 94
3 96 95 39
3 7 40 35
3 9 97 99
3 99 98 18
3 97 98 99
3 9 100 101
3 4 102 104
3 102 41 103
3 102 103 104
3 105 42 106
3 107 106 21
3 105 106 107
3 109 108 42
3 10 110 112
3 112 111 23
3 110 111 112
3 10 113 115
3 113 43 114
3 113 114 115
3 10 44 43
3 117 116 25
3 119 118 30
3 120 11 121
3 122 11 123
3 125 124 11
3 12 126 128
3 126 127 128
3 12 129 131
3 129 3 130
3 129 130 131
3 13 14 5
3 132 14 133
3 134 133 13
3 132 133 134
3 136 135 14
3 138 137 6
3 15 139 140
3 15 141 142
3 143 16 144
3 17 145 147
3 145 16 146
3 145 146 147
3 17 8 16
3 148 18 149
3 150 149 7
3 148 149 150
3 19 151 153
3 151 18 152
3 151 152 153
3 19 9 18
3 20 21 4
3 22 21 20
3 22 154 156
3 156 155 21
3 154 155 156
3 22 157 159
3 157 23 158
3 157 158 159
3 24 23 22
3 24 10 23
3 24 25 10
3 26 25 24
3 26 160 162
3 162 161 25
3 160 161 162
3 163 27 164
3 28 165 167
3 165 27 166
3 165 166 167
3 28 168 170
3 170 169 27
3 168 169 170
3 11 171 173
3 171 28 172
3 171 172 173
3 174 28 175
3 176 175 11
3 174 175 176
3 178 177 28
3 179 4 180
3 181 4 182
3 183 20 184
3 185 184 4
3 183 184 185
3 29 186 188
3 186 20 187
3 186 187 188
3 29 1 20
3 29 30 1
3 189 30 190
3 191 190 29
3 189 190 191
3 193 192 30
3 31 194 195
3 32 196 198
3 198 197 31
3 196 197 198
3 32 199 200
3 14 32 5
3 201 32 202
3 203 202 14
3 201 202 203
3 206 205 32
3 204 205 206
3 33 207 208
3 33 209 211
3 209 2 210
3 209 210 211
3 34 212 214
3 214 213 0
3 212 213 214
3 216 215 34
3 218 217 6
3 219 35 220
3 221 35 222
3 223 7 224
3 225 224 35
3 223 224 225
3 226 7 227
3 230 229 7
3 228 229 230
3 27 231 233
3 231 15 232
3 231 232 233
3 36 15 27
3 36 234 236
3 236 235 15
3 234 235 236
3 237 36 238
3 239 36 240
3 242 241 36
3 243 31 244
3 37 245 247
3 245 31 246
3 245 246 247
3 37 5 31
3 16 248 250
3 248 37 249
3 248 249 250
3 38 37 16
3 38 5 37
3 38 13 5
3 251 13 252
3 253 252 38
3 251 252 253
3 255 254 13
3 257 256 0
3 39 258 259
3 39 260 261
3 39 262 264
3 262 17 263
3 262 263 264
3 265 17 266
3 267 266 39
3 265 266 267
3 268 8 269
3 270 269 17
3 268 269 270
3 271 8 272
3 271 272 273
3 275 274 8
3 276 0 277
3 35 278 280
3 278 12 279
3 278 279 280
3 40 12 35
3 40 3 12
3 18 40 7
3 281 40 282
3 283 282 18
3 281 282 283
3 284 3 285
3 286 285 40
3 284 285 286
3 288 287 3
3 289 19 290
3 41 291 293
3 291 19 292
3 291 292 293
3 41 9 19
3 21 41 4
3 42 41 21
3 42 9 41
3 42 294 296
3 296 295 9
3 294 295 296
3 298 297 42
3 23 299 300
3 302 301 23
3 43 303 304
3 43 305 307
3 305 0 306
3 305 306 307
3 43 34 0
3 44 34 43
3 44 6 34
3 25 44 10
3 308 44 309
3 310 309 25
3 308 309 310
3 311 6 312
3 313 312 44
3 311 312 313
3 315 314 6
3 30 26 1
3 316 26 317
3 318 317 30
3 316 317 318
3 320 319 26
3 321 33 322
3 323 33 324
3 325 2 326
3 327 326 33
3 325 326 327
3 328 2 329
3 328 329 330
3 332 331 2
