ply
format ascii 1.0
element vertex 181
property float x
property float y
property float z
element face 156
property list uchar int vertex_index
end_header
-41.6082 59.112568 21.023319
-41.60305 53.154545 30.569351
-42.973057 54.029758 25.913298
-40.336105 58.242062 25.780804
-42.99609 62.817432 5.027771
-42.50499 59.135349 15.97814
-41.183334 63.834835 10.336519
-39.863743 68.061081 4.446878
-41.042755 55.695988 28.233738
-42.355316 56.581379 23.541901
-43.377388 54.209415 23.526958
-42.765476 56.732998 21.107021
-43.151634 56.68697 18.618406
-42.050323 59.228214 18.531637
-40.507294 64.03894 12.98862
-40.534515 66.022018 7.404638
-38.931141 68.398926 7.122625
-42.834229 51.109608 30.477312
-43.420673 51.465809 28.140926
-42.406815 53.671238 28.260044
-41.809635 56.230175 25.916931
-41.067772 58.780399 23.440311
-43.411339 60.665577 7.937777
-43.832207 51.66605 25.787817
-43.628643 56.460552 16.091957
-43.077435 58.854069 13.387161
-40.216675 61.301899 20.832327
-39.29187 63.763561 18.105145
-40.778748 61.602184 18.365553
-41.285191 61.67371 15.816801
-41.839428 61.528263 13.206504
-42.530552 61.185421 10.566566
-42.003021 63.422787 7.668139
-41.478409 65.533157 4.730352
-40.916641 67.488083 1.789378
-38.512647 68.449997 8.450029
-39.32952 67.344666 8.600919
-43.739107 61.401775 5.197593
-43.946731 60.325847 6.652596
-43.203715 61.741504 6.482774
-43.772972 52.954475 23.472322
-43.552088 54.207332 22.314734
-39.394732 62.286327 20.680208
-39.860372 61.039303 22.020952
-39.599247 63.891409 16.846182
-38.805039 64.946364 16.691965
-40.342686 62.810721 16.976386
-40.035309 62.682873 18.235349
-39.599247 63.891409 16.846182
-40.595907 62.846483 15.70201
-41.03197 61.637947 17.091177
-40.342686 62.810721 16.976386
-40.526067 55.35358 29.365581
-41.322902 54.425266 29.401544
-40.806215 54.082859 30.533387
-40.199117 56.611973 28.142416
-40.526067 55.35358 29.365581
-39.845793 57.88501 26.915949
-40.68943 56.969025 27.007271
-40.199117 56.611973 28.142416
-43.56954 62.424599 3.746311
-42.782162 63.824625 3.564588
-43.246132 55.469124 21.104765
-43.552088 54.207332 22.314734
-43.071432 55.471207 22.316989
-42.958555 56.709984 19.862713
-43.439211 55.44611 19.860458
-43.246132 55.469124 21.104765
-39.760002 65.184028 12.85156
-40.206959 64.029099 14.287919
-40.117596 65.164672 11.533917
-39.760002 65.184028 12.85156
-40.455616 65.06262 10.207866
-40.845314 63.936887 11.66257
-40.117596 65.164672 11.533917
-40.131207 66.156212 8.741926
-40.858925 64.928427 8.870579
-40.455616 65.06262 10.207866
-39.732828 67.210472 7.263632
-40.131207 66.156212 8.741926
-39.32952 67.344666 8.600919
-43.127451 51.287709 29.309119
-43.547871 50.175179 29.189129
-43.254649 49.997078 30.357322
-44.116737 59.243305 8.088014
-43.626781 59.537098 9.365426
-44.116737 59.243305 8.088014
-43.946731 60.325847 6.652596
-43.739107 61.401775 5.197593
-43.56954 62.424599 3.746311
-43.755854 50.282207 28.019207
-43.883051 48.991577 29.06741
-43.547871 50.175179 29.189129
-43.96162 50.382328 26.842652
-43.755854 50.282207 28.019207
-43.62644 51.565929 26.964371
-44.128155 50.41592 25.676023
-43.96162 50.382328 26.842652
-44.000382 51.682792 24.602752
-43.604798 52.937732 24.657387
-43.772972 52.954475 23.472322
-44.128155 50.41592 25.676023
-44.000382 51.682792 24.602752
-43.645376 55.357972 18.633315
-43.439211 55.44611 19.860458
-43.883881 55.244763 17.37009
-43.645376 55.357972 18.633315
-43.390138 56.573761 17.355182
-44.172998 55.082405 16.136249
-43.883881 55.244763 17.37009
-43.958521 56.269905 14.822708
-44.172998 55.082405 16.136249
-43.682917 57.466664 13.47031
-43.958521 56.269905 14.822708
-43.353039 57.657311 14.739559
-43.459829 58.631344 12.090118
-43.682917 57.466664 13.47031
-39.454834 59.146778 25.64121
-39.845793 57.88501 26.915949
-39.920088 59.509384 24.495191
-39.454834 59.146778 25.64121
-40.285921 59.778553 23.324945
-40.701938 58.51123 24.610557
-39.920088 59.509384 24.495191
-40.642224 60.041149 22.136319
-40.285921 59.778553 23.324945
-39.860372 61.039303 22.020952
-38.428478 64.725523 17.928359
-38.805039 64.946364 16.691965
-38.932329 63.517159 19.316617
-38.428478 64.725523 17.928359
-39.754272 62.53273 19.468736
-39.394732 62.286327 20.680208
-38.932329 63.517159 19.316617
-40.896242 62.856325 14.40271
-40.595907 62.846483 15.70201
-40.206959 64.029099 14.287919
-43.186388 59.79702 10.679821
-43.459829 58.631344 12.090118
-42.803994 60.019745 11.976864
-42.970945 60.925499 9.252171
-43.626781 59.537098 9.365426
-43.186388 59.79702 10.679821
-42.023321 65.182488 3.415878
-42.782162 63.824625 3.564588
-42.23725 64.175295 4.879062
-41.742437 66.159951 1.945391
-42.023321 65.182488 3.415878
-41.197525 66.51062 3.259865
-41.499061 67.084381 0.491757
-41.742437 66.159951 1.945391
-38.02911 69.456963 6.964844
-38.512647 68.449997 8.450029
-38.506046 69.37194 5.637371
-38.02911 69.456963 6.964844
-38.972347 69.203018 4.299497
-39.397442 68.230004 5.784752
-38.506046 69.37194 5.637371
-39.494419 68.996437 2.971939
-38.972347 69.203018 4.299497
-40.020868 68.709938 1.643189
-40.390192 67.774582 3.118128
-39.494419 68.996437 2.971939
-40.591398 68.376953 0.334076
-40.020868 68.709938 1.643189
-41.173818 67.973251 -0.963545
-41.499061 67.084381 0.491757
-40.591398 68.376953 0.334076
-42.959074 49.823685 31.530206
-43.254649 49.997078 30.357322
-42.420868 50.864186 31.637107
-42.959074 49.823685 31.530206
-42.545713 49.578263 32.69
-41.805279 51.886654 31.683127
-42.21864 52.132076 30.523332
-42.420868 50.864186 31.637107
-41.066063 52.831974 31.705799
-41.805279 51.886654 31.683127
-41.268292 51.564083 32.819575
-40.806215 54.082859 30.533387
-41.066063 52.831974 31.705799
3 0 11 9
3 0 13 11
3 35 16 36
3 1 19 17
3 3 20 8
3 3 21 20
3 4 37 39
3 39 38 22
3 37 38 39
3 2 23 18
3 41 40 10
3 5 24 12
3 5 25 24
3 42 26 43
3 44 27 45
3 46 28 47
3 48 47 27
3 46 47 48
3 49 29 50
3 51 50 28
3 49 50 51
3 6 30 14
3 6 31 30
3 6 32 31
3 7 33 15
3 7 34 33
3 52 8 53
3 54 53 1
3 52 53 54
3 55 8 56
3 57 3 58
3 59 58 8
3 57 58 59
3 61 60 4
3 9 10 2
3 11 10 9
3 11 62 64
3 64 63 10
3 62 63 64
3 11 65 67
3 65 12 66
3 65 66 67
3 13 12 11
3 13 5 12
3 68 14 69
3 70 14 71
3 72 6 73
3 74 73 14
3 72 73 74
3 75 15 76
3 77 76 6
3 75 76 77
3 16 78 80
3 78 15 79
3 78 79 80
3 16 7 15
3 17 81 83
3 81 18 82
3 81 82 83
3 19 18 17
3 19 2 18
3 8 19 1
3 20 19 8
3 20 2 19
3 20 9 2
3 21 9 20
3 21 0 9
3 22 84 85
3 87 86 22
3 89 88 4
3 18 90 92
3 90 91 92
3 23 93 95
3 95 94 18
3 93 94 95
3 23 96 97
3 10 23 2
3 98 23 99
3 100 99 10
3 98 99 100
3 102 101 23
3 12 103 104
3 24 105 107
3 107 106 12
3 105 106 107
3 24 108 109
3 24 110 111
3 25 112 114
3 114 113 24
3 112 113 114
3 25 115 116
3 117 3 118
3 119 3 120
3 121 21 122
3 123 122 3
3 121 122 123
3 26 124 126
3 124 21 125
3 124 125 126
3 26 0 21
3 27 127 128
3 27 129 130
3 27 131 133
3 131 26 132
3 131 132 133
3 28 26 27
3 28 0 26
3 28 13 0
3 29 13 28
3 29 5 13
3 14 134 136
3 134 29 135
3 134 135 136
3 30 29 14
3 30 5 29
3 30 25 5
3 31 25 30
3 31 137 139
3 139 138 25
3 137 138 139
3 31 140 142
3 140 22 141
3 140 141 142
3 32 22 31
3 32 4 22
3 15 32 6
3 33 32 15
3 33 4 32
3 33 143 145
3 145 144 4
3 143 144 145
3 34 146 148
3 148 147 33
3 146 147 148
3 34 149 150
3 151 16 152
3 153 16 154
3 155 7 156
3 157 156 16
3 155 156 157
3 158 7 159
3 160 34 161
3 162 161 7
3 160 161 162
3 163 34 164
3 167 166 34
3 165 166 167
3 168 17 169
3 170 17 171
3 170 171 172
3 173 1 174
3 175 174 17
3 173 174 175
3 176 1 177
3 176 177 178
3 180 179 1
