ply
format ascii 1.0
element vertex 434
property float x
property float y
property float z
element face 333
property list uchar int vertex_index
end_header
9.06921 -52.275688 -2.067638
7.99288 -78.167175 -5.72003
7.849922 -89.148964 16.277082
10.740429 -56.459698 -2.904028
11.504934 -52.823639 -4.218313
10.255133 -80.572342 18.037167
10.738132 -70.414017 6.338008
7.68952 -64.808426 5.612819
8.963499 -62.602951 2.223299
6.312893 -49.205544 -0.000854
7.543495 -54.177197 -0.309404
4.765823 -94.155258 17.936649
9.951553 -59.751122 -0.679556
9.795219 -54.097164 -2.477957
11.10635 -54.691467 -3.676815
10.204737 -52.544216 -3.028381
10.988001 -80.365158 15.598252
7.722197 -80.83728 -4.087997
10.802307 -68.49913 -9.696398
4.543228 -47.157417 1.287055
7.570206 -89.376381 18.839775
6.168472 -91.880081 19.74235
6.306145 -91.599365 17.092562
6.586668 -91.494522 14.583439
11.975588 -75.811897 9.552557
11.160528 -73.466599 8.903913
11.378366 -69.628883 4.449506
12.263201 -67.321304 0.968516
9.491554 -61.248383 0.701971
8.65485 -56.888252 -0.525295
6.708836 -55.334297 0.892603
11.74577 -59.124146 -3.230864
12.273933 -55.113293 -4.948732
9.202028 -77.376053 -4.755344
9.388737 -83.106056 21.409657
10.021233 -82.72757 18.866278
9.269831 -86.808395 15.49091
8.219166 -89.09446 13.8475
10.000668 -71.003769 8.321571
9.308315 -67.673454 5.918331
9.963511 -66.756058 4.098805
10.515583 -65.627777 2.379565
8.360571 -63.792004 3.864721
6.693394 -60.752178 3.749848
11.667635 -78.156342 12.485521
9.422367 -74.596474 -6.400364
9.955336 -71.61573 -8.059738
8.613678 -75.261353 -7.393587
7.883535 -50.959183 -1.164774
8.365395 -53.110451 -1.325375
12.384439 -78.063843 10.242024
10.953352 -64.280991 0.769003
11.283947 -62.72736 -0.718756
11.533964 -60.995472 -2.061695
10.361128 -58.144783 -1.893421
9.252663 -55.494312 -1.619255
11.131587 -81.382477 14.787384
11.340298 -80.32029 14.414105
7.284654 -79.961857 -5.447252
7.149312 -81.296909 -4.631235
7.857539 -79.502228 -4.904013
7.631744 -78.560577 -6.26805
7.284654 -79.961857 -5.447252
4.486688 -45.895288 1.252995
3.612201 -46.005673 1.972288
3.612201 -46.005673 1.972288
3.781607 -47.402197 1.966802
7.710064 -89.262673 17.558428
8.21536 -88.177608 18.412917
8.355218 -88.0639 17.131571
10.179697 -72.460388 9.649121
10.763047 -73.624207 9.974063
12.17491 -70.571796 3.752022
11.635274 -69.117267 3.554134
12.077691 -67.963478 1.81364
12.774697 -68.829521 1.13435
6.298272 -55.922439 1.571419
7.368534 -56.795026 0.823158
11.356102 -56.805653 -3.550666
11.858773 -58.137877 -3.714084
11.243099 -57.791922 -3.067446
12.113433 -52.94013 -4.862846
12.497933 -54.084958 -5.228055
11.889433 -53.968466 -4.583522
9.939139 -76.961182 -4.315896
9.231798 -78.63324 -3.950244
9.968909 -78.218368 -3.510796
10.138183 -81.649956 18.451723
9.762094 -81.819241 19.695222
9.879044 -80.741627 19.280667
9.857406 -85.687504 15.109132
9.595463 -85.748401 16.331363
10.08198 -85.682079 13.922666
9.494405 -86.802971 14.304444
9.857406 -85.687504 15.109132
8.498918 -66.24094 5.765575
8.138165 -66.66735 6.688004
7.328768 -65.234837 6.535248
5.50649 -59.74426 4.556717
6.341432 -61.288683 4.589476
5.891153 -59.204289 3.747571
5.50649 -59.74426 4.556717
10.091784 -72.831395 -6.751375
10.008768 -74.258881 -5.943708
9.767713 -71.895012 -8.569085
10.378822 -70.05743 -8.878068
10.191199 -70.336712 -9.387415
9.096884 -73.717824 -8.236009
9.284507 -73.438541 -7.726662
9.767713 -71.895012 -8.569085
8.482076 -75.598588 -7.942689
9.096884 -73.717824 -8.236009
7.060358 -49.036734 -0.585947
7.845679 -49.913554 -1.167907
7.098214 -50.082363 -0.582814
6.528428 -50.417281 -0.055981
5.621764 -49.494305 0.609058
7.098214 -50.082363 -0.582814
7.313749 -51.2941 -0.637941
6.528428 -50.417281 -0.055981
9.16686 -84.251602 21.862559
9.403935 -84.038211 20.559186
4.772308 -94.314648 19.313868
5.473633 -93.177059 20.216718
5.467148 -93.01767 18.839499
4.057532 -95.47575 18.367318
4.772308 -94.314648 19.313868
4.093891 -95.386746 17.000761
3.3856 -96.707238 17.43143
4.057532 -95.47575 18.367318
7.59015 -90.319996 13.036835
8.423551 -89.135532 12.704172
11.797581 -77.034096 10.996357
12.026037 -78.110093 11.363772
11.43918 -77.080345 12.118105
12.497846 -76.862545 8.82557
12.318656 -75.668602 8.501292
11.310237 -71.721779 6.596829
10.941505 -72.016655 7.58861
10.3694 -70.708893 7.32979
10.820412 -81.428608 15.989709
10.453979 -81.5322 17.209167
10.621567 -80.46875 16.817709
10.820412 -81.428608 15.989709
11.131587 -81.382477 14.787384
6.482368 -63.787775 6.411886
7.328768 -65.234837 6.535248
6.839495 -63.316807 5.520962
6.482368 -63.787775 6.411886
6.996889 -82.567436 -3.837325
7.744415 -82.026668 -3.297326
6.424003 -83.027065 -4.380563
6.996889 -82.567436 -3.837325
7.149312 -81.296909 -4.631235
11.370696 -66.905883 -10.481948
11.379926 -66.732376 -9.959122
10.829072 -68.729766 -10.214398
11.370696 -66.905883 -10.481948
11.397461 -67.13652 -10.999948
10.191199 -70.336712 -9.387415
10.829072 -68.729766 -10.214398
5.37489 -47.009636 0.637579
6.259722 -48.033699 -0.006376
5.42806 -48.181481 0.643101
5.318349 -45.747507 0.603519
5.37489 -47.009636 0.637579
4.486688 -45.895288 1.252995
4.736931 -48.470242 1.253013
3.781607 -47.402197 1.966802
5.42806 -48.181481 0.643101
5.621764 -49.494305 0.609058
4.736931 -48.470242 1.253013
8.042102 -88.34644 19.712723
8.687256 -87.147667 19.285865
8.21536 -88.177608 18.412917
7.484925 -89.572433 20.178053
7.956822 -88.542492 21.051001
8.042102 -88.34644 19.712723
6.869339 -90.628231 19.291062
6.784059 -90.824284 20.62934
7.484925 -89.572433 20.178053
5.626831 -92.802452 16.208598
4.85667 -94.080399 16.630641
5.535984 -92.877312 17.514606
5.767093 -92.750031 14.954037
5.626831 -92.802452 16.208598
6.446407 -91.546943 15.838
5.933306 -92.757095 13.726719
5.767093 -92.750031 14.954037
11.170577 -74.796856 10.298386
11.593156 -75.908123 10.651623
11.568058 -74.639248 9.228235
11.170577 -74.796856 10.298386
10.763047 -73.624207 9.974063
11.911126 -74.495953 8.17697
12.318656 -75.668602 8.501292
11.568058 -74.639248 9.228235
11.937542 -71.013889 4.67757
11.617425 -71.406456 5.621821
11.058249 -70.02145 5.393757
11.937542 -71.013889 4.67757
12.17491 -70.571796 3.752022
12.852211 -68.087753 0.305088
12.774697 -68.829521 1.13435
12.379305 -66.548339 0.177009
12.852211 -68.087753 0.305088
8.433135 -60.401806 1.444009
9.227526 -61.925667 1.462635
8.169108 -61.07909 2.204673
8.759894 -59.752069 0.727842
8.433135 -60.401806 1.444009
8.989893 -59.003439 0.037078
9.721554 -60.499752 0.011207
8.759894 -59.752069 0.727842
8.341541 -57.572004 0.114209
9.303202 -58.319687 -0.602426
8.989893 -59.003439 0.037078
7.681843 -56.111275 0.183654
8.341541 -57.572004 0.114209
7.368534 -56.795026 0.823158
12.246078 -59.497511 -3.88706
12.211838 -60.563881 -3.312779
12.246078 -59.497511 -3.88706
11.858773 -58.137877 -3.714084
11.539062 -55.921537 -3.93706
11.356102 -56.805653 -3.550666
10.92339 -55.575583 -3.290421
12.122854 -56.132451 -4.573018
11.539062 -55.921537 -3.93706
11.690141 -54.90238 -4.312773
12.586668 -56.382584 -5.224617
12.122854 -56.132451 -4.573018
12.744109 -55.263302 -5.605745
12.586668 -56.382584 -5.224617
12.744109 -55.263302 -5.605745
12.497933 -54.084958 -5.228055
8.491883 -80.363854 -3.61657
7.744415 -82.026668 -3.297326
8.462112 -79.106667 -4.42167
8.491883 -80.363854 -3.61657
9.231798 -78.63324 -3.950244
9.445847 -82.008484 20.966912
9.062348 -82.234493 22.223425
9.704985 -82.916813 20.137968
9.445847 -82.008484 20.966912
9.762094 -81.819241 19.695222
9.720184 -83.848968 19.287497
9.403935 -84.038211 20.559186
9.704985 -82.916813 20.137968
10.337029 -82.609814 17.623722
10.138183 -81.649956 18.451723
10.453979 -81.5322 17.209167
9.971164 -83.707989 18.019047
10.337029 -82.609814 17.623722
9.720184 -83.848968 19.287497
9.971164 -83.707989 18.019047
9.065172 -86.893616 16.738484
9.595463 -85.748401 16.331363
8.559876 -87.978679 15.883996
8.355218 -88.0639 17.131571
9.065172 -86.893616 16.738484
8.969072 -87.946003 13.48274
8.744498 -87.951427 14.669205
9.494405 -86.802971 14.304444
9.173458 -87.987076 12.339411
8.423551 -89.135532 12.704172
8.969072 -87.946003 13.48274
8.895046 -69.997886 9.077456
9.599767 -71.228973 9.35795
9.287309 -69.704701 8.076842
8.895046 -69.997886 9.077456
9.656041 -69.409824 7.085061
10.3694 -70.708893 7.32979
9.287309 -69.704701 8.076842
8.941133 -68.039543 6.875222
8.138165 -66.66735 6.688004
10.023224 -69.043735 6.12817
9.656041 -69.409824 7.085061
8.941133 -68.039543 6.875222
10.927846 -67.680855 3.378784
11.635274 -69.117267 3.554134
10.670939 -68.19247 4.274155
10.239547 -66.191917 3.239185
11.203882 -67.116715 2.519164
10.927846 -67.680855 3.378784
7.175021 -62.808596 4.646913
8.025046 -64.300215 4.73877
6.839495 -63.316807 5.520962
7.526982 -62.272091 3.807284
7.175021 -62.808596 4.646913
6.341432 -61.288683 4.589476
7.034055 -60.153703 2.967948
8.169108 -61.07909 2.204673
7.828447 -61.677565 2.986573
7.034055 -60.153703 2.967948
5.891153 -59.204289 3.747571
9.758211 -79.6819 18.838532
9.879044 -80.741627 19.280667
10.17391 -79.525158 17.621648
9.758211 -79.6819 18.838532
10.540344 -79.421566 16.40219
10.621567 -80.46875 16.817709
10.17391 -79.525158 17.621648
10.942927 -79.320022 15.206002
10.540344 -79.421566 16.40219
11.340298 -80.32029 14.414105
10.942927 -79.320022 15.206002
11.282744 -78.215615 13.649636
11.680115 -79.215881 12.857739
11.031254 -77.169559 13.257784
11.282744 -78.215615 13.649636
11.43918 -77.080345 12.118105
11.031254 -77.169559 13.257784
9.898599 -75.648671 -5.121198
9.939139 -76.961182 -4.315896
9.312197 -75.986264 -5.577854
9.898599 -75.648671 -5.121198
10.008768 -74.258881 -5.943708
11.006817 -68.277366 -9.195039
11.584436 -66.510613 -9.457763
11.379926 -66.732376 -9.959122
10.583331 -69.835667 -8.376709
11.006817 -68.277366 -9.195039
10.378822 -70.05743 -8.878068
10.358268 -71.341023 -7.581062
10.583331 -69.835667 -8.376709
9.688852 -73.106102 -7.230051
10.091784 -72.831395 -6.751375
10.358268 -71.341023 -7.581062
7.942143 -77.107666 -7.104828
7.631744 -78.560577 -6.26805
8.303279 -76.714264 -6.556809
7.942143 -77.107666 -7.104828
8.482076 -75.598588 -7.942689
8.517144 -50.822851 -1.683854
9.109981 -51.481104 -2.135286
8.476373 -51.617435 -1.616206
8.517144 -50.822851 -1.683854
7.845679 -49.913554 -1.167907
7.007187 -47.86489 -0.591469
7.060358 -49.036734 -0.585947
6.259722 -48.033699 -0.006376
5.665188 -54.41489 1.637458
6.298272 -55.922439 1.571419
6.180902 -53.920921 0.980344
5.665188 -54.41489 1.637458
6.598231 -53.342371 0.37934
7.126165 -54.755747 0.2916
6.180902 -53.920921 0.980344
7.143729 -52.903107 -0.210257
6.598231 -53.342371 0.37934
7.554679 -52.369734 -0.718242
7.954445 -53.643824 -0.817389
7.143729 -52.903107 -0.210257
8.124465 -52.034817 -1.245074
7.554679 -52.369734 -0.718242
7.313749 -51.2941 -0.637941
9.072441 -83.351483 22.698927
9.062348 -82.234493 22.223425
8.850564 -84.497028 23.151829
9.072441 -83.351483 22.698927
9.16686 -84.251602 21.862559
6.177725 -92.097286 21.126173
6.784059 -90.824284 20.62934
5.482885 -93.394264 21.600541
6.177725 -92.097286 21.126173
5.473633 -93.177059 20.216718
4.093891 -95.386746 17.000761
4.85667 -94.080399 16.630641
6.773901 -91.520027 13.404804
7.402917 -90.294491 14.21547
7.59015 -90.319996 13.036835
5.933306 -92.757095 13.726719
6.773901 -91.520027 13.404804
12.008768 -79.20438 11.718955
12.021248 -80.26392 12.091173
11.680115 -79.215881 12.857739
12.36717 -79.158131 10.597207
12.008768 -79.20438 11.718955
12.026037 -78.110093 11.363772
12.656811 -79.138286 9.511309
12.36717 -79.158131 10.597207
12.180014 -76.93787 9.897291
11.797581 -77.034096 10.996357
11.593156 -75.908123 10.651623
12.702271 -77.988518 9.170303
12.180014 -76.93787 9.897291
12.497846 -76.862545 8.82557
12.656811 -79.138286 9.511309
12.702271 -77.988518 9.170303
10.580598 -72.235184 8.612742
10.179697 -72.460388 9.649121
9.599767 -71.228973 9.35795
11.521434 -73.24807 7.879781
10.580598 -72.235184 8.612742
10.941505 -72.016655 7.58861
11.911126 -74.495953 8.17697
11.521434 -73.24807 7.879781
11.310237 -71.721779 6.596829
11.617425 -71.406456 5.621821
11.389392 -66.47454 1.674041
12.077691 -67.963478 1.81364
11.203882 -67.116715 2.519164
11.724381 -65.028183 0.077253
12.379305 -66.548339 0.177009
11.608277 -65.801147 0.86876
11.889678 -64.251368 -0.666627
11.724381 -65.028183 0.077253
11.11865 -63.504176 0.025124
11.950368 -63.358396 -1.397512
12.556099 -64.882404 -1.345384
11.889678 -64.251368 -0.666627
12.075377 -62.492452 -2.068982
11.950368 -63.358396 -1.397512
11.408955 -61.861416 -1.390225
12.105935 -61.499544 -2.728194
12.075377 -62.492452 -2.068982
11.639867 -60.059809 -2.646279
12.211838 -60.563881 -3.312779
12.105935 -61.499544 -2.728194
9.677745 -51.615368 -2.615658
9.636973 -52.409952 -2.54801
9.109981 -51.481104 -2.135286
10.389411 -51.647097 -3.187698
9.677745 -51.615368 -2.615658
11.03951 -51.786808 -3.782664
10.854836 -52.683927 -3.623347
10.389411 -51.647097 -3.187698
11.763822 -51.861489 -4.408938
11.03951 -51.786808 -3.782664
11.298397 -50.824658 -3.973288
12.372321 -51.97798 -5.05347
12.113433 -52.94013 -4.862846
11.763822 -51.861489 -4.408938
3 0 15 13
3 57 56 16
3 1 58 60
3 60 59 17
3 58 59 60
3 1 61 62
3 64 63 19
3 65 19 66
3 2 67 69
3 67 20 68
3 67 68 69
3 2 22 20
3 2 23 22
3 70 25 71
3 73 72 26
3 74 27 75
3 76 30 77
3 3 78 80
3 80 79 31
3 78 79 80
3 4 32 14
3 4 81 83
3 83 82 32
3 81 82 83
3 84 33 85
3 84 85 86
3 5 87 89
3 87 35 88
3 87 88 89
3 90 36 91
3 94 93 36
3 92 93 94
3 7 95 97
3 95 39 96
3 95 96 97
3 7 40 39
3 7 42 40
3 98 43 99
3 101 100 43
3 102 45 103
3 104 46 105
3 106 105 18
3 104 105 106
3 107 47 108
3 109 108 46
3 107 108 109
3 111 110 47
3 9 112 114
3 114 113 48
3 112 113 114
3 9 115 116
3 9 117 119
3 117 48 118
3 117 118 119
3 121 120 34
3 11 122 124
3 124 123 21
3 122 123 124
3 11 125 126
3 11 127 129
3 127 128 129
3 131 130 37
3 132 50 133
3 134 133 44
3 132 133 134
3 136 135 24
3 6 137 139
3 139 138 38
3 137 138 139
3 8 51 41
3 12 52 28
3 12 53 52
3 12 54 53
3 10 55 29
3 10 49 55
3 13 14 3
3 15 14 13
3 15 4 14
3 16 140 142
3 142 141 5
3 140 141 142
3 144 143 16
3 145 7 146
3 148 147 7
3 17 149 150
3 153 152 17
3 151 152 153
3 154 18 155
3 156 18 157
3 156 157 158
3 160 159 18
3 19 161 163
3 163 162 9
3 161 162 163
3 166 165 19
3 164 165 166
3 19 167 168
3 19 169 171
3 169 9 170
3 169 170 171
3 20 172 174
3 172 173 174
3 20 175 177
3 175 176 177
3 20 178 180
3 178 21 179
3 178 179 180
3 22 21 20
3 22 11 21
3 22 181 183
3 183 182 11
3 181 182 183
3 23 184 186
3 186 185 22
3 184 185 186
3 23 187 188
3 189 24 190
3 25 191 193
3 191 24 192
3 191 192 193
3 25 194 196
3 196 195 24
3 194 195 196
3 26 197 199
3 199 198 6
3 197 198 199
3 201 200 26
3 27 202 203
3 27 204 205
3 206 28 207
3 208 207 8
3 206 207 208
3 209 28 210
3 211 12 212
3 213 212 28
3 211 212 213
3 214 29 215
3 216 215 12
3 214 215 216
3 30 217 219
3 217 29 218
3 217 218 219
3 30 10 29
3 31 220 221
3 223 222 31
3 14 224 226
3 226 225 3
3 224 225 226
3 32 227 229
3 229 228 14
3 227 228 229
3 32 230 231
3 32 232 233
3 235 234 32
3 236 17 237
3 33 238 240
3 238 17 239
3 238 239 240
3 33 1 17
3 241 34 242
3 35 243 245
3 243 34 244
3 243 244 245
3 35 246 248
3 248 247 34
3 246 247 248
3 249 35 250
3 251 250 5
3 249 250 251
3 252 35 253
3 255 254 35
3 36 256 257
3 36 258 260
3 258 2 259
3 258 259 260
3 36 37 2
3 261 37 262
3 263 262 36
3 261 262 263
3 266 265 37
3 264 265 266
3 267 38 268
3 269 38 270
3 271 6 272
3 273 272 38
3 271 272 273
3 39 274 275
3 39 276 278
3 276 6 277
3 276 277 278
3 39 26 6
3 40 26 39
3 40 279 281
3 281 280 26
3 279 280 281
3 40 282 284
3 282 41 283
3 282 283 284
3 42 41 40
3 42 8 41
3 285 42 286
3 287 286 7
3 285 286 287
3 43 288 290
3 288 42 289
3 288 289 290
3 43 8 42
3 43 291 293
3 293 292 8
3 291 292 293
3 295 294 43
3 296 5 297
3 298 5 299
3 300 16 301
3 302 301 5
3 300 301 302
3 303 16 304
3 306 305 16
3 307 44 308
3 309 44 310
3 312 311 44
3 313 33 314
3 45 315 317
3 315 33 316
3 315 316 317
3 45 1 33
3 18 318 320
3 318 319 320
3 46 321 323
3 323 322 18
3 321 322 323
3 46 324 325
3 46 326 328
3 326 45 327
3 326 327 328
3 47 45 46
3 47 1 45
3 47 329 331
3 331 330 1
3 329 330 331
3 333 332 47
3 48 334 336
3 336 335 0
3 334 335 336
3 338 337 48
3 341 340 9
3 339 340 341
3 342 30 343
3 344 30 345
3 346 10 347
3 348 347 30
3 346 347 348
3 349 10 350
3 351 49 352
3 353 352 10
3 351 352 353
3 48 354 356
3 354 49 355
3 354 355 356
3 48 0 49
3 34 357 358
3 361 360 34
3 359 360 361
3 21 362 363
3 366 365 21
3 364 365 366
3 368 367 11
3 37 23 2
3 369 23 370
3 371 370 37
3 369 370 371
3 373 372 23
3 44 374 376
3 374 375 376
3 50 377 379
3 379 378 44
3 377 378 379
3 50 380 381
3 24 382 384
3 382 50 383
3 382 383 384
3 385 50 386
3 387 386 24
3 385 386 387
3 389 388 50
3 38 390 392
3 390 25 391
3 390 391 392
3 393 25 394
3 395 394 38
3 393 394 395
3 397 396 25
3 399 398 6
3 41 400 402
3 400 27 401
3 400 401 402
3 51 27 41
3 51 403 405
3 405 404 27
3 403 404 405
3 28 51 8
3 52 51 28
3 52 406 408
3 408 407 51
3 406 407 408
3 52 409 411
3 409 410 411
3 53 412 414
3 414 413 52
3 412 413 414
3 53 415 416
3 53 417 419
3 417 31 418
3 417 418 419
3 54 31 53
3 54 3 31
3 29 54 12
3 55 54 29
3 55 3 54
3 55 13 3
3 49 13 55
3 49 0 13
3 420 15 421
3 422 421 0
3 420 421 422
3 423 15 424
3 425 4 426
3 427 426 15
3 425 426 427
3 428 4 429
3 428 429 430
3 433 432 4
3 431 432 433
