ply
format ascii 1.0
element vertex 231
property float x
property float y
property float z
element face 188
property list uchar int vertex_index
end_header
12.677906 -62.003616 -3.394693
12.822594 -64.293381 -8.120504
12.382881 -65.674911 -12.314407
12.899403 -57.651875 -5.500502
13.901382 -58.575817 -10.567568
11.957544 -64.965622 -10.221846
14.279205 -58.842766 -12.950336
13.505239 -63.422733 -5.883423
13.799772 -58.257832 -8.07918
14.897846 -55.867599 -11.576712
13.983379 -58.70631 -11.773909
15.240336 -55.904636 -12.867964
15.782816 -55.935265 -14.121168
13.331127 -62.801777 -4.671482
13.214285 -55.413311 -6.262758
13.498686 -58.008335 -6.798725
13.895266 -55.615704 -7.595232
14.344521 -55.742958 -8.931162
11.939085 -65.312637 -11.267498
19.231808 -55.81583 -17.545038
12.746386 -59.870876 -4.543257
11.971775 -57.151608 -4.197304
12.721933 -53.056622 -5.507378
13.211567 -61.409458 -9.412479
12.311895 -64.633682 -9.177404
13.000383 -61.637829 -10.540804
12.989708 -61.871696 -11.649067
13.323002 -62.120834 -12.737236
14.091251 -62.37291 -13.797039
14.899818 -58.983231 -14.087383
16.609543 -55.949375 -15.322001
13.28521 -63.905117 -7.029369
13.334946 -60.431179 -5.823385
13.538826 -60.846622 -7.061924
13.449326 -61.158653 -8.256298
13.890337 -58.435661 -9.335798
14.640989 -55.819256 -10.261021
9.150753 -50.68652 -2.202934
7.807823 -48.867924 -1.17104
12.616789 -63.989433 -2.076269
10.574085 -50.749977 -3.347015
15.709725 -54.621391 -12.659882
15.069091 -55.886117 -12.222338
15.53848 -54.602873 -12.014256
16.454963 -53.307846 -13.143973
15.985574 -54.591091 -13.352056
15.709725 -54.621391 -12.659882
13.004517 -62.402697 -4.033088
13.366459 -63.921053 -4.016313
13.039848 -63.521973 -3.377919
13.824506 -54.42054 -7.223925
13.554775 -55.514508 -6.928995
13.484015 -54.319344 -6.557688
14.232749 -54.47198 -7.914008
13.824506 -54.42054 -7.223925
12.369575 -65.95404 -7.915383
12.762491 -65.716522 -7.41832
11.619359 -67.317657 -11.523402
11.397461 -67.13652 -10.999948
12.160983 -65.493774 -11.790952
11.92456 -67.551132 -12.054902
11.619359 -67.317657 -11.523402
12.864291 -65.851219 -12.832462
11.92456 -67.551132 -12.054902
19.411582 -54.33456 -17.618277
18.49664 -55.868766 -17.003348
20.133823 -54.18397 -18.20707
19.411582 -54.33456 -17.618277
11.356102 -56.805653 -3.550666
11.858773 -58.137877 -3.714084
12.113433 -52.94013 -4.862846
12.497933 -54.084958 -5.228055
17.02825 -54.568581 -15.250644
16.196179 -55.94232 -14.721585
16.614887 -54.561526 -14.650227
17.500412 -54.501999 -15.893921
17.02825 -54.568581 -15.250644
13.42202 -65.002641 -5.779765
13.562943 -64.659239 -5.222765
13.395224 -63.663925 -6.456396
13.312005 -65.243833 -6.352738
13.42202 -65.002641 -5.779765
14.918903 -54.59615 -9.947669
14.492755 -55.781107 -9.596091
14.770669 -54.558001 -9.282739
15.449233 -53.372652 -10.339827
15.171319 -54.595759 -10.65318
14.918903 -54.59615 -9.947669
11.584436 -66.510613 -9.457763
11.761611 -66.344642 -8.935542
12.134719 -64.799652 -9.699625
14.706257 -62.483618 -14.307417
14.999388 -60.739784 -14.485602
7.060358 -49.036734 -0.585947
7.845679 -49.913554 -1.167907
12.556099 -64.882404 -1.345384
13.039668 -65.532909 -1.996351
9.994538 -49.766201 -2.852301
9.862419 -50.718249 -2.774974
9.282872 -49.734473 -2.28026
16.256814 -54.606406 -13.978658
15.511576 -55.91995 -13.494566
15.985574 -54.591091 -13.352056
16.614887 -54.561526 -14.650227
16.256814 -54.606406 -13.978658
13.475887 -64.34876 -4.616795
13.366459 -63.921053 -4.016313
13.418183 -63.112255 -5.277452
13.562943 -64.659239 -5.222765
13.475887 -64.34876 -4.616795
14.457377 -54.535607 -8.581973
14.119893 -55.679331 -8.263197
14.232749 -54.47198 -7.914008
14.770669 -54.558001 -9.282739
14.457377 -54.535607 -8.581973
11.370696 -66.905883 -10.481948
11.379926 -66.732376 -9.959122
11.948315 -65.139129 -10.744672
11.370696 -66.905883 -10.481948
11.397461 -67.13652 -10.999948
18.269827 -57.495739 -16.875891
18.49664 -55.868766 -17.003348
19.142246 -57.479717 -17.370787
18.269827 -57.495739 -16.875891
20.100527 -55.703051 -18.070492
20.010965 -57.366938 -17.89624
19.142246 -57.479717 -17.370787
20.100527 -55.703051 -18.070492
20.133823 -54.18397 -18.20707
12.246078 -59.497511 -3.88706
12.712146 -60.937246 -3.968975
12.211838 -60.563881 -3.312779
12.35908 -58.511242 -4.37028
12.246078 -59.497511 -3.88706
11.858773 -58.137877 -3.714084
11.539062 -55.921537 -3.93706
11.356102 -56.805653 -3.550666
12.122854 -56.132451 -4.573018
11.539062 -55.921537 -3.93706
12.586668 -56.382584 -5.224617
12.435589 -57.401741 -4.848903
12.122854 -56.132451 -4.573018
12.744109 -55.263302 -5.605745
13.056844 -56.532593 -5.88163
12.586668 -56.382584 -5.224617
12.968109 -54.234966 -5.885068
12.744109 -55.263302 -5.605745
12.497933 -54.084958 -5.228055
13.237839 -53.140999 -6.179998
13.484015 -54.319344 -6.557688
12.968109 -54.234966 -5.885068
15.403671 -59.044945 -14.630775
14.999388 -60.739784 -14.485602
14.495534 -60.678071 -13.942211
16.258533 -57.528017 -15.248083
15.403671 -59.044945 -14.630775
15.75468 -57.466303 -14.704692
17.185508 -55.935539 -15.891829
16.258533 -57.528017 -15.248083
17.185508 -55.935539 -15.891829
17.500412 -54.501999 -15.893921
12.993799 -65.522391 -6.872752
13.312005 -65.243833 -6.352738
13.053902 -64.099249 -7.574936
12.762491 -65.716522 -7.41832
12.993799 -65.522391 -6.872752
15.299747 -54.61993 -11.311025
14.769417 -55.843428 -10.918867
15.171319 -54.595759 -10.65318
15.940382 -53.355204 -11.748568
15.53848 -54.602873 -12.014256
15.299747 -54.61993 -11.311025
12.114226 -66.124191 -8.443833
12.369575 -65.95404 -7.915383
12.567245 -64.463531 -8.648954
12.114226 -66.124191 -8.443833
11.761611 -66.344642 -8.935542
11.584436 -66.510613 -9.457763
11.379926 -66.732376 -9.959122
13.718476 -64.200219 -13.573778
12.864291 -65.851219 -12.832462
13.237066 -64.02391 -13.055723
13.718476 -64.200219 -13.573778
14.706257 -62.483618 -14.307417
8.517144 -50.822851 -1.683854
9.109981 -51.481104 -2.135286
8.479288 -49.777222 -1.686987
8.517144 -50.822851 -1.683854
7.845679 -49.913554 -1.167907
8.611407 -48.825175 -1.764313
9.282872 -49.734473 -2.28026
8.479288 -49.777222 -1.686987
7.007187 -47.86489 -0.591469
7.060358 -49.036734 -0.585947
7.899729 -47.817732 -1.228855
7.007187 -47.86489 -0.591469
8.611407 -48.825175 -1.764313
7.899729 -47.817732 -1.228855
13.00929 -64.514881 -2.718707
13.039668 -65.532909 -1.996351
12.647348 -62.996524 -2.735481
13.039848 -63.521973 -3.377919
13.00929 -64.514881 -2.718707
11.950368 -63.358396 -1.397512
12.556099 -64.882404 -1.345384
12.075377 -62.492452 -2.068982
11.950368 -63.358396 -1.397512
12.105935 -61.499544 -2.728194
12.647348 -62.996524 -2.735481
12.075377 -62.492452 -2.068982
12.211838 -60.563881 -3.312779
12.105935 -61.499544 -2.728194
9.677745 -51.615368 -2.615658
9.109981 -51.481104 -2.135286
10.389411 -51.647097 -3.187698
9.677745 -51.615368 -2.615658
9.862419 -50.718249 -2.774974
11.03951 -51.786808 -3.782664
10.389411 -51.647097 -3.187698
10.827991 -49.806339 -3.475065
9.994538 -49.766201 -2.852301
11.298397 -50.824658 -3.973288
10.827991 -49.806339 -3.475065
11.03951 -51.786808 -3.782664
11.298397 -50.824658 -3.973288
12.372321 -51.97798 -5.05347
12.113433 -52.94013 -4.862846
13.046479 -52.051029 -5.71845
12.372321 -51.97798 -5.05347
13.237839 -53.140999 -6.179998
13.046479 -52.051029 -5.71845
3 41 11 42
3 43 42 9
3 41 42 43
3 46 45 11
3 44 45 46
3 0 47 49
3 47 13 48
3 47 48 49
3 50 16 51
3 52 51 14
3 50 51 52
3 54 53 16
3 1 55 56
3 2 57 59
3 59 58 18
3 57 58 59
3 2 60 61
3 2 62 63
3 64 19 65
3 67 66 19
3 68 21 69
3 70 22 71
3 4 25 23
3 6 26 10
3 6 27 26
3 6 29 27
3 72 30 73
3 74 73 12
3 72 73 74
3 76 75 30
3 7 77 78
3 7 79 81
3 79 31 80
3 79 80 81
3 3 32 20
3 8 33 15
3 8 34 33
3 8 35 34
3 82 36 83
3 84 83 17
3 82 83 84
3 87 86 36
3 85 86 87
3 5 88 90
3 90 89 24
3 88 89 90
3 92 91 28
3 93 38 94
3 95 39 96
3 97 40 98
3 99 98 37
3 97 98 99
3 9 10 4
3 11 10 9
3 11 6 10
3 11 12 6
3 100 12 101
3 102 101 11
3 100 101 102
3 104 103 12
3 13 105 106
3 13 107 109
3 107 7 108
3 107 108 109
3 14 15 3
3 16 15 14
3 16 8 15
3 16 17 8
3 110 17 111
3 112 111 16
3 110 111 112
3 114 113 17
3 18 115 117
3 117 116 5
3 115 116 117
3 119 118 18
3 19 120 121
3 19 122 123
3 19 124 126
3 124 125 126
3 128 127 19
3 129 20 130
3 131 130 0
3 129 130 131
3 21 132 134
3 132 20 133
3 132 133 134
3 21 3 20
3 135 21 136
3 137 21 138
3 139 3 140
3 141 140 21
3 139 140 141
3 142 14 143
3 144 143 3
3 142 143 144
3 22 145 147
3 145 14 146
3 145 146 147
3 22 148 150
3 150 149 14
3 148 149 150
3 23 24 1
3 25 24 23
3 25 5 24
3 10 25 4
3 26 25 10
3 26 5 25
3 26 18 5
3 27 18 26
3 27 2 18
3 27 28 2
3 29 28 27
3 29 151 153
3 153 152 28
3 151 152 153
3 12 29 6
3 30 29 12
3 30 154 156
3 156 155 29
3 154 155 156
3 30 157 158
3 160 159 30
3 31 161 162
3 31 163 165
3 163 1 164
3 163 164 165
3 20 13 0
3 32 13 20
3 32 7 13
3 15 32 3
3 33 32 15
3 33 7 32
3 33 31 7
3 34 31 33
3 34 1 31
3 34 23 1
3 35 23 34
3 35 4 23
3 17 35 8
3 36 35 17
3 36 4 35
3 36 9 4
3 166 9 167
3 168 167 36
3 166 167 168
3 171 170 9
3 169 170 171
3 24 172 174
3 174 173 1
3 172 173 174
3 176 175 24
3 178 177 5
3 28 179 181
3 181 180 2
3 179 180 181
3 183 182 28
3 184 37 185
3 38 186 188
3 186 37 187
3 186 187 188
3 38 189 191
3 191 190 37
3 189 190 191
3 192 38 193
3 194 38 195
3 197 196 38
3 39 198 199
3 39 200 202
3 200 0 201
3 200 201 202
3 203 39 204
3 205 39 206
3 207 0 208
3 209 208 39
3 207 208 209
3 211 210 0
3 37 212 213
3 40 214 216
3 216 215 37
3 214 215 216
3 40 217 218
3 219 40 220
3 221 40 222
3 224 223 40
3 225 22 226
3 227 22 228
3 230 229 22
