ply
format ascii 1.0
element vertex 446
property float x
property float y
property float z
element face 346
property list uchar int vertex_index
end_header
27.143505 -93.828293 32.426712
46.625519 -93.094917 10.802382
35.942253 -100.499229 25.438274
33.465862 -97.13353 29.040127
51.810539 -81.98848 2.691777
23.351521 -96.228897 33.652622
45.088451 -95.648613 15.338788
42.553886 -100.504829 13.651274
15.005198 -99.258141 46.189568
40.467678 -102.025345 17.869013
38.285667 -102.192688 21.814672
30.862095 -92.892319 33.180683
49.423531 -84.910576 7.063951
48.1563 -90.436378 6.392812
35.22464 -96.966492 30.438332
18.896004 -98.011253 39.969994
20.553833 -96.334084 38.432003
22.273075 -94.665688 37.08469
44.279858 -96.847099 17.627197
43.976376 -98.142105 14.531085
43.040241 -99.198128 16.735254
14.321371 -101.598724 44.299141
34.027908 -101.060127 24.185587
29.030418 -93.178589 32.556572
30.322813 -95.287415 30.128166
28.377766 -95.816093 29.724365
50.267555 -82.345322 7.233222
46.59359 -91.709175 13.665131
47.256927 -90.362144 11.332678
47.964867 -89.008232 9.038002
47.382225 -91.78511 8.577653
47.479733 -93.270798 5.859294
46.644581 -94.549263 7.981595
34.718151 -98.985527 27.209696
32.813896 -99.347351 26.009335
16.782043 -95.39991 46.961128
25.239117 -94.862816 32.804176
45.865734 -94.385002 13.059244
45.780643 -95.782356 10.139459
44.889687 -96.985649 12.326362
14.003334 -95.512787 51.110641
12.663239 -98.381599 49.692123
13.970032 -97.79425 49.08992
15.34709 -96.775604 48.14838
16.4389 -98.119804 44.943214
17.300251 -99.535538 41.557034
42.073086 -100.068901 18.91329
41.062248 -100.652672 21.035913
39.395294 -102.323311 19.885946
37.133663 -101.584656 23.656759
31.231588 -90.683243 36.400642
32.183441 -95.059914 31.006607
31.580267 -97.383263 27.965126
51.554218 -80.984924 4.990171
50.504971 -83.494141 4.838979
48.538788 -86.280975 9.360888
20.133924 -97.89595 37.421808
19.724919 -97.172669 39.200998
19.30501 -98.734535 38.190804
21.029613 -97.072899 36.662458
20.133924 -97.89595 37.421808
43.852026 -97.378799 18.765669
44.410027 -96.205475 19.202656
43.232218 -98.554314 18.319697
43.660049 -98.022614 17.181226
43.852026 -97.378799 18.765669
13.796975 -102.646114 43.35755
13.648516 -101.783031 44.750063
14.531588 -102.409126 42.757526
13.796975 -102.646114 43.35755
33.585344 -102.127212 22.799052
32.996417 -101.355358 23.71112
27.416177 -92.496159 33.853657
26.503287 -92.900418 33.929028
28.086962 -93.503441 32.491642
28.359634 -92.171307 33.918587
27.416177 -92.496159 33.853657
52.578779 -81.167851 1.6554
52.453167 -80.76191 2.76418
17.526518 -94.589146 46.303425
17.358346 -96.026284 45.239367
23.699921 -94.698021 34.852499
23.160698 -93.916416 36.568533
22.812298 -95.447293 35.368656
24.295319 -95.545856 33.228399
24.643719 -94.014981 34.428276
23.699921 -94.698021 34.852499
23.865316 -97.076317 32.053812
24.809114 -96.393276 31.629589
24.295319 -95.545856 33.228399
45.514437 -94.34845 15.68198
45.603088 -93.700046 17.213266
45.177103 -95.00021 16.870074
45.477092 -95.016807 14.199016
45.903078 -93.716644 14.542208
45.514437 -94.34845 15.68198
43.071996 -99.993663 12.579752
43.783242 -98.812302 13.019657
43.265131 -99.323467 14.091179
42.249973 -101.187191 12.15701
43.071996 -99.993663 12.579752
13.326536 -95.949845 51.409702
13.213196 -94.916313 52.451629
12.522758 -99.304389 48.69566
12.05333 -98.441658 49.79454
11.912848 -99.364449 48.798077
14.487615 -98.526196 47.639744
13.808153 -98.885838 48.11377
14.325736 -99.617783 46.663594
16.810645 -100.915943 40.639903
16.535522 -100.15102 42.301623
17.641903 -100.269184 39.814255
16.810645 -100.915943 40.639903
41.287126 -99.952786 22.675041
41.783846 -99.69931 21.589436
38.84048 -102.258 20.850309
39.696156 -101.587189 21.481394
39.141342 -101.521878 22.445757
37.899795 -102.991753 20.298047
38.454609 -103.057064 19.333684
38.84048 -102.258 20.850309
36.537958 -101.041943 24.547517
37.415836 -100.710895 25.265193
36.820131 -100.168182 26.15595
31.046841 -91.787781 34.790662
30.360591 -90.719082 36.007892
30.175845 -91.82362 34.397913
31.735847 -92.883892 33.708264
31.920594 -91.779354 35.318243
31.046841 -91.787781 34.790662
31.522768 -93.976117 32.093645
32.396521 -93.96769 32.621226
31.735847 -92.883892 33.708264
30.582375 -97.617249 27.643135
30.95154 -96.335339 29.046646
29.953648 -96.569324 28.724655
31.179157 -98.608109 26.572505
30.582375 -97.617249 27.643135
51.444307 -80.47749 6.161219
52.190851 -79.83184 5.040807
49.547811 -85.548542 5.833768
50.088532 -84.840325 4.721283
49.964251 -84.202359 5.951465
48.174278 -86.960403 10.539457
48.477879 -85.636887 10.663265
48.456101 -89.031948 6.592216
48.360384 -88.317875 7.914811
48.060583 -89.722305 7.715407
48.567661 -89.724868 5.324027
48.456101 -89.031948 6.592216
48.226695 -91.172943 5.085035
48.567661 -89.724868 5.324027
47.477843 -94.040123 4.514588
47.029898 -94.672154 5.530539
45.701954 -96.518287 8.705594
45.199907 -97.085308 9.757979
40.991678 -101.705067 16.825215
41.794382 -100.726845 17.347354
41.270382 -101.047123 18.391151
35.401596 -95.97918 32.117983
36.041283 -96.845653 31.231513
34.580786 -95.990239 31.354737
35.401596 -95.97918 32.117983
33.701397 -96.073757 30.655634
34.345251 -97.050011 29.73923
34.580786 -95.990239 31.354737
51.395305 -83.805656 1.451549
51.92324 -82.477074 1.557144
51.282604 -83.317062 2.586182
19.192656 -96.497456 41.009308
18.415326 -97.331955 41.7438
20.02157 -95.658871 40.240313
19.192656 -96.497456 41.009308
19.724919 -97.172669 39.200998
20.829733 -94.800057 39.553431
20.02157 -95.658871 40.240313
21.413454 -95.499886 37.758347
21.689354 -93.965858 38.879774
20.829733 -94.800057 39.553431
21.889235 -96.238701 35.988802
21.413454 -95.499886 37.758347
21.029613 -97.072899 36.662458
22.428458 -97.020306 34.272768
22.812298 -95.447293 35.368656
21.889235 -96.238701 35.988802
22.872963 -97.811302 32.586875
22.428458 -97.020306 34.272768
44.772807 -95.599453 18.014278
44.410027 -96.205475 19.202656
44.684154 -96.247856 16.482992
45.177103 -95.00021 16.870074
44.772807 -95.599453 18.014278
13.983822 -100.788074 45.71838
13.648516 -101.783031 44.750063
14.663284 -100.428432 45.244355
14.325736 -99.617783 46.663594
13.983822 -100.788074 45.71838
15.046082 -101.182613 43.672676
15.387995 -100.012321 44.61789
14.663284 -100.428432 45.244355
15.046082 -101.182613 43.672676
14.531588 -102.409126 42.757526
38.579802 -101.391475 23.417983
39.141342 -101.521878 22.445757
34.623663 -101.737815 23.3004
35.580835 -101.457367 23.926744
34.98508 -100.779678 24.811931
34.623663 -101.737815 23.3004
33.585344 -102.127212 22.799052
29.260006 -91.966755 34.085858
28.359634 -92.171307 33.918587
29.946257 -93.035454 32.868628
30.175845 -91.82362 34.397913
29.260006 -91.966755 34.085858
28.981125 -96.833664 28.522754
29.953648 -96.569324 28.724655
29.35029 -95.551754 29.926265
50.193748 -81.783188 8.452379
50.800975 -81.157689 7.282744
50.727169 -80.595554 8.501901
49.749474 -83.006687 8.397784
50.193748 -81.783188 8.452379
49.327461 -84.289315 8.313149
49.845543 -83.627949 7.148587
49.749474 -83.006687 8.397784
46.891022 -90.35841 13.893448
46.609033 -91.047702 15.112313
47.22269 -89.684894 12.727221
46.891022 -90.35841 13.893448
46.925258 -91.03566 12.498905
47.533348 -89.000988 11.525351
47.22269 -89.684894 12.727221
47.610897 -89.685188 10.18534
47.887318 -88.324032 10.378014
47.533348 -89.000988 11.525351
46.612322 -95.311386 6.591689
47.029898 -94.672154 5.530539
47.062157 -93.910031 6.920445
40.091417 -102.718029 16.352143
39.543731 -102.909797 17.358881
36.210567 -99.553627 27.050193
36.820131 -100.168182 26.15595
35.851761 -97.787259 29.550223
36.041283 -96.845653 31.231513
35.598517 -98.796776 27.935904
35.851761 -97.787259 29.550223
34.971395 -97.97601 28.824014
35.330202 -99.742378 26.323985
36.210567 -99.553627 27.050193
35.598517 -98.796776 27.935904
32.389411 -100.49897 24.622993
32.996417 -101.355358 23.71112
33.420902 -100.203739 25.097461
52.69148 -81.656444 0.520767
52.578779 -81.167851 1.6554
51.92324 -82.477074 1.557144
16.828587 -94.062226 48.045727
16.097974 -94.83025 48.590519
16.828587 -94.062226 48.045727
17.526518 -94.589146 46.303425
22.528883 -93.163444 38.304802
21.689354 -93.965858 38.879774
22.528883 -93.163444 38.304802
23.160698 -93.916416 36.568533
25.551094 -93.417679 34.117759
24.643719 -94.014981 34.428276
26.191311 -94.345554 32.615444
26.503287 -92.900418 33.929028
25.551094 -93.417679 34.117759
25.811541 -95.782223 31.320515
26.763735 -95.264961 31.131782
26.191311 -94.345554 32.615444
25.811541 -95.782223 31.320515
24.809114 -96.393276 31.629589
23.865316 -97.076317 32.053812
22.872963 -97.811302 32.586875
46.267006 -92.378731 14.845152
46.609033 -91.047702 15.112313
46.229662 -93.047089 13.362188
46.267006 -92.378731 14.845152
45.903078 -93.716644 14.542208
44.754429 -97.686954 10.85143
45.199907 -97.085308 9.757979
45.335165 -96.384002 11.23291
44.239897 -98.234073 11.917295
44.433031 -97.563877 13.428724
43.783242 -98.812302 13.019657
44.754429 -97.686954 10.85143
44.239897 -98.234073 11.917295
13.919498 -94.367317 52.172142
13.129359 -93.770843 53.513131
13.213196 -94.916313 52.451629
14.70862 -94.886688 50.665275
13.919498 -94.367317 52.172142
12.014502 -97.603336 50.82074
11.404592 -97.663395 50.923157
12.05333 -98.441658 49.79454
12.656489 -97.384251 50.700443
12.007751 -96.605987 51.829059
12.014502 -97.603336 50.82074
13.154756 -99.179512 48.414871
12.522758 -99.304389 48.69566
13.316636 -98.087924 49.391022
13.154756 -99.179512 48.414871
13.808153 -98.885838 48.11377
13.309885 -97.090576 50.399341
12.656489 -97.384251 50.700443
13.316636 -98.087924 49.391022
13.986683 -96.653519 50.10028
13.326536 -95.949845 51.409702
13.309885 -97.090576 50.399341
15.380498 -95.518097 49.184145
14.70862 -94.886688 50.665275
14.675212 -96.144195 49.629511
16.064567 -96.087757 47.554754
16.097974 -94.83025 48.590519
15.380498 -95.518097 49.184145
17.186774 -97.386231 44.23041
17.358346 -96.026284 45.239367
16.610472 -96.759857 45.952171
16.104847 -99.443153 43.994712
15.722049 -98.688973 45.566391
15.387995 -100.012321 44.61789
16.869575 -98.827671 43.250124
16.104847 -99.443153 43.994712
16.535522 -100.15102 42.301623
17.61745 -98.094098 42.53732
17.186774 -97.386231 44.23041
16.869575 -98.827671 43.250124
18.098128 -98.773395 40.763514
18.415326 -97.331955 41.7438
17.61745 -98.094098 42.53732
18.43978 -99.507042 39.020735
18.098128 -98.773395 40.763514
17.641903 -100.269184 39.814255
19.30501 -98.734535 38.190804
18.43978 -99.507042 39.020735
42.289265 -99.407425 20.528125
42.74864 -98.9897 19.408715
41.567667 -100.360786 19.974601
42.289265 -99.407425 20.528125
41.783846 -99.69931 21.589436
40.529632 -100.751869 22.056377
41.287126 -99.952786 22.675041
40.228771 -101.487991 20.460929
40.529632 -100.751869 22.056377
39.696156 -101.587189 21.481394
39.00754 -103.058781 18.367348
39.543731 -102.909797 17.358881
39.931486 -102.174328 18.877479
39.00754 -103.058781 18.367348
38.454609 -103.057064 19.333684
38.003799 -101.087459 24.339027
37.415836 -100.710895 25.265193
37.709665 -101.888672 22.735716
38.579802 -101.391475 23.417983
38.003799 -101.087459 24.339027
36.176541 -102.00008 23.035986
36.537958 -101.041943 24.547517
35.580835 -101.457367 23.926744
36.758021 -102.46075 22.14324
36.176541 -102.00008 23.035986
37.334023 -102.764767 21.222197
37.709665 -101.888672 22.735716
36.758021 -102.46075 22.14324
37.899795 -102.991753 20.298047
37.334023 -102.764767 21.222197
30.512034 -89.622654 37.607135
30.360591 -90.719082 36.007892
31.350935 -89.668228 38.04338
30.512034 -89.622654 37.607135
32.063161 -90.754272 36.979602
31.350935 -89.668228 38.04338
32.063161 -90.754272 36.979602
31.920594 -91.779354 35.318243
33.060187 -95.03695 31.638874
32.396521 -93.96769 32.621226
32.824652 -96.096722 30.023367
33.701397 -96.073757 30.655634
33.060187 -95.03695 31.638874
31.795972 -99.590153 25.59461
32.197081 -98.365307 26.987231
31.179157 -98.608109 26.572505
32.389411 -100.49897 24.622993
31.795972 -99.590153 25.59461
27.380865 -96.258861 29.780609
27.760635 -94.822193 31.075539
26.763735 -95.264961 31.131782
27.943679 -97.218971 28.449538
27.380865 -96.258861 29.780609
28.981125 -96.833664 28.522754
27.943679 -97.218971 28.449538
52.325007 -80.260131 3.913377
52.190851 -79.83184 5.040807
51.682378 -81.486702 3.840974
52.453167 -80.76191 2.76418
52.325007 -80.260131 3.913377
50.910887 -81.665123 6.111696
51.444307 -80.47749 6.161219
50.800975 -81.157689 7.282744
50.62982 -84.069893 3.659783
51.282604 -83.317062 2.586182
51.157755 -82.74131 3.765378
50.62982 -84.069893 3.659783
50.088532 -84.840325 4.721283
48.88509 -84.974514 9.461617
48.477879 -85.636887 10.663265
48.981159 -85.595776 8.212419
49.327461 -84.289315 8.313149
48.88509 -84.974514 9.461617
48.251827 -87.644604 9.199445
48.174278 -86.960403 10.539457
47.887318 -88.324032 10.378014
48.647345 -86.954246 8.076254
48.251827 -87.644604 9.199445
48.360384 -88.317875 7.914811
49.089716 -86.269047 6.927786
48.981159 -85.595776 8.212419
48.647345 -86.954246 8.076254
49.547811 -85.548542 5.833768
49.089716 -86.269047 6.927786
47.888411 -92.590153 4.818276
48.226695 -91.172943 5.085035
47.818016 -91.853588 6.126053
47.888411 -92.590153 4.818276
47.477843 -94.040123 4.514588
46.133922 -95.901741 7.626662
46.212612 -95.165809 9.060527
45.701954 -96.518287 8.705594
46.612322 -95.311386 6.591689
46.133922 -95.901741 7.626662
42.556663 -99.633514 17.824272
43.232218 -98.554314 18.319697
42.74864 -98.9897 19.408715
42.27796 -100.291459 16.258336
42.556663 -99.633514 17.824272
41.794382 -100.726845 17.347354
42.034782 -100.944809 14.716345
42.797064 -99.851478 15.193264
42.27796 -100.291459 16.258336
40.991678 -101.705067 16.825215
40.091417 -102.718029 16.352143
41.686672 -101.619892 13.207141
42.034782 -100.944809 14.716345
42.249973 -101.187191 12.15701
41.686672 -101.619892 13.207141
3 56 16 57
3 58 57 15
3 56 57 58
3 60 59 16
3 61 18 62
3 63 20 64
3 65 64 18
3 63 64 65
3 66 21 67
3 69 68 21
3 71 70 22
3 0 72 73
3 0 74 76
3 74 23 75
3 74 75 76
3 0 25 23
3 1 28 27
3 1 30 28
3 1 32 30
3 3 33 14
3 3 34 33
3 4 77 78
3 80 79 35
3 5 81 83
3 83 82 17
3 81 82 83
3 5 84 86
3 84 36 85
3 84 85 86
3 5 87 89
3 89 88 36
3 87 88 89
3 6 90 92
3 90 91 92
3 6 93 95
3 93 37 94
3 93 94 95
3 6 39 37
3 7 96 98
3 98 97 19
3 96 97 98
3 7 99 100
3 101 40 102
3 103 41 104
3 103 104 105
3 8 106 108
3 106 42 107
3 106 107 108
3 8 43 42
3 8 44 43
3 109 45 110
3 112 111 45
3 113 47 114
3 10 115 117
3 115 48 116
3 115 116 117
3 10 118 120
3 120 119 48
3 118 119 120
3 2 121 123
3 121 49 122
3 121 122 123
3 11 124 126
3 124 50 125
3 124 125 126
3 11 127 129
3 129 128 50
3 127 128 129
3 11 130 132
3 130 51 131
3 130 131 132
3 133 52 134
3 135 134 24
3 133 134 135
3 137 136 52
3 138 53 139
3 12 54 26
3 12 140 142
3 142 141 54
3 140 141 142
3 143 55 144
3 13 145 147
3 147 146 29
3 145 146 147
3 13 148 149
3 13 150 151
3 153 152 31
3 155 154 38
3 9 156 158
3 158 157 46
3 156 157 158
3 159 14 160
3 161 14 162
3 163 3 164
3 165 164 14
3 163 164 165
3 168 167 4
3 166 167 168
3 15 169 170
3 16 171 173
3 173 172 15
3 171 172 173
3 16 174 175
3 16 176 178
3 176 17 177
3 176 177 178
3 179 17 180
3 181 180 16
3 179 180 181
3 182 5 183
3 184 183 17
3 182 183 184
3 186 185 5
3 18 187 188
3 18 189 191
3 189 6 190
3 189 190 191
3 18 19 6
3 20 19 18
3 20 7 19
3 21 192 193
3 21 194 196
3 194 8 195
3 194 195 196
3 21 197 199
3 199 198 8
3 197 198 199
3 201 200 21
3 202 10 203
3 22 204 206
3 206 205 2
3 204 205 206
3 208 207 22
3 23 209 210
3 23 211 213
3 211 11 212
3 211 212 213
3 23 24 11
3 25 24 23
3 25 214 216
3 216 215 24
3 214 215 216
3 217 26 218
3 217 218 219
3 220 26 221
3 222 12 223
3 224 223 26
3 222 223 224
3 27 225 226
3 28 227 229
3 229 228 27
3 227 228 229
3 28 230 231
3 28 232 234
3 232 29 233
3 232 233 234
3 30 29 28
3 30 13 29
3 30 31 13
3 32 31 30
3 32 235 237
3 237 236 31
3 235 236 237
3 239 238 9
3 240 2 241
3 14 242 243
3 33 244 246
3 246 245 14
3 244 245 246
3 33 247 249
3 247 2 248
3 247 248 249
3 33 22 2
3 34 22 33
3 34 250 252
3 252 251 22
3 250 251 252
3 255 254 4
3 253 254 255
3 35 256 257
3 259 258 35
3 17 260 261
3 263 262 17
3 36 264 265
3 36 266 268
3 266 0 267
3 266 267 268
3 36 269 271
3 271 270 0
3 269 270 271
3 273 272 36
3 275 274 5
3 276 27 277
3 37 278 280
3 278 27 279
3 278 279 280
3 37 1 27
3 37 38 1
3 39 38 37
3 39 281 283
3 283 282 38
3 281 282 283
3 19 39 6
3 284 39 285
3 286 285 19
3 284 285 286
3 288 287 39
3 40 289 291
3 289 290 291
3 40 292 293
3 41 294 296
3 294 295 296
3 41 297 299
3 297 298 299
3 300 41 301
3 42 302 304
3 302 41 303
3 302 303 304
3 42 305 307
3 307 306 41
3 305 306 307
3 42 308 310
3 308 40 309
3 308 309 310
3 43 40 42
3 43 311 313
3 313 312 40
3 311 312 313
3 43 314 316
3 314 35 315
3 314 315 316
3 44 35 43
3 44 317 319
3 319 318 35
3 317 318 319
3 320 44 321
3 322 321 8
3 320 321 322
3 45 323 325
3 323 44 324
3 323 324 325
3 45 326 328
3 328 327 44
3 326 327 328
3 45 329 331
3 329 15 330
3 329 330 331
3 332 15 333
3 334 333 45
3 332 333 334
3 336 335 15
3 337 46 338
3 47 339 341
3 339 46 340
3 339 340 341
3 47 9 46
3 342 47 343
3 48 344 346
3 344 47 345
3 344 345 346
3 48 9 47
3 48 347 349
3 349 348 9
3 347 348 349
3 351 350 48
3 49 352 353
3 49 354 356
3 354 10 355
3 354 355 356
3 357 49 358
3 359 358 2
3 357 358 359
3 360 49 361
3 362 10 363
3 364 363 49
3 362 363 364
3 366 365 10
3 50 367 368
3 50 369 370
3 50 371 372
3 374 373 50
3 51 375 376
3 51 377 379
3 377 3 378
3 377 378 379
3 24 51 11
3 52 51 24
3 52 3 51
3 52 34 3
3 380 34 381
3 382 381 52
3 380 381 382
3 384 383 34
3 385 25 386
3 387 386 0
3 385 386 387
3 388 25 389
3 391 390 25
3 53 392 393
3 53 394 396
3 394 4 395
3 394 395 396
3 26 397 399
3 397 53 398
3 397 398 399
3 54 53 26
3 54 4 53
3 54 400 402
3 402 401 4
3 400 401 402
3 404 403 54
3 55 405 406
3 55 407 409
3 407 12 408
3 407 408 409
3 29 410 412
3 410 55 411
3 410 411 412
3 413 55 414
3 415 414 29
3 413 414 415
3 416 12 417
3 418 417 55
3 416 417 418
3 420 419 12
3 31 421 423
3 423 422 13
3 421 422 423
3 425 424 31
3 38 32 1
3 426 32 427
3 428 427 38
3 426 427 428
3 430 429 32
3 46 431 433
3 431 20 432
3 431 432 433
3 434 20 435
3 436 435 46
3 434 435 436
3 437 7 438
3 439 438 20
3 437 438 439
3 441 440 9
3 442 7 443
3 445 444 7
