ply
format ascii 1.0
element vertex 242
property float x
property float y
property float z
element face 191
property list uchar int vertex_index
end_header
-9.143385 -92.834564 56.173988
-0.070463 -80.689125 58.360683
-8.906687 -86.610062 65.070633
-12.3843 -91.706848 53.441971
-2.132961 -84.7603 63.511642
-1.239735 -85.579163 58.952351
-4.28227 -88.061356 62.980347
-5.981211 -92.171631 58.054333
-8.380043 -95.902084 52.945812
-13.971655 -90.646973 51.898777
-2.544643 -87.252975 61.243721
-1.611444 -85.236816 61.283417
-5.063873 -87.047607 64.857986
-5.627428 -89.074219 62.400349
-6.430944 -87.832397 64.190247
-3.855686 -85.801254 65.334473
-7.533173 -92.746185 57.238415
-7.146093 -94.063278 55.5215
-8.732374 -94.464813 54.568047
-0.354321 -80.531212 60.880341
-0.007401 -78.004379 60.493053
0.217972 -78.10659 57.908577
0.106277 -80.777565 55.790459
-7.407906 -86.502762 65.915344
-10.770149 -92.466827 54.8909
-1.353046 -82.627853 63.494839
-0.884432 -82.967133 61.152641
-0.552868 -83.200722 58.717525
-5.000875 -90.181793 60.5452
-6.468056 -90.964218 59.852367
-8.037243 -91.254944 58.932316
-7.92642 -88.133698 63.350143
-14.551562 -88.35907 53.716221
-2.826365 -84.150558 65.617157
-3.110615 -86.60054 63.347183
-14.497732 -91.258522 50.234017
-14.751541 -90.0234 51.121443
-2.341174 -87.500008 60.139414
-2.893736 -88.436378 60.088509
-6.229546 -86.877533 65.41151
-5.747409 -87.440002 64.524116
-5.54601 -86.485138 65.74538
-5.54601 -86.485138 65.74538
-4.926488 -85.963379 66.025452
-12.156583 -92.794662 52.66432
-11.349508 -93.174652 53.388784
-11.577224 -92.086838 54.166436
-1.743003 -83.694076 63.503241
-1.667259 -82.402492 64.606257
-2.057217 -83.468716 64.614658
-1.117636 -85.686737 57.745455
-0.774203 -84.497517 57.628042
-0.896302 -84.389942 58.834938
-4.641572 -89.121575 61.762774
-4.340974 -89.554405 60.775222
-3.981672 -88.494187 61.992796
-6.789693 -90.282944 60.732091
-6.047742 -90.019218 61.126358
-6.369379 -89.337944 62.006082
-7.574286 -90.428306 60.272066
-7.25265 -91.109581 59.392342
-6.789693 -90.282944 60.732091
-14.096061 -87.886246 55.353325
-13.745768 -88.943947 54.428091
-3.266873 -83.784737 66.598469
-2.808327 -82.883255 66.705673
-3.981672 -88.494187 61.992796
-3.395844 -87.763779 62.176214
-3.696442 -87.330948 63.163765
-5.801188 -92.677384 57.123877
-5.258467 -91.644051 58.334671
-7.607132 -95.532295 53.345329
-6.990157 -94.612892 54.633173
-7.763068 -94.982681 54.233656
-8.208657 -96.500321 52.103346
-7.607132 -95.532295 53.345329
-13.731581 -91.827858 51.082142
-12.937904 -92.357795 51.853739
-13.177978 -91.17691 52.670374
-13.731581 -91.827858 51.082142
-14.497732 -91.258522 50.234017
-1.874575 -86.491928 60.159262
-2.078044 -86.244896 61.263569
-2.341174 -87.500008 60.139414
-1.68872 -86.663101 58.993729
-1.42559 -85.407989 60.117884
-1.874575 -86.491928 60.159262
-1.552776 -86.83107 57.842871
-1.68872 -86.663101 58.993729
-6.771137 -88.717033 62.901032
-6.369379 -89.337944 62.006082
-6.029186 -88.453308 63.295298
-9.210934 -87.28994 63.719995
-9.702994 -86.444168 64.601669
-4.322395 -85.340202 66.263695
-3.781534 -84.610084 66.457127
-4.459779 -86.42443 65.096229
-4.322395 -85.340202 66.263695
-4.926488 -85.963379 66.025452
-0.349294 -79.189274 61.949406
-0.557974 -80.413299 62.101265
-0.175834 -77.925858 61.755762
-0.349294 -79.189274 61.949406
-0.180861 -79.267796 60.686697
-0.048569 -76.677719 61.54899
-0.175834 -77.925858 61.755762
0.079894 -76.723641 60.253397
-0.048569 -76.677719 61.54899
0.19258 -76.774746 58.961159
0.079894 -76.723641 60.253397
0.105286 -78.055485 59.200815
0.26983 -76.801147 57.646749
0.19258 -76.774746 58.961159
0.281308 -78.132839 56.600426
0.26983 -76.801147 57.646749
0.225461 -79.468326 55.541366
0.281308 -78.132839 56.600426
0.162125 -79.442077 56.849518
0.145908 -80.790039 54.491632
0.225461 -79.468326 55.541366
-7.281585 -85.61715 67.10157
-6.718026 -86.212715 66.274059
-7.968295 -85.817528 66.738067
-7.281585 -85.61715 67.10157
-8.717686 -85.871178 66.315712
-8.157296 -86.556412 65.492988
-7.968295 -85.817528 66.738067
-9.462865 -85.839813 65.915379
-8.717686 -85.871178 66.315712
-9.702994 -86.444168 64.601669
-9.462865 -85.839813 65.915379
-10.553617 -93.42926 54.117121
-9.740234 -93.613129 54.758665
-9.956767 -92.650695 55.532444
-10.553617 -93.42926 54.117121
-11.349508 -93.174652 53.388784
-12.156583 -92.794662 52.66432
-12.937904 -92.357795 51.853739
-1.333593 -81.300483 64.575308
-1.667259 -82.402492 64.606257
-1.057336 -81.46162 63.408514
-1.333593 -81.300483 64.575308
-0.82303 -81.63126 62.237415
-1.057336 -81.46162 63.408514
-1.118739 -82.797493 62.32374
-0.619376 -81.749173 61.016491
-0.557974 -80.413299 62.101265
-0.82303 -81.63126 62.237415
-0.445753 -83.269406 57.466032
-0.20455 -82.013607 57.287611
-0.311666 -81.944924 58.539104
-0.445753 -83.269406 57.466032
-0.774203 -84.497517 57.628042
-1.117636 -85.686737 57.745455
-1.552776 -86.83107 57.842871
-4.768299 -90.649132 59.580105
-4.340974 -89.554405 60.775222
-5.491043 -91.176712 59.299767
-5.258467 -91.644051 58.334671
-4.768299 -90.649132 59.580105
-6.919425 -87.16758 65.052796
-6.229546 -86.877533 65.41151
-6.718026 -86.212715 66.274059
-7.518875 -88.867683 62.48098
-6.771137 -88.717033 62.901032
-7.178682 -87.983047 63.770195
-8.7208 -88.051758 62.859751
-8.416553 -87.37188 64.210388
-9.210934 -87.28994 63.719995
-8.309364 -88.888908 61.993113
-8.7208 -88.051758 62.859751
-7.518875 -88.867683 62.48098
-8.309364 -88.888908 61.993113
-8.364776 -90.449532 59.784199
-7.574286 -90.428306 60.272066
-8.849973 -91.163345 58.370896
-8.364776 -90.449532 59.784199
-9.403044 -91.953156 56.991732
-8.590314 -92.044754 57.553152
-8.849973 -91.163345 58.370896
-10.216426 -91.769287 56.350188
-9.956767 -92.650695 55.532444
-9.403044 -91.953156 56.991732
-11.03799 -91.467575 55.708622
-10.216426 -91.769287 56.350188
-11.845065 -91.087585 54.984158
-11.577224 -92.086838 54.166436
-11.03799 -91.467575 55.708622
-12.662137 -90.617836 54.290966
-11.845065 -91.087585 54.984158
-13.455814 -90.087898 53.519369
-13.177978 -91.17691 52.670374
-12.662137 -90.617836 54.290966
-14.261609 -89.503022 52.807499
-13.455814 -90.087898 53.519369
-13.745768 -88.943947 54.428091
-15.041495 -88.879448 52.030165
-14.751541 -90.0234 51.121443
-14.261609 -89.503022 52.807499
-2.403919 -83.163845 65.667416
-2.808327 -82.883255 66.705673
-2.479663 -84.455429 64.5644
-2.057217 -83.468716 64.614658
-2.403919 -83.163845 65.667416
-3.341025 -84.975906 65.475815
-3.266873 -83.784737 66.598469
-3.781534 -84.610084 66.457127
-3.112859 -88.089996 61.124483
-2.827629 -86.926758 62.295452
-3.395844 -87.763779 62.176214
-2.893736 -88.436378 60.088509
-3.112859 -88.089996 61.124483
-6.383629 -93.623207 55.85746
-5.801188 -92.677384 57.123877
-6.563652 -93.117455 56.787917
-6.383629 -93.623207 55.85746
-6.990157 -94.612892 54.633173
-9.534729 -94.428253 53.955694
-8.93788 -93.649688 55.371018
-9.740234 -93.613129 54.758665
-9.340952 -95.317124 53.20236
-9.534729 -94.428253 53.955694
-9.164786 -96.035759 52.391243
-8.556209 -95.183448 53.756929
-9.340952 -95.317124 53.20236
-8.964111 -96.817504 51.630422
-9.164786 -96.035759 52.391243
-8.208657 -96.500321 52.103346
-8.964111 -96.817504 51.630422
-0.11618 -82.057827 56.002499
0.017907 -80.733345 57.075571
-0.20455 -82.013607 57.287611
-0.060934 -82.083286 54.728378
-0.11618 -82.057827 56.002499
0.145908 -80.790039 54.491632
-0.060934 -82.083286 54.728378
-14.912959 -87.278923 54.709696
-14.096061 -87.886246 55.353325
-15.344602 -87.717506 53.01972
-14.912959 -87.278923 54.709696
-15.041495 -88.879448 52.030165
-15.344602 -87.717506 53.01972
3 36 35 9
3 38 37 10
3 39 14 40
3 41 40 12
3 39 40 41
3 42 12 43
3 0 18 16
3 1 20 19
3 1 21 20
3 1 22 21
3 3 44 46
3 46 45 24
3 44 45 46
3 4 47 49
3 47 25 48
3 47 48 49
3 5 26 11
3 5 27 26
3 5 50 52
3 52 51 27
3 50 51 52
3 6 53 55
3 53 28 54
3 53 54 55
3 56 29 57
3 58 57 13
3 56 57 58
3 59 30 60
3 61 60 29
3 59 60 61
3 2 31 23
3 62 32 63
3 64 33 65
3 6 34 15
3 6 66 68
3 68 67 34
3 66 67 68
3 7 69 70
3 8 71 73
3 73 72 17
3 71 72 73
3 8 74 75
3 9 76 78
3 78 77 3
3 76 77 78
3 80 79 9
3 10 11 4
3 81 11 82
3 83 82 10
3 81 82 83
3 84 5 85
3 86 85 11
3 84 85 86
3 88 87 5
3 12 13 6
3 14 13 12
3 14 89 91
3 91 90 13
3 89 90 91
3 93 92 2
3 94 15 95
3 12 96 98
3 96 15 97
3 96 97 98
3 12 6 15
3 16 17 7
3 18 17 16
3 18 8 17
3 19 99 100
3 20 101 103
3 103 102 19
3 101 102 103
3 20 104 105
3 20 106 107
3 21 108 110
3 110 109 20
3 108 109 110
3 21 111 112
3 21 113 114
3 22 115 117
3 117 116 21
3 115 116 117
3 22 118 119
3 120 23 121
3 122 23 123
3 124 2 125
3 126 125 23
3 124 125 126
3 127 2 128
3 130 129 2
3 24 131 133
3 133 132 0
3 131 132 133
3 135 134 24
3 137 136 3
3 25 138 139
3 25 140 141
3 11 25 4
3 26 25 11
3 26 142 144
3 144 143 25
3 142 143 144
3 26 145 147
3 145 19 146
3 145 146 147
3 27 19 26
3 27 1 19
3 27 148 150
3 150 149 1
3 148 149 150
3 152 151 27
3 154 153 5
3 28 155 156
3 28 157 159
3 157 7 158
3 157 158 159
3 13 28 6
3 29 28 13
3 29 7 28
3 29 16 7
3 30 16 29
3 30 0 16
3 23 160 162
3 160 14 161
3 160 161 162
3 31 14 23
3 31 163 165
3 165 164 14
3 163 164 165
3 166 31 167
3 168 167 2
3 166 167 168
3 169 31 170
3 172 171 31
3 173 30 174
3 175 30 176
3 177 0 178
3 179 178 30
3 177 178 179
3 180 24 181
3 182 181 0
3 180 181 182
3 183 24 184
3 185 3 186
3 187 186 24
3 185 186 187
3 188 3 189
3 190 9 191
3 192 191 3
3 190 191 192
3 32 193 195
3 193 9 194
3 193 194 195
3 32 196 198
3 198 197 9
3 196 197 198
3 33 199 200
3 33 201 203
3 201 4 202
3 201 202 203
3 15 204 206
3 204 33 205
3 204 205 206
3 34 33 15
3 34 4 33
3 34 10 4
3 207 10 208
3 209 208 34
3 207 208 209
3 211 210 10
3 17 212 214
3 214 213 7
3 212 213 214
3 216 215 17
3 217 18 218
3 219 218 0
3 217 218 219
3 220 18 221
3 222 8 223
3 224 223 18
3 222 223 224
3 225 8 226
3 228 227 8
3 229 22 230
3 231 230 1
3 229 230 231
3 232 22 233
3 235 234 22
3 236 32 237
3 238 32 239
3 241 240 32
