ply
format ascii 1.0
element vertex 160
property float x
property float y
property float z
element face 140
property list uchar int vertex_index
end_header
-0.828814 51.55595 58.805096
-0.293903 58.124332 52.176723
0.154806 56.73666 47.317196
0.174728 50.795872 54.427067
-0.067562 44.443829 60.991795
-0.133617 62.141613 39.700516
-0.396723 54.21735 42.039337
-0.522032 54.898457 55.577621
0.013277 54.544575 53.381039
-0.14472 51.36211 56.760437
0.083525 47.668758 57.778152
-0.372078 48.073589 59.985092
0.013361 63.322193 42.332413
0.098154 52.803707 48.347733
-0.04031 55.578014 44.685501
-0.206072 51.566982 45.69976
-0.154129 61.218296 48.601871
0.093485 60.545231 46.159126
0.094063 57.611439 49.845924
0.199713 53.822437 50.93951
0.179657 49.921192 51.895493
0.054972 45.971241 52.725636
0.203566 46.945423 55.326229
0.173243 43.881165 58.638206
0.09409 40.723553 61.825825
-0.455973 60.70483 37.051048
0.041145 59.51836 43.566498
-0.229372 58.220997 40.915676
-0.614372 56.737247 38.287701
-0.560198 64.572937 47.195721
-1.202036 48.105274 61.864582
-0.659592 44.681236 63.056606
-0.046875 63.74045 43.59673
-0.068221 65.120943 41.652203
-0.129926 50.189537 47.481172
-0.053959 52.185344 47.023747
0.022187 50.8079 48.805159
-0.241826 48.17738 47.94026
-0.317972 49.554825 46.158848
-0.129926 50.189537 47.481172
-0.244198 63.359991 37.719744
-0.135369 64.028402 39.043084
-0.294795 61.423221 38.375782
-0.405377 62.641599 36.39501
-0.244198 63.359991 37.719744
-0.600032 53.473613 40.745632
-0.708857 54.733562 38.869814
-0.505548 55.477299 40.163519
-0.013429 42.538656 54.763508
-0.045988 43.997982 53.082385
0.08753 44.511915 54.406759
-0.969599 64.540008 48.223664
-0.849974 66.092254 46.407916
-0.657875 63.019633 48.999308
-0.969599 64.540008 48.223664
-1.415687 46.327402 63.313082
-1.805701 47.917278 62.612591
-1.144464 44.615383 63.909094
-0.930814 46.393255 62.460594
-1.415687 46.327402 63.313082
-0.06188 64.618693 40.359032
-0.068221 65.120943 41.652203
-0.060128 62.731903 41.016464
-0.135369 64.028402 39.043084
-0.06188 64.618693 40.359032
-0.407738 50.877243 44.388647
-0.503063 52.202427 42.558436
-0.301397 52.892166 43.869549
-0.407738 50.877243 44.388647
-0.317972 49.554825 46.158848
-0.030322 60.881764 47.380499
-0.006813 62.351969 45.510086
-0.13062 62.688502 46.731459
0.062939 49.366642 50.579039
0.022187 50.8079 48.805159
0.138906 51.362449 50.121613
0.117315 47.946216 52.310564
0.000596 47.391666 50.994111
0.062939 49.366642 50.579039
0.161828 44.999006 55.707056
0.08753 44.511915 54.406759
0.129269 46.458332 54.025932
0.146666 43.466877 57.363045
0.161828 44.999006 55.707056
0.188405 45.413294 56.982217
0.159064 41.967056 58.99154
0.146666 43.466877 57.363045
0.119487 40.38825 60.58535
0.159064 41.967056 58.99154
0.133666 42.302359 60.232016
0.114102 38.841664 62.154924
0.119487 40.38825 60.58535
-0.57839 61.85284 35.080562
-0.405377 62.641599 36.39501
-0.648748 59.9011 35.753885
-0.57839 61.85284 35.080562
0.053423 61.933712 44.24577
-0.046875 63.74045 43.59673
-0.006813 62.351969 45.510086
-0.727947 57.917309 36.372211
-0.648748 59.9011 35.753885
-0.535173 58.721039 37.669375
-0.80536 55.939327 37.017308
-0.727947 57.917309 36.372211
-0.899844 53.935642 37.59942
-0.80536 55.939327 37.017308
-0.708857 54.733562 38.869814
-0.600032 53.473613 40.745632
-0.503063 52.202427 42.558436
-0.1097 45.394429 51.398667
-0.164076 46.814854 49.667141
0.000596 47.391666 50.994111
-0.21066 43.42117 51.755415
-0.1097 45.394429 51.398667
-0.045988 43.997982 53.082385
-0.51461 66.040024 45.303812
-0.849974 66.092254 46.407916
-0.333654 64.365822 46.028384
-0.51461 66.040024 45.303812
-0.357163 62.895617 47.898796
-0.13062 62.688502 46.731459
-0.333654 64.365822 46.028384
-0.45484 61.342312 49.702383
-0.357163 62.895617 47.898796
-0.657875 63.019633 48.999308
-0.524728 59.79533 51.489809
-0.224016 59.671314 50.389297
-0.45484 61.342312 49.702383
-0.672593 58.168048 53.198767
-0.524728 59.79533 51.489809
-0.786658 56.555111 54.899215
-0.407968 56.511395 53.877172
-0.672593 58.168048 53.198767
-0.979101 54.863747 56.512733
-0.786658 56.555111 54.899215
-1.132491 53.192493 58.12647
-0.675423 53.227204 57.191358
-0.979101 54.863747 56.512733
-1.361665 51.444004 59.647978
-1.132491 53.192493 58.12647
-1.548276 49.718666 61.177721
-1.805701 47.917278 62.612591
-1.015425 49.830612 60.334839
-1.361665 51.444004 59.647978
-1.548276 49.718666 61.177721
-0.828949 42.931888 64.514601
-1.144464 44.615383 63.909094
-0.465509 42.898859 63.559835
-0.828949 42.931888 64.514601
-0.169494 42.780155 62.52743
-0.363577 44.562533 62.024201
-0.465509 42.898859 63.559835
-0.088668 40.920018 62.944445
0.013264 42.583691 61.40881
-0.169494 42.780155 62.52743
0.032939 39.092371 63.350572
-0.088668 40.920018 62.944445
0.052952 37.210482 63.679672
0.114102 38.841664 62.154924
0.032939 39.092371 63.350572
3 0 9 7
3 0 11 9
3 32 12 33
3 34 15 35
3 36 35 13
3 34 35 36
3 39 38 15
3 37 38 39
3 1 18 16
3 3 19 8
3 3 20 19
3 3 22 20
3 4 23 10
3 4 24 23
3 5 40 41
3 5 42 44
3 42 25 43
3 42 43 44
3 2 26 17
3 6 27 14
3 6 28 27
3 6 45 47
3 47 46 28
3 45 46 47
3 50 49 21
3 48 49 50
3 51 29 52
3 54 53 29
3 55 30 56
3 57 31 58
3 59 58 30
3 57 58 59
3 7 8 1
3 9 8 7
3 9 3 8
3 9 10 3
3 11 10 9
3 11 4 10
3 12 60 61
3 12 62 64
3 62 5 63
3 62 63 64
3 13 14 2
3 15 14 13
3 15 6 14
3 15 65 67
3 67 66 6
3 65 66 67
3 69 68 15
3 16 70 72
3 70 17 71
3 70 71 72
3 18 17 16
3 18 2 17
3 8 18 1
3 19 18 8
3 19 2 18
3 19 13 2
3 20 13 19
3 20 73 75
3 75 74 13
3 73 74 75
3 20 76 78
3 76 21 77
3 76 77 78
3 22 21 20
3 22 79 81
3 81 80 21
3 79 80 81
3 10 22 3
3 23 22 10
3 23 82 84
3 84 83 22
3 82 83 84
3 23 85 86
3 24 87 89
3 89 88 23
3 87 88 89
3 24 90 91
3 25 92 93
3 25 94 95
3 17 96 98
3 96 12 97
3 96 97 98
3 26 12 17
3 26 5 12
3 14 26 2
3 27 26 14
3 27 5 26
3 27 25 5
3 28 25 27
3 28 99 101
3 101 100 25
3 99 100 101
3 28 102 103
3 106 105 28
3 104 105 106
3 108 107 6
3 21 109 111
3 109 110 111
3 114 113 21
3 112 113 114
3 29 115 116
3 29 117 118
3 29 119 121
3 119 16 120
3 119 120 121
3 122 16 123
3 124 123 29
3 122 123 124
3 125 1 126
3 127 126 16
3 125 126 127
3 128 1 129
3 130 7 131
3 132 131 1
3 130 131 132
3 133 7 134
3 135 0 136
3 137 136 7
3 135 136 137
3 138 0 139
3 30 140 141
3 30 142 144
3 142 0 143
3 142 143 144
3 30 11 0
3 31 11 30
3 31 4 11
3 145 31 146
3 147 31 148
3 149 4 150
3 151 150 31
3 149 150 151
3 152 24 153
3 154 153 4
3 152 153 154
3 155 24 156
3 159 158 24
3 157 158 159
