ply
format ascii 1.0
element vertex 261
property float x
property float y
property float z
element face 257
property list uchar int vertex_index
end_header
3.192894 -40.244576 37.971535
4.723461 -25.084797 37.464714
4.971291 -38.953972 30.500929
4.017384 -32.92202 37.802658
4.852188 -31.962177 34.206856
4.011803 -39.449402 34.321423
3.978996 -46.022102 30.342216
3.136776 -46.523685 34.175537
5.401699 -16.63995 36.948887
6.619873 -15.125963 33.214542
5.744793 -23.855164 33.867302
6.071918 -31.315037 30.363958
6.1171 -45.070107 21.671295
4.983414 -45.614967 26.210052
4.910667 -10.009625 39.705956
4.44104 -18.657646 40.375229
3.839382 -26.777353 40.861496
3.630524 -36.634125 37.913872
4.022568 -36.154709 36.117287
3.617298 -39.798775 36.159004
3.588432 -43.020531 34.285912
3.17057 -43.358307 36.134548
5.066624 -20.935589 37.236294
5.579422 -20.19132 35.453407
5.184925 -24.41667 35.697449
4.912598 -35.471199 32.419441
5.403187 -31.612131 32.331345
5.512562 -35.219231 30.469389
6.213474 -34.987289 28.412083
5.601391 -38.75145 28.463156
5.633907 -42.15152 26.301985
5.007366 -42.352409 28.433537
3.927025 -49.192596 28.134949
4.69479 -14.389691 40.075687
4.163116 -15.665376 41.710232
2.863323 -25.104591 43.735359
3.596458 -23.895987 42.23164
3.246899 -27.800407 42.468666
3.483055 -30.619305 41.074123
6.898724 -19.024698 31.616507
7.339813 -14.537548 31.172384
4.375984 -29.078552 37.651333
4.793427 -28.48378 35.88324
4.408573 -32.391846 36.022694
4.427391 -35.774033 34.29216
4.445866 -39.176422 32.444042
4.460293 -42.543579 30.459442
3.998901 -42.75679 32.401527
3.556946 -46.248154 32.285236
7.385792 -26.912531 28.04636
5.71706 -12.219305 36.577747
6.322441 -11.336948 34.703381
5.964382 -15.822619 35.130562
6.193417 -19.559534 33.590267
6.415211 -23.382164 31.944164
5.29298 -27.991835 34.067577
5.909702 -27.582775 32.176582
6.628376 -27.231647 30.177704
6.817463 -31.0417 28.276226
6.287441 -41.909725 24.056122
5.561108 -45.374054 23.990576
4.448448 -45.820713 28.323843
4.370682 -48.960953 26.036129
5.188644 -13.237591 38.363823
4.913696 -17.585131 38.693863
4.616852 -21.801647 38.960754
3.901299 -19.848764 41.98381
4.155952 -22.790695 40.630951
4.303017 -25.87068 39.186714
3.968147 -29.788769 39.384178
3.598518 -33.566368 39.553596
3.173855 -37.226517 39.684349
7.004539 -10.585658 32.715889
7.721497 -9.956327 30.590729
3.960088 -14.24808 42.340593
4.270466 -13.514792 41.548334
2.85478 -28.365097 43.223903
3.055111 -26.452499 43.102013
2.662992 -27.017189 43.85725
3.045914 -29.684307 42.583091
2.85478 -28.365097 43.223903
7.269463 -18.796641 30.56113
7.028463 -21.000167 30.756995
3.118786 -48.104677 33.133468
3.328871 -47.966911 32.188318
3.346861 -46.385919 33.230386
7.736534 -26.758102 26.911285
7.471044 -28.838911 27.050601
6.583019 -34.866067 27.320521
6.257193 -36.76194 27.360667
6.294176 -40.223158 25.182686
6.638981 -40.09503 24.045367
4.915966 -47.159046 25.025794
5.204813 -47.03859 23.916056
5.272261 -45.494511 25.100314
4.084848 -50.592577 25.91168
4.148854 -49.076774 27.085539
3.86302 -50.708399 26.96109
4.271868 -50.445808 24.826057
4.084848 -50.592577 25.91168
4.9943 -7.779082 39.471537
4.723951 -8.491307 40.344655
5.170622 -9.397754 38.82445
4.9943 -7.779082 39.471537
5.049656 -11.623608 39.034889
5.30961 -11.011737 38.153383
5.170622 -9.397754 38.82445
3.55758 -20.495858 42.739803
3.707352 -18.447927 42.616188
3.335171 -33.948918 40.40866
3.540786 -32.092836 40.313859
3.277439 -32.475386 41.168924
3.122839 -35.778992 40.474037
3.386186 -35.396442 39.618972
3.335171 -33.948918 40.40866
7.89007 -11.999847 29.787203
7.530655 -12.246937 30.881557
7.699228 -14.290457 30.078031
8.062672 -9.697717 29.452692
7.89007 -11.999847 29.787203
6.337341 -44.877153 20.474326
6.497628 -43.336052 21.689068
5.951151 -38.64402 27.386203
6.257193 -36.76194 27.360667
5.907432 -36.869369 28.43762
5.617649 -40.451485 27.38257
5.967409 -40.344055 26.305617
5.951151 -38.64402 27.386203
3.720745 -49.309307 29.141289
3.95301 -47.607349 29.238582
3.74673 -47.72406 30.244923
3.678497 -50.847103 28.003975
3.720745 -49.309307 29.141289
3.86302 -50.708399 26.96109
3.678497 -50.847103 28.003975
4.644241 -10.686916 40.546196
4.723951 -8.491307 40.344655
4.536302 -12.876949 40.731062
4.802729 -12.199658 39.890822
4.644241 -10.686916 40.546196
4.428953 -15.027534 40.89296
4.536302 -12.876949 40.731062
4.270466 -13.514792 41.548334
3.22989 -24.500289 42.9835
3.405159 -22.519469 42.863718
3.038591 -23.123772 43.615578
3.163992 -31.093756 41.88582
3.364977 -29.209856 41.771394
3.045914 -29.684307 42.583091
3.277439 -32.475386 41.168924
3.163992 -31.093756 41.88582
7.490008 -16.553065 30.339068
7.119269 -16.781123 31.394445
7.269463 -18.796641 30.56113
7.699228 -14.290457 30.078031
7.490008 -16.553065 30.339068
5.923782 -46.536057 20.4324
5.721172 -46.73058 21.612766
3.535705 -47.837086 31.216432
3.74673 -47.72406 30.244923
3.767971 -46.135128 31.313726
3.535705 -47.837086 31.216432
3.328871 -47.966911 32.188318
2.593526 -23.812581 44.310146
3.038591 -23.123772 43.615578
2.389221 -25.752264 44.426022
2.593526 -23.812581 44.310146
2.662992 -27.017189 43.85725
2.389221 -25.752264 44.426022
7.640879 -24.763323 27.877489
7.271998 -24.944084 28.971922
7.640879 -24.763323 27.877489
7.736534 -26.758102 26.911285
6.019751 -11.778126 35.640564
6.159662 -9.520602 35.399287
5.856972 -9.96178 36.336469
6.786707 -23.1789 30.920824
7.028463 -21.000167 30.756995
6.656968 -21.203431 31.780335
6.893289 -25.103642 30.037594
6.786707 -23.1789 30.920824
6.521794 -25.306905 31.060934
7.007084 -27.072089 29.112032
7.271998 -24.944084 28.971922
6.893289 -25.103642 30.037594
7.18688 -30.903495 27.165534
7.471044 -28.838911 27.050601
7.101628 -28.977116 28.161293
6.885013 -32.893273 27.252592
6.515468 -33.014494 28.344155
6.583019 -34.866067 27.320521
7.18688 -30.903495 27.165534
6.885013 -32.893273 27.252592
6.582798 -41.755861 22.881481
6.638981 -40.09503 24.045367
6.202271 -43.489916 22.863709
6.497628 -43.336052 21.689068
6.582798 -41.755861 22.881481
5.960674 -42.030622 25.179053
6.294176 -40.223158 25.182686
5.967409 -40.344055 26.305617
5.443176 -46.882553 22.772407
5.721172 -46.73058 21.612766
5.839104 -45.222081 22.830936
5.443176 -46.882553 22.772407
5.204813 -47.03859 23.916056
4.6096 -48.832039 24.938833
4.915966 -47.159046 25.025794
4.677048 -47.28796 26.12309
4.6096 -48.832039 24.938833
4.271868 -50.445808 24.826057
5.573818 -10.502594 37.260345
5.856972 -9.96178 36.336469
5.452852 -12.728448 37.470785
5.573818 -10.502594 37.260345
5.30961 -11.011737 38.153383
3.83826 -16.356233 42.479399
3.960088 -14.24808 42.340593
4.032208 -17.75707 41.847021
3.83826 -16.356233 42.479399
3.707352 -18.447927 42.616188
3.748879 -21.872376 42.107725
3.55758 -20.495858 42.739803
3.405159 -22.519469 42.863718
2.881407 -37.583126 40.549867
3.122839 -35.778992 40.474037
2.924511 -39.013752 39.721787
2.881407 -37.583126 40.549867
2.93403 -40.522782 38.86538
3.183375 -38.735546 38.827942
2.924511 -39.013752 39.721787
2.9396 -42.016526 37.96555
2.93403 -40.522782 38.86538
2.928438 -43.573391 37.047056
3.181732 -41.801442 37.053042
2.9396 -42.016526 37.96555
2.918575 -45.113558 36.083391
2.928438 -43.573391 37.047056
2.901678 -46.696247 35.103886
3.153673 -44.940996 35.155043
2.918575 -45.113558 36.083391
2.889818 -48.257593 34.080801
2.901678 -46.696247 35.103886
3.118786 -48.104677 33.133468
2.889818 -48.257593 34.080801
6.478784 -9.052632 34.424696
6.159662 -9.520602 35.399287
6.819833 -8.676987 33.43095
6.478784 -9.052632 34.424696
6.66349 -10.961303 33.709635
7.167248 -8.280603 32.394008
6.819833 -8.676987 33.43095
7.525727 -7.965937 31.331429
7.167248 -8.280603 32.394008
7.363018 -10.270993 31.653309
7.876404 -7.638208 30.222597
7.525727 -7.965937 31.331429
7.876404 -7.638208 30.222597
8.062672 -9.697717 29.452692
6.337341 -44.877153 20.474326
5.923782 -46.536057 20.4324
3 0 19 17
3 0 21 19
3 1 24 22
3 2 27 25
3 2 29 27
3 2 31 29
3 74 34 75
3 76 37 77
3 78 77 35
3 76 77 78
3 80 79 37
3 82 81 39
3 3 43 41
3 5 44 18
3 5 45 44
3 5 47 45
3 7 48 20
3 7 83 85
3 85 84 48
3 83 84 85
3 87 86 49
3 8 52 50
3 10 53 23
3 10 54 53
3 4 55 42
3 11 56 26
3 11 57 56
3 11 58 57
3 89 88 28
3 90 59 91
3 13 60 30
3 13 92 94
3 94 93 60
3 92 93 94
3 6 61 46
3 95 62 96
3 97 96 32
3 95 96 97
3 99 98 62
3 14 100 101
3 14 102 103
3 14 104 106
3 104 63 105
3 104 105 106
3 15 64 33
3 15 65 64
3 107 66 108
3 16 67 36
3 16 68 67
3 16 69 68
3 109 70 110
3 111 110 38
3 109 110 111
3 112 71 113
3 114 113 70
3 112 113 114
3 9 72 51
3 115 73 116
3 117 116 40
3 115 116 117
3 119 118 73
3 12 120 121
3 17 18 3
3 19 18 17
3 19 5 18
3 19 20 5
3 21 20 19
3 21 7 20
3 22 23 8
3 24 23 22
3 24 10 23
3 25 26 4
3 27 26 25
3 27 11 26
3 27 28 11
3 29 28 27
3 29 122 124
3 124 123 28
3 122 123 124
3 29 125 127
3 125 30 126
3 125 126 127
3 31 30 29
3 31 13 30
3 128 32 129
3 130 129 6
3 128 129 130
3 131 32 132
3 134 133 32
3 135 14 136
3 137 33 138
3 139 138 14
3 137 138 139
3 34 140 142
3 140 33 141
3 140 141 142
3 34 15 33
3 35 143 145
3 143 36 144
3 143 144 145
3 37 36 35
3 37 16 36
3 37 38 16
3 146 38 147
3 148 147 37
3 146 147 148
3 150 149 38
3 39 40 9
3 151 40 152
3 153 152 39
3 151 152 153
3 155 154 40
3 157 156 12
3 41 42 1
3 43 42 41
3 43 4 42
3 18 43 3
3 44 43 18
3 44 4 43
3 44 25 4
3 45 25 44
3 45 2 25
3 45 46 2
3 47 46 45
3 47 6 46
3 20 47 5
3 48 47 20
3 48 6 47
3 48 158 160
3 160 159 6
3 158 159 160
3 162 161 48
3 163 35 164
3 165 35 166
3 168 167 35
3 49 169 170
3 172 171 49
3 50 173 175
3 173 51 174
3 173 174 175
3 52 51 50
3 52 9 51
3 23 52 8
3 53 52 23
3 53 9 52
3 53 39 9
3 54 39 53
3 54 176 178
3 178 177 39
3 176 177 178
3 42 24 1
3 55 24 42
3 55 10 24
3 26 55 4
3 56 55 26
3 56 10 55
3 56 54 10
3 57 54 56
3 57 179 181
3 181 180 54
3 179 180 181
3 57 182 184
3 182 49 183
3 182 183 184
3 58 49 57
3 58 185 187
3 187 186 49
3 185 186 187
3 28 58 11
3 188 58 189
3 190 189 28
3 188 189 190
3 192 191 58
3 59 193 194
3 59 195 197
3 195 12 196
3 195 196 197
3 30 198 200
3 198 59 199
3 198 199 200
3 60 59 30
3 60 12 59
3 60 201 203
3 203 202 12
3 201 202 203
3 205 204 60
3 46 31 2
3 61 31 46
3 61 13 31
3 32 61 6
3 62 61 32
3 62 13 61
3 62 206 208
3 208 207 13
3 206 207 208
3 210 209 62
3 211 50 212
3 63 213 215
3 213 50 214
3 213 214 215
3 63 8 50
3 33 63 14
3 64 63 33
3 64 8 63
3 64 22 8
3 65 22 64
3 65 1 22
3 216 34 217
3 66 218 220
3 218 34 219
3 218 219 220
3 66 15 34
3 36 221 223
3 221 66 222
3 221 222 223
3 67 66 36
3 67 15 66
3 67 65 15
3 68 65 67
3 68 1 65
3 68 41 1
3 69 41 68
3 69 3 41
3 38 69 16
3 70 69 38
3 70 3 69
3 70 17 3
3 71 17 70
3 71 0 17
3 224 71 225
3 226 71 227
3 228 0 229
3 230 229 71
3 228 229 230
3 231 0 232
3 233 21 234
3 235 234 0
3 233 234 235
3 236 21 237
3 238 7 239
3 240 239 21
3 238 239 240
3 241 7 242
3 244 243 7
3 51 245 246
3 72 247 249
3 249 248 51
3 247 248 249
3 72 250 251
3 40 72 9
3 73 72 40
3 73 252 254
3 254 253 72
3 252 253 254
3 73 255 256
3 258 257 73
3 260 259 12
