ply
format ascii 1.0
element vertex 238
property float x
property float y
property float z
element face 209
property list uchar int vertex_index
end_header
5.51931 27.925911 26.882267
-0.841522 59.09737 34.456722
3.484844 43.662945 19.576954
-0.780308 52.059643 25.521458
6.953442 29.848137 21.384491
-1.321043 55.638798 29.641382
6.065094 37.92791 17.524588
4.606735 36.010853 23.389292
-0.831696 62.048771 14.602974
-1.235807 59.328579 22.129601
-0.036783 55.287884 18.406719
0.974173 48.21944 22.182144
6.250172 29.001095 24.16185
7.287968 25.639622 23.167736
5.509666 41.769287 15.454922
4.806076 40.963116 18.498789
5.351448 37.094372 20.473358
4.068527 39.894047 21.521128
-1.056078 61.268665 30.563475
-1.208155 53.863049 27.485775
-1.318268 57.593975 25.898251
-1.043083 55.712376 23.835779
-0.794136 57.334377 20.165419
-0.445686 53.792248 21.972271
0.450701 51.79269 20.310604
-0.037642 50.196339 23.754223
2.863472 47.309925 17.564339
-0.996347 55.141407 35.746914
-1.168486 57.391674 31.973608
-1.256418 53.489468 33.339748
4.791893 26.634811 29.537266
6.545902 33.948757 19.502514
5.833855 33.103516 22.362211
5.092831 32.019993 25.177635
-0.09041 59.806545 12.846262
-1.297894 59.451359 28.148096
-1.36479 61.2943 24.2904
-1.355967 62.89822 20.423088
-1.070753 60.819843 18.357029
-0.469999 58.7057 16.495188
0.427004 56.522953 14.843978
0.992252 53.140476 16.853611
1.582621 49.654194 18.845686
2.178293 46.06348 20.795679
2.763981 42.370853 22.686956
3.328236 38.580029 24.510496
3.861336 34.693768 26.262241
4.353104 30.712582 27.939445
3.641075 29.198284 30.640593
6.057539 26.360485 26.374909
6.42297 26.898077 25.0147
5.884741 28.463503 25.522058
4.14546 42.31303 19.037872
4.503521 42.830347 17.471672
3.842905 44.180262 18.010755
-0.9488 60.183017 32.510098
-0.878442 62.134758 31.836776
-0.771164 61.04911 33.7834
7.437396 28.052536 20.896514
7.275978 30.152621 19.973262
7.729355 23.798937 22.658019
7.417721 23.486525 24.00752
2.5397 49.069298 16.531138
3.202844 47.798123 15.943696
-1.199318 52.332504 35.158766
-1.126383 54.315438 34.543331
-1.069282 53.158474 36.362348
4.62949 23.800382 31.584072
4.97851 24.546527 30.291898
4.442873 25.888666 30.829439
6.391184 38.212906 16.039991
6.11347 40.133595 15.005159
5.78738 39.848598 16.489755
6.632048 36.235859 17.067478
6.391184 38.212906 16.039991
6.305498 35.938333 18.513551
6.872452 34.246282 18.056441
6.632048 36.235859 17.067478
-0.684865 62.524441 12.745997
-0.970955 63.684626 13.677979
-0.461053 60.927658 13.724618
-0.314222 61.403328 11.867641
-0.684865 62.524441 12.745997
2.415845 41.607137 24.224965
2.14076 43.470029 23.345042
2.697972 39.711726 25.136735
3.046108 40.475441 23.598726
2.415845 41.607137 24.224965
3.50183 33.928045 27.673018
3.237299 35.867924 26.859676
3.747714 31.937452 28.51162
4.10722 32.703175 27.100843
3.50183 33.928045 27.673018
3.391699 31.180304 29.862195
3.997089 29.955433 29.290019
3.747714 31.937452 28.51162
6.941868 25.21734 24.517643
6.76907 27.320358 23.664793
6.42297 26.898077 25.0147
7.417721 23.486525 24.00752
6.941868 25.21734 24.517643
4.855316 43.233432 15.949739
5.194721 43.61268 14.37906
5.157871 41.366202 16.976855
4.855316 43.233432 15.949739
4.503521 42.830347 17.471672
-1.050027 63.146876 15.586341
-0.970955 63.684626 13.677979
-0.998282 63.17557 29.839524
-0.878442 62.134758 31.836776
-1.145343 62.246772 28.596288
-0.998282 63.17557 29.839524
7.604659 25.948279 21.788137
7.437396 28.052536 20.896514
7.120705 27.743879 22.276114
7.604659 25.948279 21.788137
7.729355 23.798937 22.658019
3.532219 46.003751 17.004447
3.202844 47.798123 15.943696
3.174158 45.486435 18.570647
3.842905 44.180262 18.010755
3.532219 46.003751 17.004447
-1.279635 51.54108 33.996822
-1.199318 52.332504 35.158766
-1.273884 52.651341 32.218328
-1.279635 51.54108 33.996822
-1.306196 53.726005 30.369146
-1.288731 54.564133 31.490565
-1.273884 52.651341 32.218328
-1.249752 52.838131 29.291342
-1.264599 54.750923 28.563578
-1.306196 53.726005 30.369146
-1.119855 51.990032 28.261252
-1.249752 52.838131 29.291342
-0.905932 51.08833 27.279094
-0.994232 52.961346 26.503616
-1.119855 51.990032 28.261252
-0.617058 50.218761 26.344789
-0.905932 51.08833 27.279094
-0.648748 59.9011 35.753885
-0.771164 61.04911 33.7834
-0.727947 57.917309 36.372211
-0.648748 59.9011 35.753885
-0.80536 55.939327 37.017308
-0.918934 57.119388 35.101818
-0.727947 57.917309 36.372211
-0.899844 53.935642 37.59942
-0.80536 55.939327 37.017308
-1.069282 53.158474 36.362348
-0.899844 53.935642 37.59942
5.334594 25.18302 29.016709
5.698303 25.82857 27.689209
5.155601 27.280361 28.209767
5.521211 23.094736 29.771341
5.334594 25.18302 29.016709
4.97851 24.546527 30.291898
5.82872 42.033625 13.929177
5.194721 43.61268 14.37906
5.82872 42.033625 13.929177
6.11347 40.133595 15.005159
7.072209 32.202931 19.032274
6.872452 34.246282 18.056441
6.749672 31.898447 20.443503
7.275978 30.152621 19.973262
7.072209 32.202931 19.032274
0.11294 60.213665 11.042696
-0.314222 61.403328 11.867641
0.413425 58.64199 12.075093
0.11294 60.213665 11.042696
-1.266251 61.338119 27.388599
-1.145343 62.246772 28.596288
-1.176986 60.360012 29.355785
-1.299699 62.25959 25.45975
-1.266251 61.338119 27.388599
-1.331342 60.372829 26.219248
-1.360751 63.119074 23.483852
-1.299699 62.25959 25.45975
-1.356339 63.921034 21.550196
-1.360751 63.119074 23.483852
-1.360378 62.09626 22.356744
-1.382648 64.653036 19.577913
-1.356339 63.921034 21.550196
-1.312162 63.5716 18.496398
-1.382648 64.653036 19.577913
-1.169555 62.532411 17.463369
-1.312162 63.5716 18.496398
-1.21336 61.859032 19.390059
-0.951225 61.434307 16.480002
-1.050027 63.146876 15.586341
-1.169555 62.532411 17.463369
0.672131 57.000194 13.073951
0.413425 58.64199 12.075093
0.168297 58.164749 13.84512
0.993239 55.369839 14.122501
0.672131 57.000194 13.073951
1.275863 53.6786 15.127318
0.993239 55.369839 14.122501
0.709628 54.831715 15.848795
1.60409 51.984573 16.175774
1.275863 53.6786 15.127318
1.899274 50.241433 17.171812
1.60409 51.984573 16.175774
1.287437 51.397335 17.849649
2.223046 48.482059 18.205013
2.5397 49.069298 16.531138
1.899274 50.241433 17.171812
-0.245725 49.287109 25.461172
-0.408975 51.127991 24.63784
-0.617058 50.218761 26.344789
0.189644 48.372815 24.623244
-0.245725 49.287109 25.461172
0.695552 47.384365 23.837204
0.468266 49.20789 22.968184
0.189644 48.372815 24.623244
1.245856 46.394323 23.092636
0.695552 47.384365 23.837204
1.847916 45.316343 22.399403
1.576233 47.14146 21.488912
1.245856 46.394323 23.092636
2.471137 44.217166 21.741318
1.847916 45.316343 22.399403
2.14076 43.470029 23.345042
2.970749 37.811054 25.983804
2.697972 39.711726 25.136735
3.594786 36.636899 25.386368
2.970749 37.811054 25.983804
3.237299 35.867924 26.859676
3.867464 27.170403 31.381103
4.442873 25.888666 30.829439
4.216484 27.916548 30.088929
3.055674 30.318358 31.243821
3.391699 31.180304 29.862195
3.308109 28.3475 31.958297
3.055674 30.318358 31.243821
3.867464 27.170403 31.381103
3.308109 28.3475 31.958297
6.057539 26.360485 26.374909
5.698303 25.82857 27.689209
3 0 49 51
3 51 50 12
3 49 50 51
3 2 52 54
3 52 15 53
3 52 53 54
3 2 17 15
3 1 55 57
3 55 18 56
3 55 56 57
3 3 21 19
3 3 23 21
3 3 25 23
3 4 58 59
3 61 60 13
3 62 26 63
3 64 29 65
3 66 65 27
3 64 65 66
3 69 68 30
3 67 68 69
3 6 70 72
3 72 71 14
3 70 71 72
3 6 73 74
3 6 75 77
3 75 31 76
3 75 76 77
3 7 32 16
3 7 33 32
3 8 78 79
3 8 80 82
3 80 34 81
3 80 81 82
3 5 35 28
3 9 36 20
3 9 37 36
3 9 38 37
3 10 39 22
3 10 40 39
3 10 41 40
3 11 42 24
3 11 43 42
3 83 44 84
3 85 45 86
3 87 86 44
3 85 86 87
3 88 46 89
3 90 47 91
3 92 91 46
3 90 91 92
3 93 48 94
3 95 94 47
3 93 94 95
3 12 13 4
3 96 13 97
3 98 97 12
3 96 97 98
3 100 99 13
3 101 14 102
3 15 103 105
3 103 14 104
3 103 104 105
3 15 6 14
3 15 16 6
3 17 16 15
3 17 7 16
3 106 8 107
3 18 108 109
3 18 110 111
3 19 20 5
3 21 20 19
3 21 9 20
3 21 22 9
3 23 22 21
3 23 10 22
3 23 24 10
3 25 24 23
3 25 11 24
3 13 112 114
3 114 113 4
3 112 113 114
3 116 115 13
3 26 117 118
3 26 119 121
3 119 2 120
3 119 120 121
3 27 28 1
3 29 28 27
3 29 5 28
3 122 29 123
3 124 29 125
3 126 5 127
3 128 127 29
3 126 127 128
3 129 19 130
3 131 130 5
3 129 130 131
3 132 19 133
3 134 3 135
3 136 135 19
3 134 135 136
3 138 137 3
3 139 1 140
3 141 1 142
3 143 27 144
3 145 144 1
3 143 144 145
3 146 27 147
3 149 148 27
3 30 150 152
3 152 151 0
3 150 151 152
3 155 154 30
3 153 154 155
3 14 156 157
3 159 158 14
3 31 160 161
3 31 162 164
3 162 4 163
3 162 163 164
3 16 31 6
3 32 31 16
3 32 4 31
3 32 12 4
3 33 12 32
3 33 0 12
3 34 165 166
3 34 167 168
3 28 18 1
3 35 18 28
3 35 169 171
3 171 170 18
3 169 170 171
3 20 35 5
3 36 35 20
3 36 172 174
3 174 173 35
3 172 173 174
3 36 175 176
3 37 177 179
3 179 178 36
3 177 178 179
3 37 180 181
3 37 182 183
3 38 184 186
3 186 185 37
3 184 185 186
3 38 187 189
3 187 8 188
3 187 188 189
3 22 38 9
3 39 38 22
3 39 8 38
3 39 34 8
3 40 34 39
3 40 190 192
3 192 191 34
3 190 191 192
3 40 193 194
3 41 195 197
3 197 196 40
3 195 196 197
3 41 198 199
3 24 41 10
3 42 41 24
3 42 200 202
3 202 201 41
3 200 201 202
3 42 203 205
3 203 26 204
3 203 204 205
3 43 26 42
3 43 2 26
3 206 25 207
3 208 207 3
3 206 207 208
3 209 25 210
3 211 11 212
3 213 212 25
3 211 212 213
3 214 11 215
3 216 43 217
3 218 217 11
3 216 217 218
3 44 219 221
3 219 43 220
3 219 220 221
3 44 2 43
3 44 17 2
3 45 17 44
3 45 7 17
3 222 45 223
3 46 224 226
3 224 45 225
3 224 225 226
3 46 7 45
3 46 33 7
3 47 33 46
3 47 0 33
3 47 30 0
3 48 30 47
3 48 227 229
3 229 228 30
3 227 228 229
3 230 48 231
3 232 48 233
3 235 234 48
3 237 236 0
