ply
format ascii 1.0
element vertex 262
property float x
property float y
property float z
element face 257
property list uchar int vertex_index
end_header
42.060555 9.645266 60.409027
53.700081 8.191698 44.557236
46.669403 0.63056 58.843559
48.454414 9.121408 53.820717
39.580925 -0.440496 64.105003
35.535427 -1.385334 65.560989
41.517921 -4.283329 64.555595
39.393333 14.976948 60.995399
42.703201 14.813931 58.527649
51.09248 8.523088 49.355904
49.549088 11.872765 45.63213
44.778606 4.925016 59.755508
45.517693 9.593935 57.612015
48.181782 4.98295 56.521538
51.170963 4.804403 52.428291
38.061451 9.240513 62.049919
36.683426 3.726633 63.261955
40.911575 4.48584 61.977333
43.31918 0.265823 61.925606
45.288956 14.053318 54.865814
40.687252 12.235186 60.729874
41.142475 14.971249 59.93045
42.462978 12.246794 59.563087
52.385651 8.304857 46.979923
50.470383 10.236261 47.567471
51.708023 9.951761 45.155411
53.016884 9.796719 42.724068
45.89003 2.744413 59.36924
46.538326 4.997442 58.259827
47.556931 2.820717 57.700775
37.587307 -0.89649 64.901535
36.075478 1.11665 64.246246
38.191406 1.573816 63.671021
38.830437 4.135094 62.720467
40.251476 1.986738 62.931618
42.231609 2.328522 61.982651
41.496048 -0.046785 63.123062
47.040382 9.397299 55.82254
45.526382 11.861609 56.343613
46.849564 11.494452 54.369156
37.012146 -3.282798 66.407906
38.91291 -2.801016 65.511185
40.725513 -2.372656 64.445068
39.932011 -4.663313 65.926414
49.793159 8.812092 51.6502
48.083511 11.062717 52.215988
49.275185 10.623283 49.933594
48.456757 12.352701 48.051544
43.45863 7.213995 60.084526
43.861469 9.680798 59.150558
45.260551 7.271933 58.722862
46.933762 7.224375 57.101288
48.48975 7.090908 55.245544
49.120857 2.830334 55.810562
49.720158 4.906668 54.566101
49.949394 6.905991 53.190529
51.33868 6.714468 50.977112
52.684589 6.562977 48.648308
38.75795 12.09877 61.576454
40.120163 9.492043 61.373039
37.354927 6.440212 62.564438
39.485764 6.781269 61.99115
41.528957 7.046841 61.172867
42.900333 4.753893 60.994682
44.114368 2.582708 60.798241
45.043682 0.490168 60.498932
42.441826 -2.019705 63.178833
44.061508 -1.752045 61.69796
44.073242 12.120636 58.089844
44.076965 14.502029 56.822418
43.880363 16.80154 55.306915
46.384239 13.506577 52.715057
44.836189 16.159325 53.162712
54.378025 8.191228 43.334621
54.036426 8.993738 42.418037
53.358482 8.994208 43.640652
37.624099 -4.196821 66.757614
36.722739 -4.44151 67.26762
38.574481 -3.955929 66.309254
37.962528 -3.041907 65.959545
37.624099 -4.196821 66.757614
39.084032 -4.887078 66.516868
39.42246 -3.732164 65.718799
38.574481 -3.955929 66.309254
39.657619 16.40423 60.589187
38.787611 16.40876 61.057945
42.07843 16.236451 58.702072
41.298067 16.315109 59.403472
41.922838 14.89259 59.22905
42.735271 16.063078 57.880317
42.07843 16.236451 58.702072
48.489638 12.948391 45.832037
47.943472 13.188359 47.041744
49.002922 12.112733 46.841837
48.992192 12.665795 44.606696
48.489638 12.948391 45.832037
49.386042 1.779168 55.360992
48.661373 1.766133 56.391681
50.44556 4.855536 53.497196
50.156893 3.854246 54.146778
50.882295 3.803114 53.077873
53.28919 5.621236 48.209992
52.619772 5.639791 49.398724
53.952907 5.584081 47.008167
53.348306 6.525822 47.446483
53.28919 5.621236 48.209992
38.4097 10.669642 61.813187
37.731301 11.981765 61.847217
37.383051 10.552636 62.08395
34.734209 -0.367634 65.142132
34.493576 -1.627717 65.855217
35.593203 3.510164 63.462627
35.289229 2.205172 63.954773
36.379452 2.421641 63.7541
35.927145 4.891191 63.103153
35.593203 3.510164 63.462627
37.019177 5.083423 62.913196
36.262895 6.247981 62.754395
35.927145 4.891191 63.103153
44.228506 -2.760011 61.452713
43.53117 -2.868257 62.339985
44.826008 -1.659892 60.850155
44.228506 -2.760011 61.452713
46.902161 13.21227 51.570839
47.233875 12.284647 52.465523
47.751796 11.99034 51.321304
44.53082 17.170345 52.207459
45.267059 15.798626 52.013813
44.176786 17.582762 53.35318
44.53082 17.170345 52.207459
51.224239 10.737359 44.177235
50.144772 11.697861 44.415594
50.628555 10.912263 45.393771
51.87867 10.659838 42.961563
51.224239 10.737359 44.177235
52.362454 9.87424 43.93974
52.538153 10.557861 41.746598
51.87867 10.659838 42.961563
53.715645 9.781152 41.505358
52.538153 10.557861 41.746598
53.715645 9.781152 41.505358
54.036426 8.993738 42.418037
51.58099 3.78687 51.958656
50.882295 3.803114 53.077873
51.862959 4.760504 51.288715
51.58099 3.78687 51.958656
36.98983 9.080858 62.262741
37.383051 10.552636 62.08395
42.259377 -4.133898 63.768802
41.710312 -5.25266 64.442806
47.435646 0.666246 57.90818
46.854309 -0.411918 58.474014
35.287658 -2.585409 66.372017
34.493576 -1.627717 65.855217
36.026018 -3.534142 66.795475
36.722739 -4.44151 67.26762
36.273786 -2.334066 65.984448
35.287658 -2.585409 66.372017
36.026018 -3.534142 66.795475
39.517626 -5.801137 66.7136
39.084032 -4.887078 66.516868
40.24689 -5.603697 65.969203
39.517626 -5.801137 66.7136
41.039845 -5.413706 65.283794
40.724966 -4.473321 65.241005
40.24689 -5.603697 65.969203
41.710312 -5.25266 64.442806
41.039845 -5.413706 65.283794
40.53219 16.401381 60.056713
39.657619 16.40423 60.589187
40.267904 14.974099 60.462924
40.53219 16.401381 60.056713
41.298067 16.315109 59.403472
48.347634 11.770623 50.180107
47.751796 11.99034 51.321304
48.679348 10.843 51.074791
47.93842 12.635332 49.239082
48.347634 11.770623 50.180107
48.865971 11.487992 48.992569
47.497639 13.52796 48.261707
47.93842 12.635332 49.239082
47.497639 13.52796 48.261707
47.943472 13.188359 47.041744
48.992192 12.665795 44.606696
50.144772 11.697861 44.415594
47.87941 1.761324 57.336788
47.113167 1.725639 58.272167
47.435646 0.666246 57.90818
48.338894 2.825526 56.755668
47.87941 1.761324 57.336788
48.661373 1.766133 56.391681
49.857242 2.816079 54.769008
49.386042 1.779168 55.360992
50.122427 1.764913 54.319439
49.420507 3.868501 55.188332
49.857242 2.816079 54.769008
50.156893 3.854246 54.146778
51.946817 5.715537 50.563125
51.254821 5.759436 51.702702
51.862959 4.760504 51.288715
52.011634 6.638723 49.81271
51.946817 5.715537 50.563125
52.619772 5.639791 49.398724
53.198837 7.396762 46.612291
52.53512 7.433917 47.814115
53.348306 6.525822 47.446483
53.856052 7.340183 45.400948
53.042866 8.248278 45.76858
53.198837 7.396762 46.612291
54.521166 7.349858 44.17842
53.856052 7.340183 45.400948
38.435285 14.914406 61.354713
38.787611 16.40876 61.057945
38.117594 13.475317 61.64524
37.731301 11.981765 61.847217
39.075642 13.537859 61.285927
38.435285 14.914406 61.354713
38.117594 13.475317 61.64524
35.004234 0.883358 64.48476
34.734209 -0.367634 65.142132
35.805453 -0.134342 64.903617
35.004234 0.883358 64.48476
35.289229 2.205172 63.954773
36.636568 7.680707 62.520001
36.262895 6.247981 62.754395
37.708189 7.840362 62.307179
36.98983 9.080858 62.262741
36.636568 7.680707 62.520001
42.721329 -3.002086 63.080421
41.979873 -3.151517 63.867214
42.259377 -4.133898 63.768802
43.251667 -1.885875 62.438396
42.721329 -3.002086 63.080421
43.53117 -2.868257 62.339985
45.317095 -0.538786 60.250641
44.552595 -0.630939 61.098446
44.826008 -1.659892 60.850155
46.129956 -0.468589 59.422955
45.856543 0.560364 59.671245
45.317095 -0.538786 60.250641
46.854309 -0.411918 58.474014
46.129956 -0.468589 59.422955
43.422154 15.907127 57.027702
42.735271 16.063078 57.880317
43.390083 14.65798 57.675033
43.323853 17.056883 56.26995
43.422154 15.907127 57.027702
43.978664 15.651784 56.064667
43.273075 18.258091 55.481708
43.323853 17.056883 56.26995
46.041084 14.472252 51.789986
46.902161 13.21227 51.570839
45.610214 14.832951 52.938885
46.041084 14.472252 51.789986
45.267059 15.798626 52.013813
43.698874 17.903869 54.425281
44.358276 16.480432 54.234814
44.176786 17.582762 53.35318
43.273075 18.258091 55.481708
43.698874 17.903869 54.425281
54.378025 8.191228 43.334621
54.521166 7.349858 44.17842
3 0 22 20
3 1 25 23
3 1 26 25
3 1 73 75
3 75 74 26
3 73 74 75
3 2 29 27
3 4 32 30
3 4 34 32
3 4 36 34
3 3 39 37
3 76 40 77
3 78 41 79
3 80 79 40
3 78 79 80
3 81 43 82
3 83 82 41
3 81 82 83
3 7 84 85
3 8 86 88
3 88 87 21
3 86 87 88
3 8 89 90
3 9 46 44
3 10 47 24
3 10 91 93
3 93 92 47
3 91 92 93
3 10 94 95
3 11 50 48
3 13 51 28
3 13 52 51
3 96 53 97
3 14 98 100
3 98 54 99
3 98 99 100
3 14 55 54
3 14 56 55
3 101 57 102
3 105 104 57
3 103 104 105
3 15 106 108
3 106 58 107
3 106 107 108
3 15 59 58
3 5 109 110
3 16 111 113
3 113 112 31
3 111 112 113
3 16 114 115
3 16 116 118
3 116 60 117
3 116 117 118
3 17 61 33
3 17 62 61
3 17 63 62
3 18 64 35
3 18 65 64
3 6 66 42
3 119 67 120
3 122 121 67
3 12 68 49
3 19 69 38
3 19 70 69
3 123 71 124
3 125 124 45
3 123 124 125
3 126 72 127
3 129 128 72
3 20 21 7
3 22 21 20
3 22 8 21
3 23 24 9
3 25 24 23
3 25 10 24
3 25 130 132
3 132 131 10
3 130 131 132
3 26 133 135
3 135 134 25
3 133 134 135
3 26 136 137
3 26 138 139
3 141 140 26
3 27 28 11
3 29 28 27
3 29 13 28
3 142 14 143
3 145 144 14
3 146 15 147
3 30 31 5
3 32 31 30
3 32 16 31
3 32 33 16
3 34 33 32
3 34 17 33
3 34 35 17
3 36 35 34
3 36 18 35
3 149 148 6
3 37 38 12
3 39 38 37
3 39 19 38
3 151 150 2
3 152 5 153
3 40 154 155
3 40 156 158
3 156 5 157
3 156 157 158
3 40 30 5
3 41 30 40
3 41 4 30
3 41 42 4
3 43 42 41
3 43 6 42
3 159 43 160
3 161 43 162
3 163 6 164
3 165 164 43
3 163 164 165
3 167 166 6
3 21 168 170
3 170 169 7
3 168 169 170
3 172 171 21
3 44 45 3
3 46 45 44
3 46 173 175
3 175 174 45
3 173 174 175
3 24 46 9
3 47 46 24
3 47 176 178
3 178 177 46
3 176 177 178
3 47 179 180
3 182 181 47
3 184 183 10
3 48 49 0
3 50 49 48
3 50 12 49
3 28 50 11
3 51 50 28
3 51 12 50
3 51 37 12
3 52 37 51
3 52 3 37
3 185 29 186
3 187 186 2
3 185 186 187
3 53 188 190
3 188 29 189
3 188 189 190
3 53 13 29
3 191 53 192
3 191 192 193
3 54 194 196
3 194 53 195
3 194 195 196
3 54 13 53
3 54 52 13
3 55 52 54
3 55 3 52
3 55 44 3
3 56 44 55
3 56 9 44
3 197 56 198
3 199 198 14
3 197 198 199
3 57 200 202
3 200 56 201
3 200 201 202
3 57 9 56
3 57 23 9
3 203 23 204
3 205 204 57
3 203 204 205
3 206 1 207
3 208 207 23
3 206 207 208
3 210 209 1
3 211 7 212
3 58 213 214
3 58 215 217
3 215 7 216
3 215 216 217
3 58 20 7
3 59 20 58
3 59 0 20
3 31 218 220
3 220 219 5
3 218 219 220
3 222 221 31
3 60 223 224
3 60 225 227
3 225 15 226
3 225 226 227
3 33 60 16
3 61 60 33
3 61 15 60
3 61 59 15
3 62 59 61
3 62 0 59
3 62 48 0
3 63 48 62
3 63 11 48
3 35 63 17
3 64 63 35
3 64 11 63
3 64 27 11
3 65 27 64
3 65 2 27
3 42 36 4
3 66 36 42
3 66 18 36
3 228 66 229
3 230 229 6
3 228 229 230
3 67 231 233
3 231 66 232
3 231 232 233
3 67 18 66
3 67 65 18
3 234 65 235
3 236 235 67
3 234 235 236
3 237 2 238
3 239 238 65
3 237 238 239
3 241 240 2
3 49 22 0
3 68 22 49
3 68 8 22
3 38 68 12
3 69 68 38
3 69 8 68
3 69 242 244
3 244 243 8
3 242 243 244
3 70 245 247
3 247 246 69
3 245 246 247
3 70 248 249
3 45 39 3
3 71 39 45
3 71 19 39
3 250 71 251
3 72 252 254
3 252 71 253
3 252 253 254
3 72 19 71
3 72 70 19
3 255 70 256
3 257 256 72
3 255 256 257
3 259 258 70
3 261 260 1
