ply
format ascii 1.0
element vertex 202
property float x
property float y
property float z
element face 180
property list uchar int vertex_index
end_header
2.434093 40.630913 36.859573
2.077692 38.902412 46.063957
0.487524 41.364658 29.968483
2.069286 44.058056 32.571877
1.299309 45.057373 47.096252
-2.580011 30.254181 31.770861
-1.688745 37.663418 27.963276
2.553354 39.920372 40.810493
2.62731 45.397018 36.231544
2.218548 45.553452 41.219334
2.507483 50.139954 30.824898
2.066063 39.479671 36.067913
1.754442 41.069252 33.738106
2.298969 42.179382 34.976437
-2.174643 33.999641 29.869562
-1.064289 36.090977 30.718613
0.990978 44.674843 28.439642
-0.003511 43.082428 27.182476
0.585905 46.448486 25.574833
2.383131 39.438622 43.337795
2.459421 42.622295 41.039772
2.140734 42.322803 43.724182
2.56027 48.323059 35.94429
2.584917 47.832626 33.626678
2.577557 50.884789 33.132088
0.004059 37.969429 31.633476
0.967831 39.636753 32.634373
1.387182 42.851292 31.176252
1.789 46.0093 29.903934
1.685608 38.315956 48.934769
1.719116 41.920467 46.595215
1.26016 41.425499 49.598061
-0.560564 39.632614 28.908064
-1.124487 41.23872 26.094208
2.562574 40.332699 38.572224
2.577297 42.734825 36.5564
2.617897 42.78833 38.614655
2.521286 45.57756 38.581291
2.301838 48.581322 38.548622
1.78607 45.373207 44.077675
1.880636 48.646484 41.391006
2.485762 44.916103 34.230209
2.330635 47.066841 31.618816
2.250078 40.055292 36.463743
2.18736 38.898712 37.147674
2.371375 39.474333 37.543504
-0.751946 35.280493 32.057426
-1.28403 34.273297 31.644764
-0.971687 33.462812 32.983577
1.035724 47.186909 26.320269
0.788442 45.561665 27.007238
1.238261 46.300087 27.752673
0.881099 48.095387 24.841149
1.035724 47.186909 26.320269
2.192496 37.47116 45.778629
2.057485 37.11152 47.150386
2.230411 39.170517 44.700876
2.345216 37.739266 44.415548
2.192496 37.47116 45.778629
2.480889 51.145287 34.424465
2.568913 49.603924 34.538189
2.472246 49.864422 35.830567
1.192521 38.814787 33.897116
0.762685 37.975309 33.446829
1.261787 39.551569 50.753075
1.472884 39.870728 49.266415
1.474511 37.996797 50.421429
1.474511 37.996797 50.421429
1.685875 36.454355 50.01088
-2.931366 30.969972 30.416798
-3.457979 29.767011 30.020685
-3.106624 29.05122 31.374747
-2.265705 36.558453 27.533155
-2.508654 34.726564 28.486298
-1.931694 35.83153 28.916419
-1.998644 38.402226 26.550638
-2.265705 36.558453 27.533155
-0.808655 42.980259 25.197321
-0.563999 42.160574 26.638342
-0.248167 43.902113 25.741455
-1.403145 41.988163 24.649867
-0.808655 42.980259 25.197321
-2.744062 28.344538 32.697261
-2.392021 27.582972 34.019739
-2.22797 29.492615 33.093339
-3.106624 29.05122 31.374747
-2.744062 28.344538 32.697261
1.688851 50.244061 41.481119
1.63041 48.593021 42.903421
1.937804 50.183754 39.968296
1.688851 50.244061 41.481119
2.502821 38.710581 40.632858
2.503583 38.340525 41.848917
2.557964 40.126536 39.691358
2.507431 38.916745 39.513723
2.502821 38.710581 40.632858
2.324142 49.647755 29.81581
2.235718 48.111199 30.212768
2.419059 48.603397 31.221857
1.910253 40.274462 34.903009
1.585826 39.531036 34.448982
1.741637 38.736246 35.613886
1.938311 38.011477 36.814714
2.18736 38.898712 37.147674
1.741637 38.736246 35.613886
1.938311 38.011477 36.814714
-1.839207 33.227628 31.220239
-2.377327 32.126911 30.820211
-2.041891 31.354898 32.170888
-1.619466 35.045309 30.294087
-1.839207 33.227628 31.220239
-1.28403 34.273297 31.644764
0.046541 45.585142 24.937634
-0.248167 43.902113 25.741455
0.291197 44.765457 26.378655
0.384869 47.280766 24.094459
0.046541 45.585142 24.937634
0.384869 47.280766 24.094459
0.881099 48.095387 24.841149
-2.041891 31.354898 32.170888
-2.22797 29.492615 33.093339
-1.68985 30.593332 33.493366
1.339746 46.798465 45.756044
1.091267 46.662563 47.331587
2.418471 38.099649 43.112568
2.345216 37.739266 44.415548
2.468243 39.679497 42.074144
2.503583 38.340525 41.848917
2.418471 38.099649 43.112568
0.280799 37.141647 32.946381
-0.217772 36.219719 32.514858
0.485945 38.803091 32.133924
0.280799 37.141647 32.946381
0.762685 37.975309 33.446829
1.361136 40.353003 33.186239
1.192521 38.814787 33.897116
1.585826 39.531036 34.448982
1.637272 46.967315 28.484819
1.238261 46.300087 27.752673
1.389989 45.342072 29.171788
1.043524 41.132052 51.140973
1.261787 39.551569 50.753075
1.045651 43.018849 49.909138
1.043524 41.132052 51.140973
1.065225 44.834785 48.658234
1.279734 43.241436 48.347156
1.045651 43.018849 49.909138
1.091267 46.662563 47.331587
1.065225 44.834785 48.658234
1.861444 36.818292 48.585792
1.685875 36.454355 50.01088
1.88165 38.609184 47.499363
2.057485 37.11152 47.150386
1.861444 36.818292 48.585792
-2.728682 32.842703 29.466148
-2.931366 30.969972 30.416798
-2.377327 32.126911 30.820211
-2.728682 32.842703 29.466148
-2.508654 34.726564 28.486298
-0.530115 37.030203 31.176045
-0.751946 35.280493 32.057426
-0.217772 36.219719 32.514858
-1.716515 40.189876 25.616104
-1.998644 38.402226 26.550638
-1.406616 39.451069 27.028742
-1.716515 40.189876 25.616104
-1.403145 41.988163 24.649867
2.34303 49.993554 37.132733
2.472246 49.864422 35.830567
2.431054 48.452191 37.246456
1.583127 46.956383 44.246755
1.54269 45.21529 45.586963
1.339746 46.798465 45.756044
1.833353 47.009845 42.734341
1.583127 46.956383 44.246755
1.63041 48.593021 42.903421
2.148405 50.151173 38.547104
2.091237 48.613903 39.969814
1.937804 50.183754 39.968296
2.34303 49.993554 37.132733
2.148405 50.151173 38.547104
2.435615 39.325226 38.39983
2.507431 38.916745 39.513723
2.498334 40.481806 37.715898
2.371375 39.474333 37.543504
2.435615 39.325226 38.39983
1.964901 47.582428 29.355328
2.059817 46.538071 30.761375
2.235718 48.111199 30.212768
1.637272 46.967315 28.484819
1.964901 47.582428 29.355328
2.520555 52.456787 32.935513
2.480889 51.145287 34.424465
2.578578 52.078537 31.650191
2.520555 52.456787 32.935513
2.543541 51.706119 30.496595
2.54252 50.512372 31.978493
2.578578 52.078537 31.650191
2.459029 51.22546 29.347357
2.543541 51.706119 30.496595
2.324142 49.647755 29.81581
2.459029 51.22546 29.347357
3 0 13 11
3 0 43 45
3 43 11 44
3 43 44 45
3 46 15 47
3 46 47 48
3 49 18 50
3 51 50 16
3 49 50 51
3 53 52 18
3 1 21 19
3 1 54 55
3 1 56 58
3 56 19 57
3 56 57 58
3 59 24 60
3 61 60 22
3 59 60 61
3 62 26 63
3 3 27 12
3 3 28 27
3 64 31 65
3 66 65 29
3 64 65 66
3 67 29 68
3 5 69 71
3 69 70 71
3 6 72 74
3 74 73 14
3 72 73 74
3 6 75 76
3 2 32 25
3 77 33 78
3 79 78 17
3 77 78 79
3 81 80 33
3 5 82 84
3 82 83 84
3 5 85 86
3 7 36 34
3 9 37 20
3 9 38 37
3 4 39 30
3 87 40 88
3 90 89 40
3 7 91 92
3 7 93 95
3 93 34 94
3 93 94 95
3 8 41 35
3 10 42 23
3 10 96 98
3 98 97 42
3 96 97 98
3 11 99 101
3 99 12 100
3 99 100 101
3 13 12 11
3 13 3 12
3 11 102 103
3 11 104 105
3 106 14 107
3 108 107 5
3 106 107 108
3 15 109 111
3 109 14 110
3 109 110 111
3 15 6 14
3 16 17 2
3 18 17 16
3 18 112 114
3 114 113 17
3 112 113 114
3 18 115 116
3 118 117 18
3 119 5 120
3 119 120 121
3 19 20 7
3 21 20 19
3 21 9 20
3 123 122 4
3 19 124 125
3 19 126 128
3 126 7 127
3 126 127 128
3 22 23 8
3 24 23 22
3 24 10 23
3 129 25 130
3 26 131 133
3 131 25 132
3 131 132 133
3 26 2 25
3 12 134 136
3 134 26 135
3 134 135 136
3 27 26 12
3 27 2 26
3 27 16 2
3 28 16 27
3 28 137 139
3 139 138 16
3 137 138 139
3 29 30 1
3 31 30 29
3 31 4 30
3 140 31 141
3 142 31 143
3 144 4 145
3 146 145 31
3 144 145 146
3 148 147 4
3 29 149 150
3 29 151 153
3 151 1 152
3 151 152 153
3 14 154 156
3 156 155 5
3 154 155 156
3 158 157 14
3 25 159 161
3 159 15 160
3 159 160 161
3 32 15 25
3 32 6 15
3 17 32 2
3 33 32 17
3 33 6 32
3 33 162 164
3 164 163 6
3 162 163 164
3 166 165 33
3 34 35 0
3 36 35 34
3 36 8 35
3 20 36 7
3 37 36 20
3 37 8 36
3 37 22 8
3 38 22 37
3 38 167 169
3 169 168 22
3 167 168 169
3 30 21 1
3 39 21 30
3 39 9 21
3 170 39 171
3 172 171 4
3 170 171 172
3 40 173 175
3 173 39 174
3 173 174 175
3 40 9 39
3 40 38 9
3 176 38 177
3 178 177 40
3 176 177 178
3 180 179 38
3 34 181 182
3 34 183 185
3 183 0 184
3 183 184 185
3 35 13 0
3 41 13 35
3 41 3 13
3 23 41 8
3 42 41 23
3 42 3 41
3 42 28 3
3 186 28 187
3 188 187 42
3 186 187 188
3 190 189 28
3 191 24 192
3 193 24 194
3 195 10 196
3 197 196 24
3 195 196 197
3 198 10 199
3 201 200 10
