ply
format ascii 1.0
element vertex 375
property float x
property float y
property float z
element face 300
property list uchar int vertex_index
end_header
28.685101 -37.752342 -19.498144
28.770947 -24.248219 -37.430534
36.840179 -37.967403 -36.152702
29.951731 -32.260002 -28.152838
28.692789 -36.446182 -30.166445
26.208658 -41.541313 -17.258841
27.563602 -39.704609 -21.258604
30.018667 -23.115814 -35.582687
31.180847 -27.25001 -30.71847
29.339888 -28.460693 -32.806541
30.289608 -32.941429 -34.095543
35.422951 -47.476471 -32.122055
28.849384 -18.570335 -40.381004
34.517639 -41.922909 -32.765938
29.902002 -35.428993 -23.663404
30.444031 -40.402184 -29.750109
26.995117 -40.72599 -19.232676
28.338181 -38.76424 -20.350416
29.181973 -23.62611 -36.633324
29.695784 -25.787832 -34.246925
36.221741 -42.649406 -34.141525
36.698647 -45.397091 -33.763054
28.977097 -15.793559 -41.628784
28.553909 -16.201113 -42.675751
28.604658 -13.365813 -43.930229
33.975967 -46.589958 -30.574305
33.433311 -43.790916 -30.892466
23.6548 -43.82177 -14.438557
22.452202 -44.142982 -12.649561
30.63018 -29.782925 -29.467691
31.462603 -29.096722 -28.358904
30.840782 -31.560089 -27.139463
30.047609 -33.937866 -25.876699
29.082781 -36.23967 -24.596437
29.141823 -34.690376 -26.795767
28.440105 -39.792877 -28.196386
29.243509 -41.926376 -27.945158
29.455891 -38.25486 -30.03998
31.471462 -34.799248 -33.859955
25.459438 -42.635475 -18.196836
31.033077 -22.618608 -34.329231
30.662365 -25.246971 -33.139778
30.215191 -27.84901 -31.847475
29.687132 -30.424648 -30.470613
29.070435 -32.983219 -29.027796
29.466785 -34.747074 -32.123055
29.373423 -20.882477 -38.007896
28.783377 -21.387165 -38.975838
28.597216 -19.091518 -41.248199
35.060127 -44.657223 -32.425148
35.628017 -39.970566 -34.541626
29.459625 -36.707108 -21.53182
28.831573 -37.605156 -22.443384
27.949568 -38.488564 -23.323717
31.448298 -42.848328 -29.378962
30.463072 -36.585072 -31.938101
31.580379 -38.733723 -31.623487
32.617565 -41.152885 -31.254599
33.720966 -39.333076 -33.138924
28.125955 -38.726509 -18.915129
28.124278 -38.152912 -18.53648
28.511641 -38.258291 -19.92428
27.952495 -39.232458 -19.341265
28.125955 -38.726509 -18.915129
28.887195 -25.321284 -36.282898
29.092708 -25.01023 -35.884293
28.97646 -23.937165 -37.031929
28.781489 -25.706404 -36.595009
28.897737 -26.779469 -35.447373
28.887195 -25.321284 -36.282898
28.845042 -24.655439 -37.689098
28.781489 -25.706404 -36.595009
37.187634 -39.283434 -35.90855
36.878415 -41.624435 -34.902962
36.53096 -40.308404 -35.147114
37.523668 -36.954668 -36.857021
37.187634 -39.283434 -35.90855
29.069793 -14.42585 -42.162365
29.395774 -15.6278 -40.972557
28.883574 -13.211977 -43.313087
28.790878 -14.579686 -42.779506
29.069793 -14.42585 -42.162365
32.862657 -44.664417 -29.946964
33.153797 -46.09972 -29.781717
22.82332 -44.657833 -14.045741
23.299266 -44.459252 -14.93751
28.323635 -37.236055 -29.205862
28.144732 -36.507368 -29.152328
28.513886 -35.717495 -30.112911
28.566447 -38.119529 -29.181415
28.197293 -38.909402 -28.220833
28.323635 -37.236055 -29.205862
25.693722 -41.843784 -16.305999
26.352934 -40.973961 -16.830904
25.428908 -42.431045 -16.776447
25.693722 -41.843784 -16.305999
25.834048 -42.088394 -17.727839
25.054298 -42.978127 -17.245445
25.428908 -42.431045 -16.776447
26.840041 -40.735548 -20.694042
26.555799 -41.246239 -19.681078
27.279359 -40.2153 -20.24564
27.109368 -40.212084 -21.669613
26.840041 -40.735548 -20.694042
29.139322 -29.802518 -32.042163
29.312943 -30.784495 -30.874198
29.51351 -29.44267 -31.638577
35.574044 -48.897701 -31.985993
34.941538 -49.951731 -31.113933
36.93815 -46.773756 -33.582295
37.435074 -44.339274 -34.477218
29.111404 -19.726406 -39.19445
29.479222 -19.521373 -38.625244
29.217202 -18.365302 -39.811798
28.625601 -16.479802 -43.053421
28.559976 -14.998935 -43.775738
21.739459 -44.21833 -11.795911
21.667248 -44.943131 -12.283976
31.548679 -26.90027 -30.114002
31.394033 -25.956492 -31.301218
31.664237 -28.676055 -27.80509
31.440349 -29.92744 -27.228435
30.122727 -34.97739 -23.205928
30.333465 -34.289648 -24.277544
29.680813 -36.06805 -22.597612
29.901539 -35.616447 -22.140137
30.122727 -34.97739 -23.205928
28.073056 -37.791748 -24.371502
28.516174 -37.364117 -23.960077
28.639663 -36.667301 -25.007862
27.530652 -38.996672 -23.685058
28.073056 -37.791748 -24.371502
28.712093 -34.26367 -28.283668
28.772044 -33.420281 -29.353401
30.306805 -42.396523 -28.662318
29.706544 -43.158619 -27.759842
29.84377 -41.16428 -28.847634
30.946165 -41.625256 -29.564535
30.808939 -43.619595 -28.476744
30.306805 -42.396523 -28.662318
32.126972 -37.838129 -32.57141
31.52592 -36.766486 -32.741721
32.072513 -35.870891 -33.689644
32.645565 -39.04771 -32.386966
32.098972 -39.943304 -31.439043
32.126972 -37.838129 -32.57141
33.197266 -38.137805 -33.329129
33.169265 -40.242981 -32.196762
32.645565 -39.04771 -32.386966
26.887733 -40.620995 -17.795477
26.352934 -40.973961 -16.830904
27.280963 -40.213333 -18.782395
26.601888 -41.133651 -18.245759
26.887733 -40.620995 -17.795477
27.666649 -39.745115 -19.791546
27.280963 -40.213333 -18.782395
27.952495 -39.232458 -19.341265
29.349614 -26.091091 -34.691093
29.438879 -24.706971 -35.440124
29.092708 -25.01023 -35.884293
29.171665 -27.427521 -33.970901
29.517836 -27.124263 -33.526733
29.349614 -26.091091 -34.691093
29.080576 -28.82925 -33.167511
29.171665 -27.427521 -33.970901
37.116867 -42.998278 -34.713726
36.460194 -44.023249 -33.952289
36.878415 -41.624435 -34.902962
37.435074 -44.339274 -34.477218
37.116867 -42.998278 -34.713726
29.281059 -16.976914 -40.435688
29.395774 -15.6278 -40.972557
28.913241 -17.181947 -41.004894
29.217202 -18.365302 -39.811798
29.281059 -16.976914 -40.435688
28.58535 -13.581285 -44.402977
28.559976 -14.998935 -43.775738
28.579284 -14.783463 -43.30299
33.425125 -47.499241 -29.622637
33.58149 -48.992931 -29.494231
33.704639 -45.190437 -30.733385
33.425125 -47.499241 -29.622637
33.153797 -46.09972 -29.781717
23.053501 -43.982376 -13.544059
23.171799 -43.343342 -13.090532
23.773098 -43.182735 -13.985029
22.222021 -44.818439 -13.151243
23.053501 -43.982376 -13.544059
22.82332 -44.657833 -14.045741
21.667248 -44.943131 -12.283976
22.222021 -44.818439 -13.151243
31.129438 -31.159123 -26.618715
31.440349 -29.92744 -27.228435
31.151693 -30.328406 -27.749184
30.802855 -32.355196 -26.015574
31.129438 -31.159123 -26.618715
30.406269 -33.544084 -25.384192
30.802855 -32.355196 -26.015574
30.444195 -32.748978 -26.508081
29.974806 -34.68343 -24.770052
30.333465 -34.289648 -24.277544
30.406269 -33.544084 -25.384192
28.669184 -35.892654 -26.107527
28.639663 -36.667301 -25.007862
29.112302 -35.465023 -25.696102
27.930428 -40.490841 -27.308323
28.197293 -38.909402 -28.220833
28.211024 -41.542379 -27.215326
27.930428 -40.490841 -27.308323
28.841807 -40.859626 -28.070772
28.612726 -42.609129 -27.089712
28.211024 -41.542379 -27.215326
31.326162 -32.922159 -34.955841
30.880535 -33.870339 -33.977749
30.735235 -31.993249 -35.073635
31.988228 -33.85849 -34.810246
31.326162 -32.922159 -34.955841
31.842928 -31.9814 -35.906132
32.072513 -35.870891 -33.689644
31.988228 -33.85849 -34.810246
24.416794 -42.984012 -14.895857
23.773098 -43.182735 -13.985029
24.151979 -43.571274 -15.366305
24.416794 -42.984012 -14.895857
23.299266 -44.459252 -14.93751
24.151979 -43.571274 -15.366305
24.616324 -43.590817 -17.721994
25.054298 -42.978127 -17.245445
24.988422 -43.237339 -18.631514
24.616324 -43.590817 -17.721994
25.787959 -42.200981 -19.163158
26.227277 -41.680733 -18.714756
26.555799 -41.246239 -19.681078
24.988422 -43.237339 -18.631514
25.787959 -42.200981 -19.163158
31.320147 -23.640791 -33.106599
31.472665 -22.325038 -33.635994
31.134791 -24.954973 -32.511872
31.320147 -23.640791 -33.106599
30.847721 -23.932789 -33.734504
30.921606 -26.24849 -31.929124
31.394033 -25.956492 -31.301218
31.134791 -24.954973 -32.511872
29.004595 -32.063781 -30.15279
29.378783 -31.703933 -29.749204
29.312943 -30.784495 -30.874198
28.772044 -33.420281 -29.353401
29.004595 -32.063781 -30.15279
29.139322 -29.802518 -32.042163
29.080576 -28.82925 -33.167511
28.745874 -34.843122 -31.13559
28.513886 -35.717495 -30.112911
29.132873 -33.993568 -32.113895
29.079787 -35.596628 -31.14475
28.745874 -34.843122 -31.13559
29.403712 -33.06984 -33.139035
29.132873 -33.993568 -32.113895
29.0698 -32.316334 -33.129875
29.815123 -32.167017 -34.125279
29.878197 -33.844251 -33.109299
29.403712 -33.06984 -33.139035
30.139385 -31.201064 -35.14125
29.815123 -32.167017 -34.125279
30.735235 -31.993249 -35.073635
30.139385 -31.201064 -35.14125
36.211892 -47.858012 -32.806493
35.574044 -48.897701 -31.985993
36.060799 -46.436781 -32.942554
36.211892 -47.858012 -32.806493
36.93815 -46.773756 -33.582295
28.518221 -37.15246 -19.168764
28.124278 -38.152912 -18.53648
31.180656 -21.294772 -34.862552
31.472665 -22.325038 -33.635994
30.673731 -21.530786 -35.563179
31.180656 -21.294772 -34.862552
30.166526 -21.77939 -36.189907
30.525872 -22.867211 -34.955959
30.673731 -21.530786 -35.563179
29.843905 -20.662721 -37.402512
29.479222 -19.521373 -38.625244
29.696045 -21.999146 -36.795292
30.166526 -21.77939 -36.189907
29.843905 -20.662721 -37.402512
28.754925 -21.714413 -39.32148
28.74871 -23.14494 -38.548828
28.777162 -22.817692 -38.203186
28.661845 -20.56659 -40.457661
28.754925 -21.714413 -39.32148
28.690297 -20.239342 -40.112019
28.766494 -19.441735 -41.535545
28.661845 -20.56659 -40.457661
28.647254 -17.925004 -42.339645
28.575563 -17.646316 -41.961975
28.625601 -16.479802 -43.053421
28.766494 -19.441735 -41.535545
28.647254 -17.925004 -42.339645
28.674273 -11.976085 -44.457645
28.883574 -13.211977 -43.313087
28.577303 -12.133892 -45.031623
28.674273 -11.976085 -44.457645
28.58535 -13.581285 -44.402977
28.577303 -12.133892 -45.031623
34.853367 -48.482845 -31.217778
34.941538 -49.951731 -31.113933
34.129875 -48.039589 -30.443903
33.58149 -48.992931 -29.494231
34.671955 -47.073222 -31.369324
34.129875 -48.039589 -30.443903
34.518047 -45.623591 -31.499727
35.241539 -46.066847 -32.273601
34.853367 -48.482845 -31.217778
34.671955 -47.073222 -31.369324
22.398418 -43.442953 -12.227132
23.171799 -43.343342 -13.090532
22.398418 -43.442953 -12.227132
21.739459 -44.21833 -11.795911
29.113656 -36.708377 -20.112816
28.518221 -37.15246 -19.168764
31.689557 -27.823625 -28.934219
31.548679 -26.90027 -30.114002
31.321725 -28.173366 -29.538687
31.689557 -27.823625 -28.934219
31.664237 -28.676055 -27.80509
29.500918 -36.185761 -21.129654
29.901539 -35.616447 -22.140137
29.072363 -37.229725 -20.514982
29.113656 -36.708377 -20.112816
29.500918 -36.185761 -21.129654
27.302351 -39.604062 -22.70217
27.109368 -40.212084 -21.669613
27.756585 -39.096587 -22.29116
27.302351 -39.604062 -22.70217
27.530652 -38.996672 -23.685058
28.747787 -35.117249 -27.167654
29.106129 -33.836798 -27.911782
28.712093 -34.26367 -28.283668
28.669184 -35.892654 -26.107527
28.747787 -35.117249 -27.167654
29.005655 -43.842892 -26.914333
28.612726 -42.609129 -27.089712
29.005655 -43.842892 -26.914333
29.706544 -43.158619 -27.759842
31.23548 -44.988512 -28.2746
30.808939 -43.619595 -28.476744
31.870151 -44.193123 -29.190213
31.23548 -44.988512 -28.2746
32.454785 -43.345401 -30.128031
31.870151 -44.193123 -29.190213
32.032932 -42.000607 -30.316781
33.025438 -42.471901 -31.073532
32.862657 -44.664417 -29.946964
32.454785 -43.345401 -30.128031
33.742354 -37.194007 -34.258625
33.197266 -38.137805 -33.329129
34.270958 -38.377063 -34.049374
33.742354 -37.194007 -34.258625
34.669295 -39.67198 -33.862881
34.119303 -40.627992 -32.952431
34.270958 -38.377063 -34.049374
35.224484 -38.695808 -34.750725
35.072828 -40.946737 -33.653782
34.669295 -39.67198 -33.862881
35.805675 -37.709612 -35.59568
35.224484 -38.695808 -34.750725
36.411756 -36.70803 -36.401218
36.234098 -38.968984 -35.347164
35.805675 -37.709612 -35.59568
28.845042 -24.655439 -37.689098
28.74871 -23.14494 -38.548828
37.051338 -35.7063 -37.156734
36.411756 -36.70803 -36.401218
36.622916 -34.446928 -37.405251
37.523668 -36.954668 -36.857021
37.051338 -35.7063 -37.156734
3 0 59 60
3 0 61 63
3 61 17 62
3 61 62 63
3 1 64 66
3 66 65 18
3 64 65 66
3 1 67 69
3 67 68 69
3 1 70 71
3 2 72 74
3 74 73 20
3 72 73 74
3 2 75 76
3 77 22 78
3 79 24 80
3 81 80 22
3 79 80 81
3 82 26 83
3 85 84 27
3 3 31 29
3 3 32 31
3 3 34 32
3 4 86 88
3 86 87 88
3 4 89 91
3 89 35 90
3 89 90 91
3 4 37 35
3 5 92 93
3 5 94 95
3 5 96 98
3 96 39 97
3 96 97 98
3 6 99 101
3 101 100 16
3 99 100 101
3 6 102 103
3 7 41 40
3 9 42 19
3 9 43 42
3 9 104 106
3 106 105 43
3 104 105 106
3 11 107 108
3 110 109 21
3 12 111 113
3 111 46 112
3 111 112 113
3 12 47 46
3 12 48 47
3 115 114 23
3 13 49 25
3 13 50 49
3 117 116 28
3 8 118 119
3 121 120 30
3 14 122 123
3 14 124 126
3 124 51 125
3 124 125 126
3 14 52 51
3 127 53 128
3 129 128 33
3 127 128 129
3 131 130 53
3 133 132 44
3 15 134 136
3 136 135 36
3 134 135 136
3 15 137 139
3 137 54 138
3 137 138 139
3 10 55 45
3 140 56 141
3 142 141 38
3 140 141 142
3 143 57 144
3 145 144 56
3 143 144 145
3 146 58 147
3 148 147 57
3 146 147 148
3 149 5 150
3 151 16 152
3 153 152 5
3 151 152 153
3 17 154 156
3 154 16 155
3 154 155 156
3 17 6 16
3 18 19 7
3 157 19 158
3 159 158 18
3 157 158 159
3 160 9 161
3 162 161 19
3 160 161 162
3 164 163 9
3 20 21 11
3 165 21 166
3 167 166 20
3 165 166 167
3 169 168 21
3 22 170 171
3 22 172 174
3 172 12 173
3 172 173 174
3 22 23 12
3 24 23 22
3 24 175 177
3 177 176 23
3 175 176 177
3 178 25 179
3 26 180 182
3 180 25 181
3 180 181 182
3 26 13 25
3 27 183 185
3 183 28 184
3 183 184 185
3 186 28 187
3 188 187 27
3 186 187 188
3 190 189 28
3 29 30 8
3 31 30 29
3 31 191 193
3 193 192 30
3 191 192 193
3 31 194 195
3 32 196 198
3 198 197 31
3 196 197 198
3 32 199 201
3 199 14 200
3 199 200 201
3 32 33 14
3 34 33 32
3 34 202 204
3 204 203 33
3 202 203 204
3 35 205 206
3 35 207 208
3 35 209 211
3 209 36 210
3 209 210 211
3 37 36 35
3 37 15 36
3 212 38 213
3 214 213 10
3 212 213 214
3 215 38 216
3 215 216 217
3 219 218 38
3 220 27 221
3 222 27 223
3 225 224 27
3 39 226 227
3 39 228 229
3 16 39 5
3 230 39 231
3 232 231 16
3 230 231 232
3 234 233 39
3 40 235 236
3 41 237 239
3 239 238 40
3 237 238 239
3 41 240 242
3 240 8 241
3 240 241 242
3 19 41 7
3 42 41 19
3 42 8 41
3 42 29 8
3 43 29 42
3 43 3 29
3 43 44 3
3 243 44 244
3 245 244 43
3 243 244 245
3 247 246 44
3 249 248 9
3 250 4 251
3 252 45 253
3 254 253 4
3 252 253 254
3 255 45 256
3 255 256 257
3 258 10 259
3 260 259 45
3 258 259 260
3 261 10 262
3 264 263 10
3 21 265 267
3 267 266 11
3 265 266 267
3 269 268 21
3 270 0 271
3 272 40 273
3 274 40 275
3 276 7 277
3 278 277 40
3 276 277 278
3 46 279 280
3 46 281 283
3 281 7 282
3 281 282 283
3 46 18 7
3 47 18 46
3 47 1 18
3 47 284 286
3 286 285 1
3 284 285 286
3 48 287 289
3 289 288 47
3 287 288 289
3 48 290 291
3 23 48 12
3 292 48 293
3 294 293 23
3 292 293 294
3 296 295 48
3 297 24 298
3 299 24 300
3 302 301 24
3 303 11 304
3 25 305 306
3 49 307 309
3 309 308 25
3 307 308 309
3 49 310 312
3 310 11 311
3 310 311 312
3 49 20 11
3 50 20 49
3 50 2 20
3 28 313 314
3 316 315 28
3 317 0 318
3 30 319 321
3 321 320 8
3 319 320 321
3 323 322 30
3 51 324 325
3 51 326 328
3 326 0 327
3 326 327 328
3 51 17 0
3 52 17 51
3 52 6 17
3 33 52 14
3 53 52 33
3 53 6 52
3 53 329 331
3 331 330 6
3 329 330 331
3 333 332 53
3 44 34 3
3 334 34 335
3 336 335 44
3 334 335 336
3 338 337 34
3 36 339 340
3 342 341 36
3 54 343 344
3 54 345 346
3 45 37 4
3 55 37 45
3 55 15 37
3 38 55 10
3 56 55 38
3 56 15 55
3 56 54 15
3 57 54 56
3 57 347 349
3 349 348 54
3 347 348 349
3 57 350 352
3 350 26 351
3 350 351 352
3 58 26 57
3 58 13 26
3 353 58 354
3 355 58 356
3 357 13 358
3 359 358 58
3 357 358 359
3 360 50 361
3 362 361 13
3 360 361 362
3 363 50 364
3 365 2 366
3 367 366 50
3 365 366 367
3 369 368 1
3 370 2 371
3 370 371 372
3 374 373 2
