ply
format ascii 1.0
element vertex 165
property float x
property float y
property float z
element face 131
property list uchar int vertex_index
end_header
-12.786459 85.963272 -13.172527
-10.97521 88.365204 -0.395224
-16.539009 79.116287 -21.887619
-21.549538 80.398224 -17.445999
-14.451715 83.260864 -18.195358
-11.671747 87.604385 -7.131792
-15.950333 84.658081 -13.290766
-16.89053 83.454315 -15.729008
-13.552179 84.767838 -15.833336
-11.287268 88.096466 -3.834021
-19.046463 79.993408 -19.700211
-22.718832 78.414185 -19.130569
-20.182251 77.649734 -21.193764
-21.304775 74.896332 -22.367092
-17.650494 76.435562 -23.19746
-20.402431 81.968811 -15.465078
-17.935179 81.918121 -17.874786
-15.459559 81.389496 -20.220814
-18.342806 84.09407 -10.706007
-15.139723 85.591324 -10.596264
-14.465956 86.303818 -7.683193
-12.162998 86.8974 -10.257421
-26.372671 76.678162 -18.591518
-12.07218 82.54776 -20.598133
-12.22248 87.757149 -0.865161
-12.031707 87.815026 0.82536
-11.131239 88.230835 -2.114622
-12.378508 87.62278 -2.58456
-12.22248 87.757149 -0.865161
-9.951469 88.6661 -1.6137
-10.107498 88.531731 -3.333099
-11.131239 88.230835 -2.114622
-19.861784 82.573341 -14.336867
-21.59969 81.782287 -14.227072
-17.916591 84.437981 -9.3473
-19.507753 83.62693 -9.392957
-16.31505 85.186608 -9.292428
-16.741264 84.842697 -10.651135
-17.916591 84.437981 -9.3473
-13.068852 86.954102 -7.407493
-14.191914 86.563149 -6.134721
-12.794809 87.213432 -5.85902
-10.581606 87.745155 -8.394545
-10.827231 87.391662 -9.95736
-11.917372 87.250892 -8.694607
-23.367103 79.567077 -17.217371
-22.763915 80.38018 -16.280707
-25.120945 76.339241 -19.552692
-24.545752 77.546174 -18.861044
-23.294026 77.207253 -19.822218
-26.939433 75.435425 -19.256363
-25.120945 76.339241 -19.552692
-21.845687 73.340637 -22.812451
-20.0321 74.138787 -23.273518
-10.9454 81.921135 -21.75759
-10.536157 82.968345 -20.668761
-12.559204 81.450836 -21.547766
-10.9454 81.921135 -21.75759
-16.420431 84.056198 -14.509887
-18.105833 83.316093 -14.468832
-17.635734 83.917976 -13.249711
-12.602569 87.459473 -4.210135
-12.378508 87.62278 -2.58456
-11.479508 87.850426 -5.482907
-12.794809 87.213432 -5.85902
-12.602569 87.459473 -4.210135
-10.229219 88.321083 -5.0774
-10.421459 88.075042 -6.726285
-11.479508 87.850426 -5.482907
-10.229219 88.321083 -5.0774
-10.107498 88.531731 -3.333099
-22.025735 76.825027 -20.853815
-23.294026 77.207253 -19.822218
-21.450541 78.031959 -20.162167
-20.743513 76.273033 -21.780428
-22.586997 75.448326 -21.440479
-22.025735 76.825027 -20.853815
-18.20496 74.908401 -23.688702
-20.0321 74.138787 -23.273518
-19.477635 75.665947 -22.782276
-10.837681 88.376404 1.382707
-12.031707 87.815026 0.82536
-9.849394 88.751107 0.191783
-10.837681 88.376404 1.382707
-22.190362 81.165474 -15.290246
-21.59969 81.782287 -14.227072
-20.975984 81.183517 -16.455538
-22.763915 80.38018 -16.280707
-22.190362 81.165474 -15.290246
-18.64648 82.711563 -15.597043
-19.861784 82.573341 -14.336867
-18.105833 83.316093 -14.468832
-11.640629 85.892342 -14.440514
-11.355277 86.474106 -12.987496
-20.013246 83.298889 -10.670466
-19.507753 83.62693 -9.392957
-18.831971 83.635971 -11.957331
-20.013246 83.298889 -10.670466
-17.146569 84.376075 -11.998386
-17.635734 83.917976 -13.249711
-18.831971 83.635971 -11.957331
-15.617228 85.794929 -6.384642
-14.191914 86.563149 -6.134721
-15.978166 85.542855 -7.835892
-15.617228 85.794929 -6.384642
-14.80284 85.947571 -9.139729
-16.31505 85.186608 -9.292428
-15.978166 85.542855 -7.835892
-11.043546 86.94117 -11.529943
-11.355277 86.474106 -12.987496
-12.474729 86.430336 -11.714974
-11.043546 86.94117 -11.529943
-10.827231 87.391662 -9.95736
-10.581606 87.745155 -8.394545
-10.421459 88.075042 -6.726285
-9.951469 88.6661 -1.6137
-9.849394 88.751107 0.191783
-23.95175 78.575058 -18.059656
-23.367103 79.567077 -17.217371
-22.134185 79.406205 -18.288284
-25.77867 77.707046 -17.790131
-23.95175 78.575058 -18.059656
-24.545752 77.546174 -18.861044
-27.557329 76.806275 -17.578016
-26.963328 77.835159 -16.776629
-25.77867 77.707046 -17.790131
-28.145563 75.7341 -18.362911
-27.557329 76.806275 -17.578016
-28.712325 74.491364 -19.027755
-28.145563 75.7341 -18.362911
-26.939433 75.435425 -19.256363
-23.136959 74.040764 -21.989996
-22.586997 75.448326 -21.440479
-23.136959 74.040764 -21.989996
-21.845687 73.340637 -22.812451
-12.023489 85.294624 -15.770918
-13.169319 85.365555 -14.502931
-11.640629 85.892342 -14.440514
-12.382876 84.562668 -17.078327
-12.023489 85.294624 -15.770918
-10.854186 85.089455 -17.015909
-12.832644 83.809181 -18.259338
-14.001947 84.014351 -17.014347
-12.382876 84.562668 -17.078327
-11.642876 83.452629 -19.460726
-10.536157 82.968345 -20.668761
-13.261947 82.904312 -19.396746
-12.832644 83.809181 -18.259338
-11.642876 83.452629 -19.460726
-14.252893 80.871704 -21.359106
-13.76587 81.968628 -20.409474
-12.559204 81.450836 -21.547766
-14.792618 79.735099 -22.192509
-15.999284 80.252892 -21.054217
-14.252893 80.871704 -21.359106
-15.320099 78.438469 -22.948093
-14.792618 79.735099 -22.192509
-15.875841 77.098107 -23.603014
-17.094752 77.775925 -22.54254
-15.320099 78.438469 -22.948093
-16.425323 75.611053 -24.172846
-15.875841 77.098107 -23.603014
-14.650671 76.273598 -24.5784
-18.20496 74.908401 -23.688702
-16.425323 75.611053 -24.172846
3 0 8 6
3 1 24 25
3 1 26 28
3 26 9 27
3 26 27 28
3 1 29 31
3 31 30 9
3 29 30 31
3 2 12 10
3 2 14 12
3 32 15 33
3 4 16 7
3 4 17 16
3 34 18 35
3 36 19 37
3 38 37 18
3 36 37 38
3 5 39 41
3 39 20 40
3 39 40 41
3 5 21 20
3 5 42 44
3 44 43 21
3 42 43 44
3 3 45 46
3 47 22 48
3 49 48 11
3 47 48 49
3 51 50 22
3 53 52 13
3 54 23 55
3 57 56 23
3 6 58 60
3 58 7 59
3 58 59 60
3 8 7 6
3 8 4 7
3 9 61 62
3 9 63 65
3 63 5 64
3 63 64 65
3 9 66 68
3 68 67 5
3 66 67 68
3 70 69 9
3 10 11 3
3 12 11 10
3 12 71 73
3 73 72 11
3 71 72 73
3 12 74 76
3 74 13 75
3 74 75 76
3 14 13 12
3 14 77 79
3 79 78 13
3 77 78 79
3 80 1 81
3 83 82 1
3 15 84 85
3 15 86 88
3 86 3 87
3 86 87 88
3 7 89 91
3 89 15 90
3 89 90 91
3 16 15 7
3 16 3 15
3 16 10 3
3 17 10 16
3 17 2 10
3 93 92 0
3 18 94 95
3 18 96 97
3 18 98 100
3 98 6 99
3 98 99 100
3 19 6 18
3 19 0 6
3 20 101 102
3 20 103 104
3 20 105 107
3 105 19 106
3 105 106 107
3 21 19 20
3 21 0 19
3 21 108 110
3 110 109 0
3 108 109 110
3 112 111 21
3 114 113 5
3 116 115 1
3 11 117 119
3 119 118 3
3 117 118 119
3 22 120 122
3 122 121 11
3 120 121 122
3 22 123 125
3 123 124 125
3 22 126 127
3 130 129 22
3 128 129 130
3 13 131 132
3 134 133 13
3 135 8 136
3 137 136 0
3 135 136 137
3 138 8 139
3 138 139 140
3 141 4 142
3 143 142 8
3 141 142 143
3 23 144 145
3 23 146 148
3 146 4 147
3 146 147 148
3 23 17 4
3 149 17 150
3 151 150 23
3 149 150 151
3 152 2 153
3 154 153 17
3 152 153 154
3 155 2 156
3 157 14 158
3 159 158 2
3 157 158 159
3 160 14 161
3 160 161 162
3 164 163 14
