ply
format ascii 1.0
element vertex 130
property float x
property float y
property float z
element face 106
property list uchar int vertex_index
end_header
-25.23595 -8.86697 72.710938
-31.487209 -13.62298 75.259018
-22.424364 -12.293877 77.155319
-23.817635 -16.531656 79.489449
-27.040215 -13.06997 76.180862
-36.163624 -10.973952 71.169861
-32.266926 -10.058258 71.931358
-29.942276 -15.286181 76.771294
-29.326633 -13.350655 75.742516
-27.75596 -15.051201 77.386292
-25.478325 -14.786103 77.960495
-34.812237 -12.430641 73.007996
-32.947277 -12.014906 73.520218
-33.422012 -13.942514 74.670479
-23.848795 -10.57857 74.973816
-22.955879 -8.269276 73.193985
-27.601908 -9.329688 72.383926
-30.81731 -11.686935 73.896088
-28.527184 -11.378008 74.214355
-26.176245 -11.026083 74.551384
-24.715666 -12.731799 76.634018
-23.182068 -14.455084 78.538986
-35.971655 -9.958907 70.433266
-35.26374 -10.715465 71.402515
-33.315392 -10.257618 71.783264
-32.993126 -9.260148 70.937603
-28.019599 -16.02705 77.696022
-28.849118 -15.168691 77.078793
-29.112756 -16.14454 77.388523
-26.918117 -15.919877 78.077481
-28.019599 -16.02705 77.696022
-24.770556 -7.700956 71.794739
-25.934649 -8.0085 71.594093
-34.920542 -13.403064 73.465851
-35.566271 -12.717927 72.647042
-34.22543 -14.159 74.297092
-34.117125 -13.186577 73.839237
-34.920542 -13.403064 73.465851
-22.01735 -11.144352 76.344234
-22.729565 -10.286698 75.253483
-23.136579 -11.436224 76.064568
-22.935209 -17.422764 80.114037
-22.684786 -16.369153 79.845158
-28.789606 -9.517883 72.267296
-28.320341 -8.483153 71.311394
-22.684786 -16.369153 79.845158
-22.367002 -15.330867 79.369926
-23.499851 -15.49337 79.014218
-22.537206 -7.010813 72.343148
-21.886377 -7.8867 73.53386
-21.322404 -12.0084 77.470684
-21.674591 -13.159427 78.159191
-36.839037 -10.26893 70.210872
-36.874571 -11.321712 70.81258
-36.839037 -10.26893 70.210872
-35.971655 -9.958907 70.433266
-25.187324 -17.675456 79.31723
-24.056005 -17.547007 79.67762
-24.948954 -16.660105 79.129059
-31.851117 -9.0546 71.011253
-32.993126 -9.260148 70.937603
-31.122115 -9.882169 72.041011
-31.851117 -9.0546 71.011253
-25.779299 -15.787328 78.364582
-26.617142 -14.918652 77.673394
-26.918117 -15.919877 78.077481
-24.948954 -16.660105 79.129059
-24.64798 -15.65888 78.724972
-25.779299 -15.787328 78.364582
-36.241964 -11.989583 71.727974
-36.874571 -11.321712 70.81258
-35.487931 -11.702296 72.088929
-36.241964 -11.989583 71.727974
-35.566271 -12.717927 72.647042
-34.588047 -11.44381 72.321583
-35.26374 -10.715465 71.402515
-35.487931 -11.702296 72.088929
-33.879757 -12.222773 73.264107
-33.655567 -11.235942 72.577694
-34.588047 -11.44381 72.321583
-33.550384 -14.879122 74.967228
-34.22543 -14.159 74.297092
-32.685979 -14.735109 75.372028
-33.550384 -14.879122 74.967228
-31.718577 -14.575342 75.666298
-32.454611 -13.782747 74.964748
-32.685979 -14.735109 75.372028
-30.94611 -15.406942 76.422436
-30.714742 -14.45458 76.015156
-31.718577 -14.575342 75.666298
-30.149615 -16.240758 76.971622
-30.94611 -15.406942 76.422436
-29.112756 -16.14454 77.388523
-30.149615 -16.240758 76.971622
-22.283107 -9.132051 74.363568
-23.402337 -9.423923 74.0839
-22.729565 -10.286698 75.253483
-21.886377 -7.8867 73.53386
-22.283107 -9.132051 74.363568
-22.01735 -11.144352 76.344234
-21.322404 -12.0084 77.470684
-22.935209 -17.422764 80.114037
-24.056005 -17.547007 79.67762
-27.117628 -8.239859 71.430588
-28.320341 -8.483153 71.311394
-26.418929 -9.098329 72.547432
-25.934649 -8.0085 71.594093
-27.117628 -8.239859 71.430588
-32.607101 -11.036582 72.725788
-33.315392 -10.257618 71.783264
-33.655567 -11.235942 72.577694
-30.397307 -10.696507 73.023377
-31.122115 -9.882169 72.041011
-31.542118 -10.872597 72.913723
-29.252244 -10.542044 73.18251
-30.397307 -10.696507 73.023377
-29.672247 -11.532471 74.055222
-28.064546 -10.353848 73.29914
-28.789606 -9.517883 72.267296
-29.252244 -10.542044 73.18251
-22.053443 -14.240031 78.851024
-21.674591 -13.159427 78.159191
-22.803216 -13.374481 77.847152
-22.053443 -14.240031 78.851024
-22.367002 -15.330867 79.369926
-23.63052 -7.402108 72.036262
-24.770556 -7.700956 71.794739
-24.095914 -8.568123 72.952461
-23.63052 -7.402108 72.036262
-22.537206 -7.010813 72.343148
3 23 22 5
3 24 6 25
3 26 9 27
3 28 27 7
3 26 27 28
3 30 29 9
3 0 31 32
3 33 11 34
3 35 13 36
3 37 36 11
3 35 36 37
3 2 38 40
3 40 39 14
3 38 39 40
3 3 41 42
3 43 16 44
3 1 17 12
3 4 18 8
3 4 19 18
3 4 20 19
3 3 21 10
3 3 45 47
3 47 46 21
3 45 46 47
3 49 48 15
3 51 50 2
3 5 52 53
3 55 54 5
3 58 57 3
3 56 57 58
3 6 59 60
3 6 61 62
3 7 8 1
3 9 8 7
3 9 4 8
3 9 10 4
3 63 10 64
3 65 64 9
3 63 64 65
3 66 3 67
3 68 67 10
3 66 67 68
3 69 5 70
3 11 71 73
3 71 5 72
3 71 72 73
3 11 74 76
3 76 75 5
3 74 75 76
3 11 77 79
3 77 12 78
3 77 78 79
3 13 12 11
3 13 1 12
3 80 13 81
3 82 13 83
3 84 1 85
3 86 85 13
3 84 85 86
3 87 7 88
3 89 88 1
3 87 88 89
3 90 7 91
3 93 92 7
3 14 15 0
3 94 15 95
3 96 95 14
3 94 95 96
3 98 97 15
3 100 99 2
3 102 101 3
3 16 103 104
3 16 105 107
3 105 0 106
3 105 106 107
3 12 108 110
3 108 6 109
3 108 109 110
3 17 6 12
3 17 111 113
3 113 112 6
3 111 112 113
3 8 17 1
3 18 17 8
3 18 114 116
3 116 115 17
3 114 115 116
3 18 117 119
3 117 16 118
3 117 118 119
3 19 16 18
3 19 0 16
3 19 14 0
3 20 14 19
3 20 2 14
3 10 20 4
3 21 20 10
3 21 2 20
3 21 120 122
3 122 121 2
3 120 121 122
3 124 123 21
3 15 125 127
3 127 126 0
3 125 126 127
3 129 128 15
