ply
format ascii 1.0
element vertex 283
property float x
property float y
property float z
element face 249
property list uchar int vertex_index
end_header
57.118088 21.557362 12.451482
56.090893 16.77103 18.7694
57.374821 13.136543 26.880898
49.82391 14.198208 36.610695
52.407539 21.35136 19.984167
51.627907 18.565186 23.573189
56.403816 14.884102 22.706341
51.962898 16.098511 27.592045
52.059422 11.319004 40.769127
55.114471 11.235775 35.914516
56.863907 30.349213 11.538561
55.742085 27.469574 14.118795
53.990852 24.39526 16.874199
56.444424 19.014748 15.312115
53.313007 13.763206 31.808084
58.622139 11.110453 30.974552
57.487854 24.182434 10.19205
49.659309 20.795052 24.039885
49.404587 19.310081 25.920404
51.651665 17.298092 25.539959
50.740456 11.522957 43.199059
54.118267 18.947491 19.348179
54.533234 20.248672 17.644424
56.198067 17.846214 16.970533
58.218216 14.777145 18.273645
56.822201 14.01693 24.783215
58.922745 13.282055 22.292553
59.948051 11.741779 26.435162
51.466057 13.963013 34.215347
57.488129 9.883509 35.384319
56.827503 11.222994 33.462395
56.350891 24.476353 13.304847
56.855282 25.893425 12.078945
57.385498 22.874371 11.24983
51.889194 19.916534 21.717022
53.903976 17.735302 21.181456
56.155922 15.789745 20.690254
53.921436 16.612503 23.129665
54.178017 15.560921 25.167294
54.655525 14.544777 27.259621
49.599976 13.042786 41.141945
50.950592 12.778402 38.721008
52.492355 12.632843 36.310867
53.518593 11.241228 38.344437
57.153107 28.588223 9.872414
54.894638 25.944653 15.463963
55.731445 23.04248 14.631434
53.132004 22.853348 18.374012
55.095535 21.62265 16.073971
56.775551 20.260578 13.804646
58.513084 14.007885 20.247999
52.535545 14.934158 29.694618
55.308517 13.516113 29.366337
54.209206 12.54257 33.893112
56.064392 12.423723 31.446346
58.001728 12.185295 28.95764
60.447151 10.807039 28.452972
57.14909 27.268978 10.938694
48.383737 19.665218 27.076033
48.48703 20.467337 26.119329
49.441243 18.607273 26.914048
48.383737 19.665218 27.076033
57.068905 16.198652 17.586635
57.122492 16.736244 16.687202
56.14448 17.308622 17.869967
57.154555 15.774088 18.521522
58.132566 15.201709 17.338757
57.068905 16.198652 17.586635
58.396206 12.841815 25.624737
58.119896 13.282008 24.575896
57.098511 13.576736 25.832057
58.661436 12.439161 26.65803
59.682821 12.144433 25.401869
58.396206 12.841815 25.624737
48.574699 15.114818 36.735361
49.12098 14.367646 37.814125
49.315794 14.901522 35.54097
48.574699 15.114818 36.735361
50.644983 14.08061 35.413021
50.136868 14.783925 34.343296
49.315794 14.901522 35.54097
58.314793 9.87876 34.142044
58.475333 9.170986 35.047739
56.91876 31.014885 10.909652
56.721012 31.869947 11.700523
57.008507 29.468718 10.705488
57.063361 30.13439 10.076579
56.91876 31.014885 10.909652
54.442745 25.169956 16.169081
54.018399 26.621662 16.54119
53.566505 25.846966 17.246308
52.769772 22.102354 19.179089
52.082812 23.417467 19.504013
51.720579 22.666473 20.30909
57.224289 18.314763 14.200962
57.389853 18.937677 13.447228
56.609988 19.637663 14.558381
59.880855 12.78369 21.072366
60.127623 12.483891 22.086731
52.924276 14.348682 30.751351
51.548136 15.097969 30.893019
51.936867 14.512493 31.949752
56.085875 28.206555 13.467285
55.499014 28.98261 14.441841
57.416195 24.82082 9.729659
57.246813 26.364092 10.102981
57.318472 25.725706 10.565372
48.614391 21.209822 25.179069
48.88728 22.048159 24.279823
49.531948 20.052566 24.980145
48.614391 21.209822 25.179069
48.48703 20.467337 26.119329
50.564782 17.601278 26.723826
50.528126 18.304087 25.730182
49.441243 18.607273 26.914048
50.720398 17.001488 27.749868
51.807282 16.698301 26.566002
50.564782 17.601278 26.723826
51.224239 10.737359 44.177235
50.144772 11.697861 44.415594
51.87867 10.659838 42.961563
51.224239 10.737359 44.177235
52.538153 10.557861 41.746598
51.399939 11.42098 41.984093
51.87867 10.659838 42.961563
53.715645 9.781152 41.505358
53.236914 10.542295 40.527887
52.538153 10.557861 41.746598
56.461888 31.16789 12.432758
56.721012 31.869947 11.700523
53.013908 25.017368 17.981959
53.566505 25.846966 17.246308
57.092411 17.209364 15.81923
57.21559 17.793631 14.990022
56.321246 18.430481 16.141324
57.092411 17.209364 15.81923
57.122492 16.736244 16.687202
59.098064 14.154007 17.123275
58.132566 15.201709 17.338757
59.298538 13.830301 18.072097
59.098064 14.154007 17.123275
59.170168 12.914571 23.330565
57.872473 13.649493 23.537884
58.119896 13.282008 24.575896
60.127623 12.483891 22.086731
59.170168 12.914571 23.330565
60.882591 11.382488 25.176701
59.682821 12.144433 25.401869
61.092522 10.988508 26.180649
60.882591 11.382488 25.176701
51.013391 14.612396 33.153383
50.136868 14.783925 34.343296
52.389532 13.86311 33.011716
51.936867 14.512493 31.949752
51.013391 14.612396 33.153383
57.98448 10.548502 33.181082
57.157816 10.553252 34.423357
58.314793 9.87876 34.142044
58.881798 10.492231 31.93716
57.724821 11.166723 32.218474
57.98448 10.548502 33.181082
59.729114 10.403723 30.681606
58.881798 10.492231 31.93716
51.312889 21.854525 21.131369
51.720579 22.666473 20.30909
49.938774 21.57637 23.159229
48.88728 22.048159 24.279823
51.053717 21.137111 21.997797
49.938774 21.57637 23.159229
50.774252 20.355793 22.878453
52.148367 20.633947 20.850594
51.312889 21.854525 21.131369
51.053717 21.137111 21.997797
49.587876 12.49089 43.39016
50.144772 11.697861 44.415594
49.017635 13.250805 42.361603
49.587876 12.49089 43.39016
50.170216 12.282871 42.170502
48.426741 14.032684 41.296425
49.017635 13.250805 42.361603
49.009012 13.789935 40.07975
48.426741 14.032684 41.296425
49.68432 13.657743 38.869281
49.009012 13.789935 40.07975
50.275284 12.910594 39.931477
50.387251 13.488305 37.665852
49.12098 14.367646 37.814125
49.68432 13.657743 38.869281
53.966499 10.503407 39.315542
52.789007 11.280116 39.556782
53.236914 10.542295 40.527887
54.712609 10.52956 38.093787
53.966499 10.503407 39.315542
55.510548 10.526834 36.878826
54.316532 11.238501 37.129476
54.712609 10.52956 38.093787
56.697377 9.850701 36.613727
56.3013 10.559642 35.649417
55.510548 10.526834 36.878826
57.712029 9.137773 36.287344
56.697377 9.850701 36.613727
58.475333 9.170986 35.047739
57.712029 9.137773 36.287344
56.984354 29.218113 9.373006
57.063361 30.13439 10.076579
57.025013 27.640491 9.167706
56.984354 29.218113 9.373006
57.579803 20.735878 11.462629
57.581846 20.147297 12.069663
54.996069 28.198093 15.153083
55.499014 28.98261 14.441841
54.572345 27.435633 15.825667
54.018399 26.621662 16.54119
55.318362 26.707113 14.791379
54.996069 28.198093 15.153083
54.572345 27.435633 15.825667
52.584484 24.246412 18.731865
52.082812 23.417467 19.504013
53.561428 23.624304 17.624105
53.013908 25.017368 17.981959
52.584484 24.246412 18.731865
57.410578 19.498905 12.746245
57.581846 20.147297 12.069663
56.94682 20.90897 13.128064
58.024879 18.176004 12.388827
57.410578 19.498905 12.746245
57.389853 18.937677 13.447228
57.224289 18.314763 14.200962
57.21559 17.793631 14.990022
59.445972 13.445671 19.059275
59.298538 13.830301 18.072097
58.36565 14.392515 19.260822
59.676025 13.146605 20.050089
58.717914 13.64497 21.270276
59.880855 12.78369 21.072366
60.608913 12.584391 18.861365
59.445972 13.445671 19.059275
59.676025 13.146605 20.050089
50.919024 16.331305 28.784113
50.720398 17.001488 27.749868
51.205347 15.749128 29.8354
51.548136 15.097969 30.893019
52.249222 15.516334 28.643331
50.919024 16.331305 28.784113
51.205347 15.749128 29.8354
61.342072 10.521138 27.189554
61.092522 10.988508 26.180649
60.197601 11.274409 27.444067
60.641621 10.252016 29.420816
59.534645 10.958746 29.713762
59.729114 10.403723 30.681606
61.487384 10.038314 28.161863
60.641621 10.252016 29.420816
61.342072 10.521138 27.189554
61.487384 10.038314 28.161863
56.646786 29.646374 12.177168
56.461888 31.16789 12.432758
56.642474 27.41848 12.44736
56.085875 28.206555 13.467285
56.298684 26.6815 13.09887
56.789378 28.106257 11.877235
56.642474 27.41848 12.44736
57.002186 26.581201 11.508819
57.006498 28.809095 11.238627
56.646786 29.646374 12.177168
56.789378 28.106257 11.877235
57.248821 27.023714 9.569841
57.151099 27.928601 10.405554
57.246813 26.364092 10.102981
57.025013 27.640491 9.167706
57.248821 27.023714 9.569841
57.713509 21.394382 10.861803
57.251793 22.215867 11.850656
57.579803 20.735878 11.462629
57.649681 21.995696 10.350713
57.713509 21.394382 10.861803
57.700859 22.649727 9.821822
57.436676 23.528402 10.72094
57.649681 21.995696 10.350713
57.537538 23.250262 9.404439
57.700859 22.649727 9.821822
57.416195 24.82082 9.729659
57.537538 23.250262 9.404439
3 58 18 59
3 61 60 18
3 1 23 21
3 1 62 64
3 64 63 23
3 62 63 64
3 1 65 67
3 65 24 66
3 65 66 67
3 2 68 70
3 70 69 25
3 68 69 70
3 2 71 73
3 71 27 72
3 71 72 73
3 3 74 75
3 3 76 77
3 3 78 80
3 78 28 79
3 78 79 80
3 82 81 29
3 0 33 31
3 5 34 17
3 5 35 34
3 5 37 35
3 7 38 19
3 7 39 38
3 8 40 20
3 8 41 40
3 8 43 41
3 10 83 84
3 10 85 87
3 85 44 86
3 85 86 87
3 12 88 90
3 88 45 89
3 88 89 90
3 12 46 45
3 4 91 93
3 91 47 92
3 91 92 93
3 13 48 22
3 13 49 48
3 13 94 96
3 96 95 49
3 94 95 96
3 6 50 36
3 98 97 26
3 14 99 101
3 99 51 100
3 99 100 101
3 14 52 51
3 9 53 42
3 15 54 30
3 15 55 54
3 15 56 55
3 11 102 103
3 16 57 32
3 16 104 106
3 106 105 57
3 104 105 106
3 107 17 108
3 18 109 111
3 109 17 110
3 109 110 111
3 18 5 17
3 18 19 5
3 112 19 113
3 114 113 18
3 112 113 114
3 115 7 116
3 117 116 19
3 115 116 117
3 118 20 119
3 120 20 121
3 122 8 123
3 124 123 20
3 122 123 124
3 127 126 8
3 125 126 127
3 128 10 129
3 130 12 131
3 21 22 4
3 23 22 21
3 23 13 22
3 23 132 134
3 134 133 13
3 132 133 134
3 136 135 23
3 24 137 138
3 24 139 140
3 25 26 6
3 141 26 142
3 143 142 25
3 141 142 143
3 145 144 26
3 27 146 147
3 27 148 149
3 28 150 151
3 28 152 154
3 152 14 153
3 152 153 154
3 29 30 9
3 155 30 156
3 157 156 29
3 155 156 157
3 158 15 159
3 160 159 30
3 158 159 160
3 162 161 15
3 31 32 11
3 33 32 31
3 33 16 32
3 163 4 164
3 17 165 166
3 34 167 169
3 169 168 17
3 167 168 169
3 34 170 172
3 170 4 171
3 170 171 172
3 34 21 4
3 35 21 34
3 35 1 21
3 35 36 1
3 37 36 35
3 37 6 36
3 19 37 5
3 38 37 19
3 38 6 37
3 38 25 6
3 39 25 38
3 39 2 25
3 20 173 174
3 40 175 177
3 177 176 20
3 175 176 177
3 40 178 179
3 40 180 181
3 41 182 184
3 184 183 40
3 182 183 184
3 41 185 187
3 185 3 186
3 185 186 187
3 41 42 3
3 43 42 41
3 43 9 42
3 188 43 189
3 190 189 8
3 188 189 190
3 191 43 192
3 193 9 194
3 195 194 43
3 193 194 195
3 196 29 197
3 198 197 9
3 196 197 198
3 199 29 200
3 202 201 29
3 44 203 204
3 44 205 206
3 208 207 0
3 209 11 210
3 45 211 212
3 45 213 215
3 213 11 214
3 213 214 215
3 45 31 11
3 46 31 45
3 46 0 31
3 47 216 217
3 47 218 220
3 218 12 219
3 218 219 220
3 22 47 4
3 48 47 22
3 48 12 47
3 48 46 12
3 49 46 48
3 49 0 46
3 49 221 223
3 223 222 0
3 221 222 223
3 226 225 49
3 224 225 226
3 228 227 13
3 36 24 1
3 50 24 36
3 50 229 231
3 231 230 24
3 229 230 231
3 26 50 6
3 232 50 233
3 234 233 26
3 232 233 234
3 237 236 50
3 235 236 237
3 238 7 239
3 51 240 241
3 51 242 244
3 242 7 243
3 242 243 244
3 51 39 7
3 52 39 51
3 52 2 39
3 42 28 3
3 53 28 42
3 53 14 28
3 30 53 9
3 54 53 30
3 54 14 53
3 54 52 14
3 55 52 54
3 55 2 52
3 55 27 2
3 56 27 55
3 56 245 247
3 247 246 27
3 245 246 247
3 248 56 249
3 250 249 15
3 248 249 250
3 251 56 252
3 254 253 56
3 255 10 256
3 32 257 259
3 259 258 11
3 257 258 259
3 57 260 262
3 262 261 32
3 260 261 262
3 57 263 265
3 263 10 264
3 263 264 265
3 57 44 10
3 266 44 267
3 268 267 57
3 266 267 268
3 270 269 44
3 271 33 272
3 273 272 0
3 271 272 273
3 274 33 275
3 276 16 277
3 278 277 33
3 276 277 278
3 279 16 280
3 282 281 16
