ply
format ascii 1.0
element vertex 205
property float x
property float y
property float z
element face 193
property list uchar int vertex_index
end_header
67.418236 -41.001617 40.831326
65.543945 -47.186951 43.843513
68.462013 -47.725018 33.028332
66.661713 -39.7187 45.150414
65.408424 -50.937737 39.73238
67.288925 -47.655273 38.712418
66.318848 -38.376892 38.336872
67.213112 -42.071178 35.866119
65.26059 -42.95974 46.944298
67.107109 -43.927689 42.664188
68.077927 -44.6866 37.457523
68.461357 -45.012093 31.885984
65.828697 -39.068138 46.912815
64.320404 -52.651073 40.17709
65.117126 -52.608929 37.57122
66.210106 -50.928032 37.025192
67.130577 -38.957787 41.869316
66.762451 -37.617584 40.450821
67.027351 -39.662712 39.665604
66.685371 -40.307762 37.330692
67.406731 -41.581264 38.402138
64.491226 -48.900688 44.206299
64.403229 -46.841713 45.982742
64.226929 -44.677998 47.458591
65.444351 -45.124802 45.57502
66.304138 -43.460434 44.960857
66.447281 -45.521988 43.333298
67.934532 -47.750687 35.901333
67.868835 -46.125244 38.119354
68.340134 -46.287766 35.313377
68.319954 -44.919678 34.691483
68.696579 -46.320518 32.460968
68.974548 -46.196892 29.603247
67.184837 -40.370056 43.101704
65.540413 -49.128246 41.857506
66.499725 -47.461445 41.389122
66.432076 -49.265511 39.247372
67.827431 -49.222767 33.606277
65.654709 -39.067627 36.11515
66.18338 -40.854805 34.902863
66.909363 -42.434044 33.260979
65.006577 -40.716835 47.874054
66.092789 -41.299271 46.173016
66.903015 -41.870934 44.135262
67.445335 -42.41954 41.830883
67.247917 -45.861477 40.818634
67.687706 -44.345234 40.136784
67.749092 -42.920345 39.334488
67.860657 -43.339684 36.712219
67.837036 -43.641197 34.015129
67.739113 -43.791267 31.278351
68.549881 -44.936024 29.071657
65.261421 -38.746299 47.624876
65.675869 -37.932867 47.046425
64.875476 -53.373373 36.511261
64.55981 -53.467055 37.841003
65.457832 -52.527867 36.19568
64.875476 -53.373373 36.511261
68.679824 -47.63995 31.587122
68.797108 -46.9377 31.30344
68.579296 -47.022768 32.74465
66.797245 -38.97389 44.521275
66.5299 -38.611492 45.414642
66.923275 -40.044378 44.126059
67.058807 -39.299568 43.49692
66.797245 -38.97389 44.521275
64.940399 -50.8891 40.984515
64.396389 -51.745767 41.206869
64.864414 -51.794405 39.954735
65.474418 -50.032991 40.794943
65.006394 -49.984354 42.047078
64.940399 -50.8891 40.984515
66.698719 -50.115156 36.74736
66.554806 -50.865147 35.614364
67.363469 -50.012514 33.904907
67.507382 -49.262524 35.037903
67.661407 -49.885271 32.473091
67.363469 -50.012514 33.904907
66.229294 -37.347759 38.600069
66.451096 -36.968105 39.657044
66.54065 -37.997238 39.393846
65.846615 -37.742302 37.59536
66.229294 -37.347759 38.600069
65.986778 -38.722259 37.226011
65.514545 -38.08767 36.484499
65.846615 -37.742302 37.59536
64.617916 -42.694832 47.744137
64.101086 -43.553961 48.001283
64.743759 -43.818869 47.201445
65.133583 -41.838287 47.409176
64.49091 -41.57338 48.209015
64.617916 -42.694832 47.744137
69.091491 -46.046505 28.183971
69.120582 -46.708588 28.445203
66.113392 -38.286211 46.295843
65.675869 -37.932867 47.046425
66.245205 -39.393419 46.031615
66.5299 -38.611492 45.414642
66.113392 -38.286211 46.295843
64.16145 -53.488126 39.143938
63.782066 -53.518516 40.38698
63.623112 -54.35557 39.353828
64.718765 -52.630001 38.874155
64.16145 -53.488126 39.143938
64.55981 -53.467055 37.841003
66.004322 -51.687418 35.922666
65.663616 -51.768481 37.298206
65.457832 -52.527867 36.19568
66.554806 -50.865147 35.614364
66.004322 -51.687418 35.922666
66.946514 -38.287686 41.160068
66.834648 -37.221546 41.435513
67.018711 -37.891648 42.14476
63.878788 -48.743605 45.204258
63.935097 -49.7706 44.325071
63.834789 -47.714117 46.092479
63.878788 -48.743605 45.204258
64.447227 -47.871201 45.094521
63.735138 -46.6346 46.853878
63.834789 -47.714117 46.092479
64.315079 -45.759856 46.720667
63.646988 -45.552742 47.591803
63.735138 -46.6346 46.853878
68.936092 -46.875887 29.874579
68.835564 -46.258705 31.032108
68.797108 -46.9377 31.30344
69.120582 -46.708588 28.445203
68.936092 -46.875887 29.874579
67.031677 -38.593434 42.880726
67.018711 -37.891648 42.14476
67.157707 -39.663922 42.48551
67.031677 -38.593434 42.880726
67.058807 -39.299568 43.49692
63.851261 -52.614023 41.362284
63.782066 -53.518516 40.38698
63.851261 -52.614023 41.362284
64.396389 -51.745767 41.206869
64.4818 -49.870575 43.221474
63.935097 -49.7706 44.325071
65.015819 -49.014467 43.031903
64.4818 -49.870575 43.221474
65.006394 -49.984354 42.047078
66.809704 -49.283895 37.85845
66.321091 -50.096772 38.136282
66.698719 -50.115156 36.74736
67.238129 -48.478777 37.590973
66.860501 -48.460392 38.979895
66.809704 -49.283895 37.85845
67.560932 -48.526483 36.18543
67.611728 -47.70298 37.306876
67.238129 -48.478777 37.590973
67.880982 -48.486727 34.753805
67.560932 -48.526483 36.18543
67.507382 -49.262524 35.037903
68.099881 -49.115602 32.16367
68.417171 -48.366728 31.874698
68.144722 -48.473892 33.317304
68.099881 -49.115602 32.16367
67.661407 -49.885271 32.473091
66.691254 -36.551809 40.605804
66.834648 -37.221546 41.435513
66.691254 -36.551809 40.605804
66.451096 -36.968105 39.657044
65.034923 -38.444813 35.436567
65.514545 -38.08767 36.484499
65.257965 -39.361378 34.963466
65.034923 -38.444813 35.436567
65.522301 -40.254966 34.357323
65.257965 -39.361378 34.963466
65.919044 -39.961216 35.509006
65.894345 -41.061785 33.655457
65.522301 -40.254966 34.357323
66.257336 -41.851404 32.834515
65.894345 -41.061785 33.655457
66.546371 -41.644424 34.081921
66.738358 -42.535742 31.936146
66.257336 -41.851404 32.834515
63.511475 -44.428957 48.188852
63.646988 -45.552742 47.591803
63.511475 -44.428957 48.188852
64.101086 -43.553961 48.001283
64.332958 -40.419548 48.531391
64.49091 -41.57338 48.209015
64.850361 -39.570648 48.105496
64.332958 -40.419548 48.531391
65.417637 -39.892487 47.393434
65.261421 -38.746299 47.624876
64.850361 -39.570648 48.105496
67.153233 -43.214354 30.944832
66.738358 -42.535742 31.936146
67.324238 -43.112656 32.269665
67.681752 -43.776955 29.901064
67.153233 -43.214354 30.944832
68.087136 -44.349333 28.797717
67.681752 -43.776955 29.901064
68.144497 -44.363646 30.175004
68.589031 -44.803511 27.668929
68.087136 -44.349333 28.797717
68.879158 -45.416071 27.918175
68.762214 -45.566458 29.337452
69.091491 -46.046505 28.183971
68.589031 -44.803511 27.668929
68.879158 -45.416071 27.918175
68.679824 -47.63995 31.587122
68.417171 -48.366728 31.874698
3 52 12 53
3 54 14 55
3 57 56 14
3 0 18 16
3 0 20 18
3 1 22 21
3 1 24 22
3 1 26 24
3 2 29 27
3 2 31 29
3 2 58 60
3 60 59 31
3 58 59 60
3 3 61 62
3 3 63 65
3 63 33 64
3 63 64 65
3 4 66 68
3 68 67 13
3 66 67 68
3 4 69 71
3 69 34 70
3 69 70 71
3 4 36 34
3 73 72 15
3 74 37 75
3 77 76 37
3 6 78 80
3 80 79 17
3 78 79 80
3 6 81 82
3 6 83 85
3 83 38 84
3 83 84 85
3 7 39 19
3 7 40 39
3 8 86 88
3 88 87 23
3 86 87 88
3 8 89 91
3 89 41 90
3 89 90 91
3 8 42 41
3 9 43 25
3 9 44 43
3 5 45 35
3 10 46 28
3 10 47 46
3 10 48 47
3 11 49 30
3 11 50 49
3 11 51 50
3 93 92 32
3 12 94 95
3 12 96 98
3 96 3 97
3 96 97 98
3 99 13 100
3 99 100 101
3 14 102 104
3 102 13 103
3 102 103 104
3 14 4 13
3 14 15 4
3 105 15 106
3 107 106 14
3 105 106 107
3 109 108 15
3 16 110 112
3 110 17 111
3 110 111 112
3 18 17 16
3 18 6 17
3 18 19 6
3 20 19 18
3 20 7 19
3 21 113 114
3 22 115 117
3 117 116 21
3 115 116 117
3 22 118 119
3 22 120 122
3 120 23 121
3 120 121 122
3 24 23 22
3 24 8 23
3 24 25 8
3 26 25 24
3 26 9 25
3 27 28 5
3 29 28 27
3 29 10 28
3 29 30 10
3 31 30 29
3 31 11 30
3 31 32 11
3 123 32 124
3 125 124 31
3 123 124 125
3 127 126 32
3 128 16 129
3 33 130 132
3 130 16 131
3 130 131 132
3 33 0 16
3 13 133 134
3 136 135 13
3 137 21 138
3 34 139 141
3 139 21 140
3 139 140 141
3 34 1 21
3 34 35 1
3 36 35 34
3 36 5 35
3 15 36 4
3 142 36 143
3 144 143 15
3 142 143 144
3 145 5 146
3 147 146 36
3 145 146 147
3 148 27 149
3 150 149 5
3 148 149 150
3 37 151 153
3 151 27 152
3 151 152 153
3 37 2 27
3 37 154 156
3 156 155 2
3 154 155 156
3 158 157 37
3 17 159 160
3 162 161 17
3 38 163 164
3 38 165 166
3 19 38 6
3 39 38 19
3 39 167 169
3 169 168 38
3 167 168 169
3 39 170 171
3 40 172 174
3 174 173 39
3 172 173 174
3 40 175 176
3 23 177 178
3 180 179 23
3 41 181 182
3 41 183 184
3 41 185 187
3 185 12 186
3 185 186 187
3 42 12 41
3 42 3 12
3 25 42 8
3 43 42 25
3 43 3 42
3 43 33 3
3 44 33 43
3 44 0 33
3 35 26 1
3 45 26 35
3 45 9 26
3 28 45 5
3 46 45 28
3 46 9 45
3 46 44 9
3 47 44 46
3 47 0 44
3 47 20 0
3 48 20 47
3 48 7 20
3 30 48 10
3 49 48 30
3 49 7 48
3 49 40 7
3 50 40 49
3 50 188 190
3 190 189 40
3 188 189 190
3 50 191 192
3 51 193 195
3 195 194 50
3 193 194 195
3 51 196 197
3 32 51 11
3 198 51 199
3 200 199 32
3 198 199 200
3 202 201 51
3 204 203 2
