ply
format ascii 1.0
element vertex 250
property float x
property float y
property float z
element face 216
property list uchar int vertex_index
end_header
-61.124302 -71.402557 -15.592134
-62.551167 -48.075054 -33.13303
-62.763969 -61.039906 -24.499348
-63.432701 -69.710548 -12.451773
-65.598206 -59.66415 -21.702339
-65.823883 -53.67062 -26.214813
-54.971722 -41.698032 -39.471813
-66.558853 -63.482475 -13.70623
-64.851982 -65.016159 -17.053249
-62.207565 -66.588379 -20.007538
-62.86396 -54.816353 -28.905182
-59.356384 -62.009865 -26.611012
-62.409184 -71.806213 -10.197062
-64.234406 -68.902107 -10.758574
-67.148705 -60.925056 -16.066963
-65.849167 -64.228729 -15.40362
-66.360168 -61.654049 -17.755939
-64.268097 -60.385826 -23.180737
-64.011703 -63.18771 -20.894501
-62.545212 -63.90451 -22.253593
-60.633919 -67.293304 -21.247421
-60.927292 -64.531143 -23.44009
-64.113373 -47.635124 -31.882534
-64.319191 -51.019459 -29.788776
-62.7551 -51.497841 -31.041149
-59.438816 -58.8204 -28.756992
-62.379295 -70.550125 -14.078815
-66.715256 -58.926411 -20.100979
-66.937759 -56.04673 -22.410854
-65.771774 -56.745396 -23.987484
-64.402054 -57.415466 -25.436234
-60.908936 -48.401947 -34.181652
-61.093872 -51.858028 -32.10397
-60.642063 -44.877285 -36.220016
-58.95293 -45.076893 -36.997589
-56.84407 -41.606255 -39.342186
-65.76104 -65.886154 -11.364401
-66.919754 -62.784107 -12.014193
-65.150818 -66.646927 -13.066628
-64.239944 -67.446564 -14.738503
-63.087463 -68.270279 -16.325552
-65.296661 -62.421612 -19.382095
-63.623859 -65.816299 -18.602051
-61.73996 -69.087494 -17.782539
-60.230339 -69.863892 -19.083519
-64.417709 -54.287403 -27.641644
-62.86898 -58.004768 -26.722214
-61.194916 -55.224838 -29.985394
-61.204731 -58.476665 -27.828053
-61.116699 -61.58662 -25.640789
-64.479577 -68.513469 -9.906299
-63.658036 -69.944694 -9.621244
-60.079664 -72.916245 -15.238137
-60.732325 -72.470508 -14.515328
-60.41387 -71.821831 -16.276993
-60.079664 -72.916245 -15.238137
-66.963875 -59.937578 -18.090431
-66.754436 -61.289552 -16.911451
-67.358143 -59.573082 -17.245943
-62.455315 -71.18436 -12.158355
-61.943556 -72.232193 -11.031
-62.920943 -70.758381 -11.324417
-62.905998 -70.130336 -13.265294
-61.928612 -71.604149 -12.971876
-62.455315 -71.18436 -12.158355
-67.473548 -54.213881 -22.714733
-67.392727 -55.709877 -21.581322
-65.797828 -55.208008 -25.101149
-66.405693 -54.88101 -24.323435
-66.431748 -53.343622 -25.4371
-59.274193 -50.356964 -33.987106
-60.131453 -50.249886 -33.574021
-60.051676 -48.509025 -34.594738
-61.259134 -42.943577 -36.721872
-61.450506 -44.724844 -35.705126
-58.782133 -43.282364 -37.964332
-59.617982 -43.18757 -37.60948
-58.067097 -45.137661 -37.2556
-58.782133 -43.282364 -37.964332
-57.727703 -41.547045 -39.136631
-57.012667 -43.402342 -38.427898
-66.902336 -62.45029 -11.192613
-66.465653 -63.9704 -10.849388
-59.609562 -68.934089 -20.738028
-59.782225 -67.600223 -21.786474
-60.315689 -55.365898 -30.432596
-61.144394 -53.541433 -31.044682
-60.265167 -53.682493 -31.491884
-59.271677 -63.52832 -25.535483
-60.151834 -63.316698 -25.050371
-60.236542 -61.798243 -26.125901
-54.167238 -43.548448 -38.649345
-54.340751 -45.343361 -37.803532
-55.145235 -43.492945 -38.625999
-62.745424 -71.396748 -9.340488
-61.787994 -72.770618 -9.083804
-63.321795 -70.35416 -10.477818
-62.745424 -71.396748 -9.340488
-63.658036 -69.944694 -9.621244
-66.423752 -51.756624 -26.522474
-66.431748 -53.343622 -25.4371
-59.928911 -66.219143 -22.882809
-59.782225 -67.600223 -21.786474
-60.780606 -65.912224 -22.343756
-64.216282 -49.327292 -30.835655
-64.946255 -49.063696 -30.126709
-64.843345 -47.371528 -31.173588
-58.519891 -58.937591 -29.143671
-59.437639 -57.163679 -29.818396
-58.518715 -57.28087 -30.205074
-58.477808 -60.571509 -28.096902
-58.519891 -58.937591 -29.143671
-58.436592 -62.166241 -27.023913
-59.3976 -60.415132 -27.684002
-58.477808 -60.571509 -28.096902
-58.35762 -63.733784 -25.976816
-58.436592 -62.166241 -27.023913
-53.983698 -41.75572 -39.416023
-54.721106 -39.879644 -40.270773
-61.392209 -73.203484 -9.937444
-61.787994 -72.770618 -9.083804
-61.392209 -73.203484 -9.937444
-61.943556 -72.232193 -11.031
-61.359821 -72.044292 -13.758669
-61.928612 -71.604149 -12.971876
-61.751798 -70.976341 -14.835475
-60.732325 -72.470508 -14.515328
-61.359821 -72.044292 -13.758669
-67.281475 -57.149718 -20.426384
-67.141419 -58.573759 -19.262951
-66.826507 -57.48657 -21.255916
-67.281475 -57.149718 -20.426384
-67.392727 -55.709877 -21.581322
-66.988686 -54.531677 -23.53512
-67.473548 -54.213881 -22.714733
-66.354766 -56.396063 -23.199169
-66.988686 -54.531677 -23.53512
-66.405693 -54.88101 -24.323435
-60.223921 -51.977926 -32.535179
-61.001404 -50.129987 -33.142811
-60.131453 -50.249886 -33.574021
-60.265167 -53.682493 -31.491884
-60.223921 -51.977926 -32.535179
-64.695839 -45.649604 -32.195265
-64.843345 -47.371528 -31.173588
-63.96076 -45.897655 -32.910274
-64.695839 -45.649604 -32.195265
-63.179657 -46.117621 -33.535522
-63.33227 -47.855089 -32.507782
-63.96076 -45.897655 -32.910274
-62.405058 -46.323729 -34.161632
-63.179657 -46.117621 -33.535522
-61.583942 -46.487175 -34.685944
-61.730052 -48.238501 -33.657341
-62.405058 -46.323729 -34.161632
-60.775499 -46.639616 -35.200834
-61.583942 -46.487175 -34.685944
-61.450506 -44.724844 -35.705126
-59.918239 -46.746695 -35.61392
-60.051676 -48.509025 -34.594738
-60.775499 -46.639616 -35.200834
-60.462549 -43.087767 -37.220693
-61.259134 -42.943577 -36.721872
-59.797497 -44.977089 -36.608802
-60.462549 -43.087767 -37.220693
-59.617982 -43.18757 -37.60948
-59.073673 -46.846498 -36.002707
-59.918239 -46.746695 -35.61392
-59.797497 -44.977089 -36.608802
-58.180292 -46.910601 -36.30265
-58.301035 -48.680206 -35.307768
-59.073673 -46.846498 -36.002707
-57.294459 -46.971368 -36.560661
-58.180292 -46.910601 -36.30265
-58.067097 -45.137661 -37.2556
-56.081409 -43.447056 -38.561186
-57.012667 -43.402342 -38.427898
-55.907896 -41.652143 -39.406999
-55.145235 -43.492945 -38.625999
-56.081409 -43.447056 -38.561186
-57.49048 -39.729619 -40.074247
-57.727703 -41.547045 -39.136631
-56.602264 -39.78688 -40.216888
-57.49048 -39.729619 -40.074247
-55.66609 -39.832769 -40.281702
-55.907896 -41.652143 -39.406999
-56.602264 -39.78688 -40.216888
-54.721106 -39.879644 -40.270773
-55.66609 -39.832769 -40.281702
-65.886295 -65.521423 -10.524493
-65.242893 -67.005493 -10.209212
-66.340397 -64.335131 -11.689297
-65.886295 -65.521423 -10.524493
-66.465653 -63.9704 -10.849388
-67.292259 -61.211486 -12.357788
-66.902336 -62.45029 -11.192613
-67.260407 -61.519521 -13.190778
-67.292259 -61.211486 -12.357788
-67.079956 -61.868706 -14.036796
-66.739304 -63.133291 -12.860212
-67.260407 -61.519521 -13.190778
-67.374882 -60.589996 -15.217163
-66.853779 -62.203766 -14.886596
-67.079956 -61.868706 -14.036796
-67.621693 -59.252668 -16.395685
-67.374882 -60.589996 -15.217163
-67.358143 -59.573082 -17.245943
-67.621693 -59.252668 -16.395685
-64.997723 -67.394131 -11.061488
-64.479577 -68.513469 -9.906299
-65.242893 -67.005493 -10.209212
-66.537712 -60.29023 -18.928459
-66.963875 -59.937578 -18.090431
-67.141419 -58.573759 -19.262951
-60.721699 -70.664299 -17.372196
-60.41387 -71.821831 -16.276993
-61.432131 -70.245025 -16.687337
-59.966888 -71.052498 -18.022686
-60.721699 -70.664299 -17.372196
-60.98515 -69.475693 -18.433029
-59.186615 -71.453484 -18.633413
-59.966888 -71.052498 -18.022686
-59.407772 -70.219384 -19.656076
-60.432129 -68.578598 -20.16547
-59.609562 -68.934089 -20.738028
-59.186615 -71.453484 -18.633413
-59.407772 -70.219384 -19.656076
-65.790336 -52.061159 -27.293762
-66.423752 -51.756624 -26.522474
-65.037991 -50.735579 -29.080743
-64.946255 -49.063696 -30.126709
-65.087249 -52.369551 -28.007177
-65.037991 -50.735579 -29.080743
-64.36845 -52.653431 -28.71521
-65.120796 -53.979011 -26.928228
-65.790336 -52.061159 -27.293762
-65.087249 -52.369551 -28.007177
-60.316866 -57.022619 -29.371193
-60.315689 -55.365898 -30.432596
-59.437639 -57.163679 -29.818396
-60.057131 -64.78896 -23.950021
-61.021996 -63.058881 -24.54044
-60.151834 -63.316698 -25.050371
-59.928911 -66.219143 -22.882809
-60.057131 -64.78896 -23.950021
-59.271677 -63.52832 -25.535483
-58.35762 -63.733784 -25.976816
-53.179215 -43.606137 -38.593556
-54.167238 -43.548448 -38.649345
-53.983698 -41.75572 -39.416023
3 50 13 51
3 0 52 53
3 0 54 55
3 56 16 57
3 58 57 14
3 56 57 58
3 2 19 17
3 2 21 19
3 1 24 22
3 3 59 61
3 61 60 12
3 59 60 61
3 3 62 64
3 62 26 63
3 62 63 64
3 65 28 66
3 5 67 69
3 67 29 68
3 67 68 69
3 5 30 29
3 72 71 31
3 70 71 72
3 73 33 74
3 75 34 76
3 78 77 34
3 79 35 80
3 81 37 82
3 7 38 36
3 8 39 15
3 8 40 39
3 4 41 27
3 9 42 18
3 9 43 42
3 9 44 43
3 84 83 20
3 10 45 23
3 10 46 45
3 85 47 86
3 87 86 32
3 85 86 87
3 11 48 25
3 11 49 48
3 11 88 90
3 90 89 49
3 88 89 90
3 6 91 93
3 91 92 93
3 94 12 95
3 13 96 98
3 96 12 97
3 96 97 98
3 13 3 12
3 99 5 100
3 14 15 7
3 16 15 14
3 16 8 15
3 17 18 4
3 19 18 17
3 19 9 18
3 19 20 9
3 21 20 19
3 21 101 103
3 103 102 20
3 101 102 103
3 22 104 106
3 104 23 105
3 104 105 106
3 24 23 22
3 24 10 23
3 107 25 108
3 107 108 109
3 110 25 111
3 112 11 113
3 114 113 25
3 112 113 114
3 116 115 11
3 118 117 6
3 12 119 120
3 122 121 12
3 26 123 124
3 26 125 127
3 125 0 126
3 125 126 127
3 128 27 129
3 28 130 132
3 130 27 131
3 130 131 132
3 28 4 27
3 133 28 134
3 29 135 137
3 135 28 136
3 135 136 137
3 29 4 28
3 29 17 4
3 30 17 29
3 30 2 17
3 31 32 1
3 138 32 139
3 140 139 31
3 138 139 140
3 142 141 32
3 143 22 144
3 145 22 146
3 147 1 148
3 149 148 22
3 147 148 149
3 150 1 151
3 152 31 153
3 154 153 1
3 152 153 154
3 33 155 157
3 155 31 156
3 155 156 157
3 33 158 160
3 160 159 31
3 158 159 160
3 161 33 162
3 34 163 165
3 163 33 164
3 163 164 165
3 34 166 168
3 168 167 33
3 166 167 168
3 34 169 171
3 169 170 171
3 174 173 34
3 172 173 174
3 35 175 176
3 35 177 179
3 177 6 178
3 177 178 179
3 180 35 181
3 182 35 183
3 184 6 185
3 186 185 35
3 184 185 186
3 188 187 6
3 189 36 190
3 37 191 193
3 191 36 192
3 191 192 193
3 37 7 36
3 194 37 195
3 196 37 197
3 198 7 199
3 200 199 37
3 198 199 200
3 201 14 202
3 203 202 7
3 201 202 203
3 204 14 205
3 207 206 14
3 36 208 210
3 208 13 209
3 208 209 210
3 38 13 36
3 38 3 13
3 15 38 7
3 39 38 15
3 39 3 38
3 39 26 3
3 40 26 39
3 40 0 26
3 27 211 213
3 211 16 212
3 211 212 213
3 41 16 27
3 41 8 16
3 18 41 4
3 42 41 18
3 42 8 41
3 42 40 8
3 43 40 42
3 43 0 40
3 43 214 216
3 216 215 0
3 214 215 216
3 44 217 219
3 219 218 43
3 217 218 219
3 44 220 221
3 20 44 9
3 222 44 223
3 224 223 20
3 222 223 224
3 226 225 44
3 227 5 228
3 23 229 230
3 45 231 233
3 233 232 23
3 231 232 233
3 45 234 236
3 234 5 235
3 234 235 236
3 45 30 5
3 46 30 45
3 46 2 30
3 32 24 1
3 47 24 32
3 47 10 24
3 25 237 239
3 237 47 238
3 237 238 239
3 48 47 25
3 48 10 47
3 48 46 10
3 49 46 48
3 49 2 46
3 49 21 2
3 240 21 241
3 242 241 49
3 240 241 242
3 244 243 21
3 246 245 11
3 249 248 6
3 247 248 249
