ply
format ascii 1.0
element vertex 138
property float x
property float y
property float z
element face 123
property list uchar int vertex_index
end_header
-5.001673 9.020395 36.435493
-6.477816 19.301109 28.459375
-3.164606 22.548519 35.385902
-3.48477 14.589386 38.490303
-4.963575 17.234436 33.629074
-6.503061 11.086462 31.652866
-3.570814 6.387915 40.85524
-4.807924 0.550394 38.467796
-6.239523 2.637743 34.135883
-5.596998 22.375511 29.34186
-6.342485 23.339352 26.642994
-3.90135 23.948807 32.813099
-4.094477 19.991531 34.530613
-4.842043 21.255604 31.970646
-5.72159 18.346008 31.082928
-4.280882 11.902742 37.492531
-3.556028 10.518822 39.774071
-4.28414 7.766451 38.692078
-4.233271 3.566799 39.690147
-4.930464 4.818178 37.550484
-5.504583 1.665401 36.349686
-5.652716 5.931749 35.317841
-7.159197 7.702238 30.559631
-3.355291 18.599396 37.019119
-4.219183 15.976868 36.099236
-5.014765 13.157726 35.12426
-5.743059 10.130753 34.089802
-5.768183 14.266537 32.672844
-6.529409 15.218899 30.13653
-4.133055 -0.693779 40.491539
-6.404295 6.895176 32.990059
-5.492212 24.366687 28.408321
-5.120273 23.799974 29.758602
-4.742796 23.240021 31.072995
-4.371697 22.602206 32.391872
-4.27245 24.586622 31.494221
-5.120273 23.799974 29.758602
-5.21952 21.815558 30.656253
-4.742796 23.240021 31.072995
-6.838985 19.696226 27.106991
-6.871821 17.654621 27.984986
-6.69535 23.737671 25.25687
-6.229277 25.336968 25.676603
-3.259949 20.573957 36.202511
-2.891316 19.823164 37.453793
-2.795973 21.797725 36.637184
-6.871821 17.654621 27.984986
-6.897617 15.613516 28.823563
-6.503613 17.260004 29.297953
-3.113996 13.842875 39.642589
-3.049244 15.845876 38.96005
-3.193064 7.710091 41.407844
-3.185671 9.775544 40.86726
-3.563421 8.453368 40.314656
-3.199508 5.650436 41.885252
-3.193064 7.710091 41.407844
-3.550714 4.293102 41.293215
-3.199508 5.650436 41.885252
-4.724836 -1.613631 38.832874
-4.387401 -2.235717 39.844746
-4.470489 -0.071692 39.479668
-5.057657 -1.058064 37.828299
-4.724836 -1.613631 38.832874
-6.128126 0.47486 34.611418
-5.760656 -0.011311 35.718319
-5.872053 2.151572 35.242784
-6.501879 0.894212 33.509659
-6.128126 0.47486 34.611418
-7.077189 5.581444 31.188657
-7.442018 5.91676 29.972055
-5.864955 24.848608 27.058888
-5.969741 22.857432 27.992427
-5.492212 24.366687 28.408321
-6.229277 25.336968 25.676603
-5.864955 24.848608 27.058888
-7.205002 9.791863 29.839149
-6.831129 9.39435 31.106248
-6.876934 11.483975 30.385767
-7.514023 8.025884 29.289154
-7.205002 9.791863 29.839149
-7.442018 5.91676 29.972055
-7.514023 8.025884 29.289154
-6.77132 21.715348 26.198801
-6.838985 19.696226 27.106991
-6.410151 21.320231 27.551185
-6.77132 21.715348 26.198801
-6.69535 23.737671 25.25687
-2.984504 17.850881 38.224458
-2.891316 19.823164 37.453793
-3.420031 16.594391 37.754711
-3.049244 15.845876 38.96005
-2.984504 17.850881 38.224458
-6.890108 13.550194 29.627599
-6.876934 11.483975 30.385767
-6.516235 13.15268 30.894698
-6.890108 13.550194 29.627599
-6.897617 15.613516 28.823563
-2.673571 23.736946 35.794799
-2.795973 21.797725 36.637184
-3.03636 24.491707 34.504781
-2.673571 23.736946 35.794799
-3.404732 25.191851 33.21838
-3.532978 23.248663 34.099501
-3.03636 24.491707 34.504781
-3.767294 25.898533 31.895867
-3.404732 25.191851 33.21838
-4.27245 24.586622 31.494221
-3.767294 25.898533 31.895867
-3.149625 11.807593 40.284474
-3.113996 13.842875 39.642589
-3.520399 12.554104 39.132187
-3.149625 11.807593 40.284474
-3.185671 9.775544 40.86726
-3.881943 2.882544 40.710668
-3.550714 4.293102 41.293215
-3.902043 4.977357 40.272694
-3.831835 0.752255 41.111365
-3.881943 2.882544 40.710668
-4.183163 1.43651 40.090843
-3.785435 -1.369581 41.452255
-3.831835 0.752255 41.111365
-4.061148 -2.850547 40.802551
-3.785435 -1.369581 41.452255
-4.061148 -2.850547 40.802551
-4.387401 -2.235717 39.844746
-5.405987 -0.500561 36.769244
-5.057657 -1.058064 37.828299
-5.156254 1.107897 37.408741
-5.405987 -0.500561 36.769244
-5.760656 -0.011311 35.718319
-6.699738 5.177913 32.403872
-6.781746 7.298707 31.774845
-7.077189 5.581444 31.188657
-6.617351 3.049197 32.976783
-6.321909 4.766459 33.562971
-6.699738 5.177913 32.403872
-6.501879 0.894212 33.509659
-6.617351 3.049197 32.976783
3 32 31 9
3 33 13 34
3 35 34 11
3 33 34 35
3 36 9 37
3 38 37 13
3 36 37 38
3 0 17 15
3 0 19 17
3 0 21 19
3 1 39 40
3 42 41 10
3 2 43 45
3 43 23 44
3 43 44 45
3 4 24 12
3 4 25 24
3 4 27 25
3 1 28 14
3 1 46 48
3 48 47 28
3 46 47 48
3 3 49 50
3 6 51 53
3 53 52 16
3 51 52 53
3 6 54 55
3 6 56 57
3 7 29 18
3 7 58 60
3 60 59 29
3 58 59 60
3 7 61 62
3 8 63 65
3 65 64 20
3 63 64 65
3 8 66 67
3 5 30 26
3 69 68 22
3 9 10 1
3 70 10 71
3 72 71 9
3 70 71 72
3 74 73 10
3 11 12 2
3 13 12 11
3 13 4 12
3 13 14 4
3 9 14 13
3 9 1 14
3 15 16 3
3 17 16 15
3 17 6 16
3 17 18 6
3 19 18 17
3 19 7 18
3 19 20 7
3 21 20 19
3 21 8 20
3 75 22 76
3 77 76 5
3 75 76 77
3 78 22 79
3 81 80 22
3 10 82 84
3 84 83 1
3 82 83 84
3 86 85 10
3 23 87 88
3 23 89 91
3 89 3 90
3 89 90 91
3 12 23 2
3 24 23 12
3 24 3 23
3 24 15 3
3 25 15 24
3 25 0 15
3 25 26 0
3 27 26 25
3 27 5 26
3 14 27 4
3 28 27 14
3 28 5 27
3 28 92 94
3 94 93 5
3 92 93 94
3 96 95 28
3 97 2 98
3 99 2 100
3 101 11 102
3 103 102 2
3 101 102 103
3 104 11 105
3 107 106 11
3 16 108 110
3 110 109 3
3 108 109 110
3 112 111 16
3 18 113 115
3 115 114 6
3 113 114 115
3 29 116 118
3 118 117 18
3 116 117 118
3 29 119 120
3 29 121 122
3 124 123 29
3 20 125 127
3 127 126 7
3 125 126 127
3 129 128 20
3 26 21 0
3 30 21 26
3 30 8 21
3 22 30 5
3 130 30 131
3 132 131 22
3 130 131 132
3 133 8 134
3 135 134 30
3 133 134 135
3 137 136 8
