ply
format ascii 1.0
element vertex 396
property float x
property float y
property float z
element face 343
property list uchar int vertex_index
end_header
20.324636 36.093727 -31.753332
12.213037 23.880409 -29.976263
28.197561 35.128887 -28.282503
12.271032 37.570675 -33.429329
8.688526 25.002655 -29.800325
8.796366 31.982243 -31.630175
31.101881 34.144939 -25.800409
10.78145 51.227997 -34.149879
30.408924 45.937431 -25.962446
16.10141 36.717701 -32.892197
15.427614 30.164825 -32.199768
19.18808 29.725487 -31.973055
9.027424 38.302338 -33.35778
9.569941 44.743111 -34.426636
13.367311 43.953384 -33.640076
27.059729 41.119434 -28.313986
11.956772 30.949566 -31.949911
15.703634 23.198959 -30.574759
7.29686 32.700203 -31.635664
7.534086 35.618519 -32.440895
18.185764 36.370087 -32.383682
17.59272 33.182529 -32.440468
19.610641 32.963428 -32.027397
4.99799 22.607006 -29.340994
10.456635 24.381584 -29.81143
10.628805 20.576302 -28.91482
12.501053 20.123444 -29.038218
6.664667 47.884926 -34.875374
7.945538 44.801136 -34.501457
8.280073 48.133125 -34.794266
12.071104 47.60408 -33.92662
15.519213 43.433662 -32.942619
24.879726 41.567837 -29.299719
26.427195 44.195198 -28.157827
32.351017 45.161896 -24.891676
30.613131 42.969692 -26.078936
10.402294 34.736195 -32.682198
12.028358 34.299438 -32.804504
15.459693 26.7374 -31.449488
17.450806 23.020195 -30.879213
7.075672 29.403954 -30.789343
8.715685 28.623184 -30.70503
10.36167 27.99696 -30.778658
29.750673 34.710869 -27.114447
28.86034 32.145088 -28.224672
14.11977 37.129356 -33.246704
13.774815 33.870403 -32.828796
15.635705 33.488071 -32.711464
17.280472 29.895905 -32.155327
8.732624 21.143394 -28.954485
22.456692 35.870789 -31.028357
21.639883 32.817039 -31.492228
7.677013 38.461861 -33.210693
7.762884 41.540043 -33.933533
9.229492 41.500618 -34.023712
10.884567 41.210995 -33.967842
10.082851 47.995193 -34.482292
11.37953 44.420471 -34.142982
12.712152 40.785751 -33.728531
14.700785 40.314831 -33.29512
16.827894 39.861485 -32.690514
19.052399 39.458382 -31.959654
21.315281 39.108501 -31.147875
23.545856 38.791344 -30.280909
25.671041 38.472305 -29.355574
27.625319 38.112179 -28.344133
28.650307 43.605366 -27.160036
29.025787 40.623501 -27.247923
32.084831 36.445034 -24.468039
-3.425467 19.931549 -22.450602
8.901052 35.158146 -32.532127
10.341623 31.429508 -31.760435
12.026258 27.486858 -30.973623
13.650898 30.522949 -32.118233
13.722416 27.067181 -31.221453
13.959747 23.487309 -30.252279
21.114603 29.64399 -31.659082
7.09493 37.02686 -32.758049
6.883727 36.037445 -32.483658
5.919684 22.215069 -29.232212
5.084496 24.614071 -29.76041
13.273846 21.831606 -29.643913
13.417853 19.953124 -29.174891
12.357045 22.001926 -29.507241
27.731186 33.776356 -28.75425
26.854844 33.928633 -29.268041
27.321219 35.281164 -28.796295
7.63125 49.74593 -34.924286
7.47237 48.009025 -34.83482
6.823546 49.62183 -34.96484
26.053978 45.790382 -28.027832
25.224804 44.477083 -28.648386
32.303394 43.717565 -24.869446
33.134939 44.753004 -24.268225
6.823546 49.62183 -34.96484
6.015247 49.326511 -35.001469
12.149695 35.935057 -33.116917
11.299145 36.141975 -33.128097
11.420482 37.777594 -33.44051
18.32608 22.98794 -30.998137
17.345804 24.764227 -31.239688
18.520927 21.233071 -30.695358
18.32608 22.98794 -30.998137
6.439718 31.538155 -31.297701
6.258382 29.876103 -30.899919
30.699589 32.930712 -26.445301
30.023985 33.213677 -27.10232
30.426277 34.427904 -26.457428
19.122549 28.056145 -31.80662
18.168745 28.141354 -31.897756
18.234276 29.810696 -32.064191
8.710575 23.073025 -29.377405
7.825257 23.447645 -29.448055
7.803209 25.377275 -29.870976
10.753256 18.598499 -28.520399
11.753433 18.40898 -28.564392
24.070532 34.187711 -30.53315
23.040623 34.290322 -30.938465
23.486601 35.768179 -30.623041
28.525934 30.795012 -28.72314
29.271996 30.659613 -28.26825
7.140444 42.992088 -34.165028
7.145846 41.351711 -33.831669
10.43215 49.611595 -34.316085
9.435222 49.733165 -34.608181
9.784521 51.349568 -34.441975
17.31626 41.391367 -32.397915
16.173554 41.647574 -32.816567
16.661919 43.177456 -32.523967
18.428512 41.189816 -32.032485
17.940147 39.659934 -32.325084
17.31626 41.391367 -32.397915
21.936453 40.55384 -30.699949
20.744262 40.775972 -31.170084
21.365434 42.221311 -30.722158
23.051741 40.395262 -30.266466
22.430568 38.949922 -30.714392
21.936453 40.55384 -30.699949
29.529615 44.771398 -26.561241
28.403659 45.140577 -27.048132
29.282967 46.30661 -26.449337
29.874592 40.338747 -26.648224
29.819459 41.796596 -26.663429
30.668264 41.511843 -26.06373
29.192636 39.148854 -27.228437
29.874592 40.338747 -26.648224
32.654091 37.528021 -23.793732
32.103865 37.917373 -24.572245
33.158886 37.107384 -22.994978
32.589626 36.024397 -23.669285
32.654091 37.528021 -23.793732
-3.216234 22.122494 -23.285017
-3.55998 22.729021 -22.330796
-2.978764 19.330158 -23.321877
-3.216234 22.122494 -23.285017
15.914734 21.376529 -30.131377
15.042791 21.520705 -29.970137
14.831691 23.343134 -30.413519
22.065225 29.633242 -31.441752
21.377243 31.230514 -31.575655
22.327866 31.219766 -31.358325
6.765114 34.578287 -32.081042
6.550312 33.186279 -31.720861
7.415473 34.159361 -32.03828
6.765114 34.578287 -32.081042
6.883727 36.037445 -32.483658
31.345592 32.623793 -25.818262
31.684691 33.773761 -25.078298
5.922097 20.158163 -28.850277
4.954426 20.508806 -28.93215
5.922097 20.158163 -28.850277
5.919684 22.215069 -29.232212
12.689557 18.18255 -28.626091
11.753433 18.40898 -28.564392
11.564929 20.349873 -28.976519
13.661696 18.04938 -28.755867
13.8502 16.108486 -28.34374
12.689557 18.18255 -28.626091
14.578496 17.879059 -28.892539
13.661696 18.04938 -28.755867
13.417853 19.953124 -29.174891
7.305103 46.343031 -34.688416
7.231771 44.622635 -34.44899
6.591336 46.16453 -34.635948
12.516358 49.176422 -33.621689
11.426277 49.416038 -34.038249
11.871531 50.988381 -33.733318
13.15468 47.33823 -33.537906
12.516358 49.176422 -33.621689
13.802784 45.512882 -33.394634
12.719207 45.778732 -33.783348
13.15468 47.33823 -33.537906
14.878735 45.253021 -33.045906
14.443262 43.693523 -33.291348
13.802784 45.512882 -33.394634
16.041913 44.959164 -32.575553
14.878735 45.253021 -33.045906
16.661919 43.177456 -32.523967
16.041913 44.959164 -32.575553
24.45107 43.163403 -29.219332
23.718676 41.783508 -29.775872
25.653461 42.881518 -28.728773
24.45107 43.163403 -29.219332
25.224804 44.477083 -28.648386
31.434452 42.621464 -25.463076
31.482074 44.065794 -25.485306
32.303394 43.717565 -24.869446
30.668264 41.511843 -26.06373
31.434452 42.621464 -25.463076
5.95254 47.496662 -34.814121
6.015247 49.326511 -35.001469
6.591336 46.16453 -34.635948
5.879209 45.776266 -34.574696
5.95254 47.496662 -34.814121
10.486113 36.360354 -33.066944
9.714859 36.519267 -33.019989
9.798678 38.143425 -33.404736
11.215326 34.517817 -32.743351
10.486113 36.360354 -33.066944
11.299145 36.141975 -33.128097
16.350248 26.62283 -31.524826
15.443653 28.451113 -31.824628
16.334208 28.336542 -31.899966
16.45525 24.878798 -31.16435
16.350248 26.62283 -31.524826
17.345804 24.764227 -31.239688
17.663866 21.230415 -30.49295
16.79028 21.319797 -30.340723
16.57722 23.109577 -30.726986
17.663866 21.230415 -30.49295
18.520927 21.233071 -30.695358
6.996781 27.577925 -30.365485
6.258382 29.876103 -30.899919
7.882099 27.203305 -30.294834
7.803209 25.377275 -29.870976
6.996781 27.577925 -30.365485
7.186266 31.052079 -31.212503
6.439718 31.538155 -31.297701
6.550312 33.186279 -31.720861
29.578819 31.930786 -27.657432
29.305506 33.427979 -27.669559
30.023985 33.213677 -27.10232
29.271996 30.659613 -28.26825
29.578819 31.930786 -27.657432
30.699589 32.930712 -26.445301
31.345592 32.623793 -25.818262
10.127977 53.002632 -34.220989
9.784521 51.349568 -34.441975
11.224418 52.823349 -33.793804
10.127977 53.002632 -34.220989
11.871531 50.988381 -33.733318
11.224418 52.823349 -33.793804
30.223629 47.477733 -25.835825
29.282967 46.30661 -26.449337
31.354618 47.032905 -25.370895
30.223629 47.477733 -25.835825
32.325665 46.645138 -24.83551
31.37997 45.549663 -25.427061
31.354618 47.032905 -25.370895
33.275761 46.18824 -24.309742
32.325665 46.645138 -24.83551
33.134939 44.753004 -24.268225
33.275761 46.18824 -24.309742
17.260638 28.202082 -31.877745
16.334208 28.336542 -31.899966
16.354043 30.030365 -32.177548
17.260638 28.202082 -31.877745
18.168745 28.141354 -31.897756
7.787001 21.483263 -29.038957
7.825257 23.447645 -29.448055
8.792586 19.12714 -28.574501
7.787001 21.483263 -29.038957
9.805165 18.882046 -28.540231
9.680715 20.859848 -28.934652
10.753256 18.598499 -28.520399
8.792586 19.12714 -28.574501
9.805165 18.882046 -28.540231
22.632219 32.763447 -31.170401
22.048288 34.343914 -31.260292
23.040623 34.290322 -30.938465
22.327866 31.219766 -31.358325
22.632219 32.763447 -31.170401
28.062576 32.284456 -28.725334
27.731186 33.776356 -28.75425
28.528951 33.636988 -28.253588
28.062576 32.284456 -28.725334
28.525934 30.795012 -28.72314
7.102911 39.81262 -33.470249
7.166393 38.448531 -33.142948
6.592291 39.79929 -33.402504
7.719948 40.000952 -33.572113
7.102911 39.81262 -33.470249
7.145846 41.351711 -33.831669
7.854211 43.170589 -34.217495
7.140444 42.992088 -34.165028
7.231771 44.622635 -34.44899
9.899712 39.742565 -33.737702
9.798678 38.143425 -33.404736
9.128458 39.901478 -33.690746
10.727249 39.597753 -33.709767
9.899712 39.742565 -33.737702
10.05703 41.355806 -33.995777
11.5778 39.390835 -33.698586
11.420482 37.777594 -33.44051
10.727249 39.597753 -33.709767
8.533832 49.802132 -34.764168
7.63125 49.74593 -34.924286
9.181462 48.064159 -34.638279
8.533832 49.802132 -34.764168
9.435222 49.733165 -34.608181
19.612822 40.950913 -31.575973
18.428512 41.189816 -32.032485
20.18384 39.283441 -31.553764
19.612822 40.950913 -31.575973
20.744262 40.775972 -31.170084
24.031183 37.228457 -30.249318
23.486601 35.768179 -30.623041
23.001274 37.331067 -30.654633
24.212791 40.179591 -29.790314
23.051741 40.395262 -30.266466
23.718676 41.783508 -29.775872
25.093775 37.068937 -29.78665
24.031183 37.228457 -30.249318
24.608449 38.631825 -29.818241
26.057958 36.952873 -29.332831
25.093775 37.068937 -29.78665
27.035097 36.77281 -28.82711
26.057958 36.952873 -29.332831
26.64818 38.292242 -28.849854
27.91144 36.620533 -28.313318
27.321219 35.281164 -28.796295
27.035097 36.77281 -28.82711
27.292103 45.435493 -27.547027
26.053978 45.790382 -28.027832
27.538751 43.900282 -27.658932
27.292103 45.435493 -27.547027
28.403659 45.140577 -27.048132
28.492403 37.893192 -27.776542
28.325553 39.36784 -27.796028
29.192636 39.148854 -27.228437
28.778523 36.401546 -27.745728
27.91144 36.620533 -28.313318
28.492403 37.893192 -27.776542
29.555079 36.192538 -27.161699
28.974117 34.919878 -27.698475
28.778523 36.401546 -27.745728
30.298688 35.919033 -26.517186
29.555079 36.192538 -27.161699
30.974292 35.636068 -25.860166
30.426277 34.427904 -26.457428
30.298688 35.919033 -26.517186
31.465767 36.786116 -25.193981
32.103865 37.917373 -24.572245
31.593356 35.294987 -25.134224
30.974292 35.636068 -25.860166
31.465767 36.786116 -25.193981
32.176167 34.923809 -24.412114
31.684691 33.773761 -25.078298
31.593356 35.294987 -25.134224
32.680961 34.503172 -23.61336
32.176167 34.923809 -24.412114
32.589626 36.024397 -23.669285
-3.805399 20.579914 -21.440901
-3.55998 22.729021 -22.330796
-3.649204 17.754576 -21.674788
-3.805399 20.579914 -21.440901
-3.169054 17.121534 -22.612621
-3.649204 17.754576 -21.674788
-3.169054 17.121534 -22.612621
-2.978764 19.330158 -23.321877
4.126291 23.044014 -29.41733
4.954426 20.508806 -28.93215
4.082727 20.945814 -29.008486
4.244903 25.096983 -29.877037
4.126291 23.044014 -29.41733
5.084496 24.614071 -29.76041
4.244903 25.096983 -29.877037
7.60555 37.04019 -32.825794
7.09493 37.02686 -32.758049
7.166393 38.448531 -33.142948
14.147201 21.635056 -29.781921
13.273846 21.831606 -29.643913
13.086392 23.683859 -30.114271
14.147201 21.635056 -29.781921
15.042791 21.520705 -29.970137
15.914734 21.376529 -30.131377
16.79028 21.319797 -30.340723
21.906871 28.034428 -31.508951
22.065225 29.633242 -31.441752
21.000664 28.00535 -31.608942
21.906871 28.034428 -31.508951
20.037403 28.046099 -31.765929
20.151342 29.684739 -31.816069
21.000664 28.00535 -31.608942
19.122549 28.056145 -31.80662
20.037403 28.046099 -31.765929
3 77 19 78
3 0 22 20
3 80 79 23
3 1 26 24
3 1 81 83
3 83 82 26
3 81 82 83
3 2 84 86
3 84 85 86
3 87 29 88
3 89 88 27
3 87 88 89
3 90 33 91
3 93 92 34
3 94 27 95
3 3 96 98
3 96 37 97
3 96 97 98
3 99 39 100
3 102 101 39
3 103 40 104
3 5 41 18
3 5 42 41
3 6 105 107
3 107 106 43
3 105 106 107
3 9 47 45
3 11 48 21
3 11 108 110
3 110 109 48
3 108 109 110
3 4 111 113
3 111 49 112
3 111 112 113
3 115 114 25
3 118 117 50
3 116 117 118
3 120 119 44
3 121 53 122
3 13 54 28
3 13 55 54
3 7 123 125
3 123 56 124
3 123 124 125
3 14 57 30
3 14 58 57
3 14 59 58
3 126 60 127
3 128 127 31
3 126 127 128
3 129 61 130
3 131 130 60
3 129 130 131
3 132 62 133
3 132 133 134
3 135 63 136
3 137 136 62
3 135 136 137
3 15 64 32
3 15 65 64
3 8 138 140
3 138 66 139
3 138 139 140
3 141 67 142
3 143 142 35
3 141 142 143
3 145 144 67
3 146 68 147
3 150 149 68
3 148 149 150
3 151 69 152
3 154 153 69
3 12 70 52
3 16 71 36
3 16 72 71
3 10 73 46
3 17 74 38
3 17 75 74
3 17 155 157
3 157 156 75
3 155 156 157
3 158 76 159
3 160 159 51
3 158 159 160
3 161 18 162
3 19 163 165
3 163 18 164
3 163 164 165
3 19 5 18
3 167 166 6
3 20 21 9
3 22 21 20
3 22 11 21
3 23 168 169
3 171 170 23
3 24 25 4
3 26 25 24
3 26 172 174
3 174 173 25
3 172 173 174
3 26 175 177
3 175 176 177
3 180 179 26
3 178 179 180
3 27 181 183
3 181 28 182
3 181 182 183
3 29 28 27
3 29 13 28
3 184 30 185
3 186 185 7
3 184 185 186
3 187 30 188
3 189 14 190
3 191 190 30
3 189 190 191
3 192 31 193
3 194 193 14
3 192 193 194
3 195 31 196
3 198 197 31
3 199 32 200
3 33 201 203
3 201 32 202
3 201 202 203
3 33 15 32
3 34 35 8
3 204 35 205
3 206 205 34
3 204 205 206
3 208 207 35
3 27 209 210
3 27 211 213
3 211 212 213
3 214 36 215
3 216 215 12
3 214 215 216
3 37 217 219
3 217 36 218
3 217 218 219
3 37 16 36
3 220 38 221
3 222 221 10
3 220 221 222
3 39 223 225
3 223 38 224
3 223 224 225
3 39 17 38
3 39 226 228
3 228 227 17
3 226 227 228
3 230 229 39
3 40 231 232
3 40 233 235
3 233 4 234
3 233 234 235
3 18 236 238
3 236 40 237
3 236 237 238
3 41 40 18
3 41 4 40
3 41 24 4
3 42 24 41
3 42 1 24
3 43 44 2
3 239 44 240
3 241 240 43
3 239 240 241
3 243 242 44
3 245 244 6
3 246 7 247
3 248 7 249
3 251 250 7
3 252 8 253
3 254 8 255
3 256 34 257
3 258 257 8
3 256 257 258
3 259 34 260
3 262 261 34
3 45 46 3
3 47 46 45
3 47 10 46
3 21 47 9
3 48 47 21
3 48 10 47
3 48 263 265
3 265 264 10
3 263 264 265
3 267 266 48
3 49 268 269
3 49 270 271
3 25 49 4
3 272 49 273
3 274 273 25
3 272 273 274
3 276 275 49
3 50 51 0
3 277 51 278
3 279 278 50
3 277 278 279
3 281 280 51
3 44 282 284
3 284 283 2
3 282 283 284
3 286 285 44
3 287 52 288
3 287 288 289
3 53 290 292
3 290 52 291
3 290 291 292
3 53 12 52
3 28 293 295
3 293 53 294
3 293 294 295
3 54 53 28
3 54 12 53
3 54 296 298
3 298 297 12
3 296 297 298
3 55 299 301
3 301 300 54
3 299 300 301
3 55 302 304
3 302 3 303
3 302 303 304
3 305 29 306
3 56 307 309
3 307 29 308
3 307 308 309
3 56 13 29
3 30 56 7
3 57 56 30
3 57 13 56
3 57 55 13
3 58 55 57
3 58 3 55
3 58 45 3
3 59 45 58
3 59 9 45
3 31 59 14
3 60 59 31
3 60 9 59
3 60 20 9
3 61 20 60
3 61 0 20
3 310 61 311
3 62 312 314
3 312 61 313
3 312 313 314
3 62 0 61
3 62 50 0
3 63 50 62
3 63 315 317
3 317 316 50
3 315 316 317
3 32 318 320
3 318 63 319
3 318 319 320
3 64 63 32
3 64 321 323
3 323 322 63
3 321 322 323
3 64 324 325
3 65 326 328
3 328 327 64
3 326 327 328
3 65 329 331
3 329 2 330
3 329 330 331
3 332 33 333
3 66 334 336
3 334 33 335
3 334 335 336
3 66 15 33
3 35 66 8
3 67 66 35
3 67 15 66
3 67 65 15
3 337 65 338
3 339 338 67
3 337 338 339
3 340 2 341
3 342 341 65
3 340 341 342
3 343 43 344
3 345 344 2
3 343 344 345
3 346 43 347
3 348 6 349
3 350 349 43
3 348 349 350
3 68 351 352
3 68 353 355
3 353 6 354
3 353 354 355
3 68 356 358
3 358 357 6
3 356 357 358
3 361 360 68
3 359 360 361
3 69 362 363
3 69 364 365
3 69 366 367
3 369 368 69
3 370 23 371
3 370 371 372
3 373 23 374
3 376 375 23
3 52 377 379
3 377 19 378
3 377 378 379
3 70 19 52
3 70 5 19
3 36 70 12
3 71 70 36
3 71 5 70
3 71 42 5
3 72 42 71
3 72 1 42
3 46 37 3
3 73 37 46
3 73 16 37
3 38 73 10
3 74 73 38
3 74 16 73
3 74 72 16
3 75 72 74
3 75 1 72
3 75 380 382
3 382 381 1
3 380 381 382
3 384 383 75
3 386 385 17
3 51 22 0
3 76 22 51
3 76 11 22
3 387 76 388
3 389 76 390
3 391 11 392
3 393 392 76
3 391 392 393
3 395 394 11
