ply
format ascii 1.0
element vertex 72
property float x
property float y
property float z
element face 54
property list uchar int vertex_index
end_header
-31.012531 72.238113 -19.451118
-32.866352 76.29567 -12.086287
-28.741987 76.934387 -16.564514
-29.658247 78.185562 -12.383175
-30.91917 76.793488 -14.402124
-33.281708 72.746246 -17.772385
-31.587093 77.416016 -9.892088
-34.121422 74.777328 -14.103172
-32.139221 74.978256 -16.205734
-29.918455 74.790039 -18.134304
-31.507666 70.792678 -19.9906
-32.664663 71.192307 -19.272499
-29.786501 71.783554 -20.223434
-31.507666 70.792678 -19.9906
-28.586206 78.414833 -13.564428
-27.966511 79.061577 -12.539499
-34.296841 72.799049 -16.84096
-34.840866 71.648048 -17.625305
-30.955223 77.79876 -8.722416
-32.438116 76.902802 -8.58294
-29.9924 78.302544 -10.03436
-30.955223 77.79876 -8.722416
-33.493887 75.536499 -13.094729
-34.981079 74.499916 -12.958813
-34.353544 75.259087 -11.95037
-29.216668 77.718796 -14.573903
-30.288708 77.489525 -13.39265
-28.586206 78.414833 -13.564428
-28.128076 77.789245 -15.655098
-29.830579 76.863937 -15.483319
-29.216668 77.718796 -14.573903
-33.799251 71.446373 -18.433132
-34.840866 71.648048 -17.625305
-32.14712 72.492179 -18.611752
-32.664663 71.192307 -19.272499
-33.799251 71.446373 -18.433132
-33.716467 75.892243 -10.850241
-34.353544 75.259087 -11.95037
-33.076837 76.452416 -9.753141
-32.438116 76.902802 -8.58294
-32.226723 76.855843 -10.989187
-33.716467 75.892243 -10.850241
-33.076837 76.452416 -9.753141
-29.027977 78.687317 -11.279903
-30.62267 77.800789 -11.137631
-29.9924 78.302544 -10.03436
-27.966511 79.061577 -12.539499
-29.027977 78.687317 -11.279903
-35.595921 73.675018 -13.96932
-34.981079 74.499916 -12.958813
-34.716698 73.81459 -15.006353
-35.595921 73.675018 -13.96932
-33.725597 73.915054 -16.057634
-34.716698 73.81459 -15.006353
-33.130322 74.877792 -15.154453
-32.710465 73.862251 -16.989059
-34.296841 72.799049 -16.84096
-33.725597 73.915054 -16.057634
-26.963328 77.835159 -16.776629
-28.128076 77.789245 -15.655098
-27.557329 76.806275 -17.578016
-26.963328 77.835159 -16.776629
-28.145563 75.7341 -18.362911
-29.330221 75.862213 -17.349409
-27.557329 76.806275 -17.578016
-28.712325 74.491364 -19.027755
-28.145563 75.7341 -18.362911
-29.259363 73.215401 -19.686163
-30.465493 73.514076 -18.792711
-28.712325 74.491364 -19.027755
-29.786501 71.783554 -20.223434
-29.259363 73.215401 -19.686163
3 0 10 11
3 0 12 13
3 15 14 3
3 16 5 17
3 18 6 19
3 21 20 6
3 1 22 24
3 22 7 23
3 22 23 24
3 2 8 4
3 2 9 8
3 3 4 1
3 25 4 26
3 27 26 3
3 25 26 27
3 28 2 29
3 30 29 4
3 28 29 30
3 5 31 32
3 5 33 35
3 33 0 34
3 33 34 35
3 36 1 37
3 6 38 39
3 6 40 42
3 40 1 41
3 40 41 42
3 6 3 1
3 43 3 44
3 45 44 6
3 43 44 45
3 47 46 3
3 7 48 49
3 7 50 51
3 4 7 1
3 8 7 4
3 8 52 54
3 54 53 7
3 52 53 54
3 8 55 57
3 55 5 56
3 55 56 57
3 9 5 8
3 9 0 5
3 58 2 59
3 60 2 61
3 62 9 63
3 64 63 2
3 62 63 64
3 65 9 66
3 67 0 68
3 69 68 9
3 67 68 69
3 71 70 0
