ply
format ascii 1.0
element vertex 245
property float x
property float y
property float z
element face 210
property list uchar int vertex_index
end_header
-63.708206 -43.193531 45.653805
-66.604118 -35.499146 39.126747
-60.787399 -34.092163 44.073086
-67.461227 -31.657665 35.746399
-62.979744 -30.138847 42.021713
-61.761833 -47.250565 48.163292
-65.352646 -39.297501 42.536667
-60.249344 -42.565536 47.265923
-58.406837 -38.092331 46.09922
-62.340458 -38.522163 44.696144
-64.210228 -34.619717 41.876534
-65.757217 -30.715813 39.051846
-66.987862 -26.686222 36.331604
-62.76321 -45.203026 47.001526
-66.029587 -37.394291 40.847446
-66.832855 -37.939384 39.352257
-58.208946 -42.384605 47.689957
-59.608742 -36.076355 45.096046
-60.448288 -38.268745 45.472672
-63.312084 -36.561058 43.299526
-62.587154 -34.313591 43.030735
-64.46447 -30.37859 40.57402
-65.284546 -28.373444 39.360809
-66.4086 -28.720032 37.677895
-66.025475 -26.331915 38.148361
-67.078735 -33.592556 37.414574
-67.231995 -36.056747 37.536575
-67.529617 -34.157257 35.737156
-64.576096 -41.226494 44.152615
-61.082977 -44.884567 47.831924
-62.10688 -42.831711 46.597744
-56.294167 -37.985138 46.637238
-59.32724 -40.300579 46.627686
-61.311832 -40.520065 46.031548
-63.08709 -40.825638 45.215343
-64.001373 -38.862968 43.724625
-64.833755 -36.932243 42.166267
-65.574936 -35.015862 40.578316
-63.564243 -32.353573 41.797405
-65.025848 -32.677773 40.454449
-66.222534 -33.09354 38.994064
-66.780746 -31.146793 37.440361
-67.259109 -29.163479 35.935448
-66.689796 -24.259285 36.918926
-67.50338 -24.62162 35.001228
-68.339882 -23.022305 31.710041
-68.613861 -20.965225 30.328539
-63.934223 -44.408308 45.757336
-63.461725 -45.413055 46.431196
-63.235708 -44.198279 46.327665
-57.134359 -42.331917 47.808304
-57.667355 -43.454315 48.155102
-60.198071 -35.084259 44.584566
-59.249493 -35.011451 45.07428
-59.838822 -34.019356 44.562799
-61.165135 -35.185383 44.168101
-60.575806 -36.177479 44.679581
-60.198071 -35.084259 44.584566
-61.687276 -34.202877 43.551911
-62.065012 -35.296097 43.646925
-61.165135 -35.185383 44.168101
-65.070046 -27.233374 39.64592
-64.623135 -28.253147 40.174896
-65.44051 -26.212609 39.039696
-65.655011 -27.35268 38.754585
-65.070046 -27.233374 39.64592
-62.004585 -48.448595 48.151291
-61.246588 -48.286581 48.640032
-65.532146 -40.510807 42.690426
-65.143872 -41.475304 43.4984
-64.964371 -40.261997 43.344641
-67.213482 -37.303097 37.624153
-67.321327 -36.36207 36.689735
-60.666161 -43.725051 47.548924
-60.132156 -44.773035 48.095468
-59.715339 -43.61352 47.812468
-57.350502 -38.038735 46.368229
-56.941777 -36.965263 46.245514
-57.998112 -37.01886 45.976505
-57.809668 -39.124386 46.576881
-56.753332 -39.07079 46.845891
-57.350502 -38.038735 46.368229
-58.867039 -39.196455 46.363453
-58.269869 -40.22851 46.841115
-57.809668 -39.124386 46.576881
-63.271993 -31.24621 41.909559
-62.740816 -32.236673 42.422216
-62.448566 -31.12931 42.53437
-67.329068 -26.9137 35.408825
-67.464691 -28.152328 35.210747
-67.123486 -27.92485 36.133526
-66.525234 -23.097229 37.278928
-66.173119 -24.141014 37.871178
-67.732201 -23.582714 34.333065
-67.39114 -23.39682 35.324926
-67.765271 -24.854959 34.043043
-67.732201 -23.582714 34.333065
-68.150452 -22.783057 32.687472
-68.183522 -24.055301 32.39745
-68.659439 -19.704074 30.593585
-68.488156 -20.720859 31.311193
-68.73143 -19.951207 29.616141
-68.659439 -19.704074 30.593585
-67.59803 -31.942043 34.872114
-67.612648 -30.670977 34.947687
-63.001697 -46.413374 47.0524
-62.501009 -47.437144 47.633283
-62.262522 -46.226796 47.582409
-63.001697 -46.413374 47.0524
-63.461725 -45.413055 46.431196
-66.178223 -38.608576 40.992176
-65.839753 -39.560181 41.836787
-65.691116 -38.345896 41.692056
-66.579857 -38.881123 40.244582
-66.178223 -38.608576 40.992176
-66.431221 -37.666837 40.099851
-66.853645 -39.182117 39.452725
-66.579857 -38.881123 40.244582
-58.69514 -43.523054 48.024485
-57.667355 -43.454315 48.155102
-59.229145 -42.475071 47.47794
-59.715339 -43.61352 47.812468
-58.69514 -43.523054 48.024485
-58.599064 -36.010872 45.474918
-59.249493 -35.011451 45.07428
-59.00779 -37.084343 45.597633
-57.998112 -37.01886 45.976505
-58.599064 -36.010872 45.474918
-60.995579 -37.273674 44.867894
-60.028515 -37.17255 45.284359
-60.575806 -36.177479 44.679581
-61.941664 -37.400383 44.47963
-61.394373 -38.395454 45.084408
-60.995579 -37.273674 44.867894
-62.427477 -36.419831 43.78132
-62.826271 -37.541611 43.997835
-61.941664 -37.400383 44.47963
-62.949619 -35.437325 43.165131
-62.427477 -36.419831 43.78132
-62.065012 -35.296097 43.646925
-64.213097 -29.25572 40.781501
-63.722107 -30.258719 41.297866
-63.470733 -29.135849 41.505348
-64.874508 -29.376017 39.967415
-64.213097 -29.25572 40.781501
-64.623135 -28.253147 40.174896
-67.470138 -35.412325 35.790026
-67.321327 -36.36207 36.689735
-67.380806 -35.107002 36.636865
-67.632225 -33.191839 34.867492
-67.495422 -32.907461 35.741777
-67.59803 -31.942043 34.872114
-67.528663 -34.460552 34.869238
-67.632225 -33.191839 34.867492
-67.470138 -35.412325 35.790026
-67.528663 -34.460552 34.869238
-60.475051 -33.030461 44.158854
-59.838822 -34.019356 44.562799
-61.352394 -33.105969 43.560057
-60.475051 -33.030461 44.158854
-62.178734 -30.065069 42.72451
-62.448566 -31.12931 42.53437
-62.745813 -29.067577 42.30323
-62.178734 -30.065069 42.72451
-63.470733 -29.135849 41.505348
-62.745813 -29.067577 42.30323
-62.004585 -48.448595 48.151291
-62.501009 -47.437144 47.633283
-64.781959 -42.441086 44.29195
-64.348015 -43.424605 45.042546
-64.142151 -42.210013 44.90321
-64.781959 -42.441086 44.29195
-65.143872 -41.475304 43.4984
-65.532146 -40.510807 42.690426
-65.839753 -39.560181 41.836787
-67.013912 -38.244415 38.531994
-67.032425 -36.998065 38.444416
-67.213482 -37.303097 37.624153
-66.853645 -39.182117 39.452725
-67.013912 -38.244415 38.531994
-60.902395 -47.114624 48.523361
-61.246588 -48.286581 48.640032
-60.387149 -48.15064 49.000101
-60.562967 -45.931625 48.357677
-60.132156 -44.773035 48.095468
-61.422405 -46.067566 47.997608
-60.902395 -47.114624 48.523361
-60.562967 -45.931625 48.357677
-55.92453 -36.933904 46.61784
-56.941777 -36.965263 46.245514
-55.236145 -37.966369 46.895838
-55.92453 -36.933904 46.61784
-55.668014 -39.033508 47.008364
-55.236145 -37.966369 46.895838
-55.668014 -39.033508 47.008364
-56.753332 -39.07079 46.845891
-57.710722 -41.270523 47.37225
-57.134359 -42.331917 47.808304
-58.768093 -41.342592 47.158822
-57.710722 -41.270523 47.37225
-58.269869 -40.22851 46.841115
-62.252271 -33.216683 43.038882
-61.687276 -34.202877 43.551911
-61.352394 -33.105969 43.560057
-63.075699 -33.333582 42.41407
-62.252271 -33.216683 43.038882
-62.740816 -32.236673 42.422216
-67.511589 -29.423884 35.042212
-67.612648 -30.670977 34.947687
-67.360168 -30.410572 35.840924
-67.511589 -29.423884 35.042212
-67.464691 -28.152328 35.210747
-65.840958 -25.177329 38.485895
-65.44051 -26.212609 39.039696
-66.357636 -25.2956 37.533643
-65.840958 -25.177329 38.485895
-66.173119 -24.141014 37.871178
-66.984348 -23.215652 36.283775
-66.525234 -23.097229 37.278928
-67.096588 -24.440452 35.960077
-66.984348 -23.215652 36.283775
-67.39114 -23.39682 35.324926
-67.586827 -25.881399 34.743637
-67.329068 -26.9137 35.408825
-67.245621 -25.653921 35.666416
-67.586827 -25.881399 34.743637
-67.765271 -24.854959 34.043043
-68.267246 -24.325254 31.455029
-68.183522 -24.055301 32.39745
-68.346676 -23.296423 30.764537
-68.267246 -24.325254 31.455029
-68.351166 -21.749399 32.001944
-68.150452 -22.783057 32.687472
-68.476872 -21.993765 31.01929
-68.351166 -21.749399 32.001944
-68.488156 -20.720859 31.311193
-68.483666 -22.267883 30.073786
-68.346676 -23.296423 30.764537
-68.476872 -21.993765 31.01929
-68.551682 -21.241526 29.390847
-68.483666 -22.267883 30.073786
-68.551682 -21.241526 29.390847
-68.73143 -19.951207 29.616141
-63.934223 -44.408308 45.757336
-64.348015 -43.424605 45.042546
3 0 47 49
3 49 48 13
3 47 48 49
3 1 15 14
3 50 16 51
3 2 52 54
3 52 17 53
3 52 53 54
3 2 55 57
3 57 56 17
3 55 56 57
3 2 58 60
3 58 20 59
3 58 59 60
3 61 22 62
3 63 24 64
3 65 64 22
3 63 64 65
3 3 27 25
3 5 66 67
3 6 68 70
3 70 69 28
3 68 69 70
3 72 71 26
3 7 73 75
3 73 29 74
3 73 74 75
3 7 30 29
3 8 76 78
3 76 31 77
3 76 77 78
3 8 79 81
3 81 80 31
3 79 80 81
3 8 82 84
3 82 32 83
3 82 83 84
3 9 33 18
3 9 34 33
3 9 35 34
3 10 36 19
3 10 37 36
3 4 85 87
3 85 38 86
3 85 86 87
3 11 39 21
3 11 40 39
3 11 41 40
3 12 42 23
3 12 88 90
3 90 89 42
3 88 89 90
3 91 43 92
3 93 44 94
3 96 95 44
3 97 45 98
3 99 46 100
3 102 101 46
3 104 103 3
3 13 105 107
3 107 106 5
3 105 106 107
3 109 108 13
3 14 110 112
3 112 111 6
3 110 111 112
3 15 113 115
3 115 114 14
3 113 114 115
3 15 116 117
3 16 118 119
3 16 120 122
3 120 7 121
3 120 121 122
3 17 123 124
3 17 125 127
3 125 8 126
3 125 126 127
3 17 18 8
3 128 18 129
3 130 129 17
3 128 129 130
3 131 9 132
3 133 132 18
3 131 132 133
3 134 19 135
3 136 135 9
3 134 135 136
3 20 137 139
3 137 19 138
3 137 138 139
3 20 10 19
3 140 21 141
3 142 141 4
3 140 141 142
3 22 143 145
3 143 21 144
3 143 144 145
3 22 11 21
3 22 23 11
3 24 23 22
3 24 12 23
3 25 26 1
3 27 26 25
3 27 146 148
3 148 147 26
3 146 147 148
3 149 27 150
3 151 150 3
3 149 150 151
3 152 27 153
3 155 154 27
3 156 2 157
3 159 158 2
3 160 4 161
3 162 4 163
3 165 164 4
3 167 166 5
3 28 168 170
3 170 169 0
3 168 169 170
3 172 171 28
3 174 173 6
3 26 15 1
3 175 15 176
3 177 176 26
3 175 176 177
3 179 178 15
3 180 5 181
3 180 181 182
3 29 183 184
3 29 185 187
3 185 5 186
3 185 186 187
3 29 13 5
3 30 13 29
3 30 0 13
3 31 188 189
3 31 190 191
3 31 192 193
3 195 194 31
3 196 16 197
3 32 198 200
3 198 16 199
3 198 199 200
3 32 7 16
3 18 32 8
3 33 32 18
3 33 7 32
3 33 30 7
3 34 30 33
3 34 0 30
3 34 28 0
3 35 28 34
3 35 6 28
3 19 35 9
3 36 35 19
3 36 6 35
3 36 14 6
3 37 14 36
3 37 1 14
3 201 20 202
3 203 202 2
3 201 202 203
3 38 204 206
3 204 20 205
3 204 205 206
3 38 10 20
3 21 38 4
3 39 38 21
3 39 10 38
3 39 37 10
3 40 37 39
3 40 1 37
3 40 25 1
3 41 25 40
3 41 3 25
3 23 41 11
3 42 41 23
3 42 3 41
3 42 207 209
3 209 208 3
3 207 208 209
3 211 210 42
3 212 24 213
3 43 214 216
3 214 24 215
3 214 215 216
3 43 12 24
3 217 43 218
3 44 219 221
3 219 43 220
3 219 220 221
3 44 12 43
3 44 222 224
3 224 223 12
3 222 223 224
3 226 225 44
3 45 227 228
3 45 229 230
3 231 45 232
3 46 233 235
3 233 45 234
3 233 234 235
3 46 236 238
3 238 237 45
3 236 237 238
3 46 239 240
3 242 241 46
3 244 243 0
