ply
format ascii 1.0
element vertex 189
property float x
property float y
property float z
element face 141
property list uchar int vertex_index
end_header
-45.519737 -35.388405 -40.111782
-33.00919 -25.618423 -40.687912
-41.616817 -36.332886 -38.695103
-37.357262 -30.888704 -39.111149
-34.565426 -31.2523 -38.089081
-31.388723 -30.86953 -37.289059
-29.415129 -19.774143 -43.501144
-32.148827 -22.828135 -42.160282
-47.599281 -35.004456 -40.838531
-46.130081 -39.012917 -39.133739
-43.509125 -35.844093 -39.39452
-32.243969 -33.978241 -35.854404
-33.027229 -31.104134 -37.686432
-33.758121 -34.204723 -36.378807
-44.755566 -31.831545 -41.078201
-33.96373 -23.354319 -42.104645
-34.631226 -26.02676 -40.732574
-42.844868 -32.344864 -40.305279
-41.061142 -32.897598 -39.574657
-38.780701 -30.352577 -39.758457
-34.291172 -37.504601 -35.157726
-35.178143 -34.291786 -36.941277
-35.986053 -31.205488 -38.55069
-35.302189 -28.556215 -39.578773
-32.164188 -28.154472 -39.07869
-33.822006 -28.401058 -39.328117
-44.776443 -37.419411 -39.297629
-45.081615 -39.231667 -38.808607
-45.824909 -37.200661 -39.62276
-44.514431 -35.616249 -39.753151
-43.771137 -37.647255 -38.938997
-44.776443 -37.419411 -39.297629
-32.585633 -35.625768 -35.172243
-31.857613 -35.4505 -34.863718
-33.342709 -35.73901 -35.434444
-33.001045 -34.091482 -36.116606
-32.585633 -35.625768 -35.172243
-29.906859 -18.521887 -44.361963
-30.339441 -19.904394 -43.597179
-40.904199 -38.349839 -37.918019
-41.113438 -40.142647 -37.48161
-41.826055 -38.125695 -38.258694
-40.749353 -36.568432 -38.348816
-40.036735 -38.585385 -37.571731
-40.904199 -38.349839 -37.918019
-43.32506 -30.384224 -41.178394
-43.800217 -32.088205 -40.69174
-44.280409 -30.127564 -41.564856
-40.691508 -31.302363 -40.020071
-41.530394 -30.969645 -40.401239
-40.243685 -33.165577 -39.225341
-40.691508 -31.302363 -40.020071
-39.551287 -30.029853 -40.111971
-39.103465 -31.893067 -39.317242
-34.94274 -37.540897 -35.510397
-34.439539 -39.260155 -34.588726
-35.386225 -35.93449 -36.402172
-34.734657 -35.898194 -36.049501
-34.94274 -37.540897 -35.510397
-36.671657 -31.047096 -38.83092
-36.264989 -32.696616 -38.050501
-36.950594 -32.538224 -38.330731
-36.986156 -29.607994 -39.552139
-36.300552 -29.766386 -39.27191
-36.671657 -31.047096 -38.83092
-30.566121 -30.743559 -37.072952
-31.02498 -32.271611 -36.319832
-30.916129 -29.393088 -38.027744
-30.566121 -30.743559 -37.072952
-31.776456 -29.512001 -38.183875
-31.303862 -28.035559 -38.92256
-30.916129 -29.393088 -38.027744
-29.011088 -21.068348 -42.594942
-28.63111 -19.75105 -43.2737
-29.858073 -21.140631 -42.765653
-29.011088 -21.068348 -42.594942
-30.339441 -19.904394 -43.597179
-29.858073 -21.140631 -42.765653
-31.224922 -22.667626 -42.095223
-31.706289 -21.43139 -42.926748
-31.692326 -24.063678 -41.349726
-31.224922 -22.667626 -42.095223
-32.122507 -25.458822 -40.61354
-32.579009 -24.223279 -41.424097
-31.692326 -24.063678 -41.349726
-47.933971 -36.824867 -40.300663
-48.648574 -34.858696 -41.188488
-47.199371 -38.829098 -39.448267
-47.933971 -36.824867 -40.300663
-46.864681 -37.008686 -39.986135
-46.37466 -40.829268 -38.625855
-47.199371 -38.829098 -39.448267
-45.294027 -41.053608 -38.342196
-46.37466 -40.829268 -38.625855
-45.294027 -41.053608 -38.342196
-45.081615 -39.231667 -38.808607
-42.77221 -37.881298 -38.608402
-43.771137 -37.647255 -38.938997
-42.562971 -36.08849 -39.044812
-41.826055 -38.125695 -38.258694
-42.77221 -37.881298 -38.608402
-37.645967 -32.387524 -38.655501
-36.950594 -32.538224 -38.330731
-31.452604 -33.825966 -35.602505
-31.857613 -35.4505 -34.863718
-31.816346 -32.423885 -36.571731
-31.02498 -32.271611 -36.319832
-31.452604 -33.825966 -35.602505
-48.200512 -33.035903 -41.768242
-48.648574 -34.858696 -41.188488
-47.177526 -33.201504 -41.362942
-48.200512 -33.035903 -41.768242
-46.137754 -33.393479 -40.999567
-46.559509 -35.19643 -40.475156
-47.177526 -33.201504 -41.362942
-45.755669 -31.615049 -41.482776
-45.137652 -33.609975 -40.594991
-46.137754 -33.393479 -40.999567
-45.234327 -29.865422 -42.005177
-45.755669 -31.615049 -41.482776
-44.280409 -30.127564 -41.564856
-45.234327 -29.865422 -42.005177
-29.021324 -18.440542 -44.201631
-28.63111 -19.75105 -43.2737
-29.021324 -18.440542 -44.201631
-29.906859 -18.521887 -44.361963
-32.677853 -21.688423 -42.900793
-31.706289 -21.43139 -42.926748
-33.585304 -21.951515 -42.872974
-32.677853 -21.688423 -42.900793
-33.056278 -23.091227 -42.132464
-34.520387 -22.368478 -42.735166
-33.585304 -21.951515 -42.872974
-34.769415 -23.757021 -41.988833
-34.520387 -22.368478 -42.735166
-35.103163 -25.093241 -41.302797
-34.769415 -23.757021 -41.988833
-34.297478 -24.690539 -41.41861
-35.244837 -26.241492 -40.725069
-35.103163 -25.093241 -41.302797
-42.422257 -30.693278 -40.76655
-43.32506 -30.384224 -41.178394
-41.953005 -32.621231 -39.939968
-42.422257 -30.693278 -40.76655
-41.530394 -30.969645 -40.401239
-40.471515 -34.850788 -38.788593
-40.749353 -36.568432 -38.348816
-41.338979 -34.615242 -39.13488
-40.471515 -34.850788 -38.788593
-40.243685 -33.165577 -39.225341
-38.357687 -32.119461 -38.979154
-39.103465 -31.893067 -39.317242
-38.068981 -30.620641 -39.434803
-37.645967 -32.387524 -38.655501
-38.357687 -32.119461 -38.979154
-39.0737 -28.609598 -40.554189
-39.551287 -30.029853 -40.111971
-38.354599 -29.013929 -40.188291
-39.0737 -28.609598 -40.554189
-37.642879 -29.281993 -39.864638
-38.068981 -30.620641 -39.434803
-38.354599 -29.013929 -40.188291
-36.986156 -29.607994 -39.552139
-37.642879 -29.281993 -39.864638
-33.833964 -39.136757 -34.184833
-34.439539 -39.260155 -34.588726
-33.609234 -37.388948 -34.823904
-33.833964 -39.136757 -34.184833
-34.024647 -35.854662 -35.768266
-33.342709 -35.73901 -35.434444
-33.609234 -37.388948 -34.823904
-35.861035 -34.239765 -37.245795
-35.386225 -35.93449 -36.402172
-35.582098 -32.748637 -37.745984
-35.861035 -34.239765 -37.245795
-36.264989 -32.696616 -38.050501
-35.95862 -28.44175 -39.785951
-35.644121 -29.880851 -39.064732
-36.300552 -29.766386 -39.27191
-35.580319 -27.506219 -40.148168
-35.95862 -28.44175 -39.785951
-31.700007 -26.726847 -39.80893
-31.303862 -28.035559 -38.92256
-32.586689 -26.886447 -39.883301
-32.122507 -25.458822 -40.61354
-31.700007 -26.726847 -39.80893
-35.580319 -27.506219 -40.148168
-35.244837 -26.241492 -40.725069
-34.966707 -27.291488 -40.155673
3 0 9 8
3 0 26 28
3 28 27 9
3 26 27 28
3 0 29 31
3 29 10 30
3 29 30 31
3 32 11 33
3 34 13 35
3 36 35 11
3 34 35 36
3 38 37 6
3 1 15 7
3 1 16 15
3 2 39 41
3 39 40 41
3 2 42 44
3 42 43 44
3 45 17 46
3 47 46 14
3 45 46 47
3 48 18 49
3 51 50 18
3 52 19 53
3 54 20 55
3 56 21 57
3 58 57 20
3 56 57 58
3 3 59 61
3 59 22 60
3 59 60 61
3 3 62 64
3 64 63 22
3 62 63 64
3 5 65 66
3 5 67 68
3 5 69 71
3 69 24 70
3 69 70 71
3 4 25 12
3 4 23 25
3 72 6 73
3 74 6 75
3 77 76 6
3 78 7 79
3 80 7 81
3 82 1 83
3 84 83 7
3 82 83 84
3 8 85 86
3 9 87 89
3 89 88 8
3 87 88 89
3 9 90 91
3 9 92 93
3 95 94 9
3 10 96 97
3 10 98 100
3 98 2 99
3 98 99 100
3 101 3 102
3 11 103 104
3 11 105 107
3 105 5 106
3 105 106 107
3 11 12 5
3 13 12 11
3 13 4 12
3 108 8 109
3 110 8 111
3 112 0 113
3 114 113 8
3 112 113 114
3 115 14 116
3 117 116 0
3 115 116 117
3 118 14 119
3 121 120 14
3 6 122 123
3 125 124 6
3 7 126 127
3 15 128 130
3 130 129 7
3 128 129 130
3 15 131 132
3 15 133 134
3 16 135 137
3 137 136 15
3 135 136 137
3 16 138 139
3 14 10 0
3 17 10 14
3 17 2 10
3 140 17 141
3 18 142 144
3 142 17 143
3 142 143 144
3 18 2 17
3 18 145 147
3 147 146 2
3 145 146 147
3 149 148 18
3 19 150 151
3 19 152 154
3 152 3 153
3 152 153 154
3 155 19 156
3 157 19 158
3 159 3 160
3 161 160 19
3 159 160 161
3 163 162 3
3 20 164 165
3 20 166 167
3 20 168 170
3 168 13 169
3 168 169 170
3 21 13 20
3 21 4 13
3 171 21 172
3 22 173 175
3 173 21 174
3 173 174 175
3 22 4 21
3 22 23 4
3 176 23 177
3 178 177 22
3 176 177 178
3 180 179 23
3 24 181 182
3 24 183 185
3 183 1 184
3 183 184 185
3 12 24 5
3 25 24 12
3 25 1 24
3 25 16 1
3 23 16 25
3 23 186 188
3 188 187 16
3 186 187 188
