ply
format ascii 1.0
element vertex 517
property float x
property float y
property float z
element face 419
property list uchar int vertex_index
end_header
1.548695 -32.919533 81.037666
-4.963737 -52.043228 87.932472
1.337702 -19.870312 78.004242
-9.794844 -48.088943 88.423378
-4.65131 -21.84561 88.470695
-9.565763 -43.603111 88.088951
1.559549 -26.470516 79.50589
0.784613 -26.372211 74.3564
0.660759 -32.74979 75.982437
-1.737581 -27.271042 88.689949
-2.269655 -33.029819 88.623978
-1.184616 -43.672943 87.842148
-2.449722 -48.562458 86.74263
1.153034 -19.919142 82.619148
1.509706 -26.579889 84.005356
-6.2472 -41.111748 88.424515
0.813507 -19.79155 72.930206
1.453245 -33.035179 85.223625
-0.981436 -38.458252 88.43409
0.625574 -38.880646 86.464256
1.603621 -29.722427 80.260643
1.272787 -29.665257 77.755287
1.210432 -32.845894 78.578323
0.494165 -35.843395 76.908409
1.036922 -35.948799 79.466911
-3.423105 -30.328747 88.556549
-3.671894 -50.381912 87.493988
-0.119581 -16.862238 85.497803
0.503256 -16.660482 83.836235
0.758173 -20.027693 84.565994
1.360537 -23.260782 83.33786
0.973824 -23.375719 85.229156
-8.326004 -49.1954 88.936317
-8.64732 -51.624241 88.472641
1.222099 -16.513041 77.257263
1.109869 -16.488228 74.78051
1.159111 -19.855623 75.489822
-3.252813 -18.143854 88.117035
-3.132637 -21.35812 88.521347
1.122536 -29.944229 86.321785
0.96595 -33.075832 86.781334
-2.227732 -38.120354 88.672745
-0.155285 -41.425774 87.144547
0.278706 -41.635021 85.634766
0.954601 -38.965988 84.793289
-0.952711 -17.179493 86.785042
-11.450874 -42.645668 87.083847
-11.356804 -44.737823 87.515038
-11.408323 -46.98307 87.603477
1.458895 -23.185532 78.7556
1.215277 -23.166533 76.22197
1.262398 -26.435013 76.975174
0.747034 -29.586763 75.13829
-4.691162 -24.841908 88.527374
-3.103992 -24.486578 88.728447
-3.189619 -27.493837 88.728416
-0.91659 -33.082535 88.502228
-1.739935 -46.156586 87.365768
1.162548 -16.521477 79.641403
0.926331 -16.557228 81.859886
1.340218 -19.877947 80.405891
1.514473 -23.205643 81.153519
1.651093 -26.510643 81.876076
1.708363 -29.780472 82.578911
-4.611212 -41.869041 88.943008
-7.838711 -42.427643 88.354362
-5.891212 -51.217957 88.73362
-6.29484 -53.601185 87.966408
-7.392643 -52.670326 88.447815
-6.340437 -22.333443 88.07077
0.827526 -16.405195 72.275833
0.800913 -23.109728 73.622665
-1.999388 -17.612356 87.660683
1.10984 -26.692642 85.812599
1.556313 -29.852997 84.626816
1.640163 -32.981701 83.281441
-0.905739 -41.104866 88.192284
1.155159 -36.06591 85.826797
1.401279 -36.063332 84.011337
1.351774 -36.022186 81.862129
-4.317816 -51.21257 87.71323
-4.046495 -50.036632 88.042496
-4.692417 -50.86729 88.261738
-4.606618 -52.373127 87.300057
-3.960697 -51.542469 87.080815
-4.317816 -51.21257 87.71323
-5.168128 -53.211839 87.474129
-4.606618 -52.373127 87.300057
0.447994 -20.126803 85.370022
0.319296 -18.444966 85.031899
0.009117 -18.544075 85.835926
0.55582 -21.800815 85.701603
0.865999 -21.701706 84.897575
0.447994 -20.126803 85.370022
-8.910954 -47.467773 88.747829
-9.704039 -46.935909 88.425621
-9.060424 -48.642172 88.679847
-8.176534 -48.021001 89.004299
-8.910954 -47.467773 88.747829
-9.917613 -49.299081 88.255547
-9.183193 -49.85231 88.512016
-9.060424 -48.642172 88.679847
-3.891973 -21.601865 88.496021
-3.914857 -20.050472 88.349853
-4.674193 -20.294218 88.324528
0.568885 -33.085413 87.334308
0.68018 -31.562793 87.187161
-0.048336 -42.949343 85.197178
-0.174017 -42.834699 86.073704
0.340261 -41.687326 84.681942
-0.048336 -42.949343 85.197178
-1.600066 -15.72495 86.908394
-1.091523 -15.491962 86.438813
-12.463453 -42.197117 86.515778
-11.5858 -41.668368 86.708134
-12.255346 -45.327736 87.042057
-12.299216 -44.242115 86.971715
-12.281106 -46.450359 87.086277
-11.382563 -45.860446 87.559258
-12.255346 -45.327736 87.042057
-12.297592 -47.621458 86.99892
-12.281106 -46.450359 87.086277
0.298316 -32.680982 74.649231
0.341453 -31.099469 74.227158
0.703896 -31.168276 75.560363
0.212394 -34.223943 75.119484
0.298316 -32.680982 74.649231
0.006695 -37.268978 76.108825
0.356548 -37.340246 77.421543
-4.013652 -27.595712 88.539211
-3.940391 -26.167873 88.627895
-4.764423 -26.269747 88.43869
-2.088755 -31.643101 88.665425
-2.665481 -30.292564 88.63171
-2.84638 -31.679283 88.590263
-1.593123 -33.056177 88.563103
-1.412223 -31.669458 88.60455
-2.088755 -31.643101 88.665425
-2.094829 -47.359522 87.054199
-2.380537 -47.091099 87.731682
-2.73543 -48.294035 87.420113
-1.893405 -47.548509 86.268166
-1.538512 -46.345574 86.579735
-2.094829 -47.359522 87.054199
-2.298461 -48.749365 85.857731
-1.893405 -47.548509 86.268166
0.937968 -14.841451 80.360905
1.08449 -14.819944 79.258445
-5.553394 -40.33688 88.423351
-6.43937 -40.020199 88.048573
-5.429206 -41.490395 88.683762
-4.735399 -40.715527 88.682598
-5.553394 -40.33688 88.423351
-8.702237 -43.015377 88.221656
-8.771527 -41.984051 87.893058
-9.635053 -42.571785 87.760353
-6.454778 -50.73633 88.896618
-5.649997 -50.032818 88.972371
-7.205493 -51.462515 88.753715
-6.641927 -51.944142 88.590718
-6.454778 -50.73633 88.896618
-8.774947 -52.86381 88.094776
-9.459397 -52.318415 87.966656
-7.254698 -22.561369 87.729503
-7.205236 -21.158356 87.703514
-6.391666 -23.754572 88.02124
-7.254698 -22.561369 87.729503
0.562005 -19.715068 71.656105
0.569014 -18.02189 71.328919
0.820516 -18.098372 72.60302
-1.906742 -19.259258 87.915059
-2.626101 -17.878105 87.888859
-2.533454 -19.525007 88.143235
-1.359472 -19.066885 87.523434
-1.906742 -19.259258 87.915059
-1.727631 -25.70402 88.603832
-2.410836 -24.311788 88.623081
-2.420787 -25.87881 88.709198
0.772073 -26.772301 86.51921
0.722494 -25.127784 86.283901
-1.211076 -37.106437 88.506211
-1.834224 -36.937489 88.625538
-1.604584 -38.289303 88.553417
-0.628604 -37.188368 88.29396
-1.211076 -37.106437 88.506211
-1.045177 -42.388904 88.017216
-1.476992 -42.142372 88.443535
-1.61643 -43.426411 88.268467
0.301735 -38.796776 87.079247
-0.088695 -40.06934 87.419392
0.235144 -40.15321 86.804402
0.610802 -37.450601 86.845974
0.301735 -38.796776 87.079247
0.890367 -37.473278 86.145527
0.875595 -36.043233 86.527244
0.610802 -37.450601 86.845974
1.189011 -37.521347 83.384049
1.17794 -37.51466 84.402313
0.965672 -38.972675 83.775025
1.164259 -37.500774 82.309444
1.376526 -36.042759 82.936733
1.189011 -37.521347 83.384049
1.035428 -37.477659 81.152046
1.164259 -37.500774 82.309444
-6.41225 -54.78907 87.450791
-6.971707 -54.353243 87.759991
0.627926 -37.392948 78.700794
0.356548 -37.340246 77.421543
0.765543 -35.896097 78.18766
-4.275259 -30.346668 88.275418
-4.130395 -29.013167 88.453277
-3.635438 -31.630381 88.422009
-4.275259 -30.346668 88.275418
-3.058713 -32.980917 88.455723
-2.84638 -31.679283 88.590263
-3.635438 -31.630381 88.422009
-3.346516 -49.203762 87.795792
-4.046495 -50.036632 88.042496
-3.060808 -49.472185 87.118309
-2.73543 -48.294035 87.420113
-3.346516 -49.203762 87.795792
-3.419789 -50.64236 86.723613
-2.808702 -49.732633 86.347935
-3.060808 -49.472185 87.118309
-3.419789 -50.64236 86.723613
-3.960697 -51.542469 87.080815
0.191838 -16.76136 84.667019
0.051767 -15.066793 84.296196
-0.259652 -15.167671 85.12698
-7.160452 -40.72279 88.004593
-6.43937 -40.020199 88.048573
-8.702828 -44.097571 88.479614
-9.589499 -44.692993 88.258408
-7.472069 -48.539904 89.146961
-8.176534 -48.021001 89.004299
-7.672173 -49.725052 88.997967
-7.472069 -48.539904 89.146961
-8.486662 -50.40982 88.704479
-7.832832 -50.939472 88.766129
-7.672173 -49.725052 88.997967
-9.343851 -51.06673 88.280178
-8.486662 -50.40982 88.704479
-9.183193 -49.85231 88.512016
-9.459397 -52.318415 87.966656
-9.343851 -51.06673 88.280178
1.165984 -16.500635 76.018887
1.118269 -14.791701 75.652306
1.174384 -14.804108 76.890682
0.467044 -26.309224 73.033379
0.420624 -27.91519 73.414536
-3.974945 -18.44334 88.147697
-4.03538 -16.847717 87.905697
-3.192725 -19.750987 88.319191
-3.974945 -18.44334 88.147697
-3.914857 -20.050472 88.349853
-2.473367 -21.13214 88.345391
-2.533454 -19.525007 88.143235
-3.192725 -19.750987 88.319191
-1.128645 -27.160595 88.441326
-1.180472 -28.714827 88.541416
0.758474 -29.996992 86.957386
0.778421 -28.398095 86.773803
1.044243 -31.51003 86.551559
0.758474 -29.996992 86.957386
0.68018 -31.562793 87.187161
-2.758704 -39.137138 88.738766
-2.976508 -37.915613 88.556286
-2.093762 -39.39818 88.708126
-2.758704 -39.137138 88.738766
-1.470614 -39.567129 88.588798
-1.604584 -38.289303 88.553417
-2.093762 -39.39818 88.708126
-0.391013 -42.730076 86.828595
-0.66995 -42.549358 87.493347
-0.905678 -43.85366 87.177395
0.061711 -41.530397 86.389657
-0.391013 -42.730076 86.828595
-0.174017 -42.834699 86.073704
0.678209 -40.35281 84.261203
0.616653 -40.300505 85.214028
0.340261 -41.687326 84.681942
0.965672 -38.972675 83.775025
0.678209 -40.35281 84.261203
-0.674958 -15.333335 85.795193
-0.259652 -15.167671 85.12698
-0.536146 -17.020865 86.141423
-0.674958 -15.333335 85.795193
-1.091523 -15.491962 86.438813
-0.407448 -18.702703 86.479546
0.009117 -18.544075 85.835926
-0.536146 -17.020865 86.141423
-10.577608 -42.093063 87.257801
-11.5858 -41.668368 86.708134
-10.508319 -43.124389 87.586399
-9.635053 -42.571785 87.760353
-10.577608 -42.093063 87.257801
-12.346252 -43.196038 86.756119
-12.463453 -42.197117 86.515778
-11.403839 -43.691745 87.299442
-12.346252 -43.196038 86.756119
-12.299216 -44.242115 86.971715
-10.485019 -45.260349 87.971451
-9.589499 -44.692993 88.258408
-10.461284 -44.170467 87.801995
-10.510779 -46.382972 88.01567
-10.485019 -45.260349 87.971451
-11.382563 -45.860446 87.559258
-10.601584 -47.536006 88.013428
-9.704039 -46.935909 88.425621
-10.510779 -46.382972 88.01567
-11.482616 -48.178272 87.484691
-10.675877 -48.731209 87.894642
-10.601584 -47.536006 88.013428
-11.482616 -48.178272 87.484691
-12.297592 -47.621458 86.99892
0.401834 -29.522466 73.805481
0.420624 -27.91519 73.414536
0.765823 -27.979487 74.747345
0.401834 -29.522466 73.805481
0.341453 -31.099469 74.227158
0.129097 -35.770746 75.58247
0.212394 -34.223943 75.119484
0.577462 -34.296593 76.445423
0.129097 -35.770746 75.58247
0.006695 -37.268978 76.108825
-3.306362 -28.911292 88.642482
-4.013652 -27.595712 88.539211
-4.130395 -29.013167 88.453277
-2.548738 -28.87511 88.717644
-3.306362 -28.911292 88.642482
-2.665481 -30.292564 88.63171
-1.822719 -28.763712 88.69841
-2.4636 -27.38244 88.709182
-2.548738 -28.87511 88.717644
-1.180472 -28.714827 88.541416
-1.822719 -28.763712 88.69841
-0.769977 -31.620574 88.447555
-1.412223 -31.669458 88.60455
-0.372385 -33.088764 88.194755
-0.769977 -31.620574 88.447555
-1.810201 -44.650453 88.166195
-1.61643 -43.426411 88.268467
-2.087861 -45.892275 87.928005
-2.380537 -47.091099 87.731682
-1.462276 -44.914764 87.603958
-1.810201 -44.650453 88.166195
-2.087861 -45.892275 87.928005
-1.183338 -45.095482 86.939205
-0.905678 -43.85366 87.177395
-1.462276 -44.914764 87.603958
-1.183338 -45.095482 86.939205
-1.538512 -46.345574 86.579735
-2.298461 -48.749365 85.857731
-2.808702 -49.732633 86.347935
1.114266 -14.815726 78.066375
1.174384 -14.804108 76.890682
1.192324 -16.517259 78.449333
1.114266 -14.815726 78.066375
1.08449 -14.819944 79.258445
0.374804 -14.963868 83.450489
0.051767 -15.066793 84.296196
0.586341 -14.912241 82.462315
0.374804 -14.963868 83.450489
0.714794 -16.608855 82.848061
0.819859 -14.859326 81.470146
0.586341 -14.912241 82.462315
1.044439 -16.539352 80.750644
0.937968 -14.841451 80.360905
0.819859 -14.859326 81.470146
-3.950443 -41.011482 88.873897
-4.735399 -40.715527 88.682598
-3.905672 -42.219391 88.998268
-3.950443 -41.011482 88.873897
-7.956207 -41.380738 87.969516
-8.771527 -41.984051 87.893058
-7.042955 -41.769695 88.389438
-7.160452 -40.72279 88.004593
-7.956207 -41.380738 87.969516
-7.839302 -43.509837 88.612319
-8.702237 -43.015377 88.221656
-8.702828 -44.097571 88.479614
-6.993929 -42.873844 88.679066
-7.839302 -43.509837 88.612319
-6.198174 -42.215896 88.714142
-7.042955 -41.769695 88.389438
-6.993929 -42.873844 88.679066
-5.38018 -42.594543 88.973388
-5.429206 -41.490395 88.683762
-6.198174 -42.215896 88.714142
-4.638165 -43.023493 89.115036
-5.38018 -42.594543 88.973388
-3.905672 -42.219391 88.998268
-4.638165 -43.023493 89.115036
-5.156154 -50.454655 88.662312
-5.649997 -50.032818 88.972371
-5.427475 -51.630592 88.333046
-4.692417 -50.86729 88.261738
-5.156154 -50.454655 88.662312
-7.520609 -53.887814 88.000695
-6.971707 -54.353243 87.759991
-6.843742 -53.135756 88.207111
-8.019982 -52.147284 88.460228
-7.205493 -51.462515 88.753715
-7.832832 -50.939472 88.766129
-8.147609 -53.386852 88.082363
-8.019982 -52.147284 88.460228
-8.774947 -52.86381 88.094776
-7.520609 -53.887814 88.000695
-8.147609 -53.386852 88.082363
-9.917613 -49.299081 88.255547
-10.675877 -48.731209 87.894642
-5.481008 -20.60762 88.183212
-4.674193 -20.294218 88.324528
-6.325572 -20.851537 87.983249
-7.205236 -21.158356 87.703514
-5.495874 -22.089526 88.270733
-5.481008 -20.60762 88.183212
-6.325572 -20.851537 87.983249
-5.567028 -25.008805 88.249542
-5.515799 -23.587675 88.299072
-6.391666 -23.754572 88.02124
-4.764423 -26.269747 88.43869
-5.567028 -25.008805 88.249542
1.090433 -14.768549 74.438214
1.118269 -14.791701 75.652306
0.949261 -14.727033 73.185875
1.090433 -14.768549 74.438214
0.968697 -16.446711 73.528172
0.831886 -14.673538 71.963951
0.949261 -14.727033 73.185875
0.604054 -16.316644 71.036415
0.831886 -14.673538 71.963951
0.604054 -16.316644 71.036415
0.569014 -18.02189 71.328919
0.475194 -24.677982 72.666511
0.792763 -24.740969 73.989532
0.467044 -26.309224 73.033379
0.516358 -23.042645 72.319572
0.475194 -24.677982 72.666511
0.522655 -21.383555 71.973343
0.80721 -21.450639 73.276435
0.516358 -23.042645 72.319572
0.562005 -19.715068 71.656105
0.522655 -21.383555 71.973343
-3.34977 -16.502792 87.838268
-4.03538 -16.847717 87.905697
-2.723058 -16.237043 87.610093
-3.34977 -16.502792 87.838268
-2.626101 -17.878105 87.888859
-2.123404 -15.941381 87.346215
-2.723058 -16.237043 87.610093
-1.47605 -17.395924 87.222863
-1.600066 -15.72495 86.908394
-2.123404 -15.941381 87.346215
-0.836134 -18.850454 87.085613
-1.47605 -17.395924 87.222863
-1.359472 -19.066885 87.523434
-0.407448 -18.702703 86.479546
-0.836134 -18.850454 87.085613
-2.425159 -22.747559 88.519531
-3.118314 -22.922349 88.624897
-2.410836 -24.311788 88.623081
-2.473367 -21.13214 88.345391
-2.425159 -22.747559 88.519531
-1.727631 -25.70402 88.603832
-1.128645 -27.160595 88.441326
0.654486 -23.469323 85.992179
0.55582 -21.800815 85.701603
1.041832 -25.03418 85.520878
0.654486 -23.469323 85.992179
0.722494 -25.127784 86.283901
1.116188 -28.318435 86.067192
0.772073 -26.772301 86.51921
0.778421 -28.398095 86.773803
-2.567315 -34.279646 88.56913
-3.058713 -32.980917 88.455723
-2.546353 -36.824913 88.593514
-2.976508 -37.915613 88.556286
-2.546353 -36.824913 88.593514
-1.834224 -36.937489 88.625538
-1.855186 -34.392221 88.601155
-2.567315 -34.279646 88.56913
-1.178653 -34.418579 88.540279
-1.593123 -33.056177 88.563103
-1.855186 -34.392221 88.601155
-0.596181 -34.500509 88.328029
-1.178653 -34.418579 88.540279
-0.372385 -33.088764 88.194755
-0.596181 -34.500509 88.328029
-1.432766 -40.890436 88.467895
-1.476992 -42.142372 88.443535
-0.943588 -39.781559 88.313187
-1.470614 -39.567129 88.588798
-1.432766 -40.890436 88.467895
-0.463921 -39.908886 87.943261
-0.530512 -41.26532 87.668416
-0.088695 -40.06934 87.419392
-0.50177 -38.585579 88.064164
-0.943588 -39.781559 88.313187
-0.463921 -39.908886 87.943261
-0.628604 -37.188368 88.29396
-0.50177 -38.585579 88.064164
0.78099 -34.548194 87.004513
0.568885 -33.085413 87.334308
1.060555 -34.570871 86.304066
0.78099 -34.548194 87.004513
0.875595 -36.043233 86.527244
0.878002 -37.440966 79.954437
1.194348 -35.985492 80.66452
1.035428 -37.477659 81.152046
0.627926 -37.392948 78.700794
0.878002 -37.440966 79.954437
-5.83368 -53.990818 87.491096
-5.168128 -53.211839 87.474129
-5.629288 -52.822207 87.94944
-5.83368 -53.990818 87.491096
-6.41225 -54.78907 87.450791
3 0 22 20
3 0 24 22
3 1 80 82
3 80 26 81
3 80 81 82
3 1 83 85
3 85 84 26
3 83 84 85
3 1 86 87
3 88 29 89
3 90 89 27
3 88 89 90
3 91 31 92
3 93 92 29
3 91 92 93
3 3 94 95
3 3 96 98
3 96 32 97
3 96 97 98
3 3 99 101
3 101 100 32
3 99 100 101
3 2 36 34
3 4 102 104
3 102 38 103
3 102 103 104
3 105 40 106
3 107 43 108
3 110 109 43
3 111 45 112
3 113 46 114
3 115 47 116
3 117 48 118
3 119 118 47
3 117 118 119
3 121 120 48
3 6 51 49
3 8 52 21
3 8 122 124
3 124 123 52
3 122 123 124
3 8 125 126
3 128 127 23
3 129 55 130
3 131 130 53
3 129 130 131
3 10 132 134
3 134 133 25
3 132 133 134
3 10 135 137
3 135 56 136
3 135 136 137
3 12 138 140
3 138 57 139
3 138 139 140
3 12 141 143
3 143 142 57
3 141 142 143
3 12 144 145
3 146 58 147
3 13 59 28
3 13 60 59
3 13 61 60
3 14 62 30
3 14 63 62
3 15 148 149
3 15 150 152
3 150 64 151
3 150 151 152
3 5 153 155
3 153 65 154
3 153 154 155
3 156 66 157
3 158 68 159
3 160 159 66
3 158 159 160
3 162 161 33
3 163 69 164
3 166 165 69
3 16 70 35
3 16 167 169
3 169 168 70
3 167 168 169
3 7 71 50
3 170 72 171
3 172 171 37
3 170 171 172
3 174 173 72
3 9 175 177
3 177 176 54
3 175 176 177
3 178 73 179
3 17 74 39
3 17 75 74
3 18 180 182
3 182 181 41
3 180 181 182
3 18 183 184
3 11 185 187
3 185 76 186
3 185 186 187
3 19 188 190
3 190 189 42
3 188 189 190
3 19 191 192
3 19 193 195
3 193 77 194
3 193 194 195
3 196 78 197
3 198 197 44
3 196 197 198
3 199 79 200
3 201 200 78
3 199 200 201
3 203 202 79
3 205 204 67
3 20 21 6
3 22 21 20
3 22 8 21
3 22 23 8
3 24 23 22
3 24 206 208
3 208 207 23
3 206 207 208
3 209 25 210
3 211 25 212
3 213 10 214
3 215 214 25
3 213 214 215
3 26 216 217
3 26 218 220
3 218 12 219
3 218 219 220
3 26 221 223
3 223 222 12
3 221 222 223
3 225 224 26
3 27 226 228
3 226 28 227
3 226 227 228
3 29 28 27
3 29 13 28
3 29 30 13
3 31 30 29
3 31 14 30
3 229 15 230
3 232 231 5
3 32 233 234
3 32 235 236
3 32 237 239
3 237 33 238
3 237 238 239
3 240 33 241
3 242 241 32
3 240 241 242
3 244 243 33
3 34 245 247
3 245 35 246
3 245 246 247
3 36 35 34
3 36 16 35
3 249 248 7
3 250 37 251
3 38 252 254
3 252 37 253
3 252 253 254
3 38 255 257
3 257 256 37
3 255 256 257
3 259 258 9
3 260 39 261
3 40 262 264
3 262 39 263
3 262 263 264
3 40 17 39
3 265 41 266
3 267 41 268
3 269 18 270
3 271 270 41
3 269 270 271
3 272 42 273
3 274 273 11
3 272 273 274
3 43 275 277
3 275 42 276
3 275 276 277
3 43 19 42
3 43 44 19
3 278 44 279
3 280 279 43
3 278 279 280
3 282 281 44
3 283 27 284
3 45 285 287
3 285 27 286
3 285 286 287
3 45 288 290
3 290 289 27
3 288 289 290
3 46 291 292
3 46 293 295
3 293 5 294
3 293 294 295
3 296 46 297
3 47 298 300
3 298 46 299
3 298 299 300
3 47 5 46
3 47 301 303
3 303 302 5
3 301 302 303
3 48 304 306
3 306 305 47
3 304 305 306
3 48 307 309
3 307 3 308
3 307 308 309
3 48 310 312
3 312 311 3
3 310 311 312
3 314 313 48
3 49 50 2
3 51 50 49
3 51 7 50
3 21 51 6
3 52 51 21
3 52 7 51
3 52 315 317
3 317 316 7
3 315 316 317
3 319 318 52
3 23 320 322
3 322 321 8
3 320 321 322
3 324 323 23
3 53 54 4
3 55 54 53
3 55 9 54
3 25 325 327
3 325 55 326
3 325 326 327
3 328 55 329
3 330 329 25
3 328 329 330
3 331 9 332
3 333 332 55
3 331 332 333
3 335 334 9
3 56 336 337
3 56 338 339
3 340 11 341
3 57 342 343
3 57 344 346
3 344 11 345
3 344 345 346
3 57 347 349
3 349 348 11
3 347 348 349
3 351 350 57
3 353 352 12
3 354 34 355
3 58 356 358
3 356 34 357
3 356 357 358
3 58 2 34
3 28 359 360
3 59 361 363
3 363 362 28
3 361 362 363
3 59 364 365
3 59 366 368
3 366 58 367
3 366 367 368
3 60 58 59
3 60 2 58
3 60 49 2
3 61 49 60
3 61 6 49
3 30 61 13
3 62 61 30
3 62 6 61
3 62 20 6
3 63 20 62
3 63 0 20
3 64 369 370
3 64 371 372
3 65 373 374
3 65 375 377
3 375 15 376
3 375 376 377
3 378 65 379
3 380 379 5
3 378 379 380
3 381 65 382
3 383 15 384
3 385 384 65
3 383 384 385
3 386 64 387
3 388 387 15
3 386 387 388
3 389 64 390
3 392 391 64
3 66 393 394
3 66 395 397
3 395 1 396
3 395 396 397
3 66 67 1
3 68 67 66
3 68 398 400
3 400 399 67
3 398 399 400
3 33 401 403
3 401 68 402
3 401 402 403
3 404 68 405
3 406 405 33
3 404 405 406
3 408 407 68
3 410 409 3
3 411 4 412
3 69 413 414
3 69 415 417
3 415 4 416
3 415 416 417
3 69 53 4
3 418 53 419
3 420 419 69
3 418 419 420
3 422 421 53
3 35 423 424
3 70 425 427
3 427 426 35
3 425 426 427
3 70 428 429
3 70 430 431
3 433 432 70
3 50 36 2
3 71 36 50
3 71 16 36
3 434 71 435
3 436 435 7
3 434 435 436
3 437 71 438
3 439 16 440
3 441 440 71
3 439 440 441
3 443 442 16
3 37 444 445
3 72 446 448
3 448 447 37
3 446 447 448
3 72 449 450
3 72 451 453
3 451 45 452
3 451 452 453
3 454 45 455
3 456 455 72
3 454 455 456
3 458 457 45
3 54 38 4
3 459 38 460
3 461 460 54
3 459 460 461
3 463 462 38
3 465 464 9
3 466 31 467
3 73 468 470
3 468 31 469
3 468 469 470
3 73 14 31
3 39 471 473
3 471 73 472
3 471 472 473
3 74 73 39
3 74 14 73
3 74 63 14
3 75 63 74
3 75 0 63
3 474 10 475
3 41 476 477
3 479 478 41
3 480 10 481
3 482 56 483
3 484 483 10
3 482 483 484
3 485 56 486
3 488 487 56
3 76 489 490
3 76 491 493
3 491 18 492
3 491 492 493
3 42 76 11
3 494 76 495
3 496 495 42
3 494 495 496
3 497 18 498
3 499 498 76
3 497 498 499
3 501 500 18
3 502 40 503
3 77 504 506
3 504 40 505
3 504 505 506
3 77 17 40
3 44 77 19
3 78 77 44
3 78 17 77
3 78 75 17
3 79 75 78
3 79 0 75
3 79 24 0
3 507 24 508
3 509 508 79
3 507 508 509
3 511 510 24
3 67 512 514
3 514 513 1
3 512 513 514
3 516 515 67
