ply
format ascii 1.0
element vertex 285
property float x
property float y
property float z
element face 227
property list uchar int vertex_index
end_header
-1.801088 -41.218307 41.263767
-0.258049 -42.499619 44.505756
-0.563812 -47.978203 41.290283
-3.112738 -10.650192 43.297478
-2.641584 -19.264673 43.772079
-1.265234 -35.416206 44.301407
-5.745737 -6.07616 35.850246
-3.437815 -2.045382 42.412971
-2.042875 -27.61694 44.070415
-1.084064 -41.8358 42.935249
-0.483883 -45.204323 42.990906
-1.211306 -44.682259 41.275887
-3.808516 -9.358706 41.583546
-3.597582 -13.724793 41.934216
-0.290754 -36.306381 45.675285
-0.712286 -32.585197 45.549526
-6.47389 -5.226227 33.756401
1.937712 -47.042244 47.70092
-3.100363 -22.370827 42.401672
-2.359831 -23.493073 43.933517
-2.809114 -26.573921 42.563805
-7.613913 -8.300023 30.137711
0.646948 -43.203247 45.981155
1.124189 -46.392914 46.182236
0.305708 -45.776592 44.622566
0.145985 -48.412209 43.063721
-2.045069 -16.267851 45.070618
-2.892809 -14.971167 43.568893
0.166708 -39.845123 45.816383
-0.788853 -39.049698 44.40345
-1.62179 -38.289391 42.875179
-2.509756 -7.727944 44.612953
-3.296556 -6.33359 42.924198
-3.989241 -5.007314 41.113564
-3.530615 2.19829 41.73119
-4.641748 -3.777655 39.197952
-5.30739 -2.666523 37.188801
-6.016729 -1.688023 35.086952
-6.764235 -0.849319 32.883434
-1.758959 -20.497721 45.208038
-1.442705 -24.652151 45.323311
-1.095186 -28.692535 45.433952
-1.681429 -31.600367 44.191689
-2.08436 -34.557739 42.797035
-1.825767 -42.714432 40.374055
-1.530876 -44.446407 40.380116
-1.506197 -42.950283 41.269827
-4.010521 -10.956209 40.886438
-4.124477 -8.755809 40.672903
-0.347969 -31.184193 46.103632
-0.154722 -33.085751 46.164122
-6.675831 -7.074213 33.05331
-6.849224 -4.866238 32.654731
1.764055 -45.489491 47.54608
2.232293 -45.865155 48.243782
-3.113187 -26.077557 41.749584
-2.954739 -24.472374 42.482738
-3.258812 -23.976011 41.668518
-2.956024 -28.155744 41.818549
-3.113187 -26.077557 41.749584
-0.233379 -49.552773 41.312984
0.12152 -49.769775 42.199703
-0.208913 -48.195206 42.177002
-0.566637 -49.402681 40.367165
-0.233379 -49.552773 41.312984
-3.002773 -12.810679 43.433186
-2.595242 -13.485797 44.226452
-2.705206 -11.325309 44.090744
-3.479456 -15.899669 42.066084
-3.781296 -15.337477 41.222078
0.484136 -38.530756 46.376909
0.684953 -40.255266 46.477897
-5.591875 -8.2935 36.146375
-5.408421 -6.565114 36.849937
-7.418966 -10.519655 30.498862
-7.767919 -10.244815 29.384679
-2.156985 -6.338114 45.253982
-2.053246 -8.443182 45.390096
-3.367185 -4.189486 42.668584
-2.984796 -4.904286 43.571169
-3.055426 -2.760182 43.315556
-3.550714 4.293102 41.293215
-3.179409 3.555624 42.323227
-4.724836 -1.613631 38.832874
-4.387401 -2.235717 39.844746
-5.057657 -1.058064 37.828299
-4.974569 -3.222089 38.193376
-4.724836 -1.613631 38.832874
-6.128126 0.47486 34.611418
-5.760656 -0.011311 35.718319
-6.501879 0.894212 33.509659
-6.390482 -1.268671 33.985193
-6.128126 0.47486 34.611418
1.213018 -49.166058 45.604648
1.342841 -47.912775 46.308769
0.994366 -47.646197 45.478115
-2.412506 -34.150003 41.984218
-2.279999 -32.60202 42.745628
-2.197776 -36.065153 42.015026
-2.412506 -34.150003 41.984218
-1.221055 -46.139776 40.365112
-0.897308 -47.787748 40.37231
-0.887559 -46.330231 41.283085
-1.221055 -46.139776 40.365112
-1.530876 -44.446407 40.380116
-3.905054 -13.139253 41.061774
-3.703049 -11.541749 41.758881
-4.010521 -10.956209 40.886438
-3.781296 -15.337477 41.222078
-3.905054 -13.139253 41.061774
0.056044 -34.946343 46.227001
0.255405 -36.761385 46.30636
-0.50152 -34.445789 45.612406
0.056044 -34.946343 46.227001
-0.154722 -33.085751 46.164122
-6.303974 -7.442406 34.101127
-5.939897 -7.867373 35.14805
-6.109813 -5.651193 34.803323
-6.303974 -7.442406 34.101127
-6.675831 -7.074213 33.05331
-3.109169 -0.651704 43.037537
-3.055426 -2.760182 43.315556
2.326003 -47.376531 48.463031
2.232293 -45.865155 48.243782
2.07593 -48.520454 47.888745
2.326003 -47.376531 48.463031
-2.642375 -28.610111 42.629013
-2.259256 -29.131621 43.382318
-2.425994 -27.09543 43.31711
-2.789286 -30.191935 41.883757
-2.642375 -28.610111 42.629013
-2.956024 -28.155744 41.818549
-7.775101 -6.108038 29.68177
-7.419236 -6.403136 30.845387
-7.940437 -8.045526 28.967076
-7.775101 -6.108038 29.68177
-7.767919 -10.244815 29.384679
-7.940437 -8.045526 28.967076
0.885568 -44.79808 46.081696
1.357294 -45.164825 46.786738
1.118673 -43.569992 46.686197
0.585125 -47.338036 44.69828
0.994366 -47.646197 45.478115
0.714948 -46.084753 45.402401
0.505263 -48.655844 43.918858
0.585125 -47.338036 44.69828
0.225847 -47.0944 43.843143
0.450314 -49.947277 43.122357
0.505263 -48.655844 43.918858
0.450314 -49.947277 43.122357
0.12152 -49.769775 42.199703
-0.566637 -49.402681 40.367165
-0.897308 -47.787748 40.37231
-2.171372 -14.134139 44.977314
-1.690952 -14.824025 45.700661
-2.468939 -15.619509 44.319755
-2.171372 -14.134139 44.977314
-2.595242 -13.485797 44.226452
-3.12707 -16.522856 42.883423
-3.245196 -14.34798 42.751554
-3.479456 -15.899669 42.066084
-3.001457 -18.669609 42.985016
-2.767196 -17.11792 43.670486
-3.12707 -16.522856 42.883423
-3.230847 -20.222686 42.299812
-2.870973 -20.81775 43.086875
-3.001457 -18.669609 42.985016
-3.400677 -21.838347 41.576698
-3.230847 -20.222686 42.299812
-3.258812 -23.976011 41.668518
-3.400677 -21.838347 41.576698
0.925072 -41.934328 46.560283
1.118673 -43.569992 46.686197
0.406828 -41.524185 45.898769
0.925072 -41.934328 46.560283
0.684953 -40.255266 46.477897
-0.062023 -38.075752 45.745834
0.484136 -38.530756 46.376909
0.255405 -36.761385 46.30636
-5.591875 -8.2935 36.146375
-5.939897 -7.867373 35.14805
-7.245842 -8.611111 31.243966
-7.419236 -6.403136 30.845387
-7.245842 -8.611111 31.243966
-7.418966 -10.519655 30.498862
-2.403715 -9.864185 44.748481
-2.053246 -8.443182 45.390096
-2.811247 -9.189068 43.955215
-2.705206 -11.325309 44.090744
-2.403715 -9.864185 44.748481
-2.591397 -5.601463 44.415546
-2.156985 -6.338114 45.253982
-2.903156 -7.030767 43.768575
-2.591397 -5.601463 44.415546
-2.984796 -4.904286 43.571169
-4.21484 -6.580113 40.437912
-4.124477 -8.755809 40.672903
-3.898878 -7.18301 41.348555
-3.155569 1.470132 42.696646
-3.179409 3.555624 42.323227
-3.484215 0.076454 42.07208
-3.109169 -0.651704 43.037537
-3.155569 1.470132 42.696646
-3.881943 2.882544 40.710668
-3.550714 4.293102 41.293215
-3.831835 0.752255 41.111365
-3.881943 2.882544 40.710668
-3.785435 -1.369581 41.452255
-3.484215 0.076454 42.07208
-3.831835 0.752255 41.111365
-4.061148 -2.850547 40.802551
-3.713528 -3.526348 41.763267
-3.785435 -1.369581 41.452255
-4.315494 -4.392485 40.155758
-4.061148 -2.850547 40.802551
-4.387401 -2.235717 39.844746
-4.541093 -5.965283 39.480106
-4.21484 -6.580113 40.437912
-4.315494 -4.392485 40.155758
-4.856426 -5.415862 38.52379
-4.541093 -5.965283 39.480106
-5.189247 -4.860296 37.519215
-4.856426 -5.415862 38.52379
-4.974569 -3.222089 38.193376
-5.526563 -4.371341 36.519523
-5.408421 -6.565114 36.849937
-5.189247 -4.860296 37.519215
-5.405987 -0.500561 36.769244
-5.057657 -1.058064 37.828299
-5.662059 -2.177273 36.137876
-5.405987 -0.500561 36.769244
-5.760656 -0.011311 35.718319
-6.994397 -2.677784 32.218248
-6.849224 -4.866238 32.654731
-6.619063 -3.037773 33.319918
-6.879708 1.305666 32.350559
-6.501879 0.894212 33.509659
-7.136567 -0.501122 31.724226
-6.879708 1.305666 32.350559
-6.994397 -2.677784 32.218248
-7.136567 -0.501122 31.724226
1.530951 -46.717579 46.941578
1.764055 -45.489491 47.54608
1.357294 -45.164825 46.786738
1.749602 -48.23744 47.068112
1.530951 -46.717579 46.941578
1.342841 -47.912775 46.308769
2.07593 -48.520454 47.888745
1.749602 -48.23744 47.068112
-1.540741 -16.928166 45.74946
-1.690952 -14.824025 45.700661
-1.397686 -19.043101 45.818171
-1.540741 -16.928166 45.74946
-1.902014 -18.382786 45.139328
-1.232633 -21.123945 45.852882
-1.397686 -19.043101 45.818171
-1.074505 -23.201159 45.910518
-1.232633 -21.123945 45.852882
-1.600832 -22.574936 45.265675
-0.89839 -25.239815 45.945568
-1.074505 -23.201159 45.910518
-0.724631 -27.260008 46.000889
-0.89839 -25.239815 45.945568
-1.268946 -26.672343 45.378631
-0.539419 -29.237862 46.045845
-0.724631 -27.260008 46.000889
-0.903736 -30.638866 45.491739
-0.347969 -31.184193 46.103632
-0.539419 -29.237862 46.045845
-2.078533 -31.123334 43.442955
-1.862152 -29.608653 44.131052
-2.259256 -29.131621 43.382318
-1.882895 -33.079053 43.494362
-2.078533 -31.123334 43.442955
-2.279999 -32.60202 42.745628
-1.966492 -37.930979 42.054098
-1.853075 -36.423565 42.836107
-2.197776 -36.065153 42.015026
-2.05614 -39.395437 41.248392
-1.711439 -39.753849 42.069473
-1.966492 -37.930979 42.054098
-2.099188 -40.933794 40.38474
-2.05614 -39.395437 41.248392
-1.825767 -42.714432 40.374055
-2.099188 -40.933794 40.38474
3 0 11 9
3 0 44 46
3 46 45 11
3 44 45 46
3 48 47 12
3 49 15 50
3 52 51 16
3 53 17 54
3 55 20 56
3 57 56 18
3 55 56 57
3 59 58 20
3 1 24 22
3 2 25 10
3 2 60 62
3 62 61 25
3 60 61 62
3 2 63 64
3 3 65 67
3 65 27 66
3 65 66 67
3 69 68 13
3 70 28 71
3 5 29 14
3 5 30 29
3 6 72 73
3 75 74 21
3 76 31 77
3 7 78 80
3 78 32 79
3 78 79 80
3 7 33 32
3 81 34 82
3 83 35 84
3 85 36 86
3 87 86 35
3 85 86 87
3 88 37 89
3 90 38 91
3 92 91 37
3 90 91 92
3 95 94 23
3 93 94 95
3 4 39 26
3 8 40 19
3 8 41 40
3 8 42 41
3 96 43 97
3 99 98 43
3 9 10 1
3 11 10 9
3 11 2 10
3 11 100 102
3 102 101 2
3 100 101 102
3 104 103 11
3 12 13 3
3 105 13 106
3 107 106 12
3 105 106 107
3 109 108 13
3 110 14 111
3 15 112 114
3 112 14 113
3 112 113 114
3 15 5 14
3 16 115 117
3 117 116 6
3 115 116 117
3 119 118 16
3 120 7 121
3 17 122 123
3 17 124 125
3 18 19 4
3 20 19 18
3 20 8 19
3 20 126 128
3 128 127 8
3 126 127 128
3 131 130 20
3 129 130 131
3 132 21 133
3 134 21 135
3 137 136 21
3 22 138 140
3 138 23 139
3 138 139 140
3 24 23 22
3 24 141 143
3 143 142 23
3 141 142 143
3 10 24 1
3 25 24 10
3 25 144 146
3 146 145 24
3 144 145 146
3 25 147 148
3 150 149 25
3 152 151 2
3 153 26 154
3 27 155 157
3 155 26 156
3 155 156 157
3 27 4 26
3 13 27 3
3 158 27 159
3 160 159 13
3 158 159 160
3 161 4 162
3 163 162 27
3 161 162 163
3 164 18 165
3 166 165 4
3 164 165 166
3 167 18 168
3 170 169 18
3 171 22 172
3 28 173 175
3 173 22 174
3 173 174 175
3 28 1 22
3 14 176 178
3 176 28 177
3 176 177 178
3 29 28 14
3 29 1 28
3 29 9 1
3 30 9 29
3 30 0 9
3 180 179 6
3 21 181 182
3 184 183 21
3 31 185 186
3 31 187 189
3 187 3 188
3 187 188 189
3 190 31 191
3 32 192 194
3 192 31 193
3 192 193 194
3 32 3 31
3 32 12 3
3 33 12 32
3 33 195 197
3 197 196 12
3 195 196 197
3 34 198 199
3 34 200 202
3 200 7 201
3 200 201 202
3 203 34 204
3 205 34 206
3 207 7 208
3 209 208 34
3 207 208 209
3 210 33 211
3 212 211 7
3 210 211 212
3 35 213 215
3 213 33 214
3 213 214 215
3 35 216 218
3 218 217 33
3 216 217 218
3 35 219 220
3 36 221 223
3 223 222 35
3 221 222 223
3 36 224 226
3 224 6 225
3 224 225 226
3 227 36 228
3 37 229 231
3 229 36 230
3 229 230 231
3 37 6 36
3 37 16 6
3 38 16 37
3 38 232 234
3 234 233 16
3 232 233 234
3 235 38 236
3 237 38 238
3 240 239 38
3 23 241 243
3 241 17 242
3 241 242 243
3 244 17 245
3 246 245 23
3 244 245 246
3 248 247 17
3 26 249 250
3 39 251 253
3 253 252 26
3 251 252 253
3 39 254 255
3 19 39 4
3 40 39 19
3 40 256 258
3 258 257 39
3 256 257 258
3 40 259 260
3 41 261 263
3 263 262 40
3 261 262 263
3 41 264 265
3 41 266 268
3 266 15 267
3 266 267 268
3 42 15 41
3 42 5 15
3 269 42 270
3 271 270 8
3 269 270 271
3 43 272 274
3 272 42 273
3 272 273 274
3 43 5 42
3 43 30 5
3 275 30 276
3 277 276 43
3 275 276 277
3 278 0 279
3 280 279 30
3 278 279 280
3 281 0 282
3 284 283 0
