ply
format ascii 1.0
element vertex 35
property float x
property float y
property float z
element face 22
property list uchar int vertex_index
end_header
9.771103 -93.154549 -13.699902
9.75655 -96.670006 -14.592075
9.961521 -99.974312 -15.553358
11.083755 -91.402993 -14.063636
9.872688 -91.310887 -13.331219
11.06625 -96.618985 -15.306704
11.023415 -94.940911 -14.880838
11.168736 -98.271138 -15.787346
9.859036 -98.322159 -15.072716
11.06625 -96.618985 -15.306704
8.664862 -92.957394 -12.874408
9.872688 -91.310887 -13.331219
8.600609 -94.776096 -13.320725
8.664862 -92.957394 -12.874408
11.030691 -93.183182 -14.434752
11.083755 -91.402993 -14.063636
9.763827 -94.912278 -14.145988
11.030691 -93.183182 -14.434752
11.023415 -94.940911 -14.880838
8.593333 -96.533825 -13.766811
8.600609 -94.776096 -13.320725
9.763827 -94.912278 -14.145988
8.638967 -98.264054 -14.272263
8.593333 -96.533825 -13.766811
8.741453 -99.916207 -14.752905
8.638967 -98.264054 -14.272263
9.859036 -98.322159 -15.072716
8.907479 -101.537937 -15.269332
8.741453 -99.916207 -14.752905
11.325054 -99.829929 -16.228134
11.168736 -98.271138 -15.787346
10.18639 -101.504009 -16.025188
11.325054 -99.829929 -16.228134
8.907479 -101.537937 -15.269332
10.18639 -101.504009 -16.025188
3 3 0 4
3 5 1 6
3 7 2 8
3 9 8 1
3 7 8 9
3 0 10 11
3 0 12 13
3 14 0 15
3 1 16 18
3 16 0 17
3 16 17 18
3 1 19 21
3 21 20 0
3 19 20 21
3 1 22 23
3 2 24 26
3 26 25 1
3 24 25 26
3 2 27 28
3 29 2 30
3 31 2 32
3 34 33 2
