ply
format ascii 1.0
element vertex 462
property float x
property float y
property float z
element face 450
property list uchar int vertex_index
end_header
-9.189144 68.571259 43.400539
-16.90601 77.95433 22.395084
-8.868567 79.878815 29.773804
-15.785893 69.663742 34.590538
-0.107111 64.158707 44.861046
-4.061335 62.844387 52.278313
-6.967007 48.065495 63.151062
-16.122744 74.371918 28.755516
-5.999947 86.482391 17.929482
-8.782251 74.703659 36.986538
-5.400738 78.5056 34.013683
-5.623676 72.875931 41.42654
-3.141357 69.493515 45.622978
-6.396465 66.394852 48.010128
-9.361767 51.769917 58.703606
-11.020981 44.021069 63.139236
-13.534794 82.908524 18.579262
-9.291468 83.924149 22.102465
-12.826008 79.62381 25.789242
-12.398691 75.140686 32.668327
-12.389486 69.593185 38.839821
-17.982933 80.42038 15.829163
-1.015438 70.526993 41.805161
-1.379 64.50708 49.251606
-2.185091 57.832737 55.908173
-12.900764 63.154705 44.149017
-10.173504 61.68713 48.935581
-7.711739 59.284672 53.717983
-5.414122 55.648174 58.076675
-3.319304 50.669048 61.777473
-8.473114 40.197601 67.637665
-4.612427 43.10981 66.965187
-1.629337 44.54953 64.761581
-7.829832 86.854935 16.092648
-8.9161 71.745499 40.305943
-7.127401 73.974655 39.212761
-7.358772 70.908585 42.580765
-5.937212 69.728592 44.831066
-7.735647 67.641724 45.723068
-15.281776 80.529037 20.551085
-13.155857 81.422653 22.200096
-14.866383 78.94574 23.996666
-15.895461 72.155136 31.754795
-14.268623 74.893402 30.644562
-14.119094 72.444565 33.752563
-12.334942 72.490234 35.859917
-14.082095 69.735001 36.667557
-15.74425 81.810181 17.087513
-0.149803 66.919693 40.971992
-0.137121 65.915192 38.385651
-9.049116 82.052979 25.969383
-7.346876 83.750626 24.048838
-7.162306 81.723709 28.004677
-3.960245 77.16861 36.113556
-3.537016 66.249771 49.06131
-2.17186 67.194702 47.521778
-2.56016 63.930782 50.960239
-1.731291 61.239727 52.682476
-3.063644 60.516178 54.183392
-8.916868 60.622952 51.355907
-8.175152 50.077419 61.00156
-7.346722 53.894924 58.56588
-6.182093 51.897724 60.694107
-4.330919 53.320644 60.015251
-5.040836 49.571224 62.657589
-9.149731 36.181381 69.676315
-5.271643 39.201405 69.32901
-3.546581 40.226154 68.613617
-2.964787 44.025745 66.066635
-2.099356 40.889591 67.49733
-0.940485 65.082474 29.115574
-16.464556 76.304749 25.622822
-8.77264 77.422012 33.462898
-7.048866 79.404663 31.884129
-7.030077 76.814392 35.63575
-5.449903 75.809799 37.810539
-4.061623 74.391281 39.938644
-2.880291 72.548264 41.97316
-4.292053 71.386841 43.578793
-4.662411 68.18132 47.006561
-5.172398 64.802368 50.210033
-10.210815 47.917217 60.983646
-8.99283 46.19614 63.2953
-11.70875 84.995117 16.507887
-9.571478 85.474609 18.220791
-11.371223 83.632156 20.264675
-11.064451 81.944199 24.020136
-10.811687 79.944794 27.728388
-14.522076 77.064514 27.377581
-12.567406 77.524536 29.296118
-10.635033 77.651886 31.33672
-10.554104 75.085083 34.79274
-10.586403 72.264832 38.053314
-10.747564 69.212982 41.092743
-13.940267 84.074905 14.969449
-0.34164 68.297119 34.345184
-0.35478 64.578369 35.738972
-7.577705 85.466095 20.064943
-5.455477 80.940796 30.079191
-0.476921 70.242126 39.474991
-0.469023 67.507111 43.411903
-1.908613 70.282166 43.875423
-1.139751 67.611572 45.62011
-0.755552 61.466328 50.802895
-1.051283 58.211765 54.22081
-1.436169 54.829037 57.447845
-14.165929 66.78598 39.372978
-12.574835 66.472351 41.59832
-11.049761 65.954468 43.907417
-9.609329 65.208069 46.270706
-8.259144 64.202774 48.642014
-6.994829 62.903728 50.966808
-5.808561 61.278034 53.192764
-8.514334 55.565403 56.288403
-6.544964 57.634602 55.970554
-4.69626 59.303059 55.278347
-3.662561 56.973454 57.196777
-2.721752 54.304707 58.935287
-1.894516 51.332058 60.49086
-9.767183 42.261703 65.456726
-7.738974 44.162281 65.462891
-7.176311 37.840908 69.671295
-6.48431 41.821987 67.47728
-5.766165 45.735371 65.141006
-3.956015 46.935009 64.450058
-2.409365 47.729282 63.3606
-8.847847 86.773765 15.227467
-7.955342 87.382103 14.12675
-17.163771 78.639595 20.755695
-17.924969 77.331977 21.715104
-16.093893 79.241683 21.473084
-16.351654 79.926949 19.833696
-17.163771 78.639595 20.755695
-0.046875 63.74045 43.59673
-0.068221 65.120943 41.652203
-0.128457 65.5392 42.916519
-3.34452 77.576951 35.131184
-3.354056 76.277885 37.124926
-9.451701 34.153234 70.625343
-10.119692 35.224371 69.529175
-10.421663 33.196224 70.478203
-3.07406 38.677063 69.340142
-3.844072 38.282095 69.806717
-2.350447 39.008781 68.781998
-2.822968 40.557873 68.055474
-3.07406 38.677063 69.340142
-1.739689 39.232029 68.11055
-2.350447 39.008781 68.781998
-5.314681 86.694198 16.820955
-6.111912 87.086159 15.913205
-5.210951 86.02562 18.8759
-5.314681 86.694198 16.820955
-10.615898 45.969143 62.061441
-11.210688 46.702728 60.842046
-11.615772 44.754654 61.919841
-19.118973 79.632378 15.33465
-18.780861 79.156868 16.884314
-18.275512 80.83445 14.198635
-19.118973 79.632378 15.33465
-17.107236 81.605652 14.736895
-18.275512 80.83445 14.198635
-0.306366 68.885666 35.653126
-0.397328 70.046913 33.602764
-0.244198 63.359991 37.719744
-0.24595 65.24678 37.062311
-0.135369 64.028402 39.043084
-0.405377 62.641599 36.39501
-0.244198 63.359991 37.719744
-6.563724 84.348816 23.020801
-6.46868 83.422501 25.052543
-0.746179 70.384559 40.640076
-0.737462 71.734398 38.65518
-1.006721 71.876831 39.820265
-0.969599 64.540008 48.223664
-0.849974 66.092254 46.407916
-1.259375 66.059326 47.435858
-1.067276 62.986704 50.027251
-0.657875 63.019633 48.999308
-0.969599 64.540008 48.223664
-15.043112 65.364035 39.539816
-14.979551 66.851799 38.307817
-12.7378 64.813528 42.873669
-13.477515 65.047395 41.736404
-13.64048 63.388572 43.011753
-10.835723 62.102951 47.725451
-11.129497 60.313793 48.942959
-9.891417 63.447599 47.603144
-10.553636 63.86342 46.393013
-10.835723 62.102951 47.725451
-8.93805 53.66766 57.496004
-9.51552 54.365741 56.285037
-9.939236 52.467999 57.492638
-9.120148 41.229652 66.547196
-10.119763 40.272224 66.471985
-9.472729 39.240173 67.562455
-6.547303 36.530842 70.606239
-7.501104 35.822691 70.696461
-1.415687 46.327402 63.313082
-1.805701 47.917278 62.612591
-2.019351 46.139406 64.061091
-1.144464 44.615383 63.909094
-1.415687 46.327402 63.313082
-1.192913 65.076002 25.860985
-1.045851 66.004799 27.104222
-1.087546 64.153677 27.872338
-7.026854 87.27243 14.994788
-7.955342 87.382103 14.12675
-6.914889 86.668663 17.011065
-6.111912 87.086159 15.913205
-7.026854 87.27243 14.994788
-12.000957 42.815644 62.941225
-11.615772 44.754654 61.919841
-17.702233 79.87262 17.472735
-18.780861 79.156868 16.884314
-16.582891 80.567521 18.10191
-16.863591 81.11528 16.458338
-17.702233 79.87262 17.472735
-15.513013 81.169609 18.819299
-16.582891 80.567521 18.10191
-16.351654 79.926949 19.833696
-0.143462 66.417442 39.678821
-0.204106 67.694703 37.673359
-0.210447 68.196953 38.96653
-0.06188 64.618693 40.359032
-0.143462 66.417442 39.678821
-0.068221 65.120943 41.652203
-0.135369 64.028402 39.043084
-0.06188 64.618693 40.359032
-6.376396 82.409042 27.030462
-6.46868 83.422501 25.052543
-7.254591 82.737167 26.026758
-3.964815 78.4319 34.128426
-4.685061 79.100395 33.078489
-4.680491 77.837105 35.06362
-3.964815 78.4319 34.128426
-3.34452 77.576951 35.131184
-1.392211 71.846604 40.923743
-1.006721 71.876831 39.820265
-13.816827 61.714267 44.174533
-13.64048 63.388572 43.011753
-10.518986 59.864937 50.181068
-11.129497 60.313793 48.942959
-9.890668 59.332848 51.391232
-9.545186 61.155041 50.145744
-10.518986 59.864937 50.181068
-9.299535 58.778515 52.624269
-9.890668 59.332848 51.391232
-8.696971 58.109375 53.805307
-8.314303 59.953812 52.536945
-9.299535 58.778515 52.624269
-9.811037 37.232063 68.58178
-10.119692 35.224371 69.529175
-8.811422 38.189491 68.65699
-9.472729 39.240173 67.562455
-9.811037 37.232063 68.58178
-4.706603 37.769721 70.164413
-5.594969 37.21109 70.435097
-4.409112 39.71378 68.971314
-4.706603 37.769721 70.164413
-3.844072 38.282095 69.806717
-1.548831 41.036066 66.734962
-1.313821 42.866035 65.367088
-1.864347 42.719561 66.129456
-1.548831 41.036066 66.734962
-1.739689 39.232029 68.11055
-0.820646 64.041663 31.112825
-0.771092 65.942078 30.41111
-0.998282 63.17557 29.839524
-0.820646 64.041663 31.112825
-0.878442 62.134758 31.836776
-1.145343 62.246772 28.596288
-1.087546 64.153677 27.872338
-0.998282 63.17557 29.839524
-17.423993 75.79625 24.854482
-16.685283 77.129539 24.008953
-17.64472 76.62104 23.240614
-17.199855 74.958626 26.336662
-17.423993 75.79625 24.854482
-17.028949 73.99221 27.903009
-16.29365 75.338334 27.189169
-17.199855 74.958626 26.336662
-16.874769 73.015518 29.32794
-17.028949 73.99221 27.903009
-16.761127 71.907128 30.827579
-16.009103 73.263527 30.255156
-16.874769 73.015518 29.32794
-16.678054 70.785309 32.188879
-16.761127 71.907128 30.827579
-16.623269 69.539612 33.606751
-15.840677 70.909439 33.172667
-16.678054 70.785309 32.188879
-17.64472 76.62104 23.240614
-17.924969 77.331977 21.715104
-0.006813 62.351969 45.510086
-0.13062 62.688502 46.731459
-3.404745 74.889221 39.03747
-3.354056 76.277885 37.124926
-4.010934 75.779945 38.0261
-3.470957 73.469773 40.955902
-2.81408 73.967713 40.054727
-3.404745 74.889221 39.03747
-10.368385 50.557148 58.625147
-9.939236 52.467999 57.492638
-10.792908 48.630798 59.765167
-11.210688 46.702728 60.842046
-9.786291 49.843567 59.843626
-10.368385 50.557148 58.625147
-10.792908 48.630798 59.765167
-10.640114 85.234863 17.364339
-9.71867 86.083602 16.291538
-10.787306 85.843856 15.435086
-15.987894 82.300553 15.36607
-17.107236 81.605652 14.736895
-16.863591 81.11528 16.458338
-15.085903 83.432915 14.307037
-15.987894 82.300553 15.36607
-14.842258 82.942543 16.028481
-14.1475 84.4999 13.186249
-15.085903 83.432915 14.307037
-12.998267 85.0513 13.877353
-14.1475 84.4999 13.186249
-11.882509 85.511406 14.646572
-12.998267 85.0513 13.877353
-12.824509 84.535011 15.738668
-10.787306 85.843856 15.435086
-11.882509 85.511406 14.646572
-0.460141 69.370285 32.293194
-0.397328 70.046913 33.602764
-0.471669 67.5494 33.025915
-0.460141 69.370285 32.293194
-0.23938 67.106155 36.365418
-0.306366 68.885666 35.653126
-0.204106 67.694703 37.673359
-0.478239 65.690025 33.722809
-0.471669 67.5494 33.025915
-0.34821 66.437744 35.042078
-0.527793 63.78961 34.424524
-0.478239 65.690025 33.722809
-0.57839 61.85284 35.080562
-0.527793 63.78961 34.424524
-0.405377 62.641599 36.39501
-0.046875 63.74045 43.59673
-0.006813 62.351969 45.510086
-8.700655 86.164772 17.15672
-8.847847 86.773765 15.227467
-9.71867 86.083602 16.291538
-6.679138 85.20655 21.028854
-7.46229 84.608361 22.056891
-6.563724 84.348816 23.020801
-5.890259 85.714698 19.961123
-6.788826 85.974243 18.997212
-6.679138 85.20655 21.028854
-5.210951 86.02562 18.8759
-5.890259 85.714698 19.961123
-5.522981 82.017586 28.06772
-6.376396 82.409042 27.030462
-6.308891 81.332253 29.041934
-4.712431 80.317993 31.111243
-5.428107 79.723198 32.046437
-4.685061 79.100395 33.078489
-4.760825 81.445221 29.076798
-4.712431 80.317993 31.111243
-5.522981 82.017586 28.06772
-4.760825 81.445221 29.076798
-0.523667 71.496917 37.445969
-0.737462 71.734398 38.65518
-0.374006 69.85817 38.218029
-0.523667 71.496917 37.445969
-0.313362 68.580909 40.223492
-0.210447 68.196953 38.96653
-0.374006 69.85817 38.218029
-2.324638 72.857239 41.007742
-2.81408 73.967713 40.054727
-1.838798 71.72419 41.958873
-2.324638 72.857239 41.007742
-2.394452 71.415215 42.924291
-1.462025 70.40458 42.840292
-1.392211 71.846604 40.923743
-1.838798 71.72419 41.958873
-0.51461 66.040024 45.303812
-0.804387 67.559341 44.516007
-0.849974 66.092254 46.407916
-0.333654 64.365822 46.028384
-0.288067 65.832909 44.136475
-0.51461 66.040024 45.303812
-0.13062 62.688502 46.731459
-0.333654 64.365822 46.028384
-0.45484 61.342312 49.702383
-0.657875 63.019633 48.999308
-0.524728 59.79533 51.489809
-0.45484 61.342312 49.702383
-0.672593 58.168048 53.198767
-0.524728 59.79533 51.489809
-0.903417 59.839046 52.511853
-0.786658 56.555111 54.899215
-0.672593 58.168048 53.198767
-0.979101 54.863747 56.512733
-0.786658 56.555111 54.899215
-1.243726 56.520401 55.834328
-1.132491 53.192493 58.12647
-0.979101 54.863747 56.512733
-16.603279 68.280418 34.898648
-16.623269 69.539612 33.606751
-15.789533 68.29068 35.916598
-16.603279 68.280418 34.898648
-16.60692 66.907356 36.224707
-14.937634 68.32631 36.955107
-14.933994 69.699371 35.629047
-15.789533 68.29068 35.916598
-14.124012 68.260491 38.020268
-14.937634 68.32631 36.955107
-14.979551 66.851799 38.307817
-14.273062 65.20421 40.623734
-15.043112 65.364035 39.539816
-13.370382 66.629165 40.485649
-14.273062 65.20421 40.623734
-13.477515 65.047395 41.736404
-13.13532 61.413738 45.33715
-13.816827 61.714267 44.174533
-12.199353 62.836738 45.332169
-13.13532 61.413738 45.33715
-11.273851 64.23662 45.211369
-11.975262 64.554586 44.028217
-12.199353 62.836738 45.332169
-10.329545 65.581268 45.089061
-11.273851 64.23662 45.211369
-10.553636 63.86342 46.393013
-9.098268 56.249741 55.090518
-9.51552 54.365741 56.285037
-8.113036 57.425038 55.003193
-8.696971 58.109375 53.805307
-9.098268 56.249741 55.090518
-1.361665 51.444004 59.647978
-1.132491 53.192493 58.12647
-1.665342 53.080548 58.969352
-11.389605 42.055904 64.155159
-12.000957 42.815644 62.941225
-10.762705 41.176221 65.313904
-10.119763 40.272224 66.471985
-10.394082 43.141386 64.297981
-11.389605 42.055904 64.155159
-10.762705 41.176221 65.313904
-8.487814 34.992928 70.698971
-9.451701 34.153234 70.625343
-8.163021 37.011145 69.673805
-8.487814 34.992928 70.698971
-7.501104 35.822691 70.696461
-6.223977 38.521157 69.500152
-6.547303 36.530842 70.606239
-5.594969 37.21109 70.435097
-1.548276 49.718666 61.177721
-2.151941 49.53067 61.92573
-1.805701 47.917278 62.612591
-1.361665 51.444004 59.647978
-1.548276 49.718666 61.177721
-0.828949 42.931888 64.514601
-1.144464 44.615383 63.909094
-1.313821 42.866035 65.367088
-0.89552 66.935295 28.373369
-0.771092 65.942078 30.41111
-0.89552 66.935295 28.373369
-1.045851 66.004799 27.104222
3 126 33 127
3 0 36 34
3 0 38 36
3 1 41 39
3 3 44 42
3 3 46 44
3 1 128 129
3 1 130 132
3 130 39 131
3 130 131 132
3 4 133 135
3 135 134 48
3 133 134 135
3 2 52 50
3 137 136 53
3 5 56 54
3 5 58 56
3 6 62 60
3 6 64 62
3 138 65 139
3 138 139 140
3 141 67 142
3 143 69 144
3 145 144 67
3 143 144 145
3 147 146 69
3 8 148 149
3 8 150 151
3 9 74 72
3 11 75 35
3 11 76 75
3 11 78 76
3 13 79 37
3 13 80 79
3 15 152 154
3 152 81 153
3 152 153 154
3 15 82 81
3 16 85 83
3 18 86 40
3 18 87 86
3 7 88 71
3 19 89 43
3 19 90 89
3 19 91 90
3 20 92 45
3 20 93 92
3 21 155 156
3 21 157 158
3 21 159 160
3 16 94 47
3 16 83 94
3 161 95 162
3 163 96 164
3 165 164 49
3 163 164 165
3 167 166 96
3 17 97 84
3 169 168 51
3 10 98 73
3 22 170 172
3 170 99 171
3 170 171 172
3 22 100 99
3 12 101 77
3 23 102 55
3 23 173 175
3 175 174 102
3 173 174 175
3 23 176 178
3 176 103 177
3 176 177 178
3 24 104 57
3 24 105 104
3 179 106 180
3 25 181 183
3 181 107 182
3 181 182 183
3 25 108 107
3 26 184 185
3 26 186 188
3 186 109 187
3 186 187 188
3 26 110 109
3 27 111 59
3 27 112 111
3 14 189 191
3 189 113 190
3 189 190 191
3 28 114 61
3 28 115 114
3 28 116 115
3 29 117 63
3 29 118 117
3 30 192 194
3 192 119 193
3 192 193 194
3 30 120 119
3 195 121 196
3 31 122 66
3 31 123 122
3 31 124 123
3 32 125 68
3 32 197 199
3 199 198 125
3 197 198 199
3 32 200 201
3 204 203 70
3 202 203 204
3 33 205 206
3 33 207 209
3 207 8 208
3 207 208 209
3 34 35 9
3 36 35 34
3 36 11 35
3 36 37 11
3 38 37 36
3 38 13 37
3 210 15 211
3 39 40 16
3 41 40 39
3 41 18 40
3 42 43 7
3 44 43 42
3 44 19 43
3 44 45 19
3 46 45 44
3 46 20 45
3 212 21 213
3 214 47 215
3 216 215 21
3 214 215 216
3 39 217 219
3 217 47 218
3 217 218 219
3 39 16 47
3 48 220 222
3 220 49 221
3 220 221 222
3 223 49 224
3 225 224 48
3 223 224 225
3 227 226 49
3 50 51 17
3 52 51 50
3 52 228 230
3 230 229 51
3 228 229 230
3 53 231 233
3 233 232 10
3 231 232 233
3 235 234 53
3 236 22 237
3 54 55 12
3 56 55 54
3 56 23 55
3 56 57 23
3 58 57 56
3 58 24 57
3 238 25 239
3 240 26 241
3 242 59 243
3 244 243 26
3 242 243 244
3 245 59 246
3 247 27 248
3 249 248 59
3 247 248 249
3 60 61 14
3 62 61 60
3 62 28 61
3 62 63 28
3 64 63 62
3 64 29 63
3 65 250 251
3 65 252 254
3 252 30 253
3 252 253 254
3 255 66 256
3 67 257 259
3 257 66 258
3 257 258 259
3 67 31 66
3 67 68 31
3 69 68 67
3 69 32 68
3 69 260 262
3 262 261 32
3 260 261 262
3 264 263 69
3 265 70 266
3 267 70 268
3 267 268 269
3 272 271 70
3 270 271 272
3 273 71 274
3 275 274 1
3 273 274 275
3 276 71 277
3 278 7 279
3 280 279 71
3 278 279 280
3 281 7 282
3 283 42 284
3 285 284 7
3 283 284 285
3 286 42 287
3 288 3 289
3 290 289 42
3 288 289 290
3 291 1 292
3 294 293 4
3 72 73 2
3 74 73 72
3 74 10 73
3 35 74 9
3 75 74 35
3 75 10 74
3 75 53 10
3 76 53 75
3 76 295 297
3 297 296 53
3 295 296 297
3 76 298 300
3 298 77 299
3 298 299 300
3 78 77 76
3 78 12 77
3 37 78 11
3 79 78 37
3 79 12 78
3 79 54 12
3 80 54 79
3 80 5 54
3 301 14 302
3 81 303 304
3 81 305 307
3 305 14 306
3 305 306 307
3 81 60 14
3 82 60 81
3 82 6 60
3 83 308 310
3 308 84 309
3 308 309 310
3 85 84 83
3 85 17 84
3 40 85 16
3 86 85 40
3 86 17 85
3 86 50 17
3 87 50 86
3 87 2 50
3 71 41 1
3 88 41 71
3 88 18 41
3 43 88 7
3 89 88 43
3 89 18 88
3 89 87 18
3 90 87 89
3 90 2 87
3 90 72 2
3 91 72 90
3 91 9 72
3 45 91 19
3 92 91 45
3 92 9 91
3 92 34 9
3 93 34 92
3 93 0 34
3 47 311 313
3 313 312 21
3 311 312 313
3 94 314 316
3 316 315 47
3 314 315 316
3 94 317 318
3 94 319 320
3 83 321 323
3 323 322 94
3 321 322 323
3 83 324 325
3 95 326 327
3 95 328 329
3 49 330 332
3 330 95 331
3 330 331 332
3 96 95 49
3 96 333 335
3 335 334 95
3 333 334 335
3 96 336 337
3 340 339 96
3 338 339 340
3 342 341 4
3 84 343 345
3 343 33 344
3 343 344 345
3 97 33 84
3 97 8 33
3 51 97 17
3 346 97 347
3 348 347 51
3 346 347 348
3 349 8 350
3 351 350 97
3 349 350 351
3 353 352 8
3 73 52 2
3 98 52 73
3 98 354 356
3 356 355 52
3 354 355 356
3 357 98 358
3 359 358 10
3 357 358 359
3 360 98 361
3 363 362 98
3 99 364 365
3 99 366 367
3 99 368 370
3 368 48 369
3 368 369 370
3 100 48 99
3 100 4 48
3 77 371 372
3 101 373 375
3 375 374 77
3 373 374 375
3 101 376 378
3 376 22 377
3 376 377 378
3 55 101 12
3 102 101 55
3 102 22 101
3 102 100 22
3 379 100 380
3 381 380 102
3 379 380 381
3 382 4 383
3 384 383 100
3 382 383 384
3 386 385 4
3 103 387 388
3 103 389 390
3 57 103 23
3 104 103 57
3 104 391 393
3 393 392 103
3 391 392 393
3 104 394 395
3 105 396 398
3 398 397 104
3 396 397 398
3 105 399 400
3 401 3 402
3 403 3 404
3 403 404 405
3 406 46 407
3 408 407 3
3 406 407 408
3 106 409 411
3 409 46 410
3 409 410 411
3 106 20 46
3 412 106 413
3 107 414 416
3 414 106 415
3 414 415 416
3 107 20 106
3 107 93 20
3 108 93 107
3 108 0 93
3 417 25 418
3 419 25 420
3 421 108 422
3 423 422 25
3 421 422 423
3 109 424 426
3 424 108 425
3 424 425 426
3 109 0 108
3 109 38 0
3 110 38 109
3 110 13 38
3 59 110 26
3 111 110 59
3 111 13 110
3 111 80 13
3 112 80 111
3 112 5 80
3 113 427 428
3 113 429 431
3 429 27 430
3 429 430 431
3 61 113 14
3 114 113 61
3 114 27 113
3 114 112 27
3 115 112 114
3 115 5 112
3 115 58 5
3 116 58 115
3 116 24 58
3 63 116 28
3 117 116 63
3 117 24 116
3 117 105 24
3 118 105 117
3 118 432 434
3 434 433 105
3 432 433 434
3 435 15 436
3 119 437 438
3 119 439 441
3 439 15 440
3 439 440 441
3 119 82 15
3 120 82 119
3 120 6 82
3 442 65 443
3 121 444 446
3 444 65 445
3 444 445 446
3 121 30 65
3 66 447 449
3 447 121 448
3 447 448 449
3 122 121 66
3 122 30 121
3 122 120 30
3 123 120 122
3 123 6 120
3 123 64 6
3 124 64 123
3 124 29 64
3 68 124 31
3 125 124 68
3 125 29 124
3 125 118 29
3 450 118 451
3 452 451 125
3 450 451 452
3 454 453 118
3 457 456 32
3 455 456 457
3 70 458 459
3 461 460 70
