ply
format ascii 1.0
element vertex 154
property float x
property float y
property float z
element face 118
property list uchar int vertex_index
end_header
0.06814 -80.667374 47.98737
-0.379501 -80.261703 42.860802
0.185539 -80.802513 53.192806
0.327463 -78.116364 50.047546
0.194643 -78.013138 47.450207
-0.691685 -79.942223 40.35672
-4.030437 -84.938461 31.844267
-0.465113 -83.079407 45.931103
-0.119673 -80.501266 45.408108
-0.721607 -82.823143 43.371117
-1.051258 -82.48455 40.84156
-1.434681 -82.05954 38.353905
-1.846888 -81.546265 35.917576
-2.42506 -83.961807 36.333977
-3.528858 -85.681442 34.269875
-0.338638 -83.338089 56.214539
-0.006302 -77.846291 44.885933
0.171825 -80.766281 50.586636
-0.228144 -83.389008 53.666298
-0.294022 -83.257721 48.509174
-0.607866 -78.617367 40.128201
-0.861041 -79.740055 39.131304
-4.282165 -84.534866 30.657495
-4.54498 -85.681625 30.776464
-0.994812 -84.07275 43.621026
-0.59336 -82.951275 44.65111
-0.866565 -84.200882 44.901018
-1.516236 -83.494701 39.82585
-1.320203 -83.721385 41.08398
-1.707948 -83.282196 38.582022
-1.24297 -82.272045 39.597732
-1.516236 -83.494701 39.82585
-2.203137 -84.233329 37.572058
-1.929871 -83.010673 37.343941
-1.707948 -83.282196 38.582022
-3.810352 -86.862869 34.444876
-3.290832 -86.012878 35.506524
-4.045592 -86.474762 33.204903
-3.810352 -86.862869 34.444876
-2.053797 -81.246674 34.727908
-2.371685 -82.439072 34.912241
0.282588 -79.482845 52.929487
0.265092 -79.480801 54.24254
0.178682 -80.784397 51.889721
0.275731 -79.464729 51.626402
0.282588 -79.482845 52.929487
-0.544565 -84.641243 53.864052
-0.283391 -83.363549 54.940418
-0.599811 -84.615783 55.138172
-0.587902 -84.522942 48.75053
-0.254128 -83.309326 49.800753
-0.662116 -84.428276 47.4699
-0.587902 -84.522942 48.75053
0.294141 -76.763314 49.773962
0.344227 -76.800103 51.079214
0.227731 -76.711701 48.475292
0.294141 -76.763314 49.773962
0.261053 -78.064751 48.748876
0.14588 -76.647667 47.187281
0.227731 -76.711701 48.475292
-0.473318 -78.775234 41.361191
-0.317225 -78.934974 42.613232
-0.535593 -80.101963 41.608761
-0.473318 -78.775234 41.361191
-0.607866 -78.617367 40.128201
-3.700025 -83.780891 31.688865
-3.463459 -84.13517 32.875586
-3.700025 -83.780891 31.688865
-4.282165 -84.534866 30.657495
0.145908 -80.790039 54.491632
0.265092 -79.480801 54.24254
-1.155378 -83.890682 42.348759
-0.994812 -84.07275 43.621026
-0.886432 -82.653847 42.106338
-1.155378 -83.890682 42.348759
-1.320203 -83.721385 41.08398
-1.232538 -80.798714 38.129897
-0.861041 -79.740055 39.131304
-1.063183 -81.000881 39.355312
-1.640785 -81.802903 37.13574
-1.438642 -80.542077 36.911732
-1.232538 -80.798714 38.129897
-2.66077 -83.646843 35.120441
-2.371685 -82.439072 34.912241
-2.135974 -82.754036 36.125777
-2.738933 -85.153061 36.538574
-2.203137 -84.233329 37.572058
-2.976959 -84.821624 35.301926
-2.738933 -85.153061 36.538574
-3.290832 -86.012878 35.506524
-3.21267 -84.506661 34.088391
-2.66077 -83.646843 35.120441
-2.976959 -84.821624 35.301926
-3.779648 -85.309952 33.057071
-3.463459 -84.13517 32.875586
-3.21267 -84.506661 34.088391
-4.296381 -86.103272 31.992099
-3.779648 -85.309952 33.057071
-4.045592 -86.474762 33.204903
-4.810924 -86.846436 30.924296
-4.54498 -85.681625 30.776464
-4.296381 -86.103272 31.992099
-0.445753 -83.269406 57.466032
-0.20455 -82.013607 57.287611
-0.667088 -84.566201 56.376549
-0.445753 -83.269406 57.466032
-0.774203 -84.497517 57.628042
-0.599811 -84.615783 55.138172
-0.667088 -84.566201 56.376549
0.045408 -76.564244 45.905144
0.14588 -76.647667 47.187281
0.094171 -77.929714 46.16807
-0.130626 -77.727268 43.625798
-0.192901 -79.053997 43.873368
-0.317225 -78.934974 42.613232
-0.057308 -76.469181 44.63953
-0.130626 -77.727268 43.625798
0.045408 -76.564244 45.905144
-0.057308 -76.469181 44.63953
-1.607078 -80.296589 35.716551
-1.438642 -80.542077 36.911732
-1.607078 -80.296589 35.716551
-2.053797 -81.246674 34.727908
0.35355 -78.13977 51.356857
0.344227 -76.800103 51.079214
0.249644 -79.441323 50.317091
0.35355 -78.13977 51.356857
0.275731 -79.464729 51.626402
-0.11618 -82.057827 56.002499
-0.20455 -82.013607 57.287611
-0.060934 -82.083286 54.728378
-0.11618 -82.057827 56.002499
-0.283391 -83.363549 54.940418
-0.021303 -82.095761 53.429552
0.145908 -80.790039 54.491632
-0.060934 -82.083286 54.728378
-0.526469 -84.638657 52.603476
-0.544565 -84.641243 53.864052
-0.221189 -83.374969 52.379314
-0.526469 -84.638657 52.603476
-0.014347 -82.081722 52.142568
-0.021303 -82.095761 53.429552
-0.221189 -83.374969 52.379314
-0.021204 -82.063606 50.839484
0.178682 -80.784397 51.889721
-0.014347 -82.081722 52.142568
-0.061099 -82.012001 49.547905
-0.021204 -82.063606 50.839484
-0.254128 -83.309326 49.800753
-0.747661 -84.339119 46.180864
-0.379568 -83.168564 47.220139
-0.662116 -84.428276 47.4699
-0.866565 -84.200882 44.901018
-0.747661 -84.339119 46.180864
3 0 4 3
3 21 20 5
3 23 22 6
3 24 9 25
3 26 25 7
3 24 25 26
3 27 10 28
3 29 11 30
3 31 30 10
3 29 30 31
3 32 13 33
3 34 33 11
3 32 33 34
3 35 14 36
3 38 37 14
3 1 16 8
3 40 39 12
3 2 41 42
3 2 43 45
3 43 17 44
3 43 44 45
3 46 18 47
3 48 47 15
3 46 47 48
3 49 19 50
3 52 51 19
3 3 53 54
3 4 55 57
3 57 56 3
3 55 56 57
3 4 58 59
3 5 60 62
3 62 61 1
3 60 61 62
3 64 63 5
3 6 65 66
3 68 67 6
3 69 2 70
3 7 8 0
3 9 8 7
3 9 1 8
3 71 9 72
3 10 73 75
3 73 9 74
3 73 74 75
3 10 1 9
3 10 5 1
3 11 5 10
3 11 76 78
3 78 77 5
3 76 77 78
3 11 79 81
3 79 12 80
3 79 80 81
3 13 12 11
3 13 82 84
3 84 83 12
3 82 83 84
3 85 13 86
3 14 87 89
3 87 13 88
3 87 88 89
3 14 90 92
3 92 91 13
3 90 91 92
3 14 93 95
3 93 6 94
3 93 94 95
3 96 6 97
3 98 97 14
3 96 97 98
3 101 100 6
3 99 100 101
3 102 15 103
3 104 15 105
3 104 105 106
3 108 107 15
3 8 4 0
3 16 4 8
3 16 109 111
3 111 110 4
3 109 110 111
3 112 16 113
3 114 113 1
3 112 113 114
3 115 16 116
3 118 117 16
3 12 119 120
3 122 121 12
3 123 3 124
3 17 125 127
3 125 3 126
3 125 126 127
3 17 0 3
3 15 128 129
3 18 130 132
3 132 131 15
3 130 131 132
3 18 133 135
3 133 2 134
3 133 134 135
3 136 18 137
3 138 18 139
3 140 2 141
3 142 141 18
3 140 141 142
3 143 17 144
3 145 144 2
3 143 144 145
3 19 146 148
3 146 17 147
3 146 147 148
3 19 0 17
3 19 7 0
3 149 7 150
3 151 150 19
3 149 150 151
3 153 152 7
