ply
format ascii 1.0
element vertex 277
property float x
property float y
property float z
element face 234
property list uchar int vertex_index
end_header
-4.192778 -53.289368 69.938187
-1.919603 -44.160847 75.113373
-0.375378 -44.263664 84.75959
-3.369648 -53.670765 80.621803
-4.942215 -48.348068 67.063629
-4.158871 -57.595825 82.471809
-5.566311 -56.688835 85.8591
-3.594545 -43.679371 69.688705
-3.72529 -48.946594 72.543839
-0.713139 -44.379181 80.299782
-3.622637 -53.656361 75.439774
-3.431654 -57.892017 77.850563
-4.615551 -50.886299 68.507721
-4.639009 -54.987637 85.61776
-1.603792 -41.395817 73.809875
-2.72681 -43.954971 72.409386
-3.688139 -46.383614 71.083611
-2.942181 -46.614162 73.813126
-0.626741 -44.034378 86.512642
-0.414347 -44.372353 82.659943
-3.299818 -51.489166 76.725128
-3.434675 -53.713936 78.098389
-3.518055 -55.825382 76.741241
-3.561237 -55.814949 79.309723
-4.647264 -59.413498 82.895393
-3.949141 -59.71423 80.945282
-5.154104 -45.666946 65.654404
-1.110386 -35.496567 71.565681
-0.480776 -38.694561 75.309242
-0.812126 -41.572884 76.480804
-1.218245 -46.766567 83.840187
-3.745483 -55.687965 81.694038
-4.09878 -55.419506 83.821503
-4.773874 -57.227551 84.353874
-5.516724 -58.95166 84.490189
-3.456224 -40.842201 68.398239
-4.458509 -43.31678 66.983124
-4.447023 -46.074219 68.353256
-4.346598 -48.691544 69.795929
-4.156481 -51.16861 71.264305
-1.23081 -44.303841 77.761215
-1.359503 -46.869247 81.586937
-1.724775 -46.865116 79.117477
-2.269249 -46.775482 76.506241
-3.136505 -49.125572 75.271881
-3.700663 -51.368149 74.017075
-3.890427 -53.513397 72.703644
-3.580839 -55.740353 74.053848
-3.716785 -57.809525 80.279938
-6.529661 -55.976955 86.935173
-6.548841 -58.320827 85.676064
-4.338669 -53.133627 68.561821
-4.550056 -51.932092 67.846588
-4.404165 -52.087834 69.222954
-0.048336 -42.949343 85.197178
-0.174017 -42.834699 86.073704
-0.501059 -44.149021 85.636116
0.013219 -43.001648 84.244354
0.340261 -41.687326 84.681942
-0.048336 -42.949343 85.197178
-0.394863 -44.318008 83.709767
-0.006265 -43.055993 83.19453
0.013219 -43.001648 84.244354
-3.186653 -52.597374 79.980495
-3.113859 -52.562464 81.209976
-3.402162 -53.692351 79.360096
-3.219167 -52.61896 78.718788
-3.186653 -52.597374 79.980495
-4.476636 -60.478756 82.083011
-4.947813 -60.28595 82.919598
-5.197223 -48.12228 65.722973
-5.303168 -46.781719 65.018361
-5.04816 -47.007507 66.359016
-0.130922 -38.765829 76.62196
0.006695 -37.268978 76.108825
0.356548 -37.340246 77.421543
-0.296598 -40.204991 77.20774
-0.646451 -40.133723 75.895023
-0.130922 -38.765829 76.62196
-3.92566 -54.303514 84.401913
-3.782207 -54.461574 83.381615
-1.699171 -36.867267 70.744182
-1.221958 -36.998219 72.094905
-3.525385 -42.260786 69.043472
-2.980559 -40.99982 69.751068
-3.04972 -42.418406 70.396301
-0.447908 -43.036551 79.68449
-0.238393 -43.066502 80.905659
-0.971974 -44.341511 79.030498
-0.706744 -42.99888 78.415207
-0.447908 -43.036551 79.68449
-1.728804 -48.013345 82.224243
-1.288874 -46.817907 82.713562
-1.658176 -47.962006 83.350868
-2.180148 -48.047277 78.527977
-1.999335 -48.056048 79.804069
-2.452385 -48.00246 77.222359
-1.997012 -46.820299 77.811859
-2.180148 -48.047277 78.527977
-2.886013 -49.177505 76.605179
-2.702877 -47.950527 75.889061
-2.452385 -48.00246 77.222359
-3.354839 -57.879711 76.552128
-3.398039 -56.846393 75.997467
-3.474855 -56.8587 77.295902
-3.237668 -58.90238 77.048717
-3.354839 -57.879711 76.552128
-3.684273 -59.793444 79.825531
-3.743269 -60.74807 80.104988
-7.089118 -55.541128 87.244373
-6.41225 -54.78907 87.450791
-7.076825 -59.114667 85.386189
-7.137129 -57.924251 86.048229
-6.451797 -59.466921 84.953381
-7.076825 -59.114667 85.386189
-4.820617 -50.696811 67.146324
-4.983949 -49.427696 66.424278
-4.778883 -49.617183 67.785675
-4.820617 -50.696811 67.146324
-4.550056 -51.932092 67.846588
-4.444254 -53.845332 86.142701
-4.195774 -54.08758 85.300041
-5.005764 -54.684044 86.316772
-4.444254 -53.845332 86.142701
-5.469416 -55.534643 86.437443
-5.10266 -55.838236 85.73843
-5.005764 -54.684044 86.316772
-2.054343 -41.276629 72.456886
-1.46866 -39.947844 73.217003
-2.615852 -42.556206 71.756642
-2.054343 -41.276629 72.456886
-2.165301 -42.675394 73.109631
-3.160678 -43.817171 71.049046
-3.04972 -42.418406 70.396301
-2.615852 -42.556206 71.756642
-0.391013 -42.730076 86.828595
-0.905678 -43.85366 87.177395
-0.391013 -42.730076 86.828595
-0.174017 -42.834699 86.073704
-0.088997 -43.063087 82.08574
-0.006265 -43.055993 83.19453
-0.563743 -44.375767 81.479862
-0.238393 -43.066502 80.905659
-0.088997 -43.063087 82.08574
-3.151738 -51.506574 78.032158
-2.967669 -50.359302 77.331803
-3.367247 -52.601551 77.411758
-3.151738 -51.506574 78.032158
-3.219167 -52.61896 78.718788
-4.127574 -60.629122 81.107956
-4.298203 -59.563864 81.920338
-4.476636 -60.478756 82.083011
-3.921702 -61.662962 80.267662
-3.743269 -60.74807 80.104988
-4.127574 -60.629122 81.107956
-5.447836 -45.40275 64.338351
-5.200897 -44.255224 64.98917
-5.447836 -45.40275 64.338351
-5.303168 -46.781719 65.018361
-5.197223 -48.12228 65.722973
-4.983949 -49.427696 66.424278
-0.587257 -34.054371 72.440853
-1.018119 -33.951998 71.098197
-0.49499 -32.509802 71.973369
-0.673179 -35.597332 72.911106
-0.587257 -34.054371 72.440853
-1.221958 -36.998219 72.094905
-0.673179 -35.597332 72.911106
-0.358374 -37.196329 74.782886
0.129097 -35.770746 75.58247
0.006695 -37.268978 76.108825
-0.907153 -38.597216 73.966686
-0.358374 -37.196329 74.782886
-1.042284 -40.045189 74.559559
-1.46866 -39.947844 73.217003
-0.907153 -38.597216 73.966686
-1.183338 -45.095482 86.939205
-0.905678 -43.85366 87.177395
-0.981915 -45.28447 86.153171
-1.183338 -45.095482 86.939205
-1.538512 -46.345574 86.579735
-0.856233 -45.399113 85.276646
-0.501059 -44.149021 85.636116
-0.981915 -45.28447 86.153171
-1.277667 -46.650564 84.816944
-0.796812 -45.515116 84.299889
-0.856233 -45.399113 85.276646
-1.682723 -47.85142 84.406509
-1.277667 -46.650564 84.816944
-1.658176 -47.962006 83.350868
-1.682723 -47.85142 84.406509
-3.417641 -53.587204 81.781765
-3.113859 -52.562464 81.209976
-3.605558 -54.595804 82.317882
-3.557565 -54.679365 81.157921
-3.417641 -53.587204 81.781765
-3.922131 -55.553736 82.757771
-3.605558 -54.595804 82.317882
-3.782207 -54.461574 83.381615
-4.368894 -55.203571 84.719632
-3.92566 -54.303514 84.401913
-4.195774 -54.08758 85.300041
-5.382543 -60.055031 83.716995
-4.947813 -60.28595 82.919598
-5.081994 -59.182579 83.692791
-4.031163 -54.306233 69.238666
-3.951874 -54.430821 70.620957
-1.595317 -35.355955 70.221206
-1.018119 -33.951998 71.098197
-1.595317 -35.355955 70.221206
-1.699171 -36.867267 70.744182
-2.87209 -39.540085 69.160461
-2.980559 -40.99982 69.751068
-3.370336 -39.36414 67.818153
-2.87209 -39.540085 69.160461
-3.923065 -40.634567 67.0606
-3.370336 -39.36414 67.818153
-4.424207 -41.871856 66.353043
-3.923065 -40.634567 67.0606
-3.957367 -42.079491 67.690682
-4.8531 -43.080141 65.65353
-4.424207 -41.871856 66.353043
-4.806306 -44.491863 66.318764
-5.200897 -44.255224 64.98917
-4.8531 -43.080141 65.65353
-0.497402 -41.633402 77.775002
-0.296598 -40.204991 77.20774
-1.021468 -42.938362 77.12101
-0.497402 -41.633402 77.775002
-0.706744 -42.99888 78.415207
-1.816699 -48.058113 81.0388
-1.728804 -48.013345 82.224243
-1.542139 -46.867182 80.352207
-1.816699 -48.058113 81.0388
-1.999335 -48.056048 79.804069
-3.218161 -50.307369 75.998504
-2.886013 -49.177505 76.605179
-2.967669 -50.359302 77.331803
-3.800699 -54.542835 72.003685
-3.951874 -54.430821 70.620957
-4.041602 -53.401382 71.320915
-3.645905 -55.656313 72.678787
-3.800699 -54.542835 72.003685
-3.735633 -54.626875 73.378746
-3.402682 -56.74749 73.303207
-3.645905 -55.656313 72.678787
-3.429431 -56.803879 74.653771
-3.549447 -55.782867 75.397545
-3.398039 -56.846393 75.997467
-3.402682 -56.74749 73.303207
-3.429431 -56.803879 74.653771
-3.568095 -58.841092 79.492859
-3.832963 -58.761877 80.61261
-3.684273 -59.793444 79.825531
-3.425529 -58.882338 78.278171
-3.574219 -57.850771 79.06525
-3.568095 -58.841092 79.492859
-3.237668 -58.90238 77.048717
-3.425529 -58.882338 78.278171
-5.95109 -55.178703 86.975479
-5.83368 -53.990818 87.491096
-6.41225 -54.78907 87.450791
-6.047986 -56.332895 86.397137
-5.469416 -55.534643 86.437443
-5.95109 -55.178703 86.975479
-7.127538 -56.752315 86.677784
-7.089118 -55.541128 87.244373
-6.539251 -57.148891 86.305619
-7.127538 -56.752315 86.677784
-7.137129 -57.924251 86.048229
-5.935738 -59.782337 84.360444
-6.032782 -58.636243 85.083126
-6.451797 -59.466921 84.953381
-5.382543 -60.055031 83.716995
-5.935738 -59.782337 84.360444
-4.338669 -53.133627 68.561821
-4.031163 -54.306233 69.238666
3 0 51 53
3 53 52 12
3 51 52 53
3 1 15 14
3 1 17 15
3 2 54 56
3 56 55 18
3 54 55 56
3 2 57 59
3 57 58 59
3 2 60 62
3 60 19 61
3 60 61 62
3 3 63 64
3 3 65 67
3 65 21 66
3 65 66 67
3 3 23 21
3 69 68 24
3 4 70 72
3 72 71 26
3 70 71 72
3 73 28 74
3 73 74 75
3 76 29 77
3 78 77 28
3 76 77 78
3 79 32 80
3 6 33 13
3 6 34 33
3 82 81 27
3 7 83 85
3 83 35 84
3 83 84 85
3 7 36 35
3 7 37 36
3 8 38 16
3 8 39 38
3 9 86 87
3 9 88 90
3 88 40 89
3 88 89 90
3 91 41 92
3 93 92 30
3 91 92 93
3 94 42 95
3 96 43 97
3 98 97 42
3 96 97 98
3 99 44 100
3 101 100 43
3 99 100 101
3 10 45 20
3 10 46 45
3 10 47 46
3 11 102 104
3 104 103 22
3 102 103 104
3 11 105 106
3 5 48 31
3 108 107 25
3 109 49 110
3 111 50 112
3 114 113 50
3 12 115 117
3 117 116 4
3 115 116 117
3 119 118 12
3 120 13 121
3 122 13 123
3 124 6 125
3 126 125 13
3 124 125 126
3 14 127 128
3 15 129 131
3 131 130 14
3 129 130 131
3 15 132 134
3 132 7 133
3 132 133 134
3 15 16 7
3 17 16 15
3 17 8 16
3 18 135 136
3 138 137 18
3 19 139 140
3 19 141 143
3 141 9 142
3 141 142 143
3 144 20 145
3 21 146 148
3 146 20 147
3 146 147 148
3 21 10 20
3 21 22 10
3 23 22 21
3 23 11 22
3 24 25 5
3 149 25 150
3 151 150 24
3 149 150 151
3 154 153 25
3 152 153 154
3 26 155 156
3 158 157 26
3 160 159 4
3 161 27 162
3 161 162 163
3 164 27 165
3 167 166 27
3 28 168 170
3 168 169 170
3 28 171 172
3 28 173 175
3 173 14 174
3 173 174 175
3 29 14 28
3 29 1 14
3 176 18 177
3 178 18 179
3 178 179 180
3 181 2 182
3 183 182 18
3 181 182 183
3 184 30 185
3 186 185 2
3 184 185 186
3 187 30 188
3 190 189 30
3 191 3 192
3 193 31 194
3 195 194 3
3 193 194 195
3 32 196 198
3 196 31 197
3 196 197 198
3 32 5 31
3 13 199 201
3 199 32 200
3 199 200 201
3 33 32 13
3 33 5 32
3 33 24 5
3 34 24 33
3 34 202 204
3 204 203 24
3 202 203 204
3 206 205 0
3 27 207 208
3 210 209 27
3 35 211 212
3 35 213 214
3 35 215 216
3 36 217 219
3 219 218 35
3 217 218 219
3 36 220 221
3 36 222 224
3 222 26 223
3 222 223 224
3 37 26 36
3 37 4 26
3 16 37 7
3 38 37 16
3 38 4 37
3 38 12 4
3 39 12 38
3 39 0 12
3 225 29 226
3 40 227 229
3 227 29 228
3 227 228 229
3 40 1 29
3 30 19 2
3 41 19 30
3 41 9 19
3 230 41 231
3 42 232 234
3 232 41 233
3 232 233 234
3 42 9 41
3 42 40 9
3 43 40 42
3 43 1 40
3 43 17 1
3 44 17 43
3 44 8 17
3 20 235 237
3 235 44 236
3 235 236 237
3 45 44 20
3 45 8 44
3 45 39 8
3 46 39 45
3 46 0 39
3 46 238 240
3 240 239 0
3 238 239 240
3 47 241 243
3 243 242 46
3 241 242 243
3 47 244 245
3 22 47 10
3 246 47 247
3 248 247 22
3 246 247 248
3 250 249 47
3 31 23 3
3 48 23 31
3 48 11 23
3 25 48 5
3 251 48 252
3 253 252 25
3 251 252 253
3 254 11 255
3 256 255 48
3 254 255 256
3 258 257 11
3 49 259 261
3 259 260 261
3 49 262 264
3 262 6 263
3 262 263 264
3 265 49 266
3 50 267 269
3 267 49 268
3 267 268 269
3 50 6 49
3 50 34 6
3 270 34 271
3 272 271 50
3 270 271 272
3 274 273 34
3 276 275 0
