ply
format ascii 1.0
element vertex 536
property float x
property float y
property float z
element face 437
property list uchar int vertex_index
end_header
-2.518732 -36.854034 85.174385
6.842169 -20.283512 87.863907
0.329411 -39.221603 89.858299
0.579529 -47.316475 87.757957
-2.245325 -22.722704 83.696625
-1.435427 -17.521387 75.22155
-2.34025 -34.932823 80.813881
2.739534 -23.841343 88.848022
0.710598 -20.960861 88.189117
1.855806 -29.979401 89.010323
-1.140312 -14.751128 83.259972
-2.084654 -20.070324 79.662674
9.753593 -42.361477 88.117363
4.714169 -51.800701 89.450264
5.741959 -43.015503 89.964981
2.586542 -51.826485 88.169052
-2.23303 -32.360302 87.507278
-2.797518 -30.200508 84.264587
-1.758249 -25.41008 86.892784
-0.535023 -17.831114 86.227203
-0.631191 -34.096256 89.204781
-2.518164 -27.850916 80.002472
-2.542715 -35.932758 83.104073
-2.236853 -37.667336 86.948128
-1.646086 -40.444641 87.532669
-2.019556 -39.798965 85.792397
4.702679 -21.994547 88.468643
3.452881 -20.537983 88.533966
4.050091 -25.089888 88.619156
-1.259115 -13.284345 81.493233
-1.067102 -36.166679 76.416275
1.743849 -39.41362 89.932739
1.236917 -41.408066 90.251717
1.275251 -47.533016 89.145103
2.408415 -49.704136 89.279755
1.598173 -49.578018 88.123085
1.076515 -49.293091 86.536133
-2.109541 -28.986881 87.188698
1.51265 -17.295248 87.720978
0.810041 -15.59822 86.894867
0.261292 -13.90844 85.823883
0.604519 -29.020462 89.114891
0.442701 -32.00753 89.228249
-2.608782 -26.54401 83.951752
-2.74774 -29.036705 82.225349
-2.564554 -25.285385 81.952271
-1.816114 -18.783838 77.469437
-2.028101 -22.787018 77.512863
-1.573378 -21.558311 75.183624
5.288498 -45.082809 90.423615
7.106737 -44.747978 89.776505
-1.609007 -37.176064 78.975868
-1.944334 -33.881065 78.376663
-0.978958 -40.934246 88.885498
-0.823709 -42.976532 88.15696
1.013977 -25.820862 88.9627
2.389654 -18.957211 88.276443
3.569704 -28.031254 88.589897
2.190678 -27.001751 88.982491
-1.744204 -18.779253 83.47258
-2.233183 -21.384396 81.755653
-1.787409 -17.372625 81.610092
-1.71163 -16.007421 79.605095
-1.525663 -14.682049 77.50116
6.139299 -51.583813 89.376663
4.48147 -41.281998 89.858994
3.518936 -51.887482 89.050156
-2.566786 -34.62236 86.451233
-2.776079 -33.648945 84.664864
-2.635836 -31.318253 86.049118
-2.467081 -27.786915 85.719727
-2.09651 -24.072323 85.428917
-1.220194 -21.677006 86.580597
-0.905602 -16.271053 84.850296
0.569067 -34.743301 89.379608
-0.302263 -36.795105 89.493217
-2.093653 -35.488167 87.888474
-2.749285 -32.597755 82.602142
-2.518896 -31.496574 80.33786
-2.116167 -30.367664 77.941696
-2.363405 -24.029873 79.786255
-2.136602 -26.659311 77.661148
-1.56735 -29.225916 75.474205
-1.230207 -13.389866 75.337273
-0.946371 -16.276134 72.9571
7.689091 -42.700844 89.152
9.055773 -44.37468 88.836082
-2.530723 -36.393396 84.139229
-2.330385 -37.476358 83.419453
-2.318393 -37.936996 84.454609
-2.318393 -37.936996 84.454609
-2.068805 -39.409462 84.763615
-2.269144 -38.326499 85.483391
6.160662 -19.530293 87.969548
5.090917 -20.38581 88.271916
5.772424 -21.139029 88.166275
6.485281 -21.788339 87.964519
7.604444 -20.947584 87.61214
5.772424 -21.139029 88.166275
5.415536 -22.643857 88.266887
6.485281 -21.788339 87.964519
-0.721046 -35.647441 75.11491
-1.226125 -34.482737 76.13623
0.92739 -47.424746 88.45153
0.724677 -46.424143 88.938824
0.376816 -46.315872 88.24525
1.617906 -14.573726 87.01463
1.161345 -16.446734 87.307923
1.969211 -15.42224 87.427685
1.265195 -13.662557 86.626522
1.617906 -14.573726 87.01463
-0.028085 -30.074124 89.049701
0.092982 -28.469967 88.948723
-1.222129 -18.93065 74.031464
-1.291104 -20.949112 74.0125
-1.504402 -19.539849 75.202587
5.987448 -46.006118 90.222176
5.146076 -46.168487 90.454468
-1.974629 -36.054443 79.894875
-1.789608 -37.655983 80.206718
-2.155229 -36.534363 81.125725
-1.325982 -39.639706 88.619427
-0.897425 -39.900416 89.109401
-1.061991 -42.735283 87.320141
-1.234897 -41.710586 87.844814
-1.473179 -41.469337 87.007995
-0.617258 -43.977732 87.665077
-1.061991 -42.735283 87.320141
2.181648 -23.147257 88.773117
1.318869 -24.137017 88.830456
1.876755 -24.831103 88.905361
3.339764 -18.040116 88.143253
2.921267 -19.747597 88.405204
3.871377 -18.830503 88.272015
2.832626 -17.160626 87.98317
3.339764 -18.040116 88.143253
4.554134 -27.102879 88.301567
4.350106 -28.463144 88.199692
-1.492088 -13.940223 79.595803
-1.485372 -14.645883 80.549164
-1.265831 -12.578684 80.539872
-1.399105 -13.277537 78.543835
-1.618647 -15.344735 78.553128
-1.492088 -13.940223 79.595803
10.826771 -42.194746 87.533279
10.190723 -41.436343 87.593895
10.424715 -43.178858 87.906437
10.826771 -42.194746 87.533279
5.426734 -51.692257 89.413464
5.486612 -50.54381 89.764454
4.774047 -50.652254 89.801254
3.939455 -40.370821 89.72765
4.867789 -40.334855 89.388939
3.049451 -52.964802 88.002445
3.515648 -52.9953 88.442997
3.052739 -51.856983 88.609604
2.652646 -52.883589 87.480251
3.049451 -52.964802 88.002445
0.011299 -22.040913 87.957863
0.382028 -22.738096 88.361957
-0.877609 -19.75406 86.4039
-0.612055 -20.541623 86.966774
-0.26947 -18.618677 86.790077
-1.049285 -19.025616 85.6865
-1.391871 -20.948563 85.863197
-0.877609 -19.75406 86.4039
-0.720313 -17.051083 85.538749
-1.234574 -18.245586 84.998047
-1.049285 -19.025616 85.6865
0.051981 -13.083601 85.177918
0.698105 -11.923078 85.597583
1.82026 -31.356007 89.018589
2.586499 -30.379497 88.747391
-0.985294 -35.157652 89.060021
-0.820829 -36.507076 89.204239
-0.466727 -35.44568 89.348999
-2.163342 -33.924234 87.697876
-1.830603 -34.391872 88.23164
-1.900291 -32.82794 88.041042
-1.880327 -26.064574 76.45953
-2.082351 -24.723164 77.587006
-1.826077 -24.128428 76.385388
-1.595701 -27.347876 75.366059
-1.851976 -27.942614 76.567677
-1.880327 -26.064574 76.45953
-1.230612 -28.652372 74.229709
-1.595701 -27.347876 75.366059
-1.103918 -11.292303 75.413845
-1.205526 -11.951121 76.456089
-0.651393 -15.658748 71.831375
-0.885104 -14.199637 73.051586
-0.646021 -17.701014 71.738395
-0.651393 -15.658748 71.831375
6.715525 -42.858173 89.558491
7.044076 -41.883358 89.143901
6.07051 -42.040688 89.550392
8.786157 -45.460835 89.01899
8.081255 -44.561329 89.306294
7.81164 -45.647484 89.489201
9.753372 -45.258099 88.478855
8.786157 -45.460835 89.01899
-2.256462 -37.03433 82.270821
-2.330385 -37.476358 83.419453
-2.441483 -35.43279 81.958977
-2.155229 -36.534363 81.125725
-2.256462 -37.03433 82.270821
-1.941469 -39.055988 87.240398
-1.659546 -39.394903 87.943012
-1.954929 -38.006251 87.650741
-1.659914 -41.1465 86.137859
-1.473179 -41.469337 87.007995
-1.832821 -40.121803 86.662533
-1.7551 -40.829664 85.13055
-1.659914 -41.1465 86.137859
-1.7551 -40.829664 85.13055
-2.068805 -39.409462 84.763615
4.466018 -19.657528 88.304577
4.07778 -21.266265 88.501305
5.090917 -20.38581 88.271916
3.871377 -18.830503 88.272015
4.466018 -19.657528 88.304577
5.089242 -24.191527 88.342144
4.794328 -25.632196 88.316197
4.376385 -23.542217 88.5439
5.089242 -24.191527 88.342144
5.415536 -22.643857 88.266887
-0.86288 -11.976946 82.26812
-1.199714 -14.017736 82.376603
-0.803478 -12.710337 83.151489
-0.968981 -11.216618 81.437687
-0.86288 -11.976946 82.26812
-1.265831 -12.578684 80.539872
-0.968981 -11.216618 81.437687
9.106782 -41.579445 88.146717
10.190723 -41.436343 87.593895
5.302981 -52.892723 88.996323
4.646411 -52.957874 88.93618
-0.511945 -37.259239 75.462932
-0.84288 -37.742849 76.782196
-0.511945 -37.259239 75.462932
-0.721046 -35.647441 75.11491
2.245572 -40.410763 90.094299
2.570645 -39.436632 89.764522
1.992106 -41.407986 90.253788
2.245572 -40.410763 90.094299
1.490383 -40.410843 90.092228
1.801373 -42.413863 90.412087
1.992106 -41.407986 90.253788
1.165303 -46.507609 89.502006
0.724677 -46.424143 88.938824
1.767557 -47.559057 89.609909
1.165303 -46.507609 89.502006
1.841833 -48.618576 89.212429
2.334139 -48.644617 89.677235
1.767557 -47.559057 89.609909
1.767145 -50.594757 87.479519
2.261329 -51.718991 87.502502
2.092358 -50.702252 88.146068
1.506316 -50.452293 86.686043
1.767145 -50.594757 87.479519
1.337344 -49.435554 87.329609
1.323335 -50.270925 85.822163
1.506316 -50.452293 86.686043
-1.810696 -29.549186 87.741612
-2.171285 -30.673592 87.347988
-1.87244 -31.235896 87.900902
-1.657099 -27.845646 87.608654
-1.810696 -29.549186 87.741612
-1.481453 -26.057246 87.460697
-1.933895 -27.198481 87.040741
-1.657099 -27.845646 87.608654
0.754367 -18.350744 87.536965
0.353341 -20.183551 87.771034
1.111624 -19.128055 87.955048
0.403062 -17.50223 87.123909
0.754367 -18.350744 87.536965
1.161345 -16.446734 87.307923
0.137509 -16.714667 86.561035
-0.26947 -18.618677 86.790077
0.403062 -17.50223 87.123909
0.990821 -12.817667 86.09103
0.535667 -14.75333 86.359375
1.265195 -13.662557 86.626522
0.698105 -11.923078 85.597583
0.990821 -12.817667 86.09103
-0.108994 -31.567659 89.106381
0.52361 -30.513996 89.17157
-0.028085 -30.074124 89.049701
-0.645939 -32.612021 89.094646
-0.094245 -33.051893 89.216515
-0.108994 -31.567659 89.106381
-1.099372 -33.695917 88.889793
-0.645939 -32.612021 89.094646
-1.87244 -31.235896 87.900902
-1.900291 -32.82794 88.041042
-1.598715 -23.514074 75.220768
-1.826077 -24.128428 76.385388
-1.800739 -22.172664 76.348243
-1.284766 -22.920974 74.011559
-1.598715 -23.514074 75.220768
-1.284766 -22.920974 74.011559
-1.291104 -20.949112 74.0125
6.896568 -45.838703 89.898621
6.197617 -44.915394 90.10006
5.987448 -46.006118 90.222176
7.81164 -45.647484 89.489201
6.896568 -45.838703 89.898621
-1.363123 -38.709857 79.351795
-1.789608 -37.655983 80.206718
-1.113833 -38.247541 78.061993
-1.363123 -38.709857 79.351795
-1.338055 -36.671371 77.696072
-0.84288 -37.742849 76.782196
-1.113833 -38.247541 78.061993
-1.664741 -33.339929 77.116424
-1.226125 -34.482737 76.13623
-1.505718 -35.023872 77.396469
0.157773 -40.238349 89.828774
-0.24324 -39.044094 89.595802
-0.496412 -41.094671 89.342373
-0.897425 -39.900416 89.109401
-0.513912 -42.112949 89.153686
-0.496412 -41.094671 89.342373
-1.312522 -40.689443 88.209083
-1.325982 -39.639706 88.619427
-1.659546 -39.394903 87.943012
-0.436287 -43.134092 88.789417
-0.513912 -42.112949 89.153686
-0.901334 -41.955389 88.521229
-0.324803 -44.1459 88.444752
-0.436287 -43.134092 88.789417
-0.324803 -44.1459 88.444752
-0.617258 -43.977732 87.665077
0.084361 -46.147703 87.465576
0.376816 -46.315872 88.24525
0.377703 -47.127156 86.864224
0.084361 -46.147703 87.465576
0.533718 -25.168097 88.748749
0.29771 -26.870167 88.872627
0.533718 -25.168097 88.748749
1.318869 -24.137017 88.830456
1.16718 -21.707016 88.443664
0.382028 -22.738096 88.361957
2.538321 -21.495577 88.616089
2.181648 -23.147257 88.773117
3.096208 -22.189663 88.690994
2.006708 -20.705191 88.487327
2.538321 -21.495577 88.616089
2.921267 -19.747597 88.405204
1.550126 -19.959036 88.23278
1.16718 -21.707016 88.443664
2.006708 -20.705191 88.487327
2.394125 -16.329644 87.705437
1.951152 -18.12623 87.998711
2.832626 -17.160626 87.98317
1.969211 -15.42224 87.427685
2.394125 -16.329644 87.705437
3.443448 -29.405424 88.537178
4.350106 -28.463144 88.199692
2.712755 -29.005327 88.80011
2.586499 -30.379497 88.747391
3.443448 -29.405424 88.537178
3.809897 -26.560571 88.604526
4.554134 -27.102879 88.301567
4.794328 -25.632196 88.316197
0.29771 -26.870167 88.872627
0.092982 -28.469967 88.948723
0.809248 -27.420662 89.038795
6.261349 -50.401771 89.628959
5.486612 -50.54381 89.764454
6.945531 -51.423851 89.126457
6.261349 -50.401771 89.628959
6.015547 -52.784279 88.959522
5.426734 -51.692257 89.413464
5.302981 -52.892723 88.996323
6.776568 -52.657319 88.801907
6.015547 -52.784279 88.959522
6.945531 -51.423851 89.126457
6.776568 -52.657319 88.801907
7.239212 -18.725861 87.613735
7.967795 -19.493687 87.468388
7.967795 -19.493687 87.468388
7.604444 -20.947584 87.61214
5.440265 -41.173935 89.497399
4.867789 -40.334855 89.388939
5.111714 -42.148751 89.911987
6.07051 -42.040688 89.550392
5.440265 -41.173935 89.497399
3.614382 -41.344952 90.057426
3.939455 -40.370821 89.72765
4.217296 -42.275055 90.162048
3.614382 -41.344952 90.057426
4.847541 -43.141807 90.215042
5.111714 -42.148751 89.911987
4.217296 -42.275055 90.162048
4.620811 -44.17546 90.444359
5.515228 -44.049156 90.194298
4.847541 -43.141807 90.215042
4.466886 -45.211833 90.557266
4.620811 -44.17546 90.444359
5.146076 -46.168487 90.454468
4.466886 -45.211833 90.557266
0.611526 -41.331581 90.025483
0.783164 -40.314835 90.055008
0.157773 -40.238349 89.828774
1.128885 -42.421854 90.241817
0.611526 -41.331581 90.025483
1.801373 -42.413863 90.412087
1.128885 -42.421854 90.241817
4.105046 -50.737448 89.705296
4.774047 -50.652254 89.801254
2.952168 -49.689165 89.620041
2.334139 -48.644617 89.677235
3.507429 -50.780838 89.505242
2.952168 -49.689165 89.620041
2.963675 -50.795809 89.164955
4.116553 -51.844091 89.25021
4.105046 -50.737448 89.705296
3.507429 -50.780838 89.505242
4.048794 -53.001264 88.736126
4.646411 -52.957874 88.93618
4.116553 -51.844091 89.25021
4.048794 -53.001264 88.736126
3.515648 -52.9953 88.442997
2.652646 -52.883589 87.480251
2.261329 -51.718991 87.502502
0.626196 -48.115463 86.253311
0.828022 -48.304783 87.147045
0.377703 -47.127156 86.864224
0.957271 -49.076248 85.56189
0.626196 -48.115463 86.253311
1.323335 -50.270925 85.822163
0.957271 -49.076248 85.56189
-1.223124 -24.265522 87.309696
-1.481453 -26.057246 87.460697
0.011299 -22.040913 87.957863
0.353341 -20.183551 87.771034
-0.954097 -22.398985 87.153603
-0.612055 -20.541623 86.966774
-1.489221 -23.543543 86.736691
-1.223124 -24.265522 87.309696
-0.954097 -22.398985 87.153603
-1.830029 -22.146221 85.287357
-1.658352 -22.874665 86.004757
-1.391871 -20.948563 85.863197
-1.904436 -21.471412 84.421211
-2.170917 -23.397514 84.562771
-1.830029 -22.146221 85.287357
-1.653876 -19.499686 84.309189
-1.994765 -20.750979 83.584602
-1.904436 -21.471412 84.421211
-1.324903 -17.525153 84.161438
-1.653876 -19.499686 84.309189
-1.234574 -18.245586 84.998047
-0.531466 -14.264907 84.691124
-0.322155 -15.089747 85.337089
0.051981 -13.083601 85.177918
-0.648821 -13.504945 83.895962
-1.022957 -15.51109 84.055134
-0.531466 -14.264907 84.691124
-0.803478 -12.710337 83.151489
-0.648821 -13.504945 83.895962
6.160662 -19.530293 87.969548
7.239212 -18.725861 87.613735
2.151315 -38.43828 89.624413
2.570645 -39.436632 89.764522
1.374485 -38.310848 89.774799
2.151315 -38.43828 89.624413
0.667266 -38.214839 89.737579
1.03663 -39.317611 89.895519
1.374485 -38.310848 89.774799
1.113707 -32.370072 89.127552
1.82026 -31.356007 89.018589
1.149253 -30.993465 89.119286
1.17689 -33.737957 89.203232
1.113707 -32.370072 89.127552
0.505884 -33.375416 89.303929
1.29194 -34.986466 89.247868
1.17689 -33.737957 89.203232
0.787094 -35.975689 89.498233
1.29194 -34.986466 89.247868
0.351429 -37.00159 89.555038
0.787094 -35.975689 89.498233
0.133402 -35.769203 89.436413
0.013574 -38.008354 89.675758
0.667266 -38.214839 89.737579
0.351429 -37.00159 89.555038
-0.559077 -37.830845 89.413261
-0.24324 -39.044094 89.595802
0.013574 -38.008354 89.675758
-0.559077 -37.830845 89.413261
-0.820829 -36.507076 89.204239
-0.985294 -35.157652 89.060021
-1.099372 -33.695917 88.889793
-1.716525 -35.853607 88.401867
-1.830603 -34.391872 88.23164
-1.88333 -36.916666 88.120914
-1.716525 -35.853607 88.401867
-2.165253 -36.577751 87.418301
-1.954929 -38.006251 87.650741
-1.88333 -36.916666 88.120914
-1.750658 -31.583229 76.898941
-1.664741 -33.339929 77.116424
-2.030251 -32.124364 78.159179
-1.476249 -31.012355 75.665195
-1.750658 -31.583229 76.898941
-1.841759 -29.79679 76.70795
-1.128264 -30.463097 74.389519
-1.476249 -31.012355 75.665195
-1.128264 -30.463097 74.389519
-1.230612 -28.652372 74.229709
-1.353254 -12.597212 77.538032
-1.399105 -13.277537 78.543835
-1.377935 -14.035957 76.419217
-1.353254 -12.597212 77.538032
-1.205526 -11.951121 76.456089
-1.027022 -12.756504 74.241672
-1.103918 -11.292303 75.413845
-1.088289 -14.833 74.147187
-1.027022 -12.756504 74.241672
-0.885104 -14.199637 73.051586
-0.977601 -18.308024 72.899238
-1.222129 -18.93065 74.031464
-1.190899 -16.898761 74.089325
-0.977601 -18.308024 72.899238
-0.646021 -17.701014 71.738395
8.07453 -41.749128 88.664035
7.044076 -41.883358 89.143901
8.721342 -42.53116 88.634681
9.106782 -41.579445 88.146717
8.07453 -41.749128 88.664035
10.075805 -44.18546 88.265796
10.424715 -43.178858 87.906437
9.404683 -43.368078 88.476722
10.075805 -44.18546 88.265796
9.753372 -45.258099 88.478855
3 0 87 89
3 87 22 88
3 87 88 89
3 0 25 23
3 0 90 92
3 92 91 25
3 90 91 92
3 1 93 95
3 95 94 26
3 93 94 95
3 1 96 97
3 1 98 100
3 98 26 99
3 98 99 100
3 102 101 30
3 2 32 31
3 3 103 105
3 103 33 104
3 103 104 105
3 3 35 33
3 3 36 35
3 106 39 107
3 108 107 38
3 106 107 108
3 110 109 39
3 112 111 41
3 4 45 43
3 5 48 46
3 5 113 115
3 115 114 48
3 113 114 115
3 117 116 49
3 6 118 120
3 118 51 119
3 118 119 120
3 6 52 51
3 121 53 122
3 123 54 124
3 125 124 24
3 123 124 125
3 127 126 54
3 7 128 130
3 130 129 55
3 128 129 130
3 131 56 132
3 133 132 27
3 131 132 133
3 135 134 56
3 136 57 137
3 7 58 28
3 7 55 58
3 10 61 59
3 138 62 139
3 140 139 29
3 138 139 140
3 141 63 142
3 143 142 62
3 141 142 143
3 12 144 145
3 12 146 147
3 13 148 150
3 148 64 149
3 148 149 150
3 151 65 152
3 15 66 34
3 15 153 155
3 155 154 66
3 153 154 155
3 15 156 157
3 16 69 67
3 18 70 37
3 18 71 70
3 8 158 159
3 19 160 162
3 160 72 161
3 160 161 162
3 19 163 165
3 165 164 72
3 163 164 165
3 19 166 168
3 166 73 167
3 166 167 168
3 170 169 40
3 9 171 172
3 20 74 42
3 20 75 74
3 20 173 175
3 175 174 75
3 173 174 175
3 16 176 178
3 176 76 177
3 176 177 178
3 16 67 76
3 17 77 68
3 21 78 44
3 21 79 78
3 11 80 60
3 179 81 180
3 181 180 47
3 179 180 181
3 182 82 183
3 184 183 81
3 182 183 184
3 186 185 82
3 187 83 188
3 189 84 190
3 192 191 84
3 14 193 195
3 193 85 194
3 193 194 195
3 196 86 197
3 198 197 50
3 196 197 198
3 200 199 86
3 22 201 202
3 22 203 205
3 203 6 204
3 203 204 205
3 23 206 208
3 206 24 207
3 206 207 208
3 25 24 23
3 25 209 211
3 211 210 24
3 209 210 211
3 25 212 213
3 215 214 25
3 26 27 7
3 216 27 217
3 218 217 26
3 216 217 218
3 220 219 27
3 221 28 222
3 26 223 225
3 223 28 224
3 223 224 225
3 26 7 28
3 226 29 227
3 228 227 10
3 226 227 228
3 229 29 230
3 232 231 29
3 233 12 234
3 236 235 13
3 30 237 238
3 240 239 30
3 31 241 242
3 32 243 245
3 245 244 31
3 243 244 245
3 32 246 247
3 33 248 249
3 33 250 251
3 33 252 254
3 252 34 253
3 252 253 254
3 35 34 33
3 35 15 34
3 35 255 257
3 257 256 15
3 255 256 257
3 36 258 260
3 260 259 35
3 258 259 260
3 36 261 262
3 263 37 264
3 265 264 16
3 263 264 265
3 266 37 267
3 268 18 269
3 270 269 37
3 268 269 270
3 38 271 273
3 273 272 8
3 271 272 273
3 39 274 276
3 276 275 38
3 274 275 276
3 39 277 279
3 277 19 278
3 277 278 279
3 39 40 19
3 280 40 281
3 282 281 39
3 280 281 282
3 284 283 40
3 41 42 9
3 285 42 286
3 287 286 41
3 285 286 287
3 288 20 289
3 290 289 42
3 288 289 290
3 292 291 20
3 293 16 294
3 43 44 17
3 45 44 43
3 45 21 44
3 46 47 11
3 48 47 46
3 48 295 297
3 297 296 47
3 295 296 297
3 48 298 299
3 301 300 48
3 49 50 14
3 302 50 303
3 304 303 49
3 302 303 304
3 306 305 50
3 51 307 308
3 51 309 310
3 51 311 313
3 311 30 312
3 311 312 313
3 52 30 51
3 52 314 316
3 316 315 30
3 314 315 316
3 318 317 2
3 53 319 320
3 53 321 322
3 24 323 325
3 323 53 324
3 323 324 325
3 54 53 24
3 54 326 328
3 328 327 53
3 326 327 328
3 54 329 330
3 332 331 54
3 333 3 334
3 336 335 3
3 55 337 338
3 340 339 55
3 341 8 342
3 27 343 345
3 345 344 7
3 343 344 345
3 56 346 348
3 348 347 27
3 346 347 348
3 56 349 351
3 349 8 350
3 349 350 351
3 56 38 8
3 352 38 353
3 354 353 56
3 352 353 354
3 356 355 38
3 57 357 358
3 57 359 361
3 359 9 360
3 359 360 361
3 28 362 364
3 362 57 363
3 362 363 364
3 58 57 28
3 58 9 57
3 58 41 9
3 55 41 58
3 55 365 367
3 367 366 41
3 365 366 367
3 59 60 4
3 61 60 59
3 61 11 60
3 29 61 10
3 62 61 29
3 62 11 61
3 62 46 11
3 63 46 62
3 63 5 46
3 64 368 369
3 64 370 371
3 372 64 373
3 374 373 13
3 372 373 374
3 375 64 376
3 378 377 64
3 380 379 1
3 381 1 382
3 65 383 384
3 65 385 387
3 385 14 386
3 385 386 387
3 388 65 389
3 390 65 391
3 392 14 393
3 394 393 65
3 392 393 394
3 395 49 396
3 397 396 14
3 395 396 397
3 398 49 399
3 401 400 49
3 402 32 403
3 404 403 2
3 402 403 404
3 405 32 406
3 408 407 32
3 409 13 410
3 34 411 412
3 66 413 415
3 415 414 34
3 413 414 415
3 66 416 418
3 416 13 417
3 416 417 418
3 66 419 421
3 421 420 13
3 419 420 421
3 423 422 66
3 425 424 15
3 426 36 427
3 428 427 3
3 426 427 428
3 429 36 430
3 432 431 36
3 67 68 0
3 69 68 67
3 69 17 68
3 37 69 16
3 70 69 37
3 70 17 69
3 70 43 17
3 71 43 70
3 71 4 43
3 433 18 434
3 436 435 8
3 72 437 438
3 72 439 441
3 439 18 440
3 439 440 441
3 72 71 18
3 442 71 443
3 444 443 72
3 442 443 444
3 445 4 446
3 447 446 71
3 445 446 447
3 448 59 449
3 450 449 4
3 448 449 450
3 73 451 453
3 451 59 452
3 451 452 453
3 73 10 59
3 40 73 19
3 454 73 455
3 456 455 40
3 454 455 456
3 457 10 458
3 459 458 73
3 457 458 459
3 461 460 10
3 463 462 1
3 464 31 465
3 466 31 467
3 468 2 469
3 470 469 31
3 468 469 470
3 42 471 473
3 473 472 9
3 471 472 473
3 74 474 476
3 476 475 42
3 474 475 476
3 74 477 478
3 74 479 480
3 75 481 483
3 483 482 74
3 481 482 483
3 75 484 486
3 484 2 485
3 484 485 486
3 75 487 489
3 489 488 2
3 487 488 489
3 491 490 75
3 493 492 20
3 76 494 495
3 76 496 497
3 76 498 500
3 498 23 499
3 498 499 500
3 67 23 76
3 67 0 23
3 68 22 0
3 77 22 68
3 77 6 22
3 44 77 17
3 78 77 44
3 78 6 77
3 78 52 6
3 79 52 78
3 79 501 503
3 503 502 52
3 501 502 503
3 60 45 4
3 80 45 60
3 80 21 45
3 47 80 11
3 81 80 47
3 81 21 80
3 81 79 21
3 82 79 81
3 82 504 506
3 506 505 79
3 504 505 506
3 82 507 508
3 510 509 82
3 511 63 512
3 83 513 515
3 513 63 514
3 513 514 515
3 83 5 63
3 516 83 517
3 84 518 520
3 518 83 519
3 518 519 520
3 84 5 83
3 84 521 523
3 523 522 5
3 521 522 523
3 525 524 84
3 85 526 527
3 85 528 530
3 528 12 529
3 528 529 530
3 50 85 14
3 86 85 50
3 86 12 85
3 86 531 533
3 533 532 12
3 531 532 533
3 535 534 86
