ply
format ascii 1.0
element vertex 212
property float x
property float y
property float z
element face 205
property list uchar int vertex_index
end_header
-4.675161 21.324471 78.425797
-0.890516 8.181854 79.688126
-0.205475 23.360756 73.240486
-1.136738 30.453659 72.256348
-1.859529 22.81654 76.610054
0.369465 8.622175 75.87381
-5.469549 13.315411 81.313812
-2.578178 14.970043 79.915504
-3.083195 7.193428 82.28566
0.021446 30.424747 68.301376
0.191704 23.027874 68.587082
-0.53882 15.855846 77.029831
0.338535 16.038887 72.850494
0.180756 15.619873 67.837616
-6.343391 20.23608 78.755959
-2.69627 26.142788 75.806877
-3.150236 22.188137 77.714264
-7.215523 8.269896 82.488281
-7.043369 12.198225 81.437607
-5.713772 9.382927 82.448769
-4.241467 10.31221 82.016167
-0.612364 26.94619 72.915619
-0.384563 30.575928 70.454956
-0.077536 26.958481 70.901672
0.138668 26.734192 68.578629
0.135246 23.294624 71.041611
-1.680738 11.621864 80.0158
-1.422209 15.506302 78.651962
-0.723097 12.019156 78.483772
0.606667 8.68108 73.625504
0.368328 12.365236 74.510956
0.503937 12.341396 72.172646
0.366461 15.898632 70.410263
0.404577 12.199747 69.689095
-2.239527 30.041473 73.661583
-1.489496 26.677261 74.560791
-0.868111 23.205845 75.112137
-0.130316 8.461107 77.912521
-8.382582 14.890739 80.042938
-6.746677 16.194401 80.198616
-5.114399 17.304592 79.978485
-3.578548 18.20948 79.378067
-3.952642 14.240437 80.805138
-2.872986 11.056519 81.20015
-1.88867 7.765524 81.157364
0.092123 33.755703 65.481308
0.120201 30.02948 65.868874
0.088596 26.301991 66.030029
0.024481 22.584965 65.965126
-2.230358 18.902145 78.393158
-1.143301 19.380806 77.024498
-0.361357 19.649582 75.286865
-0.036352 12.262129 76.634193
0.046724 16.029083 75.079506
0.105345 19.718555 73.216354
0.277884 19.6026 70.872345
0.20249 19.319183 68.333023
-5.266412 22.811186 77.766411
-6.100528 22.26699 77.931492
-5.509276 20.780276 78.590878
-4.427895 23.334992 77.538292
-5.266412 22.811186 77.766411
-3.912699 21.756304 78.070031
-3.665433 23.766824 77.182525
-4.427895 23.334992 77.538292
-6.522296 6.898892 82.950913
-7.236708 6.348994 82.934845
-5.77142 7.455408 82.931157
-6.464647 8.826411 82.468525
-6.522296 6.898892 82.950913
-5.06575 7.91663 82.74683
-5.77142 7.455408 82.931157
0.551376 10.494875 71.701321
0.555302 10.511238 72.899075
0.60274 8.664718 72.42775
0.501695 10.424051 70.459545
0.454257 12.270571 70.93087
0.551376 10.494875 71.701321
0.393192 10.363402 69.221562
0.501695 10.424051 70.459545
-2.94818 29.68943 74.159775
-2.682256 31.656879 73.059994
-8.488605 12.89486 80.609745
-9.163963 14.151207 79.781178
-0.974241 32.288981 70.98803
-1.46676 32.155803 71.775017
-0.08373 32.253061 68.032021
-0.286735 32.328651 69.108811
-0.181558 30.500338 69.378166
0.056785 32.090225 66.891342
-0.048391 33.918539 66.621986
-0.08373 32.253061 68.032021
0.062136 17.252714 66.761536
0.073003 19.102369 67.009239
0.191623 17.469528 68.085319
0.013726 15.415125 66.525364
-0.104895 17.047966 65.449284
0.062136 17.252714 66.761536
-6.983622 21.62736 77.975468
-7.198654 19.587137 78.736347
-6.983622 21.62736 77.975468
-6.100528 22.26699 77.931492
-3.43845 25.74415 76.228832
-3.176551 27.740088 75.232422
-2.923253 24.165463 76.760571
-3.43845 25.74415 76.228832
-3.665433 23.766824 77.182525
-7.949891 7.627064 82.312138
-7.236708 6.348994 82.934845
-7.905076 9.584438 81.832416
-7.949891 7.627064 82.312138
-7.129446 10.234061 81.962944
-7.818999 11.548603 81.30708
-7.905076 9.584438 81.832416
-4.329598 8.381272 82.530529
-4.977619 9.847569 82.232468
-5.06575 7.91663 82.74683
-3.750462 6.82188 82.665276
-3.662331 8.752819 82.150914
-4.329598 8.381272 82.530529
0.263205 12.071781 68.411641
0.151295 13.781844 67.485901
0.292666 13.90981 68.763355
0.263205 12.071781 68.411641
0.393192 10.363402 69.221562
-2.018155 31.949711 72.477634
-2.682256 31.656879 73.059994
-1.688133 30.247566 72.958966
-1.46676 32.155803 71.775017
-2.018155 31.949711 72.477634
-2.467898 28.09213 74.73423
-2.94818 29.68943 74.159775
-3.176551 27.740088 75.232422
-0.171529 6.565603 78.441597
-0.510416 8.32148 78.800323
-0.551629 6.425976 79.329399
0.111807 6.658544 77.450294
-0.171529 6.565603 78.441597
0.070594 4.763039 77.979371
0.361698 6.739078 76.430939
0.119575 8.541641 76.893166
0.111807 6.658544 77.450294
0.522097 6.792079 75.339802
0.361698 6.739078 76.430939
0.640699 6.821531 74.215649
0.488066 8.651628 74.749657
0.522097 6.792079 75.339802
0.679535 6.842301 73.053818
0.640699 6.821531 74.215649
0.713566 4.982753 73.643963
0.60274 8.664718 72.42775
0.679535 6.842301 73.053818
-9.04849 16.170561 79.180924
-9.163963 14.151207 79.781178
-8.218249 16.914466 79.379837
-9.04849 16.170561 79.180924
-7.712975 13.544482 80.740273
-8.488605 12.89486 80.609745
-7.818999 11.548603 81.30708
-7.400297 17.566297 79.457676
-8.218249 16.914466 79.379837
-7.564629 15.54257 80.120777
-6.545034 18.215241 79.477288
-7.198654 19.587137 78.736347
-7.400297 17.566297 79.457676
-3.133185 5.299011 82.753197
-3.750462 6.82188 82.665276
-2.549427 5.580996 82.208408
-3.133185 5.299011 82.753197
-1.952164 5.867044 81.644261
-2.485933 7.479476 81.721512
-2.549427 5.580996 82.208408
-1.450322 6.074034 80.929028
-1.952164 5.867044 81.644261
-0.951245 6.282199 80.194409
-1.389593 7.973689 80.422745
-1.450322 6.074034 80.929028
-0.551629 6.425976 79.329399
-0.951245 6.282199 80.194409
-0.598154 32.350115 70.087333
-0.974241 32.288981 70.98803
-0.760651 30.514793 71.355652
-0.598154 32.350115 70.087333
-0.286735 32.328651 69.108811
0.031955 35.608446 65.178314
-0.048391 33.918539 66.621986
0.113119 35.357738 63.982666
0.031955 35.608446 65.178314
0.087692 33.471487 64.221008
0.113119 35.357738 63.982666
0.101731 31.608376 64.414792
0.087692 33.471487 64.221008
0.106162 31.892591 65.675091
0.048226 29.728952 64.559641
0.101731 31.608376 64.414792
0.032423 27.865208 64.640219
0.048226 29.728952 64.559641
0.104399 28.165736 65.949452
-0.033448 25.998461 64.690666
0.032423 27.865208 64.640219
-0.065506 24.139948 64.658214
-0.033448 25.998461 64.690666
0.056538 24.443478 65.997578
-0.133138 22.287863 64.616718
-0.065506 24.139948 64.658214
-0.016002 20.73526 65.82529
0.113486 20.952074 67.149074
0.073003 19.102369 67.009239
-0.133138 22.287863 64.616718
-0.016002 20.73526 65.82529
0.013726 15.415125 66.525364
0.151295 13.781844 67.485901
3 0 57 59
3 59 58 14
3 57 58 59
3 0 60 61
3 0 62 64
3 62 16 63
3 62 63 64
3 65 17 66
3 67 19 68
3 69 68 17
3 67 68 69
3 71 70 19
3 2 23 21
3 2 25 23
3 1 28 26
3 72 31 73
3 74 73 29
3 72 73 74
3 75 33 76
3 77 76 31
3 75 76 77
3 79 78 33
3 80 34 81
3 4 35 15
3 4 36 35
3 82 38 83
3 6 39 18
3 6 40 39
3 6 42 40
3 8 43 20
3 8 44 43
3 3 84 85
3 9 86 88
3 88 87 22
3 86 87 88
3 9 89 91
3 89 45 90
3 89 90 91
3 9 46 45
3 10 47 24
3 10 48 47
3 7 49 41
3 11 50 27
3 11 51 50
3 5 52 37
3 12 53 30
3 12 54 53
3 12 55 54
3 13 56 32
3 13 92 94
3 94 93 56
3 92 93 94
3 13 95 97
3 95 96 97
3 14 98 99
3 101 100 14
3 102 15 103
3 16 104 106
3 104 15 105
3 104 105 106
3 16 4 15
3 17 107 108
3 17 109 110
3 17 111 113
3 111 18 112
3 111 112 113
3 19 18 17
3 19 6 18
3 19 20 6
3 114 20 115
3 116 115 19
3 114 115 116
3 117 8 118
3 119 118 20
3 117 118 119
3 21 22 3
3 23 22 21
3 23 9 22
3 23 24 9
3 25 24 23
3 25 10 24
3 26 27 7
3 28 27 26
3 28 11 27
3 29 30 5
3 31 30 29
3 31 12 30
3 31 32 12
3 33 32 31
3 33 13 32
3 33 120 122
3 122 121 13
3 120 121 122
3 124 123 33
3 34 125 126
3 34 127 129
3 127 3 128
3 127 128 129
3 15 130 132
3 130 34 131
3 130 131 132
3 35 34 15
3 35 3 34
3 35 21 3
3 36 21 35
3 36 2 21
3 133 37 134
3 135 134 1
3 133 134 135
3 136 37 137
3 136 137 138
3 139 5 140
3 141 140 37
3 139 140 141
3 142 5 143
3 144 29 145
3 146 145 5
3 144 145 146
3 147 29 148
3 147 148 149
3 151 150 29
3 38 152 153
3 38 154 155
3 18 156 158
3 156 38 157
3 156 157 158
3 39 38 18
3 39 159 161
3 161 160 38
3 159 160 161
3 39 162 164
3 162 14 163
3 162 163 164
3 40 14 39
3 40 0 14
3 40 41 0
3 42 41 40
3 42 7 41
3 20 42 6
3 43 42 20
3 43 7 42
3 43 26 7
3 44 26 43
3 44 1 26
3 165 8 166
3 167 8 168
3 169 44 170
3 171 170 8
3 169 170 171
3 172 44 173
3 174 1 175
3 176 175 44
3 174 175 176
3 178 177 1
3 22 179 181
3 181 180 3
3 179 180 181
3 183 182 22
3 45 184 185
3 45 186 187
3 45 188 189
3 46 190 192
3 192 191 45
3 190 191 192
3 46 193 194
3 24 46 9
3 47 46 24
3 47 195 197
3 197 196 46
3 195 196 197
3 47 198 199
3 48 200 202
3 202 201 47
3 200 201 202
3 48 203 204
3 41 16 0
3 49 16 41
3 49 4 16
3 27 49 7
3 50 49 27
3 50 4 49
3 50 36 4
3 51 36 50
3 51 2 36
3 37 28 1
3 52 28 37
3 52 11 28
3 30 52 5
3 53 52 30
3 53 11 52
3 53 51 11
3 54 51 53
3 54 2 51
3 54 25 2
3 55 25 54
3 55 10 25
3 32 55 12
3 56 55 32
3 56 10 55
3 56 48 10
3 205 48 206
3 207 206 56
3 205 206 207
3 209 208 48
3 211 210 13
