ply
format ascii 1.0
element vertex 93
property float x
property float y
property float z
element face 73
property list uchar int vertex_index
end_header
66.415741 -9.123349 -37.322098
63.918472 -1.88969 -39.938835
68.426849 -16.695812 -34.375946
66.783615 -10.807759 -35.024651
65.713364 -7.188378 -36.340385
65.214218 -5.460441 -38.701408
64.331848 -3.91384 -41.070183
65.667274 -7.610375 -39.645424
68.633995 -18.249666 -32.239899
62.557957 1.572666 -40.984238
62.882423 -0.324629 -42.340576
67.763847 -14.496752 -33.638641
67.494293 -12.870119 -35.86013
66.854019 -11.40379 -38.123299
63.65712 -1.042631 -39.234905
64.247456 -2.76793 -38.73265
63.238214 -0.158512 -40.461536
62.976862 0.688547 -39.757606
63.65712 -1.042631 -39.234905
63.825138 -4.415353 -42.711796
63.710155 -3.235718 -42.25367
64.446831 -5.093475 -41.528309
68.145527 -15.99217 -35.470222
67.679248 -14.079324 -36.212314
67.960571 -14.782965 -35.118038
66.423527 -12.062814 -39.611981
66.361817 -10.751289 -39.272583
66.915729 -12.715316 -38.462696
66.310981 -9.941731 -34.508252
66.780201 -11.726176 -33.890301
65.775856 -8.13204 -35.166118
66.310981 -9.941731 -34.508252
66.24849 -8.998069 -35.682518
65.289822 -6.378408 -35.725128
65.775856 -8.13204 -35.166118
65.144902 -5.417274 -36.933425
65.289822 -6.378408 -35.725128
64.895329 -4.553306 -38.113937
65.144902 -5.417274 -36.933425
65.463791 -6.324409 -37.520896
64.566345 -3.675066 -39.320121
64.247456 -2.76793 -38.73265
64.895329 -4.553306 -38.113937
65.114543 -6.941743 -40.815929
64.446831 -5.093475 -41.528309
64.999561 -5.762107 -40.357804
69.006637 -20.153731 -31.557216
68.555961 -19.092574 -31.196511
68.916615 -19.421664 -32.581093
69.006637 -20.153731 -31.557216
68.813041 -18.644737 -33.649116
68.530422 -17.472739 -33.307923
68.916615 -19.421664 -32.581093
68.554138 -17.977483 -34.700783
68.813041 -18.644737 -33.649116
62.373761 2.355061 -40.1506
62.976862 0.688547 -39.757606
61.858122 3.235591 -41.393356
62.373761 2.355061 -40.1506
61.956259 2.355447 -42.19677
61.858122 3.235591 -41.393356
62.118492 1.406799 -42.874939
61.956259 2.355447 -42.19677
62.72019 0.624018 -41.662407
62.186363 0.354742 -43.530529
62.118492 1.406799 -42.874939
62.985443 -1.441113 -42.888866
63.607135 -2.119235 -41.705379
63.710155 -3.235718 -42.25367
62.186363 0.354742 -43.530529
62.985443 -1.441113 -42.888866
68.148395 -17.258306 -31.849519
68.555961 -19.092574 -31.196511
67.713322 -15.381849 -32.54889
68.148395 -17.258306 -31.849519
68.198921 -16.373209 -32.93927
67.270317 -13.570672 -33.197296
67.713322 -15.381849 -32.54889
67.273731 -12.652256 -34.331646
66.780201 -11.726176 -33.890301
67.270317 -13.570672 -33.197296
67.359111 -13.346159 -37.343899
67.174156 -12.136955 -36.991715
67.679248 -14.079324 -36.212314
66.915729 -12.715316 -38.462696
67.359111 -13.346159 -37.343899
68.145527 -15.99217 -35.470222
68.554138 -17.977483 -34.700783
65.768444 -8.854581 -40.033645
66.260647 -9.507083 -38.884361
66.361817 -10.751289 -39.272583
65.114543 -6.941743 -40.815929
65.768444 -8.854581 -40.033645
3 0 4 3
3 0 5 4
3 0 7 5
3 1 14 15
3 1 16 18
3 16 9 17
3 16 17 18
3 1 10 9
3 21 20 6
3 19 20 21
3 2 11 8
3 2 12 11
3 2 22 24
3 24 23 12
3 22 23 24
3 27 26 13
3 25 26 27
3 3 28 29
3 4 30 32
3 32 31 3
3 30 31 32
3 4 33 34
3 4 35 36
3 5 37 39
3 39 38 4
3 37 38 39
3 5 40 42
3 40 1 41
3 40 41 42
3 5 6 1
3 7 6 5
3 7 43 45
3 45 44 6
3 43 44 45
3 46 8 47
3 48 8 49
3 50 2 51
3 52 51 8
3 50 51 52
3 54 53 2
3 9 55 56
3 9 57 58
3 9 59 60
3 10 61 63
3 63 62 9
3 61 62 63
3 10 64 65
3 6 10 1
3 66 10 67
3 68 67 6
3 66 67 68
3 70 69 10
3 8 71 72
3 11 73 75
3 75 74 8
3 73 74 75
3 11 76 77
3 11 78 80
3 78 3 79
3 78 79 80
3 12 3 11
3 12 0 3
3 12 13 0
3 81 13 82
3 83 82 12
3 81 82 83
3 85 84 13
3 87 86 2
3 13 7 0
3 88 7 89
3 90 89 13
3 88 89 90
3 92 91 7
