ply
format ascii 1.0
element vertex 227
property float x
property float y
property float z
element face 196
property list uchar int vertex_index
end_header
-54.715004 -74.522293 -20.293007
-56.959625 -79.001694 -7.084108
-55.633617 -62.564529 -28.156464
-59.375809 -75.505219 -11.313135
-53.947174 -79.346909 -16.732754
-51.841789 -63.070328 -29.403946
-55.129444 -81.096375 -10.372124
-56.903885 -77.398956 -14.241854
-58.142891 -73.043076 -18.183308
-58.930531 -67.907143 -22.325527
-55.274654 -68.886276 -24.130878
-54.363419 -77.036385 -18.480682
-52.645798 -77.898155 -19.552074
-52.921951 -75.236176 -21.277493
-56.107723 -80.01844 -8.770384
-60.340347 -73.53846 -13.438522
-58.209698 -76.442146 -12.839762
-59.035027 -74.429932 -14.88414
-57.588253 -75.314026 -16.191601
-59.703438 -72.241104 -16.961853
-57.600967 -59.054783 -29.53035
-57.5168 -62.322617 -27.436813
-57.358856 -65.457703 -25.342621
-55.483002 -65.796738 -26.131664
-53.405743 -69.320343 -24.95237
-53.597275 -66.115463 -26.869591
-61.477928 -72.658173 -11.864937
-53.446156 -81.468414 -15.02496
-57.610741 -55.68581 -31.601833
-55.719139 -59.224464 -30.179157
-53.736885 -62.792976 -28.805786
-57.226341 -78.296684 -10.80929
-56.080727 -79.317551 -12.311308
-54.817009 -80.375046 -13.708483
-55.47686 -78.36676 -15.528709
-56.022202 -76.181183 -17.377365
-56.468887 -73.800034 -19.279011
-57.654297 -78.043266 -5.337376
-58.585205 -70.574875 -20.228634
-56.834602 -71.215263 -21.244831
-59.18697 -65.046776 -24.459953
-57.130463 -68.429817 -23.271229
-55.017147 -71.802162 -22.178589
-53.176506 -72.370636 -23.081158
-51.725826 -66.472252 -27.581318
-56.533674 -79.510067 -7.927246
-55.505148 -80.826458 -7.736982
-55.931099 -80.318085 -6.893844
-60.079664 -72.916245 -15.238137
-59.687687 -73.984196 -14.161331
-60.732325 -72.470508 -14.515328
-60.41387 -71.821831 -16.276993
-59.369232 -73.335518 -15.922996
-60.079664 -72.916245 -15.238137
-62.455315 -71.18436 -12.158355
-61.943556 -72.232193 -11.031
-61.928612 -71.604149 -12.971876
-62.455315 -71.18436 -12.158355
-52.964005 -80.975845 -16.516498
-52.713496 -82.036598 -15.662601
-53.696665 -80.407661 -15.878857
-56.673164 -55.747305 -31.888197
-57.578899 -53.96434 -32.617344
-55.727363 -57.516632 -31.176859
-56.66494 -57.455137 -30.890495
-56.673164 -55.747305 -31.888197
-54.766452 -59.307285 -30.455773
-55.727363 -57.516632 -31.176859
-54.14908 -82.532974 -10.197925
-54.607959 -81.930668 -9.385301
-54.585001 -81.664422 -11.128207
-54.14908 -82.532974 -10.197925
-58.301075 -76.900951 -11.061212
-57.732056 -77.807873 -10.004963
-58.806789 -76.41214 -10.256885
-57.900596 -77.584938 -4.452377
-56.898623 -78.81136 -4.248727
-58.691784 -76.773773 -5.550676
-57.900596 -77.584938 -4.452377
-58.757868 -69.241009 -21.277081
-59.609562 -68.934089 -20.738028
-59.782225 -67.600223 -21.786474
-59.271677 -63.52832 -25.535483
-60.151834 -63.316698 -25.050371
-52.377947 -71.142288 -24.471098
-52.480788 -69.552101 -25.359699
-53.351132 -78.693928 -18.190432
-53.143009 -79.84919 -17.316468
-54.155296 -78.191647 -17.606718
-52.492321 -79.124813 -18.726128
-53.351132 -78.693928 -18.190432
-53.504609 -77.46727 -19.016378
-51.662892 -79.648201 -19.313723
-52.492321 -79.124813 -18.726128
-51.775528 -78.345104 -20.093998
-51.662892 -79.648201 -19.313723
-51.913605 -77.014115 -20.956707
-51.775528 -78.345104 -20.093998
-52.783874 -76.567166 -20.414783
-52.025341 -75.606141 -21.775917
-51.913605 -77.014115 -20.956707
-55.097099 -81.3917 -8.584431
-55.505148 -80.826458 -7.736982
-55.618583 -80.557407 -9.571254
-54.607959 -81.930668 -9.385301
-55.097099 -81.3917 -8.584431
-59.928911 -66.219143 -22.882809
-59.782225 -67.600223 -21.786474
-58.519891 -58.937591 -29.143671
-58.518715 -57.28087 -30.205074
-58.477808 -60.571509 -28.096902
-58.519891 -58.937591 -29.143671
-57.558884 -60.6887 -28.483581
-58.436592 -62.166241 -27.023913
-58.477808 -60.571509 -28.096902
-57.437828 -63.89016 -26.389717
-58.35762 -63.733784 -25.976816
-58.436592 -62.166241 -27.023913
-52.576554 -67.949661 -26.31831
-52.480788 -69.552101 -25.359699
-53.501509 -67.717903 -25.910981
-50.855835 -64.994873 -28.832971
-50.892319 -63.260418 -29.673998
-57.598698 -78.160378 -8.142372
-58.023075 -77.695847 -7.295127
-59.875521 -75.052987 -10.49548
-58.806789 -76.41214 -10.256885
-60.926581 -73.629463 -10.771382
-61.943556 -72.232193 -11.031
-60.426868 -74.081696 -11.589036
-59.875521 -75.052987 -10.49548
-60.926581 -73.629463 -10.771382
-61.359821 -72.044292 -13.758669
-60.909137 -73.098317 -12.65173
-61.928612 -71.604149 -12.971876
-60.732325 -72.470508 -14.515328
-61.359821 -72.044292 -13.758669
-52.497786 -83.073433 -14.870934
-53.146353 -82.446854 -14.173573
-52.497786 -83.073433 -14.870934
-52.713496 -82.036598 -15.662601
-52.964005 -80.975845 -16.516498
-53.143009 -79.84919 -17.316468
-58.482355 -53.891817 -32.284111
-57.578899 -53.96434 -32.617344
-58.523601 -55.596384 -31.240816
-58.482355 -53.891817 -32.284111
-57.605854 -57.370296 -30.566091
-58.518715 -57.28087 -30.205074
-58.523601 -55.596384 -31.240816
-53.775326 -61.091541 -29.769087
-54.728012 -61.00872 -29.492472
-54.766452 -59.307285 -30.455773
-52.827777 -61.230217 -30.068167
-52.789337 -62.931652 -29.104866
-53.775326 -61.091541 -29.769087
-51.866684 -61.342759 -30.304722
-52.827777 -61.230217 -30.068167
-50.892319 -63.260418 -29.673998
-51.866684 -61.342759 -30.304722
-57.172747 -78.668751 -8.98551
-56.533674 -79.510067 -7.927246
-57.598698 -78.160378 -8.142372
-56.667032 -79.157562 -9.789837
-57.172747 -78.668751 -8.98551
-57.732056 -77.807873 -10.004963
-55.060643 -80.775009 -12.097798
-54.585001 -81.664422 -11.128207
-55.605086 -80.206963 -11.341716
-54.428783 -81.303757 -12.796386
-55.060643 -80.775009 -12.097798
-55.448868 -79.846298 -13.009895
-53.831779 -81.90017 -13.515334
-54.428783 -81.303757 -12.796386
-54.131583 -80.92173 -14.366722
-53.146353 -82.446854 -14.173573
-53.831779 -81.90017 -13.515334
-56.279442 -79.789066 -6.016635
-55.931099 -80.318085 -6.893844
-56.626778 -79.309853 -5.14327
-56.898623 -78.81136 -4.248727
-57.306961 -78.52248 -6.210742
-56.279442 -79.789066 -6.016635
-56.626778 -79.309853 -5.14327
-58.370411 -77.216633 -6.42176
-58.023075 -77.695847 -7.295127
-57.306961 -78.52248 -6.210742
-58.370411 -77.216633 -6.42176
-58.691784 -76.773773 -5.550676
-60.721699 -70.664299 -17.372196
-60.41387 -71.821831 -16.276993
-59.966888 -71.052498 -18.022686
-60.721699 -70.664299 -17.372196
-59.186615 -71.453484 -18.633413
-58.923164 -72.64209 -17.572581
-59.966888 -71.052498 -18.022686
-59.407772 -70.219384 -19.656076
-59.609562 -68.934089 -20.738028
-58.364048 -71.808976 -19.205971
-59.186615 -71.453484 -18.633413
-59.407772 -70.219384 -19.656076
-60.057131 -64.78896 -23.950021
-60.151834 -63.316698 -25.050371
-59.058751 -66.476959 -23.39274
-59.928911 -66.219143 -22.882809
-60.057131 -64.78896 -23.950021
-58.272913 -65.25224 -24.901287
-59.271677 -63.52832 -25.535483
-58.35762 -63.733784 -25.976816
-52.152619 -74.173371 -22.67775
-52.025341 -75.606141 -21.775917
-53.049228 -73.803406 -22.179325
-52.263329 -72.667434 -23.535492
-53.291125 -70.845489 -24.016764
-52.377947 -71.142288 -24.471098
-52.152619 -74.173371 -22.67775
-52.263329 -72.667434 -23.535492
-51.640829 -68.128056 -26.674174
-52.576554 -67.949661 -26.31831
-52.661551 -66.293858 -27.225454
-50.797854 -66.695835 -27.921658
-51.783807 -64.77129 -28.492632
-50.855835 -64.994873 -28.832971
-50.730097 -68.398441 -27.078076
-50.797854 -66.695835 -27.921658
-51.640829 -68.128056 -26.674174
-50.730097 -68.398441 -27.078076
3 0 12 11
3 0 13 12
3 1 45 47
3 45 14 46
3 45 46 47
3 48 17 49
3 50 49 15
3 48 49 50
3 51 19 52
3 53 52 17
3 51 52 53
3 2 21 20
3 2 23 21
3 2 25 23
3 54 26 55
3 57 56 26
3 4 58 60
3 60 59 27
3 58 59 60
3 61 28 62
3 63 29 64
3 65 64 28
3 63 64 65
3 67 66 29
3 6 68 69
3 6 70 71
3 3 72 74
3 72 31 73
3 72 73 74
3 7 32 16
3 7 33 32
3 7 34 33
3 8 35 18
3 8 36 35
3 75 37 76
3 78 77 37
3 9 79 81
3 79 38 80
3 79 80 81
3 9 39 38
3 82 40 83
3 10 41 22
3 10 42 41
3 10 43 42
3 85 84 24
3 5 44 30
3 11 86 88
3 88 87 4
3 86 87 88
3 12 89 91
3 91 90 11
3 89 90 91
3 12 92 93
3 12 94 95
3 13 96 98
3 98 97 12
3 96 97 98
3 13 99 100
3 14 101 102
3 14 103 105
3 103 6 104
3 103 104 105
3 15 16 3
3 17 16 15
3 17 7 16
3 17 18 7
3 19 18 17
3 19 8 18
3 106 9 107
3 20 108 109
3 21 110 112
3 112 111 20
3 110 111 112
3 21 113 114
3 21 115 117
3 115 22 116
3 115 116 117
3 23 22 21
3 23 10 22
3 23 24 10
3 25 24 23
3 25 118 120
3 120 119 24
3 118 119 120
3 122 121 5
3 124 123 1
3 125 3 126
3 26 127 128
3 26 129 131
3 129 3 130
3 129 130 131
3 26 15 3
3 132 15 133
3 134 133 26
3 132 133 134
3 136 135 15
3 27 137 138
3 140 139 27
3 142 141 4
3 28 143 144
3 28 145 146
3 28 147 149
3 147 20 148
3 147 148 149
3 29 20 28
3 29 2 20
3 29 30 2
3 150 30 151
3 152 151 29
3 150 151 152
3 153 5 154
3 155 154 30
3 153 154 155
3 156 5 157
3 159 158 5
3 160 14 161
3 162 161 1
3 160 161 162
3 31 163 165
3 163 14 164
3 163 164 165
3 31 6 14
3 16 31 3
3 32 31 16
3 32 6 31
3 32 166 168
3 168 167 6
3 166 167 168
3 33 169 171
3 171 170 32
3 169 170 171
3 33 172 173
3 33 174 176
3 174 27 175
3 174 175 176
3 34 27 33
3 34 4 27
3 18 34 7
3 35 34 18
3 35 4 34
3 35 11 4
3 36 11 35
3 36 0 11
3 177 1 178
3 37 179 180
3 37 181 183
3 181 1 182
3 181 182 183
3 37 184 186
3 186 185 1
3 184 185 186
3 188 187 37
3 189 19 190
3 191 19 192
3 193 8 194
3 195 194 19
3 193 194 195
3 38 196 197
3 38 198 200
3 198 8 199
3 198 199 200
3 38 36 8
3 39 36 38
3 39 0 36
3 40 201 202
3 40 203 205
3 203 9 204
3 203 204 205
3 22 206 208
3 206 40 207
3 206 207 208
3 41 40 22
3 41 9 40
3 41 39 9
3 42 39 41
3 42 0 39
3 42 13 0
3 43 13 42
3 43 209 211
3 211 210 13
3 209 210 211
3 24 43 10
3 212 43 213
3 214 213 24
3 212 213 214
3 216 215 43
3 30 25 2
3 44 25 30
3 44 217 219
3 219 218 25
3 217 218 219
3 220 44 221
3 222 221 5
3 220 221 222
3 223 44 224
3 226 225 44
