ply
format ascii 1.0
element vertex 108
property float x
property float y
property float z
element face 91
property list uchar int vertex_index
end_header
4.267363 25.649288 76.407906
2.066057 29.226871 73.437523
2.066851 37.229538 69.799721
4.476078 33.459206 72.987389
7.471426 29.023182 74.92997
3.07486 27.518036 75.077042
3.149996 31.479416 73.413376
4.406029 29.558472 74.784904
9.198818 30.260571 73.669716
7.587233 32.763653 73.057899
9.300785 33.894955 71.700737
1.253292 34.796379 69.69503
2.087353 33.228546 71.719078
3.16984 35.437069 71.561592
4.493647 37.354443 71.019829
5.591736 23.634079 77.452858
5.802938 27.481503 75.856758
7.27578 25.266537 76.660332
9.023312 26.607719 75.513756
5.932035 31.314053 74.099373
5.994701 35.136841 72.186684
3.599544 24.598467 76.476414
4.15783 23.687182 77.127781
3.671111 26.583662 75.742474
3.003293 25.532841 75.810982
3.599544 24.598467 76.476414
10.108973 32.542187 71.909477
9.249802 32.077763 72.685226
10.05799 30.724995 72.893967
2.076705 31.227708 72.5783
1.681473 31.99809 71.600216
1.670825 29.997253 72.459439
1.659816 27.982599 73.24377
2.027346 27.223968 74.192928
1.670825 29.997253 72.459439
1.659816 27.982599 73.24377
1.634961 38.02759 68.748406
1.228181 36.811011 68.69606
1.660072 36.012958 69.747376
7.130021 23.37669 77.450584
6.433758 24.450308 77.056595
6.287999 22.560461 77.846847
9.772013 25.346548 75.697426
8.889245 24.768943 76.370499
9.89216 27.129203 74.784973
9.772013 25.346548 75.697426
6.287999 22.560461 77.846847
5.439206 21.699227 78.165256
6.818224 35.814112 71.61663
6.790967 33.950247 72.622292
7.614491 34.627518 72.052238
6.002176 37.043503 71.152893
6.818224 35.814112 71.61663
2.531747 26.369551 75.012688
3.003293 25.532841 75.810982
2.570458 28.372453 74.257283
2.027346 27.223968 74.192928
2.531747 26.369551 75.012688
2.044952 39.228513 68.741318
2.609246 38.310516 69.66251
8.471266 35.193169 71.373657
7.614491 34.627518 72.052238
8.444009 33.329304 72.379318
1.264442 32.782007 70.588192
0.985348 33.468298 69.457698
1.670322 34.012462 70.707054
1.264442 32.782007 70.588192
1.681473 31.99809 71.600216
3.16074 37.414282 70.543446
2.609246 38.310516 69.66251
2.618346 36.333303 70.680656
3.822643 38.372969 70.272564
3.16074 37.414282 70.543446
3.831743 36.395756 71.290711
4.485858 39.297848 69.950814
3.822643 38.372969 70.272564
0.957773 35.489437 68.525531
0.985348 33.468298 69.457698
0.957773 35.489437 68.525531
1.228181 36.811011 68.69606
1.634961 38.02759 68.748406
2.044952 39.228513 68.741318
8.015479 24.098352 76.943787
7.130021 23.37669 77.450584
8.149546 25.937128 76.087044
8.015479 24.098352 76.943787
8.889245 24.768943 76.370499
9.979913 28.95563 73.862953
9.111065 28.434145 74.591736
9.89216 27.129203 74.784973
10.05799 30.724995 72.893967
9.979913 28.95563 73.862953
4.820017 22.679577 77.650257
5.439206 21.699227 78.165256
4.92955 24.641683 76.930382
4.15783 23.687182 77.127781
4.820017 22.679577 77.650257
5.251649 38.152304 70.569466
5.244174 36.245642 71.603257
6.002176 37.043503 71.152893
4.485858 39.297848 69.950814
5.251649 38.152304 70.569466
10.155195 34.300961 70.885353
10.108973 32.542187 71.909477
9.325026 35.703684 70.653213
10.155195 34.300961 70.885353
8.471266 35.193169 71.373657
9.325026 35.703684 70.653213
3 0 7 5
3 0 21 22
3 0 23 25
3 23 5 24
3 23 24 25
3 26 10 27
3 28 27 8
3 26 27 28
3 1 29 31
3 29 12 30
3 29 30 31
3 3 13 6
3 3 14 13
3 1 32 33
3 1 34 35
3 2 36 38
3 38 37 11
3 36 37 38
3 39 17 40
3 41 40 15
3 39 40 41
3 42 18 43
3 45 44 18
3 46 15 47
3 4 19 16
3 48 20 49
3 50 49 9
3 48 49 50
3 52 51 20
3 5 6 1
3 7 6 5
3 7 3 6
3 5 53 54
3 5 55 57
3 55 1 56
3 55 56 57
3 59 58 2
3 8 9 4
3 10 9 8
3 10 60 62
3 62 61 9
3 60 61 62
3 63 11 64
3 12 65 67
3 65 11 66
3 65 66 67
3 12 2 11
3 6 12 1
3 13 12 6
3 13 2 12
3 13 68 70
3 70 69 2
3 68 69 70
3 14 71 73
3 73 72 13
3 71 72 73
3 14 74 75
3 11 76 77
3 79 78 11
3 81 80 2
3 15 16 0
3 17 16 15
3 17 4 16
3 82 17 83
3 18 84 86
3 84 17 85
3 84 85 86
3 18 4 17
3 18 8 4
3 87 8 88
3 89 88 18
3 87 88 89
3 91 90 8
3 15 92 93
3 15 94 96
3 94 0 95
3 94 95 96
3 16 7 0
3 19 7 16
3 19 3 7
3 9 19 4
3 20 19 9
3 20 3 19
3 20 14 3
3 97 14 98
3 99 98 20
3 97 98 99
3 101 100 14
3 102 10 103
3 104 10 105
3 107 106 10
