ply
format ascii 1.0
element vertex 101
property float x
property float y
property float z
element face 80
property list uchar int vertex_index
end_header
-52.84655 -83.425293 -13.322186
-50.152321 -85.998672 -16.104721
-51.393353 -86.96434 -9.78533
-52.338844 -80.351471 -17.900181
-54.086475 -82.764961 -8.398478
-52.152725 -85.247513 -11.586397
-50.440536 -88.399063 -11.435965
-51.032887 -86.600235 -13.108406
-51.549416 -84.678452 -14.716908
-51.980835 -82.604782 -16.300243
-50.43755 -83.795654 -17.575947
-52.247051 -85.614624 -8.101744
-53.168716 -83.969574 -10.023726
-54.040558 -82.232468 -11.884289
-49.800125 -88.031158 -14.618708
-52.964005 -80.975845 -16.516498
-52.713496 -82.036598 -15.662601
-50.558768 -82.59695 -18.325659
-51.388197 -82.073563 -17.738064
-51.509415 -80.874859 -18.487776
-49.756241 -83.224148 -18.977156
-49.635024 -84.422852 -18.227444
-50.558768 -82.59695 -18.325659
-52.628591 -84.982018 -7.236891
-51.791292 -86.400536 -7.103333
-54.14908 -82.532974 -10.197925
-53.627595 -83.367267 -9.211102
-54.607959 -81.930668 -9.385301
-54.585001 -81.664422 -11.128207
-53.604637 -83.101021 -10.954007
-54.14908 -82.532974 -10.197925
-50.598772 -88.53093 -9.72881
-51.005106 -87.780617 -8.842192
-49.659145 -90.043914 -11.43654
-49.905899 -89.15963 -12.255131
-53.351132 -78.693928 -18.190432
-53.143009 -79.84919 -17.316468
-52.492321 -79.124813 -18.726128
-53.351132 -78.693928 -18.190432
-51.662892 -79.648201 -19.313723
-51.509415 -80.874859 -18.487776
-52.492321 -79.124813 -18.726128
-54.494524 -82.199719 -7.551029
-53.548304 -83.557186 -7.385258
-55.097099 -81.3917 -8.584431
-54.494524 -82.199719 -7.551029
-55.505148 -80.826458 -7.736982
-54.607959 -81.930668 -9.385301
-55.097099 -81.3917 -8.584431
-50.202075 -88.260216 -13.091352
-49.905899 -89.15963 -12.255131
-50.736711 -87.499649 -12.272185
-49.298716 -87.769867 -16.122874
-49.405929 -86.694344 -16.808481
-52.497786 -83.073433 -14.870934
-52.197983 -84.051873 -14.019547
-53.146353 -82.446854 -14.173573
-51.765125 -83.641617 -15.508575
-52.497786 -83.073433 -14.870934
-52.713496 -82.036598 -15.662601
-52.15984 -81.478127 -17.100212
-52.964005 -80.975845 -16.516498
-53.143009 -79.84919 -17.316468
-49.548544 -85.592835 -17.544094
-49.405929 -86.694344 -16.808481
-50.294936 -84.897163 -16.840334
-49.548544 -85.592835 -17.544094
-49.635024 -84.422852 -18.227444
-51.431955 -87.105759 -8.000399
-50.976196 -87.89167 -7.001988
-51.791292 -86.400536 -7.103333
-51.820202 -86.289482 -8.943537
-51.005106 -87.780617 -8.842192
-51.431955 -87.105759 -8.000399
-53.166763 -84.189793 -8.250111
-52.628591 -84.982018 -7.236891
-53.548304 -83.557186 -7.385258
-55.060643 -80.775009 -12.097798
-54.585001 -81.664422 -11.128207
-54.428783 -81.303757 -12.796386
-55.060643 -80.775009 -12.097798
-53.831779 -81.90017 -13.515334
-53.443554 -82.82888 -12.603238
-54.428783 -81.303757 -12.796386
-53.146353 -82.446854 -14.173573
-53.831779 -81.90017 -13.515334
-50.122364 -89.248291 -10.554128
-50.598772 -88.53093 -9.72881
-50.916944 -87.681702 -10.610647
-50.122364 -89.248291 -10.554128
-49.659145 -90.043914 -11.43654
-49.585694 -88.975678 -13.846502
-50.202075 -88.260216 -13.091352
-50.416506 -87.315697 -13.863557
-49.122618 -88.78611 -15.379867
-49.976223 -87.014915 -15.361715
-49.298716 -87.769867 -16.122874
-48.98214 -89.779022 -14.66887
-49.122618 -88.78611 -15.379867
-49.585694 -88.975678 -13.846502
-48.98214 -89.779022 -14.66887
3 0 7 5
3 15 9 16
3 17 10 18
3 19 18 3
3 17 18 19
3 22 21 10
3 20 21 22
3 23 11 24
3 25 12 26
3 27 26 4
3 25 26 27
3 28 13 29
3 30 29 12
3 28 29 30
3 2 31 32
3 34 33 6
3 1 14 8
3 35 3 36
3 37 3 38
3 41 40 3
3 39 40 41
3 42 4 43
3 44 4 45
3 44 45 46
3 48 47 4
3 5 6 2
3 7 6 5
3 7 49 51
3 51 50 6
3 49 50 51
3 53 52 1
3 54 8 55
3 56 55 0
3 54 55 56
3 9 57 59
3 57 8 58
3 57 58 59
3 9 1 8
3 3 60 62
3 60 9 61
3 60 61 62
3 10 9 3
3 10 1 9
3 10 63 65
3 65 64 1
3 63 64 65
3 67 66 10
3 11 68 70
3 68 69 70
3 11 71 73
3 71 2 72
3 71 72 73
3 4 74 76
3 74 11 75
3 74 75 76
3 12 11 4
3 12 2 11
3 12 5 2
3 13 5 12
3 13 0 5
3 77 13 78
3 79 13 80
3 81 0 82
3 83 82 13
3 81 82 83
3 85 84 0
3 6 86 88
3 88 87 2
3 86 87 88
3 90 89 6
3 8 7 0
3 14 7 8
3 14 91 93
3 93 92 7
3 91 92 93
3 94 14 95
3 96 95 1
3 94 95 96
3 97 14 98
3 100 99 14
