ply
format ascii 1.0
element vertex 180
property float x
property float y
property float z
element face 149
property list uchar int vertex_index
end_header
62.736511 -69.50174 -4.964161
62.992073 -68.947868 -9.191139
66.256828 -63.97575 -8.770992
57.697136 -73.235329 3.177364
61.72897 -69.765411 -0.773264
65.229668 -65.084381 -4.571733
67.573204 -59.381557 -8.28941
58.197426 -73.643333 1.025508
55.337814 -73.897591 7.524544
53.747963 -74.972801 9.787196
62.32703 -69.699219 -2.867985
63.593788 -67.575089 -2.682987
64.21109 -67.273621 -4.771902
67.218163 -61.635082 -8.533081
68.255211 -58.531433 -10.372562
68.233696 -56.29213 -10.092669
62.95369 -69.229019 -7.070457
64.611343 -66.861954 -6.873793
64.800262 -66.409004 -8.992966
59.047077 -71.315918 3.313047
60.963722 -69.665466 1.330733
59.727673 -71.644531 1.172648
60.289524 -71.820694 -0.941565
60.703228 -71.860306 -3.042093
60.953011 -71.801643 -5.141455
61.040337 -71.6996 -7.249268
55.747185 -74.591072 5.264881
64.371124 -65.455383 -2.497681
65.860336 -64.569321 -6.661474
66.568863 -62.333588 -6.443237
66.653557 -60.148705 -6.226215
53.670891 -74.55637 10.976889
54.351856 -74.05677 9.811025
68.475411 -58.102553 -11.424009
67.940502 -59.712809 -10.508627
68.611503 -56.924868 -11.265703
68.475411 -58.102553 -11.424009
59.445124 -72.874108 -1.018943
59.243475 -72.732013 0.041972
58.399074 -73.785427 -0.035407
59.651976 -72.893913 -2.069207
60.496376 -71.8405 -1.991829
59.445124 -72.874108 -1.018943
59.985416 -73.009487 -5.224752
59.91589 -72.953937 -4.172116
60.02908 -72.958466 -6.278659
60.996674 -71.750621 -6.195361
59.985416 -73.009487 -5.224752
54.86174 -75.187977 6.359525
55.5425 -74.244332 6.394712
54.657055 -74.841237 7.489356
55.005337 -75.576496 5.220023
54.86174 -75.187977 6.359525
62.250618 -68.739669 -0.686452
61.867994 -68.689697 0.365546
61.346346 -69.715439 0.278734
65.455418 -64.000494 -4.472755
65.026146 -64.185995 -3.435729
64.800396 -65.269882 -3.534707
67.42263 -58.297973 -8.16575
66.962807 -58.681548 -7.134152
67.113381 -59.765131 -7.257812
67.892215 -55.233237 -9.946479
68.400406 -54.707434 -10.961496
63.89563 -67.467484 -10.159937
62.934662 -68.834171 -10.257689
57.176666 -74.423423 2.041182
57.947281 -73.439331 2.101436
56.926521 -74.219421 3.11711
57.362167 -74.682304 0.95923
57.176666 -74.423423 2.041182
58.399074 -73.785427 -0.035407
57.362167 -74.682304 0.95923
55.146782 -73.519165 8.679699
55.942204 -72.981552 7.567591
54.542889 -74.435196 8.65587
55.146782 -73.519165 8.679699
54.351856 -74.05677 9.811025
53.862129 -75.378841 8.620683
54.657055 -74.841237 7.489356
54.542889 -74.435196 8.65587
67.421978 -61.264633 -9.588886
66.737495 -62.805416 -8.652036
66.941311 -62.434967 -9.707842
67.736687 -60.083258 -9.452821
67.421978 -61.264633 -9.588886
67.940502 -59.712809 -10.508627
68.600746 -55.805216 -11.125757
68.244453 -57.411782 -10.232616
68.611503 -56.924868 -11.265703
68.400406 -54.707434 -10.961496
68.600746 -55.805216 -11.125757
64.799724 -66.198051 -10.060851
63.896168 -67.678436 -9.092052
63.89563 -67.467484 -10.159937
65.615383 -64.894262 -9.946856
64.799724 -66.198051 -10.060851
66.343666 -63.677635 -9.83587
65.528545 -65.192377 -8.881979
65.615383 -64.894262 -9.946856
66.941311 -62.434967 -9.707842
66.343666 -63.677635 -9.83587
60.005399 -70.490692 2.32189
60.515289 -69.526504 2.39267
59.556967 -70.351731 3.383827
59.790999 -72.983269 -3.122434
59.651976 -72.893913 -2.069207
60.828119 -71.830974 -4.091774
59.790999 -72.983269 -3.122434
59.91589 -72.953937 -4.172116
60.030983 -73.004532 -7.335833
60.02908 -72.958466 -6.278659
61.011254 -71.656235 -8.309434
60.030983 -73.004532 -7.335833
60.0019 -72.961167 -8.395999
61.987122 -70.280369 -9.280369
62.016205 -70.323734 -8.220204
61.011254 -71.656235 -8.309434
61.92971 -70.166672 -10.346919
62.934662 -68.834171 -10.257689
61.987122 -70.280369 -9.280369
58.666101 -71.07708 4.400931
59.556967 -70.351731 3.383827
58.091097 -72.01033 4.341877
58.666101 -71.07708 4.400931
57.416127 -72.970035 4.274036
58.372107 -72.275623 3.245205
58.091097 -72.01033 4.341877
56.236466 -73.301166 6.447626
55.942204 -72.981552 7.567591
56.441151 -73.647907 5.317794
56.236466 -73.301166 6.447626
55.5425 -74.244332 6.394712
56.722161 -73.9132 4.221122
57.416127 -72.970035 4.274036
56.441151 -73.647907 5.317794
55.951546 -74.897293 4.160868
56.926521 -74.219421 3.11711
56.722161 -73.9132 4.221122
55.951546 -74.897293 4.160868
55.005337 -75.576496 5.220023
53.088415 -75.489449 10.973616
53.670891 -74.55637 10.976889
53.103392 -75.934024 9.770675
53.088415 -75.489449 10.973616
53.862129 -75.378841 8.620683
53.103392 -75.934024 9.770675
61.37095 -68.663425 1.409113
60.515289 -69.526504 2.39267
61.37095 -68.663425 1.409113
61.867994 -68.689697 0.365546
63.183027 -67.644509 -1.641313
62.250618 -68.739669 -0.686452
62.661379 -68.67025 -1.728125
63.571695 -66.584655 -1.54866
63.183027 -67.644509 -1.641313
63.982456 -66.515236 -2.590334
63.84124 -65.546493 -1.465333
63.571695 -66.584655 -1.54866
64.474395 -64.391171 -2.409488
63.84124 -65.546493 -1.465333
64.474395 -64.391171 -2.409488
65.026146 -64.185995 -3.435729
66.125015 -62.625097 -5.408507
65.455418 -64.000494 -4.472755
65.899265 -63.708984 -5.507485
66.167362 -61.532656 -5.299996
66.125015 -62.625097 -5.408507
66.61121 -61.241146 -6.334726
66.08564 -60.458509 -5.203855
66.167362 -61.532656 -5.299996
66.379944 -59.083057 -6.116048
66.08564 -60.458509 -5.203855
66.379944 -59.083057 -6.116048
66.962807 -58.681548 -7.134152
67.752876 -56.75326 -9.067379
67.42263 -58.297973 -8.16575
67.90345 -57.836844 -9.19104
67.752876 -56.75326 -9.067379
67.892215 -55.233237 -9.946479
3 31 9 32
3 0 12 10
3 33 14 34
3 36 35 14
3 1 18 16
3 3 21 19
3 37 22 38
3 39 38 7
3 37 38 39
3 40 23 41
3 42 41 22
3 40 41 42
3 43 24 44
3 45 25 46
3 47 46 24
3 45 46 47
3 48 26 49
3 50 49 8
3 48 49 50
3 52 51 26
3 4 53 55
3 55 54 20
3 53 54 55
3 5 27 11
3 5 56 58
3 58 57 27
3 56 57 58
3 2 28 17
3 6 29 13
3 6 30 29
3 6 59 61
3 61 60 30
3 59 60 61
3 63 62 15
3 65 64 1
3 66 7 67
3 68 67 3
3 66 67 68
3 69 7 70
3 72 71 7
3 73 8 74
3 9 75 77
3 75 8 76
3 75 76 77
3 9 78 80
3 80 79 8
3 78 79 80
3 10 11 4
3 12 11 10
3 12 5 11
3 81 13 82
3 83 82 2
3 81 82 83
3 14 84 86
3 84 13 85
3 84 85 86
3 14 6 13
3 14 15 6
3 87 15 88
3 89 88 14
3 87 88 89
3 91 90 15
3 16 17 0
3 18 17 16
3 18 2 17
3 92 18 93
3 94 93 1
3 92 93 94
3 95 18 96
3 97 2 98
3 99 98 18
3 97 98 99
3 101 100 2
3 19 102 104
3 102 20 103
3 102 103 104
3 21 20 19
3 21 4 20
3 7 21 3
3 22 21 7
3 22 4 21
3 22 10 4
3 23 10 22
3 23 0 10
3 105 23 106
3 24 107 109
3 107 23 108
3 107 108 109
3 24 0 23
3 24 16 0
3 25 16 24
3 25 1 16
3 110 25 111
3 112 25 113
3 112 113 114
3 115 1 116
3 117 116 25
3 115 116 117
3 120 119 1
3 118 119 120
3 121 19 122
3 123 19 124
3 125 3 126
3 127 126 19
3 125 126 127
3 8 128 129
3 26 130 132
3 132 131 8
3 130 131 132
3 26 133 135
3 133 3 134
3 133 134 135
3 26 136 138
3 138 137 3
3 136 137 138
3 140 139 26
3 141 9 142
3 143 9 144
3 146 145 9
3 20 147 148
3 150 149 20
3 11 151 153
3 153 152 4
3 151 152 153
3 27 154 156
3 156 155 11
3 154 155 156
3 27 157 158
3 27 159 160
3 162 161 27
3 17 12 0
3 28 12 17
3 28 5 12
3 13 28 2
3 29 28 13
3 29 5 28
3 29 163 165
3 165 164 5
3 163 164 165
3 30 166 168
3 168 167 29
3 166 167 168
3 30 169 170
3 30 171 172
3 174 173 30
3 15 175 177
3 177 176 6
3 175 176 177
3 179 178 15
