ply
format ascii 1.0
element vertex 468
property float x
property float y
property float z
element face 421
property list uchar int vertex_index
end_header
-52.61248 -1.717314 -19.98835
-38.96447 10.508842 -16.933002
-33.726894 17.953491 -30.275623
-37.710556 15.284595 -24.606236
-45.10107 0.935953 -20.564217
-44.213547 9.104225 -29.549736
-43.700638 -6.905521 -11.4102
-59.166969 2.298342 -22.10582
-41.847797 4.745193 -19.053162
-45.063114 5.126181 -25.107212
-41.74395 8.081278 -23.293098
-35.986618 17.037182 -27.811638
-40.819466 -1.484697 -10.242615
-36.348984 17.669495 -15.128487
-38.698368 12.994392 -20.918373
-48.752422 -1.011925 -20.881912
-52.497681 3.703716 -25.064808
-48.703331 3.93075 -25.706257
-40.88554 11.225382 -27.286137
-48.133499 -5.854087 -16.156614
-44.575981 -3.137569 -15.998495
-41.454166 1.512341 -14.682423
-38.733177 8.069372 -12.760927
-31.199982 17.934399 -31.771511
-54.97654 8.619848 -29.304134
-54.537064 0.893192 -21.784168
-40.367569 7.402119 -18.015003
-41.875835 6.414776 -21.194759
-40.3605 8.859388 -20.092018
-34.906254 17.612095 -29.15316
-36.460976 15.890686 -30.636711
-36.181351 18.504318 -17.084316
-58.695877 4.800201 -25.007034
-46.883541 -0.241838 -20.88726
-48.825142 1.466234 -23.279686
-46.957512 2.057243 -23.226555
-44.753242 7.168386 -27.350918
-45.96117 8.705946 -30.255184
-38.301434 14.184303 -22.808861
-39.841141 11.715202 -24.068939
-39.283371 13.026211 -25.929802
-43.260292 -14.176809 -4.570131
-43.172394 -8.641204 -9.103058
-44.686069 -10.76811 -9.260826
-45.306229 -8.866022 -11.593813
-47.631176 -8.155394 -13.812273
-45.849701 -6.84502 -13.918201
-46.305153 -4.720288 -16.237938
-44.172485 -5.067474 -13.708248
-41.154228 -0.018843 -12.467945
-39.797962 3.229654 -11.576494
-40.050434 4.573944 -13.747438
-38.525463 6.899702 -10.632519
-31.293858 16.104038 -33.620174
-52.099831 6.328991 -27.695026
-53.92688 6.300268 -27.128658
-53.249474 8.839056 -29.906269
-59.458775 -0.289778 -19.299568
-57.721169 3.01358 -22.871094
-57.263557 5.611176 -25.718189
-43.422001 2.587513 -19.933315
-45.16853 3.033327 -22.840725
-43.474495 4.472094 -22.143028
-43.362354 6.354168 -24.324467
-43.053669 8.18906 -26.462276
-36.931931 16.249847 -26.284397
-38.52066 14.191422 -27.668839
-37.569397 15.160477 -29.250702
-42.207539 -4.442558 -10.941385
-37.624866 13.973915 -15.931187
-38.911293 11.757429 -18.954769
-37.516411 15.015736 -17.911957
-37.248257 16.040462 -19.835583
-36.803238 17.018341 -21.689957
-36.179333 17.913265 -23.458317
-35.388798 18.686817 -25.117455
-50.676132 -1.466999 -20.565739
-52.660332 1.005915 -22.496391
-46.848045 4.347836 -25.57547
-40.194649 10.310305 -22.115513
-41.420948 9.702082 -25.331478
-42.524406 9.922419 -28.532822
-52.376488 -4.423308 -17.532864
-50.433563 -4.06715 -18.152084
-48.513664 -3.463366 -18.510094
-46.656975 -2.511162 -18.558956
-44.893578 -1.129946 -18.28323
-42.608467 -2.79287 -13.206066
-42.959156 -1.064251 -15.461081
-43.239384 0.73423 -17.704384
-41.695541 3.104153 -16.879688
-40.251736 5.96759 -15.896782
-38.89217 9.274378 -14.864838
-37.490902 11.913649 -11.837379
-37.603649 12.936031 -13.903051
-32.482513 18.056808 -31.152905
-32.616753 16.443691 -33.289101
-54.348568 3.635292 -24.419136
-55.662582 6.091398 -26.444801
-56.581802 8.084572 -28.646366
-55.654434 10.390615 -31.639843
-53.574772 -0.412061 -20.886259
-54.525502 -0.49378 -20.502844
-53.563209 -1.799033 -19.604934
-34.48187 17.153114 -31.03257
-35.071551 16.982416 -30.471338
-34.316574 17.782793 -29.714391
-33.834322 17.244106 -31.477399
-34.48187 17.153114 -31.03257
-58.997246 5.346524 -26.187632
-58.363113 5.990704 -26.498441
-44.67779 9.879097 -31.042524
-45.551602 9.679958 -31.395249
-45.087359 8.905086 -29.90246
-42.306549 -13.673619 -3.359723
-42.874161 -14.926954 -3.396546
-39.05003 4.496829 -10.03452
-39.660198 2.58282 -10.485271
-38.912266 3.849995 -8.943297
-38.41378 6.331853 -9.562532
-39.161713 5.064678 -11.104506
-39.05003 4.496829 -10.03452
-52.346163 8.834323 -30.142285
-52.674653 7.584023 -28.800648
-51.771342 7.57929 -29.036663
-56.912667 3.225261 -23.266863
-57.02158 1.857546 -21.917426
-56.68386 4.524059 -24.69041
-57.492363 4.312378 -24.294641
-56.912667 3.225261 -23.266863
-37.243545 15.268275 -31.46652
-36.604046 15.565746 -32.088686
-36.553755 17.67988 -19.412177
-36.714804 17.27239 -18.45995
-36.020302 18.911808 -18.036543
-36.331246 18.168819 -20.339363
-37.025748 16.529401 -20.76277
-36.553755 17.67988 -19.412177
-35.455477 19.352647 -23.031816
-35.776817 19.002457 -22.145968
-35.060209 19.739424 -23.861385
-35.784065 18.300041 -24.287886
-35.455477 19.352647 -23.031816
-59.794849 1.776731 -21.757397
-59.940752 0.482671 -20.354271
-59.312872 1.004282 -20.702694
-49.746313 0.071917 -21.950522
-50.708168 -0.15562 -21.792435
-49.714277 -1.239462 -20.723826
-49.651707 3.844949 -25.612368
-49.712612 2.612691 -24.399082
-48.764236 2.698492 -24.492972
-49.465944 5.113029 -26.884348
-49.651707 3.844949 -25.612368
-39.325874 13.39273 -28.397085
-38.844558 13.971228 -29.239414
-52.173611 -5.748359 -16.326291
-53.336995 -4.533912 -17.128632
-45.500257 -11.583686 -9.191415
-45.853516 -10.555744 -10.364922
-49.083847 -6.230933 -15.96235
-48.832685 -7.381586 -14.79018
-47.882338 -7.00474 -14.984444
-49.283531 -4.960618 -17.154349
-50.233879 -5.337464 -16.960085
-49.083847 -6.230933 -15.96235
-36.907156 13.951734 -11.463672
-36.848295 13.531688 -10.431701
-36.963529 14.462925 -12.496507
-37.547275 12.42484 -12.870215
-36.907156 13.951734 -11.463672
-36.994255 14.882665 -13.51542
-36.963529 14.462925 -12.496507
-31.124582 18.974818 -30.904967
-30.489384 18.906259 -31.237744
-31.841247 17.995604 -31.462208
-31.765848 19.036022 -30.595664
-31.124582 18.974818 -30.904967
-31.950212 15.616362 -34.571478
-31.284785 15.313934 -34.602848
-55.839247 10.909011 -32.881331
-55.057907 11.436732 -33.156126
-56.401266 9.897253 -31.338278
-55.839247 10.909011 -32.881331
-55.429527 0.797351 -21.373963
-54.525502 -0.49378 -20.502844
-55.320614 2.165067 -22.7234
-55.429527 0.797351 -21.373963
-35.848911 16.121711 -31.213113
-35.683615 16.75139 -29.894935
-35.071551 16.982416 -30.471338
-35.991981 15.796772 -32.665088
-36.604046 15.565746 -32.088686
-35.848911 16.121711 -31.213113
-35.670627 19.973208 -15.853952
-36.265168 18.086907 -16.106402
-35.754444 19.555796 -14.876037
-35.559727 20.286977 -16.825637
-35.670627 19.973208 -15.853952
-36.020302 18.911808 -18.036543
-35.559727 20.286977 -16.825637
-59.317297 4.21598 -24.677696
-59.552843 2.96505 -23.227089
-58.931423 3.549272 -23.556427
-59.317297 4.21598 -24.677696
-58.997246 5.346524 -26.187632
-45.638881 6.875576 -27.637873
-45.793818 5.854474 -26.51602
-44.908178 6.147284 -26.229065
-46.242846 7.644357 -29.090006
-45.638881 6.875576 -27.637873
-45.357206 7.937166 -28.803051
-46.862116 8.662899 -30.434755
-46.242846 7.644357 -29.090006
-46.431486 9.716121 -31.653188
-47.332432 9.673075 -31.832759
-46.862116 8.662899 -30.434755
-46.431486 9.716121 -31.653188
-45.551602 9.679958 -31.395249
-43.963379 -15.124219 -4.494785
-42.874161 -14.926954 -3.396546
-44.392149 -14.243624 -5.670438
-43.963379 -15.124219 -4.494785
-43.929232 -9.704657 -9.181942
-43.641569 -10.517437 -8.024214
-42.884732 -9.453984 -7.94533
-46.163595 -9.6047 -11.531416
-45.853516 -10.555744 -10.364922
-44.996149 -9.817066 -10.427319
-46.468703 -8.510708 -12.703043
-47.326069 -9.249386 -12.640646
-46.163595 -9.6047 -11.531416
-40.338331 0.958572 -10.930997
-40.986847 -0.75177 -11.35528
-40.17095 0.225645 -9.818332
-40.476095 1.605406 -12.02222
-40.338331 0.958572 -10.930997
-39.660198 2.58282 -10.485271
-30.548391 17.773638 -31.952738
-30.489384 18.906259 -31.237744
-30.595329 16.858458 -32.87707
-31.24692 17.019219 -32.695842
-30.548391 17.773638 -31.952738
-30.643688 15.828519 -33.655746
-30.595329 16.858458 -32.87707
-31.284785 15.313934 -34.602848
-30.643688 15.828519 -33.655746
-58.745198 -1.34279 -18.374766
-59.518324 -1.610622 -17.950126
-58.804746 -2.663634 -17.025324
-58.715855 0.021077 -19.706511
-58.745198 -1.34279 -18.374766
-58.569952 1.315137 -21.109637
-59.312872 1.004282 -20.702694
-58.715855 0.021077 -19.706511
-57.847052 1.672756 -21.492273
-57.02158 1.857546 -21.917426
-58.444069 2.655961 -22.488457
-58.569952 1.315137 -21.109637
-57.847052 1.672756 -21.492273
-57.646953 6.396192 -26.854019
-58.363113 5.990704 -26.498441
-57.979717 5.205689 -25.362611
-38.368927 14.455756 -30.030346
-38.844558 13.971228 -29.239414
-38.045029 14.675949 -28.45977
-37.797756 14.90317 -30.773516
-37.015186 15.525582 -29.943706
-37.243545 15.268275 -31.46652
-38.597286 14.198449 -31.553159
-38.368927 14.455756 -30.030346
-37.797756 14.90317 -30.773516
-42.239029 -8.063113 -7.748661
-42.884732 -9.453984 -7.94533
-42.471243 -7.32452 -8.886305
-42.239029 -8.063113 -7.748661
-42.735365 -6.456679 -10.039876
-43.436516 -7.773363 -10.256629
-42.471243 -7.32452 -8.886305
-41.988816 -5.225197 -9.805468
-42.954088 -5.67404 -11.175793
-42.735365 -6.456679 -10.039876
-41.337048 -3.663485 -9.477321
-41.988816 -5.225197 -9.805468
-40.643012 -2.184554 -9.127935
-41.513503 -2.963627 -10.592
-41.337048 -3.663485 -9.477321
-40.032071 -0.397358 -8.726897
-40.643012 -2.184554 -9.127935
-39.855616 -1.097215 -7.612217
-39.383555 1.312984 -8.302613
-40.17095 0.225645 -9.818332
-40.032071 -0.397358 -8.726897
-36.08877 18.554994 -21.261788
-36.331246 18.168819 -20.339363
-36.491286 17.465803 -22.574137
-36.08877 18.554994 -21.261788
-35.776817 19.002457 -22.145968
-34.667339 20.037649 -24.699709
-35.060209 19.739424 -23.861385
-34.921553 18.99523 -25.877596
-34.667339 20.037649 -24.699709
-35.220463 18.170412 -27.224688
-35.687708 17.862 -26.464546
-34.921553 18.99523 -25.877596
-34.680281 18.457869 -27.895449
-35.446436 17.324638 -28.482399
-35.220463 18.170412 -27.224688
-34.154724 18.674591 -28.569313
-34.680281 18.457869 -27.895449
-33.565044 18.845289 -29.130544
-34.316574 17.782793 -29.714391
-34.154724 18.674591 -28.569313
-60.110144 -0.749298 -18.935284
-60.169693 -2.070142 -17.585842
-59.518324 -1.610622 -17.950126
-60.110144 -0.749298 -18.935284
-59.940752 0.482671 -20.354271
-59.794849 1.776731 -21.757397
-59.552843 2.96505 -23.227089
-51.700268 1.080837 -22.757761
-51.668232 -0.230542 -21.531065
-50.708168 -0.15562 -21.792435
-51.618943 2.429738 -24.04197
-52.579006 2.354815 -23.7806
-51.700268 1.080837 -22.757761
-49.782673 1.310997 -23.149408
-49.746313 0.071917 -21.950522
-48.788782 0.227155 -22.080799
-49.782673 1.310997 -23.149408
-49.712612 2.612691 -24.399082
-51.548882 3.731432 -25.291643
-51.618943 2.429738 -24.04197
-51.349957 5.044069 -26.606752
-52.298756 5.016354 -26.379917
-51.548882 3.731432 -25.291643
-51.164195 6.312149 -27.878732
-51.349957 5.044069 -26.606752
-51.771342 7.57929 -29.036663
-51.164195 6.312149 -27.878732
-46.686283 5.465301 -26.750149
-45.955579 4.737008 -25.341341
-45.793818 5.854474 -26.51602
-47.602937 5.340829 -26.865963
-46.686283 5.465301 -26.750149
-48.53058 5.132286 -26.931356
-47.775688 4.139293 -25.640864
-47.602937 5.340829 -26.865963
-49.465944 5.113029 -26.884348
-48.53058 5.132286 -26.931356
-39.707229 12.810125 -27.527567
-38.902016 13.608816 -26.799321
-39.325874 13.39273 -28.397085
-40.508314 11.90971 -28.205734
-40.084456 12.125796 -26.607969
-39.707229 12.810125 -27.527567
-41.324514 11.3594 -28.894648
-40.508314 11.90971 -28.205734
-40.947288 12.043728 -29.814245
-42.143947 10.707918 -29.51799
-41.704973 10.573901 -27.909479
-41.324514 11.3594 -28.894648
-42.977186 10.396616 -30.101878
-42.143947 10.707918 -29.51799
-43.821756 9.987519 -30.610335
-43.368977 9.513322 -29.041279
-42.977186 10.396616 -30.101878
-44.67779 9.879097 -31.042524
-43.821756 9.987519 -30.610335
-53.445214 -3.15203 -18.377192
-53.336995 -4.533912 -17.128632
-52.494484 -3.070311 -18.760607
-53.563209 -1.799033 -19.604934
-53.445214 -3.15203 -18.377192
-42.622785 -12.976973 -4.518768
-42.306549 -13.673619 -3.359723
-43.629956 -13.358587 -5.74433
-42.622785 -12.976973 -4.518768
-44.392149 -14.243624 -5.670438
-43.629956 -13.358587 -5.74433
-44.342844 -11.654237 -8.089677
-43.641569 -10.517437 -8.024214
-44.342844 -11.654237 -8.089677
-45.500257 -11.583686 -9.191415
-48.563078 -8.606011 -13.607792
-47.326069 -9.249386 -12.640646
-48.563078 -8.606011 -13.607792
-48.832685 -7.381586 -14.79018
-51.205342 -5.515543 -16.650475
-52.173611 -5.748359 -16.326291
-51.405026 -4.245229 -17.842474
-51.205342 -5.515543 -16.650475
-50.233879 -5.337464 -16.960085
-37.838085 8.410015 -9.137868
-38.41378 6.331853 -9.562532
-37.726402 7.842166 -8.067882
-37.926357 8.904688 -10.1892
-37.838085 8.410015 -9.137868
-38.030214 9.489523 -11.253404
-38.62932 7.484537 -11.696723
-37.926357 8.904688 -10.1892
-37.409076 11.411662 -10.791629
-36.848295 13.531688 -10.431701
-38.112039 9.991511 -12.299153
-38.030214 9.489523 -11.253404
-37.409076 11.411662 -10.791629
-37.004863 15.401608 -14.529488
-37.614257 13.454973 -14.917119
-36.994255 14.882665 -13.51542
-36.366923 17.249398 -14.128138
-36.986925 15.821705 -15.529837
-37.004863 15.401608 -14.529488
-35.80172 19.236964 -13.884041
-36.366923 17.249398 -14.128138
-35.754444 19.555796 -14.876037
-35.80172 19.236964 -13.884041
-32.994173 18.963583 -29.70167
-33.565044 18.845289 -29.130544
-32.371983 19.015242 -30.14031
-31.765848 19.036022 -30.595664
-33.104703 18.00515 -30.714264
-32.994173 18.963583 -29.70167
-32.371983 19.015242 -30.14031
-33.212131 17.295765 -31.916041
-33.834322 17.244106 -31.477399
-33.104703 18.00515 -30.714264
-33.279252 16.489206 -32.984139
-33.212131 17.295765 -31.916041
-32.549633 17.25025 -32.221003
-33.302098 15.957693 -34.228653
-33.964596 16.003208 -33.92369
-33.279252 16.489206 -32.984139
-32.61166 15.786188 -34.405941
-31.955306 16.273865 -33.454638
-31.950212 15.616362 -34.571478
-33.302098 15.957693 -34.228653
-32.61166 15.786188 -34.405941
-55.226366 3.536117 -24.040884
-55.320614 2.165067 -22.7234
-54.442816 2.264242 -23.101652
-55.883373 4.764169 -25.053717
-55.226366 3.536117 -24.040884
-55.005575 4.863345 -25.431968
-56.46307 5.851287 -26.081495
-56.68386 4.524059 -24.69041
-55.883373 4.764169 -25.053717
-57.306076 7.63289 -28.318107
-57.646953 6.396192 -26.854019
-56.92268 6.847874 -27.182277
-52.773083 10.018718 -31.319826
-52.346163 8.834323 -30.142285
-53.63749 9.906433 -31.065285
-52.773083 10.018718 -31.319826
-54.501023 9.796829 -30.764217
-54.113007 8.729452 -29.605201
-53.63749 9.906433 -31.065285
-54.83997 10.682213 -31.932071
-54.243443 11.72833 -33.448355
-55.057907 11.436732 -33.156126
-55.315487 9.505232 -30.471989
-54.501023 9.796829 -30.764217
-54.83997 10.682213 -31.932071
-56.86495 8.744231 -29.841539
-56.118118 9.237593 -30.143104
-56.401266 9.897253 -31.338278
-57.589224 8.292549 -29.513281
-57.306076 7.63289 -28.318107
-56.86495 8.744231 -29.841539
3 0 101 103
3 101 25 102
3 101 102 103
3 1 28 26
3 2 104 106
3 106 105 29
3 104 105 106
3 2 107 108
3 110 109 32
3 4 35 33
3 5 37 36
3 5 111 113
3 113 112 37
3 111 112 113
3 3 40 38
3 114 41 115
3 6 44 42
3 6 46 44
3 6 48 46
3 116 50 117
3 116 117 118
3 119 52 120
3 121 120 50
3 119 120 121
3 122 56 123
3 124 123 54
3 122 123 124
3 125 58 126
3 127 59 128
3 129 128 58
3 127 128 129
3 8 62 60
3 10 63 27
3 10 64 63
3 11 67 65
3 131 130 30
3 13 71 69
3 132 72 133
3 134 133 31
3 132 133 134
3 135 73 136
3 137 136 72
3 135 136 137
3 138 74 139
3 140 75 141
3 142 141 74
3 140 141 142
3 7 143 145
3 145 144 57
3 143 144 145
3 15 146 148
3 148 147 76
3 146 147 148
3 17 149 151
3 151 150 34
3 149 150 151
3 17 152 153
3 9 78 61
3 14 79 70
3 18 80 39
3 18 81 80
3 155 154 66
3 156 82 157
3 159 158 43
3 19 160 162
3 162 161 45
3 160 161 162
3 19 163 165
3 163 83 164
3 163 164 165
3 19 84 83
3 20 85 47
3 20 86 85
3 12 87 68
3 21 88 49
3 21 89 88
3 21 90 89
3 22 91 51
3 22 92 91
3 166 93 167
3 168 94 169
3 170 169 93
3 168 169 170
3 172 171 94
3 23 173 174
3 23 175 177
3 175 95 176
3 175 176 177
3 23 96 95
3 179 178 53
3 16 97 77
3 24 98 55
3 24 99 98
3 180 100 181
3 183 182 100
3 25 184 185
3 25 186 187
3 26 27 8
3 28 27 26
3 28 10 27
3 29 30 11
3 188 30 189
3 190 189 29
3 188 189 190
3 193 192 30
3 191 192 193
3 194 31 195
3 196 195 13
3 194 195 196
3 197 31 198
3 200 199 31
3 32 201 203
3 203 202 7
3 201 202 203
3 205 204 32
3 33 34 15
3 35 34 33
3 35 17 34
3 36 206 208
3 208 207 9
3 206 207 208
3 37 209 211
3 211 210 36
3 209 210 211
3 37 212 213
3 37 214 216
3 214 215 216
3 218 217 37
3 38 39 14
3 40 39 38
3 40 18 39
3 41 219 220
3 41 221 222
3 42 223 225
3 223 43 224
3 223 224 225
3 44 43 42
3 44 226 228
3 228 227 43
3 226 227 228
3 44 229 231
3 229 45 230
3 229 230 231
3 46 45 44
3 46 19 45
3 46 47 19
3 48 47 46
3 48 20 47
3 232 49 233
3 234 233 12
3 232 233 234
3 50 235 237
3 235 49 236
3 235 236 237
3 50 21 49
3 50 51 21
3 52 51 50
3 52 22 51
3 238 23 239
3 240 53 241
3 242 241 23
3 240 241 242
3 243 53 244
3 246 245 53
3 54 55 16
3 56 55 54
3 56 24 55
3 247 57 248
3 247 248 249
3 250 57 251
3 252 7 253
3 254 253 57
3 252 253 254
3 58 255 256
3 58 257 259
3 257 7 258
3 257 258 259
3 58 32 7
3 59 32 58
3 59 260 262
3 262 261 32
3 260 261 262
3 60 61 4
3 62 61 60
3 62 9 61
3 27 62 8
3 63 62 27
3 63 9 62
3 63 36 9
3 64 36 63
3 64 5 36
3 65 66 3
3 67 66 65
3 67 263 265
3 265 264 66
3 263 264 265
3 30 67 11
3 266 67 267
3 268 267 30
3 266 267 268
3 271 270 67
3 269 270 271
3 272 42 273
3 274 42 275
3 276 6 277
3 278 277 42
3 276 277 278
3 279 68 280
3 281 280 6
3 279 280 281
3 282 68 283
3 284 12 285
3 286 285 68
3 284 285 286
3 287 12 288
3 287 288 289
3 292 291 12
3 290 291 292
3 69 70 1
3 71 70 69
3 71 14 70
3 31 71 13
3 72 71 31
3 72 14 71
3 72 38 14
3 73 38 72
3 73 3 38
3 293 73 294
3 74 295 297
3 295 73 296
3 295 296 297
3 74 3 73
3 74 65 3
3 75 65 74
3 75 11 65
3 298 75 299
3 300 75 301
3 302 11 303
3 304 303 75
3 302 303 304
3 305 29 306
3 307 306 11
3 305 306 307
3 308 29 309
3 310 2 311
3 312 311 29
3 310 311 312
3 57 313 315
3 313 314 315
3 317 316 57
3 319 318 7
3 76 77 0
3 320 77 321
3 322 321 76
3 320 321 322
3 323 16 324
3 325 324 77
3 323 324 325
3 34 326 328
3 328 327 15
3 326 327 328
3 330 329 34
3 331 16 332
3 333 54 334
3 335 334 16
3 333 334 335
3 336 54 337
3 339 338 54
3 61 35 4
3 78 35 61
3 78 17 35
3 340 78 341
3 342 341 9
3 340 341 342
3 343 78 344
3 345 17 346
3 347 346 78
3 345 346 347
3 349 348 17
3 70 28 1
3 79 28 70
3 79 10 28
3 39 79 14
3 80 79 39
3 80 10 79
3 80 64 10
3 81 64 80
3 81 5 64
3 66 40 3
3 350 40 351
3 352 351 66
3 350 351 352
3 353 18 354
3 355 354 40
3 353 354 355
3 356 18 357
3 356 357 358
3 359 81 360
3 361 360 18
3 359 360 361
3 362 81 363
3 364 5 365
3 366 365 81
3 364 365 366
3 368 367 5
3 82 369 370
3 82 371 373
3 371 0 372
3 371 372 373
3 374 41 375
3 376 41 377
3 379 378 41
3 43 380 381
3 383 382 43
3 45 384 385
3 387 386 45
3 388 82 389
3 83 390 392
3 390 82 391
3 390 391 392
3 83 0 82
3 83 76 0
3 84 76 83
3 84 15 76
3 47 84 19
3 85 84 47
3 85 15 84
3 85 33 15
3 86 33 85
3 86 4 33
3 68 48 6
3 87 48 68
3 87 20 48
3 49 87 12
3 88 87 49
3 88 20 87
3 88 86 20
3 89 86 88
3 89 4 86
3 89 60 4
3 90 60 89
3 90 8 60
3 51 90 21
3 91 90 51
3 91 8 90
3 91 26 8
3 92 26 91
3 92 1 26
3 393 52 394
3 393 394 395
3 396 52 397
3 398 22 399
3 400 399 52
3 398 399 400
3 93 401 402
3 93 403 405
3 403 22 404
3 403 404 405
3 93 92 22
3 94 92 93
3 94 1 92
3 94 69 1
3 406 69 407
3 408 407 94
3 406 407 408
3 409 13 410
3 411 410 69
3 409 410 411
3 412 13 413
3 415 414 13
3 416 2 417
3 95 418 419
3 95 420 422
3 420 2 421
3 420 421 422
3 95 423 425
3 425 424 2
3 423 424 425
3 96 426 428
3 428 427 95
3 426 427 428
3 96 429 431
3 429 430 431
3 53 96 23
3 432 96 433
3 434 433 53
3 432 433 434
3 436 435 96
3 77 25 0
3 97 25 77
3 97 437 439
3 439 438 25
3 437 438 439
3 55 97 16
3 98 97 55
3 98 440 442
3 442 441 97
3 440 441 442
3 98 443 445
3 443 59 444
3 443 444 445
3 99 59 98
3 99 446 448
3 448 447 59
3 446 447 448
3 449 56 450
3 451 56 452
3 453 24 454
3 455 454 56
3 453 454 455
3 100 456 458
3 456 457 458
3 100 459 461
3 459 24 460
3 459 460 461
3 100 99 24
3 462 99 463
3 464 463 100
3 462 463 464
3 467 466 99
3 465 466 467
