ply
format ascii 1.0
element vertex 88
property float x
property float y
property float z
element face 64
property list uchar int vertex_index
end_header
-0.05378 48.812092 49.262585
0.134115 36.959774 62.484024
0.120089 43.052589 56.087883
-0.263294 35.312492 57.219738
-0.02375 29.428425 63.250408
0.144884 40.052948 59.344875
-0.047138 39.164261 56.718098
0.028297 36.224926 59.899014
-0.141132 32.423855 60.299236
0.083261 33.187271 62.960709
-0.329029 28.663227 60.544384
-0.155493 25.694931 63.351303
-0.129926 50.189537 47.481172
0.022187 50.8079 48.805159
-0.241826 48.17738 47.94026
-0.129926 50.189537 47.481172
-0.164076 46.814854 49.667141
-0.241826 48.17738 47.94026
-0.013429 42.538656 54.763508
0.08753 44.511915 54.406759
-0.327963 36.715817 55.630876
-0.219886 38.641701 55.380056
-0.155216 37.238377 56.968918
-0.454681 34.794332 55.878706
-0.327963 36.715817 55.630876
-0.377895 33.413396 57.406769
-0.454681 34.794332 55.878706
0.062939 49.366642 50.579039
0.022187 50.8079 48.805159
0.000596 47.391666 50.994111
0.062939 49.366642 50.579039
0.161828 44.999006 55.707056
0.08753 44.511915 54.406759
0.146666 43.466877 57.363045
0.161828 44.999006 55.707056
0.159064 41.967056 58.99154
0.132487 41.552768 57.716379
0.146666 43.466877 57.363045
0.119487 40.38825 60.58535
0.159064 41.967056 58.99154
0.114102 38.841664 62.154924
0.139499 38.506361 60.91445
0.119487 40.38825 60.58535
-0.164076 46.814854 49.667141
0.000596 47.391666 50.994111
-0.097043 40.594492 55.078615
-0.013429 42.538656 54.763508
0.036476 41.108425 56.402991
-0.097043 40.594492 55.078615
-0.219886 38.641701 55.380056
-0.316814 31.969078 58.946518
-0.377895 33.413396 57.406769
-0.202213 33.868173 58.759487
-0.410762 30.088764 59.069092
-0.316814 31.969078 58.946518
-0.235081 30.543541 60.42181
-0.516954 28.218267 59.192974
-0.410762 30.088764 59.069092
-0.41918 26.804508 60.590344
-0.516954 28.218267 59.192974
-0.332412 25.32036 61.993803
-0.41918 26.804508 60.590344
-0.242261 27.179079 61.947844
-0.223125 23.842846 63.309807
-0.332412 25.32036 61.993803
0.052952 37.210482 63.679672
0.114102 38.841664 62.154924
0.113119 35.357738 63.982666
0.052952 37.210482 63.679672
0.031955 35.608446 65.178314
0.087692 33.471487 64.221008
0.108688 35.073523 62.722366
0.113119 35.357738 63.982666
0.101731 31.608376 64.414792
0.087692 33.471487 64.221008
0.048226 29.728952 64.559641
0.029756 31.307848 63.105559
0.101731 31.608376 64.414792
0.032423 27.865208 64.640219
0.048226 29.728952 64.559641
-0.033448 25.998461 64.690666
-0.089621 27.561678 63.300855
0.032423 27.865208 64.640219
-0.065506 24.139948 64.658214
-0.033448 25.998461 64.690666
-0.133138 22.287863 64.616718
-0.223125 23.842846 63.309807
-0.065506 24.139948 64.658214
3 0 12 13
3 0 14 15
3 0 16 17
3 1 7 5
3 1 9 7
3 2 18 19
3 3 20 22
3 22 21 6
3 20 21 22
3 3 23 24
3 3 25 26
3 4 10 8
3 4 11 10
3 5 6 2
3 7 6 5
3 7 3 6
3 7 8 3
3 9 8 7
3 9 4 8
3 27 0 28
3 30 29 0
3 31 2 32
3 33 2 34
3 35 5 36
3 37 36 2
3 35 36 37
3 38 5 39
3 40 1 41
3 42 41 5
3 40 41 42
3 44 43 0
3 6 45 47
3 47 46 2
3 45 46 47
3 49 48 6
3 8 50 52
3 52 51 3
3 50 51 52
3 10 53 55
3 55 54 8
3 53 54 55
3 10 56 57
3 10 58 59
3 11 60 62
3 62 61 10
3 60 61 62
3 11 63 64
3 65 1 66
3 67 1 68
3 67 68 69
3 70 9 71
3 72 71 1
3 70 71 72
3 73 9 74
3 75 4 76
3 77 76 9
3 75 76 77
3 78 4 79
3 80 11 81
3 82 81 4
3 80 81 82
3 83 11 84
3 87 86 11
3 85 86 87
