ply
format ascii 1.0
element vertex 249
property float x
property float y
property float z
element face 250
property list uchar int vertex_index
end_header
40.055321 61.472893 24.367535
24.068062 70.218048 24.994957
32.650387 64.993118 24.216349
29.436125 58.668625 34.006535
38.331142 55.429962 32.294575
38.646358 64.899513 20.517519
36.926064 63.156677 24.361565
34.764042 67.501564 19.740753
32.515892 53.679108 38.006416
33.885742 56.832291 33.241474
28.213837 67.244583 24.343405
25.918097 72.615814 19.276278
30.334967 69.843414 19.247292
32.904449 71.628212 14.452335
22.635059 67.293526 30.726513
25.299618 61.062325 34.911507
26.591434 64.260071 29.666729
30.879385 61.868912 29.01733
35.372398 60.145729 28.61327
39.443897 58.82058 27.960453
39.431385 63.026962 22.705627
38.732983 62.271492 24.401443
37.754795 64.240166 22.412151
31.895838 52.135307 40.361191
30.411552 66.037971 24.222446
29.20891 68.616066 21.75539
31.442776 67.438652 21.792873
35.909973 68.310822 17.577768
33.801628 69.618546 17.157104
35.073292 70.262993 14.90416
20.699081 68.919571 31.404003
28.80549 57.076805 36.475025
26.72736 58.163994 36.914124
27.326855 59.799202 34.42733
25.918205 62.690849 32.320541
27.973896 61.394241 31.874409
28.68924 62.971497 29.294024
30.122581 60.262627 31.506844
36.146278 56.092651 32.81749
34.61882 58.481857 30.894043
36.846092 57.77607 30.54962
37.513268 59.448112 28.362274
38.938114 57.144608 30.086016
37.842567 66.842842 18.05257
34.85564 64.053177 24.281525
33.669502 66.369598 21.942146
35.805019 65.329666 22.160667
36.807125 66.279831 20.103254
30.337673 54.529587 38.459114
30.960291 56.100433 36.056694
31.630676 57.682549 33.622734
33.181812 55.232872 35.623219
35.433701 54.458588 35.137016
37.652382 53.752701 34.556641
26.098148 68.641853 24.601192
27.02824 69.960045 21.859192
28.09831 71.145645 19.185482
29.305813 72.157234 16.596199
32.580631 68.657158 19.443682
31.576582 70.866142 16.818249
30.63114 72.952164 14.090561
21.372128 70.501495 28.488174
23.314997 68.818039 27.881695
23.938379 64.123039 32.857475
24.583601 65.71682 30.145172
25.292715 67.222412 27.378067
27.347429 65.781349 26.992592
29.495825 64.529633 26.730484
31.719633 63.464844 26.577734
32.352486 59.298859 31.19363
33.129448 60.938927 28.807482
33.963741 62.552795 26.496824
36.140465 61.74411 26.42823
38.137089 61.001091 26.293465
40.59462 60.67239 24.805594
40.453732 61.482857 23.792968
40.453732 61.482857 23.792968
40.141763 62.259891 22.962014
39.743353 62.249927 23.536581
23.482014 71.69635 23.748469
23.081089 71.069225 25.251203
36.075478 69.506268 15.158347
35.491633 69.286907 16.240964
36.493818 68.530182 16.495151
35.719017 70.408844 13.780732
36.075478 69.506268 15.158347
39.338302 55.120106 31.952005
39.641789 55.977429 30.847726
38.634628 56.287285 31.190296
39.10907 65.017326 19.546492
38.707174 65.98899 18.314018
38.244462 65.871178 19.285044
36.185774 53.303879 35.995384
35.082602 53.674878 36.309614
37.295114 52.950935 35.705196
36.543042 54.105644 34.846829
36.185774 53.303879 35.995384
38.358469 52.593178 35.323545
37.295114 52.950935 35.705196
32.474068 72.56147 13.054423
31.337413 73.223446 12.873536
31.767795 72.290188 14.271448
24.862857 73.436451 19.39661
25.422669 72.05249 20.694246
25.007264 60.205765 36.161011
25.721136 58.7566 37.162319
26.013489 59.61316 35.912816
24.314875 61.744248 35.19637
25.007264 60.205765 36.161011
24.618999 62.592682 33.884491
23.634256 63.274605 34.169353
24.314875 61.744248 35.19637
39.634939 59.578892 26.971565
38.981535 60.669148 26.138071
38.790493 59.910836 27.126959
40.259473 58.54314 27.622938
39.634939 59.578892 26.971565
39.847641 63.146301 21.861815
39.455128 64.082577 20.767761
39.038871 63.963237 21.611573
39.847641 63.146301 21.861815
40.141763 62.259891 22.962014
32.669654 50.992306 41.256956
31.611458 51.341347 41.512249
32.978957 51.752868 40.094826
32.669654 50.992306 41.256956
33.288984 52.524769 38.917439
32.205865 52.907207 39.183803
32.978957 51.752868 40.094826
33.623697 53.285138 37.744314
33.288984 52.524769 38.917439
34.678656 71.175354 13.515912
33.594234 71.857964 13.29
33.988871 70.945603 14.678247
34.678656 71.175354 13.515912
35.719017 70.408844 13.780732
25.383876 73.886146 17.934355
26.484763 73.095101 17.897056
20.375559 68.045941 32.816797
19.713727 69.716499 31.788958
21.348355 67.279263 32.447876
20.375559 68.045941 32.816797
22.316344 66.46624 32.109131
21.66707 68.106549 31.065258
21.348355 67.279263 32.447876
27.766425 57.6204 36.694575
27.473185 56.808644 37.896282
28.512249 56.265049 37.676733
39.868074 56.851768 29.752212
40.120966 57.689754 28.68943
39.191006 57.982594 29.023235
39.868074 56.851768 29.752212
39.641789 55.977429 30.847726
38.363159 66.923489 17.004046
37.460115 67.796192 16.732552
38.363159 66.923489 17.004046
38.707174 65.98899 18.314018
39.10907 65.017326 19.546492
39.455128 64.082577 20.767761
37.460115 67.796192 16.732552
36.493818 68.530182 16.495151
36.87627 67.576832 17.815169
30.828126 52.530296 40.581207
31.611458 51.341347 41.512249
30.049043 53.727436 39.630169
30.828126 52.530296 40.581207
31.116756 53.332447 39.410152
29.278341 54.99144 38.668778
30.049043 53.727436 39.630169
29.571582 55.803196 37.46707
28.512249 56.265049 37.676733
29.278341 54.99144 38.668778
33.956657 54.06202 36.552715
32.848852 54.45599 36.814818
33.623697 53.285138 37.744314
34.307756 54.84573 35.380117
33.956657 54.06202 36.552715
35.082602 53.674878 36.309614
38.702669 53.419701 34.196675
39.042049 54.258331 33.065641
37.991762 54.591332 33.425608
38.702669 53.419701 34.196675
38.358469 52.593178 35.323545
25.512695 70.065509 23.356703
24.497652 70.853607 23.553585
25.083105 69.42995 24.798074
25.977741 70.724605 21.985703
25.512695 70.065509 23.356703
26.563194 69.300949 23.230192
26.473168 71.287929 20.567735
25.422669 72.05249 20.694246
25.977741 70.724605 21.985703
27.57487 72.360016 17.851658
26.484763 73.095101 17.897056
27.008204 71.88073 19.23088
28.178621 72.865811 16.557016
27.57487 72.360016 17.851658
28.702061 71.65144 17.89084
28.8134 73.248104 15.22395
28.178621 72.865811 16.557016
29.476063 73.645569 13.971131
28.8134 73.248104 15.22395
29.968477 72.554699 15.34338
30.168785 73.919773 12.684619
29.476063 73.645569 13.971131
30.168785 73.919773 12.684619
31.337413 73.223446 12.873536
32.474068 72.56147 13.054423
33.594234 71.857964 13.29
23.482014 71.69635 23.748469
24.497652 70.853607 23.553585
24.862857 73.436451 19.39661
25.383876 73.886146 17.934355
20.055591 70.552948 30.29315
19.713727 69.716499 31.788958
20.392115 71.34391 28.835235
20.055591 70.552948 30.29315
21.035604 69.710533 29.946089
20.749465 72.083359 27.30202
20.392115 71.34391 28.835235
21.733122 71.210949 26.997812
20.749465 72.083359 27.30202
22.704557 70.369221 26.694572
21.733122 71.210949 26.997812
22.343563 69.659767 28.184935
23.69153 69.518044 26.438326
23.081089 71.069225 25.251203
22.704557 70.369221 26.694572
26.444622 57.308441 38.112206
27.473185 56.808644 37.896282
26.444622 57.308441 38.112206
25.721136 58.7566 37.162319
22.968004 64.880997 33.174612
23.634256 63.274605 34.169353
23.286719 65.708282 31.791994
22.316344 66.46624 32.109131
22.968004 64.880997 33.174612
39.279482 61.304348 25.19206
38.435036 61.636291 25.347454
38.981535 60.669148 26.138071
39.940651 60.905048 25.175106
39.394152 61.872192 24.384489
39.279482 61.304348 25.19206
40.59462 60.67239 24.805594
39.940651 60.905048 25.175106
40.259473 58.54314 27.622938
40.120966 57.689754 28.68943
39.338302 55.120106 31.952005
39.042049 54.258331 33.065641
3 0 74 75
3 0 76 78
3 78 77 20
3 76 77 78
3 0 20 21
3 1 79 80
3 2 26 24
3 81 29 82
3 83 82 27
3 81 82 83
3 85 84 29
3 3 33 31
3 3 35 33
3 3 37 35
3 4 40 38
3 4 42 40
3 4 86 88
3 88 87 42
3 86 87 88
3 5 89 91
3 91 90 43
3 89 90 91
3 6 46 44
3 5 47 22
3 5 43 47
3 8 48 23
3 8 49 48
3 8 51 49
3 92 52 93
3 94 53 95
3 96 95 52
3 94 95 96
3 98 97 53
3 10 55 54
3 12 56 25
3 12 57 56
3 7 58 45
3 13 59 28
3 13 60 59
3 13 99 101
3 101 100 60
3 99 100 101
3 11 102 103
3 14 61 30
3 14 62 61
3 15 104 106
3 106 105 32
3 104 105 106
3 15 107 108
3 15 109 111
3 109 63 110
3 109 110 111
3 16 64 34
3 16 65 64
3 16 66 65
3 17 67 36
3 17 68 67
3 9 69 50
3 18 70 39
3 18 71 70
3 18 72 71
3 19 73 41
3 19 112 114
3 114 113 73
3 112 113 114
3 19 115 116
3 20 117 119
3 119 118 5
3 117 118 119
3 121 120 20
3 21 22 6
3 20 22 21
3 20 5 22
3 122 23 123
3 124 23 125
3 126 8 127
3 128 127 23
3 126 127 128
3 130 129 8
3 24 25 10
3 26 25 24
3 26 12 25
3 27 28 7
3 29 28 27
3 29 13 28
3 29 131 133
3 133 132 13
3 131 132 133
3 135 134 29
3 137 136 11
3 138 30 139
3 140 30 141
3 142 14 143
3 144 143 30
3 142 143 144
3 31 145 147
3 145 32 146
3 145 146 147
3 33 32 31
3 33 15 32
3 33 34 15
3 35 34 33
3 35 16 34
3 35 36 16
3 37 36 35
3 37 17 36
3 38 39 9
3 40 39 38
3 40 18 39
3 40 41 18
3 42 41 40
3 42 19 41
3 42 148 150
3 150 149 19
3 148 149 150
3 152 151 42
3 43 153 154
3 156 155 43
3 158 157 5
3 44 45 2
3 46 45 44
3 46 7 45
3 22 46 6
3 47 46 22
3 47 7 46
3 47 27 7
3 43 27 47
3 43 159 161
3 161 160 27
3 159 160 161
3 23 162 163
3 48 164 166
3 166 165 23
3 164 165 166
3 48 167 168
3 48 169 171
3 169 31 170
3 169 170 171
3 49 31 48
3 49 3 31
3 49 50 3
3 51 50 49
3 51 9 50
3 172 51 173
3 174 173 8
3 172 173 174
3 52 175 177
3 175 51 176
3 175 176 177
3 52 9 51
3 52 38 9
3 53 38 52
3 53 4 38
3 53 178 180
3 180 179 4
3 178 179 180
3 182 181 53
3 54 183 185
3 185 184 1
3 183 184 185
3 55 186 188
3 188 187 54
3 186 187 188
3 55 189 191
3 189 11 190
3 189 190 191
3 25 55 10
3 56 55 25
3 56 11 55
3 56 192 194
3 194 193 11
3 192 193 194
3 57 195 197
3 197 196 56
3 195 196 197
3 57 198 199
3 45 26 2
3 58 26 45
3 58 12 26
3 28 58 7
3 59 58 28
3 59 12 58
3 59 57 12
3 60 57 59
3 60 200 202
3 202 201 57
3 200 201 202
3 60 203 204
3 206 205 60
3 208 207 13
3 210 209 1
3 212 211 11
3 30 213 214
3 61 215 217
3 217 216 30
3 215 216 217
3 61 218 219
3 61 220 221
3 62 222 224
3 224 223 61
3 222 223 224
3 62 225 227
3 225 1 226
3 225 226 227
3 32 228 229
3 231 230 32
3 63 232 233
3 63 234 236
3 234 14 235
3 234 235 236
3 34 63 15
3 64 63 34
3 64 14 63
3 64 62 14
3 65 62 64
3 65 1 62
3 65 54 1
3 66 54 65
3 66 10 54
3 36 66 16
3 67 66 36
3 67 10 66
3 67 24 10
3 68 24 67
3 68 2 24
3 50 37 3
3 69 37 50
3 69 17 37
3 39 69 9
3 70 69 39
3 70 17 69
3 70 68 17
3 71 68 70
3 71 2 68
3 71 44 2
3 72 44 71
3 72 6 44
3 41 72 18
3 73 72 41
3 73 6 72
3 73 21 6
3 237 21 238
3 239 238 73
3 237 238 239
3 240 0 241
3 242 241 21
3 240 241 242
3 244 243 0
3 246 245 19
3 248 247 4
