ply
format ascii 1.0
element vertex 369
property float x
property float y
property float z
element face 333
property list uchar int vertex_index
end_header
46.506927 -84.825897 43.900452
56.482155 -66.205521 30.621853
53.640564 -74.00766 32.270641
52.370216 -76.218964 42.810089
34.805485 -85.260643 47.953022
55.052483 -70.024544 31.562229
55.16584 -71.29673 36.824371
49.620605 -80.505623 43.549721
51.082626 -79.691376 38.370743
48.384796 -84.248131 38.862526
56.016014 -64.614273 25.531586
54.747211 -68.446083 26.373795
53.623352 -72.328751 26.94573
43.314026 -88.740746 43.401245
44.105282 -84.259613 47.93187
40.773148 -87.248222 47.036545
37.64579 -88.879738 44.987537
34.625694 -89.101036 42.226593
53.335503 -75.365936 37.660774
56.005096 -69.350143 36.334148
48.09317 -82.681213 43.798752
49.015366 -82.427124 41.312263
47.518204 -84.669678 41.473846
56.232986 -65.444656 28.06024
55.334465 -66.524918 25.994328
55.524616 -67.342422 28.543999
54.369583 -71.992363 31.937454
54.28326 -71.212257 29.292889
53.641827 -73.19516 29.590267
41.764767 -90.337021 42.695744
57.548611 -65.030121 32.606583
57.311596 -64.345261 30.039429
42.417969 -85.894196 47.630043
36.352703 -85.07151 48.908646
37.799904 -86.759872 47.576248
36.255547 -87.134674 46.475288
34.731064 -87.191971 45.255177
53.567619 -74.144569 42.369156
54.024639 -73.789009 39.870872
52.947205 -75.865417 40.294838
50.373756 -81.276367 35.91851
51.557056 -79.024391 35.632286
56.706192 -66.881378 33.20406
55.741123 -68.09726 31.127748
55.921722 -68.772133 33.732742
55.163696 -70.708496 34.195625
54.39032 -72.69574 34.603142
57.711048 -65.609451 35.170673
51.053593 -78.343254 43.208405
51.753632 -78.001976 40.684666
50.43792 -80.194046 41.032982
49.77755 -81.948494 38.661629
49.09346 -83.595642 36.138271
54.680107 -67.588196 23.838589
54.891937 -69.263809 28.950377
54.197273 -70.378441 26.684336
44.902176 -86.873703 43.788769
45.986351 -86.868065 41.45417
44.456451 -88.946526 41.187035
51.594109 -76.409531 45.131409
50.168186 -78.499176 45.524433
48.634422 -80.602966 45.842564
47.020752 -82.68576 46.044281
46.174042 -80.095024 49.479378
45.806763 -82.425308 47.98185
45.365551 -84.692436 46.07122
43.708706 -86.548576 45.859398
42.082695 -88.168419 45.355461
40.505821 -89.469826 44.533287
39.389557 -86.024323 48.469238
39.18399 -88.254425 46.143837
33.19445 -87.026001 44.029572
33.078453 -88.887489 40.862923
55.010254 -71.773254 39.406624
54.289406 -73.300812 37.262207
53.555229 -74.739487 34.970657
52.271454 -77.49556 38.030602
52.618275 -76.846619 35.31221
52.819038 -76.080322 32.578651
46.943504 -86.55088 38.915554
53.278473 -74.616272 31.066183
53.279105 -74.210022 29.725996
53.641195 -73.60141 30.930454
41.62459 -91.360393 41.210613
41.012219 -90.960792 42.180304
50.591423 -80.860885 34.529157
50.006832 -82.014457 34.640051
56.383003 -68.114364 34.757908
56.313957 -67.826755 33.468401
56.775238 -67.168987 34.493567
57.277666 -66.533024 35.476873
57.726112 -65.840187 36.43234
56.775238 -67.168987 34.493567
57.20862 -66.245415 34.187366
57.277666 -66.533024 35.476873
55.62051 -65.136429 24.508028
55.946427 -64.170227 24.286679
54.463255 -68.97892 25.246218
54.429703 -68.549976 23.978615
54.713659 -68.017139 25.106192
53.640003 -71.881401 25.645278
53.926963 -70.906246 25.514581
53.910313 -71.353596 26.815033
53.338871 -72.849235 25.742722
53.640003 -71.881401 25.645278
56.426968 -63.665895 25.254776
56.536968 -64.091972 26.511999
55.946427 -64.170227 24.286679
56.426968 -63.665895 25.254776
51.10397 -76.415902 46.156014
51.804078 -75.406658 45.935762
50.391008 -77.460724 46.352525
50.881147 -77.454353 45.327921
51.10397 -76.415902 46.156014
48.059292 -80.535884 46.839793
48.865963 -79.528008 46.698771
47.252457 -81.577281 46.940651
47.827587 -81.644363 45.943422
48.059292 -80.535884 46.839793
45.441887 -79.790142 50.116329
46.291309 -78.907734 50.010147
44.956023 -83.342461 47.95686
45.13209 -82.161507 48.776665
44.28135 -83.078659 48.751675
38.66203 -85.2934 49.093716
39.478859 -84.869045 49.393756
38.312483 -89.636677 44.196842
39.081583 -89.32402 44.774992
38.41489 -88.567082 45.565687
37.56615 -89.902019 43.51034
38.312483 -89.636677 44.196842
35.311743 -90.101036 41.369976
35.381346 -89.119858 42.935722
34.55164 -90.060669 40.600706
35.311743 -90.101036 41.369976
32.448106 -86.008671 45.008555
33.229771 -86.111565 45.486532
32.274368 -88.770352 40.274521
32.347598 -87.829697 41.892015
32.182507 -89.739258 38.622341
32.986593 -89.856395 39.210743
32.274368 -88.770352 40.274521
54.835747 -71.949211 40.645657
55.34404 -70.968097 40.378228
52.247258 -77.534577 34.091316
52.087665 -77.935505 35.472248
51.716648 -78.623462 34.251354
52.347639 -77.151428 32.724536
52.718656 -76.46347 33.945431
52.247258 -77.534577 34.091316
52.446297 -76.699257 31.34932
52.347639 -77.151428 32.724536
46.217388 -87.672257 38.835556
46.464928 -86.709473 40.184862
45.738811 -87.830849 40.104864
56.42247 -68.634258 37.327146
56.42469 -68.403369 36.058611
55.971428 -69.583691 37.612962
56.42247 -68.634258 37.327146
55.5518 -70.556984 37.858074
55.585468 -70.323436 36.579259
55.971428 -69.583691 37.612962
53.306204 -73.753135 28.384709
53.296966 -73.319931 27.06244
53.632589 -72.761955 28.267999
53.306204 -73.753135 28.384709
53.279105 -74.210022 29.725996
42.358956 -90.575951 41.657461
43.133585 -89.777813 42.010212
42.539396 -89.538883 43.048495
42.358956 -90.575951 41.657461
41.62459 -91.360393 41.210613
58.009646 -64.120752 32.275179
58.086214 -64.414872 33.555039
57.891138 -63.778323 30.991602
58.009646 -64.120752 32.275179
57.430104 -64.687691 31.323006
57.783138 -63.429085 29.710504
57.891138 -63.778323 30.991602
57.184759 -63.957466 28.76592
57.783138 -63.429085 29.710504
56.645454 -64.507164 27.776325
57.184759 -63.957466 28.76592
56.772291 -64.894959 29.049834
56.1245 -65.029464 26.795913
56.536968 -64.091972 26.511999
56.645454 -64.507164 27.776325
43.419207 -83.89769 48.696457
44.28135 -83.078659 48.751675
42.57555 -84.714981 48.545544
43.261626 -85.076904 47.780957
43.419207 -83.89769 48.696457
41.727047 -85.41433 48.365864
42.57555 -84.714981 48.545544
40.904636 -86.091343 48.069115
41.595558 -86.571209 47.333294
41.727047 -85.41433 48.365864
37.076303 -85.915691 48.242447
37.867203 -85.661175 48.647221
37.143603 -84.816993 49.313419
36.196272 -88.136677 45.06007
36.891393 -89.009209 44.316195
36.950668 -88.007206 45.731413
35.434031 -88.165325 44.450015
36.196272 -88.136677 45.06007
35.493306 -87.163322 45.865233
34.678379 -88.146503 43.740885
35.381346 -89.119858 42.935722
35.434031 -88.165325 44.450015
53.796129 -73.966789 41.120014
54.342939 -72.957088 40.877781
54.114429 -73.134869 42.126922
51.183073 -79.734897 34.386046
50.965406 -80.150379 35.775398
50.591423 -80.860885 34.529157
51.342665 -79.333969 33.005114
51.716648 -78.623462 34.251354
51.183073 -79.734897 34.386046
55.963409 -69.061138 35.033445
56.383003 -68.114364 34.757908
56.42469 -68.403369 36.058611
58.1844 -64.937423 36.097124
57.726112 -65.840187 36.43234
58.167433 -64.704537 34.837084
58.1844 -64.937423 36.097124
57.629829 -65.319786 33.888628
58.086214 -64.414872 33.555039
58.167433 -64.704537 34.837084
36.384119 -84.005253 49.892949
37.143603 -84.816993 49.313419
37.175019 -83.750736 50.297722
35.600547 -84.17569 49.572166
36.384119 -84.005253 49.892949
34.826938 -84.270256 49.094354
35.579094 -85.166077 48.430834
35.600547 -84.17569 49.572166
49.366684 -83.174095 34.749931
50.006832 -82.014457 34.640051
49.733608 -82.436004 36.028391
55.279736 -66.091752 24.739399
55.62051 -65.136429 24.508028
55.67524 -65.569595 25.762957
54.952557 -66.62339 23.66153
55.279736 -66.091752 24.739399
55.007286 -67.056557 24.916458
54.709682 -67.143898 22.593346
54.952557 -66.62339 23.66153
54.484203 -68.107105 22.719077
54.709682 -67.143898 22.593346
54.484203 -68.107105 22.719077
54.429703 -68.549976 23.978615
54.188286 -69.945099 25.401488
54.463255 -68.97892 25.246218
54.472242 -69.412262 26.529066
54.188286 -69.945099 25.401488
53.926963 -70.906246 25.514581
53.338871 -72.849235 25.742722
53.296966 -73.319931 27.06244
44.973861 -88.87008 39.971297
45.738811 -87.830849 40.104864
45.221401 -87.907296 41.320602
43.704797 -89.880703 40.903107
43.885238 -88.843636 42.29414
43.133585 -89.777813 42.010212
44.255203 -89.919747 39.755451
43.704797 -89.880703 40.903107
44.772614 -89.8433 38.539713
44.973861 -88.87008 39.971297
44.255203 -89.919747 39.755451
53.831194 -73.243145 43.278835
54.114429 -73.134869 42.126922
53.234224 -74.249104 43.526861
53.831194 -73.243145 43.278835
52.635523 -75.286301 43.747327
52.968918 -75.181767 42.589622
53.234224 -74.249104 43.526861
52.247469 -75.381585 44.907987
51.804078 -75.406658 45.935762
51.982163 -76.314247 43.970749
52.635523 -75.286301 43.747327
52.247469 -75.381585 44.907987
49.632845 -78.476112 46.539705
50.391008 -77.460724 46.352525
49.401304 -79.551071 45.683498
49.632845 -78.476112 46.539705
48.865963 -79.528008 46.698771
47.008486 -79.144588 49.358368
46.291309 -78.907734 50.010147
46.829102 -80.281914 48.658199
47.008486 -79.144588 49.358368
45.31573 -80.996364 49.525429
45.441887 -79.790142 50.116329
45.990403 -81.260166 48.730614
45.31573 -80.996364 49.525429
45.13209 -82.161507 48.776665
46.645462 -81.447056 47.909436
46.829102 -80.281914 48.658199
45.990403 -81.260166 48.730614
46.413758 -82.555534 47.013065
47.252457 -81.577281 46.940651
46.645462 -81.447056 47.909436
40.382745 -90.527195 43.099075
41.012219 -90.960792 42.180304
41.135294 -89.903424 43.614515
40.212841 -85.479394 48.785461
39.478859 -84.869045 49.393756
40.081353 -86.636272 47.752891
40.904636 -86.091343 48.069115
40.212841 -85.479394 48.785461
38.59473 -86.392098 48.022743
38.66203 -85.2934 49.093716
37.867203 -85.661175 48.647221
39.742498 -89.931721 43.969717
39.844905 -88.862125 45.338562
39.081583 -89.32402 44.774992
40.382745 -90.527195 43.099075
39.742498 -89.931721 43.969717
37.56615 -89.902019 43.51034
36.891393 -89.009209 44.316195
34.053324 -84.308933 48.73002
34.826938 -84.270256 49.094354
34.035288 -85.228886 47.448257
34.053324 -84.308933 48.73002
33.998078 -86.194549 46.099335
34.768275 -86.226307 46.6041
34.035288 -85.228886 47.448257
33.962757 -87.108986 44.642375
33.998078 -86.194549 46.099335
33.229771 -86.111565 45.486532
32.405597 -86.898953 43.47534
32.448106 -86.008671 45.008555
31.659252 -85.881623 44.454323
33.136452 -87.956745 42.446247
32.405597 -86.898953 43.47534
32.347598 -87.829697 41.892015
33.778019 -89.953896 39.918871
34.55164 -90.060669 40.600706
33.852074 -88.994262 41.544758
33.778019 -89.953896 39.918871
32.986593 -89.856395 39.210743
55.474007 -70.795246 39.1492
55.34404 -70.968097 40.378228
55.088047 -71.534992 38.115498
55.5518 -70.556984 37.858074
55.474007 -70.795246 39.1492
54.517447 -72.781131 39.638748
54.835747 -71.949211 40.645657
54.342939 -72.957088 40.877781
52.86771 -75.652603 31.220188
53.278473 -74.616272 31.066183
53.229801 -75.043991 32.424646
52.86771 -75.652603 31.220188
52.446297 -76.699257 31.34932
46.669597 -87.431912 37.540594
46.217388 -87.672257 38.835556
45.943482 -88.553288 37.460596
47.349062 -86.254074 37.578238
46.669597 -87.431912 37.540594
47.075156 -87.135106 36.203277
48.069708 -85.102699 37.551724
47.66415 -85.399506 38.88904
47.349062 -86.254074 37.578238
48.42404 -84.776455 36.189596
48.739128 -83.921886 37.500399
48.069708 -85.102699 37.551724
48.750244 -84.364044 34.81541
48.42404 -84.776455 36.189596
49.366684 -83.174095 34.749931
48.750244 -84.364044 34.81541
3 0 22 20
3 1 25 23
3 2 28 26
3 2 80 82
3 82 81 28
3 80 81 82
3 84 83 29
3 1 31 30
3 1 23 31
3 4 35 33
3 4 36 35
3 3 39 37
3 86 85 40
3 87 44 88
3 89 88 42
3 87 88 89
3 6 45 19
3 6 46 45
3 90 47 91
3 92 42 93
3 94 93 47
3 92 93 94
3 7 50 48
3 9 51 21
3 9 52 51
3 10 95 96
3 11 53 24
3 11 97 99
3 99 98 53
3 97 98 99
3 5 54 43
3 12 55 27
3 12 100 102
3 102 101 55
3 100 101 102
3 12 103 104
3 13 58 56
3 10 105 106
3 10 107 108
3 109 59 110
3 111 60 112
3 113 112 59
3 111 112 113
3 114 61 115
3 116 62 117
3 118 117 61
3 116 117 118
3 119 63 120
3 14 121 123
3 121 64 122
3 121 122 123
3 14 65 64
3 14 66 65
3 15 67 32
3 15 68 67
3 124 69 125
3 16 70 34
3 16 126 128
3 128 127 70
3 126 127 128
3 16 129 130
3 17 131 132
3 17 133 134
3 135 71 136
3 137 72 138
3 141 140 72
3 139 140 141
3 142 73 143
3 18 74 38
3 18 75 74
3 8 76 49
3 144 77 145
3 146 145 41
3 144 145 146
3 147 78 148
3 149 148 77
3 147 148 149
3 151 150 78
3 152 79 153
3 154 153 57
3 152 153 154
3 155 19 156
3 157 19 158
3 159 6 160
3 161 160 19
3 159 160 161
3 20 21 7
3 22 21 20
3 22 9 21
3 23 24 10
3 25 24 23
3 25 11 24
3 26 27 5
3 28 27 26
3 28 12 27
3 28 162 164
3 164 163 12
3 162 163 164
3 166 165 28
3 29 167 169
3 169 168 13
3 167 168 169
3 171 170 29
3 30 172 173
3 31 174 176
3 176 175 30
3 174 175 176
3 31 177 178
3 31 179 180
3 23 181 183
3 183 182 31
3 181 182 183
3 23 184 186
3 184 10 185
3 184 185 186
3 187 14 188
3 189 32 190
3 191 190 14
3 189 190 191
3 192 32 193
3 194 15 195
3 196 195 32
3 194 195 196
3 33 197 199
3 197 34 198
3 197 198 199
3 35 34 33
3 35 16 34
3 35 200 202
3 202 201 16
3 200 201 202
3 36 203 205
3 205 204 35
3 203 204 205
3 36 206 208
3 206 17 207
3 206 207 208
3 37 209 211
3 209 38 210
3 209 210 211
3 39 38 37
3 39 18 38
3 40 41 8
3 212 41 213
3 214 213 40
3 212 213 214
3 217 216 41
3 215 216 217
3 42 43 1
3 44 43 42
3 44 5 43
3 19 218 220
3 218 44 219
3 218 219 220
3 45 44 19
3 45 5 44
3 45 26 5
3 46 26 45
3 46 2 26
3 47 221 222
3 47 223 224
3 47 225 227
3 225 30 226
3 225 226 227
3 42 30 47
3 42 1 30
3 228 33 229
3 228 229 230
3 231 33 232
3 233 4 234
3 235 234 33
3 233 234 235
3 48 49 3
3 50 49 48
3 50 8 49
3 21 50 7
3 51 50 21
3 51 8 50
3 51 40 8
3 52 40 51
3 52 236 238
3 238 237 40
3 236 237 238
3 24 239 241
3 241 240 10
3 239 240 241
3 53 242 244
3 244 243 24
3 242 243 244
3 53 245 246
3 53 247 248
3 250 249 53
3 43 25 1
3 54 25 43
3 54 11 25
3 27 54 5
3 55 54 27
3 55 11 54
3 55 251 253
3 253 252 11
3 251 252 253
3 255 254 55
3 257 256 12
3 56 57 0
3 58 57 56
3 58 258 260
3 260 259 57
3 258 259 260
3 261 58 262
3 263 262 13
3 261 262 263
3 264 58 265
3 268 267 58
3 266 267 268
3 269 37 270
3 271 37 272
3 273 3 274
3 275 274 37
3 273 274 275
3 59 276 277
3 59 278 280
3 278 3 279
3 278 279 280
3 59 48 3
3 60 48 59
3 60 7 48
3 281 60 282
3 61 283 285
3 283 60 284
3 283 284 285
3 61 7 60
3 61 20 7
3 62 20 61
3 62 0 20
3 63 286 287
3 63 288 289
3 290 63 291
3 64 292 294
3 292 63 293
3 292 293 294
3 64 295 297
3 297 296 63
3 295 296 297
3 64 298 300
3 298 62 299
3 298 299 300
3 65 62 64
3 65 0 62
3 65 56 0
3 66 56 65
3 66 13 56
3 32 66 14
3 67 66 32
3 67 13 66
3 67 29 13
3 68 29 67
3 68 301 303
3 303 302 29
3 301 302 303
3 69 304 305
3 69 306 308
3 306 15 307
3 306 307 308
3 34 309 311
3 309 69 310
3 309 310 311
3 70 69 34
3 70 15 69
3 70 68 15
3 312 68 313
3 314 313 70
3 312 313 314
3 316 315 68
3 318 317 16
3 319 4 320
3 321 4 322
3 323 36 324
3 325 324 4
3 323 324 325
3 71 326 328
3 326 36 327
3 326 327 328
3 71 17 36
3 329 71 330
3 329 330 331
3 72 332 334
3 332 71 333
3 332 333 334
3 72 17 71
3 72 335 337
3 337 336 17
3 335 336 337
3 339 338 72
3 73 340 341
3 73 342 344
3 342 6 343
3 342 343 344
3 38 345 347
3 345 73 346
3 345 346 347
3 74 73 38
3 74 6 73
3 74 46 6
3 75 46 74
3 75 2 46
3 49 39 3
3 76 39 49
3 76 18 39
3 41 76 8
3 77 76 41
3 77 18 76
3 77 75 18
3 78 75 77
3 78 2 75
3 78 348 350
3 350 349 2
3 348 349 350
3 352 351 78
3 57 22 0
3 79 22 57
3 79 9 22
3 353 79 354
3 353 354 355
3 356 79 357
3 356 357 358
3 359 9 360
3 361 360 79
3 359 360 361
3 362 52 363
3 364 363 9
3 362 363 364
3 365 52 366
3 368 367 52
