ply
format ascii 1.0
element vertex 612
property float x
property float y
property float z
element face 482
property list uchar int vertex_index
end_header
-5.608297 -32.789238 87.557388
-10.060095 -39.567963 86.52063
-13.801612 -31.924463 82.372612
-0.399723 -13.473104 84.756157
-2.247421 -14.270407 87.031746
-13.476032 -41.748566 85.947708
0.836246 -12.941881 71.652069
0.218931 -38.837097 77.934677
-4.837685 -27.697586 88.350006
-2.098106 -49.157444 82.861549
-3.752539 -53.187523 84.982323
1.126669 -13.095175 76.524101
0.713388 -13.161424 81.080406
-7.314684 -36.752594 86.839233
-3.725283 -37.710873 88.439827
-4.817947 -15.551579 87.694359
-8.168959 -22.789295 87.388237
-8.564854 -27.986429 86.609467
-12.657084 -28.087723 84.045067
-9.52602 -32.393372 85.253891
-14.418142 -38.166809 84.076515
-0.615904 -26.020967 69.085541
0.976744 -38.979362 82.75676
-2.635521 -49.229439 77.938477
-5.127413 -30.36459 87.994286
-3.847771 -32.932014 88.287468
-3.167683 -50.902809 85.953239
-4.2495 -52.703026 86.667641
-5.37252 -54.380451 87.015785
-8.570438 -38.282654 86.650352
-6.63154 -38.92865 87.67263
-8.073704 -40.333832 87.584671
-10.107763 -23.188982 86.491409
-8.323652 -25.466335 87.130623
-10.302355 -25.701097 86.074097
-10.996395 -30.224926 84.600159
-11.627764 -32.161633 83.850052
-10.359457 -34.208252 84.696236
-12.522989 -33.845222 83.282074
0.056635 -29.458168 72.472672
0.149475 -26.246237 71.710358
-0.765587 -29.247017 69.808258
-4.697077 -18.742825 88.17836
-3.289675 -40.153923 88.804787
0.401817 -41.739632 83.729118
0.236353 -41.753822 81.511536
-2.85807 -51.454163 81.798149
-2.273895 -49.246979 80.490662
-3.003658 -51.523983 79.339188
-1.230335 -13.804432 86.092583
-11.720726 -40.691067 86.33242
-9.704342 -41.540459 87.431755
0.380581 -16.228094 69.796997
-0.064127 -32.612175 73.316025
-0.235971 -35.698097 74.256531
-1.337088 -46.534561 85.793701
-2.1472 -48.936272 84.972832
-2.902626 -51.255054 84.029266
-3.465633 -53.503643 82.941727
1.006433 -13.11841 78.875488
0.246351 -13.267254 83.064743
-6.327345 -34.925911 87.146545
-4.507673 -35.249428 88.011337
-5.433853 -37.24781 87.79953
-4.859587 -39.562012 88.422188
-8.902575 -54.103378 87.716911
-6.450239 -13.127294 86.911369
-6.347256 -16.299963 87.484673
-6.310707 -19.369631 87.895729
-9.820408 -17.788305 86.31311
-8.070036 -19.983269 87.336258
-6.442894 -25.175701 87.97171
-6.641665 -27.865229 87.618767
-6.979801 -30.35807 87.093346
-10.577341 -28.058857 85.396439
-8.945086 -30.309486 85.935631
-7.511753 -32.606594 86.516815
-8.287474 -34.573574 86.011101
-9.334833 -36.246918 85.654716
-10.647165 -37.649525 85.451523
-12.839386 -37.049103 84.161499
-12.181364 -38.83987 85.325287
-13.867431 -39.902122 85.143288
1.070997 -13.048871 74.095917
0.310503 -19.638586 70.382004
0.231802 -22.975561 71.016479
-3.446728 -14.861729 87.559502
-2.864975 -35.529472 88.514282
0.719082 -38.933132 80.441963
-0.182678 -41.69392 79.069199
-4.606618 -52.373127 87.300057
-3.960697 -51.542469 87.080815
-5.168128 -53.211839 87.474129
-4.81101 -53.541739 86.841713
-4.606618 -52.373127 87.300057
-11.119654 -23.354316 85.966
-11.02055 -22.114525 86.076225
-11.21695 -24.610374 85.757343
-10.205059 -24.44504 86.282753
-11.119654 -23.354316 85.966
-13.458449 -31.019664 82.76371
-14.545856 -30.958163 82.012642
-12.714688 -32.043048 83.111332
-12.371525 -31.13825 83.50243
-13.458449 -31.019664 82.76371
-0.845719 -30.827223 70.219486
-0.354476 -29.352593 71.140465
-0.434609 -30.932799 71.551693
-1.322218 -30.6765 68.887161
-0.845719 -30.827223 70.219486
-3.914857 -20.050472 88.349853
-4.674193 -20.294218 88.324528
-2.624734 -40.414964 88.774147
-3.244903 -41.361832 88.929158
0.013219 -43.001648 84.244354
0.340261 -41.687326 84.681942
-0.006265 -43.055993 83.19453
0.013219 -43.001648 84.244354
-3.186653 -52.597374 79.980495
-2.930864 -51.489073 80.568669
-3.113859 -52.562464 81.209976
-3.219167 -52.61896 78.718788
-3.186653 -52.597374 79.980495
-1.738878 -14.03742 86.562164
-1.878811 -12.34201 86.211239
-2.387354 -12.574998 86.68082
-1.600066 -15.72495 86.908394
-1.091523 -15.491962 86.438813
-1.738878 -14.03742 86.562164
-12.463453 -42.197117 86.515778
-11.5858 -41.668368 86.708134
-12.598379 -41.219816 86.140064
0.631851 -12.843479 70.447654
0.830349 -11.173064 71.345161
0.608414 -14.584988 70.724533
0.404019 -14.486586 69.520118
0.631851 -12.843479 70.447654
0.298316 -32.680982 74.649231
0.341453 -31.099469 74.227158
0.212394 -34.223943 75.119484
-0.150049 -34.155136 73.786278
0.298316 -32.680982 74.649231
-0.130922 -38.765829 76.62196
0.356548 -37.340246 77.421543
-0.296598 -40.204991 77.20774
-0.130922 -38.765829 76.62196
-4.013652 -27.595712 88.539211
-4.764423 -26.269747 88.43869
-1.893405 -47.548509 86.268166
-1.538512 -46.345574 86.579735
-2.298461 -48.749365 85.857731
-1.742144 -47.735416 85.383266
-1.893405 -47.548509 86.268166
-3.92566 -54.303514 84.401913
-3.782207 -54.461574 83.381615
-3.609086 -53.345583 83.962025
0.859911 -13.139917 79.977947
0.772974 -11.414521 79.587959
0.626451 -11.436028 80.690418
0.937968 -14.841451 80.360905
1.08449 -14.819944 79.258445
0.859911 -13.139917 79.977947
-0.076686 -13.370179 83.91045
-0.209371 -11.656337 83.522969
-0.532408 -11.759262 84.368675
-5.553394 -40.33688 88.423351
-5.745564 -39.245331 88.047409
-6.43937 -40.020199 88.048573
-4.735399 -40.715527 88.682598
-5.553394 -40.33688 88.423351
-8.771527 -41.984051 87.893058
-9.635053 -42.571785 87.760353
-9.587024 -53.557983 87.58879
-8.774947 -52.86381 88.094776
-9.659673 -54.829759 87.156742
-9.587024 -53.557983 87.58879
-7.272644 -11.990591 86.350441
-6.531912 -11.487196 86.582782
-7.183477 -16.680247 87.24186
-7.186349 -15.160036 86.968483
-7.165202 -18.21508 87.447388
-6.328981 -17.834797 87.690201
-7.183477 -16.680247 87.24186
-10.777541 -18.11755 85.904808
-10.680972 -16.759687 85.656937
-8.119497 -21.386282 87.362247
-9.010812 -20.265772 86.953354
-9.060273 -21.668785 86.979343
-7.254698 -22.561369 87.729503
-7.205236 -21.158356 87.703514
-8.119497 -21.386282 87.362247
-7.305926 -23.982498 87.679974
-6.391666 -23.754572 88.02124
-7.254698 -22.561369 87.729503
-13.558701 -27.044539 83.797291
-13.723076 -28.085747 83.326268
-12.505607 -26.982529 84.454552
-13.558701 -27.044539 83.797291
-11.617213 -28.07329 84.720753
-11.465736 -26.968096 85.130238
-12.505607 -26.982529 84.454552
-10.401912 -35.99857 84.995452
-9.847145 -35.227585 85.175476
-10.914224 -34.979236 84.516212
-11.058077 -36.699873 84.893856
-9.990999 -36.948222 85.553119
-10.401912 -35.99857 84.995452
-13.628764 -37.607956 84.119007
-13.985032 -36.771892 83.504341
-14.77441 -37.330745 83.461849
1.098833 -13.072023 75.310009
1.062618 -11.32481 74.951713
1.090454 -11.347962 76.165806
0.562005 -19.715068 71.656105
0.569014 -18.02189 71.328919
-0.542885 -24.374322 68.767983
-0.119032 -22.851619 69.733452
-0.192051 -24.498264 70.05101
-1.044185 -25.842237 67.802826
-0.542885 -24.374322 68.767983
-4.132338 -15.206654 87.626931
-4.22517 -13.569078 87.322365
-4.91078 -13.914003 87.389793
1.189011 -37.521347 83.384049
0.965672 -38.972675 83.775025
1.164259 -37.500774 82.309444
1.189011 -37.521347 83.384049
0.847913 -38.956247 81.599362
1.035428 -37.477659 81.152046
1.164259 -37.500774 82.309444
-0.447908 -43.036551 79.68449
0.026838 -41.723871 80.290368
-0.238393 -43.066502 80.905659
-0.706744 -42.99888 78.415207
-0.447908 -43.036551 79.68449
-1.728804 -48.013345 82.224243
-1.658176 -47.962006 83.350868
-2.180148 -48.047277 78.527977
-1.999335 -48.056048 79.804069
-2.454708 -49.238209 79.21457
-2.452385 -48.00246 77.222359
-2.180148 -48.047277 78.527977
-2.886013 -49.177505 76.605179
-2.452385 -48.00246 77.222359
-2.970162 -12.892741 86.968708
-2.387354 -12.574998 86.68082
-13.35883 -42.747486 86.18805
-14.365545 -42.289917 85.600941
0.935583 -11.235686 72.539879
0.830349 -11.173064 71.345161
0.627926 -37.392948 78.700794
0.356548 -37.340246 77.421543
-4.275259 -30.346668 88.275418
-4.130395 -29.013167 88.453277
-4.982549 -29.031088 88.172146
-3.635438 -31.630381 88.422009
-4.275259 -30.346668 88.275418
-4.487592 -31.648302 88.140877
-3.058713 -32.980917 88.455723
-3.635438 -31.630381 88.422009
-3.419789 -50.64236 86.723613
-2.808702 -49.732633 86.347935
-3.708591 -51.802917 86.31044
-3.419789 -50.64236 86.723613
-3.960697 -51.542469 87.080815
-4.444254 -53.845332 86.142701
-4.195774 -54.08758 85.300041
-4.001019 -52.945274 85.824982
-5.005764 -54.684044 86.316772
-4.444254 -53.845332 86.142701
-4.81101 -53.541739 86.841713
-5.469416 -55.534643 86.437443
-5.005764 -54.684044 86.316772
0.367173 -11.495538 81.679004
0.626451 -11.436028 80.690418
0.051767 -15.066793 84.296196
-0.259652 -15.167671 85.12698
-7.160452 -40.72279 88.004593
-6.43937 -40.020199 88.048573
-7.352622 -39.631241 87.62865
-10.029675 -21.868628 86.530929
-11.02055 -22.114525 86.076225
-9.138361 -22.989138 86.939823
-9.060273 -21.668785 86.979343
-10.029675 -21.868628 86.530929
-12.886185 -29.101295 83.599938
-13.723076 -28.085747 83.326268
-12.05584 -30.169896 83.877484
-11.826739 -29.156325 84.322613
-12.886185 -29.101295 83.599938
-11.312079 -31.19328 84.225106
-12.05584 -30.169896 83.877484
-12.371525 -31.13825 83.50243
-11.99599 -34.797722 83.809132
-10.914224 -34.979236 84.516212
-11.441223 -34.026737 83.989155
-15.586835 -37.862224 83.454147
-14.77441 -37.330745 83.461849
-15.273218 -38.676414 84.004894
-15.586835 -37.862224 83.454147
1.118269 -14.791701 75.652306
1.174384 -14.804108 76.890682
0.103055 -27.852203 72.091515
0.467044 -26.309224 73.033379
0.420624 -27.91519 73.414536
-1.221571 -29.083789 68.496113
-1.146729 -27.470764 68.134754
-0.690746 -27.633992 69.4469
-1.221571 -29.083789 68.496113
-1.322218 -30.6765 68.887161
-3.974945 -18.44334 88.147697
-4.03538 -16.847717 87.905697
-4.757512 -17.147202 87.93636
-3.974945 -18.44334 88.147697
-3.914857 -20.050472 88.349853
-2.758704 -39.137138 88.738766
-2.976508 -37.915613 88.556286
-3.507479 -38.932398 88.622307
-2.093762 -39.39818 88.708126
-2.758704 -39.137138 88.738766
-2.624734 -40.414964 88.774147
0.678209 -40.35281 84.261203
0.340261 -41.687326 84.681942
0.68928 -40.359497 83.242939
0.965672 -38.972675 83.775025
0.678209 -40.35281 84.261203
-0.088997 -43.063087 82.08574
0.319085 -41.746727 82.620327
-0.006265 -43.055993 83.19453
-0.238393 -43.066502 80.905659
-0.088997 -43.063087 82.08574
-3.151738 -51.506574 78.032158
-2.967669 -50.359302 77.331803
-2.81959 -50.376711 78.638833
-3.151738 -51.506574 78.032158
-3.219167 -52.61896 78.718788
-0.957766 -11.931328 85.051952
-0.532408 -11.759262 84.368675
-1.373072 -12.096992 85.720166
-1.878811 -12.34201 86.211239
-0.815029 -13.638768 85.42437
-0.957766 -11.931328 85.051952
-1.373072 -12.096992 85.720166
-0.674958 -15.333335 85.795193
-0.259652 -15.167671 85.12698
-0.815029 -13.638768 85.42437
-0.674958 -15.333335 85.795193
-1.091523 -15.491962 86.438813
-10.577608 -42.093063 87.257801
-10.712534 -41.115763 86.882087
-11.5858 -41.668368 86.708134
-9.635053 -42.571785 87.760353
-10.577608 -42.093063 87.257801
-12.463453 -42.197117 86.515778
-13.35883 -42.747486 86.18805
-14.919814 -31.809198 81.622387
-14.545856 -30.958163 82.012642
-14.28313 -32.711055 82.102092
-14.919814 -31.809198 81.622387
0.084383 -16.078747 68.591679
0.404019 -14.486586 69.520118
0.024913 -17.79575 68.843552
0.084383 -16.078747 68.591679
0.401834 -29.522466 73.805481
0.420624 -27.91519 73.414536
-0.003746 -31.035172 72.894349
0.401834 -29.522466 73.805481
0.341453 -31.099469 74.227158
-0.49499 -32.509802 71.973369
-0.434609 -30.932799 71.551693
-0.003746 -31.035172 72.894349
-0.587257 -34.054371 72.440853
-0.49499 -32.509802 71.973369
-0.673179 -35.597332 72.911106
-0.587257 -34.054371 72.440853
-0.150049 -34.155136 73.786278
-0.78475 -37.098984 73.44033
-0.673179 -35.597332 72.911106
0.129097 -35.770746 75.58247
0.212394 -34.223943 75.119484
-0.358374 -37.196329 74.782886
0.129097 -35.770746 75.58247
-0.78475 -37.098984 73.44033
-0.358374 -37.196329 74.782886
-4.013652 -27.595712 88.539211
-4.130395 -29.013167 88.453277
-0.981915 -45.28447 86.153171
-1.538512 -46.345574 86.579735
-0.856233 -45.399113 85.276646
-0.981915 -45.28447 86.153171
-1.277667 -46.650564 84.816944
-0.856233 -45.399113 85.276646
-1.682723 -47.85142 84.406509
-1.277667 -46.650564 84.816944
-1.742144 -47.735416 85.383266
-2.122653 -49.046858 83.917191
-1.658176 -47.962006 83.350868
-1.682723 -47.85142 84.406509
-2.657442 -49.91954 85.463035
-2.298461 -48.749365 85.857731
-2.808702 -49.732633 86.347935
-3.417641 -53.587204 81.781765
-3.113859 -52.562464 81.209976
-3.161852 -52.478903 82.369938
-3.605558 -54.595804 82.317882
-3.417641 -53.587204 81.781765
-3.605558 -54.595804 82.317882
-3.782207 -54.461574 83.381615
-3.92566 -54.303514 84.401913
-4.195774 -54.08758 85.300041
1.006495 -11.371763 77.322178
1.090454 -11.347962 76.165806
0.946376 -11.383381 78.497872
0.772974 -11.414521 79.587959
1.066551 -13.106793 77.699794
1.006495 -11.371763 77.322178
0.946376 -11.383381 78.497872
1.114266 -14.815726 78.066375
1.174384 -14.804108 76.890682
1.066551 -13.106793 77.699794
1.114266 -14.815726 78.066375
1.08449 -14.819944 79.258445
0.133654 -11.548453 82.671173
-0.209371 -11.656337 83.522969
0.47987 -13.214339 82.072575
0.367173 -11.495538 81.679004
0.133654 -11.548453 82.671173
0.374804 -14.963868 83.450489
-0.076686 -13.370179 83.91045
0.051767 -15.066793 84.296196
0.586341 -14.912241 82.462315
0.374804 -14.963868 83.450489
0.819859 -14.859326 81.470146
0.47987 -13.214339 82.072575
0.586341 -14.912241 82.462315
0.937968 -14.841451 80.360905
0.819859 -14.859326 81.470146
-3.950443 -41.011482 88.873897
-4.074631 -39.857968 88.613488
-4.735399 -40.715527 88.682598
-3.905672 -42.219391 88.998268
-3.244903 -41.361832 88.929158
-3.950443 -41.011482 88.873897
-7.956207 -41.380738 87.969516
-8.889023 -40.937145 87.508213
-8.771527 -41.984051 87.893058
-7.160452 -40.72279 88.004593
-7.956207 -41.380738 87.969516
-8.147609 -53.386852 88.082363
-8.774947 -52.86381 88.094776
-8.275575 -54.604339 87.635243
-8.147609 -53.386852 88.082363
-8.96262 -55.348906 87.217735
-8.275575 -54.604339 87.635243
-8.96262 -55.348906 87.217735
-9.659673 -54.829759 87.156742
-5.726926 -12.70186 86.998299
-6.531912 -11.487196 86.582782
-5.634093 -14.339436 87.302864
-4.91078 -13.914003 87.389793
-5.726926 -12.70186 86.998299
-7.23784 -13.573701 86.681831
-7.272644 -11.990591 86.350441
-6.398747 -14.713629 87.198021
-7.23784 -13.573701 86.681831
-7.186349 -15.160036 86.968483
-5.481008 -20.60762 88.183212
-4.674193 -20.294218 88.324528
-5.503892 -19.056228 88.037045
-9.77221 -16.345975 86.051033
-10.680972 -16.759687 85.656937
-8.920053 -17.424418 86.656078
-9.77221 -16.345975 86.051033
-9.885998 -19.16829 86.44178
-10.777541 -18.11755 85.904808
-8.945222 -18.885787 86.824684
-9.885998 -19.16829 86.44178
-9.010812 -20.265772 86.953354
-8.044867 -18.521899 87.167652
-8.920053 -17.424418 86.656078
-8.945222 -18.885787 86.824684
-7.190371 -19.67645 87.615994
-7.165202 -18.21508 87.447388
-8.044867 -18.521899 87.167652
-6.325572 -20.851537 87.983249
-7.190371 -19.67645 87.615994
-7.205236 -21.158356 87.703514
-5.481008 -20.60762 88.183212
-6.325572 -20.851537 87.983249
-5.567028 -25.008805 88.249542
-6.391666 -23.754572 88.02124
-5.640289 -26.436644 88.160858
-4.764423 -26.269747 88.43869
-5.567028 -25.008805 88.249542
-11.328242 -25.789216 85.469067
-11.21695 -24.610374 85.757343
-10.439848 -26.879977 85.735268
-11.328242 -25.789216 85.469067
-11.465736 -26.968096 85.130238
-13.643818 -33.671434 82.556824
-13.162301 -32.884842 82.827343
-14.28313 -32.711055 82.102092
-13.111031 -34.561676 83.120327
-13.643818 -33.671434 82.556824
-11.99599 -34.797722 83.809132
-13.111031 -34.561676 83.120327
-13.269229 -36.163617 83.56004
-13.985032 -36.771892 83.504341
-12.154188 -36.399662 84.248844
-13.269229 -36.163617 83.56004
-11.743275 -37.349314 84.806511
-11.058077 -36.699873 84.893856
-12.154188 -36.399662 84.248844
-14.997863 -39.544071 84.53828
-14.142786 -39.034465 84.609902
-15.273218 -38.676414 84.004894
-14.746633 -40.415543 84.951424
-14.997863 -39.544071 84.53828
-14.550934 -41.338764 85.353634
-13.671731 -40.825344 85.545498
-14.746633 -40.415543 84.951424
-14.365545 -42.289917 85.600941
-14.550934 -41.338764 85.353634
1.052958 -11.289181 73.761803
1.062618 -11.32481 74.951713
0.953622 -12.995376 72.873993
0.935583 -11.235686 72.539879
1.052958 -11.289181 73.761803
1.090433 -14.768549 74.438214
1.098833 -13.072023 75.310009
1.118269 -14.791701 75.652306
0.949261 -14.727033 73.185875
1.090433 -14.768549 74.438214
0.831886 -14.673538 71.963951
0.953622 -12.995376 72.873993
0.949261 -14.727033 73.185875
0.604054 -16.316644 71.036415
0.608414 -14.584988 70.724533
0.831886 -14.673538 71.963951
0.345542 -17.93334 70.0895
0.604054 -16.316644 71.036415
0.569014 -18.02189 71.328919
-0.010126 -19.500996 69.136055
0.024913 -17.79575 68.843552
0.345542 -17.93334 70.0895
0.475194 -24.677982 72.666511
0.467044 -26.309224 73.033379
0.516358 -23.042645 72.319572
0.475194 -24.677982 72.666511
0.190638 -24.610899 71.363418
0.522655 -21.383555 71.973343
0.516358 -23.042645 72.319572
0.271153 -21.307074 70.699241
0.562005 -19.715068 71.656105
0.522655 -21.383555 71.973343
-0.079682 -21.183131 69.416214
0.271153 -21.307074 70.699241
-0.119032 -22.851619 69.733452
-0.010126 -19.500996 69.136055
-0.079682 -21.183131 69.416214
-1.044185 -25.842237 67.802826
-1.146729 -27.470764 68.134754
-3.569816 -13.188402 87.232586
-4.22517 -13.569078 87.322365
-2.847074 -14.566068 87.295624
-2.970162 -12.892741 86.968708
-3.569816 -13.188402 87.232586
-3.34977 -16.502792 87.838268
-4.132338 -15.206654 87.626931
-4.03538 -16.847717 87.905697
-2.723058 -16.237043 87.610093
-3.34977 -16.502792 87.838268
-2.123404 -15.941381 87.346215
-2.847074 -14.566068 87.295624
-2.723058 -16.237043 87.610093
-1.600066 -15.72495 86.908394
-2.123404 -15.941381 87.346215
-2.567315 -34.279646 88.56913
-3.058713 -32.980917 88.455723
-3.356373 -34.230743 88.400875
-2.546353 -36.824913 88.593514
-3.295129 -36.620172 88.477054
-2.976508 -37.915613 88.556286
-2.152845 -35.642048 88.546307
-2.546353 -36.824913 88.593514
-1.834224 -36.937489 88.625538
-1.855186 -34.392221 88.601155
-2.567315 -34.279646 88.56913
-2.152845 -35.642048 88.546307
0.878002 -37.440966 79.954437
1.035428 -37.477659 81.152046
0.469006 -38.885115 79.18832
0.627926 -37.392948 78.700794
0.878002 -37.440966 79.954437
-0.497402 -41.633402 77.775002
-0.296598 -40.204991 77.20774
0.018126 -40.265508 78.501938
-0.497402 -41.633402 77.775002
-0.706744 -42.99888 78.415207
-1.816699 -48.058113 81.0388
-1.728804 -48.013345 82.224243
-2.186001 -49.202212 81.676106
-1.816699 -48.058113 81.0388
-1.999335 -48.056048 79.804069
-2.886013 -49.177505 76.605179
-2.967669 -50.359302 77.331803
-5.83368 -53.990818 87.491096
-5.168128 -53.211839 87.474129
-5.95109 -55.178703 86.975479
-5.83368 -53.990818 87.491096
-5.469416 -55.534643 86.437443
-5.95109 -55.178703 86.975479
3 0 25 24
3 90 27 91
3 92 28 93
3 94 93 27
3 92 93 94
3 1 31 29
3 95 32 96
3 97 34 98
3 99 98 32
3 97 98 99
3 2 100 101
3 2 102 104
3 102 36 103
3 102 103 104
3 2 38 36
3 105 41 106
3 107 106 39
3 105 106 107
3 109 108 41
3 111 110 42
3 113 112 43
3 114 44 115
3 117 116 44
3 118 48 119
3 120 119 46
3 118 119 120
3 122 121 48
3 4 123 125
3 123 49 124
3 123 124 125
3 4 126 128
3 128 127 49
3 126 127 128
3 5 129 131
3 131 130 50
3 129 130 131
3 6 132 133
3 6 134 136
3 134 52 135
3 134 135 136
3 137 53 138
3 139 54 140
3 141 140 53
3 139 140 141
3 7 142 143
3 7 144 145
3 8 146 147
3 148 55 149
3 150 56 151
3 152 151 55
3 150 151 152
3 10 57 26
3 10 58 57
3 10 153 155
3 155 154 58
3 153 154 155
3 12 156 158
3 156 59 157
3 156 157 158
3 12 159 161
3 161 160 59
3 159 160 161
3 3 162 164
3 162 60 163
3 162 163 164
3 13 63 61
3 165 64 166
3 167 166 30
3 165 166 167
3 169 168 64
3 171 170 51
3 172 65 173
3 175 174 65
3 176 66 177
3 178 67 179
3 180 68 181
3 182 181 67
3 180 181 182
3 183 69 184
3 16 185 187
3 185 70 186
3 185 186 187
3 16 188 190
3 190 189 70
3 188 189 190
3 16 191 193
3 191 71 192
3 191 192 193
3 17 72 33
3 17 73 72
3 18 194 195
3 18 196 197
3 18 198 200
3 198 74 199
3 198 199 200
3 19 75 35
3 19 76 75
3 19 77 76
3 201 78 202
3 203 202 37
3 201 202 203
3 204 79 205
3 206 205 78
3 204 205 206
3 20 207 209
3 207 80 208
3 207 208 209
3 20 81 80
3 20 82 81
3 11 210 212
3 210 83 211
3 210 211 212
3 213 84 214
3 21 85 40
3 21 215 217
3 217 216 85
3 215 216 217
3 21 218 219
3 15 220 222
3 220 86 221
3 220 221 222
3 14 87 62
3 22 223 224
3 22 225 226
3 22 227 229
3 227 88 228
3 227 228 229
3 230 89 231
3 232 231 45
3 230 231 232
3 234 233 89
3 9 235 236
3 23 237 239
3 239 238 47
3 237 238 239
3 23 240 241
3 23 242 243
3 244 4 245
3 247 246 5
3 248 6 249
3 250 7 251
3 24 252 254
3 254 253 8
3 252 253 254
3 25 255 257
3 257 256 24
3 255 256 257
3 25 258 259
3 260 26 261
3 27 262 264
3 262 26 263
3 262 263 264
3 27 10 26
3 27 265 267
3 267 266 10
3 265 266 267
3 28 268 270
3 270 269 27
3 268 269 270
3 28 271 272
3 273 12 274
3 276 275 3
3 29 30 13
3 31 30 29
3 31 277 279
3 279 278 30
3 277 278 279
3 32 280 281
3 32 282 284
3 282 16 283
3 282 283 284
3 32 33 16
3 34 33 32
3 34 17 33
3 285 18 286
3 287 35 288
3 289 288 18
3 287 288 289
3 36 290 292
3 290 35 291
3 290 291 292
3 36 19 35
3 36 37 19
3 38 37 36
3 38 293 295
3 295 294 37
3 293 294 295
3 296 20 297
3 299 298 20
3 301 300 11
3 39 302 304
3 302 40 303
3 302 303 304
3 41 40 39
3 41 21 40
3 41 305 307
3 307 306 21
3 305 306 307
3 309 308 41
3 42 310 312
3 312 311 15
3 310 311 312
3 314 313 42
3 43 315 317
3 317 316 14
3 315 316 317
3 320 319 43
3 318 319 320
3 44 321 322
3 44 323 325
3 323 22 324
3 323 324 325
3 44 45 22
3 326 45 327
3 328 327 44
3 326 327 328
3 330 329 45
3 46 47 9
3 48 47 46
3 48 23 47
3 48 331 333
3 333 332 23
3 331 332 333
3 335 334 48
3 336 3 337
3 49 338 339
3 49 340 342
3 340 3 341
3 340 341 342
3 49 343 345
3 345 344 3
3 343 344 345
3 347 346 49
3 50 51 1
3 348 51 349
3 350 349 50
3 348 349 350
3 352 351 51
3 354 353 5
3 355 2 356
3 358 357 2
3 52 359 360
3 52 361 362
3 363 39 364
3 53 365 367
3 365 39 366
3 365 366 367
3 53 368 370
3 370 369 39
3 368 369 370
3 53 371 372
3 54 373 375
3 375 374 53
3 373 374 375
3 54 376 377
3 378 54 379
3 380 54 381
3 383 382 54
3 385 384 8
3 55 386 387
3 55 388 389
3 55 390 391
3 56 392 394
3 394 393 55
3 392 393 394
3 56 395 397
3 395 9 396
3 395 396 397
3 26 398 400
3 398 56 399
3 398 399 400
3 57 56 26
3 57 9 56
3 57 46 9
3 58 46 57
3 58 401 403
3 403 402 46
3 401 402 403
3 58 404 405
3 407 406 58
3 409 408 10
3 410 11 411
3 59 412 413
3 59 414 416
3 414 11 415
3 414 415 416
3 59 417 419
3 419 418 11
3 417 418 419
3 421 420 59
3 60 422 423
3 60 424 426
3 424 12 425
3 424 425 426
3 427 60 428
3 429 428 3
3 427 428 429
3 430 60 431
3 432 12 433
3 434 433 60
3 432 433 434
3 436 435 12
3 61 62 0
3 63 62 61
3 63 14 62
3 30 63 13
3 64 63 30
3 64 14 63
3 64 43 14
3 437 43 438
3 439 438 64
3 437 438 439
3 442 441 43
3 440 441 442
3 51 31 1
3 443 31 444
3 445 444 51
3 443 444 445
3 447 446 31
3 65 448 449
3 65 450 451
3 65 452 453
3 455 454 65
3 66 456 457
3 66 458 460
3 458 15 459
3 458 459 460
3 461 66 462
3 67 463 465
3 463 66 464
3 463 464 465
3 67 15 66
3 67 42 15
3 68 42 67
3 68 466 468
3 468 467 42
3 466 467 468
3 69 469 470
3 69 471 472
3 473 69 474
3 70 475 477
3 475 69 476
3 475 476 477
3 70 478 480
3 480 479 69
3 478 479 480
3 70 481 483
3 481 68 482
3 481 482 483
3 484 68 485
3 486 485 70
3 484 485 486
3 488 487 68
3 71 489 490
3 71 491 493
3 491 8 492
3 491 492 493
3 33 71 16
3 72 71 33
3 72 8 71
3 72 24 8
3 73 24 72
3 73 0 24
3 494 34 495
3 74 496 498
3 496 34 497
3 496 497 498
3 74 17 34
3 35 74 18
3 75 74 35
3 75 17 74
3 75 73 17
3 76 73 75
3 76 0 73
3 76 61 0
3 77 61 76
3 77 13 61
3 37 77 19
3 78 77 37
3 78 13 77
3 78 29 13
3 79 29 78
3 79 1 29
3 499 38 500
3 501 500 2
3 499 500 501
3 502 38 503
3 505 504 38
3 80 506 507
3 80 508 509
3 80 510 512
3 510 79 511
3 510 511 512
3 81 79 80
3 81 1 79
3 81 50 1
3 82 50 81
3 82 5 50
3 513 82 514
3 515 514 20
3 513 514 515
3 516 82 517
3 518 5 519
3 520 519 82
3 518 519 520
3 522 521 5
3 83 523 524
3 83 525 527
3 525 6 526
3 525 526 527
3 528 83 529
3 530 529 11
3 528 529 530
3 531 83 532
3 533 6 534
3 535 534 83
3 533 534 535
3 536 52 537
3 538 537 6
3 536 537 538
3 84 539 541
3 539 52 540
3 539 540 541
3 84 542 544
3 544 543 52
3 542 543 544
3 40 545 546
3 85 547 549
3 549 548 40
3 547 548 549
3 85 550 551
3 85 552 554
3 552 84 553
3 552 553 554
3 555 84 556
3 557 556 85
3 555 556 557
3 559 558 84
3 561 560 21
3 86 562 563
3 86 564 566
3 564 4 565
3 564 565 566
3 567 86 568
3 569 568 15
3 567 568 569
3 570 86 571
3 572 4 573
3 574 573 86
3 572 573 574
3 576 575 4
3 62 25 0
3 87 25 62
3 87 577 579
3 579 578 25
3 577 578 579
3 580 87 581
3 582 581 14
3 580 581 582
3 583 87 584
3 583 584 585
3 588 587 87
3 586 587 588
3 88 589 590
3 88 591 593
3 591 7 592
3 591 592 593
3 45 88 22
3 89 88 45
3 89 7 88
3 89 594 596
3 596 595 7
3 594 595 596
3 598 597 89
3 47 599 601
3 601 600 9
3 599 600 601
3 603 602 47
3 605 604 23
3 606 28 607
3 608 28 609
3 611 610 28
