ply
format ascii 1.0
element vertex 253
property float x
property float y
property float z
element face 232
property list uchar int vertex_index
end_header
-29.321566 22.250866 61.233482
-21.739716 29.059074 60.244938
-16.339737 23.700584 68.508224
-33.360901 19.755928 61.645329
-32.860847 26.33979 59.376591
-28.711063 28.771687 58.154007
-24.593311 31.836151 56.890957
-25.398594 25.21637 60.467705
-19.069199 19.265789 66.411346
-29.450125 15.704189 62.687717
-25.578226 18.594421 62.731892
-22.111269 22.191643 63.068451
-18.979015 26.553875 64.127762
-15.874088 31.387791 65.689285
-13.801874 20.117889 73.150116
-31.33914 20.975025 61.538815
-33.162079 23.053028 60.72876
-31.135815 24.256042 60.398788
-30.799919 27.519089 58.840645
-29.092922 25.518604 59.883163
-27.064882 26.916313 59.309376
-27.333807 23.644558 60.835228
-23.156981 30.37841 58.506344
-20.009991 31.342178 60.491917
-31.513439 14.445599 62.565208
-23.745773 16.914829 63.623318
-23.793447 20.293777 62.8241
-22.091866 18.742268 64.041664
-17.708683 21.45089 67.437187
-19.081619 22.91803 65.385223
-17.643545 25.204079 66.264946
-17.450085 28.94339 64.883789
-16.173943 27.550526 67.192566
-35.361168 18.540398 61.485733
-37.040768 20.568508 60.502598
-35.139828 21.841431 60.778637
-26.631508 30.18541 57.458237
-25.079533 28.519463 58.812557
-23.532209 27.013699 60.244957
-17.683578 17.683998 68.411804
-16.397552 19.838318 69.636436
-37.614929 14.078503 61.255188
-35.563797 15.286449 61.809612
-33.500587 16.480373 62.139717
-31.446449 17.695625 62.24369
-29.423723 18.97411 62.161777
-27.453655 20.363205 61.973797
-27.466656 17.074951 62.716339
-25.55426 21.910995 61.784245
-23.73756 23.65778 61.69873
-22.005554 25.626022 61.798115
-20.548042 20.750362 64.629562
-20.516953 24.286842 63.505241
-20.345577 27.812 62.118172
-18.727467 30.182343 62.641491
-17.105663 32.676941 63.303822
-15.062918 22.008125 70.8209
-14.896956 25.954521 69.536682
-14.199728 33.810005 66.448448
-21.521989 30.785076 59.351376
-22.230621 31.444744 58.482079
-22.448349 29.718742 59.375641
-20.874854 30.200626 60.368427
-20.657127 31.926628 59.474865
-21.521989 30.785076 59.351376
-22.047479 17.009685 64.39476
-22.918819 17.828549 63.832491
-22.874432 16.095966 64.185587
-33.857826 25.744865 59.510531
-34.008442 24.101484 60.186615
-33.011463 24.696409 60.052675
-33.667846 27.384544 58.739672
-33.857826 25.744865 59.510531
-32.647695 27.965694 58.50655
-33.667846 27.384544 58.739672
-29.515487 29.762579 57.544815
-30.559914 29.13628 57.888134
-29.755491 28.145388 58.497326
-28.443785 30.391956 57.143688
-29.515487 29.762579 57.544815
-27.671285 29.478549 57.806122
-27.404008 31.098818 56.795803
-28.443785 30.391956 57.143688
-17.033701 16.828544 69.50325
-17.64999 15.799976 68.818237
-16.390689 17.905704 70.115566
-17.040565 18.761158 69.02412
-17.033701 16.828544 69.50325
-37.771673 21.528734 59.820582
-36.892802 22.225062 60.037058
-24.278005 33.509201 55.843744
-25.319645 32.649698 56.133772
-37.789261 12.527361 61.2621
-38.625459 13.452742 60.882961
-34.600178 14.274217 62.052341
-35.679701 13.701844 61.834167
-33.568573 14.87118 62.217394
-34.532192 15.883411 61.974665
-34.600178 14.274217 62.052341
-19.80862 20.008076 65.520454
-20.516042 18.973119 65.065628
-19.776621 18.230833 65.95652
-15.651158 33.302519 64.850563
-16.266945 33.947094 63.657832
-16.489876 32.032366 64.496554
-14.468846 19.088296 72.541912
-13.851012 18.115225 73.704319
-14.432396 21.063007 71.985508
-15.099367 20.033414 71.377304
-14.468846 19.088296 72.541912
-14.112236 27.051887 69.986176
-14.256925 25.044857 70.706833
-14.755482 27.921938 68.806862
-14.112236 27.051887 69.986176
-13.298451 34.971172 66.76025
-13.560944 32.980178 67.639645
-13.925757 35.76341 65.556576
-13.298451 34.971172 66.76025
-22.887919 32.075164 57.531566
-23.606085 32.804035 56.723873
-23.875146 31.107281 57.69865
-22.887919 32.075164 57.531566
-22.230621 31.444744 58.482079
-19.760233 33.119459 59.583077
-20.657127 31.926628 59.474865
-19.161769 32.580413 60.722597
-19.760233 33.119459 59.583077
-31.558951 12.852099 62.594577
-32.574999 13.853793 62.430139
-30.49023 13.456456 62.732931
-31.558951 12.852099 62.594577
-29.458573 14.08575 62.794185
-30.481782 15.074894 62.626463
-30.49023 13.456456 62.732931
-28.442878 14.749617 62.903498
-29.458573 14.08575 62.794185
-13.170921 19.079359 74.289261
-13.851012 18.115225 73.704319
-36.200968 19.554453 60.994166
-37.179251 18.92783 60.771696
-36.339451 17.913775 61.263264
-35.942332 22.861523 60.175078
-36.892802 22.225062 60.037058
-36.090298 21.20497 60.640618
-34.997316 23.495686 60.211554
-34.150953 22.447229 60.753698
-34.008442 24.101484 60.186615
-35.942332 22.861523 60.175078
-34.997316 23.495686 60.211554
-31.617232 28.555344 58.238577
-32.647695 27.965694 58.50655
-31.830383 26.92944 59.108618
-31.617232 28.555344 58.238577
-30.559914 29.13628 57.888134
-26.338743 31.824328 56.417412
-27.404008 31.098818 56.795803
-25.612409 31.010781 57.174597
-25.319645 32.649698 56.133772
-26.338743 31.824328 56.417412
-19.030276 17.43282 66.822525
-19.776621 18.230833 65.95652
-18.337466 16.641924 67.822754
-17.64999 15.799976 68.818237
-18.376389 18.474894 67.411575
-19.030276 17.43282 66.822525
-18.337466 16.641924 67.822754
-37.943455 19.883923 60.204468
-37.179251 18.92783 60.771696
-38.67436 20.844148 59.522452
-37.943455 19.883923 60.204468
-37.771673 21.528734 59.820582
-24.278005 33.509201 55.843744
-23.606085 32.804035 56.723873
-38.415514 15.022613 60.795321
-38.625459 13.452742 60.882961
-37.466331 15.682827 61.147991
-38.415514 15.022613 60.795321
-36.705267 13.097871 61.556956
-37.789261 12.527361 61.2621
-36.879599 11.546729 61.563868
-36.589363 14.682476 61.5324
-36.705267 13.097871 61.556956
-35.679701 13.701844 61.834167
-36.440765 16.2868 61.425203
-37.466331 15.682827 61.147991
-36.589363 14.682476 61.5324
-35.462483 16.913424 61.647672
-36.339451 17.913775 61.263264
-36.440765 16.2868 61.425203
-32.507013 15.462986 62.352463
-33.568573 14.87118 62.217394
-32.574999 13.853793 62.430139
-27.451144 15.434997 62.917808
-28.458391 16.38957 62.702028
-28.442878 14.749617 62.903498
-26.496365 16.172497 63.026655
-27.451144 15.434997 62.917808
-25.55215 16.932232 63.034431
-26.522441 17.834686 62.724115
-26.496365 16.172497 63.026655
-24.635924 16.092436 63.480144
-24.662 17.754625 63.177605
-25.55215 16.932232 63.034431
-23.702478 15.221948 63.887915
-24.635924 16.092436 63.480144
-22.874432 16.095966 64.185587
-23.702478 15.221948 63.887915
-21.287954 17.969072 64.771679
-22.047479 17.009685 64.39476
-21.319954 19.746315 64.335613
-21.287954 17.969072 64.771679
-20.516042 18.973119 65.065628
-18.520507 32.000496 61.797384
-19.161769 32.580413 60.722597
-19.368729 30.762261 61.566704
-17.709605 33.247795 62.12855
-18.520507 32.000496 61.797384
-17.916565 31.429642 62.972656
-16.855978 34.546522 62.427443
-17.709605 33.247795 62.12855
-16.855978 34.546522 62.427443
-16.266945 33.947094 63.657832
-15.766685 18.948511 70.785072
-16.390689 17.905704 70.115566
-15.730235 20.923222 70.228668
-15.766685 18.948511 70.785072
-15.099367 20.033414 71.377304
-13.065842 21.107483 73.65678
-13.170921 19.079359 74.289261
-13.709384 22.126541 72.51355
-13.065842 21.107483 73.65678
-14.339906 23.071659 71.348942
-14.432396 21.063007 71.985508
-13.709384 22.126541 72.51355
-14.979937 23.981323 70.178791
-14.339906 23.071659 71.348942
-14.256925 25.044857 70.706833
-15.393975 28.71994 67.634804
-15.53545 26.752524 68.364624
-14.755482 27.921938 68.806862
-15.244048 30.638573 66.883163
-16.024016 29.469158 66.440925
-15.393975 28.71994 67.634804
-14.406868 31.84968 67.262745
-13.560944 32.980178 67.639645
-15.036908 32.598898 66.068866
-15.244048 30.638573 66.883163
-14.406868 31.84968 67.262745
-14.813978 34.513626 65.230144
-15.651158 33.302519 64.850563
-15.036908 32.598898 66.068866
-14.813978 34.513626 65.230144
-13.925757 35.76341 65.556576
3 0 17 15
3 0 19 17
3 0 21 19
3 1 59 61
3 61 60 22
3 59 60 61
3 1 62 64
3 62 23 63
3 62 63 64
3 65 27 66
3 67 66 25
3 65 66 67
3 2 30 28
3 2 32 30
3 3 35 33
3 4 68 70
3 70 69 16
3 68 69 70
3 4 71 72
3 4 73 74
3 5 75 77
3 77 76 18
3 75 76 77
3 5 78 79
3 5 80 82
3 80 36 81
3 80 81 82
3 7 37 20
3 7 38 37
3 83 39 84
3 85 40 86
3 87 86 39
3 85 86 87
3 89 88 34
3 6 90 91
3 92 41 93
3 94 42 95
3 96 43 97
3 98 97 42
3 96 97 98
3 9 44 24
3 9 45 44
3 9 47 45
3 10 48 46
3 11 49 26
3 11 50 49
3 8 99 101
3 99 51 100
3 99 100 101
3 12 52 29
3 12 53 52
3 12 54 53
3 13 55 31
3 13 102 104
3 104 103 55
3 102 103 104
3 14 105 106
3 14 107 109
3 107 56 108
3 107 108 109
3 110 57 111
3 113 112 57
3 114 58 115
3 117 116 58
3 15 16 3
3 17 16 15
3 17 4 16
3 17 18 4
3 19 18 17
3 19 5 18
3 19 20 5
3 21 20 19
3 21 7 20
3 22 118 120
3 120 119 6
3 118 119 120
3 122 121 22
3 23 123 124
3 23 125 126
3 127 24 128
3 129 24 130
3 131 9 132
3 133 132 24
3 131 132 133
3 135 134 9
3 25 26 10
3 27 26 25
3 27 11 26
3 28 29 8
3 30 29 28
3 30 12 29
3 30 31 12
3 32 31 30
3 32 13 31
3 136 14 137
3 33 138 140
3 138 34 139
3 138 139 140
3 35 34 33
3 35 141 143
3 143 142 34
3 141 142 143
3 16 35 3
3 144 35 145
3 146 145 16
3 144 145 146
3 148 147 35
3 18 149 151
3 151 150 4
3 149 150 151
3 153 152 18
3 36 154 155
3 36 156 158
3 156 6 157
3 156 157 158
3 20 36 5
3 37 36 20
3 37 6 36
3 37 22 6
3 38 22 37
3 38 1 22
3 159 8 160
3 39 161 162
3 39 163 165
3 163 8 164
3 163 164 165
3 39 28 8
3 40 28 39
3 40 2 28
3 34 166 167
3 170 169 34
3 168 169 170
3 172 171 6
3 41 173 174
3 41 175 176
3 177 41 178
3 177 178 179
3 42 180 182
3 180 41 181
3 180 181 182
3 42 183 185
3 185 184 41
3 183 184 185
3 42 186 188
3 186 33 187
3 186 187 188
3 43 33 42
3 43 3 33
3 24 189 191
3 189 43 190
3 189 190 191
3 44 43 24
3 44 3 43
3 44 15 3
3 45 15 44
3 45 0 15
3 45 46 0
3 47 46 45
3 47 10 46
3 192 47 193
3 194 193 9
3 192 193 194
3 195 47 196
3 197 10 198
3 199 198 47
3 197 198 199
3 200 25 201
3 202 201 10
3 200 201 202
3 203 25 204
3 206 205 25
3 46 21 0
3 48 21 46
3 48 7 21
3 26 48 10
3 49 48 26
3 49 7 48
3 49 38 7
3 50 38 49
3 50 1 38
3 207 27 208
3 51 209 211
3 209 27 210
3 209 210 211
3 51 11 27
3 29 51 8
3 52 51 29
3 52 11 51
3 52 50 11
3 53 50 52
3 53 1 50
3 53 23 1
3 54 23 53
3 54 212 214
3 214 213 23
3 212 213 214
3 31 54 12
3 55 54 31
3 55 215 217
3 217 216 54
3 215 216 217
3 55 218 219
3 221 220 55
3 222 40 223
3 56 224 226
3 224 40 225
3 224 225 226
3 56 2 40
3 227 14 228
3 229 14 230
3 231 56 232
3 233 232 14
3 231 232 233
3 57 234 236
3 234 56 235
3 234 235 236
3 57 2 56
3 57 32 2
3 237 32 238
3 239 238 57
3 237 238 239
3 240 13 241
3 242 241 32
3 240 241 242
3 58 243 244
3 58 245 247
3 245 13 246
3 245 246 247
3 58 248 250
3 250 249 13
3 248 249 250
3 252 251 58
