ply
format ascii 1.0
element vertex 338
property float x
property float y
property float z
element face 346
property list uchar int vertex_index
end_header
-0.572479 -67.975571 36.834274
-0.578346 -69.528137 46.014252
-1.030396 -79.537888 37.905888
-1.474325 -56.770485 45.156799
0.85845 -54.307819 37.471218
0.844347 -65.863525 28.624966
-0.883165 -64.967422 54.956005
-0.782005 -68.847092 41.275337
-1.330219 -63.333359 45.421791
-1.010855 -62.306473 41.082718
-0.470379 -55.426956 41.251221
-0.141935 -61.278954 37.007317
1.00971 -60.314655 33.110176
0.062551 -66.961578 32.666206
0.360991 -75.483841 52.110882
-0.220692 -69.993576 51.008854
0.097118 -75.282196 46.924355
-0.326096 -74.833389 41.916553
-0.669146 -74.095467 37.161804
-0.736547 -73.071297 32.690662
2.697853 -58.594971 25.138893
-1.185314 -64.250427 50.043114
-1.951212 -58.189365 49.272476
-2.086756 -51.842548 48.631145
-0.803057 -50.015263 45.044632
2.108297 -53.445641 33.726044
2.028492 -59.425274 29.214191
-0.737398 -68.432426 39.016525
-0.97164 -65.6362 41.122154
-0.765709 -65.167908 38.957695
-0.635967 -61.787304 39.014999
-0.428419 -64.682266 36.864799
0.011786 -64.186279 34.832977
-0.296015 -67.482994 34.722488
0.260818 -75.410263 49.500378
-0.25495 -77.608246 42.365662
-0.524048 -77.292511 39.899681
-0.523201 -74.501709 39.503815
-0.783398 -76.89502 37.496597
-1.00536 -76.415436 35.161316
-1.367268 -79.046913 35.515526
-0.399 -69.787865 48.482765
-0.68981 -67.159653 50.502331
-0.861824 -66.847504 48.054539
-1.506714 -60.087708 45.255581
-1.624712 -60.687084 47.409222
-1.777813 -57.483231 47.181866
-2.108521 -55.046669 48.943626
-1.730797 -54.218178 46.99474
-1.493866 -50.908955 46.822727
-1.228197 -53.406227 45.097424
0.177826 -54.834564 39.350342
0.074537 -51.94331 41.381676
0.791649 -51.329201 39.539322
1.453299 -47.827202 39.68557
1.483307 -50.802414 37.697731
2.106873 -50.359505 35.850006
1.516251 -53.846676 35.601662
1.007267 -63.183342 30.870594
1.556934 -59.861015 31.174812
1.458838 -62.684608 28.887499
1.827843 -62.19244 26.870346
1.17354 -65.304276 26.588335
-0.71904 -69.213806 43.609634
-0.993189 -66.485092 45.673096
-1.04142 -66.078438 43.361183
-1.242037 -62.826347 43.217468
-1.248846 -59.482521 43.166939
-1.033518 -56.077511 43.183594
-0.845577 -58.891407 41.137268
-0.316149 -58.330116 39.159927
0.297369 -57.808254 37.225235
0.939095 -57.329147 35.318645
0.425484 -60.787319 35.045929
0.508387 -63.685219 32.843334
0.459118 -66.418922 30.642609
0.148615 -72.763855 51.551044
0.000744 -72.638428 48.970886
-0.184019 -72.45842 46.437401
-0.108313 -75.092072 44.393127
-0.373875 -72.218521 43.959167
-0.532307 -71.915634 41.54467
-0.624739 -71.549187 39.2015
-0.626295 -71.121185 36.934101
-0.528158 -70.636154 34.740776
-0.742622 -73.616653 34.892513
2.914124 -58.185394 23.00584
2.267159 -61.229507 22.68239
-0.518402 -67.419258 53.013359
-1.033453 -64.636978 52.462852
-1.555933 -61.787796 51.940002
-1.298637 -63.812584 47.696606
-1.628611 -61.259861 49.634811
-2.36554 -55.859829 50.96817
-2.563032 -52.781006 50.502853
-0.615067 -52.640282 43.231274
2.615616 -53.095848 31.82575
1.553171 -56.891254 33.420616
2.098009 -56.490067 31.50845
2.55574 -56.119282 29.559422
2.407593 -59.004997 27.206829
2.097565 -61.708282 24.803616
-0.340473 -70.101189 32.611435
-0.090834 -69.525894 30.527546
-0.777222 -78.415199 38.902784
-0.607866 -78.617367 40.128201
-0.861041 -79.740055 39.131304
-1.110319 -63.81546 55.883224
-0.824879 -65.104774 56.237467
-1.165033 -63.612637 54.643577
-1.110319 -63.81546 55.883224
0.254803 -74.123848 51.830963
0.192375 -72.802696 52.859725
0.298563 -74.162689 53.139645
-1.087918 -76.136826 34.027012
-1.340833 -77.443894 34.174698
2.805988 -58.390183 24.072367
3.083066 -56.808471 24.242494
2.97493 -57.01326 25.30902
-0.369547 -68.706417 52.011106
-0.297747 -68.784012 53.299602
-0.148892 -70.071171 52.29735
-1.984847 -58.526138 50.358211
-1.823546 -60.061386 50.539379
-1.789912 -59.724613 49.453643
-2.158376 -57.024597 50.120323
-2.192011 -57.36137 51.206058
-1.984847 -58.526138 50.358211
-2.344041 -50.736755 49.334829
-2.582179 -51.205984 50.270683
-2.324894 -52.311777 49.566999
-1.993691 -50.214533 48.474514
-2.344041 -50.736755 49.334829
-0.954554 -48.791251 45.842979
-1.299958 -49.238096 46.732027
-1.148462 -50.462109 45.933679
-0.530767 -48.311839 45.006466
-0.954554 -48.791251 45.842979
0.012644 -50.567316 42.326404
0.397248 -50.200807 41.434212
1.774668 -46.075795 39.723748
1.781032 -47.56332 38.776472
2.375579 -51.718571 33.856054
2.374867 -50.175503 34.918036
2.107585 -51.902573 34.788025
2.361956 -53.270744 32.775897
2.629238 -51.543674 32.905907
2.375579 -51.718571 33.856054
1.755743 -63.228584 24.659409
1.962704 -61.950361 25.836981
1.620882 -63.470663 25.692774
1.82237 -62.954963 23.601343
1.755743 -63.228584 24.659409
-0.314202 -70.676044 29.478181
-0.375484 -70.997795 30.535156
0.045147 -69.224106 29.496268
-0.314202 -70.676044 29.478181
-0.632378 -66.297714 55.269463
-0.824879 -65.104774 56.237467
0.294141 -76.763314 49.773962
0.310905 -75.447052 50.80563
0.344227 -76.800103 51.079214
0.227731 -76.711701 48.475292
0.294141 -76.763314 49.773962
0.14588 -76.647667 47.187281
0.178968 -75.346229 48.212367
0.227731 -76.711701 48.475292
-0.473318 -78.775234 41.361191
-0.317225 -78.934974 42.613232
-0.389499 -77.450378 41.132672
-0.473318 -78.775234 41.361191
-0.607866 -78.617367 40.128201
-1.521787 -78.759632 34.351803
-1.340833 -77.443894 34.174698
-1.186314 -77.731175 35.338421
2.815407 -57.182709 26.34651
2.97493 -57.01326 25.30902
0.755804 -49.893753 40.513035
0.397248 -50.200807 41.434212
0.433093 -51.636255 40.460499
1.122474 -49.578201 39.612446
1.086629 -48.142753 40.586159
0.755804 -49.893753 40.513035
1.796036 -49.050926 37.782552
1.781032 -47.56332 38.776472
1.468303 -49.314808 38.69165
1.79509 -50.580959 36.773868
2.107819 -48.829471 36.85869
1.796036 -49.050926 37.782552
1.293731 -65.026581 25.551769
1.620882 -63.470663 25.692774
1.500692 -63.748358 26.72934
-0.698341 -72.770497 31.616714
-1.00412 -74.152287 31.686487
-1.232538 -80.798714 38.129897
-0.861041 -79.740055 39.131304
-1.438642 -80.542077 36.911732
-1.232538 -80.798714 38.129897
0.035762 -71.456311 52.568445
0.192375 -72.802696 52.859725
-0.036039 -71.378715 51.279949
-0.148892 -70.071171 52.29735
0.035762 -71.456311 52.568445
0.045408 -76.564244 45.905144
0.14588 -76.647667 47.187281
-0.130626 -77.727268 43.625798
-0.317225 -78.934974 42.613232
-0.057308 -76.469181 44.63953
-0.130626 -77.727268 43.625798
-0.181632 -76.350159 43.379395
-0.005598 -75.187134 45.658741
0.045408 -76.564244 45.905144
-0.057308 -76.469181 44.63953
-0.956549 -74.737434 33.892611
-0.873991 -75.016044 35.026915
-1.087918 -76.136826 34.027012
-0.953511 -74.464756 32.791685
-0.739584 -73.343975 33.791588
-0.956549 -74.737434 33.892611
-1.00412 -74.152287 31.686487
-0.953511 -74.464756 32.791685
-1.607078 -80.296589 35.716551
-1.198832 -79.2924 36.710707
-1.438642 -80.542077 36.911732
-1.813987 -79.996998 34.526882
-1.607078 -80.296589 35.716551
-2.053797 -81.246674 34.727908
-1.521787 -78.759632 34.351803
-1.813987 -79.996998 34.526882
3.224979 -56.635595 23.16736
3.083066 -56.808471 24.242494
2.991703 -57.973295 21.90914
3.224979 -56.635595 23.16736
2.628801 -59.466611 21.759
2.991703 -57.973295 21.90914
2.305319 -60.988668 21.597276
2.628801 -59.466611 21.759
2.590642 -59.707451 22.844115
1.917056 -62.445374 21.463695
2.305319 -60.988668 21.597276
0.372482 -75.497101 53.427467
0.298563 -74.162689 53.139645
0.370314 -76.823509 52.388525
0.372482 -75.497101 53.427467
0.35355 -78.13977 51.356857
0.344227 -76.800103 51.079214
0.370314 -76.823509 52.388525
-0.449996 -67.523632 54.29814
-0.297747 -68.784012 53.299602
-0.700784 -66.19334 53.984682
-0.632378 -66.297714 55.269463
-0.449996 -67.523632 54.29814
-1.240177 -63.447415 53.397001
-1.165033 -63.612637 54.643577
-0.958309 -64.8022 53.709429
-1.501417 -62.022824 53.135576
-1.240177 -63.447415 53.397001
-1.294693 -63.212387 52.201427
-1.784104 -60.634935 52.825209
-1.501417 -62.022824 53.135576
-1.787208 -60.325353 51.691975
-1.592272 -61.523829 50.787407
-1.823546 -60.061386 50.539379
-1.784104 -60.634935 52.825209
-1.787208 -60.325353 51.691975
-2.442416 -56.24386 52.030068
-2.192011 -57.36137 51.206058
-2.642313 -54.77422 51.720144
-2.442416 -56.24386 52.030068
-2.741059 -53.234808 51.487486
-2.642313 -54.77422 51.720144
-2.464286 -54.320417 50.735512
-2.87184 -51.721379 51.17563
-2.741059 -53.234808 51.487486
-2.87184 -51.721379 51.17563
-2.582179 -51.205984 50.270683
-1.697246 -49.747736 47.570305
-1.993691 -50.214533 48.474514
-1.790311 -51.375751 47.726936
-1.697246 -49.747736 47.570305
-1.299958 -49.238096 46.732027
-0.332159 -50.915802 43.251204
-0.270265 -52.291796 42.306475
0.012644 -50.567316 42.326404
-0.426154 -49.603292 44.157882
-0.709062 -51.327772 44.137953
-0.332159 -50.915802 43.251204
-0.530767 -48.311839 45.006466
-0.426154 -49.603292 44.157882
1.421949 -46.400554 40.61018
1.086629 -48.142753 40.586159
1.421949 -46.400554 40.61018
1.774668 -46.075795 39.723748
2.386726 -48.614157 35.94112
2.107819 -48.829471 36.85869
2.386726 -48.614157 35.94112
2.374867 -50.175503 34.918036
2.858206 -51.390758 31.958575
2.629238 -51.543674 32.905907
2.831114 -52.940906 30.85335
2.858206 -51.390758 31.958575
2.801176 -54.452624 29.720187
2.831114 -52.940906 30.85335
2.585678 -54.607565 30.692586
2.744351 -55.944864 28.556775
2.801176 -54.452624 29.720187
2.670277 -57.387722 27.380478
2.744351 -55.944864 28.556775
2.481667 -57.56214 28.383125
2.552723 -58.799984 26.172861
2.815407 -57.182709 26.34651
2.670277 -57.387722 27.380478
1.907167 -62.715576 22.54073
2.182362 -61.468894 23.743003
1.82237 -62.954963 23.601343
1.917056 -62.445374 21.463695
1.907167 -62.715576 22.54073
-0.500304 -71.285443 31.5771
-0.53851 -71.586243 32.651049
-0.698341 -72.770497 31.616714
-0.215653 -69.813541 31.569491
-0.500304 -71.285443 31.5771
-0.375484 -70.997795 30.535156
0.320123 -67.67062 29.553799
0.184142 -67.972408 30.585078
0.045147 -69.224106 29.496268
0.512737 -67.392921 28.544978
0.651733 -66.141223 29.633788
0.320123 -67.67062 29.553799
0.63787 -67.083786 27.512116
0.512737 -67.392921 28.544978
0.802466 -66.804161 26.493801
1.008943 -65.5839 27.606651
0.63787 -67.083786 27.512116
0.896345 -66.494408 25.449921
0.802466 -66.804161 26.493801
1.293731 -65.026581 25.551769
0.896345 -66.494408 25.449921
3 0 29 27
3 0 31 29
3 0 33 31
3 2 104 106
3 104 36 105
3 104 105 106
3 2 38 36
3 2 40 38
3 1 43 41
3 3 46 44
3 3 48 46
3 3 50 48
3 4 53 51
3 4 55 53
3 4 57 55
3 5 60 58
3 5 62 60
3 6 107 108
3 6 109 110
3 7 65 63
3 9 66 28
3 9 67 66
3 9 69 67
3 11 70 30
3 11 71 70
3 11 73 71
3 13 74 32
3 13 75 74
3 14 111 113
3 111 76 112
3 111 112 113
3 16 77 34
3 16 78 77
3 17 79 35
3 17 80 79
3 17 81 80
3 18 82 37
3 18 83 82
3 18 85 83
3 115 114 39
3 20 116 118
3 116 86 117
3 116 117 118
3 20 87 86
3 15 119 121
3 119 88 120
3 119 120 121
3 21 89 42
3 21 90 89
3 8 91 64
3 22 92 45
3 22 122 124
3 124 123 92
3 122 123 124
3 22 125 127
3 125 93 126
3 125 126 127
3 23 94 47
3 23 128 130
3 130 129 94
3 128 129 130
3 23 131 132
3 24 133 135
3 135 134 49
3 133 134 135
3 24 136 137
3 10 95 68
3 139 138 52
3 141 140 54
3 25 142 144
3 144 143 56
3 142 143 144
3 25 145 147
3 145 96 146
3 145 146 147
3 12 97 72
3 26 98 59
3 26 99 98
3 26 100 99
3 148 101 149
3 150 149 61
3 148 149 150
3 152 151 101
3 19 102 84
3 153 103 154
3 156 155 103
3 157 6 158
3 27 28 7
3 29 28 27
3 29 9 28
3 29 30 9
3 31 30 29
3 31 11 30
3 31 32 11
3 33 32 31
3 33 13 32
3 159 34 160
3 161 160 14
3 159 160 161
3 162 34 163
3 164 16 165
3 166 165 34
3 164 165 166
3 167 35 168
3 36 169 171
3 169 35 170
3 169 170 171
3 36 17 35
3 36 37 17
3 38 37 36
3 38 18 37
3 38 39 18
3 40 39 38
3 40 172 174
3 174 173 39
3 172 173 174
3 175 20 176
3 41 42 15
3 43 42 41
3 43 21 42
3 44 45 8
3 46 45 44
3 46 22 45
3 46 47 22
3 48 47 46
3 48 23 47
3 48 49 23
3 50 49 48
3 50 24 49
3 51 52 10
3 53 52 51
3 53 177 179
3 179 178 52
3 177 178 179
3 53 180 182
3 180 54 181
3 180 181 182
3 55 54 53
3 55 183 185
3 185 184 54
3 183 184 185
3 55 186 188
3 186 56 187
3 186 187 188
3 57 56 55
3 57 25 56
3 58 59 12
3 60 59 58
3 60 26 59
3 60 61 26
3 62 61 60
3 62 189 191
3 191 190 61
3 189 190 191
3 193 192 19
3 194 2 195
3 197 196 2
3 63 64 1
3 65 64 63
3 65 8 64
3 28 65 7
3 66 65 28
3 66 8 65
3 66 44 8
3 67 44 66
3 67 3 44
3 67 68 3
3 69 68 67
3 69 10 68
3 30 69 9
3 70 69 30
3 70 10 69
3 70 51 10
3 71 51 70
3 71 4 51
3 71 72 4
3 73 72 71
3 73 12 72
3 32 73 11
3 74 73 32
3 74 12 73
3 74 58 12
3 75 58 74
3 75 5 58
3 76 198 199
3 76 200 202
3 200 15 201
3 200 201 202
3 34 76 14
3 77 76 34
3 77 15 76
3 77 41 15
3 78 41 77
3 78 1 41
3 203 16 204
3 35 205 206
3 79 207 209
3 209 208 35
3 207 208 209
3 79 210 212
3 210 16 211
3 210 211 212
3 79 78 16
3 80 78 79
3 80 1 78
3 80 63 1
3 81 63 80
3 81 7 63
3 37 81 17
3 82 81 37
3 82 7 81
3 82 27 7
3 83 27 82
3 83 0 27
3 83 84 0
3 85 84 83
3 85 19 84
3 39 85 18
3 213 85 214
3 215 214 39
3 213 214 215
3 216 19 217
3 218 217 85
3 216 217 218
3 220 219 19
3 221 40 222
3 223 222 2
3 221 222 223
3 224 40 225
3 224 225 226
3 228 227 40
3 86 229 230
3 86 231 232
3 86 233 234
3 87 235 237
3 237 236 86
3 235 236 237
3 87 238 239
3 240 14 241
3 242 14 243
3 246 245 14
3 244 245 246
3 88 247 248
3 88 249 251
3 249 6 250
3 249 250 251
3 42 88 15
3 89 88 42
3 89 6 88
3 89 252 254
3 254 253 6
3 252 253 254
3 90 255 257
3 257 256 89
3 255 256 257
3 90 258 259
3 64 43 1
3 91 43 64
3 91 21 43
3 45 91 8
3 92 91 45
3 92 21 91
3 92 90 21
3 260 90 261
3 262 261 92
3 260 261 262
3 264 263 90
3 93 265 266
3 93 267 268
3 47 93 22
3 94 93 47
3 94 269 271
3 271 270 93
3 269 270 271
3 94 272 273
3 275 274 94
3 49 276 278
3 278 277 23
3 276 277 278
3 280 279 49
3 68 50 3
3 95 50 68
3 95 24 50
3 52 95 10
3 281 95 282
3 283 282 52
3 281 282 283
3 284 24 285
3 286 285 95
3 284 285 286
3 288 287 24
3 54 289 290
3 292 291 54
3 56 293 294
3 296 295 56
3 96 297 298
3 96 299 300
3 72 57 4
3 97 57 72
3 97 25 57
3 59 97 12
3 98 97 59
3 98 25 97
3 98 96 25
3 99 96 98
3 99 301 303
3 303 302 96
3 301 302 303
3 99 304 305
3 100 306 308
3 308 307 99
3 306 307 308
3 100 309 311
3 309 20 310
3 309 310 311
3 61 100 26
3 101 100 61
3 101 20 100
3 101 87 20
3 312 87 313
3 314 313 101
3 312 313 314
3 316 315 87
3 84 33 0
3 102 33 84
3 102 13 33
3 317 102 318
3 319 318 19
3 317 318 319
3 103 320 322
3 320 102 321
3 320 321 322
3 103 13 102
3 103 75 13
3 323 75 324
3 325 324 103
3 323 324 325
3 326 5 327
3 328 327 75
3 326 327 328
3 329 5 330
3 331 62 332
3 333 332 5
3 331 332 333
3 334 62 335
3 337 336 62
