ply
format ascii 1.0
element vertex 277
property float x
property float y
property float z
element face 201
property list uchar int vertex_index
end_header
-47.615685 -95.320602 2.672273
-30.017879 -102.797394 24.016659
-43.687157 -101.979141 6.569473
-45.204372 -100.524811 2.368681
-40.240597 -104.782043 14.953961
-17.269833 -101.473816 33.626919
-48.630455 -92.985443 -1.733433
-49.448532 -89.952896 2.345874
-25.845947 -103.172073 23.049791
-48.573486 -93.217285 -5.843489
-46.542336 -97.963455 2.610084
-47.062576 -96.992722 0.443138
-47.545555 -95.878128 -1.698229
-48.112793 -94.222153 0.448888
-50.475563 -87.327927 2.030297
-26.996378 -100.442322 25.47765
-27.95899 -102.923569 23.287027
-44.487144 -101.271988 4.465744
-45.950821 -98.815765 4.795035
-47.094402 -96.288071 4.928721
-39.89473 -105.717468 10.015421
-40.807983 -105.018478 7.992207
-41.745289 -104.329315 5.969726
-15.739241 -102.389557 35.811897
-19.279331 -102.673172 28.500217
-21.11903 -101.817566 26.970524
-48.036713 -94.61525 -3.800287
-49.211121 -91.621689 -3.862329
-48.538292 -92.633621 2.573069
-49.104282 -91.432556 0.316277
-49.745987 -90.111237 -1.887989
-23.040075 -101.123657 25.922813
-25.012861 -100.659821 25.419666
-23.723759 -103.602539 23.356108
-48.871018 -92.461373 -6.824948
-49.225002 -91.684753 -5.882903
-51.091623 -86.060189 1.846105
-50.555397 -86.676827 2.997403
-50.950241 -86.674508 0.899084
-51.091623 -86.060189 1.846105
-29.482281 -101.613296 25.0399
-30.423 -101.662376 25.555965
-28.988435 -102.860481 23.651843
-28.452837 -101.676384 24.675084
-29.482281 -101.613296 25.0399
-29.47461 -104.002601 22.649795
-28.445166 -104.065689 22.284979
-28.988435 -102.860481 23.651843
-44.08715 -101.625564 5.517608
-43.579235 -102.466408 4.210873
-43.179242 -102.819985 5.262738
-46.234722 -97.983765 6.004055
-45.61424 -99.203507 5.894551
-46.806512 -96.719918 6.070898
-46.522611 -97.551918 4.861878
-46.234722 -97.983765 6.004055
-40.93314 -104.563316 10.400925
-40.501145 -104.922248 11.449154
-41.389767 -104.213821 9.389318
-40.351357 -105.367973 9.003814
-40.93314 -104.563316 10.400925
-42.716223 -103.154228 6.269599
-42.291357 -103.507866 7.324044
-43.262291 -102.332779 7.623918
-43.179242 -102.819985 5.262738
-42.208308 -103.995071 4.962864
-42.716223 -103.154228 6.269599
-16.504537 -101.931686 34.719408
-16.3004 -100.940056 36.377792
-17.065696 -100.482185 35.285303
-16.58197 -102.950714 33.09743
-15.816674 -103.408584 34.189919
-16.504537 -101.931686 34.719408
-17.403158 -102.529229 32.01854
-16.58197 -102.950714 33.09743
-19.927004 -101.085747 29.229374
-19.079656 -101.569374 30.064318
-20.846854 -100.657944 28.464527
-20.19918 -102.245369 27.735371
-19.927004 -101.085747 29.229374
-44.754858 -101.398575 1.159878
-44.371269 -101.75734 2.1601
-49.130253 -90.530563 3.508532
-49.549427 -89.244095 3.349432
-48.993412 -91.293259 2.459471
-48.675133 -91.870926 3.622129
-49.130253 -90.530563 3.508532
-50.378559 -88.712746 -2.010576
-49.959297 -89.397179 -0.905183
-50.118213 -89.400132 -2.959761
-50.378559 -88.712746 -2.010576
-23.610517 -99.631599 26.976423
-22.694173 -99.90844 27.327744
-25.137083 -104.605446 22.03744
-24.075989 -104.820678 22.190599
-24.784853 -103.387306 23.202949
-39.793782 -105.034424 15.970058
-40.724478 -103.997894 16.459881
-44.482408 -100.785194 6.78177
-44.111261 -101.157227 7.886398
-44.111261 -101.157227 7.886398
-43.262291 -102.332779 7.623918
-48.198917 -94.0578 -6.837477
-47.94832 -94.769753 -5.861995
-48.198917 -94.0578 -6.837477
-48.871018 -92.461373 -6.824948
-17.82447 -99.936241 34.268652
-17.065696 -100.482185 35.285303
-18.074907 -100.969696 32.627669
-17.82447 -99.936241 34.268652
-46.183127 -98.826156 1.444163
-45.514145 -100.106834 1.323462
-45.873354 -99.244133 2.489383
-46.443247 -98.34079 0.36069
-46.183127 -98.826156 1.444163
-46.802456 -97.478088 1.526611
-46.710549 -97.857552 -0.679596
-46.443247 -98.34079 0.36069
-47.304066 -96.435425 -0.627545
-46.952038 -97.300255 -1.750279
-46.710549 -97.857552 -0.679596
-50.062943 -87.931611 3.191644
-50.555397 -86.676827 2.997403
-49.962047 -88.640411 2.188085
-49.549427 -89.244095 3.349432
-50.062943 -87.931611 3.191644
-50.324085 -88.005524 1.053961
-49.810569 -89.318008 1.211749
-49.962047 -88.640411 2.188085
-50.324085 -88.005524 1.053961
-50.950241 -86.674508 0.899084
-27.971531 -100.435761 25.770395
-27.439999 -99.166023 26.882668
-27.477684 -101.682946 24.382338
-27.971531 -100.435761 25.770395
-28.452837 -101.676384 24.675084
-27.327378 -104.24704 22.093232
-26.270856 -104.371292 21.974614
-26.902468 -103.047821 23.168409
-27.327378 -104.24704 22.093232
-28.445166 -104.065689 22.284979
-39.196766 -105.846115 14.479266
-39.627956 -105.579048 13.489562
-44.012655 -102.130928 3.208631
-43.579235 -102.466408 4.210873
-44.845758 -100.898399 3.417212
-44.371269 -101.75734 2.1601
-44.012655 -102.130928 3.208631
-44.882402 -100.431618 5.729905
-44.08715 -101.625564 5.517608
-44.482408 -100.785194 6.78177
-45.218982 -100.043876 4.630389
-44.882402 -100.431618 5.729905
-45.61424 -99.203507 5.894551
-31.003315 -102.745171 24.58057
-30.423 -101.662376 25.555965
-30.554583 -103.839516 23.063952
-31.003315 -102.745171 24.58057
-41.165638 -103.674248 15.382179
-40.724478 -103.997894 16.459881
-40.674078 -104.454536 13.918425
-41.165638 -103.674248 15.382179
-39.627956 -105.579048 13.489562
-40.674078 -104.454536 13.918425
-39.455023 -106.046761 11.020291
-40.501145 -104.922248 11.449154
-38.73599 -106.861732 9.60134
-39.455023 -106.046761 11.020291
-39.199549 -106.531768 8.61588
-38.73599 -106.861732 9.60134
-39.656176 -106.182274 7.604273
-39.199549 -106.531768 8.61588
-40.351357 -105.367973 9.003814
-40.152353 -105.842186 6.621607
-39.656176 -106.182274 7.604273
-41.822704 -103.852448 8.335285
-41.389767 -104.213821 9.389318
-41.276636 -104.673896 6.980966
-41.822704 -103.852448 8.335285
-42.291357 -103.507866 7.324044
-40.621006 -105.497604 5.610366
-40.152353 -105.842186 6.621607
-41.276636 -104.673896 6.980966
-41.135907 -105.16774 4.637564
-40.621006 -105.497604 5.610366
-41.135907 -105.16774 4.637564
-42.208308 -103.995071 4.962864
-15.568516 -101.423881 37.455128
-16.3004 -100.940056 36.377792
-15.008964 -102.737556 36.919514
-15.568516 -101.423881 37.455128
-15.044369 -103.733841 35.316574
-15.008964 -102.737556 36.919514
-15.044369 -103.733841 35.316574
-15.816674 -103.408584 34.189919
-17.403158 -102.529229 32.01854
-18.074907 -100.969696 32.627669
-18.407908 -103.128906 29.455188
-19.079656 -101.569374 30.064318
-18.501079 -104.236199 27.918693
-18.407908 -103.128906 29.455188
-19.454754 -103.827972 27.032103
-18.501079 -104.236199 27.918693
-20.374603 -103.40017 26.267256
-19.454754 -103.827972 27.032103
-20.19918 -102.245369 27.735371
-21.379013 -103.019501 25.589655
-20.374603 -103.40017 26.267256
-44.754858 -101.398575 1.159878
-45.514145 -100.106834 1.323462
-47.194847 -96.7397 -2.780112
-46.952038 -97.300255 -1.750279
-47.440426 -96.108261 -3.831142
-47.194847 -96.7397 -2.780112
-47.791134 -95.246689 -2.749258
-47.679934 -95.468735 -4.840394
-47.440426 -96.108261 -3.831142
-48.305099 -93.916268 -4.821888
-47.94832 -94.769753 -5.861995
-47.679934 -95.468735 -4.840394
-49.543819 -90.886955 -4.892323
-49.225002 -91.684753 -5.882903
-48.892303 -92.419487 -4.852909
-47.280489 -95.475838 6.076906
-46.806512 -96.719918 6.070898
-47.550076 -94.997513 4.902926
-47.280489 -95.475838 6.076906
-47.810717 -94.513779 3.774702
-47.355044 -95.804337 3.800497
-47.550076 -94.997513 4.902926
-48.27202 -93.170288 3.7251
-48.675133 -91.870926 3.622129
-48.076988 -93.977112 2.622671
-47.810717 -94.513779 3.774702
-48.27202 -93.170288 3.7251
-49.638444 -90.057839 0.19695
-49.276407 -90.692726 1.331075
-49.810569 -89.318008 1.211749
-49.425134 -90.771896 -0.785856
-49.638444 -90.057839 0.19695
-49.959297 -89.397179 -0.905183
-49.85078 -90.155358 -3.946931
-49.478554 -90.866463 -2.875159
-50.118213 -89.400132 -2.959761
-49.543819 -90.886955 -4.892323
-49.85078 -90.155358 -3.946931
-21.73365 -100.255394 27.851599
-20.846854 -100.657944 28.464527
-22.079552 -101.470611 26.446669
-21.73365 -100.255394 27.851599
-22.694173 -99.90844 27.327744
-22.339536 -102.672546 25.0658
-21.379013 -103.019501 25.589655
-22.079552 -101.470611 26.446669
-26.517962 -99.160126 26.681949
-27.439999 -99.166023 26.882668
-25.526204 -99.268876 26.652957
-26.517962 -99.160126 26.681949
-26.00462 -100.551072 25.448658
-24.59691 -99.399681 26.724849
-25.526204 -99.268876 26.652957
-24.026468 -100.891739 25.671239
-23.610517 -99.631599 26.976423
-24.59691 -99.399681 26.724849
-22.681377 -103.911987 23.782447
-22.339536 -102.672546 25.0658
-23.381917 -102.363098 24.63946
-22.950791 -105.11985 22.518031
-22.681377 -103.911987 23.782447
-22.950791 -105.11985 22.518031
-24.075989 -104.820678 22.190599
-25.137083 -104.605446 22.03744
-26.270856 -104.371292 21.974614
-29.47461 -104.002601 22.649795
-30.554583 -103.839516 23.063952
-39.793782 -105.034424 15.970058
-39.196766 -105.846115 14.479266
3 35 34 9
3 0 11 10
3 0 13 11
3 36 14 37
3 39 38 14
3 1 40 41
3 1 42 44
3 42 16 43
3 42 43 44
3 1 45 47
3 47 46 16
3 45 46 47
3 2 48 50
3 48 17 49
3 48 49 50
3 51 18 52
3 53 19 54
3 55 54 18
3 53 54 55
3 56 20 57
3 58 21 59
3 60 59 20
3 58 59 60
3 2 61 63
3 61 22 62
3 61 62 63
3 2 64 66
3 66 65 22
3 64 65 66
3 5 67 69
3 67 23 68
3 67 68 69
3 5 70 72
3 72 71 23
3 70 71 72
3 5 73 74
3 75 24 76
3 77 25 78
3 79 78 24
3 77 78 79
3 3 80 81
3 6 26 12
3 6 27 26
3 7 82 83
3 7 84 86
3 84 28 85
3 84 85 86
3 7 29 28
3 87 30 88
3 90 89 30
3 91 31 92
3 8 32 15
3 8 33 32
3 8 93 95
3 95 94 33
3 93 94 95
3 4 96 97
3 99 98 2
3 100 2 101
3 9 102 103
3 105 104 9
3 106 5 107
3 109 108 5
3 10 110 112
3 112 111 3
3 110 111 112
3 11 113 115
3 115 114 10
3 113 114 115
3 11 116 117
3 11 118 120
3 118 12 119
3 118 119 120
3 13 12 11
3 13 6 12
3 14 121 122
3 14 123 125
3 123 7 124
3 123 124 125
3 14 126 128
3 128 127 7
3 126 127 128
3 130 129 14
3 131 15 132
3 16 133 135
3 133 15 134
3 133 134 135
3 16 8 15
3 16 136 138
3 138 137 8
3 136 137 138
3 140 139 16
3 142 141 4
3 17 143 144
3 17 145 147
3 145 3 146
3 145 146 147
3 148 17 149
3 150 149 2
3 148 149 150
3 18 151 153
3 151 17 152
3 151 152 153
3 18 3 17
3 18 10 3
3 19 10 18
3 19 0 10
3 154 1 155
3 157 156 1
3 158 4 159
3 160 4 161
3 163 162 4
3 20 164 165
3 20 166 167
3 20 168 169
3 21 170 172
3 172 171 20
3 170 171 172
3 21 173 174
3 175 21 176
3 22 177 179
3 177 21 178
3 177 178 179
3 22 180 182
3 182 181 21
3 180 181 182
3 22 183 184
3 186 185 22
3 23 187 188
3 23 189 190
3 23 191 192
3 194 193 23
3 196 195 5
3 24 197 198
3 24 199 200
3 24 201 202
3 25 203 205
3 205 204 24
3 203 204 205
3 25 206 207
3 209 208 3
3 12 210 211
3 26 212 214
3 214 213 12
3 212 213 214
3 26 215 216
3 26 217 219
3 217 9 218
3 217 218 219
3 27 9 26
3 27 220 222
3 222 221 9
3 220 221 222
3 223 19 224
3 225 19 226
3 227 0 228
3 229 228 19
3 227 228 229
3 28 230 231
3 28 232 234
3 232 0 233
3 232 233 234
3 28 13 0
3 29 13 28
3 29 6 13
3 235 29 236
3 237 236 7
3 235 236 237
3 30 238 240
3 238 29 239
3 238 239 240
3 30 6 29
3 30 27 6
3 241 27 242
3 243 242 30
3 241 242 243
3 245 244 27
3 246 25 247
3 31 248 250
3 248 25 249
3 248 249 250
3 31 251 253
3 253 252 25
3 251 252 253
3 15 254 255
3 32 256 258
3 258 257 15
3 256 257 258
3 32 259 260
3 32 261 263
3 261 31 262
3 261 262 263
3 33 31 32
3 33 264 266
3 266 265 31
3 264 265 266
3 33 267 268
3 270 269 33
3 272 271 8
3 274 273 1
3 276 275 4
