ply
format ascii 1.0
element vertex 251
property float x
property float y
property float z
element face 231
property list uchar int vertex_index
end_header
23.75021 80.80838 -17.770109
15.905793 75.587906 -25.743494
17.561028 85.886665 -9.737833
7.045027 88.504112 -9.574484
10.181911 84.713005 -20.462393
19.773472 79.108261 -21.978067
20.432968 83.814522 -14.342196
13.798399 86.247391 -15.313969
16.599089 83.338814 -19.35116
9.050196 89.272079 3.087247
15.343995 87.343376 -4.126703
10.251995 89.243301 -3.772657
11.710186 88.186226 -10.012045
21.78117 80.194481 -19.942919
23.403234 77.829636 -20.988062
25.425289 78.788597 -19.041159
22.063915 82.462341 -16.207434
18.531044 83.806358 -16.910891
20.135534 82.173149 -18.591345
18.171263 81.411118 -20.837416
11.223671 88.951172 2.611775
16.374691 86.690887 -7.043436
13.539497 87.97316 -7.100777
14.528393 87.21489 -9.961462
11.943459 85.735779 -17.947447
10.82955 86.961922 -15.550562
9.095245 86.092499 -18.192392
14.380997 78.441849 -24.969427
8.60372 89.128441 -6.708649
8.104055 89.342232 -3.372589
17.793999 77.559502 -23.90288
19.325161 74.587433 -24.550306
21.346134 76.418159 -22.810884
18.918215 84.936897 -12.179604
15.690479 86.278656 -12.573114
17.032631 85.155281 -14.899389
15.122677 84.933472 -17.506601
13.245926 84.220955 -19.993479
11.458603 82.998505 -22.355165
14.695663 82.37571 -21.664057
16.232819 80.160736 -22.958174
14.432953 87.812889 -1.018339
11.934889 88.873566 -0.780369
12.690836 88.536652 -4.028584
10.923134 88.832008 -6.988049
9.189787 88.653801 -9.880892
12.659805 87.324181 -12.802189
9.917555 87.930428 -12.844931
25.620995 80.975502 -15.441811
27.345013 79.293198 -16.935369
17.068928 86.355652 -1.108122
18.143642 85.819099 -4.065702
19.356644 85.143913 -6.824348
22.253586 83.42865 -11.651333
29.012093 77.222939 -18.176916
30.572315 74.747337 -19.192026
9.643324 89.396255 -0.40379
7.636538 89.28405 0.090448
12.410468 88.504295 2.431917
12.010309 88.494488 4.13401
16.654822 73.990173 -25.991804
15.781337 72.822392 -26.877086
15.032308 74.420124 -26.628777
8.842648 84.710422 -20.587418
8.299316 85.40017 -19.452417
9.638578 85.402752 -19.327393
9.371009 83.946102 -21.654882
8.842648 84.710422 -20.587418
14.285916 75.944577 -26.312134
13.523519 77.371548 -25.9251
15.143395 77.014878 -25.35646
15.032308 74.420124 -26.628777
14.285916 75.944577 -26.312134
6.849641 88.637062 -7.927636
7.628987 88.949226 -6.494718
7.824374 88.816277 -8.141566
24.176839 76.452759 -21.378874
25.216947 77.099914 -20.517788
8.745365 89.066329 4.881151
9.784886 89.008263 4.603466
8.104361 89.110412 3.370011
8.745365 89.066329 4.881151
21.817543 72.33229 -24.18273
20.057326 72.942184 -24.760912
21.085379 73.977539 -23.972124
9.068995 87.550667 -14.214866
10.373552 87.446175 -14.197747
9.524993 87.066414 -15.567681
8.733307 87.950913 -12.769027
9.068995 87.550667 -14.214866
10.633259 82.138596 -23.470651
12.168546 81.956406 -23.104377
28.229608 80.064885 -13.803481
27.365509 80.175831 -15.047187
26.485093 80.864555 -14.198105
17.871517 85.710236 0.41247
16.583397 86.533413 0.457724
19.589563 84.971867 -3.95928
18.968315 85.241592 -2.557476
20.196064 84.634274 -5.338603
18.750143 85.481506 -5.445025
19.589563 84.971867 -3.95928
23.103919 83.07967 -10.252233
21.490774 83.889927 -10.505722
26.485093 80.864555 -14.198105
24.761691 81.651741 -14.561582
29.922164 77.430722 -17.149143
28.178553 78.258069 -17.556142
29.088624 78.465851 -16.52837
32.26283 73.853272 -18.810472
31.51663 75.122742 -18.283065
31.282179 73.322392 -19.603832
32.26283 73.853272 -18.810472
6.977407 89.025745 -1.382378
7.870297 89.313141 -1.641071
7.211166 89.054836 -3.113897
6.810951 88.890774 0.380503
6.977407 89.025745 -1.382378
26.227975 77.579395 -19.544337
25.216947 77.099914 -20.517788
24.414262 78.309116 -20.01461
10.871624 88.847809 4.36573
11.658262 88.391125 5.887964
12.010309 88.494488 4.13401
10.136933 89.111626 2.849511
9.784886 89.008263 4.603466
10.871624 88.847809 4.36573
8.65784 86.631703 -16.888597
9.524993 87.066414 -15.567681
9.962397 86.52721 -16.871477
7.88065 85.994541 -18.203957
8.65784 86.631703 -16.888597
7.084721 85.302212 -19.463981
7.88065 85.994541 -18.203957
8.299316 85.40017 -19.452417
12.788772 78.713986 -25.445839
13.629744 79.678078 -24.411509
12.788772 78.713986 -25.445839
13.523519 77.371548 -25.9251
7.379155 89.056122 -4.826688
8.353887 89.235336 -5.040619
7.628987 88.949226 -6.494718
7.211166 89.054836 -3.113897
7.379155 89.056122 -4.826688
22.095865 74.892902 -23.102413
21.085379 73.977539 -23.972124
20.335648 75.502796 -23.680595
23.148288 75.74702 -22.290285
22.374684 77.123897 -21.899473
24.176839 76.452759 -21.378874
22.095865 74.892902 -23.102413
23.148288 75.74702 -22.290285
13.787076 81.645008 -22.758823
12.168546 81.956406 -23.104377
13.077133 82.687107 -22.009611
14.555654 80.537521 -23.405882
13.787076 81.645008 -22.758823
15.464241 81.268223 -22.311115
15.306908 79.301293 -23.9638
13.629744 79.678078 -24.411509
14.555654 80.537521 -23.405882
6.18959 88.09119 -9.344938
6.33285 87.934109 -10.965351
18.364506 73.489937 -25.39521
16.654822 73.990173 -25.991804
17.615477 75.08767 -25.1469
18.364506 73.489937 -25.39521
20.057326 72.942184 -24.760912
13.183921 88.343227 -0.899354
12.766077 88.465492 0.735846
14.015109 87.935154 0.616861
8.369423 88.312599 -11.287007
9.553671 88.292114 -11.362911
8.733307 87.950913 -12.769027
7.297043 88.237754 -11.133803
8.117407 88.578957 -9.727688
8.369423 88.312599 -11.287007
6.33285 87.934109 -10.965351
7.297043 88.237754 -11.133803
10.009355 83.088852 -22.601268
9.371009 83.946102 -21.654882
10.820257 83.855755 -21.408779
10.009355 83.088852 -22.601268
10.633259 82.138596 -23.470651
28.227518 79.334679 -15.793966
26.483004 80.13435 -16.18859
27.365509 80.175831 -15.047187
29.088624 78.465851 -16.52837
28.227518 79.334679 -15.793966
15.26541 87.262032 0.502615
14.015109 87.935154 0.616861
15.75094 87.084271 -1.06323
15.26541 87.262032 0.502615
16.583397 86.533413 0.457724
18.430958 85.509869 -1.078686
17.871517 85.710236 0.41247
17.606285 86.087376 -2.586912
18.430958 85.509869 -1.078686
18.968315 85.241592 -2.557476
20.889257 84.311592 -6.641932
20.196064 84.634274 -5.338603
20.042303 84.747558 -8.09223
20.889257 84.311592 -6.641932
19.144495 85.118934 -9.548972
18.458836 85.515289 -8.28109
20.042303 84.747558 -8.09223
19.823089 84.64405 -10.769858
18.239621 85.411781 -10.958718
19.144495 85.118934 -9.548972
20.585901 84.182773 -11.915468
19.823089 84.64405 -10.769858
21.490774 83.889927 -10.505722
23.932408 82.636524 -11.336057
23.103919 83.07967 -10.252233
23.077987 82.878315 -12.666343
23.932408 82.636524 -11.336057
22.167678 83.071251 -14.011774
21.343277 83.621586 -12.996764
23.077987 82.878315 -12.666343
22.983151 82.395161 -14.944394
21.248441 83.138431 -15.274815
22.167678 83.071251 -14.011774
23.842455 81.718921 -15.824623
22.983151 82.395161 -14.944394
24.761691 81.651741 -14.561582
28.021377 76.796566 -19.112215
26.227975 77.579395 -19.544337
27.218691 78.005768 -18.609037
30.736519 76.360543 -17.77551
29.922164 77.430722 -17.149143
29.792204 75.985138 -18.684471
30.736519 76.360543 -17.77551
31.51663 75.122742 -18.283065
28.801488 75.558765 -19.61977
28.021377 76.796566 -19.112215
29.792204 75.985138 -18.684471
29.548592 74.156277 -20.011643
28.801488 75.558765 -19.61977
30.258457 72.731331 -20.423448
29.548592 74.156277 -20.011643
31.282179 73.322392 -19.603832
11.57928 88.912369 0.915703
12.410468 88.504295 2.431917
12.766077 88.465492 0.735846
7.397531 89.116398 1.871611
8.104361 89.110412 3.370011
8.343367 89.278064 1.588847
7.397531 89.116398 1.871611
6.810951 88.890774 0.380503
6.849641 88.637062 -7.927636
6.18959 88.09119 -9.344938
3 0 15 13
3 0 18 16
3 0 13 18
3 58 20 59
3 1 60 62
3 60 61 62
3 2 23 21
3 4 26 24
3 4 63 65
3 65 64 26
3 63 64 65
3 4 66 67
3 1 68 70
3 70 69 27
3 68 69 70
3 1 71 72
3 3 73 75
3 75 74 28
3 73 74 75
3 5 32 30
3 77 76 14
3 6 35 33
3 8 36 17
3 8 37 36
3 8 39 37
3 5 40 19
3 5 30 40
3 9 78 79
3 9 80 81
3 84 83 31
3 82 83 84
3 10 43 41
3 12 44 22
3 12 45 44
3 7 46 34
3 85 47 86
3 87 86 25
3 85 86 87
3 89 88 47
3 91 90 38
3 94 93 48
3 92 93 94
3 95 50 96
3 97 51 98
3 99 52 100
3 101 100 51
3 99 100 101
3 102 53 103
3 104 48 105
3 106 54 107
3 108 107 49
3 106 107 108
3 109 55 110
3 112 111 55
3 11 56 42
3 113 57 114
3 115 114 29
3 113 114 115
3 117 116 57
3 13 14 5
3 15 14 13
3 15 118 120
3 120 119 14
3 118 119 120
3 16 17 6
3 18 17 16
3 18 8 17
3 18 19 8
3 13 19 18
3 13 5 19
3 20 121 123
3 121 122 123
3 20 124 126
3 124 9 125
3 124 125 126
3 21 22 10
3 23 22 21
3 23 12 22
3 24 25 7
3 26 25 24
3 26 127 129
3 129 128 25
3 127 128 129
3 26 130 131
3 134 133 26
3 132 133 134
3 27 135 136
3 138 137 27
3 28 29 11
3 139 29 140
3 141 140 28
3 139 140 141
3 143 142 29
3 30 31 1
3 32 31 30
3 32 144 146
3 146 145 31
3 144 145 146
3 14 32 5
3 147 32 148
3 149 148 14
3 147 148 149
3 151 150 32
3 33 34 2
3 35 34 33
3 35 7 34
3 17 35 6
3 36 35 17
3 36 7 35
3 36 24 7
3 37 24 36
3 37 4 24
3 37 38 4
3 39 38 37
3 39 152 154
3 154 153 38
3 152 153 154
3 19 39 8
3 40 39 19
3 40 155 157
3 157 156 39
3 155 156 157
3 40 158 160
3 158 27 159
3 158 159 160
3 30 27 40
3 30 1 27
3 162 161 3
3 31 163 165
3 165 164 1
3 163 164 165
3 167 166 31
3 41 168 170
3 168 42 169
3 168 169 170
3 43 42 41
3 43 11 42
3 22 43 10
3 44 43 22
3 44 11 43
3 44 28 11
3 45 28 44
3 45 3 28
3 34 23 2
3 46 23 34
3 46 12 23
3 25 46 7
3 47 46 25
3 47 12 46
3 47 45 12
3 171 45 172
3 173 172 47
3 171 172 173
3 174 3 175
3 176 175 45
3 174 175 176
3 178 177 3
3 38 179 181
3 181 180 4
3 179 180 181
3 183 182 38
3 48 49 0
3 184 49 185
3 186 185 48
3 184 185 186
3 188 187 49
3 189 41 190
3 50 191 193
3 191 41 192
3 191 192 193
3 50 10 41
3 194 50 195
3 51 196 198
3 196 50 197
3 196 197 198
3 51 10 50
3 51 21 10
3 52 21 51
3 52 2 21
3 199 52 200
3 201 52 202
3 203 2 204
3 205 204 52
3 203 204 205
3 206 33 207
3 208 207 2
3 206 207 208
3 53 209 211
3 209 33 210
3 209 210 211
3 53 6 33
3 212 53 213
3 214 53 215
3 216 6 217
3 218 217 53
3 216 217 218
3 219 16 220
3 221 220 6
3 219 220 221
3 48 222 224
3 222 16 223
3 222 223 224
3 48 0 16
3 49 15 0
3 54 15 49
3 54 225 227
3 227 226 15
3 225 226 227
3 228 54 229
3 55 230 232
3 230 54 231
3 230 231 232
3 55 233 235
3 235 234 54
3 233 234 235
3 55 236 237
3 240 239 55
3 238 239 240
3 42 241 243
3 241 20 242
3 241 242 243
3 56 20 42
3 56 9 20
3 29 56 11
3 57 56 29
3 57 9 56
3 57 244 246
3 246 245 9
3 244 245 246
3 248 247 57
3 250 249 3
