ply
format ascii 1.0
element vertex 281
property float x
property float y
property float z
element face 254
property list uchar int vertex_index
end_header
1.605129 -65.431305 43.021854
1.290443 -75.620026 37.501953
0.351564 -65.286514 34.206993
-1.707335 -53.446995 33.472031
1.065456 -70.693649 44.586395
0.874199 -75.793427 42.027157
1.069101 -70.704773 40.058567
0.901463 -70.602036 35.560913
1.105976 -65.343613 38.605598
0.866407 -70.368996 31.091217
0.551226 -59.715103 37.770844
-0.571917 -59.607494 33.544205
-1.402563 -59.444904 29.306894
-1.776377 -59.05938 25.085653
1.381931 -68.094353 43.744251
1.10146 -70.717773 42.319103
1.308193 -68.080978 41.499123
1.142544 -68.056152 39.259056
1.408503 -65.382401 40.812157
0.561226 -70.202545 51.403053
0.592733 -78.168823 45.440865
1.072758 -75.737335 39.761925
1.208994 -78.163231 40.897305
1.555893 -78.026382 38.634735
1.954155 -77.820358 36.369644
1.554489 -75.447769 35.244267
0.6688 -67.984299 34.800285
0.845942 -70.507019 33.323357
0.011366 -65.240448 32.014336
1.209507 -57.081276 41.649094
1.089912 -59.80262 39.875385
0.654497 -56.907532 39.62159
-1.171545 -53.587521 35.4944
-0.570852 -56.682137 35.518272
-1.132753 -56.596161 33.449081
-1.042896 -59.544888 31.425478
-1.604338 -56.496796 31.374498
-2.242239 -56.169052 27.227833
0.732916 -73.21907 45.537964
0.673428 -75.773766 44.301781
0.864132 -73.285675 43.257751
0.954575 -73.286148 40.98719
1.020634 -73.236931 38.724838
1.09037 -73.146042 36.469513
0.990427 -70.665665 37.805733
0.914427 -68.025436 37.025925
0.735804 -65.315048 36.403809
-1.773535 -50.352478 35.550812
0.557554 -73.064301 47.829025
0.955332 -70.613937 46.858925
0.893076 -78.217651 43.163269
1.198858 -73.012947 34.219902
1.670429 -62.709644 42.429367
1.344601 -62.62421 40.269661
0.913118 -62.565651 38.109352
0.423016 -62.528881 35.949425
0.042803 -56.778934 37.577137
-0.022881 -59.656349 35.66
-0.066032 -62.498783 33.790054
-0.494862 -62.453979 31.631279
-0.818026 -62.371841 29.473999
-1.012476 -62.233047 27.320698
-2.153051 -53.294292 31.443256
-1.971064 -56.360851 29.299465
-1.642664 -59.287769 27.192345
0.525569 -76.91283 46.015896
0.446373 -78.079933 46.590249
0.404664 -66.603309 33.394146
0.563282 -67.952202 33.690792
0.510182 -66.635406 34.503639
0.181465 -65.263481 33.110664
0.234565 -66.580276 32.297818
0.404664 -66.603309 33.394146
0.959827 -55.617607 41.546982
1.245221 -55.760016 42.510216
0.682322 -55.530735 40.53323
0.932002 -56.994404 40.635342
0.959827 -55.617607 41.546982
-1.799956 -48.807163 36.559351
-1.488942 -50.463226 36.53138
0.453898 -71.500382 50.766533
0.670759 -70.329762 50.26831
0.668924 -71.760639 48.481296
0.452063 -72.93126 48.979519
0.867812 -70.535458 47.996246
0.756443 -71.839119 47.343975
0.668924 -71.760639 48.481296
1.340854 -79.336712 41.506348
1.567822 -79.265141 40.372939
1.123717 -71.600232 31.532644
1.113484 -71.669243 32.648714
0.856175 -70.438007 32.207287
1.26516 -71.481769 30.41026
1.123717 -71.600232 31.532644
0.930856 -70.272869 29.976702
1.26516 -71.481769 30.41026
1.605084 -61.319153 42.20102
1.768197 -61.400772 43.245856
1.442169 -61.276435 41.121167
1.507515 -62.666927 41.349514
1.605084 -61.319153 42.20102
-0.259965 -55.258978 37.539783
0.061744 -55.350831 38.532547
-2.334568 -53.200979 30.428474
-2.414245 -51.60931 31.516375
-2.243574 -54.734258 29.356578
-2.062057 -54.827571 30.371361
-2.334568 -53.200979 30.428474
-1.427574 -60.541804 25.130462
-1.360718 -60.655998 26.183808
-1.70952 -59.173575 26.138999
-1.40555 -60.398898 24.063907
-1.427574 -60.541804 25.130462
0.683451 -68.951084 52.04512
0.444302 -70.01865 52.527698
0.799865 -69.051949 50.938392
0.683451 -68.951084 52.04512
0.670759 -70.329762 50.26831
0.799865 -69.051949 50.938392
0.627385 -79.312607 46.053982
0.446373 -78.079933 46.590249
0.823514 -79.358772 44.912396
0.627385 -79.312607 46.053982
1.741272 -79.196716 39.241653
1.567822 -79.265141 40.372939
1.382443 -78.094807 39.76602
1.993066 -79.082806 38.104183
1.741272 -79.196716 39.241653
2.192197 -78.979793 36.971637
1.993066 -79.082806 38.104183
1.755024 -77.92337 37.50219
2.476393 -78.82975 35.826957
2.714435 -79.989185 36.428951
2.192197 -78.979793 36.971637
2.189336 -77.685756 35.23386
2.476393 -78.82975 35.826957
1.989503 -76.499462 34.671171
2.189336 -77.685756 35.23386
1.754322 -76.634063 35.806956
1.723361 -75.334037 34.115305
1.989503 -76.499462 34.671171
0.651853 -69.213562 32.952328
0.757371 -69.245659 34.061821
0.563282 -67.952202 33.690792
0.662085 -69.144551 31.836258
0.856175 -70.438007 32.207287
0.651853 -69.213562 32.952328
0.598071 -69.092754 30.729278
0.662085 -69.144551 31.836258
0.17055 -66.528481 31.190838
0.234565 -66.580276 32.297818
-0.111648 -65.198574 30.919705
0.17055 -66.528481 31.190838
1.437655 -57.19215 42.654313
1.245221 -55.760016 42.510216
1.374623 -58.504969 41.810883
1.437655 -57.19215 42.654313
1.14971 -58.441948 40.762239
1.314825 -59.86564 40.924029
1.374623 -58.504969 41.810883
-0.871198 -55.134829 35.506336
-0.566793 -55.210579 36.510351
-0.867139 -53.663271 36.498415
-2.531809 -54.518892 27.306455
-2.379162 -54.638359 28.320762
-2.342064 -56.038048 26.194538
-2.531809 -54.518892 27.306455
-2.109133 -57.483211 25.123448
-2.009308 -57.614216 26.156743
-2.342064 -56.038048 26.194538
-1.802103 -58.905289 24.037596
-2.109133 -57.483211 25.123448
0.703172 -74.496418 44.919872
0.565917 -75.715301 45.446354
0.595661 -74.437953 46.064446
-1.187947 -52.080748 36.503174
-0.867139 -53.663271 36.498415
-1.47254 -51.97 35.522606
-1.187947 -52.080748 36.503174
-1.488942 -50.463226 36.53138
0.339709 -71.301541 51.919086
0.222786 -71.117646 53.043732
0.444302 -70.01865 52.527698
0.339709 -71.301541 51.919086
0.453898 -71.500382 50.766533
0.392418 -74.241112 48.364208
0.452063 -72.93126 48.979519
0.50798 -74.360569 47.209976
0.392418 -74.241112 48.364208
0.645235 -73.141685 46.683495
0.595661 -74.437953 46.064446
0.50798 -74.360569 47.209976
1.093504 -69.318932 47.548043
0.867812 -70.535458 47.996246
1.154494 -69.347885 46.42527
1.093504 -69.318932 47.548043
1.209556 -69.387741 45.289005
1.010394 -70.653793 45.72266
1.154494 -69.347885 46.42527
1.367793 -68.088093 44.867933
1.223693 -69.394001 44.165323
1.209556 -69.387741 45.289005
1.530479 -66.787205 44.488119
1.367793 -68.088093 44.867933
1.642078 -65.455681 44.12692
1.49353 -66.762829 43.383052
1.530479 -66.787205 44.488119
0.63308 -76.971294 44.871323
0.525569 -76.91283 46.015896
0.565917 -75.715301 45.446354
0.973685 -79.383186 43.773598
0.823514 -79.358772 44.912396
0.742904 -78.193237 44.302067
1.182895 -79.363922 42.63933
1.051035 -78.190441 42.030287
1.340854 -79.336712 41.506348
0.973685 -79.383186 43.773598
1.182895 -79.363922 42.63933
1.545546 -74.116626 33.603122
1.723361 -75.334037 34.115305
1.376673 -74.230358 34.732084
1.289942 -72.922207 33.096987
1.0224 -71.759983 33.77163
1.113484 -71.669243 32.648714
1.545546 -74.116626 33.603122
1.289942 -72.922207 33.096987
0.930856 -70.272869 29.976702
0.598071 -69.092754 30.729278
1.735098 -64.123717 43.804372
1.642078 -65.455681 44.12692
1.767748 -62.762886 43.508129
1.768197 -61.400772 43.245856
1.637779 -64.070474 42.725611
1.735098 -64.123717 43.804372
1.767748 -62.762886 43.508129
1.217256 -61.213415 40.072523
1.442169 -61.276435 41.121167
1.314825 -59.86564 40.924029
0.367591 -55.415131 39.554773
0.682322 -55.530735 40.53323
0.34865 -56.843233 38.599363
0.367591 -55.415131 39.554773
0.061744 -55.350831 38.532547
-0.264024 -56.730536 36.547705
-0.259965 -55.258978 37.539783
-0.566793 -55.210579 36.510351
-0.364762 -63.80534 30.728176
-0.111648 -65.198574 30.919705
-0.241748 -63.847213 31.822807
-0.526344 -63.764271 29.649536
-0.364762 -63.80534 30.728176
-0.656444 -62.41291 30.552639
-0.5862 -63.69471 28.556849
-0.526344 -63.764271 29.649536
-0.683425 -63.625312 27.480199
-0.5862 -63.69471 28.556849
-0.915251 -62.302444 28.397348
-0.675219 -63.522186 26.390662
-0.683425 -63.625312 27.480199
-2.055842 -48.655412 35.599614
-1.799956 -48.807163 36.559351
-2.017378 -50.247704 34.562077
-2.055842 -48.655412 35.599614
-1.984278 -51.794962 33.522686
-1.740435 -51.899737 34.511421
-2.017378 -50.247704 34.562077
-2.207136 -51.71861 32.508299
-2.414245 -51.60931 31.516375
-1.930193 -53.370643 32.457644
-1.984278 -51.794962 33.522686
-2.207136 -51.71861 32.508299
-2.106651 -56.264951 28.263649
-2.243574 -54.734258 29.356578
-2.379162 -54.638359 28.320762
-1.045624 -62.128637 26.247984
-1.32757 -60.760408 27.256521
-1.360718 -60.655998 26.183808
-0.675219 -63.522186 26.390662
-1.045624 -62.128637 26.247984
-1.40555 -60.398898 24.063907
-1.802103 -58.905289 24.037596
3 0 16 14
3 0 18 16
3 65 20 66
3 1 23 21
3 1 24 23
3 1 25 24
3 2 67 69
3 69 68 26
3 67 68 69
3 2 70 72
3 70 28 71
3 70 71 72
3 73 29 74
3 75 31 76
3 77 76 29
3 75 76 77
3 3 34 32
3 3 36 34
3 4 40 38
3 6 41 15
3 6 42 41
3 6 44 42
3 8 45 17
3 8 46 45
3 78 47 79
3 81 80 19
3 82 48 83
3 84 49 85
3 86 85 48
3 84 85 86
3 5 50 39
3 88 87 22
3 7 51 43
3 9 89 91
3 91 90 27
3 89 90 91
3 9 92 93
3 9 94 95
3 96 52 97
3 98 53 99
3 100 99 52
3 98 99 100
3 10 54 30
3 10 55 54
3 101 56 102
3 11 57 33
3 11 58 57
3 11 59 58
3 12 60 35
3 12 61 60
3 103 62 104
3 105 63 106
3 107 106 62
3 105 106 107
3 13 64 37
3 13 108 110
3 110 109 64
3 108 109 110
3 13 111 112
3 14 15 4
3 16 15 14
3 16 6 15
3 16 17 6
3 18 17 16
3 18 8 17
3 113 19 114
3 115 19 116
3 118 117 19
3 20 119 120
3 20 121 122
3 21 22 5
3 23 22 21
3 23 123 125
3 125 124 22
3 123 124 125
3 23 126 127
3 24 128 130
3 130 129 23
3 128 129 130
3 24 131 133
3 131 132 133
3 24 134 135
3 25 136 138
3 138 137 24
3 136 137 138
3 25 139 140
3 26 27 7
3 141 27 142
3 143 142 26
3 141 142 143
3 144 9 145
3 146 145 27
3 144 145 146
3 148 147 9
3 28 149 150
3 28 151 152
3 29 153 154
3 29 155 156
3 29 157 159
3 157 30 158
3 157 158 159
3 31 30 29
3 31 10 30
3 32 160 162
3 160 33 161
3 160 161 162
3 34 33 32
3 34 11 33
3 34 35 11
3 36 35 34
3 36 12 35
3 163 37 164
3 165 37 166
3 167 13 168
3 169 168 37
3 167 168 169
3 171 170 13
3 38 172 174
3 172 39 173
3 172 173 174
3 40 39 38
3 40 5 39
3 15 40 4
3 41 40 15
3 41 5 40
3 41 21 5
3 42 21 41
3 42 1 21
3 42 43 1
3 44 43 42
3 44 7 43
3 17 44 6
3 45 44 17
3 45 7 44
3 45 26 7
3 46 26 45
3 46 2 26
3 175 32 176
3 47 177 179
3 177 32 178
3 177 178 179
3 47 3 32
3 19 180 182
3 180 181 182
3 184 183 19
3 48 185 186
3 48 187 188
3 48 189 191
3 189 38 190
3 189 190 191
3 49 38 48
3 49 4 38
3 192 49 193
3 194 49 195
3 196 4 197
3 198 197 49
3 196 197 198
3 199 14 200
3 201 200 4
3 199 200 201
3 202 14 203
3 204 0 205
3 206 205 14
3 204 205 206
3 39 207 209
3 207 20 208
3 207 208 209
3 50 20 39
3 50 210 212
3 212 211 20
3 210 211 212
3 22 50 5
3 213 50 214
3 215 214 22
3 213 214 215
3 217 216 50
3 43 25 1
3 51 25 43
3 51 218 220
3 220 219 25
3 218 219 220
3 27 51 7
3 221 51 222
3 223 222 27
3 221 222 223
3 225 224 51
3 227 226 9
3 228 0 229
3 52 230 231
3 52 232 234
3 232 0 233
3 232 233 234
3 52 18 0
3 53 18 52
3 53 8 18
3 30 235 237
3 235 53 236
3 235 236 237
3 54 53 30
3 54 8 53
3 54 46 8
3 55 46 54
3 55 2 46
3 238 31 239
3 56 240 242
3 240 31 241
3 240 241 242
3 56 10 31
3 33 243 245
3 243 56 244
3 243 244 245
3 57 56 33
3 57 10 56
3 57 55 10
3 58 55 57
3 58 2 55
3 58 28 2
3 59 28 58
3 59 246 248
3 248 247 28
3 246 247 248
3 35 59 11
3 60 59 35
3 60 249 251
3 251 250 59
3 249 250 251
3 60 252 253
3 61 254 256
3 256 255 60
3 254 255 256
3 61 257 258
3 259 47 260
3 261 47 262
3 263 3 264
3 265 264 47
3 263 264 265
3 62 266 267
3 62 268 270
3 268 3 269
3 268 269 270
3 62 36 3
3 63 36 62
3 63 12 36
3 37 271 273
3 271 63 272
3 271 272 273
3 64 63 37
3 64 12 63
3 64 61 12
3 274 61 275
3 276 275 64
3 274 275 276
3 278 277 61
3 280 279 13
