ply
format ascii 1.0
element vertex 482
property float x
property float y
property float z
element face 469
property list uchar int vertex_index
end_header
30.126993 -2.654116 -44.498985
36.002796 -6.775681 -52.556732
31.920046 -11.315296 -35.633308
30.246103 -15.23662 -45.833664
29.533188 -3.07889 -51.208328
29.98991 -0.454468 -34.989624
35.176552 5.436583 -57.136673
44.215004 -1.799307 -56.575638
44.564934 -14.396937 -48.972588
31.159454 -7.287211 -40.184143
30.998991 -12.478386 -39.48703
29.641605 -7.73316 -44.161057
29.087294 -2.649885 -48.440498
48.719765 4.675463 -56.479866
32.694553 -10.782574 -49.414574
33.619537 -17.600502 -45.568596
36.755039 -13.520237 -48.5755
40.759132 -17.216223 -46.7789
40.42691 -10.098624 -51.203629
32.083736 -20.239176 -30.109491
32.162632 -16.689539 -34.64743
29.647896 -8.987889 -48.964699
32.037003 -4.427565 -52.605583
31.170916 -5.926606 -35.735985
30.97975 -2.217247 -39.769333
30.530272 2.118961 -43.554405
29.883675 2.458302 -52.208878
35.402573 -0.51532 -55.617912
39.450535 2.369883 -57.568108
39.901051 -3.671761 -55.095421
44.509468 -7.845903 -53.321777
48.652172 -13.035687 -50.721069
48.019768 -19.424166 -46.47538
51.798691 -19.070889 -47.735252
44.215782 -21.740879 -44.59124
30.611336 -5.036806 -42.386566
30.467531 -7.574968 -42.270195
29.892365 -5.158736 -44.486465
29.217052 -5.217478 -46.356506
29.509638 -2.646906 -46.598946
34.260761 -8.695303 -51.044472
34.674992 -12.032234 -49.142342
36.375446 -10.073765 -50.636436
38.532909 -11.693174 -49.936104
38.214085 -8.314295 -52.022812
31.877453 -13.070984 -33.39769
32.174927 -15.820456 -32.942741
32.104656 -14.003181 -35.24279
30.050404 -12.79372 -41.201561
30.814774 -15.116145 -38.777107
28.903116 -5.558352 -49.249672
29.53001 -5.991718 -50.219574
30.697948 -6.653664 -50.84668
30.544939 -3.626755 -52.086357
30.624208 -3.207954 -35.453926
31.167629 -4.157948 -37.771194
30.78046 -1.545876 -37.324989
33.435242 0.66847 -55.329048
35.228409 2.495169 -56.597542
41.663635 3.367552 -57.976387
41.812977 0.414455 -57.23748
39.648804 -0.621851 -56.554192
42.01619 -2.573503 -56.004959
42.231697 -5.630115 -54.341637
44.377579 -4.782035 -55.150009
48.810394 -9.985215 -52.714859
50.749607 -12.970045 -51.235298
50.38868 -15.963767 -49.255768
32.344559 -21.262072 -31.506479
32.185745 -22.976528 -29.282393
35.522133 -19.146769 -45.045441
34.088234 -21.222385 -43.518967
42.617706 -15.655169 -47.906044
42.562679 -19.397587 -45.693481
44.449196 -17.957239 -46.731239
46.114655 -20.39168 -45.563759
46.39666 -16.856518 -47.716003
31.64036 -9.384614 -37.917671
31.710806 -12.015181 -37.606865
31.11878 -9.867384 -39.966461
30.274876 -10.162428 -41.864784
29.391041 -10.369 -43.552032
28.95521 -7.86758 -45.806519
28.827915 -5.320884 -47.95414
29.055792 -2.768017 -49.986122
31.342646 -12.979372 -47.677467
31.802067 -16.298082 -45.844551
33.13953 -14.125712 -47.546677
35.109928 -15.510485 -47.123711
37.101448 -17.136417 -46.453133
39.004814 -19.001532 -45.594521
38.810307 -15.249569 -47.765343
40.634586 -13.556295 -49.001656
42.561958 -12.130429 -50.161995
31.824505 -17.459558 -30.783751
32.331825 -18.553307 -32.30584
31.675632 -14.659821 -37.063431
29.889242 -12.067581 -47.489372
30.967186 -9.768545 -49.35981
32.319477 -7.554974 -51.121017
33.90065 -5.479382 -52.759697
31.443626 -10.305354 -33.656532
30.880833 -7.517284 -33.714836
31.607302 -8.625241 -35.799934
31.458502 -6.767414 -37.974388
31.112619 -4.738385 -40.119133
30.697491 -2.551105 -42.195938
30.319141 1.083073 -36.678337
30.772743 0.284548 -39.157768
30.727686 -0.117519 -41.701691
30.338684 -0.226706 -44.185242
29.820648 -0.168812 -46.507935
29.302952 -0.073893 -50.400085
29.651745 -0.256641 -51.884697
30.511532 -0.686279 -53.025406
31.861084 -1.388708 -53.804794
33.618916 -2.363556 -54.211876
35.669483 -3.598784 -54.246536
37.208252 4.053587 -57.540367
37.355225 1.072222 -56.760178
37.593719 -1.96629 -55.533012
37.890327 -5.083832 -53.923431
40.171398 -6.81649 -53.275002
42.423847 -8.800755 -52.351021
44.579414 -11.037175 -51.214668
46.663895 -7.252413 -54.03624
46.669998 -10.319242 -52.094658
46.582993 -13.510052 -49.936409
48.381298 -16.176893 -48.58709
49.908539 -18.966032 -47.230629
51.064526 -21.803055 -45.905525
40.76329 -21.090508 -44.617455
47.609161 -22.835096 -44.495384
29.932427 -14.127881 -40.758945
29.606447 -12.925931 -41.948753
30.307059 -1.831211 -35.221775
30.027552 -2.516194 -34.373844
29.710403 -1.139451 -34.141693
34.273336 4.528994 -56.595059
34.3126 5.958951 -56.74263
35.202481 3.965876 -56.867108
34.299265 3.058287 -56.325493
34.273336 4.528994 -56.595059
43.01399 -0.692426 -56.906559
42.937708 0.779227 -57.376739
44.138722 -0.327654 -57.045818
51.797598 -13.11542 -51.315708
50.859758 -11.488014 -52.110862
51.578453 -14.579331 -50.436706
51.797598 -13.11542 -51.315708
32.276401 -22.597749 -31.036579
32.128405 -21.646771 -32.224618
30.470954 -16.871097 -44.931732
29.842386 -16.376645 -44.857548
35.69182 -21.049974 -43.995865
36.445251 -20.041047 -44.68687
47.52496 4.588295 -56.956696
47.560326 6.03157 -56.763592
31.622001 -16.053634 -31.037256
31.157855 -16.752015 -30.087906
32.130102 -18.029329 -34.259769
32.214698 -18.961213 -33.088974
32.247229 -17.621423 -33.476635
31.179781 -16.215302 -37.546749
30.698493 -16.444969 -38.323704
29.288429 -10.184975 -47.968872
29.252294 -8.709839 -48.597977
29.768569 -10.527735 -48.227035
29.409102 -11.724821 -47.231209
29.288429 -10.184975 -47.968872
30.828254 -9.617294 -32.718013
31.161202 -11.055643 -32.639464
31.025875 -6.721945 -34.72541
30.541736 -6.106244 -33.649223
30.686777 -5.310905 -34.659798
30.41515 1.931501 -37.505752
30.065494 2.414032 -36.287048
30.641951 1.532239 -38.745468
30.545942 0.68381 -37.918053
30.41515 1.931501 -37.505752
30.628979 1.000721 -42.628048
30.720118 1.075792 -41.317264
30.621412 2.194033 -42.243622
29.800813 1.10498 -47.453991
29.984006 1.017281 -46.291665
29.613723 -0.12287 -47.552124
29.800813 1.10498 -47.453991
29.593314 1.192205 -51.304481
29.471169 1.214894 -50.430027
29.76153 2.480992 -51.334423
31.157342 0.439358 -53.842743
30.556509 0.736586 -53.320511
31.832118 0.088143 -54.232437
31.186308 -1.037494 -53.4151
31.157342 0.439358 -53.842743
39.398455 3.846012 -57.829941
40.505005 4.344846 -58.034081
40.557085 2.868717 -57.772248
38.329394 3.211735 -57.554237
38.277314 4.687864 -57.816071
39.398455 3.846012 -57.829941
47.761734 -7.129606 -54.221874
46.624832 -5.761922 -54.827328
31.72046 -20.988466 -29.115936
31.539633 -19.577497 -29.474092
31.871708 -23.737047 -28.268169
32.151683 -24.31586 -28.802098
32.964222 -18.669886 -44.732628
32.055487 -18.018676 -44.870605
32.710802 -16.949292 -45.706574
33.451296 -22.270891 -42.68945
34.290289 -23.113899 -42.470993
43.291851 -22.552938 -44.093616
42.4653 -21.381293 -44.644737
43.38923 -20.569233 -45.14236
44.029974 -23.749277 -43.597317
43.291851 -22.552938 -44.093616
44.975635 -22.948237 -44.073204
44.029974 -23.749277 -43.597317
48.699749 -20.684189 -45.909061
48.494445 -22.389654 -44.919064
47.814464 -21.129631 -45.485382
48.711405 3.221045 -56.590751
49.876563 3.196099 -56.046753
32.02619 -14.44572 -33.170215
31.797213 -15.234083 -32.116751
31.648475 -13.859347 -32.344226
30.314612 -15.289093 -39.546718
30.432589 -13.954932 -39.989334
29.932427 -14.127881 -40.758945
30.698493 -16.444969 -38.323704
30.314612 -15.289093 -39.546718
28.879905 -6.995071 -48.740463
28.772894 -6.816645 -48.210705
29.193351 -7.211754 -49.225414
28.879905 -6.995071 -48.740463
29.216563 -5.775035 -49.734623
29.588953 -7.489803 -49.592137
29.252294 -8.709839 -48.597977
29.193351 -7.211754 -49.225414
30.413424 -3.951579 -34.518769
30.027552 -2.516194 -34.373844
30.897562 -4.56728 -35.594955
30.686777 -5.310905 -34.659798
30.413424 -3.951579 -34.518769
30.620271 3.251166 -43.097149
30.621412 2.194033 -42.243622
30.059041 3.748331 -52.181595
29.76153 2.480992 -51.334423
33.402681 2.144938 -55.691246
32.619197 1.116732 -54.994564
34.331826 1.58182 -55.963295
33.402681 2.144938 -55.691246
34.299265 3.058287 -56.325493
42.863037 2.255775 -57.746193
42.815455 3.719926 -57.956909
41.738306 1.891004 -57.606933
42.863037 2.255775 -57.746193
42.937708 0.779227 -57.376739
49.890152 -9.995598 -52.850643
48.834983 -8.496008 -53.561184
49.78 -11.47763 -51.975078
49.890152 -9.995598 -52.850643
50.859758 -11.488014 -52.110862
51.39799 -16.076192 -49.446942
50.569143 -14.466906 -50.245533
51.578453 -14.579331 -50.436706
52.102995 -17.629753 -48.686684
51.093685 -17.517328 -48.49551
51.39799 -16.076192 -49.446942
32.196995 -23.454977 -29.924536
32.265152 -22.1193 -30.394436
32.276401 -22.597749 -31.036579
32.151683 -24.31586 -28.802098
32.196995 -23.454977 -29.924536
34.974871 -22.087781 -43.232628
34.805183 -20.184577 -44.282204
35.69182 -21.049974 -43.995865
34.290289 -23.113899 -42.470993
34.974871 -22.087781 -43.232628
29.276765 -11.713571 -43.123989
29.606447 -12.925931 -41.948753
29.720723 -11.58136 -42.376796
29.067465 -10.477678 -44.268547
29.276765 -11.713571 -43.123989
28.84955 -9.226968 -45.395791
29.067465 -10.477678 -44.268547
29.173126 -9.11829 -44.679276
28.798941 -7.971259 -46.489128
28.84955 -9.226968 -45.395791
28.735294 -6.697911 -47.562939
28.798941 -7.971259 -46.489128
28.891562 -6.594232 -46.88033
28.865516 -5.439618 -48.601906
28.772894 -6.816645 -48.210705
28.735294 -6.697911 -47.562939
29.292824 0.327655 -33.943173
29.710403 -1.139451 -34.141693
35.228649 6.862398 -57.175625
34.3126 5.958951 -56.74263
47.52496 4.588295 -56.956696
48.711405 3.221045 -56.590751
45.343382 -1.567583 -56.656597
44.138722 -0.327654 -57.045818
45.400387 -3.035369 -56.097027
45.343382 -1.567583 -56.656597
37.234909 -19.035871 -45.390716
36.445251 -20.041047 -44.68687
36.311791 -18.141593 -45.749287
38.053131 -18.068975 -46.023827
38.186592 -19.968428 -44.96141
37.234909 -19.035871 -45.390716
48.78315 6.103515 -56.154716
47.560326 6.03157 -56.763592
49.911263 4.644559 -55.800632
48.78315 6.103515 -56.154716
49.876563 3.196099 -56.046753
49.911263 4.644559 -55.800632
31.410017 -18.187688 -29.811222
31.157855 -16.752015 -30.087906
31.954121 -18.849367 -30.446621
31.539633 -19.577497 -29.474092
31.410017 -18.187688 -29.811222
31.999716 -16.640007 -31.863246
31.622001 -16.053634 -31.037256
31.797213 -15.234083 -32.116751
32.221065 -20.315596 -32.689293
32.338192 -19.90769 -31.90616
32.214698 -18.961213 -33.088974
32.128405 -21.646771 -32.224618
32.221065 -20.315596 -32.689293
31.61021 -15.98714 -36.689911
31.245203 -14.887983 -37.920269
31.179781 -16.215302 -37.546749
31.85371 -17.001999 -35.48191
31.919132 -15.67468 -35.85543
31.61021 -15.98714 -36.689911
32.130102 -18.029329 -34.259769
31.85371 -17.001999 -35.48191
29.685773 -14.822661 -45.673294
29.842386 -16.376645 -44.857548
29.507343 -13.238142 -46.501148
29.409102 -11.724821 -47.231209
30.067673 -13.6521 -46.661518
29.685773 -14.822661 -45.673294
29.507343 -13.238142 -46.501148
31.378115 -12.438458 -32.510043
31.648475 -13.859347 -32.344226
31.660539 -11.688169 -33.527111
31.378115 -12.438458 -32.510043
31.161202 -11.055643 -32.639464
30.158304 -6.762058 -32.745053
30.541736 -6.106244 -33.649223
30.546858 -8.223259 -32.747164
30.158304 -6.762058 -32.745053
31.162229 -8.911319 -33.685684
30.828254 -9.617294 -32.718013
30.546858 -8.223259 -32.747164
29.644266 0.947491 -34.695499
29.292824 0.327655 -33.943173
29.808881 1.716261 -35.539856
30.065494 2.414032 -36.287048
30.154525 0.314302 -35.83398
29.644266 0.947491 -34.695499
29.808881 1.716261 -35.539856
30.742647 1.276826 -40.045303
30.641951 1.532239 -38.745468
30.750214 0.083515 -40.429729
30.742647 1.276826 -40.045303
30.720118 1.075792 -41.317264
30.512163 3.288687 -44.434944
30.620271 3.251166 -43.097149
30.338818 2.161168 -44.8149
30.512163 3.288687 -44.434944
30.243024 0.988334 -45.130318
30.434478 0.946128 -43.869824
30.338818 2.161168 -44.8149
30.079666 -0.197759 -45.346589
30.243024 0.988334 -45.130318
29.984006 1.017281 -46.291665
29.458219 -1.361917 -47.597629
29.665143 -1.407859 -46.553441
29.613723 -0.12287 -47.552124
29.247046 -1.363407 -48.518406
29.298466 -2.648395 -47.519722
29.458219 -1.361917 -47.597629
29.354875 -0.075411 -49.498199
29.471169 1.214894 -50.430027
29.195123 -1.361889 -49.420291
29.247046 -1.363407 -48.518406
29.354875 -0.075411 -49.498199
30.353943 3.673568 -53.015079
30.059041 3.748331 -52.181595
30.242581 2.308877 -52.912247
30.353943 3.673568 -53.015079
30.126615 0.951405 -52.750157
29.76771 1.100831 -52.046788
30.242581 2.308877 -52.912247
30.081638 -0.47146 -52.455051
30.126615 0.951405 -52.750157
30.556509 0.736586 -53.320511
32.648163 -0.360119 -54.566921
31.832118 0.088143 -54.232437
32.619197 1.116732 -54.994564
36.183361 6.206899 -57.489464
35.228649 6.862398 -57.175625
41.638651 4.831475 -58.08923
42.815455 3.719926 -57.956909
41.638651 4.831475 -58.08923
40.505005 4.344846 -58.034081
37.199211 5.515401 -57.691311
38.277314 4.687864 -57.816071
36.192402 4.745085 -57.33852
36.183361 6.206899 -57.489464
37.199211 5.515401 -57.691311
45.481674 -4.526733 -55.384213
44.296291 -3.290671 -55.862823
45.400387 -3.035369 -56.097027
45.520737 -6.017224 -54.593125
45.481674 -4.526733 -55.384213
46.624832 -5.761922 -54.827328
47.737144 -8.618814 -53.375549
47.761734 -7.129606 -54.221874
48.834983 -8.496008 -53.561184
49.644134 -20.455122 -46.286686
48.699749 -20.684189 -45.909061
48.964153 -19.195099 -46.853004
50.222128 -21.873634 -45.624134
49.644134 -20.455122 -46.286686
50.486532 -20.384543 -46.568077
50.704245 -22.92838 -45.189137
50.222128 -21.873634 -45.624134
31.771464 -22.357141 -28.702387
31.72046 -20.988466 -29.115936
32.13474 -21.607852 -29.695942
31.771464 -22.357141 -28.702387
31.871708 -23.737047 -28.268169
31.248936 -17.401827 -44.937176
30.470954 -16.871097 -44.931732
31.024085 -15.767351 -45.839107
31.248936 -17.401827 -44.937176
32.055487 -18.018676 -44.870605
33.198571 -20.480828 -43.707814
32.964222 -18.669886 -44.732628
33.853886 -19.411443 -44.543782
33.198571 -20.480828 -43.707814
33.451296 -22.270891 -42.68945
39.039047 -20.978191 -44.536713
38.186592 -19.968428 -44.96141
39.918285 -22.022678 -44.04818
39.039047 -20.978191 -44.536713
39.884052 -20.04602 -45.105988
40.687527 -23.133555 -43.589741
39.918285 -22.022678 -44.04818
41.565605 -22.227753 -44.106724
41.662985 -20.244048 -45.155468
42.4653 -21.381293 -44.644737
40.687527 -23.133555 -43.589741
41.565605 -22.227753 -44.106724
45.925072 -22.273637 -44.559463
44.975635 -22.948237 -44.073204
45.165218 -21.06628 -45.0775
46.672325 -23.495345 -44.025276
45.925072 -22.273637 -44.559463
46.861908 -21.613388 -45.029572
47.38311 -24.674601 -43.581181
46.672325 -23.495345 -44.025276
48.277587 -23.962331 -44.065663
47.38311 -24.674601 -43.581181
48.277587 -23.962331 -44.065663
48.494445 -22.389654 -44.919064
52.752505 -19.350665 -47.841385
52.102995 -17.629753 -48.686684
52.294583 -20.724546 -46.944515
52.752505 -19.350665 -47.841385
51.9275 -22.090629 -46.029651
51.431608 -20.436972 -46.820388
52.294583 -20.724546 -46.944515
51.373751 -23.332535 -45.202396
51.9275 -22.090629 -46.029651
50.704245 -22.92838 -45.189137
51.373751 -23.332535 -45.202396
3 0 37 35
3 0 39 37
3 1 42 40
3 1 44 42
3 2 47 45
3 134 133 48
3 4 51 50
3 4 53 51
3 5 135 137
3 135 54 136
3 135 136 137
3 5 56 54
3 6 138 139
3 6 140 142
3 140 58 141
3 140 141 142
3 7 143 145
3 143 60 144
3 143 144 145
3 7 62 60
3 7 64 62
3 146 66 147
3 149 148 66
3 151 150 68
3 3 152 153
3 155 154 70
3 8 74 72
3 8 76 74
3 9 79 77
3 11 80 36
3 11 81 80
3 11 82 81
3 12 83 38
3 12 84 83
3 13 156 157
3 14 87 85
3 16 88 41
3 16 89 88
3 16 91 89
3 18 92 43
3 18 93 92
3 158 94 159
3 20 95 46
3 20 160 162
3 162 161 95
3 160 161 162
3 10 96 78
3 164 163 49
3 21 165 166
3 21 167 169
3 167 97 168
3 167 168 169
3 21 98 97
3 22 99 52
3 22 100 99
3 170 101 171
3 23 172 174
3 172 102 173
3 172 173 174
3 23 103 102
3 23 104 103
3 24 105 55
3 24 106 105
3 175 107 176
3 177 108 178
3 179 178 107
3 177 178 179
3 25 180 182
3 180 109 181
3 180 181 182
3 25 110 109
3 183 111 184
3 186 185 111
3 26 187 189
3 187 112 188
3 187 188 189
3 26 113 112
3 190 114 191
3 192 115 193
3 194 193 114
3 192 193 194
3 27 116 57
3 27 117 116
3 28 195 197
3 197 196 59
3 195 196 197
3 28 198 200
3 198 118 199
3 198 199 200
3 28 119 118
3 29 120 61
3 29 121 120
3 29 122 121
3 30 123 63
3 30 124 123
3 201 125 202
3 31 126 65
3 31 127 126
3 31 128 127
3 33 129 67
3 33 130 129
3 19 203 204
3 206 205 69
3 15 207 209
3 209 208 86
3 207 208 209
3 211 210 71
3 17 131 90
3 34 212 214
3 214 213 73
3 212 213 214
3 34 215 216
3 34 217 218
3 32 132 75
3 32 219 221
3 221 220 132
3 219 220 221
3 35 36 9
3 37 36 35
3 37 11 36
3 37 38 11
3 39 38 37
3 39 12 38
3 223 222 13
3 40 41 14
3 42 41 40
3 42 16 41
3 42 43 16
3 44 43 42
3 44 18 43
3 45 224 226
3 224 46 225
3 224 225 226
3 47 46 45
3 47 20 46
3 48 49 10
3 227 49 228
3 229 228 48
3 227 228 229
3 231 230 49
3 50 232 233
3 51 234 236
3 236 235 50
3 234 235 236
3 51 237 239
3 237 21 238
3 237 238 239
3 51 52 21
3 53 52 51
3 53 22 52
3 54 240 241
3 54 242 244
3 242 23 243
3 242 243 244
3 54 55 23
3 56 55 54
3 56 24 55
3 245 25 246
3 247 26 248
3 249 57 250
3 58 251 253
3 251 57 252
3 251 252 253
3 58 27 57
3 254 59 255
3 60 256 258
3 256 59 257
3 256 257 258
3 60 28 59
3 60 61 28
3 62 61 60
3 62 29 61
3 62 63 29
3 64 63 62
3 64 30 63
3 259 65 260
3 66 261 263
3 261 65 262
3 261 262 263
3 66 31 65
3 66 67 31
3 264 67 265
3 266 265 66
3 264 265 266
3 267 33 268
3 269 268 67
3 267 268 269
3 68 69 19
3 270 69 271
3 272 271 68
3 270 271 272
3 274 273 69
3 70 71 15
3 275 71 276
3 277 276 70
3 275 276 277
3 279 278 71
3 72 73 17
3 74 73 72
3 74 34 73
3 74 75 34
3 76 75 74
3 76 32 75
3 77 78 2
3 79 78 77
3 79 10 78
3 36 79 9
3 80 79 36
3 80 10 79
3 80 48 10
3 81 48 80
3 81 280 282
3 282 281 48
3 280 281 282
3 81 283 284
3 82 285 287
3 287 286 81
3 285 286 287
3 82 288 289
3 38 82 11
3 83 82 38
3 83 290 292
3 292 291 82
3 290 291 292
3 83 293 295
3 293 50 294
3 293 294 295
3 84 50 83
3 84 4 50
3 296 5 297
3 298 6 299
3 301 300 13
3 302 7 303
3 305 304 7
3 85 86 3
3 87 86 85
3 87 15 86
3 41 87 14
3 88 87 41
3 88 15 87
3 88 70 15
3 89 70 88
3 89 306 308
3 308 307 70
3 306 307 308
3 89 309 311
3 309 90 310
3 309 310 311
3 91 90 89
3 91 17 90
3 43 91 16
3 92 91 43
3 92 17 91
3 92 72 17
3 93 72 92
3 93 8 72
3 312 13 313
3 314 13 315
3 317 316 13
3 94 318 319
3 94 320 322
3 320 19 321
3 320 321 322
3 46 323 325
3 323 94 324
3 323 324 325
3 95 94 46
3 95 19 94
3 95 68 19
3 326 68 327
3 328 327 95
3 326 327 328
3 330 329 68
3 78 47 2
3 96 47 78
3 96 20 47
3 49 96 10
3 331 96 332
3 333 332 49
3 331 332 333
3 334 20 335
3 336 335 96
3 334 335 336
3 338 337 20
3 339 3 340
3 97 341 342
3 97 343 345
3 343 3 344
3 343 344 345
3 97 85 3
3 98 85 97
3 98 14 85
3 52 98 21
3 99 98 52
3 99 14 98
3 99 40 14
3 100 40 99
3 100 1 40
3 346 45 347
3 101 348 350
3 348 45 349
3 348 349 350
3 101 2 45
3 102 351 352
3 102 353 354
3 102 355 357
3 355 101 356
3 355 356 357
3 103 101 102
3 103 2 101
3 103 77 2
3 104 77 103
3 104 9 77
3 55 104 23
3 105 104 55
3 105 9 104
3 105 35 9
3 106 35 105
3 106 0 35
3 358 5 359
3 107 360 361
3 107 362 364
3 362 5 363
3 362 363 364
3 107 56 5
3 108 56 107
3 108 24 56
3 365 108 366
3 109 367 369
3 367 108 368
3 367 368 369
3 109 24 108
3 109 106 24
3 110 106 109
3 110 0 106
3 370 25 371
3 372 25 373
3 374 110 375
3 376 375 25
3 374 375 376
3 111 377 379
3 377 110 378
3 377 378 379
3 111 0 110
3 111 39 0
3 380 39 381
3 382 381 111
3 380 381 382
3 383 12 384
3 385 384 39
3 383 384 385
3 112 386 387
3 112 388 390
3 388 12 389
3 388 389 390
3 112 84 12
3 113 84 112
3 113 4 84
3 391 26 392
3 393 26 394
3 395 113 396
3 397 396 26
3 395 396 397
3 114 398 400
3 398 113 399
3 398 399 400
3 114 4 113
3 114 53 4
3 115 53 114
3 115 22 53
3 57 401 403
3 401 115 402
3 401 402 403
3 116 115 57
3 116 22 115
3 116 100 22
3 117 100 116
3 117 1 100
3 404 6 405
3 59 406 407
3 409 408 59
3 118 410 411
3 118 412 414
3 412 6 413
3 412 413 414
3 118 58 6
3 119 58 118
3 119 27 58
3 61 119 28
3 120 119 61
3 120 27 119
3 120 117 27
3 121 117 120
3 121 1 117
3 121 44 1
3 122 44 121
3 122 18 44
3 63 122 29
3 123 122 63
3 123 18 122
3 123 93 18
3 124 93 123
3 124 8 93
3 415 64 416
3 417 416 7
3 415 416 417
3 125 418 420
3 418 64 419
3 418 419 420
3 125 30 64
3 65 421 423
3 421 125 422
3 421 422 423
3 126 125 65
3 126 30 125
3 126 124 30
3 127 124 126
3 127 8 124
3 127 76 8
3 128 76 127
3 128 32 76
3 67 128 31
3 129 128 67
3 129 32 128
3 129 424 426
3 426 425 32
3 424 425 426
3 130 427 429
3 429 428 129
3 427 428 429
3 130 430 431
3 69 432 434
3 434 433 19
3 432 433 434
3 436 435 69
3 86 437 439
3 439 438 3
3 437 438 439
3 441 440 86
3 71 442 444
3 444 443 15
3 442 443 444
3 446 445 71
3 90 447 448
3 131 449 451
3 451 450 90
3 449 450 451
3 131 452 453
3 73 131 17
3 454 131 455
3 456 455 73
3 454 455 456
3 458 457 131
3 75 459 461
3 461 460 34
3 459 460 461
3 132 462 464
3 464 463 75
3 462 463 464
3 132 465 466
3 132 467 468
3 470 469 132
3 471 33 472
3 473 33 474
3 475 130 476
3 477 476 33
3 475 476 477
3 478 130 479
3 481 480 130
