ply
format ascii 1.0
element vertex 432
property float x
property float y
property float z
element face 407
property list uchar int vertex_index
end_header
-4.622086 -30.344624 60.4174
-3.291842 -47.547077 51.222927
-5.24769 -42.843502 64.323936
-6.229799 -39.477226 54.966267
-4.883583 -51.376228 59.39801
-2.414633 -34.195454 48.994167
-5.817709 -47.315758 61.791199
-1.333529 -38.49987 72.62413
-5.499937 -28.308636 56.105965
-4.971087 -43.55582 53.127094
-4.827387 -36.963051 51.581001
-3.085073 -41.053482 50.011929
-1.583633 -45.283081 47.991829
-5.109741 -36.806633 62.042187
-6.151142 -35.094131 57.331894
-6.302057 -41.473831 59.298523
-5.912357 -45.713638 57.05125
-4.435017 -49.666756 54.949528
-3.286337 -57.295639 67.051216
-2.864548 -31.677906 65.354492
-3.284447 -37.886078 67.238068
-5.849472 -32.745804 53.453724
-4.109413 -29.946407 50.558735
-1.458736 -26.949213 48.334381
-3.377518 -56.497047 61.710987
-5.025684 -50.507324 65.784927
-4.48456 -52.977886 67.185455
-4.824955 -25.987673 57.7244
-5.213488 -29.413506 58.164047
-4.115389 -45.540138 52.227734
-4.124941 -42.328911 51.485741
-3.255737 -44.344616 50.605011
-2.255301 -43.127617 49.100555
-2.491133 -46.413147 49.570148
-5.22921 -39.885723 63.109924
-5.892307 -39.195908 60.597706
-5.886761 -42.235291 61.747795
-5.98514 -46.589943 59.333389
-5.478559 -48.617653 58.21217
-5.244751 -47.708332 56.014137
-4.745298 -50.584091 57.082073
-2.798872 -59.85743 73.636047
-3.086246 -34.826729 66.222076
-2.080248 -35.215343 68.876732
-2.504894 -41.15744 71.103897
-6.388508 -37.329163 56.060444
-6.18877 -33.991356 55.270626
-6.117973 -36.16555 54.122562
-3.707394 -35.592415 50.216682
-4.527475 -33.503002 50.993446
-3.318356 -32.073078 49.743744
-2.845245 -28.457973 49.400368
-1.9594 -30.622105 48.613605
-0.564827 -29.17802 47.515533
-1.053261 -32.805359 47.83054
-3.341192 -56.94342 64.34153
-5.741568 -45.138554 63.022297
-5.452232 -47.896492 64.382317
-5.336081 -50.013092 63.134365
-4.867018 -52.035355 61.876583
-5.424225 -27.046671 54.274994
-5.72213 -41.546333 54.010941
-5.687668 -38.270332 53.152489
-3.983751 -39.012123 50.805531
-2.797741 -37.671486 49.466839
-1.512281 -36.332756 48.211246
-1.920546 -39.770142 48.641415
-4.902403 -33.621311 61.1413
-5.536839 -32.768188 58.789459
-5.770075 -36.034668 59.604118
-6.300323 -38.34388 58.232002
-6.430498 -40.552078 57.023735
-6.142588 -44.468109 60.498272
-6.297964 -43.643204 58.128098
-6.16432 -42.664318 55.955341
-5.574871 -44.694992 54.977871
-4.787693 -46.673439 54.020786
-3.947632 -48.644218 53.002892
-3.71097 -55.572273 71.303726
-3.869549 -55.323097 68.539146
-3.237917 -57.563808 69.802383
-2.590958 -59.520111 68.195877
-3.808317 -31.096943 62.82695
-4.055401 -34.303009 63.632229
-4.252224 -37.417488 64.600197
-4.389906 -40.426933 65.722961
-2.287956 -38.237968 69.922684
-3.278023 -57.867405 75.253693
-5.875452 -31.742792 56.620483
-5.856707 -30.557503 54.674164
-5.453979 -29.235687 52.975201
-5.485359 -34.87899 52.437508
-5.139809 -31.386433 51.890823
-4.683989 -27.807203 51.522156
-3.607601 -26.303139 50.280624
-2.321314 -24.751783 49.185204
-4.128124 -54.547947 63.135635
-4.165279 -53.997395 60.573803
-3.373224 -55.947575 59.191486
-4.106195 -53.326691 58.149517
-3.930735 -52.537224 55.885033
-4.338669 -53.133627 68.561821
-4.550056 -51.932092 67.846588
-4.917787 -29.879065 59.290723
-4.750091 -28.202042 59.016639
-4.45439 -28.667601 60.143316
-5.181071 -49.99694 58.80509
-5.48929 -49.002064 59.404438
-5.191802 -50.381351 59.997358
-2.497292 -60.841915 72.768158
-2.649396 -60.878943 74.074883
-1.50305 -33.811386 69.753723
-1.979548 -33.660663 68.421398
-5.197223 -48.12228 65.722973
-5.303168 -46.781719 65.018361
-5.029312 -51.289131 63.809744
-5.180883 -50.260208 64.459646
-4.874114 -51.536247 65.135025
-4.794781 -52.300263 63.180853
-5.101549 -51.024224 62.505474
-5.029312 -51.289131 63.809744
-5.277781 -26.559657 55.943298
-4.94029 -25.399175 56.752516
-5.162446 -27.148155 56.915183
-5.462081 -27.677653 55.190479
-5.239924 -25.928674 55.027813
-5.277781 -26.559657 55.943298
-4.976304 -41.936349 52.714657
-5.351826 -40.931606 53.15658
-5.346609 -42.551076 53.569018
-1.379682 -43.606367 47.821028
-1.715516 -42.528635 48.375391
-1.919467 -44.205349 48.546192
-1.101904 -44.739408 47.212418
-1.379682 -43.606367 47.821028
-3.231221 -57.659217 71.177475
-3.474444 -56.568041 70.553055
-3.467747 -56.66345 71.928146
-2.296801 -60.602953 68.701996
-2.624134 -59.621917 69.565178
-2.243931 -60.502947 67.342075
-2.296801 -60.602953 68.701996
-2.742993 -30.0636 64.993302
-2.271052 -30.299233 66.26923
-3.336432 -31.387425 64.090721
-3.214878 -29.773119 63.72953
-2.742993 -30.0636 64.993302
-1.810742 -38.368919 71.273407
-1.699171 -36.867267 70.744182
-1.221958 -36.998219 72.094905
-2.980559 -40.99982 69.751068
-3.04972 -42.418406 70.396301
-3.354839 -57.879711 76.552128
-3.398039 -56.846393 75.997467
-3.237668 -58.90238 77.048717
-3.160852 -58.890074 75.750282
-3.354839 -57.879711 76.552128
-1.200322 -25.063104 48.242941
-1.631611 -23.964388 48.668352
-1.890025 -25.850498 48.759793
-0.763697 -26.196323 47.803425
-1.200322 -25.063104 48.242941
0.095465 -28.470993 46.942169
-0.147327 -30.313952 47.079639
-0.868476 -35.680858 47.585195
-1.112823 -37.424664 47.756
-3.653042 -56.14069 66.427173
-3.944648 -55.154419 67.171138
-3.577943 -56.309368 67.795181
-3.340613 -55.619507 57.998979
-2.994052 -56.944542 58.445833
-3.707098 -54.309065 57.477995
-3.73971 -54.637133 58.670502
-3.340613 -55.619507 57.998979
-3.619369 -53.914332 56.345753
-4.018465 -52.931957 57.017275
-3.707098 -54.309065 57.477995
-4.820617 -50.696811 67.146324
-4.983949 -49.427696 66.424278
-4.755122 -51.742605 66.485191
-4.820617 -50.696811 67.146324
-4.550056 -51.932092 67.846588
-4.603552 -52.771528 65.835289
-4.874114 -51.536247 65.135025
-4.755122 -51.742605 66.485191
-4.555824 -26.489126 58.796816
-4.371581 -24.78083 58.60391
-5.019222 -27.700589 57.944223
-4.555824 -26.489126 58.796816
-4.750091 -28.202042 59.016639
-5.742581 -47.988209 59.965047
-5.901425 -46.95285 60.562294
-5.658865 -48.351117 61.193952
-5.73185 -47.603798 58.772779
-5.742581 -47.988209 59.965047
-5.48929 -49.002064 59.404438
-2.72809 -59.790577 72.285263
-3.011698 -58.806028 73.094307
-2.72809 -59.790577 72.285263
-2.497292 -60.841915 72.768158
-2.371698 -31.891945 66.660278
-2.271052 -30.299233 66.26923
-2.482547 -33.466357 67.09407
-2.975397 -33.252318 65.788284
-2.371698 -31.891945 66.660278
-2.583247 -35.021036 67.549404
-2.482547 -33.466357 67.09407
-1.979548 -33.660663 68.421398
-2.054343 -41.276629 72.456886
-1.919212 -39.828655 71.864013
-1.46866 -39.947844 73.217003
-2.615852 -42.556206 71.756642
-2.054343 -41.276629 72.456886
-3.04972 -42.418406 70.396301
-2.615852 -42.556206 71.756642
-0.391544 -32.127622 47.237143
-0.147327 -30.313952 47.079639
-0.809044 -30.991689 47.673036
-2.95777 -58.095062 64.904148
-3.313765 -57.119529 65.696373
-2.930343 -58.271172 66.258991
-2.963371 -57.920523 63.564279
-2.95777 -58.095062 64.904148
-2.981534 -57.697336 62.249008
-3.359355 -56.720234 63.026259
-2.963371 -57.920523 63.564279
-5.447836 -45.40275 64.338351
-5.494629 -43.991028 63.673117
-5.200897 -44.255224 64.98917
-5.5969 -46.517523 63.702307
-5.447836 -45.40275 64.338351
-5.303168 -46.781719 65.018361
-5.238958 -49.201908 65.083622
-5.197223 -48.12228 65.722973
-4.983949 -49.427696 66.424278
-5.418051 -49.699783 61.865536
-5.658865 -48.351117 61.193952
-5.576895 -48.664425 62.462782
-5.18352 -50.710915 61.236644
-5.418051 -49.699783 61.865536
-5.101549 -51.024224 62.505474
-4.8753 -51.705792 60.637296
-5.191802 -50.381351 59.997358
-5.18352 -50.710915 61.236644
-0.78475 -37.098984 73.44033
-1.221958 -36.998219 72.094905
-0.673179 -35.597332 72.911106
-0.907153 -38.597216 73.966686
-0.78475 -37.098984 73.44033
-0.358374 -37.196329 74.782886
-1.46866 -39.947844 73.217003
-0.907153 -38.597216 73.966686
-4.61226 -24.24859 57.588519
-4.371581 -24.78083 58.60391
-4.61226 -24.24859 57.588519
-4.94029 -25.399175 56.752516
-5.175698 -25.262265 54.167412
-5.239924 -25.928674 55.027813
-5.19587 -26.349656 53.480103
-5.175698 -25.262265 54.167412
-5.334595 -39.293605 52.727354
-5.704899 -39.908333 53.581715
-5.351826 -40.931606 53.15658
-4.904454 -38.639965 51.94161
-5.257528 -37.616692 52.366745
-5.334595 -39.293605 52.727354
-4.553231 -41.322895 51.89398
-4.976304 -41.936349 52.714657
-4.548014 -42.942365 52.306417
-4.482636 -39.664501 51.553875
-4.553231 -41.322895 51.89398
-4.054346 -40.670517 51.145636
-4.405569 -37.987587 51.193266
-4.904454 -38.639965 51.94161
-4.482636 -39.664501 51.553875
-1.316955 -39.143356 47.971085
-1.112823 -37.424664 47.756
-1.716414 -38.051449 48.426331
-1.548139 -40.849897 48.145821
-2.087924 -41.44888 48.870985
-1.715516 -42.528635 48.375391
-1.316955 -39.143356 47.971085
-1.548139 -40.849897 48.145821
-3.79026 -55.447685 69.921436
-4.031163 -54.306233 69.238666
-3.951874 -54.430821 70.620957
-2.947613 -58.643766 70.368431
-3.231221 -57.659217 71.177475
-2.914438 -58.54196 68.99913
-2.947613 -58.643766 70.368431
-2.624134 -59.621917 69.565178
-2.582653 -59.383408 66.831322
-2.930343 -58.271172 66.258991
-2.938648 -58.407875 67.623547
-2.582653 -59.383408 66.831322
-2.243931 -60.502947 67.342075
-4.071632 -29.077515 61.30028
-4.45439 -28.667601 60.143316
-3.664747 -29.453674 62.505054
-3.214878 -29.773119 63.72953
-4.215202 -30.720783 61.622175
-4.071632 -29.077515 61.30028
-3.664747 -29.453674 62.505054
-1.595317 -35.355955 70.221206
-1.50305 -33.811386 69.753723
-1.018119 -33.951998 71.098197
-2.184102 -36.726655 69.399708
-1.595317 -35.355955 70.221206
-1.699171 -36.867267 70.744182
-2.87209 -39.540085 69.160461
-2.396425 -39.697704 70.513291
-2.980559 -40.99982 69.751068
-3.370336 -39.36414 67.818153
-2.786201 -38.062023 68.580376
-2.87209 -39.540085 69.160461
-3.923065 -40.634567 67.0606
-3.837176 -39.156505 66.480514
-3.370336 -39.36414 67.818153
-4.424207 -41.871856 66.353043
-3.923065 -40.634567 67.0606
-4.8531 -43.080141 65.65353
-4.818798 -41.635217 65.023449
-4.424207 -41.871856 66.353043
-5.200897 -44.255224 64.98917
-4.8531 -43.080141 65.65353
-3.800699 -54.542835 72.003685
-3.951874 -54.430821 70.620957
-3.645905 -55.656313 72.678787
-3.800699 -54.542835 72.003685
-3.402682 -56.74749 73.303207
-3.467747 -56.66345 71.928146
-3.645905 -55.656313 72.678787
-3.429431 -56.803879 74.653771
-3.398039 -56.846393 75.997467
-3.251274 -57.811016 73.90313
-3.402682 -56.74749 73.303207
-3.429431 -56.803879 74.653771
-3.038448 -58.862417 74.44487
-3.011698 -58.806028 73.094307
-3.251274 -57.811016 73.90313
-2.921277 -59.885086 74.94146
-3.038448 -58.862417 74.44487
-3.160852 -58.890074 75.750282
-2.649396 -60.878943 74.074883
-2.921277 -59.885086 74.94146
-5.210747 -27.444164 52.830206
-5.19587 -26.349656 53.480103
-5.439102 -28.141179 53.625097
-4.825752 -26.729922 52.103684
-5.210747 -27.444164 52.830206
-5.068984 -28.521445 52.248678
-4.420103 -25.981292 51.422844
-4.825752 -26.729922 52.103684
-3.881909 -25.22926 50.802078
-4.420103 -25.981292 51.422844
-4.145795 -27.055171 50.90139
-3.333935 -24.443114 50.21312
-3.881909 -25.22926 50.802078
-2.690792 -23.667435 49.665409
-3.333935 -24.443114 50.21312
-2.964457 -25.527461 49.732914
-2.051676 -22.85622 49.132931
-2.690792 -23.667435 49.665409
-2.051676 -22.85622 49.132931
-1.631611 -23.964388 48.668352
-0.316742 -27.310727 47.394001
-0.763697 -26.196323 47.803425
-1.011782 -28.063617 47.924957
-0.316742 -27.310727 47.394001
0.095465 -28.470993 46.942169
-0.638966 -33.91716 47.394842
-1.282771 -34.569057 48.020893
-0.868476 -35.680858 47.585195
-0.391544 -32.127622 47.237143
-0.638966 -33.91716 47.394842
-4.177055 -54.150492 67.862301
-4.338669 -53.133627 68.561821
-4.031163 -54.306233 69.238666
-4.252154 -53.981814 66.494293
-4.177055 -54.150492 67.862301
-3.944648 -55.154419 67.171138
-4.603552 -52.771528 65.835289
-4.252154 -53.981814 66.494293
-3.68047 -55.96458 65.07233
-3.653042 -56.14069 66.427173
-3.313765 -57.119529 65.696373
-4.073935 -54.766844 64.469383
-3.68047 -55.96458 65.07233
-3.734658 -55.745683 63.738583
-4.425334 -53.556559 63.810379
-4.073935 -54.766844 64.469383
-4.497571 -53.291651 62.506109
-4.794781 -52.300263 63.180853
-4.425334 -53.556559 63.810379
-2.991405 -57.480869 60.950398
-2.981534 -57.697336 62.249008
-2.595422 -58.681158 61.488418
-2.989259 -57.206133 59.690647
-2.994052 -56.944542 58.445833
-3.375371 -56.222311 60.451237
-2.991405 -57.480869 60.950398
-2.989259 -57.206133 59.690647
-3.546655 -53.535378 55.226313
-3.619369 -53.914332 56.345753
-3.777648 -52.089218 54.836537
-3.546655 -53.535378 55.226313
-4.029789 -50.653984 54.368784
-4.182876 -51.10199 55.417281
-3.777648 -52.089218 54.836537
-3.786097 -50.142715 53.395466
-4.191325 -49.155487 53.97621
-4.029789 -50.653984 54.368784
-3.56414 -49.652985 52.42565
-3.786097 -50.142715 53.395466
-3.236244 -49.104414 51.535668
-3.619737 -48.095647 52.11291
-3.56414 -49.652985 52.42565
-2.946584 -48.589019 50.63072
-3.236244 -49.104414 51.535668
-2.546229 -48.022054 49.804331
-2.891488 -46.980112 50.396538
-2.946584 -48.589019 50.63072
-2.19588 -47.499832 48.944016
-2.546229 -48.022054 49.804331
-1.74213 -46.934799 48.154856
-2.037383 -45.848114 48.780989
-2.19588 -47.499832 48.944016
-1.344842 -46.42516 47.316578
-1.74213 -46.934799 48.154856
-0.863112 -45.881487 46.537166
-1.101904 -44.739408 47.212418
-1.344842 -46.42516 47.316578
3 101 26 102
3 0 103 105
3 103 28 104
3 103 104 105
3 1 31 29
3 1 33 31
3 2 36 34
3 4 106 108
3 106 38 107
3 106 107 108
3 4 40 38
3 110 109 41
3 111 43 112
3 3 47 45
3 5 50 48
3 5 52 50
3 5 54 52
3 113 57 114
3 115 58 116
3 117 116 25
3 115 116 117
3 118 59 119
3 120 119 58
3 118 119 120
3 8 121 123
3 123 122 27
3 121 122 123
3 8 124 126
3 124 60 125
3 124 125 126
3 9 127 129
3 129 128 61
3 127 128 129
3 11 63 30
3 11 64 63
3 11 66 64
3 12 130 132
3 132 131 32
3 130 131 132
3 12 133 134
3 13 69 67
3 15 70 35
3 15 71 70
3 6 72 56
3 16 73 37
3 16 74 73
3 16 75 74
3 17 76 39
3 17 77 76
3 135 80 136
3 137 136 78
3 135 136 137
3 138 81 139
3 141 140 81
3 19 142 143
3 19 144 146
3 144 82 145
3 144 145 146
3 19 83 82
3 20 84 42
3 20 85 84
3 7 147 149
3 147 86 148
3 147 148 149
3 151 150 44
3 152 87 153
3 156 155 87
3 154 155 156
3 14 88 68
3 21 89 46
3 21 90 89
3 10 91 62
3 22 92 49
3 22 93 92
3 22 94 93
3 23 95 51
3 23 157 159
3 159 158 95
3 157 158 159
3 23 160 161
3 163 162 53
3 165 164 65
3 18 166 168
3 168 167 79
3 166 167 168
3 24 96 55
3 24 97 96
3 169 98 170
3 171 99 172
3 173 172 98
3 171 172 173
3 174 100 175
3 176 175 99
3 174 175 176
3 177 25 178
3 26 179 181
3 179 25 180
3 179 180 181
3 26 182 184
3 184 183 25
3 182 183 184
3 185 27 186
3 28 187 189
3 187 27 188
3 187 188 189
3 28 8 27
3 29 30 9
3 31 30 29
3 31 11 30
3 31 32 11
3 33 32 31
3 33 12 32
3 34 35 13
3 36 35 34
3 36 15 35
3 190 37 191
3 192 191 6
3 190 191 192
3 38 193 195
3 193 37 194
3 193 194 195
3 38 16 37
3 38 39 16
3 40 39 38
3 40 17 39
3 41 196 197
3 199 198 41
3 200 19 201
3 202 42 203
3 204 203 19
3 202 203 204
3 43 205 207
3 205 42 206
3 205 206 207
3 43 20 42
3 208 44 209
3 210 209 7
3 208 209 210
3 211 44 212
3 214 213 44
3 45 46 14
3 47 46 45
3 47 21 46
3 48 49 10
3 50 49 48
3 50 22 49
3 50 51 22
3 52 51 50
3 52 23 51
3 52 53 23
3 54 53 52
3 54 215 217
3 217 216 53
3 215 216 217
3 218 55 219
3 220 219 18
3 218 219 220
3 221 55 222
3 223 24 224
3 225 224 55
3 223 224 225
3 226 56 227
3 228 227 2
3 226 227 228
3 57 229 231
3 229 56 230
3 229 230 231
3 57 6 56
3 25 232 234
3 232 57 233
3 232 233 234
3 58 57 25
3 58 6 57
3 58 235 237
3 237 236 6
3 235 236 237
3 59 238 240
3 240 239 58
3 238 239 240
3 59 241 243
3 241 4 242
3 241 242 243
3 244 7 245
3 244 245 246
3 247 7 248
3 247 248 249
3 251 250 7
3 27 252 253
3 255 254 27
3 60 256 257
3 60 258 259
3 61 62 3
3 260 62 261
3 262 261 61
3 260 261 262
3 263 10 264
3 265 264 62
3 263 264 265
3 30 266 268
3 268 267 9
3 266 267 268
3 63 269 271
3 271 270 30
3 269 270 271
3 63 272 274
3 272 10 273
3 272 273 274
3 63 48 10
3 64 48 63
3 64 5 48
3 64 65 5
3 66 65 64
3 66 275 277
3 277 276 65
3 275 276 277
3 32 66 11
3 278 66 279
3 280 279 32
3 278 279 280
3 282 281 66
3 67 68 0
3 69 68 67
3 69 14 68
3 35 69 13
3 70 69 35
3 70 14 69
3 70 45 14
3 71 45 70
3 71 3 45
3 56 36 2
3 72 36 56
3 72 15 36
3 37 72 6
3 73 72 37
3 73 15 72
3 73 71 15
3 74 71 73
3 74 3 71
3 74 61 3
3 75 61 74
3 75 9 61
3 39 75 16
3 76 75 39
3 76 9 75
3 76 29 9
3 77 29 76
3 77 1 29
3 78 283 285
3 283 79 284
3 283 284 285
3 80 79 78
3 80 18 79
3 286 80 287
3 81 288 290
3 288 80 289
3 288 289 290
3 81 18 80
3 81 291 293
3 293 292 18
3 291 292 293
3 295 294 81
3 296 0 297
3 82 298 299
3 82 300 302
3 300 0 301
3 300 301 302
3 82 67 0
3 83 67 82
3 83 13 67
3 42 83 19
3 84 83 42
3 84 13 83
3 84 34 13
3 85 34 84
3 85 2 34
3 303 43 304
3 303 304 305
3 86 306 308
3 306 43 307
3 306 307 308
3 86 20 43
3 44 86 7
3 309 86 310
3 311 310 44
3 309 310 311
3 312 20 313
3 314 313 86
3 312 313 314
3 315 85 316
3 317 316 20
3 315 316 317
3 318 85 319
3 320 2 321
3 322 321 85
3 320 321 322
3 324 323 2
3 325 78 326
3 327 78 328
3 331 330 78
3 329 330 331
3 87 332 333
3 87 334 336
3 334 335 336
3 87 337 339
3 337 41 338
3 337 338 339
3 340 41 341
3 342 341 87
3 340 341 342
3 344 343 41
3 68 28 0
3 88 28 68
3 88 8 28
3 46 88 14
3 89 88 46
3 89 8 88
3 89 60 8
3 90 60 89
3 90 345 347
3 347 346 60
3 345 346 347
3 62 47 3
3 91 47 62
3 91 21 47
3 49 91 10
3 92 91 49
3 92 21 91
3 92 90 21
3 93 90 92
3 93 348 350
3 350 349 90
3 348 349 350
3 93 351 352
3 94 353 355
3 355 354 93
3 353 354 355
3 94 356 357
3 51 94 22
3 95 94 51
3 95 358 360
3 360 359 94
3 358 359 360
3 95 361 362
3 364 363 95
3 53 365 367
3 367 366 23
3 365 366 367
3 369 368 53
3 65 54 5
3 370 54 371
3 372 371 65
3 370 371 372
3 374 373 54
3 79 375 377
3 375 26 376
3 375 376 377
3 378 26 379
3 380 379 79
3 378 379 380
3 382 381 26
3 55 383 385
3 385 384 18
3 383 384 385
3 96 386 388
3 388 387 55
3 386 387 388
3 96 389 390
3 96 391 393
3 391 59 392
3 391 392 393
3 97 59 96
3 97 4 59
3 394 24 395
3 394 395 396
3 98 397 398
3 98 399 401
3 399 24 400
3 399 400 401
3 98 97 24
3 99 97 98
3 99 4 97
3 99 40 4
3 100 40 99
3 100 17 40
3 402 100 403
3 404 100 405
3 406 17 407
3 408 407 100
3 406 407 408
3 409 77 410
3 411 410 17
3 409 410 411
3 412 77 413
3 414 1 415
3 416 415 77
3 414 415 416
3 417 1 418
3 419 33 420
3 421 420 1
3 419 420 421
3 422 33 423
3 424 12 425
3 426 425 33
3 424 425 426
3 427 12 428
3 431 430 12
3 429 430 431
