ply
format ascii 1.0
element vertex 205
property float x
property float y
property float z
element face 172
property list uchar int vertex_index
end_header
35.550652 49.124489 41.492172
41.025543 50.725601 35.162445
39.54715 47.565895 39.656624
34.399349 46.017654 46.076149
38.150303 44.595505 44.236885
42.100971 54.202499 30.701767
41.133919 59.871887 25.243652
36.225761 50.617737 39.170715
38.331566 49.865417 38.36673
37.605556 48.364075 40.662048
31.950953 44.673164 48.789467
32.391605 46.558701 46.652176
33.932755 44.273724 48.295395
35.825089 43.735325 47.554192
35.395676 41.934608 49.782715
40.798035 56.558929 29.418407
40.345463 54.810249 31.609436
42.064461 48.327629 36.259468
42.735126 50.008789 34.042961
39.170837 42.209087 45.282204
39.798649 43.72258 42.981613
35.01931 39.915573 51.926071
39.752956 53.0867 33.836708
39.064556 51.433655 36.09045
40.305241 49.10408 37.40081
41.302544 46.733582 38.476002
34.937813 47.613228 43.800728
36.929993 46.884636 42.969036
36.333321 45.364517 45.273598
37.586334 43.044563 46.545418
39.825981 60.337204 25.982677
41.07505 58.265701 27.285423
41.643219 52.433113 32.931885
43.244198 51.767548 31.805447
38.812859 46.080658 41.936081
40.524921 45.211632 40.71262
42.002556 44.294792 39.312981
40.59462 60.67239 24.805594
40.993031 60.682354 24.231026
34.806365 50.247459 40.660316
34.497061 49.486897 41.822446
35.888206 49.871113 40.331443
35.143919 50.994084 39.499588
34.806365 50.247459 40.660316
32.736464 43.501628 49.611317
31.748933 43.623539 49.808521
33.727366 43.301908 49.364281
32.941854 44.473444 48.542431
32.736464 43.501628 49.611317
34.458826 42.132351 50.107941
34.664215 43.104166 49.039055
33.727366 43.301908 49.364281
39.338302 55.120106 31.952005
39.641789 55.977429 30.847726
43.168982 46.704139 36.026703
42.800797 47.93047 35.595787
42.432646 47.101299 36.690384
39.851862 41.73114 44.5396
39.569964 40.949066 45.691456
38.001202 51.791412 36.472101
38.358469 52.593178 35.323545
33.642796 47.141994 45.254975
32.638924 47.412518 45.542988
33.395477 46.288178 46.364162
34.668581 46.815441 44.938439
33.912028 47.939781 44.117264
33.642796 47.141994 45.254975
37.355045 42.202501 47.691086
36.705711 43.389944 47.049805
36.474423 42.547882 48.195473
38.124067 41.824974 47.071956
37.355045 42.202501 47.691086
35.881115 39.700417 51.501286
35.713146 38.64747 52.574539
39.634939 59.578892 26.971565
38.981535 60.669148 26.138071
40.259473 58.54314 27.622938
40.450515 59.301452 26.63405
39.634939 59.578892 26.971565
42.228773 55.097202 29.586254
41.577305 56.275417 28.944574
41.449503 55.380714 30.060087
42.820059 53.889313 30.116259
42.228773 55.097202 29.586254
43.686899 50.519127 32.259878
42.989662 50.888168 32.924204
43.432364 49.639747 33.378636
43.878298 51.418312 31.122698
43.686899 50.519127 32.259878
40.874594 43.990328 41.123061
40.161785 44.467106 41.847116
40.511457 43.245802 42.257557
41.613411 43.531908 40.423241
41.263739 44.753212 40.0128
40.874594 43.990328 41.123061
41.64611 59.695717 24.614542
40.993031 60.682354 24.231026
41.758263 58.817218 25.741647
41.64611 59.695717 24.614542
35.478632 51.754452 38.326464
35.143919 50.994084 39.499588
36.581804 51.383454 38.012234
35.478632 51.754452 38.326464
37.278664 50.241577 38.768722
37.634707 51.007294 37.610241
36.581804 51.383454 38.012234
30.933713 44.820737 48.943985
31.748933 43.623539 49.808521
31.14754 45.841129 47.916321
30.933713 44.820737 48.943985
32.171279 45.615932 47.720821
31.367866 46.783897 46.847675
31.14754 45.841129 47.916321
36.259716 41.647523 49.309735
36.474423 42.547882 48.195473
35.610383 42.834967 48.668453
39.868074 56.851768 29.752212
40.120966 57.689754 28.68943
40.571749 55.684589 30.513921
39.868074 56.851768 29.752212
39.641789 55.977429 30.847726
43.136129 48.77105 34.487533
42.399794 49.168209 35.151214
42.800797 47.93047 35.595787
43.432364 49.639747 33.378636
43.136129 48.77105 34.487533
40.165768 42.487887 43.389305
39.484743 42.965834 44.131909
39.851862 41.73114 44.5396
40.511457 43.245802 42.257557
40.165768 42.487887 43.389305
34.079813 40.035448 52.194176
34.270643 41.122833 51.179619
34.83922 38.784475 52.936638
34.079813 40.035448 52.194176
35.713146 38.64747 52.574539
34.83922 38.784475 52.936638
38.702669 53.419701 34.196675
39.042049 54.258331 33.065641
39.408756 52.260177 34.963579
38.702669 53.419701 34.196675
38.358469 52.593178 35.323545
38.698061 50.649536 37.22859
38.001202 51.791412 36.472101
37.634707 51.007294 37.610241
42.051687 46.304276 37.798651
42.432646 47.101299 36.690384
41.683503 47.530606 37.367735
31.601354 47.707439 45.773517
31.367866 46.783897 46.847675
31.601354 47.707439 45.773517
32.638924 47.412518 45.542988
34.190641 48.731266 42.976725
33.912028 47.939781 44.117264
35.244232 48.368859 42.64645
34.497061 49.486897 41.822446
34.190641 48.731266 42.976725
38.916319 41.407236 46.440349
38.378585 42.626825 45.913811
38.124067 41.824974 47.071956
39.569964 40.949066 45.691456
38.916319 41.407236 46.440349
35.207493 40.92509 50.854393
34.458826 42.132351 50.107941
34.270643 41.122833 51.179619
36.069298 40.709934 50.429608
35.207493 40.92509 50.854393
35.881115 39.700417 51.501286
36.259716 41.647523 49.309735
36.069298 40.709934 50.429608
39.279482 61.304348 25.19206
38.981535 60.669148 26.138071
39.940651 60.905048 25.175106
39.279482 61.304348 25.19206
40.47995 60.104546 25.613164
40.59462 60.67239 24.805594
39.940651 60.905048 25.175106
41.728828 58.014125 26.762532
41.758263 58.817218 25.741647
41.104484 59.068794 26.264538
40.936543 57.412315 28.351915
40.259473 58.54314 27.622938
40.120966 57.689754 28.68943
41.715812 57.128803 27.878082
40.936543 57.412315 28.351915
41.577305 56.275417 28.944574
41.728828 58.014125 26.762532
41.715812 57.128803 27.878082
40.04921 53.948475 32.723072
39.338302 55.120106 31.952005
39.042049 54.258331 33.065641
43.391672 52.671837 30.668098
42.820059 53.889313 30.116259
42.672584 52.985023 31.253607
43.391672 52.671837 30.668098
43.878298 51.418312 31.122698
42.401694 45.08488 38.21714
42.051687 46.304276 37.798651
41.65255 45.514187 38.894492
42.192509 43.029465 39.61562
41.613411 43.531908 40.423241
42.599184 43.822615 38.531537
42.192509 43.029465 39.61562
42.401694 45.08488 38.21714
42.599184 43.822615 38.531537
3 37 6 38
3 0 39 40
3 0 41 43
3 41 7 42
3 41 42 43
3 0 9 7
3 44 10 45
3 46 12 47
3 48 47 10
3 46 47 48
3 49 14 50
3 51 50 12
3 49 50 51
3 52 16 53
3 56 55 17
3 54 55 56
3 58 57 19
3 59 23 60
3 2 24 8
3 2 25 24
3 3 61 63
3 63 62 11
3 61 62 63
3 3 64 66
3 64 26 65
3 64 65 66
3 3 28 26
3 67 29 68
3 69 68 13
3 67 68 69
3 71 70 29
3 73 72 21
3 74 30 75
3 76 31 77
3 78 77 30
3 76 77 78
3 5 79 81
3 81 80 15
3 79 80 81
3 5 82 83
3 1 32 22
3 84 33 85
3 86 85 18
3 84 85 86
3 88 87 33
3 4 34 27
3 89 35 90
3 91 90 20
3 89 90 91
3 92 36 93
3 94 93 35
3 92 93 94
3 6 95 96
3 6 97 98
3 7 99 100
3 7 101 102
3 7 103 105
3 103 8 104
3 103 104 105
3 9 8 7
3 9 2 8
3 10 106 107
3 10 108 109
3 10 110 112
3 110 11 111
3 110 111 112
3 12 11 10
3 12 3 11
3 12 13 3
3 14 13 12
3 14 113 115
3 115 114 13
3 113 114 115
3 116 15 117
3 16 118 120
3 118 15 119
3 118 119 120
3 16 5 15
3 17 18 1
3 121 18 122
3 123 122 17
3 121 122 123
3 125 124 18
3 19 20 4
3 126 20 127
3 128 127 19
3 126 127 128
3 130 129 20
3 131 21 132
3 133 21 134
3 136 135 21
3 137 22 138
3 23 139 141
3 139 22 140
3 139 140 141
3 23 1 22
3 8 142 144
3 142 23 143
3 142 143 144
3 24 23 8
3 24 1 23
3 24 17 1
3 25 17 24
3 25 145 147
3 147 146 17
3 145 146 147
3 11 148 149
3 151 150 11
3 26 152 153
3 26 154 156
3 154 0 155
3 154 155 156
3 26 27 0
3 28 27 26
3 28 4 27
3 13 28 3
3 29 28 13
3 29 4 28
3 29 19 4
3 157 19 158
3 159 158 29
3 157 158 159
3 161 160 19
3 21 162 164
3 162 14 163
3 162 163 164
3 165 14 166
3 167 166 21
3 165 166 167
3 169 168 14
3 30 170 171
3 30 172 173
3 30 174 176
3 174 6 175
3 174 175 176
3 31 6 30
3 31 177 179
3 179 178 6
3 177 178 179
3 15 180 182
3 180 31 181
3 180 181 182
3 183 31 184
3 185 184 15
3 183 184 185
3 187 186 31
3 22 188 190
3 188 16 189
3 188 189 190
3 32 16 22
3 32 5 16
3 18 32 1
3 33 32 18
3 33 5 32
3 33 191 193
3 193 192 5
3 191 192 193
3 195 194 33
3 27 9 0
3 34 9 27
3 34 2 9
3 20 34 4
3 35 34 20
3 35 2 34
3 35 25 2
3 36 25 35
3 36 196 198
3 198 197 25
3 196 197 198
3 199 36 200
3 201 36 202
3 204 203 36
