ply
format ascii 1.0
element vertex 392
property float x
property float y
property float z
element face 334
property list uchar int vertex_index
end_header
1.707874 28.466038 43.477287
-1.681707 19.47451 40.314415
0.852951 20.27359 64.465088
6.548876 1.790724 83.961632
2.046654 23.963169 53.661415
1.511492 22.098351 59.029411
1.373564 20.989918 46.716824
-0.17775 16.267521 44.926842
0.208733 23.970242 41.952587
-1.170252 27.150761 36.993729
1.650761 1.660257 82.140617
0.619043 4.859737 79.176422
0.121572 7.67001 75.449753
0.265179 10.105515 71.065468
0.886011 12.22455 66.229156
-1.97555 11.531096 43.004288
1.628479 14.170349 61.211929
2.111996 16.151566 56.246246
2.056349 18.379841 51.432327
2.164135 26.044991 48.482071
1.527037 24.778069 45.163437
0.835051 22.441051 44.351028
1.042473 26.192829 42.726749
2.290094 5.740835 81.642937
1.083031 3.309477 80.757332
1.595293 7.423763 80.313927
0.340811 11.815952 75.018944
0.117153 8.93273 73.329399
0.267281 13.062592 72.846153
0.355509 14.208836 70.506378
3.868404 2.0474 83.655457
5.634979 3.95278 83.52359
-0.927258 17.868027 42.659828
-1.079834 13.92643 43.989868
-1.856695 15.531887 41.754982
0.880838 16.259979 65.474533
1.22967 17.208805 62.864487
1.814722 23.013546 56.325661
1.868652 19.086426 57.636246
2.074831 20.069546 55.065491
2.162546 17.22361 53.820427
2.159445 21.114616 52.537994
2.099787 22.240517 50.052246
2.172096 24.967953 51.046455
7.511648 5.616776 82.961105
-2.613718 17.102367 39.429798
1.17679 21.193748 61.752731
1.440466 26.039993 57.58242
1.253887 17.133583 48.098537
0.537388 14.711498 47.126141
0.664228 18.605911 45.83033
-0.007187 20.153976 43.520485
-0.722567 21.747746 41.151752
0.465273 27.693722 40.267754
-0.46944 25.551273 39.504166
-1.452932 23.350945 38.713848
1.017326 8.997583 78.765106
0.291006 6.312893 77.403946
-0.062193 4.762136 73.581444
0.573965 15.268108 68.035545
0.583677 19.31076 67.12664
2.289509 -0.090134 83.322945
3.060215 3.948645 82.755013
-0.295507 12.327675 46.136917
1.573696 18.141697 60.242134
1.923605 15.142487 58.712585
2.040384 14.483799 52.599815
1.723057 15.757004 50.347252
1.789362 19.633942 49.070374
1.886744 23.459873 47.599014
2.00865 27.207619 45.962852
2.246954 29.763165 46.746307
2.227095 8.606303 80.64925
1.942693 6.582299 80.978432
2.574495 7.764839 81.313755
0.428977 13.869886 74.684265
0.592102 13.194398 75.693603
0.392212 14.493206 73.59787
0.304046 12.439272 73.932548
0.428977 13.869886 74.684265
0.323445 15.109209 72.479732
0.392212 14.493206 73.59787
6.034045 -0.133356 84.412876
6.994983 0.667184 84.095692
5.619518 0.915945 84.157467
6.034045 -0.133356 84.412876
6.091928 2.871752 83.742611
5.162569 1.996973 83.938446
5.619518 0.915945 84.157467
1.403659 28.000228 56.745537
1.230923 27.58381 58.19524
1.600878 26.478565 56.186847
1.403659 28.000228 56.745537
0.611657 29.494377 39.395105
0.872979 28.760801 40.637058
-0.819846 26.351017 38.248947
-0.319526 27.405857 38.634752
-0.669932 28.205601 37.379534
-1.676394 26.038067 36.598713
-1.817734 24.138159 37.458772
-1.311592 25.250853 37.853789
1.084958 0.413694 81.597454
1.30548 -0.392105 82.327416
0.396223 2.774878 79.297264
0.628217 1.999747 80.087719
0.851037 4.084607 79.966877
0.284058 3.494029 78.397106
0.396223 2.774878 79.297264
1.18785 11.048373 78.457512
1.529925 10.250589 79.226456
0.206289 6.991452 76.42685
0.441456 8.387309 77.200756
0.356739 9.065867 76.223659
-0.005393 5.577526 75.558357
0.079324 4.898967 76.535454
0.206289 6.991452 76.42685
0.02969 6.216073 74.515599
-0.097275 4.123589 74.624203
-0.005393 5.577526 75.558357
0.207792 8.033857 71.222942
0.133778 7.447465 72.354908
0.191166 9.519122 72.197433
0.371466 8.598141 70.076324
0.207792 8.033857 71.222942
0.400427 10.651609 69.876411
0.371466 8.598141 70.076324
0.493223 16.773602 68.863594
0.464737 14.738472 69.270961
0.383995 16.243966 70.09901
0.498079 18.794928 68.409142
0.578821 17.289434 67.581092
0.493223 16.773602 68.863594
2.6322 -1.015871 83.813588
1.882061 -2.119093 83.555344
3.879293 4.979899 82.823208
3.464309 2.998023 83.205235
4.283387 4.029276 83.27343
3.410176 5.953057 82.402005
3.879293 4.979899 82.823208
7.004214 6.725154 82.766708
7.94235 7.511427 82.39893
-1.574667 10.732384 44.058905
-1.126809 11.930051 44.551695
-1.527692 12.728763 43.497078
-2.004624 9.504624 43.52322
-1.574667 10.732384 44.058905
-3.113996 13.842875 39.642589
-2.67847 15.099365 40.112337
-3.049244 15.845876 38.96005
1.09155 10.702691 65.28154
0.881593 10.191394 66.478927
1.656106 12.175339 61.571464
1.447739 13.688667 62.469154
1.807763 12.67657 60.377998
1.656106 12.175339 61.571464
2.138599 14.184008 56.71817
2.044403 13.679468 57.95134
2.0178 15.647026 57.479416
2.150065 14.730242 55.561332
2.138599 14.184008 56.71817
2.296476 31.558287 45.809162
2.245687 31.114468 47.126342
2.198651 30.300807 45.471633
2.296476 31.558287 45.809162
-1.00135 29.006051 36.098198
-0.669932 28.205601 37.379534
-1.52309 27.940905 35.704773
-1.00135 29.006051 36.098198
0.466359 11.138838 76.008255
0.592102 13.194398 75.693603
0.231191 9.742981 75.234349
0.356739 9.065867 76.223659
0.466359 11.138838 76.008255
0.367559 15.682332 71.309845
0.311395 13.635714 71.676265
0.323445 15.109209 72.479732
0.383995 16.243966 70.09901
0.367559 15.682332 71.309845
4.279281 1.044283 84.004379
3.421648 0.052897 83.979844
4.751691 3.00009 83.589523
4.279281 1.044283 84.004379
5.162569 1.996973 83.938446
5.166675 4.981966 83.207496
4.283387 4.029276 83.27343
4.751691 3.00009 83.589523
1.073918 14.733482 64.600456
1.076504 12.715768 64.977767
0.883425 14.242265 65.851844
1.248334 15.207895 63.295433
1.073918 14.733482 64.600456
1.055254 16.734392 64.16951
1.429075 15.689577 62.038208
1.447739 13.688667 62.469154
1.248334 15.207895 63.295433
1.494279 29.14696 42.241825
1.808466 30.236924 42.592577
7.509029 2.54659 83.565945
6.994983 0.667184 84.095692
7.990415 4.459616 83.065682
7.030262 3.70375 83.461368
7.509029 2.54659 83.565945
8.462438 6.325287 82.485973
7.990415 4.459616 83.065682
7.94235 7.511427 82.39893
8.462438 6.325287 82.485973
-2.520529 19.074649 38.659132
-2.147712 18.288438 39.872107
-2.054524 20.260721 39.10144
-2.984504 17.850881 38.224458
-2.520529 19.074649 38.659132
-2.891316 19.823164 37.453793
-3.049244 15.845876 38.96005
-2.984504 17.850881 38.224458
0.987582 22.733778 62.479511
1.014871 20.733669 63.108909
0.825662 22.273699 63.83569
1.141255 23.180194 61.075535
0.987582 22.733778 62.479511
1.308607 23.632496 59.713875
1.344141 21.64605 60.391071
1.141255 23.180194 61.075535
1.273093 25.603317 58.990379
1.230923 27.58381 58.19524
1.475979 24.069172 58.305915
1.308607 23.632496 59.713875
1.273093 25.603317 58.990379
1.788006 24.965342 55.558468
1.627594 24.52677 56.95404
1.600878 26.478565 56.186847
1.903972 25.440153 54.226345
1.930688 23.488357 54.993538
1.788006 24.965342 55.558468
2.036926 25.890836 52.854286
1.903972 25.440153 54.226345
0.895637 15.922541 47.612339
0.857416 13.971493 48.201544
1.215666 15.182535 48.687742
1.161579 28.010355 41.866556
1.375173 27.329434 43.102018
1.494279 29.14696 42.241825
0.753873 26.943275 41.497251
1.161579 28.010355 41.866556
0.872979 28.760801 40.637058
0.147831 28.477082 39.016546
0.611657 29.494377 39.395105
-0.002084 26.622498 39.88596
0.147831 28.477082 39.016546
-0.319526 27.405857 38.634752
-1.940136 22.198939 38.301157
-2.054524 20.260721 39.10144
-1.567319 21.412727 39.514131
-1.940136 22.198939 38.301157
-1.817734 24.138159 37.458772
-1.676394 26.038067 36.598713
-1.52309 27.940905 35.704773
0.801092 1.238304 80.905811
1.084958 0.413694 81.597454
1.366896 2.484867 81.448975
0.801092 1.238304 80.905811
0.628217 1.999747 80.087719
1.818909 9.463679 80.000866
2.227095 8.606303 80.64925
1.30631 8.210673 79.539517
1.818909 9.463679 80.000866
1.529925 10.250589 79.226456
0.804616 9.729654 77.881336
1.18785 11.048373 78.457512
0.654166 7.655238 78.084526
0.804616 9.729654 77.881336
0.441456 8.387309 77.200756
0.120039 4.220607 77.510868
0.284058 3.494029 78.397106
0.455024 5.586315 78.290184
0.120039 4.220607 77.510868
0.079324 4.898967 76.535454
-0.161182 2.658234 73.609005
-0.097275 4.123589 74.624203
-0.020109 3.270391 72.529697
-0.161182 2.658234 73.609005
0.044106 5.362168 72.48093
0.02748 6.847433 73.455421
0.133778 7.447465 72.354908
-0.020109 3.270391 72.529697
0.044106 5.362168 72.48093
0.710843 11.711127 67.458256
0.881593 10.191394 66.478927
0.445592 12.70327 69.596867
0.400427 10.651609 69.876411
0.310344 12.157176 70.785923
0.55482 13.232906 68.36145
0.445592 12.70327 69.596867
0.464737 14.738472 69.270961
0.729988 13.746329 67.132351
0.710843 11.711127 67.458256
0.55482 13.232906 68.36145
0.506838 20.818698 67.873726
0.498079 18.794928 68.409142
0.571638 21.323335 66.545166
0.506838 20.818698 67.873726
0.706275 21.80475 65.21439
0.718314 19.792175 65.795864
0.571638 21.323335 66.545166
0.825662 22.273699 63.83569
0.706275 21.80475 65.21439
1.624854 -1.267301 82.918579
1.882061 -2.119093 83.555344
1.970135 0.785062 82.731781
1.30548 -0.392105 82.327416
1.624854 -1.267301 82.918579
3.078956 0.978633 83.489201
2.6322 -1.015871 83.813588
3.421648 0.052897 83.979844
3.025116 6.849152 81.845967
2.675154 4.84474 82.198975
3.410176 5.953057 82.402005
2.574495 7.764839 81.313755
3.025116 6.849152 81.845967
6.06588 5.893156 83.04795
6.573314 4.784778 83.242347
7.004214 6.725154 82.766708
5.166675 4.981966 83.207496
6.06588 5.893156 83.04795
0.50132 12.743151 47.667417
0.857416 13.971493 48.201544
0.084872 11.551239 47.172805
0.50132 12.743151 47.667417
0.12094 13.519586 46.631529
-0.322835 10.336953 46.631626
0.084872 11.551239 47.172805
-0.734645 11.130674 45.62522
-0.68767 13.127052 45.063392
-1.126809 11.930051 44.551695
-0.322835 10.336953 46.631626
-0.734645 11.130674 45.62522
-2.299959 14.314125 41.274929
-2.235206 16.317127 40.59239
-2.67847 15.099365 40.112337
-2.359386 12.31373 41.899582
-1.916122 13.531491 42.379635
-2.299959 14.314125 41.274929
-2.395431 10.281681 42.482368
-2.359386 12.31373 41.899582
-2.424505 8.255209 43.0013
-2.004624 9.504624 43.52322
-2.395431 10.281681 42.482368
1.09155 10.702691 65.28154
1.076504 12.715768 64.977767
1.955326 13.162639 59.128326
1.807763 12.67657 60.377998
1.776042 14.656418 59.962257
1.955326 13.162639 59.128326
2.044403 13.679468 57.95134
2.175339 15.266264 54.348423
2.150065 14.730242 55.561332
2.137271 16.687588 55.033337
2.114259 13.896358 53.738117
2.175339 15.266264 54.348423
2.101465 15.853704 53.210121
2.052045 12.524596 53.067325
2.114259 13.896358 53.738117
1.869553 13.165627 52.002101
2.052045 12.524596 53.067325
1.71089 13.80223 50.87582
1.869553 13.165627 52.002101
1.881721 15.120401 51.473534
1.450251 14.494245 49.8121
1.71089 13.80223 50.87582
1.488472 16.445294 49.222894
1.215666 15.182535 48.687742
1.450251 14.494245 49.8121
2.099646 26.393228 51.546806
2.109375 24.465561 52.353935
2.036926 25.890836 52.854286
2.185867 26.864911 50.204891
2.099646 26.393228 51.546806
2.181887 27.40343 48.922699
2.168115 25.506472 49.764263
2.185867 26.864911 50.204891
2.223296 29.262517 48.054817
2.245687 31.114468 47.126342
2.205545 27.904078 47.614189
2.181887 27.40343 48.922699
2.223296 29.262517 48.054817
2.079498 29.023034 45.079906
2.127802 28.485392 46.354579
2.198651 30.300807 45.471633
1.92911 29.652243 43.837123
1.858262 27.836829 44.720069
2.079498 29.023034 45.079906
1.808466 30.236924 42.592577
1.92911 29.652243 43.837123
3 0 22 20
3 72 25 73
3 74 73 23
3 72 73 74
3 75 26 76
3 77 28 78
3 79 78 26
3 77 78 79
3 81 80 28
3 3 82 83
3 3 84 85
3 3 86 88
3 86 31 87
3 86 87 88
3 1 34 32
3 2 36 35
3 4 39 37
3 4 41 39
3 4 43 41
3 89 47 90
3 92 91 47
3 6 50 48
3 8 51 21
3 8 52 51
3 93 53 94
3 9 95 97
3 95 54 96
3 95 96 97
3 9 55 54
3 9 98 100
3 100 99 55
3 98 99 100
3 10 101 102
3 11 103 105
3 105 104 24
3 103 104 105
3 11 106 107
3 108 56 109
3 12 110 112
3 110 57 111
3 110 111 112
3 12 113 115
3 115 114 57
3 113 114 115
3 12 116 118
3 116 58 117
3 116 117 118
3 13 119 121
3 121 120 27
3 119 120 121
3 13 122 123
3 13 124 125
3 126 59 127
3 128 127 29
3 126 127 128
3 129 60 130
3 131 130 59
3 129 130 131
3 132 61 133
3 134 62 135
3 136 135 30
3 134 135 136
3 138 137 62
3 140 139 44
3 7 63 49
3 15 141 143
3 143 142 33
3 141 142 143
3 15 144 145
3 148 147 45
3 146 147 148
3 14 149 150
3 16 151 152
3 16 153 154
3 5 64 46
3 17 65 38
3 17 155 157
3 157 156 65
3 155 156 157
3 17 158 159
3 18 66 40
3 18 67 66
3 18 68 67
3 19 69 42
3 19 70 69
3 160 71 161
3 163 162 71
3 20 21 6
3 22 21 20
3 22 8 21
3 164 9 165
3 167 166 9
3 23 24 10
3 25 24 23
3 25 11 24
3 26 168 169
3 26 170 172
3 170 12 171
3 170 171 172
3 26 27 12
3 28 27 26
3 28 13 27
3 28 29 13
3 173 29 174
3 175 174 28
3 173 174 175
3 177 176 29
3 178 30 179
3 31 180 182
3 180 30 181
3 180 181 182
3 31 183 185
3 185 184 30
3 183 184 185
3 32 33 7
3 34 33 32
3 34 15 33
3 35 186 188
3 188 187 14
3 186 187 188
3 36 189 191
3 191 190 35
3 189 190 191
3 36 192 194
3 192 16 193
3 192 193 194
3 37 38 5
3 39 38 37
3 39 17 38
3 39 40 17
3 41 40 39
3 41 18 40
3 41 42 18
3 43 42 41
3 43 19 42
3 196 195 0
3 197 3 198
3 199 44 200
3 201 200 3
3 199 200 201
3 202 44 203
3 205 204 44
3 206 45 207
3 208 207 1
3 206 207 208
3 209 45 210
3 209 210 211
3 213 212 45
3 214 46 215
3 216 215 2
3 214 215 216
3 217 46 218
3 219 5 220
3 221 220 46
3 219 220 221
3 47 222 223
3 47 224 226
3 224 5 225
3 224 225 226
3 47 37 5
3 227 37 228
3 229 228 47
3 227 228 229
3 230 4 231
3 232 231 37
3 230 231 232
3 234 233 4
3 48 235 237
3 235 49 236
3 235 236 237
3 50 49 48
3 50 7 49
3 21 50 6
3 51 50 21
3 51 7 50
3 51 32 7
3 52 32 51
3 52 1 32
3 238 22 239
3 240 239 0
3 238 239 240
3 53 241 243
3 241 22 242
3 241 242 243
3 53 8 22
3 244 53 245
3 54 246 248
3 246 53 247
3 246 247 248
3 54 8 53
3 54 52 8
3 55 52 54
3 55 1 52
3 55 249 251
3 251 250 1
3 249 250 251
3 253 252 55
3 255 254 9
3 24 256 258
3 258 257 10
3 256 257 258
3 260 259 24
3 261 25 262
3 56 263 265
3 263 25 264
3 263 264 265
3 56 11 25
3 266 56 267
3 57 268 270
3 268 56 269
3 268 269 270
3 57 11 56
3 57 271 273
3 273 272 11
3 271 272 273
3 275 274 57
3 58 276 277
3 58 278 279
3 27 58 12
3 280 58 281
3 282 281 27
3 280 281 282
3 284 283 58
3 285 14 286
3 29 287 289
3 289 288 13
3 287 288 289
3 59 290 292
3 292 291 29
3 290 291 292
3 59 293 295
3 293 14 294
3 293 294 295
3 59 35 14
3 60 35 59
3 60 2 35
3 296 60 297
3 298 60 299
3 300 2 301
3 302 301 60
3 300 301 302
3 304 303 2
3 61 305 306
3 61 307 309
3 307 10 308
3 307 308 309
3 30 310 312
3 310 61 311
3 310 311 312
3 62 61 30
3 62 10 61
3 62 23 10
3 313 23 314
3 315 314 62
3 313 314 315
3 317 316 23
3 44 31 3
3 318 31 319
3 320 319 44
3 318 319 320
3 322 321 31
3 49 323 324
3 63 325 327
3 327 326 49
3 325 326 327
3 63 328 329
3 33 63 7
3 330 63 331
3 332 331 33
3 330 331 332
3 334 333 63
3 45 34 1
3 335 34 336
3 337 336 45
3 335 336 337
3 338 15 339
3 340 339 34
3 338 339 340
3 341 15 342
3 345 344 15
3 343 344 345
3 347 346 14
3 46 36 2
3 64 36 46
3 64 16 36
3 38 64 5
3 65 64 38
3 65 16 64
3 65 348 350
3 350 349 16
3 348 349 350
3 352 351 65
3 40 353 355
3 355 354 17
3 353 354 355
3 66 356 358
3 358 357 40
3 356 357 358
3 66 359 360
3 66 361 362
3 67 363 365
3 365 364 66
3 363 364 365
3 67 366 367
3 67 368 370
3 368 48 369
3 368 369 370
3 68 48 67
3 68 6 48
3 42 68 18
3 69 68 42
3 69 6 68
3 69 20 6
3 70 20 69
3 70 0 20
3 371 43 372
3 373 372 4
3 371 372 373
3 374 43 375
3 376 19 377
3 378 377 43
3 376 377 378
3 71 379 380
3 71 381 383
3 381 19 382
3 381 382 383
3 71 70 19
3 384 70 385
3 386 385 71
3 384 385 386
3 387 0 388
3 389 388 70
3 387 388 389
3 391 390 0
