ply
format ascii 1.0
element vertex 299
property float x
property float y
property float z
element face 243
property list uchar int vertex_index
end_header
26.237247 -50.730114 -22.496977
33.342098 -57.469273 -28.121805
32.292004 -45.537918 -29.001463
19.591356 -52.853291 -17.691515
27.324219 -57.151211 -21.586893
30.693691 -54.717499 -24.705126
29.584103 -48.53463 -25.458944
33.187012 -51.395905 -28.414156
22.677483 -52.117405 -20.03034
22.994665 -47.138847 -20.127211
25.3927 -45.528236 -23.086138
27.244276 -39.476257 -26.36537
27.981943 -43.291882 -26.234266
24.8776 -54.62587 -20.785112
26.828815 -53.829262 -22.035299
28.6443 -52.802486 -23.450129
27.975592 -49.737286 -23.900537
16.730812 -53.277546 -13.836147
31.660027 -50.072418 -26.80261
32.023434 -53.152592 -26.515482
32.874283 -48.408524 -28.670969
20.969246 -55.590271 -18.595945
21.035839 -52.552109 -18.869101
24.149979 -46.406712 -21.600355
25.438358 -43.537601 -23.038561
27.954481 -38.025928 -28.245279
27.42075 -41.188805 -26.420259
29.13224 -56.057243 -23.050417
30.26062 -51.545738 -25.04524
31.022661 -47.128696 -27.170237
18.391281 -53.054623 -16.465841
25.178787 -42.146255 -15.353157
28.609863 -32.05468 -31.829504
34.460125 -52.426991 -30.10581
35.725136 -50.318932 -31.849932
15.701649 -53.372261 -11.045338
32.142685 -56.302151 -26.325872
33.302505 -54.436581 -28.2348
34.283783 -49.48922 -30.313501
22.887154 -55.204849 -19.657393
24.441334 -51.518257 -21.222101
18.398287 -50.844749 -14.711592
19.211853 -50.617737 -16.160036
20.187937 -50.317505 -17.556826
21.94945 -47.738651 -18.635798
21.347637 -49.923382 -18.901976
22.681633 -49.411217 -20.213148
24.152699 -48.756805 -21.52434
25.702587 -47.939072 -22.87945
26.413668 -42.437431 -24.707029
26.684875 -44.492222 -24.620382
27.262743 -46.942566 -24.321947
28.767801 -45.759407 -25.883509
30.169579 -44.390862 -27.574526
16.454963 -53.307846 -13.143973
15.985574 -54.591091 -13.352056
32.862657 -44.664417 -29.946964
33.153797 -46.09972 -29.781717
32.583143 -46.973221 -28.836216
19.411582 -54.33456 -17.618277
18.676414 -54.387497 -17.076586
20.313598 -52.7027 -18.280308
20.133823 -54.18397 -18.20707
19.411582 -54.33456 -17.618277
25.660975 -42.747503 -22.868341
24.974317 -44.01433 -22.21423
28.323635 -37.236055 -29.205862
28.144732 -36.507368 -29.152328
28.197293 -38.909402 -28.220833
28.323635 -37.236055 -29.205862
33.389876 -58.952931 -28.089487
32.704033 -60.014624 -27.167526
26.472086 -59.340208 -20.740026
26.3174 -57.572083 -20.949909
27.474156 -58.881274 -21.405409
26.472086 -59.340208 -20.740026
28.228229 -56.604227 -22.318655
28.378166 -58.334289 -22.137171
27.474156 -58.881274 -21.405409
17.919119 -53.121205 -15.822564
17.500412 -54.501999 -15.893921
25.693722 -41.843784 -16.305999
25.837999 -41.276432 -15.878062
24.913972 -42.733516 -15.823605
25.693722 -41.843784 -16.305999
28.712564 -31.104454 -32.903632
28.715564 -30.626244 -32.678992
28.704411 -32.647371 -31.96712
28.712564 -31.104454 -32.903632
35.574044 -48.897701 -31.985993
35.09263 -51.372962 -30.977871
34.941538 -49.951731 -31.113933
15.449233 -53.372652 -10.339827
15.171319 -54.595759 -10.65318
30.779369 -56.347515 -24.588919
30.034534 -57.070316 -23.730106
18.891944 -49.866169 -14.328636
18.04798 -50.928789 -13.968548
20.114166 -49.419443 -16.633856
19.693663 -49.60906 -15.850168
20.602208 -49.269327 -17.332251
19.699895 -50.467621 -16.858431
20.114166 -49.419443 -16.633856
22.472057 -47.438749 -19.381504
22.792015 -46.520137 -19.186528
23.314622 -46.220236 -19.932234
27.383103 -38.805732 -26.19715
27.581761 -38.050689 -27.198978
26.900455 -40.132649 -25.443048
27.383103 -38.805732 -26.19715
26.828972 -40.956844 -25.536199
26.485151 -41.613236 -24.613878
26.900455 -40.132649 -25.443048
30.306805 -42.396523 -28.662318
29.706544 -43.158619 -27.759842
30.808939 -43.619595 -28.476744
30.306805 -42.396523 -28.662318
25.094091 -56.309412 -20.549019
24.028529 -56.607867 -19.989618
26.069698 -55.911108 -21.174112
25.094091 -56.309412 -20.549019
25.853207 -54.227566 -21.410206
27.076517 -55.490237 -21.811096
26.3174 -57.572083 -20.949909
26.069698 -55.911108 -21.174112
16.256814 -54.606406 -13.978658
15.985574 -54.591091 -13.352056
17.088884 -53.232666 -14.507717
16.256814 -54.606406 -13.978658
33.425125 -47.499241 -29.622637
33.58149 -48.992931 -29.494231
33.030648 -49.902214 -28.542562
33.425125 -47.499241 -29.622637
33.153797 -46.09972 -29.781717
20.100527 -55.703051 -18.070492
20.010965 -57.366938 -17.89624
21.002542 -54.07119 -18.732523
20.100527 -55.703051 -18.070492
20.133823 -54.18397 -18.20707
23.752471 -45.814953 -20.758554
23.314622 -46.220236 -19.932234
24.330128 -45.448885 -21.495126
23.572322 -46.772779 -20.863783
23.752471 -45.814953 -20.758554
24.794168 -44.972156 -22.319458
24.330128 -45.448885 -21.495126
24.974317 -44.01433 -22.21423
27.936864 -37.325525 -28.138933
28.144732 -36.507368 -29.152328
27.599379 -38.751092 -27.305324
27.581761 -38.050689 -27.198978
27.936864 -37.325525 -28.138933
27.930428 -40.490841 -27.308323
27.687615 -39.607366 -27.332769
28.197293 -38.909402 -28.220833
28.211024 -41.542379 -27.215326
27.701346 -42.240344 -26.327263
27.930428 -40.490841 -27.308323
28.612726 -42.609129 -27.089712
28.211024 -41.542379 -27.215326
29.253809 -57.740189 -22.902752
28.378166 -58.334289 -22.137171
29.912965 -55.387371 -23.877772
30.034534 -57.070316 -23.730106
29.253809 -57.740189 -22.902752
18.076377 -54.488163 -16.463749
17.500412 -54.501999 -15.893921
18.991318 -52.953957 -17.078678
18.676414 -54.387497 -17.076586
18.076377 -54.488163 -16.463749
25.151784 -41.514561 -14.963967
25.837999 -41.276432 -15.878062
24.535092 -42.344978 -14.442329
25.151784 -41.514561 -14.963967
24.416794 -42.984012 -14.895857
24.535092 -42.344978 -14.442329
24.416794 -42.984012 -14.895857
24.913972 -42.733516 -15.823605
28.774309 -31.599511 -31.553644
28.715564 -30.626244 -32.678992
28.541759 -32.956011 -30.754255
28.774309 -31.599511 -31.553644
28.472423 -33.521744 -30.944441
28.541759 -32.956011 -30.754255
28.472423 -33.521744 -30.944441
28.704411 -32.647371 -31.96712
34.547872 -53.884953 -30.021681
33.988859 -56.406094 -29.029678
33.901111 -54.948132 -29.113808
35.180378 -52.830923 -30.893741
34.547872 -53.884953 -30.021681
35.09263 -51.372962 -30.977871
35.907945 -51.721559 -31.723202
35.180378 -52.830923 -30.893741
36.211892 -47.858012 -32.806493
35.574044 -48.897701 -31.985993
36.451395 -49.234676 -32.625734
36.211892 -47.858012 -32.806493
35.907945 -51.721559 -31.723202
36.451395 -49.234676 -32.625734
15.299747 -54.61993 -11.311025
15.171319 -54.595759 -10.65318
15.940382 -53.355204 -11.748568
15.299747 -54.61993 -11.311025
32.728073 -58.463465 -27.176048
32.704033 -60.014624 -27.167526
32.090008 -61.008816 -26.221769
31.44424 -55.565061 -25.494097
30.779369 -56.347515 -24.588919
31.358563 -53.935046 -25.610304
31.503865 -57.139841 -25.399292
31.44424 -55.565061 -25.494097
32.08306 -54.727372 -26.420677
31.488217 -58.780552 -25.341444
31.503865 -57.139841 -25.399292
32.128366 -57.879904 -26.278081
31.488217 -58.780552 -25.341444
32.708276 -56.947119 -27.232546
32.128366 -57.879904 -26.278081
32.722595 -55.369366 -27.280336
33.322301 -55.952927 -28.178303
32.728073 -58.463465 -27.176048
32.708276 -56.947119 -27.232546
34.853367 -48.482845 -31.217778
34.941538 -49.951731 -31.113933
34.371954 -50.958106 -30.209656
34.129875 -48.039589 -30.443903
33.735398 -50.442563 -29.363828
33.58149 -48.992931 -29.494231
34.671955 -47.073222 -31.369324
34.129875 -48.039589 -30.443903
34.853367 -48.482845 -31.217778
34.671955 -47.073222 -31.369324
21.00966 -57.276394 -18.385681
20.010965 -57.366938 -17.89624
21.968614 -57.083683 -18.916405
21.00966 -57.276394 -18.385681
21.9282 -55.39756 -19.126669
23.033305 -56.897356 -19.425759
21.968614 -57.083683 -18.916405
23.882377 -54.91536 -20.221252
24.028529 -56.607867 -19.989618
23.033305 -56.897356 -19.425759
16.021788 -52.282388 -10.635932
15.449233 -53.372652 -10.339827
16.370387 -52.250481 -11.384241
16.021788 -52.282388 -10.635932
15.940382 -53.355204 -11.748568
16.370387 -52.250481 -11.384241
17.214242 -52.145188 -13.530826
16.454963 -53.307846 -13.143973
17.564549 -52.061148 -14.273869
17.214242 -52.145188 -13.530826
18.04798 -50.928789 -13.968548
17.922622 -52.016267 -14.945439
17.088884 -53.232666 -14.507717
17.564549 -52.061148 -14.273869
19.286879 -49.722566 -15.125946
18.891944 -49.866169 -14.328636
18.80507 -50.731243 -15.435814
19.286879 -49.722566 -15.125946
19.693663 -49.60906 -15.850168
18.329405 -51.902761 -15.669662
17.922622 -52.016267 -14.945439
18.80507 -50.731243 -15.435814
18.801567 -51.83618 -16.312939
17.919119 -53.121205 -15.822564
18.329405 -51.902761 -15.669662
22.375968 -46.856611 -18.350527
22.792015 -46.520137 -19.186528
21.482965 -47.9799 -17.871737
22.375968 -46.856611 -18.350527
21.068694 -49.028078 -18.096312
20.602208 -49.269327 -17.332251
21.482965 -47.9799 -17.871737
25.997495 -42.16332 -23.779644
25.660975 -42.747503 -22.868341
25.926013 -42.987516 -23.872795
25.997495 -42.16332 -23.779644
26.485151 -41.613236 -24.613878
29.005655 -43.842892 -26.914333
28.374872 -44.525644 -26.058888
28.612726 -42.609129 -27.089712
29.46869 -45.075135 -26.729017
29.005655 -43.842892 -26.914333
29.706544 -43.158619 -27.759842
31.23548 -44.988512 -28.2746
30.59612 -45.759779 -27.372381
30.808939 -43.619595 -28.476744
31.870151 -44.193123 -29.190213
31.657332 -46.333307 -28.08585
31.23548 -44.988512 -28.2746
32.454785 -43.345401 -30.128031
31.870151 -44.193123 -29.190213
32.862657 -44.664417 -29.946964
32.454785 -43.345401 -30.128031
34.036637 -57.889752 -28.99736
33.389876 -58.952931 -28.089487
33.988859 -56.406094 -29.029678
3 0 14 13
3 0 16 14
3 54 17 55
3 2 20 18
3 2 56 58
3 58 57 20
3 56 57 58
3 3 59 60
3 3 61 63
3 61 22 62
3 61 62 63
3 64 24 65
3 66 25 67
3 69 68 25
3 1 70 71
3 4 72 73
3 4 74 75
3 4 76 78
3 76 27 77
3 76 77 78
3 6 28 15
3 6 29 28
3 79 30 80
3 81 31 82
3 84 83 31
3 85 32 86
3 88 87 32
3 89 34 90
3 91 90 33
3 89 90 91
3 92 35 93
3 5 94 95
3 7 36 19
3 7 37 36
3 7 38 37
3 8 39 21
3 8 40 39
3 96 41 97
3 98 42 99
3 100 43 101
3 102 101 42
3 100 101 102
3 9 103 105
3 103 44 104
3 103 104 105
3 9 45 44
3 9 46 45
3 10 47 23
3 10 48 47
3 11 106 107
3 11 108 109
3 11 110 112
3 110 49 111
3 110 111 112
3 12 50 26
3 12 51 50
3 12 52 51
3 113 53 114
3 116 115 53
3 13 117 118
3 14 119 121
3 121 120 13
3 119 120 121
3 14 122 124
3 122 4 123
3 122 123 124
3 14 15 4
3 16 15 14
3 16 6 15
3 17 125 126
3 17 127 128
3 18 19 5
3 20 19 18
3 20 7 19
3 20 129 131
3 131 130 7
3 129 130 131
3 133 132 20
3 134 21 135
3 22 136 138
3 136 21 137
3 136 137 138
3 22 8 21
3 139 9 140
3 141 23 142
3 143 142 9
3 141 142 143
3 24 144 146
3 144 23 145
3 144 145 146
3 24 10 23
3 25 147 148
3 25 149 151
3 149 11 150
3 149 150 151
3 25 26 11
3 152 26 153
3 154 153 25
3 152 153 154
3 155 12 156
3 157 156 26
3 155 156 157
3 159 158 12
3 27 160 161
3 27 162 164
3 162 5 163
3 162 163 164
3 15 27 4
3 28 27 15
3 28 5 27
3 28 18 5
3 29 18 28
3 29 2 18
3 30 165 166
3 30 167 169
3 167 3 168
3 167 168 169
3 31 170 171
3 31 172 173
3 31 174 175
3 177 176 31
3 32 178 179
3 32 180 181
3 32 182 183
3 185 184 32
3 33 186 188
3 188 187 1
3 186 187 188
3 34 189 191
3 191 190 33
3 189 190 191
3 34 192 193
3 194 34 195
3 196 34 197
3 199 198 34
3 35 200 201
3 35 202 203
3 204 1 205
3 204 205 206
3 19 207 209
3 209 208 5
3 207 208 209
3 36 210 212
3 212 211 19
3 210 211 212
3 36 213 214
3 36 215 216
3 37 217 219
3 219 218 36
3 217 218 219
3 37 220 222
3 220 1 221
3 220 221 222
3 37 33 1
3 38 33 37
3 38 223 225
3 225 224 33
3 223 224 225
3 226 38 227
3 228 227 7
3 226 227 228
3 229 38 230
3 232 231 38
3 21 233 234
3 39 235 237
3 237 236 21
3 235 236 237
3 39 238 239
3 39 240 242
3 240 13 241
3 240 241 242
3 40 13 39
3 40 0 13
3 243 35 244
3 245 35 246
3 248 247 35
3 249 17 250
3 41 251 253
3 251 17 252
3 251 252 253
3 41 254 256
3 256 255 17
3 254 255 256
3 257 41 258
3 42 259 261
3 259 41 260
3 259 260 261
3 42 262 264
3 264 263 41
3 262 263 264
3 42 265 267
3 265 30 266
3 265 266 267
3 43 30 42
3 43 3 30
3 44 268 269
3 44 270 271
3 44 272 274
3 272 43 273
3 272 273 274
3 45 43 44
3 45 3 43
3 45 22 3
3 46 22 45
3 46 8 22
3 23 46 9
3 47 46 23
3 47 8 46
3 47 40 8
3 48 40 47
3 48 0 40
3 275 24 276
3 49 277 279
3 277 24 278
3 277 278 279
3 49 10 24
3 26 49 11
3 50 49 26
3 50 10 49
3 50 48 10
3 51 48 50
3 51 0 48
3 51 16 0
3 52 16 51
3 52 6 16
3 280 52 281
3 282 281 12
3 280 281 282
3 53 283 285
3 283 52 284
3 283 284 285
3 53 6 52
3 53 29 6
3 286 29 287
3 288 287 53
3 286 287 288
3 289 2 290
3 291 290 29
3 289 290 291
3 292 2 293
3 295 294 2
3 298 297 1
3 296 297 298
