ply
format ascii 1.0
element vertex 70
property float x
property float y
property float z
element face 44
property list uchar int vertex_index
end_header
-4.643549 25.224438 30.175343
-1.503771 32.455616 32.570915
-2.42734 21.046932 37.888466
-3.633238 27.848259 30.978634
-2.182535 24.925373 36.203697
-2.908113 26.434895 33.623661
-5.015487 25.791151 28.825062
-5.120273 23.799974 29.758602
-4.742796 23.240021 31.072995
-4.27245 24.586622 31.494221
-5.120273 23.799974 29.758602
-4.742796 23.240021 31.072995
-1.28403 34.273297 31.644764
-0.971687 33.462812 32.983577
-0.971687 33.462812 32.983577
-1.168109 31.658478 33.886791
-2.891316 19.823164 37.453793
-2.795973 21.797725 36.637184
-3.457979 29.767011 30.020685
-3.106624 29.05122 31.374747
-1.676394 26.038067 36.598713
-1.817734 24.138159 37.458772
-2.744062 28.344538 32.697261
-2.392021 27.582972 34.019739
-3.106624 29.05122 31.374747
-3.270676 27.141577 32.301147
-2.744062 28.344538 32.697261
-1.839207 33.227628 31.220239
-2.041891 31.354898 32.170888
-1.839207 33.227628 31.220239
-1.28403 34.273297 31.644764
-1.68985 30.593332 33.493366
-1.168109 31.658478 33.886791
-2.041891 31.354898 32.170888
-1.68985 30.593332 33.493366
-2.520529 19.074649 38.659132
-2.054524 20.260721 39.10144
-2.520529 19.074649 38.659132
-2.891316 19.823164 37.453793
-3.99684 28.494215 29.625815
-4.501995 27.182305 29.224169
-4.138394 26.536348 30.576988
-3.99684 28.494215 29.625815
-3.457979 29.767011 30.020685
-1.940136 22.198939 38.301157
-2.054524 20.260721 39.10144
-2.304938 22.986153 37.046081
-1.940136 22.198939 38.301157
-1.817734 24.138159 37.458772
-2.673571 23.736946 35.794799
-2.795973 21.797725 36.637184
-2.304938 22.986153 37.046081
-2.029232 26.828211 35.309757
-1.676394 26.038067 36.598713
-2.545324 25.680134 34.913679
-2.029232 26.828211 35.309757
-2.392021 27.582972 34.019739
-3.03636 24.491707 34.504781
-2.673571 23.736946 35.794799
-2.545324 25.680134 34.913679
-3.404732 25.191851 33.21838
-3.03636 24.491707 34.504781
-3.767294 25.898533 31.895867
-3.404732 25.191851 33.21838
-3.270676 27.141577 32.301147
-4.138394 26.536348 30.576988
-4.27245 24.586622 31.494221
-3.767294 25.898533 31.895867
-5.015487 25.791151 28.825062
-4.501995 27.182305 29.224169
3 0 6 7
3 0 8 9
3 0 10 11
3 13 12 1
3 14 1 15
3 17 16 2
3 19 18 3
3 20 4 21
3 22 5 23
3 24 3 25
3 26 25 5
3 24 25 26
3 1 27 28
3 30 29 1
3 1 31 32
3 1 33 34
3 2 35 36
3 38 37 2
3 3 39 41
3 41 40 0
3 39 40 41
3 43 42 3
3 44 2 45
3 4 46 48
3 46 2 47
3 46 47 48
3 4 49 51
3 51 50 2
3 49 50 51
3 52 4 53
3 5 54 56
3 54 4 55
3 54 55 56
3 5 57 59
3 59 58 4
3 57 58 59
3 5 60 61
3 3 62 64
3 64 63 5
3 62 63 64
3 3 65 67
3 65 0 66
3 65 66 67
3 69 68 0
