ply
format ascii 1.0
element vertex 255
property float x
property float y
property float z
element face 191
property list uchar int vertex_index
end_header
43.312828 -29.997295 -40.771652
32.673565 -36.942535 -33.519333
34.899994 -33.099018 -37.138611
37.482269 -29.093727 -40.182076
49.998222 -30.596691 -41.556778
53.116867 -34.006912 -40.940651
32.504993 -32.917732 -35.760536
33.763741 -35.054939 -35.378326
33.596287 -30.963659 -37.588051
29.438669 -17.51667 -43.881432
30.695805 -18.505573 -44.0298
36.077858 -26.937275 -40.84613
37.508732 -24.921711 -42.234833
38.977421 -27.104599 -41.441559
44.591019 -32.435593 -39.99942
46.605057 -30.512575 -40.959686
45.237663 -28.174717 -41.706978
57.663635 -38.600342 -39.334312
52.52169 -38.320175 -39.163589
50.981987 -36.570805 -39.559097
51.532455 -32.34676 -41.245041
49.463837 -34.70573 -39.938622
41.46492 -31.926727 -39.816208
34.82095 -37.421051 -34.959824
35.983334 -35.448658 -36.649734
32.814358 -23.319397 -41.859932
33.26244 -27.055603 -39.752647
34.77853 -28.961483 -39.294289
36.128376 -31.102573 -38.749062
40.278042 -29.460024 -40.619797
42.007309 -27.548801 -41.640709
48.002747 -32.695152 -40.381096
48.549812 -28.677727 -41.998917
54.695354 -35.601044 -40.553177
32.334598 -30.997048 -36.855866
31.842928 -31.9814 -35.906132
32.880246 -30.020011 -37.769623
33.05064 -31.940696 -36.674294
32.334598 -30.997048 -36.855866
30.470954 -16.871097 -44.931732
30.067237 -18.011122 -43.955616
29.842386 -16.376645 -44.857548
37.438551 -22.928517 -43.281566
36.685119 -23.937444 -42.590561
38.291006 -23.93828 -42.856869
37.438551 -22.928517 -43.281566
43.951924 -31.216444 -40.385536
43.600975 -33.432612 -39.533596
42.96188 -32.213463 -39.919712
49.843593 -37.809161 -38.951363
50.585308 -38.762976 -38.729293
49.084519 -36.876623 -39.141125
50.222912 -35.638267 -39.74886
49.843593 -37.809161 -38.951363
40.608193 -32.923086 -39.292534
41.103676 -34.198176 -38.951168
32.126972 -37.838129 -32.57141
32.072513 -35.870891 -33.689644
32.645565 -39.04771 -32.386966
32.126972 -37.838129 -32.57141
33.197266 -38.137805 -33.329129
32.645565 -39.04771 -32.386966
33.653351 -24.162405 -41.641475
33.451296 -22.270891 -42.68945
33.877392 -26.030508 -40.587833
33.038399 -25.1875 -40.80629
33.653351 -24.162405 -41.641475
34.635437 -26.983448 -40.358654
34.020485 -28.008543 -39.523468
33.877392 -26.030508 -40.587833
37.372383 -31.269462 -39.171422
36.695436 -32.273885 -38.454915
36.805323 -30.09815 -39.465569
38.086826 -30.266197 -39.829575
37.372383 -31.269462 -39.171422
40.444902 -27.318314 -41.590912
39.627731 -28.282311 -41.030678
39.794592 -26.140601 -42.001793
41.309536 -26.362702 -42.101368
41.142675 -28.504413 -41.130253
40.444902 -27.318314 -41.590912
46.950215 -33.739845 -39.864204
47.63512 -34.844357 -39.59457
47.853436 -27.595916 -42.332947
47.577435 -29.595151 -41.479301
46.881058 -28.51334 -41.813332
48.747913 -26.883646 -42.817429
47.853436 -27.595916 -42.332947
57.91064 -36.399433 -40.33012
56.941933 -37.866642 -39.68013
54.080625 -32.667797 -41.691658
54.869869 -33.464863 -41.497921
53.90611 -34.803978 -40.746914
53.25914 -31.933488 -41.834248
54.080625 -32.667797 -41.691658
50.891987 -29.494271 -42.237686
51.659103 -30.369306 -42.081817
50.765338 -31.471726 -41.400909
50.142482 -28.747991 -42.347424
50.891987 -29.494271 -42.237686
31.988228 -33.85849 -34.810246
31.842928 -31.9814 -35.906132
32.589279 -34.930133 -34.639935
32.072513 -35.870891 -33.689644
31.988228 -33.85849 -34.810246
29.641974 -19.116574 -42.991672
29.187221 -18.654311 -42.852161
30.270542 -19.611025 -43.065857
29.641974 -19.116574 -42.991672
30.067237 -18.011122 -43.955616
30.948071 -20.197447 -43.066128
30.270542 -19.611025 -43.065857
35.969683 -24.945227 -41.896209
35.285101 -25.971344 -41.134574
36.793295 -25.929493 -41.540481
35.969683 -24.945227 -41.896209
36.685119 -23.937444 -42.590561
39.025351 -25.029724 -42.460232
38.243077 -26.013155 -41.838196
38.291006 -23.93828 -42.856869
39.794592 -26.140601 -42.001793
39.025351 -25.029724 -42.460232
44.187397 -34.663815 -39.198326
43.600975 -33.432612 -39.533596
45.244351 -33.610065 -39.673367
44.187397 -34.663815 -39.198326
45.598038 -31.474084 -40.479553
46.25137 -32.648556 -40.153499
45.244351 -33.610065 -39.673367
46.197361 -27.344411 -42.186977
46.881058 -28.51334 -41.813332
45.92136 -29.343646 -41.333332
57.286663 -40.814304 -38.366741
58.342203 -39.29896 -38.907367
56.585873 -40.07029 -38.720504
57.286663 -40.814304 -38.366741
56.941933 -37.866642 -39.68013
56.585873 -40.07029 -38.720504
51.355159 -39.637661 -38.53154
52.102129 -40.52706 -38.293582
51.751838 -37.44549 -39.361343
51.355159 -39.637661 -38.53154
50.585308 -38.762976 -38.729293
42.037926 -33.178179 -39.44199
41.103676 -34.198176 -38.951168
42.388874 -30.962011 -40.29393
42.96188 -32.213463 -39.919712
42.037926 -33.178179 -39.44199
29.067981 -17.13758 -43.656261
29.187221 -18.654311 -42.852161
29.282056 -15.962687 -44.697178
29.067981 -17.13758 -43.656261
29.842386 -16.376645 -44.857548
29.282056 -15.962687 -44.697178
33.742354 -37.194007 -34.258625
33.197266 -38.137805 -33.329129
33.218653 -35.998737 -34.44883
34.270958 -38.377063 -34.049374
33.742354 -37.194007 -34.258625
34.292346 -36.237995 -35.169075
34.669295 -39.67198 -33.862881
34.270958 -38.377063 -34.049374
35.224484 -38.695808 -34.750725
34.669295 -39.67198 -33.862881
35.805675 -37.709612 -35.59568
35.224484 -38.695808 -34.750725
35.402142 -36.434855 -35.804779
36.411756 -36.70803 -36.401218
35.805675 -37.709612 -35.59568
31.248936 -17.401827 -44.937176
30.470954 -16.871097 -44.931732
31.502356 -19.122422 -43.96323
31.248936 -17.401827 -44.937176
30.948071 -20.197447 -43.066128
31.502356 -19.122422 -43.96323
32.561633 -21.529334 -42.878296
33.451296 -22.270891 -42.68945
32.007348 -22.60436 -41.981194
32.561633 -21.529334 -42.878296
32.261772 -24.362834 -40.965359
32.007348 -22.60436 -41.981194
32.485813 -26.230937 -39.911716
32.261772 -24.362834 -40.965359
33.038399 -25.1875 -40.80629
32.713322 -28.065983 -38.851921
32.485813 -26.230937 -39.911716
33.429363 -29.009631 -38.670349
32.880246 -30.020011 -37.769623
32.713322 -28.065983 -38.851921
35.428194 -27.949379 -40.07021
34.635437 -26.983448 -40.358654
35.285101 -25.971344 -41.134574
36.622916 -34.446928 -37.405251
36.055855 -33.275616 -37.699398
36.695436 -32.273885 -38.454915
36.411756 -36.70803 -36.401218
36.622916 -34.446928 -37.405251
38.834402 -29.271633 -40.459316
38.086826 -30.266197 -39.829575
38.229845 -28.099163 -40.811818
39.484713 -30.449345 -40.048435
38.834402 -29.271633 -40.459316
39.627731 -28.282311 -41.030678
40.014753 -31.689735 -39.694328
39.484713 -30.449345 -40.048435
40.871481 -30.693376 -40.218002
40.608193 -32.923086 -39.292534
40.014753 -31.689735 -39.694328
42.187614 -25.456899 -42.618351
41.309536 -26.362702 -42.101368
42.925737 -26.653238 -42.122051
42.187614 -25.456899 -42.618351
43.578497 -27.877485 -41.687523
42.660069 -28.773048 -41.206181
42.925737 -26.653238 -42.122051
44.540914 -26.966196 -42.155186
44.275245 -29.086006 -41.239315
43.578497 -27.877485 -41.687523
45.486576 -26.165156 -42.631073
44.540914 -26.966196 -42.155186
46.197361 -27.344411 -42.186977
45.486576 -26.165156 -42.631073
48.365665 -35.849646 -39.373333
49.084519 -36.876623 -39.141125
48.733292 -33.700441 -40.159859
48.365665 -35.849646 -39.373333
47.63512 -34.844357 -39.59457
47.303902 -31.603863 -40.670391
46.950215 -33.739845 -39.864204
46.25137 -32.648556 -40.153499
49.418278 -27.788509 -42.568493
50.142482 -28.747991 -42.347424
49.274017 -29.637209 -41.777848
49.418278 -27.788509 -42.568493
48.747913 -26.883646 -42.817429
58.614058 -37.081781 -39.893185
58.342203 -39.29896 -38.907367
58.614058 -37.081781 -39.893185
57.91064 -36.399433 -40.33012
53.281326 -39.146476 -38.927433
52.102129 -40.52706 -38.293582
54.368158 -37.786911 -39.622227
53.281326 -39.146476 -38.927433
53.608522 -36.96061 -39.858383
55.457792 -36.366993 -40.289563
54.368158 -37.786911 -39.622227
55.670107 -34.191215 -41.270569
55.457792 -36.366993 -40.289563
55.670107 -34.191215 -41.270569
54.869869 -33.464863 -41.497921
52.466934 -31.103412 -41.986442
53.25914 -31.933488 -41.834248
52.324661 -33.176836 -41.092846
52.466934 -31.103412 -41.986442
51.659103 -30.369306 -42.081817
3 34 6 35
3 36 8 37
3 38 37 6
3 36 37 38
3 39 10 40
3 41 40 9
3 39 40 41
3 42 12 43
3 45 44 12
3 0 46 48
3 46 14 47
3 46 47 48
3 0 16 14
3 49 19 50
3 51 21 52
3 53 52 19
3 51 52 53
3 54 22 55
3 1 56 57
3 1 58 59
3 1 60 61
3 2 23 7
3 2 24 23
3 62 25 63
3 64 26 65
3 66 65 25
3 64 65 66
3 67 27 68
3 69 68 26
3 67 68 69
3 3 28 11
3 3 70 72
3 72 71 28
3 70 71 72
3 3 73 74
3 75 29 76
3 77 76 13
3 75 76 77
3 78 30 79
3 80 79 29
3 78 79 80
3 81 31 82
3 83 32 84
3 85 84 15
3 83 84 85
3 87 86 32
3 89 88 17
3 5 33 18
3 5 90 92
3 92 91 33
3 90 91 92
3 5 93 94
3 4 95 97
3 97 96 20
3 95 96 97
3 4 98 99
3 6 100 101
3 6 102 104
3 102 1 103
3 102 103 104
3 6 7 1
3 8 7 6
3 8 2 7
3 9 105 106
3 10 107 109
3 109 108 9
3 107 108 109
3 10 110 111
3 112 11 113
3 12 114 116
3 114 11 115
3 114 115 116
3 12 3 11
3 12 13 3
3 117 13 118
3 119 118 12
3 117 118 119
3 121 120 13
3 14 122 123
3 14 124 125
3 14 126 128
3 126 15 127
3 126 127 128
3 16 15 14
3 16 129 131
3 131 130 15
3 129 130 131
3 132 17 133
3 134 17 135
3 137 136 17
3 138 18 139
3 19 140 142
3 140 18 141
3 140 141 142
3 19 5 18
3 19 20 5
3 21 20 19
3 21 4 20
3 22 143 144
3 22 145 147
3 145 0 146
3 145 146 147
3 148 9 149
3 150 9 151
3 153 152 9
3 7 154 156
3 156 155 1
3 154 155 156
3 23 157 159
3 159 158 7
3 157 158 159
3 23 160 161
3 23 162 163
3 24 164 166
3 166 165 23
3 164 165 166
3 24 167 168
3 169 10 170
3 171 10 172
3 174 173 10
3 25 175 176
3 25 177 178
3 25 179 180
3 26 181 183
3 183 182 25
3 181 182 183
3 26 184 185
3 26 186 188
3 186 8 187
3 186 187 188
3 27 8 26
3 27 2 8
3 11 189 191
3 189 27 190
3 189 190 191
3 28 27 11
3 28 2 27
3 28 24 2
3 192 24 193
3 194 193 28
3 192 193 194
3 196 195 24
3 13 197 199
3 199 198 3
3 197 198 199
3 29 200 202
3 202 201 13
3 200 201 202
3 29 203 204
3 29 205 207
3 205 22 206
3 205 206 207
3 30 22 29
3 30 0 22
3 208 30 209
3 210 30 211
3 212 0 213
3 214 213 30
3 212 213 214
3 215 16 216
3 217 216 0
3 215 216 217
3 218 16 219
3 221 220 16
3 222 21 223
3 31 224 226
3 224 21 225
3 224 225 226
3 31 4 21
3 15 227 229
3 227 31 228
3 227 228 229
3 32 31 15
3 32 4 31
3 32 230 232
3 232 231 4
3 230 231 232
3 234 233 32
3 17 235 236
3 238 237 17
3 18 239 240
3 33 241 243
3 243 242 18
3 241 242 243
3 33 244 245
3 33 246 247
3 249 248 33
3 20 250 252
3 252 251 5
3 250 251 252
3 254 253 20
