ply
format ascii 1.0
element vertex 267
property float x
property float y
property float z
element face 248
property list uchar int vertex_index
end_header
43.255672 60.191452 17.780977
41.869514 66.840141 6.497102
41.702991 61.308571 21.643847
44.220554 56.571342 23.120121
42.382607 57.76255 26.239641
40.493336 64.984352 16.528133
44.720909 61.353134 7.80862
44.720406 64.184715 2.237878
38.517868 71.498489 5.273478
39.413681 68.479042 10.984397
42.386566 63.672859 12.174652
41.460205 69.547951 0.870136
44.584251 66.566444 -3.174877
47.571175 62.837631 -6.557182
40.852142 61.492821 23.218401
42.158302 59.519547 23.985432
40.263897 63.26564 21.018003
44.051758 59.285179 15.655032
44.472519 57.545998 18.461472
44.539112 54.739525 25.651318
45.269714 53.973038 23.857384
41.937489 62.696487 17.135395
41.416176 64.481979 14.381429
42.779198 61.959511 14.998921
43.708401 60.979111 12.813101
39.966209 70.666252 3.042406
41.67717 68.25676 3.674017
46.293045 62.59259 0.3042
44.695259 65.439583 -0.488325
46.27409 63.750809 -2.357887
46.137569 64.773766 -4.971905
42.497871 60.875114 19.803398
43.763401 58.390656 20.494297
43.019272 59.047432 22.365921
43.408558 57.225021 24.826912
43.593399 55.401848 27.208395
38.883751 67.004135 15.955522
39.571781 65.135139 18.575466
41.110725 63.143288 19.157965
43.325466 64.162605 7.12748
43.236031 65.61544 4.317026
44.710564 62.817429 5.003382
44.907078 55.773071 21.203627
38.958893 70.057175 8.138597
40.607986 67.810783 8.733498
39.920174 66.778 13.790841
40.973419 66.196777 11.571612
42.090843 65.306976 9.334266
43.469826 62.611221 9.963493
44.800854 59.808296 10.647892
38.044209 72.803375 2.402258
39.592216 71.897942 0.209101
41.167694 70.708458 -1.909262
43.147884 66.955276 1.536165
43.006256 68.170631 -1.213892
42.762627 69.24942 -3.927542
44.344269 67.545631 -5.812847
45.848022 65.634361 -7.523504
47.17762 63.564949 -9.009121
42.356575 55.991905 28.470741
43.539146 53.576126 29.53075
40.59462 60.67239 24.805594
40.993031 60.682354 24.231026
40.453732 61.482857 23.792968
40.453732 61.482857 23.792968
40.141763 62.259891 22.962014
45.06176 52.526268 27.247986
45.006842 53.445747 26.028973
44.594031 53.820045 26.870331
41.773342 67.548451 5.08556
40.982636 68.78022 4.78028
41.078807 68.071911 6.191822
47.073874 62.315468 -1.898775
46.283568 63.1717 -1.026844
47.083351 61.736359 -0.567731
47.034239 62.841114 -3.192569
47.073874 62.315468 -1.898775
39.10907 65.017326 19.546492
38.707174 65.98899 18.314018
45.585053 53.534558 22.880384
45.691633 52.646534 24.198664
39.186287 69.268109 9.561497
38.308823 70.269925 9.27001
38.536216 69.480858 10.69291
44.890367 59.003727 12.076658
44.254627 60.393704 11.730497
44.344141 59.589135 13.159263
45.458034 58.39339 11.028105
44.890367 59.003727 12.076658
38.281039 72.150932 3.837868
37.281159 73.110325 3.526905
37.517988 72.457882 4.962516
48.165646 61.823139 -7.217071
47.968868 62.186798 -8.443041
47.374398 63.20129 -7.783152
42.228773 55.097202 29.586254
41.577305 56.275417 28.944574
42.820059 53.889313 30.116259
42.947861 54.784016 29.000746
42.228773 55.097202 29.586254
41.64611 59.695717 24.614542
41.505222 60.506184 23.601917
40.993031 60.682354 24.231026
41.758263 58.817218 25.741647
42.270454 58.641048 25.112536
41.64611 59.695717 24.614542
39.847641 63.146301 21.861815
39.455128 64.082577 20.767761
40.55802 62.37923 22.118202
39.847641 63.146301 21.861815
40.141763 62.259891 22.962014
45.438484 60.650928 6.788157
45.41132 59.924926 8.189309
44.653363 57.912152 16.005238
44.515819 58.742168 14.580228
44.863743 57.042561 17.408458
44.653363 57.912152 16.005238
44.262138 58.415588 17.058252
45.029075 56.191372 18.813626
45.420299 55.687935 17.760611
44.863743 57.042561 17.408458
45.372142 53.062504 25.132006
44.904413 54.356282 24.754351
45.006842 53.445747 26.028973
45.691633 52.646534 24.198664
45.372142 53.062504 25.132006
38.829578 68.640541 12.100451
38.536216 69.480858 10.69291
44.515819 58.742168 14.580228
44.344141 59.589135 13.159263
43.88008 60.132145 14.234067
40.127155 69.984966 4.464474
39.242038 71.08237 4.157942
39.402985 70.401084 5.580011
40.821689 69.461506 3.358212
40.127155 69.984966 4.464474
40.982636 68.78022 4.78028
46.965978 63.352593 -4.499578
46.20583 64.262287 -3.664896
47.034239 62.841114 -3.192569
47.682781 62.384525 -5.292216
46.854372 63.805698 -5.764544
46.965978 63.352593 -4.499578
48.461298 60.978592 -4.737075
48.349691 61.431697 -6.00204
47.682781 62.384525 -5.292216
44.121174 54.151207 27.648869
44.594031 53.820045 26.870331
44.066255 55.070687 26.429856
38.363159 66.923489 17.004046
37.980707 67.876839 15.684028
39.227766 66.069637 17.265494
38.363159 66.923489 17.004046
38.707174 65.98899 18.314018
39.917839 64.200389 19.796734
39.10907 65.017326 19.546492
39.455128 64.082577 20.767761
45.433312 61.383076 5.385537
44.715736 62.085281 6.406001
45.438484 60.650928 6.788157
45.473785 62.068444 4.007693
45.433312 61.383076 5.385537
45.478707 62.752086 2.624941
44.715485 63.501072 3.62063
45.473785 62.068444 4.007693
46.265026 61.956024 1.658101
45.506726 63.388652 1.271039
45.478707 62.752086 2.624941
47.06665 61.150841 0.751756
46.265026 61.956024 1.658101
47.083351 61.736359 -0.567731
47.06665 61.150841 0.751756
45.246355 55.304908 20.184703
45.029075 56.191372 18.813626
44.689798 56.659534 19.832549
45.403734 54.434574 21.553505
45.088396 54.873055 22.530506
45.585053 53.534558 22.880384
45.246355 55.304908 20.184703
45.403734 54.434574 21.553505
37.807249 71.760402 6.406671
37.517988 72.457882 4.962516
38.027761 71.039746 7.839231
38.308823 70.269925 9.27001
38.738381 70.777832 6.706038
37.807249 71.760402 6.406671
38.027761 71.039746 7.839231
39.623497 69.680428 7.01257
39.402985 70.401084 5.580011
38.738381 70.777832 6.706038
40.448043 68.557232 7.310021
39.623497 69.680428 7.01257
39.78344 68.933979 8.436048
41.23875 67.325462 7.6153
41.078807 68.071911 6.191822
40.448043 68.557232 7.310021
38.564613 67.903087 14.586013
37.980707 67.876839 15.684028
39.082825 67.79002 13.503673
38.564613 67.903087 14.586013
39.401962 66.891068 14.873182
39.666927 67.628521 12.387619
38.829578 68.640541 12.100451
39.082825 67.79002 13.503673
45.451292 59.152507 9.608945
45.41132 59.924926 8.189309
44.760881 60.580715 9.228256
45.451292 59.152507 9.608945
45.458034 58.39339 11.028105
36.962157 73.740825 2.076734
37.281159 73.110325 3.526905
37.768841 73.391827 0.969396
36.962157 73.740825 2.076734
38.542845 72.93911 -0.127182
37.768841 73.391827 0.969396
38.818213 72.350659 1.305679
39.356792 72.449185 -1.196878
38.542845 72.93911 -0.127182
40.144531 71.854443 -2.25606
39.356792 72.449185 -1.196878
40.379955 71.3032 -0.850081
40.961765 71.219425 -3.280606
40.144531 71.854443 -2.25606
41.759231 70.489906 -4.289746
40.961765 71.219425 -3.280606
41.96516 69.978939 -2.918402
42.56913 69.711277 -5.257782
41.759231 70.489906 -4.289746
43.359951 68.859383 -6.200435
42.56913 69.711277 -5.257782
43.553448 68.397526 -4.870195
44.141041 67.947086 -7.095903
43.359951 68.859383 -6.200435
44.892917 66.991451 -7.951232
44.141041 67.947086 -7.095903
45.096145 66.589996 -6.668176
45.610565 65.964962 -8.752947
44.892917 66.991451 -7.951232
46.275364 64.930256 -9.495756
45.610565 65.964962 -8.752947
46.512821 64.599655 -8.266312
46.88261 63.81755 -10.178068
45.980355 65.182857 -10.664703
46.275364 64.930256 -9.495756
47.696087 62.480144 -9.611242
46.88261 63.81755 -10.178068
47.696087 62.480144 -9.611242
47.968868 62.186798 -8.443041
48.165646 61.823139 -7.217071
48.349691 61.431697 -6.00204
41.728828 58.014125 26.762532
41.758263 58.817218 25.741647
41.715812 57.128803 27.878082
41.577305 56.275417 28.944574
42.369591 56.877228 27.355191
41.728828 58.014125 26.762532
41.715812 57.128803 27.878082
44.094048 53.238346 28.810047
44.121174 54.151207 27.648869
43.566272 54.488987 28.369573
43.391672 52.671837 30.668098
42.820059 53.889313 30.116259
44.025772 52.322602 29.985349
43.391672 52.671837 30.668098
43.878298 51.418312 31.122698
44.094048 53.238346 28.810047
44.025772 52.322602 29.985349
3 63 62 14
3 61 62 63
3 64 14 65
3 0 18 17
3 68 67 19
3 66 67 68
3 0 23 21
3 0 17 23
3 1 69 71
3 69 26 70
3 69 70 71
3 72 29 73
3 74 73 27
3 72 73 74
3 76 75 29
3 2 33 31
3 4 34 15
3 4 35 34
3 77 37 78
3 2 38 16
3 2 31 38
3 6 41 39
3 3 42 32
3 80 79 20
3 9 81 83
3 81 43 82
3 81 82 83
3 9 44 43
3 5 45 36
3 10 46 22
3 10 47 46
3 10 48 47
3 84 49 85
3 86 85 24
3 84 85 86
3 88 87 49
3 8 89 91
3 89 50 90
3 89 90 91
3 11 51 25
3 11 52 51
3 7 53 40
3 12 54 28
3 12 55 54
3 12 56 55
3 13 57 30
3 13 58 57
3 13 92 94
3 94 93 58
3 92 93 94
3 95 59 96
3 97 60 98
3 99 98 59
3 97 98 99
3 14 15 2
3 100 15 101
3 102 101 14
3 100 101 102
3 103 4 104
3 105 104 15
3 103 104 105
3 106 16 107
3 14 108 110
3 108 16 109
3 108 109 110
3 14 2 16
3 112 111 6
3 17 113 114
3 18 115 117
3 117 116 17
3 115 116 117
3 18 118 120
3 118 119 120
3 19 20 3
3 121 20 122
3 123 122 19
3 121 122 123
3 125 124 20
3 126 9 127
3 21 22 5
3 23 22 21
3 23 10 22
3 23 24 10
3 17 24 23
3 17 128 130
3 130 129 24
3 128 129 130
3 131 25 132
3 133 132 8
3 131 132 133
3 26 134 136
3 134 25 135
3 134 135 136
3 26 11 25
3 27 28 7
3 29 28 27
3 29 12 28
3 29 30 12
3 137 30 138
3 139 138 29
3 137 138 139
3 140 13 141
3 142 141 30
3 140 141 142
3 145 144 13
3 143 144 145
3 31 32 0
3 33 32 31
3 33 3 32
3 15 33 2
3 34 33 15
3 34 3 33
3 34 19 3
3 35 19 34
3 35 146 148
3 148 147 19
3 146 147 148
3 149 36 150
3 37 151 153
3 151 36 152
3 151 152 153
3 37 5 36
3 16 154 156
3 154 37 155
3 154 155 156
3 38 37 16
3 38 5 37
3 38 21 5
3 31 21 38
3 31 0 21
3 39 40 1
3 41 40 39
3 41 7 40
3 157 41 158
3 159 158 6
3 157 158 159
3 160 41 161
3 162 7 163
3 164 163 41
3 162 163 164
3 165 27 166
3 167 166 7
3 165 166 167
3 168 27 169
3 171 170 27
3 32 18 0
3 42 18 32
3 42 172 174
3 174 173 18
3 172 173 174
3 20 42 3
3 175 42 176
3 177 176 20
3 175 176 177
3 179 178 42
3 180 8 181
3 43 182 183
3 43 184 186
3 184 8 185
3 184 185 186
3 43 187 189
3 189 188 8
3 187 188 189
3 44 190 192
3 192 191 43
3 190 191 192
3 44 193 195
3 193 1 194
3 193 194 195
3 36 196 197
3 45 198 200
3 200 199 36
3 198 199 200
3 45 201 203
3 201 9 202
3 201 202 203
3 22 45 5
3 46 45 22
3 46 9 45
3 46 44 9
3 47 44 46
3 47 1 44
3 47 39 1
3 48 39 47
3 48 6 39
3 24 48 10
3 49 48 24
3 49 6 48
3 49 204 206
3 206 205 6
3 204 205 206
3 208 207 49
3 50 209 210
3 50 211 212
3 25 50 8
3 51 50 25
3 51 213 215
3 215 214 50
3 213 214 215
3 51 216 217
3 52 218 220
3 220 219 51
3 218 219 220
3 52 221 222
3 40 26 1
3 53 26 40
3 53 11 26
3 28 53 7
3 54 53 28
3 54 11 53
3 54 52 11
3 55 52 54
3 55 223 225
3 225 224 52
3 223 224 225
3 55 226 227
3 56 228 230
3 230 229 55
3 228 229 230
3 56 231 232
3 30 56 12
3 57 56 30
3 57 233 235
3 235 234 56
3 233 234 235
3 57 236 237
3 58 238 240
3 240 239 57
3 238 239 240
3 58 241 243
3 241 242 243
3 58 244 245
3 247 246 58
3 249 248 13
3 250 4 251
3 59 252 253
3 59 254 256
3 254 4 255
3 254 255 256
3 59 35 4
3 60 35 59
3 60 257 259
3 259 258 35
3 257 258 259
3 260 60 261
3 262 60 263
3 262 263 264
3 266 265 60
