ply
format ascii 1.0
element vertex 221
property float x
property float y
property float z
element face 187
property list uchar int vertex_index
end_header
6.655773 38.4352 -33.075203
5.171001 26.621136 -30.179827
-3.30654 35.183372 -24.032366
-0.623058 30.795406 -29.865072
5.803764 33.672356 -31.806059
-2.560465 43.371758 -27.925692
-2.309774 32.997036 -27.667566
4.307619 41.744358 -33.690582
-3.007002 24.313438 -24.119432
-1.179867 22.074032 -26.988348
1.463388 20.089172 -28.380007
6.233368 36.456371 -32.526421
-3.766729 31.001934 -22.0208
-3.694494 25.526493 -22.210989
-3.252947 29.825275 -24.085249
-1.572245 31.898277 -28.967123
-1.87068 27.569611 -27.344027
-0.910376 26.485435 -28.432474
0.032307 21.047626 -27.86989
0.267511 25.435139 -29.128588
1.663643 24.42902 -29.458555
0.550409 29.697701 -30.364332
3.489079 39.262829 -33.09684
2.972023 43.566246 -33.971123
5.441093 30.348251 -31.010496
-2.913393 39.319237 -26.027655
-2.871218 34.090191 -26.002825
-2.531061 38.281796 -27.88542
-1.988356 37.206242 -29.396574
-3.668577 36.286221 -21.820498
-3.412584 41.333309 -21.540731
-3.189695 40.331188 -23.891062
-2.784983 44.327553 -25.885309
5.592566 39.955971 -33.357826
-2.637571 28.682667 -25.879496
-2.183035 23.163105 -25.728605
3.254593 23.481022 -29.493666
3.491817 27.58696 -30.41308
3.837015 31.420506 -31.286291
4.30208 34.860321 -32.086075
4.886131 37.766064 -32.78933
7.09493 37.02686 -32.758049
6.883727 36.037445 -32.483658
6.44457 37.445785 -32.800812
6.00619 24.222134 -29.651629
5.084496 24.614071 -29.76041
2.325536 44.447872 -34.031052
2.544742 42.183809 -33.646977
6.439718 31.538155 -31.297701
6.258382 29.876103 -30.899919
5.622428 32.010303 -31.408278
-1.802938 39.226256 -30.186357
-2.087985 39.777651 -29.520293
-1.614943 36.646962 -29.952523
-1.802938 39.226256 -30.186357
-3.835119 36.846548 -20.621241
-3.947193 34.251478 -20.781744
-3.164831 43.285028 -22.56752
-3.209951 43.726965 -21.327997
-3.053387 42.783968 -23.742686
-3.301139 40.832248 -22.715896
-3.164831 43.285028 -22.56752
-2.851031 44.782151 -24.739809
-2.987339 42.32937 -24.888185
-3.053387 42.783968 -23.742686
-3.216234 22.122494 -23.285017
-3.55998 22.729021 -22.330796
-3.350748 24.919965 -23.165211
-2.769532 21.521103 -24.156292
-3.216234 22.122494 -23.285017
-1.322326 19.846773 -26.298345
-1.82391 20.391309 -25.668474
-1.681451 22.618569 -26.358477
-0.686381 19.338282 -26.824312
-1.322326 19.846773 -26.298345
1.380537 17.883747 -27.860948
0.664996 18.362974 -27.60589
0.747847 20.568399 -28.124949
2.231984 17.469476 -28.032457
1.380537 17.883747 -27.860948
2.282031 19.648077 -28.474087
2.231984 17.469476 -28.032457
2.594496 26.051068 -30.004559
2.459118 23.955021 -29.476111
1.799021 26.525067 -29.987003
2.713108 28.104036 -30.464265
3.373205 25.533991 -29.953373
2.594496 26.051068 -30.004559
3.331787 33.78978 -31.82387
3.074937 31.994847 -31.390733
3.564319 35.509687 -32.223762
4.069548 33.140414 -31.686183
3.331787 33.78978 -31.82387
6.765114 34.578287 -32.081042
6.550312 33.186279 -31.720861
6.018566 35.064363 -32.16624
6.765114 34.578287 -32.081042
6.883727 36.037445 -32.483658
-2.374039 42.860409 -28.784852
-2.378153 45.329842 -28.786133
-3.730612 28.264213 -22.115895
-3.993029 26.164952 -21.135002
-4.029146 28.902672 -21.039907
1.242404 29.159407 -30.439892
1.799021 26.525067 -29.987003
1.107026 27.063361 -29.911444
2.80327 40.032101 -33.209835
3.157819 37.710942 -32.729145
3.230551 41.414538 -33.533981
2.80327 40.032101 -33.209835
2.544742 42.183809 -33.646977
6.179492 28.050073 -30.476061
6.044446 26.186516 -30.060727
5.306047 28.484693 -30.595161
6.179492 28.050073 -30.476061
6.258382 29.876103 -30.899919
6.439718 31.538155 -31.297701
6.550312 33.186279 -31.720861
-2.359337 40.315428 -28.764716
-2.545763 40.826777 -27.905556
-2.374039 42.860409 -28.784852
-2.259708 37.744019 -28.640997
-2.359337 40.315428 -28.764716
-2.087985 39.777651 -29.520293
-1.406887 33.992979 -29.737797
-1.780301 34.55226 -29.181849
-1.614943 36.646962 -29.952523
-0.932294 33.441544 -30.186771
-1.097652 31.346842 -29.416097
-1.406887 33.992979 -29.737797
-0.445558 32.863149 -30.533628
-0.932294 33.441544 -30.186771
6.00619 24.222134 -29.651629
6.044446 26.186516 -30.060727
-3.996269 31.609335 -20.881895
-4.029146 28.902672 -21.039907
-3.717653 33.644077 -21.920649
-3.996269 31.609335 -20.881895
-3.947193 34.251478 -20.781744
-3.517374 41.835434 -20.283892
-3.209951 43.726965 -21.327997
-3.707123 39.370092 -20.481358
-3.517374 41.835434 -20.283892
-3.54058 38.809765 -21.680615
-3.835119 36.846548 -20.621241
-3.707123 39.370092 -20.481358
-2.64501 46.711265 -25.702854
-2.851031 44.782151 -24.739809
-2.602866 46.282383 -26.807892
-2.64501 46.711265 -25.702854
-2.490607 45.804485 -27.828083
-2.672724 43.849655 -26.905501
-2.602866 46.282383 -26.807892
-2.378153 45.329842 -28.786133
-2.490607 45.804485 -27.828083
7.166393 38.448531 -33.142948
6.592291 39.79929 -33.402504
2.84092 45.673374 -34.302956
2.325536 44.447872 -34.031052
3.491341 44.625057 -34.209637
2.84092 45.673374 -34.302956
4.15914 43.714113 -34.069367
3.639821 42.655302 -33.830852
3.491341 44.625057 -34.209637
4.80693 42.61047 -33.908703
4.15914 43.714113 -34.069367
5.449404 41.716276 -33.742325
4.950093 40.850164 -33.524204
4.80693 42.61047 -33.908703
6.060688 40.559675 -33.543816
5.449404 41.716276 -33.742325
6.592291 39.79929 -33.402504
6.124169 39.195585 -33.216515
6.060688 40.559675 -33.543816
-3.939913 23.377386 -21.321095
-3.993029 26.164952 -21.135002
-3.939913 23.377386 -21.321095
-3.55998 22.729021 -22.330796
-2.357548 20.945936 -24.960878
-2.769532 21.521103 -24.156292
-2.595019 23.738272 -24.924019
-2.357548 20.945936 -24.960878
-1.82391 20.391309 -25.668474
-0.080294 18.825079 -27.265083
-0.686381 19.338282 -26.824312
-0.57378 21.560829 -27.429119
-0.080294 18.825079 -27.265083
0.664996 18.362974 -27.60589
2.382159 21.818001 -29.013361
2.282031 19.648077 -28.474087
1.563515 22.259096 -28.919281
3.177633 21.344002 -29.030917
2.382159 21.818001 -29.013361
2.459118 23.955021 -29.476111
4.082727 20.945814 -29.008486
3.177633 21.344002 -29.030917
4.126291 23.044014 -29.41733
4.082727 20.945814 -29.008486
4.244903 25.096983 -29.877037
4.126291 23.044014 -29.41733
3.373205 25.533991 -29.953373
4.331409 27.104048 -30.296453
5.084496 24.614071 -29.76041
4.244903 25.096983 -29.877037
0.141175 32.314297 -30.783259
-0.036324 30.246553 -30.114702
-0.445558 32.863149 -30.533628
0.738885 31.724001 -30.934891
0.141175 32.314297 -30.783259
1.242404 29.159407 -30.439892
0.738885 31.724001 -30.934891
2.902338 30.078074 -30.954128
2.713108 28.104036 -30.464265
3.664416 29.503733 -30.849685
2.902338 30.078074 -30.954128
3.074937 31.994847 -31.390733
3.89558 37.061575 -32.591458
3.564319 35.509687 -32.223762
3.157819 37.710942 -32.729145
7.09493 37.02686 -32.758049
7.166393 38.448531 -33.142948
3 0 41 43
3 43 42 11
3 41 42 43
3 1 44 45
3 2 14 12
3 3 17 15
3 3 19 17
3 3 21 19
3 46 23 47
3 4 48 50
3 50 49 24
3 48 49 50
3 5 27 25
3 51 28 52
3 54 53 28
3 55 29 56
3 57 30 58
3 59 31 60
3 61 60 30
3 59 60 61
3 62 32 63
3 64 63 31
3 62 63 64
3 8 65 67
3 67 66 13
3 65 66 67
3 8 68 69
3 6 34 26
3 9 35 16
3 9 70 72
3 72 71 35
3 70 71 72
3 9 73 74
3 10 75 77
3 77 76 18
3 75 76 77
3 10 78 79
3 10 80 81
3 82 36 83
3 84 83 20
3 82 83 84
3 85 37 86
3 87 86 36
3 85 86 87
3 88 38 89
3 90 39 91
3 92 91 38
3 90 91 92
3 7 40 22
3 7 33 40
3 11 93 95
3 95 94 4
3 93 94 95
3 97 96 11
3 99 98 5
3 12 100 102
3 100 13 101
3 100 101 102
3 14 13 12
3 14 8 13
3 15 16 6
3 17 16 15
3 17 9 16
3 17 18 9
3 19 18 17
3 19 10 18
3 19 20 10
3 21 20 19
3 21 103 105
3 105 104 20
3 103 104 105
3 106 22 107
3 23 108 110
3 108 22 109
3 108 109 110
3 23 7 22
3 24 111 113
3 113 112 1
3 111 112 113
3 115 114 24
3 117 116 4
3 25 26 2
3 27 26 25
3 27 6 26
3 118 27 119
3 120 119 5
3 118 119 120
3 28 121 123
3 121 27 122
3 121 122 123
3 28 6 27
3 28 15 6
3 124 15 125
3 126 125 28
3 124 125 126
3 127 3 128
3 129 128 15
3 127 128 129
3 131 130 3
3 133 132 1
3 134 12 135
3 29 136 138
3 136 12 137
3 136 137 138
3 29 2 12
3 30 139 140
3 30 141 142
3 30 143 145
3 143 29 144
3 143 144 145
3 31 29 30
3 31 2 29
3 31 25 2
3 32 25 31
3 32 5 25
3 146 32 147
3 148 32 149
3 150 5 151
3 152 151 32
3 150 151 152
3 154 153 5
3 156 155 0
3 157 23 158
3 159 23 160
3 161 7 162
3 163 162 23
3 161 162 163
3 164 7 165
3 166 33 167
3 168 167 7
3 166 167 168
3 169 33 170
3 171 0 172
3 173 172 33
3 171 172 173
3 13 174 175
3 177 176 13
3 26 14 2
3 34 14 26
3 34 8 14
3 16 34 6
3 35 34 16
3 35 8 34
3 35 178 180
3 180 179 8
3 178 179 180
3 182 181 35
3 18 183 185
3 185 184 9
3 183 184 185
3 187 186 18
3 20 188 190
3 190 189 10
3 188 189 190
3 36 191 193
3 193 192 20
3 191 192 193
3 36 194 195
3 36 196 197
3 37 198 200
3 200 199 36
3 198 199 200
3 37 201 203
3 201 1 202
3 201 202 203
3 204 21 205
3 206 205 3
3 204 205 206
3 207 21 208
3 210 209 21
3 211 37 212
3 38 213 215
3 213 37 214
3 213 214 215
3 38 1 37
3 38 24 1
3 39 24 38
3 39 4 24
3 22 216 218
3 216 39 217
3 216 217 218
3 40 39 22
3 40 4 39
3 40 11 4
3 33 11 40
3 33 0 11
3 220 219 0
