ply
format ascii 1.0
element vertex 178
property float x
property float y
property float z
element face 121
property list uchar int vertex_index
end_header
-52.978157 14.701408 -40.266769
-61.608974 0.122282 -35.935596
-56.024059 11.427406 -34.122818
-28.685881 35.745564 -27.770084
-27.117001 36.023628 -28.772999
-60.926624 1.081751 -38.646858
-58.480156 8.006933 -30.446926
-33.966949 44.87933 -24.624409
-52.990067 14.312347 -37.705864
-54.46138 12.482849 -34.672409
-54.637177 13.208069 -37.214088
-56.187256 11.648243 -36.675358
-62.234112 -2.080227 -37.421791
-51.275955 14.94836 -38.117126
-51.241882 15.82996 -40.690434
-59.859676 5.820797 -32.406635
-57.148098 9.403891 -31.036713
-57.453259 9.938442 -33.559509
-49.237385 16.98975 -43.567024
-26.935139 37.491615 -28.757141
-27.85463 37.276808 -28.327547
-58.255253 7.59407 -29.218387
-58.889386 6.94989 -28.907578
-34.226789 46.197342 -24.552489
-34.893743 45.7557 -24.037374
-33.19856 45.26569 -25.111025
-34.226789 46.197342 -24.552489
-53.819191 13.898607 -40.011826
-54.648701 13.151937 -38.485485
-53.807667 13.954739 -38.740428
-28.779247 34.369517 -27.629081
-28.102364 34.451968 -28.194887
-61.843229 -0.448828 -34.551237
-61.610935 0.463727 -33.599968
-61.37668 1.034837 -34.984327
-62.137686 -1.442251 -35.384902
-62.371941 -2.013361 -34.000543
-61.843229 -0.448828 -34.551237
-61.921543 -0.978972 -36.678693
-62.450254 -2.543506 -36.128
-62.137686 -1.442251 -35.384902
-60.749525 0.236113 -40.624695
-61.227711 -0.135601 -39.301403
-60.448438 1.453466 -39.97015
-50.379175 15.704631 -39.554582
-50.402546 15.04832 -38.254129
-49.505766 15.804592 -39.691586
-50.362139 16.145432 -40.841237
-51.258919 15.38916 -39.40378
-50.379175 15.704631 -39.554582
-59.296316 6.936101 -32.698715
-59.749359 6.023098 -31.142471
-59.391042 6.589531 -33.943983
-59.296316 6.936101 -32.698715
-55.839247 10.909011 -32.881331
-55.057907 11.436732 -33.156126
-55.242719 11.955127 -34.397614
-56.586078 10.415648 -32.579766
-56.401266 9.897253 -31.338278
-55.839247 10.909011 -32.881331
-56.940794 10.371744 -37.637808
-56.903284 10.662859 -36.387878
-56.224766 11.357128 -37.925288
-49.070549 16.827328 -44.804241
-48.128031 17.371516 -44.918755
-50.146868 16.427616 -43.397831
-49.070549 16.827328 -44.804241
-28.639069 37.137776 -27.82609
-29.381884 36.947304 -27.282972
-27.901441 35.884596 -28.271541
-28.639069 37.137776 -27.82609
-27.85463 37.276808 -28.327547
-27.317924 34.591 -28.696344
-28.102364 34.451968 -28.194887
-27.901441 35.884596 -28.271541
-61.024466 1.634215 -36.424442
-61.37668 1.034837 -34.984327
-60.792171 2.546771 -35.473173
-60.68329 2.11395 -37.780073
-61.267799 0.602016 -37.291227
-61.024466 1.634215 -36.424442
-60.216272 2.611578 -39.189541
-60.68329 2.11395 -37.780073
-60.448438 1.453466 -39.97015
-60.216272 2.611578 -39.189541
-59.059599 7.116166 -30.162616
-58.889386 6.94989 -28.907578
-58.606556 8.029169 -31.71886
-59.059599 7.116166 -30.162616
-34.453605 44.534887 -23.990588
-34.893743 45.7557 -24.037374
-33.624507 43.623588 -24.596451
-34.453605 44.534887 -23.990588
-33.029136 43.915735 -25.197185
-33.624507 43.623588 -24.596451
-33.029136 43.915735 -25.197185
-33.19856 45.26569 -25.111025
-53.725724 13.397598 -36.189137
-53.627571 12.792112 -34.924303
-52.891914 13.706862 -36.44103
-55.42374 12.372025 -38.21612
-55.412216 12.428156 -36.944723
-54.648701 13.151937 -38.485485
-56.224766 11.357128 -37.925288
-55.42374 12.372025 -38.21612
-29.307997 35.619168 -27.142295
-29.381884 36.947304 -27.282972
-29.307997 35.619168 -27.142295
-28.779247 34.369517 -27.629081
-62.827099 -3.696741 -36.746046
-63.043242 -4.160019 -35.452255
-62.450254 -2.543506 -36.128
-62.596834 -3.340715 -37.95122
-62.827099 -3.696741 -36.746046
-61.881455 -1.71659 -38.688869
-61.580368 -0.499238 -38.034324
-61.227711 -0.135601 -39.301403
-62.244177 -2.977078 -39.218298
-62.596834 -3.340715 -37.95122
-61.881455 -1.71659 -38.688869
-51.166184 14.134767 -36.847223
-50.402546 15.04832 -38.254129
-52.034858 14.024868 -36.646662
-51.166184 14.134767 -36.847223
-52.133011 14.630354 -37.911495
-52.891914 13.706862 -36.44103
-52.034858 14.024868 -36.646662
-60.243509 4.96321 -30.863823
-59.749359 6.023098 -31.142471
-60.350008 4.565255 -32.096533
-60.243509 4.96321 -30.863823
-59.977552 5.290131 -33.602947
-60.350008 4.565255 -32.096533
-59.977552 5.290131 -33.602947
-59.391042 6.589531 -33.943983
-26.18927 36.178684 -29.165018
-26.935139 37.491615 -28.757141
-26.509356 34.676706 -29.13871
-26.18927 36.178684 -29.165018
-27.317924 34.591 -28.696344
-26.509356 34.676706 -29.13871
-54.243443 11.72833 -33.448355
-53.627571 12.792112 -34.924303
-54.243443 11.72833 -33.448355
-55.057907 11.436732 -33.156126
-56.86495 8.744231 -29.841539
-56.401266 9.897253 -31.338278
-57.589224 8.292549 -29.513281
-56.86495 8.744231 -29.841539
-57.814127 8.705412 -30.741819
-58.255253 7.59407 -29.218387
-57.589224 8.292549 -29.513281
-58.093108 8.994924 -33.275152
-58.606556 8.029169 -31.71886
-57.966707 8.972687 -32.003217
-57.536286 9.807958 -34.829954
-56.820257 10.793343 -35.117434
-56.903284 10.662859 -36.387878
-58.093108 8.994924 -33.275152
-57.536286 9.807958 -34.829954
-48.340105 17.289534 -43.651682
-47.230751 17.671299 -45.003412
-48.128031 17.371516 -44.918755
-49.35989 16.725327 -42.279532
-48.340105 17.289534 -43.651682
-50.239633 16.409855 -42.128729
-50.362139 16.145432 -40.841237
-49.35989 16.725327 -42.279532
-51.149116 15.847721 -41.959536
-50.239633 16.409855 -42.128729
-50.146868 16.427616 -43.397831
-52.017254 15.283445 -41.747704
-52.110019 15.265684 -40.478601
-51.149116 15.847721 -41.959536
-52.923094 14.47205 -41.513222
-52.017254 15.283445 -41.747704
-53.819191 13.898607 -40.011826
-52.923094 14.47205 -41.513222
3 19 4 20
3 21 6 22
3 23 7 24
3 26 25 7
3 0 10 8
3 0 27 29
3 29 28 10
3 27 28 29
3 31 30 3
3 1 32 34
3 32 33 34
3 1 35 37
3 35 36 37
3 1 38 40
3 38 12 39
3 38 39 40
3 43 42 5
3 41 42 43
3 44 13 45
3 44 45 46
3 47 14 48
3 49 48 13
3 47 48 49
3 50 15 51
3 53 52 15
3 2 54 56
3 56 55 9
3 54 55 56
3 2 57 59
3 57 16 58
3 57 58 59
3 2 17 16
3 62 61 11
3 60 61 62
3 63 18 64
3 66 65 18
3 67 3 68
3 4 69 71
3 69 3 70
3 69 70 71
3 4 72 74
3 74 73 3
3 72 73 74
3 75 1 76
3 75 76 77
3 78 5 79
3 80 79 1
3 78 79 80
3 81 5 82
3 84 83 5
3 6 85 86
3 6 87 88
3 7 89 90
3 7 91 92
3 7 93 94
3 96 95 7
3 8 97 99
3 97 9 98
3 97 98 99
3 10 9 8
3 10 2 9
3 10 11 2
3 100 11 101
3 102 101 10
3 100 101 102
3 104 103 11
3 3 105 106
3 108 107 3
3 12 109 111
3 109 110 111
3 12 112 113
3 5 12 1
3 114 12 115
3 116 115 5
3 114 115 116
3 119 118 12
3 117 118 119
3 13 120 121
3 13 122 123
3 13 124 126
3 124 8 125
3 124 125 126
3 14 8 13
3 14 0 8
3 15 127 128
3 15 129 130
3 15 131 132
3 134 133 15
3 135 4 136
3 137 4 138
3 140 139 4
3 9 141 142
3 144 143 9
3 16 145 146
3 16 147 148
3 16 149 151
3 149 6 150
3 149 150 151
3 17 6 16
3 17 152 154
3 154 153 6
3 152 153 154
3 11 17 2
3 155 17 156
3 157 156 11
3 155 156 157
3 159 158 17
3 18 160 162
3 160 161 162
3 18 163 164
3 18 165 167
3 165 14 166
3 165 166 167
3 168 14 169
3 170 169 18
3 168 169 170
3 171 0 172
3 173 172 14
3 171 172 173
3 174 0 175
3 177 176 0
