ply
format ascii 1.0
element vertex 197
property float x
property float y
property float z
element face 178
property list uchar int vertex_index
end_header
-37.25843 -101.365616 29.58073
-41.905926 -101.659866 21.040045
-32.068024 -94.31073 37.324112
-37.606953 -97.715546 36.450439
-35.003574 -94.653625 40.251244
-34.612648 -98.629761 33.536285
-40.394203 -95.359695 38.278084
-40.237991 -98.930817 32.045212
-39.769516 -102.254395 25.416622
-42.584373 -98.549118 27.245358
-44.436371 -97.229477 22.218061
-37.473003 -99.571671 33.059036
-36.131634 -98.353088 35.083794
-35.934193 -100.228149 31.583273
-34.319878 -100.549667 30.001638
-36.877052 -103.138229 26.128387
-45.939575 -94.07486 19.671549
-40.312824 -97.18959 35.252674
-41.537983 -97.25116 32.826096
-41.465897 -98.90303 29.682407
-42.668053 -96.96489 30.296089
-44.541882 -95.70845 25.042904
-45.287769 -94.907791 22.362566
-45.19136 -96.427826 19.657553
-33.539322 -94.61972 38.818901
-40.891636 -102.101547 23.253872
-40.259579 -103.688019 20.078257
-37.745045 -95.759659 39.633163
-36.476318 -94.346039 41.504333
-36.286861 -96.40538 38.437176
-34.813934 -96.68071 37.004272
-33.319748 -96.625854 35.445866
-42.821594 -101.025009 18.781101
-39.034538 -96.706787 37.536316
-38.937145 -98.552643 34.310501
-38.80442 -100.315948 30.940235
-38.549294 -102.030792 27.525642
-40.084549 -100.609604 28.740517
-41.274937 -100.512634 26.472202
-42.350601 -100.109131 24.145823
-43.672703 -96.42038 27.69384
-43.573944 -97.961319 24.752228
-43.306198 -99.492966 21.771116
-44.154846 -98.752838 19.358707
-38.091026 -103.730988 24.156006
-36.433589 -101.720978 28.826088
-35.771471 -101.152244 29.82736
-36.596311 -100.796883 30.582001
-37.067741 -102.251923 27.854558
-36.242901 -102.607284 27.099917
-36.433589 -101.720978 28.826088
-46.189411 -92.893394 19.54861
-45.908058 -93.316162 20.945468
-42.106928 -96.295257 33.038525
-41.555868 -96.392914 34.332313
-42.671963 -96.152122 31.773522
-42.103018 -97.108025 31.561093
-42.106928 -96.295257 33.038525
-45.582155 -93.732628 22.290976
-45.269458 -94.150856 23.692315
-45.908058 -93.316162 20.945468
-45.613672 -94.491326 21.017057
-45.582155 -93.732628 22.290976
-32.190684 -93.29168 38.932648
-32.926333 -93.446174 39.680042
-32.803673 -94.465225 38.071506
-31.463852 -93.058281 38.258272
-32.190684 -93.29168 38.932648
-31.31757 -94.072777 36.611881
-31.463852 -93.058281 38.258272
-33.826179 -98.617424 32.736669
-33.179729 -97.615471 33.691459
-33.966198 -97.627808 34.491076
-33.470158 -100.580619 29.22861
-34.08672 -101.520065 28.27288
-42.456136 -101.79573 17.295749
-43.240844 -100.655159 17.633847
-40.476303 -94.391182 39.656216
-41.025062 -94.547264 38.463989
-39.785827 -95.05513 39.395588
-40.476303 -94.391182 39.656216
-39.714371 -96.033241 37.9072
-39.105995 -95.728676 39.024704
-39.785827 -95.05513 39.395588
-44.09762 -95.301338 27.75239
-43.668962 -95.639374 29.128422
-45.055672 -97.193543 18.289463
-45.529411 -96.016754 18.372305
-35.124382 -93.581612 41.690295
-35.860754 -93.427819 42.316839
-35.739946 -94.499832 40.877789
-34.964314 -101.313004 29.036542
-35.127036 -100.388908 30.792455
-35.771471 -101.152244 29.82736
-34.08672 -101.520065 28.27288
-34.964314 -101.313004 29.036542
-35.975967 -103.540115 25.398328
-36.242901 -102.607284 27.099917
-36.566141 -104.032264 24.462861
-35.975967 -103.540115 25.398328
-46.236644 -93.656739 18.330824
-45.903519 -94.840271 18.379303
-46.236644 -93.656739 18.330824
-46.189411 -92.893394 19.54861
-40.983978 -95.447181 37.058307
-41.025062 -94.547264 38.463989
-40.943289 -96.362129 35.545603
-40.353513 -96.274642 36.765379
-40.983978 -95.447181 37.058307
-40.925404 -97.220375 34.039385
-40.943289 -96.362129 35.545603
-41.555868 -96.392914 34.332313
-44.896515 -94.551186 25.032484
-44.53221 -94.945374 26.426922
-44.914825 -95.308121 23.702735
-44.896515 -94.551186 25.032484
-45.269458 -94.150856 23.692315
-45.903519 -94.840271 18.379303
-45.529411 -96.016754 18.372305
-45.565467 -95.251343 19.664551
-33.653602 -93.577766 40.355303
-34.385728 -93.594718 41.071475
-34.271448 -94.636673 39.535072
-33.653602 -93.577766 40.355303
-32.926333 -93.446174 39.680042
-40.057176 -102.996269 22.697737
-39.496116 -103.072693 23.779112
-40.330576 -102.177971 24.335247
-39.741148 -103.789505 21.109929
-40.057176 -102.996269 22.697737
-40.575608 -102.894783 21.666065
-39.328081 -104.614045 19.524189
-39.741148 -103.789505 21.109929
-37.110681 -95.052849 40.568748
-37.216871 -94.011444 41.995666
-37.851235 -94.718254 41.060082
-32.553128 -96.477119 34.671149
-31.927267 -95.319557 35.610271
-32.693886 -95.468292 36.384989
-32.553128 -96.477119 34.671149
-33.179729 -97.615471 33.691459
-33.679794 -99.577377 30.969345
-33.826179 -98.617424 32.736669
-34.466263 -99.589714 31.768961
-33.679794 -99.577377 30.969345
-33.470158 -100.580619 29.22861
-42.014977 -102.119377 18.373451
-41.557142 -102.436805 19.502923
-42.36376 -101.342437 19.910573
-42.014977 -102.119377 18.373451
-42.456136 -101.79573 17.295749
-38.461248 -95.255112 40.073127
-37.851235 -94.718254 41.060082
-38.389792 -96.233223 38.584739
-38.461248 -95.255112 40.073127
-39.105995 -95.728676 39.024704
-43.166638 -95.911629 30.429547
-42.671963 -96.152122 31.773522
-43.170378 -96.692635 28.994965
-43.166638 -95.911629 30.429547
-43.668962 -95.639374 29.128422
-44.107292 -96.064415 26.368372
-44.09762 -95.301338 27.75239
-44.53221 -94.945374 26.426922
-43.907471 -99.519073 17.92265
-43.240844 -100.655159 17.633847
-43.48822 -99.888924 19.069904
-44.537414 -98.356048 18.14004
-44.673103 -97.590332 19.50813
-45.055672 -97.193543 18.289463
-43.907471 -99.519073 17.92265
-44.537414 -98.356048 18.14004
-36.615634 -93.248077 42.831062
-37.216871 -94.011444 41.995666
-36.615634 -93.248077 42.831062
-35.860754 -93.427819 42.316839
-35.124382 -93.581612 41.690295
-34.385728 -93.594718 41.071475
-31.31757 -94.072777 36.611881
-31.927267 -95.319557 35.610271
-37.173128 -104.328644 23.476671
-36.566141 -104.032264 24.462861
-37.484039 -103.434608 25.142197
-38.656872 -103.81099 23.148804
-38.930271 -102.992692 24.786314
-39.496116 -103.072693 23.779112
-37.729219 -104.58802 22.530155
-38.656872 -103.81099 23.148804
-37.173128 -104.328644 23.476671
-37.729219 -104.58802 22.530155
-40.733969 -103.450882 19.022029
-41.082752 -102.673942 20.559151
-41.557142 -102.436805 19.502923
-39.803273 -104.487412 18.532206
-40.733969 -103.450882 19.022029
-39.328081 -104.614045 19.524189
-39.803273 -104.487412 18.532206
3 0 13 11
3 0 45 47
3 47 46 13
3 45 46 47
3 0 48 50
3 48 15 49
3 48 49 50
3 52 51 16
3 53 18 54
3 55 20 56
3 57 56 18
3 55 56 57
3 58 22 59
3 60 16 61
3 62 61 22
3 60 61 62
3 2 63 65
3 65 64 24
3 63 64 65
3 2 66 67
3 2 68 69
3 1 26 25
3 3 29 27
3 5 30 12
3 5 31 30
3 5 70 72
3 72 71 31
3 70 71 72
3 74 73 14
3 76 75 32
3 6 77 78
3 6 79 80
3 6 81 83
3 81 33 82
3 81 82 83
3 7 34 17
3 7 35 34
3 7 37 35
3 9 38 19
3 9 39 38
3 84 40 85
3 10 41 21
3 10 42 41
3 10 43 42
3 87 86 23
3 4 88 90
3 90 89 28
3 88 89 90
3 8 44 36
3 11 12 3
3 13 12 11
3 13 5 12
3 13 14 5
3 91 14 92
3 93 92 13
3 91 92 93
3 95 94 14
3 15 96 97
3 15 98 99
3 16 100 101
3 103 102 16
3 104 6 105
3 106 17 107
3 108 107 6
3 106 107 108
3 18 109 111
3 109 17 110
3 109 110 111
3 18 7 17
3 18 19 7
3 20 19 18
3 20 9 19
3 112 21 113
3 22 114 116
3 114 21 115
3 114 115 116
3 22 10 21
3 22 23 10
3 16 23 22
3 16 117 119
3 119 118 23
3 117 118 119
3 24 120 122
3 122 121 4
3 120 121 122
3 124 123 24
3 25 125 127
3 127 126 8
3 125 126 127
3 26 128 130
3 130 129 25
3 128 129 130
3 26 131 132
3 27 133 135
3 133 28 134
3 133 134 135
3 29 28 27
3 29 4 28
3 12 29 3
3 30 29 12
3 30 4 29
3 30 24 4
3 31 24 30
3 31 2 24
3 31 136 138
3 138 137 2
3 136 137 138
3 140 139 31
3 14 141 143
3 143 142 5
3 141 142 143
3 145 144 14
3 32 146 148
3 148 147 1
3 146 147 148
3 150 149 32
3 151 27 152
3 33 153 155
3 153 27 154
3 153 154 155
3 33 3 27
3 17 33 6
3 34 33 17
3 34 3 33
3 34 11 3
3 35 11 34
3 35 0 11
3 35 36 0
3 37 36 35
3 37 8 36
3 19 37 7
3 38 37 19
3 38 8 37
3 38 25 8
3 39 25 38
3 39 1 25
3 156 20 157
3 40 158 160
3 158 20 159
3 158 159 160
3 40 9 20
3 21 161 163
3 161 40 162
3 161 162 163
3 41 40 21
3 41 9 40
3 41 39 9
3 42 39 41
3 42 1 39
3 42 32 1
3 43 32 42
3 43 164 166
3 166 165 32
3 164 165 166
3 23 43 10
3 167 43 168
3 169 168 23
3 167 168 169
3 171 170 43
3 28 172 173
3 175 174 28
3 177 176 4
3 179 178 2
3 36 15 0
3 44 15 36
3 44 180 182
3 182 181 15
3 180 181 182
3 183 44 184
3 185 184 8
3 183 184 185
3 186 44 187
3 189 188 44
3 190 26 191
3 192 191 1
3 190 191 192
3 193 26 194
3 196 195 26
