ply
format ascii 1.0
element vertex 324
property float x
property float y
property float z
element face 272
property list uchar int vertex_index
end_header
46.346249 -66.273041 50.361885
54.75531 -52.193531 48.158661
40.857025 -72.651733 52.485313
41.255127 -82.547531 50.681282
50.562378 -59.162273 48.217094
37.769234 -75.163292 53.498634
41.379318 -77.634628 52.374542
38.040722 -79.958382 52.510063
37.934502 -84.562477 49.718193
44.157181 -61.324924 49.277763
46.150311 -57.781826 48.247894
48.552753 -62.747417 49.219048
57.179321 -48.807957 49.088737
42.041367 -64.681976 50.499405
39.667984 -67.723099 51.84417
48.228569 -54.203594 47.750244
52.57843 -55.628113 47.778496
48.404037 -66.956314 50.23365
37.959953 -77.576263 53.193977
45.321156 -63.805466 49.820595
46.378548 -62.058411 49.245323
47.486954 -64.52523 49.793236
49.545349 -65.167648 49.657608
40.888451 -66.249313 51.14991
38.904766 -65.323151 51.535431
42.35347 -71.18605 51.962769
44.356075 -72.099564 51.744446
42.811523 -73.678741 52.181778
41.384079 -80.107956 51.762901
43.103123 -78.655869 51.69059
41.036125 -84.934464 49.101685
48.394073 -58.489929 48.246361
47.167221 -55.987797 47.907036
49.405876 -56.702778 47.926865
50.450779 -54.933609 47.797604
39.318802 -73.988258 53.003174
41.208317 -75.14418 52.582756
39.580677 -76.457092 52.928848
39.697182 -78.912796 52.512817
39.683163 -81.337524 51.661629
39.568161 -83.713768 50.318275
38.024265 -82.291962 51.364861
45.155876 -59.567429 48.722015
47.393654 -60.280792 48.704803
49.568863 -60.954708 48.675804
44.19717 -65.505707 50.402771
45.112392 -67.976288 50.90995
42.990921 -67.144043 50.985703
41.699501 -68.705307 51.579323
40.333717 -70.172432 52.19873
38.392338 -69.088821 52.600174
38.915291 -71.525131 52.852501
37.470718 -72.740273 53.535049
43.12664 -63.035442 49.876274
55.587341 -54.539768 47.636177
43.05806 -76.172371 52.123169
51.54512 -53.191395 47.888283
53.639587 -53.899273 47.869019
57.800087 -51.131657 48.214409
59.000992 -49.419754 48.584511
46.754721 -67.495484 50.568398
47.783615 -67.83712 50.50428
47.375143 -66.614677 50.297767
55.344879 -51.347262 48.376175
54.338688 -50.990481 48.416016
38.499935 -64.158411 51.453175
39.439804 -64.578255 51.161541
42.117113 -81.831752 50.748104
42.181589 -80.611965 51.288913
41.319603 -81.327743 51.222092
41.994129 -83.041649 50.071163
42.117113 -81.831752 50.748104
41.145626 -83.740998 49.891484
41.884628 -84.235116 49.281365
41.994129 -83.041649 50.071163
51.060414 -58.272932 48.059486
50.482163 -57.043185 47.914372
49.984127 -57.932525 48.071979
51.578789 -59.467723 48.129509
51.060414 -58.272932 48.059486
44.656529 -60.446176 48.999889
44.044544 -59.206688 48.78904
43.545197 -60.085436 49.066913
49.580069 -63.056463 49.144291
50.088124 -62.160108 48.872669
49.060808 -61.851062 48.947426
50.489519 -65.439605 49.476639
49.924087 -66.350433 49.774113
56.870941 -47.615635 49.450798
56.19553 -48.457774 49.167587
57.830906 -47.954489 49.315083
56.870941 -47.615635 49.450798
37.736944 -69.710159 53.012783
37.511256 -68.527191 52.94262
37.998421 -70.928314 53.138947
38.653815 -70.306976 52.726337
37.736944 -69.710159 53.012783
37.276134 -71.535885 53.480221
38.193005 -72.132702 53.193775
37.998421 -70.928314 53.138947
42.584004 -63.858709 50.18784
42.06041 -62.641123 49.986096
41.517773 -63.46439 50.297661
56.469026 -54.815426 47.363714
55.973219 -55.674461 47.364959
45.462522 -69.207214 51.093372
44.445636 -68.798103 51.174992
45.30888 -72.492561 51.568615
44.526685 -73.337437 51.766579
43.954307 -77.848004 51.585533
43.906427 -79.070564 51.221936
38.66203 -85.2934 49.093716
39.478859 -84.869045 49.393756
38.751332 -84.138123 50.018234
45.52832 -56.526001 48.106308
45.026028 -57.425541 48.297115
47.099048 -53.836903 47.754582
46.568374 -54.729004 47.832977
47.697895 -55.095696 47.82864
47.667446 -52.945751 47.757702
47.099048 -53.836903 47.754582
48.789189 -53.323446 47.781082
47.667446 -52.945751 47.757702
53.570028 -55.944296 47.677639
54.100606 -55.079876 47.722901
53.109009 -54.763693 47.823757
58.094836 -52.255448 47.722226
57.231609 -51.982901 48.0418
59.824951 -49.675514 48.119898
59.244739 -50.540973 48.015118
59.628216 -48.554636 48.733379
59.824951 -49.675514 48.119898
48.737426 -68.150833 50.338676
49.353431 -67.244766 50.062134
48.737426 -68.150833 50.338676
47.783615 -67.83712 50.50428
37.09621 -76.861343 53.570297
37.864593 -76.369777 53.346305
37.000851 -75.654857 53.722626
37.163752 -78.021392 53.274536
37.09621 -76.861343 53.570297
37.204136 -79.212452 52.932579
38.000338 -78.767323 52.85202
37.163752 -78.021392 53.274536
37.23329 -80.34681 52.431648
37.204136 -79.212452 52.932579
49.353431 -67.244766 50.062134
49.924087 -66.350433 49.774113
48.974693 -66.061981 49.945629
56.556885 -49.654474 48.841213
56.19553 -48.457774 49.167587
40.431646 -65.041336 50.96878
41.464909 -65.465644 50.824658
41.008105 -64.257667 50.643528
39.896608 -65.786232 51.34267
40.431646 -65.041336 50.96878
39.439804 -64.578255 51.161541
41.008105 -64.257667 50.643528
41.517773 -63.46439 50.297661
43.354772 -71.642807 51.853608
44.067478 -70.859741 51.59224
43.066175 -70.402985 51.701401
43.75441 -74.127026 51.985245
44.526685 -73.337437 51.766579
43.583799 -72.889152 51.963112
43.041111 -79.885921 51.252758
42.243601 -79.381912 51.726745
42.181589 -80.611965 51.288913
43.906427 -79.070564 51.221936
43.041111 -79.885921 51.252758
41.727047 -85.41433 48.365864
41.884628 -84.235116 49.281365
40.904636 -86.091343 48.069115
41.727047 -85.41433 48.365864
37.867203 -85.661175 48.647221
37.143603 -84.816993 49.313419
51.004614 -56.1586 47.849741
49.928327 -55.818193 47.862234
50.482163 -57.043185 47.914372
52.068439 -56.505852 47.840187
51.514604 -55.280861 47.78805
51.004614 -56.1586 47.849741
53.074388 -56.816175 47.747321
52.068439 -56.505852 47.840187
37.225061 -81.513599 51.859047
38.032494 -81.125172 51.937462
37.23329 -80.34681 52.431648
37.2199 -82.615478 51.121056
37.225061 -81.513599 51.859047
37.175019 -83.750736 50.297722
37.979383 -83.42722 50.541527
37.2199 -82.615478 51.121056
37.143603 -84.816993 49.313419
37.175019 -83.750736 50.297722
44.52881 -58.318342 48.534176
44.044544 -59.206688 48.78904
45.653093 -58.674627 48.484955
45.026028 -57.425541 48.297115
44.52881 -58.318342 48.534176
50.59214 -61.258997 48.593975
51.088898 -60.36278 48.36462
50.065621 -60.05849 48.446449
50.59214 -61.258997 48.593975
50.088124 -62.160108 48.872669
50.076367 -64.266579 49.363571
49.580069 -63.056463 49.144291
49.049051 -63.957532 49.438328
50.076367 -64.266579 49.363571
50.489519 -65.439605 49.476639
43.384901 -68.381981 51.212868
44.445636 -68.798103 51.174992
44.051656 -67.560165 50.947827
42.739191 -69.162613 51.509678
43.384901 -68.381981 51.212868
42.345211 -67.924675 51.282513
42.026485 -69.945678 51.771046
43.066175 -70.402985 51.701401
42.739191 -69.162613 51.509678
38.021457 -64.860268 51.884735
38.499935 -64.158411 51.453175
38.34537 -66.013428 51.948407
38.021457 -64.860268 51.884735
38.726979 -67.213402 52.102776
39.286375 -66.523125 51.689801
38.34537 -66.013428 51.948407
38.089156 -67.896263 52.480778
37.511256 -68.527191 52.94262
39.030161 -68.40596 52.222172
38.726979 -67.213402 52.102776
38.089156 -67.896263 52.480778
36.613575 -72.088322 53.922508
37.276134 -71.535885 53.480221
36.747299 -73.267449 53.880703
36.613575 -72.088322 53.922508
36.896557 -74.478958 53.862496
37.619976 -73.951783 53.516841
36.747299 -73.267449 53.880703
37.000851 -75.654857 53.722626
36.896557 -74.478958 53.862496
43.06518 -60.951704 49.363468
43.545197 -60.085436 49.066913
42.549909 -61.806963 49.662723
42.06041 -62.641123 49.986096
43.641911 -62.180183 49.577019
43.06518 -60.951704 49.363468
42.549909 -61.806963 49.662723
56.125236 -53.686957 47.752684
55.709221 -52.513838 48.013925
55.171326 -53.36665 47.897419
56.125236 -53.686957 47.752684
56.469026 -54.815426 47.363714
46.137793 -68.347107 50.84243
46.754721 -67.495484 50.568398
45.729321 -67.124664 50.635918
46.137793 -68.347107 50.84243
45.462522 -69.207214 51.093372
45.084364 -71.268853 51.51062
44.067478 -70.859741 51.59224
45.084364 -71.268853 51.51062
45.30888 -72.492561 51.568615
43.877678 -75.373841 51.95594
43.75441 -74.127026 51.985245
42.934792 -74.925556 52.152473
43.931776 -76.606255 51.801823
43.080591 -77.41412 51.90688
43.954307 -77.848004 51.585533
43.877678 -75.373841 51.95594
43.931776 -76.606255 51.801823
40.212841 -85.479394 48.785461
40.302143 -84.324116 49.70998
39.478859 -84.869045 49.393756
40.904636 -86.091343 48.069115
40.212841 -85.479394 48.785461
38.66203 -85.2934 49.093716
37.867203 -85.661175 48.647221
53.727707 -51.835749 48.176636
54.338688 -50.990481 48.416016
46.036775 -55.628986 47.935879
45.52832 -56.526001 48.106308
46.658766 -56.884811 48.077465
46.036775 -55.628986 47.935879
46.568374 -54.729004 47.832977
49.900294 -53.688453 47.804762
48.789189 -53.323446 47.781082
49.339674 -54.568601 47.773924
50.447464 -52.817346 47.850102
49.900294 -53.688453 47.804762
50.997949 -54.062502 47.842944
51.04258 -51.952858 47.992542
50.447464 -52.817346 47.850102
52.122612 -52.334681 48.041447
51.04258 -51.952858 47.992542
53.169846 -52.68862 48.031815
52.122612 -52.334681 48.041447
52.592354 -53.545334 47.878651
54.197449 -53.046402 48.01384
53.727707 -51.835749 48.176636
53.169846 -52.68862 48.031815
55.074483 -55.400123 47.60648
54.613464 -54.219521 47.752598
54.100606 -55.079876 47.722901
55.973219 -55.674461 47.364959
55.074483 -55.400123 47.60648
53.570028 -55.944296 47.677639
53.074388 -56.816175 47.747321
51.578789 -59.467723 48.129509
51.088898 -60.36278 48.36462
55.344879 -51.347262 48.376175
55.709221 -52.513838 48.013925
56.867267 -50.816324 48.404049
57.231609 -51.982901 48.0418
57.489704 -49.969807 48.651573
56.556885 -49.654474 48.841213
56.867267 -50.816324 48.404049
58.644287 -51.396925 47.830067
58.094836 -52.255448 47.722226
58.400539 -50.275706 48.39946
58.644287 -51.396925 47.830067
59.244739 -50.540973 48.015118
58.741742 -48.260388 49.06297
57.830906 -47.954489 49.315083
58.090156 -49.113855 48.836624
58.741742 -48.260388 49.06297
59.628216 -48.554636 48.733379
3 0 60 62
3 62 61 17
3 60 61 62
3 0 21 19
3 0 17 21
3 1 63 64
3 65 24 66
3 2 27 25
3 3 67 69
3 69 68 28
3 67 68 69
3 3 70 71
3 3 72 74
3 72 30 73
3 72 73 74
3 4 33 31
3 4 75 77
3 77 76 33
3 75 76 77
3 4 78 79
3 5 37 35
3 7 38 18
3 7 39 38
3 7 41 39
3 9 80 82
3 80 42 81
3 80 81 82
3 11 43 20
3 11 44 43
3 11 83 85
3 85 84 44
3 83 84 85
3 87 86 22
3 12 88 89
3 12 90 91
3 13 47 45
3 14 48 23
3 14 49 48
3 92 50 93
3 94 51 95
3 96 95 50
3 94 95 96
3 97 52 98
3 99 98 51
3 97 98 99
3 13 100 102
3 100 53 101
3 100 101 102
3 13 45 53
3 104 103 54
3 106 105 46
3 108 107 26
3 6 55 36
3 110 109 29
3 8 111 113
3 113 112 40
3 111 112 113
3 10 114 115
3 15 116 118
3 118 117 32
3 116 117 118
3 15 119 120
3 15 121 122
3 16 56 34
3 16 57 56
3 16 123 125
3 125 124 57
3 123 124 125
3 126 58 127
3 128 59 129
3 131 130 59
3 17 132 133
3 135 134 17
3 136 18 137
3 138 137 5
3 136 137 138
3 139 18 140
3 141 7 142
3 143 142 18
3 141 142 143
3 145 144 7
3 19 20 9
3 21 20 19
3 21 11 20
3 21 22 11
3 17 22 21
3 17 146 148
3 148 147 22
3 146 147 148
3 149 12 150
3 151 23 152
3 153 152 13
3 151 152 153
3 24 154 156
3 154 23 155
3 154 155 156
3 24 14 23
3 157 13 158
3 25 159 161
3 159 26 160
3 159 160 161
3 27 26 25
3 27 162 164
3 164 163 26
3 162 163 164
3 28 29 6
3 165 29 166
3 167 166 28
3 165 166 167
3 169 168 29
3 30 170 171
3 30 172 173
3 175 174 8
3 31 32 10
3 33 32 31
3 33 15 32
3 33 34 15
3 176 34 177
3 178 177 33
3 176 177 178
3 179 16 180
3 181 180 34
3 179 180 181
3 183 182 16
3 35 36 2
3 37 36 35
3 37 6 36
3 18 37 5
3 38 37 18
3 38 6 37
3 38 28 6
3 39 28 38
3 39 3 28
3 39 40 3
3 41 40 39
3 41 8 40
3 184 41 185
3 186 185 7
3 184 185 186
3 187 41 188
3 189 8 190
3 191 190 41
3 189 190 191
3 193 192 8
3 42 194 195
3 42 196 198
3 196 10 197
3 196 197 198
3 20 42 9
3 43 42 20
3 43 10 42
3 43 31 10
3 44 31 43
3 44 4 31
3 44 199 201
3 201 200 4
3 199 200 201
3 203 202 44
3 22 204 206
3 206 205 11
3 204 205 206
3 208 207 22
3 45 46 0
3 47 46 45
3 47 209 211
3 211 210 46
3 209 210 211
3 23 47 13
3 48 47 23
3 48 212 214
3 214 213 47
3 212 213 214
3 48 215 217
3 215 25 216
3 215 216 217
3 49 25 48
3 49 2 25
3 218 24 219
3 220 24 221
3 222 14 223
3 224 223 24
3 222 223 224
3 50 225 226
3 50 227 229
3 227 14 228
3 227 228 229
3 50 49 14
3 51 49 50
3 51 2 49
3 51 35 2
3 52 35 51
3 52 5 35
3 230 52 231
3 232 52 233
3 234 5 235
3 236 235 52
3 234 235 236
3 238 237 5
3 239 9 240
3 53 241 242
3 53 243 245
3 243 9 244
3 243 244 245
3 53 19 9
3 45 19 53
3 45 0 19
3 54 246 248
3 248 247 1
3 246 247 248
3 250 249 54
3 46 251 253
3 253 252 0
3 251 252 253
3 255 254 46
3 26 256 257
3 259 258 26
3 36 27 2
3 55 27 36
3 55 260 262
3 262 261 27
3 260 261 262
3 29 55 6
3 263 55 264
3 265 264 29
3 263 264 265
3 267 266 55
3 40 30 3
3 268 30 269
3 270 269 40
3 268 269 270
3 272 271 30
3 274 273 8
3 275 1 276
3 32 277 279
3 279 278 10
3 277 278 279
3 281 280 32
3 34 282 284
3 284 283 15
3 282 283 284
3 56 285 287
3 287 286 34
3 285 286 287
3 56 288 289
3 56 290 291
3 57 292 294
3 294 293 56
3 292 293 294
3 57 295 297
3 295 1 296
3 295 296 297
3 57 54 1
3 298 54 299
3 300 299 57
3 298 299 300
3 302 301 54
3 304 303 16
3 306 305 4
3 308 307 1
3 58 309 310
3 58 311 313
3 311 12 312
3 311 312 313
3 314 58 315
3 59 316 318
3 316 58 317
3 316 317 318
3 59 12 58
3 59 319 321
3 321 320 12
3 319 320 321
3 323 322 59
