ply
format ascii 1.0
element vertex 177
property float x
property float y
property float z
element face 152
property list uchar int vertex_index
end_header
33.691959 56.614212 -23.119101
25.680761 47.385567 -27.897837
27.788845 59.200493 -24.671629
23.802834 54.215355 -27.296793
29.471317 52.253166 -25.369967
32.148571 63.563736 -22.366899
20.427177 48.770393 -30.007582
22.557625 41.99918 -30.252024
37.972618 60.311935 -21.071066
30.838873 57.930626 -23.841757
28.713238 55.654694 -25.007967
31.546576 54.500702 -24.200903
32.038609 51.231316 -24.531763
34.119934 53.318192 -23.42993
24.803858 50.722832 -27.59041
22.029835 51.546295 -28.678621
23.073895 48.079628 -28.913118
21.522522 45.319016 -30.146544
24.022413 44.758968 -29.138945
39.974327 61.795662 -19.966043
24.644741 60.413124 -25.678141
25.72979 56.771042 -25.944307
26.691277 53.248535 -26.267241
27.505878 49.881882 -26.617239
28.157011 46.675789 -26.936228
30.038334 49.018036 -25.709204
32.300312 48.12838 -24.779345
29.945631 61.47847 -23.489244
33.023781 60.050667 -22.75773
20.897648 55.150772 -28.481234
19.26923 52.353035 -29.879332
17.820286 49.46096 -31.156351
19.011919 45.89315 -31.183443
35.855263 58.566238 -22.095934
36.235802 55.266792 -22.395426
26.053978 45.790382 -28.027832
25.224804 44.477083 -28.648386
24.851587 46.072268 -28.518391
40.884567 62.379452 -19.334396
39.628992 63.393906 -19.684719
33.293272 49.158886 -24.213676
32.16946 49.679848 -24.655554
33.16242 50.710354 -24.089886
33.250408 47.671482 -24.253577
33.293272 49.158886 -24.213676
31.047101 62.521103 -22.928072
29.420676 63.273846 -23.317659
30.522146 64.316479 -22.756487
22.350241 54.683064 -27.889014
21.795898 56.496811 -27.769316
23.248491 56.029103 -27.177096
21.365434 42.221311 -30.722158
20.847883 43.88123 -30.669418
22.040073 43.659098 -30.199284
21.936453 40.55384 -30.699949
21.365434 42.221311 -30.722158
23.051741 40.395262 -30.266466
21.936453 40.55384 -30.699949
28.403659 45.140577 -27.048132
29.282967 46.30661 -26.449337
36.59032 61.141941 -21.389384
37.646125 61.975243 -20.844181
36.91394 59.439087 -21.5835
35.531643 60.269092 -21.901817
36.59032 61.141941 -21.389384
37.298954 54.588279 -21.970858
37.283049 56.156746 -21.891089
36.279568 53.694248 -22.486498
37.298954 54.588279 -21.970858
34.203083 51.753792 -23.538969
33.16242 50.710354 -24.089886
33.079272 52.274754 -23.980846
31.622125 65.312111 -22.153265
30.522146 64.316479 -22.756487
24.45107 43.163403 -29.219332
23.718676 41.783508 -29.775872
23.290019 43.379074 -29.695484
24.45107 43.163403 -29.219332
25.224804 44.477083 -28.648386
38.64698 62.717106 -20.291669
39.628992 63.393906 -19.684719
38.973472 61.053798 -20.518555
37.646125 61.975243 -20.844181
38.64698 62.717106 -20.291669
23.669444 59.127987 -26.36777
23.068886 60.98468 -26.277771
24.211969 57.306946 -26.500853
23.669444 59.127987 -26.36777
25.187266 58.592083 -25.811224
24.766312 55.493199 -26.62055
23.248491 56.029103 -27.177096
24.211969 57.306946 -26.500853
30.223629 47.477733 -25.835825
29.282967 46.30661 -26.449337
29.097673 47.846913 -26.322716
31.354618 47.032905 -25.370895
30.223629 47.477733 -25.835825
31.169323 48.573208 -25.244274
32.325665 46.645138 -24.83551
31.354618 47.032905 -25.370895
32.325665 46.645138 -24.83551
33.250408 47.671482 -24.253577
24.049599 62.261177 -25.569336
23.068886 60.98468 -26.277771
25.685105 61.624245 -25.02758
24.049599 62.261177 -25.569336
27.257157 61.017929 -24.524324
26.216793 59.806809 -25.174885
25.685105 61.624245 -25.02758
28.335551 62.156918 -23.933132
29.420676 63.273846 -23.317659
28.867238 60.339482 -24.080436
27.257157 61.017929 -24.524324
28.335551 62.156918 -23.933132
20.292187 57.004329 -28.409415
21.795898 56.496811 -27.769316
19.473866 55.596581 -29.133532
20.292187 57.004329 -28.409415
18.659658 54.197712 -29.832581
19.473866 55.596581 -29.133532
20.083439 53.751903 -29.180283
17.930056 52.741295 -30.508065
18.659658 54.197712 -29.832581
17.205585 51.295258 -31.146574
17.930056 52.741295 -30.508065
18.544758 50.906998 -30.517842
16.568523 49.797973 -31.723256
17.205585 51.295258 -31.146574
17.19245 47.972813 -31.68242
16.568523 49.797973 -31.723256
17.788266 46.188907 -31.695965
17.19245 47.972813 -31.68242
18.416103 47.677055 -31.169897
18.408272 44.4072 -31.644379
17.788266 46.188907 -31.695965
19.592582 44.168296 -31.187868
20.267221 45.606083 -30.664994
20.847883 43.88123 -30.669418
18.408272 44.4072 -31.644379
19.592582 44.168296 -31.187868
23.051741 40.395262 -30.266466
23.718676 41.783508 -29.775872
27.292103 45.435493 -27.547027
26.053978 45.790382 -28.027832
26.918886 47.030678 -27.417032
27.292103 45.435493 -27.547027
28.403659 45.140577 -27.048132
33.238977 64.482406 -21.804129
31.622125 65.312111 -22.153265
33.678297 62.767842 -22.0373
33.238977 64.482406 -21.804129
34.115902 61.011307 -22.232715
32.586176 61.807201 -22.562314
33.678297 62.767842 -22.0373
34.439522 59.308453 -22.426832
34.115902 61.011307 -22.232715
35.531643 60.269092 -21.901817
41.090832 60.851082 -19.569637
40.884567 62.379452 -19.334396
40.157791 60.20346 -20.151937
41.090832 60.851082 -19.569637
39.156937 59.461597 -20.704448
38.973472 61.053798 -20.518555
40.157791 60.20346 -20.151937
38.151457 58.679317 -21.228908
39.156937 59.461597 -20.704448
37.092779 57.806469 -21.741343
36.91394 59.439087 -21.5835
38.151457 58.679317 -21.228908
36.045533 56.916515 -22.24568
37.092779 57.806469 -21.741343
37.283049 56.156746 -21.891089
35.221634 52.719948 -23.00375
35.177868 54.292492 -22.912678
36.279568 53.694248 -22.486498
34.203083 51.753792 -23.538969
35.221634 52.719948 -23.00375
3 0 11 9
3 0 13 11
3 1 16 14
3 1 18 16
3 1 35 37
3 37 36 18
3 35 36 37
3 38 19 39
3 2 21 20
3 4 22 10
3 4 23 22
3 4 25 23
3 40 26 41
3 42 41 12
3 40 41 42
3 44 43 26
3 5 45 47
3 45 27 46
3 45 46 47
3 5 28 27
3 3 48 50
3 48 29 49
3 48 49 50
3 6 30 15
3 6 31 30
3 6 32 31
3 7 51 53
3 53 52 17
3 51 52 53
3 7 54 55
3 7 56 57
3 59 58 24
3 8 60 61
3 8 62 64
3 62 33 63
3 62 63 64
3 65 34 66
3 68 67 34
3 9 10 2
3 11 10 9
3 11 4 10
3 11 12 4
3 13 12 11
3 13 69 71
3 71 70 12
3 69 70 71
3 72 5 73
3 14 15 3
3 16 15 14
3 16 6 15
3 16 17 6
3 18 17 16
3 18 7 17
3 18 74 76
3 76 75 7
3 74 75 76
3 78 77 18
3 19 79 80
3 19 81 83
3 81 8 82
3 81 82 83
3 20 84 85
3 21 86 88
3 88 87 20
3 86 87 88
3 21 89 91
3 89 3 90
3 89 90 91
3 10 21 2
3 22 21 10
3 22 3 21
3 22 14 3
3 23 14 22
3 23 1 14
3 23 24 1
3 25 24 23
3 25 92 94
3 94 93 24
3 92 93 94
3 12 25 4
3 26 25 12
3 26 95 97
3 97 96 25
3 95 96 97
3 26 98 99
3 101 100 26
3 102 20 103
3 104 20 105
3 106 2 107
3 108 107 20
3 106 107 108
3 27 109 110
3 27 111 113
3 111 2 112
3 111 112 113
3 27 9 2
3 28 9 27
3 28 0 9
3 29 114 115
3 29 116 117
3 15 29 3
3 30 29 15
3 30 118 120
3 120 119 29
3 118 119 120
3 30 121 122
3 31 123 125
3 125 124 30
3 123 124 125
3 31 126 127
3 31 128 129
3 32 130 132
3 132 131 31
3 130 131 132
3 32 133 134
3 17 32 6
3 135 32 136
3 137 136 17
3 135 136 137
3 139 138 32
3 141 140 7
3 24 142 144
3 144 143 1
3 142 143 144
3 146 145 24
3 147 5 148
3 149 5 150
3 151 28 152
3 153 152 5
3 151 152 153
3 33 154 156
3 154 28 155
3 154 155 156
3 33 0 28
3 157 19 158
3 159 19 160
3 161 8 162
3 163 162 19
3 161 162 163
3 164 8 165
3 166 33 167
3 168 167 8
3 166 167 168
3 34 169 171
3 169 33 170
3 169 170 171
3 34 0 33
3 34 13 0
3 172 13 173
3 174 173 34
3 172 173 174
3 176 175 13
