ply
format ascii 1.0
element vertex 202
property float x
property float y
property float z
element face 153
property list uchar int vertex_index
end_header
36.820679 15.66938 -54.796257
44.132927 9.824764 -57.295509
38.864014 18.677063 -51.263313
41.450645 17.938164 -53.808388
44.968361 14.985832 -54.956711
49.103928 10.260916 -54.799454
35.78706 16.329273 -42.192223
37.76226 17.427631 -53.200745
44.901314 19.714935 -50.503265
42.437408 19.352623 -51.805496
43.107433 16.722572 -54.550728
35.40881 16.212788 -47.052704
36.475689 16.891994 -44.837578
40.050331 19.35915 -49.024551
39.116322 18.728493 -47.115387
46.400887 7.387678 -57.047318
40.032501 18.586018 -52.717079
39.052853 16.988991 -54.522369
38.262646 14.919903 -55.971001
40.624493 16.00214 -55.474243
42.444351 14.493557 -56.068504
44.46072 12.529043 -56.317711
46.614357 10.185898 -56.233788
48.846535 7.531567 -55.829567
37.445938 17.257366 -42.411667
36.260113 15.787316 -54.017692
36.730903 16.666441 -53.219937
37.291469 16.548506 -53.998501
35.8207 14.838814 -54.708832
36.260113 15.787316 -54.017692
36.453409 14.580993 -55.407151
35.8207 14.838814 -54.708832
45.678217 19.192701 -50.851067
46.12701 19.695599 -49.6824
44.421762 19.107601 -51.594234
45.678217 19.192701 -50.851067
35.149022 15.885431 -45.736114
34.668202 15.371052 -46.747162
42.919689 9.498727 -57.61425
43.054987 10.881146 -57.251747
38.394092 18.489403 -50.355342
38.987251 18.830447 -49.235962
39.457172 19.018107 -50.143932
46.365521 5.944403 -57.240421
47.560326 6.03157 -56.763592
48.04443 11.532982 -54.917992
49.298752 11.513485 -54.11087
47.859143 10.223407 -55.516621
46.799644 11.495473 -55.635159
48.04443 11.532982 -54.917992
37.715502 17.787501 -46.088264
38.695669 18.336106 -46.001987
38.136155 18.179888 -47.201664
36.169308 16.620148 -40.995018
36.998747 17.084194 -41.10474
36.616499 16.79332 -42.301945
35.394523 16.246257 -40.841351
36.169308 16.620148 -40.995018
37.976896 13.705037 -56.500229
39.130756 14.289631 -56.370953
37.258949 17.391452 -52.351318
37.809826 18.016168 -51.382602
38.313137 18.052347 -52.232029
37.258949 17.391452 -52.351318
36.730903 16.666441 -53.219937
45.408728 20.000536 -49.276477
46.12701 19.695599 -49.6824
44.210087 19.935232 -50.003105
45.408728 20.000536 -49.276477
43.669361 19.533779 -51.154381
42.978134 19.754076 -50.65422
44.210087 19.935232 -50.003105
43.189809 18.926445 -52.24535
43.669361 19.533779 -51.154381
44.421762 19.107601 -51.594234
42.696428 18.219216 -53.246796
41.944026 18.645394 -52.806942
43.189809 18.926445 -52.24535
43.524822 17.61142 -53.617966
42.279039 17.330368 -54.179558
42.696428 18.219216 -53.246796
44.375551 16.897823 -53.896427
43.524822 17.61142 -53.617966
45.306015 16.029453 -54.099418
44.037897 15.854202 -54.75372
44.375551 16.897823 -53.896427
50.327818 10.156601 -53.928287
49.298752 11.513485 -54.11087
50.188664 8.840426 -54.528126
50.327818 10.156601 -53.928287
35.94225 16.552391 -45.945141
36.815838 17.261639 -46.062759
36.282398 16.922035 -47.170322
35.682461 16.225034 -44.628552
35.94225 16.552391 -45.945141
35.149022 15.885431 -45.736114
35.338146 15.943674 -43.305874
36.131374 16.610633 -43.5149
35.682461 16.225034 -44.628552
34.607645 15.356951 -43.040302
35.056558 15.74255 -41.926651
35.338146 15.943674 -43.305874
39.583326 19.043821 -48.069969
40.1702 19.096964 -46.822689
40.637205 19.412292 -47.777271
38.520246 18.515118 -48.281379
39.583326 19.043821 -48.069969
38.987251 18.830447 -49.235962
37.540079 17.966513 -48.367656
38.136155 18.179888 -47.201664
38.520246 18.515118 -48.281379
38.394092 18.489403 -50.355342
37.809826 18.016168 -51.382602
35.702658 16.550417 -48.246097
36.282398 16.922035 -47.170322
36.576246 17.259664 -48.363716
34.870036 15.689911 -48.034481
35.702658 16.550417 -48.246097
34.668202 15.371052 -46.747162
34.870036 15.689911 -48.034481
45.188993 7.183663 -57.449028
44.055014 8.402207 -57.573124
45.266907 8.606221 -57.171413
45.188993 7.183663 -57.449028
46.365521 5.944403 -57.240421
41.176472 19.694268 -48.603313
40.637205 19.412292 -47.777271
40.596908 19.488491 -49.806545
41.176472 19.694268 -48.603313
41.723049 19.823608 -49.385307
40.00375 19.147447 -50.925926
39.457172 19.018107 -50.143932
40.596908 19.488491 -49.806545
41.790447 19.485228 -51.197018
42.978134 19.754076 -50.65422
40.587994 19.101925 -51.652809
41.790447 19.485228 -51.197018
41.234955 18.969321 -52.261287
39.448257 18.63154 -51.990196
40.00375 19.147447 -50.925926
40.587994 19.101925 -51.652809
40.31168 14.830749 -56.122574
39.130756 14.289631 -56.370953
39.443569 15.461022 -55.722622
41.221609 14.076458 -56.419704
40.31168 14.830749 -56.122574
41.534422 15.247848 -55.771373
42.210699 13.215543 -56.638244
41.221609 14.076458 -56.419704
43.218884 12.233286 -56.762848
42.210699 13.215543 -56.638244
43.452535 13.5113 -56.193107
44.296824 11.176903 -56.80661
43.054987 10.881146 -57.251747
43.218884 12.233286 -56.762848
46.238506 15.059684 -54.221283
45.306015 16.029453 -54.099418
45.976647 13.89544 -54.99662
46.238506 15.059684 -54.221283
45.722826 12.667046 -55.677121
44.71454 13.757437 -55.637211
45.976647 13.89544 -54.99662
45.537538 11.35747 -56.27575
45.722826 12.667046 -55.677121
46.799644 11.495473 -55.635159
48.78315 6.103515 -56.154716
47.560326 6.03157 -56.763592
47.623711 7.459623 -56.438442
50.059967 7.475751 -55.043183
48.975232 8.896242 -55.31451
50.188664 8.840426 -54.528126
49.974648 6.072611 -55.475483
50.059967 7.475751 -55.043183
48.78315 6.103515 -56.154716
49.974648 6.072611 -55.475483
39.673913 18.69863 -45.833717
40.1702 19.096964 -46.822689
39.25326 18.306242 -44.720318
39.673913 18.69863 -45.833717
38.695669 18.336106 -46.001987
37.375353 17.417856 -44.863083
37.715502 17.787501 -46.088264
36.815838 17.261639 -46.062759
37.860478 17.600542 -43.650127
37.375353 17.417856 -44.863083
36.960814 17.07468 -43.624623
38.352731 17.575215 -42.349277
38.767271 17.918391 -43.587738
37.860478 17.600542 -43.650127
37.844167 17.326777 -41.114795
38.352731 17.575215 -42.349277
37.844167 17.326777 -41.114795
36.998747 17.084194 -41.10474
35.394523 16.246257 -40.841351
35.056558 15.74255 -41.926651
37.174393 14.206255 -55.994523
36.453409 14.580993 -55.407151
37.541663 15.294642 -55.383629
37.174393 14.206255 -55.994523
37.976896 13.705037 -56.500229
42.919689 9.498727 -57.61425
44.055014 8.402207 -57.573124
3 0 25 27
3 27 26 7
3 25 26 27
3 0 28 29
3 0 30 31
3 32 8 33
3 35 34 8
3 37 36 11
3 1 38 39
3 2 40 42
3 42 41 13
3 40 41 42
3 44 43 15
3 3 16 9
3 3 17 16
3 3 19 17
3 4 20 10
3 4 21 20
3 5 45 46
3 5 47 49
3 47 22 48
3 47 48 49
3 5 23 22
3 52 51 14
3 50 51 52
3 6 24 12
3 6 53 55
3 55 54 24
3 53 54 55
3 6 56 57
3 59 58 18
3 7 60 62
3 62 61 2
3 60 61 62
3 64 63 7
3 8 65 66
3 8 67 68
3 8 69 71
3 69 9 70
3 69 70 71
3 72 9 73
3 74 73 8
3 72 73 74
3 75 3 76
3 77 76 9
3 75 76 77
3 78 10 79
3 80 79 3
3 78 79 80
3 81 10 82
3 83 4 84
3 85 84 10
3 83 84 85
3 86 5 87
3 89 88 5
3 11 90 92
3 90 12 91
3 90 91 92
3 93 12 94
3 95 94 11
3 93 94 95
3 96 6 97
3 98 97 12
3 96 97 98
3 101 100 6
3 99 100 101
3 13 102 104
3 102 14 103
3 102 103 104
3 105 14 106
3 107 106 13
3 105 106 107
3 110 109 14
3 108 109 110
3 112 111 2
3 113 11 114
3 113 114 115
3 116 11 117
3 119 118 11
3 15 120 122
3 122 121 1
3 120 121 122
3 124 123 15
3 125 13 126
3 127 13 128
3 127 128 129
3 130 2 131
3 132 131 13
3 130 131 132
3 9 133 134
3 16 135 137
3 137 136 9
3 135 136 137
3 16 138 140
3 138 2 139
3 138 139 140
3 16 7 2
3 17 7 16
3 17 0 7
3 17 18 0
3 19 18 17
3 19 141 143
3 143 142 18
3 141 142 143
3 10 19 3
3 20 19 10
3 20 144 146
3 146 145 19
3 144 145 146
3 20 147 148
3 21 149 151
3 151 150 20
3 149 150 151
3 21 152 154
3 152 1 153
3 152 153 154
3 155 4 156
3 157 4 158
3 159 21 160
3 161 160 4
3 159 160 161
3 22 162 164
3 162 21 163
3 162 163 164
3 22 1 21
3 22 15 1
3 23 15 22
3 23 165 167
3 167 166 15
3 165 166 167
3 168 23 169
3 170 169 5
3 168 169 170
3 171 23 172
3 174 173 23
3 14 175 176
3 179 178 14
3 177 178 179
3 12 180 182
3 180 181 182
3 24 183 185
3 185 184 12
3 183 184 185
3 24 186 188
3 186 187 188
3 24 189 190
3 192 191 24
3 194 193 6
3 18 195 197
3 197 196 0
3 195 196 197
3 199 198 18
3 201 200 1
