ply
format ascii 1.0
element vertex 392
property float x
property float y
property float z
element face 310
property list uchar int vertex_index
end_header
0.458405 -75.656837 46.590927
0.710146 -54.153938 41.44487
-3.097223 -52.56292 25.354908
-3.890162 -50.501801 17.137833
0.864542 -48.899479 44.773994
-0.562733 -53.739021 37.50243
-1.826376 -47.261848 37.56789
-3.6024 -51.709614 21.26844
0.780293 -70.456978 49.133568
1.635015 -65.511635 47.439072
2.057783 -60.28117 46.145302
1.763109 -54.773075 45.271736
1.539738 -59.928661 41.972672
-2.740652 -33.742268 41.171402
-2.516085 -53.107666 29.413691
-1.818979 -58.3587 20.905294
-1.230803 -47.597294 39.454338
-1.850447 -44.210556 39.484344
1.038504 -67.901352 50.473732
1.231676 -68.023926 48.23716
1.495039 -65.507622 49.637848
2.220098 -57.852695 47.646271
0.754642 -51.482346 43.180992
1.368303 -51.890877 44.983131
1.280935 -54.438755 43.371338
1.665802 -57.303024 43.659531
-2.475637 -30.646301 42.694221
-2.821379 -52.868732 27.385078
-2.441889 -55.907043 25.161243
-1.827829 -58.751198 22.98954
-2.594572 -55.56493 23.09882
-3.794943 -51.150181 19.206099
-2.786963 -54.617287 18.979067
0.097054 -51.127342 41.335686
0.080685 -53.922729 39.487957
-0.569462 -50.82716 39.444046
-1.204348 -50.573975 37.511948
-3.765871 -49.027042 25.610716
-3.359705 -52.17915 23.317762
-4.140535 -48.597908 23.586277
-4.49291 -48.087002 21.533436
1.353655 -68.081833 45.991615
1.679028 -65.480057 45.231987
1.873943 -63.031616 48.888535
1.926817 -62.929344 46.740578
1.865068 -62.816128 44.586891
2.002384 -57.565151 45.656197
1.865965 -60.0919 44.062344
-2.311193 -37.572567 41.233017
-2.397287 -40.649281 39.505714
-2.391459 -43.783535 37.635433
-2.338148 -46.958347 35.648415
-2.261221 -50.142929 33.573341
-2.67544 -49.924328 31.589493
-2.712206 -55.136272 21.038368
-3.835962 -49.772442 15.080006
-1.825767 -42.714432 40.374055
-1.530876 -44.446407 40.380116
1.164977 -66.677773 51.145984
0.92209 -67.800488 51.58046
1.393244 -65.480908 50.728043
1.266771 -66.704487 50.05579
1.164977 -66.677773 51.145984
0.525569 -76.91283 46.015896
0.446373 -78.079933 46.590249
0.379209 -76.82394 47.165279
2.326804 -56.694438 48.346134
2.278023 -58.000776 48.643067
0.959827 -55.617607 41.546982
1.245221 -55.760016 42.510216
0.99554 -54.296346 42.408104
0.682322 -55.530735 40.53323
0.959827 -55.617607 41.546982
-2.959301 -52.715826 26.369993
-3.110512 -51.125696 27.499174
-3.248434 -50.97279 26.484089
-3.341164 -52.254395 17.031301
-3.293554 -52.578585 18.065433
-3.842553 -50.825991 18.171966
-3.290024 -51.905041 16.012135
-3.341164 -52.254395 17.031301
-0.233379 -49.552773 41.312984
0.12152 -49.769775 42.199703
-0.566637 -49.402681 40.367165
-0.236204 -50.977251 40.389866
-0.233379 -49.552773 41.312984
-1.799956 -48.807163 36.559351
-1.488942 -50.463226 36.53138
-1.515362 -48.917912 37.539919
-4.113876 -47.165228 25.741475
-3.881605 -47.368845 26.735465
-4.301208 -46.95066 24.729256
-3.953203 -48.812475 24.598496
-4.113876 -47.165228 25.741475
-4.929861 -46.184473 21.653908
-4.715 -46.458296 22.689447
-4.631134 -47.789255 20.493543
-4.929861 -46.184473 21.653908
0.563432 -71.627598 49.63179
0.453898 -71.500382 50.766533
0.670759 -70.329762 50.26831
0.668924 -71.760639 48.481296
0.452063 -72.93126 48.979519
0.563432 -71.627598 49.63179
0.867812 -70.535458 47.996246
0.668924 -71.760639 48.481296
1.985594 -61.851732 49.594887
1.805568 -63.069982 49.957592
1.9923 -61.605257 46.44294
2.026553 -61.704571 47.482296
2.092036 -60.380483 47.184658
1.213018 -49.166058 45.604648
0.994366 -47.646197 45.478115
1.839449 -53.558143 46.013952
1.642046 -52.117045 45.86965
1.565706 -53.331976 45.127433
1.954378 -54.95874 46.214596
1.839449 -53.558143 46.013952
1.882747 -56.169113 45.463966
2.074015 -56.354778 46.406826
1.954378 -54.95874 46.214596
1.605084 -61.319153 42.20102
1.768197 -61.400772 43.245856
1.702851 -60.010281 43.017508
1.442169 -61.276435 41.121167
1.605084 -61.319153 42.20102
-0.259965 -55.258978 37.539783
0.061744 -55.350831 38.532547
-0.241024 -53.830875 38.495193
-2.412506 -34.150003 41.984218
-2.279999 -32.60202 42.745628
-2.608144 -32.194285 41.932811
-2.525923 -35.657418 41.202209
-2.197776 -36.065153 42.015026
-2.412506 -34.150003 41.984218
-2.641491 -40.387738 38.596348
-2.63051 -38.776881 39.502283
-2.638577 -41.954864 37.661207
-2.394373 -42.216408 38.570573
-2.641491 -40.387738 38.596348
-2.557462 -46.814034 34.680394
-2.592907 -45.17452 35.700249
-2.518999 -48.406324 33.642857
-2.299684 -48.550638 34.610878
-2.557462 -46.814034 34.680394
-2.595763 -51.515997 30.501592
-2.859573 -49.80055 30.596546
-2.779896 -51.392219 29.508645
-2.334568 -53.200979 30.428474
-2.414245 -51.60931 31.516375
-2.595763 -51.515997 30.501592
-2.243574 -54.734258 29.356578
-2.334568 -53.200979 30.428474
-1.361785 -59.866115 20.915336
-1.36621 -60.062365 21.957459
-1.823404 -58.554949 21.947417
-1.263561 -59.644226 19.866845
-1.361785 -59.866115 20.915336
-2.27315 -56.248452 18.906486
-2.214488 -55.965029 17.87869
-3.711544 -49.375744 14.068163
-4.340551 -47.924436 15.175959
-3.13853 -51.151139 13.981181
-3.711544 -49.375744 14.068163
-1.221055 -46.139776 40.365112
-0.897308 -47.787748 40.37231
-1.540625 -45.903925 39.469341
-1.221055 -46.139776 40.365112
-1.530876 -44.446407 40.380116
0.799865 -69.051949 50.938392
0.683451 -68.951084 52.04512
0.92209 -67.800488 51.58046
0.909398 -69.179165 49.80365
0.670759 -70.329762 50.26831
0.799865 -69.051949 50.938392
2.173194 -59.166246 47.935142
2.278023 -58.000776 48.643067
2.138941 -59.066933 46.895786
2.092036 -60.380483 47.184658
2.173194 -59.166246 47.935142
1.437655 -57.19215 42.654313
1.473368 -55.87089 43.515434
1.245221 -55.760016 42.510216
1.374623 -58.504969 41.810883
1.60277 -58.615842 42.816102
1.437655 -57.19215 42.654313
1.314825 -59.86564 40.924029
1.374623 -58.504969 41.810883
-0.566793 -55.210579 36.510351
-0.867139 -53.663271 36.498415
-2.642375 -28.610111 42.629013
-2.259256 -29.131621 43.382318
-2.789286 -30.191935 41.883757
-2.642375 -28.610111 42.629013
-2.921793 -31.739918 41.122347
-2.608144 -32.194285 41.932811
-2.789286 -30.191935 41.883757
-2.932543 -51.272752 28.494338
-3.110512 -51.125696 27.499174
-2.668732 -52.988199 28.399385
-2.779896 -51.392219 29.508645
-2.932543 -51.272752 28.494338
-2.531809 -54.518892 27.306455
-2.379162 -54.638359 28.320762
-2.668732 -52.988199 28.399385
-2.342064 -56.038048 26.194538
-2.531809 -54.518892 27.306455
-2.631634 -54.387888 26.27316
-2.109133 -57.483211 25.123448
-2.342064 -56.038048 26.194538
-2.134859 -57.329121 24.075392
-1.802103 -58.905289 24.037596
-2.109133 -57.483211 25.123448
-2.789565 -54.312138 17.951918
-3.290953 -52.883734 19.092583
-3.293554 -52.578585 18.065433
-2.214488 -55.965029 17.87869
-2.789565 -54.312138 17.951918
0.565917 -75.715301 45.446354
0.595661 -74.437953 46.064446
0.585125 -47.338036 44.69828
0.994366 -47.646197 45.478115
0.505263 -48.655844 43.918858
0.585125 -47.338036 44.69828
0.450314 -49.947277 43.122357
0.809592 -50.190912 43.977493
0.505263 -48.655844 43.918858
0.425848 -51.304844 42.258339
0.450314 -49.947277 43.122357
0.12152 -49.769775 42.199703
-0.900133 -49.212227 39.449192
-0.566637 -49.402681 40.367165
-0.897308 -47.787748 40.37231
-1.187947 -52.080748 36.503174
-0.867139 -53.663271 36.498415
-0.883541 -52.156498 37.507189
-1.187947 -52.080748 36.503174
-1.488942 -50.463226 36.53138
-3.582758 -49.204851 26.611993
-3.881605 -47.368845 26.735465
-3.431547 -50.794981 25.482812
-3.248434 -50.97279 26.484089
-3.582758 -49.204851 26.611993
-4.538813 -46.713749 23.715868
-4.301208 -46.95066 24.729256
-4.316723 -48.342455 22.559856
-4.538813 -46.713749 23.715868
-4.715 -46.458296 22.689447
-4.282151 -49.320845 19.329874
-4.143927 -49.618592 20.369767
-4.631134 -47.789255 20.493543
-4.32976 -48.996655 18.295741
-3.842553 -50.825991 18.171966
-4.282151 -49.320845 19.329874
0.342844 -75.53738 47.745159
0.379209 -76.82394 47.165279
0.50798 -74.360569 47.209976
0.342844 -75.53738 47.745159
0.392418 -74.241112 48.364208
0.595661 -74.437953 46.064446
0.50798 -74.360569 47.209976
1.093504 -69.318932 47.548043
0.867812 -70.535458 47.996246
1.005985 -69.240452 48.685364
1.154494 -69.347885 46.42527
1.093504 -69.318932 47.548043
1.292666 -68.05288 47.114388
1.209556 -69.387741 45.289005
1.154494 -69.347885 46.42527
1.367793 -68.088093 44.867933
1.209556 -69.387741 45.289005
1.530479 -66.787205 44.488119
1.367793 -68.088093 44.867933
1.516342 -66.780945 45.611801
1.642078 -65.455681 44.12692
1.530479 -66.787205 44.488119
0.525569 -76.91283 46.015896
0.565917 -75.715301 45.446354
1.616116 -64.307986 50.332248
1.393244 -65.480908 50.728043
1.684491 -64.269619 49.263191
1.616116 -64.307986 50.332248
1.805568 -63.069982 49.957592
2.000116 -61.755707 48.556275
1.985594 -61.851732 49.594887
1.90038 -62.98048 47.814556
2.000116 -61.755707 48.556275
2.026553 -61.704571 47.482296
1.735098 -64.123717 43.804372
1.642078 -65.455681 44.12692
1.772048 -64.148093 44.909439
1.464898 -50.661757 45.709217
1.213018 -49.166058 45.604648
1.116423 -50.395178 44.878563
1.464898 -50.661757 45.709217
1.642046 -52.117045 45.86965
2.182873 -56.49855 47.401863
2.326804 -56.694438 48.346134
2.111241 -57.708923 46.651234
2.182873 -56.49855 47.401863
2.074015 -56.354778 46.406826
1.767748 -62.762886 43.508129
1.865517 -61.454014 44.324618
1.768197 -61.400772 43.245856
1.735098 -64.123717 43.804372
1.767748 -62.762886 43.508129
1.442169 -61.276435 41.121167
1.314825 -59.86564 40.924029
0.367591 -55.415131 39.554773
0.682322 -55.530735 40.53323
0.395416 -54.038333 40.466414
0.367591 -55.415131 39.554773
0.061744 -55.350831 38.532547
-0.259965 -55.258978 37.539783
-0.566793 -55.210579 36.510351
-2.078533 -31.123334 43.442955
-2.259256 -29.131621 43.382318
-2.078533 -31.123334 43.442955
-2.279999 -32.60202 42.745628
-1.966492 -37.930979 42.054098
-2.197776 -36.065153 42.015026
-2.05614 -39.395437 41.248392
-1.966492 -37.930979 42.054098
-3.000597 -33.360402 40.311937
-2.921793 -31.739918 41.122347
-2.802192 -35.323374 40.335127
-3.000597 -33.360402 40.311937
-2.587463 -37.238523 40.365934
-2.525923 -35.657418 41.202209
-2.802192 -35.323374 40.335127
-2.35424 -39.110924 40.369366
-2.587463 -37.238523 40.365934
-2.63051 -38.776881 39.502283
-2.099188 -40.933794 40.38474
-2.05614 -39.395437 41.248392
-2.35424 -39.110924 40.369366
-2.123867 -42.429918 39.495029
-1.825767 -42.714432 40.374055
-2.099188 -40.933794 40.38474
-2.619562 -43.587114 36.693758
-2.638577 -41.954864 37.661207
-2.364803 -45.370941 36.641924
-2.619562 -43.587114 36.693758
-2.592907 -45.17452 35.700249
-2.055842 -48.655412 35.599614
-1.799956 -48.807163 36.559351
-2.082262 -47.110098 36.608153
-2.017378 -50.247704 34.562077
-2.055842 -48.655412 35.599614
-2.299684 -48.550638 34.610878
-1.984278 -51.794962 33.522686
-2.017378 -50.247704 34.562077
-2.924673 -48.150938 31.679674
-2.859573 -49.80055 30.596546
-2.726109 -48.297024 32.650933
-2.924673 -48.150938 31.679674
-2.46833 -50.033629 32.581417
-2.518999 -48.406324 33.642857
-2.726109 -48.297024 32.650933
-2.207136 -51.71861 32.508299
-2.46833 -50.033629 32.581417
-2.414245 -51.60931 31.516375
-1.984278 -51.794962 33.522686
-2.207136 -51.71861 32.508299
-2.243574 -54.734258 29.356578
-2.379162 -54.638359 28.320762
-1.431276 -60.244807 23.01585
-1.40555 -60.398898 24.063907
-1.802103 -58.905289 24.037596
-1.431276 -60.244807 23.01585
-1.36621 -60.062365 21.957459
-2.235771 -56.507944 19.936137
-2.749585 -54.876779 20.008717
-2.27315 -56.248452 18.906486
-1.789157 -58.119158 19.8696
-2.265592 -56.747486 20.971831
-2.235771 -56.507944 19.936137
-1.233739 -59.404684 18.831151
-1.263561 -59.644226 19.866845
-1.789157 -58.119158 19.8696
-4.398261 -48.65907 17.248466
-4.32976 -48.996655 18.295741
-4.371161 -48.29439 16.219553
-4.340551 -47.924436 15.175959
-3.863062 -50.137121 16.108919
-4.398261 -48.65907 17.248466
-4.371161 -48.29439 16.219553
-3.262924 -51.540362 14.983221
-3.290024 -51.905041 16.012135
-3.863062 -50.137121 16.108919
-3.262924 -51.540362 14.983221
-3.13853 -51.151139 13.981181
3 56 17 57
3 58 18 59
3 60 20 61
3 62 61 18
3 60 61 62
3 0 63 65
3 63 64 65
3 66 21 67
3 1 24 22
3 1 68 70
3 70 69 24
3 68 69 70
3 1 71 72
3 2 73 75
3 73 27 74
3 73 74 75
3 2 28 27
3 2 30 28
3 3 76 78
3 78 77 31
3 76 77 78
3 3 79 80
3 81 33 82
3 83 35 84
3 85 84 33
3 83 84 85
3 6 36 16
3 6 86 88
3 88 87 36
3 86 87 88
3 89 37 90
3 91 39 92
3 93 92 37
3 91 92 93
3 94 40 95
3 97 96 40
3 8 98 100
3 98 99 100
3 8 101 103
3 101 102 103
3 8 104 105
3 9 41 19
3 9 42 41
3 106 43 107
3 10 108 110
3 108 44 109
3 108 109 110
3 10 45 44
3 4 111 112
3 11 113 115
3 115 114 23
3 113 114 115
3 11 116 117
3 11 118 120
3 118 46 119
3 118 119 120
3 12 47 25
3 12 121 123
3 123 122 47
3 121 122 123
3 12 124 125
3 5 126 128
3 128 127 34
3 126 127 128
3 13 129 131
3 131 130 26
3 129 130 131
3 13 132 134
3 132 48 133
3 132 133 134
3 135 49 136
3 137 50 138
3 139 138 49
3 137 138 139
3 140 51 141
3 142 52 143
3 144 143 51
3 142 143 144
3 14 145 147
3 145 53 146
3 145 146 147
3 14 148 150
3 150 149 53
3 148 149 150
3 14 151 152
3 15 153 155
3 155 154 29
3 153 154 155
3 15 156 157
3 7 54 38
3 159 158 32
3 160 55 161
3 163 162 55
3 164 16 165
3 17 166 168
3 166 16 167
3 166 167 168
3 17 6 16
3 18 169 171
3 169 170 171
3 18 172 174
3 172 8 173
3 172 173 174
3 18 19 8
3 20 19 18
3 20 9 19
3 21 175 176
3 21 177 179
3 177 10 178
3 177 178 179
3 22 23 4
3 24 23 22
3 24 11 23
3 24 25 11
3 180 25 181
3 182 181 24
3 180 181 182
3 183 12 184
3 185 184 25
3 183 184 185
3 187 186 12
3 189 188 5
3 190 26 191
3 192 26 193
3 194 13 195
3 196 195 26
3 194 195 196
3 27 197 198
3 27 199 201
3 199 14 200
3 199 200 201
3 27 202 204
3 204 203 14
3 202 203 204
3 28 205 207
3 207 206 27
3 205 206 207
3 28 208 209
3 28 210 212
3 210 29 211
3 210 211 212
3 30 29 28
3 30 15 29
3 31 32 7
3 213 32 214
3 215 214 31
3 213 214 215
3 217 216 32
3 219 218 0
3 220 4 221
3 222 4 223
3 224 22 225
3 226 225 4
3 224 225 226
3 33 227 229
3 227 22 228
3 227 228 229
3 33 1 22
3 33 34 1
3 35 34 33
3 35 5 34
3 16 230 232
3 230 35 231
3 230 231 232
3 36 35 16
3 36 5 35
3 36 233 235
3 235 234 5
3 233 234 235
3 237 236 36
3 37 238 239
3 37 240 242
3 240 2 241
3 240 241 242
3 37 38 2
3 39 38 37
3 39 7 38
3 243 39 244
3 40 245 247
3 245 39 246
3 245 246 247
3 40 7 39
3 40 31 7
3 248 31 249
3 250 249 40
3 248 249 250
3 251 3 252
3 253 252 31
3 251 252 253
3 254 0 255
3 256 0 257
3 256 257 258
3 260 259 0
3 19 261 263
3 263 262 8
3 261 262 263
3 41 264 266
3 266 265 19
3 264 265 266
3 41 267 268
3 41 269 270
3 42 271 273
3 273 272 41
3 271 272 273
3 42 274 275
3 277 276 0
3 278 20 279
3 43 280 282
3 280 20 281
3 280 281 282
3 43 9 20
3 283 43 284
3 44 285 287
3 285 43 286
3 285 286 287
3 44 9 43
3 44 42 9
3 45 42 44
3 45 288 290
3 290 289 42
3 288 289 290
3 23 291 293
3 293 292 4
3 291 292 293
3 295 294 23
3 296 21 297
3 46 298 300
3 298 21 299
3 298 299 300
3 46 10 21
3 25 46 11
3 47 46 25
3 47 10 46
3 47 45 10
3 301 45 302
3 303 302 47
3 301 302 303
3 305 304 45
3 307 306 12
3 34 308 310
3 310 309 1
3 308 309 310
3 312 311 34
3 314 313 5
3 26 315 316
3 318 317 26
3 48 319 320
3 48 321 322
3 323 13 324
3 325 13 326
3 327 48 328
3 329 328 13
3 327 328 329
3 49 330 332
3 330 48 331
3 330 331 332
3 49 333 335
3 335 334 48
3 333 334 335
3 49 336 338
3 336 17 337
3 336 337 338
3 50 17 49
3 50 6 17
3 339 50 340
3 51 341 343
3 341 50 342
3 341 342 343
3 51 6 50
3 51 344 346
3 346 345 6
3 344 345 346
3 52 347 349
3 349 348 51
3 347 348 349
3 52 350 351
3 53 352 353
3 53 354 355
3 53 356 358
3 356 52 357
3 356 357 358
3 359 52 360
3 361 360 53
3 359 360 361
3 363 362 52
3 365 364 14
3 29 366 368
3 366 367 368
3 370 369 29
3 38 30 2
3 54 30 38
3 54 15 30
3 32 54 7
3 371 54 372
3 373 372 32
3 371 372 373
3 374 15 375
3 376 375 54
3 374 375 376
3 379 378 15
3 377 378 379
3 380 3 381
3 55 382 383
3 55 384 386
3 384 3 385
3 384 385 386
3 55 387 389
3 389 388 3
3 387 388 389
3 391 390 55
