ply
format ascii 1.0
element vertex 212
property float x
property float y
property float z
element face 185
property list uchar int vertex_index
end_header
11.599033 -73.720734 76.648445
7.671352 -65.794312 81.985474
13.824551 -76.328262 73.273376
5.991053 -61.143021 84.790695
7.510494 -74.966309 76.57608
9.627493 -78.295105 73.565613
9.542223 -70.103668 79.324707
5.840673 -70.695549 79.137756
3.02424 -70.482414 78.037827
12.20149 -80.428833 69.578049
12.689457 -75.161591 75.090073
5.188519 -58.776726 86.071259
8.515215 -63.2742 83.212242
9.529545 -65.481201 81.780746
10.574183 -67.585297 80.439156
8.581396 -68.011887 80.62722
7.595821 -70.494759 79.330696
6.765856 -68.269882 80.628456
8.875315 -80.460114 71.709473
10.858898 -79.51136 71.716476
10.222719 -81.57357 69.733376
7.530258 -61.000919 84.696861
6.811342 -63.492798 83.39415
6.011108 -65.941383 81.956856
5.323408 -63.549908 83.283798
9.805258 -83.57357 67.593979
9.487524 -74.434319 76.699471
10.550068 -76.047974 75.215714
8.511478 -76.772476 75.164291
7.670746 -79.029114 73.420685
12.719639 -71.318825 77.864975
11.641239 -69.545593 79.160423
10.549585 -72.022354 78.027634
8.503023 -72.567215 78.042503
6.621531 -72.922012 77.877571
5.163429 -68.342529 80.396179
4.30884 -70.692253 78.712799
3.489475 -72.984657 76.899956
11.692638 -77.376114 73.509499
12.917717 -78.413162 71.523651
14.226574 -79.184624 69.234055
11.697626 -82.391907 67.466125
13.645191 -81.087494 67.138756
12.144245 -74.441162 75.869259
13.245323 -74.013943 75.768593
12.700111 -73.293514 76.547779
4.780668 -57.599655 86.595089
5.387671 -57.58353 86.7477
4.217718 -57.564224 86.355961
4.625568 -58.741295 85.832131
4.780668 -57.599655 86.595089
9.274337 -82.05893 69.702828
9.549017 -81.016842 70.721425
8.600634 -81.502202 70.690876
14.902537 -75.769538 73.074687
14.354893 -75.246025 74.040047
14.41848 -76.780483 72.214165
14.902537 -75.769538 73.074687
6.760656 -61.07197 84.743778
7.046057 -59.848131 85.419445
6.276455 -59.919182 85.466362
6.766125 -79.280312 73.238846
7.142933 -78.160096 74.167492
7.338234 -80.113751 72.451054
6.766125 -79.280312 73.238846
13.284215 -70.084789 78.370098
13.843266 -70.90641 77.722191
5.390757 -71.880085 78.320449
5.781187 -72.993316 77.690357
6.231102 -71.80878 78.507664
4.872927 -67.126632 81.022045
5.587269 -67.141956 81.176518
5.296766 -65.92606 81.802383
3.66654 -70.587333 78.375313
4.055837 -69.457454 79.305371
3.413537 -69.352535 78.967884
2.655653 -71.583484 77.050827
2.888271 -72.834606 76.481892
3.256857 -71.733536 77.468891
11.555874 -83.358338 66.346355
10.751442 -82.982739 67.530052
10.60969 -83.949169 66.410282
14.40976 -81.321797 65.774567
13.460576 -82.028786 66.02034
14.631377 -80.416664 66.893513
14.40976 -81.321797 65.774567
13.787346 -74.662689 74.948395
13.245323 -74.013943 75.768593
13.257004 -75.744926 74.181725
14.354893 -75.246025 74.040047
13.787346 -74.662689 74.948395
5.875188 -58.736035 86.106644
5.387671 -57.58353 86.7477
5.589786 -59.959874 85.430977
6.276455 -59.919182 85.466362
5.875188 -58.736035 86.106644
4.936322 -59.952713 85.300927
5.337588 -61.13586 84.660644
5.589786 -59.959874 85.430977
4.936322 -59.952713 85.300927
4.625568 -58.741295 85.832131
7.062807 -76.128693 75.74519
6.608805 -75.125343 76.414692
9.456072 -63.092168 83.005554
8.89003 -61.995018 83.757439
9.963237 -64.195669 82.289806
9.456072 -63.092168 83.005554
9.02238 -64.377701 82.496494
10.537873 -65.251373 81.591232
9.963237 -64.195669 82.289806
10.051864 -66.533249 81.109951
11.060192 -66.303421 80.920437
10.537873 -65.251373 81.591232
2.863832 -69.198261 78.579605
3.413537 -69.352535 78.967884
2.512456 -70.278893 77.575333
2.863832 -69.198261 78.579605
7.838917 -59.737104 85.269993
7.046057 -59.848131 85.419445
8.397551 -60.858378 84.499748
7.838917 -59.737104 85.269993
8.022737 -62.13756 83.954552
8.89003 -61.995018 83.757439
8.397551 -60.858378 84.499748
4.952916 -64.730322 82.465855
5.296766 -65.92606 81.802383
5.667258 -64.745645 82.620327
5.003766 -62.339304 83.907196
5.65723 -62.346464 84.037247
5.337588 -61.13586 84.660644
4.703151 -63.49395 83.062691
5.003766 -62.339304 83.907196
4.952916 -64.730322 82.465855
4.703151 -63.49395 83.062691
8.902454 -84.062839 67.542797
9.065606 -83.05893 68.633129
9.709689 -84.549908 66.46793
8.902454 -84.062839 67.542797
10.514121 -84.925507 65.284233
10.60969 -83.949169 66.410282
9.709689 -84.549908 66.46793
7.563299 -77.031777 75.039295
8.010986 -75.869393 75.870186
7.062807 -76.128693 75.74519
8.091112 -77.900795 74.292488
7.563299 -77.031777 75.039295
7.142933 -78.160096 74.167492
7.940518 -80.829251 71.595448
8.273031 -79.744614 72.565079
7.338234 -80.113751 72.451054
8.600634 -81.502202 70.690876
7.940518 -80.829251 71.595448
13.260414 -72.09256 77.156044
13.843266 -70.90641 77.722191
12.159336 -72.519779 77.25671
12.700111 -73.293514 76.547779
13.260414 -72.09256 77.156044
11.638429 -67.29982 80.276745
11.060192 -66.303421 80.920437
12.171957 -68.279968 79.637378
11.638429 -67.29982 80.276745
11.107711 -68.565445 79.79979
12.745015 -69.198173 79.017822
12.171957 -68.279968 79.637378
12.180439 -70.432209 78.512699
13.284215 -70.084789 78.370098
12.745015 -69.198173 79.017822
6.164324 -74.103195 77.065438
6.608805 -75.125343 76.414692
7.066012 -73.94416 77.226826
6.164324 -74.103195 77.065438
5.781187 -72.993316 77.690357
4.483131 -68.282592 80.147061
4.872927 -67.126632 81.022045
4.736135 -69.517391 79.554489
4.483131 -68.282592 80.147061
4.055837 -69.457454 79.305371
4.624841 -71.878437 78.107971
5.390757 -71.880085 78.320449
5.074756 -70.693901 78.925277
4.215159 -73.024639 77.201549
4.624841 -71.878437 78.107971
3.899158 -71.838455 77.806377
3.800001 -74.176372 76.30645
4.215159 -73.024639 77.201549
3.117812 -74.097808 75.924572
3.800001 -74.176372 76.30645
3.117812 -74.097808 75.924572
2.888271 -72.834606 76.481892
2.655653 -71.583484 77.050827
2.512456 -70.278893 77.575333
13.965063 -77.822933 71.339302
14.41848 -76.780483 72.214165
13.371134 -77.370712 72.398514
14.619491 -78.208664 70.194504
13.965063 -77.822933 71.339302
13.572145 -78.798893 70.378853
15.244838 -78.550602 68.982597
14.619491 -78.208664 70.194504
10.013988 -82.57357 68.663678
9.274337 -82.05893 69.702828
9.065606 -83.05893 68.633129
12.486794 -82.680993 66.184024
11.555874 -83.358338 66.346355
12.671409 -81.7397 67.302441
12.486794 -82.680993 66.184024
13.460576 -82.028786 66.02034
14.922069 -79.465229 67.941162
13.935882 -80.136059 68.186406
14.631377 -80.416664 66.893513
15.244838 -78.550602 68.982597
14.922069 -79.465229 67.941162
3 0 43 45
3 43 10 44
3 43 44 45
3 46 11 47
3 50 49 11
3 48 49 50
3 1 13 12
3 1 15 13
3 1 17 15
3 51 20 52
3 53 52 18
3 51 52 53
3 2 54 55
3 2 56 57
3 3 58 60
3 58 21 59
3 58 59 60
3 3 22 21
3 3 24 22
3 4 28 26
3 61 29 62
3 64 63 29
3 65 30 66
3 6 31 14
3 6 32 31
3 6 33 32
3 7 34 16
3 7 67 69
3 69 68 34
3 67 68 69
3 70 35 71
3 72 71 23
3 70 71 72
3 8 73 75
3 73 36 74
3 73 74 75
3 8 37 36
3 8 76 78
3 78 77 37
3 76 77 78
3 5 38 27
3 9 39 19
3 9 40 39
3 79 41 80
3 81 80 25
3 79 80 81
3 82 42 83
3 85 84 42
3 10 86 87
3 10 88 90
3 88 2 89
3 88 89 90
3 11 91 92
3 11 93 95
3 93 3 94
3 93 94 95
3 11 96 98
3 98 97 3
3 96 97 98
3 100 99 11
3 102 101 4
3 12 103 104
3 13 105 107
3 107 106 12
3 105 106 107
3 13 108 109
3 13 110 112
3 110 14 111
3 110 111 112
3 15 14 13
3 15 6 14
3 15 16 6
3 17 16 15
3 17 7 16
3 113 8 114
3 116 115 8
3 18 19 5
3 20 19 18
3 20 9 19
3 21 117 118
3 21 119 120
3 21 121 123
3 121 12 122
3 121 122 123
3 22 12 21
3 22 1 12
3 22 23 1
3 24 23 22
3 24 124 126
3 126 125 23
3 124 125 126
3 127 24 128
3 129 128 3
3 127 128 129
3 130 24 131
3 133 132 24
3 134 25 135
3 136 25 137
3 140 139 25
3 138 139 140
3 26 27 0
3 28 27 26
3 28 5 27
3 141 28 142
3 143 142 4
3 141 142 143
3 29 144 146
3 144 28 145
3 144 145 146
3 29 5 28
3 29 18 5
3 147 18 148
3 149 148 29
3 147 148 149
3 151 150 18
3 30 152 153
3 30 154 156
3 154 0 155
3 154 155 156
3 14 157 158
3 31 159 161
3 161 160 14
3 159 160 161
3 31 162 163
3 31 164 166
3 164 30 165
3 164 165 166
3 32 30 31
3 32 0 30
3 32 26 0
3 33 26 32
3 33 4 26
3 16 33 6
3 34 33 16
3 34 4 33
3 34 167 169
3 169 168 4
3 167 168 169
3 171 170 34
3 23 17 1
3 35 17 23
3 35 7 17
3 172 35 173
3 36 174 176
3 174 35 175
3 174 175 176
3 36 7 35
3 36 177 179
3 179 178 7
3 177 178 179
3 37 180 182
3 182 181 36
3 180 181 182
3 37 183 184
3 37 185 186
3 188 187 37
3 190 189 8
3 27 10 0
3 38 10 27
3 38 2 10
3 19 38 5
3 39 38 19
3 39 2 38
3 39 191 193
3 193 192 2
3 191 192 193
3 40 194 196
3 196 195 39
3 194 195 196
3 40 197 198
3 25 199 201
3 199 20 200
3 199 200 201
3 41 20 25
3 41 9 20
3 202 41 203
3 42 204 206
3 204 41 205
3 204 205 206
3 42 9 41
3 42 40 9
3 207 40 208
3 209 208 42
3 207 208 209
3 211 210 40
