ply
format ascii 1.0
element vertex 329
property float x
property float y
property float z
element face 286
property list uchar int vertex_index
end_header
-63.001595 -22.489141 -19.99498
-62.006313 -0.024712 -25.732609
-63.519894 -10.819081 -23.42971
-63.330482 -23.838373 -15.952736
-64.169724 -13.421401 -18.396557
-63.924774 -8.336883 -19.134686
-60.84034 3.309713 -31.78643
-62.414696 -2.306402 -30.351856
-64.094597 -20.965462 -24.115128
-60.378292 4.234814 -26.791424
-58.732956 8.051405 -32.990795
-63.859512 -18.704556 -17.398903
-63.472095 -16.656307 -21.907524
-64.10614 -14.646074 -26.489304
-63.030247 -5.179172 -24.665237
-63.521683 -8.379034 -28.581745
-60.095428 4.759466 -34.799259
-61.144386 1.947392 -34.033058
-59.639042 6.225399 -29.878307
-65.368828 -18.635441 -13.649317
-64.435677 -19.786037 -15.301596
-64.652466 -17.300026 -15.712763
-63.749615 -12.097436 -20.876461
-63.697754 -14.874787 -20.292969
-63.561775 -13.72648 -22.710735
-63.689129 -15.648048 -24.209141
-63.64587 -12.600513 -25.148834
-62.528736 -1.856922 -22.752865
-62.586819 -2.517942 -25.210865
-62.899143 -4.095563 -32.194756
-63.027149 -5.30574 -29.510139
-63.605469 -7.24404 -31.121632
-64.183128 -10.44025 -29.960926
-64.417442 -9.458454 -32.307919
-64.471054 -8.59734 -34.616463
-65.365707 -13.988445 -14.006876
-64.756157 -14.809889 -16.040709
-64.124985 -10.83491 -18.784184
-63.662216 -9.369496 -21.390881
-61.457581 1.704935 -28.754955
-62.146343 -0.916388 -28.157417
-61.687832 0.581476 -31.107479
-62.666397 -3.006784 -34.834209
-61.528797 -1.352953 -39.955948
-64.970108 -20.166067 -26.105797
-61.844105 0.265778 -23.229988
-61.275826 2.245157 -26.252125
-60.627342 4.105623 -29.321011
-58.922409 7.358265 -35.481331
-64.169083 -22.197065 -14.792124
-63.586151 -21.315094 -16.744171
-63.265343 -20.452486 -18.840298
-64.071518 -16.057928 -17.942776
-63.523945 -17.670467 -19.620445
-63.271534 -19.585243 -21.007206
-63.597912 -18.702494 -23.186157
-64.173203 -17.806044 -25.337418
-64.877411 -16.912582 -27.4422
-63.430752 -6.725113 -21.858566
-63.341797 -7.959531 -24.076767
-62.707607 -3.701573 -27.508804
-63.147549 -6.601707 -26.795532
-63.463181 -9.577789 -26.010067
-63.886234 -11.498916 -27.572308
-57.619312 9.677475 -36.100399
-60.267692 3.952807 -35.856274
-59.62726 5.389255 -36.28454
-63.064339 -23.624251 -20.422926
-62.861902 -23.916224 -19.424366
-63.198748 -22.117672 -21.033009
-63.064339 -23.624251 -20.422926
-65.051129 -16.794225 -14.783639
-65.010647 -17.967734 -14.68104
-65.40931 -17.461932 -13.751916
-63.60624 -6.725957 -32.370062
-63.252306 -5.669802 -31.658194
-63.253077 -5.151718 -32.906624
-64.012226 -7.833163 -32.963206
-64.011455 -8.351247 -31.714776
-63.60624 -6.725957 -32.370062
-64.039032 -7.402607 -34.117478
-64.444248 -9.027897 -33.462191
-64.012226 -7.833163 -32.963206
-63.039988 -24.841366 -16.412321
-63.262107 -25.040759 -15.464109
-63.156093 -23.512616 -16.942601
-63.039988 -24.841366 -16.412321
-65.037743 -13.178497 -15.157069
-65.232067 -12.887528 -14.070621
-64.024879 -9.585897 -18.959435
-64.310173 -10.427703 -17.664057
-64.210068 -9.17869 -17.839308
-61.610935 0.463727 -33.599968
-61.37668 1.034837 -34.984327
-62.137686 -1.442251 -35.384902
-62.371941 -2.013361 -34.000543
-62.450254 -2.543506 -36.128
-62.137686 -1.442251 -35.384902
-60.749525 0.236113 -40.624695
-61.227711 -0.135601 -39.301403
-60.241785 0.48792 -41.864673
-61.021057 -1.101147 -41.195926
-60.749525 0.236113 -40.624695
-64.498878 -22.190269 -24.41621
-63.996309 -22.537095 -23.464444
-64.532353 -20.565765 -25.110462
-64.936634 -21.790572 -25.411545
-64.498878 -22.190269 -24.41621
-61.663386 0.07184 -22.016149
-62.098219 -0.773362 -21.759175
-60.681954 3.172611 -25.274203
-60.158504 3.933286 -25.569891
-60.827059 3.239985 -26.521774
-61.130721 2.177782 -25.004553
-60.681954 3.172611 -25.274203
-59.296316 6.936101 -32.698715
-59.749359 6.023098 -31.142471
-59.185999 7.138402 -31.434551
-58.827683 7.704835 -34.236063
-59.391042 6.589531 -33.943983
-59.296316 6.936101 -32.698715
-64.663937 -21.579212 -14.08682
-64.524121 -22.675774 -13.928354
-63.2305 -5.952143 -23.261902
-63.242506 -5.465013 -22.081297
-63.042254 -4.692043 -23.484633
-64.398029 -12.053687 -29.345263
-64.630191 -11.59205 -30.444132
-56.940794 10.371744 -37.637808
-56.903284 10.662859 -36.387878
-57.692381 9.179837 -37.309147
-56.940794 10.371744 -37.637808
-63.642069 -24.138395 -15.054796
-63.262107 -25.040759 -15.464109
-64.015709 -8.072792 -17.962052
-64.210068 -9.17869 -17.839308
-60.792171 2.546771 -35.473173
-60.619907 3.353429 -34.416158
-60.267692 3.952807 -35.856274
-61.37668 1.034837 -34.984327
-60.792171 2.546771 -35.473173
-63.745249 -21.355832 -23.093083
-63.996309 -22.537095 -23.464444
-59.838453 5.06383 -27.079826
-60.158504 3.933286 -25.569891
-59.468829 6.059123 -28.623268
-60.008667 5.230106 -28.334865
-59.838453 5.06383 -27.079826
-59.059599 7.116166 -30.162616
-59.468829 6.059123 -28.623268
-58.606556 8.029169 -31.71886
-59.185999 7.138402 -31.434551
-59.059599 7.116166 -30.162616
-64.902253 -19.210739 -14.475456
-64.797234 -20.373698 -14.341556
-65.263809 -19.7984 -13.515417
-62.791498 -3.030918 -22.528447
-62.785877 -2.817171 -21.304104
-62.820539 -3.361428 -23.757447
-62.791498 -3.030918 -22.528447
-62.557778 -2.187432 -23.981865
-62.808533 -3.848557 -24.938051
-63.042254 -4.692043 -23.484633
-62.820539 -3.361428 -23.757447
-64.747348 -11.101152 -31.617628
-64.630191 -11.59205 -30.444132
-64.300285 -9.949352 -31.134422
-64.892444 -10.68941 -32.699507
-64.747348 -11.101152 -31.617628
-64.919251 -10.258852 -33.853779
-64.892444 -10.68941 -32.699507
-64.444248 -9.027897 -33.462191
-64.92305 -9.920563 -34.925837
-64.919251 -10.258852 -33.853779
-62.99165 -22.838 -18.963723
-62.861902 -23.916224 -19.424366
-65.060932 -14.399167 -15.023792
-65.102974 -15.549156 -14.947612
-65.407749 -15.138434 -13.930695
-64.732968 -13.589219 -16.173985
-65.060932 -14.399167 -15.023792
-65.037743 -13.178497 -15.157069
-64.439751 -12.894975 -17.351909
-64.462941 -14.115645 -17.218633
-64.732968 -13.589219 -16.173985
-64.417382 -11.60173 -17.545723
-64.310173 -10.427703 -17.664057
-64.147355 -12.128156 -18.59037
-64.439751 -12.894975 -17.351909
-64.417382 -11.60173 -17.545723
-61.882658 -0.219231 -32.137178
-61.416109 1.264434 -32.570268
-61.610935 0.463727 -33.599968
-62.24609 -1.66317 -31.759367
-62.051264 -0.862463 -30.729668
-61.882658 -0.219231 -32.137178
-62.488314 -2.557751 -32.680817
-62.65692 -3.200983 -31.273306
-62.24609 -1.66317 -31.759367
-62.78277 -3.551173 -33.514482
-62.488314 -2.557751 -32.680817
-62.371941 -2.013361 -34.000543
-63.136704 -4.607329 -34.226351
-63.253077 -5.151718 -32.906624
-62.78277 -3.551173 -33.514482
-63.043242 -4.160019 -35.452255
-63.136704 -4.607329 -34.226351
-63.043242 -4.160019 -35.452255
-62.450254 -2.543506 -36.128
-61.881455 -1.71659 -38.688869
-61.227711 -0.135601 -39.301403
-62.244177 -2.977078 -39.218298
-61.881455 -1.71659 -38.688869
-61.85313 -2.726959 -40.405115
-62.244177 -2.977078 -39.218298
-61.85313 -2.726959 -40.405115
-61.021057 -1.101147 -41.195926
-65.470467 -21.439614 -26.332857
-65.436993 -23.064119 -25.638605
-64.936634 -21.790572 -25.411545
-65.416229 -19.773364 -27.07457
-65.470467 -21.439614 -26.332857
-62.440534 -1.834712 -21.520613
-62.785877 -2.817171 -21.304104
-62.18642 -0.795572 -22.991426
-62.440534 -1.834712 -21.520613
-62.098219 -0.773362 -21.759175
-61.41486 1.188092 -23.493485
-61.663386 0.07184 -22.016149
-61.559966 1.255467 -24.741056
-61.41486 1.188092 -23.493485
-61.130721 2.177782 -25.004553
-60.243509 4.96321 -30.863823
-60.133192 5.165511 -29.599659
-59.749359 6.023098 -31.142471
-60.350008 4.565255 -32.096533
-60.733841 3.707668 -30.55372
-60.243509 4.96321 -30.863823
-59.977552 5.290131 -33.602947
-60.467884 4.03459 -33.292845
-60.350008 4.565255 -32.096533
-59.508919 6.058865 -35.140295
-59.977552 5.290131 -33.602947
-59.391042 6.589531 -33.943983
-59.040751 6.688655 -36.625576
-59.62726 5.389255 -36.28454
-59.508919 6.058865 -35.140295
-65.747436 -19.37211 -12.712921
-65.263809 -19.7984 -13.515417
-65.769581 -18.260578 -12.757925
-65.747436 -19.37211 -12.712921
-65.40931 -17.461932 -13.751916
-65.769581 -18.260578 -12.757925
-65.69421 -14.851195 -12.961466
-65.407749 -15.138434 -13.930695
-65.519104 -13.817699 -12.975041
-65.69421 -14.851195 -12.961466
-65.232067 -12.887528 -14.070621
-65.519104 -13.817699 -12.975041
-64.061369 -23.31774 -14.47449
-64.524121 -22.675774 -13.928354
-63.749783 -23.017719 -15.37243
-63.642069 -24.138395 -15.054796
-64.061369 -23.31774 -14.47449
-64.30238 -20.991551 -15.04686
-64.663937 -21.579212 -14.08682
-64.797234 -20.373698 -14.341556
-63.283928 -22.250977 -17.338318
-63.156093 -23.512616 -16.942601
-63.458317 -22.576733 -16.348454
-63.123524 -21.819672 -18.386381
-63.283928 -22.250977 -17.338318
-63.425747 -20.88379 -17.792234
-63.133469 -21.470813 -19.417639
-62.99165 -22.838 -18.963723
-63.123524 -21.819672 -18.386381
-64.704312 -16.054958 -15.876736
-65.051129 -16.794225 -14.783639
-65.102974 -15.549156 -14.947612
-63.333718 -20.665723 -21.539122
-63.198748 -22.117672 -21.033009
-63.136565 -21.037192 -20.501093
-63.496907 -20.224348 -22.628597
-63.333718 -20.665723 -21.539122
-63.434723 -19.143868 -22.096682
-63.846255 -19.833978 -23.650643
-63.745249 -21.355832 -23.093083
-63.496907 -20.224348 -22.628597
-65.36988 -18.146622 -27.742771
-65.416229 -19.773364 -27.07457
-64.923759 -18.539324 -26.773998
-63.744923 -7.152868 -19.307692
-64.015709 -8.072792 -17.962052
-63.497912 -6.346983 -20.669632
-63.242506 -5.465013 -22.081297
-63.677763 -7.530998 -20.496626
-63.744923 -7.152868 -19.307692
-63.497912 -6.346983 -20.669632
-64.249582 -12.583019 -28.150953
-64.034681 -10.969583 -28.766617
-64.398029 -12.053687 -29.345263
-64.359535 -14.156599 -27.609451
-63.996187 -13.072495 -27.030806
-64.249582 -12.583019 -28.150953
-64.745171 -15.289853 -28.0859
-64.491775 -15.779328 -26.965752
-64.359535 -14.156599 -27.609451
-65.220791 -16.483342 -28.471331
-64.745171 -15.289853 -28.0859
-65.36988 -18.146622 -27.742771
-65.220791 -16.483342 -28.471331
-63.94557 -6.955298 -35.343382
-64.039032 -7.402607 -34.117478
-64.359359 -8.249379 -35.755913
-63.94557 -6.955298 -35.343382
-64.92305 -9.920563 -34.925837
-64.359359 -8.249379 -35.755913
-58.093108 8.994924 -33.275152
-58.606556 8.029169 -31.71886
-57.536286 9.807958 -34.829954
-56.903284 10.662859 -36.387878
-58.176134 8.86444 -34.545597
-58.093108 8.994924 -33.275152
-57.536286 9.807958 -34.829954
-58.34393 8.020231 -36.999613
-58.27086 8.51787 -35.790865
-57.692381 9.179837 -37.309147
-59.040751 6.688655 -36.625576
-58.34393 8.020231 -36.999613
3 66 65 16
3 0 67 68
3 0 69 70
3 71 21 72
3 73 72 19
3 71 72 73
3 2 24 22
3 2 26 24
3 1 28 27
3 74 31 75
3 76 75 29
3 74 75 76
3 77 33 78
3 79 78 31
3 77 78 79
3 80 34 81
3 82 81 33
3 80 81 82
3 3 83 84
3 3 85 86
3 88 87 35
3 5 89 91
3 89 37 90
3 89 90 91
3 5 38 37
3 6 41 39
3 93 92 17
3 94 42 95
3 97 96 42
3 98 43 99
3 102 101 43
3 100 101 102
3 8 103 104
3 8 105 107
3 105 44 106
3 105 106 107
3 108 45 109
3 9 110 111
3 9 112 114
3 112 46 113
3 112 113 114
3 9 47 46
3 10 115 117
3 117 116 18
3 115 116 117
3 10 118 120
3 118 48 119
3 118 119 120
3 121 49 122
3 11 50 20
3 11 51 50
3 4 52 36
3 12 53 23
3 12 54 53
3 12 55 54
3 13 56 25
3 13 57 56
3 14 123 125
3 123 58 124
3 123 124 125
3 14 59 58
3 7 60 40
3 15 61 30
3 15 62 61
3 15 63 62
3 127 126 32
3 128 64 129
3 131 130 64
3 132 3 133
3 134 5 135
3 16 17 6
3 136 17 137
3 138 137 16
3 136 137 138
3 140 139 17
3 141 8 142
3 143 9 144
3 145 18 146
3 147 146 9
3 145 146 147
3 148 18 149
3 150 10 151
3 152 151 18
3 150 151 152
3 19 153 155
3 153 20 154
3 153 154 155
3 21 20 19
3 21 11 20
3 22 23 4
3 24 23 22
3 24 12 23
3 24 25 12
3 26 25 24
3 26 13 25
3 27 156 157
3 28 158 160
3 160 159 27
3 158 159 160
3 28 161 163
3 161 14 162
3 161 162 163
3 29 30 7
3 31 30 29
3 31 15 30
3 31 32 15
3 33 32 31
3 33 164 166
3 166 165 32
3 164 165 166
3 33 167 168
3 34 169 171
3 171 170 33
3 169 170 171
3 34 172 173
3 174 0 175
3 35 176 178
3 176 36 177
3 176 177 178
3 179 36 180
3 181 180 35
3 179 180 181
3 182 4 183
3 184 183 36
3 182 183 184
3 37 185 186
3 37 187 189
3 187 4 188
3 187 188 189
3 37 22 4
3 38 22 37
3 38 2 22
3 39 40 1
3 41 40 39
3 41 7 40
3 17 41 6
3 190 41 191
3 192 191 17
3 190 191 192
3 193 7 194
3 195 194 41
3 193 194 195
3 196 29 197
3 198 197 7
3 196 197 198
3 42 199 201
3 199 29 200
3 199 200 201
3 42 202 204
3 204 203 29
3 202 203 204
3 42 205 206
3 208 207 42
3 43 209 210
3 43 211 212
3 43 213 214
3 216 215 43
3 44 217 219
3 217 218 219
3 44 220 221
3 222 27 223
3 45 224 226
3 224 27 225
3 224 225 226
3 45 1 27
3 227 45 228
3 46 229 231
3 229 45 230
3 229 230 231
3 46 1 45
3 46 39 1
3 47 39 46
3 47 6 39
3 18 47 9
3 232 47 233
3 234 233 18
3 232 233 234
3 235 6 236
3 237 236 47
3 235 236 237
3 238 16 239
3 240 239 6
3 238 239 240
3 48 241 243
3 241 16 242
3 241 242 243
3 48 244 246
3 246 245 16
3 244 245 246
3 247 19 248
3 249 19 250
3 252 251 19
3 253 35 254
3 255 35 256
3 258 257 35
3 49 259 260
3 49 261 263
3 261 3 262
3 261 262 263
3 20 264 266
3 264 49 265
3 264 265 266
3 50 49 20
3 50 3 49
3 50 267 269
3 269 268 3
3 267 268 269
3 51 270 272
3 272 271 50
3 270 271 272
3 51 273 275
3 273 0 274
3 273 274 275
3 36 276 278
3 276 21 277
3 276 277 278
3 52 21 36
3 52 11 21
3 23 52 4
3 53 52 23
3 53 11 52
3 53 51 11
3 54 51 53
3 54 0 51
3 54 279 281
3 281 280 0
3 279 280 281
3 55 282 284
3 284 283 54
3 282 283 284
3 55 285 287
3 285 8 286
3 285 286 287
3 25 55 12
3 56 55 25
3 56 8 55
3 56 44 8
3 57 44 56
3 57 288 290
3 290 289 44
3 288 289 290
3 291 5 292
3 58 293 294
3 58 295 297
3 295 5 296
3 295 296 297
3 58 38 5
3 59 38 58
3 59 2 38
3 40 28 1
3 60 28 40
3 60 14 28
3 30 60 7
3 61 60 30
3 61 14 60
3 61 59 14
3 62 59 61
3 62 2 59
3 62 26 2
3 63 26 62
3 63 13 26
3 32 63 15
3 298 63 299
3 300 299 32
3 298 299 300
3 301 13 302
3 303 302 63
3 301 302 303
3 304 57 305
3 306 305 13
3 304 305 306
3 307 57 308
3 310 309 57
3 311 34 312
3 313 34 314
3 316 315 34
3 317 10 318
3 64 319 320
3 64 321 323
3 321 10 322
3 321 322 323
3 64 48 10
3 324 48 325
3 326 325 64
3 324 325 326
3 328 327 48
