ply
format ascii 1.0
element vertex 183
property float x
property float y
property float z
element face 141
property list uchar int vertex_index
end_header
59.462536 8.458462 34.711159
56.466133 8.276426 39.656025
65.39563 8.091986 21.129536
61.3325 11.685726 21.880909
62.236992 10.235237 25.926136
62.62315 8.093658 29.726557
54.414406 9.765585 40.286648
55.055969 8.190758 42.112007
59.417591 12.547087 24.368576
61.817131 11.023197 23.91824
59.141457 9.87401 32.899769
60.83609 9.696993 30.38866
61.033249 8.387081 32.218483
55.906624 9.817892 37.843136
57.935928 8.392038 37.190369
54.012024 6.488667 46.244659
55.342251 6.508017 43.799603
60.838966 12.285326 19.852179
63.515205 9.981684 21.4809
63.914543 9.339758 23.454758
64.157913 8.5291 25.394115
62.527618 9.269588 27.870754
64.193146 7.510134 27.272259
58.075649 6.750805 38.867126
54.378025 8.191228 43.334621
54.036426 8.993738 42.418037
58.396206 12.841815 25.624737
58.119896 13.282008 24.575896
59.682821 12.144433 25.401869
58.396206 12.841815 25.624737
59.301997 9.166236 33.805464
58.314793 9.87876 34.142044
58.475333 9.170986 35.047739
65.995091 7.291365 20.094777
65.771209 7.542845 19.143197
65.171749 8.343466 20.177956
53.952907 5.584081 47.008167
53.348306 6.525822 47.446483
54.610256 5.601755 45.790229
53.952907 5.584081 47.008167
61.085733 11.985526 20.866544
59.880855 12.78369 21.072366
60.127623 12.483891 22.086731
62.172868 11.098308 20.693005
61.926102 11.398108 19.678641
61.085733 11.985526 20.866544
62.423853 10.833705 21.680904
63.264221 10.246287 20.493001
62.172868 11.098308 20.693005
56.017357 6.558633 42.567938
55.930407 5.664868 43.336802
58.634466 5.933799 38.411678
57.958702 5.861823 39.638206
58.787748 6.808725 37.632148
58.634466 5.933799 38.411678
53.715645 9.781152 41.505358
53.236914 10.542295 40.527887
54.735187 8.978172 41.199327
53.715645 9.781152 41.505358
54.036426 8.993738 42.418037
66.170391 7.041694 21.011329
65.526153 7.765529 22.082551
59.170168 12.914571 23.330565
58.119896 13.282008 24.575896
60.375045 12.116407 23.124742
60.127623 12.483891 22.086731
59.170168 12.914571 23.330565
60.882591 11.382488 25.176701
60.617361 11.785142 24.143408
59.682821 12.144433 25.401869
61.092522 10.988508 26.180649
62.027062 10.629217 24.922188
60.882591 11.382488 25.176701
57.98448 10.548502 33.181082
58.314793 9.87876 34.142044
58.881798 10.492231 31.93716
57.98448 10.548502 33.181082
59.988774 9.785502 31.644215
59.729114 10.403723 30.681606
58.881798 10.492231 31.93716
53.966499 10.503407 39.315542
53.236914 10.542295 40.527887
54.712609 10.52956 38.093787
53.966499 10.503407 39.315542
55.160515 9.791739 39.064892
55.510548 10.526834 36.878826
54.712609 10.52956 38.093787
56.697377 9.850701 36.613727
55.510548 10.526834 36.878826
57.712029 9.137773 36.287344
56.697377 9.850701 36.613727
56.921276 9.104965 37.516752
58.699232 8.42525 35.950764
58.475333 9.170986 35.047739
57.712029 9.137773 36.287344
65.995091 7.291365 20.094777
66.170391 7.041694 21.011329
53.198837 7.396762 46.612291
53.348306 6.525822 47.446483
53.856052 7.340183 45.400948
53.198837 7.396762 46.612291
54.677138 6.498342 45.022131
54.521166 7.349858 44.17842
53.856052 7.340183 45.400948
55.275369 5.611429 44.567701
54.677138 6.498342 45.022131
54.610256 5.601755 45.790229
55.930407 5.664868 43.336802
55.275369 5.611429 44.567701
59.676025 13.146605 20.050089
59.880855 12.78369 21.072366
60.608913 12.584391 18.861365
59.676025 13.146605 20.050089
61.648077 11.637609 18.707152
60.608913 12.584391 18.861365
61.648077 11.637609 18.707152
61.926102 11.398108 19.678641
64.231537 9.288315 20.353638
63.980553 9.552917 19.365739
63.264221 10.246287 20.493001
64.455417 9.036835 21.305218
65.171749 8.343466 20.177956
64.231537 9.288315 20.353638
64.78561 8.389415 23.245162
65.526153 7.765529 22.082551
64.655086 8.715872 22.292147
64.907295 7.984086 24.214841
64.78561 8.389415 23.245162
64.036228 8.934429 24.424436
64.923545 7.560722 25.156128
64.907295 7.984086 24.214841
61.342072 10.521138 27.189554
61.092522 10.988508 26.180649
60.641621 10.252016 29.420816
59.729114 10.403723 30.681606
61.487384 10.038314 28.161863
60.641621 10.252016 29.420816
61.681854 9.483291 29.129707
62.382305 9.752413 26.898445
61.342072 10.521138 27.189554
61.487384 10.038314 28.161863
64.941162 7.051239 26.095199
64.923545 7.560722 25.156128
64.175529 8.019617 26.333187
55.19911 7.349388 42.955805
54.378025 8.191228 43.334621
54.521166 7.349858 44.17842
55.874216 7.400004 41.72414
55.19911 7.349388 42.955805
56.017357 6.558633 42.567938
56.579298 7.442838 40.496149
55.761051 8.233592 40.884016
55.874216 7.400004 41.72414
57.384056 6.680027 40.101699
57.958702 5.861823 39.638206
57.270891 7.513616 39.261575
56.579298 7.442838 40.496149
57.384056 6.680027 40.101699
58.717888 7.629342 36.79377
58.005788 7.571421 38.028747
58.787748 6.808725 37.632148
59.481192 7.662554 35.554165
58.699232 8.42525 35.950764
58.717888 7.629342 36.79377
60.214367 7.667637 34.320875
59.481192 7.662554 35.554165
60.999724 7.631946 33.074537
60.247892 8.422771 33.464821
60.214367 7.667637 34.320875
61.749624 7.54376 31.849016
60.999724 7.631946 33.074537
62.544575 7.397048 30.603053
61.828199 8.240369 30.97252
61.749624 7.54376 31.849016
63.300314 7.180637 29.399409
62.544575 7.397048 30.603053
64.085312 6.888875 28.172261
63.408148 7.801896 28.499408
63.300314 7.180637 29.399409
64.827889 6.51908 27.014965
64.085312 6.888875 28.172261
64.941162 7.051239 26.095199
64.827889 6.51908 27.014965
3 24 7 25
3 26 8 27
3 29 28 8
3 0 30 32
3 30 10 31
3 30 31 32
3 0 12 10
3 1 13 6
3 1 14 13
3 2 33 35
3 33 34 35
3 36 15 37
3 39 38 15
3 3 40 42
3 40 17 41
3 40 41 42
3 3 43 45
3 45 44 17
3 43 44 45
3 3 46 48
3 46 18 47
3 46 47 48
3 4 19 9
3 4 20 19
3 5 21 11
3 5 22 21
3 50 49 16
3 51 23 52
3 54 53 23
3 55 6 56
3 7 57 59
3 57 6 58
3 57 58 59
3 7 1 6
3 61 60 2
3 8 62 63
3 8 64 66
3 64 3 65
3 64 65 66
3 8 9 3
3 67 9 68
3 69 68 8
3 67 68 69
3 70 4 71
3 72 71 9
3 70 71 72
3 10 73 74
3 10 75 76
3 10 77 79
3 77 11 78
3 77 78 79
3 12 11 10
3 12 5 11
3 6 80 81
3 13 82 84
3 84 83 6
3 82 83 84
3 13 85 86
3 13 87 88
3 14 89 91
3 91 90 13
3 89 90 91
3 14 92 94
3 92 0 93
3 92 93 94
3 96 95 2
3 15 97 98
3 15 99 100
3 15 101 103
3 101 16 102
3 101 102 103
3 104 16 105
3 106 105 15
3 104 105 106
3 108 107 16
3 17 109 110
3 17 111 112
3 17 113 114
3 116 115 17
3 18 117 119
3 117 118 119
3 18 120 122
3 120 2 121
3 120 121 122
3 9 18 3
3 19 18 9
3 19 2 18
3 19 123 125
3 125 124 2
3 123 124 125
3 20 126 128
3 128 127 19
3 126 127 128
3 20 129 130
3 131 4 132
3 11 133 134
3 21 135 137
3 137 136 11
3 135 136 137
3 21 138 140
3 138 4 139
3 138 139 140
3 21 20 4
3 22 20 21
3 22 141 143
3 143 142 20
3 141 142 143
3 16 144 146
3 144 7 145
3 144 145 146
3 147 7 148
3 149 148 16
3 147 148 149
3 150 1 151
3 152 151 7
3 150 151 152
3 23 153 154
3 23 155 157
3 155 1 156
3 155 156 157
3 23 14 1
3 158 14 159
3 160 159 23
3 158 159 160
3 161 0 162
3 163 162 14
3 161 162 163
3 164 0 165
3 166 12 167
3 168 167 0
3 166 167 168
3 169 12 170
3 171 5 172
3 173 172 12
3 171 172 173
3 174 5 175
3 176 22 177
3 178 177 5
3 176 177 178
3 179 22 180
3 182 181 22
