ply
format ascii 1.0
element vertex 312
property float x
property float y
property float z
element face 287
property list uchar int vertex_index
end_header
-2.725733 -58.574894 3.758702
-7.012196 -82.973381 20.524376
-8.017303 -70.113129 4.636198
-9.163219 -80.607254 12.313556
-2.750475 -74.149933 20.030643
-4.517588 -71.774597 11.751742
-0.648872 -52.657364 3.75296
-4.916077 -57.096714 0.354098
-7.996157 -81.633194 16.261808
-5.284277 -78.648438 20.319653
-6.052387 -77.329361 16.070841
-1.931242 -66.817047 11.53966
-3.372252 -72.864807 15.780493
-7.148821 -76.267342 12.099067
-8.605165 -75.423981 8.595432
-0.862133 -60.026714 7.517542
-3.516859 -65.675293 7.662637
-6.169491 -70.868896 8.05946
-1.590036 -55.605217 3.726772
-2.804085 -54.867855 1.987303
-3.79657 -57.835354 2.013212
-7.490238 -82.255569 18.362106
-8.372475 -83.817657 16.275677
-7.814356 -84.443375 18.37953
-4.95163 -79.408401 22.498245
-6.311924 -80.809776 20.445192
-6.729755 -80.104393 18.292196
-9.823429 -80.131233 10.515786
-2.57518 -74.863945 22.185844
-3.005045 -73.481979 17.889343
-7.70142 -78.931221 14.164153
-6.550791 -76.771194 14.037382
-8.293793 -78.432648 12.234839
-8.952969 -77.963326 10.434298
-0.121536 -60.717319 9.521282
-2.177269 -62.89238 7.560797
-1.386892 -63.531651 9.516066
-3.200033 -69.362534 11.613988
-3.977255 -68.843826 9.68573
-5.292229 -71.298187 9.863708
-7.432306 -73.227585 8.329041
-6.595566 -73.611145 10.076262
-9.212864 -72.694366 5.041702
-1.492336 -49.11911 2.090935
-2.033613 -51.960205 2.024187
-8.550533 -81.094063 14.238337
-8.976858 -83.289551 14.255445
-3.563377 -77.959976 24.516346
-3.80335 -77.18222 22.334908
-4.054247 -76.44339 20.169189
-4.353689 -75.759766 18.025833
-5.639685 -77.953278 18.172453
-7.184326 -79.481339 16.192024
-0.710564 -64.146988 11.53642
-1.316179 -67.386299 13.576282
-2.554333 -69.906021 13.617093
-4.001715 -61.545902 3.861216
-3.874166 -72.296738 13.727604
-4.738047 -75.137413 15.921577
-5.234676 -74.573929 13.880189
-5.855732 -74.06456 11.926208
-7.840992 -75.812424 10.280883
-9.646317 -77.519623 8.793617
-0.513987 -56.356312 5.571238
0.391745 -57.103966 7.520981
-1.737247 -59.308796 5.594224
-3.059376 -62.229729 5.674938
-4.425089 -65.090454 5.821389
-5.786175 -67.854553 6.038215
-2.673273 -66.248787 9.567846
-4.855007 -68.344368 7.830195
-7.100527 -70.480774 6.323037
-8.326427 -72.927032 6.66153
-6.66206 -81.891579 20.484784
-6.106822 -81.200207 21.542567
-6.456958 -82.282009 21.582159
-8.429761 -69.92347 3.811766
-7.36428 -68.73613 4.468023
-9.746037 -81.482429 11.42297
-10.076142 -81.244419 10.524085
-9.493324 -80.369243 11.414671
-2.060246 -73.282974 21.061599
-1.972599 -73.639981 22.1392
-2.662827 -74.506939 21.108244
-2.116486 -72.941605 19.987896
-2.060246 -73.282974 21.061599
-2.87776 -73.815956 18.959993
-2.243771 -72.607628 18.917245
-2.116486 -72.941605 19.987896
0.177449 -61.044558 10.557673
0.759416 -59.614362 10.606331
-0.45523 -62.451723 10.555065
-0.754214 -62.124485 9.518674
0.177449 -61.044558 10.557673
-10.098901 -73.853527 4.513095
-9.726144 -73.866951 5.270677
-1.341242 -52.308785 2.888573
-0.982496 -50.850506 2.91992
-0.290125 -51.199085 3.784307
-4.516966 -55.625807 0.34873
-3.46097 -54.511377 1.165333
-3.860081 -55.982284 1.170701
-5.486399 -56.728506 -0.436951
-4.516966 -55.625807 0.34873
-8.637853 -84.677139 15.251565
-8.309531 -84.938194 16.261623
-4.08658 -79.087193 24.609963
-3.433038 -78.35617 25.616509
-1.079214 -67.675106 14.622314
-0.530129 -66.353745 14.657107
-1.698291 -68.934967 14.64272
-1.935256 -68.64616 13.596688
-1.079214 -67.675106 14.622314
-5.125962 -62.702011 3.090269
-4.676991 -63.016634 3.95102
-2.34922 -48.843792 1.272852
-2.523118 -50.215483 1.241629
-2.713671 -71.671943 15.733393
-2.537303 -71.975902 16.791831
-3.623209 -72.580772 14.754048
-2.964628 -71.387909 14.706948
-2.713671 -71.671943 15.733393
-10.068832 -78.573822 8.837362
-9.299643 -77.741474 9.613957
-9.722158 -78.795673 9.657702
-10.368539 -78.302147 8.12924
-10.068832 -78.573822 8.837362
0.511282 -55.248778 6.565076
0.02018 -54.873946 5.583508
-0.235194 -58.56534 7.519261
0.750614 -57.466109 8.543864
0.123675 -58.927482 8.542145
-9.011323 -75.290024 7.808183
-8.424894 -74.191826 7.674988
-8.018736 -74.325783 8.462236
-9.467175 -76.288765 7.965599
-9.011323 -75.290024 7.808183
-8.030471 -85.251053 17.313549
-8.309531 -84.938194 16.261623
-8.093415 -84.130516 17.327604
-5.426675 -80.499519 22.569094
-4.780706 -79.811405 23.600912
-5.631777 -80.109088 21.471719
-5.426675 -80.499519 22.569094
-6.106822 -81.200207 21.542567
-10.42467 -80.981701 9.697274
-10.157388 -79.879627 9.698446
-10.42467 -80.981701 9.697274
-10.076142 -81.244419 10.524085
-1.952874 -73.994884 23.210166
-2.507743 -75.237324 23.266004
-1.952874 -73.994884 23.210166
-1.972599 -73.639981 22.1392
-2.353699 -72.284488 17.846256
-2.243771 -72.607628 18.917245
-3.188649 -73.173393 16.834918
-2.537303 -71.975902 16.791831
-2.353699 -72.284488 17.846256
-10.157388 -79.879627 9.698446
-9.722158 -78.795673 9.657702
-9.388199 -79.04728 10.475042
0.493973 -59.272785 9.544015
0.759416 -59.614362 10.606331
-0.491835 -60.372017 8.519412
0.123675 -58.927482 8.542145
0.493973 -59.272785 9.544015
-9.608332 -72.588104 4.244944
-9.010551 -71.297485 4.042193
-8.615084 -71.403748 4.83895
-9.608332 -72.588104 4.244944
-10.098901 -73.853527 4.513095
-0.711858 -49.429958 2.953294
-0.461663 -47.986654 2.986155
-1.762974 -50.539658 2.057561
-0.711858 -49.429958 2.953294
-0.982496 -50.850506 2.91992
-2.793756 -51.63603 1.208255
-2.523118 -50.215483 1.241629
-1.762974 -50.539658 2.057561
-3.075734 -53.057552 1.183775
-2.418849 -53.41403 2.005745
-3.46097 -54.511377 1.165333
-2.793756 -51.63603 1.208255
-3.075734 -53.057552 1.183775
-9.091769 -81.957867 13.286158
-9.398112 -81.714462 12.323767
-8.856876 -80.850659 13.275946
-9.304932 -83.055611 13.294712
-9.091769 -81.957867 13.286158
-8.763696 -82.191807 14.246891
-9.296181 -84.189529 13.28231
-9.304932 -83.055611 13.294712
-8.940044 -84.413086 14.241449
-8.674667 -83.553604 15.265561
-8.637853 -84.677139 15.251565
-9.296181 -84.189529 13.28231
-8.940044 -84.413086 14.241449
-2.935691 -77.164684 25.515079
-2.805352 -77.560879 26.615242
-3.433038 -78.35617 25.616509
-3.001842 -76.785339 24.431255
-2.935691 -77.164684 25.515079
-4.257504 -78.684189 23.507295
-4.08658 -79.087193 24.609963
-4.780706 -79.811405 23.600912
-3.121828 -76.396462 23.340536
-3.001842 -76.785339 24.431255
-3.683364 -77.571098 23.425627
-3.189265 -76.023083 22.260376
-2.507743 -75.237324 23.266004
-3.121828 -76.396462 23.340536
0.112268 -63.066944 12.628879
-0.117065 -62.759392 11.565242
-0.435821 -64.444092 12.575436
0.112268 -63.066944 12.628879
-1.046161 -65.779122 12.577056
-1.320903 -65.482017 11.53804
-0.435821 -64.444092 12.575436
-0.738629 -66.063748 13.595367
-0.530129 -66.353745 14.657107
-1.623711 -67.101673 12.557971
-1.046161 -65.779122 12.577056
-0.738629 -66.063748 13.595367
-4.484688 -61.194328 2.991155
-3.846697 -59.708824 2.939897
-3.363724 -60.060398 3.809959
-4.484688 -61.194328 2.991155
-5.125962 -62.702011 3.090269
-8.429761 -69.92347 3.811766
-9.010551 -71.297485 4.042193
-6.914497 -84.478805 21.649096
-7.150451 -84.076344 20.540875
-6.776242 -83.375843 21.632597
-6.776242 -83.375843 21.632597
-6.456958 -82.282009 21.582159
-1.319037 -47.728645 2.115833
-0.461663 -47.986654 2.986155
-1.319037 -47.728645 2.115833
-2.34922 -48.843792 1.272852
-4.382115 -59.339054 2.067152
-3.261151 -58.205124 2.885957
-3.846697 -59.708824 2.939897
-4.859606 -58.977825 1.233607
-4.382115 -59.339054 2.067152
-5.419359 -58.608505 0.40405
-4.356324 -57.466034 1.183655
-4.859606 -58.977825 1.233607
-5.879323 -58.236407 -0.394839
-5.419359 -58.608505 0.40405
-5.486399 -56.728506 -0.436951
-5.879323 -58.236407 -0.394839
-9.746037 -81.482429 11.42297
-9.398112 -81.714462 12.323767
-7.551531 -84.811341 19.468452
-7.413276 -83.708378 19.451953
-7.150451 -84.076344 20.540875
-7.730151 -85.569565 18.370621
-7.551531 -84.811341 19.468452
-8.030471 -85.251053 17.313549
-7.730151 -85.569565 18.370621
-2.304711 -70.19255 14.651692
-1.698291 -68.934967 14.64272
-3.21425 -71.10138 13.672349
-2.304711 -70.19255 14.651692
-2.964628 -71.387909 14.706948
-9.987751 -77.336586 8.064692
-9.467175 -76.288765 7.965599
-9.125741 -76.471802 8.694524
-9.987751 -77.336586 8.064692
-10.368539 -78.302147 8.12924
0.387193 -51.540776 4.703321
-0.290125 -51.199085 3.784307
-0.047263 -53.024472 4.674369
0.387193 -51.540776 4.703321
-0.517845 -54.498398 4.661275
-1.119454 -54.131291 3.739866
-0.047263 -53.024472 4.674369
-1.052011 -55.980765 4.649005
-0.517845 -54.498398 4.661275
0.02018 -54.873946 5.583508
1.333724 -55.991609 8.578088
0.750614 -57.466109 8.543864
0.964148 -55.622605 7.539947
1.333724 -55.991609 8.578088
-0.061121 -56.730139 6.54611
0.511282 -55.248778 6.565076
0.964148 -55.622605 7.539947
-4.205821 -63.358548 4.857881
-4.676991 -63.016634 3.95102
-3.530545 -61.887816 4.768077
-4.888678 -64.78891 4.931106
-4.205821 -63.358548 4.857881
-3.742233 -63.660091 5.748164
-5.568172 -66.224793 5.060618
-4.888678 -64.78891 4.931106
-6.248715 -67.606842 5.169031
-5.568172 -66.224793 5.060618
-5.105632 -66.472503 5.929802
-6.901739 -68.983841 5.337207
-7.36428 -68.73613 4.468023
-6.248715 -67.606842 5.169031
-1.048728 -63.839319 10.526243
-0.45523 -62.451723 10.555065
-0.117065 -62.759392 11.565242
-9.282926 -73.983284 6.080592
-9.726144 -73.866951 5.270677
-8.769645 -72.810699 5.851616
-8.871955 -74.04155 6.841232
-7.879366 -73.077309 7.495285
-8.424894 -74.191826 7.674988
-9.282926 -73.983284 6.080592
-8.871955 -74.04155 6.841232
3 0 20 18
3 1 23 21
3 1 73 75
3 73 25 74
3 73 74 75
3 1 21 25
3 2 76 77
3 3 78 80
3 80 79 27
3 78 79 80
3 4 81 83
3 83 82 28
3 81 82 83
3 4 84 85
3 4 86 88
3 86 29 87
3 86 87 88
3 3 32 30
3 3 27 32
3 89 34 90
3 91 36 92
3 93 92 34
3 91 92 93
3 5 39 37
3 5 41 39
3 95 94 42
3 6 96 98
3 96 44 97
3 96 97 98
3 7 99 101
3 101 100 19
3 99 100 101
3 7 102 103
3 8 46 45
3 105 104 22
3 106 47 107
3 9 48 24
3 9 49 48
3 9 51 49
3 8 52 26
3 8 45 52
3 108 54 109
3 110 55 111
3 112 111 54
3 110 111 112
3 114 113 56
3 116 115 43
3 12 117 118
3 12 119 121
3 119 57 120
3 119 120 121
3 10 58 50
3 13 59 31
3 13 60 59
3 13 61 60
3 122 62 123
3 124 123 33
3 122 123 124
3 126 125 62
3 127 63 128
3 15 129 131
3 129 64 130
3 129 130 131
3 15 65 64
3 15 66 65
3 16 67 35
3 16 68 67
3 11 69 53
3 17 70 38
3 17 71 70
3 17 72 71
3 14 132 134
3 134 133 40
3 132 133 134
3 14 135 136
3 18 19 6
3 20 19 18
3 20 7 19
3 21 22 8
3 23 22 21
3 23 137 139
3 139 138 22
3 137 138 139
3 140 24 141
3 25 142 144
3 142 24 143
3 142 143 144
3 25 9 24
3 25 26 9
3 21 26 25
3 21 8 26
3 27 145 146
3 148 147 27
3 28 149 150
3 152 151 28
3 29 153 154
3 29 155 157
3 155 12 156
3 155 156 157
3 30 31 10
3 32 31 30
3 32 13 31
3 32 33 13
3 27 33 32
3 27 158 160
3 160 159 33
3 158 159 160
3 34 161 162
3 34 163 165
3 163 15 164
3 163 164 165
3 34 35 15
3 36 35 34
3 36 16 35
3 37 38 11
3 39 38 37
3 39 17 38
3 39 40 17
3 41 40 39
3 41 14 40
3 42 166 168
3 168 167 2
3 166 167 168
3 170 169 42
3 171 43 172
3 44 173 175
3 173 43 174
3 173 174 175
3 44 176 178
3 178 177 43
3 176 177 178
3 19 44 6
3 179 44 180
3 181 180 19
3 179 180 181
3 183 182 44
3 45 184 186
3 186 185 3
3 184 185 186
3 46 187 189
3 189 188 45
3 187 188 189
3 46 190 191
3 22 46 8
3 192 46 193
3 194 193 22
3 192 193 194
3 196 195 46
3 47 197 199
3 197 198 199
3 47 200 201
3 24 202 204
3 202 47 203
3 202 203 204
3 48 47 24
3 48 205 207
3 207 206 47
3 205 206 207
3 48 208 210
3 208 28 209
3 208 209 210
3 49 28 48
3 49 4 28
3 49 50 4
3 51 50 49
3 51 10 50
3 26 51 9
3 52 51 26
3 52 10 51
3 52 30 10
3 45 30 52
3 45 3 30
3 211 53 212
3 213 53 214
3 215 11 216
3 217 216 53
3 215 216 217
3 54 218 219
3 54 220 222
3 220 11 221
3 220 221 222
3 54 37 11
3 55 37 54
3 55 5 37
3 56 223 225
3 225 224 0
3 223 224 225
3 227 226 56
3 229 228 2
3 232 231 1
3 230 231 232
3 233 1 234
3 43 235 236
3 238 237 43
3 239 20 240
3 241 240 0
3 239 240 241
3 242 20 243
3 244 7 245
3 246 245 20
3 244 245 246
3 247 7 248
3 250 249 7
3 252 251 3
3 253 23 254
3 255 254 1
3 253 254 255
3 256 23 257
3 259 258 23
3 260 55 261
3 57 262 264
3 262 55 263
3 262 263 264
3 57 5 55
3 50 29 4
3 58 29 50
3 58 12 29
3 31 58 10
3 59 58 31
3 59 12 58
3 59 57 12
3 60 57 59
3 60 5 57
3 60 41 5
3 61 41 60
3 61 14 41
3 33 61 13
3 62 61 33
3 62 14 61
3 62 265 267
3 267 266 14
3 265 266 267
3 269 268 62
3 270 6 271
3 272 6 273
3 274 18 275
3 276 275 6
3 274 275 276
3 63 277 279
3 277 18 278
3 277 278 279
3 63 0 18
3 64 280 281
3 64 282 283
3 64 284 286
3 284 63 285
3 284 285 286
3 65 63 64
3 65 0 63
3 65 56 0
3 66 56 65
3 66 287 289
3 289 288 56
3 287 288 289
3 35 66 15
3 67 66 35
3 67 290 292
3 292 291 66
3 290 291 292
3 67 293 294
3 68 295 297
3 297 296 67
3 295 296 297
3 68 298 300
3 298 2 299
3 298 299 300
3 53 301 303
3 301 36 302
3 301 302 303
3 69 36 53
3 69 16 36
3 38 69 11
3 70 69 38
3 70 16 69
3 70 68 16
3 71 68 70
3 71 2 68
3 71 42 2
3 72 42 71
3 72 304 306
3 306 305 42
3 304 305 306
3 40 72 17
3 307 72 308
3 309 308 40
3 307 308 309
3 311 310 72
