ply
format ascii 1.0
element vertex 54
property float x
property float y
property float z
element face 39
property list uchar int vertex_index
end_header
-7.095104 -87.457977 20.564932
-6.121305 -89.273407 25.223454
-6.447115 -89.830444 20.579815
-6.993227 -89.033401 18.338438
-5.928801 -91.472702 18.339657
-6.587639 -88.329025 22.853567
-5.978472 -90.742706 22.923035
-5.675308 -91.891662 19.486267
-6.187958 -90.651573 19.459736
-5.934465 -91.070534 20.606346
-6.354472 -88.801216 24.038511
-6.436451 -87.623406 23.985613
-6.203284 -88.095596 25.170556
-7.370525 -87.076866 19.463323
-7.191905 -86.318641 20.561152
-7.305023 -88.703934 17.27089
-6.770717 -89.907173 17.254145
-5.96071 -88.562348 26.359841
-6.203284 -88.095596 25.170556
-6.238504 -91.126824 17.254754
-6.770717 -89.907173 17.254145
-6.461014 -90.253051 18.339047
-6.938391 -86.736 21.684538
-7.191905 -86.318641 20.561152
-6.684659 -87.171524 22.828856
-6.436451 -87.623406 23.985613
-6.841372 -87.893501 21.709249
-6.938391 -86.736 21.684538
-6.684659 -87.171524 22.828856
-5.700143 -91.526665 21.777956
-5.934465 -91.070534 20.606346
-6.212794 -90.286575 21.751425
-5.910654 -89.759957 26.445681
-5.96071 -88.562348 26.359841
-5.855196 -90.500824 25.291483
-5.910654 -89.759957 26.445681
-5.78378 -91.235473 24.141273
-6.049888 -90.008057 24.073245
-5.855196 -90.500824 25.291483
-5.505475 -92.003608 22.982203
-5.78378 -91.235473 24.141273
-5.700143 -91.526665 21.777956
-5.505475 -92.003608 22.982203
-7.319586 -87.864578 18.350076
-7.370525 -87.076866 19.463323
-7.044166 -88.245689 19.451685
-7.319586 -87.864578 18.350076
-7.305023 -88.703934 17.27089
-5.253232 -92.749848 18.360948
-5.675308 -91.891662 19.486267
-5.544939 -92.383553 17.251442
-5.253232 -92.749848 18.360948
-6.238504 -91.126824 17.254754
-5.544939 -92.383553 17.251442
3 7 4 8
3 9 8 2
3 7 8 9
3 1 10 12
3 10 5 11
3 10 11 12
3 1 6 5
3 0 13 14
3 16 15 3
3 17 1 18
3 2 3 0
3 4 3 2
3 4 19 21
3 21 20 3
3 19 20 21
3 22 0 23
3 5 24 25
3 5 26 28
3 26 0 27
3 26 27 28
3 5 2 0
3 6 2 5
3 6 29 31
3 31 30 2
3 29 30 31
3 32 1 33
3 34 1 35
3 36 6 37
3 38 37 1
3 36 37 38
3 39 6 40
3 42 41 6
3 3 43 45
3 45 44 0
3 43 44 45
3 47 46 3
3 48 4 49
3 50 4 51
3 53 52 4
