ply
format ascii 1.0
element vertex 358
property float x
property float y
property float z
element face 341
property list uchar int vertex_index
end_header
63.965462 -0.755936 -21.70075
65.808983 -16.631737 -28.29756
56.666946 13.048172 -31.578508
61.044731 8.403227 -32.319397
63.190933 -11.949158 -21.559767
63.413284 -3.071595 -31.696463
61.158287 4.898516 -41.802475
62.676083 3.919903 -26.954645
66.776787 -12.644592 -32.755951
64.5354 -9.757874 -30.280653
64.86628 -5.568439 -35.109871
62.880089 1.194704 -36.798134
67.188171 -23.5779 -26.088427
68.477928 -19.935482 -30.153124
59.223618 11.903868 -31.983774
58.724457 12.437592 -37.63102
63.839989 -5.936949 -21.831251
63.524567 -14.100807 -25.484938
63.305367 -7.552051 -26.577795
63.161491 -1.369673 -27.03137
62.336975 3.159151 -32.338257
60.861244 7.378521 -37.604462
63.672356 1.308258 -21.586927
62.959152 3.678213 -24.183455
63.344711 1.593655 -24.302916
65.838348 -9.075702 -33.991852
64.576439 -3.64617 -37.526466
55.198296 14.802151 -34.005981
61.262688 8.261147 -29.495821
60.39679 9.806341 -29.346277
60.217323 10.420296 -32.168854
58.994537 12.447752 -34.825027
59.991493 10.495626 -34.991707
63.285683 -14.061043 -19.138762
64.176399 -13.188217 -16.912546
63.805359 -11.058707 -19.288439
64.239838 -8.183664 -19.327829
63.546227 -8.877149 -21.75857
64.993904 -18.6901 -26.098913
63.752045 -17.415812 -24.744028
64.49572 -15.305319 -27.03348
63.957939 -6.379697 -31.078821
63.708969 -8.591102 -28.586824
63.398056 -5.306206 -29.133074
63.247627 -4.388325 -26.885359
63.107506 -2.118835 -29.496874
62.797363 0.913996 -29.681616
62.88279 0.127003 -32.114983
62.189564 3.137457 -39.316963
61.877476 4.385962 -37.312279
60.968559 6.311493 -39.867073
51.235184 18.846653 -41.450874
49.124985 19.684284 -43.531723
62.165215 6.003992 -26.826975
61.924164 6.199621 -29.633768
62.754105 -17.133772 -18.873953
62.841042 -15.095161 -21.231234
66.430977 -14.600533 -30.514872
65.153175 -13.180582 -29.338354
65.629303 -11.087871 -31.657747
64.829781 -7.620414 -32.693352
64.041847 -4.212818 -33.57177
63.267006 -0.88969 -34.254974
63.876823 -2.13674 -36.057976
63.395767 -0.195572 -38.530975
65.558716 -22.075956 -25.108015
66.492737 -20.10047 -27.202845
67.979729 -21.72427 -28.106676
67.220284 -18.148849 -29.316637
67.662796 -16.266947 -31.459139
53.198845 17.701668 -39.194061
59.301567 10.764294 -29.214808
58.042664 12.785213 -31.788546
57.872421 13.8493 -34.597694
57.566414 14.306339 -37.442284
64.667221 -15.267439 -14.652569
64.514702 -5.50726 -19.27677
64.002098 -3.201441 -21.799074
62.992683 -16.222898 -23.116426
63.07048 -12.980146 -23.648283
64.069199 -11.933146 -27.87591
63.384567 -10.803409 -26.105654
63.214149 -9.77467 -24.046835
63.374359 -6.648967 -24.298784
63.492165 -3.660894 -24.407156
63.503464 -0.884224 -24.394846
62.990356 1.42951 -27.040251
62.41983 3.717205 -29.712862
61.738106 5.948853 -32.392242
62.496788 2.309753 -34.724396
61.712547 5.328056 -34.98423
60.88763 8.088106 -35.059875
59.816467 10.09411 -37.698418
63.818909 0.276161 -21.643839
63.997456 0.11073 -20.323172
64.144009 -0.921367 -20.380083
55.932621 13.925161 -32.792244
55.151281 13.77655 -32.661341
55.885607 12.899561 -31.447605
56.638023 13.842205 -32.95329
55.903698 14.719195 -34.167026
55.932621 13.925161 -32.792244
60.448441 6.471562 -42.089546
60.353577 7.178051 -41.121845
61.063423 5.605004 -40.834774
60.469189 5.671358 -43.022827
60.448441 6.471562 -42.089546
50.880558 19.117658 -42.854686
51.937616 18.631624 -41.741592
62.654492 -17.703107 -19.828318
62.515297 -18.684308 -18.68668
62.69796 -16.683802 -21.006958
62.797573 -16.114466 -20.052594
62.654492 -17.703107 -19.828318
63.65712 -1.042631 -39.234905
63.986103 -1.920871 -38.02872
64.247456 -2.76793 -38.73265
62.976862 0.688547 -39.757606
63.65712 -1.042631 -39.234905
47.585585 20.100845 -45.833439
48.013068 19.931711 -44.458011
48.697502 19.853418 -44.907151
66.373444 -22.826928 -25.598221
65.867375 -23.765419 -24.596615
66.682102 -24.516391 -25.086821
68.228829 -20.829876 -29.1299
68.592541 -22.682181 -28.49094
68.841641 -21.787788 -29.514164
53.380749 17.024113 -37.775467
52.482836 17.676585 -38.895786
57.970995 13.312537 -38.923527
57.391974 14.24691 -38.829159
58.145436 13.371965 -37.536652
64.098545 -15.686566 -15.729592
64.301685 -16.677096 -14.618084
64.715618 -12.878964 -15.773238
64.443321 -11.791426 -16.916947
63.71582 0.897619 -20.290081
63.997456 0.11073 -20.323172
63.37611 2.106543 -21.548421
63.71582 0.897619 -20.290081
63.315754 2.493235 -22.885191
63.019509 3.291521 -22.846685
63.37611 2.106543 -21.548421
66.310981 -9.941731 -34.508252
66.307568 -10.860147 -33.373902
66.780201 -11.726176 -33.890301
65.775856 -8.13204 -35.166118
66.310981 -9.941731 -34.508252
65.289822 -6.378408 -35.725128
65.352314 -7.32207 -34.550861
65.775856 -8.13204 -35.166118
65.144902 -5.417274 -36.933425
64.72136 -4.607304 -36.318168
65.289822 -6.378408 -35.725128
64.895329 -4.553306 -38.113937
65.144902 -5.417274 -36.933425
64.247456 -2.76793 -38.73265
64.895329 -4.553306 -38.113937
67.53109 -25.316698 -25.530241
66.682102 -24.516391 -25.086821
67.025021 -26.255189 -24.528635
68.928604 -20.996638 -30.513828
68.841641 -21.787788 -29.514164
69.006637 -20.153731 -31.557216
68.555961 -19.092574 -31.196511
68.928604 -20.996638 -30.513828
54.42173 14.611092 -33.798633
55.151281 13.77655 -32.661341
54.380474 15.574355 -35.181427
54.42173 14.611092 -33.798633
55.096131 15.544197 -35.406513
54.380474 15.574355 -35.181427
55.096131 15.544197 -35.406513
55.903698 14.719195 -34.167026
60.829739 9.033744 -29.421049
60.905938 8.697436 -28.026812
61.338887 7.924839 -28.101584
63.731041 -13.62463 -18.025654
63.853134 -14.646956 -16.859581
63.407776 -15.083368 -17.972689
64.257801 -10.726671 -18.104893
64.443321 -11.791426 -16.916947
63.990879 -12.123462 -18.100493
64.022599 -9.621185 -19.308134
64.475041 -9.28915 -18.124588
64.257801 -10.726671 -18.104893
64.372974 -18.052956 -25.42147
63.916298 -19.072904 -24.329363
64.537228 -19.710048 -25.006805
60.352089 7.78909 -40.025784
60.298431 8.322604 -38.894478
60.914901 6.845007 -38.735767
60.352089 7.78909 -40.025784
60.353577 7.178051 -41.121845
50.180084 19.265469 -42.491298
49.47509 19.184376 -42.109425
50.530189 18.76556 -41.069
49.825458 19.536474 -43.895111
50.180084 19.265469 -42.491298
50.880558 19.117658 -42.854686
48.697502 19.853418 -44.907151
49.825458 19.536474 -43.895111
56.53694 11.971782 -30.277309
55.885607 12.899561 -31.447605
62.630932 4.47881 -24.135845
63.019509 3.291521 -22.846685
62.233963 5.6417 -25.457605
62.630932 4.47881 -24.135845
62.562184 4.841102 -25.505215
61.79015 6.796261 -26.767161
62.233963 5.6417 -25.457605
61.713952 7.132569 -28.161398
61.338887 7.924839 -28.101584
61.79015 6.796261 -26.767161
62.801094 -18.112966 -17.73536
62.515297 -18.684308 -18.68668
63.141987 -16.619733 -17.840284
62.801094 -18.112966 -17.73536
63.019894 -15.597407 -19.006358
63.407776 -15.083368 -17.972689
63.141987 -16.619733 -17.840284
62.373761 2.355061 -40.1506
62.792665 1.470943 -38.923969
62.976862 0.688547 -39.757606
61.858122 3.235591 -41.393356
61.673925 4.017987 -40.559719
62.373761 2.355061 -40.1506
61.956259 2.355447 -42.19677
61.256424 4.018371 -42.605888
61.858122 3.235591 -41.393356
48.44294 19.547825 -43.054863
49.47509 19.184376 -42.109425
48.44294 19.547825 -43.054863
48.013068 19.931711 -44.458011
64.263317 -1.934138 -20.435978
64.144009 -0.921367 -20.380083
65.034832 -23.054015 -24.065722
65.867375 -23.765419 -24.596615
64.819634 -21.402976 -24.511357
65.034832 -23.054015 -24.065722
65.27631 -20.383028 -25.603464
64.537228 -19.710048 -25.006805
64.819634 -21.402976 -24.511357
67.939053 -24.447275 -26.50046
67.53109 -25.316698 -25.530241
68.281971 -26.186073 -25.942274
68.334832 -23.52046 -27.509585
68.592541 -22.682181 -28.49094
67.58395 -22.651085 -27.097552
67.939053 -24.447275 -26.50046
68.334832 -23.52046 -27.509585
68.148395 -17.258306 -31.849519
68.070362 -18.101214 -30.806131
68.555961 -19.092574 -31.196511
67.713322 -15.381849 -32.54889
68.148395 -17.258306 -31.849519
67.270317 -13.570672 -33.197296
67.219791 -14.455769 -32.107545
67.713322 -15.381849 -32.54889
66.780201 -11.726176 -33.890301
67.270317 -13.570672 -33.197296
51.501005 18.249077 -40.024192
50.530189 18.76556 -41.069
50.796011 18.167984 -39.642319
52.217014 18.274161 -40.322468
51.501005 18.249077 -40.024192
52.482836 17.676585 -38.895786
52.919447 18.059131 -40.613186
51.937616 18.631624 -41.741592
52.217014 18.274161 -40.322468
54.096405 16.993955 -38.000553
53.380749 17.024113 -37.775467
53.889511 17.422545 -39.423717
54.096405 16.993955 -38.000553
52.919447 18.059131 -40.613186
53.889511 17.422545 -39.423717
57.317634 12.080061 -30.340418
56.53694 11.971782 -30.277309
60.397694 9.204522 -27.988136
60.905938 8.697436 -28.026812
59.850082 9.683498 -27.922401
60.397694 9.204522 -27.988136
59.849179 10.285317 -29.280543
59.204151 9.891819 -27.90802
59.850082 9.683498 -27.922401
58.634945 10.938122 -29.158568
59.204151 9.891819 -27.90802
58.005494 11.948581 -30.445436
58.634945 10.938122 -29.158568
58.672116 11.774753 -30.501677
57.354805 12.916692 -31.683527
57.317634 12.080061 -30.340418
58.005494 11.948581 -30.445436
57.325882 13.710726 -33.058309
56.638023 13.842205 -32.95329
57.354805 12.916692 -31.683527
57.240761 14.242769 -34.462883
57.325882 13.710726 -33.058309
57.957543 13.317256 -33.19312
57.099495 14.72871 -35.880684
57.240761 14.242769 -34.462883
56.946492 14.95723 -37.302979
57.099495 14.72871 -35.880684
57.719418 14.07782 -36.019989
56.741955 15.131369 -38.718983
56.946492 14.95723 -37.302979
56.741955 15.131369 -38.718983
57.391974 14.24691 -38.829159
64.968849 -16.285495 -13.588344
64.301685 -16.677096 -14.618084
65.265927 -14.990363 -13.56736
64.968849 -16.285495 -13.588344
64.42181 -14.227828 -15.782557
64.098545 -15.686566 -15.729592
63.853134 -14.646956 -16.859581
64.961029 -13.918575 -14.643249
64.42181 -14.227828 -15.782557
64.715618 -12.878964 -15.773238
65.265927 -14.990363 -13.56736
64.961029 -13.918575 -14.643249
64.647309 -7.98872 -18.089857
64.475041 -9.28915 -18.124588
64.78474 -6.650517 -18.064327
64.647309 -7.98872 -18.089857
64.37727 -6.845462 -19.3023
64.828102 -5.486282 -18.007009
64.78474 -6.650517 -18.064327
64.537937 -4.3098 -19.223988
64.828102 -5.486282 -18.007009
64.281635 -3.156891 -20.48514
64.537937 -4.3098 -19.223988
64.2584 -4.35435 -20.537922
63.98378 -1.978689 -21.749912
64.263317 -1.934138 -20.435978
64.281635 -3.156891 -20.48514
63.384659 -18.444725 -23.608871
63.916298 -19.072904 -24.329363
63.004978 -17.848268 -22.795071
63.384659 -18.444725 -23.608871
63.372364 -16.819355 -23.930227
62.773781 -17.24767 -21.949554
63.004978 -17.848268 -22.795071
62.916863 -15.659029 -22.17383
62.69796 -16.683802 -21.006958
62.773781 -17.24767 -21.949554
59.776043 9.680398 -38.941456
60.338856 8.736315 -37.65144
60.298431 8.322604 -38.894478
59.151997 11.008966 -38.994263
59.776043 9.680398 -38.941456
58.605992 12.180707 -38.960564
59.270462 11.265851 -37.664719
59.151997 11.008966 -38.994263
57.970995 13.312537 -38.923527
58.605992 12.180707 -38.960564
60.469189 5.671358 -43.022827
61.256424 4.018371 -42.605888
3 0 93 95
3 93 22 94
3 93 94 95
3 0 24 22
3 2 96 98
3 96 27 97
3 96 97 98
3 2 99 101
3 101 100 27
3 99 100 101
3 3 30 28
3 3 32 30
3 4 35 33
3 4 37 35
3 1 40 38
3 5 43 41
3 5 45 43
3 5 47 45
3 6 50 48
3 6 102 104
3 104 103 50
3 102 103 104
3 6 105 106
3 108 107 51
3 7 53 23
3 7 54 53
3 109 55 110
3 111 56 112
3 113 112 55
3 111 112 113
3 8 59 57
3 10 60 25
3 10 61 60
3 10 63 61
3 114 64 115
3 116 115 26
3 114 115 116
3 118 117 64
3 121 120 52
3 119 120 121
3 12 122 124
3 122 65 123
3 122 123 124
3 12 66 65
3 13 125 127
3 125 67 126
3 125 126 127
3 13 68 67
3 13 69 68
3 128 70 129
3 14 71 29
3 14 72 71
3 14 73 72
3 15 74 31
3 15 130 132
3 132 131 74
3 130 131 132
3 133 75 134
3 136 135 34
3 16 76 36
3 16 77 76
3 17 78 39
3 17 79 78
3 9 80 58
3 18 81 42
3 18 82 81
3 18 83 82
3 19 84 44
3 19 85 84
3 19 86 85
3 20 87 46
3 20 88 87
3 11 89 62
3 21 90 49
3 21 91 90
3 21 92 91
3 22 137 138
3 22 139 140
3 22 141 143
3 141 23 142
3 141 142 143
3 24 23 22
3 24 7 23
3 144 25 145
3 146 145 8
3 144 145 146
3 147 25 148
3 149 10 150
3 151 150 25
3 149 150 151
3 152 26 153
3 154 153 10
3 152 153 154
3 155 26 156
3 158 157 26
3 159 12 160
3 159 160 161
3 162 13 163
3 166 165 13
3 164 165 166
3 27 167 168
3 27 169 170
3 27 171 172
3 174 173 27
3 28 175 177
3 175 29 176
3 175 176 177
3 30 29 28
3 30 14 29
3 30 31 14
3 32 31 30
3 32 15 31
3 33 178 180
3 178 34 179
3 178 179 180
3 35 34 33
3 35 181 183
3 183 182 34
3 181 182 183
3 35 184 186
3 184 36 185
3 184 185 186
3 37 36 35
3 37 16 36
3 38 187 189
3 187 39 188
3 187 188 189
3 40 39 38
3 40 17 39
3 41 42 9
3 43 42 41
3 43 18 42
3 43 44 18
3 45 44 43
3 45 19 44
3 45 46 19
3 47 46 45
3 47 20 46
3 48 49 11
3 50 49 48
3 50 21 49
3 50 190 192
3 192 191 21
3 190 191 192
3 194 193 50
3 51 195 197
3 195 52 196
3 195 196 197
3 198 52 199
3 200 199 51
3 198 199 200
3 202 201 52
3 203 2 204
3 23 205 206
3 53 207 209
3 209 208 23
3 207 208 209
3 53 210 211
3 53 212 214
3 212 28 213
3 212 213 214
3 54 28 53
3 54 3 28
3 55 215 216
3 55 217 218
3 55 219 221
3 219 33 220
3 219 220 221
3 56 33 55
3 56 4 33
3 57 58 1
3 59 58 57
3 59 9 58
3 25 59 8
3 60 59 25
3 60 9 59
3 60 41 9
3 61 41 60
3 61 5 41
3 61 62 5
3 63 62 61
3 63 11 62
3 26 63 10
3 64 63 26
3 64 11 63
3 64 48 11
3 222 48 223
3 224 223 64
3 222 223 224
3 225 6 226
3 227 226 48
3 225 226 227
3 230 229 6
3 228 229 230
3 52 231 232
3 234 233 52
3 235 0 236
3 65 237 238
3 65 239 240
3 65 241 243
3 241 38 242
3 241 242 243
3 66 38 65
3 66 1 38
3 244 12 245
3 244 245 246
3 67 247 248
3 67 249 251
3 249 12 250
3 249 250 251
3 67 66 12
3 68 66 67
3 68 1 66
3 68 57 1
3 69 57 68
3 69 8 57
3 252 69 253
3 254 253 13
3 252 253 254
3 255 69 256
3 257 8 258
3 259 258 69
3 257 258 259
3 261 260 8
3 262 51 263
3 262 263 264
3 70 265 267
3 265 51 266
3 265 266 267
3 70 268 270
3 270 269 51
3 268 269 270
3 271 70 272
3 273 70 274
3 276 275 70
3 277 2 278
3 29 279 280
3 71 281 283
3 283 282 29
3 281 282 283
3 71 284 285
3 71 286 287
3 72 288 290
3 290 289 71
3 288 289 290
3 72 291 293
3 291 2 292
3 291 292 293
3 72 294 296
3 296 295 2
3 294 295 296
3 73 297 299
3 299 298 72
3 297 298 299
3 73 300 301
3 31 73 14
3 74 73 31
3 74 302 304
3 304 303 73
3 302 303 304
3 74 305 306
3 308 307 74
3 75 309 310
3 75 311 312
3 34 313 315
3 313 75 314
3 313 314 315
3 316 75 317
3 318 317 34
3 316 317 318
3 320 319 75
3 36 321 322
3 76 323 325
3 325 324 36
3 323 324 325
3 76 326 327
3 76 328 329
3 77 330 332
3 332 331 76
3 330 331 332
3 77 333 335
3 333 0 334
3 333 334 335
3 39 336 337
3 78 338 340
3 340 339 39
3 338 339 340
3 78 341 342
3 78 343 345
3 343 56 344
3 343 344 345
3 79 56 78
3 79 4 56
3 58 40 1
3 80 40 58
3 80 17 40
3 42 80 9
3 81 80 42
3 81 17 80
3 81 79 17
3 82 79 81
3 82 4 79
3 82 37 4
3 83 37 82
3 83 16 37
3 44 83 18
3 84 83 44
3 84 16 83
3 84 77 16
3 85 77 84
3 85 0 77
3 85 24 0
3 86 24 85
3 86 7 24
3 46 86 19
3 87 86 46
3 87 7 86
3 87 54 7
3 88 54 87
3 88 3 54
3 62 47 5
3 89 47 62
3 89 20 47
3 49 89 11
3 90 89 49
3 90 20 89
3 90 88 20
3 91 88 90
3 91 3 88
3 91 32 3
3 92 32 91
3 92 15 32
3 346 92 347
3 348 347 21
3 346 347 348
3 349 92 350
3 351 15 352
3 353 352 92
3 351 352 353
3 355 354 15
3 357 356 6
