ply
format ascii 1.0
element vertex 140
property float x
property float y
property float z
element face 127
property list uchar int vertex_index
end_header
17.926979 44.286819 55.492805
11.104929 45.093376 63.206886
11.559464 57.976219 52.291214
18.44816 49.924446 50.817863
14.81884 51.131866 54.142555
15.373301 56.813339 48.812698
14.524866 45.05249 59.242233
11.219923 51.733604 57.977455
18.794022 52.588135 48.439941
16.915882 53.337067 49.845657
17.284506 55.998695 47.307671
9.380785 48.175255 62.490608
16.072693 41.680687 59.643585
16.215729 44.718918 57.282829
13.204145 54.581581 53.307686
13.021276 51.55072 56.049324
11.352987 54.912453 55.181763
9.51367 54.942726 57.014328
9.670889 58.162933 54.080193
9.90855 61.25222 51.043831
18.162968 47.152306 53.173958
16.393034 47.684311 54.851555
16.621717 50.561508 52.365982
15.05685 54.028259 51.495529
13.464886 57.499702 50.502754
11.851873 60.912766 49.330734
13.813232 60.294563 47.657761
12.82618 45.202385 61.253883
14.646999 48.13549 56.731659
12.901358 48.419296 58.704178
11.143629 48.454559 60.657043
9.422749 51.607231 59.823311
10.23621 64.197639 47.930511
18.245324 55.564018 46.678596
18.039264 54.293415 47.873806
19.000082 53.858738 47.244732
17.506961 57.266365 46.034108
18.245324 55.564018 46.678596
10.236635 44.880774 64.107704
11.094155 43.381647 64.414707
10.242857 46.634315 62.848747
9.374562 46.421713 63.749565
10.236635 44.880774 64.107704
17.071354 44.502869 56.387817
16.970332 43.031744 57.520847
17.825958 42.815694 56.625835
14.479301 43.475578 60.451161
15.253214 41.789676 60.651837
15.29878 43.366588 59.442909
13.675523 45.127437 60.248058
13.629957 43.550525 61.456986
14.479301 43.475578 60.451161
8.614441 54.776134 57.862667
8.671748 56.466789 56.393822
11.236543 63.954483 47.127079
11.044041 62.555202 48.630623
12.044375 62.312046 47.827191
16.529339 57.737438 46.709614
15.573737 58.14476 47.462127
16.328903 56.406017 48.060184
16.529339 57.737438 46.709614
17.506961 57.266365 46.034108
8.511782 47.855721 63.307632
9.374562 46.421713 63.749565
8.519699 49.646137 61.994465
8.511782 47.855721 63.307632
16.898815 41.512628 58.701225
16.806355 40.011907 59.802548
16.144211 43.199803 58.463207
16.898815 41.512628 58.701225
16.970332 43.031744 57.520847
8.750357 58.076892 54.926754
8.671748 56.466789 56.393822
9.59228 56.55283 55.547261
8.843993 59.701771 53.391976
8.750357 58.076892 54.926754
8.962823 61.246414 51.873795
8.843993 59.701771 53.391976
9.78972 59.707577 52.562012
9.098308 62.796993 50.2849
8.962823 61.246414 51.873795
11.940427 43.505472 63.4477
11.094155 43.381647 64.414707
13.025054 62.002945 46.990704
12.044375 62.312046 47.827191
12.832552 60.603664 48.494248
14.793702 59.885372 46.884659
14.593266 58.553951 48.23523
15.573737 58.14476 47.462127
14.032496 61.625 46.223759
14.793702 59.885372 46.884659
13.025054 62.002945 46.990704
14.032496 61.625 46.223759
18.676901 42.630564 55.807193
17.825958 42.815694 56.625835
18.807949 44.063089 54.734569
18.676901 42.630564 55.807193
18.925943 45.495833 53.575146
18.044973 45.719563 54.333382
18.807949 44.063089 54.734569
19.071964 46.885567 52.480774
18.925943 45.495833 53.575146
19.214561 48.271637 51.302727
18.305564 48.538376 51.995911
19.071964 46.885567 52.480774
19.382308 49.609024 50.192875
19.214561 48.271637 51.302727
19.555239 50.940869 49.003913
18.621091 51.256291 49.628902
19.382308 49.609024 50.192875
19.749243 52.217293 47.883213
19.555239 50.940869 49.003913
19.000082 53.858738 47.244732
19.749243 52.217293 47.883213
16.009287 40.133415 60.784202
16.806355 40.011907 59.802548
16.009287 40.133415 60.784202
15.253214 41.789676 60.651837
12.801053 43.559977 62.471199
13.629957 43.550525 61.456986
11.965554 45.14788 62.230384
11.940427 43.505472 63.4477
12.801053 43.559977 62.471199
8.540681 51.362125 60.660816
8.519699 49.646137 61.994465
9.401767 49.891243 61.156959
8.568981 53.108387 59.267158
9.46821 53.274979 58.418819
8.614441 54.776134 57.862667
8.540681 51.362125 60.660816
8.568981 53.108387 59.267158
9.262137 64.269702 48.72824
9.098308 62.796993 50.2849
10.07238 62.72493 49.487171
10.446779 65.592674 46.346823
11.236543 63.954483 47.127079
9.442691 65.739025 47.097778
10.446779 65.592674 46.346823
9.262137 64.269702 48.72824
9.442691 65.739025 47.097778
3 33 10 34
3 35 34 8
3 33 34 35
3 37 36 10
3 1 38 39
3 1 40 42
3 40 11 41
3 40 41 42
3 0 43 45
3 43 13 44
3 43 44 45
3 2 16 14
3 2 18 16
3 2 19 18
3 3 22 20
3 5 23 9
3 5 24 23
3 5 26 24
3 6 46 48
3 48 47 12
3 46 47 48
3 6 49 51
3 49 27 50
3 49 50 51
3 4 28 21
3 7 29 15
3 7 30 29
3 7 31 30
3 53 52 17
3 54 32 55
3 56 55 25
3 54 55 56
3 8 9 3
3 10 9 8
3 10 5 9
3 10 57 59
3 59 58 5
3 57 58 59
3 61 60 10
3 11 62 63
3 11 64 65
3 66 12 67
3 13 68 70
3 68 12 69
3 68 69 70
3 13 6 12
3 14 15 4
3 16 15 14
3 16 7 15
3 16 17 7
3 18 17 16
3 18 71 73
3 73 72 17
3 71 72 73
3 18 74 75
3 19 76 78
3 78 77 18
3 76 77 78
3 19 79 80
3 81 1 82
3 20 21 0
3 22 21 20
3 22 4 21
3 9 22 3
3 23 22 9
3 23 4 22
3 23 14 4
3 24 14 23
3 24 2 14
3 24 25 2
3 26 25 24
3 26 83 85
3 85 84 25
3 83 84 85
3 86 26 87
3 88 87 5
3 86 87 88
3 89 26 90
3 92 91 26
3 93 0 94
3 95 0 96
3 97 20 98
3 99 98 0
3 97 98 99
3 100 20 101
3 102 3 103
3 104 103 20
3 102 103 104
3 105 3 106
3 107 8 108
3 109 108 3
3 107 108 109
3 110 8 111
3 113 112 8
3 12 114 115
3 117 116 12
3 27 118 119
3 27 120 122
3 120 1 121
3 120 121 122
3 21 13 0
3 28 13 21
3 28 6 13
3 15 28 4
3 29 28 15
3 29 6 28
3 29 27 6
3 30 27 29
3 30 1 27
3 30 11 1
3 31 11 30
3 31 123 125
3 125 124 11
3 123 124 125
3 17 31 7
3 126 31 127
3 128 127 17
3 126 127 128
3 130 129 31
3 25 19 2
3 32 19 25
3 32 131 133
3 133 132 19
3 131 132 133
3 134 32 135
3 136 32 137
3 139 138 32
