ply
format ascii 1.0
element vertex 463
property float x
property float y
property float z
element face 411
property list uchar int vertex_index
end_header
-66.69062 -57.017818 17.005142
-59.763653 -60.233524 2.75519
-55.146751 -65.406128 12.439248
-62.703194 -57.422855 9.48945
-64.958023 -54.874928 25.195692
-64.36425 -60.343681 18.044706
-61.655403 -60.658489 14.354416
-65.268852 -57.135265 13.156497
-66.016922 -53.412476 8.533728
-67.489502 -53.41687 12.256681
-57.4058 -62.97015 7.425006
-54.636269 -67.641525 9.122419
-57.845207 -65.35498 4.348722
-60.956787 -62.531532 -0.140606
-63.492458 -59.046001 -4.493874
-67.593544 -36.688213 -3.758776
-58.879417 -61.374638 10.802597
-60.42762 -58.409515 5.986139
-63.562416 -53.941788 4.930567
-66.428078 -49.500683 4.227912
-66.392212 -56.443417 21.081524
-62.397511 -51.349152 23.943785
-64.8601 -52.978268 20.146708
-67.001472 -53.472652 16.138891
-65.649857 -60.727791 -7.315315
-65.751213 -58.71685 17.489567
-64.825638 -58.826801 15.573444
-66.186523 -57.095181 15.052882
-66.597641 -55.296871 12.67911
-67.099838 -55.303692 14.5961
-58.601761 -61.647137 5.048193
-57.397583 -64.093231 5.845468
-58.81176 -62.787861 3.521657
-59.447296 -64.021271 2.077032
-60.16626 -61.359676 1.270284
-61.405998 -59.794201 -0.925827
-60.838959 -58.715836 0.534358
-67.405701 -43.210373 0.031425
-62.187878 -59.084755 11.888387
-60.183712 -60.926041 12.563566
-60.813377 -59.398655 10.100142
-59.659378 -59.92017 8.352586
-61.43029 -57.807846 7.712549
-61.998371 -56.168858 5.408463
-63.171162 -55.701263 7.168692
-66.16375 -57.496689 23.612656
-65.744522 -55.81049 23.160635
-59.971935 -48.177521 24.656128
-61.531609 -49.998798 25.568369
-60.757515 -49.577568 23.184277
-63.4459 -51.2519 19.599279
-64.978577 -51.592381 17.653204
-66.069702 -53.333782 18.139055
-66.349739 -51.693802 15.694047
-67.364304 -51.642185 13.758503
-65.325424 -63.667297 -6.536991
-64.461731 -62.830357 -5.08832
-61.133259 -62.113297 16.871899
-63.105804 -60.494694 16.176878
-63.588177 -58.920475 13.710917
-64.050308 -57.219097 11.304655
-64.467239 -55.430088 8.97067
-65.673721 -55.315266 10.806807
-66.963928 -53.374043 10.37888
-67.837311 -51.412212 9.995836
-56.234276 -64.21788 9.88992
-56.217155 -66.552551 6.692543
-60.367126 -65.265366 0.688745
-61.975315 -63.676357 -1.510025
-63.401192 -61.897854 -3.697321
-62.31834 -60.874416 -2.324324
-65.208557 -47.946468 0.411654
-65.088348 -46.037811 -1.571356
-56.112804 -64.633232 14.164188
-58.13102 -62.766594 13.326048
-56.971657 -63.37125 11.587613
-57.913734 -62.052963 9.083189
-58.889153 -60.674362 6.662245
-59.846519 -59.22937 4.328435
-61.141911 -56.845085 3.705462
-62.484386 -54.490456 3.187652
-63.851601 -52.157101 2.77204
-64.812897 -53.58836 6.716512
-65.063278 -51.71957 4.543263
-65.199203 -49.837997 2.445314
-67.551773 -45.250408 1.965954
-66.278946 -58.506386 19.47168
-66.396606 -58.120522 21.519844
-66.744705 -56.824593 19.018354
-62.971756 -51.813618 26.390144
-63.828972 -53.121742 24.614639
-61.969891 -50.597214 21.470097
-63.567612 -52.334427 22.107273
-64.855438 -54.080704 22.667042
-65.865791 -54.719177 20.633848
-66.672363 -55.089806 18.584934
-67.117264 -55.259956 16.565498
-67.502815 -53.474194 14.175362
-66.445381 -61.444672 -8.803204
-66.596008 -58.44627 -9.567789
-64.610497 -59.932594 -5.89003
-65.591705 -57.788155 -8.099199
-67.270874 -42.188629 -0.911722
-67.819336 -42.057732 -0.050724
-65.327095 -55.730317 25.449174
-65.050018 -55.115252 26.456588
-65.351272 -55.342709 24.178164
-65.720345 -56.198098 24.431646
-65.327095 -55.730317 25.449174
-59.484209 -47.999157 23.506828
-59.168036 -47.268771 24.173271
-59.876999 -48.69918 22.770903
-60.364725 -48.877544 23.920203
-59.484209 -47.999157 23.506828
-65.089455 -50.776961 16.430005
-64.222793 -50.745184 17.382248
-65.775036 -50.827671 15.450426
-65.664158 -51.643091 16.673625
-65.089455 -50.776961 16.430005
-66.518177 -50.771152 14.504972
-65.775036 -50.827671 15.450426
-54.297207 -66.448021 12.888575
-54.672337 -65.977753 13.750539
-63.747509 -63.785585 -3.985196
-64.205925 -64.265615 -4.694743
-63.735027 -60.419187 17.110792
-62.86484 -61.199385 17.432032
-63.494062 -61.123879 18.365946
-56.696636 -64.132955 7.839409
-56.110875 -64.756821 9.071866
-56.820038 -63.594015 8.657463
-57.337768 -66.631362 4.77538
-56.523742 -67.230148 5.94729
-57.031181 -65.953766 5.520632
-58.23748 -66.012744 3.633888
-57.337768 -66.631362 4.77538
-61.947408 -58.938265 -2.00621
-61.595653 -58.438555 -1.278674
-65.726788 -45.800659 -0.683875
-65.148452 -46.99214 -0.579851
-65.786892 -46.754987 0.30763
-66.937805 -36.855733 -4.62971
-67.173973 -37.898252 -3.728844
-67.360394 -35.627043 -4.627909
-66.937805 -36.855733 -4.62971
-56.783319 -64.360134 15.03546
-55.746381 -65.236935 15.480031
-60.615875 -61.514486 14.721547
-60.354803 -62.24189 15.980289
-61.394331 -61.385893 15.613157
-65.745678 -50.610126 4.385587
-65.669212 -51.592436 5.442329
-66.351612 -50.482993 5.284654
-66.444393 -48.516699 3.206832
-65.829956 -48.685356 2.315533
-65.81364 -49.66934 3.336613
-67.97829 -45.184995 2.835644
-67.561752 -46.272257 2.962261
-67.96553 -44.130136 1.861218
-67.97829 -45.184995 2.835644
-66.076271 -59.117018 20.726808
-65.792892 -59.31061 19.723853
-61.840189 -50.081299 20.228034
-61.062929 -49.742542 21.116309
-67.622757 -51.582496 12.809147
-67.550759 -50.647638 12.60745
-53.90641 -68.147979 10.384279
-54.642632 -67.03051 9.937238
-65.407246 -56.334355 -8.473925
-65.025657 -57.417681 -7.382373
-65.974506 -56.630583 -9.213158
-65.407246 -56.334355 -8.473925
-61.312134 -57.899372 -0.548582
-61.595653 -58.438555 -1.278674
-61.122478 -59.255019 -0.195734
-66.77412 -43.397894 -0.849587
-66.885464 -44.38694 0.117516
-66.77412 -43.397894 -0.849587
-67.270874 -42.188629 -0.911722
-67.780727 -37.744199 -2.864472
-67.173973 -37.898252 -3.728844
-66.146034 -52.438889 7.437562
-66.639663 -52.393952 8.346226
-66.949581 -49.420382 5.123947
-66.351612 -50.482993 5.284654
-66.999905 -48.397395 4.093241
-66.949581 -49.420382 5.123947
-65.929958 -57.041197 24.657656
-66.069588 -57.865048 24.887856
-65.954136 -56.65359 23.386646
-65.929958 -57.041197 24.657656
-65.720345 -56.198098 24.431646
-59.839285 -47.299271 25.236112
-59.168036 -47.268771 24.173271
-60.534956 -48.236565 25.778332
-59.839285 -47.299271 25.236112
-60.751772 -49.08816 25.112248
-61.314793 -49.147204 26.234452
-60.534956 -48.236565 25.778332
-63.456455 -50.574944 18.355286
-62.578193 -50.408642 19.292625
-64.212238 -51.42214 18.626241
-63.456455 -50.574944 18.355286
-64.222793 -50.745184 17.382248
-67.02546 -50.745344 13.5372
-66.857022 -51.667993 14.726275
-66.518177 -50.771152 14.504972
-67.550759 -50.647638 12.60745
-67.02546 -50.745344 13.5372
-53.994698 -68.816936 9.563043
-54.840603 -68.322486 8.340172
-64.637771 -64.684085 -5.419078
-64.954643 -65.115203 -6.168394
-64.893577 -63.248827 -5.812655
-64.637771 -64.684085 -5.419078
-64.205925 -64.265615 -4.694743
-63.976034 -58.046604 -5.57971
-63.440992 -57.632385 -4.862659
-61.878567 -62.008687 17.779542
-60.888024 -62.76738 18.147713
-62.119532 -61.303995 16.524389
-61.878567 -62.008687 17.779542
-62.86484 -61.199385 17.432032
-67.113167 -52.374735 9.268802
-66.639663 -52.393952 8.346226
-66.490425 -53.393259 9.456304
-67.549858 -51.393819 9.07728
-67.113167 -52.374735 9.268802
-67.40062 -52.393127 10.187358
-67.978417 -50.37533 8.906977
-67.549858 -51.393819 9.07728
-64.582065 -54.240282 26.150529
-65.050018 -55.115252 26.456588
-55.441635 -65.318687 10.320988
-54.897873 -65.912812 11.595652
-55.690514 -64.812004 11.164584
-55.441635 -65.318687 10.320988
-56.110875 -64.756821 9.071866
-55.311871 -66.468643 8.688115
-54.642632 -67.03051 9.937238
-56.692528 -64.694496 7.04964
-56.696636 -64.132955 7.839409
-57.401691 -63.53169 6.635237
-56.102314 -65.924156 7.473177
-56.692528 -64.694496 7.04964
-56.807369 -65.322891 6.269006
-55.426712 -67.097038 7.907481
-55.311871 -66.468643 8.688115
-56.102314 -65.924156 7.473177
-55.631046 -67.777999 7.125234
-54.840603 -68.322486 8.340172
-55.426712 -67.097038 7.907481
-55.631046 -67.777999 7.125234
-56.523742 -67.230148 5.94729
-59.038525 -65.34589 2.498043
-58.23748 -66.012744 3.633888
-58.646252 -64.688125 3.212877
-59.49844 -65.967938 1.803899
-59.038525 -65.34589 2.498043
-59.907211 -64.643318 1.382888
-59.975475 -66.611344 1.105335
-59.49844 -65.967938 1.803899
-60.879135 -65.857735 0.00215
-59.975475 -66.611344 1.105335
-61.683229 -65.063231 -1.097236
-60.879135 -65.857735 0.00215
-61.171221 -64.470861 -0.41064
-62.504301 -64.208585 -2.196048
-61.683229 -65.063231 -1.097236
-62.688254 -62.787106 -2.603673
-63.21724 -63.319334 -3.289696
-62.504301 -64.208585 -2.196048
-62.403579 -59.478372 -2.705459
-61.862169 -60.334308 -1.625075
-61.947408 -58.938265 -2.00621
-62.990639 -58.564165 -3.790234
-62.905399 -59.960208 -3.409099
-62.403579 -59.478372 -2.705459
-63.440992 -57.632385 -4.862659
-62.990639 -58.564165 -3.790234
-64.633621 -48.23036 -0.469218
-64.61435 -49.148249 0.547459
-64.573516 -47.276032 -1.460723
-64.633621 -48.23036 -0.469218
-65.148452 -46.99214 -0.579851
-64.528847 -46.336765 -2.457268
-64.573516 -47.276032 -1.460723
-65.615444 -44.811613 -1.650977
-65.726788 -45.800659 -0.683875
-64.967445 -45.067466 -2.543802
-65.615444 -44.811613 -1.650977
-64.528847 -46.336765 -2.457268
-64.967445 -45.067466 -2.543802
-55.155363 -65.591305 14.61301
-55.746381 -65.236935 15.480031
-55.629778 -65.01968 13.301718
-54.672337 -65.977753 13.750539
-55.155363 -65.591305 14.61301
-60.077244 -62.912436 17.264696
-60.888024 -62.76738 18.147713
-60.077244 -62.912436 17.264696
-60.354803 -62.24189 15.980289
-59.880029 -61.648262 13.826122
-60.615875 -61.514486 14.721547
-60.919557 -60.792265 13.458991
-58.853684 -62.568539 14.207363
-59.880029 -61.648262 13.826122
-59.157366 -61.846317 12.944807
-57.792428 -63.426815 14.61639
-58.853684 -62.568539 14.207363
-57.121912 -63.699913 13.745118
-56.783319 -64.360134 15.03546
-57.792428 -63.426815 14.61639
-60.292175 -58.469837 3.202762
-60.250742 -58.971914 2.41614
-59.805086 -59.731447 3.541812
-60.939871 -57.277694 2.891276
-60.292175 -58.469837 3.202762
-60.494215 -58.037228 4.016948
-61.453474 -56.03497 2.604939
-60.939871 -57.277694 2.891276
-62.124712 -54.857655 2.346035
-61.453474 -56.03497 2.604939
-61.813148 -55.667771 3.446557
-62.6728 -53.632248 2.114847
-62.124712 -54.857655 2.346035
-63.356408 -52.46557 1.907042
-62.6728 -53.632248 2.114847
-63.167994 -53.323779 2.979846
-63.935872 -51.253565 1.727653
-63.356408 -52.46557 1.907042
-65.544022 -52.526831 6.528954
-65.414909 -53.500418 7.62512
-66.146034 -52.438889 7.437562
-64.938087 -52.653965 5.629887
-65.544022 -52.526831 6.528954
-65.669212 -51.592436 5.442329
-64.609673 -50.094013 1.56429
-63.935872 -51.253565 1.727653
-64.525402 -50.997549 2.608677
-65.20388 -48.892233 1.428484
-64.61435 -49.148249 0.547459
-64.609673 -50.094013 1.56429
-65.834633 -47.739592 1.298704
-65.20388 -48.892233 1.428484
-65.829956 -48.685356 2.315533
-65.786892 -46.754987 0.30763
-65.834633 -47.739592 1.298704
-66.444393 -48.516699 3.206832
-66.999905 -48.397395 4.093241
-67.006241 -46.391562 2.075854
-67.561752 -46.272257 2.962261
-66.9585 -45.406958 1.08478
-67.006241 -46.391562 2.075854
-67.478737 -44.23039 0.99869
-66.885464 -44.38694 0.117516
-66.9585 -45.406958 1.08478
-67.892494 -43.110119 0.893954
-67.478737 -44.23039 0.99869
-67.96553 -44.130136 1.861218
-67.819336 -42.057732 -0.050724
-67.892494 -43.110119 0.893954
-64.131619 -60.995414 19.300289
-63.494062 -61.123879 18.365946
-64.835544 -60.229258 19.010366
-64.131619 -60.995414 19.300289
-65.529026 -59.415842 18.732797
-65.057732 -59.530265 17.767136
-64.835544 -60.229258 19.010366
-66.01508 -58.611618 18.480624
-65.529026 -59.415842 18.732797
-65.792892 -59.31061 19.723853
-66.11842 -58.306748 23.833937
-66.069588 -57.865048 24.887856
-66.234848 -58.618664 22.787531
-66.11842 -58.306748 23.833937
-66.280178 -57.808605 22.56625
-66.135101 -58.924086 21.75089
-66.234848 -58.618664 22.787531
-66.337776 -58.313454 20.495762
-66.076271 -59.117018 20.726808
-66.135101 -58.924086 21.75089
-61.983235 -50.078905 26.737117
-61.314793 -49.147204 26.234452
-62.703308 -50.986315 27.148004
-61.983235 -50.078905 26.737117
-62.251683 -50.906208 25.979256
-63.310076 -51.905853 27.59469
-62.703308 -50.986315 27.148004
-63.588932 -52.709627 26.747755
-63.310076 -51.905853 27.59469
-64.01754 -53.363689 25.860003
-63.588932 -52.709627 26.747755
-63.400364 -52.46768 25.502392
-64.393497 -53.998335 24.905166
-64.582065 -54.240282 26.150529
-64.01754 -53.363689 25.860003
-60.456741 -49.23272 21.973399
-59.876999 -48.69918 22.770903
-61.363703 -50.087391 22.327187
-60.456741 -49.23272 21.973399
-61.062929 -49.742542 21.116309
-62.707895 -50.924557 20.534688
-61.840189 -50.081299 20.228034
-62.578193 -50.408642 19.292625
-67.692013 -52.498501 13.017577
-67.43356 -52.558189 13.966932
-67.622757 -51.582496 12.809147
-67.685356 -52.469839 12.058236
-67.496159 -53.445532 13.216022
-67.692013 -52.498501 13.017577
-67.859261 -51.46751 10.927813
-67.663407 -52.414541 11.126259
-67.685356 -52.469839 12.058236
-68.032521 -50.436174 9.811439
-67.859261 -51.46751 10.927813
-67.978417 -50.37533 8.906977
-68.032521 -50.436174 9.811439
-68.065888 -36.598356 -2.927802
-67.780727 -37.744199 -2.864472
-67.904831 -35.517446 -3.791372
-68.065888 -36.598356 -2.927802
-67.360394 -35.627043 -4.627909
-67.904831 -35.517446 -3.791372
-54.297207 -66.448021 12.888575
-54.897873 -65.912812 11.595652
-53.90641 -68.147979 10.384279
-53.994698 -68.816936 9.563043
-65.594844 -64.048782 -7.302624
-64.954643 -65.115203 -6.168394
-66.154823 -62.937469 -8.43573
-65.594844 -64.048782 -7.302624
-65.885402 -62.555984 -7.670097
-66.665149 -61.780573 -9.587118
-66.154823 -62.937469 -8.43573
-66.882175 -60.24709 -9.950741
-66.665149 -61.780573 -9.587118
-66.957489 -58.747889 -10.333033
-66.882175 -60.24709 -9.950741
-66.520694 -59.945471 -9.185496
-66.959259 -57.222418 -10.704294
-66.957489 -58.747889 -10.333033
-63.931461 -62.364106 -4.392821
-63.747509 -63.785585 -3.985196
-63.21724 -63.319334 -3.289696
-64.535054 -58.489901 -6.277788
-64.051478 -59.489297 -5.191952
-63.976034 -58.046604 -5.57971
-65.101101 -58.860375 -6.994615
-64.535054 -58.489901 -6.277788
-65.025657 -57.417681 -7.382373
-66.476658 -56.95964 -9.947453
-66.093857 -58.117213 -8.833494
-65.974506 -56.630583 -9.213158
-66.959259 -57.222418 -10.704294
-66.476658 -56.95964 -9.947453
-60.788395 -58.21307 1.305724
-60.301306 -59.47468 1.644774
-60.250742 -58.971914 2.41614
-61.180762 -57.412041 0.215165
-60.788395 -58.21307 1.305724
-61.312134 -57.899372 -0.548582
-61.180762 -57.412041 0.215165
3 0 27 25
3 0 29 27
3 1 32 30
3 1 34 32
3 1 36 34
3 103 102 37
3 3 40 38
3 3 42 40
3 3 44 42
3 4 104 105
3 4 106 108
3 106 46 107
3 106 107 108
3 109 47 110
3 111 49 112
3 113 112 47
3 111 112 113
3 114 51 115
3 116 53 117
3 118 117 51
3 116 117 118
3 120 119 53
3 2 121 122
3 123 56 124
3 5 125 127
3 125 58 126
3 125 126 127
3 7 59 26
3 7 60 59
3 7 62 60
3 9 63 28
3 9 64 63
3 10 128 130
3 130 129 65
3 128 129 130
3 12 66 31
3 12 131 133
3 133 132 66
3 131 132 133
3 12 134 135
3 13 67 33
3 13 68 67
3 13 70 68
3 137 136 35
3 138 72 139
3 140 139 71
3 138 139 140
3 15 141 142
3 15 143 144
3 145 73 146
3 6 147 149
3 149 148 57
3 147 148 149
3 16 74 39
3 16 75 74
3 16 76 75
3 17 77 41
3 17 78 77
3 17 79 78
3 18 80 43
3 18 81 80
3 8 82 61
3 19 150 152
3 150 83 151
3 150 151 152
3 19 84 83
3 19 153 155
3 155 154 84
3 153 154 155
3 156 85 157
3 159 158 85
3 160 86 161
3 20 87 45
3 20 88 87
3 21 89 48
3 21 90 89
3 162 91 163
3 22 92 50
3 22 93 92
3 22 94 93
3 23 95 52
3 23 96 95
3 23 97 96
3 165 164 54
3 11 166 167
3 24 98 55
3 24 99 98
3 14 100 69
3 168 101 169
3 171 170 101
3 25 26 5
3 27 26 25
3 27 7 26
3 27 28 7
3 29 28 27
3 29 9 28
3 30 31 10
3 32 31 30
3 32 12 31
3 32 33 12
3 34 33 32
3 34 13 33
3 34 35 13
3 36 35 34
3 36 172 174
3 174 173 35
3 172 173 174
3 37 175 176
3 178 177 37
3 179 15 180
3 38 39 6
3 40 39 38
3 40 16 39
3 40 41 16
3 42 41 40
3 42 17 41
3 42 43 17
3 44 43 42
3 44 18 43
3 182 181 8
3 183 19 184
3 186 185 19
3 187 45 188
3 46 189 191
3 189 45 190
3 189 190 191
3 46 20 45
3 47 192 193
3 47 194 195
3 47 196 198
3 196 48 197
3 196 197 198
3 49 48 47
3 49 21 48
3 199 50 200
3 51 201 203
3 201 50 202
3 201 202 203
3 51 22 50
3 51 52 22
3 53 52 51
3 53 23 52
3 53 54 23
3 204 54 205
3 206 205 53
3 204 205 206
3 208 207 54
3 210 209 11
3 211 55 212
3 56 213 215
3 213 55 214
3 213 214 215
3 56 24 55
3 217 216 14
3 218 57 219
3 58 220 222
3 220 57 221
3 220 221 222
3 58 6 57
3 26 58 5
3 59 58 26
3 59 6 58
3 59 38 6
3 60 38 59
3 60 3 38
3 60 61 3
3 62 61 60
3 62 8 61
3 28 62 7
3 63 62 28
3 63 8 62
3 63 223 225
3 225 224 8
3 223 224 225
3 64 226 228
3 228 227 63
3 226 227 228
3 64 229 230
3 231 4 232
3 65 233 235
3 235 234 2
3 233 234 235
3 237 236 65
3 238 11 239
3 31 240 242
3 242 241 10
3 240 241 242
3 66 243 245
3 245 244 31
3 243 244 245
3 66 246 248
3 246 11 247
3 246 247 248
3 66 249 251
3 251 250 11
3 249 250 251
3 253 252 66
3 33 254 256
3 256 255 12
3 254 255 256
3 67 257 259
3 259 258 33
3 257 258 259
3 67 260 261
3 67 262 263
3 68 264 266
3 266 265 67
3 264 265 266
3 68 267 268
3 68 269 271
3 269 69 270
3 269 270 271
3 70 69 68
3 70 14 69
3 35 70 13
3 272 70 273
3 274 273 35
3 272 273 274
3 275 14 276
3 277 276 70
3 275 276 277
3 279 278 14
3 71 280 281
3 72 282 284
3 284 283 71
3 282 283 284
3 72 285 286
3 287 72 288
3 289 72 290
3 292 291 72
3 73 293 294
3 73 295 297
3 295 2 296
3 295 296 297
3 57 298 299
3 301 300 57
3 39 302 304
3 304 303 6
3 302 303 304
3 74 305 307
3 307 306 39
3 305 306 307
3 74 308 309
3 74 310 312
3 310 73 311
3 310 311 312
3 75 73 74
3 75 2 73
3 75 65 2
3 76 65 75
3 76 10 65
3 41 76 16
3 77 76 41
3 77 10 76
3 77 30 10
3 78 30 77
3 78 1 30
3 78 313 315
3 315 314 1
3 313 314 315
3 79 316 318
3 318 317 78
3 316 317 318
3 79 319 320
3 43 79 17
3 80 79 43
3 80 321 323
3 323 322 79
3 321 322 323
3 80 324 325
3 81 326 328
3 328 327 80
3 326 327 328
3 81 329 330
3 61 44 3
3 82 44 61
3 82 18 44
3 331 82 332
3 333 332 8
3 331 332 333
3 83 334 336
3 334 82 335
3 334 335 336
3 83 18 82
3 83 81 18
3 84 81 83
3 84 337 339
3 339 338 81
3 337 338 339
3 84 340 342
3 340 71 341
3 340 341 342
3 343 71 344
3 345 344 84
3 343 344 345
3 347 346 71
3 349 348 19
3 85 350 351
3 85 352 353
3 85 354 356
3 354 37 355
3 354 355 356
3 357 37 358
3 359 358 85
3 357 358 359
3 361 360 37
3 362 5 363
3 364 5 365
3 366 25 367
3 368 367 5
3 366 367 368
3 86 369 371
3 369 25 370
3 369 370 371
3 86 0 25
3 45 372 373
3 87 374 376
3 376 375 45
3 374 375 376
3 87 377 378
3 87 379 381
3 379 86 380
3 379 380 381
3 88 86 87
3 88 0 86
3 48 382 383
3 89 384 386
3 386 385 48
3 384 385 386
3 89 387 388
3 89 389 390
3 90 391 393
3 393 392 89
3 391 392 393
3 90 394 396
3 394 4 395
3 394 395 396
3 397 49 398
3 91 399 401
3 399 49 400
3 399 400 401
3 91 21 49
3 50 402 404
3 402 91 403
3 402 403 404
3 92 91 50
3 92 21 91
3 92 90 21
3 93 90 92
3 93 4 90
3 93 46 4
3 94 46 93
3 94 20 46
3 52 94 22
3 95 94 52
3 95 20 94
3 95 88 20
3 96 88 95
3 96 0 88
3 96 29 0
3 97 29 96
3 97 9 29
3 54 97 23
3 405 97 406
3 407 406 54
3 405 406 407
3 408 9 409
3 410 409 97
3 408 409 410
3 411 64 412
3 413 412 9
3 411 412 413
3 414 64 415
3 417 416 64
3 418 15 419
3 420 15 421
3 423 422 15
3 425 424 2
3 427 426 11
3 55 428 429
3 98 430 432
3 432 431 55
3 430 431 432
3 98 433 434
3 98 435 436
3 99 437 439
3 439 438 98
3 437 438 439
3 99 440 441
3 69 442 444
3 442 56 443
3 442 443 444
3 100 56 69
3 100 24 56
3 445 100 446
3 447 446 14
3 445 446 447
3 101 448 450
3 448 100 449
3 448 449 450
3 101 24 100
3 101 99 24
3 451 99 452
3 453 452 101
3 451 452 453
3 455 454 99
3 456 36 457
3 458 457 1
3 456 457 458
3 459 36 460
3 462 461 36
