ply
format ascii 1.0
element vertex 447
property float x
property float y
property float z
element face 369
property list uchar int vertex_index
end_header
-30.503439 11.655523 -49.549889
-28.009529 -16.825783 -39.389393
-34.942738 13.366093 -56.411888
-29.00728 5.151871 -54.442215
-26.76263 -5.598968 -47.673157
-35.846458 16.589481 -53.094086
-32.037037 13.327522 -53.827911
-31.489237 9.686392 -56.29969
-29.344641 8.965551 -52.762306
-27.980499 1.216381 -39.354031
-39.11599 11.206589 -57.295738
-35.194626 8.47121 -58.141647
-32.004208 4.910036 -57.04557
-28.485493 5.5776 -41.954643
-28.657169 7.135633 -47.76437
-27.80097 3.901894 -50.332184
-27.015734 -11.288547 -43.628368
-31.876966 13.609802 -49.941818
-32.697552 14.529678 -52.030556
-31.11689 12.623856 -51.884659
-30.543743 11.257376 -53.499153
-29.83573 10.464384 -51.326286
-30.225391 -22.325167 -33.209293
-38.877983 18.127308 -49.707985
-35.258732 15.243511 -54.932091
-37.430214 16.547157 -54.035995
-37.019512 14.804241 -55.730949
-39.058407 13.787865 -56.12442
-36.895569 12.558992 -57.054573
-37.065277 9.947214 -57.968956
-34.925423 11.067625 -57.493393
-30.130421 7.511963 -55.559685
-31.627207 7.397511 -56.8993
-30.293165 5.256231 -55.944351
-30.664465 2.832541 -55.885643
-29.1544 2.930588 -54.643547
-28.152437 3.40988 -40.700241
-28.224136 3.894108 -43.624149
-28.164932 4.682693 -46.504719
-28.175949 5.610525 -49.223091
-27.768871 3.013121 -47.814533
-27.009157 -3.523916 -47.547676
-27.161047 -0.722788 -49.36792
-26.981916 -2.777861 -49.583549
-26.906708 -4.942378 -49.44735
-28.436638 -14.670008 -39.497494
-27.844893 -11.949633 -41.588413
-27.444414 -14.089341 -41.525715
-27.13809 -9.557921 -48.275146
-27.476364 -11.994846 -47.326321
-27.974522 -14.512302 -46.189766
-38.146286 4.127056 -58.433998
-33.814766 15.123245 -53.700638
-33.311497 13.609463 -55.340675
-33.09341 11.648247 -56.597511
-31.623741 11.691582 -55.265182
-30.209347 9.535055 -54.736877
-29.065975 7.180407 -53.811241
-29.340599 -15.086889 -37.335842
-30.389866 -20.042343 -33.288715
-38.079144 17.67432 -52.011848
-37.499931 7.100597 -58.438705
-35.708679 5.689381 -58.327568
-33.168312 9.340063 -57.433632
-33.50996 6.790363 -57.820381
-31.203547 0.291258 -55.397339
-30.104364 10.613611 -46.89922
-27.7647 3.364197 -37.867695
-29.431011 9.477383 -48.801697
-28.858702 8.109322 -50.415977
-28.434656 6.499628 -51.682663
-28.183363 4.663523 -52.559296
-27.428381 1.210726 -48.778114
-26.777761 -8.447954 -45.68206
-26.590534 -7.758487 -47.479622
-28.62752 -17.106941 -44.902119
-38.19959 17.805954 -49.120106
-39.293535 18.027317 -48.441029
-28.075834 3.028288 -44.351803
-28.147142 2.704497 -42.922661
-28.046232 3.422581 -45.792088
-28.194534 4.2884 -45.064434
-28.075834 3.028288 -44.351803
-27.848202 2.587795 -46.446995
-27.966901 3.847907 -47.159626
-28.046232 3.422581 -45.792088
-27.155182 -13.351254 -46.351181
-27.036918 -12.15482 -46.809683
-27.404261 -14.609981 -45.782904
-27.725443 -13.253574 -46.758043
-27.155182 -13.351254 -46.351181
-38.542231 2.613268 -58.186065
-37.277493 3.46777 -58.233574
-29.629744 -16.347994 -36.316154
-29.59449 -15.170692 -36.228617
-29.883634 -16.431797 -35.208929
-29.501058 -17.461043 -36.341717
-29.211913 -16.199937 -37.361404
-29.629744 -16.347994 -36.316154
-30.538012 -21.211614 -32.313894
-30.403166 -19.991903 -32.323935
-29.965638 -21.096229 -34.245737
-29.737637 -22.183326 -34.153599
-36.962801 17.131901 -52.552967
-37.357569 17.505451 -51.478302
-36.241226 16.963031 -52.019421
-38.59988 17.012325 -53.355194
-38.357958 16.236307 -54.303303
-40.219946 11.718512 -56.720821
-40.191154 13.009151 -56.135162
-39.087198 12.497227 -56.710079
-40.32901 10.286734 -57.229259
-40.219946 11.718512 -56.720821
-39.281776 9.767272 -57.671509
-40.32901 10.286734 -57.229259
-33.037184 4.500084 -57.392849
-33.79006 5.440247 -57.780254
-32.757084 5.8502 -57.432975
-32.288357 3.601753 -56.890823
-33.037184 4.500084 -57.392849
-30.34245 0.427111 -54.910797
-30.934006 1.561899 -55.641491
-30.07291 1.697752 -55.154949
-30.581428 -0.812433 -54.6049
-30.34245 0.427111 -54.910797
-29.946976 10.156757 -45.473354
-30.458225 11.086263 -45.839036
-27.872599 2.290289 -38.610863
-27.62107 2.371945 -37.237423
-27.728969 1.298037 -37.980591
-28.320518 5.453342 -40.507612
-28.15399 4.369482 -39.880411
-28.318965 4.49374 -41.327442
-28.588876 6.41501 -41.059177
-28.320518 5.453342 -40.507612
-28.753032 6.632967 -42.520308
-28.588876 6.41501 -41.059177
-28.934165 7.811546 -46.88933
-28.624975 6.683458 -46.333741
-29.04409 8.306508 -48.283034
-29.321086 8.982421 -47.407994
-28.934165 7.811546 -46.88933
-27.364705 -0.16365 -47.926401
-27.521117 0.783494 -47.511921
-27.355932 0.647571 -50.211857
-27.297161 -0.372629 -50.375538
-27.196554 -10.228603 -43.633389
-27.611133 -10.559145 -42.613411
-27.430313 -11.61909 -42.60839
-26.896748 -9.86825 -44.655214
-27.077567 -8.808306 -44.660235
-27.196554 -10.228603 -43.633389
-26.557746 -8.878277 -47.242874
-26.551532 -9.181394 -46.463192
-26.518743 -10.301184 -46.226444
-26.771729 -7.481856 -48.238129
-26.557746 -8.878277 -47.242874
-27.518352 -8.216724 -49.239231
-27.73505 -9.456253 -48.751331
-28.237305 -18.417449 -43.974188
-27.938859 -17.142357 -44.593523
-27.548644 -18.452866 -43.665592
-32.287259 14.06974 -50.986187
-33.116078 14.902311 -50.976078
-32.705785 14.442373 -49.931709
-30.398109 -23.50253 -32.199896
-30.455774 -22.353026 -32.274183
-29.993325 -23.412926 -33.099016
-30.398109 -23.50253 -32.199896
-29.505572 -23.271085 -34.043322
-29.737637 -22.183326 -34.153599
-29.993325 -23.412926 -33.099016
-40.036823 18.292088 -48.877623
-39.293535 18.027317 -48.441029
-39.659264 18.231308 -50.094918
-40.036823 18.292088 -48.877623
-38.152607 15.364849 -55.150779
-38.357958 16.236307 -54.303303
-37.224863 15.675699 -54.883472
-38.03896 14.296053 -55.927684
-39.172055 14.856661 -55.347515
-38.152607 15.364849 -55.150779
-29.317877 1.746776 -54.533901
-30.07291 1.697752 -55.154949
-29.909433 2.881565 -55.264595
-28.111292 2.462384 -41.460707
-28.066468 2.31313 -40.027136
-28.025323 1.365634 -40.787602
-28.188287 3.651994 -42.162195
-28.111292 2.462384 -41.460707
-28.147142 2.704497 -42.922661
-28.408459 5.062696 -44.26363
-28.539137 5.904442 -43.428877
-28.354815 4.735854 -42.789396
-28.378856 5.456988 -45.703915
-28.408459 5.062696 -44.26363
-28.194534 4.2884 -45.064434
-28.411051 5.909163 -47.134545
-28.624975 6.683458 -46.333741
-28.378856 5.456988 -45.703915
-27.085102 -2.123352 -48.457798
-27.231038 -1.130406 -48.221304
-27.155093 -2.530971 -47.311182
-27.207595 -1.400166 -50.483352
-27.297161 -0.372629 -50.375538
-27.071481 -1.750325 -49.475735
-27.216426 -2.487549 -50.455341
-27.207595 -1.400166 -50.483352
-27.178822 -3.569807 -50.387242
-27.216426 -2.487549 -50.455341
-26.944312 -3.860119 -49.51545
-27.256041 -4.714455 -50.183346
-27.178822 -3.569807 -50.387242
-28.140766 -13.309821 -40.542954
-28.287301 -12.216181 -40.48283
-28.583173 -13.576368 -39.437371
-26.867781 -10.936357 -47.284095
-26.831524 -9.777994 -47.640636
-27.307227 -10.776384 -47.800733
-26.867781 -10.936357 -47.284095
-27.036918 -12.15482 -46.809683
-27.904187 -10.674716 -48.276919
-27.73505 -9.456253 -48.751331
-27.307227 -10.776384 -47.800733
-28.189552 -11.956181 -47.683382
-27.904187 -10.674716 -48.276919
-28.438631 -13.214908 -47.115105
-28.189552 -11.956181 -47.683382
-27.725443 -13.253574 -46.758043
-28.786969 -14.535512 -46.4396
-28.438631 -13.214908 -47.115105
-39.446483 3.140802 -58.295967
-39.078926 4.703232 -58.389065
-39.446483 3.140802 -58.295967
-38.542231 2.613268 -58.186065
-35.199754 16.354954 -52.408337
-36.241226 16.963031 -52.019421
-33.625302 15.325052 -51.876572
-33.116078 14.902311 -50.976078
-34.183909 15.621835 -52.711613
-33.625302 15.325052 -51.876572
-33.256159 14.826462 -52.865597
-34.830612 15.856363 -53.397362
-35.199754 16.354954 -52.408337
-34.183909 15.621835 -52.711613
-27.951266 0.11767 -38.645027
-27.728969 1.298037 -37.980591
-28.034277 0.169922 -40.038553
-27.951266 0.11767 -38.645027
-28.025323 1.365634 -40.787602
-28.034277 0.169922 -40.038553
-27.20468 -3.91725 -46.403979
-27.155093 -2.530971 -47.311182
-27.048226 -4.937129 -46.58901
-27.20468 -3.91725 -46.403979
-26.924963 -5.974655 -46.651751
-26.885894 -4.561442 -47.610416
-27.048226 -4.937129 -46.58901
-27.512469 -16.530458 -40.311898
-27.758902 -17.893881 -39.234305
-29.35356 -13.938529 -37.200432
-29.59449 -15.170692 -36.228617
-29.035153 -13.784809 -38.356544
-29.35356 -13.938529 -37.200432
-28.888618 -14.878448 -38.416668
-28.583173 -13.576368 -39.437371
-29.035153 -13.784809 -38.356544
-28.759932 -15.991497 -38.442231
-28.888618 -14.878448 -38.416668
-29.211913 -16.199937 -37.361404
-28.546378 -17.069384 -38.38818
-28.223084 -15.747896 -39.443444
-28.759932 -15.991497 -38.442231
-30.304468 -18.841082 -33.24893
-30.403166 -19.991903 -32.323935
-30.154377 -18.825722 -34.292591
-30.304468 -18.841082 -33.24893
-30.307628 -21.183755 -33.249004
-30.538012 -21.211614 -32.313894
-30.455774 -22.353026 -32.274183
-30.047875 -19.954817 -34.285448
-30.307628 -21.183755 -33.249004
-29.965638 -21.096229 -34.245737
-29.812386 -18.738196 -35.289324
-30.154377 -18.825722 -34.292591
-30.047875 -19.954817 -34.285448
-28.324126 -18.153097 -38.314239
-28.546378 -17.069384 -38.38818
-27.758902 -17.893881 -39.234305
-28.324126 -18.153097 -38.314239
-37.756988 17.731945 -50.32637
-38.19959 17.805954 -49.120106
-38.478563 17.900814 -50.859916
-37.756988 17.731945 -50.32637
-37.357569 17.505451 -51.478302
-39.259844 18.004814 -51.246849
-39.659264 18.231308 -50.094918
-38.478563 17.900814 -50.859916
-38.924346 17.575907 -52.34312
-37.754679 17.110739 -53.023922
-38.59988 17.012325 -53.355194
-39.259844 18.004814 -51.246849
-38.924346 17.575907 -52.34312
-40.216328 14.256237 -55.429707
-39.172055 14.856661 -55.347515
-40.216328 14.256237 -55.429707
-40.191154 13.009151 -56.135162
-38.25642 9.137584 -58.008117
-39.281776 9.767272 -57.671509
-38.090633 10.576901 -57.632347
-38.473747 7.714276 -58.242992
-38.25642 9.137584 -58.008117
-37.282604 8.523905 -58.20383
-38.755748 6.190003 -58.391418
-38.473747 7.714276 -58.242992
-37.823109 5.613827 -58.436352
-39.078926 4.703232 -58.389065
-38.755748 6.190003 -58.391418
-36.058689 4.248933 -58.180359
-37.277493 3.46777 -58.233574
-36.927482 4.908219 -58.380783
-34.88942 4.889756 -58.033848
-34.609319 6.239872 -58.073974
-33.79006 5.440247 -57.780254
-36.058689 4.248933 -58.180359
-34.88942 4.889756 -58.033848
-31.618485 2.563006 -56.310859
-32.288357 3.601753 -56.890823
-31.334336 3.871288 -56.465606
-31.888026 1.292364 -56.066707
-31.618485 2.563006 -56.310859
-30.934006 1.561899 -55.641491
-32.242021 -0.057306 -55.692463
-31.888026 1.292364 -56.066707
-31.536653 -1.022358 -54.95475
-32.242021 -0.057306 -55.692463
-31.536653 -1.022358 -54.95475
-30.581428 -0.812433 -54.6049
-32.309103 13.92186 -48.833604
-32.705785 14.442373 -49.931709
-31.580253 13.08042 -48.71644
-32.309103 13.92186 -48.833604
-30.893489 12.10328 -48.520476
-31.190202 12.632663 -49.745853
-31.580253 13.08042 -48.71644
-30.693952 11.582324 -47.195141
-30.458225 11.086263 -45.839036
-30.303902 11.134567 -48.224554
-30.893489 12.10328 -48.520476
-30.693952 11.582324 -47.195141
-27.347459 3.606463 -36.566601
-27.203829 2.614211 -35.936329
-27.62107 2.371945 -37.237423
-27.612422 4.481009 -37.11829
-27.347459 3.606463 -36.566601
-27.960122 4.34664 -38.464138
-27.958568 3.387039 -39.283968
-28.15399 4.369482 -39.880411
-27.612422 4.481009 -37.11829
-27.960122 4.34664 -38.464138
-28.753032 6.632967 -42.520308
-28.539137 5.904442 -43.428877
-29.657763 9.550535 -46.456755
-29.946976 10.156757 -45.473354
-29.767688 10.045497 -47.850459
-29.657763 9.550535 -46.456755
-29.321086 8.982421 -47.407994
-27.691362 1.684692 -47.03013
-27.848202 2.587795 -46.446995
-27.598626 2.111924 -48.296323
-27.691362 1.684692 -47.03013
-27.521117 0.783494 -47.511921
-27.294714 0.243969 -49.073017
-27.364705 -0.16365 -47.926401
-27.231038 -1.130406 -48.221304
-27.489598 1.614327 -49.916954
-27.294714 0.243969 -49.073017
-27.355932 0.647571 -50.211857
-27.675893 2.959912 -50.693989
-27.614676 2.55631 -49.555149
-27.489598 1.614327 -49.916954
-27.867089 3.340726 -51.807545
-27.992166 4.282709 -51.44574
-27.675893 2.959912 -50.693989
-28.146479 3.647418 -52.791866
-27.867089 3.340726 -51.807545
-28.558437 3.891592 -53.733326
-28.595322 4.907697 -53.500755
-28.146479 3.647418 -52.791866
-28.631997 2.780951 -53.833992
-29.08084 4.04123 -54.542881
-28.558437 3.891592 -53.733326
-28.679811 1.684278 -53.861335
-28.631997 2.780951 -53.833992
-29.317877 1.746776 -54.533901
-28.679811 1.684278 -53.861335
-28.002723 -10.878398 -41.490698
-28.287301 -12.216181 -40.48283
-28.002723 -10.878398 -41.490698
-27.611133 -10.559145 -42.613411
-26.932529 -7.399148 -45.656202
-27.077567 -8.808306 -44.660235
-26.770195 -7.023461 -46.677609
-26.924963 -5.974655 -46.651751
-26.932529 -7.399148 -45.656202
-27.229912 -15.162236 -41.380059
-27.726971 -15.457562 -40.457554
-27.512469 -16.530458 -40.311898
-27.0546 -13.765094 -42.443615
-27.229912 -15.162236 -41.380059
-26.84026 -12.364697 -43.494941
-27.230074 -12.688944 -42.577041
-27.0546 -13.765094 -42.443615
-26.764131 -10.946424 -44.537565
-26.84026 -12.364697 -43.494941
-26.645145 -9.526128 -45.564411
-26.896748 -9.86825 -44.655214
-26.764131 -10.946424 -44.537565
-26.684148 -8.10322 -46.580841
-26.645145 -9.526128 -45.564411
-26.551532 -9.181394 -46.463192
-26.929815 -6.073802 -49.221992
-26.748621 -6.350433 -48.463486
-26.771729 -7.481856 -48.238129
-27.279149 -5.845879 -49.957988
-27.256041 -4.714455 -50.183346
-26.929815 -6.073802 -49.221992
-27.045506 -8.381574 -48.635891
-26.831524 -9.777994 -47.640636
-27.425768 -7.040376 -49.599975
-27.045506 -8.381574 -48.635891
-27.518352 -8.216724 -49.239231
-27.61236 -15.845038 -45.237347
-27.404261 -14.609981 -45.782904
-28.301021 -15.809621 -45.545942
-27.61236 -15.845038 -45.237347
-27.938859 -17.142357 -44.593523
-29.113467 -15.832832 -45.795777
-28.786969 -14.535512 -46.4396
-28.301021 -15.809621 -45.545942
-29.021324 -18.440542 -44.201631
-28.237305 -18.417449 -43.974188
-28.63111 -19.75105 -43.2737
-29.513055 -17.188285 -45.06245
-29.021324 -18.440542 -44.201631
-29.113467 -15.832832 -45.795777
-29.513055 -17.188285 -45.06245
3 0 19 17
3 0 21 19
3 76 23 77
3 2 26 24
3 2 28 26
3 2 30 28
3 3 33 31
3 3 35 33
3 78 37 79
3 80 38 81
3 82 81 37
3 80 81 82
3 83 40 84
3 85 84 38
3 83 84 85
3 4 43 41
3 4 44 43
3 1 47 45
3 86 49 87
3 88 50 89
3 90 89 49
3 88 89 90
3 92 91 51
3 6 52 18
3 6 53 52
3 6 55 53
3 8 56 20
3 8 57 56
3 93 58 94
3 93 94 95
3 98 97 58
3 96 97 98
3 99 59 100
3 102 101 22
3 5 103 105
3 103 60 104
3 103 104 105
3 107 106 25
3 10 108 110
3 110 109 27
3 108 109 110
3 10 111 112
3 10 113 114
3 11 61 29
3 11 62 61
3 7 63 54
3 12 64 32
3 12 115 117
3 117 116 64
3 115 116 117
3 12 118 119
3 120 65 121
3 122 121 34
3 120 121 122
3 124 123 65
3 125 66 126
3 9 127 129
3 127 67 128
3 127 128 129
3 13 130 132
3 132 131 36
3 130 131 132
3 13 133 134
3 13 135 136
3 14 137 138
3 14 139 141
3 139 68 140
3 139 140 141
3 14 69 68
3 15 70 39
3 15 71 70
3 142 72 143
3 145 144 42
3 16 146 148
3 148 147 46
3 146 147 148
3 16 149 151
3 149 73 150
3 149 150 151
3 152 74 153
3 152 153 154
3 156 155 74
3 158 157 48
3 159 75 160
3 159 160 161
3 17 162 164
3 162 18 163
3 162 163 164
3 19 18 17
3 19 6 18
3 19 20 6
3 21 20 19
3 21 8 20
3 165 22 166
3 167 22 168
3 171 170 22
3 169 170 171
3 23 172 173
3 23 174 175
3 24 25 5
3 26 25 24
3 26 176 178
3 178 177 25
3 176 177 178
3 26 179 181
3 179 27 180
3 179 180 181
3 28 27 26
3 28 10 27
3 28 29 10
3 30 29 28
3 30 11 29
3 31 32 7
3 33 32 31
3 33 12 32
3 33 34 12
3 35 34 33
3 35 182 184
3 184 183 34
3 182 183 184
3 185 36 186
3 187 186 9
3 185 186 187
3 37 188 190
3 188 36 189
3 188 189 190
3 37 13 36
3 37 191 193
3 193 192 13
3 191 192 193
3 38 194 196
3 196 195 37
3 194 195 196
3 38 197 199
3 197 14 198
3 197 198 199
3 38 39 14
3 40 39 38
3 40 15 39
3 41 200 202
3 200 42 201
3 200 201 202
3 43 42 41
3 43 203 205
3 205 204 42
3 203 204 205
3 43 206 207
3 44 208 210
3 210 209 43
3 208 209 210
3 44 211 212
3 45 213 215
3 213 46 214
3 213 214 215
3 47 46 45
3 47 16 46
3 216 48 217
3 49 218 220
3 218 48 219
3 218 219 220
3 49 221 223
3 223 222 48
3 221 222 223
3 49 224 225
3 50 226 228
3 228 227 49
3 226 227 228
3 50 229 230
3 51 231 232
3 234 233 51
3 235 5 236
3 18 237 238
3 52 239 241
3 241 240 18
3 239 240 241
3 52 242 244
3 242 5 243
3 242 243 244
3 52 24 5
3 53 24 52
3 53 2 24
3 53 54 2
3 55 54 53
3 55 7 54
3 20 55 6
3 56 55 20
3 56 7 55
3 56 31 7
3 57 31 56
3 57 3 31
3 245 9 246
3 247 9 248
3 250 249 9
3 251 41 252
3 253 41 254
3 255 4 256
3 257 256 41
3 255 256 257
3 259 258 1
3 58 260 261
3 58 262 263
3 58 264 266
3 264 45 265
3 264 265 266
3 267 45 268
3 269 268 58
3 267 268 269
3 270 1 271
3 272 271 45
3 270 271 272
3 59 273 274
3 59 275 276
3 22 277 279
3 277 59 278
3 277 278 279
3 280 59 281
3 282 281 22
3 280 281 282
3 285 284 59
3 283 284 285
3 286 1 287
3 289 288 1
3 290 23 291
3 60 292 294
3 292 23 293
3 292 293 294
3 60 295 297
3 297 296 23
3 295 296 297
3 25 60 5
3 298 60 299
3 300 299 25
3 298 299 300
3 302 301 60
3 27 303 304
3 306 305 27
3 29 307 309
3 309 308 10
3 307 308 309
3 61 310 312
3 312 311 29
3 310 311 312
3 61 313 314
3 61 315 317
3 315 51 316
3 315 316 317
3 62 51 61
3 62 318 320
3 320 319 51
3 318 319 320
3 54 30 2
3 63 30 54
3 63 11 30
3 32 63 7
3 64 63 32
3 64 11 63
3 64 62 11
3 321 62 322
3 323 322 64
3 321 322 323
3 325 324 62
3 34 326 328
3 328 327 12
3 326 327 328
3 65 329 331
3 331 330 34
3 329 330 331
3 65 332 333
3 65 334 335
3 337 336 65
3 338 17 339
3 340 17 341
3 342 0 343
3 344 343 17
3 342 343 344
3 66 345 346
3 66 347 349
3 347 0 348
3 347 348 349
3 67 350 352
3 350 351 352
3 67 353 354
3 36 67 9
3 355 67 356
3 357 356 36
3 355 356 357
3 359 358 67
3 361 360 13
3 362 66 363
3 68 364 366
3 364 66 365
3 364 365 366
3 68 0 66
3 68 21 0
3 69 21 68
3 69 8 21
3 39 69 14
3 70 69 39
3 70 8 69
3 70 57 8
3 71 57 70
3 71 3 57
3 367 40 368
3 72 369 371
3 369 40 370
3 369 370 371
3 72 15 40
3 42 372 374
3 372 72 373
3 372 373 374
3 375 72 376
3 377 376 42
3 375 376 377
3 378 15 379
3 380 379 72
3 378 379 380
3 381 71 382
3 383 382 15
3 381 382 383
3 384 71 385
3 386 3 387
3 388 387 71
3 386 387 388
3 389 35 390
3 391 390 3
3 389 390 391
3 392 35 393
3 395 394 35
3 46 396 397
3 399 398 46
3 73 400 401
3 73 402 404
3 402 4 403
3 402 403 404
3 405 47 406
3 407 406 1
3 405 406 407
3 408 47 409
3 410 16 411
3 412 411 47
3 410 411 412
3 413 16 414
3 415 73 416
3 417 416 16
3 415 416 417
3 74 418 420
3 418 73 419
3 418 419 420
3 74 4 73
3 74 44 4
3 421 44 422
3 423 422 74
3 421 422 423
3 426 425 44
3 424 425 426
3 48 427 428
3 431 430 48
3 429 430 431
3 432 50 433
3 75 434 436
3 434 50 435
3 434 435 436
3 75 437 439
3 439 438 50
3 437 438 439
3 440 75 441
3 440 441 442
3 443 75 444
3 446 445 75
