ply
format ascii 1.0
element vertex 646
property float x
property float y
property float z
element face 643
property list uchar int vertex_index
end_header
-17.008429 -44.007549 84.202774
-23.055231 -31.091528 76.527695
-19.327742 -15.787083 80.933395
-29.227224 -24.415007 74.788963
-20.704533 -24.252426 80.424683
-23.696899 -49.973637 77.784416
-19.18128 -37.013397 81.627762
-25.960318 -41.163876 79.772926
-29.485664 -35.211819 77.387123
-12.131546 -23.519651 85.44059
-31.041092 -46.806572 73.096527
-28.836123 -20.826729 77.30513
-16.666155 -48.612663 83.679291
-20.386522 -46.759701 81.208702
-13.153889 -45.917648 86.569077
-13.296375 -50.746254 85.957016
-20.853027 -34.087814 78.934692
-24.248743 -36.083504 79.401054
-25.905695 -33.430866 76.534882
-35.830982 -31.422466 72.230934
-15.129586 -14.583048 82.537804
-11.734674 -18.446795 85.496506
-15.8414 -19.478762 83.667847
-21.40839 -27.992062 78.110794
-16.963364 -28.06003 81.1222
-18.330521 -31.478561 79.383919
-16.012535 -34.841484 81.577354
-28.737326 -43.821678 76.800179
-33.02298 -42.498985 74.737671
-25.90667 -27.877331 75.153717
-27.867287 -30.652018 73.892639
-30.272539 -27.525627 72.321213
-20.197693 -20.142345 81.716194
-25.058725 -24.421783 77.651459
-10.271473 -53.012589 87.46067
-17.887487 -40.193268 83.57872
-21.30471 -42.441631 81.860886
-22.697405 -38.955868 81.371025
-31.001396 -32.649109 74.348969
-8.019697 -17.06053 86.999046
-16.353767 -23.979725 83.048698
-24.446648 -45.190315 78.892685
-27.385025 -48.340286 75.418732
-16.768513 -46.216278 84.049637
-18.48172 -47.648346 82.440033
-18.716473 -45.314854 82.822556
-15.255059 -42.831268 85.254173
-13.241629 -43.746407 86.428391
-15.022726 -44.920689 85.409821
-14.924827 -47.200771 85.262077
-21.875803 -32.611637 77.633804
-23.360378 -33.757156 77.703293
-24.344381 -32.351505 76.344711
-17.178923 -15.250395 81.709518
-15.506075 -17.090555 83.290817
-17.628759 -17.598351 82.435181
-22.079981 -29.63586 77.137054
-19.779381 -29.749218 78.620956
-20.672771 -31.280323 77.931
-18.749882 -13.468541 79.864571
-16.687057 -12.768375 80.660637
-32.017899 -41.213203 76.472031
-27.534084 -26.175982 74.877457
-28.123146 -27.749752 73.720825
-29.621138 -26.048449 73.425842
-33.436745 -25.376402 70.549805
-24.294376 -18.562359 79.865791
-29.001095 -22.6633 76.169861
-26.965759 -22.621595 77.518661
-27.181705 -24.453941 76.227402
-25.37779 -26.219059 76.342262
-25.352222 -51.666725 76.167114
-10.040382 -50.50922 88.087715
-15.020644 -52.224178 84.318939
-18.489975 -38.545979 82.750107
-20.249043 -39.538963 82.443207
-20.940065 -37.977104 81.621033
-26.858002 -35.656719 78.374619
-26.046955 -36.99276 79.548767
-28.662968 -36.525131 78.584305
-30.235516 -30.329823 72.654602
-29.315447 -31.741341 73.94516
-31.747477 -31.3116 72.81263
-8.025442 -14.020108 86.452293
-9.724012 -14.903644 85.788956
-11.933338 -21.040068 85.661041
-9.951588 -20.548275 86.57045
-20.473736 -22.229193 81.297699
-18.283392 -22.027905 82.46402
-18.520214 -24.13224 81.759026
-15.2901 -29.991863 81.652672
-14.789069 -28.083771 82.607468
-13.115286 -30.114866 83.154808
-17.50877 -35.992867 81.554863
-15.130678 -36.494682 82.847183
-16.755527 -37.55764 82.831779
-16.128294 -39.18602 83.933273
-23.595716 -41.7742 80.783165
-22.908113 -43.752571 80.494003
-25.130329 -43.072536 79.429108
-29.947979 -45.28875 74.99855
-27.941858 -45.998779 76.074875
-29.231466 -47.567879 74.263008
-28.774323 -49.976295 73.690018
-30.910084 -22.610918 74.785126
-31.16028 -24.26195 73.340591
-16.676395 -51.157883 83.17469
-18.395926 -50.149109 81.955475
-20.183512 -49.204559 80.714264
-22.040539 -48.323959 79.489525
-11.55691 -49.373474 87.365906
-13.186861 -48.259846 86.394363
-14.938492 -49.649475 84.874268
-19.963324 -35.543095 80.312057
-21.683632 -36.527229 80.482918
-22.483364 -35.13649 79.13121
-25.054409 -34.754227 78.013214
-27.655573 -34.366726 76.949921
-34.082253 -30.745274 71.697159
-36.270081 -30.015913 70.56929
-13.194386 -13.78512 83.406998
-11.541536 -15.731068 85.000763
-13.472097 -16.46678 84.153259
-13.747223 -19.012911 84.603333
-13.994992 -21.447594 84.655701
-20.98111 -26.185574 79.283295
-18.784275 -26.143341 80.738365
-19.172482 -28.02776 79.616722
-17.51347 -29.867573 80.132393
-16.038015 -31.693933 80.872162
-18.400082 -34.445427 80.229073
-14.752942 -11.920774 81.54821
-28.373631 -40.588058 78.812149
-27.410347 -42.438652 78.423424
-29.718353 -41.828194 77.450562
-30.899298 -43.167076 75.785019
-31.920309 -44.580994 73.904907
-24.402233 -29.515251 75.693344
-25.461859 -30.892593 75.181351
-26.724895 -29.362476 74.297104
-29.016685 -29.141668 72.949249
-31.236692 -28.811657 71.642456
-31.601353 -25.794182 71.986679
-32.312355 -27.164707 70.94664
-21.551937 -16.20665 80.200867
-19.819798 -17.999868 81.588448
-22.052784 -18.313873 80.738625
-22.414146 -20.374353 80.692139
-22.668343 -22.392014 80.085281
-26.773708 -20.715216 78.49411
-24.842594 -22.524302 78.825302
-22.890814 -24.349413 79.053177
-23.18499 -26.214195 77.814117
-23.659306 -27.94788 76.61937
-11.739376 -51.87904 86.847496
-17.386768 -42.002991 84.062042
-19.105017 -43.182564 83.006897
-19.626989 -41.262135 82.901207
-21.964493 -40.601387 81.799995
-23.464863 -37.466545 80.555573
-25.216137 -38.426216 80.362656
-26.834282 -32.073822 75.117538
-28.464249 -33.075325 75.421753
-30.257355 -33.935181 75.925682
-33.473331 -32.109665 73.294617
-32.821091 -33.416389 74.918495
-32.097603 -34.707146 76.415451
-17.998592 -19.850142 82.705284
-16.117695 -21.772903 83.584915
-14.219298 -23.780313 84.282394
-16.60726 -26.085409 82.16613
-14.460319 -26.001354 83.549515
-12.35413 -25.877335 84.864037
-13.699072 -35.27813 82.95858
-15.625836 -40.928963 84.75956
-20.765507 -44.495964 81.628029
-22.377905 -45.94313 80.020409
-23.962509 -47.502373 78.305054
-26.575205 -44.488808 77.82518
-25.936813 -46.731308 77.169342
-25.531973 -49.138481 76.588577
-27.075123 -50.809586 74.930733
-33.823208 -43.852249 72.752747
-19.038812 -14.627812 80.398983
-19.83735 -13.746759 79.513817
-20.12628 -14.90603 80.048229
-23.660914 -51.264414 77.592548
-22.796622 -50.413732 78.394378
-24.52456 -50.820181 76.975765
-24.488576 -52.110958 76.783897
-23.660914 -51.264414 77.592548
-9.917613 -49.299081 88.255547
-9.183193 -49.85231 88.512016
-15.067515 -53.547663 83.990142
-15.885933 -53.01174 83.462547
-30.383872 -35.618578 77.512348
-29.972524 -36.275234 78.110939
-29.074316 -35.868475 77.985714
-32.134395 -30.598126 72.132157
-30.991497 -30.820712 72.733616
-31.378414 -30.107237 72.053143
-10.551471 -13.888431 85.035412
-9.702649 -13.392111 85.445755
-11.119654 -23.354316 85.966
-11.02055 -22.114525 86.076225
-12.032442 -22.27986 85.550815
-11.21695 -24.610374 85.757343
-11.119654 -23.354316 85.966
-13.458449 -31.019664 82.76371
-14.202693 -30.053365 82.40374
-14.545856 -30.958163 82.012642
-12.371525 -31.13825 83.50243
-13.458449 -31.019664 82.76371
-30.733148 -47.98167 72.764466
-29.828336 -48.362324 73.347706
-30.136279 -47.187225 73.679767
-31.786203 -22.51086 74.0756
-31.70089 -21.708157 74.770584
-31.70089 -21.708157 74.770584
-30.833316 -21.742063 75.420937
-12.255346 -45.327736 87.042057
-12.299216 -44.242115 86.971715
-13.197759 -44.832027 86.498734
-12.281106 -46.450359 87.086277
-12.255346 -45.327736 87.042057
-13.170375 -47.088747 86.48172
-12.297592 -47.621458 86.99892
-12.281106 -46.450359 87.086277
-36.460686 -29.263106 69.808304
-35.472599 -29.649619 70.414456
-17.703038 -32.326782 79.886689
-16.556786 -32.434468 80.63081
-17.184268 -31.586247 80.12804
-19.626555 -34.266621 79.581883
-18.924377 -33.663277 79.606846
-20.150849 -33.48447 78.959655
-30.260909 -40.923054 77.659813
-29.045992 -41.208126 78.131356
-29.588548 -40.302986 78.340607
-32.275137 -24.871977 71.932632
-31.380817 -25.028066 72.663635
-32.0546 -24.105861 72.609589
-33.255823 -26.900695 70.262886
-32.87455 -26.270554 70.748222
-33.818018 -26.006543 70.064469
-32.825155 -27.749813 70.653358
-33.255823 -26.900695 70.262886
-22.935209 -17.422764 80.114037
-21.80236 -17.260261 80.469746
-22.684786 -16.369153 79.845158
-23.516237 -20.468483 80.156803
-23.354261 -19.468356 80.278965
-24.456352 -19.562486 79.743629
-23.643335 -21.477314 79.853375
-22.541244 -21.383184 80.38871
-23.516237 -20.468483 80.156803
-27.804915 -20.770972 77.89962
-27.699939 -19.823848 78.230084
-28.731147 -19.879604 77.635593
-22.684786 -16.369153 79.845158
-22.367002 -15.330867 79.369926
-9.587024 -53.557983 87.58879
-8.774947 -52.86381 88.094776
-9.459397 -52.318415 87.966656
-10.344122 -54.284365 87.028621
-9.659673 -54.829759 87.156742
-9.587024 -53.557983 87.58879
-23.540959 -39.481249 81.06903
-23.174503 -40.304009 81.283515
-22.330949 -39.778627 81.58551
-26.49978 -38.17519 79.883374
-25.631546 -37.709488 79.955712
-26.91519 -37.458462 79.476429
-26.041491 -38.941524 80.078106
-26.49978 -38.17519 79.883374
-33.736576 -33.758499 75.17524
-34.061036 -33.093509 74.409961
-33.374832 -34.403878 75.923718
-32.459347 -34.061768 75.666973
-33.736576 -33.758499 75.17524
-32.981834 -35.079377 76.54718
-33.374832 -34.403878 75.923718
-7.183477 -16.680247 87.24186
-7.186349 -15.160036 86.968483
-8.022569 -15.540319 86.72567
-7.165202 -18.21508 87.447388
-7.183477 -16.680247 87.24186
-10.777541 -18.11755 85.904808
-10.680972 -16.759687 85.656937
-11.638105 -17.088932 85.248635
-9.010812 -20.265772 86.953354
-9.060273 -21.668785 86.979343
-13.558701 -27.044539 83.797291
-14.624694 -27.042562 83.078491
-13.723076 -28.085747 83.326268
-12.505607 -26.982529 84.454552
-13.407224 -25.939344 84.206776
-13.558701 -27.044539 83.797291
-11.465736 -26.968096 85.130238
-12.505607 -26.982529 84.454552
-14.855804 -35.059807 82.267967
-14.231859 -34.387888 82.395077
-15.388591 -34.169565 81.704464
-13.985032 -36.771892 83.504341
-14.77441 -37.330745 83.461849
-29.304635 -52.034864 72.653485
-28.661629 -51.224264 73.50998
-29.417329 -50.786895 72.833523
-34.12522 -44.547939 71.673553
-34.724333 -43.465534 72.128319
-33.302742 -44.945326 72.319099
-34.12522 -44.547939 71.673553
-14.248344 -43.288837 85.841282
-13.35883 -42.747486 86.18805
-14.365545 -42.289917 85.600941
-20.060721 -32.080725 78.457809
-18.889596 -32.179844 79.184269
-19.501646 -31.379442 78.65746
-20.662237 -32.746381 78.309212
-20.060721 -32.080725 78.457809
-21.274287 -31.94598 77.782402
-21.364415 -33.349726 78.284248
-20.150849 -33.48447 78.959655
-20.662237 -32.746381 78.309212
-19.485163 -12.595732 78.82531
-19.83735 -13.746759 79.513817
-18.445504 -12.23292 79.207691
-19.485163 -12.595732 78.82531
-17.718469 -13.118458 80.262604
-17.414091 -11.882838 79.605724
-18.445504 -12.23292 79.207691
-32.614767 -40.316572 76.687851
-31.410682 -40.615558 77.170547
-33.14337 -40.887886 75.958046
-32.614767 -40.316572 76.687851
-33.64591 -41.530777 75.090866
-32.520439 -41.856094 75.604851
-33.14337 -40.887886 75.958046
-34.002645 -24.412336 70.469246
-33.192833 -24.663087 71.214196
-34.265759 -25.076265 69.822731
-34.002645 -24.412336 70.469246
-33.818018 -26.006543 70.064469
-34.265759 -25.076265 69.822731
-25.187324 -17.675456 79.31723
-24.056005 -17.547007 79.67762
-25.398557 -18.663542 79.406841
-25.187324 -17.675456 79.31723
-24.456352 -19.562486 79.743629
-25.398557 -18.663542 79.406841
-25.347003 -52.965543 76.046864
-24.488576 -52.110958 76.783897
-26.160992 -52.512848 75.406571
-26.155773 -53.811667 75.28632
-25.347003 -52.965543 76.046864
-9.343851 -51.06673 88.280178
-9.183193 -49.85231 88.512016
-10.155928 -51.760904 87.774192
-9.459397 -52.318415 87.966656
-9.343851 -51.06673 88.280178
-14.222711 -52.778078 84.820392
-13.360577 -52.039116 85.639431
-14.15851 -51.485216 85.137978
-14.222711 -52.778078 84.820392
-15.067515 -53.547663 83.990142
-28.223196 -37.224648 78.994198
-26.91519 -37.458462 79.476429
-27.354962 -36.758945 79.066536
-29.5168 -36.970586 78.52726
-28.223196 -37.224648 78.994198
-29.5168 -36.970586 78.52726
-29.972524 -36.275234 78.110939
-35.565981 -32.096548 73.066181
-36.740074 -31.696636 72.5378
-8.853364 -12.950343 85.777423
-8.060246 -12.436998 86.120903
-8.874727 -14.461876 86.120624
-8.853364 -12.950343 85.777423
-9.702649 -13.392111 85.445755
-10.029675 -21.868628 86.530929
-10.942463 -20.794172 86.115746
-11.02055 -22.114525 86.076225
-9.060273 -21.668785 86.979343
-10.029675 -21.868628 86.530929
-12.886185 -29.101295 83.599938
-13.723076 -28.085747 83.326268
-13.952177 -29.099318 82.881138
-12.05584 -30.169896 83.877484
-12.886185 -29.101295 83.599938
-12.05584 -30.169896 83.877484
-12.371525 -31.13825 83.50243
-15.586835 -37.862224 83.454147
-14.77441 -37.330745 83.461849
-15.943103 -37.026161 82.839481
-16.44191 -38.37183 83.382526
-15.273218 -38.676414 84.004894
-15.586835 -37.862224 83.454147
-29.599764 -49.566532 73.061211
-29.002895 -48.772087 73.976513
-29.828336 -48.362324 73.347706
-29.417329 -50.786895 72.833523
-29.599764 -49.566532 73.061211
-31.911302 -23.336377 73.353332
-31.035182 -23.436434 74.062859
-31.786203 -22.51086 74.0756
-32.0546 -24.105861 72.609589
-31.911302 -23.336377 73.353332
-29.719738 -19.945439 77.107548
-28.731147 -19.879604 77.635593
-29.796335 -20.849968 76.680938
-29.719738 -19.945439 77.107548
-29.878822 -21.768254 76.113304
-28.918609 -21.745014 76.737495
-29.796335 -20.849968 76.680938
-29.95559 -22.637109 75.477494
-29.878822 -21.768254 76.113304
-30.833316 -21.742063 75.420937
-17.550436 -51.96249 82.310863
-16.713808 -52.478592 82.890422
-18.410201 -51.458103 81.701256
-17.550436 -51.96249 82.310863
-17.536161 -50.653496 82.565083
-19.267198 -50.966717 81.094684
-18.410201 -51.458103 81.701256
-20.160991 -50.494442 80.474079
-19.267198 -50.966717 81.094684
-19.289719 -49.676834 81.334869
-21.039929 -50.029194 79.859302
-20.160991 -50.494442 80.474079
-21.968442 -49.588893 79.246933
-21.039929 -50.029194 79.859302
-21.112026 -48.764259 80.101895
-22.868719 -49.148798 78.63697
-22.796622 -50.413732 78.394378
-21.968442 -49.588893 79.246933
-12.346252 -43.196038 86.756119
-12.463453 -42.197117 86.515778
-13.35883 -42.747486 86.18805
-12.346252 -43.196038 86.756119
-12.299216 -44.242115 86.971715
-11.482616 -48.178272 87.484691
-10.675877 -48.731209 87.894642
-12.371886 -48.81666 86.880134
-11.482616 -48.178272 87.484691
-12.297592 -47.621458 86.99892
-16.713808 -52.478592 82.890422
-15.885933 -53.01174 83.462547
-15.84852 -51.69103 83.746814
-34.378685 -30.014299 70.97839
-33.301783 -30.314963 71.574421
-35.176167 -30.380593 71.133224
-34.378685 -30.014299 70.97839
-35.472599 -29.649619 70.414456
-37.269392 -29.567052 69.982467
-36.460686 -29.263106 69.808304
-37.148598 -30.293056 70.84787
-37.269392 -29.567052 69.982467
-36.929049 -30.996332 71.678692
-36.050531 -30.719189 71.400112
-37.148598 -30.293056 70.84787
-36.740074 -31.696636 72.5378
-36.929049 -30.996332 71.678692
-12.367961 -14.758094 84.20388
-11.460234 -14.302143 84.641316
-12.286658 -13.329168 83.844433
-14.919814 -31.809198 81.622387
-14.545856 -30.958163 82.012642
-15.664058 -30.842898 81.262417
-15.401331 -32.59579 81.351867
-14.919814 -31.809198 81.622387
-15.401331 -32.59579 81.351867
-16.556786 -32.434468 80.63081
-16.544045 -34.008243 80.983406
-15.388591 -34.169565 81.704464
-17.703038 -32.326782 79.886689
-18.889596 -32.179844 79.184269
-17.737819 -33.810215 80.309266
-18.924377 -33.663277 79.606846
-17.206308 -34.643456 80.903213
-16.544045 -34.008243 80.983406
-17.737819 -33.810215 80.309266
-16.446998 -11.439037 80.056873
-17.414091 -11.882838 79.605724
-15.47994 -11.015237 80.50066
-16.446998 -11.439037 80.056873
-15.72 -12.344575 81.104423
-14.587388 -10.495033 81.009781
-15.47994 -11.015237 80.50066
-13.852058 -11.429657 82.023956
-14.587388 -10.495033 81.009781
-13.07278 -12.36183 82.95335
-13.852058 -11.429657 82.023956
-13.973664 -12.852947 82.477604
-12.286658 -13.329168 83.844433
-13.07278 -12.36183 82.95335
-30.868126 -41.520699 76.961297
-30.260909 -40.923054 77.659813
-31.410682 -40.615558 77.170547
-31.879002 -29.348154 71.547069
-31.378414 -30.107237 72.053143
-30.736104 -29.57074 72.148529
-32.519049 -25.585292 71.268242
-32.275137 -24.871977 71.932632
-33.192833 -24.663087 71.214196
-32.287323 -28.573288 71.001266
-31.774524 -27.988182 71.294548
-32.825155 -27.749813 70.653358
-31.879002 -29.348154 71.547069
-32.287323 -28.573288 71.001266
-23.17358 -18.438116 80.302208
-22.935209 -17.422764 80.114037
-24.056005 -17.547007 79.67762
-26.638223 -19.73997 78.721001
-27.699939 -19.823848 78.230084
-25.696018 -20.638915 79.057789
-26.638223 -19.73997 78.721001
-24.730461 -21.543458 79.223385
-25.696018 -20.638915 79.057789
-25.808151 -21.619759 78.659706
-23.755468 -22.458158 79.455291
-23.643335 -21.477314 79.853375
-24.730461 -21.543458 79.223385
-21.238377 -15.115814 79.681965
-22.367002 -15.330867 79.369926
-20.439839 -15.996866 80.567131
-20.12628 -14.90603 80.048229
-21.238377 -15.115814 79.681965
-10.798646 -49.941347 87.72681
-9.917613 -49.299081 88.255547
-10.675877 -48.731209 87.894642
-12.582077 -52.605509 86.084671
-12.517875 -51.312647 86.402256
-13.360577 -52.039116 85.639431
-11.813859 -53.166855 86.477394
-12.582077 -52.605509 86.084671
-11.079908 -53.733629 86.783981
-11.005425 -52.445814 87.154083
-11.813859 -53.166855 86.477394
-10.344122 -54.284365 87.028621
-11.079908 -53.733629 86.783981
-23.990114 -40.890415 80.775101
-22.780105 -41.187793 81.29158
-23.174503 -40.304009 81.283515
-25.172415 -40.585253 80.269981
-24.778017 -41.469038 80.278045
-23.990114 -40.890415 80.775101
-24.800325 -39.216423 80.564846
-23.540959 -39.481249 81.06903
-23.956771 -38.691042 80.86684
-24.800325 -39.216423 80.564846
-26.041491 -38.941524 80.078106
-26.413581 -40.310355 79.783241
-25.172415 -40.585253 80.269981
-27.620238 -40.022446 79.302853
-27.166975 -40.875967 79.292538
-26.413581 -40.310355 79.783241
-28.879095 -39.755908 78.834259
-27.620238 -40.022446 79.302853
-29.588548 -40.302986 78.340607
-28.879095 -39.755908 78.834259
-32.914865 -31.028437 72.254895
-32.134395 -30.598126 72.132157
-33.301783 -30.314963 71.574421
-34.387156 -32.440147 73.598022
-34.652157 -31.766065 72.762776
-35.565981 -32.096548 73.066181
-33.147211 -32.763027 74.106556
-34.387156 -32.440147 73.598022
-34.061036 -33.093509 74.409961
-31.689841 -35.366242 77.026512
-30.383872 -35.618578 77.512348
-30.791633 -34.959483 76.901287
-31.689841 -35.366242 77.026512
-32.981834 -35.079377 76.54718
-7.23784 -13.573701 86.681831
-7.272644 -11.990591 86.350441
-8.060246 -12.436998 86.120903
-7.23784 -13.573701 86.681831
-7.186349 -15.160036 86.968483
-10.632774 -15.317356 85.394859
-10.551471 -13.888431 85.035412
-11.460234 -14.302143 84.641316
-9.77221 -16.345975 86.051033
-10.632774 -15.317356 85.394859
-10.680972 -16.759687 85.656937
-8.920053 -17.424418 86.656078
-8.871855 -15.982087 86.394001
-9.77221 -16.345975 86.051033
-9.885998 -19.16829 86.44178
-10.777541 -18.11755 85.904808
-10.843131 -19.497535 86.033478
-9.885998 -19.16829 86.44178
-9.010812 -20.265772 86.953354
-8.044867 -18.521899 87.167652
-8.920053 -17.424418 86.656078
-7.165202 -18.21508 87.447388
-8.044867 -18.521899 87.167652
-11.328242 -25.789216 85.469067
-11.21695 -24.610374 85.757343
-12.242838 -24.698493 85.152313
-11.328242 -25.789216 85.469067
-11.465736 -26.968096 85.130238
-13.111031 -34.561676 83.120327
-14.231859 -34.387888 82.395077
-12.584031 -35.514176 83.647385
-13.111031 -34.561676 83.120327
-13.269229 -36.163617 83.56004
-14.414875 -35.886406 82.902882
-13.985032 -36.771892 83.504341
-12.584031 -35.514176 83.647385
-13.269229 -36.163617 83.56004
-14.997863 -39.544071 84.53828
-15.273218 -38.676414 84.004894
-14.746633 -40.415543 84.951424
-14.997863 -39.544071 84.53828
-15.877065 -40.057491 84.346417
-14.550934 -41.338764 85.353634
-14.746633 -40.415543 84.951424
-15.440447 -41.880116 85.006867
-14.365545 -42.289917 85.600941
-14.550934 -41.338764 85.353634
-27.022442 -52.084278 74.78838
-26.160992 -52.512848 75.406571
-26.213673 -51.238156 75.548924
-27.812029 -51.64091 74.130337
-27.924723 -50.392941 74.310375
-28.661629 -51.224264 73.50998
-27.022442 -52.084278 74.78838
-27.812029 -51.64091 74.130337
-34.04656 -42.144306 74.176216
-33.64591 -41.530777 75.090866
-34.446675 -42.820938 73.183754
-34.724333 -43.465534 72.128319
-33.423094 -43.175617 73.745209
-34.04656 -42.144306 74.176216
-34.446675 -42.820938 73.183754
-32.351292 -45.309698 72.895179
-32.871758 -44.216622 73.328827
-33.302742 -44.945326 72.319099
-31.911684 -46.422488 72.490989
-31.4807 -45.693783 73.500717
-32.351292 -45.309698 72.895179
-31.521305 -47.572378 72.11602
-31.911684 -46.422488 72.490989
-30.733148 -47.98167 72.764466
-31.521305 -47.572378 72.11602
3 0 45 43
3 0 48 46
3 0 43 48
3 1 52 50
3 2 55 53
3 1 58 56
3 1 50 58
3 2 183 185
3 183 59 184
3 183 184 185
3 2 53 59
3 3 64 62
3 3 69 67
3 3 62 69
3 5 186 187
3 5 188 190
3 188 71 189
3 188 189 190
3 191 72 192
3 194 193 73
3 6 76 74
3 8 79 77
3 8 195 197
3 197 196 79
3 195 196 197
3 198 82 199
3 200 199 80
3 198 199 200
3 201 84 202
3 9 203 205
3 205 204 85
3 203 204 205
3 9 206 207
3 4 89 87
3 208 92 209
3 210 209 90
3 208 209 210
3 212 211 92
3 6 95 93
3 6 74 95
3 7 99 97
3 10 102 100
3 10 213 215
3 215 214 102
3 213 214 215
3 217 216 104
3 218 104 219
3 12 107 106
3 13 108 44
3 13 109 108
3 14 220 222
3 222 221 47
3 220 221 222
3 14 223 224
3 14 225 227
3 225 111 226
3 225 226 227
3 12 112 49
3 12 106 112
3 16 115 113
3 18 116 51
3 18 117 116
3 228 119 229
3 20 122 120
3 22 123 54
3 22 124 123
3 23 127 125
3 25 128 57
3 25 129 128
3 25 230 232
3 232 231 129
3 230 231 232
3 16 233 235
3 233 130 234
3 233 234 235
3 16 113 130
3 20 131 60
3 20 120 131
3 236 134 237
3 238 237 132
3 236 237 238
3 28 135 61
3 28 136 135
3 29 139 137
3 31 140 63
3 31 141 140
3 239 142 240
3 241 240 105
3 239 240 241
3 242 143 243
3 244 243 65
3 242 243 244
3 246 245 143
3 247 146 248
3 249 248 144
3 247 248 249
3 250 147 251
3 252 251 66
3 250 251 252
3 253 148 254
3 255 254 147
3 253 254 255
3 11 256 258
3 256 149 257
3 256 257 258
3 33 150 68
3 33 151 150
3 33 152 151
3 29 153 70
3 29 137 153
3 259 144 260
3 34 261 263
3 261 262 263
3 34 264 266
3 264 265 266
3 15 154 110
3 35 157 155
3 37 158 75
3 37 267 269
3 269 268 158
3 267 268 269
3 17 159 114
3 270 160 271
3 272 271 78
3 270 271 272
3 274 273 160
3 30 161 138
3 38 162 81
3 38 163 162
3 19 164 118
3 275 165 276
3 277 166 278
3 279 278 165
3 277 278 279
3 281 280 166
3 39 282 284
3 284 283 83
3 282 283 284
3 39 285 286
3 21 287 289
3 289 288 121
3 287 288 289
3 291 290 86
3 32 167 145
3 40 168 88
3 40 169 168
3 24 170 126
3 292 171 293
3 294 293 91
3 292 293 294
3 295 172 296
3 297 296 171
3 295 296 297
3 299 298 172
3 26 300 302
3 300 173 301
3 300 301 302
3 304 303 94
3 35 174 96
3 35 155 174
3 36 175 156
3 41 176 98
3 41 177 176
3 27 178 133
3 42 179 101
3 42 180 179
3 42 181 180
3 307 306 103
3 305 306 307
3 308 182 309
3 311 310 182
3 43 44 12
3 45 44 43
3 45 13 44
3 46 312 314
3 312 47 313
3 312 313 314
3 48 47 46
3 48 14 47
3 48 49 14
3 43 49 48
3 43 12 49
3 50 51 16
3 52 51 50
3 52 18 51
3 53 54 20
3 55 54 53
3 55 22 54
3 56 57 23
3 58 57 56
3 58 25 57
3 58 315 317
3 317 316 25
3 315 316 317
3 50 318 320
3 320 319 58
3 318 319 320
3 50 321 323
3 321 16 322
3 321 322 323
3 59 324 325
3 59 326 327
3 59 328 330
3 328 60 329
3 328 329 330
3 53 60 59
3 53 20 60
3 331 61 332
3 333 61 334
3 335 28 336
3 337 336 61
3 335 336 337
3 62 63 29
3 64 63 62
3 64 31 63
3 338 65 339
3 340 65 341
3 343 342 65
3 344 66 345
3 346 66 347
3 349 348 66
3 67 68 11
3 69 68 67
3 69 33 68
3 69 70 33
3 62 70 69
3 62 29 70
3 71 350 351
3 71 352 354
3 352 353 354
3 72 355 356
3 72 357 359
3 357 34 358
3 357 358 359
3 73 360 362
3 362 361 15
3 360 361 362
3 364 363 73
3 74 75 35
3 76 75 74
3 76 37 75
3 77 78 17
3 79 78 77
3 79 365 367
3 367 366 78
3 365 366 367
3 79 368 369
3 371 370 79
3 80 81 30
3 82 81 80
3 82 38 81
3 373 372 19
3 374 83 375
3 84 376 378
3 376 83 377
3 376 377 378
3 84 39 83
3 85 86 21
3 379 86 380
3 381 380 85
3 379 380 381
3 383 382 86
3 87 88 32
3 89 88 87
3 89 40 88
3 90 91 24
3 92 91 90
3 92 384 386
3 386 385 91
3 384 385 386
3 92 387 388
3 390 389 92
3 93 94 26
3 95 94 93
3 95 391 393
3 393 392 94
3 391 392 393
3 95 394 396
3 394 96 395
3 394 395 396
3 74 96 95
3 74 35 96
3 97 98 36
3 99 98 97
3 99 41 98
3 100 101 27
3 102 101 100
3 102 42 101
3 102 103 42
3 397 103 398
3 399 398 102
3 397 398 399
3 401 400 103
3 104 105 3
3 402 105 403
3 404 403 104
3 402 403 404
3 406 405 105
3 407 11 408
3 409 11 410
3 411 67 412
3 413 412 11
3 411 412 413
3 104 414 416
3 414 67 415
3 414 415 416
3 104 3 67
3 106 417 418
3 107 419 421
3 421 420 106
3 419 420 421
3 107 422 423
3 44 107 12
3 108 107 44
3 108 424 426
3 426 425 107
3 424 425 426
3 108 427 428
3 109 429 431
3 431 430 108
3 429 430 431
3 109 432 434
3 432 5 433
3 432 433 434
3 47 435 437
3 435 436 437
3 439 438 47
3 440 110 441
3 111 442 444
3 442 110 443
3 442 443 444
3 111 15 110
3 49 111 14
3 112 111 49
3 112 15 111
3 112 73 15
3 106 73 112
3 106 445 447
3 447 446 73
3 445 446 447
3 113 114 6
3 115 114 113
3 115 17 114
3 51 115 16
3 116 115 51
3 116 17 115
3 116 77 17
3 117 77 116
3 117 8 77
3 448 118 449
3 119 450 452
3 450 118 451
3 450 451 452
3 119 19 118
3 453 119 454
3 455 119 456
3 457 19 458
3 459 458 119
3 457 458 459
3 461 460 19
3 120 462 464
3 462 121 463
3 462 463 464
3 122 121 120
3 122 21 121
3 54 122 20
3 123 122 54
3 123 21 122
3 123 85 21
3 124 85 123
3 124 9 85
3 125 126 4
3 127 126 125
3 127 24 126
3 57 127 23
3 128 127 57
3 128 24 127
3 128 90 24
3 129 90 128
3 129 465 467
3 467 466 90
3 465 466 467
3 129 468 469
3 471 470 129
3 472 26 473
3 475 474 25
3 130 476 477
3 130 478 480
3 478 26 479
3 478 479 480
3 130 93 26
3 113 93 130
3 113 6 93
3 60 481 482
3 131 483 485
3 485 484 60
3 483 484 485
3 131 486 487
3 131 488 489
3 120 490 492
3 492 491 131
3 490 491 492
3 120 493 494
3 132 133 7
3 134 133 132
3 134 27 133
3 61 495 497
3 495 134 496
3 495 496 497
3 135 134 61
3 135 27 134
3 135 100 27
3 136 100 135
3 136 10 100
3 137 138 1
3 139 138 137
3 139 30 138
3 63 139 29
3 140 139 63
3 140 30 139
3 140 80 30
3 141 80 140
3 141 498 500
3 500 499 80
3 498 499 500
3 105 64 3
3 142 64 105
3 142 31 64
3 65 501 503
3 501 142 502
3 501 502 503
3 143 142 65
3 143 31 142
3 143 141 31
3 504 141 505
3 506 505 143
3 504 505 506
3 508 507 141
3 144 145 2
3 146 145 144
3 146 32 145
3 66 509 511
3 509 146 510
3 509 510 511
3 147 146 66
3 147 32 146
3 147 87 32
3 148 87 147
3 148 4 87
3 149 512 513
3 149 514 515
3 68 149 11
3 150 149 68
3 150 516 518
3 518 517 149
3 516 517 518
3 150 519 521
3 519 148 520
3 519 520 521
3 151 148 150
3 151 4 148
3 151 125 4
3 152 125 151
3 152 23 125
3 70 152 33
3 153 152 70
3 153 23 152
3 153 56 23
3 137 56 153
3 137 1 56
3 144 522 523
3 144 524 526
3 524 2 525
3 524 525 526
3 110 527 529
3 527 72 528
3 527 528 529
3 154 72 110
3 154 34 72
3 530 154 531
3 532 531 15
3 530 531 532
3 533 154 534
3 535 34 536
3 537 536 154
3 535 536 537
3 539 538 34
3 155 156 0
3 157 156 155
3 157 36 156
3 75 157 35
3 158 157 75
3 158 36 157
3 158 97 36
3 540 97 541
3 542 541 158
3 540 541 542
3 543 7 544
3 545 544 97
3 543 544 545
3 114 76 6
3 159 76 114
3 159 37 76
3 78 159 17
3 160 159 78
3 160 37 159
3 160 546 548
3 548 547 37
3 546 547 548
3 550 549 160
3 551 7 552
3 553 132 554
3 555 554 7
3 553 554 555
3 556 132 557
3 559 558 132
3 138 52 1
3 161 52 138
3 161 18 52
3 81 161 30
3 162 161 81
3 162 18 161
3 162 117 18
3 163 117 162
3 163 8 117
3 118 560 562
3 560 82 561
3 560 561 562
3 164 82 118
3 164 38 82
3 563 164 564
3 565 564 19
3 563 564 565
3 165 566 568
3 566 164 567
3 566 567 568
3 165 38 164
3 165 163 38
3 166 163 165
3 166 8 163
3 166 569 571
3 571 570 8
3 569 570 571
3 573 572 166
3 83 574 576
3 574 575 576
3 578 577 83
3 121 579 581
3 579 84 580
3 579 580 581
3 582 84 583
3 584 583 121
3 582 583 584
3 585 39 586
3 587 586 84
3 585 586 587
3 86 588 590
3 590 589 21
3 588 589 590
3 592 591 86
3 593 39 594
3 596 595 39
3 145 55 2
3 167 55 145
3 167 22 55
3 88 167 32
3 168 167 88
3 168 22 167
3 168 124 22
3 169 124 168
3 169 9 124
3 126 89 4
3 170 89 126
3 170 40 89
3 91 170 24
3 171 170 91
3 171 40 170
3 171 169 40
3 172 169 171
3 172 9 169
3 172 597 599
3 599 598 9
3 597 598 599
3 601 600 172
3 173 602 603
3 173 604 605
3 94 173 26
3 606 173 607
3 608 607 94
3 606 607 608
3 610 609 173
3 96 611 612
3 174 613 615
3 615 614 96
3 613 614 615
3 174 616 617
3 174 618 620
3 618 46 619
3 618 619 620
3 155 46 174
3 155 0 46
3 156 45 0
3 175 45 156
3 175 13 45
3 98 175 36
3 176 175 98
3 176 13 175
3 176 109 13
3 177 109 176
3 177 5 109
3 133 99 7
3 178 99 133
3 178 41 99
3 101 178 27
3 179 178 101
3 179 41 178
3 179 177 41
3 180 177 179
3 180 5 177
3 180 71 5
3 181 71 180
3 181 621 623
3 623 622 71
3 621 622 623
3 103 181 42
3 624 181 625
3 626 625 103
3 624 625 626
3 628 627 181
3 629 28 630
3 182 631 632
3 182 633 635
3 633 28 634
3 633 634 635
3 182 136 28
3 636 136 637
3 638 637 182
3 636 637 638
3 639 10 640
3 641 640 136
3 639 640 641
3 642 10 643
3 645 644 10
