ply
format ascii 1.0
element vertex 272
property float x
property float y
property float z
element face 243
property list uchar int vertex_index
end_header
-1.752775 50.997208 -31.126356
1.994446 62.044792 -34.136856
1.679049 45.329498 -34.090981
5.466129 64.404495 -33.815689
4.368822 57.214745 -35.105469
-1.617521 41.246269 -30.976141
0.207943 38.801868 -32.374084
-0.480284 48.487 -33.425438
3.059479 79.236282 -25.245634
-1.256853 59.885239 -30.029173
1.455742 72.941994 -28.973886
0.322758 65.617195 -31.699526
-0.367008 57.448639 -33.228409
1.479836 53.990257 -34.787498
1.934399 28.621113 -30.515451
2.826559 36.159054 -32.36145
-2.195841 47.287926 -29.646574
-2.187613 42.34906 -29.644011
-1.778677 46.225136 -31.198076
-1.13386 45.0373 -32.333244
-1.238134 49.82769 -32.490967
2.19075 76.23777 -27.222509
2.471519 65.819588 -33.301941
1.537525 67.784348 -32.088211
1.044596 63.995964 -33.119133
-0.082632 61.633736 -32.624748
0.677835 60.013878 -33.832123
0.450562 55.846489 -34.208359
1.659374 58.098274 -34.636177
5.240414 47.108398 -34.752869
0.848274 42.304291 -33.340302
1.440336 37.490082 -32.49984
2.117462 40.801373 -33.32283
10.569931 37.984512 -33.451691
3.59141 63.507164 -34.135635
3.123047 59.775795 -34.781418
4.837427 60.873352 -34.634338
-1.241529 36.087681 -30.508471
-0.268059 34.930893 -31.202185
-0.820126 40.060825 -31.884516
-0.25148 43.725578 -33.036842
0.50679 46.981033 -33.939865
-1.568903 55.550964 -30.737612
1.735237 77.400085 -24.89908
1.014322 74.157684 -26.804968
0.392078 70.652283 -28.474081
0.836205 69.392036 -30.474512
-0.143106 66.913567 -29.882856
-0.590561 62.957962 -31.008314
-0.937735 58.791481 -31.828566
-1.162792 54.414543 -32.3256
-0.508722 53.064934 -33.495728
0.384417 51.499557 -34.240616
1.477219 49.730164 -34.596352
2.809877 55.901299 -35.076431
2.665207 51.897682 -35.019661
2.709816 47.780502 -34.634789
4.01066 45.683868 -34.448151
5.306242 43.476582 -34.126823
0.927361 33.750301 -31.505449
2.312859 32.569187 -31.495176
2.325536 44.447872 -34.031052
2.544742 42.183809 -33.646977
1.898256 43.065435 -33.706906
11.299145 36.141975 -33.128097
11.420482 37.777594 -33.44051
4.838028 65.741733 -33.487781
5.861322 66.094905 -33.249584
4.52877 63.95583 -33.975662
3.900669 65.293068 -33.647755
4.838028 65.741733 -33.487781
-1.802938 39.226256 -30.186357
-2.087985 39.777651 -29.520293
-1.902567 41.797664 -30.310076
-1.429525 38.666975 -30.742306
-1.614943 36.646962 -29.952523
-1.802938 39.226256 -30.186357
-1.501333 58.188065 -29.401893
-1.301386 60.319786 -28.954735
-1.412878 57.718102 -30.383392
-1.657358 56.020927 -29.756113
-1.501333 58.188065 -29.401893
2.397358 78.318184 -25.072357
2.155695 78.868279 -23.840044
2.817816 79.786377 -24.013321
3.302676 50.746315 -35.000489
3.365482 52.672855 -35.117866
3.32498 48.687725 -34.808053
2.687512 49.839092 -34.827225
3.302676 50.746315 -35.000489
3.975402 47.639408 -34.714734
3.360238 46.732185 -34.54147
3.32498 48.687725 -34.808053
5.912123 43.960358 -34.261673
5.273328 45.29249 -34.439846
5.879209 45.776266 -34.574696
5.917525 42.319981 -33.928314
5.912123 43.960358 -34.261673
2.594496 26.051068 -30.004559
1.799021 26.525067 -29.987003
2.713108 28.104036 -30.464265
2.594496 26.051068 -30.004559
3.331787 33.78978 -31.82387
3.074937 31.994847 -31.390733
2.569709 34.36412 -31.928313
3.564319 35.509687 -32.223762
3.331787 33.78978 -31.82387
6.536924 64.590912 -33.493404
5.861322 66.094905 -33.249584
6.129988 62.915062 -33.99815
6.536924 64.590912 -33.493404
-2.191727 44.818493 -29.645293
-2.374039 42.860409 -28.784852
-2.378153 45.329842 -28.786133
-1.050717 61.944291 -29.520666
-1.301386 60.319786 -28.954735
2.991134 77.002167 -27.285992
2.625115 77.737026 -26.234071
3.425498 78.501423 -26.297554
2.545241 75.471183 -28.199047
2.991134 77.002167 -27.285992
2.177738 73.823296 -29.074736
1.823246 74.589882 -28.098197
2.545241 75.471183 -28.199047
2.004522 66.801968 -32.695076
2.311951 68.595639 -32.121998
2.778948 67.613259 -32.728863
4.217289 55.331387 -35.16077
5.019901 55.805679 -35.140228
5.303121 48.938248 -34.940216
4.590279 48.351673 -34.867092
5.95254 47.496662 -34.814121
5.303121 48.938248 -34.940216
5.879209 45.776266 -34.574696
5.95254 47.496662 -34.814121
1.242404 29.159407 -30.439892
1.799021 26.525067 -29.987003
2.80327 40.032101 -33.209835
3.157819 37.710942 -32.729145
2.472011 38.480213 -32.84214
2.80327 40.032101 -33.209835
2.544742 42.183809 -33.646977
10.486113 36.360354 -33.066944
9.798678 38.143425 -33.404736
10.486113 36.360354 -33.066944
11.299145 36.141975 -33.128097
3.340723 66.44928 -33.230908
2.778948 67.613259 -32.728863
3.031465 64.663376 -33.718788
3.340723 66.44928 -33.230908
3.900669 65.293068 -33.647755
5.815637 61.14949 -34.407474
5.151778 62.638923 -34.225014
6.129988 62.915062 -33.99815
5.492934 59.415466 -34.746631
5.815637 61.14949 -34.407474
5.258631 57.586163 -34.982197
4.603124 59.044049 -34.869903
5.492934 59.415466 -34.746631
5.019901 55.805679 -35.140228
5.258631 57.586163 -34.982197
-2.359337 40.315428 -28.764716
-2.374039 42.860409 -28.784852
-2.359337 40.315428 -28.764716
-2.087985 39.777651 -29.520293
-1.406887 33.992979 -29.737797
-1.614943 36.646962 -29.952523
-0.932294 33.441544 -30.186771
-1.406887 33.992979 -29.737797
-0.754794 35.509287 -30.855328
-0.445558 32.863149 -30.533628
-0.932294 33.441544 -30.186771
3.571734 80.560021 -24.157259
2.817816 79.786377 -24.013321
3.330071 81.110116 -22.924946
3.953594 79.865482 -25.279529
3.571734 80.560021 -24.157259
3.425498 78.501423 -26.297554
3.953594 79.865482 -25.279529
-2.308295 47.762569 -28.688524
-2.378153 45.329842 -28.786133
-2.490607 45.804485 -27.828083
-2.117491 49.645684 -29.504818
-2.308295 47.762569 -28.688524
-1.895958 51.500325 -30.244709
-1.974308 49.142567 -30.386465
-2.117491 49.645684 -29.504818
9.899712 39.742565 -33.737702
9.798678 38.143425 -33.404736
10.727249 39.597753 -33.709767
9.899712 39.742565 -33.737702
11.420482 37.777594 -33.44051
10.727249 39.597753 -33.709767
-1.804022 53.777203 -30.050337
-1.657358 56.020927 -29.756113
-1.660839 53.274086 -30.931984
-1.895958 51.500325 -30.244709
-1.804022 53.777203 -30.050337
1.630075 77.812763 -23.578457
2.155695 78.868279 -23.840044
1.279378 76.220531 -24.601803
1.630075 77.812763 -23.578457
0.918921 74.599331 -25.554747
1.279378 76.220531 -24.601803
1.374779 75.778885 -25.852024
0.607977 72.874695 -26.466533
0.918921 74.599331 -25.554747
0.296855 71.121994 -27.30109
0.607977 72.874695 -26.466533
0.7032 72.404984 -27.639525
0.018895 69.279713 -28.089428
0.296855 71.121994 -27.30109
1.80465 72.152576 -29.86916
2.177738 73.823296 -29.074736
1.845541 69.573753 -31.426322
2.311951 68.595639 -32.121998
1.494881 70.377598 -30.619473
1.845541 69.573753 -31.426322
1.186865 68.588192 -31.281362
1.145973 71.167015 -29.724199
1.80465 72.152576 -29.86916
1.494881 70.377598 -30.619473
-0.248697 67.410355 -28.793816
0.018895 69.279713 -28.089428
0.124486 68.782925 -29.178469
-0.493844 65.458455 -29.447508
-0.248697 67.410355 -28.793816
-0.717572 63.480652 -30.010236
-0.493844 65.458455 -29.447508
-0.366834 64.935765 -30.445585
-0.923707 61.4216 -30.518743
-1.050717 61.944291 -29.520666
-0.717572 63.480652 -30.010236
3.437817 54.674664 -35.146251
3.589349 56.558022 -35.09095
4.217289 55.331387 -35.16077
2.737542 53.89949 -35.048046
3.437817 54.674664 -35.146251
3.365482 52.672855 -35.117866
2.84092 45.673374 -34.302956
2.325536 44.447872 -34.031052
2.194433 46.555 -34.362885
3.491341 44.625057 -34.209637
2.84092 45.673374 -34.302956
3.360238 46.732185 -34.54147
4.15914 43.714113 -34.069367
3.491341 44.625057 -34.209637
4.625537 46.396133 -34.60051
3.975402 47.639408 -34.714734
4.590279 48.351673 -34.867092
4.80693 42.61047 -33.908703
4.15914 43.714113 -34.069367
4.658451 44.580225 -34.287487
5.449404 41.716276 -33.742325
4.80693 42.61047 -33.908703
5.449404 41.716276 -33.742325
5.917525 42.319981 -33.928314
0.141175 32.314297 -30.783259
-0.445558 32.863149 -30.533628
0.738885 31.724001 -30.934891
0.141175 32.314297 -30.783259
0.329651 34.340597 -31.353817
1.43088 31.185707 -31.01045
1.242404 29.159407 -30.439892
0.738885 31.724001 -30.934891
2.902338 30.078074 -30.954128
2.713108 28.104036 -30.464265
2.123629 30.59515 -31.005313
2.902338 30.078074 -30.954128
3.074937 31.994847 -31.390733
3.564319 35.509687 -32.223762
3.157819 37.710942 -32.729145
3 0 18 16
3 0 20 18
3 1 24 22
3 1 26 24
3 1 28 26
3 2 32 30
3 2 61 63
3 63 62 32
3 61 62 63
3 65 64 33
3 3 66 67
3 3 68 70
3 68 34 69
3 68 69 70
3 3 36 34
3 5 71 73
3 73 72 17
3 71 72 73
3 5 74 76
3 74 37 75
3 74 75 76
3 5 39 37
3 7 40 19
3 7 41 40
3 9 77 78
3 9 79 81
3 79 42 80
3 79 80 81
3 8 82 84
3 82 43 83
3 82 83 84
3 10 44 21
3 10 45 44
3 11 46 23
3 11 47 46
3 11 48 47
3 12 49 25
3 12 50 49
3 12 51 50
3 13 52 27
3 13 53 52
3 4 54 35
3 85 55 86
3 87 56 88
3 89 88 55
3 87 88 89
3 90 57 91
3 92 91 56
3 90 91 92
3 93 58 94
3 95 94 29
3 93 94 95
3 97 96 58
3 14 98 99
3 14 100 101
3 6 59 38
3 15 60 31
3 15 102 104
3 104 103 60
3 102 103 104
3 15 105 106
3 107 3 108
3 110 109 3
3 16 111 113
3 111 17 112
3 111 112 113
3 18 17 16
3 18 5 17
3 18 19 5
3 20 19 18
3 20 7 19
3 114 9 115
3 116 21 117
3 118 117 8
3 116 117 118
3 119 21 120
3 121 10 122
3 123 122 21
3 121 122 123
3 22 124 126
3 124 23 125
3 124 125 126
3 24 23 22
3 24 11 23
3 24 25 11
3 26 25 24
3 26 12 25
3 26 27 12
3 28 27 26
3 28 13 27
3 128 127 4
3 129 29 130
3 131 29 132
3 134 133 29
3 135 14 136
3 30 31 6
3 32 31 30
3 32 15 31
3 32 137 139
3 139 138 15
3 137 138 139
3 141 140 32
3 33 142 143
3 145 144 33
3 146 22 147
3 34 148 150
3 148 22 149
3 148 149 150
3 34 1 22
3 34 35 1
3 36 35 34
3 36 4 35
3 151 36 152
3 153 152 3
3 151 152 153
3 154 36 155
3 156 4 157
3 158 157 36
3 156 157 158
3 160 159 4
3 17 161 162
3 164 163 17
3 37 165 166
3 37 167 168
3 37 169 171
3 169 38 170
3 169 170 171
3 39 38 37
3 39 6 38
3 19 39 5
3 40 39 19
3 40 6 39
3 40 30 6
3 41 30 40
3 41 2 30
3 172 8 173
3 172 173 174
3 175 8 176
3 178 177 8
3 179 16 180
3 179 180 181
3 182 16 183
3 184 0 185
3 186 185 16
3 184 185 186
3 187 33 188
3 189 33 190
3 192 191 33
3 42 193 194
3 42 195 197
3 195 0 196
3 195 196 197
3 43 198 199
3 43 200 201
3 21 43 8
3 44 43 21
3 44 202 204
3 204 203 43
3 202 203 204
3 44 205 206
3 45 207 209
3 209 208 44
3 207 208 209
3 45 210 211
3 212 10 213
3 23 214 215
3 46 216 218
3 218 217 23
3 216 217 218
3 46 219 221
3 219 10 220
3 219 220 221
3 46 45 10
3 47 45 46
3 47 222 224
3 224 223 45
3 222 223 224
3 47 225 226
3 48 227 229
3 229 228 47
3 227 228 229
3 48 230 232
3 230 9 231
3 230 231 232
3 25 48 11
3 49 48 25
3 49 9 48
3 49 42 9
3 50 42 49
3 50 0 42
3 50 20 0
3 51 20 50
3 51 7 20
3 27 51 12
3 52 51 27
3 52 7 51
3 52 41 7
3 53 41 52
3 53 2 41
3 35 28 1
3 54 28 35
3 54 13 28
3 233 54 234
3 235 234 4
3 233 234 235
3 55 236 238
3 236 54 237
3 236 237 238
3 55 13 54
3 55 53 13
3 56 53 55
3 56 2 53
3 56 239 241
3 241 240 2
3 239 240 241
3 57 242 244
3 244 243 56
3 242 243 244
3 57 245 246
3 29 247 249
3 247 57 248
3 247 248 249
3 58 57 29
3 58 250 252
3 252 251 57
3 250 251 252
3 58 253 254
3 256 255 58
3 38 257 258
3 59 259 261
3 261 260 38
3 259 260 261
3 59 262 264
3 262 14 263
3 262 263 264
3 31 59 6
3 60 59 31
3 60 14 59
3 60 265 267
3 267 266 14
3 265 266 267
3 269 268 60
3 271 270 15
