ply
format ascii 1.0
element vertex 542
property float x
property float y
property float z
element face 457
property list uchar int vertex_index
end_header
34.72068 -76.917175 54.325111
38.095104 -62.993671 51.370918
34.110992 -67.864334 55.560211
41.726608 -56.387402 48.658722
46.104839 -49.182121 48.015335
28.723059 -78.225357 55.254967
35.212448 -61.479546 53.54232
36.149734 -65.676117 53.210159
36.515747 -58.615379 51.767296
34.85252 -81.231651 52.054161
25.479105 -78.718681 55.841446
53.136375 -47.339306 49.172897
55.979862 -43.993622 50.356178
37.081551 -70.331497 53.425392
34.43158 -72.39119 55.228088
39.91695 -59.853901 49.875992
48.844193 -45.729065 48.883873
43.738102 -52.770187 47.940857
32.482662 -59.088509 63.358231
31.363764 -60.449474 67.75621
31.785057 -73.83989 57.035683
31.751146 -77.839119 54.858788
31.761869 -81.510361 51.211769
31.701761 -84.991341 45.987537
34.552719 -62.654972 54.610992
36.232468 -76.146423 53.946617
36.36755 -78.466522 53.355095
36.425858 -80.735237 52.353233
34.810543 -79.109238 53.403572
55.211739 -48.10759 49.246437
39.974842 -63.833359 50.787651
35.138096 -66.829407 54.320213
36.630173 -67.965561 53.285065
35.452808 -69.102356 54.310204
35.756432 -71.436371 54.309967
34.265987 -70.110397 55.418793
37.286423 -60.753845 51.429634
38.074684 -59.187366 50.638794
39.018501 -61.474174 50.591461
40.994179 -62.246803 50.095917
45.280724 -46.714241 48.518112
47.4314 -47.436985 48.368492
49.622627 -48.219101 48.426735
48.323853 -49.935974 47.99493
40.605946 -53.971348 48.758949
42.694454 -54.58569 48.216274
32.877548 -58.524849 61.116768
30.320116 -76.258713 56.625999
30.256142 -78.064575 55.054558
31.759596 -79.713593 53.240303
30.221252 -79.785614 53.119507
30.157055 -83.091988 48.144295
57.958336 -44.721378 50.265648
57.452831 -42.297295 50.732689
59.371578 -42.995651 50.508629
60.763687 -41.250813 50.469002
61.167221 -43.622189 49.928734
36.48774 -62.197575 52.297417
37.138149 -64.397385 52.234039
35.670464 -63.501411 53.27494
34.833702 -64.661903 54.405853
36.415535 -82.938995 50.877251
34.848392 -83.279869 50.235687
42.933212 -58.845947 48.856064
43.901745 -57.069256 48.346336
27.133503 -78.412323 55.504753
28.643219 -79.82357 53.051682
27.011286 -79.935005 53.093147
52.440201 -44.867565 49.645973
53.935081 -43.206421 50.250465
54.533508 -45.670403 49.802559
56.562561 -46.423313 49.812859
37.785973 -66.703705 52.361382
36.02388 -73.794624 54.226357
34.5895 -74.670135 54.898865
37.187897 -56.984585 50.979485
38.871372 -57.519268 49.91684
40.810432 -58.151249 49.224571
41.973179 -60.578484 49.449173
50.997894 -46.533371 49.004936
51.80278 -49.015877 48.572968
44.872944 -50.963184 47.868542
44.90633 -55.270176 47.964722
45.969528 -53.470211 47.758919
47.106323 -51.687908 47.76516
49.349808 -52.443298 47.81192
31.999834 -59.7402 65.594681
31.636574 -61.732567 65.6707
29.919638 -63.280903 69.630661
33.069492 -68.790215 56.898438
33.07288 -70.988892 56.575546
33.110634 -73.190292 56.146515
33.169506 -75.360718 55.528084
31.753069 -75.87867 56.102089
33.231812 -77.473625 54.625542
33.281067 -79.51181 53.353035
33.305935 -81.470016 51.652626
33.301163 -83.357224 49.507019
30.194176 -81.446503 50.807686
31.745899 -83.255409 48.778549
33.265091 -85.197128 46.943493
38.499935 -64.158411 51.453175
39.439804 -64.578255 51.161541
39.034973 -63.413515 51.079284
28.785049 -77.391472 56.18763
28.017988 -77.537079 56.434613
29.489601 -78.144966 55.154763
29.55159 -77.311081 56.087425
28.785049 -77.391472 56.18763
59.597544 -44.183827 50.179279
58.664957 -43.858514 50.387138
58.890923 -45.04669 50.057789
60.495365 -44.497096 49.889332
60.269399 -43.30892 50.218682
59.597544 -44.183827 50.179279
34.353876 -64.162531 55.152359
34.693211 -63.658437 54.508423
34.213385 -63.159065 55.254929
34.40632 -65.179382 55.058773
34.353876 -64.162531 55.152359
35.53774 -60.801653 53.079185
34.995787 -60.55342 53.814979
35.850094 -61.83856 52.919868
36.175387 -61.160668 52.456734
35.53774 -60.801653 53.079185
44.044544 -59.206688 48.78904
43.545197 -60.085436 49.066913
25.591857 -77.965778 56.989364
24.749308 -78.22179 57.276092
26.306304 -78.565502 55.673099
26.419056 -77.812599 56.821018
25.591857 -77.965778 56.989364
56.870941 -47.615635 49.450798
55.88715 -47.265451 49.529648
56.19553 -48.457774 49.167587
57.522526 -46.762167 49.677143
56.870941 -47.615635 49.450798
37.736944 -69.710159 53.012783
37.511256 -68.527191 52.94262
36.855862 -69.148529 53.355229
37.998421 -70.928314 53.138947
37.736944 -69.710159 53.012783
37.276134 -71.535885 53.480221
37.998421 -70.928314 53.138947
36.851822 -57.799982 51.37339
36.497742 -56.781897 51.694454
36.161667 -57.597293 52.08836
42.06041 -62.641123 49.986096
41.517773 -63.46439 50.297661
48.547871 -44.49842 49.178951
47.784039 -45.350769 48.911816
49.587311 -44.890219 49.186844
48.547871 -44.49842 49.178951
49.921043 -46.131218 48.944405
50.664162 -45.292372 49.247376
49.587311 -44.890219 49.186844
51.171409 -49.865099 48.334885
50.712704 -48.617489 48.499852
50.081333 -49.466711 48.261769
52.251442 -50.246921 48.38379
51.171409 -49.865099 48.334885
43.22483 -51.539876 48.083683
42.670261 -52.456104 48.168522
44.305523 -51.866686 47.904699
43.792251 -50.636375 48.047525
43.22483 -51.539876 48.083683
45.52832 -56.526001 48.106308
44.404038 -56.169716 48.155529
45.026028 -57.425541 48.297115
47.099048 -53.836903 47.754582
46.568374 -54.729004 47.832977
47.667446 -52.945751 47.757702
46.537926 -52.579059 47.76204
47.099048 -53.836903 47.754582
48.789189 -53.323446 47.781082
48.228065 -52.065603 47.78854
47.667446 -52.945751 47.757702
32.583189 -59.718291 62.376595
32.780632 -59.436461 61.255863
32.680105 -58.806679 62.237499
32.350589 -60.04963 63.447506
32.583189 -59.718291 62.376595
31.681799 -60.094837 66.675445
31.814617 -59.078817 66.548317
31.496582 -59.433454 67.629081
31.123911 -61.471048 67.739173
31.260316 -62.112595 66.696418
31.500169 -61.09102 66.713455
29.682817 -62.629435 70.62685
30.221575 -62.23961 69.70636
29.319178 -63.688219 70.490528
29.682817 -62.629435 70.62685
32.53688 -69.20303 57.592408
32.634306 -68.141995 57.813908
32.538574 -70.302369 57.430962
33.071186 -69.889554 56.736992
32.53688 -69.20303 57.592408
32.447845 -73.515091 56.591099
32.487974 -72.466515 56.942791
31.825185 -72.791314 57.387375
29.388462 -81.42059 50.662018
29.418698 -80.635037 51.929684
28.612983 -80.609123 51.784016
32.448106 -86.008671 45.008555
33.229771 -86.111565 45.486532
32.483426 -85.094234 46.465515
55.721065 -42.764488 50.537185
54.698675 -42.370888 50.484329
54.957471 -43.600021 50.303321
57.224054 -41.071421 50.847393
58.187021 -41.437878 50.79121
61.425647 -40.377237 50.28622
61.614273 -41.557612 50.093628
34.42395 -61.765467 54.799152
34.882584 -62.067259 54.076656
34.753815 -61.177753 54.264816
34.17412 -62.250635 55.36425
34.42395 -61.765467 54.799152
34.213385 -63.159065 55.254929
34.17412 -62.250635 55.36425
34.753815 -61.177753 54.264816
34.995787 -60.55342 53.814979
37.09621 -76.861343 53.570297
37.000851 -75.654857 53.722626
37.163752 -78.021392 53.274536
37.09621 -76.861343 53.570297
36.300009 -77.306472 53.650856
37.204136 -79.212452 52.932579
37.163752 -78.021392 53.274536
36.396704 -79.600879 52.854164
37.23329 -80.34681 52.431648
37.204136 -79.212452 52.932579
24.621163 -78.971806 56.064556
24.749308 -78.22179 57.276092
25.401355 -79.470593 54.563503
24.621163 -78.971806 56.064556
54.566902 -48.94751 48.959903
54.174057 -47.723448 49.209667
53.529221 -48.563368 48.923133
55.573093 -49.304291 48.920063
54.566902 -48.94751 48.959903
56.19553 -48.457774 49.167587
55.573093 -49.304291 48.920063
40.431646 -65.041336 50.96878
41.008105 -64.257667 50.643528
40.431646 -65.041336 50.96878
39.439804 -64.578255 51.161541
41.008105 -64.257667 50.643528
41.517773 -63.46439 50.297661
40.48451 -63.040081 50.441784
46.002305 -45.843357 48.728935
44.982399 -45.513203 48.898331
47.077642 -46.204729 48.654125
46.002305 -45.843357 48.728935
46.356062 -47.075613 48.443302
48.137796 -46.583025 48.626182
47.784039 -45.350769 48.911816
47.077642 -46.204729 48.654125
49.431946 -50.325147 48.045866
50.081333 -49.466711 48.261769
48.97324 -49.077538 48.210832
41.104184 -53.056685 48.577568
40.117458 -52.796516 48.977947
42.148438 -53.363855 48.30623
41.104184 -53.056685 48.577568
41.6502 -54.278519 48.487611
43.216278 -53.677938 48.078565
42.670261 -52.456104 48.168522
42.148438 -53.363855 48.30623
32.935384 -57.627957 60.856823
33.069173 -58.311182 60.029526
32.745012 -57.862389 62.022126
32.935384 -57.627957 60.856823
32.547569 -58.144219 63.142857
32.680105 -58.806679 62.237499
32.745012 -57.862389 62.022126
31.127541 -59.780277 68.691326
31.496582 -59.433454 67.629081
30.943638 -60.823896 68.769135
31.127541 -59.780277 68.691326
31.205095 -73.113347 57.954548
31.825185 -72.791314 57.387375
29.583577 -76.40815 56.873146
29.680757 -75.529117 57.649231
30.288129 -77.161644 55.840278
29.583577 -76.40815 56.873146
29.55159 -77.311081 56.087425
29.338229 -83.046539 47.91745
29.369901 -82.243332 49.330323
30.125002 -83.937283 46.66827
29.338229 -83.046539 47.91745
30.897355 -84.88696 45.589891
30.929408 -84.041664 47.065916
30.125002 -83.937283 46.66827
31.659252 -85.881623 44.454323
30.897355 -84.88696 45.589891
59.146394 -41.787056 50.67918
58.187021 -41.437878 50.79121
58.412205 -42.646473 50.620659
60.067633 -42.123232 50.488816
59.842449 -40.914637 50.659367
59.146394 -41.787056 50.67918
61.81604 -42.743299 49.823494
61.614273 -41.557612 50.093628
60.965454 -42.436501 50.198868
34.558517 -66.263134 55.015953
34.985899 -65.745655 54.363033
34.40632 -65.179382 55.058773
34.044966 -66.780597 55.635952
34.624544 -67.34687 54.940212
34.558517 -66.263134 55.015953
35.897651 -58.395527 52.500954
36.161667 -57.597293 52.08836
36.18939 -59.369569 52.191674
35.897651 -58.395527 52.500954
36.574728 -60.438802 52.022842
36.901085 -59.684612 51.598465
36.18939 -59.369569 52.191674
36.887082 -61.47571 51.863526
36.574728 -60.438802 52.022842
36.175387 -61.160668 52.456734
37.225061 -81.513599 51.859047
37.23329 -80.34681 52.431648
37.2199 -82.615478 51.121056
37.225061 -81.513599 51.859047
36.420696 -81.837116 51.615242
37.175019 -83.750736 50.297722
37.2199 -82.615478 51.121056
36.384119 -84.005253 49.892949
37.175019 -83.750736 50.297722
35.600547 -84.17569 49.572166
36.384119 -84.005253 49.892949
35.631963 -83.109432 50.556469
34.826938 -84.270256 49.094354
35.600547 -84.17569 49.572166
44.251259 -46.405184 48.744286
44.982399 -45.513203 48.898331
44.609961 -47.604813 48.393578
44.251259 -46.405184 48.744286
45.022019 -48.838752 48.142189
45.692781 -47.948181 48.266723
44.609961 -47.604813 48.393578
44.52881 -58.318342 48.534176
43.417479 -57.957602 48.6012
44.044544 -59.206688 48.78904
45.026028 -57.425541 48.297115
44.52881 -58.318342 48.534176
27.22321 -77.630562 56.559506
26.419056 -77.812599 56.821018
27.928281 -78.31884 55.37986
28.017988 -77.537079 56.434613
27.22321 -77.630562 56.559506
27.797017 -80.66484 51.804749
28.612983 -80.609123 51.784016
27.827253 -79.879288 53.072415
26.167445 -80.078755 53.189354
26.245196 -79.326843 54.467297
25.401355 -79.470593 54.563503
26.9654 -80.705517 51.747257
26.167445 -80.078755 53.189354
27.797017 -80.66484 51.804749
26.9654 -80.705517 51.747257
53.187641 -44.036993 49.948219
52.904364 -42.798694 50.173557
52.156924 -43.629266 49.871311
58.220414 -45.9112 49.903538
57.260449 -45.572345 50.039254
57.522526 -46.762167 49.677143
58.890923 -45.04669 50.057789
58.220414 -45.9112 49.903538
38.021457 -64.860268 51.884735
38.499935 -64.158411 51.453175
37.616626 -63.695528 51.802479
38.34537 -66.013428 51.948407
38.021457 -64.860268 51.884735
37.462061 -65.550545 52.297711
38.726979 -67.213402 52.102776
38.34537 -66.013428 51.948407
38.089156 -67.896263 52.480778
37.208073 -67.334633 52.823223
37.511256 -68.527191 52.94262
38.726979 -67.213402 52.102776
38.089156 -67.896263 52.480778
36.613575 -72.088322 53.922508
37.276134 -71.535885 53.480221
36.418991 -70.883934 53.86768
36.747299 -73.267449 53.880703
36.613575 -72.088322 53.922508
35.890156 -72.615498 54.268162
36.896557 -74.478958 53.862496
36.747299 -73.267449 53.880703
36.128174 -74.970523 54.086487
37.000851 -75.654857 53.722626
36.896557 -74.478958 53.862496
39.658503 -53.716392 49.208786
40.117458 -52.796516 48.977947
40.155304 -54.87187 49.019104
39.658503 -53.716392 49.208786
40.715635 -56.079897 48.968991
41.166277 -55.179375 48.708835
40.155304 -54.87187 49.019104
36.789147 -55.928688 51.306
36.497742 -56.781897 51.694454
37.547985 -56.121291 50.622749
36.789147 -55.928688 51.306
38.389723 -56.388632 50.091427
37.547985 -56.121291 50.622749
38.029635 -57.251926 50.448162
39.288017 -56.64583 49.59805
38.389723 -56.388632 50.091427
40.257547 -56.961821 49.251915
39.288017 -56.64583 49.59805
39.840902 -57.835258 49.570706
41.26852 -57.269326 48.941646
40.715635 -56.079897 48.968991
40.257547 -56.961821 49.251915
43.06518 -60.951704 49.363468
43.545197 -60.085436 49.066913
42.453195 -59.712215 49.152619
42.549909 -61.806963 49.662723
41.483679 -61.412644 49.772545
42.06041 -62.641123 49.986096
43.06518 -60.951704 49.363468
42.549909 -61.806963 49.662723
51.385315 -44.459469 49.567894
52.156924 -43.629266 49.871311
51.719048 -45.700468 49.325454
51.385315 -44.459469 49.567894
50.664162 -45.292372 49.247376
52.862423 -49.401654 48.623169
53.529221 -48.563368 48.923133
52.469577 -48.177592 48.872933
52.862423 -49.401654 48.623169
52.251442 -50.246921 48.38379
44.406071 -49.729284 48.068793
43.792251 -50.636375 48.047525
45.488891 -50.072653 47.941938
45.022019 -48.838752 48.142189
44.406071 -49.729284 48.068793
46.036775 -55.628986 47.935879
45.52832 -56.526001 48.106308
45.437929 -54.370193 47.861821
46.036775 -55.628986 47.935879
46.568374 -54.729004 47.832977
49.944924 -51.578809 47.954361
49.431946 -50.325147 48.045866
48.836831 -51.189636 47.903425
49.900294 -53.688453 47.804762
48.789189 -53.323446 47.781082
50.447464 -52.817346 47.850102
49.900294 -53.688453 47.804762
49.944924 -51.578809 47.954361
50.447464 -52.817346 47.850102
32.98482 -59.153464 60.225357
33.069173 -58.311182 60.029526
32.98482 -59.153464 60.225357
32.780632 -59.436461 61.255863
32.332876 -58.43074 64.304108
32.547569 -58.144219 63.142857
32.091462 -58.756586 65.422333
31.814617 -59.078817 66.548317
32.241248 -59.414355 64.476456
32.332876 -58.43074 64.304108
32.091462 -58.756586 65.422333
32.109175 -60.375475 64.565731
32.350589 -60.04963 63.447506
32.241248 -59.414355 64.476456
31.927546 -61.371659 64.603741
32.109175 -60.375475 64.565731
31.818204 -60.736384 65.63269
31.726622 -62.354868 64.562325
31.927546 -61.371659 64.603741
31.36994 -62.739155 65.569305
31.726622 -62.354868 64.562325
31.36994 -62.739155 65.569305
31.260316 -62.112595 66.696418
31.123911 -61.471048 67.739173
30.943638 -60.823896 68.769135
30.401848 -62.886763 68.676399
30.221575 -62.23961 69.70636
30.067264 -63.907038 68.509998
30.401848 -62.886763 68.676399
29.519206 -64.310145 69.397178
30.067264 -63.907038 68.509998
29.519206 -64.310145 69.397178
29.319178 -63.688219 70.490528
33.607675 -67.249153 56.365516
34.044966 -66.780597 55.635952
33.086925 -67.712094 57.03463
32.634306 -68.141995 57.813908
33.590242 -68.327275 56.229325
33.607675 -67.249153 56.365516
33.086925 -67.712094 57.03463
32.469097 -71.365814 57.157307
32.538574 -70.302369 57.430962
33.091757 -72.089592 56.36103
32.469097 -71.365814 57.157307
32.487974 -72.466515 56.942791
31.110744 -74.101269 57.456989
31.205095 -73.113347 57.954548
30.378274 -75.31068 57.252147
29.680757 -75.529117 57.649231
31.09475 -75.120659 56.990192
30.378274 -75.31068 57.252147
31.036592 -76.068691 56.364044
31.769063 -74.85928 56.568886
31.110744 -74.101269 57.456989
31.09475 -75.120659 56.990192
34.053324 -84.308933 48.73002
34.826938 -84.270256 49.094354
34.074777 -83.318546 49.871353
30.175615 -82.269246 49.47599
29.388462 -81.42059 50.662018
29.369901 -82.243332 49.330323
34.035288 -85.228886 47.448257
34.053324 -84.308933 48.73002
33.283127 -84.277176 48.225256
33.998078 -86.194549 46.099335
34.035288 -85.228886 47.448257
33.998078 -86.194549 46.099335
33.229771 -86.111565 45.486532
32.448106 -86.008671 45.008555
31.659252 -85.881623 44.454323
53.694324 -41.969672 50.429966
52.904364 -42.798694 50.173557
53.694324 -41.969672 50.429966
54.698675 -42.370888 50.484329
56.45755 -41.916325 50.725441
55.721065 -42.764488 50.537185
56.716347 -43.145459 50.544433
56.45755 -41.916325 50.725441
57.224054 -41.071421 50.847393
60.555145 -40.048294 50.560654
59.842449 -40.914637 50.659367
60.555145 -40.048294 50.560654
61.425647 -40.377237 50.28622
61.351524 -44.781001 49.473004
60.495365 -44.497096 49.889332
61.981621 -43.901052 49.423924
61.351524 -44.781001 49.473004
61.81604 -42.743299 49.823494
61.981621 -43.901052 49.423924
3 0 26 25
3 0 28 26
3 1 101 103
3 103 102 30
3 101 102 103
3 2 33 31
3 2 35 33
3 1 38 36
3 1 30 38
3 4 41 40
3 4 43 41
3 3 45 44
3 5 104 105
3 5 106 108
3 106 48 107
3 106 107 108
3 5 50 48
3 109 54 110
3 111 110 52
3 109 110 111
3 112 56 113
3 114 113 54
3 112 113 114
3 6 59 57
3 115 60 116
3 117 116 24
3 115 116 117
3 119 118 60
3 6 120 121
3 6 122 124
3 122 57 123
3 122 123 124
3 9 61 27
3 9 62 61
3 126 125 63
3 10 127 128
3 10 129 131
3 129 65 130
3 129 130 131
3 10 67 65
3 11 70 68
3 132 71 133
3 134 133 29
3 132 133 134
3 136 135 71
3 7 72 58
3 13 137 139
3 139 138 32
3 137 138 139
3 13 140 141
3 13 142 143
3 14 73 34
3 14 74 73
3 8 144 146
3 144 75 145
3 144 145 146
3 15 76 37
3 15 77 76
3 15 78 77
3 148 147 39
3 16 149 150
3 16 151 152
3 16 153 155
3 153 79 154
3 153 154 155
3 156 80 157
3 158 157 42
3 156 157 158
3 160 159 80
3 17 161 162
3 17 163 165
3 163 81 164
3 163 164 165
3 166 82 167
3 168 167 64
3 166 167 168
3 169 83 170
3 171 84 172
3 173 172 83
3 171 172 173
3 174 85 175
3 176 175 84
3 174 175 176
3 18 177 179
3 179 178 46
3 177 178 179
3 18 180 181
3 19 182 184
3 182 86 183
3 182 183 184
3 19 87 86
3 19 185 187
3 187 186 87
3 185 186 187
3 188 88 189
3 191 190 88
3 192 89 193
3 194 90 195
3 196 195 89
3 194 195 196
3 20 197 199
3 197 91 198
3 197 198 199
3 20 92 91
3 21 93 47
3 21 94 93
3 21 95 94
3 22 96 49
3 22 97 96
3 200 98 201
3 202 201 66
3 200 201 202
3 23 99 51
3 23 100 99
3 23 203 205
3 205 204 100
3 203 204 205
3 12 206 208
3 208 207 69
3 206 207 208
3 210 209 53
3 212 211 55
3 213 24 214
3 215 214 6
3 213 214 215
3 216 24 217
3 219 218 24
3 220 6 221
3 25 222 223
3 26 224 226
3 226 225 25
3 224 225 226
3 26 227 228
3 26 229 231
3 229 27 230
3 229 230 231
3 28 27 26
3 28 9 27
3 232 10 233
3 235 234 10
3 236 29 237
3 238 237 11
3 236 237 238
3 239 29 240
3 242 241 29
3 30 243 244
3 246 245 30
3 31 32 7
3 33 32 31
3 33 13 32
3 33 34 13
3 35 34 33
3 35 14 34
3 36 37 8
3 38 37 36
3 38 15 37
3 38 39 15
3 30 39 38
3 30 247 249
3 249 248 39
3 247 248 249
3 40 250 251
3 41 252 254
3 254 253 40
3 252 253 254
3 41 255 257
3 255 16 256
3 255 256 257
3 41 42 16
3 43 42 41
3 43 258 260
3 260 259 42
3 258 259 260
3 44 261 262
3 45 263 265
3 265 264 44
3 263 264 265
3 45 266 268
3 266 17 267
3 266 267 268
3 269 46 270
3 271 46 272
3 273 18 274
3 275 274 46
3 273 274 275
3 276 19 277
3 279 278 19
3 280 20 281
3 282 47 283
3 48 284 286
3 284 47 285
3 284 285 286
3 48 21 47
3 48 49 21
3 50 49 48
3 50 22 49
3 287 51 288
3 289 51 290
3 291 23 292
3 293 292 51
3 291 292 293
3 295 294 23
3 52 53 12
3 54 53 52
3 54 296 298
3 298 297 53
3 296 297 298
3 54 299 301
3 299 55 300
3 299 300 301
3 56 55 54
3 56 302 304
3 304 303 55
3 302 303 304
3 57 58 1
3 59 58 57
3 59 7 58
3 24 59 6
3 60 59 24
3 60 7 59
3 60 31 7
3 305 31 306
3 307 306 60
3 305 306 307
3 308 2 309
3 310 309 31
3 308 309 310
3 311 8 312
3 313 8 314
3 315 36 316
3 317 316 8
3 315 316 317
3 57 318 320
3 318 36 319
3 318 319 320
3 57 1 36
3 27 321 322
3 61 323 325
3 325 324 27
3 323 324 325
3 61 326 327
3 61 328 329
3 62 330 332
3 332 331 61
3 330 331 332
3 62 333 334
3 335 40 336
3 337 40 338
3 339 4 340
3 341 340 40
3 339 340 341
3 63 64 3
3 342 64 343
3 344 343 63
3 342 343 344
3 346 345 64
3 65 347 348
3 65 349 351
3 349 5 350
3 349 350 351
3 65 66 5
3 67 66 65
3 67 352 354
3 354 353 66
3 352 353 354
3 355 67 356
3 357 356 10
3 355 356 357
3 358 67 359
3 361 360 67
3 68 362 364
3 362 69 363
3 362 363 364
3 70 69 68
3 70 12 69
3 29 70 11
3 71 70 29
3 71 12 70
3 71 52 12
3 365 52 366
3 367 366 71
3 365 366 367
3 369 368 52
3 58 370 372
3 372 371 1
3 370 371 372
3 72 373 375
3 375 374 58
3 373 374 375
3 72 376 377
3 32 72 7
3 378 72 379
3 380 379 32
3 378 379 380
3 382 381 72
3 34 383 385
3 385 384 13
3 383 384 385
3 73 386 388
3 388 387 34
3 386 387 388
3 73 389 390
3 73 391 393
3 391 25 392
3 391 392 393
3 74 25 73
3 74 0 25
3 394 44 395
3 396 44 397
3 398 3 399
3 400 399 44
3 398 399 400
3 75 401 402
3 75 403 404
3 37 75 8
3 76 75 37
3 76 405 407
3 407 406 75
3 405 406 407
3 76 408 409
3 77 410 412
3 412 411 76
3 410 411 412
3 77 413 415
3 413 3 414
3 413 414 415
3 77 63 3
3 78 63 77
3 78 416 418
3 418 417 63
3 416 417 418
3 39 78 15
3 419 78 420
3 421 420 39
3 419 420 421
3 423 422 78
3 424 68 425
3 79 426 428
3 426 68 427
3 426 427 428
3 79 11 68
3 42 79 16
3 80 79 42
3 80 11 79
3 80 429 431
3 431 430 11
3 429 430 431
3 433 432 80
3 81 434 435
3 81 436 438
3 436 4 437
3 436 437 438
3 64 45 3
3 82 45 64
3 82 17 45
3 439 82 440
3 83 441 443
3 441 82 442
3 441 442 443
3 83 17 82
3 83 81 17
3 84 81 83
3 84 4 81
3 84 43 4
3 85 43 84
3 85 444 446
3 446 445 43
3 444 445 446
3 447 85 448
3 449 85 450
3 452 451 85
3 46 453 454
3 456 455 46
3 457 18 458
3 86 459 460
3 86 461 463
3 461 18 462
3 461 462 463
3 86 464 466
3 466 465 18
3 464 465 466
3 87 467 469
3 469 468 86
3 467 468 469
3 87 470 471
3 87 472 473
3 475 474 87
3 477 476 19
3 88 478 479
3 88 480 481
3 88 482 483
3 485 484 88
3 486 2 487
3 89 488 489
3 89 490 492
3 490 2 491
3 490 491 492
3 89 35 2
3 90 35 89
3 90 14 35
3 493 90 494
3 91 495 497
3 495 90 496
3 495 496 497
3 91 14 90
3 91 74 14
3 92 74 91
3 92 0 74
3 498 20 499
3 47 500 501
3 93 502 504
3 504 503 47
3 502 503 504
3 93 505 507
3 505 20 506
3 505 506 507
3 93 92 20
3 94 92 93
3 94 0 92
3 94 28 0
3 95 28 94
3 95 9 28
3 49 95 21
3 96 95 49
3 96 9 95
3 96 62 9
3 97 62 96
3 97 508 510
3 510 509 62
3 508 509 510
3 66 50 5
3 98 50 66
3 98 22 50
3 51 511 513
3 511 98 512
3 511 512 513
3 99 98 51
3 99 22 98
3 99 97 22
3 100 97 99
3 100 514 516
3 516 515 97
3 514 515 516
3 100 517 518
3 520 519 100
3 522 521 23
3 69 523 524
3 526 525 69
3 53 527 529
3 529 528 12
3 527 528 529
3 531 530 53
3 55 532 533
3 535 534 55
3 536 56 537
3 538 56 539
3 541 540 56
