ply
format ascii 1.0
element vertex 346
property float x
property float y
property float z
element face 289
property list uchar int vertex_index
end_header
-29.23613 -49.417393 -26.074108
-18.331291 -53.325268 -18.17971
-24.0476 -45.186226 -24.320877
-33.298153 -52.288334 -29.894562
-21.324305 -44.347847 -15.098162
-24.400896 -41.845066 -18.619595
-26.461775 -47.283997 -25.052055
-25.909779 -40.582932 -28.095852
-21.465721 -49.434757 -21.030926
-23.712944 -52.167694 -21.566341
-26.561584 -54.994633 -22.23035
-28.994566 -57.504955 -23.576439
-31.476929 -51.181538 -27.748413
-17.757683 -46.320816 -11.766254
-26.293842 -30.178829 -34.965237
-27.878237 -48.374573 -25.49157
-27.534513 -44.70689 -27.017998
-28.945772 -45.620956 -27.535698
-30.287498 -46.479366 -28.186333
-16.384926 -53.481354 -16.24036
-17.913414 -51.837337 -17.634754
-20.869617 -48.252434 -20.571789
-19.945568 -51.426849 -19.561611
-21.516975 -58.44492 -18.90823
-22.036377 -54.475639 -20.073593
-23.427391 -56.06974 -20.283886
-25.135208 -53.598869 -21.837177
-24.869522 -57.630047 -20.58947
-27.443953 -60.48019 -21.721313
-32.968971 -56.356628 -28.930557
-32.064487 -55.914333 -27.76112
-31.222336 -55.254005 -26.632294
-32.393677 -51.831467 -28.790314
-32.54155 -47.856796 -29.913258
-33.523186 -48.308437 -30.922356
-22.640453 -42.499901 -15.516207
-20.844276 -43.519371 -13.780907
-24.314404 -42.18092 -25.645554
-19.105019 -54.961506 -18.517387
-34.538403 -48.570377 -31.953106
-22.943253 -43.166176 -16.837509
-25.742369 -40.015862 -19.09193
-25.131758 -46.200996 -24.690945
-25.06715 -42.929733 -26.153412
-26.188074 -43.790321 -26.582561
-27.071383 -41.290943 -28.584663
-14.913335 -55.022346 -14.865278
-22.184818 -46.319717 -22.160149
-22.843277 -47.354095 -22.612976
-20.836308 -52.906456 -19.866398
-22.443695 -50.758595 -21.331089
-23.883179 -48.523224 -22.936771
-25.191936 -49.770599 -23.226711
-26.617447 -51.034191 -23.578701
-28.00927 -52.257355 -24.06995
-26.236177 -59.111176 -21.057541
-27.86998 -56.308788 -22.803307
-29.257133 -53.393211 -24.744797
-29.940435 -58.551483 -24.534248
-30.317642 -54.403286 -25.608822
-30.442282 -50.365929 -26.829315
-31.48571 -47.23708 -28.985535
-16.944283 -45.152359 -10.439699
-19.582142 -45.396484 -13.406761
-18.93276 -44.400078 -12.088093
-18.122352 -52.581302 -17.907232
-17.300148 -53.479829 -17.243771
-17.509087 -54.223795 -17.516248
-18.880189 -51.709078 -18.625093
-18.67125 -50.965113 -18.352615
-18.122352 -52.581302 -17.907232
-19.13843 -52.376058 -18.87066
-19.687328 -50.759868 -19.316044
-18.880189 -51.709078 -18.625093
-23.182758 -58.117046 -19.717678
-22.472183 -57.25733 -19.596058
-22.22755 -59.304636 -19.02985
-23.903824 -58.897199 -19.87047
-24.148457 -56.849894 -20.436678
-23.182758 -58.117046 -19.717678
-22.183506 -42.06575 -14.925826
-23.098447 -41.56007 -15.802376
-24.181002 -43.683573 -24.983216
-23.826887 -43.238554 -24.747709
-23.693486 -44.741207 -24.085371
-23.672075 -42.505621 -17.728552
-22.871317 -43.434826 -17.517902
-23.600138 -42.774271 -18.408946
-24.342639 -41.589512 -17.954146
-23.613817 -42.250067 -17.063102
-23.672075 -42.505621 -17.728552
-25.071632 -40.930464 -18.855763
-25.013376 -40.67491 -18.190313
-24.342639 -41.589512 -17.954146
-27.756921 -41.666507 -28.834049
-27.302948 -42.998916 -27.80133
-27.988486 -43.374481 -28.050717
-27.44487 -39.999159 -29.621759
-27.756921 -41.666507 -28.834049
-15.000587 -55.916527 -15.206825
-14.263994 -56.704588 -14.553048
-16.365508 -52.74834 -15.807875
-17.100197 -52.003559 -16.538776
-20.517173 -54.798361 -19.29718
-19.970664 -53.933981 -19.191893
-19.651528 -55.825886 -18.622675
-25.930011 -61.220951 -20.572359
-25.287267 -60.457013 -20.293959
-30.359847 -58.98414 -25.084179
-29.651736 -60.662165 -24.068905
-32.494946 -45.942143 -30.524891
-33.055014 -46.156562 -30.968872
-34.596395 -46.643692 -32.45463
-35.173006 -46.682787 -32.916647
-16.824507 -46.726647 -10.971017
-17.073569 -47.334461 -11.67442
-17.350983 -45.736587 -11.102977
-16.417807 -46.142418 -10.307739
-16.824507 -46.726647 -10.971017
-20.453224 -44.872166 -14.252461
-19.668284 -45.829351 -14.098475
-20.539365 -45.305032 -14.944175
-19.347772 -43.44582 -12.347806
-19.888518 -43.959725 -12.9345
-20.303529 -43.005466 -13.194213
-18.316554 -43.804211 -11.498433
-19.347772 -43.44582 -12.347806
-25.509106 -40.277485 -27.81876
-25.087792 -41.450885 -26.84754
-25.488464 -41.756332 -27.124632
-26.201847 -30.205412 -34.492012
-26.175271 -31.413746 -33.920879
-26.229519 -28.962722 -35.543574
-26.201847 -30.205412 -34.492012
-26.412371 -28.905242 -36.008931
-26.229519 -28.962722 -35.543574
-24.24913 -42.038294 -19.296187
-23.600138 -42.774271 -18.408946
-25.032428 -41.112595 -19.52936
-24.24913 -42.038294 -19.296187
-28.694116 -43.831514 -28.309567
-27.988486 -43.374481 -28.050717
-28.240143 -45.163923 -27.276848
-29.405675 -44.200939 -28.595585
-28.694116 -43.831514 -28.309567
-30.076538 -44.630144 -28.920903
-29.405675 -44.200939 -28.595585
-29.616635 -46.050161 -27.861016
-30.753529 -44.968248 -29.262291
-30.076538 -44.630144 -28.920903
-16.535904 -54.301838 -16.546574
-15.736383 -55.146031 -15.894366
-17.14917 -52.659346 -16.937557
-16.535904 -54.301838 -16.546574
-17.300148 -53.479829 -17.243771
-17.864441 -51.181551 -17.235974
-17.100197 -52.003559 -16.538776
-17.14917 -52.659346 -16.937557
-18.594923 -50.386343 -17.98522
-17.864441 -51.181551 -17.235974
-18.594923 -50.386343 -17.98522
-18.67125 -50.965113 -18.352615
-20.149352 -49.172661 -19.821133
-20.769924 -47.748646 -20.229056
-20.407592 -49.839641 -20.0667
-20.149352 -49.172661 -19.821133
-19.687328 -50.759868 -19.316044
-21.776676 -56.460279 -19.490911
-21.117207 -55.582953 -19.400778
-20.857506 -57.567593 -18.818096
-27.097465 -62.603834 -21.276784
-26.533898 -61.905459 -20.904245
-27.957735 -61.095165 -22.150442
-27.097465 -62.603834 -21.276784
-28.733041 -59.607548 -23.078005
-28.219259 -58.992573 -22.648876
-27.957735 -61.095165 -22.150442
-32.297797 -58.212507 -27.874477
-32.788691 -58.416477 -28.477926
-31.845555 -57.99136 -27.289759
-32.297797 -58.212507 -27.874477
-32.516729 -56.13548 -28.345838
-31.421873 -57.665565 -26.697615
-31.845555 -57.99136 -27.289759
-31.643411 -55.584169 -27.196707
-31.000797 -57.335402 -26.133201
-31.421873 -57.665565 -26.697615
-33.545832 -46.382383 -31.473422
-33.055014 -46.156562 -30.968872
-33.032368 -48.082617 -30.417807
-17.923759 -46.840431 -12.46376
-17.073569 -47.334461 -11.67442
-21.285418 -42.575485 -14.058176
-21.742365 -43.009636 -14.648557
-22.183506 -42.06575 -14.925826
-20.303529 -43.005466 -13.194213
-21.285418 -42.575485 -14.058176
-24.162875 -41.882575 -25.314579
-23.826887 -43.238554 -24.747709
-24.54021 -40.840283 -26.248632
-24.162875 -41.882575 -25.314579
-25.82373 -39.125855 -28.809669
-26.255733 -39.364841 -29.10915
-26.471262 -31.485799 -34.307312
-26.175271 -31.413746 -33.920879
-26.664418 -30.208922 -35.349328
-26.471262 -31.485799 -34.307312
-17.82207 -55.11954 -17.712803
-17.509087 -54.223795 -17.516248
-18.208934 -55.937658 -17.881641
-18.718155 -54.143387 -18.348548
-17.82207 -55.11954 -17.712803
-18.680771 -56.881332 -18.003445
-18.208934 -55.937658 -17.881641
-19.651528 -55.825886 -18.622675
-18.680771 -56.881332 -18.003445
-20.485371 -59.580323 -18.290878
-20.857506 -57.567593 -18.818096
-21.160066 -60.518811 -18.398424
-20.485371 -59.580323 -18.290878
-22.22755 -59.304636 -19.02985
-21.160066 -60.518811 -18.398424
-33.512158 -56.458818 -29.503982
-32.788691 -58.416477 -28.477926
-33.641029 -54.44446 -29.96348
-33.512158 -56.458818 -29.503982
-33.80562 -52.410313 -30.445483
-33.133562 -54.322481 -29.41256
-33.641029 -54.44446 -29.96348
-34.425745 -50.551334 -31.474754
-33.918278 -50.429355 -30.923834
-33.80562 -52.410313 -30.445483
-35.118243 -48.601454 -32.450897
-34.425745 -50.551334 -31.474754
-35.173006 -46.682787 -32.916647
-35.118243 -48.601454 -32.450897
-21.331539 -44.696694 -15.78399
-20.539365 -45.305032 -14.944175
-22.141013 -44.105858 -16.653664
-22.871317 -43.434826 -17.517902
-22.133779 -43.757012 -15.967835
-21.331539 -44.696694 -15.78399
-22.141013 -44.105858 -16.653664
-23.462418 -41.91693 -16.402452
-22.791853 -42.833039 -16.176858
-23.613817 -42.250067 -17.063102
-23.098447 -41.56007 -15.802376
-23.462418 -41.91693 -16.402452
-25.480788 -39.733627 -18.476406
-25.013376 -40.67491 -18.190313
-26.213215 -39.068289 -19.369694
-25.480788 -39.733627 -18.476406
-25.703164 -40.197992 -19.765528
-25.071632 -40.930464 -18.855763
-25.032428 -41.112595 -19.52936
-26.363546 -39.278938 -20.006527
-25.703164 -40.197992 -19.765528
-26.213215 -39.068289 -19.369694
-26.363546 -39.278938 -20.006527
-26.836536 -39.718847 -29.353555
-26.255733 -39.364841 -29.10915
-26.490581 -40.936937 -28.340257
-26.836536 -39.718847 -29.353555
-27.44487 -39.999159 -29.621759
-14.240853 -55.741947 -14.179511
-14.263994 -56.704588 -14.553048
-14.921915 -54.214042 -14.401273
-14.240853 -55.741947 -14.179511
-15.649131 -54.25185 -15.552819
-15.000587 -55.916527 -15.206825
-15.736383 -55.146031 -15.894366
-15.629713 -53.518836 -15.120334
-15.649131 -54.25185 -15.552819
-16.365508 -52.74834 -15.807875
-14.921915 -54.214042 -14.401273
-15.629713 -53.518836 -15.120334
-21.408278 -46.854153 -21.037987
-20.769924 -47.748646 -20.229056
-22.065878 -45.887794 -21.832167
-21.408278 -46.854153 -21.037987
-21.527217 -47.286075 -21.365969
-22.626739 -44.944446 -22.680639
-22.065878 -45.887794 -21.832167
-22.762094 -45.307952 -23.005007
-22.626739 -44.944446 -22.680639
-23.091324 -45.825142 -23.23142
-22.762094 -45.307952 -23.005007
-22.514048 -46.836906 -22.386563
-23.445439 -46.270161 -23.466926
-23.693486 -44.741207 -24.085371
-23.091324 -45.825142 -23.23142
-21.436343 -53.691047 -19.969995
-20.517173 -54.798361 -19.29718
-21.117207 -55.582953 -19.400778
-24.603939 -59.716448 -20.059923
-23.903824 -58.897199 -19.87047
-25.55285 -58.370611 -20.823505
-24.603939 -59.716448 -20.059923
-25.287267 -60.457013 -20.293959
-26.840065 -59.795683 -21.389427
-25.930011 -61.220951 -20.572359
-26.533898 -61.905459 -20.904245
-29.205976 -60.130812 -23.55691
-29.651736 -60.662165 -24.068905
-29.4675 -58.028219 -24.055343
-28.733041 -59.607548 -23.078005
-29.205976 -60.130812 -23.55691
-30.581385 -56.902744 -25.583271
-30.359847 -58.98414 -25.084179
-31.000797 -57.335402 -26.133201
-31.352635 -45.347105 -29.661892
-30.753529 -44.968248 -29.262291
-30.886604 -46.858223 -28.585934
-31.967025 -45.632284 -30.06103
-32.01363 -47.546938 -29.449396
-32.494946 -45.942143 -30.524891
-31.352635 -45.347105 -29.661892
-31.967025 -45.632284 -30.06103
-34.088787 -46.512722 -31.939255
-34.030794 -48.439407 -31.437731
-34.596395 -46.643692 -32.45463
-33.545832 -46.382383 -31.473422
-34.088787 -46.512722 -31.939255
-15.930003 -45.471275 -9.636498
-16.417807 -46.142418 -10.307739
-16.259613 -44.472948 -9.839647
-15.930003 -45.471275 -9.636498
-18.835989 -46.378265 -13.284014
-19.668284 -45.829351 -14.098475
-18.669913 -45.85865 -12.586507
-17.923759 -46.840431 -12.46376
-18.835989 -46.378265 -13.284014
-17.322316 -44.180352 -10.674236
-17.938522 -44.776218 -11.263896
-18.316554 -43.804211 -11.498433
-16.259613 -44.472948 -9.839647
-17.322316 -44.180352 -10.674236
-24.711419 -41.076479 -26.593611
-24.690777 -42.555326 -25.899483
-25.087792 -41.450885 -26.84754
-24.54021 -40.840283 -26.248632
-24.711419 -41.076479 -26.593611
-25.509106 -40.277485 -27.81876
-25.82373 -39.125855 -28.809669
-26.412371 -28.905242 -36.008931
-26.664418 -30.208922 -35.349328
3 0 17 15
3 0 18 17
3 1 65 67
3 65 20 66
3 65 66 67
3 1 68 70
3 70 69 20
3 68 69 70
3 1 71 73
3 71 22 72
3 71 72 73
3 74 25 75
3 76 75 23
3 74 75 76
3 77 27 78
3 79 78 25
3 77 78 79
3 3 30 29
3 3 32 30
3 3 34 32
3 81 80 35
3 2 82 84
3 82 37 83
3 82 83 84
3 5 85 87
3 85 40 86
3 85 86 87
3 5 88 90
3 90 89 40
3 88 89 90
3 5 91 93
3 91 41 92
3 91 92 93
3 6 44 42
3 94 45 95
3 96 95 16
3 94 95 96
3 98 97 45
3 99 46 100
3 102 101 19
3 8 47 21
3 8 48 47
3 103 49 104
3 105 104 38
3 103 104 105
3 9 50 24
3 9 51 50
3 9 52 51
3 10 53 26
3 10 54 53
3 106 55 107
3 11 56 28
3 11 57 56
3 108 58 109
3 12 59 31
3 12 60 59
3 12 61 60
3 111 110 33
3 113 112 39
3 13 114 115
3 13 116 118
3 116 62 117
3 116 117 118
3 4 119 121
3 119 63 120
3 119 120 121
3 122 64 123
3 124 123 36
3 122 123 124
3 126 125 64
3 7 127 129
3 129 128 43
3 127 128 129
3 14 130 131
3 14 132 133
3 14 134 135
3 136 5 137
3 139 138 5
3 15 16 6
3 17 16 15
3 17 140 142
3 142 141 16
3 140 141 142
3 17 143 144
3 18 145 147
3 147 146 17
3 145 146 147
3 18 148 149
3 150 19 151
3 20 152 154
3 152 19 153
3 152 153 154
3 20 155 157
3 157 156 19
3 155 156 157
3 20 158 159
3 161 160 20
3 162 21 163
3 22 164 166
3 164 21 165
3 164 165 166
3 22 8 21
3 23 167 169
3 167 24 168
3 167 168 169
3 25 24 23
3 25 9 24
3 25 26 9
3 27 26 25
3 27 10 26
3 170 28 171
3 172 28 173
3 174 11 175
3 176 175 28
3 174 175 176
3 29 177 178
3 30 179 181
3 181 180 29
3 179 180 181
3 30 182 183
3 30 184 186
3 184 31 185
3 184 185 186
3 32 31 30
3 32 12 31
3 32 33 12
3 34 33 32
3 34 187 189
3 189 188 33
3 187 188 189
3 190 13 191
3 35 36 4
3 192 36 193
3 194 193 35
3 192 193 194
3 196 195 36
3 37 197 198
3 37 199 200
3 202 201 7
3 203 14 204
3 206 205 14
3 207 1 208
3 209 38 210
3 211 210 1
3 209 210 211
3 212 38 213
3 215 214 38
3 216 23 217
3 218 23 219
3 221 220 23
3 222 29 223
3 224 29 225
3 226 3 227
3 228 227 29
3 226 227 228
3 229 39 230
3 231 230 3
3 229 230 231
3 232 39 233
3 235 234 39
3 236 4 237
3 40 238 239
3 40 240 242
3 240 4 241
3 240 241 242
3 40 35 4
3 243 35 244
3 245 244 40
3 243 244 245
3 247 246 35
3 41 248 249
3 41 250 251
3 252 41 253
3 254 253 5
3 252 253 254
3 255 41 256
3 258 257 41
3 42 43 2
3 44 43 42
3 44 7 43
3 16 44 6
3 45 44 16
3 45 7 44
3 45 259 261
3 261 260 7
3 259 260 261
3 263 262 45
3 46 264 265
3 46 266 267
3 19 268 270
3 268 46 269
3 268 269 270
3 271 46 272
3 273 272 19
3 271 272 273
3 275 274 46
3 21 276 277
3 47 278 280
3 280 279 21
3 278 279 280
3 47 281 282
3 47 283 284
3 48 285 287
3 287 286 47
3 285 286 287
3 48 288 290
3 288 2 289
3 288 289 290
3 38 22 1
3 49 22 38
3 49 8 22
3 24 291 293
3 291 49 292
3 291 292 293
3 50 49 24
3 50 8 49
3 50 48 8
3 51 48 50
3 51 2 48
3 51 42 2
3 52 42 51
3 52 6 42
3 26 52 9
3 53 52 26
3 53 6 52
3 53 15 6
3 54 15 53
3 54 0 15
3 294 27 295
3 55 296 298
3 296 27 297
3 296 297 298
3 55 10 27
3 28 299 301
3 299 55 300
3 299 300 301
3 56 55 28
3 56 10 55
3 56 54 10
3 57 54 56
3 57 0 54
3 58 302 303
3 58 304 306
3 304 11 305
3 304 305 306
3 31 307 309
3 307 58 308
3 307 308 309
3 59 58 31
3 59 11 58
3 59 57 11
3 60 57 59
3 60 0 57
3 60 18 0
3 61 18 60
3 61 310 312
3 312 311 18
3 310 311 312
3 33 61 12
3 313 61 314
3 315 314 33
3 313 314 315
3 317 316 61
3 39 34 3
3 318 34 319
3 320 319 39
3 318 319 320
3 322 321 34
3 62 323 324
3 62 325 326
3 63 327 328
3 63 329 331
3 329 13 330
3 329 330 331
3 36 63 4
3 64 63 36
3 64 13 63
3 64 62 13
3 332 62 333
3 334 333 64
3 332 333 334
3 336 335 62
3 43 37 2
3 337 37 338
3 339 338 43
3 337 338 339
3 341 340 37
3 343 342 7
3 345 344 14
