ply
format ascii 1.0
element vertex 141
property float x
property float y
property float z
element face 108
property list uchar int vertex_index
end_header
-2.622412 -115.186569 23.697714
-4.7651 -94.285706 25.549335
-1.219172 -105.234726 26.316374
-3.986628 -111.049606 30.038166
-1.076462 -110.595032 25.663275
-3.769922 -96.938477 25.791348
-3.834888 -97.974045 28.427231
-2.046143 -106.044098 28.885849
-1.157522 -115.153534 21.5583
-1.64316 -113.025452 24.844231
-0.37923 -112.685486 22.544287
-0.037134 -110.002457 23.220898
-3.052441 -100.675766 28.707878
-0.664846 -104.312927 23.696301
-4.919916 -109.056732 32.952637
-3.371954 -108.980484 30.880222
-3.189013 -113.089233 26.95055
-2.407551 -110.968857 27.955452
-2.028347 -108.596146 28.594206
-0.940386 -107.972855 26.142895
-0.14098 -107.186523 23.590523
-4.225044 -97.140571 29.594263
-4.22969 -96.64611 28.280106
-2.584701 -106.3554 30.112953
-2.627685 -105.111153 30.1766
-0.189424 -113.77153 20.897832
-0.768376 -113.91951 22.051293
-0.57857 -115.005554 20.404839
0.093308 -112.414749 21.331366
-0.189424 -113.77153 20.897832
-5.177094 -93.006974 25.454423
-5.024583 -93.511223 26.712265
-4.898789 -93.775109 24.295353
-5.177094 -93.006974 25.454423
-4.319871 -95.090576 24.382995
-4.898789 -93.775109 24.295353
-3.213882 -97.783272 24.608498
-3.259943 -98.303711 25.920458
-3.305947 -101.129318 30.027849
-3.561033 -99.808838 29.894911
-1.537309 -103.841507 26.285547
-1.817665 -104.308914 27.604833
-0.942009 -104.773826 25.006338
-1.260146 -103.380607 24.97551
-1.537309 -103.841507 26.285547
-4.453272 -110.053169 31.495401
-5.335444 -109.914612 32.413367
-4.868799 -110.911048 30.956132
-2.905712 -114.137901 25.324132
-3.768232 -113.98912 26.279687
-3.484932 -115.037789 24.653269
0.271319 -108.227654 22.14501
-0.089057 -108.59449 23.40571
0.323242 -109.635621 21.960197
0.105699 -106.750625 22.299178
0.271319 -108.227654 22.14501
-4.694795 -94.801941 26.841158
-5.024583 -93.511223 26.712265
-4.197207 -96.128327 26.962165
-4.267511 -95.612092 25.670341
-4.694795 -94.801941 26.841158
-3.802405 -97.456261 27.109289
-4.197207 -96.128327 26.962165
-4.22969 -96.64611 28.280106
-3.292426 -98.821495 27.238399
-3.259943 -98.303711 25.920458
-3.802405 -97.456261 27.109289
-2.23115 -104.7136 28.88957
-2.627685 -105.111153 30.1766
-1.632657 -105.639412 27.601112
-1.817665 -104.308914 27.604833
-2.23115 -104.7136 28.88957
-4.474657 -111.929001 29.425667
-4.868799 -110.911048 30.956132
0.264356 -111.073235 21.669671
-0.208182 -111.343972 22.882593
0.093308 -112.414749 21.331366
0.323242 -109.635621 21.960197
0.264356 -111.073235 21.669671
-3.298582 -116.096741 22.987551
-3.484932 -115.037789 24.653269
-2.480244 -116.25576 21.999371
-3.298582 -116.096741 22.987551
-1.747799 -116.239242 20.929664
-1.889967 -115.170051 22.628007
-2.480244 -116.25576 21.999371
-1.071636 -116.23809 19.840525
-1.747799 -116.239242 20.929664
-0.492685 -116.090111 18.687063
-0.57857 -115.005554 20.404839
-1.071636 -116.23809 19.840525
-3.822283 -96.416962 24.504002
-4.319871 -95.090576 24.382995
-4.267511 -95.612092 25.670341
-3.822283 -96.416962 24.504002
-3.213882 -97.783272 24.608498
-3.952256 -98.457977 29.754587
-4.225044 -97.140571 29.594263
-3.443664 -99.324905 28.567554
-3.952256 -98.457977 29.754587
-3.561033 -99.808838 29.894911
-2.901203 -100.172355 27.378723
-3.292426 -98.821495 27.238399
-3.443664 -99.324905 28.567554
-2.734299 -102.029434 28.800584
-3.305947 -101.129318 30.027849
-2.453943 -101.562027 27.481299
-2.734299 -102.029434 28.800584
-2.901203 -100.172355 27.378723
-2.453943 -101.562027 27.481299
-1.10264 -102.878655 23.654277
-1.260146 -103.380607 24.97551
-0.528838 -103.83345 22.394081
-1.10264 -102.878655 23.654277
-5.760568 -108.912071 33.869507
-5.335444 -109.914612 32.413367
-5.386456 -108.070373 34.327152
-5.760568 -108.912071 33.869507
-4.665744 -108.045074 33.288515
-5.386456 -108.070373 34.327152
-3.891763 -108.006951 32.252308
-4.665744 -108.045074 33.288515
-4.145935 -109.018608 31.916429
-3.247607 -107.823593 31.11014
-3.891763 -108.006951 32.252308
-4.075849 -112.948814 27.881859
-3.768232 -113.98912 26.279687
-3.587821 -112.069419 28.494358
-4.474657 -111.929001 29.425667
-4.075849 -112.948814 27.881859
-2.575804 -107.631424 29.967132
-3.247607 -107.823593 31.11014
-2.700151 -108.788315 29.737214
-2.037245 -107.320122 28.740028
-2.584701 -106.3554 30.112953
-2.575804 -107.631424 29.967132
-0.156235 -105.313828 22.352067
-0.402913 -105.749725 23.643412
0.105699 -106.750625 22.299178
-0.528838 -103.83345 22.394081
-0.156235 -105.313828 22.352067
3 21 6 22
3 23 7 24
3 25 10 26
3 27 26 8
3 25 26 27
3 29 28 10
3 1 30 31
3 1 32 33
3 1 34 35
3 37 36 5
3 38 12 39
3 2 40 41
3 2 42 44
3 42 13 43
3 42 43 44
3 3 45 47
3 45 14 46
3 45 46 47
3 3 15 14
3 0 48 50
3 48 16 49
3 48 49 50
3 4 17 9
3 4 18 17
3 4 19 18
3 51 20 52
3 53 52 11
3 51 52 53
3 55 54 20
3 56 1 57
3 58 5 59
3 60 59 1
3 58 59 60
3 6 61 63
3 61 5 62
3 61 62 63
3 6 64 66
3 66 65 5
3 64 65 66
3 7 67 68
3 7 69 71
3 69 2 70
3 69 70 71
3 72 3 73
3 8 9 0
3 10 9 8
3 10 4 9
3 10 11 4
3 74 11 75
3 76 75 10
3 74 75 76
3 78 77 11
3 79 0 80
3 81 0 82
3 83 8 84
3 85 84 0
3 83 84 85
3 86 8 87
3 90 89 8
3 88 89 90
3 5 91 93
3 93 92 1
3 91 92 93
3 95 94 5
3 96 6 97
3 12 98 100
3 98 6 99
3 98 99 100
3 12 101 103
3 103 102 6
3 101 102 103
3 104 12 105
3 106 12 107
3 109 108 12
3 13 110 111
3 13 112 113
3 14 114 115
3 14 116 117
3 14 118 119
3 15 120 122
3 122 121 14
3 120 121 122
3 15 123 124
3 16 125 126
3 16 127 129
3 127 3 128
3 127 128 129
3 9 16 0
3 17 16 9
3 17 3 16
3 17 15 3
3 18 15 17
3 18 130 132
3 132 131 15
3 130 131 132
3 18 133 135
3 133 7 134
3 133 134 135
3 19 7 18
3 19 2 7
3 11 19 4
3 20 19 11
3 20 2 19
3 20 13 2
3 136 13 137
3 138 137 20
3 136 137 138
3 140 139 13
