ply
format ascii 1.0
element vertex 202
property float x
property float y
property float z
element face 171
property list uchar int vertex_index
end_header
-21.867527 -70.151413 75.447083
-17.980526 -72.114204 76.603943
-19.506256 -67.425308 78.045982
-26.650095 -63.460209 74.378769
-29.409565 -61.42944 71.496384
-31.496712 -59.38398 68.002129
-23.289494 -65.469757 76.561493
-25.369614 -68.088448 73.525589
-32.064121 -54.65144 68.367722
-18.049829 -65.913818 79.130676
-28.368305 -60.025875 73.115982
-29.667713 -59.033539 71.589615
-30.535887 -60.40826 69.81604
-30.815405 -58.038891 69.937988
-19.954163 -71.150238 76.120529
-18.938026 -73.362671 75.160294
-21.849884 -63.983391 77.747162
-23.646093 -62.998119 76.820641
-27.62793 -64.786942 72.759621
-26.135031 -65.819138 74.070259
-26.895422 -67.040245 72.269859
-16.829063 -70.738495 77.788925
-18.833351 -69.811386 77.41748
-20.799286 -68.847557 76.858658
-25.343601 -62.008255 75.738892
-28.112642 -62.446808 73.022171
-28.943586 -63.749397 71.26033
-30.07597 -62.707966 69.584274
-16.984535 -74.327545 75.592354
-19.976681 -64.958046 78.518532
-21.437054 -66.457764 77.389755
-22.693064 -67.855377 76.116432
-25.035568 -64.468796 75.558815
-24.481735 -66.843521 75.188469
-23.684031 -69.127762 74.58345
-31.812956 -57.041019 68.178543
-32.308022 -58.358715 66.080658
-17.275714 -65.130814 79.683071
-17.071894 -66.377433 79.350948
-29.729078 -57.805132 71.610946
-29.0627 -58.285761 72.359287
-30.302924 -57.307808 70.785133
-30.241559 -58.536215 70.763801
-29.729078 -57.805132 71.610946
-21.357855 -71.253647 74.991749
-20.401173 -71.75306 75.328472
-20.910845 -70.650825 75.783806
-22.271286 -70.735557 74.585633
-21.357855 -71.253647 74.991749
-23.715952 -61.723365 76.887569
-22.84685 -62.214066 77.401452
-27.568307 -66.513759 71.543365
-27.261676 -65.913593 72.51474
-27.934561 -65.387108 71.788246
-27.778864 -67.064598 70.474575
-27.105979 -67.591083 71.201068
-27.568307 -66.513759 71.543365
-16.1783 -70.001793 78.305733
-15.824533 -71.180672 77.874489
-19.169804 -68.618347 77.731731
-18.179906 -69.087609 77.972438
-18.516359 -67.89457 78.286689
-31.264145 -60.524277 67.877079
-30.783732 -61.036417 68.784034
-31.016299 -59.89612 68.909085
-31.663289 -60.003391 66.897213
-31.264145 -60.524277 67.877079
-17.482531 -73.220875 76.098149
-16.484247 -73.681328 76.241146
-16.982242 -72.574657 76.74694
-18.367328 -74.420852 74.570389
-19.310642 -73.914688 74.272862
-20.109918 -63.685173 78.698341
-19.182623 -64.17316 79.07647
-24.875678 -69.177365 73.12355
-24.032886 -69.697022 73.652481
-24.526823 -68.608105 74.054519
-31.621523 -53.90856 69.297699
-32.211098 -53.446827 68.512887
-31.528981 -55.133513 69.204895
-31.621523 -53.90856 69.297699
-31.938538 -55.846229 68.273133
-31.403399 -56.328302 69.110306
-31.528981 -55.133513 69.204895
-32.652386 -57.847364 65.081253
-32.489548 -57.199309 66.205425
-32.40519 -58.973416 64.910816
-32.652386 -57.847364 65.081253
-17.788145 -67.138824 78.829037
-17.071894 -66.377433 79.350948
-18.778042 -66.669563 78.588329
-18.516359 -67.89457 78.286689
-17.788145 -67.138824 78.829037
-28.412996 -58.781929 73.122471
-27.686419 -59.264129 73.818672
-29.018009 -59.529707 72.352799
-28.412996 -58.781929 73.122471
-29.0627 -58.285761 72.359287
-19.893104 -72.859276 74.848354
-19.446095 -72.256455 75.640411
-20.401173 -71.75306 75.328472
-19.310642 -73.914688 74.272862
-19.893104 -72.859276 74.848354
-21.948746 -62.706701 77.864712
-21.04652 -63.197845 78.312657
-22.747988 -63.490755 77.283901
-21.948746 -62.706701 77.864712
-22.84685 -62.214066 77.401452
-26.416026 -68.122624 71.897274
-25.653122 -68.646725 72.525139
-26.132518 -67.564346 72.897724
-26.626583 -68.673462 70.828484
-26.416026 -68.122624 71.897274
-27.105979 -67.591083 71.201068
-32.534832 -54.16639 67.492554
-32.211098 -53.446827 68.512887
-32.367598 -55.345671 67.348957
-32.534832 -54.16639 67.492554
-16.40651 -71.886803 77.339432
-15.824533 -71.180672 77.874489
-17.404795 -71.42635 77.196434
-16.982242 -72.574657 76.74694
-16.40651 -71.886803 77.339432
-17.177762 -69.551163 78.158161
-16.1783 -70.001793 78.305733
-17.831207 -70.27494 77.603203
-17.177762 -69.551163 78.158161
-18.179906 -69.087609 77.972438
-25.393209 -60.740273 75.769036
-24.564706 -61.228433 76.346695
-26.13332 -61.512726 75.120666
-25.393209 -60.740273 75.769036
-26.786568 -62.238703 74.440605
-25.996848 -62.734232 75.05883
-26.13332 -61.512726 75.120666
-27.645672 -60.521536 73.809212
-27.686419 -59.264129 73.818672
-27.517841 -61.732003 73.762306
-27.645672 -60.521536 73.809212
-28.240474 -61.236341 73.069076
-27.381369 -62.953508 73.70047
-26.786568 -62.238703 74.440605
-27.517841 -61.732003 73.762306
-28.592389 -64.868336 71.038601
-27.934561 -65.387108 71.788246
-28.285758 -64.268169 72.009975
-29.171094 -64.34077 70.217506
-28.592389 -64.868336 71.038601
-29.737286 -63.820055 69.379479
-29.171094 -64.34077 70.217506
-29.509778 -63.228682 70.422302
-30.22478 -63.29278 68.472473
-29.737286 -63.820055 69.379479
-30.553774 -62.18627 68.668151
-30.305929 -61.558113 69.700157
-30.783732 -61.036417 68.784034
-30.22478 -63.29278 68.472473
-30.553774 -62.18627 68.668151
-16.006922 -74.784584 75.706028
-16.484247 -73.681328 76.241146
-16.437176 -75.38271 74.9902
-16.006922 -74.784584 75.706028
-17.390583 -74.903289 74.786419
-17.961281 -73.845108 75.376324
-18.367328 -74.420852 74.570389
-16.843224 -75.958454 74.184265
-16.437176 -75.38271 74.9902
-17.390583 -74.903289 74.786419
-18.219197 -64.651047 79.382542
-17.275714 -65.130814 79.683071
-19.013255 -65.435932 78.824604
-18.219197 -64.651047 79.382542
-19.182623 -64.17316 79.07647
-20.913283 -64.470719 78.132847
-20.109918 -63.685173 78.698341
-21.04652 -63.197845 78.312657
-24.494847 -62.503187 76.279766
-23.715952 -61.723365 76.887569
-24.564706 -61.228433 76.346695
-23.179538 -70.223732 74.153816
-22.271286 -70.735557 74.585633
-22.775779 -69.639588 75.015266
-23.179538 -70.223732 74.153816
-24.032886 -69.697022 73.652481
-24.875678 -69.177365 73.12355
-25.653122 -68.646725 72.525139
-30.904623 -56.827238 69.990028
-30.302924 -57.307808 70.785133
-31.31418 -57.539955 69.058266
-30.904623 -56.827238 69.990028
-31.403399 -56.328302 69.110306
-32.242015 -56.54046 67.254368
-31.938538 -55.846229 68.273133
-32.367598 -55.345671 67.348957
-32.060489 -57.699867 67.129601
-32.242015 -56.54046 67.254368
-32.489548 -57.199309 66.205425
-32.068944 -59.490759 65.936477
-31.663289 -60.003391 66.897213
-31.902367 -58.871347 67.041393
-32.068944 -59.490759 65.936477
-32.40519 -58.973416 64.910816
3 37 9 38
3 39 11 40
3 41 13 42
3 43 42 11
3 41 42 43
3 0 44 46
3 46 45 14
3 44 45 46
3 0 47 48
3 49 17 50
3 51 20 52
3 53 52 18
3 51 52 53
3 56 55 20
3 54 55 56
3 57 21 58
3 2 59 61
3 59 22 60
3 59 60 61
3 2 23 22
3 4 25 10
3 4 26 25
3 4 27 26
3 5 62 64
3 64 63 12
3 62 63 64
3 5 65 66
3 1 67 69
3 67 28 68
3 67 68 69
3 71 70 15
3 72 29 73
3 6 30 16
3 6 31 30
3 3 32 24
3 7 33 19
3 7 34 33
3 7 74 76
3 76 75 34
3 74 75 76
3 8 77 78
3 8 79 80
3 8 81 83
3 81 35 82
3 81 82 83
3 84 36 85
3 87 86 36
3 9 88 89
3 9 90 92
3 90 2 91
3 90 91 92
3 93 10 94
3 11 95 97
3 95 10 96
3 95 96 97
3 11 4 10
3 11 12 4
3 13 12 11
3 13 5 12
3 14 15 1
3 98 15 99
3 100 99 14
3 98 99 100
3 102 101 15
3 103 16 104
3 17 105 107
3 105 16 106
3 105 106 107
3 17 6 16
3 18 19 3
3 20 19 18
3 20 7 19
3 20 108 110
3 110 109 7
3 108 109 110
3 113 112 20
3 111 112 113
3 114 8 115
3 117 116 8
3 21 118 119
3 21 120 122
3 120 1 121
3 120 121 122
3 123 21 124
3 22 125 127
3 125 21 126
3 125 126 127
3 22 1 21
3 22 14 1
3 23 14 22
3 23 0 14
3 128 24 129
3 130 24 131
3 132 3 133
3 134 133 24
3 132 133 134
3 10 135 136
3 25 137 139
3 139 138 10
3 137 138 139
3 25 140 142
3 140 3 141
3 140 141 142
3 25 18 3
3 26 18 25
3 26 143 145
3 145 144 18
3 143 144 145
3 26 146 147
3 27 148 150
3 150 149 26
3 148 149 150
3 27 151 152
3 12 27 4
3 153 27 154
3 155 154 12
3 153 154 155
3 157 156 27
3 28 158 159
3 28 160 161
3 15 28 1
3 162 28 163
3 164 163 15
3 162 163 164
3 167 166 28
3 165 166 167
3 168 9 169
3 29 170 172
3 170 9 171
3 170 171 172
3 29 2 9
3 16 173 175
3 173 29 174
3 173 174 175
3 30 29 16
3 30 2 29
3 30 23 2
3 31 23 30
3 31 0 23
3 24 176 178
3 176 17 177
3 176 177 178
3 32 17 24
3 32 6 17
3 19 32 3
3 33 32 19
3 33 6 32
3 33 31 6
3 34 31 33
3 34 0 31
3 34 179 181
3 181 180 0
3 179 180 181
3 183 182 34
3 185 184 7
3 186 13 187
3 35 188 190
3 188 13 189
3 188 189 190
3 35 5 13
3 191 35 192
3 193 192 8
3 191 192 193
3 36 194 196
3 194 35 195
3 194 195 196
3 36 5 35
3 36 197 199
3 199 198 5
3 197 198 199
3 201 200 36
