ply
format ascii 1.0
element vertex 462
property float x
property float y
property float z
element face 413
property list uchar int vertex_index
end_header
61.373314 10.775881 10.800816
43.972466 20.809525 8.364885
64.360313 9.00452 17.35527
37.802086 6.137817 2.243454
39.055138 6.370296 9.106703
43.844425 4.926525 11.826288
57.57933 13.828037 7.335328
37.31966 14.611977 4.793999
37.982822 6.559826 6.145959
38.611416 14.669212 7.729095
47.73888 19.175411 8.167545
43.99543 12.89282 10.015154
47.583496 11.578362 9.707941
47.239311 3.955757 11.766649
51.310772 10.171793 8.971285
59.102226 16.017471 11.120312
59.661469 12.151119 8.559456
63.466705 5.534107 11.566449
37.07827 13.653709 0.75845
39.215874 9.883846 -9.537979
59.643238 14.261608 14.193982
62.939209 9.775532 13.828311
60.37886 12.883457 17.87055
40.904266 14.000488 9.444124
41.042648 5.765482 10.999386
54.850883 8.73764 8.390144
37.773491 11.909159 -4.119274
37.833096 14.747147 6.410876
47.673733 15.393154 8.875329
49.565636 14.609943 8.53363
49.4524 10.882769 9.358572
51.424423 13.811142 8.156948
60.232849 13.376389 10.816487
59.665089 14.199757 9.562768
60.545948 11.417034 9.563999
62.465233 8.173056 11.061829
39.545555 6.737169 -8.569483
57.986755 16.572514 14.667928
58.046917 15.626274 16.40387
59.977913 13.530869 15.972904
38.4035 6.530293 7.754488
40.77042 18.095119 8.609745
42.300621 17.533833 9.02692
43.953304 8.898647 10.897243
42.392361 9.415472 10.695009
42.353149 5.367002 11.539721
49.069649 3.438725 11.521382
58.272865 16.063976 7.781489
56.314667 14.724247 7.114382
54.873562 12.188038 7.599166
56.41106 11.382809 7.559142
63.67823 9.38019 15.545873
37.435951 15.318039 -5.144032
36.977585 16.40876 -2.60845
37.442104 9.902306 1.584244
37.672153 9.259663 -0.723122
38.019833 5.667048 -0.001287
37.433975 10.35268 3.684016
37.786098 6.434547 4.300817
37.661697 10.598312 5.546992
38.134773 10.647579 7.147713
38.855347 10.522938 8.467462
43.991768 16.874969 9.179853
45.798904 16.153137 9.111584
45.749035 12.251793 9.947502
45.650436 8.34219 10.875944
45.485111 4.453873 11.887527
47.44352 7.757051 10.678284
49.290661 7.150736 10.364773
51.152042 6.530769 10.006739
59.028652 15.103432 8.545489
58.684982 12.962315 7.81319
36.728706 17.345051 -0.232969
37.071606 14.246887 2.899754
38.850037 12.99778 -10.551769
58.004154 17.614777 13.089809
59.362171 15.091103 12.566467
60.775543 12.648895 12.278263
62.16806 10.232065 12.234786
61.322605 12.020235 13.913683
61.885544 11.477396 15.686755
62.457188 10.989893 17.562124
63.013237 10.510889 19.505102
39.642525 14.408043 8.739037
39.81675 10.254745 9.496529
42.367043 13.484283 9.860328
41.003502 9.875572 10.235382
39.937668 6.106876 10.189887
53.205112 13.001572 7.820581
53.119698 9.452902 8.623346
52.994072 5.907806 9.680573
54.792694 5.297176 9.459251
52.823421 2.388758 10.937243
63.4758 7.785063 12.422529
38.070309 14.149662 -7.802181
38.41304 10.885298 -6.779247
38.737843 7.590601 -5.83452
37.32029 12.857479 -1.593992
38.108887 8.465044 -3.207081
50.53846 16.018549 8.05154
49.608702 16.459461 8.209619
51.467854 15.619148 7.863198
50.49503 14.210542 8.345289
50.53846 16.018549 8.05154
61.38919 9.712162 10.341405
60.975508 10.032739 9.722997
60.959631 11.096457 10.182408
61.919274 9.474469 10.931323
61.93515 8.41075 10.471912
61.38919 9.712162 10.341405
40.184275 4.890441 -9.480431
39.69162 5.177481 -8.104401
57.068905 16.198652 17.586635
57.122492 16.736244 16.687202
58.132566 15.201709 17.338757
57.068905 16.198652 17.586635
37.976852 4.271244 2.487242
38.081423 4.132917 1.399994
38.839485 4.409942 8.676856
38.513666 4.489941 8.000749
38.729319 6.450295 8.430595
39.125484 4.317499 9.383585
38.839485 4.409942 8.676856
43.136544 19.171679 8.695902
42.263108 19.528397 8.595203
43.09903 21.166243 8.264185
43.042263 3.15164 12.105228
42.296625 3.371879 11.961945
43.098787 5.146764 11.683004
43.753399 2.967805 12.303778
43.042263 3.15164 12.105228
48.931663 1.605474 12.147005
50.005276 3.175332 11.370959
57.464388 15.441824 7.303252
57.811155 16.559793 7.526332
57.926097 14.946006 7.558408
56.946998 14.276142 7.224855
56.832056 15.889929 7.192779
57.464388 15.441824 7.303252
64.825081 8.088725 16.455105
64.484039 8.27656 15.550407
64.019272 9.192355 16.450572
36.697414 18.667658 -2.001357
36.819315 18.134241 -3.188312
38.081423 4.132917 1.399994
38.190297 3.897532 0.277623
37.91096 5.902432 1.121083
46.768892 17.664274 8.639565
45.813261 18.084566 8.729765
46.783249 19.595703 8.257746
58.957826 16.521275 10.500483
58.573915 17.377351 11.404078
59.381484 11.013233 8.381028
58.89324 11.418831 8.007896
59.173226 12.556717 8.186323
63.192989 4.299822 11.435754
62.835247 5.701641 11.023249
63.910168 4.188769 11.921428
63.636451 2.954483 11.790733
63.192989 4.299822 11.435754
37.195633 14.429432 3.846877
37.027438 16.399545 3.385745
37.151465 16.58209 4.332867
39.687942 9.450242 -10.950807
39.505024 11.007209 -11.457702
39.032955 11.440813 -10.044874
57.224289 18.314763 14.200962
57.389853 18.937677 13.447228
62.172868 11.098308 20.693005
61.926102 11.398108 19.678641
63.264221 10.246287 20.493001
62.172868 11.098308 20.693005
38.049768 4.549897 5.451118
37.951406 4.487257 4.528548
37.88446 6.497186 5.223388
40.517181 3.889757 10.913185
39.964691 4.060454 10.508436
40.490158 5.936179 10.594637
46.244693 2.28574 12.358322
45.367593 2.534798 12.418761
46.362211 4.204815 11.827088
54.04033 14.316056 7.468537
53.235674 14.767575 7.555122
54.744058 3.591846 10.099612
55.663715 5.007699 9.431138
53.759422 2.137637 10.838608
53.808058 3.842967 10.198247
54.744058 3.591846 10.099612
52.719896 0.653661 11.626224
53.759422 2.137637 10.838608
37.588334 16.391958 -7.043171
37.891692 15.737488 -8.355759
38.270873 6.754479 -2.809387
37.89052 8.862354 -1.965102
38.052506 7.151788 -1.567408
38.574055 6.396201 -4.08698
38.270873 6.754479 -2.809387
37.679934 16.762587 5.967056
37.576378 14.679562 5.602438
37.423216 16.695002 5.158618
38.092391 16.752396 6.639938
37.679934 16.762587 5.967056
38.48155 16.713428 7.299048
38.222256 14.708179 7.069985
38.092391 16.752396 6.639938
48.662751 16.851067 8.380469
47.706306 17.284282 8.521437
48.695324 18.742195 8.026577
48.619684 15.001548 8.70448
48.662751 16.851067 8.380469
49.608702 16.459461 8.209619
60.41791 10.317485 9.241347
59.97567 10.684527 8.739076
60.103708 11.784076 9.061727
60.41791 10.317485 9.241347
60.975508 10.032739 9.722997
62.334511 7.021116 10.770938
61.93515 8.41075 10.471912
62.965969 6.853582 11.314139
62.835247 5.701641 11.023249
62.334511 7.021116 10.770938
37.423216 16.695002 5.158618
37.151465 16.58209 4.332867
40.031585 6.380396 -9.972098
39.866745 7.953735 -10.456346
39.380714 8.310507 -9.053731
40.031585 6.380396 -9.972098
40.184275 4.890441 -9.480431
57.092411 17.209364 15.81923
57.21559 17.793631 14.990022
58.016836 16.099394 15.535899
57.092411 17.209364 15.81923
57.122492 16.736244 16.687202
59.098064 14.154007 17.123275
59.012415 14.578571 16.188387
58.132566 15.201709 17.338757
59.298538 13.830301 18.072097
60.178387 13.207163 16.921727
59.098064 14.154007 17.123275
38.336084 4.539377 7.179419
38.125746 4.554143 6.375155
38.193161 6.54506 6.950223
38.336084 4.539377 7.179419
38.513666 4.489941 8.000749
41.498007 19.80904 8.386616
40.703548 20.104342 8.153892
41.535521 17.814476 8.818333
41.498007 19.80904 8.386616
42.263108 19.528397 8.595203
41.681595 3.540578 11.637704
41.026344 3.739818 11.367537
41.697899 5.566242 11.269554
41.681595 3.540578 11.637704
42.296625 3.371879 11.961945
48.020634 1.819935 12.225271
47.105465 2.078451 12.347905
48.15448 3.697241 11.644015
48.020634 1.819935 12.225271
48.931663 1.605474 12.147005
58.085777 17.623552 7.929566
58.353363 17.076721 8.323018
58.085777 17.623552 7.929566
57.811155 16.559793 7.526332
56.268517 16.390076 7.055708
56.832056 15.889929 7.192779
55.595108 15.177393 7.115438
56.268517 16.390076 7.055708
55.594115 13.456143 7.356774
54.874555 13.909289 7.35783
55.595108 15.177393 7.115438
64.052208 8.42179 14.737921
63.682698 8.619461 13.87914
63.308719 9.577861 14.687092
64.052208 8.42179 14.737921
64.484039 8.27656 15.550407
37.048498 17.588881 -4.456104
37.271155 16.976146 -5.714097
37.206768 15.863399 -3.876241
37.048498 17.588881 -4.456104
36.819315 18.134241 -3.188312
38.226346 5.355481 -1.20649
38.052506 7.151788 -1.567408
37.845993 7.463356 -0.362205
38.381712 3.686462 -0.875409
38.226346 5.355481 -1.20649
38.381712 3.686462 -0.875409
38.190297 3.897532 0.277623
44.909693 18.445482 8.7639
43.982117 18.842247 8.772369
44.900042 20.41276 8.356416
44.895336 16.514053 9.145719
44.909693 18.445482 8.7639
45.813261 18.084566 8.729765
51.046473 4.721355 10.613637
50.005276 3.175332 11.370959
50.110845 4.984747 10.76406
59.239258 15.612417 9.721711
58.957826 16.521275 10.500483
59.383657 15.108614 10.34154
58.921039 16.064255 9.213071
59.239258 15.612417 9.721711
59.346871 14.651594 9.054129
58.731257 16.596449 8.705018
58.921039 16.064255 9.213071
58.650759 15.583704 8.163489
58.353363 17.076721 8.323018
58.731257 16.596449 8.705018
58.250473 11.783351 7.782021
57.697647 12.216212 7.54309
58.132156 13.395176 7.574259
58.250473 11.783351 7.782021
58.89324 11.418831 8.007896
59.381484 11.013233 8.381028
59.97567 10.684527 8.739076
65.194076 7.935605 17.313983
64.65409 8.799733 18.290823
36.571829 19.560924 0.282027
36.572975 19.135804 -0.813616
36.725321 17.707918 0.853965
36.571829 19.560924 0.282027
36.900103 15.862247 1.349674
36.903488 15.49938 0.26274
36.725321 17.707918 0.853965
36.896771 16.158836 2.420326
37.027438 16.399545 3.385745
37.074938 13.950298 1.829102
36.900103 15.862247 1.349674
36.896771 16.158836 2.420326
39.298712 12.483285 -11.960233
38.647759 14.510504 -11.085904
39.298712 12.483285 -11.960233
39.505024 11.007209 -11.457702
39.687942 9.450242 -10.950807
39.866745 7.953735 -10.456346
43.971943 22.7344 7.941406
43.09903 21.166243 8.264185
44.919381 22.309224 7.985201
43.971943 22.7344 7.941406
44.900042 20.41276 8.356416
44.919381 22.309224 7.985201
47.77307 21.037205 7.851821
46.783249 19.595703 8.257746
48.737585 20.566629 7.768796
47.77307 21.037205 7.851821
48.695324 18.742195 8.026577
48.737585 20.566629 7.768796
58.024879 18.176004 12.388827
57.389853 18.937677 13.447228
58.55319 16.816124 12.105061
58.573915 17.377351 11.404078
58.024879 18.176004 12.388827
57.995455 17.093646 13.878868
57.224289 18.314763 14.200962
57.21559 17.793631 14.990022
59.445972 13.445671 19.059275
59.298538 13.830301 18.072097
60.608913 12.584391 18.861365
59.445972 13.445671 19.059275
61.648077 11.637609 18.707152
61.418024 11.936675 17.716337
60.608913 12.584391 18.861365
62.735213 10.750391 18.533613
61.648077 11.637609 18.707152
61.926102 11.398108 19.678641
63.980553 9.552917 19.365739
64.65409 8.799733 18.290823
63.686775 9.757704 18.430186
63.980553 9.552917 19.365739
63.264221 10.246287 20.493001
37.968858 4.419609 3.515924
37.976852 4.271244 2.487242
37.794092 6.286182 3.272136
37.968858 4.419609 3.515924
37.951406 4.487257 4.528548
38.049768 4.549897 5.451118
38.125746 4.554143 6.375155
39.026792 16.593296 7.81287
38.48155 16.713428 7.299048
40.106295 18.306249 8.253195
40.703548 20.104342 8.153892
39.542347 16.462711 8.317841
40.106295 18.306249 8.253195
40.206473 16.251581 8.674391
39.12697 14.538628 8.234066
39.026792 16.593296 7.81287
39.542347 16.462711 8.317841
39.56675 4.185789 9.925177
39.125484 4.317499 9.383585
39.496403 6.238586 9.648295
39.56675 4.185789 9.925177
39.964691 4.060454 10.508436
40.517181 3.889757 10.913185
41.026344 3.739818 11.367537
44.573742 2.731479 12.334398
43.753399 2.967805 12.303778
44.664768 4.690199 11.856908
44.573742 2.731479 12.334398
45.367593 2.534798 12.418761
46.244693 2.28574 12.358322
47.105465 2.078451 12.347905
52.345329 15.17236 7.723306
51.467854 15.619148 7.863198
52.314768 13.406357 7.988765
52.345329 15.17236 7.723306
53.235674 14.767575 7.555122
54.039337 12.594805 7.709874
54.04033 14.316056 7.468537
54.874555 13.909289 7.35783
51.967488 4.409873 10.450554
51.046473 4.721355 10.613637
52.073057 6.219288 9.843656
57.113512 10.993598 7.654997
56.995195 12.605423 7.447235
57.697647 12.216212 7.54309
56.450266 9.712872 7.947734
57.113512 10.993598 7.654997
55.670177 8.390287 8.363235
55.630972 10.060225 7.974643
56.450266 9.712872 7.947734
55.641082 6.670055 8.897788
55.663715 5.007699 9.431138
54.821788 7.017408 8.924698
55.670177 8.390287 8.363235
55.641082 6.670055 8.897788
51.882162 2.650349 11.078889
51.967488 4.409873 10.450554
52.908747 4.148282 10.308908
51.753923 0.864261 11.741203
51.882162 2.650349 11.078889
51.753923 0.864261 11.741203
52.719896 0.653661 11.626224
63.950993 7.624227 13.176248
63.207504 8.780297 13.12542
63.682698 8.619461 13.87914
64.065545 6.527086 12.621088
63.950993 7.624227 13.176248
64.060997 5.401607 12.193048
63.471252 6.659585 11.994489
64.065545 6.527086 12.621088
63.910168 4.188769 11.921428
64.060997 5.401607 12.193048
64.825081 8.088725 16.455105
65.194076 7.935605 17.313983
38.281555 15.161547 -9.730553
38.647759 14.510504 -11.085904
38.460173 13.573721 -9.176975
38.281555 15.161547 -9.730553
37.891692 15.737488 -8.355759
37.75313 14.73385 -6.473107
37.588334 16.391958 -7.043171
37.271155 16.976146 -5.714097
39.287764 5.604197 -6.73692
39.69162 5.177481 -8.104401
39.141699 7.163885 -7.202001
36.853145 16.876905 -1.42071
36.697414 18.667658 -2.001357
36.572975 19.135804 -0.813616
38.888533 5.958979 -5.400699
38.423365 8.027823 -4.5208
38.574055 6.396201 -4.08698
39.287764 5.604197 -6.73692
38.888533 5.958979 -5.400699
3 99 29 100
3 101 31 102
3 103 102 29
3 101 102 103
3 0 34 32
3 0 104 106
3 106 105 34
3 104 105 106
3 0 107 109
3 107 35 108
3 107 108 109
3 111 110 36
3 112 38 113
3 115 114 38
3 3 116 117
3 4 118 120
3 120 119 40
3 118 119 120
3 4 121 122
3 1 123 125
3 123 42 124
3 123 124 125
3 5 45 43
3 5 126 128
3 128 127 45
3 126 127 128
3 5 129 130
3 132 131 46
3 6 133 135
3 135 134 47
3 133 134 135
3 6 136 138
3 136 48 137
3 136 137 138
3 6 50 48
3 2 139 141
3 141 140 51
3 139 140 141
3 142 53 143
3 3 56 54
3 3 144 146
3 146 145 56
3 144 145 146
3 7 59 57
3 9 60 27
3 9 61 60
3 10 147 149
3 147 63 148
3 147 148 149
3 12 64 28
3 12 65 64
3 12 67 65
3 14 68 30
3 14 69 68
3 15 150 151
3 16 70 33
3 16 71 70
3 16 152 154
3 154 153 71
3 152 153 154
3 17 155 156
3 17 157 159
3 157 158 159
3 7 160 162
3 160 73 161
3 160 161 162
3 7 57 73
3 19 163 165
3 165 164 74
3 163 164 165
3 166 75 167
3 20 76 37
3 20 77 76
3 20 79 77
3 22 80 39
3 22 81 80
3 168 82 169
3 171 170 82
3 8 172 174
3 174 173 58
3 172 173 174
3 23 83 41
3 23 84 83
3 11 85 62
3 24 86 44
3 24 87 86
3 24 175 177
3 177 176 87
3 175 176 177
3 13 178 180
3 180 179 66
3 178 179 180
3 181 88 182
3 25 89 49
3 25 90 89
3 183 91 184
3 185 92 186
3 187 186 91
3 185 186 187
3 189 188 92
3 21 93 78
3 190 94 191
3 26 95 52
3 26 96 95
3 18 97 72
3 192 98 193
3 194 193 55
3 192 193 194
3 196 195 98
3 197 27 198
3 199 198 7
3 197 198 199
3 200 27 201
3 202 9 203
3 204 203 27
3 202 203 204
3 205 28 206
3 207 206 10
3 205 206 207
3 29 208 210
3 208 28 209
3 208 209 210
3 29 12 28
3 29 30 12
3 31 30 29
3 31 14 30
3 32 33 15
3 34 33 32
3 34 16 33
3 34 211 213
3 213 212 16
3 211 212 213
3 215 214 34
3 35 216 217
3 35 218 220
3 218 17 219
3 218 219 220
3 221 7 222
3 36 223 225
3 225 224 19
3 223 224 225
3 227 226 36
3 228 37 229
3 38 230 232
3 230 37 231
3 230 231 232
3 38 20 37
3 38 39 20
3 233 39 234
3 235 234 38
3 233 234 235
3 236 22 237
3 238 237 39
3 236 237 238
3 40 239 241
3 241 240 8
3 239 240 241
3 243 242 40
3 244 41 245
3 42 246 248
3 246 41 247
3 246 247 248
3 42 23 41
3 43 44 11
3 45 44 43
3 45 24 44
3 45 249 251
3 251 250 24
3 249 250 251
3 253 252 45
3 46 254 256
3 256 255 13
3 254 255 256
3 258 257 46
3 47 259 260
3 262 261 47
3 48 263 264
3 48 265 266
3 48 267 269
3 267 49 268
3 267 268 269
3 50 49 48
3 50 25 49
3 51 270 272
3 272 271 21
3 270 271 272
3 274 273 51
3 275 52 276
3 53 277 279
3 277 52 278
3 277 278 279
3 53 26 52
3 54 55 18
3 56 55 54
3 56 280 282
3 282 281 55
3 280 281 282
3 56 283 284
3 286 285 56
3 57 58 3
3 59 58 57
3 59 8 58
3 27 59 7
3 60 59 27
3 60 8 59
3 60 40 8
3 61 40 60
3 61 4 40
3 287 62 288
3 289 288 1
3 287 288 289
3 63 290 292
3 290 62 291
3 290 291 292
3 63 11 62
3 28 63 10
3 64 63 28
3 64 11 63
3 64 43 11
3 65 43 64
3 65 5 43
3 65 66 5
3 67 66 65
3 67 13 66
3 30 67 12
3 68 67 30
3 68 13 67
3 68 46 13
3 69 46 68
3 69 293 295
3 295 294 46
3 293 294 295
3 33 296 298
3 298 297 15
3 296 297 298
3 70 299 301
3 301 300 33
3 299 300 301
3 70 302 303
3 70 304 306
3 304 47 305
3 304 305 306
3 71 47 70
3 71 6 47
3 71 307 309
3 309 308 6
3 307 308 309
3 311 310 71
3 313 312 16
3 315 314 2
3 316 72 317
3 318 72 319
3 320 18 321
3 322 321 72
3 320 321 322
3 73 323 324
3 73 325 327
3 325 18 326
3 325 326 327
3 73 54 18
3 57 54 73
3 57 3 54
3 74 328 329
3 331 330 74
3 333 332 19
3 334 1 335
3 336 1 337
3 339 338 1
3 340 10 341
3 342 10 343
3 345 344 10
3 75 346 347
3 75 348 350
3 348 15 349
3 348 349 350
3 37 351 353
3 351 75 352
3 351 352 353
3 76 75 37
3 76 15 75
3 76 32 15
3 77 32 76
3 77 0 32
3 77 78 0
3 79 78 77
3 79 21 78
3 39 79 20
3 80 79 39
3 80 21 79
3 80 51 21
3 81 51 80
3 81 2 51
3 354 22 355
3 356 22 357
3 358 81 359
3 360 359 22
3 358 359 360
3 82 361 363
3 361 81 362
3 361 362 363
3 82 2 81
3 82 364 366
3 366 365 2
3 364 365 366
3 368 367 82
3 58 369 371
3 371 370 3
3 369 370 371
3 373 372 58
3 375 374 8
3 376 9 377
3 41 378 379
3 83 380 382
3 382 381 41
3 380 381 382
3 83 383 385
3 383 9 384
3 383 384 385
3 83 61 9
3 84 61 83
3 84 4 61
3 62 42 1
3 85 42 62
3 85 23 42
3 44 85 11
3 86 85 44
3 86 23 85
3 86 84 23
3 87 84 86
3 87 4 84
3 87 386 388
3 388 387 4
3 386 387 388
3 390 389 87
3 392 391 24
3 66 393 395
3 395 394 5
3 393 394 395
3 397 396 66
3 399 398 13
3 400 31 401
3 88 402 404
3 402 31 403
3 402 403 404
3 88 14 31
3 49 405 407
3 405 88 406
3 405 406 407
3 89 88 49
3 89 14 88
3 89 69 14
3 90 69 89
3 90 408 410
3 410 409 69
3 408 409 410
3 411 50 412
3 413 412 6
3 411 412 413
3 414 50 415
3 416 25 417
3 418 417 50
3 416 417 418
3 91 419 420
3 91 421 423
3 421 25 422
3 421 422 423
3 91 90 25
3 92 90 91
3 92 424 426
3 426 425 90
3 424 425 426
3 92 427 428
3 430 429 92
3 78 35 0
3 93 35 78
3 93 17 35
3 431 93 432
3 433 432 21
3 431 432 433
3 434 93 435
3 436 17 437
3 438 437 93
3 436 437 438
3 440 439 17
3 442 441 2
3 443 74 444
3 94 445 447
3 445 74 446
3 445 446 447
3 94 19 74
3 52 448 450
3 448 94 449
3 448 449 450
3 95 94 52
3 95 19 94
3 95 36 19
3 96 36 95
3 96 451 453
3 453 452 36
3 451 452 453
3 72 454 456
3 454 53 455
3 454 455 456
3 97 53 72
3 97 26 53
3 55 97 18
3 98 97 55
3 98 26 97
3 98 96 26
3 457 96 458
3 459 458 98
3 457 458 459
3 461 460 96
