ply
format ascii 1.0
element vertex 210
property float x
property float y
property float z
element face 196
property list uchar int vertex_index
end_header
-0.67337 73.865356 28.704189
-1.501078 79.342194 12.131775
-3.126583 84.128159 21.721268
-2.747868 75.387161 38.136295
-1.137438 77.178238 20.355938
-1.40007 73.164505 15.420255
-1.078142 70.518936 23.540787
-0.271091 69.474213 36.961067
-0.601698 66.801682 31.706646
-1.821495 82.747696 16.983685
-1.402348 79.798935 25.376778
-5.590485 83.094376 26.056248
-2.801867 80.320435 30.054379
-1.07128 75.685623 33.747368
-0.908812 75.663101 24.526058
-1.056816 73.953918 21.96604
-0.824482 72.334061 26.104898
-3.32732 85.573364 17.557161
-2.326317 83.728989 19.386845
-1.612625 81.423187 21.16832
-2.123995 82.190598 23.583202
-3.969385 79.69519 32.143295
-2.728794 77.985291 34.148811
-1.806864 78.222549 31.954899
-1.74136 75.820847 36.055336
-0.998003 73.226669 37.835369
-1.768984 73.166214 40.042324
-0.700806 63.000851 33.110077
-4.629416 86.906006 15.712428
-4.421955 85.568848 19.822317
-1.340216 78.404663 16.218489
-1.411726 76.348602 13.781294
-1.257137 75.293442 17.851032
-1.265488 71.980515 19.462503
-1.31312 68.516861 21.068069
-0.453016 71.796707 32.860344
-0.578642 70.443451 30.241203
-2.00679 83.77121 12.842293
-1.571327 81.253555 14.550777
-1.374521 80.131302 18.697365
-1.154716 78.713882 22.882799
-0.932415 77.004517 27.084888
-5.780571 84.947006 21.992764
-4.225645 83.912903 23.953659
-4.066172 81.949646 28.074404
-2.942911 82.373322 25.898129
-1.942581 80.351212 27.783993
-1.21393 77.882187 29.581383
-0.729855 75.012299 31.27446
-0.570412 72.751709 35.416946
-0.850554 68.788116 27.631165
-1.151218 66.927124 25.092869
-2.738331 76.686226 36.142553
-3.34452 77.576951 35.131184
-3.354056 76.277885 37.124926
-1.505987 78.231529 10.951836
-1.55367 79.669174 10.119171
-0.878442 62.134758 31.836776
-0.771164 61.04911 33.7834
-5.314681 86.694198 16.820955
-5.426647 87.297966 14.804678
-5.210951 86.02562 18.8759
-4.525685 86.237427 17.767373
-5.314681 86.694198 16.820955
-0.306366 68.885666 35.653126
-0.397328 70.046913 33.602764
-0.362054 70.63546 34.910705
-1.914143 83.259453 14.912989
-2.265983 84.365654 14.031495
-2.173336 83.853897 16.102191
-5.685528 84.020691 24.024506
-6.563724 84.348816 23.020801
-6.46868 83.422501 25.052543
-0.737462 71.734398 38.65518
-1.006721 71.876831 39.820265
-1.437952 73.616127 13.426733
-1.44378 75.208176 12.607253
-1.405898 74.756553 14.600774
-1.192913 65.076002 25.860985
-1.045851 66.004799 27.104222
-1.253965 65.935486 23.885086
-1.192913 65.076002 25.860985
-0.204106 67.694703 37.673359
-0.210447 68.196953 38.96653
-2.926248 85.266731 16.388929
-3.423841 86.138336 15.493377
-2.425747 84.344544 17.303771
-2.926248 85.266731 16.388929
-2.826818 84.651176 18.472003
-2.073906 83.238343 18.185265
-2.173336 83.853897 16.102191
-2.425747 84.344544 17.303771
-6.376396 82.409042 27.030462
-6.46868 83.422501 25.052543
-3.964815 78.4319 34.128426
-4.685061 79.100395 33.078489
-3.349089 78.84024 33.146053
-3.964815 78.4319 34.128426
-3.34452 77.576951 35.131184
-1.392211 71.846604 40.923743
-1.006721 71.876831 39.820265
-1.383493 73.196441 38.938846
-1.424552 72.024544 14.265048
-1.406869 71.501618 16.243277
-0.820646 64.041663 31.112825
-0.771092 65.942078 30.41111
-0.651252 64.901266 32.408361
-0.820646 64.041663 31.112825
-0.878442 62.134758 31.836776
-4.726864 87.412781 13.679175
-5.426647 87.297966 14.804678
-4.07489 86.804657 14.57101
-4.726864 87.412781 13.679175
-3.978368 86.239685 16.634794
-3.423841 86.138336 15.493377
-4.07489 86.804657 14.57101
-3.404745 74.889221 39.03747
-3.354056 76.277885 37.124926
-2.81408 73.967713 40.054727
-3.404745 74.889221 39.03747
-1.339578 70.909622 18.264401
-1.406869 71.501618 16.243277
-1.332779 72.57251 17.441379
-1.363394 69.177796 19.067183
-1.339578 70.909622 18.264401
-1.289304 70.248688 20.265286
-1.361225 67.462356 19.900403
-1.363394 69.177796 19.067183
-0.460141 69.370285 32.293194
-0.515829 71.120079 31.550773
-0.397328 70.046913 33.602764
-0.471669 67.5494 33.025915
-0.59017 68.622567 30.973924
-0.460141 69.370285 32.293194
-0.306366 68.885666 35.653126
-0.204106 67.694703 37.673359
-0.478239 65.690025 33.722809
-0.471669 67.5494 33.025915
-0.527793 63.78961 34.424524
-0.651252 64.901266 32.408361
-0.478239 65.690025 33.722809
-0.57839 61.85284 35.080562
-0.527793 63.78961 34.424524
-0.648748 59.9011 35.753885
-0.771164 61.04911 33.7834
-0.57839 61.85284 35.080562
-1.613751 80.712784 11.29465
-1.55367 79.669174 10.119171
-2.352172 84.827614 11.971921
-2.265983 84.365654 14.031495
-2.077452 84.134903 10.798865
-2.352172 84.827614 11.971921
-1.866607 82.927292 11.649909
-2.077452 84.134903 10.798865
-1.648875 81.668464 12.504151
-1.866607 82.927292 11.649909
-1.789058 82.512383 13.696535
-1.536202 80.297875 13.341276
-1.613751 80.712784 11.29465
-1.648875 81.668464 12.504151
-6.679138 85.20655 21.028854
-6.563724 84.348816 23.020801
-5.890259 85.714698 19.961123
-6.679138 85.20655 21.028854
-5.101263 85.257927 20.907541
-5.210951 86.02562 18.8759
-5.890259 85.714698 19.961123
-5.522981 82.017586 28.06772
-6.376396 82.409042 27.030462
-4.712431 80.317993 31.111243
-4.685061 79.100395 33.078489
-4.760825 81.445221 29.076798
-4.712431 80.317993 31.111243
-4.017779 80.822418 30.10885
-4.828328 82.522011 27.065326
-5.522981 82.017586 28.06772
-4.760825 81.445221 29.076798
-0.523667 71.496917 37.445969
-0.784207 72.989189 36.626158
-0.737462 71.734398 38.65518
-0.374006 69.85817 38.218029
-0.420752 71.112961 36.189007
-0.523667 71.496917 37.445969
-0.210447 68.196953 38.96653
-0.374006 69.85817 38.218029
-2.324638 72.857239 41.007742
-2.258426 74.276688 39.089309
-2.81408 73.967713 40.054727
-1.838798 71.72419 41.958873
-2.324638 72.857239 41.007742
-1.392211 71.846604 40.923743
-1.838798 71.72419 41.958873
-1.461311 76.734734 11.776596
-1.505987 78.231529 10.951836
-1.456402 77.845398 12.956535
-1.461311 76.734734 11.776596
-1.44378 75.208176 12.607253
-1.437952 73.616127 13.426733
-1.424552 72.024544 14.265048
-0.89552 66.935295 28.373369
-0.726126 67.794899 29.668906
-0.771092 65.942078 30.41111
-1.000886 67.85762 26.362017
-0.89552 66.935295 28.373369
-1.045851 66.004799 27.104222
-1.334916 66.730355 21.872686
-1.232169 67.721992 23.080469
-1.253965 65.935486 23.885086
-1.361225 67.462356 19.900403
-1.334916 66.730355 21.872686
3 0 16 14
3 2 18 17
3 2 20 18
3 3 52 54
3 52 22 53
3 52 53 54
3 3 24 22
3 3 26 24
3 1 55 56
3 58 57 27
3 59 28 60
3 61 29 62
3 63 62 28
3 61 62 63
3 4 32 30
3 6 33 15
3 6 34 33
3 7 64 66
3 66 65 35
3 64 65 66
3 9 67 69
3 67 37 68
3 67 68 69
3 9 38 37
3 9 39 38
3 10 40 19
3 10 41 40
3 11 70 72
3 70 42 71
3 70 71 72
3 11 43 42
3 12 44 21
3 12 45 44
3 12 46 45
3 13 47 23
3 13 48 47
3 13 49 48
3 74 73 25
3 5 75 77
3 77 76 31
3 75 76 77
3 8 50 36
3 78 51 79
3 81 80 51
3 14 15 4
3 16 15 14
3 16 6 15
3 83 82 7
3 17 84 85
3 18 86 88
3 88 87 17
3 86 87 88
3 18 89 91
3 89 9 90
3 89 90 91
3 18 19 9
3 20 19 18
3 20 10 19
3 92 11 93
3 94 21 95
3 22 96 98
3 96 21 97
3 96 97 98
3 22 12 21
3 22 23 12
3 24 23 22
3 24 13 23
3 24 25 13
3 26 25 24
3 26 99 101
3 101 100 25
3 99 100 101
3 103 102 5
3 27 104 106
3 106 105 8
3 104 105 106
3 108 107 27
3 28 109 110
3 28 111 112
3 28 113 115
3 113 17 114
3 113 114 115
3 29 17 28
3 29 2 17
3 116 3 117
3 119 118 3
3 30 31 1
3 32 31 30
3 32 5 31
3 15 32 4
3 33 32 15
3 33 5 32
3 33 120 122
3 122 121 5
3 120 121 122
3 34 123 125
3 125 124 33
3 123 124 125
3 34 126 127
3 35 36 0
3 128 36 129
3 130 129 35
3 128 129 130
3 131 8 132
3 133 132 36
3 131 132 133
3 135 134 7
3 136 8 137
3 138 27 139
3 140 139 8
3 138 139 140
3 141 27 142
3 145 144 27
3 143 144 145
3 146 1 147
3 37 148 149
3 37 150 151
3 37 152 153
3 38 154 156
3 156 155 37
3 154 155 156
3 38 157 159
3 157 1 158
3 157 158 159
3 38 30 1
3 39 30 38
3 39 4 30
3 19 39 9
3 40 39 19
3 40 4 39
3 40 14 4
3 41 14 40
3 41 0 14
3 42 160 161
3 42 162 163
3 42 164 166
3 164 29 165
3 164 165 166
3 43 29 42
3 43 2 29
3 167 11 168
3 21 169 170
3 44 171 173
3 173 172 21
3 171 172 173
3 44 174 176
3 174 11 175
3 174 175 176
3 44 43 11
3 45 43 44
3 45 2 43
3 45 20 2
3 46 20 45
3 46 10 20
3 23 46 12
3 47 46 23
3 47 10 46
3 47 41 10
3 48 41 47
3 48 0 41
3 48 35 0
3 49 35 48
3 49 7 35
3 25 49 13
3 177 49 178
3 179 178 25
3 177 178 179
3 180 7 181
3 182 181 49
3 180 181 182
3 184 183 7
3 185 26 186
3 187 186 3
3 185 186 187
3 188 26 189
3 191 190 26
3 31 192 194
3 194 193 1
3 192 193 194
3 196 195 31
3 198 197 5
3 36 16 0
3 50 16 36
3 50 6 16
3 199 50 200
3 201 200 8
3 199 200 201
3 51 202 204
3 202 50 203
3 202 203 204
3 51 6 50
3 51 34 6
3 205 34 206
3 207 206 51
3 205 206 207
3 209 208 34
