ply
format ascii 1.0
element vertex 472
property float x
property float y
property float z
element face 428
property list uchar int vertex_index
end_header
-2.24815 -4.416752 58.641224
-5.234095 -8.913503 86.413483
-1.569988 3.796032 53.395233
0.914143 -3.13341 47.662567
-0.880171 -6.559622 83.195709
-11.378931 -12.873217 84.281868
-2.168964 -0.728067 56.41914
-2.066908 -3.559383 53.168003
-2.800684 -7.429359 85.592766
-5.683649 -1.897072 85.004021
-3.161278 -0.296206 84.056458
0.342068 1.111197 77.921944
0.863297 1.312092 73.496506
0.501152 1.392668 68.770065
-0.554199 8.468779 49.897785
0.972567 5.078697 47.032784
-0.633293 0.69113 50.271179
-1.121382 -7.159113 50.318264
0.419939 -6.185523 79.527596
-1.059973 0.650566 81.586273
-8.095049 -10.853888 85.789513
-0.479063 1.322266 64.164215
-1.543541 0.837774 60.011787
-1.619625 6.087948 57.123928
-2.264627 -2.782087 57.682602
-2.492693 -4.005053 56.122482
-2.565062 -5.690814 57.415775
-3.959959 -8.09773 86.204071
-2.527287 -10.879588 86.329895
-3.692904 -11.515074 86.90567
-6.816225 -6.453111 85.569412
-7.021244 -2.941393 84.877045
-5.475531 -5.455757 85.717674
-4.206556 -4.599544 85.480415
0.754768 -2.465189 76.608429
0.718136 1.232023 75.775589
0.939571 -2.377747 74.342682
0.907507 -2.292021 72.009109
-1.097269 6.129011 51.699238
-0.544468 4.597364 50.126881
-1.204845 2.337677 51.759895
-2.42613 -7.240344 53.009033
-1.693123 -5.28152 51.6833
-0.146133 -6.326545 81.490707
0.539515 -9.710632 80.30043
0.020958 -9.829652 82.277603
-1.95343 -3.37641 83.79995
-2.039494 0.251753 82.995132
-1.016741 -2.997625 82.403847
-0.23917 -2.742306 80.700226
-9.681286 -11.880577 85.102554
-12.951174 -10.93854 82.499702
-11.27372 -9.851657 83.461052
-9.70425 -8.705027 84.354759
1.000771 0.984112 47.40078
1.838131 3.090988 45.772263
1.849623 -1.104189 46.180962
0.251722 -2.092745 67.348053
0.059647 1.386005 66.428955
-0.290636 -1.992416 65.110916
-0.88681 -1.921684 62.98996
-1.343138 6.907368 59.216797
-1.614073 3.489735 58.693718
-1.204979 4.094671 60.75378
-1.935728 1.495226 54.975571
-1.78072 0.116669 53.301159
-2.222788 -2.022575 54.754959
-2.56159 -5.52818 54.543915
-2.951241 -9.059937 54.352409
-1.769445 -6.919297 84.580009
-0.665094 -10.045419 83.981194
-1.515808 -10.389552 85.347748
-8.548197 -0.537775 83.691811
-7.182919 0.687534 84.161209
-4.387875 -1.011105 84.732697
-3.025015 -3.905602 84.837395
0.715033 -7.246156 47.828972
0.35393 4.85598 76.988068
0.67473 4.961983 74.805794
0.606838 4.987202 70.078064
0.783306 1.364847 71.142807
0.668406 -2.196808 69.661575
0.834517 9.124304 46.560074
0.149456 6.867369 48.395451
0.177458 2.883316 48.703724
0.095549 -1.133984 48.914165
-1.403191 -1.468626 51.751984
-0.826164 -3.233184 50.331341
0.805183 -6.097419 77.373138
0.88632 -9.648351 78.120255
-0.25692 0.926945 79.877556
0.357462 -2.576496 78.747948
-6.613586 -9.847099 86.254196
-5.003613 -12.276426 87.085228
-8.223606 -7.55323 85.088661
1.714149 7.249504 45.249672
-0.703903 4.497496 62.950069
-1.039181 1.16194 62.014931
-1.454451 -1.927439 61.027874
-1.919319 -2.111101 59.271305
-1.072811 9.894388 51.56868
-1.434113 7.478024 53.438976
-1.706152 5.050838 55.18288
-1.87178 2.628603 56.771175
-1.93244 0.23674 58.158661
0.968306 -4.201192 74.71785
0.84717 -2.421468 75.475555
0.875905 -4.244913 75.850724
0.962985 -4.156964 73.545609
0.968306 -4.201192 74.71785
-2.248249 -8.167521 52.289438
-2.640234 -9.086975 52.924542
-10.551471 -13.888431 85.035412
-9.702649 -13.392111 85.445755
-10.530109 -12.376897 84.692211
-0.227457 -3.707154 65.474491
-0.019457 -2.04258 66.229484
0.043722 -3.757319 66.593059
-0.537286 -3.580724 64.411646
-0.227457 -3.707154 65.474491
-1.137247 7.218461 60.335051
-1.235752 8.666975 59.453783
-1.068167 5.812112 61.103542
-1.274058 5.501019 59.985288
-1.137247 7.218461 60.335051
-2.698751 -6.412076 55.228039
-2.527141 -4.766616 55.333198
-2.664302 -5.650513 56.017322
-2.893576 -8.177955 55.132286
-2.756416 -7.294059 54.448162
-2.698751 -6.412076 55.228039
-1.878811 -12.34201 86.211239
-2.387354 -12.574998 86.68082
-8.467929 -2.325788 84.041004
-9.226282 -1.205442 83.293374
-5.748439 -0.066019 84.626869
-6.498074 1.226284 84.205464
-6.433284 -0.604769 84.582615
-5.035762 -1.454089 84.868359
-5.100552 0.376965 84.491208
-5.748439 -0.066019 84.626869
1.128046 -8.363696 47.259461
0.563657 -9.286953 47.876482
0.347999 2.983588 77.455006
0.070594 4.763039 77.979371
0.064663 2.890648 78.446309
0.80785 3.157808 72.989319
0.713566 4.982753 73.643963
0.769014 3.137037 74.15115
0.823301 1.338469 72.319657
0.767854 3.184185 71.812469
0.80785 3.157808 72.989319
0.721057 -4.003899 70.027985
0.787956 -2.244414 70.835342
0.840607 -4.051506 71.201752
0.522491 -3.918025 68.869575
0.721057 -4.003899 70.027985
-0.202371 7.668074 49.146618
0.085478 8.832694 48.195257
-0.26635 9.633399 48.946424
-0.609731 -6.160408 49.67473
-0.462122 -4.197444 49.681269
-0.973773 -5.196148 50.324803
-0.759718 -8.168231 49.695149
-0.609731 -6.160408 49.67473
0.772974 -11.414521 79.587959
0.626451 -11.436028 80.690418
-0.209371 -11.656337 83.522969
-0.532408 -11.759262 84.368675
-3.172226 1.554194 83.638596
-3.813505 1.188251 83.995598
-1.537816 2.309565 81.858715
-2.027576 2.110158 82.563144
-1.549733 0.451159 82.290703
-1.035973 2.516555 81.143482
-1.537816 2.309565 81.858715
-0.658447 0.788755 80.731915
-0.634447 2.654745 80.289124
-1.035973 2.516555 81.143482
-7.272644 -11.990591 86.350441
-6.531912 -11.487196 86.582782
-7.354317 -10.350493 86.021854
2.211 4.123385 44.897778
2.25543 1.992884 45.172573
-4.22517 -13.569078 87.322365
-4.91078 -13.914003 87.389793
0.388576 3.151007 68.211643
0.441418 4.948274 68.865643
0.553995 3.189935 69.424065
-0.33172 3.038708 64.71302
-0.062365 3.070578 65.845391
-0.209708 1.354135 65.296585
-0.591483 2.909881 63.557142
-0.444139 4.626323 64.105947
-0.33172 3.038708 64.71302
-1.426674 -3.4127 61.384744
-1.17063 -1.924561 62.008917
-1.142853 -3.409823 62.365788
-1.686269 -3.280226 60.509775
-1.426674 -3.4127 61.384744
-1.219092 10.523968 52.49693
-1.093857 11.759294 51.469873
-1.399744 9.315786 53.432077
-1.253462 8.686206 52.503828
-1.219092 10.523968 52.49693
-1.57855 7.36513 56.238743
-1.520524 7.855225 57.282522
-1.662888 5.569393 56.153404
-1.621814 6.846576 55.268219
-1.57855 7.36513 56.238743
-2.700487 -6.493393 56.663969
-2.664302 -5.650513 56.017322
-2.528878 -4.847933 56.769128
-2.970162 -12.892741 86.968708
-2.387354 -12.574998 86.68082
-3.110095 -11.197331 86.617783
-6.918735 -4.697252 85.223229
-7.704453 -3.527597 84.633622
-7.601943 -5.283456 84.979805
0.946953 -4.114102 72.378822
0.923539 -2.334884 73.175895
0.962985 -4.156964 73.545609
0.840607 -4.051506 71.201752
0.946953 -4.114102 72.378822
-1.881746 -7.188109 51.626571
-2.059627 -6.260932 52.346167
-2.248249 -8.167521 52.289438
-1.595875 -8.126905 50.944053
-1.407253 -6.220317 51.000782
-1.881746 -7.188109 51.626571
-1.316095 -9.115195 50.286591
-1.595875 -8.126905 50.944053
0.367173 -11.495538 81.679004
0.626451 -11.436028 80.690418
0.280236 -9.770142 81.289017
-8.853364 -12.950343 85.777423
-8.060246 -12.436998 86.120903
-8.888167 -11.367233 85.446033
-8.853364 -12.950343 85.777423
-9.702649 -13.392111 85.445755
-12.862637 -9.420493 82.02821
-13.686504 -10.003916 81.485527
-12.02391 -8.877052 82.508884
-12.862637 -9.420493 82.02821
-12.112447 -10.395098 82.980377
-11.256608 -8.251413 83.047909
-12.02391 -8.877052 82.508884
-10.488985 -9.278342 83.907905
-10.471873 -7.678097 83.494763
-11.256608 -8.251413 83.047909
2.261176 -0.104705 45.376923
2.25543 1.992884 45.172573
1.843877 0.993399 45.976613
-0.835373 -3.545358 63.351168
-0.588723 -1.95705 64.050438
-0.537286 -3.580724 64.411646
-1.142853 -3.409823 62.365788
-0.835373 -3.545358 63.351168
-1.382281 8.264935 58.328957
-1.235752 8.666975 59.453783
-1.481381 6.497658 58.170362
-1.520524 7.855225 57.282522
-1.382281 8.264935 58.328957
-2.902789 -9.996771 53.596229
-2.640234 -9.086975 52.924542
-2.688686 -8.15014 53.680721
-0.957766 -11.931328 85.051952
-0.532408 -11.759262 84.368675
-1.090451 -10.217486 84.664471
-1.373072 -12.096992 85.720166
-2.021548 -10.63457 85.838821
-1.878811 -12.34201 86.211239
-0.957766 -11.931328 85.051952
-1.373072 -12.096992 85.720166
-9.282428 0.617133 82.935158
-9.226282 -1.205442 83.293374
-8.604218 1.314203 83.324753
-9.282428 0.617133 82.935158
-7.784721 -1.739584 84.284428
-8.467929 -2.325788 84.041004
-7.704453 -3.527597 84.633622
-7.921579 1.926857 83.559452
-8.604218 1.314203 83.324753
-7.865558 0.074879 83.92651
-7.220406 2.557813 83.771309
-7.921579 1.926857 83.559452
-7.220406 2.557813 83.771309
-6.498074 1.226284 84.205464
-4.426804 0.830802 84.333718
-5.100552 0.376965 84.491208
-3.774577 -0.653655 84.394577
-3.813505 1.188251 83.995598
-4.426804 0.830802 84.333718
-11.460234 -14.302143 84.641316
-12.286658 -13.329168 83.844433
-13.852058 -11.429657 82.023956
-13.686504 -10.003916 81.485527
-13.07278 -12.36183 82.95335
-13.852058 -11.429657 82.023956
-12.286658 -13.329168 83.844433
-12.165052 -11.905879 83.390785
-13.07278 -12.36183 82.95335
1.23182 -6.275711 47.154927
1.331375 -4.219338 47.071724
0.814588 -5.189783 47.74577
1.23182 -6.275711 47.154927
1.128046 -8.363696 47.259461
0.111807 6.658544 77.450294
0.070594 4.763039 77.979371
0.361698 6.739078 76.430939
0.111807 6.658544 77.450294
0.522097 6.792079 75.339802
0.361698 6.739078 76.430939
0.51433 4.908981 75.896931
0.640699 6.821531 74.215649
0.522097 6.792079 75.339802
0.640699 6.821531 74.215649
0.713566 4.982753 73.643963
0.67962 4.995363 71.280098
0.602826 6.817779 70.65403
0.695072 3.176025 70.610435
0.67962 4.995363 71.280098
0.767854 3.184185 71.812469
0.314149 -3.865993 67.712814
0.460064 -2.144776 68.504814
0.522491 -3.918025 68.869575
0.043722 -3.757319 66.593059
0.314149 -3.865993 67.712814
0.428008 9.961161 47.277569
0.717224 11.112409 46.276584
0.491986 7.995837 47.477762
0.428008 9.961161 47.277569
0.085478 8.832694 48.195257
-0.001266 -3.147844 48.972681
-0.365308 -2.183584 49.622753
-0.462122 -4.197444 49.681269
0.408031 -4.147557 48.346882
0.504846 -2.133697 48.288366
-0.001266 -3.147844 48.972681
0.308477 -6.20393 48.430084
0.814588 -5.189783 47.74577
0.408031 -4.147557 48.346882
0.15849 -8.211752 48.450502
0.308477 -6.20393 48.430084
0.563657 -9.286953 47.876482
0.15849 -8.211752 48.450502
-0.759718 -8.168231 49.695149
-1.316095 -9.115195 50.286591
0.929711 -7.849083 76.590324
0.901112 -6.061028 76.233078
0.970279 -9.62455 76.963882
0.929711 -7.849083 76.590324
0.845751 -7.872885 77.746696
1.006495 -11.371763 77.322178
1.090454 -11.347962 76.165806
0.970279 -9.62455 76.963882
0.946376 -11.383381 78.497872
0.712917 -9.679492 79.210342
0.772974 -11.414521 79.587959
1.006495 -11.371763 77.322178
0.946376 -11.383381 78.497872
0.133654 -11.548453 82.671173
-0.322068 -9.937535 83.129399
-0.209371 -11.656337 83.522969
0.367173 -11.495538 81.679004
0.133654 -11.548453 82.671173
-2.611334 1.828173 83.107933
-3.172226 1.554194 83.638596
-2.600386 -0.022227 83.525795
-2.611334 1.828173 83.107933
-2.027576 2.110158 82.563144
-0.234831 2.798522 79.424115
-0.634447 2.654745 80.289124
0.042574 1.019071 78.89975
0.064663 2.890648 78.446309
-0.234831 2.798522 79.424115
0.901112 -6.061028 76.233078
0.875905 -4.244913 75.850724
0.779975 -4.281304 76.990783
-5.726926 -12.70186 86.998299
-5.808599 -11.061763 86.669712
-6.531912 -11.487196 86.582782
-4.91078 -13.914003 87.389793
-5.726926 -12.70186 86.998299
-7.272644 -11.990591 86.350441
-8.060246 -12.436998 86.120903
-10.551471 -13.888431 85.035412
-11.460234 -14.302143 84.641316
-9.745701 -7.036946 83.983593
-10.471873 -7.678097 83.494763
-9.00538 -6.461048 84.350544
-9.745701 -7.036946 83.983593
-8.963928 -8.129129 84.72171
-8.305633 -5.833515 84.739429
-9.00538 -6.461048 84.350544
-7.519915 -7.00317 85.329037
-7.601943 -5.283456 84.979805
-8.305633 -5.833515 84.739429
1.159634 10.234451 45.589683
0.717224 11.112409 46.276584
1.59945 9.297051 44.934483
1.159634 10.234451 45.589683
1.274333 8.186904 45.904873
2.051284 8.308238 44.302204
1.59945 9.297051 44.934483
2.14901 6.202642 44.636482
1.77614 5.170246 45.510967
2.211 4.123385 44.897778
2.051284 8.308238 44.302204
2.14901 6.202642 44.636482
1.799114 -3.204727 46.330922
1.381883 -2.1188 46.921765
1.331375 -4.219338 47.071724
2.251716 -2.244242 45.592506
1.799114 -3.204727 46.330922
2.261176 -0.104705 45.376923
2.251716 -2.244242 45.592506
-2.322706 -5.628227 58.712532
-2.083118 -4.524883 59.31645
-3.569816 -13.188402 87.232586
-4.348259 -11.89575 86.995449
-4.22517 -13.569078 87.322365
-2.970162 -12.892741 86.968708
-3.569816 -13.188402 87.232586
0.494322 6.757129 69.416046
0.602826 6.817779 70.65403
0.494322 6.757129 69.416046
0.441418 4.948274 68.865643
0.167823 3.147676 67.041088
0.388576 3.151007 68.211643
0.2804 1.389336 67.59951
0.167823 3.147676 67.041088
-0.062365 3.070578 65.845391
-0.579372 6.24228 63.381666
-0.444139 4.626323 64.105947
-0.81763 6.013525 62.201687
-0.579372 6.24228 63.381666
-0.954441 4.296083 61.851924
-1.068167 5.812112 61.103542
-0.81763 6.013525 62.201687
-1.918703 -3.372057 59.63149
-1.686885 -2.01927 60.149589
-1.686269 -3.280226 60.509775
-2.083118 -4.524883 59.31645
-2.083734 -3.263927 58.956265
-1.918703 -3.372057 59.63149
-0.601326 10.380039 49.743997
-0.26635 9.633399 48.946424
-0.860632 11.092844 50.579445
-1.093857 11.759294 51.469873
-0.813505 9.181583 50.733232
-0.601326 10.380039 49.743997
-0.860632 11.092844 50.579445
-1.485794 8.060168 54.396267
-1.399744 9.315786 53.432077
-1.570132 6.264431 54.310928
-1.485794 8.060168 54.396267
-1.621814 6.846576 55.268219
-2.481162 -6.265258 58.099807
-2.406606 -5.053783 58.028499
-2.322706 -5.628227 58.712532
-2.70907 -7.226858 57.375759
-2.481162 -6.265258 58.099807
-2.700487 -6.493393 56.663969
-2.70907 -7.226858 57.375759
-3.081487 -9.871255 55.057804
-2.893576 -8.177955 55.132286
-3.023822 -8.989273 55.837681
-3.172157 -10.848385 54.268223
-3.081487 -9.871255 55.057804
-2.902789 -9.996771 53.596229
-3.172157 -10.848385 54.268223
3 0 26 24
3 1 29 27
3 1 32 30
3 1 27 32
3 105 36 106
3 107 106 34
3 105 106 107
3 109 108 36
3 2 40 38
3 111 110 41
3 4 45 43
3 4 48 46
3 4 43 48
3 5 112 114
3 114 113 50
3 112 113 114
3 5 52 51
3 5 50 52
3 3 56 54
3 115 59 116
3 117 116 57
3 115 116 117
3 119 118 59
3 120 61 121
3 122 63 123
3 124 123 61
3 122 123 124
3 6 66 64
3 125 67 126
3 127 126 25
3 125 126 127
3 128 68 129
3 130 129 67
3 128 129 130
3 8 71 69
3 132 131 28
3 133 72 134
3 9 73 31
3 9 135 137
3 137 136 73
3 135 136 137
3 9 138 140
3 138 74 139
3 138 139 140
3 8 75 33
3 8 69 75
3 142 141 76
3 11 143 145
3 143 77 144
3 143 144 145
3 12 78 35
3 12 146 148
3 148 147 78
3 146 147 148
3 12 149 151
3 149 80 150
3 149 150 151
3 152 81 153
3 154 153 37
3 152 153 154
3 156 155 81
3 14 157 159
3 157 83 158
3 157 158 159
3 16 84 39
3 16 85 84
3 7 86 65
3 17 87 42
3 17 160 162
3 162 161 87
3 160 161 162
3 17 163 164
3 18 89 88
3 166 165 44
3 168 167 70
3 10 169 170
3 19 171 173
3 173 172 47
3 171 172 173
3 19 174 175
3 19 176 178
3 176 90 177
3 176 177 178
3 18 91 49
3 18 88 91
3 20 179 181
3 181 180 92
3 179 180 181
3 20 94 53
3 20 92 94
3 15 95 82
3 183 182 55
3 185 184 93
3 13 186 188
3 188 187 79
3 186 187 188
3 21 189 191
3 191 190 58
3 189 190 191
3 21 192 194
3 192 96 193
3 192 193 194
3 21 97 96
3 195 98 196
3 197 196 60
3 195 196 197
3 199 198 98
3 200 100 201
3 202 101 203
3 204 203 100
3 202 203 204
3 23 205 206
3 23 207 209
3 207 102 208
3 207 208 209
3 23 103 102
3 22 104 62
3 22 99 104
3 24 25 6
3 26 25 24
3 26 210 212
3 212 211 25
3 210 211 212
3 27 28 8
3 29 28 27
3 29 213 215
3 215 214 28
3 213 214 215
3 30 216 218
3 216 31 217
3 216 217 218
3 32 31 30
3 32 9 31
3 32 33 9
3 27 33 32
3 27 8 33
3 34 35 11
3 36 35 34
3 36 12 35
3 36 37 12
3 219 37 220
3 221 220 36
3 219 220 221
3 223 222 37
3 38 39 14
3 40 39 38
3 40 16 39
3 41 42 7
3 224 42 225
3 226 225 41
3 224 225 226
3 227 17 228
3 229 228 42
3 227 228 229
3 231 230 17
3 43 44 18
3 45 44 43
3 45 232 234
3 234 233 44
3 232 233 234
3 46 47 10
3 48 47 46
3 48 19 47
3 48 49 19
3 43 49 48
3 43 18 49
3 50 235 237
3 237 236 20
3 235 236 237
3 239 238 50
3 51 240 241
3 52 242 244
3 244 243 51
3 242 243 244
3 52 245 246
3 52 247 249
3 247 53 248
3 247 248 249
3 50 53 52
3 50 20 53
3 54 55 15
3 56 55 54
3 56 250 252
3 252 251 55
3 250 251 252
3 57 58 13
3 59 58 57
3 59 21 58
3 59 60 21
3 253 60 254
3 255 254 59
3 253 254 255
3 257 256 60
3 61 258 259
3 61 260 262
3 260 23 261
3 260 261 262
3 61 62 23
3 63 62 61
3 63 22 62
3 64 65 2
3 66 65 64
3 66 7 65
3 25 66 6
3 67 66 25
3 67 7 66
3 67 41 7
3 68 41 67
3 68 263 265
3 265 264 41
3 263 264 265
3 69 70 4
3 71 70 69
3 71 266 268
3 268 267 70
3 266 267 268
3 28 71 8
3 269 71 270
3 271 270 28
3 269 270 271
3 273 272 71
3 72 274 275
3 72 276 277
3 31 278 280
3 278 72 279
3 278 279 280
3 73 72 31
3 73 281 283
3 283 282 72
3 281 282 283
3 73 284 285
3 287 286 73
3 74 288 289
3 74 290 292
3 290 10 291
3 290 291 292
3 33 74 9
3 75 74 33
3 75 10 74
3 75 46 10
3 69 46 75
3 69 4 46
3 294 293 5
3 295 51 296
3 297 51 298
3 299 5 300
3 301 300 51
3 299 300 301
3 76 302 304
3 304 303 3
3 302 303 304
3 306 305 76
3 77 307 308
3 77 309 310
3 35 77 11
3 78 77 35
3 78 311 313
3 313 312 77
3 311 312 313
3 78 314 315
3 317 316 78
3 318 79 319
3 80 320 322
3 320 79 321
3 320 321 322
3 80 13 79
3 37 80 12
3 81 80 37
3 81 13 80
3 81 57 13
3 323 57 324
3 325 324 81
3 323 324 325
3 327 326 57
3 328 82 329
3 83 330 332
3 330 82 331
3 330 331 332
3 83 15 82
3 39 83 14
3 84 83 39
3 84 15 83
3 84 54 15
3 85 54 84
3 85 3 54
3 65 40 2
3 86 40 65
3 86 16 40
3 42 86 7
3 87 86 42
3 87 16 86
3 87 85 16
3 333 85 334
3 335 334 87
3 333 334 335
3 336 3 337
3 338 337 85
3 336 337 338
3 339 76 340
3 341 340 3
3 339 340 341
3 342 76 343
3 345 344 76
3 347 346 17
3 88 348 349
3 89 350 352
3 352 351 88
3 350 351 352
3 89 353 355
3 353 354 355
3 44 89 18
3 356 89 357
3 358 357 44
3 356 357 358
3 360 359 89
3 70 45 4
3 361 45 362
3 363 362 70
3 361 362 363
3 365 364 45
3 47 366 368
3 368 367 10
3 366 367 368
3 370 369 47
3 90 371 372
3 90 373 375
3 373 11 374
3 373 374 375
3 49 90 19
3 91 90 49
3 91 11 90
3 91 34 11
3 88 34 91
3 88 376 378
3 378 377 34
3 376 377 378
3 92 93 1
3 379 93 380
3 381 380 92
3 379 380 381
3 383 382 93
3 385 384 20
3 387 386 5
3 53 388 389
3 94 390 392
3 392 391 53
3 390 391 392
3 94 393 394
3 94 395 397
3 395 30 396
3 395 396 397
3 92 30 94
3 92 1 30
3 82 398 399
3 95 400 402
3 402 401 82
3 400 401 402
3 95 403 404
3 55 95 15
3 405 95 406
3 407 406 55
3 405 406 407
3 409 408 95
3 410 56 411
3 412 411 3
3 410 411 412
3 413 56 414
3 416 415 56
3 418 417 0
3 93 29 1
3 419 29 420
3 421 420 93
3 419 420 421
3 423 422 29
3 79 424 425
3 427 426 79
3 58 428 430
3 430 429 13
3 428 429 430
3 432 431 58
3 96 433 434
3 96 435 436
3 96 437 439
3 437 63 438
3 437 438 439
3 97 63 96
3 97 22 63
3 60 97 21
3 98 97 60
3 98 22 97
3 98 99 22
3 440 99 441
3 442 441 98
3 440 441 442
3 443 0 444
3 445 444 99
3 443 444 445
3 446 14 447
3 100 448 449
3 100 450 452
3 450 14 451
3 450 451 452
3 100 38 14
3 101 38 100
3 101 2 38
3 453 101 454
3 102 455 457
3 455 101 456
3 455 456 457
3 102 2 101
3 102 64 2
3 103 64 102
3 103 6 64
3 62 103 23
3 104 103 62
3 104 6 103
3 104 24 6
3 99 24 104
3 99 0 24
3 458 26 459
3 460 459 0
3 458 459 460
3 461 26 462
3 464 463 26
3 465 68 466
3 465 466 467
3 468 68 469
3 471 470 68
