ply
format ascii 1.0
element vertex 239
property float x
property float y
property float z
element face 201
property list uchar int vertex_index
end_header
-64.977539 -29.977272 26.030949
-63.502735 -21.475868 21.530968
-59.737701 -40.119843 25.772535
-61.003769 -31.007214 23.686226
-62.331608 -35.142567 25.972088
-57.862473 -36.112186 23.50959
-64.149734 -25.785501 23.729267
-59.815197 -26.68693 21.905418
-63.093502 -16.999769 19.028763
-55.625782 -40.762283 22.665384
-58.310749 -44.542534 24.704941
-59.388176 -33.588322 23.643112
-65.361847 -21.05654 22.578382
-65.577362 -23.173332 23.783199
-63.795219 -23.6457 22.649338
-62.117092 -26.25481 22.716236
-61.690369 -24.068058 21.741982
-64.911255 -14.509212 18.469666
-65.395813 -32.022614 27.372395
-60.966202 -37.669647 25.93516
-62.979156 -37.154953 27.382515
-61.751144 -39.663235 27.33568
-60.696213 -42.087536 27.116924
-56.762154 -44.547935 22.726341
-59.706635 -46.421021 25.816097
-63.149426 -30.50655 24.769543
-63.699287 -32.573311 25.979103
-61.665138 -33.095493 24.742146
-60.173248 -35.64798 24.697313
-58.789612 -38.131783 24.555332
-66.974693 -22.651648 25.143169
-64.552132 -27.89698 24.834099
-62.611767 -28.400494 23.7019
-60.37719 -28.872475 22.762573
-66.576843 -14.266304 19.555786
-65.045273 -16.744562 19.927841
-57.333767 -27.085236 21.263571
-64.231308 -34.60228 27.363398
-64.721848 -36.596802 28.919693
-56.55843 -38.527313 23.208424
-57.661674 -40.493271 24.226547
-56.94331 -42.659447 23.632513
-58.803303 -42.43581 25.38743
-59.971474 -44.365669 26.631174
-65.186676 -30.999943 26.701672
-65.903603 -30.720791 27.423434
-65.694466 -29.69812 26.752712
-66.916072 -21.613888 24.502128
-67.459934 -21.34823 25.253664
-64.992172 -25.530368 24.34448
-65.705986 -24.224283 24.371446
-64.863548 -24.479416 23.756233
-64.350933 -26.84124 24.281683
-65.193371 -26.586107 24.896896
-64.992172 -25.530368 24.34448
-58.877805 -28.00121 21.945822
-59.158802 -29.093983 22.3744
-60.096193 -27.779702 22.333996
-66.511143 -13.163635 18.770245
-67.179665 -13.046728 19.410177
-63.18318 -18.13315 19.679394
-64.159065 -18.005547 20.128933
-64.069388 -16.872166 19.478302
-56.049742 -27.266124 21.003375
-57.085321 -25.932938 20.889978
-56.366026 -28.405861 21.295724
-56.049742 -27.266124 21.003375
-64.157183 -37.86806 28.931695
-63.850502 -36.875878 28.151104
-63.285837 -38.147135 28.163106
-64.939125 -37.579144 29.765639
-64.157183 -37.86806 28.931695
-56.092106 -39.644798 22.936904
-55.466268 -38.680748 22.532143
-54.999944 -39.798233 22.260623
-60.428028 -46.353642 26.85202
-60.402306 -47.358315 26.358317
-59.011341 -32.534407 23.1996
-60.195972 -32.297768 23.664669
-59.819137 -31.243853 23.221157
-58.180393 -33.817737 23.144571
-59.011341 -32.534407 23.1996
-57.417541 -35.07967 23.07781
-58.625325 -34.850254 23.576351
-58.180393 -33.817737 23.144571
-65.469605 -22.114936 23.180791
-66.217407 -21.87473 23.822143
-66.109649 -20.816334 23.219735
-64.837074 -13.348305 17.710339
-65.678348 -13.285089 18.227184
-63.927732 -14.580813 18.051561
-64.837074 -13.348305 17.710339
-63.853552 -13.419906 17.292234
-63.018856 -15.826091 18.331109
-64.002378 -15.75449 18.749215
-63.927732 -14.580813 18.051561
-66.03793 -31.734213 28.145504
-65.903603 -30.720791 27.423434
-65.586899 -33.026829 28.127331
-66.03793 -31.734213 28.145504
-62.671831 -39.401276 28.139688
-63.285837 -38.147135 28.163106
-62.36515 -38.409094 27.359098
-62.135227 -40.649683 28.091327
-62.671831 -39.401276 28.139688
-61.607761 -41.861834 27.981949
-62.135227 -40.649683 28.091327
-61.223678 -40.875386 27.226302
-61.176424 -43.064188 27.819876
-61.607761 -41.861834 27.981949
-54.671957 -40.83057 21.862829
-54.999944 -39.798233 22.260623
-56.975449 -45.315521 22.115907
-56.077778 -44.452919 21.706201
-57.563145 -45.453978 23.208377
-56.975449 -45.315521 22.115907
-57.77644 -46.221564 22.597943
-58.337443 -45.451277 24.197677
-57.536451 -44.545235 23.715641
-57.563145 -45.453978 23.208377
-59.035386 -46.390521 24.753255
-59.008692 -45.481778 25.260519
-58.337443 -45.451277 24.197677
-59.839285 -47.299271 25.236112
-59.035386 -46.390521 24.753255
-59.168036 -47.268771 24.173271
-60.534956 -48.236565 25.778332
-60.402306 -47.358315 26.358317
-59.839285 -47.299271 25.236112
-66.061508 -19.77704 22.544994
-66.109649 -20.816334 23.219735
-65.275177 -19.987762 21.939059
-66.061508 -19.77704 22.544994
-64.345621 -20.197426 21.415352
-64.432291 -21.266204 22.054675
-65.275177 -19.987762 21.939059
-65.548935 -28.668411 26.100279
-65.694466 -29.69812 26.752712
-67.461792 -22.371733 25.926996
-67.459934 -21.34823 25.253664
-67.043895 -23.688786 25.772986
-67.461792 -22.371733 25.926996
-66.276027 -22.91249 24.463184
-66.916072 -21.613888 24.502128
-66.217407 -21.87473 23.822143
-66.404651 -23.963441 25.051431
-66.276027 -22.91249 24.463184
-65.705986 -24.224283 24.371446
-67.043895 -23.688786 25.772986
-66.404651 -23.963441 25.051431
-65.336231 -27.628265 25.501854
-65.193371 -26.586107 24.896896
-64.764836 -28.937126 25.432524
-65.548935 -28.668411 26.100279
-65.336231 -27.628265 25.501854
-59.505848 -30.176484 22.75933
-59.819137 -31.243853 23.221157
-60.690479 -29.939844 23.2244
-59.505848 -30.176484 22.75933
-59.158802 -29.093983 22.3744
-67.22789 -14.097858 20.220363
-67.179665 -13.046728 19.410177
-66.62558 -15.334297 20.315002
-67.22789 -14.097858 20.220363
-65.744049 -14.387758 19.012726
-66.511143 -13.163635 18.770245
-65.678348 -13.285089 18.227184
-65.859794 -16.573426 20.501029
-66.62558 -15.334297 20.315002
-65.811058 -15.505433 19.741813
-65.11689 -17.831773 20.613788
-65.859794 -16.573426 20.501029
-65.11689 -17.831773 20.613788
-64.159065 -18.005547 20.128933
-63.387797 -20.371199 20.930497
-64.345621 -20.197426 21.415352
-61.992783 -17.085038 18.699103
-63.018856 -15.826091 18.331109
-62.088381 -18.270632 19.313197
-61.992783 -17.085038 18.699103
-63.18318 -18.13315 19.679394
-62.088381 -18.270632 19.313197
-62.424139 -21.65516 21.123649
-63.387797 -20.371199 20.930497
-61.517956 -22.951255 21.229157
-62.596552 -22.771963 21.636475
-62.424139 -21.65516 21.123649
-60.516022 -24.256577 21.392392
-61.517956 -22.951255 21.229157
-59.578436 -25.566014 21.474111
-60.752783 -25.377494 21.8237
-60.516022 -24.256577 21.392392
-58.337721 -25.765166 21.153187
-57.085321 -25.932938 20.889978
-58.574482 -26.886083 21.584494
-59.578436 -25.566014 21.474111
-58.337721 -25.765166 21.153187
-57.63709 -28.200364 21.624899
-58.877805 -28.00121 21.945822
-58.574482 -26.886083 21.584494
-57.63709 -28.200364 21.624899
-56.366026 -28.405861 21.295724
-65.004647 -34.316662 28.122833
-65.586899 -33.026829 28.127331
-64.81356 -33.312447 27.367897
-65.249916 -35.313923 28.90098
-65.004647 -34.316662 28.122833
-64.476578 -35.599541 28.141545
-65.411716 -36.300182 29.734956
-65.249916 -35.313923 28.90098
-65.411716 -36.300182 29.734956
-64.939125 -37.579144 29.765639
-56.684365 -36.317039 22.938728
-57.417541 -35.07967 23.07781
-56.239433 -35.284523 22.506949
-56.032343 -37.524603 22.788145
-55.466268 -38.680748 22.532143
-57.210452 -37.31975 23.359007
-56.684365 -36.317039 22.938728
-56.032343 -37.524603 22.788145
-55.415106 -41.747755 22.247202
-54.671957 -40.83057 21.862829
-55.983292 -43.640581 22.277681
-56.077778 -44.452919 21.706201
-56.07387 -42.696337 22.730767
-55.983292 -43.640581 22.277681
-56.852732 -43.603691 23.179427
-56.284546 -41.710865 23.148948
-55.415106 -41.747755 22.247202
-56.07387 -42.696337 22.730767
-60.814054 -44.203254 27.577001
-61.176424 -43.064188 27.819876
-60.333844 -43.226602 26.874049
-60.560448 -45.325966 27.259559
-59.839055 -45.393345 26.223636
-60.428028 -46.353642 26.85202
-61.403029 -45.163551 28.205385
-60.814054 -44.203254 27.577001
-60.560448 -45.325966 27.259559
3 1 14 12
3 1 16 14
3 0 44 46
3 44 18 45
3 44 45 46
3 2 21 19
3 2 22 21
3 3 27 25
3 5 28 11
3 5 29 28
3 47 30 48
3 6 49 51
3 51 50 13
3 49 50 51
3 6 52 54
3 52 31 53
3 52 53 54
3 6 32 31
3 7 33 15
3 7 55 57
3 57 56 33
3 55 56 57
3 58 34 59
3 8 35 17
3 8 60 62
3 62 61 35
3 60 61 62
3 63 36 64
3 66 65 36
3 4 37 26
3 67 38 68
3 69 68 20
3 67 68 69
3 71 70 38
3 9 72 74
3 72 39 73
3 72 73 74
3 9 40 39
3 10 41 23
3 10 42 41
3 10 43 42
3 76 75 24
3 77 11 78
3 79 78 3
3 77 78 79
3 80 11 81
3 82 5 83
3 84 83 11
3 82 83 84
3 12 85 87
3 85 13 86
3 85 86 87
3 14 13 12
3 14 6 13
3 14 15 6
3 16 15 14
3 16 7 15
3 88 17 89
3 90 17 91
3 90 91 92
3 93 8 94
3 95 94 17
3 93 94 95
3 18 96 97
3 18 98 99
3 19 20 4
3 21 20 19
3 21 100 102
3 102 101 20
3 100 101 102
3 21 103 104
3 22 105 107
3 107 106 21
3 105 106 107
3 22 108 109
3 110 9 111
3 112 23 113
3 114 23 115
3 114 115 116
3 117 10 118
3 119 118 23
3 117 118 119
3 120 24 121
3 122 121 10
3 120 121 122
3 123 24 124
3 123 124 125
3 128 127 24
3 126 127 128
3 129 12 130
3 131 12 132
3 133 1 134
3 135 134 12
3 133 134 135
3 25 26 0
3 27 26 25
3 27 4 26
3 11 27 3
3 28 27 11
3 28 4 27
3 28 19 4
3 29 19 28
3 29 2 19
3 136 0 137
3 30 138 139
3 30 140 141
3 13 142 144
3 142 30 143
3 142 143 144
3 145 30 146
3 147 146 13
3 145 146 147
3 149 148 30
3 31 150 151
3 31 152 154
3 152 0 153
3 152 153 154
3 31 25 0
3 32 25 31
3 32 3 25
3 15 32 6
3 33 32 15
3 33 3 32
3 33 155 157
3 157 156 3
3 155 156 157
3 159 158 33
3 34 160 161
3 34 162 163
3 17 164 166
3 164 34 165
3 164 165 166
3 35 34 17
3 35 167 169
3 169 168 34
3 167 168 169
3 35 170 171
3 173 172 35
3 174 1 175
3 176 8 177
3 178 8 179
3 181 180 8
3 182 1 183
3 184 16 185
3 186 185 1
3 184 185 186
3 187 16 188
3 189 7 190
3 191 190 16
3 189 190 191
3 36 192 193
3 36 194 196
3 194 7 195
3 194 195 196
3 36 197 199
3 199 198 7
3 197 198 199
3 201 200 36
3 26 18 0
3 37 18 26
3 37 202 204
3 204 203 18
3 202 203 204
3 20 37 4
3 38 37 20
3 38 205 207
3 207 206 37
3 205 206 207
3 38 208 209
3 211 210 38
3 212 5 213
3 212 213 214
3 39 215 216
3 39 217 219
3 217 5 218
3 217 218 219
3 39 29 5
3 40 29 39
3 40 2 29
3 220 9 221
3 23 222 223
3 41 224 226
3 226 225 23
3 224 225 226
3 41 227 229
3 227 9 228
3 227 228 229
3 41 40 9
3 42 40 41
3 42 2 40
3 42 22 2
3 43 22 42
3 43 230 232
3 232 231 22
3 230 231 232
3 24 43 10
3 233 43 234
3 235 234 24
3 233 234 235
3 238 237 43
3 236 237 238
