ply
format ascii 1.0
element vertex 163
property float x
property float y
property float z
element face 111
property list uchar int vertex_index
end_header
-4.811018 -92.920624 35.313354
-4.617689 -94.199997 40.457996
-6.777948 -99.024216 45.512135
-6.287443 -96.613831 49.895851
-6.008638 -96.957962 47.791943
-5.212233 -96.613525 40.777935
-5.037436 -96.104767 38.251751
-4.207834 -104.767715 33.920929
-4.905991 -89.650681 32.429626
-6.557877 -96.016281 51.87677
-4.411572 -107.033417 33.624393
-5.450071 -96.939194 43.222191
-5.723959 -97.060638 45.564846
-6.834221 -95.162506 53.744846
-8.037271 -97.098557 51.26088
-4.673058 -93.625275 37.897255
-6.766666 -97.639557 48.729544
-6.976694 -97.318863 49.685516
-5.28101 -97.585678 39.662588
-5.502714 -97.781364 40.885511
-3.708531 -104.472961 32.694139
-3.665547 -105.717208 32.630493
-4.498919 -88.847488 33.524752
-4.734158 -88.459382 32.284779
-4.922064 -92.512985 34.02242
-4.669933 -91.687012 35.13866
-4.884483 -93.775368 34.185497
-4.922064 -92.512985 34.02242
-5.955407 -94.994575 53.061779
-5.851099 -95.273697 52.037689
-5.132284 -107.058716 34.66303
-4.889812 -106.063156 34.917013
-5.080321 -95.915825 44.320072
-5.042689 -95.783554 43.097012
-6.530176 -99.068382 44.415953
-6.003182 -98.086593 44.442309
-6.250953 -98.042427 45.538491
-6.967996 -100.048386 44.348726
-6.530176 -99.068382 44.415953
-7.607132 -95.532295 53.345329
-6.990157 -94.612892 54.633173
-8.208657 -96.500321 52.103346
-7.435746 -96.130531 52.502863
-7.607132 -95.532295 53.345329
-4.645373 -93.912636 39.177626
-4.328118 -92.693711 38.990555
-4.300433 -92.981071 40.270926
-4.992761 -95.770042 36.960178
-5.013193 -97.035194 37.128573
-4.514686 -92.041352 36.417686
-4.669933 -91.687012 35.13866
-6.148041 -96.785897 48.843897
-5.490511 -95.909698 48.917048
-5.629913 -95.737633 49.969002
-6.627264 -97.811622 47.67759
-6.148041 -96.785897 48.843897
-6.766666 -97.639557 48.729544
-7.011919 -98.84475 46.537686
-6.393293 -97.991089 46.652039
-6.627264 -97.811622 47.67759
-7.328861 -99.865273 45.34738
-7.011919 -98.84475 46.537686
-5.193611 -97.331299 38.399496
-5.124835 -96.359146 39.514843
-5.28101 -97.585678 39.662588
-5.013193 -97.035194 37.128573
-5.193611 -97.331299 38.399496
-4.231508 -103.548599 33.918833
-4.658786 -103.814537 35.144526
-4.231508 -103.548599 33.918833
-3.708531 -104.472961 32.694139
-5.120674 -89.212379 31.182882
-4.734158 -88.459382 32.284779
-5.119582 -90.427109 31.302803
-5.120674 -89.212379 31.182882
-4.71742 -90.052041 33.696796
-4.498919 -88.847488 33.524752
-4.969551 -90.878014 32.580557
-4.71742 -90.052041 33.696796
-5.119582 -90.427109 31.302803
-4.969551 -90.878014 32.580557
-5.715882 -95.572472 51.04723
-5.629913 -95.737633 49.969002
-6.42266 -96.315056 50.886311
-5.715882 -95.572472 51.04723
-5.851099 -95.273697 52.037689
-7.111911 -97.020088 50.675976
-6.976694 -97.318863 49.685516
-6.42266 -96.315056 50.886311
-4.787943 -104.930306 35.065281
-4.658786 -103.814537 35.144526
-4.309703 -105.900566 33.772661
-4.787943 -104.930306 35.065281
-4.889812 -106.063156 34.917013
-3.767416 -106.85006 32.482225
-3.665547 -105.717208 32.630493
-4.309703 -105.900566 33.772661
-4.221205 -93.22094 41.543415
-4.300433 -92.981071 40.270926
-4.626498 -94.413956 41.714914
-4.221205 -93.22094 41.543415
-4.92377 -95.62072 41.874883
-4.914961 -95.406761 40.617965
-4.626498 -94.413956 41.714914
-5.331152 -96.776359 42.000063
-4.92377 -95.62072 41.874883
-5.042689 -95.783554 43.097012
-5.621633 -97.944198 42.10764
-5.502714 -97.781364 40.885511
-5.331152 -96.776359 42.000063
-5.417798 -95.967118 47.785544
-5.490511 -95.909698 48.917048
-5.275459 -96.018456 46.671995
-5.417798 -95.967118 47.785544
-5.866299 -97.0093 46.678395
-5.217265 -95.976547 45.491399
-5.275459 -96.018456 46.671995
-5.587015 -96.999916 44.393518
-5.080321 -95.915825 44.320072
-5.217265 -95.976547 45.491399
-5.866238 -98.025871 43.270981
-5.587015 -96.999916 44.393518
-6.003182 -98.086593 44.442309
-5.621633 -97.944198 42.10764
-5.866238 -98.025871 43.270981
-6.967996 -100.048386 44.348726
-7.328861 -99.865273 45.34738
-6.227692 -94.172821 54.969133
-6.990157 -94.612892 54.633173
-6.093578 -94.567688 53.995817
-6.227692 -94.172821 54.969133
-6.696049 -95.589393 52.810808
-5.955407 -94.994575 53.061779
-6.093578 -94.567688 53.995817
-7.851608 -97.561226 50.368031
-7.111911 -97.020088 50.675976
-7.297574 -96.557419 51.568825
-8.792725 -97.415741 50.787956
-8.208657 -96.500321 52.103346
-8.560704 -98.064065 49.992945
-8.792725 -97.415741 50.787956
-7.851608 -97.561226 50.368031
-8.560704 -98.064065 49.992945
-4.445707 -92.393677 37.709637
-4.328118 -92.693711 38.990555
-4.742038 -93.27295 36.605305
-4.514686 -92.041352 36.417686
-4.445707 -92.393677 37.709637
-4.810572 -94.530296 36.78293
-4.855247 -94.865021 38.074503
-4.992761 -95.770042 36.960178
-4.879552 -94.177971 35.49098
-4.742038 -93.27295 36.605305
-4.810572 -94.530296 36.78293
-4.884483 -93.775368 34.185497
-4.879552 -94.177971 35.49098
-4.665744 -108.045074 33.288515
-5.132284 -107.058716 34.66303
-3.891763 -108.006951 32.252308
-4.665744 -108.045074 33.288515
-3.247607 -107.823593 31.11014
-3.767416 -106.85006 32.482225
-3.891763 -108.006951 32.252308
3 17 16 3
3 19 18 5
3 21 20 7
3 22 8 23
3 0 24 25
3 0 26 27
3 28 9 29
3 30 10 31
3 32 11 33
3 2 12 4
3 2 34 36
3 36 35 12
3 34 35 36
3 2 37 38
3 39 13 40
3 41 14 42
3 43 42 13
3 41 42 43
3 1 44 46
3 44 15 45
3 44 45 46
3 48 47 6
3 49 0 50
3 3 51 53
3 51 4 52
3 51 52 53
3 54 4 55
3 56 55 3
3 54 55 56
3 57 2 58
3 59 58 4
3 57 58 59
3 61 60 2
3 5 6 1
3 62 6 63
3 64 63 5
3 62 63 64
3 66 65 6
3 7 67 68
3 70 69 7
3 8 71 72
3 8 73 74
3 75 8 76
3 77 8 78
3 80 79 8
3 81 3 82
3 9 83 85
3 83 3 84
3 83 84 85
3 9 86 88
3 88 87 3
3 86 87 88
3 89 7 90
3 10 91 93
3 91 7 92
3 91 92 93
3 10 94 96
3 96 95 7
3 94 95 96
3 97 1 98
3 99 1 100
3 101 5 102
3 103 102 1
3 101 102 103
3 11 104 106
3 104 5 105
3 104 105 106
3 11 107 109
3 109 108 5
3 107 108 109
3 4 110 111
3 12 112 114
3 114 113 4
3 112 113 114
3 12 115 116
3 12 117 119
3 117 11 118
3 117 118 119
3 120 11 121
3 122 121 12
3 120 121 122
3 124 123 11
3 126 125 2
3 13 127 128
3 13 129 130
3 13 131 133
3 131 9 132
3 131 132 133
3 14 9 13
3 14 134 136
3 136 135 9
3 134 135 136
3 137 14 138
3 139 14 140
3 142 141 14
3 15 143 144
3 15 145 147
3 145 0 146
3 145 146 147
3 6 15 1
3 148 15 149
3 150 149 6
3 148 149 150
3 151 0 152
3 153 152 15
3 151 152 153
3 155 154 0
3 156 10 157
3 158 10 159
3 162 161 10
3 160 161 162
