ply
format ascii 1.0
element vertex 396
property float x
property float y
property float z
element face 342
property list uchar int vertex_index
end_header
-8.314447 42.529835 -32.877678
-26.753277 38.959602 -28.741283
-17.440147 41.045692 -31.139942
-22.611906 27.397896 -30.774288
-15.135777 26.896774 -30.7178
-1.18479 40.450409 -33.002716
-12.691938 42.033298 -32.146896
-15.638957 34.391907 -31.544178
-11.530058 34.588413 -31.715847
-22.422962 20.85392 -30.815266
-22.311308 39.952274 -30.035294
-24.05835 33.51709 -30.175171
-19.930695 33.950268 -31.05732
-18.885017 27.212807 -30.97123
-19.161568 19.924156 -30.259544
-7.723143 34.138752 -31.642345
-5.013493 22.362289 -29.237339
-30.4044 43.613083 -26.707314
-9.915268 49.851917 -32.723759
-11.540688 26.172657 -30.203587
-15.920045 18.72686 -29.394154
-10.450159 42.37252 -32.556961
-11.96545 38.434944 -32.10778
-9.882551 38.553581 -32.292091
-19.88784 40.495384 -30.594833
-20.96059 37.049866 -30.687283
-18.670658 37.440182 -31.128834
-15.22392 30.744602 -31.251774
-17.219223 30.724606 -31.242661
-16.997711 27.085049 -30.890198
-18.865627 23.620037 -30.640057
-17.106842 23.287769 -30.384701
-3.076263 26.311123 -30.062462
-3.583618 20.862389 -28.983982
-5.717005 16.980263 -28.270981
-12.402924 49.262905 -31.942829
-11.107119 53.153217 -32.070045
-9.81579 25.552319 -29.927124
-14.324534 17.956581 -28.929661
-15.028726 41.57275 -31.665478
-16.379856 37.826366 -31.516914
-14.135559 38.173775 -31.847172
-13.550266 34.544235 -31.667477
-22.370289 24.159046 -30.824947
-24.017689 21.262032 -30.908119
-10.354362 20.797462 -28.976776
-24.630207 39.436161 -29.43576
-25.261538 36.33374 -29.557037
-23.183493 36.677219 -30.176586
-22.045807 33.72477 -30.678242
-21.238941 30.594933 -30.924248
-17.777544 34.181038 -31.341763
-19.237522 30.665142 -31.138489
-20.76947 27.311047 -30.940319
-20.629236 23.903687 -30.79504
-20.796963 20.411083 -30.590214
-6.29644 42.448254 -33.100639
-7.894028 38.472385 -32.403019
-6.010229 38.142883 -32.445911
-5.951948 33.557022 -31.549202
-7.205408 18.453144 -28.468891
-28.290354 44.349869 -27.452522
-26.349333 41.9935 -28.505161
-16.223347 44.748795 -31.119099
-13.707611 45.39362 -31.804031
-11.289663 45.936611 -32.443413
-7.565754 50.23357 -33.38665
-1.321341 45.162533 -33.794849
-25.901711 33.329784 -29.504421
-9.585955 34.470051 -31.701603
-11.387587 30.494656 -31.045212
-13.314793 26.607376 -30.478474
-11.992697 21.664131 -29.314659
-13.66526 22.346867 -29.686333
-15.370673 22.875774 -30.055779
-17.53307 19.372307 -29.850235
-26.935139 37.491615 -28.757141
-27.672767 38.744794 -28.311689
-1.912891 38.544041 -32.640836
-1.94281 40.934054 -33.101036
-2.920766 20.021285 -28.808433
-2.662952 22.819828 -29.33645
-2.0001 21.978724 -29.160902
-3.278918 17.254888 -28.343117
-3.94177 18.095993 -28.518666
-2.920766 20.021285 -28.808433
-11.836686 54.695545 -31.575389
-12.448831 52.761223 -31.58024
-23.490043 27.438005 -30.608781
-23.770027 29.003591 -30.509531
-22.891891 28.963482 -30.675037
-8.980387 25.134652 -29.800998
-8.810078 27.546813 -30.311011
-12.403162 32.636284 -31.447643
-13.413266 32.614195 -31.423459
-12.540162 34.566324 -31.691662
-20.201214 18.401516 -30.350779
-21.018912 18.64498 -30.516113
-19.979266 20.16762 -30.424879
-5.212928 40.113781 -32.831047
-6.153334 40.295569 -32.773275
-5.356033 42.266466 -33.158411
-5.121522 33.131809 -31.481098
-5.101071 35.545582 -31.98184
-6.038596 31.134224 -31.031592
-5.121522 33.131809 -31.481098
-4.777952 24.996609 -29.777347
-3.809337 26.971025 -30.189909
-4.044878 24.336706 -29.649901
-5.776268 23.007528 -29.344774
-4.777952 24.996609 -29.777347
-6.109451 20.407716 -28.853115
-6.872225 21.052956 -28.96055
-5.776268 23.007528 -29.344774
-6.926456 15.092116 -27.958616
-6.191372 14.280929 -27.879629
-30.338958 42.226015 -26.787373
-31.247862 43.282612 -26.238638
-29.446149 42.499319 -27.240023
-30.338958 42.226015 -26.787373
-27.071417 44.74943 -27.777504
-28.121463 45.900286 -27.215998
-26.100907 43.571246 -28.303824
-27.319844 43.171684 -27.978842
-27.071417 44.74943 -27.777504
-25.152209 42.322639 -28.827044
-26.100907 43.571246 -28.303824
-15.616179 46.639654 -31.108519
-16.966123 46.230559 -30.685667
-16.358955 48.121418 -30.675087
-14.358311 46.962067 -31.450985
-14.965479 45.071207 -31.461565
-15.616179 46.639654 -31.108519
-9.450857 48.084644 -32.85969
-10.138054 46.126991 -32.719517
-10.602465 47.894264 -32.583586
-6.472069 50.290283 -33.638916
-6.879996 52.15997 -33.527788
-7.189209 48.353653 -33.408992
-6.472069 50.290283 -33.638916
-1.474905 47.384045 -34.039459
-2.134032 45.540474 -33.829595
-11.464137 28.333657 -30.624399
-10.474824 30.310954 -30.960302
-10.551374 28.149954 -30.53949
-12.369231 19.348793 -28.906105
-11.17353 21.230797 -29.145717
-11.550063 18.915458 -28.737164
-23.318157 19.492985 -30.984186
-22.578207 19.19115 -30.833106
-2.409274 25.544195 -29.87569
-2.236121 28.269996 -30.452534
-3.329941 23.586756 -29.523222
-2.409274 25.544195 -29.87569
-2.662952 22.819828 -29.33645
-5.008463 16.15493 -28.162165
-4.650311 18.921326 -28.627482
-3.94177 18.095993 -28.518666
-6.191372 14.280929 -27.879629
-5.008463 16.15493 -28.162165
-31.417286 44.632567 -26.152477
-31.247862 43.282612 -26.238638
-13.096733 50.816067 -31.516632
-13.705967 48.89671 -31.520384
-14.399777 50.449871 -31.094187
-11.755022 51.208061 -32.006437
-13.096733 50.816067 -31.516632
-12.448831 52.761223 -31.58024
-24.519659 31.993765 -30.116621
-23.615113 32.023079 -30.375479
-8.642602 32.133001 -31.258869
-7.763754 31.840029 -31.168621
-9.688925 27.839785 -30.401258
-8.810078 27.546813 -30.311011
-10.678239 25.862488 -30.065355
-10.551374 28.149954 -30.53949
-9.688925 27.839785 -30.401258
-14.804475 15.732326 -28.623804
-13.535149 17.495018 -28.713606
-15.547071 16.234234 -28.89106
-14.804475 15.732326 -28.623804
-16.344826 16.619373 -29.123306
-15.12229 18.341721 -29.161907
-15.547071 16.234234 -28.89106
-17.087954 17.059607 -29.402493
-16.344826 16.619373 -29.123306
-14.250093 30.714379 -31.215607
-14.387093 32.644419 -31.459626
-13.413266 32.614195 -31.423459
-14.206021 28.790464 -30.94862
-15.179848 28.820688 -30.984787
-14.250093 30.714379 -31.215607
-1.197809 37.958709 -32.493873
-0.539155 39.829026 -32.7825
-23.213048 24.276212 -30.763638
-23.333857 25.895637 -30.738308
-22.491098 25.778471 -30.799618
-24.036748 22.827706 -30.805224
-23.213048 24.276212 -30.763638
-23.193989 22.710539 -30.866533
-24.787966 21.446938 -30.873755
-24.036748 22.827706 -30.805224
-24.115521 19.697041 -31.030613
-23.220326 21.057976 -30.861693
-23.318157 19.492985 -30.984186
-24.842622 19.97509 -31.114442
-24.115521 19.697041 -31.030613
-24.787966 21.446938 -30.873755
-24.842622 19.97509 -31.114442
-9.554831 20.26301 -28.835951
-9.249674 22.757223 -29.325825
-10.769372 18.367532 -28.554424
-9.554831 20.26301 -28.835951
-11.550063 18.915458 -28.737164
-10.769372 18.367532 -28.554424
-22.608841 32.126919 -30.627015
-23.615113 32.023079 -30.375479
-23.052079 33.62093 -30.426707
-22.205408 30.562 -30.750017
-22.608841 32.126919 -30.627015
-21.642374 32.159852 -30.801245
-21.925424 28.996415 -30.849268
-22.891891 28.963482 -30.675037
-22.205408 30.562 -30.750017
-21.765208 18.969732 -30.720579
-22.578207 19.19115 -30.833106
-21.609963 20.632502 -30.70274
-21.765208 18.969732 -30.720579
-21.018912 18.64498 -30.516113
-5.130211 37.838513 -32.430194
-5.212928 40.113781 -32.831047
-5.981089 35.849953 -31.997557
-5.130211 37.838513 -32.430194
-5.101071 35.545582 -31.98184
-6.878156 31.549164 -31.12205
-7.763754 31.840029 -31.168621
-6.837546 33.847887 -31.595773
-6.878156 31.549164 -31.12205
-6.038596 31.134224 -31.031592
-1.925911 36.052341 -32.131994
-1.912891 38.544041 -32.640836
-1.197809 37.958709 -32.493873
-2.920627 28.950678 -30.629793
-2.080484 30.909551 -31.019865
-2.236121 28.269996 -30.452534
-2.920627 28.950678 -30.629793
-3.809337 26.971025 -30.189909
-7.980354 19.090851 -28.582009
-6.872225 21.052956 -28.96055
-8.425217 16.55668 -28.159704
-7.980354 19.090851 -28.582009
-7.670657 15.828556 -28.057572
-6.461207 17.716704 -28.369936
-6.926456 15.092116 -27.958616
-8.425217 16.55668 -28.159704
-7.670657 15.828556 -28.057572
-27.620587 40.172579 -28.257008
-27.672767 38.744794 -28.311689
-30.397459 45.06341 -26.527369
-31.417286 44.632567 -26.152477
-29.340436 45.431803 -26.899973
-28.121463 45.900286 -27.215998
-29.347377 43.981476 -27.079918
-30.397459 45.06341 -26.527369
-29.340436 45.431803 -26.899973
-28.389126 42.867712 -27.612627
-29.446149 42.499319 -27.240023
-29.347377 43.981476 -27.079918
-27.418616 41.689527 -28.138947
-28.389126 42.867712 -27.612627
-27.319844 43.171684 -27.978842
-26.551305 40.476551 -28.623222
-27.620587 40.172579 -28.257008
-27.418616 41.689527 -28.138947
-24.292645 41.04397 -29.292343
-25.48977 40.71483 -28.970461
-25.152209 42.322639 -28.827044
-23.133196 41.302026 -29.59211
-23.470757 39.694218 -29.735527
-24.292645 41.04397 -29.292343
-21.860396 41.648611 -29.906492
-23.133196 41.302026 -29.59211
-20.648662 41.920166 -30.186262
-21.099574 40.223829 -30.315064
-21.860396 41.648611 -29.906492
-19.347625 42.274229 -30.514219
-20.648662 41.920166 -30.186262
-20.108447 43.699011 -30.105648
-18.123779 42.549383 -30.786774
-18.663994 40.770538 -30.867387
-19.347625 42.274229 -30.514219
-17.515379 44.400935 -30.776352
-16.966123 46.230559 -30.685667
-16.831747 42.897244 -31.12952
-18.123779 42.549383 -30.786774
-17.515379 44.400935 -30.776352
-13.055267 47.328263 -31.87343
-14.358311 46.962067 -31.450985
-13.705967 48.89671 -31.520384
-9.718303 44.344946 -32.776291
-10.869911 44.154566 -32.500187
-10.138054 46.126991 -32.719517
-8.650447 44.423603 -32.93665
-9.382303 42.451178 -32.71732
-9.718303 44.344946 -32.776291
-10.464286 55.092922 -32.107503
-11.836686 54.695545 -31.575389
-9.836256 53.450276 -32.510517
-10.464286 55.092922 -32.107503
-9.24033 51.799626 -32.837374
-10.511194 51.502567 -32.396902
-9.836256 53.450276 -32.510517
-8.065573 51.990452 -33.168819
-6.879996 52.15997 -33.527788
-8.740511 50.042744 -33.055205
-9.24033 51.799626 -32.837374
-8.065573 51.990452 -33.168819
-8.2761 48.27547 -33.191136
-9.450857 48.084644 -32.85969
-8.740511 50.042744 -33.055205
-8.2761 48.27547 -33.191136
-7.189209 48.353653 -33.408992
-7.563555 44.501785 -33.154506
-8.650447 44.423603 -32.93665
-6.554552 44.460995 -33.265987
-7.305443 42.489044 -32.989159
-7.563555 44.501785 -33.154506
-5.542853 44.400268 -33.415033
-6.554552 44.460995 -33.265987
-4.602447 44.218481 -33.472805
-5.356033 42.266466 -33.158411
-5.542853 44.400268 -33.415033
-2.011086 43.290115 -33.497102
-2.823777 43.668057 -33.531849
-2.134032 45.540474 -33.829595
-1.253065 42.806471 -33.398782
-1.94281 40.934054 -33.101036
-2.011086 43.290115 -33.497102
-0.732262 46.946904 -33.93854
-1.474905 47.384045 -34.039459
-0.633325 44.631491 -33.629036
-0.732262 46.946904 -33.93854
-0.565049 42.275429 -33.232969
-1.253065 42.806471 -33.398782
-0.633325 44.631491 -33.629036
-0.539155 39.829026 -32.7825
-0.565049 42.275429 -33.232969
-26.18927 36.178684 -29.165018
-26.935139 37.491615 -28.757141
-26.007407 37.646671 -29.14916
-26.509356 34.676706 -29.13871
-26.18927 36.178684 -29.165018
-25.581625 34.831762 -29.530729
-26.710279 33.244078 -29.062055
-27.317924 34.591 -28.696344
-26.509356 34.676706 -29.13871
-25.441339 31.900112 -29.781246
-24.98003 33.423437 -29.839796
-24.519659 31.993765 -30.116621
-26.259347 31.871177 -29.418049
-25.441339 31.900112 -29.781246
-26.710279 33.244078 -29.062055
-26.259347 31.871177 -29.418049
-23.490043 27.438005 -30.608781
-23.333857 25.895637 -30.738308
-9.574008 32.298651 -31.288498
-8.654549 34.304401 -31.671974
-8.642602 32.133001 -31.258869
-10.486771 32.482354 -31.373407
-9.574008 32.298651 -31.288498
-10.474824 30.310954 -30.960302
-12.331926 30.589405 -31.112326
-12.403162 32.636284 -31.447643
-11.458823 32.541534 -31.38053
-13.29553 28.645765 -30.828957
-12.331926 30.589405 -31.112326
-12.35119 28.551016 -30.761843
-14.225285 26.752075 -30.598137
-14.206021 28.790464 -30.94862
-13.29553 28.645765 -30.828957
-10.085076 23.174891 -29.45195
-8.980387 25.134652 -29.800998
-9.249674 22.757223 -29.325825
-13.158615 19.810356 -29.12216
-12.369231 19.348793 -28.906105
-13.535149 17.495018 -28.713606
-17.894467 17.38233 -29.630533
-16.726557 19.049583 -29.622194
-17.087954 17.059607 -29.402493
-18.639728 17.772812 -29.901305
-17.894467 17.38233 -29.630533
-19.453978 18.048737 -30.105959
-18.347319 19.648232 -30.05489
-18.639728 17.772812 -29.901305
-20.201214 18.401516 -30.350779
-19.453978 18.048737 -30.105959
3 0 23 21
3 1 76 77
3 2 26 24
3 4 29 27
3 4 31 29
3 5 78 79
3 80 33 81
3 80 81 82
3 85 84 33
3 83 84 85
3 86 36 87
3 3 88 90
3 88 89 90
3 91 37 92
3 6 41 39
3 8 42 22
3 8 93 95
3 95 94 42
3 93 94 95
3 9 44 43
3 10 48 46
3 12 49 25
3 12 50 49
3 7 51 40
3 13 52 28
3 13 53 52
3 13 54 53
3 14 55 30
3 14 96 98
3 98 97 55
3 96 97 98
3 99 58 100
3 101 100 56
3 99 100 101
3 102 59 103
3 105 104 59
3 16 106 108
3 108 107 32
3 106 107 108
3 16 109 110
3 16 111 113
3 111 60 112
3 111 112 113
3 115 114 34
3 17 116 117
3 17 118 119
3 120 61 121
3 122 62 123
3 124 123 61
3 122 123 124
3 126 125 62
3 127 63 128
3 127 128 129
3 130 64 131
3 132 131 63
3 130 131 132
3 18 65 35
3 18 133 135
3 135 134 65
3 133 134 135
3 136 66 137
3 139 138 66
3 140 67 141
3 11 68 47
3 15 69 57
3 19 142 144
3 142 70 143
3 142 143 144
3 19 71 70
3 145 72 146
3 147 146 45
3 145 146 147
3 20 73 38
3 20 74 73
3 20 75 74
3 21 22 6
3 23 22 21
3 23 8 22
3 149 148 9
3 24 25 10
3 26 25 24
3 26 12 25
3 27 28 7
3 29 28 27
3 29 13 28
3 29 30 13
3 31 30 29
3 31 14 30
3 150 32 151
3 33 152 154
3 152 32 153
3 152 153 154
3 33 16 32
3 33 34 16
3 155 34 156
3 157 156 33
3 155 156 157
3 159 158 34
3 160 17 161
3 162 35 163
3 162 163 164
3 36 165 167
3 165 35 166
3 165 166 167
3 36 18 35
3 169 168 11
3 171 170 15
3 37 172 173
3 37 174 176
3 174 19 175
3 174 175 176
3 177 38 178
3 179 38 180
3 181 20 182
3 183 182 38
3 181 182 183
3 185 184 20
3 39 40 2
3 41 40 39
3 41 7 40
3 22 41 6
3 42 41 22
3 42 7 41
3 42 27 7
3 186 27 187
3 188 187 42
3 186 187 188
3 189 4 190
3 191 190 27
3 189 190 191
3 193 192 5
3 43 194 196
3 196 195 3
3 194 195 196
3 44 197 199
3 199 198 43
3 197 198 199
3 44 200 201
3 202 44 203
3 204 203 9
3 202 203 204
3 205 44 206
3 208 207 44
3 209 45 210
3 211 45 212
3 214 213 45
3 46 47 1
3 48 47 46
3 48 11 47
3 25 48 10
3 49 48 25
3 49 11 48
3 49 215 217
3 217 216 11
3 215 216 217
3 50 218 220
3 220 219 49
3 218 219 220
3 50 221 223
3 221 3 222
3 221 222 223
3 40 26 2
3 51 26 40
3 51 12 26
3 28 51 7
3 52 51 28
3 52 12 51
3 52 50 12
3 53 50 52
3 53 3 50
3 53 43 3
3 54 43 53
3 54 9 43
3 30 54 13
3 55 54 30
3 55 9 54
3 55 224 226
3 226 225 9
3 224 225 226
3 228 227 55
3 56 57 0
3 58 57 56
3 58 15 57
3 229 58 230
3 59 231 233
3 231 58 232
3 231 232 233
3 59 15 58
3 59 234 236
3 236 235 15
3 234 235 236
3 238 237 59
3 241 240 5
3 239 240 241
3 32 242 244
3 242 243 244
3 246 245 32
3 60 247 248
3 60 249 250
3 34 60 16
3 251 60 252
3 253 252 34
3 251 252 253
3 255 254 60
3 256 1 257
3 258 17 259
3 61 260 261
3 61 262 264
3 262 17 263
3 262 263 264
3 61 265 267
3 267 266 17
3 265 266 267
3 62 268 270
3 270 269 61
3 268 269 270
3 62 271 273
3 271 1 272
3 271 272 273
3 62 46 1
3 274 46 275
3 276 275 62
3 274 275 276
3 277 10 278
3 279 278 46
3 277 278 279
3 280 10 281
3 282 24 283
3 284 283 10
3 282 283 284
3 285 24 286
3 285 286 287
3 288 2 289
3 290 289 24
3 288 289 290
3 63 291 292
3 63 293 295
3 293 2 294
3 293 294 295
3 63 39 2
3 64 39 63
3 64 6 39
3 35 296 298
3 296 64 297
3 296 297 298
3 65 64 35
3 65 6 64
3 65 21 6
3 299 21 300
3 301 300 65
3 299 300 301
3 302 0 303
3 304 303 21
3 302 303 304
3 305 36 306
3 307 36 308
3 309 18 310
3 311 310 36
3 309 310 311
3 66 312 313
3 66 314 316
3 314 18 315
3 314 315 316
3 66 317 319
3 319 318 18
3 317 318 319
3 321 320 66
3 322 0 323
3 324 56 325
3 326 325 0
3 324 325 326
3 327 56 328
3 331 330 56
3 329 330 331
3 67 332 334
3 332 333 334
3 67 335 337
3 335 5 336
3 335 336 337
3 338 67 339
3 340 67 341
3 342 5 343
3 344 343 67
3 342 343 344
3 346 345 5
3 47 347 349
3 349 348 1
3 347 348 349
3 68 350 352
3 352 351 47
3 350 351 352
3 68 353 355
3 353 354 355
3 356 68 357
3 358 357 11
3 356 357 358
3 359 68 360
3 362 361 68
3 364 363 3
3 57 23 0
3 69 23 57
3 69 8 23
3 365 69 366
3 367 366 15
3 365 366 367
3 70 368 370
3 368 69 369
3 368 369 370
3 70 8 69
3 70 371 373
3 373 372 8
3 371 372 373
3 71 374 376
3 376 375 70
3 374 375 376
3 71 377 379
3 377 4 378
3 377 378 379
3 45 380 382
3 380 37 381
3 380 381 382
3 72 37 45
3 72 19 37
3 38 383 385
3 383 72 384
3 383 384 385
3 73 72 38
3 73 19 72
3 73 71 19
3 74 71 73
3 74 4 71
3 74 31 4
3 75 31 74
3 75 14 31
3 386 75 387
3 388 387 20
3 386 387 388
3 389 75 390
3 391 14 392
3 393 392 75
3 391 392 393
3 395 394 14
