ply
format ascii 1.0
element vertex 278
property float x
property float y
property float z
element face 241
property list uchar int vertex_index
end_header
-2.920248 40.487057 22.250427
1.485544 47.925331 27.065704
2.384222 51.405785 35.716843
-6.116068 27.334583 24.710213
-1.441568 47.585472 18.319355
2.54048 56.449348 29.637058
2.183002 62.874031 28.887966
-3.984072 32.996925 26.295553
-0.492823 44.721798 24.300434
0.870848 51.417725 21.060843
-5.348253 35.164963 20.590027
1.497065 51.841637 41.571232
2.30562 54.325829 24.79949
2.093412 57.816711 18.423006
-5.387426 26.357864 27.474781
1.989946 60.461494 32.217461
0.183834 48.113045 22.614086
1.176294 49.742287 24.107464
-3.505934 36.78392 24.276482
-4.677786 34.163765 23.471432
-4.157495 37.963623 21.393112
2.616333 58.664848 26.435268
2.573288 55.480705 27.082943
2.563524 57.501419 23.903858
2.199242 56.166115 21.643198
2.551949 59.326485 20.654377
-6.801439 28.140049 21.878693
-3.516455 41.671902 19.305584
2.122238 54.584854 35.555584
2.463554 54.028786 32.738937
2.257896 57.230965 32.43927
2.399332 59.656036 29.217279
2.544468 61.860199 25.910717
-4.360441 29.140171 28.272995
-3.282721 31.685764 29.062735
-2.842665 35.453487 27.103035
-2.308542 39.141033 25.138
-1.681803 42.737606 23.205526
-0.973789 46.23455 21.341606
-0.209023 49.628006 19.579136
0.573729 52.921318 17.946762
-5.084372 30.290298 25.508577
-5.788702 31.280807 22.68441
-4.782438 38.96833 18.453808
-5.971392 35.978996 17.649879
1.994972 51.721024 38.545586
1.642189 54.939362 38.57819
2.140802 49.155556 28.806721
2.579599 53.272285 30.168293
2.410574 52.310966 27.869816
1.93593 51.137459 25.852264
1.728184 52.97673 22.794424
1.523623 54.64669 19.659843
1.323967 56.126617 16.467333
1.986214 59.264641 15.155945
-5.015487 25.791151 28.825062
-5.492212 24.366687 28.408321
-5.120273 23.799974 29.758602
1.035724 47.186909 26.320269
1.238261 46.300087 27.752673
1.330919 48.833809 25.586584
0.881099 48.095387 24.841149
1.035724 47.186909 26.320269
2.480889 51.145287 34.424465
2.472246 49.864422 35.830567
2.627378 59.087352 23.530064
2.589929 58.083134 25.169563
2.653783 59.669067 24.795769
2.621591 59.999885 21.905323
2.557736 58.413952 22.279117
2.627378 59.087352 23.530064
-6.582142 25.735287 24.290479
-6.229277 25.336968 25.676603
-6.458754 27.737316 23.294453
-6.924828 26.138019 22.874719
-6.582142 25.735287 24.290479
-2.09859 46.428082 17.78131
-1.834786 45.838518 19.286104
2.033107 57.523376 33.946657
2.190067 55.90791 33.997427
1.965278 56.200321 35.504814
-2.931366 30.969972 30.416798
-3.457979 29.767011 30.020685
-2.265705 36.558453 27.533155
-2.508654 34.726564 28.486298
-1.998644 38.402226 26.550638
-2.575604 37.29726 26.120517
-2.265705 36.558453 27.533155
-0.808655 42.980259 25.197321
-0.248167 43.902113 25.741455
-1.087313 43.729702 23.75298
-1.403145 41.988163 24.649867
-0.808655 42.980259 25.197321
-5.89789 33.629238 20.194043
-6.118114 31.68716 21.241234
-5.568478 33.222885 21.637218
-4.432737 40.818928 17.379953
-4.149446 40.320116 18.879696
-3.799746 42.170714 17.805841
-6.24493 36.280682 16.150332
-5.664854 37.876492 16.554274
-6.500756 34.343345 17.248921
-6.24493 36.280682 16.150332
1.688851 50.244061 41.481119
1.438624 50.190597 42.993534
1.746018 51.78133 40.058409
1.937804 50.183754 39.968296
1.688851 50.244061 41.481119
2.324142 49.647755 29.81581
2.235718 48.111199 30.212768
1.92953 59.881439 13.505993
2.248334 60.813305 14.586952
1.557323 58.331791 14.19349
1.92953 59.881439 13.505993
-5.864955 24.848608 27.058888
-5.492212 24.366687 28.408321
-5.751747 26.846224 26.092497
-6.229277 25.336968 25.676603
-5.864955 24.848608 27.058888
-1.665449 48.165943 16.780954
-1.015046 49.274395 17.401905
1.738241 60.758934 33.805225
1.899131 59.138641 33.835752
1.846757 62.073936 32.132656
1.738241 60.758934 33.805225
1.943285 63.280204 30.467909
2.086474 61.667763 30.552713
1.846757 62.073936 32.132656
0.046541 45.585142 24.937634
-0.248167 43.902113 25.741455
0.384869 47.280766 24.094459
-0.154495 46.417422 23.45726
0.046541 45.585142 24.937634
0.680064 48.927666 23.360775
0.384869 47.280766 24.094459
0.881099 48.095387 24.841149
1.23921 51.805565 43.155737
1.438624 50.190597 42.993534
1.308266 53.463062 41.664266
1.23921 51.805565 43.155737
1.637272 46.967315 28.484819
1.238261 46.300087 27.752673
-7.23954 26.446057 21.450533
-6.924828 26.138019 22.874719
-7.105856 28.448569 20.428297
-7.23954 26.446057 21.450533
-2.872229 42.881733 19.779218
-3.218351 41.07948 20.778005
-2.574126 42.28931 21.25164
-3.136034 43.471297 18.274425
-2.872229 42.881733 19.779218
-3.799746 42.170714 17.805841
-3.136034 43.471297 18.274425
-2.09859 46.428082 17.78131
-1.665449 48.165943 16.780954
2.123921 58.846229 32.328366
2.033107 57.523376 33.946657
1.899131 59.138641 33.835752
2.617851 61.266742 24.533493
2.653783 59.669067 24.795769
2.580401 60.262524 26.172992
-3.99684 28.494215 29.625815
-4.501995 27.182305 29.224169
-3.821581 30.412968 28.667865
-3.99684 28.494215 29.625815
-3.457979 29.767011 30.020685
-2.728682 32.842703 29.466148
-2.931366 30.969972 30.416798
-3.062693 33.569626 28.082885
-2.728682 32.842703 29.466148
-2.508654 34.726564 28.486298
-1.716515 40.189876 25.616104
-1.998644 38.402226 26.550638
-1.995173 40.939319 24.171763
-1.716515 40.189876 25.616104
-1.403145 41.988163 24.649867
-1.954903 43.414585 21.72919
-2.574126 42.28931 21.25164
-2.301025 41.612331 22.727976
-1.600896 45.163057 20.79723
-1.954903 43.414585 21.72919
-1.327796 44.486078 22.273566
-1.207679 46.910011 19.830481
-1.834786 45.838518 19.286104
-1.600896 45.163057 20.79723
-0.398774 50.295662 18.031796
-1.015046 49.274395 17.401905
-0.825295 48.606739 18.949245
-0.007398 51.942318 17.215609
-0.398774 50.295662 18.031796
0.182353 51.274662 18.762949
0.430462 53.575306 16.363225
-0.007398 51.942318 17.215609
-4.873933 27.749018 27.873888
-5.015487 25.791151 28.825062
-4.501995 27.182305 29.224169
-6.624483 30.116781 20.838376
-6.29507 29.710428 22.281551
-6.118114 31.68716 21.241234
-7.105856 28.448569 20.428297
-6.624483 30.116781 20.838376
-5.070377 39.371158 16.956238
-4.432737 40.818928 17.379953
-5.376915 37.473663 18.051843
-5.070377 39.371158 16.956238
-5.664854 37.876492 16.554274
-6.209459 34.036254 18.723969
-5.89789 33.629238 20.194043
-5.659822 35.571979 19.119953
-6.209459 34.036254 18.723969
-6.500756 34.343345 17.248921
2.34303 49.993554 37.132733
2.472246 49.864422 35.830567
2.148405 50.151173 38.547104
1.937804 50.183754 39.968296
2.189597 51.563405 37.131214
2.34303 49.993554 37.132733
2.148405 50.151173 38.547104
1.725253 56.377575 37.016117
1.965278 56.200321 35.504814
1.882213 54.762108 37.066887
1.380828 55.011925 40.167745
1.569627 53.3905 40.074711
1.308266 53.463062 41.664266
1.466143 56.562752 38.606898
1.380828 55.011925 40.167745
1.725253 56.377575 37.016117
1.466143 56.562752 38.606898
1.964901 47.582428 29.355328
2.235718 48.111199 30.212768
1.813173 48.540443 27.936212
1.637272 46.967315 28.484819
1.964901 47.582428 29.355328
2.520555 52.456787 32.935513
2.480889 51.145287 34.424465
2.423888 52.717286 34.22789
2.578578 52.078537 31.650191
2.520555 52.456787 32.935513
2.521577 53.650535 31.453615
2.543541 51.706119 30.496595
2.578578 52.078537 31.650191
2.459029 51.22546 29.347357
2.543541 51.706119 30.496595
2.495087 52.791625 29.019054
2.275688 50.733261 28.338268
2.324142 49.647755 29.81581
2.459029 51.22546 29.347357
0.805581 55.177956 15.623511
0.430462 53.575306 16.363225
0.948848 54.523967 17.207048
2.0599 64.474964 28.753675
1.943285 63.280204 30.467909
2.283206 63.965317 27.186727
2.0599 64.474964 28.753675
2.463939 63.4584 25.698103
2.363735 62.367115 27.399341
2.283206 63.965317 27.186727
2.617204 62.853256 24.225369
2.463939 63.4584 25.698103
2.617851 61.266742 24.533493
2.617204 62.853256 24.225369
2.657239 60.900052 20.237377
2.621591 59.999885 21.905323
2.544126 60.137692 19.004043
2.657239 60.900052 20.237377
2.314858 59.382804 17.888357
2.32268 58.571598 19.538691
2.544126 60.137692 19.004043
2.261259 60.106769 16.254827
2.248334 60.813305 14.586952
2.039813 58.540676 16.789476
2.314858 59.382804 17.888357
2.261259 60.106769 16.254827
1.2262 56.762779 14.849184
1.655091 57.695629 15.811639
1.557323 58.331791 14.19349
0.805581 55.177956 15.623511
1.2262 56.762779 14.849184
3 55 14 56
3 55 56 57
3 1 58 59
3 1 60 62
3 60 17 61
3 60 61 62
3 0 20 18
3 2 63 64
3 65 23 66
3 67 66 21
3 65 66 67
3 68 25 69
3 70 69 23
3 68 69 70
3 3 71 72
3 3 73 75
3 73 26 74
3 73 74 75
3 4 76 77
3 78 30 79
3 80 79 28
3 78 79 80
3 6 31 15
3 6 32 31
3 81 34 82
3 83 35 84
3 85 36 86
3 87 86 35
3 85 86 87
3 8 88 89
3 8 90 92
3 90 37 91
3 90 91 92
3 8 38 37
3 9 39 16
3 9 40 39
3 7 41 33
3 10 42 19
3 10 93 95
3 95 94 42
3 93 94 95
3 96 43 97
3 98 97 27
3 96 97 98
3 99 44 100
3 102 101 44
3 11 103 104
3 11 105 107
3 105 45 106
3 105 106 107
3 11 46 45
3 108 47 109
3 5 48 29
3 12 49 22
3 12 50 49
3 12 51 50
3 13 52 24
3 13 53 52
3 110 54 111
3 113 112 54
3 14 114 115
3 14 116 118
3 116 3 117
3 116 117 118
3 120 119 4
3 121 15 122
3 123 15 124
3 125 6 126
3 127 126 15
3 125 126 127
3 128 8 129
3 130 16 131
3 132 131 8
3 130 131 132
3 17 133 135
3 133 16 134
3 133 134 135
3 17 9 16
3 18 19 7
3 20 19 18
3 20 10 19
3 136 11 137
3 139 138 11
3 21 22 5
3 23 22 21
3 23 12 22
3 23 24 12
3 25 24 23
3 25 13 24
3 140 1 141
3 26 142 143
3 26 144 145
3 146 27 147
3 148 147 0
3 146 147 148
3 149 27 150
3 152 151 27
3 154 153 4
3 28 29 2
3 30 29 28
3 30 5 29
3 15 155 157
3 155 30 156
3 155 156 157
3 31 30 15
3 31 5 30
3 31 21 5
3 32 21 31
3 32 158 160
3 160 159 21
3 158 159 160
3 161 33 162
3 34 163 165
3 163 33 164
3 163 164 165
3 34 7 33
3 166 34 167
3 35 168 170
3 168 34 169
3 168 169 170
3 35 7 34
3 35 18 7
3 36 18 35
3 36 0 18
3 171 36 172
3 37 173 175
3 173 36 174
3 173 174 175
3 37 0 36
3 37 176 178
3 178 177 0
3 176 177 178
3 38 179 181
3 181 180 37
3 179 180 181
3 38 182 184
3 182 4 183
3 182 183 184
3 16 38 8
3 39 38 16
3 39 4 38
3 39 185 187
3 187 186 4
3 185 186 187
3 40 188 190
3 190 189 39
3 188 189 190
3 40 191 192
3 33 193 195
3 193 14 194
3 193 194 195
3 41 14 33
3 41 3 14
3 19 41 7
3 42 41 19
3 42 3 41
3 42 26 3
3 196 26 197
3 198 197 42
3 196 197 198
3 200 199 26
3 27 20 0
3 43 20 27
3 43 10 20
3 201 43 202
3 44 203 205
3 203 43 204
3 203 204 205
3 44 10 43
3 44 206 208
3 208 207 10
3 206 207 208
3 210 209 44
3 211 2 212
3 45 213 214
3 45 215 217
3 215 2 216
3 215 216 217
3 45 28 2
3 46 28 45
3 46 218 220
3 220 219 28
3 218 219 220
3 221 46 222
3 223 222 11
3 221 222 223
3 224 46 225
3 227 226 46
3 47 228 229
3 47 230 232
3 230 1 231
3 230 231 232
3 29 233 235
3 235 234 2
3 233 234 235
3 48 236 238
3 238 237 29
3 236 237 238
3 48 239 240
3 22 48 5
3 49 48 22
3 49 241 243
3 243 242 48
3 241 242 243
3 49 244 246
3 244 47 245
3 244 245 246
3 50 47 49
3 50 1 47
3 50 17 1
3 51 17 50
3 51 9 17
3 24 51 12
3 52 51 24
3 52 9 51
3 52 40 9
3 53 40 52
3 53 247 249
3 249 248 40
3 247 248 249
3 250 6 251
3 252 6 253
3 254 32 255
3 256 255 6
3 254 255 256
3 257 32 258
3 260 259 32
3 261 25 262
3 263 25 264
3 265 13 266
3 267 266 25
3 265 266 267
3 54 268 269
3 54 270 272
3 270 13 271
3 270 271 272
3 54 53 13
3 273 53 274
3 275 274 54
3 273 274 275
3 277 276 53
