ply
format ascii 1.0
element vertex 111
property float x
property float y
property float z
element face 90
property list uchar int vertex_index
end_header
-9.865862 86.692596 14.362285
-6.431536 88.566956 9.91555
-14.354733 84.924896 11.403049
-10.432955 88.133942 6.815364
-8.080853 87.909271 12.160852
-6.223877 87.689926 13.896928
-12.056267 86.027695 12.785256
-12.400515 86.735931 9.122197
-10.156086 87.575882 10.554165
-8.314846 88.63118 8.289039
-4.987831 88.612518 7.636213
-12.740236 87.138565 5.537197
-10.700151 88.387604 3.160639
-8.723577 89.137009 0.778791
-8.526443 89.033386 4.490903
-6.609808 89.120178 5.998465
-16.231539 82.790924 13.644626
-8.847847 86.773765 15.227467
-7.955342 87.382103 14.12675
-8.973357 87.300933 13.261568
-5.627924 88.243256 10.780736
-4.906071 88.266037 9.641068
-5.709684 88.589737 8.775882
-5.314681 86.694198 16.820955
-5.426647 87.297966 14.804678
-6.111912 87.086159 15.913205
-14.562943 85.19944 9.653205
-15.542263 84.203812 10.827095
-17.107236 81.605652 14.736895
-17.399816 82.019722 13.106367
-18.275512 80.83445 14.198635
-7.803964 89.228073 -0.411539
-7.740219 89.250695 1.467192
-7.026854 87.27243 14.994788
-7.152365 87.799599 13.02889
-7.955342 87.382103 14.12675
-6.111912 87.086159 15.913205
-7.026854 87.27243 14.994788
-4.33572 88.065842 8.494729
-4.39416 88.320701 6.486129
-4.33572 88.065842 8.494729
-4.906071 88.266037 9.641068
-5.524095 87.804741 12.771425
-5.627924 88.243256 10.780736
-6.327706 88.128441 11.906239
-4.726864 87.412781 13.679175
-5.524095 87.804741 12.771425
-5.426647 87.297966 14.804678
-13.585833 86.104957 8.512779
-14.562943 85.19944 9.653205
-13.377624 85.830413 10.262623
-13.755694 86.306275 6.720279
-13.585833 86.104957 8.512779
-12.570376 86.937248 7.329697
-13.968293 86.44413 5.012642
-13.755694 86.306275 6.720279
-12.914219 87.201706 3.79157
-13.968293 86.44413 5.012642
-11.894177 87.826225 2.603292
-12.914219 87.201706 3.79157
-11.720194 87.763084 4.348918
-10.837681 88.376404 1.382707
-12.031707 87.815026 0.82536
-11.894177 87.826225 2.603292
-9.711864 88.762306 1.969715
-9.849394 88.751107 0.191783
-10.837681 88.376404 1.382707
-7.641652 89.198883 3.323249
-7.740219 89.250695 1.467192
-8.62501 89.085197 2.634847
-6.683334 89.242279 4.07703
-7.641652 89.198883 3.323249
-7.568126 89.076782 5.244684
-5.85972 89.057793 4.845025
-6.683334 89.242279 4.07703
-5.048731 88.803962 5.663899
-5.85972 89.057793 4.845025
-5.79882 88.866348 6.817339
-4.39416 88.320701 6.486129
-4.45506 88.512146 4.513815
-5.048731 88.803962 5.663899
-9.71867 86.083602 16.291538
-10.787306 85.843856 15.435086
-16.480666 83.136826 11.947883
-17.648943 82.365623 11.409624
-17.399816 82.019722 13.106367
-15.293136 83.85791 12.523837
-15.542263 84.203812 10.827095
-16.480666 83.136826 11.947883
-15.987894 82.300553 15.36607
-17.107236 81.605652 14.736895
-15.085903 83.432915 14.307037
-15.987894 82.300553 15.36607
-14.1475 84.4999 13.186249
-15.293136 83.85791 12.523837
-15.085903 83.432915 14.307037
-12.998267 85.0513 13.877353
-13.2055 85.476295 12.094152
-14.1475 84.4999 13.186249
-11.882509 85.511406 14.646572
-12.998267 85.0513 13.877353
-10.787306 85.843856 15.435086
-10.961064 86.360145 13.573771
-11.882509 85.511406 14.646572
-8.847847 86.773765 15.227467
-9.71867 86.083602 16.291538
-8.825652 89.052002 -1.026693
-9.951469 88.6661 -1.6137
-9.849394 88.751107 0.191783
-8.825652 89.052002 -1.026693
-7.803964 89.228073 -0.411539
3 0 17 19
3 19 18 4
3 17 18 19
3 0 8 6
3 0 4 8
3 1 20 22
3 22 21 10
3 20 21 22
3 25 24 5
3 23 24 25
3 2 26 27
3 3 11 7
3 3 12 11
3 3 14 12
3 1 15 9
3 1 10 15
3 28 16 29
3 28 29 30
3 32 31 13
3 4 5 1
3 33 5 34
3 35 34 4
3 33 34 35
3 37 36 5
3 6 7 2
3 8 7 6
3 8 3 7
3 8 9 3
3 4 9 8
3 4 1 9
3 10 38 39
3 41 40 10
3 5 42 44
3 44 43 1
3 42 43 44
3 47 46 5
3 45 46 47
3 7 48 50
3 50 49 2
3 48 49 50
3 11 51 53
3 53 52 7
3 51 52 53
3 11 54 55
3 11 56 57
3 12 58 60
3 60 59 11
3 58 59 60
3 12 61 63
3 61 62 63
3 12 64 66
3 64 13 65
3 64 65 66
3 14 13 12
3 14 67 69
3 69 68 13
3 67 68 69
3 9 14 3
3 15 14 9
3 15 70 72
3 72 71 14
3 70 71 72
3 15 73 74
3 10 75 77
3 77 76 15
3 75 76 77
3 10 78 80
3 78 79 80
3 82 81 0
3 16 83 85
3 83 84 85
3 16 86 88
3 86 2 87
3 86 87 88
3 89 16 90
3 91 16 92
3 93 2 94
3 95 94 16
3 93 94 95
3 96 6 97
3 98 97 2
3 96 97 98
3 99 6 100
3 101 0 102
3 103 102 6
3 101 102 103
3 105 104 0
3 13 106 108
3 106 107 108
3 110 109 13
