ply
format ascii 1.0
element vertex 422
property float x
property float y
property float z
element face 383
property list uchar int vertex_index
end_header
12.246157 -38.030823 -6.52529
13.753746 -53.225376 -6.852617
22.24658 -39.52314 -12.493242
10.429428 -44.949112 -2.911715
18.089535 -45.836197 -8.6611
22.943731 -45.096733 -15.436462
11.597853 -41.414703 -4.207012
14.517632 -45.494293 -5.69463
16.330803 -42.314735 -7.137815
26.098965 -39.109253 -15.769167
23.891396 -42.543701 -13.531502
26.301952 -25.043705 -23.711004
15.196817 -53.373043 -9.634317
17.466614 -39.112431 -9.516357
17.555386 -35.538143 -12.73502
22.817575 -35.775551 -15.49609
27.178692 -35.097229 -18.480047
9.414991 -48.782425 -2.357586
6.330332 -44.596985 -0.175043
6.856829 -40.373245 -1.150036
12.715799 -49.002911 -4.915138
15.578838 -49.229218 -7.725309
17.727951 -49.212692 -10.762667
20.549843 -42.758244 -10.17358
20.882294 -45.743279 -11.91839
27.160234 -30.392048 -21.280554
12.020527 -39.72411 -5.235344
13.998581 -41.905457 -5.675877
14.547281 -40.290428 -6.735186
14.570232 -53.328255 -8.232784
22.682775 -33.653015 -17.136866
25.146257 -35.557144 -16.937788
25.135983 -33.362835 -18.467741
6.206551 -46.861855 -0.011898
9.859602 -46.83783 -2.572056
11.081896 -48.862701 -3.603115
11.744576 -47.00338 -3.890238
16.392254 -45.708611 -7.14613
15.265779 -47.361259 -6.669811
16.789478 -47.466576 -8.148821
16.738367 -49.257549 -9.218304
18.122665 -47.488304 -9.695095
19.944752 -39.411873 -10.984358
19.362488 -41.048244 -9.69449
21.526472 -41.187218 -11.232458
21.99184 -45.493896 -13.652924
20.272867 -47.22892 -12.969851
21.162424 -46.932129 -14.666101
28.842607 -26.912899 -23.901751
26.815613 -27.791294 -22.568705
29.087982 -32.05114 -21.471418
11.039778 -43.145081 -3.440639
12.509573 -45.226231 -4.289213
13.291855 -43.536102 -4.868345
15.470033 -43.881699 -6.307261
17.513838 -44.142303 -7.783508
24.314203 -39.427864 -14.079712
23.459721 -41.138168 -12.853016
25.124781 -40.882866 -14.574778
24.649158 -43.320778 -16.294054
23.773209 -44.546158 -17.247152
26.11648 -41.766487 -20.12948
25.660105 -22.165756 -24.669703
28.431961 -24.144878 -24.924437
14.87728 -38.644382 -8.044985
17.647938 -37.38765 -11.038673
20.24622 -37.659767 -12.470966
20.262205 -35.765007 -14.112078
22.678528 -37.727539 -13.929047
24.877998 -37.575237 -15.456184
26.785206 -37.187557 -17.085665
7.991634 -46.76754 -1.286671
8.347429 -44.719097 -1.545694
6.581633 -42.431969 -0.538912
8.781206 -42.758148 -2.002518
9.195751 -40.886314 -2.703939
9.504494 -39.079964 -3.67593
12.022709 -50.899338 -4.599562
13.371025 -51.045437 -5.929522
13.56917 -47.195122 -5.253109
15.529999 -51.200832 -8.753807
16.341927 -51.192516 -10.226526
17.016546 -40.741463 -8.20829
18.532053 -42.608047 -8.626171
19.37619 -44.287437 -9.322441
22.344635 -42.742924 -11.804703
21.026716 -44.293678 -10.942261
19.586796 -45.853367 -10.251268
19.273935 -47.412132 -11.30612
23.815495 -25.735195 -22.698023
24.880821 -30.990658 -19.981447
27.293983 -32.830948 -19.898111
28.855511 -34.386333 -20.154825
13.824506 -54.42054 -7.223925
13.484015 -54.319344 -6.557688
14.161989 -53.276815 -7.542701
14.232749 -54.47198 -7.914008
13.824506 -54.42054 -7.223925
22.497114 -32.503127 -17.960391
21.110379 -32.568686 -17.378996
23.723718 -32.358037 -18.625828
23.909379 -33.507925 -17.802304
22.497114 -32.503127 -17.960391
22.467785 -45.295315 -14.544693
22.82332 -44.657833 -14.045741
23.299266 -44.459252 -14.93751
22.467144 -45.80636 -15.903892
21.57649 -46.724058 -15.518711
22.053078 -46.014431 -15.051281
28.957815 -28.233846 -23.319333
29.700336 -27.696717 -24.145268
25.428908 -42.431045 -16.776447
24.913972 -42.733516 -15.823605
25.693722 -41.843784 -16.305999
25.054298 -42.978127 -17.245445
25.428908 -42.431045 -16.776447
26.840041 -40.735548 -20.694042
26.555799 -41.246239 -19.681078
27.109368 -40.212084 -21.669613
26.385807 -41.243023 -21.105051
26.840041 -40.735548 -20.694042
25.293304 -20.669325 -25.047966
23.989002 -21.016848 -24.665419
29.282776 -23.593215 -25.656664
28.153875 -22.70749 -25.350413
29.435127 -24.978891 -25.190807
29.282776 -23.593215 -25.656664
14.918903 -54.59615 -9.947669
14.770669 -54.558001 -9.282739
15.449233 -53.372652 -10.339827
14.918903 -54.59615 -9.947669
17.601662 -36.462896 -11.886847
16.211066 -36.246944 -11.174771
16.164789 -35.322191 -12.022945
21.53989 -35.770279 -14.804084
20.13754 -34.737692 -14.981714
21.415225 -34.742964 -15.67372
27.765017 -35.824903 -18.659715
27.568274 -36.870067 -17.962525
26.981949 -36.142393 -17.782856
6.719231 -41.402607 -0.844474
5.60879 -41.182852 -0.039281
5.746387 -40.15349 -0.344843
8.317957 -37.789789 -3.440839
8.283969 -38.74297 -2.856656
9.573652 -38.19103 -4.297864
8.317957 -37.789789 -3.440839
9.994538 -49.766201 -2.852301
9.282872 -49.734473 -2.28026
14.905631 -49.1834 -7.007689
14.749102 -48.24942 -6.47994
15.422308 -48.295238 -7.19756
15.063025 -50.190035 -7.521704
14.905631 -49.1834 -7.007689
15.554419 -50.215025 -8.239558
15.038605 -51.175842 -8.035953
15.063025 -50.190035 -7.521704
17.383538 -50.170696 -11.242905
16.690525 -51.160608 -10.974835
17.034939 -50.202604 -10.494597
20.954505 -45.018479 -11.430326
21.739459 -44.21833 -11.795911
21.667248 -44.943131 -12.283976
19.431801 -48.159607 -12.657519
19.829234 -48.058255 -13.457765
23.287847 -45.260364 -17.656204
24.145307 -44.19268 -18.156672
25.058723 -25.38945 -23.204513
23.457551 -24.30355 -23.244191
24.700779 -23.957805 -23.750681
25.792467 -29.418629 -21.34635
25.620157 -28.118252 -21.990426
26.987924 -29.091671 -21.92463
26.020528 -30.691353 -20.631
24.65276 -29.717934 -20.696796
25.792467 -29.418629 -21.34635
29.49398 -33.903821 -21.068159
28.971747 -33.218736 -20.813122
29.610215 -32.736225 -21.726456
29.198861 -35.025373 -20.441156
29.49398 -33.903821 -21.068159
26.298088 -39.757931 -16.086067
26.83121 -38.831367 -16.671991
14.457377 -54.535607 -8.581973
14.232749 -54.47198 -7.914008
14.883525 -53.350649 -8.93355
14.770669 -54.558001 -9.282739
14.457377 -54.535607 -8.581973
15.9547 -34.34865 -12.956238
16.164789 -35.322191 -12.022945
21.347825 -33.681696 -16.494108
21.110379 -32.568686 -17.378996
22.750175 -34.714283 -16.316478
21.415225 -34.742964 -15.67372
21.347825 -33.681696 -16.494108
5.37489 -47.009636 0.637579
6.259722 -48.033699 -0.006376
5.318349 -45.747507 0.603519
5.37489 -47.009636 0.637579
5.38024 -44.615072 0.521946
6.268441 -45.72942 -0.09347
5.318349 -45.747507 0.603519
5.804026 -39.066452 -0.732818
5.746387 -40.15349 -0.344843
6.960136 -39.38961 -1.593709
5.804026 -39.066452 -0.732818
23.171799 -43.343342 -13.090532
23.773098 -43.182735 -13.985029
22.222021 -44.818439 -13.151243
22.82332 -44.657833 -14.045741
21.437067 -45.618588 -12.785657
21.667248 -44.943131 -12.283976
22.222021 -44.818439 -13.151243
20.274013 -47.909859 -14.30589
19.829234 -48.058255 -13.457765
20.717646 -47.080525 -13.817976
20.668948 -47.766256 -15.1032
20.274013 -47.909859 -14.30589
20.668948 -47.766256 -15.1032
21.57649 -46.724058 -15.518711
27.944318 -28.673044 -22.65281
27.82911 -27.352097 -23.235228
28.957815 -28.233846 -23.319333
28.116628 -29.973421 -22.008734
26.987924 -29.091671 -21.92463
27.944318 -28.673044 -22.65281
29.080503 -30.802967 -22.104166
28.124108 -31.221594 -21.375986
28.116628 -29.973421 -22.008734
29.776308 -31.537021 -22.344055
29.080503 -30.802967 -22.104166
29.610215 -32.736225 -21.726456
29.776308 -31.537021 -22.344055
13.237839 -53.140999 -6.179998
13.484015 -54.319344 -6.557688
25.810996 -40.644738 -15.488872
25.611873 -39.99606 -15.171972
26.298088 -39.757931 -16.086067
25.151784 -41.514561 -14.963967
25.810996 -40.644738 -15.488872
24.535092 -42.344978 -14.442329
24.508088 -41.713284 -14.05314
25.151784 -41.514561 -14.963967
24.416794 -42.984012 -14.895857
23.773098 -43.182735 -13.985029
24.535092 -42.344978 -14.442329
24.151979 -43.571274 -15.366305
24.416794 -42.984012 -14.895857
24.913972 -42.733516 -15.823605
23.796444 -44.208755 -15.865258
23.299266 -44.459252 -14.93751
24.151979 -43.571274 -15.366305
24.616324 -43.590817 -17.721994
24.211184 -43.933468 -16.770603
25.054298 -42.978127 -17.245445
24.988422 -43.237339 -18.631514
24.145307 -44.19268 -18.156672
24.616324 -43.590817 -17.721994
25.787959 -42.200981 -19.163158
26.555799 -41.246239 -19.681078
25.316942 -42.802845 -19.597836
24.988422 -43.237339 -18.631514
25.787959 -42.200981 -19.163158
25.663795 -42.371021 -20.506301
25.316942 -42.802845 -19.597836
25.663795 -42.371021 -20.506301
26.385807 -41.243023 -21.105051
24.379856 -22.51883 -24.23003
23.989002 -21.016848 -24.665419
25.981029 -23.60473 -24.190354
24.700779 -23.957805 -23.750681
24.379856 -22.51883 -24.23003
26.767947 -21.717929 -25.223045
25.293304 -20.669325 -25.047966
27.046033 -23.155317 -24.79707
26.767947 -21.717929 -25.223045
28.153875 -22.70749 -25.350413
29.64045 -26.362901 -24.679465
28.637284 -25.528889 -24.413094
29.435127 -24.978891 -25.190807
29.700336 -27.696717 -24.145268
29.64045 -26.362901 -24.679465
13.558606 -37.46931 -8.050155
13.561719 -38.337603 -7.285138
12.243044 -37.162531 -7.290307
14.916112 -37.78557 -8.814005
13.558606 -37.46931 -8.050155
16.210779 -38.019594 -9.549691
16.171947 -38.878406 -8.780671
14.916112 -37.78557 -8.814005
16.301441 -37.157204 -10.310849
16.211066 -36.246944 -11.174771
17.557276 -38.25004 -10.277515
16.210779 -38.019594 -9.549691
16.301441 -37.157204 -10.310849
17.382249 -34.540844 -13.643248
15.9547 -34.34865 -12.956238
18.735658 -34.654276 -14.331777
20.13754 -34.737692 -14.981714
18.908796 -35.651575 -13.423549
17.382249 -34.540844 -13.643248
18.735658 -34.654276 -14.331777
27.174331 -37.87052 -17.33024
26.83121 -38.831367 -16.671991
26.442085 -38.148405 -16.427416
27.174331 -37.87052 -17.33024
27.568274 -36.870067 -17.962525
8.611407 -48.825175 -1.764313
9.282872 -49.734473 -2.28026
7.007187 -47.86489 -0.591469
6.259722 -48.033699 -0.006376
7.899729 -47.817732 -1.228855
7.007187 -47.86489 -0.591469
7.099093 -46.814697 -0.649284
8.703313 -47.774983 -1.822128
8.611407 -48.825175 -1.764313
7.899729 -47.817732 -1.228855
5.413264 -43.409756 0.392599
5.38024 -44.615072 0.521946
5.538914 -42.327248 0.210665
5.60879 -41.182852 -0.039281
6.455983 -43.514477 -0.356977
5.413264 -43.409756 0.392599
5.538914 -42.327248 0.210665
8.129597 -39.646144 -2.370661
8.02629 -40.629779 -1.926988
6.960136 -39.38961 -1.593709
9.350122 -39.983139 -3.189935
8.129597 -39.646144 -2.370661
8.283969 -38.74297 -2.856656
10.831668 -38.513103 -5.077571
10.76251 -39.402037 -4.455637
9.573652 -38.19103 -4.297864
10.944483 -37.66646 -5.722544
12.133342 -38.877466 -5.880317
10.831668 -38.513103 -5.077571
10.909773 -36.771908 -6.470159
10.944483 -37.66646 -5.722544
12.243044 -37.162531 -7.290307
10.909773 -36.771908 -6.470159
10.827991 -49.806339 -3.475065
9.994538 -49.766201 -2.852301
10.248444 -48.822563 -2.980351
11.298397 -50.824658 -3.973288
10.827991 -49.806339 -3.475065
11.552302 -49.88102 -4.101338
11.763822 -51.861489 -4.408938
11.298397 -50.824658 -3.973288
12.372321 -51.97798 -5.05347
11.763822 -51.861489 -4.408938
13.046479 -52.051029 -5.71845
12.372321 -51.97798 -5.05347
12.696867 -50.972387 -5.264542
13.562385 -52.135407 -6.39107
13.237839 -53.140999 -6.179998
13.046479 -52.051029 -5.71845
13.900797 -48.166351 -5.77159
14.417475 -47.27819 -5.96146
14.749102 -48.24942 -6.47994
13.474111 -49.070246 -5.602604
13.142485 -48.099016 -5.084124
13.900797 -48.166351 -5.77159
13.801724 -50.091509 -6.109796
13.043412 -50.024174 -5.42233
13.474111 -49.070246 -5.602604
13.959118 -51.098145 -6.62381
13.801724 -50.091509 -6.109796
14.150479 -52.188114 -7.085358
13.562385 -52.135407 -6.39107
13.959118 -51.098145 -6.62381
14.558722 -52.239553 -7.775441
14.161989 -53.276815 -7.542701
14.150479 -52.188114 -7.085358
15.050116 -52.264544 -8.493296
14.558722 -52.239553 -7.775441
15.038605 -51.175842 -8.035953
16.021788 -52.282388 -10.635932
15.449233 -53.372652 -10.339827
15.769372 -52.28278 -9.930421
16.370387 -52.250481 -11.384241
16.021788 -52.282388 -10.635932
16.690525 -51.160608 -10.974835
22.398418 -43.442953 -12.227132
23.118015 -42.643313 -12.668102
23.171799 -43.343342 -13.090532
21.685676 -43.518301 -11.373482
22.398418 -43.442953 -12.227132
21.739459 -44.21833 -11.795911
18.932336 -48.251213 -11.825654
19.773401 -47.320526 -12.137985
19.431801 -48.159607 -12.657519
18.159343 -49.151493 -11.553928
18.500943 -48.312412 -11.034394
18.932336 -48.251213 -11.825654
17.383538 -50.170696 -11.242905
18.159343 -49.151493 -11.553928
22.881883 -45.531073 -16.809236
22.467144 -45.80636 -15.903892
23.35847 -44.821445 -16.341807
22.881883 -45.531073 -16.809236
23.287847 -45.260364 -17.656204
22.049077 -24.560316 -22.876591
23.457551 -24.30355 -23.244191
22.437259 -25.976008 -22.253222
22.049077 -24.560316 -22.876591
24.120097 -27.090203 -22.055084
25.315554 -26.763244 -22.633364
25.620157 -28.118252 -21.990426
22.437259 -25.976008 -22.253222
24.120097 -27.090203 -22.055084
23.316628 -29.932398 -20.173065
24.65276 -29.717934 -20.696796
23.596137 -31.171948 -19.382681
23.316628 -29.932398 -20.173065
25.008402 -32.176747 -19.224594
23.723718 -32.358037 -18.625828
23.596137 -31.171948 -19.382681
28.603426 -35.469455 -19.497104
27.765017 -35.824903 -18.659715
28.017102 -34.741781 -19.317436
28.603426 -35.469455 -19.497104
29.198861 -35.025373 -20.441156
3 0 28 26
3 1 93 94
3 1 95 97
3 95 29 96
3 95 96 97
3 98 30 99
3 100 32 101
3 102 101 30
3 100 101 102
3 3 36 34
3 4 39 37
3 4 41 39
3 2 44 42
3 5 103 105
3 103 45 104
3 103 104 105
3 5 47 45
3 5 106 108
3 108 107 47
3 106 107 108
3 110 109 48
3 6 53 51
3 8 54 27
3 8 55 54
3 9 58 56
3 111 59 112
3 111 112 113
3 115 114 59
3 116 61 117
3 120 119 61
3 118 119 120
3 121 62 122
3 123 63 124
3 126 125 63
3 12 127 128
3 12 129 130
3 14 131 133
3 131 65 132
3 131 132 133
3 14 66 65
3 15 134 136
3 134 67 135
3 134 135 136
3 15 68 67
3 15 69 68
3 16 70 31
3 16 137 139
3 139 138 70
3 137 138 139
3 18 71 33
3 18 72 71
3 19 140 142
3 140 73 141
3 140 141 142
3 19 74 73
3 19 75 74
3 143 76 144
3 146 145 76
3 17 147 148
3 20 77 35
3 20 78 77
3 7 79 52
3 21 149 151
3 151 150 38
3 149 150 151
3 21 152 153
3 21 154 156
3 154 80 155
3 154 155 156
3 22 81 40
3 22 157 159
3 159 158 81
3 157 158 159
3 13 82 64
3 23 83 43
3 23 84 83
3 10 85 57
3 24 160 162
3 160 86 161
3 160 161 162
3 24 87 86
3 24 88 87
3 164 163 46
3 166 165 60
3 11 167 169
3 167 89 168
3 167 168 169
3 25 170 172
3 172 171 49
3 170 171 172
3 25 173 175
3 173 90 174
3 173 174 175
3 25 91 90
3 176 92 177
3 178 177 50
3 176 177 178
3 180 179 92
3 26 27 6
3 28 27 26
3 28 8 27
3 182 181 9
3 29 183 184
3 29 185 187
3 185 12 186
3 185 186 187
3 188 14 189
3 30 190 191
3 30 192 194
3 192 15 193
3 192 193 194
3 30 31 15
3 32 31 30
3 32 16 31
3 195 33 196
3 197 33 198
3 199 18 200
3 201 200 33
3 199 200 201
3 202 19 203
3 205 204 19
3 34 35 17
3 36 35 34
3 36 20 35
3 37 38 7
3 39 38 37
3 39 21 38
3 39 40 21
3 41 40 39
3 41 22 40
3 42 43 13
3 44 43 42
3 44 23 43
3 207 206 10
3 45 208 209
3 45 210 212
3 210 24 211
3 210 211 212
3 45 46 24
3 47 46 45
3 47 213 215
3 215 214 46
3 213 214 215
3 47 216 217
3 219 218 47
3 48 49 11
3 220 49 221
3 222 221 48
3 220 221 222
3 223 25 224
3 225 224 49
3 223 224 225
3 226 50 227
3 228 227 25
3 226 227 228
3 229 50 230
3 232 231 50
3 233 1 234
3 51 52 3
3 53 52 51
3 53 7 52
3 27 53 6
3 54 53 27
3 54 7 53
3 54 37 7
3 55 37 54
3 55 4 37
3 56 57 2
3 58 57 56
3 58 10 57
3 235 58 236
3 237 236 9
3 235 236 237
3 238 58 239
3 240 10 241
3 242 241 58
3 240 241 242
3 245 244 10
3 243 244 245
3 59 246 248
3 246 247 248
3 59 249 251
3 249 5 250
3 249 250 251
3 59 60 5
3 252 60 253
3 254 253 59
3 252 253 254
3 257 256 60
3 255 256 257
3 61 258 259
3 61 260 262
3 260 261 262
3 61 263 264
3 266 265 61
3 62 267 268
3 62 269 271
3 269 11 270
3 269 270 271
3 272 62 273
3 63 274 276
3 274 62 275
3 274 275 276
3 63 11 62
3 63 48 11
3 277 48 278
3 279 278 63
3 277 278 279
3 281 280 48
3 282 64 283
3 284 283 0
3 282 283 284
3 285 64 286
3 287 13 288
3 289 288 64
3 287 288 289
3 65 290 291
3 65 292 294
3 292 13 293
3 292 293 294
3 65 42 13
3 66 42 65
3 66 2 42
3 295 14 296
3 67 297 298
3 67 299 301
3 299 14 300
3 299 300 301
3 67 66 14
3 68 66 67
3 68 2 66
3 68 56 2
3 69 56 68
3 69 9 56
3 31 69 15
3 70 69 31
3 70 9 69
3 70 302 304
3 304 303 9
3 302 303 304
3 306 305 70
3 307 17 308
3 33 309 310
3 71 311 313
3 313 312 33
3 311 312 313
3 71 314 316
3 314 17 315
3 314 315 316
3 71 34 17
3 72 34 71
3 72 3 34
3 317 18 318
3 73 319 320
3 73 321 323
3 321 18 322
3 321 322 323
3 73 72 18
3 74 72 73
3 74 3 72
3 74 51 3
3 75 51 74
3 75 6 51
3 324 75 325
3 326 325 19
3 324 325 326
3 76 327 329
3 327 75 328
3 327 328 329
3 76 6 75
3 76 26 6
3 330 26 331
3 332 331 76
3 330 331 332
3 333 0 334
3 335 334 26
3 333 334 335
3 336 0 337
3 339 338 0
3 35 340 342
3 342 341 17
3 340 341 342
3 77 343 345
3 345 344 35
3 343 344 345
3 77 346 347
3 77 348 349
3 78 350 352
3 352 351 77
3 350 351 352
3 78 353 355
3 353 1 354
3 353 354 355
3 52 36 3
3 79 36 52
3 79 20 36
3 38 79 7
3 356 79 357
3 358 357 38
3 356 357 358
3 359 20 360
3 361 360 79
3 359 360 361
3 362 78 363
3 364 363 20
3 362 363 364
3 365 78 366
3 367 1 368
3 369 368 78
3 367 368 369
3 370 29 371
3 372 371 1
3 370 371 372
3 80 373 375
3 373 29 374
3 373 374 375
3 80 12 29
3 40 80 21
3 81 80 40
3 81 12 80
3 81 376 378
3 378 377 12
3 376 377 378
3 381 380 81
3 379 380 381
3 64 28 0
3 82 28 64
3 82 8 28
3 43 82 13
3 83 82 43
3 83 8 82
3 83 55 8
3 84 55 83
3 84 4 55
3 57 44 2
3 85 44 57
3 85 23 44
3 382 85 383
3 384 383 10
3 382 383 384
3 86 385 387
3 385 85 386
3 385 386 387
3 86 23 85
3 86 84 23
3 87 84 86
3 87 4 84
3 87 41 4
3 88 41 87
3 88 22 41
3 46 88 24
3 388 88 389
3 390 389 46
3 388 389 390
3 391 22 392
3 393 392 88
3 391 392 393
3 395 394 22
3 60 396 398
3 398 397 5
3 396 397 398
3 400 399 60
3 89 401 402
3 89 403 404
3 49 89 11
3 405 89 406
3 407 406 49
3 405 406 407
3 409 408 89
3 90 410 411
3 90 412 413
3 90 414 416
3 414 32 415
3 414 415 416
3 91 32 90
3 91 16 32
3 50 91 25
3 92 91 50
3 92 16 91
3 92 417 419
3 419 418 16
3 417 418 419
3 421 420 92
