ply
format ascii 1.0
element vertex 265
property float x
property float y
property float z
element face 238
property list uchar int vertex_index
end_header
-34.363857 -10.456978 71.63517
-11.335747 0.28924 81.109413
-17.073544 -5.428226 75.861572
-26.491913 -0.380018 65.540085
-20.816875 -7.504124 73.873734
-18.141125 -10.9973 78.550812
-14.421834 -9.069293 80.471352
-37.231033 -7.473784 67.790649
-32.943314 -6.410666 68.131912
-28.089785 -5.421755 68.385162
-29.977304 -9.706079 72.150665
-23.465971 -3.984233 69.236633
-19.555632 -1.814131 71.043045
-16.461922 1.07551 73.743713
-14.011209 -2.723215 78.476654
-28.856773 -1.216591 65.176682
-20.924818 -14.024978 79.163063
-20.220444 -11.722923 77.786049
-37.51445 -9.563907 69.251884
-35.779686 -8.943861 69.696671
-35.213837 -6.896708 68.023041
-33.719326 -8.462038 69.943848
-31.435308 -8.050941 70.091148
-12.670467 2.38784 79.073128
-26.633347 -7.15003 70.477249
-25.710205 -4.783972 68.704681
-24.305161 -6.534941 70.87854
-18.852314 -6.556345 74.766434
-20.114677 -4.782098 72.342789
-18.311321 -3.622501 73.426964
-17.915266 -0.448088 72.302773
-16.70261 -2.288969 74.713364
-15.260074 -0.812164 76.142372
-15.470058 -4.138949 77.120422
-24.291046 0.626822 66.107346
-21.610336 -9.994827 75.53315
-19.506771 -9.24823 76.261627
-17.564365 -8.327788 77.168777
-15.789714 -7.23925 78.238266
-16.206938 -10.109699 79.45311
-34.531654 -4.784754 66.347801
-32.11705 -4.248043 66.413391
-29.645693 -3.679141 66.529984
-30.532158 -5.943197 68.220642
-29.038774 -7.636618 70.238861
-27.217211 -3.011787 66.778946
-24.91086 -2.19441 67.222336
-22.782707 -1.194508 67.900604
-22.118534 -5.752351 71.49231
-21.406116 -2.99649 70.013924
-20.865023 0.000662 68.830818
-19.166206 1.385843 70.004921
-15.150681 2.717678 75.290146
-13.936005 0.764378 77.629501
-12.650866 -1.228537 79.840782
-14.170252 -6.005366 79.426041
-12.676769 -4.66463 80.661224
-30.090388 -1.569179 65.074711
-29.746437 -0.307626 64.551491
-19.83735 -13.746759 79.513817
-20.12628 -14.90603 80.048229
-35.071771 -9.700419 70.66592
-35.971655 -9.958907 70.433266
-35.26374 -10.715465 71.402515
-33.315392 -10.257618 71.783264
-32.993126 -9.260148 70.937603
-34.041592 -9.459508 70.789509
-11.368986 2.145218 80.738045
-12.036346 3.194518 79.719902
-12.003107 1.33854 80.091271
-24.770556 -7.700956 71.794739
-25.469254 -6.842486 70.677895
-25.934649 -8.0085 71.594093
-26.225013 1.045018 65.120087
-27.358921 0.540156 64.888016
-25.39148 0.123402 65.823716
-25.12458 1.548439 65.403717
-26.225013 1.045018 65.120087
-22.01735 -11.144352 76.344234
-22.729565 -10.286698 75.253483
-38.06397 -7.837759 67.564354
-38.205679 -8.882821 68.294971
-37.372741 -8.518846 68.521266
-37.986384 -6.760204 66.886231
-38.06397 -7.837759 67.564354
-37.004053 -6.417801 67.014072
-37.986384 -6.760204 66.886231
-28.789606 -9.517883 72.267296
-28.320341 -8.483153 71.311394
-29.508039 -8.671349 71.194763
-21.467704 -6.628238 72.683022
-22.537206 -7.010813 72.343148
-21.886377 -7.8867 73.53386
-17.066393 2.007961 72.565895
-17.793065 1.246163 71.845425
-17.188594 0.313711 73.023243
-16.401307 2.853156 73.331116
-17.066393 2.007961 72.565895
-15.806302 1.896594 74.51693
-15.745686 3.67424 74.104332
-16.401307 2.853156 73.331116
-11.958133 -5.657899 81.647995
-12.725435 -6.283538 81.10897
-11.972887 -3.96629 81.256485
-11.958133 -5.657899 81.647995
-28.541351 0.121869 64.706314
-29.746437 -0.307626 64.551491
-27.674343 -0.798304 65.358384
-27.358921 0.540156 64.888016
-28.541351 0.121869 64.706314
-20.572631 -12.87395 78.474556
-21.322404 -12.0084 77.470684
-21.674591 -13.159427 78.159191
-19.485163 -12.595732 78.82531
-20.572631 -12.87395 78.474556
-19.83735 -13.746759 79.513817
-18.445504 -12.23292 79.207691
-19.180785 -11.360111 78.16843
-19.485163 -12.595732 78.82531
-17.414091 -11.882838 79.605724
-18.445504 -12.23292 79.207691
-36.839037 -10.26893 70.210872
-37.549984 -10.616689 69.853591
-36.874571 -11.321712 70.81258
-36.647068 -9.253884 69.474277
-36.839037 -10.26893 70.210872
-35.971655 -9.958907 70.433266
-31.851117 -9.0546 71.011253
-32.577317 -8.25649 70.017498
-32.993126 -9.260148 70.937603
-31.122115 -9.882169 72.041011
-30.706306 -8.87851 71.120907
-31.851117 -9.0546 71.011253
-12.685659 4.271968 78.688976
-13.295212 3.40866 77.959507
-12.685659 4.271968 78.688976
-12.036346 3.194518 79.719902
-12.862637 -9.420493 82.02821
-13.597967 -8.485869 81.014035
-13.686504 -10.003916 81.485527
-34.588047 -11.44381 72.321583
-35.26374 -10.715465 71.402515
-33.655567 -11.235942 72.577694
-34.588047 -11.44381 72.321583
-10.676203 1.030641 81.643959
-10.620057 -0.791934 82.002174
-24.0837 2.142255 65.72889
-25.12458 1.548439 65.403717
-23.291973 1.225285 66.506123
-24.0837 2.142255 65.72889
-22.283107 -9.132051 74.363568
-22.729565 -10.286698 75.253483
-21.213605 -8.749476 74.703442
-21.886377 -7.8867 73.53386
-22.283107 -9.132051 74.363568
-20.91539 -10.858875 76.6596
-22.01735 -11.144352 76.344234
-21.322404 -12.0084 77.470684
-16.446998 -11.439037 80.056873
-17.174031 -10.5535 79.001961
-17.414091 -11.882838 79.605724
-15.47994 -11.015237 80.50066
-16.446998 -11.439037 80.056873
-14.587388 -10.495033 81.009781
-15.314386 -9.589496 79.962231
-15.47994 -11.015237 80.50066
-13.852058 -11.429657 82.023956
-13.686504 -10.003916 81.485527
-14.587388 -10.495033 81.009781
-38.183195 -9.966783 68.891621
-38.218729 -11.019566 69.493328
-37.549984 -10.616689 69.853591
-38.874424 -9.285697 67.934708
-38.183195 -9.966783 68.891621
-38.205679 -8.882821 68.294971
-35.995455 -6.129263 67.130268
-37.004053 -6.417801 67.014072
-36.222435 -7.185246 67.906845
-35.654364 -5.073286 66.292648
-35.995455 -6.129263 67.130268
-34.872746 -5.840731 67.185421
-35.371485 -3.979137 65.564343
-35.654364 -5.073286 66.292648
-34.170675 -3.668179 65.60725
-35.371485 -3.979137 65.564343
-32.963373 -3.399824 65.640045
-34.170675 -3.668179 65.60725
-33.324352 -4.516399 66.380596
-31.720526 -3.084906 65.693066
-32.963373 -3.399824 65.640045
-30.881372 -3.963592 66.471688
-30.484848 -2.800454 65.751362
-31.720526 -3.084906 65.693066
-27.117628 -8.239859 71.430588
-27.836061 -7.393324 70.358055
-28.320341 -8.483153 71.311394
-25.934649 -8.0085 71.594093
-27.117628 -8.239859 71.430588
-33.315392 -10.257618 71.783264
-33.655567 -11.235942 72.577694
-30.397307 -10.696507 73.023377
-31.122115 -9.882169 72.041011
-29.252244 -10.542044 73.18251
-30.397307 -10.696507 73.023377
-28.789606 -9.517883 72.267296
-29.252244 -10.542044 73.18251
-22.053443 -14.240031 78.851024
-21.674591 -13.159427 78.159191
-21.238377 -15.115814 79.681965
-22.053443 -14.240031 78.851024
-22.367002 -15.330867 79.369926
-20.12628 -14.90603 80.048229
-21.238377 -15.115814 79.681965
-11.368986 2.145218 80.738045
-10.676203 1.030641 81.643959
-29.251233 -2.447866 65.853333
-30.090388 -1.569179 65.074711
-30.484848 -2.800454 65.751362
-22.537803 0.31462 67.402752
-23.291973 1.225285 66.506123
-23.536876 -0.283843 67.003975
-23.63052 -7.402108 72.036262
-24.770556 -7.700956 71.794739
-23.211847 -6.143646 71.185425
-23.63052 -7.402108 72.036262
-22.537206 -7.010813 72.343148
-21.578961 0.912205 67.867859
-22.537803 0.31462 67.402752
-21.823865 -0.596923 68.365711
-20.689292 1.60665 68.385052
-21.578961 0.912205 67.867859
-19.839883 2.299241 68.972103
-20.689292 1.60665 68.385052
-20.015614 0.693252 69.417869
-19.056379 3.082841 69.599506
-19.839883 2.299241 68.972103
-18.418535 2.163128 70.696499
-18.540736 0.468877 71.153847
-17.793065 1.246163 71.845425
-19.056379 3.082841 69.599506
-18.418535 2.163128 70.696499
-15.134124 4.565272 74.900436
-15.745686 3.67424 74.104332
-14.535319 3.573579 76.068016
-15.134124 4.565272 74.900436
-13.927981 2.596929 77.237694
-14.535319 3.573579 76.068016
-14.543343 1.741028 76.459823
-13.303236 1.576109 78.351315
-13.295212 3.40866 77.959507
-13.927981 2.596929 77.237694
-13.472176 -6.953906 80.491379
-14.296043 -7.53733 79.948696
-13.597967 -8.485869 81.014035
-13.42351 -5.334998 80.043633
-13.472176 -6.953906 80.491379
-12.725435 -6.283538 81.10897
-11.959936 -2.248243 80.846264
-12.663818 -2.946584 80.251003
-11.972887 -3.96629 81.256485
-11.302376 -1.489355 81.48058
-11.993306 -0.469649 80.475098
-11.959936 -2.248243 80.846264
-10.620057 -0.791934 82.002174
-11.302376 -1.489355 81.48058
3 57 15 58
3 60 59 16
3 0 61 63
3 61 19 62
3 61 62 63
3 0 21 19
3 0 64 66
3 66 65 21
3 64 65 66
3 1 67 69
3 69 68 23
3 67 68 69
3 70 26 71
3 72 71 24
3 70 71 72
3 2 29 27
3 2 31 29
3 2 33 31
3 3 73 74
3 3 75 77
3 75 34 76
3 75 76 77
3 78 35 79
3 5 36 17
3 5 37 36
3 5 39 37
3 7 80 82
3 82 81 18
3 80 81 82
3 7 83 84
3 7 85 86
3 8 40 20
3 8 41 40
3 8 43 41
3 10 44 22
3 10 87 89
3 89 88 44
3 87 88 89
3 9 45 42
3 11 46 25
3 11 47 46
3 4 90 92
3 90 48 91
3 90 91 92
3 12 49 28
3 12 50 49
3 12 51 50
3 13 93 95
3 95 94 30
3 93 94 95
3 13 96 97
3 13 98 100
3 98 52 99
3 98 99 100
3 14 53 32
3 14 54 53
3 6 55 38
3 101 56 102
3 104 103 56
3 15 105 106
3 15 107 109
3 107 3 108
3 107 108 109
3 16 110 112
3 110 17 111
3 110 111 112
3 113 17 114
3 115 114 16
3 113 114 115
3 116 5 117
3 118 117 17
3 116 117 118
3 120 119 5
3 121 18 122
3 121 122 123
3 19 124 126
3 124 18 125
3 124 125 126
3 19 7 18
3 19 20 7
3 21 20 19
3 21 8 20
3 21 22 8
3 127 22 128
3 129 128 21
3 127 128 129
3 130 10 131
3 132 131 22
3 130 131 132
3 23 133 134
3 136 135 23
3 24 25 9
3 26 25 24
3 26 11 25
3 27 28 4
3 29 28 27
3 29 12 28
3 29 30 12
3 31 30 29
3 31 13 30
3 31 32 13
3 33 32 31
3 33 14 32
3 139 138 6
3 137 138 139
3 140 0 141
3 143 142 0
3 145 144 1
3 34 146 147
3 34 148 149
3 35 150 151
3 35 152 154
3 152 4 153
3 152 153 154
3 17 155 157
3 155 35 156
3 155 156 157
3 36 35 17
3 36 4 35
3 36 27 4
3 37 27 36
3 37 2 27
3 37 38 2
3 39 38 37
3 39 6 38
3 158 39 159
3 160 159 5
3 158 159 160
3 161 39 162
3 163 6 164
3 165 164 39
3 163 164 165
3 168 167 6
3 166 167 168
3 18 169 171
3 169 170 171
3 174 173 18
3 172 173 174
3 20 175 177
3 177 176 7
3 175 176 177
3 40 178 180
3 180 179 20
3 178 179 180
3 40 181 182
3 40 183 184
3 41 185 187
3 187 186 40
3 185 186 187
3 41 188 189
3 41 190 192
3 190 42 191
3 190 191 192
3 43 42 41
3 43 9 42
3 22 43 8
3 44 43 22
3 44 9 43
3 44 24 9
3 193 24 194
3 195 194 44
3 193 194 195
3 197 196 24
3 199 198 0
3 200 10 201
3 202 10 203
3 205 204 10
3 206 16 207
3 208 16 209
3 208 209 210
3 212 211 16
3 214 213 1
3 42 215 217
3 215 15 216
3 215 216 217
3 45 15 42
3 45 3 15
3 25 45 9
3 46 45 25
3 46 3 45
3 46 34 3
3 47 34 46
3 47 218 220
3 220 219 34
3 218 219 220
3 221 26 222
3 48 223 225
3 223 26 224
3 223 224 225
3 48 11 26
3 28 48 4
3 49 48 28
3 49 11 48
3 49 47 11
3 50 47 49
3 50 226 228
3 228 227 47
3 226 227 228
3 50 229 230
3 51 231 233
3 233 232 50
3 231 232 233
3 51 234 235
3 30 51 12
3 236 51 237
3 238 237 30
3 236 237 238
3 240 239 51
3 52 241 242
3 52 243 244
3 32 52 13
3 53 52 32
3 53 245 247
3 247 246 52
3 245 246 247
3 53 248 250
3 248 23 249
3 248 249 250
3 54 23 53
3 54 1 23
3 38 33 2
3 55 33 38
3 55 14 33
3 251 55 252
3 253 252 6
3 251 252 253
3 56 254 256
3 254 55 255
3 254 255 256
3 56 14 55
3 56 54 14
3 257 54 258
3 259 258 56
3 257 258 259
3 260 1 261
3 262 261 54
3 260 261 262
3 264 263 1
