ply
format ascii 1.0
element vertex 245
property float x
property float y
property float z
element face 231
property list uchar int vertex_index
end_header
3.62484 -98.800415 1.014847
2.215578 -110.527573 -0.653854
0.504147 -110.498337 9.934438
3.166445 -99.522499 9.137257
2.450436 -104.762596 0.245845
2.265038 -109.154083 -5.053541
2.148937 -102.971313 -3.50868
1.209015 -105.015068 9.603779
5.703695 -92.829529 1.206652
3.048992 -96.448593 -2.237713
4.998421 -89.834267 -1.836802
1.181688 -115.557693 10.157408
2.1555 -105.243256 4.646094
3.805567 -99.642326 4.796871
6.043673 -94.297218 8.432982
6.277014 -94.188919 4.572034
2.920362 -101.792244 0.675177
2.322983 -104.055443 -1.719412
2.696606 -100.960114 -1.137346
5.297098 -91.536224 -0.337931
0.168879 -110.27285 12.876438
0.445107 -112.81414 13.076459
0.666769 -113.110565 10.061674
0.999264 -110.693771 7.105012
2.046038 -102.248528 9.393064
1.721817 -105.172585 7.055979
2.517368 -102.394333 7.001493
2.86224 -102.43277 4.751196
3.568848 -99.651375 6.896229
6.265377 -94.351784 6.434971
7.790993 -91.799446 6.04579
7.714254 -91.526779 4.255749
2.9849 -94.680077 -3.713945
2.402369 -98.115334 -4.320337
2.215895 -107.683807 -0.213852
2.19133 -107.080986 -2.344959
2.085176 -106.123116 -4.286915
2.051821 -104.783485 -6.02103
0.273554 -107.598816 12.612359
0.688482 -107.781342 9.781874
0.748123 -104.853409 12.295929
1.571676 -102.092834 11.934004
2.708195 -99.365578 11.528292
4.558155 -95.809082 1.206823
3.318495 -97.826485 -0.671345
4.189539 -94.680305 -0.38895
3.897465 -93.142715 -1.90234
1.106327 -115.158875 13.19822
1.210091 -107.952667 7.084181
1.705326 -108.045578 4.516973
2.060305 -107.982246 2.080703
2.410133 -105.135513 2.373048
2.999653 -102.261917 2.640475
3.818533 -99.387688 2.83629
4.102879 -96.709244 11.07645
4.520969 -96.866875 8.82156
4.835949 -96.967171 6.714516
4.956825 -96.891808 4.747017
4.850515 -96.532417 2.913518
6.06971 -93.704552 2.834467
2.466993 -99.734489 -2.797476
2.094252 -101.496254 -5.119896
2.420204 -111.665562 -2.07199
2.331037 -111.89766 -0.84657
0.801333 -111.923576 8.531856
0.882644 -113.229691 8.595474
0.585458 -111.804451 9.998056
0.751706 -110.596054 8.519725
1.048891 -112.021293 7.117142
0.801333 -111.923576 8.531856
8.525104 -90.59666 6.731495
7.722373 -91.805881 7.005071
8.562718 -90.544117 5.797089
8.525104 -90.59666 6.731495
2.825184 -95.402618 -4.724833
3.130294 -93.61686 -4.426242
0.36949 -106.174331 13.873362
0.178644 -107.526409 14.091114
0.606775 -104.801628 13.715147
0.510838 -106.226112 12.454144
0.36949 -106.174331 13.873362
1.946179 -100.683101 13.006379
1.397596 -102.048789 13.282704
2.514438 -99.319474 12.803522
2.139935 -100.729206 11.731148
1.946179 -100.683101 13.006379
2.471776 -110.594296 -5.401387
2.27973 -109.579914 -4.001935
4.419881 -90.527878 -2.604594
3.869403 -92.182102 -2.637363
4.447943 -91.488491 -1.869571
1.616314 -116.667171 10.184503
1.578634 -116.467762 11.704909
1.144008 -115.358284 11.677814
1.713336 -116.87009 8.673831
1.616314 -116.667171 10.184503
4.691411 -95.364456 11.973224
3.901209 -96.655102 12.282747
5.862204 -94.222271 9.503944
6.696241 -92.991726 9.227328
5.282321 -95.582046 8.627271
5.100852 -95.507099 9.698233
5.862204 -94.222271 9.503944
7.574682 -91.212818 3.417667
8.457694 -90.205597 4.027886
2.21161 -100.568367 -5.84415
2.248311 -99.805794 -4.720116
2.365668 -98.877907 -5.444371
2.178286 -102.277664 -6.332491
2.21161 -100.568367 -5.84415
2.49353 -110.036846 -6.414379
2.264716 -108.545174 -5.992427
6.16157 -90.697975 0.328026
5.500396 -92.182876 0.434361
6.364868 -91.344628 1.100318
5.951397 -89.96592 -0.436494
6.16157 -90.697975 0.328026
5.802058 -89.114941 -1.18593
5.147759 -90.685246 -1.087366
5.951397 -89.96592 -0.436494
0.306993 -111.543495 12.976449
0.272726 -111.435142 14.496215
0.134611 -110.164498 14.396205
1.089726 -114.487606 8.610451
1.347185 -115.71117 8.658318
0.924229 -114.334129 10.109541
1.089726 -114.487606 8.610451
0.882644 -113.229691 8.595474
1.308727 -112.090492 5.699109
1.048891 -112.021293 7.117142
1.261695 -110.749992 5.748933
1.308727 -112.090492 5.699109
6.848713 -93.054767 8.198666
6.696241 -92.991726 9.227328
6.959565 -93.08205 7.199661
6.154525 -94.324501 7.433976
6.848713 -93.054767 8.198666
7.028185 -93.075615 6.240381
6.959565 -93.08205 7.199661
7.722373 -91.805881 7.005071
8.524349 -90.407783 4.902069
7.752624 -91.663113 5.15077
8.562718 -90.544117 5.797089
8.457694 -90.205597 4.027886
8.524349 -90.407783 4.902069
2.533919 -97.120247 -5.02803
2.693634 -96.397706 -4.017141
2.825184 -95.402618 -4.724833
2.365668 -98.877907 -5.444371
2.533919 -97.120247 -5.02803
2.255159 -108.844776 -1.582091
2.255 -110.266659 -1.802091
2.215737 -109.10569 -0.433853
2.242876 -108.543365 -2.647644
2.255159 -108.844776 -1.582091
2.203613 -107.382396 -1.279405
2.228184 -108.117535 -3.69925
2.27973 -109.579914 -4.001935
2.242876 -108.543365 -2.647644
2.174785 -107.02969 -5.609115
2.264716 -108.545174 -5.992427
2.175107 -107.638599 -4.670228
2.158107 -106.359874 -6.476172
2.174785 -107.02969 -5.609115
2.068499 -105.4533 -5.153973
2.255181 -105.560115 -7.292628
2.361467 -107.136505 -7.74777
2.158107 -106.359874 -6.476172
0.126306 -108.863426 14.223154
0.134611 -110.164498 14.396205
0.221217 -108.935833 12.744398
0.126306 -108.863426 14.223154
0.178644 -107.526409 14.091114
0.98582 -103.429077 13.463666
0.606775 -104.801628 13.715147
1.1599 -103.473121 12.114966
0.98582 -103.429077 13.463666
1.397596 -102.048789 13.282704
2.420204 -111.665562 -2.07199
2.255 -110.266659 -1.802091
2.471776 -110.594296 -5.401387
2.49353 -110.036846 -6.414379
3.41312 -92.950783 -3.543165
3.441183 -93.911396 -2.808142
3.869403 -92.182102 -2.637363
3.130294 -93.61686 -4.426242
3.41312 -92.950783 -3.543165
5.65517 -88.180855 -1.942805
5.802058 -89.114941 -1.18593
4.975433 -88.79636 -2.584468
5.65517 -88.180855 -1.942805
4.419881 -90.527878 -2.604594
4.975433 -88.79636 -2.584468
0.485368 -112.653221 14.612964
0.272726 -111.435142 14.496215
0.815978 -113.825588 14.673844
0.485368 -112.653221 14.612964
0.775717 -113.986507 13.137339
1.233303 -114.928577 14.724043
0.815978 -113.825588 14.673844
1.628381 -116.201222 13.213194
1.233303 -114.928577 14.724043
1.628381 -116.201222 13.213194
1.578634 -116.467762 11.704909
1.713336 -116.87009 8.673831
1.347185 -115.71117 8.658318
2.085849 -110.650326 0.574207
2.331037 -111.89766 -0.84657
1.367109 -109.37944 5.738518
1.261695 -110.749992 5.748933
1.104677 -109.323219 7.094596
1.614726 -109.425895 4.454914
1.367109 -109.37944 5.738518
1.457708 -107.999122 5.800577
1.830723 -109.409329 3.15962
1.614726 -109.425895 4.454914
2.008212 -109.377662 1.941485
1.830723 -109.409329 3.15962
1.882815 -108.013912 3.298838
2.137942 -109.254909 0.713425
2.085849 -110.650326 0.574207
2.008212 -109.377662 1.941485
3.203867 -97.983269 12.508668
2.514438 -99.319474 12.803522
3.405537 -98.037411 11.302371
3.203867 -97.983269 12.508668
3.901209 -96.655102 12.282747
4.891807 -95.428284 10.825678
4.691411 -95.364456 11.973224
4.311924 -96.78806 9.949005
4.891807 -95.428284 10.825678
5.100852 -95.507099 9.698233
6.75241 -92.301704 2.707026
6.891982 -92.615666 3.545108
7.574682 -91.212818 3.417667
6.569402 -91.864193 1.893118
5.886703 -93.267041 2.02056
6.75241 -92.301704 2.707026
6.364868 -91.344628 1.100318
6.569402 -91.864193 1.893118
2.15707 -103.921279 -6.783058
2.073036 -103.13987 -5.570463
2.178286 -102.277664 -6.332491
2.255181 -105.560115 -7.292628
2.15707 -103.921279 -6.783058
3 0 18 16
3 1 62 63
3 2 22 20
3 2 64 66
3 66 65 22
3 64 65 66
3 2 67 69
3 67 23 68
3 67 68 69
3 3 26 24
3 3 28 26
3 70 30 71
3 73 72 30
3 75 74 32
3 4 35 34
3 6 36 17
3 6 37 36
3 76 38 77
3 78 40 79
3 80 79 38
3 78 79 80
3 81 41 82
3 83 42 84
3 85 84 41
3 83 84 85
3 5 86 87
3 8 45 43
3 10 46 19
3 10 88 90
3 90 89 46
3 88 89 90
3 11 47 21
3 11 91 93
3 93 92 47
3 91 92 93
3 11 94 95
3 7 48 39
3 12 49 25
3 12 50 49
3 12 51 50
3 13 52 27
3 13 53 52
3 96 54 97
3 14 98 99
3 14 100 102
3 100 55 101
3 100 101 102
3 14 56 55
3 15 57 29
3 15 58 57
3 15 59 58
3 104 103 31
3 9 60 44
3 105 61 106
3 107 106 33
3 105 106 107
3 109 108 61
3 16 17 4
3 18 17 16
3 18 6 17
3 111 110 5
3 112 19 113
3 114 113 8
3 112 113 114
3 115 19 116
3 117 10 118
3 119 118 19
3 117 118 119
3 20 120 122
3 120 21 121
3 120 121 122
3 22 21 20
3 22 11 21
3 22 123 125
3 125 124 11
3 123 124 125
3 127 126 22
3 23 128 129
3 23 130 131
3 24 25 7
3 26 25 24
3 26 12 25
3 26 27 12
3 28 27 26
3 28 13 27
3 132 14 133
3 134 29 135
3 136 135 14
3 134 135 136
3 30 137 139
3 137 29 138
3 137 138 139
3 30 15 29
3 30 31 15
3 140 31 141
3 142 141 30
3 140 141 142
3 144 143 31
3 32 33 9
3 145 33 146
3 147 146 32
3 145 146 147
3 149 148 33
3 34 150 152
3 152 151 1
3 150 151 152
3 35 153 155
3 155 154 34
3 153 154 155
3 35 156 158
3 156 5 157
3 156 157 158
3 17 35 4
3 36 35 17
3 36 5 35
3 36 159 161
3 161 160 5
3 159 160 161
3 37 162 164
3 164 163 36
3 162 163 164
3 37 165 167
3 165 166 167
3 168 20 169
3 38 170 172
3 170 20 171
3 170 171 172
3 38 2 20
3 38 39 2
3 40 39 38
3 40 7 39
3 173 40 174
3 41 175 177
3 175 40 176
3 175 176 177
3 41 7 40
3 41 24 7
3 42 24 41
3 42 3 24
3 179 178 1
3 181 180 5
3 43 44 0
3 45 44 43
3 45 9 44
3 19 45 8
3 46 45 19
3 46 9 45
3 46 32 9
3 182 32 183
3 184 183 46
3 182 183 184
3 186 185 32
3 187 10 188
3 189 10 190
3 192 191 10
3 21 193 194
3 47 195 197
3 197 196 21
3 195 196 197
3 47 198 199
3 47 200 201
3 203 202 47
3 205 204 11
3 206 1 207
3 39 23 2
3 48 23 39
3 48 208 210
3 210 209 23
3 208 209 210
3 25 48 7
3 49 48 25
3 49 211 213
3 213 212 48
3 211 212 213
3 49 214 215
3 50 216 218
3 218 217 49
3 216 217 218
3 50 219 221
3 219 1 220
3 219 220 221
3 50 34 1
3 51 34 50
3 51 4 34
3 27 51 12
3 52 51 27
3 52 4 51
3 52 16 4
3 53 16 52
3 53 0 16
3 222 42 223
3 54 224 226
3 224 42 225
3 224 225 226
3 54 3 42
3 227 54 228
3 55 229 231
3 229 54 230
3 229 230 231
3 55 3 54
3 55 28 3
3 56 28 55
3 56 13 28
3 29 56 14
3 57 56 29
3 57 13 56
3 57 53 13
3 58 53 57
3 58 0 53
3 58 43 0
3 59 43 58
3 59 8 43
3 31 59 15
3 232 59 233
3 234 233 31
3 232 233 234
3 235 8 236
3 237 236 59
3 235 236 237
3 239 238 8
3 44 18 0
3 60 18 44
3 60 6 18
3 33 60 9
3 61 60 33
3 61 6 60
3 61 37 6
3 240 37 241
3 242 241 61
3 240 241 242
3 244 243 37
