ply
format ascii 1.0
element vertex 232
property float x
property float y
property float z
element face 211
property list uchar int vertex_index
end_header
-43.842224 58.408619 10.793076
-42.081482 66.680679 -0.805864
-48.354313 55.360508 1.322517
-45.284904 48.864391 20.920286
-49.409645 47.099209 11.920856
-44.53743 64.397614 -5.60647
-44.717354 53.704258 16.180542
-46.963615 48.112423 16.336512
-46.557487 52.717724 11.311935
-45.976616 57.108318 5.771371
-45.373203 61.07983 0.033335
-47.604897 58.761654 -4.198996
-44.424103 49.165791 25.56423
-43.726788 54.20525 21.102509
-48.967476 51.404285 6.790529
-44.288399 56.079258 13.553459
-45.523376 53.259029 13.724196
-45.175259 55.568981 11.037495
-42.568233 64.831818 2.101405
-44.14299 62.031765 2.46485
-43.769424 63.927128 -0.432486
-46.166763 61.576664 -4.991886
-44.091034 49.098606 27.897488
-48.134834 47.630627 14.096
-48.151932 45.329601 16.395622
-49.47261 44.862797 14.260845
-50.778351 44.355816 12.18976
-47.203468 56.283733 3.446522
-47.483055 54.237087 6.248605
-48.672924 53.438511 4.079845
-45.071522 51.298946 18.642851
-46.001198 48.531445 18.616665
-45.819725 50.910992 16.260502
-46.807297 50.434177 13.90764
-47.982002 49.888538 11.613685
-44.822136 57.821033 8.238251
-44.482124 59.986118 5.367416
-45.684635 59.161755 2.907829
-46.907845 58.207714 0.615873
-45.00547 62.833981 -2.816698
-46.573528 59.980846 -2.208452
-48.005085 57.143452 -1.447851
-48.818954 55.994152 -3.221558
-44.785912 49.083706 23.237831
-44.168556 51.699535 23.417686
-44.545696 51.570858 21.03335
-44.139118 54.028973 18.648224
-46.269348 54.950336 8.586231
-47.749825 52.096714 8.984447
-49.224644 49.284016 9.417517
-50.036903 50.644154 4.786724
-50.367386 48.621967 7.368483
-50.628868 46.520084 9.849302
-43.883051 48.991577 29.06741
-44.115876 47.795517 28.884516
-45.646486 47.488712 20.847613
-45.294415 47.626426 21.963244
-43.739107 61.401775 5.197593
-43.946731 60.325847 6.652596
-44.77145 63.615797 -4.211584
-44.159805 64.239485 -3.053123
-43.925785 65.021301 -4.448009
-44.620691 47.859379 25.414665
-44.444657 47.87746 26.55872
-44.605007 49.124748 24.40103
-44.801596 47.818337 24.251465
-44.620691 47.859379 25.414665
-43.947672 52.952393 22.260098
-43.772972 52.954475 23.472322
-43.552088 54.207332 22.314734
-46.964855 46.932133 17.453512
-46.483647 47.141644 18.593589
-46.482406 48.321934 17.476588
-48.067734 44.154863 17.440863
-48.757435 43.95331 16.399247
-50.406757 50.23198 3.910861
-49.850876 51.603878 3.463504
-50.987265 47.254608 7.650894
-50.795997 48.260883 6.44701
-51.118005 46.203666 8.891303
-50.498127 47.571025 8.608892
-50.987265 47.254608 7.650894
-51.257747 45.161035 10.036134
-51.118005 46.203666 8.891303
-43.355611 63.431792 2.283127
-43.56954 62.424599 3.746311
-42.782162 63.824625 3.564588
-45.907989 62.272499 -6.344207
-45.352097 62.987139 -5.299178
-45.093323 63.682974 -6.651498
-46.646252 60.883095 -5.944026
-45.907989 62.272499 -6.344207
-46.387478 61.57893 -7.296347
-47.365319 59.47559 -5.547581
-46.88583 60.169159 -4.595441
-46.646252 60.883095 -5.944026
-47.964768 58.108715 -5.038137
-47.365319 59.47559 -5.547581
-44.278122 47.843868 27.72535
-44.115876 47.795517 28.884516
-44.257569 49.132199 26.730859
-44.444657 47.87746 26.55872
-44.278122 47.843868 27.72535
-43.246132 55.469124 21.104765
-43.552088 54.207332 22.314734
-43.439211 55.44611 19.860458
-43.246132 55.469124 21.104765
-49.417774 43.719908 15.331858
-48.757435 43.95331 16.399247
-48.812271 45.096199 15.328233
-50.119789 43.500363 14.305974
-49.417774 43.719908 15.331858
-50.77266 43.246872 13.270432
-50.119789 43.500363 14.305974
-50.125481 44.609307 13.225302
-51.397717 43.006683 12.272988
-51.392025 41.89774 13.35366
-50.77266 43.246872 13.270432
-42.697811 66.162834 -2.047706
-41.782371 67.510666 -2.232976
-43.632402 65.778817 -5.838471
-43.925785 65.021301 -4.448009
-44.230801 65.07029 -6.951523
-43.632402 65.778817 -5.838471
-45.093323 63.682974 -6.651498
-44.230801 65.07029 -6.951523
-49.00958 53.962055 1.7314
-48.807474 54.857861 0.391806
-44.116737 59.243305 8.088014
-44.33218 58.114826 9.515663
-43.626781 59.537098 9.365426
-44.65213 58.903576 6.802834
-44.116737 59.243305 8.088014
-43.946731 60.325847 6.652596
-44.312557 61.008941 3.916133
-43.739107 61.401775 5.197593
-43.56954 62.424599 3.746311
-43.541782 64.786058 -1.861017
-42.925453 65.303904 -0.619175
-42.697811 66.162834 -2.047706
-44.387447 63.380555 -1.624592
-43.541782 64.786058 -1.861017
-44.159805 64.239485 -3.053123
-48.63286 55.749333 -0.993378
-48.807474 54.857861 0.391806
-48.179699 56.25198 -0.062667
-49.039794 55.174683 -1.880231
-48.63286 55.749333 -0.993378
-48.412019 56.568802 -2.334704
-49.291681 54.641232 -2.649514
-49.039794 55.174683 -1.880231
-48.571796 56.724964 -4.549418
-48.211925 57.377903 -3.710277
-47.964768 58.108715 -5.038137
-49.013759 55.391289 -3.934661
-48.571796 56.724964 -4.549418
-49.291681 54.641232 -2.649514
-49.013759 55.391289 -3.934661
-45.044919 47.736084 23.122016
-44.801596 47.818337 24.251465
-45.035408 48.974048 22.079059
-45.294415 47.626426 21.963244
-45.044919 47.736084 23.122016
-43.755854 50.282207 28.019207
-43.883051 48.991577 29.06741
-43.96162 50.382328 26.842652
-43.755854 50.282207 28.019207
-44.128155 50.41592 25.676023
-44.257569 49.132199 26.730859
-43.96162 50.382328 26.842652
-44.000382 51.682792 24.602752
-43.772972 52.954475 23.472322
-44.296329 50.432663 24.490958
-44.128155 50.41592 25.676023
-44.000382 51.682792 24.602752
-43.645376 55.357972 18.633315
-43.932953 54.117112 19.875366
-43.439211 55.44611 19.860458
-43.883881 55.244763 17.37009
-43.645376 55.357972 18.633315
-44.172998 55.082405 16.136249
-44.428236 53.866616 17.414383
-43.883881 55.244763 17.37009
-43.958521 56.269905 14.822708
-44.502876 54.891758 14.867
-44.172998 55.082405 16.136249
-43.682917 57.466664 13.47031
-43.958521 56.269905 14.822708
-43.459829 58.631344 12.090118
-44.065311 57.243938 12.173267
-43.682917 57.466664 13.47031
-43.186388 59.79702 10.679821
-43.459829 58.631344 12.090118
-43.626781 59.537098 9.365426
-43.186388 59.79702 10.679821
-42.023321 65.182488 3.415878
-42.782162 63.824625 3.564588
-41.742437 66.159951 1.945391
-42.023321 65.182488 3.415878
-41.499061 67.084381 0.491757
-42.324858 65.756248 0.647771
-41.742437 66.159951 1.945391
-41.173818 67.973251 -0.963545
-41.499061 67.084381 0.491757
-41.782371 67.510666 -2.232976
-41.173818 67.973251 -0.963545
-46.004633 47.322239 19.695802
-45.646486 47.488712 20.847613
-45.643051 48.697918 19.768476
-46.004633 47.322239 19.695802
-46.483647 47.141644 18.593589
-47.559014 45.540722 17.483067
-46.964855 46.932133 17.453512
-47.557773 46.721012 16.366067
-47.559014 45.540722 17.483067
-48.067734 44.154863 17.440863
-49.168886 53.001057 3.110064
-48.513618 54.39951 2.701181
-49.00958 53.962055 1.7314
-49.354914 52.041332 4.433285
-49.168886 53.001057 3.110064
-49.850876 51.603878 3.463504
-50.630756 49.271977 5.15613
-50.406757 50.23198 3.910861
-50.202145 49.63306 6.077604
-50.630756 49.271977 5.15613
-50.795997 48.260883 6.44701
-51.332489 44.078902 11.206364
-50.703609 45.43795 11.019531
-51.257747 45.161035 10.036134
-51.397717 43.006683 12.272988
-51.332489 44.078902 11.206364
3 0 17 15
3 1 20 18
3 53 22 54
3 3 55 56
3 4 25 23
3 4 26 25
3 2 29 27
3 6 32 30
3 8 33 16
3 8 34 33
3 57 36 58
3 10 37 19
3 10 38 37
3 5 59 61
3 59 39 60
3 59 60 61
3 11 40 21
3 11 41 40
3 11 42 41
3 12 62 63
3 12 64 66
3 64 43 65
3 64 65 66
3 13 67 69
3 67 44 68
3 67 68 69
3 13 45 44
3 13 46 45
3 7 70 72
3 72 71 31
3 70 71 72
3 74 73 24
3 9 47 35
3 14 48 28
3 14 49 48
3 75 50 76
3 77 51 78
3 79 52 80
3 81 80 51
3 79 80 81
3 83 82 52
3 15 16 6
3 17 16 15
3 17 8 16
3 18 84 86
3 84 19 85
3 84 85 86
3 20 19 18
3 20 10 19
3 87 21 88
3 89 88 5
3 87 88 89
3 90 21 91
3 90 91 92
3 93 11 94
3 95 94 21
3 93 94 95
3 97 96 11
3 22 98 99
3 22 100 102
3 100 12 101
3 100 101 102
3 103 13 104
3 106 105 13
3 23 24 7
3 25 24 23
3 25 107 109
3 109 108 24
3 107 108 109
3 25 110 111
3 26 112 114
3 114 113 25
3 112 113 114
3 26 115 117
3 115 116 117
3 27 28 9
3 29 28 27
3 29 14 28
3 119 118 1
3 120 5 121
3 122 5 123
3 125 124 5
3 30 31 3
3 32 31 30
3 32 7 31
3 16 32 6
3 33 32 16
3 33 7 32
3 33 23 7
3 34 23 33
3 34 4 23
3 127 126 2
3 128 35 129
3 130 129 0
3 128 129 130
3 36 131 133
3 131 35 132
3 131 132 133
3 36 9 35
3 19 134 136
3 134 36 135
3 134 135 136
3 37 36 19
3 37 9 36
3 37 27 9
3 38 27 37
3 38 2 27
3 137 20 138
3 139 138 1
3 137 138 139
3 39 140 142
3 140 20 141
3 140 141 142
3 39 10 20
3 21 39 5
3 40 39 21
3 40 10 39
3 40 38 10
3 41 38 40
3 41 2 38
3 41 143 145
3 145 144 2
3 143 144 145
3 42 146 148
3 148 147 41
3 146 147 148
3 42 149 150
3 151 42 152
3 153 152 11
3 151 152 153
3 154 42 155
3 157 156 42
3 43 158 159
3 43 160 162
3 160 3 161
3 160 161 162
3 163 22 164
3 165 22 166
3 167 12 168
3 169 168 22
3 167 168 169
3 44 170 171
3 44 172 174
3 172 12 173
3 172 173 174
3 44 43 12
3 45 43 44
3 45 3 43
3 45 30 3
3 46 30 45
3 46 6 30
3 175 46 176
3 177 176 13
3 175 176 177
3 178 46 179
3 180 6 181
3 182 181 46
3 180 181 182
3 183 15 184
3 185 184 6
3 183 184 185
3 186 15 187
3 188 0 189
3 190 189 15
3 188 189 190
3 191 0 192
3 194 193 0
3 195 18 196
3 197 18 198
3 199 1 200
3 201 200 18
3 199 200 201
3 202 1 203
3 205 204 1
3 31 206 208
3 208 207 3
3 206 207 208
3 210 209 31
3 24 211 213
3 213 212 7
3 211 212 213
3 215 214 24
3 35 17 0
3 47 17 35
3 47 8 17
3 28 47 9
3 48 47 28
3 48 8 47
3 48 34 8
3 49 34 48
3 49 4 34
3 216 29 217
3 218 217 2
3 216 217 218
3 50 219 221
3 219 29 220
3 219 220 221
3 50 14 29
3 222 50 223
3 51 224 226
3 224 50 225
3 224 225 226
3 51 14 50
3 51 49 14
3 52 49 51
3 52 4 49
3 52 26 4
3 227 26 228
3 229 228 52
3 227 228 229
3 231 230 26
