ply
format ascii 1.0
element vertex 411
property float x
property float y
property float z
element face 351
property list uchar int vertex_index
end_header
-49.295242 -30.488136 63.428558
-29.790443 -56.576725 71.632278
-54.117073 -27.449844 55.153713
-37.365955 -43.502884 67.6745
-48.301479 -32.777203 58.65765
-51.705254 -28.681688 59.36552
-43.383633 -37.050262 66.150574
-45.910667 -34.792938 62.47776
-27.004532 -58.502384 74.521362
-56.646431 -26.67878 50.999939
-37.007488 -41.013451 72.380455
-40.470753 -39.197098 69.509949
-56.386597 -24.0319 54.209732
-58.920517 -23.142178 49.853752
-30.060335 -51.597496 71.977028
-34.427231 -45.243629 70.59436
-32.802746 -49.848263 69.11734
-48.921516 -31.57225 61.15638
-50.115044 -30.672501 59.161861
-50.51033 -29.514637 61.426056
-46.457432 -33.712051 65.00441
-47.712143 -32.597763 63.108543
-47.107868 -33.732746 60.577843
-28.457687 -57.537983 73.12896
-34.268841 -40.562569 75.444061
-52.546757 -29.31937 55.119595
-52.08765 -30.785217 52.953903
-53.818962 -28.858593 53.120964
-55.362259 -27.019144 53.055695
-40.365082 -38.128056 71.712692
-42.100422 -37.114944 70.202644
-41.588665 -39.264244 65.273323
-57.645821 -23.571304 52.017235
-58.322426 -21.929268 50.986599
-30.425205 -49.156769 72.432404
-37.305164 -42.24041 70.131927
-35.625458 -43.078819 71.503891
-35.957146 -44.403343 69.195129
-34.007923 -48.952522 67.578697
-32.358074 -52.242214 68.658051
-48.88345 -33.368256 54.33979
-49.516571 -31.958836 56.73328
-51.317078 -29.92017 57.142159
-52.902077 -27.996727 57.266438
-45.224804 -33.921803 68.95295
-43.681267 -36.017372 68.569046
-45.124592 -34.86834 66.830032
-44.680122 -35.91452 64.341599
-44.007942 -37.042812 61.639297
-45.179737 -35.96553 59.788235
-46.367264 -34.969906 57.943207
-26.92304 -61.017197 74.502441
-28.479351 -55.007927 73.166489
-36.431557 -39.845924 74.325882
-38.471764 -39.038876 73.087166
-38.811287 -40.151764 71.013458
-38.853306 -41.324169 68.627808
-41.989342 -38.156078 67.881714
-40.27507 -40.3283 67.000572
-52.988541 -26.830645 59.193008
-54.194408 -26.203152 57.037647
-55.413258 -25.689482 54.86454
-56.652817 -25.260941 52.701393
-57.918434 -24.892246 50.573303
-59.21254 -24.569178 48.498268
-59.635258 -21.411373 48.821781
-60.209946 -22.741606 47.732529
-29.882614 -54.085526 71.729752
-35.070141 -41.789627 73.614761
-32.782276 -46.038403 71.885452
-34.847179 -46.643654 68.316917
-33.480335 -47.505634 69.771942
-32.001518 -48.338184 71.135513
-31.4839 -50.726227 70.57798
-31.178925 -53.16568 70.227676
-30.993841 -55.615585 70.042068
-48.503692 -31.542949 63.268551
-47.87186 -32.086994 64.233501
-48.66341 -31.032181 64.393508
-29.729078 -57.805132 71.610946
-29.0627 -58.285761 72.359287
-29.124065 -57.057354 72.380619
-30.302924 -57.307808 70.785133
-29.729078 -57.805132 71.610946
-34.912833 -39.661102 75.659347
-33.740239 -39.991255 76.173866
-42.859203 -36.096385 70.397674
-41.973208 -36.638252 71.15633
-57.820818 -21.430324 51.383341
-57.669758 -22.193192 52.080768
-30.733148 -47.98167 72.764466
-29.828336 -48.362324 73.347706
-48.909025 -32.36802 57.695465
-48.555943 -33.026946 56.427284
-47.948397 -33.436129 57.389469
-45.905361 -33.802945 67.016944
-45.174698 -34.395072 67.891491
-45.955467 -33.329676 68.078404
-47.948397 -33.436129 57.389469
-46.981289 -34.532481 57.032247
-47.334372 -33.873554 58.300428
-26.963786 -59.759791 74.511901
-26.182929 -60.244743 75.15081
-26.223675 -58.987337 75.16027
-49.565133 -33.084658 53.479073
-49.828387 -32.331497 54.58198
-51.892149 -31.587064 51.966007
-52.779642 -30.600788 52.050877
-56.588821 -27.473555 50.150701
-55.895649 -27.59751 51.086937
-57.310505 -26.543059 50.003935
-56.588821 -27.473555 50.150701
-27.724556 -54.183449 73.906258
-27.731224 -55.473059 73.850975
-26.976429 -54.64858 74.590744
-39.187405 -38.090649 73.291157
-38.135254 -38.522936 73.916828
-40.070666 -40.916437 65.653553
-40.931867 -39.796272 66.136948
-40.727463 -40.384409 64.789929
-39.468479 -41.431839 66.519112
-40.070666 -40.916437 65.653553
-53.448353 -25.983111 58.893953
-52.834557 -26.33558 59.964989
-54.051287 -25.669365 57.816272
-53.591475 -26.516898 58.115327
-53.448353 -25.983111 58.893953
-55.764091 -24.287589 55.310161
-56.054445 -23.517592 54.790781
-55.899928 -24.860691 54.537136
-55.277422 -25.11638 55.637565
-55.764091 -24.287589 55.310161
-59.853933 -20.546205 48.153698
-59.16511 -20.858996 49.222769
-60.859328 -22.562583 46.695023
-60.580573 -21.82805 47.210476
-60.371087 -23.51697 47.108177
-60.859328 -22.562583 46.695023
-29.304635 -52.034864 72.653485
-29.417329 -50.786895 72.833523
-29.971474 -52.841511 71.85339
-29.215775 -53.27888 72.529847
-29.304635 -52.034864 72.653485
-34.12522 -44.547939 71.673553
-34.724333 -43.465534 72.128319
-35.026345 -44.161224 71.049126
-33.604754 -45.641016 71.239906
-33.302742 -44.945326 72.319099
-34.12522 -44.547939 71.673553
-34.974746 -47.336067 67.134373
-35.473587 -46.191166 67.536632
-31.621523 -53.90856 69.297699
-31.7685 -52.703947 69.442864
-32.211098 -53.446827 68.512887
-31.528981 -55.133513 69.204895
-31.086383 -54.390633 70.134872
-31.621523 -53.90856 69.297699
-31.403399 -56.328302 69.110306
-31.528981 -55.133513 69.204895
-47.244505 -32.644138 65.181434
-46.571782 -33.2248 66.104133
-47.084787 -33.154907 64.056477
-47.244505 -32.644138 65.181434
-47.87186 -32.086994 64.233501
-28.412996 -58.781929 73.122471
-27.686419 -59.264129 73.818672
-27.73111 -58.020184 73.825161
-28.412996 -58.781929 73.122471
-29.0627 -58.285761 72.359287
-33.14337 -40.887886 75.958046
-33.740239 -39.991255 76.173866
-33.64591 -41.530777 75.090866
-33.14337 -40.887886 75.958046
-52.317203 -30.052293 54.036749
-51.430487 -31.039978 53.889036
-51.66004 -30.307054 54.971882
-53.645298 -29.637476 52.134407
-52.779642 -30.600788 52.050877
-52.953306 -29.821905 53.037433
-54.481915 -28.687416 52.14745
-53.645298 -29.637476 52.134407
-55.253563 -27.767691 52.114815
-54.481915 -28.687416 52.14745
-54.59061 -27.938868 53.08833
-56.004345 -26.848962 52.027817
-55.895649 -27.59751 51.086937
-55.253563 -27.767691 52.114815
-41.105537 -37.144808 71.911354
-40.134064 -37.635239 72.60392
-41.232752 -37.6215 70.957668
-41.105537 -37.144808 71.911354
-41.973208 -36.638252 71.15633
-42.205324 -38.71059 64.374756
-42.486149 -38.157253 65.711949
-43.102808 -37.6036 64.813382
-41.299314 -39.845354 63.893704
-42.205324 -38.71059 64.374756
-40.727463 -40.384409 64.789929
-41.299314 -39.845354 63.893704
-56.701844 -23.244508 53.692335
-56.054445 -23.517592 54.790781
-57.331456 -23.014209 52.596086
-57.016209 -23.801602 53.113484
-56.701844 -23.244508 53.692335
-57.984123 -22.750286 51.501917
-57.331456 -23.014209 52.596086
-57.669758 -22.193192 52.080768
-29.599764 -49.566532 73.061211
-29.828336 -48.362324 73.347706
-30.24277 -50.377133 72.204716
-29.417329 -50.786895 72.833523
-29.599764 -49.566532 73.061211
-34.186907 -49.655134 66.439617
-34.555118 -48.490502 66.765263
-33.712727 -50.130479 67.297496
-34.186907 -49.655134 66.439617
-33.110138 -50.57835 68.066818
-33.405334 -49.400393 68.348018
-33.712727 -50.130479 67.297496
-32.887802 -51.775325 67.837174
-32.58041 -51.045238 68.887696
-33.110138 -50.57835 68.066818
-32.681809 -52.961776 67.637719
-32.887802 -51.775325 67.837174
-32.534832 -54.16639 67.492554
-32.211098 -53.446827 68.512887
-32.681809 -52.961776 67.637719
-48.239382 -33.731656 55.230539
-47.928071 -34.450123 54.039888
-49.200011 -32.663546 55.536535
-48.239382 -33.731656 55.230539
-48.555943 -33.026946 56.427284
-50.144947 -31.626787 55.778724
-49.828387 -32.331497 54.58198
-49.200011 -32.663546 55.536535
-51.0452 -30.607454 55.983164
-50.144947 -31.626787 55.778724
-50.416825 -30.939503 56.93772
-51.931917 -29.61977 56.130877
-51.66004 -30.307054 54.971882
-51.0452 -30.607454 55.983164
-44.453035 -34.969588 68.760998
-43.649626 -35.5476 69.580875
-44.421394 -34.499815 69.772828
-45.791012 -34.290196 65.917221
-45.905361 -33.802945 67.016944
-46.571782 -33.2248 66.104133
-43.751053 -37.035729 63.908894
-43.102808 -37.6036 64.813382
-44.031878 -36.482391 65.246087
-43.414963 -37.599874 62.557743
-43.751053 -37.035729 63.908894
-44.344032 -36.478666 62.990448
-43.06819 -38.18589 61.167883
-43.414963 -37.599874 62.557743
-43.632269 -37.646174 60.262975
-43.06819 -38.18589 61.167883
-44.218167 -37.107533 59.337445
-43.632269 -37.646174 60.262975
-44.59384 -36.504171 60.713766
-44.802341 -36.598064 58.449641
-44.218167 -37.107533 59.337445
-45.396105 -36.100252 57.527127
-44.802341 -36.598064 58.449641
-45.7735 -35.467718 58.865721
-46.012468 -35.641711 56.666553
-45.396105 -36.100252 57.527127
-46.012468 -35.641711 56.666553
-46.981289 -34.532481 57.032247
-26.13332 -61.512726 75.120666
-25.393209 -60.740273 75.769036
-26.182929 -60.244743 75.15081
-26.786568 -62.238703 74.440605
-26.13332 -61.512726 75.120666
-27.645672 -60.521536 73.809212
-26.963786 -59.759791 74.511901
-27.686419 -59.264129 73.818672
-27.517841 -61.732003 73.762306
-27.645672 -60.521536 73.809212
-26.786568 -62.238703 74.440605
-27.517841 -61.732003 73.762306
-36.732975 -44.620781 67.215424
-37.30845 -44.142443 66.383484
-48.633131 -34.137482 53.25857
-47.928071 -34.450123 54.039888
-48.633131 -34.137482 53.25857
-49.565133 -33.084658 53.479073
-51.167232 -31.793138 52.786129
-51.430487 -31.039978 53.889036
-51.167232 -31.793138 52.786129
-51.892149 -31.587064 51.966007
-26.206395 -57.691462 75.175682
-26.223675 -58.987337 75.16027
-26.993814 -57.220287 74.528412
-26.206395 -57.691462 75.175682
-27.720392 -56.738086 73.832211
-27.73111 -58.020184 73.825161
-26.993814 -57.220287 74.528412
-28.468519 -56.272955 73.147725
-27.720392 -56.738086 73.832211
-27.731224 -55.473059 73.850975
-37.11515 -38.92646 74.536186
-35.994191 -39.30278 75.100258
-37.451661 -39.4424 73.706524
-37.11515 -38.92646 74.536186
-38.135254 -38.522936 73.916828
-39.418423 -38.583466 72.399929
-39.187405 -38.090649 73.291157
-40.134064 -37.635239 72.60392
-42.890845 -36.566158 69.385845
-42.859203 -36.096385 70.397674
-43.649626 -35.5476 69.580875
-38.757597 -41.929773 67.332729
-39.564188 -40.826234 67.81419
-39.468479 -41.431839 66.519112
-38.013921 -43.019131 66.856076
-38.109631 -42.413527 68.151154
-38.757597 -41.929773 67.332729
-37.30845 -44.142443 66.383484
-38.013921 -43.019131 66.856076
-49.928985 -29.495767 63.389181
-49.297054 -30.016976 64.370483
-45.067446 -33.50989 69.770275
-44.421394 -34.499815 69.772828
-45.866262 -32.907483 68.946995
-45.067446 -33.50989 69.770275
-45.955467 -33.329676 68.078404
-45.866262 -32.907483 68.946995
-49.297054 -30.016976 64.370483
-48.66341 -31.032181 64.393508
-50.53653 -29.009017 62.38793
-49.902786 -30.001387 62.427307
-49.928985 -29.495767 63.389181
-51.147154 -28.554637 61.365219
-50.53653 -29.009017 62.38793
-51.744616 -28.138162 60.334951
-51.107792 -29.098163 60.395788
-51.147154 -28.554637 61.365219
-52.386259 -27.212641 60.248695
-52.834557 -26.33558 59.964989
-52.346897 -27.756166 59.279264
-51.744616 -28.138162 60.334951
-52.386259 -27.212641 60.248695
-54.667997 -25.373215 56.724119
-54.051287 -25.669365 57.816272
-54.803833 -25.946317 55.951093
-54.667997 -25.373215 56.724119
-55.277422 -25.11638 55.637565
-57.946506 -25.649793 49.790617
-57.310505 -26.543059 50.003935
-57.282432 -25.785513 50.786621
-58.593559 -25.488259 48.7531
-57.946506 -25.649793 49.790617
-58.565487 -24.730712 49.535786
-59.279058 -25.381601 47.794262
-58.593559 -25.488259 48.7531
-58.508694 -21.117944 50.305177
-57.820818 -21.430324 51.383341
-58.978842 -21.670321 49.90419
-58.508694 -21.117944 50.305177
-59.16511 -20.858996 49.222769
-60.293228 -21.162934 47.755102
-59.853933 -20.546205 48.153698
-59.922602 -22.07649 48.277155
-60.293228 -21.162934 47.755102
-60.580573 -21.82805 47.210476
-59.872383 -24.430756 47.491047
-59.711243 -23.655392 48.115398
-60.371087 -23.51697 47.108177
-59.279058 -25.381601 47.794262
-59.872383 -24.430756 47.491047
-28.514143 -53.74008 73.248215
-27.724556 -54.183449 73.906258
-29.180982 -54.546727 72.448121
-28.514143 -53.74008 73.248215
-29.215775 -53.27888 72.529847
-35.350199 -40.204246 74.884972
-34.912833 -39.661102 75.659347
-35.994191 -39.30278 75.100258
-34.04656 -42.144306 74.176216
-33.64591 -41.530777 75.090866
-34.669491 -41.176098 74.529411
-34.446675 -42.820938 73.183754
-35.3478 -42.434223 72.559326
-34.724333 -43.465534 72.128319
-34.04656 -42.144306 74.176216
-34.446675 -42.820938 73.183754
-32.351292 -45.309698 72.895179
-33.302742 -44.945326 72.319099
-31.911684 -46.422488 72.490989
-32.351292 -45.309698 72.895179
-36.028571 -45.07101 67.975739
-36.661551 -43.953114 68.434814
-36.732975 -44.620781 67.215424
-35.402163 -45.523499 68.756023
-36.028571 -45.07101 67.975739
-35.473587 -46.191166 67.536632
-34.427551 -47.798088 67.947807
-34.974746 -47.336067 67.134373
-34.555118 -48.490502 66.765263
-31.521305 -47.572378 72.11602
-31.911684 -46.422488 72.490989
-32.391897 -47.188294 71.510482
-31.213361 -48.747476 71.783959
-30.733148 -47.98167 72.764466
-31.521305 -47.572378 72.11602
-30.904623 -56.827238 69.990028
-30.302924 -57.307808 70.785133
-30.392142 -56.096155 70.837173
-30.904623 -56.827238 69.990028
-31.403399 -56.328302 69.110306
3 0 19 17
3 0 76 78
3 76 21 77
3 76 77 78
3 0 17 21
3 1 79 81
3 81 80 23
3 79 80 81
3 1 82 83
3 84 24 85
3 2 27 25
3 2 28 27
3 86 30 87
3 88 33 89
3 90 34 91
3 3 37 35
3 4 92 94
3 92 41 93
3 92 93 94
3 5 42 18
3 5 43 42
3 95 46 96
3 97 96 44
3 95 96 97
3 7 47 20
3 7 48 47
3 7 49 48
3 4 50 22
3 4 98 100
3 100 99 50
3 98 99 100
3 8 101 103
3 101 51 102
3 101 102 103
3 105 104 40
3 107 106 26
3 9 108 109
3 9 110 111
3 112 52 113
3 112 113 114
3 115 54 116
3 11 55 29
3 11 56 55
3 6 57 45
3 117 58 118
3 119 118 31
3 117 118 119
3 121 120 58
3 122 59 123
3 124 60 125
3 126 125 59
3 124 125 126
3 12 127 128
3 12 129 131
3 129 61 130
3 129 130 131
3 12 62 61
3 13 63 32
3 13 64 63
3 132 65 133
3 134 66 135
3 137 136 66
3 14 138 139
3 14 140 142
3 140 67 141
3 140 141 142
3 10 68 53
3 15 143 145
3 145 144 36
3 143 144 145
3 15 146 148
3 146 69 147
3 146 147 148
3 149 70 150
3 16 71 38
3 16 72 71
3 16 73 72
3 151 74 152
3 153 152 39
3 151 152 153
3 154 75 155
3 156 155 74
3 154 155 156
3 158 157 75
3 17 18 4
3 19 18 17
3 19 5 18
3 159 20 160
3 21 161 163
3 161 20 162
3 161 162 163
3 21 7 20
3 21 22 7
3 17 22 21
3 17 4 22
3 23 164 166
3 166 165 8
3 164 165 166
3 168 167 23
3 24 169 170
3 24 171 172
3 25 173 175
3 173 26 174
3 173 174 175
3 27 26 25
3 27 176 178
3 178 177 26
3 176 177 178
3 27 179 180
3 28 181 183
3 183 182 27
3 181 182 183
3 28 184 186
3 184 9 185
3 184 185 186
3 187 29 188
3 30 189 191
3 189 29 190
3 189 190 191
3 30 11 29
3 192 31 193
3 194 193 6
3 192 193 194
3 195 31 196
3 198 197 31
3 199 12 200
3 201 32 202
3 203 202 12
3 201 202 203
3 33 204 206
3 204 32 205
3 204 205 206
3 33 13 32
3 34 207 208
3 34 209 211
3 209 14 210
3 209 210 211
3 35 36 10
3 37 36 35
3 37 15 36
3 212 38 213
3 214 38 215
3 216 16 217
3 218 217 38
3 216 217 218
3 219 39 220
3 221 220 16
3 219 220 221
3 222 39 223
3 226 225 39
3 224 225 226
3 227 40 228
3 41 229 231
3 229 40 230
3 229 230 231
3 41 232 234
3 234 233 40
3 232 233 234
3 18 41 4
3 42 41 18
3 42 235 237
3 237 236 41
3 235 236 237
3 42 238 240
3 238 25 239
3 238 239 240
3 43 25 42
3 43 2 25
3 44 241 243
3 241 45 242
3 241 242 243
3 46 45 44
3 46 6 45
3 20 244 246
3 244 46 245
3 244 245 246
3 47 46 20
3 47 6 46
3 47 247 249
3 249 248 6
3 247 248 249
3 48 250 252
3 252 251 47
3 250 251 252
3 48 253 254
3 48 255 256
3 49 257 259
3 259 258 48
3 257 258 259
3 49 260 261
3 22 49 7
3 50 49 22
3 50 262 264
3 264 263 49
3 262 263 264
3 50 265 266
3 268 267 50
3 51 269 271
3 269 270 271
3 51 272 273
3 274 51 275
3 276 275 8
3 274 275 276
3 277 51 278
3 280 279 51
3 282 281 3
3 40 283 284
3 286 285 40
3 26 287 288
3 290 289 26
3 291 8 292
3 293 8 294
3 295 23 296
3 297 296 8
3 295 296 297
3 52 298 300
3 298 23 299
3 298 299 300
3 52 1 23
3 301 53 302
3 54 303 305
3 303 53 304
3 303 304 305
3 54 10 53
3 29 306 308
3 306 54 307
3 306 307 308
3 55 54 29
3 55 10 54
3 55 35 10
3 56 35 55
3 56 3 35
3 45 309 311
3 309 30 310
3 309 310 311
3 57 30 45
3 57 11 30
3 31 57 6
3 58 57 31
3 58 11 57
3 58 56 11
3 312 56 313
3 314 313 58
3 312 313 314
3 315 3 316
3 317 316 56
3 315 316 317
3 319 318 3
3 321 320 0
3 322 44 323
3 324 44 325
3 327 326 44
3 328 0 329
3 330 19 331
3 332 331 0
3 330 331 332
3 333 19 334
3 335 5 336
3 337 336 19
3 335 336 337
3 59 338 339
3 59 340 342
3 340 5 341
3 340 341 342
3 59 43 5
3 60 43 59
3 60 2 43
3 343 60 344
3 61 345 347
3 345 60 346
3 345 346 347
3 61 2 60
3 61 28 2
3 62 28 61
3 62 9 28
3 32 62 12
3 63 62 32
3 63 9 62
3 63 348 350
3 350 349 9
3 348 349 350
3 64 351 353
3 353 352 63
3 351 352 353
3 64 354 355
3 356 33 357
3 65 358 360
3 358 33 359
3 358 359 360
3 65 13 33
3 361 65 362
3 66 363 365
3 363 65 364
3 363 364 365
3 66 13 65
3 66 64 13
3 366 64 367
3 368 367 66
3 366 367 368
3 370 369 64
3 371 52 372
3 67 373 375
3 373 52 374
3 373 374 375
3 67 1 52
3 53 376 378
3 376 24 377
3 376 377 378
3 68 24 53
3 68 379 381
3 381 380 24
3 379 380 381
3 36 68 10
3 382 68 383
3 384 383 36
3 382 383 384
3 386 385 68
3 69 387 388
3 69 389 390
3 391 37 392
3 393 392 3
3 391 392 393
3 70 394 396
3 394 37 395
3 394 395 396
3 70 15 37
3 38 397 399
3 397 70 398
3 397 398 399
3 71 70 38
3 71 15 70
3 71 69 15
3 72 69 71
3 72 400 402
3 402 401 69
3 400 401 402
3 72 403 405
3 403 34 404
3 403 404 405
3 73 34 72
3 73 14 34
3 39 73 16
3 74 73 39
3 74 14 73
3 74 67 14
3 75 67 74
3 75 1 67
3 75 406 408
3 408 407 1
3 406 407 408
3 410 409 75
