ply
format ascii 1.0
element vertex 116
property float x
property float y
property float z
element face 97
property list uchar int vertex_index
end_header
8.735958 -81.36293 23.037193
7.616501 -87.080727 30.301346
4.366623 -79.048988 30.649662
7.18257 -82.447838 28.067638
6.010986 -78.074486 25.932846
2.998631 -79.839142 35.284271
3.632927 -76.832939 29.524067
5.16156 -78.57592 28.30155
4.369364 -76.397163 27.216486
7.959454 -81.89019 25.556923
8.12248 -84.153305 26.579914
8.756145 -83.596909 23.988197
5.051495 -81.266029 31.815998
6.417688 -82.995758 30.55706
5.849586 -80.767258 29.417103
6.687803 -80.236717 26.992928
7.5474 -79.704712 24.548801
3.643108 -79.473701 32.976921
2.98237 -77.220879 31.817116
7.488762 -84.726822 29.165119
8.053608 -86.504288 27.636936
3.614971 -75.494823 27.8374
4.001145 -76.615051 28.370276
3.246752 -75.712711 28.99119
7.604484 -88.291641 30.896558
7.38277 -88.55981 32.214869
7.394787 -87.348896 31.619658
7.704254 -88.010036 29.524943
7.604484 -88.291641 30.896558
3.311266 -80.968804 35.905934
2.714435 -79.989185 36.428951
3.653123 -80.776336 34.735414
3.311266 -80.968804 35.905934
3.320869 -79.656421 34.130596
3.975361 -80.593616 33.581739
3.653123 -80.776336 34.735414
2.437302 -76.220592 32.40173
2.703443 -77.386017 32.957596
2.653455 -76.077973 31.271259
2.437302 -76.220592 32.40173
8.273374 -86.215294 26.301865
8.088044 -85.328797 27.108425
8.30781 -85.039803 25.773354
8.245246 -87.139175 25.481653
8.025479 -87.428169 26.816723
8.273374 -86.215294 26.301865
7.237338 -86.179123 31.014128
7.394787 -87.348896 31.619658
2.476393 -78.82975 35.826957
2.714435 -79.989185 36.428951
2.711574 -78.695148 34.691173
2.476393 -78.82975 35.826957
8.624643 -84.761605 24.477496
8.30781 -85.039803 25.773354
8.439312 -83.875107 25.284056
9.062348 -82.234493 22.223425
9.119457 -81.136921 21.780679
5.734592 -82.130893 31.186529
6.047407 -83.250259 31.786469
5.364311 -82.385395 32.415937
3.93264 -75.298752 26.699359
3.614971 -75.494823 27.8374
4.771959 -76.16489 26.054797
3.93264 -75.298752 26.699359
5.592771 -77.003551 25.412977
5.190175 -77.235825 26.574666
4.771959 -76.16489 26.054797
6.451963 -77.824447 24.739501
5.592771 -77.003551 25.412977
7.220171 -78.639561 24.047479
6.779193 -78.889599 25.240824
6.451963 -77.824447 24.739501
7.978662 -79.457283 23.321109
7.220171 -78.639561 24.047479
8.572941 -80.286392 22.565306
8.141679 -80.533821 23.792997
7.978662 -79.457283 23.321109
9.119457 -81.136921 21.780679
8.572941 -80.286392 22.565306
4.679555 -81.48978 33.001278
5.364311 -82.385395 32.415937
4.347302 -80.369865 32.396459
4.679555 -81.48978 33.001278
3.975361 -80.593616 33.581739
3.033812 -78.512428 33.537498
3.320869 -79.656421 34.130596
2.711574 -78.695148 34.691173
3.312739 -78.34729 32.397019
3.033812 -78.512428 33.537498
2.703443 -77.386017 32.957596
2.978733 -75.884003 30.124735
3.307648 -77.026909 30.670592
2.653455 -76.077973 31.271259
3.246752 -75.712711 28.99119
2.978733 -75.884003 30.124735
6.637932 -84.136639 31.141985
6.047407 -83.250259 31.786469
7.173469 -85.002171 30.446015
6.637932 -84.136639 31.141985
6.953225 -83.86129 29.861089
7.552632 -85.903774 29.733232
7.237338 -86.179123 31.014128
7.173469 -85.002171 30.446015
7.922808 -87.721817 28.192737
7.704254 -88.010036 29.524943
7.835055 -86.792507 28.969141
7.894679 -88.645699 27.372525
7.922808 -87.721817 28.192737
8.025479 -87.428169 26.816723
9.072441 -83.351483 22.698927
8.746052 -82.479919 23.512695
9.062348 -82.234493 22.223425
8.850564 -84.497028 23.151829
9.072441 -83.351483 22.698927
8.624643 -84.761605 24.477496
8.850564 -84.497028 23.151829
3 21 8 22
3 23 22 6
3 21 22 23
3 0 11 9
3 1 24 26
3 24 25 26
3 1 27 28
3 2 14 12
3 4 15 7
3 4 16 15
3 5 29 30
3 5 31 32
3 5 33 35
3 33 17 34
3 33 34 35
3 36 18 37
3 39 38 18
3 3 19 13
3 40 20 41
3 42 41 10
3 40 41 42
3 45 44 20
3 43 44 45
3 46 1 47
3 6 7 2
3 8 7 6
3 8 4 7
3 48 5 49
3 51 50 5
3 9 10 3
3 11 10 9
3 11 52 54
3 54 53 10
3 52 53 54
3 56 55 0
3 12 57 59
3 57 13 58
3 57 58 59
3 14 13 12
3 14 3 13
3 7 14 2
3 15 14 7
3 15 3 14
3 15 9 3
3 16 9 15
3 16 0 9
3 60 8 61
3 62 8 63
3 64 4 65
3 66 65 8
3 64 65 66
3 67 4 68
3 69 16 70
3 71 70 4
3 69 70 71
3 72 16 73
3 74 0 75
3 76 75 16
3 74 75 76
3 78 77 0
3 79 12 80
3 17 81 83
3 81 12 82
3 81 82 83
3 17 2 12
3 84 17 85
3 86 85 5
3 84 85 86
3 18 87 89
3 87 17 88
3 87 88 89
3 18 2 17
3 18 6 2
3 90 6 91
3 92 91 18
3 90 91 92
3 94 93 6
3 13 95 96
3 19 97 99
3 99 98 13
3 97 98 99
3 19 100 102
3 100 1 101
3 100 101 102
3 10 19 3
3 20 19 10
3 20 1 19
3 20 103 105
3 105 104 1
3 103 104 105
3 108 107 20
3 106 107 108
3 109 11 110
3 111 110 0
3 109 110 111
3 112 11 113
3 115 114 11
