ply
format ascii 1.0
element vertex 373
property float x
property float y
property float z
element face 360
property list uchar int vertex_index
end_header
-14.840504 39.044949 62.182808
-33.646557 42.445 47.799778
-27.514675 35.245281 53.928715
-19.240301 43.12989 52.385033
-16.564098 57.416904 44.157555
-11.650793 54.309956 53.778416
-31.88426 32.792587 55.597324
-29.061016 44.949375 46.373817
-19.492626 58.52869 40.102226
-17.052246 41.170166 57.145611
-15.469443 48.636868 53.042202
-13.332783 46.703075 58.169682
-30.516312 39.011921 51.037827
-25.991259 41.688114 49.360577
-21.684612 45.413319 48.316948
-23.230927 38.5662 52.623245
-20.715305 36.001476 56.505543
-18.313547 33.818649 60.953278
-15.920295 63.942089 39.706654
-17.729748 50.364147 48.27256
-13.97278 56.064701 48.771648
-12.397173 36.132339 67.072052
-26.765606 46.361721 45.610672
-15.966969 40.170383 59.660179
-15.219249 43.943062 57.666035
-14.130853 42.874306 60.22797
-12.210562 45.488239 60.700447
-12.980932 41.610218 62.743214
-29.709476 33.955494 54.786083
-31.232452 35.934303 53.364609
-29.002588 37.124165 52.500683
-28.245138 40.255928 50.172966
-26.768944 38.472775 51.643921
-24.57513 40.072742 50.926842
-25.34374 36.758926 53.168625
-22.618858 33.771919 56.556789
-21.304262 32.511078 58.457813
-19.510475 34.89674 58.674236
-17.991072 57.999668 42.068584
-16.174923 60.764774 41.999199
-14.380195 63.62244 41.874489
-14.732889 60.27383 44.20005
-19.666733 47.752224 48.181389
-18.462198 46.748142 50.318314
-13.580517 51.508564 53.459827
-14.685382 52.372295 50.932686
-12.791397 55.257572 51.25293
-12.085489 58.940456 48.950336
-10.864468 58.042744 51.426556
-9.682203 56.934078 53.892632
-12.922161 32.150352 68.830841
-11.089653 34.267361 69.382034
-10.472343 38.282745 67.487244
-30.31991 30.753471 56.935623
-28.176508 32.012226 56.133369
-26.045979 33.463245 55.376587
-31.374733 43.678513 47.140656
-33.028664 45.168789 45.465004
-19.868202 55.417927 42.181442
-18.428881 54.686268 44.128777
-18.130398 42.130783 54.699787
-17.343182 45.807606 52.644558
-16.276241 44.894199 55.115429
-14.406911 47.728062 55.595318
-12.489809 50.521183 56.020428
-10.516706 53.16608 56.28167
-11.375002 49.344379 58.546688
-34.276031 39.609505 50.12421
-33.40593 34.79425 54.095306
-32.752411 37.85001 51.822315
-32.063313 40.812542 49.485558
-29.779018 42.019867 48.693089
-27.485455 43.34074 47.866856
-25.232464 44.873943 47.126823
-23.05616 46.690868 46.568878
-23.795561 43.391975 48.716702
-22.452724 41.983284 50.447624
-21.196209 40.695854 52.360172
-23.962698 35.182251 54.796532
-21.949106 37.209682 54.481735
-20.010223 39.54174 54.460712
-18.870214 38.491096 56.724365
-17.745728 37.478085 59.105507
-16.606293 36.416103 61.551064
-17.494347 64.134796 37.638988
-15.793173 66.917618 37.242657
-20.976265 48.822857 46.244591
-18.993053 51.256138 46.150719
-17.087086 53.935635 46.231789
-16.563972 49.498753 50.581085
-15.844123 53.16901 48.506454
-15.224787 56.77557 46.394001
-13.369875 59.672771 46.525284
-11.497942 62.518772 46.51532
-15.428228 35.217247 64.011841
-13.651785 37.716816 64.664703
-11.758228 40.09074 65.171082
-26.440251 47.830349 44.505314
-25.64986 47.183018 45.282723
-21.521989 30.785076 59.351376
-22.230621 31.444744 58.482079
-20.657127 31.926628 59.474865
-21.521989 30.785076 59.351376
-34.451971 43.152614 46.87792
-34.724443 41.795406 48.02646
-18.85125 44.939016 51.351674
-19.439514 45.483612 50.284354
-19.828565 43.674486 51.317713
-10.421663 33.196224 70.478203
-11.348574 32.245781 70.257378
-10.119692 35.224371 69.529175
-10.421663 33.196224 70.478203
-29.515487 29.762579 57.544815
-30.559914 29.13628 57.888134
-28.443785 30.391956 57.143688
-29.248209 31.382849 56.534496
-29.515487 29.762579 57.544815
-27.404008 31.098818 56.795803
-28.443785 30.391956 57.143688
-29.888647 45.69727 45.59277
-31.045505 45.061839 45.976189
-30.217875 44.313944 46.757237
-20.116166 53.794556 43.19709
-20.853962 54.253605 42.300245
-19.396505 53.428726 44.170758
-19.148542 55.052098 43.155109
-20.116166 53.794556 43.19709
-11.210688 46.702728 60.842046
-11.615772 44.754654 61.919841
-34.583637 38.13454 51.26325
-35.309942 38.95868 50.317228
-32.645095 33.793419 54.846315
-33.697329 33.222368 55.158414
-32.936494 32.221536 55.909424
-24.278005 33.509201 55.843744
-25.004338 34.322748 55.086559
-25.319645 32.649698 56.133772
-33.87579 45.815506 44.551986
-32.734189 46.478138 44.296864
-19.36146 60.002418 39.017738
-20.27074 58.772487 39.157288
-16.707321 64.038443 38.672821
-17.588105 62.64712 38.77905
-16.801078 62.550766 39.812883
-15.043112 65.364035 39.539816
-14.979551 66.851799 38.307817
-15.856734 65.429854 38.474655
-13.477515 65.047395 41.736404
-13.64048 63.388572 43.011753
-10.835723 62.102951 47.725451
-11.791716 60.729614 47.732828
-11.129497 60.313793 48.942959
-10.553636 63.86342 46.393013
-10.835723 62.102951 47.725451
-9.51552 54.365741 56.285037
-9.939236 52.467999 57.492638
-15.651158 33.302519 64.850563
-16.266945 33.947094 63.657832
-13.298451 34.971172 66.76025
-13.560944 32.980178 67.639645
-12.659667 34.141345 67.951447
-13.024479 36.924577 65.868378
-13.925757 35.76341 65.556576
-13.298451 34.971172 66.76025
-10.119763 40.272224 66.471985
-9.472729 39.240173 67.562455
-27.579206 47.075669 44.850384
-28.726911 46.369495 45.231957
-27.913311 45.655548 45.992244
-27.579206 47.075669 44.850384
-26.440251 47.830349 44.505314
-12.000957 42.815644 62.941225
-11.615772 44.754654 61.919841
-12.595747 43.549228 61.72183
-22.887919 32.075164 57.531566
-23.606085 32.804035 56.723873
-21.96156 33.141498 57.507301
-22.887919 32.075164 57.531566
-22.230621 31.444744 58.482079
-19.760233 33.119459 59.583077
-20.407369 33.703909 58.566024
-20.657127 31.926628 59.474865
-19.161769 32.580413 60.722597
-18.912011 34.357695 59.813757
-19.760233 33.119459 59.583077
-17.836467 59.579555 40.993848
-18.587244 59.844066 40.01067
-18.741849 58.264179 41.085405
-16.928393 60.962108 40.959156
-17.836467 59.579555 40.993848
-17.082997 59.382221 42.033891
-16.047609 62.353431 40.852926
-16.801078 62.550766 39.812883
-16.928393 60.962108 40.959156
-13.816827 61.714267 44.174533
-13.64048 63.388572 43.011753
-14.556542 61.948135 43.037269
-20.041781 45.985653 49.215891
-20.675673 46.582771 48.249168
-21.050721 44.816201 49.28367
-19.064466 47.250183 49.249852
-20.041781 45.985653 49.215891
-19.439514 45.483612 50.284354
-10.518986 59.864937 50.181068
-11.129497 60.313793 48.942959
-11.474979 58.4916 50.188446
-9.890668 59.332848 51.391232
-10.518986 59.864937 50.181068
-9.299535 58.778515 52.624269
-9.890668 59.332848 51.391232
-10.273335 57.488411 52.659594
-8.696971 58.109375 53.805307
-9.299535 58.778515 52.624269
-12.264827 31.187276 69.981781
-13.124838 30.149803 69.633255
-12.005907 33.208856 69.106437
-12.264827 31.187276 69.981781
-11.348574 32.245781 70.257378
-9.811037 37.232063 68.58178
-10.780998 36.275053 68.434639
-10.119692 35.224371 69.529175
-9.472729 39.240173 67.562455
-9.811037 37.232063 68.58178
-32.159402 31.192093 56.616917
-32.936494 32.221536 55.909424
-31.377227 30.172535 57.286066
-31.617232 28.555344 58.238577
-30.559914 29.13628 57.888134
-31.102085 31.773029 56.266474
-32.159402 31.192093 56.616917
-31.377227 30.172535 57.286066
-26.338743 31.824328 56.417412
-27.111244 32.737735 55.754978
-27.404008 31.098818 56.795803
-25.319645 32.649698 56.133772
-26.338743 31.824328 56.417412
-31.872471 45.806976 45.138363
-32.201698 44.423651 46.30283
-31.045505 45.061839 45.976189
-32.734189 46.478138 44.296864
-31.872471 45.806976 45.138363
-29.888647 45.69727 45.59277
-28.726911 46.369495 45.231957
-20.442715 57.326088 40.222826
-20.27074 58.772487 39.157288
-20.630503 55.770707 41.262434
-20.853962 54.253605 42.300245
-19.680414 56.973309 41.141834
-20.442715 57.326088 40.222826
-20.630503 55.770707 41.262434
-10.368385 50.557148 58.625147
-9.939236 52.467999 57.492638
-10.945854 51.255229 57.414179
-10.792908 48.630798 59.765167
-11.792782 47.416309 59.623568
-11.210688 46.702728 60.842046
-10.368385 50.557148 58.625147
-10.792908 48.630798 59.765167
-35.039181 40.377659 49.188676
-35.309942 38.95868 50.317228
-33.961294 41.027253 48.961994
-34.724443 41.795406 48.02646
-35.039181 40.377659 49.188676
-34.434781 34.195704 54.333005
-33.697329 33.222368 55.158414
-34.148587 35.726913 53.248798
-34.434781 34.195704 54.333005
-33.821827 37.254793 52.112302
-34.148587 35.726913 53.248798
-33.079171 36.32213 52.95881
-33.514221 38.729757 50.973263
-34.583637 38.13454 51.26325
-33.821827 37.254793 52.112302
-24.88329 46.439128 46.040798
-25.64986 47.183018 45.282723
-25.999035 45.617832 46.368747
-24.144312 45.782405 46.84785
-23.795137 47.347591 45.761826
-24.88329 46.439128 46.040798
-21.434777 43.101183 50.349008
-21.050721 44.816201 49.28367
-22.068668 43.698301 49.382286
-20.80652 42.457468 51.305283
-21.434777 43.101183 50.349008
-21.824466 41.339569 51.403898
-20.218255 41.912872 52.372602
-19.828565 43.674486 51.317713
-20.80652 42.457468 51.305283
-23.290778 34.477085 55.67666
-24.278005 33.509201 55.843744
-23.606085 32.804035 56.723873
-34.143024 44.514509 45.710533
-34.451971 43.152614 46.87792
-33.33761 43.806894 46.632391
-34.143024 44.514509 45.710533
-33.87579 45.815506 44.551986
-19.36146 60.002418 39.017738
-18.587244 59.844066 40.01067
-18.36232 62.805471 37.786119
-17.588105 62.64712 38.77905
-18.282597 64.184936 36.645742
-18.36232 62.805471 37.786119
-17.457507 65.515945 36.422872
-18.282597 64.184936 36.645742
-16.60692 66.907356 36.224707
-17.457507 65.515945 36.422872
-16.64376 65.526207 37.440822
-15.789533 68.29068 35.916598
-16.60692 66.907356 36.224707
-14.937634 68.32631 36.955107
-15.789533 68.29068 35.916598
-14.937634 68.32631 36.955107
-14.979551 66.851799 38.307817
-14.273062 65.20421 40.623734
-15.043112 65.364035 39.539816
-15.150245 63.782264 40.790571
-14.273062 65.20421 40.623734
-13.477515 65.047395 41.736404
-22.726281 48.313 45.524307
-23.795137 47.347591 45.761826
-21.686333 49.378994 45.362164
-22.726281 48.313 45.524307
-22.016213 47.756862 46.406734
-20.670198 50.497021 45.228665
-21.686333 49.378994 45.362164
-19.678591 51.713662 45.181729
-20.670198 50.497021 45.228665
-19.984659 50.039497 46.197655
-18.710967 52.971203 45.139748
-19.396505 53.428726 44.170758
-19.678591 51.713662 45.181729
-13.13532 61.413738 45.33715
-13.816827 61.714267 44.174533
-14.051382 59.9733 45.362667
-12.199353 62.836738 45.332169
-13.13532 61.413738 45.33715
-12.433909 61.095771 46.520302
-11.273851 64.23662 45.211369
-12.199353 62.836738 45.332169
-11.273851 64.23662 45.211369
-10.553636 63.86342 46.393013
-9.098268 56.249741 55.090518
-10.099455 55.050079 55.087151
-9.51552 54.365741 56.285037
-8.696971 58.109375 53.805307
-9.098268 56.249741 55.090518
-18.520507 32.000496 61.797384
-19.161769 32.580413 60.722597
-17.709605 33.247795 62.12855
-18.520507 32.000496 61.797384
-16.855978 34.546522 62.427443
-17.45992 35.117376 61.252171
-17.709605 33.247795 62.12855
-16.01726 35.816675 62.781453
-16.855978 34.546522 62.427443
-16.266945 33.947094 63.657832
-13.768085 31.019853 68.453942
-13.124838 30.149803 69.633255
-13.768085 31.019853 68.453942
-13.560944 32.980178 67.639645
-14.813978 34.513626 65.230144
-15.651158 33.302519 64.850563
-14.540007 36.467032 64.338272
-14.813978 34.513626 65.230144
-13.925757 35.76341 65.556576
-11.389605 42.055904 64.155159
-12.000957 42.815644 62.941225
-12.36958 40.850479 63.957148
-10.762705 41.176221 65.313904
-11.115286 39.186742 66.329163
-10.119763 40.272224 66.471985
-11.389605 42.055904 64.155159
-10.762705 41.176221 65.313904
3 98 97 22
3 0 25 23
3 0 27 25
3 2 30 28
3 2 32 30
3 2 34 32
3 99 36 100
3 102 101 36
3 1 103 104
3 4 39 38
3 4 41 39
3 3 105 107
3 105 43 106
3 105 106 107
3 5 46 44
3 5 48 46
3 5 49 48
3 108 51 109
3 111 110 51
3 112 53 113
3 114 54 115
3 116 115 53
3 114 115 116
3 118 117 54
3 7 119 121
3 121 120 56
3 119 120 121
3 122 58 123
3 124 59 125
3 126 125 58
3 124 125 126
3 9 62 60
3 11 63 24
3 11 64 63
3 11 66 64
3 128 127 26
3 129 67 130
3 6 131 133
3 131 68 132
3 131 132 133
3 12 69 29
3 12 70 69
3 12 71 70
3 13 72 31
3 13 73 72
3 13 75 73
3 15 76 33
3 15 77 76
3 134 78 135
3 136 135 55
3 134 135 136
3 16 79 35
3 16 80 79
3 16 81 80
3 17 82 37
3 17 83 82
3 138 137 57
3 8 139 140
3 18 141 143
3 141 84 142
3 141 142 143
3 18 85 84
3 18 144 146
3 146 145 85
3 144 145 146
3 148 147 40
3 14 86 74
3 19 87 42
3 19 88 87
3 10 89 61
3 20 90 45
3 20 91 90
3 20 92 91
3 149 93 150
3 151 150 47
3 149 150 151
3 153 152 93
3 155 154 65
3 156 94 157
3 21 158 160
3 160 159 50
3 158 159 160
3 21 161 163
3 161 95 162
3 161 162 163
3 21 96 95
3 165 164 52
3 22 166 168
3 168 167 7
3 166 167 168
3 170 169 22
3 23 24 9
3 25 24 23
3 25 11 24
3 25 26 11
3 27 26 25
3 27 171 173
3 173 172 26
3 171 172 173
3 28 29 6
3 30 29 28
3 30 12 29
3 30 31 12
3 32 31 30
3 32 13 31
3 32 33 13
3 34 33 32
3 34 15 33
3 174 35 175
3 36 176 178
3 176 35 177
3 176 177 178
3 36 16 35
3 36 37 16
3 179 37 180
3 181 180 36
3 179 180 181
3 182 17 183
3 184 183 37
3 182 183 184
3 38 185 187
3 187 186 8
3 185 186 187
3 39 188 190
3 190 189 38
3 188 189 190
3 39 191 193
3 191 18 192
3 191 192 193
3 39 40 18
3 41 40 39
3 41 194 196
3 196 195 40
3 194 195 196
3 197 42 198
3 199 198 14
3 197 198 199
3 43 200 202
3 200 42 201
3 200 201 202
3 43 19 42
3 44 45 10
3 46 45 44
3 46 20 45
3 46 47 20
3 48 47 46
3 48 203 205
3 205 204 47
3 203 204 205
3 48 206 207
3 49 208 210
3 210 209 48
3 208 209 210
3 49 211 212
3 213 50 214
3 51 215 217
3 215 50 216
3 215 216 217
3 51 21 50
3 51 52 21
3 218 52 219
3 220 219 51
3 218 219 220
3 222 221 52
3 223 6 224
3 53 225 227
3 225 226 227
3 53 228 230
3 228 6 229
3 228 229 230
3 53 28 6
3 54 28 53
3 54 2 28
3 54 55 2
3 231 55 232
3 233 232 54
3 231 232 233
3 235 234 55
3 56 57 1
3 236 57 237
3 238 237 56
3 236 237 238
3 240 239 57
3 242 241 7
3 243 8 244
3 58 245 246
3 58 247 249
3 247 8 248
3 247 248 249
3 58 38 8
3 59 38 58
3 59 4 38
3 60 61 3
3 62 61 60
3 62 10 61
3 24 62 9
3 63 62 24
3 63 10 62
3 63 44 10
3 64 44 63
3 64 5 44
3 64 65 5
3 66 65 64
3 66 250 252
3 252 251 65
3 250 251 252
3 26 66 11
3 253 66 254
3 255 254 26
3 253 254 255
3 257 256 66
3 67 258 259
3 67 260 262
3 260 1 261
3 260 261 262
3 68 263 264
3 68 265 266
3 29 68 6
3 69 68 29
3 69 267 269
3 269 268 68
3 267 268 269
3 69 270 272
3 270 67 271
3 270 271 272
3 70 67 69
3 70 1 67
3 70 56 1
3 71 56 70
3 71 7 56
3 31 71 12
3 72 71 31
3 72 7 71
3 72 22 7
3 73 22 72
3 73 273 275
3 275 274 22
3 273 274 275
3 73 276 278
3 276 74 277
3 276 277 278
3 75 74 73
3 75 14 74
3 33 75 13
3 76 75 33
3 76 14 75
3 76 279 281
3 281 280 14
3 279 280 281
3 77 282 284
3 284 283 76
3 282 283 284
3 77 285 287
3 285 3 286
3 285 286 287
3 55 34 2
3 78 34 55
3 78 15 34
3 35 288 290
3 288 78 289
3 288 289 290
3 79 78 35
3 79 15 78
3 79 77 15
3 80 77 79
3 80 3 77
3 80 60 3
3 81 60 80
3 81 9 60
3 37 81 16
3 82 81 37
3 82 9 81
3 82 23 9
3 83 23 82
3 83 0 23
3 57 291 293
3 293 292 1
3 291 292 293
3 295 294 57
3 297 296 8
3 84 298 299
3 84 300 301
3 84 302 303
3 85 304 306
3 306 305 84
3 304 305 306
3 85 307 308
3 85 309 310
3 312 311 85
3 40 313 315
3 315 314 18
3 313 314 315
3 317 316 40
3 74 318 319
3 86 320 322
3 322 321 74
3 320 321 322
3 86 323 324
3 42 86 14
3 87 86 42
3 87 325 327
3 327 326 86
3 325 326 327
3 87 328 330
3 328 59 329
3 328 329 330
3 88 59 87
3 88 4 59
3 61 43 3
3 89 43 61
3 89 19 43
3 45 89 10
3 90 89 45
3 90 19 89
3 90 88 19
3 91 88 90
3 91 4 88
3 91 41 4
3 92 41 91
3 92 331 333
3 333 332 41
3 331 332 333
3 47 92 20
3 93 92 47
3 93 334 336
3 336 335 92
3 334 335 336
3 93 337 338
3 340 339 93
3 65 49 5
3 341 49 342
3 343 342 65
3 341 342 343
3 345 344 49
3 346 17 347
3 348 17 349
3 350 83 351
3 352 351 17
3 350 351 352
3 94 353 355
3 353 83 354
3 353 354 355
3 94 0 83
3 50 356 357
3 359 358 50
3 360 94 361
3 95 362 364
3 362 94 363
3 362 363 364
3 95 0 94
3 95 27 0
3 96 27 95
3 96 365 367
3 367 366 27
3 365 366 367
3 52 96 21
3 368 96 369
3 370 369 52
3 368 369 370
3 372 371 96
