ply
format ascii 1.0
element vertex 236
property float x
property float y
property float z
element face 179
property list uchar int vertex_index
end_header
-48.178932 -89.137756 11.331538
-49.385509 -74.026253 16.132332
-49.334381 -84.417664 10.238631
-43.660095 -100.285309 16.486593
-45.867462 -95.605682 17.087057
-46.984528 -90.869705 16.664846
-47.616196 -86.164597 15.537721
-48.500832 -81.537582 14.096596
-50.135761 -82.114281 9.62624
-50.464432 -83.453247 7.761547
-46.533714 -93.238617 16.990099
-47.990433 -83.84111 14.83821
-47.678932 -91.541428 11.739542
-47.657463 -93.084869 9.495378
-48.279331 -90.629501 9.204854
-48.72464 -77.751831 15.187735
-48.699631 -86.759003 10.81653
-48.886787 -88.192307 8.78968
-49.591175 -85.796478 8.2969
-31.786509 -96.328384 33.896431
-33.039711 -98.605087 31.937052
-41.208359 -103.213745 17.965801
-45.62426 -97.154968 14.474139
-46.281319 -96.351471 12.033022
-46.49181 -94.782898 14.524769
-47.104401 -92.400742 14.339523
-47.553459 -90.020172 13.960375
-47.947044 -87.654007 13.440247
-48.388138 -85.312759 12.830118
-48.954239 -83.00032 12.16889
-44.919983 -97.959259 16.921373
-46.895004 -95.53241 9.612835
-49.180336 -79.246735 13.329049
-50.830689 -81.634983 8.413463
-50.622275 -80.974495 9.307828
-48.912874 -75.151607 16.593893
-48.917124 -74.454594 17.526968
-49.486289 -74.746715 15.229776
-48.912874 -75.151607 16.593893
-50.549309 -84.099724 6.818506
-51.118782 -82.926674 6.573222
-33.826179 -98.617424 32.736669
-33.179729 -97.615471 33.691459
-42.875387 -101.425881 16.148495
-43.240844 -100.655159 17.633847
-47.463881 -87.3368 15.850065
-47.304631 -86.582634 16.943831
-47.78162 -86.909302 14.488984
-47.629305 -88.081505 14.801328
-47.463881 -87.3368 15.850065
-49.092719 -81.124168 12.787431
-49.319422 -81.855537 11.823578
-48.727536 -82.268951 13.132743
-45.393723 -96.782471 17.004215
-45.055672 -97.193543 18.289463
-45.529411 -96.016754 18.372305
-46.989528 -94.742088 10.800914
-46.588161 -95.941941 10.822928
-46.682686 -95.151619 12.011007
-47.56202 -93.874237 8.360235
-47.941719 -92.615959 8.274944
-48.907249 -88.913262 7.76621
-49.292943 -87.675744 7.563025
-49.605083 -78.101677 12.933759
-48.952488 -78.499283 14.258392
-49.377235 -77.354225 13.863102
-49.879505 -78.837559 12.046225
-49.605083 -78.101677 12.933759
-30.99121 -96.120948 33.198662
-31.592036 -97.355827 32.16448
-40.277663 -104.250275 17.475978
-40.724478 -103.997894 16.459881
-50.995024 -82.304466 7.481117
-50.300097 -82.783764 8.693893
-50.830689 -81.634983 8.413463
-51.649374 -81.777893 6.292791
-51.118782 -82.926674 6.573222
-50.995024 -82.304466 7.481117
-43.295919 -101.059853 15.05473
-44.051827 -99.896606 15.327824
-46.236644 -93.656739 18.330824
-46.200588 -94.42215 17.038578
-45.903519 -94.840271 18.379303
-46.48648 -92.475273 18.207885
-46.236644 -93.656739 18.330824
-46.711888 -91.290817 18.045259
-46.759121 -92.054161 16.827472
-46.48648 -92.475273 18.207885
-47.42492 -85.414872 16.583505
-47.304631 -86.582634 16.943831
-47.612038 -84.253128 16.233749
-47.803314 -85.002854 15.187966
-47.42492 -85.414872 16.583505
-47.778572 -83.093815 15.842384
-47.612038 -84.253128 16.233749
-48.033772 -81.94205 15.471577
-48.245632 -82.689346 14.467403
-47.778572 -83.093815 15.842384
-45.903519 -94.840271 18.379303
-45.529411 -96.016754 18.372305
-47.668198 -92.313148 10.61746
-47.370758 -93.518318 10.742185
-47.381493 -92.746598 11.864267
-48.252653 -91.388275 8.129682
-47.941719 -92.615959 8.274944
-47.968397 -91.857185 9.350116
-48.582439 -77.014397 16.121595
-48.220123 -78.152107 16.576149
-49.155855 -76.609504 14.757478
-48.582439 -77.014397 16.121595
-49.80845 -76.211899 13.432845
-49.377235 -77.354225 13.863102
-49.155855 -76.609504 14.757478
-49.645138 -86.477829 7.316635
-49.292943 -87.675744 7.563025
-49.238981 -86.994393 8.54329
-50.11268 -85.271339 7.086182
-50.027804 -84.624863 8.029224
-50.549309 -84.099724 6.818506
-49.645138 -86.477829 7.316635
-50.11268 -85.271339 7.086182
-49.463888 -73.364422 17.037752
-48.917124 -74.454594 17.526968
-32.553128 -96.477119 34.671149
-31.927267 -95.319557 35.610271
-32.41311 -97.466735 32.916742
-32.553128 -96.477119 34.671149
-33.179729 -97.615471 33.691459
-32.218637 -98.494179 31.18479
-31.592036 -97.355827 32.16448
-32.41311 -97.466735 32.916742
-33.679794 -99.577377 30.969345
-33.826179 -98.617424 32.736669
-32.830074 -99.608329 30.196317
-33.679794 -99.577377 30.969345
-32.218637 -98.494179 31.18479
-32.830074 -99.608329 30.196317
-42.014977 -102.119377 18.373451
-41.557142 -102.436805 19.502923
-41.649519 -102.890098 16.888099
-42.014977 -102.119377 18.373451
-40.724478 -103.997894 16.459881
-41.649519 -102.890098 16.888099
-42.875387 -101.425881 16.148495
-43.295919 -101.059853 15.05473
-45.95279 -96.75322 13.25358
-45.732678 -97.540306 11.937743
-45.404148 -97.942054 13.158301
-46.787931 -94.367333 13.25688
-46.682686 -95.151619 12.011007
-46.386565 -95.567184 13.278896
-47.094227 -93.176254 13.164257
-46.787931 -94.367333 13.25688
-46.798106 -93.59182 14.432146
-47.391666 -91.971085 13.039532
-47.381493 -92.746598 11.864267
-47.094227 -93.176254 13.164257
-46.872379 -90.110458 17.815675
-46.711888 -91.290817 18.045259
-47.148046 -89.689354 16.413628
-46.872379 -90.110458 17.815675
-47.432512 -89.264588 15.061392
-47.268993 -90.444939 15.312611
-47.148046 -89.689354 16.413628
-47.750251 -88.837089 13.700311
-47.432512 -89.264588 15.061392
-47.629305 -88.081505 14.801328
-49.910183 -81.412518 10.552253
-49.545 -82.5573 10.897565
-49.319422 -81.855537 11.823578
-50.622275 -80.974495 9.307828
-49.910183 -81.412518 10.552253
-43.907471 -99.519073 17.92265
-43.240844 -100.655159 17.633847
-44.537414 -98.356048 18.14004
-45.055672 -97.193543 18.289463
-44.290039 -99.122284 16.703983
-43.907471 -99.519073 17.92265
-44.537414 -98.356048 18.14004
-44.68177 -98.733581 15.545215
-44.051827 -99.896606 15.327824
-44.290039 -99.122284 16.703983
-45.033909 -98.331436 14.321597
-44.68177 -98.733581 15.545215
-45.272121 -97.557113 15.697756
-45.404148 -97.942054 13.158301
-45.033909 -98.331436 14.321597
-46.080347 -97.151748 10.776601
-45.732678 -97.540306 11.937743
-46.38719 -96.742218 9.566507
-46.080347 -97.151748 10.776601
-46.588161 -95.941941 10.822928
-46.706813 -96.342087 8.412955
-46.38719 -96.742218 9.566507
-47.276234 -94.308639 9.554106
-46.989528 -94.742088 10.800914
-47.370758 -93.518318 10.742185
-47.18079 -95.098007 8.418964
-47.276234 -94.308639 9.554106
-47.56202 -93.874237 8.360235
-46.706813 -96.342087 8.412955
-47.18079 -95.098007 8.418964
-48.603521 -90.131858 7.973796
-48.583059 -89.410904 8.997267
-48.907249 -88.913262 7.76621
-48.252653 -91.388275 8.129682
-48.603521 -90.131858 7.973796
-48.276968 -80.790493 15.062562
-48.033772 -81.94205 15.471577
-48.388872 -78.897617 15.608132
-48.220123 -78.152107 16.576149
-48.61672 -79.64507 14.678788
-48.388872 -78.897617 15.608132
-48.952488 -78.499283 14.258392
-48.840584 -80.392158 13.712822
-48.276968 -80.790493 15.062562
-48.61672 -79.64507 14.678788
-49.43247 -79.978745 12.403657
-49.092719 -81.124168 12.787431
-48.840584 -80.392158 13.712822
-49.43247 -79.978745 12.403657
-49.879505 -78.837559 12.046225
-49.965542 -72.916233 15.665809
-49.463888 -73.364422 17.037752
-50.007193 -73.606651 14.789673
-49.965542 -72.916233 15.665809
-49.486289 -74.746715 15.229776
-50.007193 -73.606651 14.789673
-31.176812 -95.081604 34.898041
-31.927267 -95.319557 35.610271
-31.176812 -95.081604 34.898041
-30.99121 -96.120948 33.198662
-40.733969 -103.450882 19.022029
-41.557142 -102.436805 19.502923
-40.733969 -103.450882 19.022029
-40.277663 -104.250275 17.475978
3 34 33 8
3 0 14 12
3 1 35 36
3 1 37 38
3 2 18 16
3 40 39 9
3 41 20 42
3 3 43 44
3 4 24 22
3 5 25 10
3 5 26 25
3 6 45 46
3 6 47 49
3 47 27 48
3 47 48 49
3 6 28 27
3 7 29 11
3 7 50 52
3 52 51 29
3 50 51 52
3 4 53 55
3 53 30 54
3 53 54 55
3 4 22 30
3 56 31 57
3 58 57 23
3 56 57 58
3 60 59 13
3 62 61 17
3 63 32 64
3 65 64 15
3 63 64 65
3 67 66 32
3 69 68 19
3 71 70 21
3 8 9 2
3 72 9 73
3 74 73 8
3 72 73 74
3 77 76 9
3 75 76 77
3 79 78 3
3 80 10 81
3 82 81 4
3 80 81 82
3 83 10 84
3 85 5 86
3 87 86 10
3 85 86 87
3 88 6 89
3 90 11 91
3 92 91 6
3 90 91 92
3 93 11 94
3 95 7 96
3 97 96 11
3 95 96 97
3 98 4 99
3 12 100 102
3 100 13 101
3 100 101 102
3 14 13 12
3 14 103 105
3 105 104 13
3 103 104 105
3 106 15 107
3 108 15 109
3 112 111 15
3 110 111 112
3 16 17 0
3 18 17 16
3 18 113 115
3 115 114 17
3 113 114 115
3 9 18 2
3 116 18 117
3 118 117 9
3 116 117 118
3 120 119 18
3 121 1 122
3 123 19 124
3 20 125 127
3 125 19 126
3 125 126 127
3 20 128 130
3 130 129 19
3 128 129 130
3 131 20 132
3 133 20 134
3 136 135 20
3 137 21 138
3 139 21 140
3 142 141 21
3 144 143 3
3 22 145 147
3 145 23 146
3 145 146 147
3 24 23 22
3 24 148 150
3 150 149 23
3 148 149 150
3 10 24 4
3 25 24 10
3 25 151 153
3 153 152 24
3 151 152 153
3 25 154 156
3 154 12 155
3 154 155 156
3 26 12 25
3 26 0 12
3 157 5 158
3 159 5 160
3 161 26 162
3 163 162 5
3 161 162 163
3 27 164 166
3 164 26 165
3 164 165 166
3 27 0 26
3 27 16 0
3 28 16 27
3 28 2 16
3 11 28 6
3 29 28 11
3 29 2 28
3 29 8 2
3 167 8 168
3 169 168 29
3 167 168 169
3 171 170 8
3 172 3 173
3 30 174 175
3 30 176 178
3 176 3 177
3 176 177 178
3 30 179 181
3 181 180 3
3 179 180 181
3 22 182 184
3 184 183 30
3 182 183 184
3 22 185 186
3 23 187 188
3 31 189 191
3 191 190 23
3 189 190 191
3 31 192 193
3 13 194 196
3 194 31 195
3 194 195 196
3 197 31 198
3 199 198 13
3 197 198 199
3 201 200 31
3 17 14 0
3 202 14 203
3 204 203 17
3 202 203 204
3 206 205 14
3 207 7 208
3 15 209 210
3 32 211 213
3 213 212 15
3 211 212 213
3 32 214 216
3 214 7 215
3 214 215 216
3 32 217 219
3 219 218 7
3 217 218 219
3 221 220 32
3 222 1 223
3 224 1 225
3 227 226 1
3 19 228 229
3 231 230 19
3 21 232 233
3 235 234 21
