ply
format ascii 1.0
element vertex 267
property float x
property float y
property float z
element face 259
property list uchar int vertex_index
end_header
-1.479315 80.363708 -3.589859
3.022797 54.22295 -14.312969
-0.003195 68.215622 -10.65538
1.607151 62.96619 -23.496674
-0.914957 74.550476 -7.464031
-0.558563 69.393494 -3.742357
-1.337069 75.130692 -0.104776
-2.036217 84.668411 -6.995155
-0.992111 79.376511 -11.099203
-0.209791 73.008392 -14.596758
4.581264 46.177761 -14.629206
1.943552 58.668644 -19.034969
2.570744 54.929028 -24.480408
3.225574 50.712337 -19.631618
1.387388 61.495144 -12.986744
2.849934 56.776836 -8.498795
0.92247 63.345654 -6.581097
0.740891 66.059937 -17.304745
-1.214041 77.547653 -5.60041
-1.161783 74.963409 -3.813061
-1.40435 77.819473 -1.849602
-1.65386 82.680588 -5.315683
-1.445667 82.199738 -9.110497
-1.271955 79.990219 -7.374287
-0.943398 77.036758 -9.297697
3.828182 50.306995 -14.587454
2.37875 56.472858 -16.692478
2.588493 54.773716 -19.47905
3.112999 52.582767 -17.044579
3.820892 48.502277 -17.129166
0.641258 64.909775 -11.939058
1.151491 62.550152 -9.824078
0.360023 65.791702 -8.639843
-0.174744 70.628525 -12.641994
0.230726 69.589966 -16.060778
0.343882 67.255737 -14.017904
0.959192 63.783344 -15.165951
-2.889051 86.840714 3.034921
-3.86339 88.245239 1.382722
-2.889154 86.89798 -0.906799
3.031567 50.686314 -24.492657
-0.521723 71.430054 -9.156481
-0.300957 68.931656 -7.230274
-0.806751 71.989929 -5.614367
-1.0345 72.300568 -2.013386
-1.19026 81.470215 -12.827696
-0.663225 78.517258 -14.745581
-0.212112 75.29599 -16.492111
-0.602009 76.287918 -12.935596
-0.595274 73.898102 -11.061159
1.706623 60.834721 -21.317112
2.091309 59.014515 -24.14489
2.261387 56.914043 -21.861206
2.816257 52.847416 -22.099442
3.352524 48.607868 -22.033524
3.83374 46.460247 -19.50906
2.195873 57.943264 -13.781096
2.943401 55.626186 -11.460716
2.029711 59.17384 -10.767313
1.857929 60.147015 -7.659634
1.654924 60.843464 -4.459139
0.101416 66.41539 -5.270773
1.130173 66.795944 -22.559242
0.221403 71.878235 -18.045509
0.677296 68.314316 -19.383877
1.173218 64.63121 -20.483128
1.318369 62.423382 -18.304142
1.648808 60.197186 -16.063597
-1.791332 82.916245 -1.45974
-1.603445 80.495071 0.249343
-2.830853 86.690063 -4.781914
-2.169081 85.014999 -3.149744
3.433173 53.049076 -13.110109
3.835865 51.091099 -13.247352
3.42549 52.264972 -14.450211
-2.856291 86.67392 5.036653
-3.34477 87.434799 4.185484
-3.831939 88.137062 3.359384
-4.48651 88.620323 2.537153
-3.34477 87.434799 4.185484
-3.37622 87.542977 2.208821
-3.831939 88.137062 3.359384
1.798882 62.010955 -24.881546
1.572364 63.995332 -24.504278
3.324657 47.267506 -25.388958
3.108295 49.481862 -25.538226
3.247929 48.471958 -24.34339
-1.274309 73.741913 0.774788
-1.123024 72.326851 -0.179517
-1.185785 73.71563 -1.059081
-1.948135 84.368484 -8.878844
-2.29737 85.145454 -9.670096
-2.385452 85.445381 -7.786407
5.017471 44.934359 -13.393917
4.921803 44.005612 -14.557091
4.531239 45.196861 -15.80367
4.151053 46.359119 -17.05365
4.201078 47.340019 -15.879186
4.921803 44.005612 -14.557091
4.531239 45.196861 -15.80367
0.896326 68.647469 -21.959575
1.096277 67.826851 -23.514511
-1.819451 82.909318 0.496669
-2.013756 84.012146 -0.350217
-3.353772 87.436111 -3.641409
-3.344619 87.27034 -5.542568
-2.202631 85.061523 -1.195219
-2.529117 85.95649 -2.028272
-2.562667 86.003014 -0.073746
-2.013756 84.012146 -0.350217
-1.980206 83.965622 -2.304742
-2.202631 85.061523 -1.195219
3.345308 54.98674 -8.799851
3.392042 54.411415 -10.280812
2.896668 56.201511 -9.979755
-1.558651 79.170425 1.103908
-1.623579 80.435737 2.197912
2.495693 55.941174 -25.593382
2.255976 57.983918 -25.425623
2.331027 56.971772 -24.312649
4.259012 49.103043 -13.357057
4.635553 47.038426 -13.377934
4.204723 48.242378 -14.60833
4.259012 49.103043 -13.357057
3.835865 51.091099 -13.247352
-0.35419 68.080582 -2.784764
-0.672438 69.492134 -1.963613
-2.558703 85.890336 3.881292
-2.562616 85.97438 1.897114
-2.558703 85.890336 3.881292
-2.856291 86.67392 5.036653
-4.527261 88.664367 0.601085
-4.48651 88.620323 2.537153
-3.870041 88.213699 -0.559091
-4.527261 88.664367 0.601085
-3.376272 87.571609 0.237961
-3.382923 87.54007 -1.703851
-3.870041 88.213699 -0.559091
-2.562616 85.97438 1.897114
-2.562667 86.003014 -0.073746
-2.889102 86.869347 1.064061
3.318544 55.515079 -7.336672
2.78135 57.215812 -6.964951
2.926186 51.69442 -25.652523
2.695774 53.815777 -25.646399
2.801156 52.807671 -24.486533
2.926186 51.69442 -25.652523
3.108295 49.481862 -25.538226
-0.910407 70.945672 -1.099128
-0.672438 69.492134 -1.963613
-0.796531 70.847031 -2.877872
-0.910407 70.945672 -1.099128
-1.123024 72.326851 -0.179517
-1.652859 83.134148 -9.936515
-1.948135 84.368484 -8.878844
-1.740942 83.434075 -8.052826
-1.525156 82.769386 -11.795115
-1.652859 83.134148 -9.936515
-1.317964 81.834976 -10.969096
-1.43311 82.338539 -13.624941
-1.525156 82.769386 -11.795115
-1.057225 80.975227 -14.630489
-1.43311 82.338539 -13.624941
-0.793707 79.498749 -15.589432
-1.057225 80.975227 -14.630489
-0.926743 79.993736 -13.786638
-0.492734 77.958588 -16.51028
-0.793707 79.498749 -15.589432
-0.437668 76.906624 -15.618846
-0.267178 76.347954 -17.383545
-0.492734 77.958588 -16.51028
5.017471 44.934359 -13.393917
4.635553 47.038426 -13.377934
3.408408 47.432736 -23.113823
3.247929 48.471958 -24.34339
3.192045 49.647091 -23.263091
3.605715 46.388968 -21.862167
3.408408 47.432736 -23.113823
3.846323 45.315157 -20.599936
3.605715 46.388968 -21.862167
3.593132 47.534058 -20.771292
4.117527 44.23142 -19.331302
4.13011 43.086331 -20.422178
3.846323 45.315157 -20.599936
4.157477 45.338104 -18.243597
3.827316 47.481262 -18.319113
4.151053 46.359119 -17.05365
4.117527 44.23142 -19.331302
4.157477 45.338104 -18.243597
2.285347 58.900902 -6.54537
2.78135 57.215812 -6.964951
2.353931 58.461926 -8.079214
2.183845 59.249127 -4.945123
2.285347 58.900902 -6.54537
1.756426 60.495239 -6.059387
2.080618 59.542046 -3.359593
2.183845 59.249127 -4.945123
-0.0242 66.59153 -3.548972
-0.228574 67.904442 -4.506565
-0.35419 68.080582 -2.784764
0.390558 65.140219 -4.263324
-0.0242 66.59153 -3.548972
0.801084 63.605351 -4.918486
0.511943 64.880522 -5.925935
0.390558 65.140219 -4.263324
1.167312 62.354255 -3.857507
1.288697 62.094559 -5.520118
0.801084 63.605351 -4.918486
1.527701 61.045051 -2.812175
1.167312 62.354255 -3.857507
2.080618 59.542046 -3.359593
1.527701 61.045051 -2.812175
1.333875 65.91021 -24.035563
1.096277 67.826851 -23.514511
1.368662 64.881067 -23.027958
1.572364 63.995332 -24.504278
1.333875 65.91021 -24.035563
-0.011229 74.672867 -18.208202
-0.267178 76.347954 -17.383545
0.205529 72.963989 -18.984901
-0.011229 74.672867 -18.208202
0.004645 73.587113 -17.26881
0.441941 71.188614 -19.702709
0.205529 72.963989 -18.984901
0.669887 69.406655 -20.371893
0.441941 71.188614 -19.702709
0.44935 70.096276 -18.714693
0.903735 67.55513 -20.971559
0.896326 68.647469 -21.959575
0.669887 69.406655 -20.371893
-1.725507 81.69873 1.351211
-1.697388 81.705658 -0.605198
-1.819451 82.909318 0.496669
-1.623579 80.435737 2.197912
-1.725507 81.69873 1.351211
-2.78277 86.456207 -6.679787
-3.344619 87.27034 -5.542568
-2.433535 85.679237 -5.888535
-2.385452 85.445381 -7.786407
-2.78277 86.456207 -6.679787
-2.860003 86.794021 -2.844357
-3.353772 87.436111 -3.641409
-3.382923 87.54007 -1.703851
3.393474 53.750694 -11.683982
3.433173 53.049076 -13.110109
2.983099 54.924568 -12.886843
3.393474 53.750694 -11.683982
3.392042 54.411415 -10.280812
3.345308 54.98674 -8.799851
3.318544 55.515079 -7.336672
-1.459103 77.832626 0.054436
-1.503897 79.157272 -0.800129
-1.558651 79.170425 1.103908
-1.425463 76.488236 0.926849
-1.37071 76.475082 -0.977189
-1.459103 77.832626 0.054436
-1.391272 75.08709 1.781982
-1.425463 76.488236 0.926849
-1.274309 73.741913 0.774788
-1.391272 75.08709 1.781982
2.040961 60.035118 -25.205654
1.798882 62.010955 -24.881546
1.84923 60.990353 -23.820782
2.040961 60.035118 -25.205654
2.255976 57.983918 -25.425623
2.495693 55.941174 -25.593382
2.695774 53.815777 -25.646399
3 0 20 18
3 0 23 21
3 0 18 23
3 1 72 74
3 74 73 25
3 72 73 74
3 1 28 26
3 1 25 28
3 2 32 30
3 2 35 33
3 2 30 35
3 76 75 37
3 77 38 78
3 79 37 80
3 81 80 38
3 79 80 81
3 3 82 83
3 86 85 40
3 84 85 86
3 4 43 41
3 6 44 19
3 6 87 89
3 89 88 44
3 87 88 89
3 7 90 92
3 90 91 92
3 8 45 22
3 8 46 45
3 8 48 46
3 4 49 24
3 4 41 49
3 10 93 94
3 11 52 50
3 13 53 27
3 13 54 53
3 13 55 54
3 10 95 97
3 97 96 29
3 95 96 97
3 10 98 99
3 14 58 56
3 16 59 31
3 16 60 59
3 5 61 42
3 100 62 101
3 9 63 47
3 17 64 34
3 17 65 64
3 17 66 65
3 14 67 36
3 14 56 67
3 103 102 68
3 104 70 105
3 106 71 107
3 108 107 39
3 106 107 108
3 109 68 110
3 111 110 71
3 109 110 111
3 15 112 114
3 114 113 57
3 112 113 114
3 116 115 69
3 12 117 119
3 119 118 51
3 117 118 119
3 18 19 4
3 20 19 18
3 20 6 19
3 21 22 7
3 23 22 21
3 23 8 22
3 23 24 8
3 18 24 23
3 18 4 24
3 25 120 122
3 122 121 10
3 120 121 122
3 124 123 25
3 26 27 11
3 28 27 26
3 28 13 27
3 28 29 13
3 25 29 28
3 25 10 29
3 30 31 14
3 32 31 30
3 32 16 31
3 126 125 5
3 33 34 9
3 35 34 33
3 35 17 34
3 35 36 17
3 30 36 35
3 30 14 36
3 37 127 128
3 130 129 37
3 38 131 132
3 38 133 134
3 38 135 137
3 135 39 136
3 135 136 137
3 37 39 38
3 37 138 140
3 140 139 39
3 138 139 140
3 142 141 15
3 40 143 145
3 145 144 12
3 143 144 145
3 147 146 40
3 41 42 2
3 43 42 41
3 43 5 42
3 19 43 4
3 44 43 19
3 44 5 43
3 44 148 150
3 150 149 5
3 148 149 150
3 152 151 44
3 22 153 155
3 155 154 7
3 153 154 155
3 45 156 158
3 158 157 22
3 156 157 158
3 45 159 160
3 45 161 162
3 46 163 165
3 165 164 45
3 163 164 165
3 46 166 167
3 46 168 170
3 168 47 169
3 168 169 170
3 48 47 46
3 48 9 47
3 24 48 8
3 49 48 24
3 49 9 48
3 49 33 9
3 41 33 49
3 41 2 33
3 172 171 10
3 50 51 3
3 52 51 50
3 52 12 51
3 27 52 11
3 53 52 27
3 53 12 52
3 53 40 12
3 54 40 53
3 54 173 175
3 175 174 40
3 173 174 175
3 54 176 177
3 55 178 180
3 180 179 54
3 178 179 180
3 55 181 183
3 181 182 183
3 29 55 13
3 184 55 185
3 186 185 29
3 184 185 186
3 188 187 55
3 56 57 1
3 58 57 56
3 58 15 57
3 31 58 14
3 59 58 31
3 59 15 58
3 59 189 191
3 191 190 15
3 189 190 191
3 60 192 194
3 194 193 59
3 192 193 194
3 60 195 196
3 42 32 2
3 61 32 42
3 61 16 32
3 197 61 198
3 199 198 5
3 197 198 199
3 200 61 201
3 202 16 203
3 204 203 61
3 202 203 204
3 205 60 206
3 207 206 16
3 205 206 207
3 208 60 209
3 211 210 60
3 62 212 213
3 62 214 216
3 214 3 215
3 214 215 216
3 47 217 218
3 63 219 221
3 221 220 47
3 219 220 221
3 63 222 223
3 34 63 9
3 64 63 34
3 64 224 226
3 226 225 63
3 224 225 226
3 64 227 229
3 227 62 228
3 227 228 229
3 65 62 64
3 65 3 62
3 65 50 3
3 66 50 65
3 66 11 50
3 36 66 17
3 67 66 36
3 67 11 66
3 67 26 11
3 56 26 67
3 56 1 26
3 68 69 0
3 230 69 231
3 232 231 68
3 230 231 232
3 234 233 69
3 70 235 236
3 70 237 239
3 237 7 238
3 237 238 239
3 39 240 242
3 240 70 241
3 240 241 242
3 71 70 39
3 71 7 70
3 71 21 7
3 68 21 71
3 68 0 21
3 57 243 245
3 245 244 1
3 243 244 245
3 247 246 57
3 249 248 15
3 69 20 0
3 250 20 251
3 252 251 69
3 250 251 252
3 253 6 254
3 255 254 20
3 253 254 255
3 256 6 257
3 259 258 6
3 51 260 262
3 262 261 3
3 260 261 262
3 264 263 51
3 266 265 12
