ply
format ascii 1.0
element vertex 171
property float x
property float y
property float z
element face 138
property list uchar int vertex_index
end_header
-43.675068 48.884548 30.237331
-43.106026 38.031288 37.622181
-42.642513 25.308468 49.149857
-42.222 31.452305 46.164562
-42.60865 32.113388 40.830444
-42.395859 42.874851 38.968651
-43.630066 43.60321 34.104023
-42.742851 25.744274 46.449287
-43.196487 22.716137 47.784409
-42.817841 35.110741 39.264626
-43.328819 38.246578 35.148106
-43.399887 40.861446 35.902725
-42.360378 24.644348 51.77364
-42.352024 28.392323 47.720692
-42.51955 28.802265 45.013863
-42.549988 29.068642 42.320366
-42.485737 31.845783 43.482742
-42.588127 34.835632 41.861771
-42.767029 37.744431 40.157635
-42.961201 40.560135 38.376575
-42.343304 40.165226 40.885994
-41.471992 42.351147 41.419849
-43.127323 22.24398 50.440216
-43.736717 46.270679 32.219566
-43.111984 43.286037 36.522301
-43.167004 45.93771 34.593643
-43.08392 48.537762 32.583099
-43.883051 48.991577 29.06741
-44.115876 47.795517 28.884516
-43.907893 47.688488 30.054437
-42.932917 24.377085 45.765296
-42.724077 25.881307 45.092845
-43.025925 36.673975 37.176828
-42.881833 35.213701 37.998051
-42.961934 36.571015 38.443404
-43.217422 38.138933 36.385143
-43.137321 36.78162 35.939791
-43.025925 36.673975 37.176828
-42.287012 29.922314 46.942627
-42.070374 29.630795 48.275605
-42.005361 31.160786 47.49754
-42.426834 36.096883 42.296925
-42.398575 34.642765 43.179089
-42.516285 37.551283 41.444857
-42.677578 36.290031 41.009703
-42.426834 36.096883 42.296925
-42.304423 38.76168 41.809036
-42.555166 38.954828 40.521814
-42.516285 37.551283 41.444857
-40.917301 42.01458 42.631191
-41.503339 40.997347 42.41152
-40.811538 43.325359 41.577154
-40.917301 42.01458 42.631191
-43.54873 21.237257 48.399985
-43.512461 21.401621 47.070583
-42.552553 30.683923 40.254722
-42.523222 29.161551 40.999684
-42.579319 30.591015 41.575405
-43.813873 43.715241 32.916028
-43.667789 42.343162 33.793492
-43.683391 44.936944 33.161794
-43.867199 45.048975 31.973799
-43.813873 43.715241 32.916028
-42.713862 47.006821 34.762087
-42.773802 45.720627 35.789062
-42.67232 48.306847 33.756815
-43.125462 47.237736 33.588371
-42.713862 47.006821 34.762087
-42.545713 49.578263 32.69
-42.67232 48.306847 33.756815
-41.940514 32.674633 46.647539
-42.005361 31.160786 47.49754
-42.215512 32.951102 45.330484
-41.940514 32.674633 46.647539
-43.159734 22.863016 46.432857
-42.969669 24.230206 47.116848
-42.932917 24.377085 45.765296
-43.512461 21.401621 47.070583
-43.159734 22.863016 46.432857
-42.729317 33.709667 38.752033
-42.624721 32.210991 39.534942
-42.713245 33.612065 40.047535
-42.729317 33.709667 38.752033
-42.881833 35.213701 37.998051
-43.188053 36.860738 34.714231
-43.137321 36.78162 35.939791
-43.420601 38.322902 33.949209
-43.188053 36.860738 34.714231
-43.517166 39.664846 34.315533
-43.420601 38.322902 33.949209
-43.5527 40.97228 34.692842
-43.517166 39.664846 34.315533
-43.364353 39.554012 35.525415
-43.514977 42.232328 35.003374
-43.667789 42.343162 33.793492
-43.5527 40.97228 34.692842
-42.38823 44.189197 37.976567
-41.881382 43.919834 39.171409
-43.547871 50.175179 29.189129
-43.254649 49.997078 30.357322
-41.915941 25.764488 52.357184
-42.111199 24.173735 53.007702
-42.185682 26.208069 51.079991
-41.915941 25.764488 52.357184
-42.32675 26.540129 49.768099
-42.501446 24.976408 50.461748
-42.185682 26.208069 51.079991
-42.181505 28.082057 49.053517
-42.070374 29.630795 48.275605
-42.497269 26.850396 48.435274
-42.32675 26.540129 49.768099
-42.181505 28.082057 49.053517
-42.612426 27.410303 44.375134
-42.724077 25.881307 45.092845
-42.631201 27.273269 45.731575
-42.534769 28.935454 43.667114
-42.627645 27.543492 43.028385
-42.612426 27.410303 44.375134
-42.34738 33.147841 43.989575
-42.353869 31.649044 44.823652
-42.215512 32.951102 45.330484
-42.536932 33.340708 42.672257
-42.34738 33.147841 43.989575
-42.398575 34.642765 43.179089
-41.938996 39.904387 42.144593
-42.304423 38.76168 41.809036
-41.907648 41.258186 41.152921
-41.938996 39.904387 42.144593
-41.503339 40.997347 42.41152
-41.419449 43.657982 40.397008
-41.881382 43.919834 39.171409
-41.933926 42.612999 40.19425
-41.419449 43.657982 40.397008
-40.811538 43.325359 41.577154
-43.883051 48.991577 29.06741
-43.547871 50.175179 29.189129
-42.612705 23.087589 52.374489
-42.111199 24.173735 53.007702
-42.996178 21.887405 51.707777
-42.612705 23.087589 52.374489
-42.74385 23.444164 51.106928
-43.474992 20.740995 51.012571
-42.996178 21.887405 51.707777
-43.514148 21.001179 49.727888
-43.161905 22.480058 49.112313
-43.54873 21.237257 48.399985
-43.861818 19.498193 50.300244
-43.474992 20.740995 51.012571
-43.514148 21.001179 49.727888
-42.568154 27.63427 41.689562
-42.627645 27.543492 43.028385
-42.568154 27.63427 41.689562
-42.523222 29.161551 40.999684
-42.552553 30.683923 40.254722
-42.624721 32.210991 39.534942
-43.938717 46.381553 31.045555
-43.867199 45.048975 31.973799
-43.705893 47.577613 31.228448
-43.907893 47.688488 30.054437
-43.938717 46.381553 31.045555
-42.746292 44.39479 36.753391
-42.753922 43.080444 37.745476
-42.38823 44.189197 37.976567
-43.139494 44.611874 35.557972
-42.746292 44.39479 36.753391
-42.773802 45.720627 35.789062
-42.959074 49.823685 31.530206
-43.254649 49.997078 30.357322
-43.379494 48.711155 31.410215
-42.959074 49.823685 31.530206
-42.545713 49.578263 32.69
3 0 27 29
3 27 28 29
3 31 30 7
3 1 32 34
3 34 33 9
3 32 33 34
3 1 35 37
3 35 10 36
3 35 36 37
3 1 11 10
3 3 38 40
3 38 13 39
3 38 39 40
3 3 14 13
3 3 16 14
3 41 17 42
3 43 18 44
3 45 44 17
3 43 44 45
3 46 20 47
3 48 47 18
3 46 47 48
3 49 21 50
3 52 51 21
3 2 22 12
3 54 53 8
3 4 55 57
3 57 56 15
3 55 56 57
3 6 58 59
3 6 60 62
3 60 23 61
3 60 61 62
3 5 24 19
3 63 25 64
3 65 26 66
3 67 66 25
3 65 66 67
3 69 68 26
3 70 3 71
3 73 72 3
3 7 8 2
3 74 8 75
3 76 75 7
3 74 75 76
3 78 77 8
3 9 79 81
3 81 80 4
3 79 80 81
3 83 82 9
3 10 84 85
3 10 86 87
3 10 88 89
3 11 90 92
3 92 91 10
3 90 91 92
3 11 93 95
3 93 6 94
3 93 94 95
3 97 96 5
3 99 98 0
3 100 12 101
3 102 12 103
3 104 2 105
3 106 105 12
3 104 105 106
3 13 107 108
3 13 109 111
3 109 2 110
3 109 110 111
3 13 7 2
3 14 7 13
3 14 112 114
3 114 113 7
3 112 113 114
3 14 115 117
3 115 15 116
3 115 116 117
3 16 15 14
3 16 4 15
3 118 16 119
3 120 119 3
3 118 119 120
3 17 121 123
3 121 16 122
3 121 122 123
3 17 4 16
3 17 9 4
3 18 9 17
3 18 1 9
3 18 19 1
3 20 19 18
3 20 5 19
3 124 20 125
3 21 126 128
3 126 20 127
3 126 127 128
3 21 5 20
3 21 129 131
3 131 130 5
3 129 130 131
3 133 132 21
3 135 134 0
3 12 136 137
3 22 138 140
3 140 139 12
3 138 139 140
3 22 141 142
3 8 22 2
3 143 22 144
3 145 144 8
3 143 144 145
3 148 147 22
3 146 147 148
3 15 149 150
3 152 151 15
3 154 153 4
3 23 155 156
3 23 157 159
3 157 0 158
3 157 158 159
3 19 11 1
3 24 11 19
3 24 6 11
3 160 24 161
3 162 161 5
3 160 161 162
3 25 163 165
3 163 24 164
3 163 164 165
3 25 6 24
3 25 23 6
3 26 23 25
3 26 0 23
3 26 166 168
3 168 167 0
3 166 167 168
3 170 169 26
