ply
format ascii 1.0
element vertex 570
property float x
property float y
property float z
element face 556
property list uchar int vertex_index
end_header
51.639511 -32.794903 52.631256
30.329344 -49.452221 68.779091
42.395203 -34.521881 67.832436
28.321741 -43.456738 75.62883
25.28447 -51.364849 76.116203
35.379749 -36.983078 74.782715
34.451332 -42.006218 67.993462
58.108303 -26.096977 50.846519
53.936371 -24.515652 57.175278
46.994091 -32.164223 59.064026
31.6129 -40.1651 75.574692
55.070618 -29.388882 52.214859
31.633566 -52.431484 65.5868
30.149702 -53.497471 70.039055
56.425415 -21.19733 54.716339
42.862103 -32.05809 70.150787
46.088963 -30.360872 66.730743
48.642082 -28.939919 62.730072
44.875946 -33.110538 63.477745
40.735016 -37.146191 63.534851
31.657032 -45.63134 68.077118
33.739655 -44.72805 63.486992
32.05669 -48.534645 64.239517
29.164598 -46.438511 72.148979
28.109283 -50.392769 72.757088
39.256195 -35.930672 71.659302
38.286774 -38.385384 68.101311
35.267776 -39.451599 72.171425
31.648367 -42.846184 72.116562
27.966805 -54.668076 73.830894
58.585106 -21.789787 51.452217
55.960098 -24.972113 53.670197
52.786957 -28.408407 54.911247
51.688416 -24.924677 60.963203
50.761421 -28.222511 58.584915
49.136597 -32.040131 55.255493
45.224823 -35.762276 54.980782
53.396317 -31.08157 52.535004
54.777729 -31.741796 51.676109
53.088905 -33.424568 51.829567
30.99173 -50.950066 67.178574
30.962727 -52.948273 67.882385
30.147018 -51.449802 69.367432
42.830807 -33.268951 69.311844
44.568878 -31.206131 68.529037
44.327061 -32.469212 67.407089
45.651001 -31.70142 65.358574
43.7033 -33.787464 65.698395
42.821236 -35.155731 63.565598
41.651199 -35.812843 65.846542
30.810083 -47.512062 68.340019
31.80183 -47.067959 66.112602
31.238251 -48.988602 66.568695
28.712738 -44.939354 73.90947
27.729721 -46.808151 73.96608
37.405216 -36.514107 73.309113
37.267628 -37.726906 72.020645
35.458141 -38.20911 73.750282
31.675447 -41.493305 73.992249
30.045753 -43.175598 73.945427
30.228975 -44.601776 72.081215
26.771292 -50.872948 74.511375
27.984617 -52.497692 73.269493
24.761328 -58.281223 77.129189
26.439772 -57.572689 75.840424
59.579269 -18.434904 49.846413
59.712669 -20.281416 50.006386
58.608894 -19.897255 51.548759
55.264793 -22.8057 56.075172
56.31789 -22.984755 54.328918
54.954742 -24.643223 55.356537
54.441307 -26.659859 54.412704
53.434685 -26.38516 56.128319
50.39238 -25.451563 62.801819
47.913754 -30.504757 61.043564
49.736214 -28.473923 60.63855
48.938499 -30.178356 58.924652
49.955383 -30.076591 56.944168
48.038651 -31.987366 57.04158
47.195 -33.895233 55.171349
46.048496 -33.914219 56.987251
36.284836 -40.212185 68.059685
37.541039 -39.656113 65.794769
35.666515 -41.504307 65.725632
33.602463 -46.184185 61.371056
33.486263 -38.584969 75.307137
29.589426 -40.400299 77.045212
31.6703 -54.408386 66.332825
31.021803 -54.978058 68.591774
30.199106 -55.585835 70.699471
57.437054 -19.676702 53.120567
55.230865 -21.179045 56.402512
54.137283 -22.833347 57.868568
47.638496 -28.239887 65.775925
49.02536 -27.485329 63.936462
47.437927 -29.585537 64.782295
46.833199 -31.027588 63.215057
45.956501 -32.551651 61.238892
44.968853 -34.153587 59.049736
43.91013 -34.583321 61.272415
41.833191 -36.580666 61.200508
32.883396 -43.802559 67.977005
34.038551 -43.339378 65.718475
32.735115 -45.187748 65.833504
32.716312 -46.619858 63.774513
32.396717 -50.029621 62.45533
29.706347 -47.945576 70.429878
29.293242 -49.920238 70.845833
28.471428 -48.369316 72.37114
27.100163 -48.788536 74.165138
41.14447 -34.040916 71.043961
40.918907 -35.253731 69.829651
40.355122 -36.494621 68.046585
38.899784 -37.146729 70.115089
36.858864 -38.957451 70.21595
34.896088 -40.714516 70.195831
33.514061 -39.853603 73.956093
33.359318 -41.143066 72.176132
33.117012 -42.457104 70.131233
31.618814 -44.224731 70.103653
30.472633 -46.048378 70.186607
49.824276 -34.52314 52.535019
29.151587 -51.966194 71.402733
29.157372 -54.071812 72.02829
29.168211 -56.223228 72.623322
26.575443 -55.285416 75.437927
27.914295 -56.886097 74.340424
60.785202 -20.808571 48.515358
59.631714 -22.318983 49.943726
58.374054 -23.870424 51.166107
57.530323 -21.407135 53.052917
57.339336 -23.349846 52.680267
56.99836 -25.470268 52.160301
55.498596 -27.120522 52.913208
53.877571 -28.817524 53.423317
52.147087 -30.55335 53.701813
52.901531 -23.076063 59.653099
52.860241 -24.608337 59.066368
50.267136 -26.890858 61.986832
51.391415 -26.496675 59.98716
52.43335 -26.326355 58.00927
51.762856 -28.202045 56.650764
51.011017 -30.206625 55.182426
50.327232 -32.31831 53.772797
48.445236 -34.103867 53.672928
44.633171 -37.721169 53.162148
44.029629 -35.842758 56.834442
43.271301 -37.637337 54.741974
39.567932 -37.766365 65.857735
38.696499 -39.082054 63.447945
37.877827 -40.464439 60.988922
35.115799 -42.852165 63.364845
27.700967 -44.352885 75.615177
27.896466 -45.094193 74.755497
28.51724 -44.198046 74.76915
36.29231 -36.14969 74.374489
35.183963 -36.37653 74.981815
36.392482 -36.748593 74.045914
37.305044 -35.915205 73.637688
36.29231 -36.14969 74.374489
29.183747 -43.316168 74.787128
29.952303 -42.474539 74.798694
29.090297 -42.615109 75.640396
58.710066 -26.453072 50.282719
58.783894 -25.303513 50.324635
25.962571 -52.205023 75.539215
26.705982 -51.959073 74.736801
26.027881 -51.118899 75.313789
25.442183 -59.083255 76.601922
24.547264 -59.470712 77.179836
58.954067 -18.326949 50.583847
59.358314 -17.614793 49.602688
58.468879 -19.058124 51.43502
59.094082 -19.16608 50.697586
58.954067 -18.326949 50.583847
49.672705 -25.805515 63.665108
50.211129 -24.811245 62.895263
34.079588 -46.751709 59.186214
34.060641 -45.986065 60.168671
33.62141 -46.949829 60.388599
28.531239 -40.490787 77.720234
29.377719 -39.730674 77.511624
28.760937 -41.200388 77.110405
28.531239 -40.490787 77.720234
55.729134 -29.730518 51.745914
55.857644 -28.556849 51.934105
55.483114 -33.315552 51.199711
55.534797 -32.110484 51.376571
54.726045 -32.946864 51.499248
31.651933 -53.419935 65.959812
31.934081 -54.14965 65.148331
31.915714 -53.161199 64.775318
54.574101 -21.270232 57.235032
54.995891 -20.47694 56.318478
54.02731 -22.097383 57.96806
54.684074 -22.006196 57.13554
54.574101 -21.270232 57.235032
43.610652 -31.032117 69.561081
42.65856 -31.47513 70.22525
46.087874 -29.730866 67.096436
45.327831 -30.153496 67.995583
45.32892 -30.783501 67.62989
46.86373 -29.300379 66.253334
46.86264 -28.670374 66.619027
46.087874 -29.730866 67.096436
40.265534 -37.842451 62.309871
40.814621 -37.559689 61.1427
41.284104 -36.863428 62.36768
32.446585 -48.318886 63.035988
32.776395 -47.361492 62.803486
32.386501 -47.577252 64.007015
32.226703 -49.282133 63.347424
32.616598 -49.066374 62.143894
32.446585 -48.318886 63.035988
31.925402 -52.195543 64.388931
31.678559 -51.452135 65.224232
31.915714 -53.161199 64.775318
31.925402 -52.195543 64.388931
26.637834 -47.977802 74.908028
27.414942 -47.798344 74.065609
26.952613 -46.98761 74.808499
26.349151 -48.999376 74.993915
26.637834 -47.977802 74.908028
40.200333 -34.985794 71.351631
40.204811 -34.387905 71.818695
39.260673 -35.332783 72.126366
49.696005 -35.667107 52.02494
48.901995 -35.393833 52.413128
25.784821 -55.604429 76.145641
25.851059 -54.447842 75.961804
27.809127 -58.009378 74.517742
27.177034 -57.229393 75.090424
27.071866 -58.352674 75.267742
28.483407 -57.645607 73.71104
27.809127 -58.009378 74.517742
60.764881 -19.809108 48.443058
61.319744 -20.068441 47.711979
52.294973 -24.00037 60.308151
52.218645 -23.302283 60.513996
51.612088 -24.22659 61.169048
45.87961 -35.833631 54.215542
46.864699 -34.90011 54.310825
46.209912 -34.828755 55.076065
44.928997 -36.741723 54.071465
45.583784 -36.813078 53.306225
45.87961 -35.833631 54.215542
43.471914 -35.985634 57.885734
44.499241 -34.998173 57.942089
43.941527 -35.141048 58.993381
42.328407 -38.579506 54.629265
42.653188 -37.701931 55.692238
43.027898 -38.596514 53.806565
42.328407 -38.579506 54.629265
37.745159 -40.029567 63.409042
38.118769 -39.369084 64.621357
37.167429 -40.316597 64.582454
37.335823 -40.72076 62.179531
38.287163 -39.773246 62.218434
37.745159 -40.029567 63.409042
53.881633 -33.78825 51.575977
54.726045 -32.946864 51.499248
53.933317 -32.583182 51.752838
31.480902 -49.730694 65.71518
31.890121 -49.503715 64.55059
31.647471 -48.761623 65.404106
31.357641 -50.711426 66.020119
31.480902 -49.730694 65.71518
31.114991 -49.969334 66.873635
31.312648 -51.690775 66.382687
31.678559 -51.452135 65.224232
31.357641 -50.711426 66.020119
27.404957 -46.028591 74.783802
28.221229 -45.873753 73.937775
27.896466 -45.094193 74.755497
26.952613 -46.98761 74.808499
27.404957 -46.028591 74.783802
38.335184 -35.6245 72.951271
37.305044 -35.915205 73.637688
38.330706 -36.22239 72.484207
39.260673 -35.332783 72.126366
38.335184 -35.6245 72.951271
30.767149 -41.633392 74.822105
31.644174 -40.829203 74.78347
30.735876 -40.96929 75.613327
30.8606 -42.334452 73.968838
30.767149 -41.633392 74.822105
29.952303 -42.474539 74.798694
27.312645 -52.771445 74.11586
27.377955 -51.68532 73.890434
26.705982 -51.959073 74.736801
27.303739 -53.856637 74.39656
27.975711 -53.582884 73.550194
27.312645 -52.771445 74.11586
25.60055 -57.926956 76.484806
25.716985 -56.748066 76.34689
24.877763 -57.102333 76.991272
26.281405 -58.728988 75.957539
25.60055 -57.926956 76.484806
25.442183 -59.083255 76.601922
27.071866 -58.352674 75.267742
26.281405 -58.728988 75.957539
60.026199 -17.716403 48.913776
59.358314 -17.614793 49.602688
60.161914 -18.622274 49.108586
60.026199 -17.716403 48.913776
59.645969 -19.35816 49.9264
60.228614 -19.54553 49.188572
60.161914 -18.622274 49.108586
50.96407 -24.490033 62.088356
50.211129 -24.811245 62.895263
51.040398 -25.18812 61.882511
51.612088 -24.22659 61.169048
50.96407 -24.490033 62.088356
36.230167 -41.240694 64.547886
37.167429 -40.316597 64.582454
36.603777 -40.58021 65.7602
34.159788 -45.229524 61.229805
34.228384 -44.501457 62.287773
33.671059 -45.456118 62.429024
34.159788 -45.229524 61.229805
34.060641 -45.986065 60.168671
27.408997 -43.581381 76.40889
28.127095 -42.728607 76.402214
34.292806 -37.159202 75.439686
35.183963 -36.37653 74.981815
33.346063 -37.960148 75.701897
34.433006 -37.784024 75.044926
34.292806 -37.159202 75.439686
32.432257 -38.723633 76.007382
33.346063 -37.960148 75.701897
31.495575 -39.513699 76.141159
32.549582 -39.375034 75.440914
32.432257 -38.723633 76.007382
30.483838 -39.631298 76.876419
29.377719 -39.730674 77.511624
30.601163 -40.282699 76.309952
31.495575 -39.513699 76.141159
30.483838 -39.631298 76.876419
29.724139 -41.086889 76.348587
30.735876 -40.96929 75.613327
30.601163 -40.282699 76.309952
29.724139 -41.086889 76.348587
28.760937 -41.200388 77.110405
28.127095 -42.728607 76.402214
29.090297 -42.615109 75.640396
58.005235 -27.260885 50.734722
57.376486 -26.910896 51.249935
55.58269 -30.906976 51.47654
55.729134 -29.730518 51.745914
54.924174 -30.565339 51.945484
55.58269 -30.906976 51.47654
55.534797 -32.110484 51.376571
31.946465 -55.117296 65.506992
32.210245 -54.85856 64.322498
31.934081 -54.14965 65.148331
31.688356 -55.40587 66.667744
31.946465 -55.117296 65.506992
31.364107 -55.690706 67.797218
31.688356 -55.40587 66.667744
31.346052 -54.693222 67.4623
31.028433 -56.006214 68.898453
31.364107 -55.690706 67.797218
30.617085 -56.310102 69.952302
31.028433 -56.006214 68.898453
30.610454 -55.281947 69.645623
30.179524 -56.645127 70.971486
30.597502 -57.369394 70.224316
30.617085 -56.310102 69.952302
24.394309 -52.741017 77.036873
25.205572 -52.487558 76.300941
24.473206 -51.618307 76.852135
24.002819 -57.430679 77.61272
24.877763 -57.102333 76.991272
23.834032 -58.6443 77.679829
24.002819 -57.430679 77.61272
23.619968 -59.83379 77.730477
24.547264 -59.470712 77.179836
23.834032 -58.6443 77.679829
57.201178 -18.92339 52.948967
57.882959 -18.947848 52.220924
56.799801 -19.65524 53.906696
57.201178 -18.92339 52.948967
56.293982 -20.415554 54.704582
56.931235 -20.437016 53.918453
56.799801 -19.65524 53.906696
55.696707 -20.406411 55.547669
54.995891 -20.47694 56.318478
55.82814 -21.188187 55.559426
56.293982 -20.415554 54.704582
55.696707 -20.406411 55.547669
44.464039 -30.606137 68.750206
43.610652 -31.032117 69.561081
43.715491 -31.63211 69.339912
44.464039 -30.606137 68.750206
45.327831 -30.153496 67.995583
47.498924 -27.621823 65.940185
46.86264 -28.670374 66.619027
48.295763 -27.199676 65.152161
47.498924 -27.621823 65.940185
48.331928 -27.862608 64.856194
48.989195 -26.822398 64.232429
48.295763 -27.199676 65.152161
43.412165 -35.355915 60.104721
43.941527 -35.141048 58.993381
44.439492 -34.368454 60.161076
42.373695 -36.354588 60.068767
43.412165 -35.355915 60.104721
42.871661 -35.581993 61.236462
41.362408 -37.331291 59.993515
42.373695 -36.354588 60.068767
41.362408 -37.331291 59.993515
40.814621 -37.559689 61.1427
33.219471 -47.143656 61.601757
33.159388 -46.402022 62.572784
32.776395 -47.361492 62.803486
33.238418 -47.9093 60.619301
33.62141 -46.949829 60.388599
33.219471 -47.143656 61.601757
32.737444 -49.834303 61.234493
32.616598 -49.066374 62.143894
32.590187 -50.790184 61.600815
32.930914 -50.594866 60.379978
32.737444 -49.834303 61.234493
32.060135 -50.251204 63.658497
32.226703 -49.282133 63.347424
31.890121 -49.503715 64.55059
32.306978 -50.994611 62.823196
32.060135 -50.251204 63.658497
32.500448 -51.755174 61.968682
32.590187 -50.790184 61.600815
32.306978 -50.994611 62.823196
26.184715 -50.041583 75.167034
26.935727 -49.830742 74.338256
26.349151 -48.999376 74.993915
25.441305 -50.287533 75.969448
26.027881 -51.118899 75.313789
26.184715 -50.041583 75.167034
27.700967 -44.352885 75.615177
27.408997 -43.581381 76.40889
24.631164 -50.502913 76.739224
25.441305 -50.287533 75.969448
23.8199 -50.756371 77.475155
24.473206 -51.618307 76.852135
24.631164 -50.502913 76.739224
41.913893 -32.457867 70.869812
42.65856 -31.47513 70.22525
41.055076 -33.44928 71.316399
40.204811 -34.387905 71.818695
42.003287 -33.049503 70.597374
41.913893 -32.457867 70.869812
41.055076 -33.44928 71.316399
58.710066 -26.453072 50.282719
58.005235 -27.260885 50.734722
50.583855 -34.818863 52.148594
51.491472 -33.954745 52.196713
50.731893 -33.659021 52.583137
50.455584 -35.962829 51.638515
50.583855 -34.818863 52.148594
49.696005 -35.667107 52.02494
29.664076 -56.963823 71.933411
30.179524 -56.645127 70.971486
29.683658 -55.904532 71.661396
25.962571 -52.205023 75.539215
25.205572 -52.487558 76.300941
26.608058 -54.165306 75.200077
25.851059 -54.447842 75.961804
27.271124 -54.976746 74.634411
27.303739 -53.856637 74.39656
26.608058 -54.165306 75.200077
26.507607 -56.429052 75.639175
25.784821 -55.604429 76.145641
25.716985 -56.748066 76.34689
29.110365 -57.314172 72.85249
28.541253 -56.554662 73.481873
28.483407 -57.645607 73.71104
29.664076 -56.963823 71.933411
29.110365 -57.314172 72.85249
61.319992 -21.13121 47.800657
61.319744 -20.068441 47.711979
60.744635 -21.886294 48.528019
61.319992 -21.13121 47.800657
60.248936 -20.544994 49.260872
60.764881 -19.809108 48.443058
60.228614 -19.54553 49.188572
60.16789 -22.6415 49.242203
60.744635 -21.886294 48.528019
60.208458 -21.563777 49.229542
59.545599 -23.414516 49.873238
60.16789 -22.6415 49.242203
58.916769 -24.190236 50.484428
59.545599 -23.414516 49.873238
59.002884 -23.094704 50.554916
58.241179 -24.9837 51.006313
58.783894 -25.303513 50.324635
58.916769 -24.190236 50.484428
58.022974 -19.786979 52.334663
58.468879 -19.058124 51.43502
57.882959 -18.947848 52.220924
56.821514 -26.597541 51.906826
57.376486 -26.910896 51.249935
57.553331 -25.783622 51.50341
56.071632 -27.422669 52.283279
56.821514 -26.597541 51.906826
56.248478 -26.295395 52.536755
55.284607 -28.254702 52.564033
55.857644 -28.556849 51.934105
56.071632 -27.422669 52.283279
52.685423 -22.409595 59.66127
52.218645 -23.302283 60.513996
53.409433 -22.218741 58.860325
52.685423 -22.409595 59.66127
53.519407 -22.954705 58.760834
54.02731 -22.097383 57.96806
53.409433 -22.218741 58.860325
49.70887 -26.468446 63.369141
49.672705 -25.805515 63.665108
48.989195 -26.822398 64.232429
48.212474 -35.184196 52.982083
48.901995 -35.393833 52.413128
49.134756 -34.313503 53.103973
47.489817 -35.004427 53.561615
47.820118 -33.99955 54.422139
46.864699 -34.90011 54.310825
48.212474 -35.184196 52.982083
47.489817 -35.004427 53.561615
45.385984 -37.871445 52.559319
45.583784 -36.813078 53.306225
44.485399 -38.760937 52.378754
45.385984 -37.871445 52.559319
43.032353 -36.804642 56.738472
43.471914 -35.985634 57.885734
43.650465 -36.740048 55.788208
43.032353 -36.804642 56.738472
42.653188 -37.701931 55.692238
43.708833 -38.63843 53.016652
43.952236 -37.679253 53.952061
43.027898 -38.596514 53.806565
44.485399 -38.760937 52.378754
43.708833 -38.63843 53.016652
39.246275 -38.810383 62.266419
40.265534 -37.842451 62.309871
39.715758 -38.114123 63.491398
38.836939 -39.501576 61.036907
39.246275 -38.810383 62.266419
38.287163 -39.773246 62.218434
38.424284 -40.24044 59.824623
38.836939 -39.501576 61.036907
35.954809 -41.914623 63.367492
36.230167 -41.240694 64.547886
35.391157 -42.178236 64.545239
34.916456 -43.563514 62.2267
34.427727 -43.790108 63.425919
34.228384 -44.501457 62.287773
35.637972 -42.611911 62.168911
34.916456 -43.563514 62.2267
35.954809 -41.914623 63.367492
35.637972 -42.611911 62.168911
37.018986 -41.418048 60.98095
37.335823 -40.72076 62.179531
37.551293 -41.202407 59.803157
37.018986 -41.418048 60.98095
38.424284 -40.24044 59.824623
37.551293 -41.202407 59.803157
52.216169 -34.269577 51.795868
52.364208 -33.109735 52.230412
51.491472 -33.954745 52.196713
53.043928 -34.625045 51.57201
52.216169 -34.269577 51.795868
53.881633 -33.78825 51.575977
53.043928 -34.625045 51.57201
3 0 39 37
3 1 42 40
3 2 45 43
3 2 47 45
3 2 49 47
3 1 52 50
3 1 40 52
3 3 152 154
3 154 153 53
3 152 153 154
3 5 155 156
3 5 157 159
3 157 55 158
3 157 158 159
3 5 57 55
3 3 160 162
3 160 59 161
3 160 161 162
3 3 53 59
3 7 163 164
3 4 165 167
3 167 166 61
3 165 166 167
3 169 168 63
3 170 65 171
3 172 67 173
3 174 173 65
3 172 173 174
3 8 70 68
3 8 72 70
3 175 73 176
3 9 76 74
3 9 78 76
3 9 80 78
3 6 83 81
3 179 178 84
3 177 178 179
3 180 86 181
3 183 182 86
3 11 184 185
3 188 187 38
3 186 187 188
3 12 189 191
3 189 87 190
3 189 190 191
3 13 88 41
3 13 89 88
3 192 91 193
3 194 92 195
3 196 195 91
3 194 195 196
3 15 197 198
3 16 199 201
3 201 200 44
3 199 200 201
3 16 202 204
3 202 93 203
3 202 203 204
3 16 95 93
3 18 96 46
3 18 97 96
3 18 99 97
3 19 100 48
3 19 205 207
3 207 206 100
3 205 206 207
3 20 103 101
3 22 104 51
3 22 208 210
3 210 209 104
3 208 209 210
3 22 211 213
3 211 105 212
3 211 212 213
3 12 214 215
3 12 216 217
3 23 108 106
3 218 109 219
3 220 219 54
3 218 219 220
3 222 221 109
3 25 223 225
3 223 110 224
3 223 224 225
3 25 111 110
3 25 113 111
3 27 114 56
3 27 115 114
3 10 116 85
3 28 117 58
3 28 118 117
3 28 119 118
3 23 120 60
3 23 106 120
3 227 226 121
3 24 122 107
3 29 123 62
3 29 124 123
3 228 125 229
3 230 126 231
3 232 231 64
3 230 231 232
3 234 233 126
3 235 127 236
3 30 128 66
3 30 129 128
3 14 130 90
3 31 131 69
3 31 132 131
3 31 133 132
3 32 134 71
3 32 135 134
3 33 237 239
3 237 136 238
3 237 238 239
3 33 137 136
3 17 138 94
3 34 139 75
3 34 140 139
3 34 141 140
3 35 142 77
3 35 143 142
3 35 144 143
3 36 240 242
3 242 241 79
3 240 241 242
3 36 243 245
3 243 145 244
3 243 244 245
3 246 146 247
3 248 247 98
3 246 247 248
3 249 147 250
3 252 251 147
3 26 148 112
3 253 149 254
3 255 254 82
3 253 254 255
3 256 150 257
3 258 257 149
3 256 257 258
3 21 151 102
3 37 38 11
3 39 38 37
3 39 259 261
3 261 260 38
3 259 260 261
3 40 41 12
3 42 41 40
3 42 13 41
3 43 44 15
3 45 44 43
3 45 16 44
3 45 46 16
3 47 46 45
3 47 18 46
3 47 48 18
3 49 48 47
3 49 19 48
3 50 51 20
3 52 51 50
3 52 22 51
3 52 262 264
3 264 263 22
3 262 263 264
3 40 265 267
3 267 266 52
3 265 266 267
3 40 268 270
3 268 12 269
3 268 269 270
3 53 54 23
3 271 54 272
3 273 272 53
3 271 272 273
3 275 274 54
3 55 276 277
3 55 278 280
3 278 25 279
3 278 279 280
3 55 56 25
3 57 56 55
3 57 27 56
3 281 58 282
3 283 282 10
3 281 282 283
3 59 284 286
3 284 58 285
3 284 285 286
3 59 28 58
3 59 60 28
3 53 60 59
3 53 23 60
3 61 62 24
3 287 62 288
3 289 288 61
3 287 288 289
3 290 29 291
3 292 291 62
3 290 291 292
3 63 293 295
3 293 64 294
3 293 294 295
3 296 64 297
3 298 297 63
3 296 297 298
3 300 299 64
3 65 301 302
3 65 303 304
3 65 305 307
3 305 66 306
3 305 306 307
3 67 66 65
3 67 30 66
3 68 69 14
3 70 69 68
3 70 31 69
3 70 71 31
3 72 71 70
3 72 32 71
3 73 308 309
3 73 310 312
3 310 33 311
3 310 311 312
3 74 75 17
3 76 75 74
3 76 34 75
3 76 77 34
3 78 77 76
3 78 35 77
3 78 79 35
3 80 79 78
3 80 36 79
3 81 82 26
3 83 82 81
3 83 313 315
3 315 314 82
3 313 314 315
3 84 316 318
3 318 317 21
3 316 317 318
3 320 319 84
3 322 321 3
3 323 5 324
3 325 85 326
3 327 326 5
3 325 326 327
3 328 85 329
3 330 10 331
3 332 331 85
3 330 331 332
3 86 333 334
3 86 335 337
3 335 10 336
3 335 336 337
3 86 338 340
3 340 339 10
3 338 339 340
3 342 341 86
3 343 3 344
3 346 345 7
3 38 347 349
3 349 348 11
3 347 348 349
3 351 350 38
3 87 352 354
3 352 353 354
3 87 355 356
3 41 87 12
3 88 87 41
3 88 357 359
3 359 358 87
3 357 358 359
3 88 360 361
3 89 362 364
3 364 363 88
3 362 363 364
3 89 365 367
3 365 366 367
3 370 369 4
3 368 369 370
3 371 63 372
3 373 63 374
3 377 376 63
3 375 376 377
3 378 90 379
3 380 90 381
3 382 14 383
3 384 383 90
3 382 383 384
3 91 385 386
3 91 387 389
3 387 14 388
3 387 388 389
3 91 68 14
3 92 68 91
3 92 8 68
3 44 390 392
3 392 391 15
3 390 391 392
3 394 393 44
3 93 395 396
3 93 397 398
3 93 399 401
3 399 94 400
3 399 400 401
3 95 94 93
3 95 17 94
3 46 95 16
3 96 95 46
3 96 17 95
3 96 74 17
3 97 74 96
3 97 9 74
3 97 98 9
3 99 98 97
3 99 402 404
3 404 403 98
3 402 403 404
3 48 99 18
3 100 99 48
3 100 405 407
3 407 406 99
3 405 406 407
3 100 408 409
3 411 410 100
3 101 102 6
3 103 102 101
3 103 21 102
3 51 103 20
3 104 103 51
3 104 21 103
3 104 84 21
3 412 84 413
3 414 413 104
3 412 413 414
3 417 416 84
3 415 416 417
3 105 418 419
3 105 420 422
3 420 421 422
3 423 105 424
3 425 424 22
3 423 424 425
3 426 105 427
3 430 429 105
3 428 429 430
3 106 107 1
3 108 107 106
3 108 24 107
3 54 108 23
3 109 108 54
3 109 24 108
3 109 61 24
3 431 61 432
3 433 432 109
3 431 432 433
3 434 4 435
3 436 435 61
3 434 435 436
3 438 437 3
3 439 4 440
3 443 442 4
3 441 442 443
3 444 15 445
3 110 446 447
3 110 448 450
3 448 15 449
3 448 449 450
3 110 43 15
3 111 43 110
3 111 2 43
3 111 112 2
3 113 112 111
3 113 26 112
3 56 113 25
3 114 113 56
3 114 26 113
3 114 81 26
3 115 81 114
3 115 6 81
3 85 57 5
3 116 57 85
3 116 27 57
3 58 116 10
3 117 116 58
3 117 27 116
3 117 115 27
3 118 115 117
3 118 6 115
3 118 101 6
3 119 101 118
3 119 20 101
3 60 119 28
3 120 119 60
3 120 20 119
3 120 50 20
3 106 50 120
3 106 1 50
3 452 451 7
3 121 453 455
3 455 454 0
3 453 454 455
3 458 457 121
3 456 457 458
3 107 42 1
3 122 42 107
3 122 13 42
3 62 122 24
3 123 122 62
3 123 13 122
3 123 89 13
3 124 89 123
3 124 459 461
3 461 460 89
3 459 460 461
3 463 462 4
3 125 464 465
3 125 466 468
3 466 29 467
3 466 467 468
3 64 469 471
3 469 125 470
3 469 470 471
3 126 125 64
3 126 29 125
3 126 124 29
3 472 124 473
3 474 473 126
3 472 473 474
3 476 475 124
3 127 477 478
3 127 479 480
3 66 481 483
3 481 127 482
3 481 482 483
3 128 127 66
3 128 484 486
3 486 485 127
3 484 485 486
3 128 487 488
3 129 489 491
3 491 490 128
3 489 490 491
3 129 492 494
3 492 7 493
3 492 493 494
3 90 495 497
3 495 67 496
3 495 496 497
3 130 67 90
3 130 30 67
3 69 130 14
3 131 130 69
3 131 30 130
3 131 129 30
3 132 129 131
3 132 7 129
3 132 498 500
3 500 499 7
3 498 499 500
3 133 501 503
3 503 502 132
3 501 502 503
3 133 504 506
3 504 11 505
3 504 505 506
3 71 133 31
3 134 133 71
3 134 11 133
3 134 37 11
3 135 37 134
3 135 0 37
3 136 507 508
3 136 509 510
3 136 511 513
3 511 92 512
3 511 512 513
3 137 92 136
3 137 8 92
3 94 514 516
3 514 73 515
3 514 515 516
3 138 73 94
3 138 33 73
3 75 138 17
3 139 138 75
3 139 33 138
3 139 137 33
3 140 137 139
3 140 8 137
3 140 72 8
3 141 72 140
3 141 32 72
3 77 141 34
3 142 141 77
3 142 32 141
3 142 135 32
3 143 135 142
3 143 0 135
3 143 121 0
3 144 121 143
3 144 517 519
3 519 518 121
3 517 518 519
3 79 144 35
3 520 144 521
3 522 521 79
3 520 521 522
3 524 523 144
3 145 525 526
3 145 527 528
3 98 80 9
3 146 80 98
3 146 36 80
3 529 146 530
3 147 531 533
3 531 146 532
3 531 532 533
3 147 36 146
3 147 145 36
3 534 145 535
3 536 535 147
3 534 535 536
3 538 537 145
3 112 49 2
3 148 49 112
3 148 19 49
3 82 148 26
3 149 148 82
3 149 19 148
3 149 539 541
3 541 540 19
3 539 540 541
3 150 542 544
3 544 543 149
3 542 543 544
3 150 545 546
3 102 83 6
3 151 83 102
3 151 547 549
3 549 548 83
3 547 548 549
3 550 151 551
3 552 551 21
3 550 551 552
3 553 151 554
3 556 555 151
3 557 150 558
3 559 150 560
3 562 561 150
3 563 39 564
3 565 564 0
3 563 564 565
3 566 39 567
3 569 568 39
