ply
format ascii 1.0
element vertex 140
property float x
property float y
property float z
element face 104
property list uchar int vertex_index
end_header
53.593819 -74.139938 12.166582
49.175743 -82.48053 12.098986
51.705704 -76.154152 17.123446
51.23568 -77.991814 12.161824
46.624477 -90.38623 16.559496
47.809769 -87.639832 11.718025
50.124344 -80.143166 12.152063
51.214493 -78.965668 9.724075
50.119942 -81.221054 9.671535
49.231392 -83.668053 9.562346
47.188454 -89.007645 14.121764
52.428867 -76.006096 12.160036
45.940422 -93.048286 16.025173
52.45882 -76.895248 9.754154
48.465332 -83.778183 14.597812
47.253311 -87.722702 16.931297
47.777172 -86.342911 14.427164
48.416969 -84.992798 11.965643
54.107101 -73.236683 12.176334
54.068047 -72.811359 13.381718
53.554764 -73.714615 13.371965
54.274785 -73.640338 11.000718
54.107101 -73.236683 12.176334
53.670891 -74.55637 10.976889
54.351856 -74.05677 9.811025
54.274785 -73.640338 11.000718
52.192097 -75.20438 17.090764
51.901474 -75.706528 18.368917
52.10682 -75.641697 15.861984
52.192097 -75.20438 17.090764
51.556099 -76.605732 15.878557
52.10682 -75.641697 15.861984
45.514437 -94.34845 15.68198
45.603088 -93.700046 17.213266
45.903078 -93.716644 14.542208
45.514437 -94.34845 15.68198
51.907028 -78.378746 8.56007
51.274445 -79.467861 8.528171
48.198044 -84.450348 15.873856
48.594831 -83.210247 15.919531
46.938894 -89.054466 16.745396
47.017482 -88.419269 18.198154
46.703066 -89.751034 18.012253
48.174278 -86.960403 10.539457
48.477879 -85.636887 10.663265
48.113369 -86.316315 11.841834
51.43095 -76.694416 18.421121
51.901474 -75.706528 18.368917
51.186561 -77.158233 17.157519
51.43095 -76.694416 18.421121
50.727169 -80.595554 8.501901
51.274445 -79.467861 8.528171
50.667217 -80.093361 9.697805
50.193748 -81.783188 8.452379
50.727169 -80.595554 8.501901
49.749474 -83.006687 8.397784
50.193748 -81.783188 8.452379
49.675667 -82.444553 9.616941
49.327461 -84.289315 8.313149
49.749474 -83.006687 8.397784
46.891022 -90.35841 13.893448
46.906465 -89.696937 15.34063
46.609033 -91.047702 15.112313
47.22269 -89.684894 12.727221
46.891022 -90.35841 13.893448
47.533348 -89.000988 11.525351
47.499111 -88.323738 12.919895
47.22269 -89.684894 12.727221
47.887318 -88.324032 10.378014
47.533348 -89.000988 11.525351
53.050877 -74.63459 13.383552
53.554764 -73.714615 13.371965
52.468401 -75.567669 13.380279
53.011343 -75.073017 12.163309
53.050877 -74.63459 13.383552
51.917681 -76.531704 13.396852
52.468401 -75.567669 13.380279
51.321087 -77.524563 13.397746
51.832273 -76.998955 12.16093
51.917681 -76.531704 13.396852
51.556099 -76.605732 15.878557
51.186561 -77.158233 17.157519
50.772883 -78.558247 13.412917
51.321087 -77.524563 13.397746
50.217214 -79.633923 13.408036
50.680012 -79.06749 12.156944
50.772883 -78.558247 13.412917
49.717438 -80.753349 13.408138
50.217214 -79.633923 13.408036
49.243138 -81.922032 13.3816
49.650043 -81.311848 12.125525
49.717438 -80.753349 13.408138
46.346319 -91.07058 17.789669
46.703066 -89.751034 18.012253
46.004292 -92.401608 17.522507
45.603088 -93.700046 17.213266
46.282449 -91.717258 16.292334
46.346319 -91.07058 17.789669
46.004292 -92.401608 17.522507
46.267006 -92.378731 14.845152
46.609033 -91.047702 15.112313
46.282449 -91.717258 16.292334
46.267006 -92.378731 14.845152
45.903078 -93.716644 14.542208
53.088415 -75.489449 10.973616
53.670891 -74.55637 10.976889
53.011343 -75.073017 12.163309
53.103392 -75.934024 9.770675
53.088415 -75.489449 10.973616
52.443843 -76.450672 10.957095
53.217557 -76.340065 8.604162
53.862129 -75.378841 8.620683
53.103392 -75.934024 9.770675
52.529192 -77.343536 8.575109
51.836657 -77.930458 9.739114
51.907028 -78.378746 8.56007
53.217557 -76.340065 8.604162
52.529192 -77.343536 8.575109
48.887932 -82.570858 14.631013
48.594831 -83.210247 15.919531
48.820538 -83.129357 13.348399
49.243138 -81.922032 13.3816
48.887932 -82.570858 14.631013
47.377155 -87.111843 18.335545
47.017482 -88.419269 18.198154
47.592033 -86.422607 17.040598
47.377155 -87.111843 18.335545
47.853964 -85.732712 15.788532
47.592033 -86.422607 17.040598
47.515242 -87.032806 15.67923
48.121252 -85.060547 14.512488
48.198044 -84.450348 15.873856
47.853964 -85.732712 15.788532
48.88509 -84.974514 9.461617
48.82418 -84.330425 10.763994
48.477879 -85.636887 10.663265
49.327461 -84.289315 8.313149
48.88509 -84.974514 9.461617
48.174278 -86.960403 10.539457
47.887318 -88.324032 10.378014
3 0 18 20
3 18 19 20
3 0 21 22
3 0 23 25
3 23 24 25
3 1 8 6
3 1 9 8
3 2 26 27
3 2 28 29
3 2 30 31
3 32 12 33
3 35 34 12
3 3 13 11
3 37 36 7
3 38 14 39
3 4 40 42
3 40 15 41
3 40 41 42
3 5 16 10
3 5 17 16
3 5 43 45
3 45 44 17
3 43 44 45
3 46 2 47
3 49 48 2
3 6 7 3
3 8 7 6
3 8 50 52
3 52 51 7
3 50 51 52
3 8 53 54
3 9 55 57
3 57 56 8
3 55 56 57
3 9 58 59
3 60 10 61
3 62 61 4
3 60 61 62
3 63 10 64
3 65 5 66
3 67 66 10
3 65 66 67
3 69 68 5
3 70 0 71
3 72 11 73
3 74 73 0
3 72 73 74
3 75 11 76
3 77 3 78
3 79 78 11
3 77 78 79
3 81 80 2
3 82 3 83
3 84 6 85
3 86 85 3
3 84 85 86
3 87 6 88
3 89 1 90
3 91 90 6
3 89 90 91
3 92 4 93
3 12 94 95
3 12 96 98
3 96 4 97
3 96 97 98
3 12 99 101
3 101 100 4
3 99 100 101
3 103 102 12
3 11 104 106
3 106 105 0
3 104 105 106
3 13 107 109
3 109 108 11
3 107 108 109
3 13 110 112
3 110 111 112
3 7 13 3
3 113 13 114
3 115 114 7
3 113 114 115
3 117 116 13
3 14 118 119
3 14 120 122
3 120 1 121
3 120 121 122
3 15 123 124
3 15 125 126
3 10 15 4
3 16 15 10
3 16 127 129
3 129 128 15
3 127 128 129
3 16 130 132
3 130 14 131
3 130 131 132
3 17 14 16
3 17 1 14
3 17 9 1
3 133 9 134
3 135 134 17
3 133 134 135
3 137 136 9
3 139 138 5
