ply
format ascii 1.0
element vertex 234
property float x
property float y
property float z
element face 165
property list uchar int vertex_index
end_header
-56.372734 -58.544769 50.801025
-40.016655 -84.073975 48.984306
-54.071205 -59.690575 50.454288
-53.617943 -64.181747 49.423161
-50.646568 -65.835022 48.842075
-46.46447 -72.273636 48.463253
-57.262058 -58.956036 50.377106
-55.14505 -61.070812 50.254097
-38.882671 -82.103943 49.317379
-38.246681 -84.759613 48.856476
-50.851898 -63.364426 49.145012
-46.900631 -69.707512 48.26561
-52.40139 -62.668964 49.607189
-53.8377 -61.904087 49.989906
-48.986404 -66.523438 48.494766
-52.191055 -65.055923 49.163265
-39.344307 -86.630981 48.168331
-40.724895 -81.457588 49.318432
-45.021767 -70.284897 48.135719
-44.566235 -72.904579 48.480965
-43.326546 -78.113083 49.115253
-42.579479 -80.686104 49.177147
-56.995094 -57.162827 50.83112
-52.871845 -57.996964 50.327393
-58.174026 -57.398384 50.263645
-59.315754 -57.732121 49.255733
-56.817396 -58.750402 50.589066
-56.776463 -59.552082 50.376774
-56.3318 -59.346449 50.588734
-56.3318 -59.346449 50.588734
-55.872792 -58.80921 50.7668
-50.944084 -62.135647 49.304888
-50.11129 -62.413378 49.007995
-53.954453 -60.797331 50.222097
-53.223987 -61.107986 50.00135
-53.34074 -60.001231 50.233541
-55.037515 -62.139688 49.924413
-55.637932 -61.59637 49.958285
-49.816486 -66.17923 48.66842
-49.092433 -65.256645 48.57258
-49.922516 -64.912437 48.746234
-50.509731 -67.068771 48.716734
-49.679649 -67.41298 48.543079
-49.816486 -66.17923 48.66842
-41.072344 -80.131744 49.293541
-40.122514 -80.430286 49.330311
-44.267145 -77.722081 48.994326
-43.662255 -76.814804 48.979107
-43.075709 -81.465077 48.905636
-43.498117 -80.247135 49.033354
-42.190256 -81.955562 49.043852
-43.075709 -81.465077 48.905636
-52.203972 -57.032633 50.142528
-52.060213 -58.23523 50.039957
-51.39234 -57.270899 49.855093
-57.987201 -56.392788 50.479211
-57.58456 -57.280606 50.547382
-57.397735 -56.275009 50.762949
-59.850447 -56.822086 49.074625
-59.228785 -56.667267 49.630529
-59.849432 -57.919131 48.544767
-59.850447 -56.822086 49.074625
-38.499771 -86.984977 48.017055
-39.050352 -87.865723 47.490324
-57.246851 -59.914322 50.00186
-56.776463 -59.552082 50.376774
-57.767822 -59.180909 49.935221
-57.246851 -59.914322 50.00186
-55.258949 -60.072231 50.493336
-54.608127 -60.380693 50.354192
-54.722027 -59.382113 50.593431
-55.717958 -60.609471 50.315269
-55.258949 -60.072231 50.493336
-55.637932 -61.59637 49.958285
-55.717958 -60.609471 50.315269
-37.982702 -82.353863 49.252581
-38.271307 -80.998795 49.334171
-37.664707 -83.681698 49.022129
-37.982702 -82.353863 49.252581
-38.564676 -83.431778 49.086928
-37.383083 -85.005371 48.699194
-37.664707 -83.681698 49.022129
-50.02518 -63.677139 48.897703
-50.11129 -62.413378 49.007995
-50.749233 -64.599724 48.993544
-49.922516 -64.912437 48.746234
-50.02518 -63.677139 48.897703
-53.488551 -65.335941 49.117718
-54.146393 -64.799453 49.126297
-47.796539 -69.379383 48.346741
-47.060812 -68.418473 48.213644
-47.590864 -70.633328 48.35492
-47.796539 -69.379383 48.346741
-47.372783 -71.91639 48.453741
-46.68255 -70.990574 48.364432
-47.590864 -70.633328 48.35492
-52.505832 -61.490425 49.809991
-51.71883 -61.787916 49.535977
-53.119545 -62.286525 49.798547
-52.505832 -61.490425 49.809991
-53.223987 -61.107986 50.00135
-54.38384 -62.556326 49.792318
-54.491375 -61.487449 50.122001
-55.037515 -62.139688 49.924413
-54.273962 -63.695156 49.508945
-53.727821 -63.042917 49.706533
-54.38384 -62.556326 49.792318
-54.146393 -64.799453 49.126297
-54.273962 -63.695156 49.508945
-48.219261 -65.536407 48.334762
-49.092433 -65.256645 48.57258
-48.103699 -66.826436 48.328222
-48.219261 -65.536407 48.334762
-48.839426 -67.787346 48.461319
-48.103699 -66.826436 48.328222
-48.839426 -67.787346 48.461319
-49.679649 -67.41298 48.543079
-51.626644 -63.016695 49.3761
-50.944084 -62.135647 49.304888
-51.71883 -61.787916 49.535977
-52.775106 -65.773029 48.98777
-52.904499 -64.618835 49.293213
-53.488551 -65.335941 49.117718
-52.05989 -66.25341 48.945358
-52.775106 -65.773029 48.98777
-51.287647 -66.642959 48.784763
-51.418812 -65.445472 49.00267
-52.05989 -66.25341 48.945358
-50.509731 -67.068771 48.716734
-51.287647 -66.642959 48.784763
-40.195442 -86.172684 48.192657
-39.680481 -85.352478 48.576318
-40.531616 -84.894181 48.600645
-39.858539 -87.382156 47.600065
-40.195442 -86.172684 48.192657
-39.050352 -87.865723 47.490324
-39.858539 -87.382156 47.600065
-39.201403 -80.753464 49.329785
-38.271307 -80.998795 49.334171
-39.803783 -81.780766 49.317906
-39.201403 -80.753464 49.329785
-40.122514 -80.430286 49.330311
-46.135584 -68.686333 48.075463
-47.060812 -68.418473 48.213644
-45.196152 -68.975026 48.010517
-46.135584 -68.686333 48.075463
-45.961199 -69.996205 48.200665
-44.242956 -69.21521 47.921564
-45.196152 -68.975026 48.010517
-44.055118 -70.541687 48.102648
-44.242956 -69.21521 47.921564
-43.827353 -71.851528 48.27527
-44.055118 -70.541687 48.102648
-44.794001 -71.594738 48.308342
-43.593582 -73.184696 48.499578
-43.827353 -71.851528 48.27527
-47.096767 -73.153213 48.484154
-47.372783 -71.91639 48.453741
-46.181629 -73.545624 48.579399
-47.096767 -73.153213 48.484154
-45.232512 -73.861096 48.588255
-45.515352 -72.589107 48.472109
-46.181629 -73.545624 48.579399
-44.282099 -74.210552 48.661963
-45.232512 -73.861096 48.588255
-43.593582 -73.184696 48.499578
-44.282099 -74.210552 48.661963
-42.693638 -77.125152 49.036729
-43.662255 -76.814804 48.979107
-42.373169 -78.459492 49.191952
-42.693638 -77.125152 49.036729
-43.871651 -78.960625 49.002407
-44.267145 -77.722081 48.994326
-42.953012 -79.399594 49.1462
-43.871651 -78.960625 49.002407
-43.498117 -80.247135 49.033354
-41.999635 -79.746003 49.222898
-42.373169 -78.459492 49.191952
-42.953012 -79.399594 49.1462
-41.652187 -81.071846 49.247789
-41.072344 -80.131744 49.293541
-41.999635 -79.746003 49.222898
-41.262964 -82.341305 49.114494
-41.652187 -81.071846 49.247789
-42.190256 -81.955562 49.043852
-40.908844 -83.649498 48.947431
-40.370775 -82.765782 49.151369
-41.262964 -82.341305 49.114494
-40.531616 -84.894181 48.600645
-40.908844 -83.649498 48.947431
-56.37718 -57.187191 50.899251
-56.683914 -57.853798 50.816073
-56.066 -57.878162 50.884203
-56.684729 -56.243174 50.899191
-56.37718 -57.187191 50.899251
-57.397735 -56.275009 50.762949
-56.684729 -56.243174 50.899191
-52.74106 -59.154425 50.170094
-52.060213 -58.23523 50.039957
-53.471525 -58.84377 50.39084
-53.34074 -60.001231 50.233541
-52.74106 -59.154425 50.170094
-53.054964 -56.857668 50.416168
-52.203972 -57.032633 50.142528
-52.38709 -55.893337 50.231304
-53.630426 -57.774334 50.543821
-53.054964 -56.857668 50.416168
-54.230106 -58.621139 50.607269
-53.471525 -58.84377 50.39084
-53.630426 -57.774334 50.543821
-54.722027 -59.382113 50.593431
-54.230106 -58.621139 50.607269
-56.066 -57.878162 50.884203
-55.872792 -58.80921 50.7668
-58.223806 -58.402082 49.87849
-57.767822 -59.180909 49.935221
-57.718042 -58.17721 50.320375
-58.657921 -56.500399 50.134485
-57.987201 -56.392788 50.479211
-58.74489 -57.565252 49.759689
-58.657921 -56.500399 50.134485
-59.228785 -56.667267 49.630529
-58.79467 -58.568951 49.374534
-58.223806 -58.402082 49.87849
-58.74489 -57.565252 49.759689
-59.289015 -58.785193 48.716106
-58.79467 -58.568951 49.374534
-59.289015 -58.785193 48.716106
-59.849432 -57.919131 48.544767
-37.950958 -86.049294 48.361128
-38.795494 -85.695297 48.512404
-38.499771 -86.984977 48.017055
-37.383083 -85.005371 48.699194
-37.950958 -86.049294 48.361128
3 0 26 28
3 26 6 27
3 26 27 28
3 0 29 30
3 1 9 8
3 31 10 32
3 2 33 35
3 33 13 34
3 33 34 35
3 37 36 7
3 4 38 40
3 38 14 39
3 38 39 40
3 4 41 43
3 43 42 14
3 41 42 43
3 3 15 12
3 44 17 45
3 5 18 11
3 5 19 18
3 46 20 47
3 48 21 49
3 51 50 21
3 52 23 53
3 52 53 54
3 55 24 56
3 57 56 22
3 55 56 57
3 58 25 59
3 61 60 25
3 63 62 16
3 6 64 65
3 6 66 67
3 68 7 69
3 70 69 2
3 68 69 70
3 71 7 72
3 74 73 7
3 8 75 76
3 9 77 79
3 79 78 8
3 77 78 79
3 9 80 81
3 10 82 83
3 10 84 86
3 84 4 85
3 84 85 86
3 88 87 3
3 89 11 90
3 91 11 92
3 93 5 94
3 95 94 11
3 93 94 95
3 96 12 97
3 13 98 100
3 98 12 99
3 98 99 100
3 13 3 12
3 7 13 2
3 101 13 102
3 103 102 7
3 101 102 103
3 104 3 105
3 106 105 13
3 104 105 106
3 108 107 3
3 14 109 110
3 14 111 112
3 14 113 114
3 116 115 14
3 12 117 119
3 117 10 118
3 117 118 119
3 15 10 12
3 15 4 10
3 120 15 121
3 122 121 3
3 120 121 122
3 123 15 124
3 125 4 126
3 127 126 15
3 125 126 127
3 129 128 4
3 130 16 131
3 132 131 1
3 130 131 132
3 133 16 134
3 136 135 16
3 137 8 138
3 17 139 141
3 139 8 140
3 139 140 141
3 17 1 8
3 11 142 143
3 18 144 146
3 146 145 11
3 144 145 146
3 18 147 148
3 18 149 150
3 19 151 153
3 153 152 18
3 151 152 153
3 19 154 155
3 156 5 157
3 158 5 159
3 160 19 161
3 162 161 5
3 160 161 162
3 163 19 164
3 166 165 19
3 20 167 168
3 20 169 170
3 171 20 172
3 21 173 175
3 173 20 174
3 173 174 175
3 21 176 178
3 178 177 20
3 176 177 178
3 21 179 181
3 179 17 180
3 179 180 181
3 182 17 183
3 184 183 21
3 182 183 184
3 185 1 186
3 187 186 17
3 185 186 187
3 189 188 1
3 190 22 191
3 192 191 0
3 190 191 192
3 193 22 194
3 196 195 22
3 23 197 198
3 23 199 201
3 199 2 200
3 199 200 201
3 202 23 203
3 202 203 204
3 205 23 206
3 207 2 208
3 209 208 23
3 207 208 209
3 211 210 2
3 212 0 213
3 22 6 0
3 24 6 22
3 24 214 216
3 216 215 6
3 214 215 216
3 217 24 218
3 25 219 221
3 219 24 220
3 219 220 221
3 25 222 224
3 224 223 24
3 222 223 224
3 25 225 226
3 228 227 25
3 16 9 1
3 229 9 230
3 231 230 16
3 229 230 231
3 233 232 9
