ply
format ascii 1.0
element vertex 602
property float x
property float y
property float z
element face 562
property list uchar int vertex_index
end_header
33.749649 -60.447842 56.332909
21.999413 -79.984756 56.846832
35.175903 -54.638546 53.348465
16.263102 -77.91658 68.73114
31.816669 -62.977169 63.453949
29.718771 -71.019493 61.017181
28.430477 -84.7173 44.649582
14.860081 -85.293579 59.619392
21.589182 -87.750664 45.79546
33.87405 -63.663158 55.898865
34.364853 -57.911449 54.967422
30.21489 -64.533173 67.389336
30.750826 -67.009285 62.602043
22.656092 -76.910553 61.637169
26.028225 -75.65303 60.165718
28.582748 -81.394676 50.51635
25.210606 -81.796783 50.504738
11.414122 -84.324768 65.226585
18.388275 -91.030136 47.953091
24.518368 -90.31485 38.706383
39.628971 -51.621685 49.196945
37.908073 -55.257996 50.266014
18.984585 -78.90831 63.108101
32.897999 -61.539082 59.451904
32.432003 -65.41481 59.087227
32.004269 -69.615845 58.286377
27.057814 -72.270531 63.477654
29.041399 -74.799522 58.672462
31.470282 -88.653214 39.686119
15.174329 -81.556099 64.410378
18.40839 -82.290245 58.218048
18.334007 -86.199425 52.996864
21.734661 -83.400078 51.399315
24.994141 -85.489143 44.550068
28.055502 -88.756668 38.333809
34.295181 -60.875961 54.987312
33.795521 -61.846298 56.117508
34.022079 -59.330181 55.721321
34.779125 -59.627293 54.087639
29.418915 -66.551941 66.772881
22.265553 -78.441734 59.342369
24.019512 -77.724899 58.710739
23.76322 -79.22493 56.287666
25.323605 -80.222504 53.285561
23.590733 -80.766464 53.649429
36.390396 -54.872791 51.632515
19.521156 -77.256035 65.32206
17.585556 -78.447075 66.031647
41.602421 -52.142021 48.396187
32.67429 -63.418526 59.344147
32.037598 -64.199837 61.219009
30.203472 -69.030762 61.894325
31.241707 -68.288574 60.323471
30.895906 -70.352631 59.673294
31.865314 -71.742737 57.739067
30.625134 -72.386803 58.873413
25.539715 -72.937996 64.576408
27.312916 -76.848801 57.614258
27.577469 -75.207489 59.429115
28.847038 -76.557587 57.120293
28.519403 -83.001091 47.690605
30.092949 -84.782578 45.192245
31.616743 -86.771904 42.921108
29.981049 -86.585503 42.044777
13.113491 -84.8675 62.565155
13.275961 -82.970078 64.901924
14.927731 -83.389458 62.052315
16.769228 -81.92395 61.422356
16.620983 -83.747711 58.94413
19.958694 -89.322853 46.804642
18.379498 -88.491257 50.419464
19.998898 -86.861282 49.42939
20.01564 -84.68158 52.138245
21.670326 -85.429329 48.5756
23.381929 -84.298317 47.935631
23.273598 -86.442863 45.020302
25.86307 -91.972542 35.431343
26.285748 -89.331841 38.296299
27.68885 -91.164024 35.280602
29.489594 -90.754921 35.615143
33.978939 -65.696861 55.711693
34.743084 -56.332558 54.158684
35.807587 -56.579208 52.409424
35.279556 -58.175674 53.234612
35.863033 -60.12376 52.616051
15.012408 -77.232704 71.154953
31.103306 -63.745743 65.467911
31.309052 -64.982826 63.13118
30.448204 -65.76561 65.002708
29.741198 -67.771194 64.303604
29.054605 -69.738861 63.395889
23.193165 -75.33812 63.719521
24.888702 -74.614471 62.851097
24.386644 -76.2024 60.898712
25.704609 -77.212875 58.137283
26.919514 -81.476028 50.401367
26.832771 -83.111725 47.484089
11.344799 -86.253876 62.906258
13.137867 -86.817261 60.178253
16.87513 -92.724541 49.130325
19.817368 -92.051781 44.330288
21.426094 -90.375778 43.140701
23.095963 -88.900314 42.189312
22.784691 -91.661201 39.524914
38.71106 -53.461437 49.658623
39.704662 -55.772392 49.279259
21.398067 -76.214699 64.545647
20.849072 -77.810959 62.378716
20.458755 -79.391357 60.023628
42.711559 -50.309566 48.226509
33.50526 -59.385597 57.447891
33.351749 -60.918465 57.677734
33.092091 -59.782078 59.333946
32.683716 -60.348072 61.394958
32.218517 -61.01075 63.536781
33.722298 -57.877224 56.884674
33.25444 -62.640587 57.603615
33.170425 -64.566132 57.412231
33.104359 -66.633972 57.170822
31.636227 -66.226761 60.8424
32.19912 -67.493774 58.729378
28.446579 -71.645782 62.290001
26.474796 -74.009262 61.93911
27.951336 -73.472786 60.976517
29.328478 -72.949432 59.955467
30.436432 -74.362648 57.878296
15.617564 -79.745834 66.64827
17.085121 -80.175583 63.797791
18.619555 -80.566498 60.72982
20.207432 -81.014771 57.502098
16.61211 -85.704727 56.415108
18.325579 -84.146843 55.619705
20.070358 -82.753227 54.853844
21.832119 -81.610565 54.181206
23.474167 -82.429588 50.841713
25.111935 -83.52552 47.563465
26.723194 -84.923775 44.42495
24.814098 -87.745949 41.565228
26.555672 -86.982857 41.326492
28.288019 -86.616814 41.493317
29.79248 -88.562065 38.813629
35.78315 -54.755668 52.49049
36.047848 -53.864261 52.111202
35.440601 -53.747139 52.969178
17.270341 -77.304458 68.413914
16.683633 -76.975998 69.681736
16.924329 -78.181827 67.381394
17.931568 -77.569706 67.064167
17.270341 -77.304458 68.413914
31.927134 -63.588503 62.336479
32.218291 -63.217793 61.318741
32.107826 -62.606459 62.436211
24.714914 -73.314289 65.082111
25.141269 -72.444279 65.908378
28.785049 -77.391472 56.18763
28.079977 -76.703194 57.367275
28.017988 -77.537079 56.434613
29.55159 -77.311081 56.087425
28.785049 -77.391472 56.18763
27.416177 -92.496159 33.853657
26.77596 -91.568283 35.355973
26.503287 -92.900418 33.929028
28.359634 -92.171307 33.918587
27.416177 -92.496159 33.853657
34.353876 -64.162531 55.152359
34.213385 -63.159065 55.254929
33.926494 -64.680009 55.805279
34.40632 -65.179382 55.058773
34.353876 -64.162531 55.152359
35.53774 -60.801653 53.079185
35.321079 -59.875526 53.351845
34.995787 -60.55342 53.814979
36.175387 -61.160668 52.456734
35.53774 -60.801653 53.079185
14.41848 -76.780483 72.214165
15.496465 -76.221759 72.015476
29.159357 -68.149372 65.101906
29.580056 -67.161567 65.538242
28.998216 -67.539746 66.336545
28.816061 -69.133206 64.648049
29.397901 -68.755027 63.849747
29.159357 -68.149372 65.101906
25.591857 -77.965778 56.989364
24.86206 -77.468887 58.424011
24.749308 -78.22179 57.276092
26.419056 -77.812599 56.821018
25.591857 -77.965778 56.989364
11.405697 -87.229813 61.731621
10.493188 -86.851357 62.96666
12.302231 -87.511505 60.367618
12.241333 -86.535569 61.542255
11.405697 -87.229813 61.731621
20.4615 -92.658905 42.502573
19.653337 -93.517719 43.189455
21.265864 -91.820904 41.90778
20.621731 -91.21378 43.735495
20.4615 -92.658905 42.502573
21.945162 -92.463615 40.099886
22.105393 -91.01849 41.332808
21.265864 -91.820904 41.90778
38.309567 -54.359716 49.962318
37.888783 -53.272489 50.299858
37.487289 -54.170769 50.603554
36.497742 -56.781897 51.694454
36.161667 -57.597293 52.08836
20.818279 -75.889145 65.949128
21.757686 -75.387707 65.529705
40.15633 -50.693647 49.057083
39.236705 -50.492155 49.590736
43.22483 -51.539876 48.083683
42.15699 -51.225793 48.311348
42.670261 -52.456104 48.168522
43.792251 -50.636375 48.047525
43.22483 -51.539876 48.083683
33.176445 -58.939796 59.138115
33.298676 -59.583838 58.390918
33.383029 -58.741556 58.195087
32.583189 -59.718291 62.376595
32.780632 -59.436461 61.255863
32.350589 -60.04963 63.447506
32.451116 -60.679411 62.465869
32.583189 -59.718291 62.376595
33.491549 -57.987369 57.913479
33.567696 -57.142879 57.602253
33.383029 -58.741556 58.195087
33.613779 -58.631411 57.166282
33.491549 -57.987369 57.913479
32.53688 -69.20303 57.592408
32.634306 -68.141995 57.813908
32.101695 -68.55481 58.507877
32.538574 -70.302369 57.430962
32.53688 -69.20303 57.592408
32.487974 -72.466515 56.942791
31.825185 -72.791314 57.387375
27.413965 -71.354996 64.137425
26.696043 -71.717953 64.77932
27.752197 -71.958157 62.883827
28.108348 -71.042621 63.543598
27.413965 -71.354996 64.137425
29.388462 -81.42059 50.662018
28.612983 -80.609123 51.784016
32.274368 -88.770352 40.274521
32.347598 -87.829697 41.892015
31.543512 -87.712559 41.303613
32.182507 -89.739258 38.622341
32.274368 -88.770352 40.274521
11.555874 -83.358338 66.346355
10.60969 -83.949169 66.410282
14.40976 -81.321797 65.774567
13.460576 -82.028786 66.02034
14.225145 -82.263089 64.656151
15.395947 -80.650967 65.529324
14.631377 -80.416664 66.893513
14.40976 -81.321797 65.774567
17.601332 -90.608711 49.702387
16.844759 -91.455914 50.291004
17.631702 -91.877339 48.541708
17.516119 -87.021313 53.44688
17.538865 -88.167229 52.15818
18.356752 -87.345341 51.708164
17.473059 -85.952076 54.705986
16.655171 -86.773964 55.156002
17.516119 -87.021313 53.44688
30.360591 -90.719082 36.007892
30.175845 -91.82362 34.397913
34.42395 -61.765467 54.799152
34.753815 -61.177753 54.264816
34.17412 -62.250635 55.36425
34.42395 -61.765467 54.799152
34.045351 -61.361129 55.55241
33.834785 -62.754728 56.008187
34.213385 -63.159065 55.254929
34.17412 -62.250635 55.36425
34.753815 -61.177753 54.264816
34.995787 -60.55342 53.814979
34.537153 -60.251627 54.537475
29.268845 -65.945663 67.968288
29.816902 -65.542557 67.081108
29.666832 -64.93628 68.276516
28.807341 -66.952186 67.585183
29.268845 -65.945663 67.968288
28.998216 -67.539746 66.336545
28.807341 -66.952186 67.585183
24.621163 -78.971806 56.064556
24.749308 -78.22179 57.276092
23.891366 -78.474914 57.499202
24.543413 -79.723717 54.786614
25.401355 -79.470593 54.563503
24.621163 -78.971806 56.064556
36.728451 -53.978167 51.286804
36.047848 -53.864261 52.111202
37.149235 -55.065393 50.949264
37.487289 -54.170769 50.603554
36.728451 -53.978167 51.286804
18.899368 -76.974186 66.709373
19.879824 -76.409813 66.337334
18.553356 -77.851555 65.676853
18.899368 -76.974186 66.709373
17.931568 -77.569706 67.064167
41.104184 -53.056685 48.577568
40.615696 -51.881853 48.796566
40.117458 -52.796516 48.977947
42.148438 -53.363855 48.30623
41.104184 -53.056685 48.577568
42.670261 -52.456104 48.168522
42.148438 -53.363855 48.30623
32.536637 -62.827137 60.38131
32.786144 -62.478804 59.398026
32.648491 -61.887415 60.435188
32.355944 -63.809182 60.281578
32.536637 -62.827137 60.38131
32.218291 -63.217793 61.318741
31.205095 -73.113347 57.954548
31.825185 -72.791314 57.387375
31.245224 -72.06477 58.30624
25.936993 -72.051685 65.328697
25.141269 -72.444279 65.908378
26.298765 -72.604264 64.027031
26.696043 -71.717953 64.77932
25.936993 -72.051685 65.328697
29.583577 -76.40815 56.873146
29.680757 -75.529117 57.649231
28.944218 -75.678554 57.896377
29.583577 -76.40815 56.873146
29.55159 -77.311081 56.087425
29.338229 -83.046539 47.91745
29.369901 -82.243332 49.330323
28.551075 -82.197884 49.103477
30.125002 -83.937283 46.66827
29.338229 -83.046539 47.91745
29.306176 -83.891835 46.441425
30.897355 -84.88696 45.589891
30.125002 -83.937283 46.66827
30.854846 -85.777241 44.056676
31.659252 -85.881623 44.454323
30.897355 -84.88696 45.589891
29.260006 -91.966755 34.085858
28.589222 -90.959473 35.447873
28.359634 -92.171307 33.918587
30.175845 -91.82362 34.397913
29.260006 -91.966755 34.085858
34.558517 -66.263134 55.015953
34.40632 -65.179382 55.058773
34.044966 -66.780597 55.635952
34.558517 -66.263134 55.015953
35.897651 -58.395527 52.500954
36.161667 -57.597293 52.08836
35.543571 -57.377441 52.822018
36.18939 -59.369569 52.191674
35.897651 -58.395527 52.500954
35.571295 -59.149717 52.925331
36.574728 -60.438802 52.022842
36.18939 -59.369569 52.191674
36.574728 -60.438802 52.022842
36.175387 -61.160668 52.456734
16.058286 -76.63406 70.893642
15.496465 -76.221759 72.015476
15.637755 -77.574642 69.943047
16.683633 -76.975998 69.681736
16.058286 -76.63406 70.893642
24.040934 -74.976295 63.285309
24.389408 -74.152526 64.219455
23.54164 -74.514351 64.653667
27.22321 -77.630562 56.559506
26.508763 -77.030838 57.875771
26.419056 -77.812599 56.821018
28.017988 -77.537079 56.434613
27.22321 -77.630562 56.559506
27.797017 -80.66484 51.804749
28.612983 -80.609123 51.784016
26.167445 -80.078755 53.189354
25.401355 -79.470593 54.563503
26.9654 -80.705517 51.747257
26.167445 -80.078755 53.189354
26.12156 -80.849266 51.843464
27.751131 -81.435352 50.458859
27.797017 -80.66484 51.804749
26.9654 -80.705517 51.747257
10.514121 -84.925507 65.284233
10.60969 -83.949169 66.410282
10.47946 -85.890061 64.12407
9.627848 -86.487541 64.184471
10.493188 -86.851357 62.96666
11.379461 -85.289322 64.066422
10.514121 -84.925507 65.284233
10.47946 -85.890061 64.12407
16.828587 -94.062226 48.045727
16.144517 -93.492565 49.675117
16.097974 -94.83025 48.590519
17.573061 -93.251461 47.388023
16.828587 -94.062226 48.045727
17.526518 -94.589146 46.303425
18.329633 -92.404258 46.799406
17.631702 -91.877339 48.541708
17.573061 -93.251461 47.388023
19.04418 -92.915081 44.988005
19.653337 -93.517719 43.189455
19.102821 -91.540959 46.141689
18.329633 -92.404258 46.799406
19.04418 -92.915081 44.988005
22.528883 -93.163444 38.304802
21.945162 -92.463615 40.099886
21.689354 -93.965858 38.879774
23.416506 -92.414173 37.788645
22.528883 -93.163444 38.304802
23.160698 -93.916416 36.568533
24.283344 -91.740998 37.379379
23.651529 -90.988026 39.115649
23.416506 -92.414173 37.788645
24.955696 -92.569844 35.74186
25.190719 -91.143696 37.068863
24.283344 -91.740998 37.379379
25.551094 -93.417679 34.117759
24.955696 -92.569844 35.74186
24.643719 -94.014981 34.428276
26.503287 -92.900418 33.929028
25.551094 -93.417679 34.117759
38.751917 -51.42975 49.78775
39.236705 -50.492155 49.590736
38.292962 -52.349626 50.018589
37.888783 -53.272489 50.299858
39.170016 -52.541561 49.427784
38.751917 -51.42975 49.78775
38.292962 -52.349626 50.018589
39.658503 -53.716392 49.208786
40.117458 -52.796516 48.977947
39.170016 -52.541561 49.427784
40.155304 -54.87187 49.019104
39.658503 -53.716392 49.208786
39.207861 -54.616915 49.468941
40.715635 -56.079897 48.968991
40.155304 -54.87187 49.019104
36.789147 -55.928688 51.306
36.098991 -55.726 52.020969
36.497742 -56.781897 51.694454
37.547985 -56.121291 50.622749
37.149235 -55.065393 50.949264
36.789147 -55.928688 51.306
38.389723 -56.388632 50.091427
37.547985 -56.121291 50.622749
39.288017 -56.64583 49.59805
38.806368 -55.515194 49.772637
38.389723 -56.388632 50.091427
40.257547 -56.961821 49.251915
39.288017 -56.64583 49.59805
40.715635 -56.079897 48.968991
40.257547 -56.961821 49.251915
22.655235 -74.949418 65.116642
23.54164 -74.514351 64.653667
22.295616 -75.776409 64.132584
22.655235 -74.949418 65.116642
21.757686 -75.387707 65.529705
20.459612 -76.735367 64.933853
20.818279 -75.889145 65.949128
19.879824 -76.409813 66.337334
41.143055 -50.953816 48.656704
40.15633 -50.693647 49.057083
40.615696 -51.881853 48.796566
41.697624 -50.037588 48.571865
41.143055 -50.953816 48.656704
42.15699 -51.225793 48.311348
42.297335 -49.11355 48.534065
41.697624 -50.037588 48.571865
43.325378 -49.402475 48.247776
42.297335 -49.11355 48.534065
43.325378 -49.402475 48.247776
43.792251 -50.636375 48.047525
32.98482 -59.153464 60.225357
33.176445 -58.939796 59.138115
32.887904 -60.065075 60.364452
32.98482 -59.153464 60.225357
32.780632 -59.436461 61.255863
32.541349 -61.29191 61.406715
32.648491 -61.887415 60.435188
32.790858 -60.943577 60.423431
32.30875 -61.623249 62.477626
32.541349 -61.29191 61.406715
32.451116 -60.679411 62.465869
32.017593 -61.99396 63.495365
32.107826 -62.606459 62.436211
32.30875 -61.623249 62.477626
32.109175 -60.375475 64.565731
32.350589 -60.04963 63.447506
31.927546 -61.371659 64.603741
32.109175 -60.375475 64.565731
31.726622 -62.354868 64.562325
32.017593 -61.99396 63.495365
31.927546 -61.371659 64.603741
31.36994 -62.739155 65.569305
31.459988 -63.361456 64.46093
31.726622 -62.354868 64.562325
30.993682 -63.119182 66.595024
31.36994 -62.739155 65.569305
30.549474 -63.512898 67.555736
30.659098 -64.139458 66.428624
30.993682 -63.119182 66.595024
30.067264 -63.907038 68.509998
30.549474 -63.512898 67.555736
29.666832 -64.93628 68.276516
30.067264 -63.907038 68.509998
34.902704 -53.71204 53.950504
35.440601 -53.747139 52.969178
34.714695 -54.603945 54.34951
34.902704 -53.71204 53.950504
34.498286 -55.450951 54.75462
34.959494 -55.485552 53.753574
34.714695 -54.603945 54.34951
34.354878 -56.30179 55.156044
34.498286 -55.450951 54.75462
34.165762 -57.091236 55.560413
34.553968 -57.122003 54.563053
34.354878 -56.30179 55.156044
33.844485 -57.074123 56.519039
33.567696 -57.142879 57.602253
34.043576 -57.894336 55.926048
34.165762 -57.091236 55.560413
33.844485 -57.074123 56.519039
33.607675 -67.249153 56.365516
34.044966 -66.780597 55.635952
33.541649 -66.165416 56.441257
33.086925 -67.712094 57.03463
32.65174 -67.063873 57.9501
32.634306 -68.141995 57.813908
33.607675 -67.249153 56.365516
33.086925 -67.712094 57.03463
32.469097 -71.365814 57.157307
32.538574 -70.302369 57.430962
31.934792 -70.679291 58.012722
32.469097 -71.365814 57.157307
32.487974 -72.466515 56.942791
28.412361 -70.089161 64.096542
28.816061 -69.133206 64.648049
28.750592 -70.692321 62.842945
28.412361 -70.089161 64.096542
28.108348 -71.042621 63.543598
25.214208 -73.776233 63.713752
24.714914 -73.314289 65.082111
24.389408 -74.152526 64.219455
31.110744 -74.101269 57.456989
31.205095 -73.113347 57.954548
30.530783 -73.374725 58.375855
30.378274 -75.31068 57.252147
29.738915 -74.581085 58.275379
29.680757 -75.529117 57.649231
31.09475 -75.120659 56.990192
30.378274 -75.31068 57.252147
31.110744 -74.101269 57.456989
31.09475 -75.120659 56.990192
29.388462 -81.42059 50.662018
29.369901 -82.243332 49.330323
32.405597 -86.898953 43.47534
31.659252 -85.881623 44.454323
32.405597 -86.898953 43.47534
32.347598 -87.829697 41.892015
13.965063 -77.822933 71.339302
14.41848 -76.780483 72.214165
14.619491 -78.208664 70.194504
13.965063 -77.822933 71.339302
15.244838 -78.550602 68.982597
15.637755 -77.574642 69.943047
14.619491 -78.208664 70.194504
12.486794 -82.680993 66.184024
11.555874 -83.358338 66.346355
12.345042 -83.647423 65.064255
12.486794 -82.680993 66.184024
13.460576 -82.028786 66.02034
14.922069 -79.465229 67.941162
14.631377 -80.416664 66.893513
15.940333 -78.831207 67.689705
15.244838 -78.550602 68.982597
14.922069 -79.465229 67.941162
13.22429 -87.834561 58.986817
12.302231 -87.511505 60.367618
14.038213 -87.065674 58.672191
13.22429 -87.834561 58.986817
14.89932 -86.303833 58.392761
13.998974 -86.05542 59.898822
14.038213 -87.065674 58.672191
16.087829 -92.266343 50.776924
15.357217 -93.034367 51.321717
16.144517 -93.492565 49.675117
16.087829 -92.266343 50.776924
16.844759 -91.455914 50.291004
17.596943 -89.339271 50.935574
17.601332 -90.608711 49.702387
18.383887 -89.760696 49.186278
17.596943 -89.339271 50.935574
17.538865 -88.167229 52.15818
15.775334 -86.509407 56.790619
16.655171 -86.773964 55.156002
15.736096 -85.499153 58.01725
14.89932 -86.303833 58.392761
15.775334 -86.509407 56.790619
30.512034 -89.622654 37.607135
29.641037 -89.658493 37.214386
30.360591 -90.719082 36.007892
31.350935 -89.668228 38.04338
30.631381 -88.60764 39.249874
30.512034 -89.622654 37.607135
32.063161 -90.754272 36.979602
32.182507 -89.739258 38.622341
31.350935 -89.668228 38.04338
3 0 36 35
3 0 35 37
3 1 42 40
3 1 44 42
3 2 141 143
3 141 45 142
3 141 142 143
3 3 144 145
3 3 146 148
3 146 47 147
3 146 147 148
3 4 149 151
3 149 50 150
3 149 150 151
3 5 53 51
3 5 55 53
3 152 56 153
3 154 59 155
3 156 155 57
3 154 155 156
3 158 157 59
3 6 61 60
3 6 63 61
3 7 66 64
3 7 68 66
3 8 71 69
3 8 73 71
3 8 75 73
3 159 78 160
3 161 160 76
3 159 160 161
3 163 162 78
3 9 164 165
3 9 166 168
3 166 80 167
3 166 167 168
3 10 83 81
3 169 84 170
3 171 170 38
3 169 170 171
3 173 172 84
3 174 85 175
3 11 88 86
3 176 89 177
3 178 177 39
3 176 177 178
3 179 90 180
3 181 180 89
3 179 180 181
3 13 93 91
3 182 94 183
3 184 183 41
3 182 183 184
3 186 185 94
3 16 95 43
3 16 96 95
3 187 97 188
3 189 98 190
3 191 190 97
3 189 190 191
3 192 100 193
3 194 101 195
3 196 195 100
3 194 195 196
3 197 103 198
3 199 198 101
3 197 198 199
3 21 200 202
3 200 104 201
3 200 201 202
3 21 105 104
3 204 203 82
3 205 106 206
3 22 107 46
3 22 108 107
3 20 207 208
3 209 109 210
3 211 210 48
3 209 210 211
3 213 212 109
3 214 112 215
3 216 215 110
3 214 215 216
3 217 113 218
3 219 114 220
3 221 220 113
3 219 220 221
3 222 115 223
3 224 110 225
3 226 225 115
3 224 225 226
3 23 116 111
3 24 117 49
3 24 118 117
3 12 119 87
3 25 120 52
3 25 227 229
3 229 228 120
3 227 228 229
3 25 230 231
3 233 232 54
3 26 234 235
3 26 236 238
3 236 121 237
3 236 237 238
3 14 122 92
3 27 123 58
3 27 124 123
3 27 125 124
3 15 239 240
3 28 241 243
3 243 242 62
3 241 242 243
3 28 244 245
3 17 246 247
3 29 248 250
3 250 249 65
3 248 249 250
3 29 251 253
3 251 126 252
3 251 252 253
3 29 127 126
3 30 128 67
3 30 129 128
3 18 254 256
3 256 255 99
3 254 255 256
3 31 257 259
3 259 258 70
3 257 258 259
3 31 260 262
3 260 130 261
3 260 261 262
3 31 131 130
3 32 132 72
3 32 133 132
3 32 134 133
3 33 135 74
3 33 136 135
3 19 137 102
3 34 138 77
3 34 139 138
3 34 140 139
3 264 263 79
3 35 265 266
3 36 267 269
3 269 268 35
3 267 268 269
3 36 270 272
3 270 9 271
3 270 271 272
3 37 38 10
3 35 38 37
3 35 273 275
3 275 274 38
3 273 274 275
3 276 39 277
3 278 277 11
3 276 277 278
3 279 39 280
3 282 281 39
3 40 41 13
3 42 41 40
3 42 283 285
3 285 284 41
3 283 284 285
3 42 286 288
3 286 43 287
3 286 287 288
3 44 43 42
3 44 16 43
3 45 289 290
3 45 291 293
3 291 21 292
3 291 292 293
3 294 46 295
3 47 296 298
3 296 46 297
3 296 297 298
3 47 22 46
3 299 48 300
3 301 300 20
3 299 300 301
3 302 48 303
3 305 304 48
3 306 49 307
3 308 307 23
3 306 307 308
3 50 309 311
3 309 49 310
3 309 310 311
3 50 24 49
3 51 52 12
3 53 52 51
3 53 25 52
3 53 54 25
3 55 54 53
3 55 312 314
3 314 313 54
3 312 313 314
3 56 315 316
3 56 317 319
3 317 26 318
3 317 318 319
3 57 58 14
3 59 58 57
3 59 27 58
3 59 320 322
3 322 321 27
3 320 321 322
3 324 323 59
3 60 325 327
3 327 326 15
3 325 326 327
3 61 328 330
3 330 329 60
3 328 329 330
3 61 331 332
3 61 333 335
3 333 62 334
3 333 334 335
3 63 62 61
3 63 28 62
3 64 65 17
3 66 65 64
3 66 29 65
3 66 67 29
3 68 67 66
3 68 30 67
3 69 70 18
3 71 70 69
3 71 31 70
3 71 72 31
3 73 72 71
3 73 32 72
3 73 74 32
3 75 74 73
3 75 33 74
3 76 77 19
3 78 77 76
3 78 34 77
3 78 79 34
3 336 79 337
3 338 337 78
3 336 337 338
3 340 339 79
3 80 341 342
3 80 343 344
3 81 82 2
3 83 82 81
3 83 345 347
3 347 346 82
3 345 346 347
3 38 83 10
3 84 83 38
3 84 348 350
3 350 349 83
3 348 349 350
3 84 351 352
3 354 353 84
3 85 355 356
3 85 357 359
3 357 3 358
3 357 358 359
3 86 87 4
3 88 87 86
3 88 12 87
3 39 88 11
3 89 88 39
3 89 12 88
3 89 51 12
3 90 51 89
3 90 5 51
3 91 360 362
3 360 92 361
3 360 361 362
3 93 92 91
3 93 14 92
3 41 93 13
3 94 93 41
3 94 14 93
3 94 57 14
3 363 57 364
3 365 364 94
3 363 364 365
3 367 366 57
3 368 15 369
3 43 370 371
3 95 372 374
3 374 373 43
3 372 373 374
3 95 375 377
3 375 15 376
3 375 376 377
3 95 60 15
3 96 60 95
3 96 6 60
3 378 17 379
3 97 380 382
3 380 381 382
3 97 383 385
3 383 17 384
3 383 384 385
3 97 64 17
3 98 64 97
3 98 7 64
3 386 99 387
3 386 387 388
3 389 99 390
3 389 390 391
3 392 18 393
3 394 393 99
3 392 393 394
3 100 395 396
3 100 397 399
3 397 18 398
3 397 398 399
3 100 69 18
3 101 69 100
3 101 8 69
3 101 102 8
3 103 102 101
3 103 19 102
3 400 103 401
3 400 401 402
3 403 103 404
3 403 404 405
3 406 19 407
3 408 407 103
3 406 407 408
3 409 76 410
3 411 410 19
3 409 410 411
3 412 76 413
3 412 413 414
3 416 415 76
3 417 20 418
3 104 419 420
3 104 421 423
3 421 20 422
3 421 422 423
3 104 424 426
3 426 425 20
3 424 425 426
3 105 427 429
3 429 428 104
3 427 428 429
3 105 430 431
3 82 45 2
3 432 45 433
3 434 433 82
3 432 433 434
3 435 21 436
3 437 436 45
3 435 436 437
3 438 21 439
3 440 105 441
3 442 441 21
3 440 441 442
3 443 105 444
3 446 445 105
3 447 91 448
3 106 449 451
3 449 91 450
3 449 450 451
3 106 13 91
3 46 452 454
3 452 106 453
3 452 453 454
3 107 106 46
3 107 13 106
3 107 40 13
3 108 40 107
3 108 1 40
3 48 455 457
3 457 456 20
3 455 456 457
3 109 458 460
3 460 459 48
3 458 459 460
3 109 461 462
3 109 463 464
3 466 465 109
3 110 111 0
3 112 111 110
3 112 23 111
3 467 112 468
3 113 469 471
3 469 112 470
3 469 470 471
3 113 23 112
3 113 472 474
3 474 473 23
3 472 473 474
3 114 475 477
3 477 476 113
3 475 476 477
3 114 478 480
3 478 4 479
3 478 479 480
3 481 114 482
3 483 114 484
3 485 4 486
3 487 486 114
3 485 486 487
3 488 86 489
3 490 489 4
3 488 489 490
3 491 86 492
3 493 11 494
3 495 494 86
3 493 494 495
3 496 11 497
3 499 498 11
3 500 2 501
3 502 2 503
3 504 81 505
3 506 505 2
3 504 505 506
3 507 81 508
3 509 10 510
3 511 510 81
3 509 510 511
3 115 512 513
3 115 514 516
3 514 10 515
3 514 515 516
3 115 37 10
3 110 37 115
3 110 0 37
3 111 36 0
3 116 36 111
3 116 9 36
3 49 116 23
3 117 116 49
3 117 9 116
3 117 80 9
3 118 80 117
3 118 517 519
3 519 518 80
3 517 518 519
3 87 50 4
3 119 50 87
3 119 24 50
3 52 119 12
3 120 119 52
3 120 24 119
3 120 118 24
3 520 118 521
3 522 521 120
3 520 521 522
3 524 523 118
3 54 525 527
3 527 526 25
3 525 526 527
3 529 528 54
3 530 90 531
3 121 532 534
3 532 90 533
3 532 533 534
3 121 5 90
3 92 535 537
3 535 56 536
3 535 536 537
3 122 56 92
3 122 26 56
3 58 122 14
3 123 122 58
3 123 26 122
3 123 121 26
3 124 121 123
3 124 5 121
3 124 55 5
3 125 55 124
3 125 538 540
3 540 539 55
3 538 539 540
3 541 125 542
3 543 542 27
3 541 542 543
3 544 125 545
3 547 546 125
3 549 548 15
3 62 550 551
3 553 552 62
3 554 85 555
3 556 85 557
3 558 3 559
3 560 559 85
3 558 559 560
3 65 561 563
3 563 562 17
3 561 562 563
3 565 564 65
3 126 566 567
3 126 568 570
3 568 3 569
3 568 569 570
3 126 47 3
3 127 47 126
3 127 22 47
3 67 127 29
3 128 127 67
3 128 22 127
3 128 108 22
3 129 108 128
3 129 1 108
3 571 98 572
3 573 98 574
3 575 7 576
3 577 576 98
3 575 576 577
3 99 578 580
3 578 579 580
3 582 581 99
3 70 583 585
3 585 584 18
3 583 584 585
3 587 586 70
3 130 588 589
3 130 590 592
3 590 7 591
3 590 591 592
3 130 68 7
3 131 68 130
3 131 30 68
3 72 131 31
3 132 131 72
3 132 30 131
3 132 129 30
3 133 129 132
3 133 1 129
3 133 44 1
3 134 44 133
3 134 16 44
3 74 134 32
3 135 134 74
3 135 16 134
3 135 96 16
3 136 96 135
3 136 6 96
3 102 75 8
3 137 75 102
3 137 33 75
3 77 137 19
3 138 137 77
3 138 33 137
3 138 136 33
3 139 136 138
3 139 6 136
3 139 63 6
3 140 63 139
3 140 28 63
3 79 140 34
3 593 140 594
3 595 594 79
3 593 594 595
3 596 28 597
3 598 597 140
3 596 597 598
3 601 600 28
3 599 600 601
