ply
format ascii 1.0
element vertex 197
property float x
property float y
property float z
element face 169
property list uchar int vertex_index
end_header
2.329779 81.102547 -20.01346
-0.354288 67.907143 -27.704775
2.389862 81.784668 -13.838078
1.061155 75.97847 -18.566946
-0.13155 69.136848 -22.504393
0.823519 75.040977 -24.304525
-2.136072 52.867111 -27.261957
-1.246965 61.434555 -25.449194
3.266441 83.620285 -17.597952
3.155724 84.03569 -14.500984
1.696384 79.030411 -16.287409
1.528246 78.754982 -19.364958
0.854513 75.633018 -21.536043
1.524912 78.225441 -22.257833
-2.505037 49.094978 -25.520399
-2.096254 53.618279 -24.895773
-0.336006 68.633591 -25.222879
-0.704277 65.390457 -24.111429
-0.868271 64.800583 -26.690733
-1.345919 60.754333 -27.880297
-0.844582 64.003342 -29.012159
1.388035 76.118813 -15.456974
0.804859 72.900452 -17.643469
0.206802 69.461914 -19.613131
0.238018 72.249535 -23.497057
0.201633 71.591705 -26.128099
2.576153 80.336472 -22.781008
-2.420748 48.237213 -27.730474
-2.039141 52.003441 -29.363062
-0.404577 65.816994 -21.340498
-1.012171 61.967117 -22.804972
-1.587427 57.904907 -23.992167
-1.734461 57.263351 -26.502241
-1.745813 56.490891 -28.774614
2.307441 81.337845 -18.512117
2.775772 82.596714 -17.304364
2.79811 82.361416 -18.805706
1.929012 79.928764 -19.689209
1.906674 80.164062 -18.187866
2.307441 81.337845 -18.512117
-2.035166 53.954159 -23.614094
-2.300299 51.753464 -23.991608
2.782216 82.986797 -12.542519
3.165147 84.112309 -12.873972
2.772793 82.910179 -14.169531
2.486717 81.776298 -12.193385
2.782216 82.986797 -12.542519
2.180599 80.436699 -13.460155
2.486717 81.776298 -12.193385
0.759027 74.324768 -19.607596
0.63088 72.785759 -19.145857
0.933007 74.439461 -18.105207
-1.501333 58.188065 -29.401893
-1.545866 58.622612 -28.327455
-1.301386 60.319786 -28.954735
-1.657358 56.020927 -29.756113
-1.501333 58.188065 -29.401893
2.155695 78.868279 -23.840044
2.817816 79.786377 -24.013321
3.211082 83.827988 -16.049468
3.757547 84.879776 -14.769249
3.812905 84.672073 -16.317733
2.720414 82.804417 -15.755879
3.211082 83.827988 -16.049468
2.775772 82.596714 -17.304364
2.337483 81.678905 -15.424426
2.772793 82.910179 -14.169531
2.720414 82.804417 -15.755879
1.990743 80.301777 -16.649092
2.043123 80.407539 -15.062743
2.337483 81.678905 -15.424426
1.612315 78.892696 -17.826183
1.990743 80.301777 -16.649092
1.906674 80.164062 -18.187866
-2.50469 49.491813 -24.303921
-2.711057 47.165863 -24.557354
-2.300645 51.356628 -25.208086
-2.50469 49.491813 -24.303921
-2.300299 51.753464 -23.991608
-1.050717 61.944291 -29.520666
-1.301386 60.319786 -28.954735
-1.095251 62.378838 -28.446228
3.661403 85.061599 -13.181306
3.757547 84.879776 -14.769249
3.661403 85.061599 -13.181306
3.165147 84.112309 -12.873972
1.83386 79.059571 -14.684821
2.180599 80.436699 -13.460155
2.043123 80.407539 -15.062743
1.679685 77.603771 -14.269603
1.83386 79.059571 -14.684821
1.542209 77.574612 -15.872191
1.582865 76.102993 -13.854118
1.679685 77.603771 -14.269603
1.307475 74.546502 -14.993879
1.582865 76.102993 -13.854118
1.015887 72.937321 -16.087126
1.307475 74.546502 -14.993879
1.096447 74.509633 -16.550221
0.71545 71.273945 -17.121764
1.015887 72.937321 -16.087126
0.50583 71.181183 -18.6283
0.416421 69.554676 -18.106594
0.71545 71.273945 -17.121764
0.331851 71.06649 -20.130688
0.50583 71.181183 -18.6283
0.63088 72.785759 -19.145857
0.162675 70.903957 -21.576319
0.037626 69.299381 -21.058762
0.331851 71.06649 -20.130688
0.655706 74.152042 -21.092144
0.759027 74.324768 -19.607596
0.957834 75.805744 -20.051495
0.347459 72.4603 -22.072651
0.655706 74.152042 -21.092144
0.546265 73.941277 -22.51655
0.053234 70.693191 -23.000725
0.162675 70.903957 -21.576319
0.347459 72.4603 -22.072651
3.991376 84.348549 -17.804458
3.812905 84.672073 -16.317733
3.414509 83.267147 -19.037161
3.991376 84.348549 -17.804458
2.946178 82.008278 -20.244915
2.79811 82.361416 -18.805706
3.414509 83.267147 -19.037161
3.069365 81.62524 -21.628689
2.452966 80.71951 -21.397234
2.946178 82.008278 -20.244915
3.330071 81.110116 -22.924946
3.069365 81.62524 -21.628689
2.817816 79.786377 -24.013321
3.330071 81.110116 -22.924946
-2.64501 46.711265 -25.702854
-2.711057 47.165863 -24.557354
-2.602866 46.282383 -26.807892
-2.64501 46.711265 -25.702854
-2.462893 48.666095 -26.625436
-2.490607 45.804485 -27.828083
-2.602866 46.282383 -26.807892
-2.308295 47.762569 -28.688524
-2.490607 45.804485 -27.828083
-2.117491 49.645684 -29.504818
-2.308295 47.762569 -28.688524
-2.229945 50.120327 -28.546768
-1.895958 51.500325 -30.244709
-2.117491 49.645684 -29.504818
0.0928 67.790813 -19.022724
0.416421 69.554676 -18.106594
-0.21289 65.968354 -19.886408
0.0928 67.790813 -19.022724
-0.098888 67.639454 -20.476814
-0.549137 64.104039 -20.67334
-0.21289 65.968354 -19.886408
-0.852934 62.1791 -21.405577
-0.549137 64.104039 -20.67334
-0.708374 63.892055 -22.072735
-1.184985 60.209823 -22.056349
-0.852934 62.1791 -21.405577
-1.472612 58.178719 -22.649946
-1.184985 60.209823 -22.056349
-1.299799 59.936012 -23.39857
-1.780752 56.097473 -23.162291
-1.472612 58.178719 -22.649946
-1.84184 55.761593 -24.44397
-2.035166 53.954159 -23.614094
-1.780752 56.097473 -23.162291
-1.804022 53.777203 -30.050337
-1.892477 54.247166 -29.068838
-1.657358 56.020927 -29.756113
-1.895958 51.500325 -30.244709
-1.804022 53.777203 -30.050337
1.630075 77.812763 -23.578457
2.050533 79.280957 -22.519421
2.155695 78.868279 -23.840044
1.279378 76.220531 -24.601803
1.174216 76.633209 -23.281179
1.630075 77.812763 -23.578457
0.918921 74.599331 -25.554747
1.279378 76.220531 -24.601803
0.607977 72.874695 -26.466533
0.512576 73.316341 -25.216312
0.918921 74.599331 -25.554747
0.296855 71.121994 -27.30109
0.607977 72.874695 -26.466533
0.018895 69.279713 -28.089428
-0.076327 69.749424 -26.916437
0.296855 71.121994 -27.30109
-0.248697 67.410355 -28.793816
0.018895 69.279713 -28.089428
-0.493844 65.458455 -29.447508
-0.599435 65.955242 -28.358467
-0.248697 67.410355 -28.793816
-0.717572 63.480652 -30.010236
-0.493844 65.458455 -29.447508
-1.050717 61.944291 -29.520666
-0.717572 63.480652 -30.010236
3 0 34 36
3 36 35 8
3 34 35 36
3 0 37 39
3 37 11 38
3 37 38 39
3 0 13 11
3 40 15 41
3 1 18 16
3 1 20 18
3 2 42 44
3 44 43 9
3 42 43 44
3 2 45 46
3 2 47 48
3 3 21 10
3 3 22 21
3 3 49 51
3 51 50 22
3 49 50 51
3 5 24 12
3 5 25 24
3 6 27 14
3 6 28 27
3 4 29 23
3 7 30 17
3 7 31 30
3 7 32 31
3 52 33 53
3 54 53 19
3 52 53 54
3 56 55 33
3 58 57 26
3 8 59 61
3 59 9 60
3 59 60 61
3 62 9 63
3 64 63 8
3 62 63 64
3 65 2 66
3 67 66 9
3 65 66 67
3 68 10 69
3 70 69 2
3 68 69 70
3 11 71 73
3 71 10 72
3 71 72 73
3 11 3 10
3 11 12 3
3 13 12 11
3 13 5 12
3 74 14 75
3 15 76 78
3 76 14 77
3 76 77 78
3 15 6 14
3 16 17 4
3 18 17 16
3 18 7 17
3 18 19 7
3 20 19 18
3 20 79 81
3 81 80 19
3 79 80 81
3 9 82 83
3 85 84 9
3 10 86 88
3 88 87 2
3 86 87 88
3 21 89 91
3 91 90 10
3 89 90 91
3 21 92 93
3 21 94 95
3 22 96 98
3 98 97 21
3 96 97 98
3 22 99 100
3 22 101 103
3 101 23 102
3 101 102 103
3 104 23 105
3 106 105 22
3 104 105 106
3 107 4 108
3 109 108 23
3 107 108 109
3 12 110 112
3 112 111 3
3 110 111 112
3 24 113 115
3 115 114 12
3 113 114 115
3 24 116 118
3 116 4 117
3 116 117 118
3 24 16 4
3 25 16 24
3 25 1 16
3 119 8 120
3 121 8 122
3 123 0 124
3 125 124 8
3 123 124 125
3 126 26 127
3 128 127 0
3 126 127 128
3 129 26 130
3 132 131 26
3 14 133 134
3 27 135 137
3 137 136 14
3 135 136 137
3 27 138 139
3 27 140 141
3 28 142 144
3 144 143 27
3 142 143 144
3 28 145 146
3 23 147 148
3 29 149 151
3 151 150 23
3 149 150 151
3 29 152 153
3 17 29 4
3 30 29 17
3 30 154 156
3 156 155 29
3 154 155 156
3 30 157 158
3 31 159 161
3 161 160 30
3 159 160 161
3 31 162 163
3 31 164 166
3 164 15 165
3 164 165 166
3 32 15 31
3 32 6 15
3 19 32 7
3 33 32 19
3 33 6 32
3 33 28 6
3 167 28 168
3 169 168 33
3 167 168 169
3 171 170 28
3 26 13 0
3 172 13 173
3 174 173 26
3 172 173 174
3 175 5 176
3 177 176 13
3 175 176 177
3 178 5 179
3 180 25 181
3 182 181 5
3 180 181 182
3 183 25 184
3 185 1 186
3 187 186 25
3 185 186 187
3 188 1 189
3 190 20 191
3 192 191 1
3 190 191 192
3 193 20 194
3 196 195 20
