ply
format ascii 1.0
element vertex 218
property float x
property float y
property float z
element face 172
property list uchar int vertex_index
end_header
0.137815 -20.225912 86.174049
-3.200132 -42.56974 89.053528
0.17182 -33.094994 87.887283
-3.862688 -47.330971 88.986221
-6.296547 -45.573158 89.332222
-7.018343 -50.254704 89.059616
-1.814096 -20.90616 88.169434
0.434307 -26.851961 87.225822
-4.421097 -49.691353 88.591003
-3.021139 -48.025612 88.097595
-9.613234 -45.782875 88.427864
-7.839893 -44.59203 88.870277
-8.027065 -46.846603 89.072281
-6.618134 -47.884407 89.357605
-0.623363 -30.158613 88.392883
-0.519709 -27.050148 88.192703
0.394411 -30.049755 87.592987
-1.959793 -40.676006 88.743507
-1.907856 -30.256382 88.706871
-3.417759 -44.959633 89.129997
-2.048244 -43.179878 88.694786
-2.435787 -45.627964 88.490242
-6.149147 -43.320045 89.003769
-4.665119 -44.177944 89.287064
-4.961964 -46.501122 89.390442
-5.408781 -48.847679 89.211121
-0.719557 -20.521414 87.386185
-1.71768 -24.136997 88.517715
-0.564131 -23.821295 87.861008
0.335148 -23.562927 86.755203
-1.440716 -35.754623 88.578331
-0.275772 -35.918484 88.153831
-0.022104 -38.712906 87.694237
0.596031 -36.020557 87.227692
-4.046495 -50.036632 88.042496
-4.692417 -50.86729 88.261738
0.447994 -20.126803 85.370022
0.009117 -18.544075 85.835926
0.55582 -21.800815 85.701603
0.447994 -20.126803 85.370022
-8.910954 -47.467773 88.747829
-8.820149 -46.314739 88.750073
-9.704039 -46.935909 88.425621
-8.176534 -48.021001 89.004299
-8.910954 -47.467773 88.747829
0.568885 -33.085413 87.334308
0.68018 -31.562793 87.187161
0.283116 -31.572375 87.740135
-2.579962 -41.622873 88.898517
-2.624734 -40.414964 88.774147
-3.244903 -41.361832 88.929158
-2.088755 -31.643101 88.665425
-2.665481 -30.292564 88.63171
-1.412223 -31.669458 88.60455
-2.088755 -31.643101 88.665425
-2.380537 -47.091099 87.731682
-2.73543 -48.294035 87.420113
-6.454778 -50.73633 88.896618
-5.649997 -50.032818 88.972371
-6.213562 -49.551192 89.135368
-7.205493 -51.462515 88.753715
-6.454778 -50.73633 88.896618
-1.906742 -19.259258 87.915059
-2.533454 -19.525007 88.143235
-1.266827 -20.713787 87.777809
-1.359472 -19.066885 87.523434
-1.906742 -19.259258 87.915059
-1.727631 -25.70402 88.603832
-2.410836 -24.311788 88.623081
0.772073 -26.772301 86.51921
0.722494 -25.127784 86.283901
0.384728 -25.207444 86.990512
-1.211076 -37.106437 88.506211
-1.834224 -36.937489 88.625538
-0.628604 -37.188368 88.29396
-0.858244 -35.836554 88.366081
-1.211076 -37.106437 88.506211
-1.476992 -42.142372 88.443535
-1.61643 -43.426411 88.268467
0.301735 -38.796776 87.079247
-0.088695 -40.06934 87.419392
0.610802 -37.450601 86.845974
0.286963 -37.366732 87.460965
0.301735 -38.796776 87.079247
0.875595 -36.043233 86.527244
0.610802 -37.450601 86.845974
-3.346516 -49.203762 87.795792
-3.721118 -48.858483 88.344299
-4.046495 -50.036632 88.042496
-2.73543 -48.294035 87.420113
-3.346516 -49.203762 87.795792
-8.726564 -45.187452 88.64907
-8.702828 -44.097571 88.479614
-9.589499 -44.692993 88.258408
-7.472069 -48.539904 89.146961
-7.3226 -47.365505 89.214943
-8.176534 -48.021001 89.004299
-7.672173 -49.725052 88.997967
-6.818238 -49.069555 89.208611
-7.472069 -48.539904 89.146961
-7.832832 -50.939472 88.766129
-7.672173 -49.725052 88.997967
-2.473367 -21.13214 88.345391
-2.533454 -19.525007 88.143235
-0.571536 -28.60438 88.292793
-1.128645 -27.160595 88.441326
-1.180472 -28.714827 88.541416
0.758474 -29.996992 86.957386
0.778421 -28.398095 86.773803
0.414359 -28.450858 87.409404
0.758474 -29.996992 86.957386
0.68018 -31.562793 87.187161
-2.093762 -39.39818 88.708126
-2.624734 -40.414964 88.774147
-1.470614 -39.567129 88.588798
-2.093762 -39.39818 88.708126
-0.407448 -18.702703 86.479546
0.009117 -18.544075 85.835926
-10.485019 -45.260349 87.971451
-9.589499 -44.692993 88.258408
-10.510779 -46.382972 88.01567
-10.485019 -45.260349 87.971451
-9.704039 -46.935909 88.425621
-10.510779 -46.382972 88.01567
-2.548738 -28.87511 88.717644
-2.665481 -30.292564 88.63171
-1.822719 -28.763712 88.69841
-2.548738 -28.87511 88.717644
-1.26561 -30.207497 88.549877
-1.180472 -28.714827 88.541416
-1.822719 -28.763712 88.69841
-0.769977 -31.620574 88.447555
-1.26561 -30.207497 88.549877
-1.412223 -31.669458 88.60455
-0.372385 -33.088764 88.194755
-0.225772 -31.626804 88.140083
-0.769977 -31.620574 88.447555
-1.810201 -44.650453 88.166195
-1.61643 -43.426411 88.268467
-2.242015 -44.403921 88.592514
-2.087861 -45.892275 87.928005
-2.728463 -46.826788 88.293918
-2.380537 -47.091099 87.731682
-1.810201 -44.650453 88.166195
-2.087861 -45.892275 87.928005
-3.905672 -42.219391 88.998268
-3.244903 -41.361832 88.929158
-7.839302 -43.509837 88.612319
-8.702828 -44.097571 88.479614
-6.993929 -42.873844 88.679066
-7.839302 -43.509837 88.612319
-6.99452 -43.956038 88.937023
-6.198174 -42.215896 88.714142
-6.993929 -42.873844 88.679066
-5.38018 -42.594543 88.973388
-6.198174 -42.215896 88.714142
-4.638165 -43.023493 89.115036
-5.38018 -42.594543 88.973388
-5.407133 -43.748994 89.145417
-3.932625 -43.373842 89.170296
-3.905672 -42.219391 88.998268
-4.638165 -43.023493 89.115036
-5.156154 -50.454655 88.662312
-4.914939 -49.269516 88.901062
-5.649997 -50.032818 88.972371
-4.692417 -50.86729 88.261738
-5.156154 -50.454655 88.662312
-7.205493 -51.462515 88.753715
-7.832832 -50.939472 88.766129
-0.836134 -18.850454 87.085613
-1.359472 -19.066885 87.523434
-0.290871 -20.373663 86.780117
-0.407448 -18.702703 86.479546
-0.836134 -18.850454 87.085613
-2.425159 -22.747559 88.519531
-2.410836 -24.311788 88.623081
-1.765888 -22.521579 88.343574
-2.473367 -21.13214 88.345391
-2.425159 -22.747559 88.519531
-1.118695 -25.593573 88.355209
-1.727631 -25.70402 88.603832
-1.128645 -27.160595 88.441326
0.654486 -23.469323 85.992179
0.55582 -21.800815 85.701603
0.236482 -21.894419 86.464626
0.654486 -23.469323 85.992179
0.722494 -25.127784 86.283901
0.772073 -26.772301 86.51921
0.778421 -28.398095 86.773803
-2.152845 -35.642048 88.546307
-1.834224 -36.937489 88.625538
-1.855186 -34.392221 88.601155
-2.152845 -35.642048 88.546307
-1.178653 -34.418579 88.540279
-1.855186 -34.392221 88.601155
-0.596181 -34.500509 88.328029
-1.178653 -34.418579 88.540279
-0.858244 -35.836554 88.366081
-0.051976 -34.506739 88.020557
-0.372385 -33.088764 88.194755
-0.596181 -34.500509 88.328029
-1.432766 -40.890436 88.467895
-2.004018 -41.927942 88.719146
-1.476992 -42.142372 88.443535
-1.470614 -39.567129 88.588798
-1.432766 -40.890436 88.467895
-0.463921 -39.908886 87.943261
-0.088695 -40.06934 87.419392
-0.50177 -38.585579 88.064164
-0.463921 -39.908886 87.943261
-0.148938 -37.315695 87.924034
-0.628604 -37.188368 88.29396
-0.50177 -38.585579 88.064164
0.78099 -34.548194 87.004513
0.568885 -33.085413 87.334308
0.383925 -34.557775 87.557488
0.78099 -34.548194 87.004513
0.875595 -36.043233 86.527244
3 35 34 8
3 0 36 37
3 0 38 39
3 40 12 41
3 42 41 10
3 40 41 42
3 44 43 12
3 2 16 14
3 2 45 47
3 47 46 16
3 45 46 47
3 1 48 50
3 48 17 49
3 48 49 50
3 51 18 52
3 54 53 18
3 3 21 19
3 56 55 9
3 4 22 11
3 4 23 22
3 4 24 23
3 5 25 13
3 5 57 59
3 59 58 25
3 57 58 59
3 5 60 61
3 6 62 63
3 6 64 66
3 64 26 65
3 64 65 66
3 67 27 68
3 7 28 15
3 7 29 28
3 7 69 71
3 71 70 29
3 69 70 71
3 72 30 73
3 74 31 75
3 76 75 30
3 74 75 76
3 78 77 20
3 79 32 80
3 81 33 82
3 83 82 32
3 81 82 83
3 85 84 33
3 8 9 3
3 86 9 87
3 88 87 8
3 86 87 88
3 90 89 9
3 10 91 93
3 91 11 92
3 91 92 93
3 12 11 10
3 12 4 11
3 12 13 4
3 94 13 95
3 96 95 12
3 94 95 96
3 97 5 98
3 99 98 13
3 97 98 99
3 101 100 5
3 102 6 103
3 14 104 106
3 104 15 105
3 104 105 106
3 16 15 14
3 16 7 15
3 16 107 109
3 109 108 7
3 107 108 109
3 111 110 16
3 17 112 113
3 17 114 115
3 116 0 117
3 118 10 119
3 120 10 121
3 123 122 10
3 18 124 125
3 18 126 127
3 18 128 130
3 128 14 129
3 128 129 130
3 131 14 132
3 133 132 18
3 131 132 133
3 134 2 135
3 136 135 14
3 134 135 136
3 19 20 1
3 21 20 19
3 21 137 139
3 139 138 20
3 137 138 139
3 9 21 3
3 140 21 141
3 142 141 9
3 140 141 142
3 144 143 21
3 145 1 146
3 11 147 148
3 22 149 151
3 151 150 11
3 149 150 151
3 22 152 153
3 22 154 155
3 23 156 158
3 158 157 22
3 156 157 158
3 23 159 161
3 159 1 160
3 159 160 161
3 23 19 1
3 24 19 23
3 24 3 19
3 13 24 4
3 25 24 13
3 25 3 24
3 25 8 3
3 162 8 163
3 164 163 25
3 162 163 164
3 166 165 8
3 168 167 5
3 26 169 170
3 26 171 173
3 171 0 172
3 171 172 173
3 27 174 175
3 27 176 178
3 176 6 177
3 176 177 178
3 15 179 181
3 179 27 180
3 179 180 181
3 28 27 15
3 28 6 27
3 28 26 6
3 29 26 28
3 29 0 26
3 29 182 184
3 184 183 0
3 182 183 184
3 186 185 29
3 188 187 7
3 30 189 190
3 30 191 192
3 30 193 194
3 31 195 197
3 197 196 30
3 195 196 197
3 31 198 200
3 198 2 199
3 198 199 200
3 20 17 1
3 201 17 202
3 203 202 20
3 201 202 203
3 205 204 17
3 32 206 207
3 32 208 209
3 32 210 212
3 210 31 211
3 210 211 212
3 33 31 32
3 33 2 31
3 33 213 215
3 215 214 2
3 213 214 215
3 217 216 33
