ply
format ascii 1.0
element vertex 68
property float x
property float y
property float z
element face 40
property list uchar int vertex_index
end_header
15.413905 -94.26059 50.21991
17.934649 -96.652657 43.517605
21.105633 -93.266029 40.674858
19.489307 -94.983658 42.048622
18.270992 -93.778381 45.645721
24.048321 -93.167145 36.052376
15.357217 -93.034367 51.321717
14.624783 -93.741219 51.726776
18.10282 -95.215519 44.581663
17.526518 -94.589146 46.303425
17.358346 -96.026284 45.239367
20.4615 -92.658905 42.502573
19.653337 -93.517719 43.189455
20.29747 -94.124843 41.36174
21.265864 -91.820904 41.90778
20.4615 -92.658905 42.502573
21.945162 -92.463615 40.099886
21.265864 -91.820904 41.90778
23.699921 -94.698021 34.852499
23.160698 -93.916416 36.568533
24.643719 -94.014981 34.428276
23.699921 -94.698021 34.852499
19.192656 -96.497456 41.009308
18.711978 -95.818158 42.783113
18.415326 -97.331955 41.7438
20.02157 -95.658871 40.240313
19.192656 -96.497456 41.009308
20.829733 -94.800057 39.553431
20.29747 -94.124843 41.36174
20.02157 -95.658871 40.240313
21.689354 -93.965858 38.879774
20.829733 -94.800057 39.553431
16.144517 -93.492565 49.675117
16.097974 -94.83025 48.590519
17.573061 -93.251461 47.388023
17.526518 -94.589146 46.303425
18.329633 -92.404258 46.799406
17.573061 -93.251461 47.388023
19.04418 -92.915081 44.988005
18.88015 -94.38102 43.847172
19.653337 -93.517719 43.189455
18.329633 -92.404258 46.799406
19.04418 -92.915081 44.988005
21.945162 -92.463615 40.099886
21.689354 -93.965858 38.879774
23.416506 -92.414173 37.788645
23.160698 -93.916416 36.568533
24.283344 -91.740998 37.379379
23.416506 -92.414173 37.788645
24.955696 -92.569844 35.74186
24.283344 -91.740998 37.379379
24.955696 -92.569844 35.74186
24.643719 -94.014981 34.428276
14.70862 -94.886688 50.665275
14.624783 -93.741219 51.726776
13.919498 -94.367317 52.172142
15.380498 -95.518097 49.184145
14.70862 -94.886688 50.665275
16.097974 -94.83025 48.590519
15.380498 -95.518097 49.184145
17.186774 -97.386231 44.23041
17.358346 -96.026284 45.239367
17.61745 -98.094098 42.53732
17.186774 -97.386231 44.23041
18.415326 -97.331955 41.7438
17.61745 -98.094098 42.53732
15.357217 -93.034367 51.321717
16.144517 -93.492565 49.675117
3 0 6 7
3 1 8 10
3 8 4 9
3 8 9 10
3 2 11 13
3 13 12 3
3 11 12 13
3 2 14 15
3 2 16 17
3 18 5 19
3 21 20 5
3 22 3 23
3 24 23 1
3 22 23 24
3 25 3 26
3 27 2 28
3 29 28 3
3 27 28 29
3 31 30 2
3 33 32 0
3 4 34 35
3 4 36 37
3 3 4 1
3 38 4 39
3 40 39 3
3 38 39 40
3 42 41 4
3 44 43 2
3 5 45 46
3 5 47 48
3 5 49 50
3 52 51 5
3 53 0 54
3 53 54 55
3 56 0 57
3 59 58 0
3 60 1 61
3 62 1 63
3 65 64 1
3 67 66 0
