ply
format ascii 1.0
element vertex 525
property float x
property float y
property float z
element face 439
property list uchar int vertex_index
end_header
38.294834 -47.216866 51.11499
27.797848 -66.170944 70.752403
58.153072 -35.688576 50.810493
51.873646 -42.390968 50.096649
32.650673 -55.325191 62.293198
33.640358 -47.715473 59.406143
54.674362 -34.151932 51.322388
41.009239 -43.448776 51.057022
44.684074 -44.312164 49.278549
41.88311 -47.917534 48.841621
31.706411 -56.403355 67.002663
32.783657 -51.550747 60.7463
36.378643 -51.007847 51.936028
24.495461 -67.948227 73.299484
61.687065 -37.118721 50.115494
51.291225 -37.49733 51.088821
47.888275 -40.857765 50.216095
33.260799 -58.097515 58.942284
29.445997 -61.977966 71.623039
35.581139 -47.192764 54.806671
34.178684 -51.015198 55.982506
33.576859 -54.669441 57.559883
55.04586 -39.065025 50.9412
58.921211 -40.578461 50.849731
39.559013 -45.32114 50.99292
41.301807 -45.622452 49.787338
39.988129 -47.483738 49.785416
29.118774 -65.339386 69.163696
28.195768 -67.352432 68.397484
35.705299 -52.855732 52.58989
37.066505 -53.083542 50.941093
61.296928 -34.72448 49.852295
59.947559 -36.423981 50.551392
47.790955 -38.518555 51.143471
46.043953 -40.245422 50.714996
46.723885 -44.972473 48.939758
32.993221 -56.731064 60.596878
32.612476 -57.199928 62.927483
31.035063 -57.03437 69.205132
31.6294 -58.417435 67.501953
30.891319 -59.11108 69.626442
30.523512 -61.198318 69.782059
29.927296 -59.840675 71.575035
34.753937 -49.1171 55.316757
33.840752 -49.325428 57.60659
33.183029 -53.09705 59.10788
33.072109 -54.929302 59.897873
33.413094 -56.408535 58.319832
32.398983 -62.235748 61.418472
51.477592 -39.928246 50.557457
53.128876 -38.267075 50.936188
53.453568 -40.732922 50.609467
17.091507 -73.10611 74.377449
56.375801 -34.921726 51.022507
42.614632 -41.608253 51.274734
44.358719 -42.00116 50.301628
42.767616 -43.792946 49.97287
43.221794 -46.096127 48.970459
43.939198 -48.495384 48.269043
32.22263 -55.826206 64.68116
37.234814 -49.119827 51.433556
38.84444 -49.362625 49.984528
37.874863 -51.237816 50.378555
62.902626 -35.423325 49.24144
63.293785 -37.779999 49.398682
51.343433 -35.114586 51.762169
49.578461 -39.171558 50.699585
49.843597 -41.590797 50.042221
46.247959 -42.567833 49.716431
48.251549 -43.267776 49.47403
50.330429 -44.051373 49.489815
40.683689 -49.76561 48.917221
32.18309 -57.772972 65.249985
30.884058 -62.492622 67.722137
28.718718 -64.095535 71.350395
28.117615 -62.78611 73.243652
27.275013 -64.939865 72.851227
25.599607 -65.818573 74.120445
36.826035 -47.123367 52.807236
35.873848 -49.041431 53.231865
35.152508 -50.936211 53.827255
34.629505 -52.785534 54.552544
33.411404 -51.227695 58.317482
33.808483 -52.870136 56.753311
34.253487 -54.569344 55.350555
33.966671 -56.271023 56.153404
52.998951 -35.825523 51.314453
54.770821 -36.59864 51.10807
56.622467 -37.382118 51.023087
55.462269 -41.535355 50.718193
56.995277 -39.845547 50.962097
58.502113 -38.13784 50.918449
60.346603 -38.845776 50.652306
62.087608 -39.503662 50.103439
36.047848 -53.864261 52.111202
35.440601 -53.747139 52.969178
58.880388 -34.843283 50.547356
58.035044 -34.466036 50.730793
59.050315 -36.056278 50.680943
59.777631 -35.210985 50.417805
58.880388 -34.843283 50.547356
45.19079 -40.023063 51.155178
46.091375 -39.133572 51.335743
30.52563 -58.407749 70.434971
30.963191 -58.072725 69.415787
30.597502 -57.369394 70.224316
30.043619 -58.772546 71.409267
30.409307 -59.475877 70.600739
30.52563 -58.407749 70.434971
34.079588 -46.751709 59.186214
33.62141 -46.949829 60.388599
34.087599 -47.558165 58.220852
34.079588 -46.751709 59.186214
33.740555 -48.520451 58.506366
34.187796 -48.363142 57.321075
34.087599 -47.558165 58.220852
32.861391 -55.127246 61.095535
32.873423 -54.187477 60.716568
32.662705 -54.385421 61.914231
32.218291 -63.217793 61.318741
32.107826 -62.606459 62.436211
16.569185 -72.510994 75.24437
17.689312 -72.010025 75.010578
55.483114 -33.315552 51.199711
54.726045 -32.946864 51.499248
55.525081 -34.536829 51.172447
56.333833 -33.700449 51.04977
55.483114 -33.315552 51.199711
37.888783 -53.272489 50.299858
37.487289 -54.170769 50.603554
24.816694 -68.503761 72.205005
25.373591 -67.492962 72.71629
48.547871 -44.49842 49.178951
47.487717 -44.120125 49.206894
47.784039 -45.350769 48.911816
49.587311 -44.890219 49.186844
49.290989 -43.659574 49.481922
48.547871 -44.49842 49.178951
50.664162 -45.292372 49.247376
49.587311 -44.890219 49.186844
40.15633 -50.693647 49.057083
39.764065 -49.564118 49.450874
39.236705 -50.492155 49.590736
33.176445 -58.939796 59.138115
33.383029 -58.741556 58.195087
31.814617 -59.078817 66.548317
31.496582 -59.433454 67.629081
31.123911 -61.471048 67.739173
31.260316 -62.112595 66.696418
29.682817 -62.629435 70.62685
30.221575 -62.23961 69.70636
29.984755 -61.588142 70.702549
29.082358 -63.03675 71.486717
29.319178 -63.688219 70.490528
29.682817 -62.629435 70.62685
27.330588 -63.204864 73.934318
27.686426 -62.086354 74.026199
26.909287 -64.281742 73.738106
27.696314 -63.862988 73.047439
27.330588 -63.204864 73.934318
26.071583 -64.721096 74.372715
26.43731 -65.379219 73.485836
26.909287 -64.281742 73.738106
36.130094 -46.226284 54.643276
35.553683 -46.329744 55.723247
36.203587 -47.158065 53.806954
36.752542 -46.191586 53.643558
36.130094 -46.226284 54.643276
33.09753 -51.389221 59.531891
33.244788 -50.43334 59.16557
32.930914 -50.594866 60.379978
33.491549 -57.987369 57.913479
33.567696 -57.142879 57.602253
33.336946 -57.253025 58.631058
33.383029 -58.741556 58.195087
33.491549 -57.987369 57.913479
55.721065 -42.764488 50.537185
54.698675 -42.370888 50.484329
57.958244 -40.212004 50.905914
57.224054 -41.071421 50.847393
58.187021 -41.437878 50.79121
62.276234 -40.684036 49.910847
61.425647 -40.377237 50.28622
62.873474 -39.812962 49.646084
62.276234 -40.684036 49.910847
53.881633 -33.78825 51.575977
54.726045 -32.946864 51.499248
29.268845 -65.945663 67.968288
29.666832 -64.93628 68.276516
28.807341 -66.952186 67.585183
29.268845 -65.945663 67.968288
28.657271 -66.345909 68.78059
28.386643 -67.939991 67.148846
28.807341 -66.952186 67.585183
36.728451 -53.978167 51.286804
36.385902 -52.969637 51.765491
36.047848 -53.864261 52.111202
37.487289 -54.170769 50.603554
36.728451 -53.978167 51.286804
23.909723 -68.971249 72.741745
23.526134 -68.426567 73.779697
60.452316 -34.361235 50.068257
61.128437 -33.527187 49.650123
60.622243 -35.57423 50.201843
60.452316 -34.361235 50.068257
59.777631 -35.210985 50.417805
46.964877 -38.270138 51.549981
47.885334 -37.39154 51.717354
46.917454 -39.381988 50.929233
46.964877 -38.270138 51.549981
46.091375 -39.133572 51.335743
46.002305 -45.843357 48.728935
45.70398 -44.642319 49.109153
44.982399 -45.513203 48.898331
47.077642 -46.204729 48.654125
46.002305 -45.843357 48.728935
47.784039 -45.350769 48.911816
47.077642 -46.204729 48.654125
32.935384 -57.627957 60.856823
33.069173 -58.311182 60.029526
33.12701 -57.41429 59.769581
32.745012 -57.862389 62.022126
32.935384 -57.627957 60.856823
32.802848 -56.965496 61.76218
32.547569 -58.144219 63.142857
32.745012 -57.862389 62.022126
31.127541 -59.780277 68.691326
31.496582 -59.433454 67.629081
31.260359 -58.764257 68.564198
30.707415 -60.154699 69.704251
30.943638 -60.823896 68.769135
31.127541 -59.780277 68.691326
35.05799 -47.29681 55.921116
35.553683 -46.329744 55.723247
34.644389 -48.258978 56.176159
35.167538 -48.154932 55.061714
35.05799 -47.29681 55.921116
34.297345 -49.221264 56.461674
34.644389 -48.258978 56.176159
34.187796 -48.363142 57.321075
32.928883 -53.271351 60.321572
32.983343 -52.323898 59.92709
32.729197 -52.498199 61.140782
33.127569 -54.013176 59.502876
32.928883 -53.271351 60.321572
32.873423 -54.187477 60.716568
32.536637 -62.827137 60.38131
32.648491 -61.887415 60.435188
32.536637 -62.827137 60.38131
32.218291 -63.217793 61.318741
59.146394 -41.787056 50.67918
58.187021 -41.437878 50.79121
59.842449 -40.914637 50.659367
59.146394 -41.787056 50.67918
18.176949 -72.570847 74.090522
17.689312 -72.010025 75.010578
17.604814 -73.592789 73.353679
18.176949 -72.570847 74.090522
15.988371 -73.634949 74.592083
16.569185 -72.510994 75.24437
16.536015 -74.158462 73.626724
15.988371 -73.634949 74.592083
17.604814 -73.592789 73.353679
16.536015 -74.158462 73.626724
57.146408 -34.082611 50.8368
56.333833 -33.700449 51.04977
57.264437 -35.305151 50.9165
58.035044 -34.466036 50.730793
57.146408 -34.082611 50.8368
43.486676 -41.804706 50.788181
44.348173 -40.900932 50.948494
43.476129 -40.704479 51.435047
44.251259 -46.405184 48.744286
44.982399 -45.513203 48.898331
43.952934 -45.204146 49.124504
44.609961 -47.604813 48.393578
44.251259 -46.405184 48.744286
43.580496 -47.295755 48.619751
45.022019 -48.838752 48.142189
44.609961 -47.604813 48.393578
32.210245 -54.85856 64.322498
32.436651 -55.575699 63.487179
32.424267 -54.608053 63.128518
31.946465 -55.117296 65.506992
32.210245 -54.85856 64.322498
31.688356 -55.40587 66.667744
31.96452 -56.11478 65.841912
31.946465 -55.117296 65.506992
31.364107 -55.690706 67.797218
31.688356 -55.40587 66.667744
31.028433 -56.006214 68.898453
31.370737 -56.718863 68.103898
31.364107 -55.690706 67.797218
30.617085 -56.310102 69.952302
31.028433 -56.006214 68.898453
30.597502 -57.369394 70.224316
30.617085 -56.310102 69.952302
33.238418 -47.9093 60.619301
33.62141 -46.949829 60.388599
33.359264 -48.677229 59.7099
33.238418 -47.9093 60.619301
32.590187 -50.790184 61.600815
32.930914 -50.594866 60.379978
32.500448 -51.755174 61.968682
32.590187 -50.790184 61.600815
32.729197 -52.498199 61.140782
32.500448 -51.755174 61.968682
32.424267 -54.608053 63.128518
32.662705 -54.385421 61.914231
52.904364 -42.798694 50.173557
52.156924 -43.629266 49.871311
38.751917 -51.42975 49.78775
39.236705 -50.492155 49.590736
38.359651 -50.300221 50.181541
38.292962 -52.349626 50.018589
37.470684 -52.160679 50.659824
37.888783 -53.272489 50.299858
38.751917 -51.42975 49.78775
38.292962 -52.349626 50.018589
27.282699 -67.176818 70.300194
27.024785 -66.604321 71.442749
24.816694 -68.503761 72.205005
23.909723 -68.971249 72.741745
61.908729 -33.893927 49.34391
61.128437 -33.527187 49.650123
62.711579 -34.24335 49.038483
61.908729 -33.893927 49.34391
62.099777 -35.073903 49.546867
63.43193 -34.604305 48.647537
62.711579 -34.24335 49.038483
63.620239 -35.765778 48.803764
63.43193 -34.604305 48.647537
63.815818 -36.944115 48.882385
63.620239 -35.765778 48.803764
63.098205 -36.601662 49.320061
63.993965 -38.10223 48.867809
63.815818 -36.944115 48.882385
50.583855 -34.818863 52.148594
51.491472 -33.954745 52.196713
50.455584 -35.962829 51.638515
50.583855 -34.818863 52.148594
50.429479 -37.154201 51.301842
51.317329 -36.305958 51.425495
50.455584 -35.962829 51.638515
48.679344 -37.664814 51.329166
47.885334 -37.39154 51.717354
49.573098 -37.991315 51.107224
48.679344 -37.664814 51.329166
48.684708 -38.845056 50.921528
50.434843 -38.334444 50.894203
50.429479 -37.154201 51.301842
49.573098 -37.991315 51.107224
45.201336 -41.123291 50.508312
45.19079 -40.023063 51.155178
44.348173 -40.900932 50.948494
51.385315 -44.459469 49.567894
52.156924 -43.629266 49.871311
51.102038 -43.22117 49.793232
51.385315 -44.459469 49.567894
50.664162 -45.292372 49.247376
41.143055 -50.953816 48.656704
40.15633 -50.693647 49.057083
41.697624 -50.037588 48.571865
41.143055 -50.953816 48.656704
42.297335 -49.11355 48.534065
41.2834 -48.841572 48.879421
41.697624 -50.037588 48.571865
43.325378 -49.402475 48.247776
42.911154 -48.206459 48.555332
42.297335 -49.11355 48.534065
44.406071 -49.729284 48.068793
43.325378 -49.402475 48.247776
43.792251 -50.636375 48.047525
45.022019 -48.838752 48.142189
44.406071 -49.729284 48.068793
32.98482 -59.153464 60.225357
33.176445 -58.939796 59.138115
33.069173 -58.311182 60.029526
32.541349 -61.29191 61.406715
32.648491 -61.887415 60.435188
32.30875 -61.623249 62.477626
32.541349 -61.29191 61.406715
32.107826 -62.606459 62.436211
32.30875 -61.623249 62.477626
32.332876 -58.43074 64.304108
32.547569 -58.144219 63.142857
32.397783 -57.48645 64.088734
32.091462 -58.756586 65.422333
31.906245 -58.095203 66.375969
31.814617 -59.078817 66.548317
32.332876 -58.43074 64.304108
32.091462 -58.756586 65.422333
30.993682 -63.119182 66.595024
31.36994 -62.739155 65.569305
31.260316 -62.112595 66.696418
30.549474 -63.512898 67.555736
30.993682 -63.119182 66.595024
30.703785 -61.84547 68.752098
31.123911 -61.471048 67.739173
30.943638 -60.823896 68.769135
30.401848 -62.886763 68.676399
30.703785 -61.84547 68.752098
30.221575 -62.23961 69.70636
30.067264 -63.907038 68.509998
30.549474 -63.512898 67.555736
30.401848 -62.886763 68.676399
29.519206 -64.310145 69.397178
29.666832 -64.93628 68.276516
30.067264 -63.907038 68.509998
28.918746 -64.717461 70.257046
29.519206 -64.310145 69.397178
29.319178 -63.688219 70.490528
29.489908 -59.122896 72.328346
30.043619 -58.772546 71.409267
29.321584 -60.220281 72.442631
29.489908 -59.122896 72.328346
29.080934 -61.288927 72.466633
29.686646 -60.90932 71.599037
29.321584 -60.220281 72.442631
28.416744 -61.692999 73.276939
27.686426 -62.086354 74.026199
28.781806 -62.382038 72.433346
29.080934 -61.288927 72.466633
28.416744 -61.692999 73.276939
26.763368 -65.988781 72.492161
27.024785 -66.604321 71.442749
27.536431 -65.555405 71.801815
25.925664 -66.428135 73.12677
26.763368 -65.988781 72.492161
26.43731 -65.379219 73.485836
25.047534 -66.8834 73.709965
25.373591 -67.492962 72.71629
25.925664 -66.428135 73.12677
25.172517 -65.154648 74.943832
26.071583 -64.721096 74.372715
24.658913 -66.275863 74.641869
25.172517 -65.154648 74.943832
24.10684 -67.34069 74.231388
25.047534 -66.8834 73.709965
24.658913 -66.275863 74.641869
23.526134 -68.426567 73.779697
24.10684 -67.34069 74.231388
42.699564 -40.581972 52.072945
43.476129 -40.704479 51.435047
41.824646 -41.510734 51.957462
42.699564 -40.581972 52.072945
41.02195 -42.430996 51.848606
41.811936 -42.528514 51.165878
41.824646 -41.510734 51.957462
40.220091 -43.372618 51.791561
41.02195 -42.430996 51.848606
39.494978 -44.308799 51.75951
40.284126 -44.384958 51.024971
40.220091 -43.372618 51.791561
38.787977 -45.262064 51.783043
39.494978 -44.308799 51.75951
38.155888 -46.209927 51.844078
38.926924 -46.269003 51.053955
38.787977 -45.262064 51.783043
37.421488 -46.163178 52.690201
36.752542 -46.191586 53.643558
37.560434 -47.170117 51.961113
38.155888 -46.209927 51.844078
37.421488 -46.163178 52.690201
34.902704 -53.71204 53.950504
35.440601 -53.747139 52.969178
35.167402 -52.820633 53.571217
33.459462 -49.482207 58.810124
33.740555 -48.520451 58.506366
33.359264 -48.677229 59.7099
33.626078 -50.276561 57.962036
33.459462 -49.482207 58.810124
33.244788 -50.43334 59.16557
34.714695 -54.603945 54.34951
34.902704 -53.71204 53.950504
34.441496 -53.677439 54.951549
34.498286 -55.450951 54.75462
34.714695 -54.603945 54.34951
34.354878 -56.30179 55.156044
34.498286 -55.450951 54.75462
34.110079 -55.420184 55.75198
34.165762 -57.091236 55.560413
34.354878 -56.30179 55.156044
33.844485 -57.074123 56.519039
33.689882 -56.339779 57.236618
33.567696 -57.142879 57.602253
34.165762 -57.091236 55.560413
33.844485 -57.074123 56.519039
27.481659 -67.767562 69.122734
27.996808 -66.761688 69.574944
27.282699 -67.176818 70.300194
27.717872 -68.326164 67.879048
27.481659 -67.767562 69.122734
28.386643 -67.939991 67.148846
27.717872 -68.326164 67.879048
52.216169 -34.269577 51.795868
51.491472 -33.954745 52.196713
53.043928 -34.625045 51.57201
52.216169 -34.269577 51.795868
52.171192 -35.470055 51.538311
53.836657 -34.988727 51.318421
53.881633 -33.78825 51.575977
53.043928 -34.625045 51.57201
53.694324 -41.969672 50.429966
52.663607 -41.561945 50.353058
52.904364 -42.798694 50.173557
54.457918 -41.134139 50.66383
53.694324 -41.969672 50.429966
54.698675 -42.370888 50.484329
56.45755 -41.916325 50.725441
55.721065 -42.764488 50.537185
56.228773 -40.690451 50.840145
56.45755 -41.916325 50.725441
57.224054 -41.071421 50.847393
60.555145 -40.048294 50.560654
59.633907 -39.712119 50.751019
59.842449 -40.914637 50.659367
61.217106 -39.174719 50.377873
60.555145 -40.048294 50.560654
61.425647 -40.377237 50.28622
63.476562 -38.95113 49.293705
62.690697 -38.64183 49.751061
62.873474 -39.812962 49.646084
63.993965 -38.10223 48.867809
63.476562 -38.95113 49.293705
3 0 26 24
3 1 28 27
3 95 94 29
3 2 96 97
3 2 98 100
3 98 32 99
3 98 99 100
3 101 34 102
3 4 37 36
3 103 40 104
3 105 104 38
3 103 104 105
3 106 42 107
3 108 107 40
3 106 107 108
3 5 109 110
3 5 111 112
3 5 113 115
3 113 44 114
3 113 114 115
3 4 116 118
3 116 46 117
3 116 117 118
3 4 36 46
3 120 119 48
3 3 51 49
3 121 52 122
3 6 123 124
3 6 125 127
3 125 53 126
3 125 126 127
3 7 56 54
3 9 57 25
3 9 58 57
3 12 62 60
3 129 128 30
3 13 130 131
3 14 63 31
3 14 64 63
3 16 66 33
3 16 67 66
3 8 68 55
3 132 69 133
3 134 133 35
3 132 133 134
3 135 70 136
3 137 136 69
3 135 136 137
3 139 138 70
3 140 71 141
3 142 141 61
3 140 141 142
3 17 143 144
3 10 72 59
3 146 145 39
3 147 73 148
3 18 149 151
3 151 150 41
3 149 150 151
3 18 152 154
3 152 74 153
3 152 153 154
3 155 75 156
3 157 76 158
3 159 158 75
3 157 158 159
3 160 77 161
3 162 161 76
3 160 161 162
3 19 163 164
3 19 165 167
3 165 78 166
3 165 166 167
3 19 79 78
3 20 80 43
3 20 81 80
3 11 168 170
3 168 82 169
3 168 169 170
3 21 83 45
3 21 84 83
3 21 85 84
3 17 171 173
3 173 172 47
3 171 172 173
3 17 174 175
3 15 86 65
3 22 87 50
3 22 88 87
3 176 89 177
3 23 178 180
3 178 90 179
3 178 179 180
3 23 91 90
3 23 92 91
3 181 93 182
3 184 183 93
3 185 6 186
3 24 25 7
3 26 25 24
3 26 9 25
3 27 187 188
3 28 189 191
3 191 190 27
3 189 190 191
3 28 192 193
3 29 30 12
3 194 30 195
3 196 195 29
3 194 195 196
3 198 197 30
3 200 199 13
3 201 31 202
3 32 203 205
3 203 31 204
3 203 204 205
3 32 14 31
3 206 33 207
3 34 208 210
3 208 33 209
3 208 209 210
3 34 16 33
3 211 35 212
3 213 212 8
3 211 212 213
3 214 35 215
3 217 216 35
3 36 218 220
3 220 219 17
3 218 219 220
3 37 221 223
3 223 222 36
3 221 222 223
3 37 224 225
3 38 39 10
3 40 39 38
3 40 226 228
3 228 227 39
3 226 227 228
3 40 229 231
3 229 41 230
3 229 230 231
3 42 41 40
3 42 18 41
3 232 19 233
3 234 43 235
3 236 235 19
3 234 235 236
3 44 237 239
3 237 43 238
3 237 238 239
3 44 20 43
3 240 45 241
3 242 241 11
3 240 241 242
3 46 243 245
3 243 45 244
3 243 244 245
3 46 21 45
3 46 47 21
3 36 47 46
3 36 17 47
3 48 246 247
3 249 248 48
3 49 50 15
3 51 50 49
3 51 22 50
3 250 23 251
3 253 252 23
3 52 254 255
3 52 256 257
3 258 52 259
3 260 52 261
3 263 262 52
3 53 264 265
3 53 266 268
3 266 2 267
3 266 267 268
3 54 269 271
3 269 55 270
3 269 270 271
3 56 55 54
3 56 8 55
3 25 56 7
3 57 56 25
3 57 8 56
3 57 272 274
3 274 273 8
3 272 273 274
3 58 275 277
3 277 276 57
3 275 276 277
3 58 278 279
3 280 59 281
3 282 281 4
3 280 281 282
3 283 59 284
3 285 10 286
3 287 286 59
3 285 286 287
3 288 10 289
3 290 38 291
3 292 291 10
3 290 291 292
3 293 38 294
3 296 295 38
3 297 5 298
3 300 299 5
3 301 11 302
3 303 11 304
3 306 305 11
3 307 4 308
3 310 309 3
3 60 61 0
3 62 61 60
3 62 311 313
3 313 312 61
3 311 312 313
3 30 62 12
3 314 62 315
3 316 315 30
3 314 315 316
3 318 317 62
3 320 319 1
3 322 321 13
3 31 323 324
3 63 325 327
3 327 326 31
3 325 326 327
3 63 328 329
3 63 330 331
3 64 332 334
3 334 333 63
3 332 333 334
3 64 335 336
3 337 65 338
3 339 65 340
3 341 15 342
3 343 342 65
3 341 342 343
3 33 344 345
3 66 346 348
3 348 347 33
3 346 347 348
3 66 349 351
3 349 15 350
3 349 350 351
3 66 49 15
3 67 49 66
3 67 3 49
3 55 352 354
3 352 34 353
3 352 353 354
3 68 34 55
3 68 16 34
3 35 68 8
3 69 68 35
3 69 16 68
3 69 67 16
3 70 67 69
3 70 3 67
3 70 355 357
3 357 356 3
3 355 356 357
3 359 358 70
3 61 26 0
3 71 26 61
3 71 9 26
3 360 71 361
3 362 71 363
3 364 9 365
3 366 365 71
3 364 365 366
3 367 58 368
3 369 368 9
3 367 368 369
3 370 58 371
3 370 371 372
3 374 373 58
3 377 376 17
3 375 376 377
3 378 48 379
3 380 48 381
3 383 382 48
3 59 37 4
3 72 37 59
3 72 384 386
3 386 385 37
3 384 385 386
3 39 72 10
3 387 72 388
3 389 388 39
3 387 388 389
3 391 390 72
3 73 392 394
3 392 393 394
3 73 395 396
3 41 397 399
3 397 73 398
3 397 398 399
3 400 73 401
3 402 401 41
3 400 401 402
3 405 404 73
3 403 404 405
3 406 27 407
3 406 407 408
3 74 409 411
3 409 27 410
3 409 410 411
3 74 1 27
3 412 42 413
3 414 42 415
3 416 18 417
3 418 417 42
3 416 417 418
3 75 419 420
3 75 421 423
3 421 18 422
3 421 422 423
3 75 74 18
3 76 74 75
3 76 1 74
3 76 424 426
3 426 425 1
3 424 425 426
3 77 427 429
3 429 428 76
3 427 428 429
3 77 430 432
3 430 13 431
3 430 431 432
3 433 77 434
3 435 77 436
3 437 13 438
3 439 438 77
3 437 438 439
3 441 440 13
3 442 54 443
3 444 54 445
3 446 7 447
3 448 447 54
3 446 447 448
3 449 7 450
3 451 24 452
3 453 452 7
3 451 452 453
3 454 24 455
3 456 0 457
3 458 457 24
3 456 457 458
3 78 459 460
3 78 461 463
3 461 0 462
3 461 462 463
3 78 60 0
3 79 60 78
3 79 12 60
3 43 79 19
3 80 79 43
3 80 12 79
3 80 29 12
3 81 29 80
3 81 464 466
3 466 465 29
3 464 465 466
3 467 44 468
3 469 468 5
3 467 468 469
3 82 470 472
3 470 44 471
3 470 471 472
3 82 20 44
3 45 82 11
3 83 82 45
3 83 20 82
3 83 81 20
3 84 81 83
3 84 473 475
3 475 474 81
3 473 474 475
3 84 476 477
3 85 478 480
3 480 479 84
3 478 479 480
3 85 481 482
3 47 85 21
3 483 85 484
3 485 484 47
3 483 484 485
3 487 486 85
3 488 28 489
3 490 489 1
3 488 489 490
3 491 28 492
3 494 493 28
3 65 495 496
3 86 497 499
3 499 498 65
3 497 498 499
3 86 500 502
3 500 6 501
3 500 501 502
3 50 86 15
3 87 86 50
3 87 6 86
3 87 53 6
3 88 53 87
3 88 2 53
3 503 51 504
3 505 504 3
3 503 504 505
3 89 506 508
3 506 51 507
3 506 507 508
3 89 22 51
3 509 89 510
3 90 511 513
3 511 89 512
3 511 512 513
3 90 22 89
3 90 88 22
3 91 88 90
3 91 2 88
3 91 32 2
3 92 32 91
3 92 14 32
3 514 92 515
3 516 515 23
3 514 515 516
3 93 517 519
3 517 92 518
3 517 518 519
3 93 14 92
3 93 64 14
3 520 64 521
3 522 521 93
3 520 521 522
3 524 523 64
