ply
format ascii 1.0
element vertex 97
property float x
property float y
property float z
element face 76
property list uchar int vertex_index
end_header
-2.568136 -100.869583 -10.702463
-2.292196 -95.798157 -7.840151
-1.401667 -107.294662 -10.061409
-1.517517 -101.750381 -8.800152
-1.565428 -99.167007 -7.313927
-2.23925 -98.39209 -9.195501
-3.550644 -97.309799 -10.968405
-4.902239 -110.509048 -15.206108
-3.567169 -108.630142 -13.693396
-1.049553 -104.856842 -8.36348
-1.853422 -104.213089 -10.419092
-2.110098 -109.565063 -11.778786
-2.54488 -106.518799 -12.078163
-3.248074 -103.199509 -12.271782
-4.224173 -99.64975 -12.420013
-6.022063 -109.741035 -15.904289
-5.719931 -111.313217 -15.898601
-5.227534 -108.897789 -15.238485
-6.022063 -109.741035 -15.904289
-2.156157 -96.147789 -6.940796
-1.792774 -97.832214 -6.677684
-1.928812 -97.482582 -7.577039
-2.520323 -94.458176 -7.273802
-2.156157 -96.147789 -6.940796
-2.776078 -94.015129 -8.118831
-2.520323 -94.458176 -7.273802
-1.22561 -106.075752 -9.212445
-0.925618 -106.262825 -8.09469
-1.101675 -107.481735 -8.943655
-2.632243 -110.596199 -12.608792
-2.010848 -110.93621 -11.544942
-3.397537 -105.934319 -12.947322
-3.056024 -107.574471 -12.885779
-3.908681 -106.98999 -13.754938
-3.749134 -104.274674 -13.044131
-2.896477 -104.859154 -12.174972
-3.397537 -105.934319 -12.947322
-5.321392 -98.872986 -13.162921
-4.715799 -100.736702 -13.144753
-4.838275 -97.782547 -12.496245
-5.321392 -98.872986 -13.162921
-1.541473 -100.458694 -8.05704
-1.321828 -100.729469 -7.044979
-1.297872 -102.021156 -7.788092
-2.729023 -96.610443 -9.397956
-2.755496 -95.313477 -8.72028
-2.265723 -97.095123 -8.517826
-3.38472 -96.069298 -10.284408
-2.729023 -96.610443 -9.397956
-2.894947 -97.850944 -10.081953
-4.164724 -95.444076 -11.114655
-3.38472 -96.069298 -10.284408
-1.290655 -108.685676 -9.814126
-1.101675 -107.481735 -8.943655
-4.710824 -111.975182 -15.09906
-5.719931 -111.313217 -15.898601
-4.028313 -111.068192 -14.322453
-4.710824 -111.975182 -15.09906
-4.234704 -109.569595 -14.449752
-3.360778 -110.128738 -13.566097
-4.028313 -111.068192 -14.322453
-4.559999 -107.958336 -14.482129
-4.234704 -109.569595 -14.449752
-5.227534 -108.897789 -15.238485
-3.908681 -106.98999 -13.754938
-4.559999 -107.958336 -14.482129
-1.537625 -99.402542 -6.349769
-1.321828 -100.729469 -7.044979
-1.537625 -99.402542 -6.349769
-1.792774 -97.832214 -6.677684
-2.776078 -94.015129 -8.118831
-2.755496 -95.313477 -8.72028
-0.923907 -104.991745 -7.268187
-0.925618 -106.262825 -8.09469
-1.06389 -103.574387 -7.569755
-0.923907 -104.991745 -7.268187
-1.283535 -103.303612 -8.581816
-1.297872 -102.021156 -7.788092
-1.06389 -103.574387 -7.569755
-1.64487 -109.820877 -10.672815
-2.010848 -110.93621 -11.544942
-1.755882 -108.429862 -10.920098
-1.290655 -108.685676 -9.814126
-1.64487 -109.820877 -10.672815
-2.838633 -109.097602 -12.736091
-2.632243 -110.596199 -12.608792
-3.360778 -110.128738 -13.566097
-4.227749 -102.511582 -13.070638
-3.749134 -104.274674 -13.044131
-3.736124 -101.42463 -12.345897
-4.227749 -102.511582 -13.070638
-4.715799 -100.736702 -13.144753
-4.501511 -96.612572 -11.770441
-3.887409 -98.479774 -11.694209
-4.838275 -97.782547 -12.496245
-4.164724 -95.444076 -11.114655
-4.501511 -96.612572 -11.770441
3 0 5 3
3 0 6 5
3 15 7 16
3 18 17 7
3 1 19 21
3 21 20 4
3 19 20 21
3 1 22 23
3 1 24 25
3 2 26 28
3 26 9 27
3 26 27 28
3 2 10 9
3 29 11 30
3 31 12 32
3 33 32 8
3 31 32 33
3 34 13 35
3 36 35 12
3 34 35 36
3 37 14 38
3 40 39 14
3 3 41 43
3 41 4 42
3 41 42 43
3 5 4 3
3 5 1 4
3 5 44 46
3 46 45 1
3 44 45 46
3 6 47 49
3 49 48 5
3 47 48 49
3 6 50 51
3 52 2 53
3 7 54 55
3 7 56 57
3 7 58 60
3 58 8 59
3 58 59 60
3 61 8 62
3 63 62 7
3 61 62 63
3 65 64 8
3 4 66 67
3 69 68 4
3 71 70 1
3 9 72 73
3 9 74 75
3 9 76 78
3 76 3 77
3 76 77 78
3 10 3 9
3 10 0 3
3 11 79 80
3 11 81 83
3 81 2 82
3 81 82 83
3 8 84 86
3 84 11 85
3 84 85 86
3 12 11 8
3 12 2 11
3 12 10 2
3 13 10 12
3 13 0 10
3 87 13 88
3 14 89 91
3 89 13 90
3 89 90 91
3 14 0 13
3 14 6 0
3 92 6 93
3 94 93 14
3 92 93 94
3 96 95 6
