ply
format ascii 1.0
element vertex 127
property float x
property float y
property float z
element face 92
property list uchar int vertex_index
end_header
-65.698174 -55.170097 35.143204
-65.364182 -55.538822 30.221212
-63.648396 -51.998089 28.799236
-61.097977 -48.295609 26.900536
-64.363174 -51.925995 31.16711
-65.303246 -56.427383 38.217175
-65.547974 -56.846283 35.776085
-65.666786 -57.127411 33.291569
-65.511551 -53.43195 34.390152
-65.569382 -55.460339 32.698902
-65.1129 -53.724125 31.998497
-64.654434 -53.796719 29.568737
-64.901779 -55.928215 40.589714
-61.149422 -46.286263 27.887943
-62.308384 -48.1936 29.092665
-65.6964 -54.947908 36.343151
-65.739254 -54.071945 35.939915
-65.623074 -56.00819 35.459644
-65.6213 -55.786001 36.659592
-65.6964 -54.947908 36.343151
-65.275093 -52.533396 33.941479
-65.552406 -52.302121 35.08192
-65.075767 -52.679484 32.745651
-65.312225 -53.578038 33.194325
-65.275093 -52.533396 33.941479
-63.927252 -52.801863 27.952301
-64.430271 -53.701178 28.337052
-64.151415 -52.897404 29.183986
-65.207028 -55.057144 40.234165
-65.009689 -54.767147 41.352974
-64.955578 -57.255783 38.504897
-65.174031 -57.446041 37.26985
-65.532166 -56.375275 30.499725
-65.634766 -56.336033 31.73857
-65.466782 -55.499581 31.460057
-61.1237 -47.290936 27.394239
-60.428028 -46.353642 26.85202
-60.402306 -47.358315 26.358317
-61.766419 -49.227311 27.4032
-62.371622 -49.176306 28.499265
-61.703181 -48.244605 27.9966
-64.356464 -50.856346 31.803854
-64.700905 -51.780418 32.329957
-63.882416 -51.001938 30.681331
-64.356464 -50.856346 31.803854
-63.525026 -51.037985 29.497394
-64.005785 -51.962042 29.983173
-63.882416 -51.001938 30.681331
-65.498936 -55.576551 37.880136
-65.407761 -55.306728 39.047895
-65.42561 -56.636833 36.99663
-65.498936 -55.576551 37.880136
-65.6213 -55.786001 36.659592
-65.296394 -57.655491 36.049305
-65.174031 -57.446041 37.26985
-65.42561 -56.636833 36.99663
-65.459728 -57.785994 34.792763
-65.296394 -57.655491 36.049305
-65.519135 -57.926558 33.550505
-65.459728 -57.785994 34.792763
-65.60738 -56.986847 34.533827
-65.640095 -57.968588 32.281486
-65.519135 -57.926558 33.550505
-65.529336 -56.291967 29.233407
-65.253098 -55.447199 28.969348
-60.534956 -48.236565 25.778332
-60.402306 -47.358315 26.358317
-61.314793 -49.147204 26.234452
-60.534956 -48.236565 25.778332
-65.645942 -53.202872 35.563389
-65.552406 -52.302121 35.08192
-65.604862 -54.301023 34.766678
-65.739254 -54.071945 35.939915
-65.645942 -53.202872 35.563389
-64.738037 -52.82506 31.582804
-65.075767 -52.679484 32.745651
-64.700905 -51.780418 32.329957
-64.898224 -54.576148 28.64311
-65.253098 -55.447199 28.969348
-65.009308 -54.667771 29.894975
-64.898224 -54.576148 28.64311
-64.430271 -53.701178 28.337052
-64.612602 -55.664061 41.721691
-65.009689 -54.767147 41.352974
-64.472553 -56.782711 40.889437
-64.612602 -55.664061 41.721691
-65.102513 -56.177799 39.403444
-65.207028 -55.057144 40.234165
-65.407761 -55.306728 39.047895
-64.754845 -57.006199 39.691166
-65.102513 -56.177799 39.403444
-64.955578 -57.255783 38.504897
-64.472553 -56.782711 40.889437
-64.754845 -57.006199 39.691166
-65.683468 -57.169569 32.034903
-65.618084 -56.293875 32.995235
-65.634766 -56.336033 31.73857
-65.640095 -57.968588 32.281486
-65.683468 -57.169569 32.034903
-65.532166 -56.375275 30.499725
-65.529336 -56.291967 29.233407
-60.560448 -45.325966 27.259559
-60.428028 -46.353642 26.85202
-61.403029 -45.163551 28.205385
-60.560448 -45.325966 27.259559
-61.877617 -46.132908 28.903267
-61.403029 -45.163551 28.205385
-62.457098 -47.086577 29.505628
-61.877617 -46.132908 28.903267
-61.728903 -47.239931 28.490304
-62.913246 -48.045778 30.166465
-62.457098 -47.086577 29.505628
-62.85502 -49.13574 29.644109
-62.913246 -48.045778 30.166465
-62.85502 -49.13574 29.644109
-62.371622 -49.176306 28.499265
-63.041628 -51.07855 28.35255
-63.525026 -51.037985 29.497394
-61.983235 -50.078905 26.737117
-61.766419 -49.227311 27.4032
-61.314793 -49.147204 26.234452
-63.310076 -51.905853 27.59469
-63.041628 -51.07855 28.35255
-62.703308 -50.986315 27.148004
-63.588932 -52.709627 26.747755
-63.927252 -52.801863 27.952301
-63.310076 -51.905853 27.59469
3 0 15 16
3 0 17 19
3 17 6 18
3 17 18 19
3 0 7 6
3 20 8 21
3 22 10 23
3 24 23 8
3 22 23 24
3 2 11 4
3 2 25 27
3 27 26 11
3 25 26 27
3 28 12 29
3 31 30 5
3 1 32 34
3 34 33 9
3 32 33 34
3 3 35 37
3 35 13 36
3 35 36 37
3 3 14 13
3 3 38 40
3 40 39 14
3 38 39 40
3 41 4 42
3 43 4 44
3 45 2 46
3 47 46 4
3 45 46 47
3 48 5 49
3 6 50 52
3 50 5 51
3 50 51 52
3 6 53 55
3 55 54 5
3 53 54 55
3 6 56 57
3 7 58 60
3 60 59 6
3 58 59 60
3 7 61 62
3 64 63 1
3 65 3 66
3 68 67 3
3 8 69 70
3 8 71 73
3 71 0 72
3 71 72 73
3 8 9 0
3 10 9 8
3 10 1 9
3 4 74 76
3 74 10 75
3 74 75 76
3 11 10 4
3 11 1 10
3 11 77 79
3 79 78 1
3 77 78 79
3 81 80 11
3 12 82 83
3 12 84 85
3 5 86 88
3 86 12 87
3 86 87 88
3 89 12 90
3 91 90 5
3 89 90 91
3 93 92 12
3 9 7 0
3 94 7 95
3 96 95 9
3 94 95 96
3 98 97 7
3 100 99 1
3 13 101 102
3 13 103 104
3 13 105 106
3 14 107 109
3 109 108 13
3 107 108 109
3 14 110 111
3 14 112 113
3 115 114 14
3 116 2 117
3 120 119 3
3 118 119 120
3 121 2 122
3 121 122 123
3 126 125 2
3 124 125 126
