ply
format ascii 1.0
element vertex 170
property float x
property float y
property float z
element face 137
property list uchar int vertex_index
end_header
-8.880409 -106.06105 39.195499
-7.097744 -103.101166 40.791138
-5.852997 -107.084015 35.701668
-7.619226 -110.08815 33.454704
-10.386681 -111.531235 29.772507
-9.037951 -102.034332 44.504036
-11.539417 -103.423752 41.951065
-7.913792 -104.763962 40.199364
-6.628277 -105.104279 38.305603
-7.37159 -106.770615 37.556419
-7.879774 -100.706329 45.182625
-8.529045 -100.02565 47.023865
-12.879963 -103.45546 40.118271
-5.750971 -110.772491 31.874098
-6.405088 -101.137573 41.027531
-6.077158 -103.131546 38.666687
-5.368052 -105.092896 36.209633
-8.89028 -111.012054 31.752338
-7.158045 -101.072556 43.185318
-8.105288 -102.741135 42.73465
-9.146513 -104.04834 41.899094
-9.084137 -99.029572 48.72501
-9.850048 -100.978378 46.11908
-10.25783 -102.950821 43.428673
-6.601221 -108.76741 34.786377
-8.097495 -99.024772 48.249523
-7.887467 -99.345467 47.293551
-5.132284 -107.058716 34.66303
-4.889812 -106.063156 34.917013
-5.610525 -106.088455 35.95565
-9.638481 -111.271645 30.762422
-9.875079 -110.230782 32.318441
-10.623279 -110.490372 31.328525
-9.349771 -112.310554 29.201889
-8.601571 -112.050964 30.191805
-9.638481 -111.271645 30.762422
-6.967996 -100.048386 44.348726
-6.720225 -100.092553 43.252544
-6.530176 -99.068382 44.415953
-9.802727 -99.309158 48.168915
-9.316157 -98.381248 49.520021
-10.185683 -100.283562 46.86595
-9.467092 -100.003975 47.422045
-9.802727 -99.309158 48.168915
-10.898623 -103.187286 42.689869
-10.729495 -102.218056 44.127483
-11.370288 -102.454521 43.388679
-10.91639 -104.182998 41.298423
-10.275596 -103.946533 42.037228
-10.898623 -103.187286 42.689869
-11.542815 -104.411255 40.471829
-10.91639 -104.182998 41.298423
-12.889913 -104.442009 38.56506
-13.579325 -103.270508 39.0727
-7.110224 -109.42778 34.120541
-7.464794 -108.419334 35.584621
-7.973797 -109.079704 34.918785
-5.335444 -109.914612 32.413367
-4.868799 -110.911048 30.956132
-11.392025 -110.534263 30.258994
-10.623279 -110.490372 31.328525
-7.562832 -99.685806 46.372931
-7.328861 -99.865273 45.34738
-7.011919 -98.84475 46.537686
-8.20441 -100.365989 46.103245
-7.562832 -99.685806 46.372931
-7.887467 -99.345467 47.293551
-12.057697 -102.482139 42.560131
-11.370288 -102.454521 43.388679
-12.72797 -102.497994 41.643734
-12.20969 -103.439606 41.034668
-12.057697 -102.482139 42.560131
-13.426533 -102.315423 40.669791
-12.72797 -102.497994 41.643734
-14.125894 -102.130471 39.62422
-13.579325 -103.270508 39.0727
-13.426533 -102.315423 40.669791
-6.321635 -111.45018 31.14203
-6.685099 -110.43032 32.664401
-7.255763 -111.10801 31.932333
-5.356828 -111.790443 30.343633
-6.321635 -111.45018 31.14203
-4.474657 -111.929001 29.425667
-4.868799 -110.911048 30.956132
-5.356828 -111.790443 30.343633
-6.038809 -101.030822 39.871601
-6.099141 -100.043388 41.01031
-5.874843 -102.027809 38.69118
-6.038809 -101.030822 39.871601
-6.241123 -102.134559 39.847109
-5.593447 -102.996453 37.517404
-5.874843 -102.027809 38.69118
-5.238894 -103.977127 36.288877
-5.593447 -102.996453 37.517404
-5.722605 -104.112221 37.43816
-4.787943 -104.930306 35.065281
-4.658786 -103.814537 35.144526
-5.238894 -103.977127 36.288877
-4.787943 -104.930306 35.065281
-4.889812 -106.063156 34.917013
-8.604388 -107.066154 37.789182
-9.443384 -106.504203 38.4822
-8.557934 -109.527916 34.128265
-7.973797 -109.079704 34.918785
-9.193461 -109.989868 33.277082
-9.875079 -110.230782 32.318441
-8.254753 -110.550102 32.603521
-8.557934 -109.527916 34.128265
-9.193461 -109.989868 33.277082
-7.89129 -111.569962 31.08115
-7.255763 -111.10801 31.932333
-8.254753 -110.550102 32.603521
-7.89129 -111.569962 31.08115
-8.601571 -112.050964 30.191805
-11.233379 -111.598847 28.706527
-11.392025 -110.534263 30.258994
-10.181368 -112.590683 28.209061
-11.233379 -111.598847 28.706527
-9.349771 -112.310554 29.201889
-10.181368 -112.590683 28.209061
-6.343746 -100.125061 42.173651
-6.099141 -100.043388 41.01031
-6.781567 -101.105064 42.106425
-6.343746 -100.125061 42.173651
-6.720225 -100.092553 43.252544
-7.51891 -100.889443 44.183971
-6.967996 -100.048386 44.348726
-7.328861 -99.865273 45.34738
-8.560704 -98.064065 49.992945
-8.792725 -97.415741 50.787956
-9.316157 -98.381248 49.520021
-8.375041 -98.526734 49.100096
-7.851608 -97.561226 50.368031
-8.560704 -98.064065 49.992945
-8.806591 -99.527611 47.874437
-8.097495 -99.024772 48.249523
-8.375041 -98.526734 49.100096
-10.525603 -101.231835 45.472687
-10.185683 -100.283562 46.86595
-10.053939 -101.9646 44.773877
-10.525603 -101.231835 45.472687
-10.729495 -102.218056 44.127483
-9.719938 -104.495293 41.272438
-9.702172 -103.499581 42.663883
-10.275596 -103.946533 42.037228
-9.586886 -105.501647 39.92064
-9.013461 -105.054695 40.547297
-9.719938 -104.495293 41.272438
-9.443384 -106.504203 38.4822
-9.586886 -105.501647 39.92064
-12.213088 -104.427109 39.555431
-11.542815 -104.411255 40.471829
-12.20969 -103.439606 41.034668
-12.213088 -104.427109 39.555431
-12.889913 -104.442009 38.56506
-7.849979 -107.420937 36.969642
-8.126 -106.415832 38.375959
-8.604388 -107.066154 37.789182
-6.986406 -107.769013 36.171398
-7.849979 -107.420937 36.969642
-7.464794 -108.419334 35.584621
-5.760568 -108.912071 33.869507
-6.176096 -109.76995 33.330238
-5.335444 -109.914612 32.413367
-5.386456 -108.070373 34.327152
-6.227109 -107.925713 35.244022
-5.760568 -108.912071 33.869507
-4.665744 -108.045074 33.288515
-5.132284 -107.058716 34.66303
-5.386456 -108.070373 34.327152
3 0 9 7
3 25 11 26
3 1 15 14
3 2 16 8
3 2 27 29
3 29 28 16
3 27 28 29
3 4 30 32
3 30 17 31
3 30 31 32
3 4 33 35
3 35 34 17
3 33 34 35
3 36 18 37
3 36 37 38
3 5 19 10
3 5 20 19
3 39 21 40
3 41 22 42
3 43 42 21
3 41 42 43
3 6 44 46
3 44 23 45
3 44 45 46
3 6 47 49
3 49 48 23
3 47 48 49
3 6 50 51
3 53 52 12
3 3 54 56
3 54 24 55
3 54 55 56
3 58 57 13
3 7 8 1
3 9 8 7
3 9 2 8
3 59 4 60
3 61 10 62
3 61 62 63
3 11 64 66
3 64 10 65
3 64 65 66
3 11 5 10
3 67 6 68
3 69 12 70
3 71 70 6
3 69 70 71
3 72 12 73
3 76 75 12
3 74 75 76
3 77 13 78
3 79 78 3
3 77 78 79
3 80 13 81
3 84 83 13
3 82 83 84
3 14 85 86
3 15 87 89
3 89 88 14
3 87 88 89
3 15 90 91
3 8 15 1
3 16 15 8
3 16 92 94
3 94 93 15
3 92 93 94
3 16 95 97
3 95 96 97
3 99 98 16
3 101 100 0
3 102 3 103
3 17 104 105
3 17 106 108
3 106 3 107
3 106 107 108
3 17 109 111
3 111 110 3
3 109 110 111
3 113 112 17
3 114 4 115
3 116 4 117
3 119 118 4
3 120 14 121
3 18 122 124
3 122 14 123
3 122 123 124
3 18 1 14
3 10 125 127
3 125 18 126
3 125 126 127
3 19 18 10
3 19 1 18
3 19 7 1
3 20 7 19
3 20 0 7
3 21 128 130
3 128 129 130
3 21 131 133
3 131 132 133
3 21 134 136
3 134 11 135
3 134 135 136
3 22 11 21
3 22 5 11
3 137 22 138
3 23 139 141
3 139 22 140
3 139 140 141
3 23 5 22
3 23 20 5
3 142 20 143
3 144 143 23
3 142 143 144
3 145 0 146
3 147 146 20
3 145 146 147
3 149 148 0
3 12 150 152
3 152 151 6
3 150 151 152
3 154 153 12
3 155 9 156
3 157 156 0
3 155 156 157
3 24 158 160
3 158 9 159
3 158 159 160
3 24 2 9
3 13 24 3
3 161 24 162
3 163 162 13
3 161 162 163
3 164 2 165
3 166 165 24
3 164 165 166
3 169 168 2
3 167 168 169
