ply
format ascii 1.0
element vertex 236
property float x
property float y
property float z
element face 197
property list uchar int vertex_index
end_header
20.472874 -69.900009 75.033455
23.890114 -73.690582 65.587814
16.046864 -71.915878 76.11129
18.118122 -74.079468 72.32991
28.577517 -68.52755 65.900208
25.721542 -70.113159 68.667404
22.17765 -71.945511 70.803185
20.238491 -75.563591 67.352608
18.392311 -67.188568 78.015724
13.848791 -68.850754 78.875221
13.801189 -72.866295 76.447113
14.885235 -74.163788 74.806717
22.556807 -68.904907 74.259911
23.323984 -69.99427 72.184006
21.353567 -70.989975 73.077042
17.104164 -76.035416 70.632332
19.155704 -74.877441 69.972412
18.27758 -76.692337 68.096687
17.178127 -65.55777 79.196602
16.116373 -68.053375 78.492683
35.526226 -45.466724 56.639824
34.53484 -47.400856 57.035561
24.742823 -71.950562 67.240349
26.334272 -71.165375 66.080986
18.287117 -70.91394 75.643707
19.26239 -72.035583 73.803596
15.980522 -75.210815 72.875999
26.251722 -67.037697 72.133095
26.767551 -68.182693 69.847984
25.137928 -69.059296 71.110527
24.028244 -70.990158 69.814377
23.003052 -72.823334 68.274582
20.196484 -72.980392 71.639694
21.132282 -73.799538 69.185196
22.117306 -74.560715 66.513763
19.492363 -68.637802 76.662537
14.966892 -70.493996 77.579407
27.239977 -69.299896 67.360611
27.770117 -70.439461 64.797195
13.245323 -74.013943 75.768593
12.700111 -73.293514 76.547779
17.270341 -77.304458 68.413914
17.690872 -76.363877 69.364509
16.683633 -76.975998 69.681736
17.931568 -77.569706 67.064167
17.270341 -77.304458 68.413914
16.526937 -64.661364 79.765583
17.634632 -64.290985 79.450203
16.049388 -65.942925 79.444992
16.526937 -64.661364 79.765583
34.087599 -47.558165 58.220852
34.526829 -46.5944 58.000923
34.187796 -48.363142 57.321075
34.087599 -47.558165 58.220852
24.714914 -73.314289 65.082111
25.141269 -72.444279 65.908378
24.316468 -72.820572 66.414081
16.569185 -72.510994 75.24437
17.689312 -72.010025 75.010578
17.16699 -71.414909 75.877499
14.902537 -75.769538 73.074687
15.432879 -74.687301 73.841358
14.354893 -75.246025 74.040047
14.41848 -76.780483 72.214165
15.496465 -76.221759 72.015476
14.902537 -75.769538 73.074687
29.159357 -68.149372 65.101906
28.998216 -67.539746 66.336545
28.816061 -69.133206 64.648049
29.159357 -68.149372 65.101906
24.816694 -68.503761 72.205005
25.694825 -68.048496 71.621811
25.373591 -67.492962 72.71629
20.818279 -75.889145 65.949128
21.757686 -75.387707 65.529705
21.177898 -75.062153 66.933186
19.507917 -66.738899 77.72086
18.90751 -65.961495 78.317333
18.942337 -67.913185 77.339131
20.057944 -67.463516 77.044266
19.507917 -66.738899 77.72086
17.816976 -68.388069 77.598438
18.367002 -69.112686 76.921844
18.942337 -67.913185 77.339131
13.284215 -70.084789 78.370098
13.843266 -70.90641 77.722191
14.407841 -69.672375 78.227314
36.102638 -45.363264 55.559852
35.553683 -46.329744 55.723247
27.413965 -71.354996 64.137425
27.052194 -70.802418 65.43909
26.696043 -71.717953 64.77932
28.108348 -71.042621 63.543598
27.413965 -71.354996 64.137425
13.787346 -74.662689 74.948395
14.343212 -73.515041 75.626915
13.245323 -74.013943 75.768593
14.354893 -75.246025 74.040047
13.787346 -74.662689 74.948395
28.386643 -67.939991 67.148846
28.998216 -67.539746 66.336545
28.807341 -66.952186 67.585183
22.940396 -69.449589 73.221958
23.909723 -68.971249 72.741745
23.526134 -68.426567 73.779697
18.899368 -76.974186 66.709373
19.879824 -76.409813 66.337334
19.258035 -76.127964 67.724648
18.899368 -76.974186 66.709373
17.931568 -77.569706 67.064167
18.300418 -65.146096 78.907772
17.634632 -64.290985 79.450203
17.785219 -66.373169 78.606163
18.90751 -65.961495 78.317333
18.300418 -65.146096 78.907772
15.518511 -67.190727 79.093032
16.64725 -66.805573 78.844642
16.049388 -65.942925 79.444992
14.384721 -67.589416 79.284301
14.982582 -68.452065 78.683952
15.518511 -67.190727 79.093032
35.022522 -45.627335 57.803055
35.624477 -44.66464 57.673794
35.030533 -46.43379 56.837693
35.022522 -45.627335 57.803055
34.526829 -46.5944 58.000923
35.05799 -47.29681 55.921116
35.553683 -46.329744 55.723247
35.030533 -46.43379 56.837693
34.644389 -48.258978 56.176159
35.05799 -47.29681 55.921116
34.644389 -48.258978 56.176159
34.187796 -48.363142 57.321075
25.936993 -72.051685 65.328697
25.538547 -71.557969 66.660667
25.141269 -72.444279 65.908378
26.696043 -71.717953 64.77932
25.936993 -72.051685 65.328697
18.176949 -72.570847 74.090522
18.774753 -71.474761 74.723652
17.689312 -72.010025 75.010578
17.604814 -73.592789 73.353679
18.690256 -73.057525 73.066753
18.176949 -72.570847 74.090522
15.988371 -73.634949 74.592083
16.569185 -72.510994 75.24437
15.46605 -73.039833 75.459003
16.536015 -74.158462 73.626724
15.988371 -73.634949 74.592083
15.432879 -74.687301 73.841358
17.049322 -74.645141 72.602954
17.604814 -73.592789 73.353679
16.536015 -74.158462 73.626724
16.058286 -76.63406 70.893642
16.542343 -75.623115 71.754165
15.496465 -76.221759 72.015476
16.683633 -76.975998 69.681736
16.058286 -76.63406 70.893642
24.389408 -74.152526 64.219455
23.54164 -74.514351 64.653667
26.509636 -67.610195 70.990539
27.282699 -67.176818 70.300194
27.024785 -66.604321 71.442749
24.230956 -69.526783 71.647267
24.816694 -68.503761 72.205005
23.909723 -68.971249 72.741745
22.655235 -74.949418 65.116642
23.54164 -74.514351 64.653667
23.00371 -74.125649 66.050788
22.655235 -74.949418 65.116642
21.757686 -75.387707 65.529705
20.818279 -75.889145 65.949128
19.879824 -76.409813 66.337334
26.763368 -65.988781 72.492161
27.024785 -66.604321 71.442749
25.925664 -66.428135 73.12677
26.763368 -65.988781 72.492161
25.373591 -67.492962 72.71629
25.925664 -66.428135 73.12677
23.137513 -67.81903 74.711602
23.526134 -68.426567 73.779697
22.11221 -68.291427 75.130188
23.137513 -67.81903 74.711602
21.070244 -68.788978 75.51696
21.51484 -69.402458 74.646683
22.11221 -68.291427 75.130188
20.579988 -68.157875 76.331501
20.057944 -67.463516 77.044266
19.982619 -69.268905 75.847996
21.070244 -68.788978 75.51696
20.579988 -68.157875 76.331501
17.764379 -70.250755 76.41243
18.88974 -69.775871 76.153122
18.367002 -69.112686 76.921844
16.644253 -70.751724 76.646221
17.16699 -71.414909 75.877499
17.764379 -70.250755 76.41243
16.679007 -68.820472 77.836917
17.816976 -68.388069 77.598438
17.254342 -67.620971 78.254204
16.104267 -70.040783 77.38028
16.679007 -68.820472 77.836917
15.541632 -69.273685 78.036045
15.506878 -71.204937 76.845349
16.644253 -70.751724 76.646221
16.104267 -70.040783 77.38028
13.260414 -72.09256 77.156044
14.384041 -71.680145 77.01326
13.843266 -70.90641 77.722191
12.700111 -73.293514 76.547779
13.260414 -72.09256 77.156044
13.275733 -67.932548 79.494777
14.384721 -67.589416 79.284301
12.745015 -69.198173 79.017822
13.275733 -67.932548 79.494777
13.284215 -70.084789 78.370098
12.745015 -69.198173 79.017822
36.169626 -44.500211 56.534008
35.624477 -44.66464 57.673794
36.169626 -44.500211 56.534008
36.102638 -45.363264 55.559852
27.481659 -67.767562 69.122734
27.282699 -67.176818 70.300194
27.717872 -68.326164 67.879048
27.481659 -67.767562 69.122734
27.003764 -68.741295 68.604298
27.908747 -68.913723 66.63041
28.386643 -67.939991 67.148846
27.717872 -68.326164 67.879048
28.412361 -70.089161 64.096542
28.816061 -69.133206 64.648049
28.173817 -69.483506 65.348702
28.412361 -70.089161 64.096542
28.108348 -71.042621 63.543598
24.714914 -73.314289 65.082111
24.389408 -74.152526 64.219455
3 40 39 10
3 0 14 12
3 41 17 42
3 43 42 15
3 41 42 43
3 45 44 17
3 46 18 47
3 49 48 18
3 50 21 51
3 53 52 21
3 1 54 56
3 56 55 22
3 54 55 56
3 2 57 59
3 59 58 24
3 57 58 59
3 60 26 61
3 62 61 11
3 60 61 62
3 65 64 26
3 63 64 65
3 4 66 67
3 4 68 69
3 70 29 71
3 72 71 27
3 70 71 72
3 6 30 13
3 6 31 30
3 3 32 25
3 7 33 16
3 7 34 33
3 7 73 75
3 75 74 34
3 73 74 75
3 8 76 77
3 8 78 80
3 78 35 79
3 78 79 80
3 8 81 83
3 83 82 35
3 81 82 83
3 9 36 19
3 9 84 86
3 86 85 36
3 84 85 86
3 88 87 20
3 5 37 28
3 89 38 90
3 91 90 23
3 89 90 91
3 93 92 38
3 10 11 2
3 94 11 95
3 96 95 10
3 94 95 96
3 98 97 11
3 99 4 100
3 99 100 101
3 12 102 104
3 102 13 103
3 102 103 104
3 14 13 12
3 14 6 13
3 15 16 3
3 17 16 15
3 17 7 16
3 17 105 107
3 107 106 7
3 105 106 107
3 109 108 17
3 18 110 111
3 18 112 114
3 112 8 113
3 112 113 114
3 18 19 8
3 115 19 116
3 117 116 18
3 115 116 117
3 118 9 119
3 120 119 19
3 118 119 120
3 121 20 122
3 21 123 125
3 123 20 124
3 123 124 125
3 21 126 128
3 128 127 20
3 126 127 128
3 21 129 130
3 132 131 21
3 22 23 5
3 133 23 134
3 135 134 22
3 133 134 135
3 137 136 23
3 24 25 0
3 138 25 139
3 140 139 24
3 138 139 140
3 141 3 142
3 143 142 25
3 141 142 143
3 11 144 146
3 146 145 2
3 144 145 146
3 26 147 149
3 149 148 11
3 147 148 149
3 26 150 152
3 150 3 151
3 150 151 152
3 26 15 3
3 153 15 154
3 155 154 26
3 153 154 155
3 157 156 15
3 159 158 1
3 27 160 162
3 160 28 161
3 160 161 162
3 29 28 27
3 29 5 28
3 13 163 165
3 163 29 164
3 163 164 165
3 30 29 13
3 30 5 29
3 30 22 5
3 31 22 30
3 31 1 22
3 25 14 0
3 32 14 25
3 32 6 14
3 16 32 3
3 33 32 16
3 33 6 32
3 33 31 6
3 34 31 33
3 34 1 31
3 34 166 168
3 168 167 1
3 166 167 168
3 170 169 34
3 172 171 7
3 173 27 174
3 175 27 176
3 178 177 27
3 179 12 180
3 181 12 182
3 183 0 184
3 185 184 12
3 183 184 185
3 35 186 187
3 35 188 190
3 188 0 189
3 188 189 190
3 35 24 0
3 191 24 192
3 193 192 35
3 191 192 193
3 194 2 195
3 196 195 24
3 194 195 196
3 19 197 199
3 199 198 8
3 197 198 199
3 36 200 202
3 202 201 19
3 200 201 202
3 36 203 205
3 203 2 204
3 203 204 205
3 36 10 2
3 206 10 207
3 208 207 36
3 206 207 208
3 210 209 10
3 211 9 212
3 213 9 214
3 216 215 9
3 20 217 218
3 220 219 20
3 28 221 222
3 37 223 225
3 225 224 28
3 223 224 225
3 37 226 228
3 226 4 227
3 226 227 228
3 23 37 5
3 38 37 23
3 38 4 37
3 38 229 231
3 231 230 4
3 229 230 231
3 233 232 38
3 235 234 1
