ply
format ascii 1.0
element vertex 348
property float x
property float y
property float z
element face 338
property list uchar int vertex_index
end_header
-44.565247 11.4611 57.226658
-40.317791 -4.66053 64.306519
-37.317734 17.287151 61.040794
-50.896835 4.640579 52.023075
-46.682701 0.527075 58.645046
-38.841068 5.182144 61.323772
-54.847 3.23851 44.404457
-39.76709 0.000277 62.275642
-47.896828 8.063898 54.773369
-48.775925 9.545675 50.63559
-45.760605 13.489559 53.44054
-42.912666 -6.758967 62.874313
-41.052341 14.559917 59.423908
-43.000542 17.42683 56.136429
-49.187042 2.793705 55.669102
-46.065807 5.848356 57.927944
-43.582825 -1.994761 61.350338
-43.234386 3.065159 60.228954
-42.203144 8.572918 59.754978
-37.963593 10.976219 61.269012
-51.974918 6.064852 47.689659
-43.822662 19.23801 51.584927
-46.256516 9.786663 56.026409
-46.862953 10.745808 54.166664
-45.301441 12.596678 55.483734
-54.642143 6.044231 41.419456
-39.216099 15.966724 60.335453
-40.55304 17.715263 59.036922
-38.846142 19.199337 59.906338
-47.901646 -0.905598 57.544605
-49.210823 0.18136 55.973801
-48.030216 1.703678 57.223236
-47.743225 4.352827 56.870594
-46.533501 3.154596 58.270065
-41.830788 -5.624036 63.741417
-43.375687 -4.398436 62.101311
-41.943733 -3.311235 62.770561
-39.322247 2.514891 61.648499
-41.545975 1.553225 61.236565
-41.118256 4.165165 60.814346
-42.76836 5.75901 59.926296
-40.619545 6.915457 60.615829
-40.110592 9.80497 60.557072
-38.376278 8.005236 61.23901
-52.163975 3.022606 50.467167
-52.866383 3.822861 48.3386
-51.493439 5.395241 49.928669
-47.40184 12.032955 49.71862
-43.537987 18.470337 53.986019
-42.865032 21.53083 52.975338
-55.602509 4.08444 42.122238
-54.066284 5.309446 43.781258
-46.46109 -2.038544 59.050713
-38.416523 -3.856691 64.625313
-40.11665 -2.379883 63.190464
-37.969158 -1.577709 63.434891
-37.45874 0.835835 62.539513
-36.945641 3.411493 61.998108
-49.458252 6.333706 53.449085
-49.99646 7.095276 51.411762
-48.436295 8.894281 52.814922
-47.226898 11.486841 52.045952
-45.986427 14.145626 51.151413
-40.333443 -6.889347 65.489624
-38.896908 -8.201734 67.338058
-36.777073 -5.361818 66.237495
-42.832138 13.057381 58.369652
-43.748058 14.397854 56.760555
-42.176929 16.111778 57.964226
-41.603428 19.256641 57.348789
-41.120529 22.465805 56.468887
-51.33868 2.15366 52.454903
-50.35907 1.205557 54.287788
-50.138901 3.775919 53.940609
-48.716915 5.419197 55.271408
-47.113678 7.043938 56.47839
-45.372719 8.614223 57.595638
-44.934986 -3.204438 60.551201
-45.182247 -0.712069 59.997086
-41.83876 -0.931046 61.903584
-43.525822 0.48514 60.706982
-45.111732 1.855011 59.523678
-44.760685 4.509016 59.155861
-44.202911 7.257303 58.880356
-43.530361 10.105442 58.645027
-41.612358 11.508034 59.625572
-39.63599 12.826981 60.510735
-54.064476 2.382086 46.629211
-53.486557 4.576317 46.09832
-52.392204 6.685724 45.348289
-50.379143 7.724983 49.192879
-44.366276 15.489174 54.814537
-44.716835 16.31707 52.583256
-44.84705 16.898727 50.139301
-53.930173 6.98322 40.968739
-53.717727 6.66984 42.182974
-47.426609 12.232446 48.484428
-46.719398 13.316618 49.202585
-42.363525 22.616976 53.608551
-42.616408 21.034105 54.140615
-55.224755 3.661475 43.263348
-55.812562 3.044824 42.370098
-55.434807 2.62186 43.511207
-46.166657 -3.293745 59.258625
-46.903816 -2.755637 58.44306
-37.090237 -2.375614 64.107888
-38.192841 -2.7172 64.030102
-37.313919 -3.515105 64.703099
-36.237024 1.232388 62.651286
-36.530277 -0.00994 63.063534
-35.980474 2.520217 62.380583
-37.202191 2.123664 62.268811
-36.237024 1.232388 62.651286
-35.725897 3.853467 62.162233
-35.980474 2.520217 62.380583
-40.240988 -8.002616 66.041458
-40.916172 -7.401426 65.093205
-38.06397 -7.837759 67.564354
-38.205679 -8.882821 68.294971
-38.819321 -7.124179 66.659935
-38.06397 -7.837759 67.564354
-37.004053 -6.417801 67.014072
-37.759404 -5.70422 66.109654
-40.860399 20.10259 57.862409
-41.078234 18.485952 58.192855
-40.335206 19.331902 58.706476
-40.61895 21.707172 57.422459
-41.361978 20.861223 56.908838
-40.860399 20.10259 57.862409
-51.291275 0.89019 52.582982
-51.815607 1.370103 51.628237
-43.646385 -6.200285 62.004795
-43.244096 -7.403713 62.283461
-37.789261 12.527361 61.2621
-38.625459 13.452742 60.882961
-38.799791 11.9016 60.889873
-53.644134 1.94229 47.699455
-54.067884 1.232725 46.787914
-54.957554 2.145573 44.609096
-55.434807 2.62186 43.511207
-54.941919 6.417283 40.227752
-55.499046 5.484735 40.612167
-54.941919 6.417283 40.227752
-53.930173 6.98322 40.968739
-39.481757 20.073939 59.141184
-40.335206 19.331902 58.706476
-39.699591 18.4573 59.47163
-48.556235 -0.362119 56.759203
-48.983831 -1.115612 56.085133
-48.329243 -1.659091 56.870535
-52.515179 3.422734 49.402884
-53.045088 2.662678 48.55415
-52.693884 2.262551 49.618433
-48.187758 11.043036 49.003096
-48.8748 9.799397 49.46158
-48.088882 10.789315 50.177105
-48.187758 11.043036 49.003096
-47.426609 12.232446 48.484428
-42.952885 19.503858 54.645956
-43.269265 17.948583 55.061224
-42.684162 18.982105 55.721161
-43.20151 20.000584 53.480678
-42.952885 19.503858 54.645956
-42.616408 21.034105 54.140615
-56.278885 3.511864 41.250113
-55.812562 3.044824 42.370098
-55.979229 4.50484 40.963558
-56.655605 3.932264 40.091432
-56.278885 3.511864 41.250113
-55.122326 5.064336 41.770847
-55.499046 5.484735 40.612167
-55.979229 4.50484 40.963558
-53.429798 6.302447 43.363875
-53.717727 6.66984 42.182974
-54.354214 5.676839 42.600357
-37.179251 18.92783 60.771696
-36.339451 17.913775 61.263264
-47.624094 -2.189164 57.690006
-48.329243 -1.659091 56.870535
-47.181368 -1.472071 58.297659
-47.624094 -2.189164 57.690006
-46.903816 -2.755637 58.44306
-36.785486 -1.216712 63.511223
-37.090237 -2.375614 64.107888
-37.713949 -0.370937 62.987202
-36.785486 -1.216712 63.511223
-36.530277 -0.00994 63.063534
-36.713099 4.784377 61.891043
-37.660812 5.669702 61.553875
-37.893355 4.296819 61.66094
-36.713099 4.784377 61.891043
-35.725897 3.853467 62.162233
-46.011692 14.372954 49.918982
-46.719398 13.316618 49.202585
-46.694133 13.089291 50.435017
-42.575945 -7.935323 63.228603
-43.244096 -7.403713 62.283461
-42.205783 -7.336237 63.785549
-42.575945 -7.935323 63.228603
-41.664845 -6.768771 64.219101
-42.371727 -6.191502 63.307865
-42.205783 -7.336237 63.785549
-41.082116 -6.256692 64.615521
-41.664845 -6.768771 64.219101
-40.916172 -7.401426 65.093205
-38.874424 -9.285697 67.934708
-38.205679 -8.882821 68.294971
-39.522721 -8.65881 66.965675
-38.874424 -9.285697 67.934708
-39.615176 -7.54554 66.413841
-40.240988 -8.002616 66.041458
-39.522721 -8.65881 66.965675
-39.537588 -6.467985 65.735718
-39.615176 -7.54554 66.413841
-38.819321 -7.124179 66.659935
-39.529763 -5.353576 65.144165
-40.325617 -5.774938 64.898072
-39.537588 -6.467985 65.735718
-38.579128 -4.951657 65.303562
-39.367157 -4.25861 64.465916
-39.529763 -5.353576 65.144165
-37.596798 -4.609255 65.431404
-38.579128 -4.951657 65.303562
-37.759404 -5.70422 66.109654
-36.494194 -4.267669 65.509189
-37.313919 -3.515105 64.703099
-37.596798 -4.609255 65.431404
-35.995455 -6.129263 67.130268
-37.004053 -6.417801 67.014072
-35.654364 -5.073286 66.292648
-35.995455 -6.129263 67.130268
-36.494194 -4.267669 65.509189
-35.654364 -5.073286 66.292648
-41.985606 19.897011 56.327341
-42.684162 18.982105 55.721161
-42.301985 18.341735 56.742609
-41.744156 21.501593 55.88739
-41.985606 19.897011 56.327341
-41.361978 20.861223 56.908838
-41.491274 23.084463 55.355326
-41.744156 21.501593 55.88739
-37.943455 19.883923 60.204468
-38.081938 18.243244 60.473566
-37.179251 18.92783 60.771696
-38.67436 20.844148 59.522452
-37.943455 19.883923 60.204468
-39.481757 20.073939 59.141184
-38.67436 20.844148 59.522452
-40.424408 23.343792 56.930416
-40.61895 21.707172 57.422459
-40.917896 24.082933 55.885998
-40.424408 23.343792 56.930416
-41.491274 23.084463 55.355326
-40.917896 24.082933 55.885998
-52.228255 1.804576 50.634369
-52.693884 2.262551 49.618433
-51.751328 2.588133 51.461035
-52.228255 1.804576 50.634369
-51.815607 1.370103 51.628237
-49.637348 -0.597226 55.237711
-48.983831 -1.115612 56.085133
-50.211472 -0.085128 54.394705
-49.637348 -0.597226 55.237711
-49.784947 0.693458 55.130795
-50.80147 0.416138 53.499424
-50.653872 -0.874547 53.606341
-50.211472 -0.085128 54.394705
-50.848875 1.679609 53.371346
-51.291275 0.89019 52.582982
-50.80147 0.416138 53.499424
-43.877896 -5.020019 61.618294
-43.646385 -6.200285 62.004795
-43.144177 -5.578702 62.487812
-44.657545 -4.42302 60.843239
-43.877896 -5.020019 61.618294
-44.155337 -3.801437 61.326256
-45.403605 -3.876692 60.008869
-44.657545 -4.42302 60.843239
-45.698038 -2.621491 59.800957
-46.166657 -3.293745 59.258625
-45.403605 -3.876692 60.008869
-38.415514 15.022613 60.795321
-39.426045 14.396852 60.423094
-38.625459 13.452742 60.882961
-37.466331 15.682827 61.147991
-38.266917 16.626938 60.688124
-38.415514 15.022613 60.795321
-37.428417 7.081249 61.511494
-38.608673 6.59369 61.281391
-37.660812 5.669702 61.553875
-37.235636 8.535314 61.514965
-37.428417 7.081249 61.511494
-37.029294 10.020805 61.529966
-38.169936 9.490728 61.254011
-37.235636 8.535314 61.514965
-36.879599 11.546729 61.563868
-37.029294 10.020805 61.529966
-37.789261 12.527361 61.2621
-36.879599 11.546729 61.563868
-36.440765 16.2868 61.425203
-37.466331 15.682827 61.147991
-36.339451 17.913775 61.263264
-36.440765 16.2868 61.425203
-54.566292 1.717361 45.721474
-54.067884 1.232725 46.787914
-54.455738 2.810298 45.516834
-54.957554 2.145573 44.609096
-54.566292 1.717361 45.721474
-53.465429 3.102474 47.483905
-53.644134 1.94229 47.699455
-53.045088 2.662678 48.55415
-52.592758 6.990586 44.14739
-53.429798 6.302447 43.363875
-53.229244 5.997585 44.564774
-49.676409 8.88905 48.740225
-49.577534 8.635329 49.914234
-48.8748 9.799397 49.46158
-50.521137 7.993696 48.016716
-49.676409 8.88905 48.740225
-51.319025 7.163631 47.265106
-51.177031 6.894918 48.441269
-50.521137 7.993696 48.016716
-51.527668 7.474067 46.094421
-52.183561 6.375288 46.518974
-51.319025 7.163631 47.265106
-51.649088 7.720956 44.877113
-51.527668 7.474067 46.094421
-52.592758 6.990586 44.14739
-51.649088 7.720956 44.877113
-45.442003 15.749504 49.412926
-46.011692 14.372954 49.918982
-45.416739 15.522177 50.645357
-42.612705 23.087589 52.374489
-42.363525 22.616976 53.608551
-42.996178 21.887405 51.707777
-42.612705 23.087589 52.374489
-43.474992 20.740995 51.012571
-43.343847 20.38442 52.280133
-42.996178 21.887405 51.707777
-43.861818 19.498193 50.300244
-43.474992 20.740995 51.012571
-44.374012 18.328552 49.577431
-44.334856 18.068368 50.862114
-43.861818 19.498193 50.300244
-44.831162 17.089647 48.850155
-44.374012 18.328552 49.577431
-45.442003 15.749504 49.412926
-44.831162 17.089647 48.850155
3 0 24 22
3 95 94 25
3 2 28 26
3 4 31 29
3 4 33 31
3 1 36 34
3 5 39 37
3 5 41 39
3 5 43 41
3 3 46 44
3 97 96 47
3 98 49 99
3 6 100 102
3 100 50 101
3 100 101 102
3 6 51 50
3 103 52 104
3 105 55 106
3 107 106 53
3 105 106 107
3 108 56 109
3 110 57 111
3 112 111 56
3 110 111 112
3 114 113 57
3 8 60 58
3 10 61 23
3 10 62 61
3 115 63 116
3 117 64 118
3 120 119 64
3 121 65 122
3 12 68 66
3 123 69 124
3 125 124 27
3 123 124 125
3 126 70 127
3 128 127 69
3 126 127 128
3 129 71 130
3 14 72 30
3 14 73 72
3 14 74 73
3 15 75 32
3 15 76 75
3 11 131 132
3 16 77 35
3 16 78 77
3 7 79 54
3 17 80 38
3 17 81 80
3 17 82 81
3 18 83 40
3 18 84 83
3 18 85 84
3 19 86 42
3 19 133 135
3 135 134 86
3 133 134 135
3 136 87 137
3 20 88 45
3 20 89 88
3 9 90 59
3 13 91 67
3 21 92 48
3 21 93 92
3 138 6 139
3 22 23 8
3 24 23 22
3 24 10 23
3 25 140 141
3 143 142 25
3 26 27 12
3 28 27 26
3 28 144 146
3 146 145 27
3 144 145 146
3 29 147 149
3 147 30 148
3 147 148 149
3 31 30 29
3 31 14 30
3 31 32 14
3 33 32 31
3 33 15 32
3 34 35 11
3 36 35 34
3 36 16 35
3 37 38 7
3 39 38 37
3 39 17 38
3 39 40 17
3 41 40 39
3 41 18 40
3 41 42 18
3 43 42 41
3 43 19 42
3 44 150 152
3 150 45 151
3 150 151 152
3 46 45 44
3 46 20 45
3 47 153 155
3 155 154 9
3 153 154 155
3 157 156 47
3 158 48 159
3 160 159 13
3 158 159 160
3 49 161 163
3 161 48 162
3 161 162 163
3 49 21 48
3 50 164 165
3 50 166 168
3 166 167 168
3 50 169 171
3 169 25 170
3 169 170 171
3 51 25 50
3 51 172 174
3 174 173 25
3 172 173 174
3 176 175 2
3 177 29 178
3 52 179 181
3 179 29 180
3 179 180 181
3 52 4 29
3 53 54 1
3 55 54 53
3 55 7 54
3 182 55 183
3 56 184 186
3 184 55 185
3 184 185 186
3 56 7 55
3 56 37 7
3 57 37 56
3 57 5 37
3 57 187 189
3 189 188 5
3 187 188 189
3 191 190 57
3 58 59 3
3 60 59 58
3 60 9 59
3 23 60 8
3 61 60 23
3 61 9 60
3 61 47 9
3 62 47 61
3 62 192 194
3 194 193 47
3 192 193 194
3 195 11 196
3 197 11 198
3 199 34 200
3 201 200 11
3 199 200 201
3 63 202 204
3 202 34 203
3 202 203 204
3 63 1 34
3 64 205 206
3 64 207 208
3 64 209 211
3 209 63 210
3 209 210 211
3 212 63 213
3 214 213 64
3 212 213 214
3 215 1 216
3 217 216 63
3 215 216 217
3 218 53 219
3 220 219 1
3 218 219 220
3 65 221 223
3 221 53 222
3 221 222 223
3 65 224 226
3 226 225 53
3 224 225 226
3 227 65 228
3 229 65 230
3 232 231 65
3 66 67 0
3 68 67 66
3 68 13 67
3 27 68 12
3 69 68 27
3 69 13 68
3 69 233 235
3 235 234 13
3 233 234 235
3 70 236 238
3 238 237 69
3 236 237 238
3 70 239 240
3 241 28 242
3 243 242 2
3 241 242 243
3 244 28 245
3 247 246 28
3 248 70 249
3 250 70 251
3 253 252 70
3 254 44 255
3 71 256 258
3 256 44 257
3 256 257 258
3 71 3 44
3 30 259 260
3 72 261 263
3 263 262 30
3 261 262 263
3 72 264 266
3 264 265 266
3 72 267 269
3 267 71 268
3 267 268 269
3 73 71 72
3 73 3 71
3 73 58 3
3 74 58 73
3 74 8 58
3 32 74 14
3 75 74 32
3 75 8 74
3 75 22 8
3 76 22 75
3 76 0 22
3 35 270 272
3 272 271 11
3 270 271 272
3 77 273 275
3 275 274 35
3 273 274 275
3 77 276 277
3 77 278 280
3 278 52 279
3 278 279 280
3 78 52 77
3 78 4 52
3 54 36 1
3 79 36 54
3 79 16 36
3 38 79 7
3 80 79 38
3 80 16 79
3 80 78 16
3 81 78 80
3 81 4 78
3 81 33 4
3 82 33 81
3 82 15 33
3 40 82 17
3 83 82 40
3 83 15 82
3 83 76 15
3 84 76 83
3 84 0 76
3 84 66 0
3 85 66 84
3 85 12 66
3 42 85 18
3 86 85 42
3 86 12 85
3 86 26 12
3 281 26 282
3 283 282 86
3 281 282 283
3 284 2 285
3 286 285 26
3 284 285 286
3 287 43 288
3 289 288 5
3 287 288 289
3 290 43 291
3 292 19 293
3 294 293 43
3 292 293 294
3 295 19 296
3 298 297 19
3 299 2 300
3 302 301 2
3 87 303 304
3 87 305 307
3 305 6 306
3 305 306 307
3 45 308 310
3 308 87 309
3 308 309 310
3 88 87 45
3 88 6 87
3 88 51 6
3 89 51 88
3 89 311 313
3 313 312 51
3 311 312 313
3 59 46 3
3 90 46 59
3 90 20 46
3 314 90 315
3 316 315 9
3 314 315 316
3 317 90 318
3 319 20 320
3 321 320 90
3 319 320 321
3 322 89 323
3 324 323 20
3 322 323 324
3 325 89 326
3 328 327 89
3 67 24 0
3 91 24 67
3 91 10 24
3 48 91 13
3 92 91 48
3 92 10 91
3 92 62 10
3 93 62 92
3 93 329 331
3 331 330 62
3 329 330 331
3 332 49 333
3 334 49 335
3 336 21 337
3 338 337 49
3 336 337 338
3 339 21 340
3 341 93 342
3 343 342 21
3 341 342 343
3 344 93 345
3 347 346 93
