ply
format ascii 1.0
element vertex 265
property float x
property float y
property float z
element face 251
property list uchar int vertex_index
end_header
-4.440439 -8.152911 39.76226
-5.569643 -22.317596 33.733498
-3.417261 -25.581194 40.935364
-3.710997 -39.185684 33.964436
-3.96501 -16.950161 40.509941
-5.878328 -29.899151 30.21048
-4.622152 -31.013332 34.01767
-4.683107 -38.297821 30.175673
-3.570173 -46.063583 29.821758
-4.461882 -45.303413 25.872234
-5.105898 -14.96637 36.88739
-6.477571 -13.383007 32.96701
-4.411882 -23.799725 37.438225
-3.700369 -32.270897 37.673256
-2.885695 -40.126194 37.686981
-2.776777 -46.66972 33.712372
-4.212526 -12.553713 40.189331
-5.942102 -33.65918 28.277409
-5.276674 -34.166733 30.24551
-5.28026 -37.833603 28.22789
-4.625612 -41.857262 28.078327
-5.182173 -41.401054 26.089001
-4.93709 -44.82959 23.845459
-5.729525 -40.888397 24.043921
-6.134058 -9.658585 34.445854
-6.877771 -8.922199 32.35022
-3.102934 -29.737568 41.073292
-5.356531 -18.591404 35.350121
-4.761045 -19.408924 37.211174
-4.946348 -23.022404 35.611694
-4.162298 -35.17878 34.025295
-4.132254 -31.618135 35.858734
-3.72658 -35.713852 35.874298
-3.315752 -36.286182 37.703545
-3.305017 -39.642006 35.834038
-2.847666 -43.390694 35.752083
-3.255217 -43.018089 33.852608
-3.399645 -49.38266 27.61327
-3.043707 -49.676773 29.603598
-3.36133 -18.074545 42.197952
-3.700991 -21.305866 40.751724
-5.093611 -26.714981 33.925953
-5.206804 -30.444969 32.141624
-4.67375 -34.668175 32.154285
-4.158987 -38.743027 32.081696
-3.66271 -42.64967 31.944872
-4.113272 -42.268379 30.024647
-3.997339 -45.710648 27.860214
-4.769358 -47.491508 19.45365
-5.071104 -7.054069 37.849628
-4.806364 -11.477987 38.355461
-5.438013 -10.51084 36.442505
-5.756994 -14.124174 34.969479
-6.036413 -17.86025 33.421009
-7.22402 -12.739287 30.860012
-6.77392 -17.20965 31.403709
-6.275862 -21.67725 31.785542
-6.464899 -25.527924 30.050074
-6.583109 -29.362762 28.201878
-4.523222 -15.910081 38.734341
-4.229055 -20.315002 39.013973
-3.925852 -24.653433 39.217365
-4.536974 -27.377193 35.77557
-4.060537 -28.099115 37.587822
-3.607798 -28.886158 39.360458
-3.260542 -32.978535 39.452473
-2.863733 -36.90448 39.498852
-3.173906 -46.377548 31.769855
-4.326483 -10.353312 39.975796
-4.010521 -10.956209 40.886438
-4.124477 -8.755809 40.672903
-5.593117 -37.584848 27.223779
-5.611181 -35.746392 28.252649
-5.924038 -35.497637 27.248539
-5.544073 -39.368574 26.154335
-5.231217 -39.617328 27.158445
-5.593117 -37.584848 27.223779
-5.817749 -39.112246 25.131795
-5.455849 -41.144725 25.066461
-5.544073 -39.368574 26.154335
-7.051165 -6.714224 31.951641
-6.675831 -7.074213 33.05331
-3.113187 -26.077557 41.749584
-3.258812 -23.976011 41.668518
-3.260097 -27.659381 41.004328
-2.956024 -28.155744 41.818549
-3.113187 -26.077557 41.749584
-3.110512 -51.125696 27.499174
-3.248434 -50.97279 26.484089
-3.66317 -17.512353 41.353946
-3.479456 -15.899669 42.066084
-3.781296 -15.337477 41.222078
-5.542566 -30.17206 31.176052
-5.476854 -28.273731 32.083293
-5.812616 -28.000822 31.117722
-4.113876 -47.165228 25.741475
-3.881605 -47.368845 26.735465
-4.22961 -45.50703 26.866224
-4.301208 -46.95066 24.729256
-4.113876 -47.165228 25.741475
-4.715 -46.458296 22.689447
-5.151951 -44.555767 22.809919
-5.068085 -45.886726 20.614015
-4.631134 -47.789255 20.493543
-5.591875 -8.2935 36.146375
-5.254558 -8.782455 37.146067
-5.408421 -6.565114 36.849937
-7.572973 -12.464446 29.745829
-7.418966 -10.519655 30.498862
-6.893234 -19.150951 30.574428
-7.138046 -16.921535 30.340641
-6.644205 -21.384751 30.765345
-6.524891 -19.44345 31.594625
-6.893234 -19.150951 30.574428
-6.738723 -23.310088 29.897611
-6.37038 -23.602587 30.917808
-6.644205 -21.384751 30.765345
-6.909407 -29.095008 27.151312
-6.879024 -27.171996 28.091177
-6.592256 -31.248128 27.216929
-6.909407 -29.095008 27.151312
-2.641491 -40.387738 38.596348
-2.63051 -38.776881 39.502283
-2.874714 -38.515337 38.592917
-2.638577 -41.954864 37.661207
-2.641491 -40.387738 38.596348
-2.557462 -46.814034 34.680394
-2.592907 -45.17452 35.700249
-2.812221 -45.030207 34.732228
-2.518999 -48.406324 33.642857
-2.557462 -46.814034 34.680394
-2.859573 -49.80055 30.596546
-2.779896 -51.392219 29.508645
-3.905054 -13.139253 41.061774
-4.010521 -10.956209 40.886438
-4.088768 -14.751937 40.349636
-3.781296 -15.337477 41.222078
-3.905054 -13.139253 41.061774
-5.548169 -42.585171 22.909151
-5.151951 -44.555767 22.809919
-5.333308 -42.858993 23.94469
-6.303974 -7.442406 34.101127
-5.939897 -7.867373 35.14805
-6.505914 -9.290392 33.398037
-6.303974 -7.442406 34.101127
-6.675831 -7.074213 33.05331
-2.789286 -30.191935 41.883757
-2.956024 -28.155744 41.818549
-2.921793 -31.739918 41.122347
-2.789286 -30.191935 41.883757
-2.932543 -51.272752 28.494338
-3.221676 -49.529716 28.608434
-3.110512 -51.125696 27.499174
-2.779896 -51.392219 29.508645
-2.932543 -51.272752 28.494338
-3.12707 -16.522856 42.883423
-3.479456 -15.899669 42.066084
-3.001457 -18.669609 42.985016
-3.12707 -16.522856 42.883423
-3.230847 -20.222686 42.299812
-3.001457 -18.669609 42.985016
-3.400677 -21.838347 41.576698
-3.230847 -20.222686 42.299812
-3.531161 -19.690206 41.474838
-3.559126 -23.44353 40.843544
-3.258812 -23.976011 41.668518
-3.400677 -21.838347 41.576698
-5.420257 -26.408737 32.975458
-5.331627 -24.516289 33.829725
-5.658273 -24.210045 32.87923
-5.150208 -28.579975 33.033788
-5.420257 -26.408737 32.975458
-5.476854 -28.273731 32.083293
-3.582758 -49.204851 26.611993
-3.698492 -47.546654 27.736742
-3.881605 -47.368845 26.735465
-3.248434 -50.97279 26.484089
-3.582758 -49.204851 26.611993
-4.538813 -46.713749 23.715868
-4.301208 -46.95066 24.729256
-4.699486 -45.066502 24.858846
-4.538813 -46.713749 23.715868
-4.715 -46.458296 22.689447
-4.282151 -49.320845 19.329874
-4.631134 -47.789255 20.493543
-4.32976 -48.996655 18.295741
-4.282151 -49.320845 19.329874
-5.786035 -10.084713 35.444179
-5.591875 -8.2935 36.146375
-5.939897 -7.867373 35.14805
-7.245842 -8.611111 31.243966
-7.051165 -6.714224 31.951641
-7.050896 -10.830743 31.605116
-7.245842 -8.611111 31.243966
-7.418966 -10.519655 30.498862
-7.363096 -14.686354 30.068793
-7.572973 -12.464446 29.745829
-6.99897 -14.974469 31.131861
-7.363096 -14.686354 30.068793
-7.138046 -16.921535 30.340641
-6.011383 -23.889871 31.905252
-5.658273 -24.210045 32.87923
-5.922752 -21.997423 32.75952
-6.105901 -25.815208 31.037518
-6.011383 -23.889871 31.905252
-6.37038 -23.602587 30.917808
-6.171613 -27.713538 30.130277
-5.812616 -28.000822 31.117722
-6.105901 -25.815208 31.037518
-6.81992 -25.254577 29.015275
-6.738723 -23.310088 29.897611
-6.524004 -27.445343 29.125976
-6.81992 -25.254577 29.015275
-6.879024 -27.171996 28.091177
-6.271753 -33.396338 27.254694
-6.262606 -31.510971 28.239643
-6.592256 -31.248128 27.216929
-5.924038 -35.497637 27.248539
-6.271753 -33.396338 27.254694
-4.21484 -6.580113 40.437912
-4.124477 -8.755809 40.672903
-4.541093 -5.965283 39.480106
-4.21484 -6.580113 40.437912
-4.856426 -5.415862 38.52379
-4.755771 -7.60349 38.805944
-4.541093 -5.965283 39.480106
-5.189247 -4.860296 37.519215
-4.856426 -5.415862 38.52379
-5.408421 -6.565114 36.849937
-5.189247 -4.860296 37.519215
-3.000597 -33.360402 40.311937
-2.921793 -31.739918 41.122347
-3.181738 -31.358052 40.262883
-2.802192 -35.323374 40.335127
-3.000597 -33.360402 40.311937
-3.062137 -34.941508 39.475662
-2.587463 -37.238523 40.365934
-2.802192 -35.323374 40.335127
-2.587463 -37.238523 40.365934
-2.63051 -38.776881 39.502283
-2.619562 -43.587114 36.693758
-2.638577 -41.954864 37.661207
-2.866681 -41.758444 36.719532
-2.619562 -43.587114 36.693758
-2.592907 -45.17452 35.700249
-2.924673 -48.150938 31.679674
-3.108807 -48.02716 30.686726
-2.859573 -49.80055 30.596546
-2.726109 -48.297024 32.650933
-2.975341 -46.523634 32.741113
-2.924673 -48.150938 31.679674
-2.518999 -48.406324 33.642857
-2.726109 -48.297024 32.650933
-6.106762 -38.842388 24.092103
-5.817749 -39.112246 25.131795
-5.96007 -40.601595 22.992372
-6.106762 -38.842388 24.092103
-5.548169 -42.585171 22.909151
-5.96007 -40.601595 22.992372
-5.224053 -45.576197 19.55921
-5.068085 -45.886726 20.614015
-4.837859 -47.153923 18.406375
-5.224053 -45.576197 19.55921
-4.32976 -48.996655 18.295741
-4.837859 -47.153923 18.406375
3 0 68 70
3 68 16 69
3 68 69 70
3 71 19 72
3 73 72 17
3 71 72 73
3 74 21 75
3 76 75 19
3 74 75 76
3 77 23 78
3 79 78 21
3 77 78 79
3 80 25 81
3 2 82 83
3 2 84 86
3 84 26 85
3 84 85 86
3 1 29 27
3 3 32 30
3 3 34 32
3 3 36 34
3 88 87 37
3 4 89 91
3 89 39 90
3 89 90 91
3 4 40 39
3 5 92 94
3 92 42 93
3 92 93 94
3 7 43 18
3 7 44 43
3 7 46 44
3 9 47 20
3 9 95 97
3 97 96 47
3 95 96 97
3 9 98 99
3 101 100 22
3 102 48 103
3 104 51 105
3 106 105 49
3 104 105 106
3 11 52 24
3 11 53 52
3 107 54 108
3 109 55 110
3 111 56 112
3 113 112 55
3 111 112 113
3 114 57 115
3 116 115 56
3 114 115 116
3 117 58 118
3 120 119 58
3 10 59 50
3 12 60 28
3 12 61 60
3 6 62 41
3 13 63 31
3 13 64 63
3 13 65 64
3 14 66 33
3 14 121 123
3 123 122 66
3 121 122 123
3 14 124 125
3 15 126 128
3 128 127 35
3 126 127 128
3 15 129 130
3 8 67 45
3 132 131 38
3 16 133 134
3 16 135 137
3 135 4 136
3 135 136 137
3 17 18 5
3 19 18 17
3 19 7 18
3 19 20 7
3 21 20 19
3 21 9 20
3 21 22 9
3 23 22 21
3 23 138 140
3 140 139 22
3 138 139 140
3 141 24 142
3 25 143 145
3 143 24 144
3 143 144 145
3 25 11 24
3 26 146 147
3 26 148 149
3 27 28 10
3 29 28 27
3 29 12 28
3 30 31 6
3 32 31 30
3 32 13 31
3 32 33 13
3 34 33 32
3 34 14 33
3 34 35 14
3 36 35 34
3 36 15 35
3 37 38 8
3 150 38 151
3 152 151 37
3 150 151 152
3 154 153 38
3 39 155 156
3 39 157 158
3 39 159 160
3 40 161 163
3 163 162 39
3 161 162 163
3 40 164 166
3 164 2 165
3 164 165 166
3 167 41 168
3 169 168 1
3 167 168 169
3 42 170 172
3 170 41 171
3 170 171 172
3 42 6 41
3 18 42 5
3 43 42 18
3 43 6 42
3 43 30 6
3 44 30 43
3 44 3 30
3 44 45 3
3 46 45 44
3 46 8 45
3 20 46 7
3 47 46 20
3 47 8 46
3 47 37 8
3 173 37 174
3 175 174 47
3 173 174 175
3 177 176 37
3 22 178 180
3 180 179 9
3 178 179 180
3 182 181 22
3 48 183 184
3 48 185 186
3 49 50 0
3 51 50 49
3 51 10 50
3 24 187 189
3 187 51 188
3 187 188 189
3 52 51 24
3 52 10 51
3 52 27 10
3 53 27 52
3 53 1 27
3 190 25 191
3 54 192 194
3 192 25 193
3 192 193 194
3 54 11 25
3 195 54 196
3 55 197 199
3 197 54 198
3 197 198 199
3 55 11 54
3 55 53 11
3 56 53 55
3 56 1 53
3 56 200 202
3 202 201 1
3 200 201 202
3 57 203 205
3 205 204 56
3 203 204 205
3 57 206 208
3 206 5 207
3 206 207 208
3 209 57 210
3 58 211 213
3 211 57 212
3 211 212 213
3 58 5 57
3 58 17 5
3 214 17 215
3 216 215 58
3 214 215 216
3 218 217 17
3 219 0 220
3 221 0 222
3 223 49 224
3 225 224 0
3 223 224 225
3 226 49 227
3 229 228 49
3 50 16 0
3 59 16 50
3 59 4 16
3 28 59 10
3 60 59 28
3 60 4 59
3 60 40 4
3 61 40 60
3 61 2 40
3 41 29 1
3 62 29 41
3 62 12 29
3 31 62 6
3 63 62 31
3 63 12 62
3 63 61 12
3 64 61 63
3 64 2 61
3 64 26 2
3 65 26 64
3 65 230 232
3 232 231 26
3 230 231 232
3 33 65 13
3 66 65 33
3 66 233 235
3 235 234 65
3 233 234 235
3 66 236 237
3 239 238 66
3 35 240 242
3 242 241 14
3 240 241 242
3 244 243 35
3 45 36 3
3 67 36 45
3 67 15 36
3 38 67 8
3 245 67 246
3 247 246 38
3 245 246 247
3 248 15 249
3 250 249 67
3 248 249 250
3 252 251 15
3 253 23 254
3 255 23 256
3 258 257 23
3 259 48 260
3 261 48 262
3 264 263 48
