ply
format ascii 1.0
element vertex 131
property float x
property float y
property float z
element face 95
property list uchar int vertex_index
end_header
-56.355949 4.92524 39.804878
-61.122734 8.911848 25.423489
-63.099842 7.521135 23.887291
-62.345879 7.212988 26.337851
-59.725372 5.499104 33.492615
-58.804241 4.707403 35.812538
-60.376976 10.769001 21.882847
-61.056221 10.933184 19.341724
-57.880322 3.845922 38.107449
-63.748367 7.703327 21.424133
-61.845367 9.204687 22.922974
-61.51527 6.770082 28.758455
-60.634434 6.19426 31.142937
-57.12352 5.754417 37.466072
-62.792094 6.290306 26.748474
-63.208126 6.45244 25.555681
-59.010183 3.714523 36.08851
-59.543037 4.134471 34.963077
-59.591034 11.520601 21.339362
-59.182259 11.38363 22.612206
-64.262787 6.794028 21.898105
-64.537803 6.834661 20.703592
-60.377819 9.699905 24.919447
-60.739136 9.846325 23.66919
-61.484051 9.058267 24.173231
-60.976763 5.244722 31.487112
-61.473221 5.547897 30.328216
-59.222383 6.396665 33.113378
-58.818698 6.026136 34.301388
-61.346607 10.955678 18.087063
-60.313584 11.682855 18.791609
-60.929716 7.631195 28.326741
-60.525472 7.359313 29.544844
-63.585108 6.606514 24.330401
-63.938524 6.702932 23.129683
-62.72286 7.367062 25.112571
-63.585108 6.606514 24.330401
-63.208126 6.45244 25.555681
-60.003603 4.530321 33.803116
-60.522232 4.897144 32.661951
-59.264806 5.103254 34.652577
-60.003603 4.530321 33.803116
-59.543037 4.134471 34.963077
-58.358133 5.630285 35.461349
-58.818698 6.026136 34.301388
-59.264806 5.103254 34.652577
-55.798822 5.857787 39.420463
-55.499046 5.484735 40.612167
-60.716599 10.851093 20.612285
-61.770003 10.154816 19.877102
-61.43038 10.072724 21.147663
-59.930656 11.602693 20.0688
-60.716599 10.851093 20.612285
-59.591034 11.520601 21.339362
-60.313584 11.682855 18.791609
-59.930656 11.602693 20.0688
-58.005639 2.822869 38.34721
-58.548223 3.283782 37.235966
-57.417791 3.392606 39.242718
-58.005639 2.822869 38.34721
-56.655605 3.932264 40.091432
-57.118136 4.385581 38.956164
-57.417791 3.392606 39.242718
-55.979229 4.50484 40.963558
-56.655605 3.932264 40.091432
-55.499046 5.484735 40.612167
-55.979229 4.50484 40.963558
-64.005539 7.738907 20.20239
-64.537803 6.834661 20.703592
-63.116076 8.539887 20.918306
-64.005539 7.738907 20.20239
-63.424104 7.612231 22.655712
-64.262787 6.794028 21.898105
-63.938524 6.702932 23.129683
-62.164575 9.290567 21.667727
-63.116076 8.539887 20.918306
-62.796867 8.454007 22.173554
-61.111171 9.986844 22.402911
-61.43038 10.072724 21.147663
-62.164575 9.290567 21.667727
-60.00494 10.628482 23.149126
-61.111171 9.986844 22.402911
-60.739136 9.846325 23.66919
-59.182259 11.38363 22.612206
-60.00494 10.628482 23.149126
-61.913639 5.835807 29.135976
-62.376789 6.068853 27.958776
-61.074852 6.482171 29.950696
-61.913639 5.835807 29.135976
-61.473221 5.547897 30.328216
-60.085054 7.071402 30.737085
-60.525472 7.359313 29.544844
-61.074852 6.482171 29.950696
-60.179903 5.846682 32.317776
-60.976763 5.244722 31.487112
-60.522232 4.897144 32.661951
-59.676914 6.744243 31.938539
-60.179903 5.846682 32.317776
-59.222383 6.396665 33.113378
-60.085054 7.071402 30.737085
-59.676914 6.744243 31.938539
-58.342281 4.276663 36.959994
-59.010183 3.714523 36.08851
-58.548223 3.283782 37.235966
-57.517772 6.153792 36.288117
-58.358133 5.630285 35.461349
-57.963881 5.23091 36.639305
-56.182608 6.272376 38.25106
-56.739734 5.339828 38.635475
-55.798822 5.857787 39.420463
-56.502789 6.647858 37.054505
-56.182608 6.272376 38.25106
-57.517772 6.153792 36.288117
-56.502789 6.647858 37.054505
-62.032665 10.183782 18.63505
-61.770003 10.154816 19.877102
-62.032665 10.183782 18.63505
-61.346607 10.955678 18.087063
-61.930574 6.991535 27.548153
-62.792094 6.290306 26.748474
-62.376789 6.068853 27.958776
-61.34502 7.852648 27.116439
-61.930574 6.991535 27.548153
-60.929716 7.631195 28.326741
-60.733448 8.702078 26.659258
-61.734307 8.062418 25.88067
-61.34502 7.852648 27.116439
-59.988834 9.500612 26.171338
-60.733448 8.702078 26.659258
-60.377819 9.699905 24.919447
-59.988834 9.500612 26.171338
3 14 3 15
3 16 5 17
3 19 18 6
3 20 9 21
3 1 10 2
3 1 22 24
3 24 23 10
3 22 23 24
3 25 12 26
3 28 27 4
3 0 13 8
3 30 29 7
3 32 31 11
3 33 2 34
3 3 35 37
3 35 2 36
3 35 36 37
3 3 1 2
3 38 4 39
3 5 40 42
3 40 4 41
3 40 41 42
3 5 43 45
3 45 44 4
3 43 44 45
3 47 46 0
3 6 48 50
3 48 7 49
3 48 49 50
3 51 7 52
3 53 52 6
3 51 52 53
3 55 54 7
3 56 8 57
3 58 8 59
3 60 0 61
3 62 61 8
3 60 61 62
3 63 0 64
3 66 65 0
3 9 67 68
3 9 69 70
3 2 71 73
3 71 9 72
3 71 72 73
3 10 9 2
3 10 74 76
3 76 75 9
3 74 75 76
3 10 77 79
3 77 6 78
3 77 78 79
3 80 6 81
3 82 81 10
3 80 81 82
3 84 83 6
3 85 11 86
3 12 87 89
3 87 11 88
3 87 88 89
3 12 90 92
3 92 91 11
3 90 91 92
3 4 93 95
3 93 12 94
3 93 94 95
3 96 12 97
3 98 97 4
3 96 97 98
3 100 99 12
3 8 101 103
3 101 5 102
3 101 102 103
3 13 5 8
3 13 104 106
3 106 105 5
3 104 105 106
3 107 13 108
3 109 108 0
3 107 108 109
3 110 13 111
3 113 112 13
3 7 114 115
3 117 116 7
3 11 118 120
3 118 3 119
3 118 119 120
3 121 3 122
3 123 122 11
3 121 122 123
3 124 1 125
3 126 125 3
3 124 125 126
3 127 1 128
3 130 129 1
