ply
format ascii 1.0
element vertex 356
property float x
property float y
property float z
element face 342
property list uchar int vertex_index
end_header
-21.744354 68.285019 27.943163
-24.534115 48.004314 44.954773
-25.331202 72.247284 18.817657
-31.356678 52.763752 38.396225
-22.639645 59.493732 36.346397
-19.703953 72.649857 25.604919
-19.066563 69.044998 30.794716
-23.315058 70.143051 23.836004
-21.004274 75.286636 19.966938
-27.465372 67.245529 23.512409
-32.439713 47.787487 43.128723
-27.790401 50.532063 41.825935
-26.769913 55.729771 37.244133
-23.408756 53.989567 40.704948
-20.36413 52.171185 44.212738
-22.57547 77.194748 14.146252
-29.976942 69.368607 18.880859
-36.869461 45.047024 43.954002
-35.962631 50.007061 39.331505
-25.863949 60.637424 32.515602
-22.105007 64.434341 31.834614
-19.070847 64.235077 35.652496
-20.853355 70.205612 26.92576
-19.284784 71.001465 28.251692
-20.548176 68.630341 29.174171
-22.425907 69.118286 26.122498
-21.469631 71.489746 24.51614
-23.079737 66.942795 27.872478
-24.174849 67.719162 25.798626
-28.392807 47.789616 44.090096
-26.114897 49.298977 43.399956
-25.546442 52.136005 41.207672
-23.922943 51.05077 42.826218
-21.839722 53.089283 42.419048
-22.396402 49.935131 44.479736
-26.364517 73.197617 16.239447
-24.953835 75.568558 13.754816
-24.034365 74.742371 16.492809
-18.943928 76.709625 21.035124
-19.578789 77.893356 17.939466
-17.421532 79.32486 19.116306
-26.472084 69.740295 21.146454
-28.749203 68.319687 21.215023
-27.626791 70.775192 18.719967
-28.744905 71.731125 16.264519
-31.884945 50.312916 40.779343
-34.204048 48.968739 41.300655
-33.695229 51.402409 38.926682
-35.482697 52.404583 36.947361
-33.180939 53.790646 36.500114
-24.632099 57.488674 36.750088
-26.315517 58.211079 34.892265
-24.248632 60.013645 34.458241
-23.882959 62.441822 32.156773
-22.350763 62.044567 34.09127
-20.618031 64.303238 33.725929
-20.794317 61.750652 36.003693
-17.681862 61.159443 39.919113
-18.383429 75.28775 24.086143
-17.935154 73.612503 27.050503
-17.626793 71.659119 29.900364
-17.460646 69.415482 32.622963
-24.301916 71.210968 21.365644
-23.123926 73.771088 19.225431
-22.252705 72.678162 21.9203
-20.297348 74.060989 22.833214
-26.1567 66.23053 25.754986
-25.310226 68.692993 23.52409
-30.716278 46.445164 44.811722
-30.105677 49.11208 42.495102
-29.546146 51.684811 40.169704
-29.026934 54.1777 37.811058
-27.253965 53.175716 39.552551
-25.057308 54.865147 38.999435
-22.986153 56.806164 38.552826
-21.048853 59.016285 38.212349
-21.392805 56.123486 40.343426
-23.387682 77.871048 11.254923
-20.951624 79.569672 11.767026
-21.775095 76.333038 17.058012
-20.255013 78.844376 14.840137
-18.568092 81.24852 12.568107
-31.125147 70.321335 16.507805
-34.722916 46.462223 43.638969
-36.420383 47.564297 41.662331
-37.651146 50.931126 37.245193
-25.386045 63.020535 30.162306
-23.508905 64.759369 29.920403
-21.897568 66.591904 29.688126
-20.522825 66.627243 31.424725
-19.010986 66.773468 33.264668
-17.420666 66.897095 35.206757
-19.230293 61.476147 37.93325
-25.324506 48.651646 44.177365
-26.440251 47.830349 44.505314
-25.64986 47.183018 45.282723
-17.163771 78.639595 20.755695
-18.18273 78.017243 20.075715
-17.924969 77.331977 21.715104
-16.351654 79.926949 19.833696
-17.163771 78.639595 20.755695
-31.09653 53.964557 37.179398
-32.008661 54.478004 36.231342
-32.268808 53.277199 37.44817
-25.500427 65.799729 26.828855
-26.511437 65.020193 26.921171
-29.888647 45.69727 45.59277
-31.045505 45.061839 45.976189
-20.116166 53.794556 43.19709
-20.853962 54.253605 42.300245
-21.101926 52.630234 43.315893
-19.396505 53.428726 44.170758
-20.116166 53.794556 43.19709
-19.118973 79.632378 15.33465
-19.916901 78.368866 16.389802
-18.780861 79.156868 16.884314
-18.275512 80.83445 14.198635
-19.411552 80.046448 13.704122
-19.118973 79.632378 15.33465
-17.399816 82.019722 13.106367
-18.275512 80.83445 14.198635
-28.603133 66.548485 23.626995
-27.894763 66.011238 24.726185
-30.530045 68.159279 20.192903
-29.916176 67.634819 21.359986
-29.363073 68.844147 20.047941
-31.148345 68.67936 19.05357
-30.530045 68.159279 20.192903
-30.551044 69.844971 17.694332
-31.722447 69.155723 17.867044
-31.148345 68.67936 19.05357
-29.278091 72.145111 15.022334
-28.061886 72.876969 14.956177
-37.825638 44.258207 43.990959
-37.092526 43.738366 45.083576
-37.653168 45.536476 42.884438
-38.609345 44.747659 42.921394
-37.825638 44.258207 43.990959
-33.581314 47.124855 43.383846
-33.87579 45.815506 44.551986
-32.734189 46.478138 44.296864
-37.013662 49.255054 39.444252
-37.242538 48.033673 40.609665
-36.191507 48.785679 40.496918
-36.806888 50.469093 38.288349
-37.857919 49.717087 38.401096
-37.013662 49.255054 39.444252
-36.330578 52.872544 35.906906
-35.221922 53.595543 35.72229
-27.648366 56.171436 36.324756
-28.776877 55.395401 36.608219
-27.898423 54.953736 37.527596
-26.941515 59.827007 32.737611
-27.167299 58.613834 33.925943
-26.089733 59.424251 33.703934
-26.669685 61.023846 31.51
-26.941515 59.827007 32.737611
-25.624997 61.82898 31.338954
-26.430732 62.215401 30.333352
-26.669685 61.023846 31.51
-19.36146 60.002418 39.017738
-20.139573 60.246216 38.0728
-20.27074 58.772487 39.157288
-17.588105 62.64712 38.77905
-16.801078 62.550766 39.812883
-23.627293 67.330979 26.835552
-24.509501 66.544044 26.850676
-23.961945 66.155861 27.887602
-27.579206 47.075669 44.850384
-28.726911 46.369495 45.231957
-27.253852 48.544297 43.745026
-27.579206 47.075669 44.850384
-26.440251 47.830349 44.505314
-25.659176 74.383087 14.997131
-26.166352 74.795685 13.701326
-26.871693 73.610214 14.943641
-17.702233 79.87262 17.472735
-18.780861 79.156868 16.884314
-18.50016 78.609108 18.527886
-16.582891 80.567521 18.10191
-17.702233 79.87262 17.472735
-16.582891 80.567521 18.10191
-16.351654 79.926949 19.833696
-26.871693 73.610214 14.943641
-28.061886 72.876969 14.956177
-27.554711 72.464371 16.251983
-36.063423 44.453626 44.955032
-37.092526 43.738366 45.083576
-34.071043 54.288575 35.498666
-35.221922 53.595543 35.72229
-34.331818 53.097615 36.723737
-32.90989 54.976658 35.256008
-34.071043 54.288575 35.498666
-32.90989 54.976658 35.256008
-32.008661 54.478004 36.231342
-17.836467 59.579555 40.993848
-18.587244 59.844066 40.01067
-16.928393 60.962108 40.959156
-17.836467 59.579555 40.993848
-16.801078 62.550766 39.812883
-16.928393 60.962108 40.959156
-17.423993 75.79625 24.854482
-17.64472 76.62104 23.240614
-17.199855 74.958626 26.336662
-17.423993 75.79625 24.854482
-18.159292 74.450127 25.568323
-17.028949 73.99221 27.903009
-17.199855 74.958626 26.336662
-16.874769 73.015518 29.32794
-17.028949 73.99221 27.903009
-17.780974 72.635811 28.475434
-16.761127 71.907128 30.827579
-16.874769 73.015518 29.32794
-16.678054 70.785309 32.188879
-16.761127 71.907128 30.827579
-17.54372 70.537301 31.261663
-16.623269 69.539612 33.606751
-16.678054 70.785309 32.188879
-17.64472 76.62104 23.240614
-17.924969 77.331977 21.715104
-18.663678 75.998688 22.560634
-27.240427 65.503738 25.847473
-26.511437 65.020193 26.921171
-26.811036 66.73803 24.633698
-27.894763 66.011238 24.726185
-27.240427 65.503738 25.847473
-25.165774 66.974846 25.776806
-25.500427 65.799729 26.828855
-24.509501 66.544044 26.850676
-31.872471 45.806976 45.138363
-31.045505 45.061839 45.976189
-31.577996 47.116326 43.970223
-32.734189 46.478138 44.296864
-31.872471 45.806976 45.138363
-29.554543 47.11739 44.450909
-29.888647 45.69727 45.59277
-28.726911 46.369495 45.231957
-20.442715 57.326088 40.222826
-20.27074 58.772487 39.157288
-21.220829 57.569885 39.277888
-20.630503 55.770707 41.262434
-21.616263 54.606385 41.381237
-20.853962 54.253605 42.300245
-20.442715 57.326088 40.222826
-20.630503 55.770707 41.262434
-25.41191 75.902908 12.389834
-26.166352 74.795685 13.701326
-24.628833 77.054153 11.139888
-25.41191 75.902908 12.389834
-24.170759 76.719803 12.504869
-23.799394 78.12104 9.825608
-24.628833 77.054153 11.139888
-22.525449 78.977944 9.997031
-23.799394 78.12104 9.825608
-21.30742 79.827256 10.253082
-22.525449 78.977944 9.997031
-22.169653 78.72036 11.510974
-20.059415 80.69767 10.562282
-21.30742 79.827256 10.253082
-18.867649 81.537094 10.962822
-20.059415 80.69767 10.562282
-19.759858 80.409096 12.167566
-17.648943 82.365623 11.409624
-18.867649 81.537094 10.962822
-17.648943 82.365623 11.409624
-17.399816 82.019722 13.106367
-29.245049 67.085564 22.478302
-28.603133 66.548485 23.626995
-28.107287 67.782608 22.363716
-29.245049 67.085564 22.478302
-29.916176 67.634819 21.359986
-32.280139 69.61142 16.699233
-31.722447 69.155723 17.867044
-31.656592 70.723107 15.296098
-32.280139 69.61142 16.699233
-30.468212 71.440216 15.143977
-29.935026 71.02623 16.386162
-29.278091 72.145111 15.022334
-31.656592 70.723107 15.296098
-30.468212 71.440216 15.143977
-24.88329 46.439128 46.040798
-25.64986 47.183018 45.282723
-23.795137 47.347591 45.761826
-24.88329 46.439128 46.040798
-34.99015 45.161226 44.797516
-34.143024 44.514509 45.710533
-33.87579 45.815506 44.551986
-35.796188 45.754624 43.796486
-36.063423 44.453626 44.955032
-34.99015 45.161226 44.797516
-37.428629 46.795113 41.738602
-37.653168 45.536476 42.884438
-36.644922 46.305661 42.808166
-37.428629 46.795113 41.738602
-37.242538 48.033673 40.609665
-38.619022 50.121643 37.300884
-37.857919 49.717087 38.401096
-38.42363 51.347302 36.159124
-39.391507 50.537819 36.214815
-38.619022 50.121643 37.300884
-37.414802 52.135815 36.055822
-36.566921 51.667855 37.096277
-36.330578 52.872544 35.906906
-38.42363 51.347302 36.159124
-37.414802 52.135815 36.055822
-29.931658 54.671532 36.886814
-31.09653 53.964557 37.179398
-30.191806 53.470726 38.103642
-29.931658 54.671532 36.886814
-28.776877 55.395401 36.608219
-27.421168 57.41209 35.148823
-27.648366 56.171436 36.324756
-26.542715 56.970425 36.068199
-27.421168 57.41209 35.148823
-27.167299 58.613834 33.925943
-26.126109 63.415196 29.124831
-26.430732 62.215401 30.333352
-25.115099 64.194731 29.032516
-26.126109 63.415196 29.124831
-24.17653 65.064148 28.911564
-25.115099 64.194731 29.032516
-24.447475 63.889952 30.041355
-23.294321 65.851082 28.896441
-23.961945 66.155861 27.887602
-24.17653 65.064148 28.911564
-16.603279 68.280418 34.898648
-16.623269 69.539612 33.606751
-17.440656 68.156288 33.91486
-18.456077 61.317795 38.926181
-19.36146 60.002418 39.017738
-18.587244 59.844066 40.01067
-18.36232 62.805471 37.786119
-18.456077 61.317795 38.926181
-17.588105 62.64712 38.77905
-18.282597 64.184936 36.645742
-19.15057 62.855612 36.792873
-18.36232 62.805471 37.786119
-17.457507 65.515945 36.422872
-18.245756 65.566086 35.429626
-18.282597 64.184936 36.645742
-16.60692 66.907356 36.224707
-17.457507 65.515945 36.422872
-16.603279 68.280418 34.898648
-16.60692 66.907356 36.224707
-22.726281 48.313 45.524307
-23.465258 48.969723 44.717255
-23.795137 47.347591 45.761826
-21.686333 49.378994 45.362164
-22.726281 48.313 45.524307
-20.670198 50.497021 45.228665
-21.380266 51.053158 44.346237
-21.686333 49.378994 45.362164
-19.678591 51.713662 45.181729
-20.670198 50.497021 45.228665
-19.396505 53.428726 44.170758
-19.678591 51.713662 45.181729
3 0 24 22
3 0 22 25
3 0 25 27
3 1 93 95
3 93 30 94
3 93 94 95
3 1 32 30
3 1 34 32
3 2 37 35
3 96 40 97
3 98 97 38
3 96 97 98
3 100 99 40
3 2 43 41
3 2 35 43
3 3 47 45
3 3 49 47
3 3 101 103
3 103 102 49
3 101 102 103
3 4 52 50
3 4 54 52
3 4 56 54
3 5 59 58
3 6 60 23
3 6 61 60
3 7 64 62
3 5 65 26
3 5 58 65
3 104 66 105
3 7 67 28
3 7 62 67
3 106 68 107
3 11 69 29
3 11 70 69
3 11 72 70
3 13 73 31
3 13 74 73
3 13 76 74
3 14 108 110
3 110 109 33
3 108 109 110
3 14 111 112
3 15 77 36
3 15 78 77
3 8 79 63
3 113 80 114
3 115 114 39
3 113 114 115
3 116 81 117
3 118 117 80
3 116 117 118
3 120 119 81
3 9 121 122
3 16 123 125
3 125 124 42
3 123 124 125
3 16 126 127
3 16 128 130
3 128 82 129
3 128 129 130
3 132 131 44
3 17 133 134
3 17 135 137
3 135 136 137
3 10 138 140
3 138 83 139
3 138 139 140
3 18 84 46
3 18 141 143
3 143 142 84
3 141 142 143
3 18 144 146
3 144 85 145
3 144 145 146
3 148 147 48
3 12 149 151
3 151 150 71
3 149 150 151
3 19 152 154
3 154 153 51
3 152 153 154
3 19 155 156
3 19 157 159
3 157 86 158
3 157 158 159
3 20 87 53
3 20 88 87
3 20 89 88
3 21 90 55
3 21 91 90
3 160 92 161
3 162 161 75
3 160 161 162
3 164 163 57
3 22 23 5
3 24 23 22
3 24 6 23
3 25 26 7
3 22 26 25
3 22 5 26
3 27 165 167
3 165 28 166
3 165 166 167
3 25 28 27
3 25 7 28
3 168 29 169
3 30 170 172
3 170 29 171
3 170 171 172
3 30 11 29
3 30 31 11
3 32 31 30
3 32 13 31
3 32 33 13
3 34 33 32
3 34 14 33
3 35 173 175
3 173 36 174
3 173 174 175
3 37 36 35
3 37 15 36
3 38 39 8
3 40 39 38
3 40 176 178
3 178 177 39
3 176 177 178
3 40 179 180
3 182 181 40
3 41 42 9
3 43 42 41
3 43 16 42
3 43 44 16
3 35 44 43
3 35 183 185
3 185 184 44
3 183 184 185
3 186 17 187
3 45 46 10
3 47 46 45
3 47 18 46
3 47 48 18
3 49 48 47
3 49 188 190
3 190 189 48
3 188 189 190
3 49 191 192
3 194 193 49
3 50 51 12
3 52 51 50
3 52 19 51
3 52 53 19
3 54 53 52
3 54 20 53
3 54 55 20
3 56 55 54
3 56 21 55
3 195 57 196
3 197 57 198
3 200 199 57
3 58 201 202
3 59 203 205
3 205 204 58
3 203 204 205
3 59 206 207
3 23 59 5
3 60 59 23
3 60 208 210
3 210 209 59
3 208 209 210
3 60 211 212
3 61 213 215
3 215 214 60
3 213 214 215
3 61 216 217
3 62 63 2
3 64 63 62
3 64 8 63
3 26 64 7
3 65 64 26
3 65 8 64
3 65 38 8
3 58 38 65
3 58 218 220
3 220 219 38
3 218 219 220
3 66 221 222
3 66 223 225
3 223 9 224
3 223 224 225
3 28 226 228
3 226 66 227
3 226 227 228
3 67 66 28
3 67 9 66
3 67 41 9
3 62 41 67
3 62 2 41
3 68 229 230
3 68 231 233
3 231 10 232
3 231 232 233
3 29 234 236
3 234 68 235
3 234 235 236
3 69 68 29
3 69 10 68
3 69 45 10
3 70 45 69
3 70 3 45
3 70 71 3
3 72 71 70
3 72 12 71
3 31 72 11
3 73 72 31
3 73 12 72
3 73 50 12
3 74 50 73
3 74 4 50
3 74 75 4
3 76 75 74
3 76 237 239
3 239 238 75
3 237 238 239
3 33 76 13
3 240 76 241
3 242 241 33
3 240 241 242
3 244 243 76
3 36 245 246
3 77 247 249
3 249 248 36
3 247 248 249
3 77 250 251
3 77 252 253
3 78 254 256
3 256 255 77
3 254 255 256
3 78 257 258
3 63 37 2
3 79 37 63
3 79 15 37
3 39 79 8
3 80 79 39
3 80 15 79
3 80 78 15
3 81 78 80
3 81 259 261
3 261 260 78
3 259 260 261
3 81 262 263
3 265 264 81
3 42 266 268
3 268 267 9
3 266 267 268
3 270 269 42
3 82 271 272
3 82 273 274
3 44 82 16
3 275 82 276
3 277 276 44
3 275 276 277
3 279 278 82
3 280 1 281
3 283 282 1
3 83 284 286
3 284 285 286
3 83 287 289
3 287 17 288
3 287 288 289
3 46 83 10
3 84 83 46
3 84 17 83
3 84 290 292
3 292 291 17
3 290 291 292
3 294 293 84
3 85 295 296
3 85 297 299
3 297 298 299
3 48 85 18
3 300 85 301
3 302 301 48
3 300 301 302
3 304 303 85
3 71 305 307
3 307 306 3
3 305 306 307
3 309 308 71
3 51 310 312
3 312 311 12
3 310 311 312
3 314 313 51
3 86 315 316
3 86 317 318
3 53 86 19
3 87 86 53
3 87 319 321
3 321 320 86
3 319 320 321
3 87 322 324
3 322 27 323
3 322 323 324
3 88 27 87
3 88 0 27
3 88 24 0
3 89 24 88
3 89 6 24
3 55 89 20
3 90 89 55
3 90 6 89
3 90 61 6
3 91 61 90
3 91 325 327
3 327 326 61
3 325 326 327
3 75 56 4
3 92 56 75
3 92 21 56
3 57 328 330
3 328 92 329
3 328 329 330
3 331 92 332
3 333 332 57
3 331 332 333
3 334 21 335
3 336 335 92
3 334 335 336
3 337 91 338
3 339 338 21
3 337 338 339
3 340 91 341
3 343 342 91
3 344 34 345
3 346 345 1
3 344 345 346
3 347 34 348
3 349 14 350
3 351 350 34
3 349 350 351
3 352 14 353
3 355 354 14
