ply
format ascii 1.0
element vertex 265
property float x
property float y
property float z
element face 230
property list uchar int vertex_index
end_header
-46.019119 16.391922 -40.99157
-39.727226 14.520805 -37.094891
-36.747116 15.240807 -33.540661
-36.557899 15.115383 -39.38665
-33.987442 15.471695 -35.168205
-27.518847 33.158371 -28.61969
-49.482395 16.460903 -40.992039
-41.911884 17.890045 -45.422741
-45.769943 12.586235 -35.425026
-42.404228 12.402458 -33.671101
-42.765945 15.304737 -39.756935
-39.0886 16.349297 -43.09481
-35.323471 15.576321 -44.973034
-35.383228 15.515911 -34.505859
-47.732361 16.621666 -41.115387
-46.901802 10.726297 -33.051193
-45.142033 10.653969 -32.535313
-39.588615 13.90432 -33.9688
-40.776718 12.839817 -32.331356
-41.156769 13.63665 -35.498051
-42.748566 13.757076 -36.760624
-41.227226 14.78854 -38.590359
-40.978844 16.053616 -41.583233
-39.556725 15.41082 -40.148159
-34.955509 14.819092 -40.007561
-36.054214 15.359661 -42.235275
-34.37476 14.711159 -42.702171
-33.608131 14.563698 -45.293018
-32.833405 13.700035 -42.784405
-23.171875 30.529068 -30.575787
-24.980968 30.47044 -30.058071
-38.026115 14.645863 -32.296329
-38.241257 14.641228 -35.364799
-38.17186 15.018719 -38.406345
-36.79002 15.022301 -36.473179
-35.296661 15.040539 -37.259869
-33.821106 14.711033 -37.709808
-44.041523 17.371319 -43.338417
-45.703365 17.689014 -43.681526
-43.49955 18.309086 -46.016354
-48.698326 10.942558 -33.22226
-47.514938 12.928257 -35.773155
-46.059807 14.601009 -38.238472
-41.763489 11.493418 -30.503159
-43.429966 10.870813 -31.670933
-44.065624 12.359606 -34.721825
-44.380451 14.13274 -37.681503
-44.361259 15.898724 -40.554218
-42.467812 16.769348 -42.649746
-40.446568 17.177078 -44.45377
-37.806709 15.600975 -41.377224
-37.175751 16.184547 -44.236748
-26.616983 30.412571 -29.331676
-32.413795 14.068424 -37.830956
-47.442825 17.589317 -43.73634
-46.87574 16.506794 -41.053478
-47.757015 15.806572 -39.785652
-46.900395 15.6917 -39.723743
-44.67779 9.879097 -31.042524
-45.551602 9.679958 -31.395249
-33.901909 14.435678 -41.483288
-34.665135 14.765125 -41.354866
-34.192284 14.489645 -40.135982
-33.131231 13.930117 -41.524405
-33.604083 14.205597 -42.743288
-33.901909 14.435678 -41.483288
-23.770027 29.003591 -30.509531
-22.891891 28.963482 -30.675037
-37.386615 14.943335 -32.918495
-37.243545 15.268275 -31.46652
-36.604046 15.565746 -32.088686
-28.19573 33.07592 -28.053884
-28.102364 34.451968 -28.194887
-27.782249 31.75063 -28.492309
-28.19573 33.07592 -28.053884
-50.379175 15.704631 -39.554582
-49.505766 15.804592 -39.691586
-50.362139 16.145432 -40.841237
-50.379175 15.704631 -39.554582
-48.230694 9.781205 -31.918293
-49.149501 9.826244 -31.930548
-38.733553 16.728295 -44.498272
-39.412537 17.142185 -45.177751
-39.767584 16.763188 -43.77429
-35.837171 16.072682 -45.958383
-36.763312 16.376794 -45.590241
-36.249611 15.880434 -44.604891
-34.88565 15.585316 -46.262474
-35.837171 16.072682 -45.958383
-33.174686 14.398808 -46.509205
-32.849506 13.88319 -45.253536
-26.307178 28.978766 -29.622264
-25.798976 30.441505 -29.694873
-25.48917 29.0077 -29.985462
-27.043157 28.998019 -29.241867
-26.307178 28.978766 -29.622264
-31.844753 14.296127 -36.708239
-32.510181 14.598555 -36.676868
-46.325254 17.941108 -45.008093
-46.573095 17.639166 -43.708933
-45.455524 17.990957 -44.980686
-35.991981 15.796772 -32.665088
-36.604046 15.565746 -32.088686
-35.310037 15.934324 -33.147688
-36.065172 15.378359 -34.02326
-35.991981 15.796772 -32.665088
-34.662489 16.025316 -33.592517
-35.310037 15.934324 -33.147688
-33.964596 16.003208 -33.92369
-34.685335 15.493803 -34.837032
-34.662489 16.025316 -33.592517
-27.317924 34.591 -28.696344
-28.102364 34.451968 -28.194887
-48.630749 15.884974 -39.753259
-47.757015 15.806572 -39.785652
-48.607378 16.541284 -41.053713
-49.505766 15.804592 -39.691586
-48.630749 15.884974 -39.753259
-41.553774 18.173456 -46.735
-40.810485 17.908686 -46.298406
-46.431486 9.716121 -31.653188
-47.332432 9.673075 -31.832759
-46.021918 10.690133 -32.793253
-46.431486 9.716121 -31.653188
-45.551602 9.679958 -31.395249
-40.182666 13.372069 -33.150078
-39.972588 13.295426 -31.570673
-39.378536 13.827677 -32.389395
-32.462143 13.451358 -43.999229
-32.849506 13.88319 -45.253536
-33.220768 14.131867 -44.038712
-24.076422 30.499754 -30.316929
-24.519659 31.993765 -30.116621
-23.615113 32.023079 -30.375479
-24.674574 28.974277 -30.250673
-24.076422 30.499754 -30.316929
-23.770027 29.003591 -30.509531
-25.48917 29.0077 -29.985462
-24.674574 28.974277 -30.250673
-37.797756 14.90317 -30.773516
-37.243545 15.268275 -31.46652
-38.597286 14.198449 -31.553159
-37.797756 14.90317 -30.773516
-38.807365 14.275092 -33.132565
-39.378536 13.827677 -32.389395
-38.597286 14.198449 -31.553159
-33.625082 14.435616 -38.987106
-34.192284 14.489645 -40.135982
-34.388307 14.765062 -38.858685
-22.608841 32.126919 -30.627015
-23.615113 32.023079 -30.375479
-22.205408 30.562 -30.750017
-22.608841 32.126919 -30.627015
-22.891891 28.963482 -30.675037
-22.205408 30.562 -30.750017
-44.353617 18.300993 -46.1481
-45.455524 17.990957 -44.980686
-44.601457 17.99905 -44.84894
-42.347606 18.382976 -47.031807
-42.705717 18.099566 -45.719548
-41.553774 18.173456 -46.735
-43.172815 18.426897 -47.283728
-42.347606 18.382976 -47.031807
-42.020872 18.500788 -48.299181
-44.353617 18.300993 -46.1481
-43.172815 18.426897 -47.283728
-49.603092 11.045372 -33.157527
-49.149501 9.826244 -31.930548
-48.992018 12.082901 -34.512211
-49.603092 11.045372 -33.157527
-47.800064 10.834428 -33.136726
-48.230694 9.781205 -31.918293
-47.332432 9.673075 -31.832759
-48.400323 13.07575 -35.787659
-48.992018 12.082901 -34.512211
-48.106632 11.935408 -34.497708
-47.648304 13.959868 -37.114536
-48.400323 13.07575 -35.787659
-46.920738 14.796243 -38.347195
-47.648304 13.959868 -37.114536
-46.787373 13.764633 -37.005814
-46.039463 15.496465 -39.615021
-46.900395 15.6917 -39.723743
-46.920738 14.796243 -38.347195
-40.453903 12.716928 -30.728344
-39.972588 13.295426 -31.570673
-40.947288 12.043728 -29.814245
-40.453903 12.716928 -30.728344
-41.270104 12.166618 -31.417257
-41.324514 11.3594 -28.894648
-40.947288 12.043728 -29.814245
-42.143947 10.707918 -29.51799
-41.324514 11.3594 -28.894648
-42.977186 10.396616 -30.101878
-42.143947 10.707918 -29.51799
-42.596728 11.182116 -31.087046
-43.821756 9.987519 -30.610335
-42.977186 10.396616 -30.101878
-44.286 10.762391 -32.103123
-44.67779 9.879097 -31.042524
-43.821756 9.987519 -30.610335
-40.077827 17.552202 -45.813921
-40.810485 17.908686 -46.298406
-41.179226 17.533562 -44.938255
-40.077827 17.552202 -45.813921
-39.412537 17.142185 -45.177751
-37.777129 16.645919 -45.06924
-38.733553 16.728295 -44.498272
-38.132176 16.266922 -43.665779
-37.777129 16.645919 -45.06924
-36.763312 16.376794 -45.590241
-34.02798 15.079004 -46.422466
-34.88565 15.585316 -46.262474
-34.465801 15.07001 -45.133026
-34.02798 15.079004 -46.422466
-33.174686 14.398808 -46.509205
-26.710279 33.244078 -29.062055
-27.317924 34.591 -28.696344
-25.441339 31.900112 -29.781246
-24.519659 31.993765 -30.116621
-26.259347 31.871177 -29.418049
-25.441339 31.900112 -29.781246
-25.798976 30.441505 -29.694873
-27.067915 31.785471 -28.975683
-26.710279 33.244078 -29.062055
-26.259347 31.871177 -29.418049
-27.331318 30.37773 -28.848303
-27.782249 31.75063 -28.492309
-27.067915 31.785471 -28.975683
-27.331318 30.37773 -28.848303
-27.043157 28.998019 -29.241867
-33.302098 15.957693 -34.228653
-33.964596 16.003208 -33.92369
-33.297004 15.30019 -35.345493
-33.302098 15.957693 -34.228653
-33.213836 14.919859 -36.616295
-33.904274 15.091364 -36.439007
-33.297004 15.30019 -35.345493
-33.117451 14.389729 -37.770382
-33.213836 14.919859 -36.616295
-32.510181 14.598555 -36.676868
-32.921426 14.114311 -39.04768
-33.625082 14.435616 -38.987106
-33.117451 14.389729 -37.770382
-31.76203 13.614933 -37.742339
-31.844753 14.296127 -36.708239
-32.221649 13.627498 -39.004523
-31.76203 13.614933 -37.742339
-32.921426 14.114311 -39.04768
-32.221649 13.627498 -39.004523
-32.431454 13.443304 -41.481247
-33.131231 13.930117 -41.524405
-32.155609 13.042492 -42.649588
-32.431454 13.443304 -41.481247
-32.462143 13.451358 -43.999229
-32.155609 13.042492 -42.649588
-47.230751 17.671299 -45.003412
-46.325254 17.941108 -45.008093
-48.340105 17.289534 -43.651682
-47.230751 17.671299 -45.003412
-49.35989 16.725327 -42.279532
-48.46261 17.02511 -42.364189
-48.340105 17.289534 -43.651682
-50.362139 16.145432 -40.841237
-49.35989 16.725327 -42.279532
3 0 55 57
3 55 14 56
3 55 56 57
3 58 16 59
3 1 19 17
3 1 21 19
3 1 23 21
3 60 26 61
3 62 61 24
3 60 61 62
3 63 28 64
3 65 64 26
3 63 64 65
3 67 66 29
3 2 68 70
3 68 31 69
3 68 69 70
3 2 32 31
3 2 34 32
3 4 35 13
3 4 36 35
3 5 71 72
3 5 73 74
3 6 75 76
3 6 77 78
3 7 39 37
3 79 40 80
3 8 41 15
3 8 42 41
3 9 43 18
3 9 44 43
3 9 45 44
3 10 46 20
3 10 47 46
3 10 48 47
3 11 49 22
3 11 81 83
3 83 82 49
3 81 82 83
3 3 50 33
3 12 51 25
3 12 84 86
3 86 85 51
3 84 85 86
3 12 87 88
3 90 89 27
3 91 52 92
3 93 92 30
3 91 92 93
3 95 94 52
3 96 53 97
3 98 54 99
3 100 99 38
3 98 99 100
3 101 2 102
3 103 13 104
3 105 104 2
3 103 104 105
3 106 13 107
3 108 4 109
3 110 109 13
3 108 109 110
3 111 5 112
3 14 113 114
3 14 115 117
3 115 6 116
3 115 116 117
3 119 118 7
3 120 15 121
3 16 122 124
3 122 15 123
3 122 123 124
3 16 8 15
3 17 125 127
3 125 18 126
3 125 126 127
3 19 18 17
3 19 9 18
3 19 20 9
3 21 20 19
3 21 10 20
3 21 22 10
3 23 22 21
3 23 11 22
3 24 25 3
3 26 25 24
3 26 12 25
3 26 27 12
3 28 27 26
3 28 128 130
3 130 129 27
3 128 129 130
3 29 131 133
3 131 30 132
3 131 132 133
3 134 30 135
3 136 135 29
3 134 135 136
3 138 137 30
3 31 139 140
3 31 141 142
3 31 143 145
3 143 17 144
3 143 144 145
3 32 17 31
3 32 1 17
3 32 33 1
3 34 33 32
3 34 3 33
3 13 34 2
3 35 34 13
3 35 3 34
3 35 24 3
3 36 24 35
3 36 146 148
3 148 147 24
3 146 147 148
3 149 29 150
3 151 29 152
3 154 153 29
3 37 38 0
3 39 38 37
3 39 155 157
3 157 156 38
3 155 156 157
3 158 39 159
3 160 159 7
3 158 159 160
3 161 39 162
3 161 162 163
3 165 164 39
3 40 166 167
3 40 168 169
3 15 170 172
3 170 40 171
3 170 171 172
3 41 40 15
3 41 173 175
3 175 174 40
3 173 174 175
3 41 176 177
3 42 178 180
3 180 179 41
3 178 179 180
3 42 181 183
3 181 0 182
3 181 182 183
3 18 184 185
3 43 186 188
3 188 187 18
3 186 187 188
3 43 189 190
3 43 191 192
3 44 193 195
3 195 194 43
3 193 194 195
3 44 196 197
3 44 198 200
3 198 16 199
3 198 199 200
3 45 16 44
3 45 8 16
3 20 45 9
3 46 45 20
3 46 8 45
3 46 42 8
3 47 42 46
3 47 0 42
3 47 37 0
3 48 37 47
3 48 7 37
3 22 48 10
3 49 48 22
3 49 7 48
3 49 201 203
3 203 202 7
3 201 202 203
3 205 204 49
3 33 23 1
3 50 23 33
3 50 11 23
3 25 50 3
3 51 50 25
3 51 11 50
3 51 206 208
3 208 207 11
3 206 207 208
3 210 209 51
3 27 211 213
3 213 212 12
3 211 212 213
3 215 214 27
3 216 5 217
3 30 218 219
3 52 220 222
3 222 221 30
3 220 221 222
3 52 223 225
3 223 5 224
3 223 224 225
3 52 226 228
3 228 227 5
3 226 227 228
3 230 229 52
3 231 4 232
3 233 4 234
3 235 36 236
3 237 236 4
3 235 236 237
3 53 238 240
3 238 36 239
3 238 239 240
3 53 241 243
3 243 242 36
3 241 242 243
3 244 53 245
3 246 53 247
3 249 248 53
3 250 28 251
3 252 28 253
3 255 254 28
3 38 14 0
3 54 14 38
3 54 6 14
3 256 54 257
3 258 54 259
3 260 6 261
3 262 261 54
3 260 261 262
3 264 263 6
