ply
format ascii 1.0
element vertex 435
property float x
property float y
property float z
element face 477
property list uchar int vertex_index
end_header
-44.161617 38.495037 28.215233
-45.80938 15.642223 38.344353
-54.872963 9.923958 33.226128
-52.793312 7.295448 42.946491
-45.883362 27.379391 24.821579
-52.695183 27.580383 16.441805
-48.528469 37.821651 20.01033
-47.669502 17.256954 28.682213
-42.506912 26.667946 33.507336
-46.036957 14.600281 48.68655
-42.705303 26.018341 43.736404
-44.400543 32.815506 26.724035
-47.101212 32.743702 22.734703
-45.777702 38.280895 24.014053
-49.898685 12.19409 35.809361
-51.014839 13.294201 30.943642
-46.306297 16.36227 33.39801
-44.041252 21.385822 31.13028
-43.366798 20.822346 35.900383
-49.334461 11.249023 40.793789
-48.776989 22.648693 22.346451
-49.269226 27.5868 20.735596
-50.571243 32.511795 18.763145
-44.296768 43.948593 29.401875
-45.105293 43.849968 24.90641
-49.909851 18.123791 24.063698
-45.876781 22.049164 26.679264
-43.528549 27.045326 28.988926
-43.011902 32.709377 31.015831
-49.092793 10.469025 45.829998
-45.876213 15.14904 43.508587
-43.828434 20.087105 46.356758
-43.487549 20.452229 41.017708
-42.456795 26.347042 38.4487
-42.655754 32.466141 35.731232
-43.512383 38.399227 32.750313
-46.769764 43.33984 20.593939
-49.362938 42.577019 16.402872
-44.165745 35.657261 27.510906
-45.087879 35.600082 25.443626
-44.81879 38.425407 26.078169
-47.668823 13.738049 37.065582
-47.994289 14.178722 34.596848
-45.963043 15.970592 35.839409
-44.569653 18.420578 34.637428
-44.403778 18.129902 37.11277
-51.466614 9.78027 39.455772
-51.159618 9.251759 41.933613
-47.170052 24.905613 23.661045
-48.858284 25.095448 21.554733
-47.49585 27.502716 22.790493
-47.85033 35.326279 21.473024
-48.807007 32.647568 20.765383
-49.525795 35.127991 19.501598
-51.201126 34.891499 17.503056
-50.132706 37.532467 18.018789
-44.140717 46.492428 29.871544
-44.46521 46.58913 27.553211
-49.198589 15.17366 29.787886
-51.79747 13.836502 28.53339
-50.085155 15.671356 27.420261
-51.137257 16.133621 25.049072
-48.693436 17.706017 26.373852
-47.72422 19.947319 25.409561
-46.541939 19.557091 27.647196
-43.009186 23.913776 32.329765
-43.571995 24.166885 30.055792
-42.861206 26.854801 31.195305
-43.070202 29.833397 30.036579
-42.625893 29.697117 32.286942
-48.973675 10.053118 48.287571
-47.451378 12.431936 47.250237
-47.441952 12.746099 44.704849
-45.977646 14.911831 46.117935
-43.122982 23.009895 45.081306
-43.667656 20.294842 43.674423
-42.966537 23.197048 42.388062
-42.796932 23.343662 39.74498
-42.586319 26.199898 41.058758
-42.640793 32.308594 38.239441
-42.945824 35.316662 36.731476
-43.047287 35.474899 34.280357
-43.705513 41.083115 33.48296
-52.297344 25.303654 17.165951
-45.303925 46.388462 23.006201
-45.804459 43.637611 22.731026
-46.008068 46.113033 20.77494
-50.766968 42.137928 14.351104
-44.958717 30.03447 25.83564
-46.400921 30.084534 23.834251
-45.599983 32.801086 24.70718
-46.333771 35.486412 23.44202
-47.03569 38.074512 22.000637
-52.354755 10.956934 34.542747
-52.964294 11.569172 32.107979
-50.380981 12.736376 33.364281
-48.500118 14.666256 32.174316
-46.870796 16.799911 31.01651
-45.615448 19.156197 29.915371
-44.961792 18.768959 32.240192
-43.573528 21.081505 33.470032
-42.737278 23.687149 34.703903
-53.156212 29.841652 15.614634
-54.245384 9.252262 35.654266
-49.557514 11.693993 38.286415
-47.496517 13.359543 39.581795
-50.637775 20.617325 20.891125
-50.442024 22.88271 20.130978
-50.616806 25.234894 19.395126
-51.057755 27.619617 18.621996
-48.086205 30.097828 21.844994
-49.885597 30.070854 19.825008
-51.634933 29.992615 17.746832
-52.216679 32.325363 16.712307
-44.255737 41.272995 28.846119
-44.705692 41.225151 26.635958
-44.630844 43.956905 27.128368
-44.81728 46.552967 25.265099
-49.115013 20.306595 23.168797
-47.222061 22.365585 24.516792
-45.675499 24.679165 25.752028
-44.80685 21.715889 28.873226
-44.461372 24.428082 27.871262
-44.540298 27.224232 26.873974
-43.839703 29.949165 27.892181
-43.543011 32.783993 28.819757
-43.56126 35.65274 29.667118
-50.663132 8.262409 46.840553
-50.905972 8.756189 44.405937
-49.194752 10.851099 43.317719
-47.437584 13.03849 42.135895
-45.799194 15.376507 40.906685
-43.900974 19.758377 49.01556
-44.815273 17.280567 47.561008
-44.686279 17.528641 44.919975
-44.528351 17.714497 42.273582
-44.411263 17.900677 39.662632
-43.362015 20.616367 38.419674
-42.692841 23.49844 37.178299
-42.400375 26.497818 35.927216
-42.496456 29.254459 39.679001
-42.431122 29.407047 37.115845
-42.44239 29.552551 34.648178
-42.746162 32.600296 33.320358
-43.218269 35.589191 31.923361
-43.755405 38.484909 30.438101
-43.95715 41.223343 31.128738
-43.997681 43.827271 31.728033
-45.392853 41.081993 24.492922
-46.363071 40.856388 22.404795
-47.605972 40.567741 20.353998
-46.966095 45.751842 18.570513
-47.983536 42.980125 18.486105
-49.047726 40.234367 18.322632
-50.55574 39.865948 16.300865
-51.956085 39.459473 14.296697
-53.005758 7.608828 41.732256
-53.930173 6.98322 40.968739
-53.717727 6.66984 42.182974
-51.976465 8.273604 42.440052
-52.188911 8.586984 41.225817
-53.005758 7.608828 41.732256
-44.115876 47.795517 28.884516
-43.907893 47.688488 30.054437
-55.224638 10.24243 32.008793
-56.088043 9.444365 32.526305
-46.744168 13.516109 47.968393
-47.426609 12.232446 48.484428
-46.719398 13.316618 49.202585
-42.914142 24.514118 44.408855
-42.932917 24.377085 45.765296
-42.724077 25.881307 45.092845
-43.025925 36.673975 37.176828
-42.881833 35.213701 37.998051
-43.137321 36.78162 35.939791
-43.025925 36.673975 37.176828
-53.21962 26.426361 15.665116
-53.020701 25.287996 16.027189
-52.496263 26.442019 16.803878
-45.646486 47.488712 20.847613
-45.655997 46.250748 21.890571
-45.294415 47.626426 21.963244
-53.71987 29.714344 14.545255
-53.358312 30.953797 15.123227
-53.970799 8.914712 36.869307
-55.063721 8.39678 36.148601
-53.051874 9.802195 36.32235
-53.970799 8.914712 36.869307
-51.946371 34.748131 16.490037
-51.440815 36.048754 16.759813
-44.620691 47.859379 25.414665
-44.641245 46.571049 26.409155
-44.444657 47.87746 26.55872
-44.801596 47.818337 24.251465
-44.620691 47.859379 25.414665
-52.349652 12.725658 30.309276
-53.324379 11.863143 30.891444
-51.989567 12.431686 31.52581
-53.149837 13.263924 27.881278
-52.254997 14.086014 27.324492
-51.111958 17.332175 23.357385
-51.725661 16.33709 23.850072
-50.523554 17.128706 24.556385
-50.586029 18.307562 22.893363
-51.111958 17.332175 23.357385
-49.512432 19.215193 23.616248
-50.18861 19.398964 22.445912
-50.586029 18.307562 22.893363
-43.864704 19.922741 47.686159
-43.54873 21.237257 48.399985
-43.512461 21.401621 47.070583
-42.552553 30.683923 40.254722
-42.523222 29.161551 40.999684
-43.813873 43.715241 32.916028
-43.851597 42.455193 32.605497
-43.667789 42.343162 33.793492
-43.867199 45.048975 31.973799
-43.813873 43.715241 32.916028
-46.964855 46.932133 17.453512
-46.483647 47.141644 18.593589
-48.673237 42.778572 17.444488
-48.067734 44.154863 17.440863
-48.757435 43.95331 16.399247
-51.986584 40.558512 13.326456
-51.361526 40.798701 14.323901
-51.392025 41.89774 13.35366
-52.508766 39.229804 13.320235
-51.986584 40.558512 13.326456
-52.342409 8.85124 39.986897
-52.581413 9.178716 38.77006
-51.313116 9.516015 40.694693
-52.342409 8.85124 39.986897
-52.188911 8.586984 41.225817
-50.906605 37.369238 17.017679
-51.440815 36.048754 16.759813
-50.666916 36.211983 17.760922
-44.278122 47.843868 27.72535
-44.302964 46.540779 28.712378
-44.115876 47.795517 28.884516
-44.444657 47.87746 26.55872
-44.278122 47.843868 27.72535
-51.39884 15.003441 26.767927
-52.254997 14.086014 27.324492
-50.941312 14.753929 27.976826
-50.611206 15.902489 26.234666
-51.924891 15.234573 25.582332
-51.39884 15.003441 26.767927
-48.187758 11.043036 49.003096
-48.8748 9.799397 49.46158
-48.212526 11.242527 47.768904
-48.187758 11.043036 49.003096
-47.426609 12.232446 48.484428
-43.159734 22.863016 46.432857
-42.932917 24.377085 45.765296
-43.475708 21.5485 45.719032
-43.512461 21.401621 47.070583
-43.159734 22.863016 46.432857
-42.729317 33.709667 38.752033
-42.624721 32.210991 39.534942
-42.793309 33.812628 37.485459
-42.729317 33.709667 38.752033
-42.881833 35.213701 37.998051
-43.188053 36.860738 34.714231
-42.996555 35.395781 35.505916
-43.137321 36.78162 35.939791
-43.420601 38.322902 33.949209
-43.279835 36.937063 33.515335
-43.188053 36.860738 34.714231
-43.517166 39.664846 34.315533
-43.608948 39.741171 33.116636
-43.420601 38.322902 33.949209
-43.5527 40.97228 34.692842
-43.517166 39.664846 34.315533
-43.667789 42.343162 33.793492
-43.5527 40.97228 34.692842
-52.941091 24.209925 16.339879
-52.838068 23.081986 16.681701
-52.194321 24.175715 17.507773
-52.941091 24.209925 16.339879
-53.020701 25.287996 16.027189
-49.417774 43.719908 15.331858
-48.757435 43.95331 16.399247
-50.119789 43.500363 14.305974
-50.064953 42.357473 15.376988
-49.417774 43.719908 15.331858
-50.77266 43.246872 13.270432
-50.119789 43.500363 14.305974
-51.392025 41.89774 13.35366
-50.77266 43.246872 13.270432
-53.429798 6.302447 43.363875
-53.717727 6.66984 42.182974
-46.011692 14.372954 49.918982
-46.719398 13.316618 49.202585
-42.612426 27.410303 44.375134
-42.724077 25.881307 45.092845
-42.627645 27.543492 43.028385
-42.612426 27.410303 44.375134
-53.586483 28.640156 14.921613
-53.355969 27.509521 15.335199
-52.925697 28.711018 16.028219
-53.586483 28.640156 14.921613
-53.71987 29.714344 14.545255
-55.721502 9.099995 33.733891
-56.088043 9.444365 32.526305
-55.407713 8.764146 34.947959
-55.063721 8.39678 36.148601
-54.559173 9.58811 34.440197
-55.721502 9.099995 33.733891
-55.407713 8.764146 34.947959
-52.10656 10.654532 35.76659
-53.300069 10.104598 35.098506
-53.051874 9.802195 36.32235
-50.878524 11.27311 36.399897
-51.12672 11.575512 35.176054
-52.10656 10.654532 35.76659
-51.662489 10.066199 38.223103
-52.581413 9.178716 38.77006
-50.707939 11.023061 37.638424
-51.662489 10.066199 38.223103
-50.512064 10.737132 38.871094
-49.728099 11.944042 37.047888
-50.878524 11.27311 36.399897
-50.707939 11.023061 37.638424
-51.41427 20.738836 19.722946
-51.65488 19.703963 20.111457
-51.316395 21.871529 19.342873
-51.41427 20.738836 19.722946
-50.5399 21.750017 20.511052
-51.266661 22.965243 18.990287
-51.316395 21.871529 19.342873
-51.354051 24.141334 18.622361
-51.266661 22.965243 18.990287
-50.529415 24.058802 19.763052
-51.457075 25.269274 18.280538
-52.194321 24.175715 17.507773
-51.354051 24.141334 18.622361
-52.888546 32.195652 15.672063
-53.358312 30.953797 15.123227
-52.686445 31.083508 16.16347
-52.454148 33.465063 16.094662
-51.708903 33.608431 17.107681
-51.946371 34.748131 16.490037
-52.888546 32.195652 15.672063
-52.454148 33.465063 16.094662
-45.044919 47.736084 23.122016
-45.060603 46.470714 24.13565
-44.801596 47.818337 24.251465
-45.294415 47.626426 21.963244
-45.044919 47.736084 23.122016
-54.270303 11.065037 31.449718
-55.224638 10.24243 32.008793
-53.918628 10.746565 32.667054
-54.270303 11.065037 31.449718
-53.324379 11.863143 30.891444
-52.740967 12.996808 29.10415
-52.349652 12.725658 30.309276
-51.406154 13.565351 29.738516
-52.740967 12.996808 29.10415
-53.149837 13.263924 27.881278
-52.433718 15.45204 24.360571
-51.924891 15.234573 25.582332
-52.433718 15.45204 24.360571
-51.725661 16.33709 23.850072
-50.949991 19.554329 21.307077
-51.65488 19.703963 20.111457
-49.876394 20.46196 22.029961
-50.949991 19.554329 21.307077
-50.18861 19.398964 22.445912
-52.592758 6.990586 44.14739
-53.429798 6.302447 43.363875
-49.676409 8.88905 48.740225
-48.8748 9.799397 49.46158
-50.521137 7.993696 48.016716
-49.676409 8.88905 48.740225
-49.818404 9.157763 47.564062
-51.319025 7.163631 47.265106
-50.521137 7.993696 48.016716
-51.527668 7.474067 46.094421
-51.319025 7.163631 47.265106
-51.649088 7.720956 44.877113
-51.527668 7.474067 46.094421
-50.784552 8.509299 45.623245
-51.849642 8.025818 43.676214
-52.592758 6.990586 44.14739
-51.649088 7.720956 44.877113
-45.442003 15.749504 49.412926
-46.011692 14.372954 49.918982
-43.514148 21.001179 49.727888
-43.54873 21.237257 48.399985
-43.861818 19.498193 50.300244
-43.514148 21.001179 49.727888
-44.374012 18.328552 49.577431
-43.861818 19.498193 50.300244
-44.831162 17.089647 48.850155
-44.374012 18.328552 49.577431
-44.358123 18.519472 48.288284
-45.426115 15.940424 48.123779
-45.442003 15.749504 49.412926
-44.831162 17.089647 48.850155
-42.568154 27.63427 41.689562
-42.645811 26.109119 42.397581
-42.627645 27.543492 43.028385
-42.541387 27.727179 40.368879
-42.568154 27.63427 41.689562
-42.523222 29.161551 40.999684
-42.568624 30.781526 38.959221
-42.552553 30.683923 40.254722
-42.624721 32.210991 39.534942
-43.938717 46.381553 31.045555
-44.069199 45.159849 30.799788
-43.867199 45.048975 31.973799
-43.907893 47.688488 30.054437
-43.938717 46.381553 31.045555
-53.21962 26.426361 15.665116
-53.355969 27.509521 15.335199
-46.004633 47.322239 19.695802
-45.646486 47.488712 20.847613
-46.487082 45.932438 19.672726
-46.004633 47.322239 19.695802
-46.483647 47.141644 18.593589
-47.559014 45.540722 17.483067
-46.964855 46.932133 17.453512
-47.474816 44.365983 18.528309
-47.559014 45.540722 17.483067
-48.067734 44.154863 17.440863
-51.118122 38.535978 16.158717
-50.906605 37.369238 17.017679
-50.344223 38.699207 17.159827
-51.818295 38.332741 15.156633
-51.118122 38.535978 16.158717
-51.255913 39.662711 15.298781
-52.470199 38.144104 14.158582
-51.818295 38.332741 15.156633
-52.470199 38.144104 14.158582
-52.508766 39.229804 13.320235
3 0 40 38
3 1 43 41
3 1 45 43
3 3 156 158
3 156 157 158
3 3 159 161
3 159 47 160
3 159 160 161
3 4 50 48
3 6 53 51
3 6 55 53
3 163 162 56
3 2 164 165
3 7 60 58
3 7 62 60
3 7 64 62
3 8 67 65
3 8 69 67
3 9 166 168
3 166 71 167
3 166 167 168
3 9 73 71
3 10 169 171
3 169 74 170
3 169 170 171
3 10 76 74
3 10 78 76
3 172 80 173
3 175 174 80
3 5 176 178
3 178 177 83
3 176 177 178
3 179 86 180
3 181 180 84
3 179 180 181
3 11 90 88
3 13 91 39
3 13 92 91
3 14 95 93
3 16 96 42
3 16 97 96
3 16 99 97
3 18 100 44
3 18 101 100
3 183 182 102
3 184 103 185
3 187 186 103
3 19 104 46
3 19 105 104
3 20 107 106
3 21 108 49
3 21 109 108
3 12 110 89
3 22 111 52
3 22 112 111
3 22 113 112
3 189 188 54
3 23 116 114
3 190 117 191
3 192 191 57
3 190 191 192
3 194 193 117
3 15 195 197
3 197 196 94
3 195 196 197
3 199 198 59
3 25 200 202
3 202 201 61
3 200 201 202
3 25 203 204
3 25 205 207
3 205 118 206
3 205 206 207
3 26 119 63
3 26 120 119
3 17 121 98
3 27 122 66
3 27 123 122
3 27 124 123
3 28 125 68
3 28 126 125
3 29 127 70
3 29 128 127
3 29 129 128
3 30 130 72
3 30 131 130
3 31 208 210
3 208 132 209
3 208 209 210
3 31 133 132
3 31 134 133
3 32 135 75
3 32 136 135
3 32 137 136
3 33 138 77
3 33 139 138
3 211 140 212
3 34 141 79
3 34 142 141
3 34 143 142
3 35 144 81
3 35 145 144
3 35 146 145
3 213 147 214
3 215 214 82
3 213 214 215
3 217 216 147
3 24 148 115
3 36 149 85
3 36 150 149
3 218 151 219
3 37 220 222
3 220 152 221
3 220 221 222
3 37 153 152
3 37 154 153
3 223 155 224
3 225 224 87
3 223 224 225
3 227 226 155
3 38 39 11
3 40 39 38
3 40 13 39
3 41 42 14
3 43 42 41
3 43 16 42
3 43 44 16
3 45 44 43
3 45 18 44
3 228 46 229
3 47 230 232
3 230 46 231
3 230 231 232
3 47 19 46
3 48 49 20
3 50 49 48
3 50 21 49
3 51 52 12
3 53 52 51
3 53 22 52
3 53 54 22
3 55 54 53
3 55 233 235
3 235 234 54
3 233 234 235
3 56 57 23
3 236 57 237
3 238 237 56
3 236 237 238
3 240 239 57
3 58 59 15
3 60 59 58
3 60 241 243
3 243 242 59
3 241 242 243
3 60 244 246
3 244 61 245
3 244 245 246
3 62 61 60
3 62 25 61
3 62 63 25
3 64 63 62
3 64 26 63
3 65 66 17
3 67 66 65
3 67 27 66
3 67 68 27
3 69 68 67
3 69 28 68
3 247 70 248
3 71 249 251
3 249 70 250
3 249 250 251
3 71 29 70
3 71 72 29
3 73 72 71
3 73 30 72
3 74 252 253
3 74 254 256
3 254 31 255
3 254 255 256
3 74 75 31
3 76 75 74
3 76 32 75
3 76 77 32
3 78 77 76
3 78 33 77
3 257 79 258
3 80 259 261
3 259 79 260
3 259 260 261
3 80 34 79
3 80 81 34
3 262 81 263
3 264 263 80
3 262 263 264
3 265 35 266
3 267 266 81
3 265 266 267
3 268 82 269
3 270 269 35
3 268 269 270
3 271 82 272
3 274 273 82
3 83 275 277
3 275 276 277
3 279 278 83
3 84 85 24
3 86 85 84
3 86 36 85
3 280 37 281
3 282 87 283
3 284 283 37
3 282 283 284
3 285 87 286
3 288 287 87
3 289 3 290
3 88 89 4
3 90 89 88
3 90 12 89
3 39 90 11
3 91 90 39
3 91 12 90
3 91 51 12
3 92 51 91
3 92 6 51
3 93 94 2
3 95 94 93
3 95 15 94
3 42 95 14
3 96 95 42
3 96 15 95
3 96 58 15
3 97 58 96
3 97 7 58
3 97 98 7
3 99 98 97
3 99 17 98
3 44 99 16
3 100 99 44
3 100 17 99
3 100 65 17
3 101 65 100
3 101 8 65
3 291 9 292
3 293 10 294
3 296 295 10
3 102 297 299
3 299 298 5
3 297 298 299
3 301 300 102
3 302 2 303
3 103 304 305
3 103 306 308
3 306 2 307
3 306 307 308
3 103 93 2
3 309 93 310
3 311 310 103
3 309 310 311
3 312 14 313
3 314 313 93
3 312 313 314
3 46 315 316
3 104 317 319
3 319 318 46
3 317 318 319
3 104 320 322
3 320 14 321
3 320 321 322
3 104 41 14
3 105 41 104
3 105 1 41
3 106 323 324
3 107 325 327
3 327 326 106
3 325 326 327
3 107 328 329
3 49 107 20
3 108 107 49
3 108 330 332
3 332 331 107
3 330 331 332
3 108 333 335
3 333 83 334
3 333 334 335
3 109 83 108
3 109 5 83
3 89 50 4
3 110 50 89
3 110 21 50
3 52 110 12
3 111 110 52
3 111 21 110
3 111 109 21
3 112 109 111
3 112 5 109
3 112 102 5
3 113 102 112
3 113 336 338
3 338 337 102
3 336 337 338
3 54 113 22
3 339 113 340
3 341 340 54
3 339 340 341
3 343 342 113
3 114 115 0
3 116 115 114
3 116 24 115
3 57 116 23
3 117 116 57
3 117 24 116
3 117 84 24
3 344 84 345
3 346 345 117
3 344 345 346
3 348 347 84
3 94 349 351
3 351 350 2
3 349 350 351
3 353 352 94
3 59 354 356
3 356 355 15
3 354 355 356
3 358 357 59
3 61 359 360
3 362 361 61
3 363 106 364
3 118 365 367
3 365 106 366
3 365 366 367
3 118 20 106
3 63 118 25
3 119 118 63
3 119 20 118
3 119 48 20
3 120 48 119
3 120 4 48
3 98 64 7
3 121 64 98
3 121 26 64
3 66 121 17
3 122 121 66
3 122 26 121
3 122 120 26
3 123 120 122
3 123 4 120
3 123 88 4
3 124 88 123
3 124 11 88
3 68 124 27
3 125 124 68
3 125 11 124
3 125 38 11
3 126 38 125
3 126 0 38
3 368 3 369
3 70 370 371
3 127 372 374
3 374 373 70
3 372 373 374
3 127 375 376
3 127 377 378
3 128 379 381
3 381 380 127
3 379 380 381
3 128 382 384
3 382 3 383
3 382 383 384
3 128 47 3
3 129 47 128
3 129 19 47
3 72 129 29
3 130 129 72
3 130 19 129
3 130 105 19
3 131 105 130
3 131 1 105
3 385 9 386
3 132 387 388
3 132 389 390
3 132 391 392
3 133 393 395
3 395 394 132
3 393 394 395
3 133 396 398
3 396 9 397
3 396 397 398
3 133 73 9
3 134 73 133
3 134 30 73
3 75 134 31
3 135 134 75
3 135 30 134
3 135 131 30
3 136 131 135
3 136 1 131
3 136 45 1
3 137 45 136
3 137 18 45
3 77 137 32
3 138 137 77
3 138 18 137
3 138 101 18
3 139 101 138
3 139 8 101
3 399 78 400
3 401 400 10
3 399 400 401
3 140 402 404
3 402 78 403
3 402 403 404
3 140 33 78
3 79 405 407
3 405 140 406
3 405 406 407
3 141 140 79
3 141 33 140
3 141 139 33
3 142 139 141
3 142 8 139
3 142 69 8
3 143 69 142
3 143 28 69
3 81 143 34
3 144 143 81
3 144 28 143
3 144 126 28
3 145 126 144
3 145 0 126
3 145 114 0
3 146 114 145
3 146 23 114
3 82 146 35
3 147 146 82
3 147 23 146
3 147 56 23
3 408 56 409
3 410 409 147
3 408 409 410
3 412 411 56
3 414 413 5
3 115 40 0
3 148 40 115
3 148 13 40
3 85 148 24
3 149 148 85
3 149 13 148
3 149 92 13
3 150 92 149
3 150 6 92
3 415 86 416
3 151 417 419
3 417 86 418
3 417 418 419
3 151 36 86
3 420 151 421
3 152 422 424
3 422 151 423
3 422 423 424
3 152 36 151
3 152 150 36
3 153 150 152
3 153 6 150
3 153 55 6
3 154 55 153
3 154 425 427
3 427 426 55
3 425 426 427
3 87 154 37
3 155 154 87
3 155 428 430
3 430 429 154
3 428 429 430
3 155 431 432
3 434 433 155
