ply
format ascii 1.0
element vertex 324
property float x
property float y
property float z
element face 306
property list uchar int vertex_index
end_header
-31.324003 -1.921768 64.97274
-16.312473 8.330641 72.170395
-11.259075 15.798031 77.578339
-29.544294 9.298367 62.950287
-22.003092 15.277103 64.747856
-22.2929 1.823748 66.9049
-8.66024 3.16618 82.957695
-36.211315 -3.173519 64.780884
-35.015308 1.628941 62.763058
-34.10717 7.138123 62.205624
-30.102541 3.327431 63.298992
-25.627697 5.508015 64.201965
-18.906376 11.938345 67.911285
-16.383825 15.973091 70.594696
-13.919956 4.42948 76.845886
-13.934153 12.141594 75.218506
-11.430294 7.842094 79.56498
-8.594629 10.898981 81.176552
-33.636559 13.261986 62.295071
-25.468596 11.956388 63.686535
-21.892296 8.381563 65.704178
-18.946552 4.77984 69.194092
-33.809696 -2.551605 64.866699
-35.601814 -0.855715 63.587555
-33.12339 -0.151211 63.728497
-32.534962 2.440134 63.001884
-30.636101 0.601339 63.9263
-28.225929 1.460329 64.235947
-17.559351 10.173845 69.936249
-17.616402 13.915955 69.22467
-16.340836 12.126022 71.420242
-12.70085 6.156097 78.304825
-11.402225 4.001196 80.366676
-8.684259 6.984232 82.135994
-31.779814 8.171505 62.591892
-33.824345 10.13666 62.256306
-31.604462 11.2586 62.623947
-29.46702 12.467312 62.900654
-27.435631 13.795044 63.119278
-27.433546 10.551716 63.302338
-23.876354 3.657688 65.350433
-23.660198 6.853979 64.866379
-22.003502 5.033394 66.206696
-20.342003 6.592152 67.272636
-20.513561 3.212639 67.939285
-12.660854 14.014408 76.526474
-13.90015 16.11256 74.258522
-12.539967 18.040829 75.428406
-10.016659 1.772041 82.178505
-36.480556 6.157261 61.783978
-34.506153 4.295441 62.326359
-32.083633 5.221262 62.66066
-29.742678 6.237965 63.021637
-27.531075 7.384308 63.431458
-27.784502 4.338781 63.688847
-25.958113 2.470055 64.700089
-20.384853 13.631554 66.171059
-20.484043 17.195877 65.501694
-18.991354 15.59985 67.233704
-38.741734 -6.046623 65.981812
-15.117566 6.412867 74.510727
-15.12801 10.229177 73.734238
-13.930521 8.235058 76.06366
-12.707314 10.042795 77.473663
-11.389194 11.783592 78.648705
-10.081921 5.549236 81.412865
-10.065334 9.436874 80.541748
-9.945345 13.411674 79.519417
-36.094994 9.065392 61.79092
-35.795605 12.117239 61.858723
-25.526075 15.270042 63.336971
-23.659184 13.529068 64.152512
-25.48035 8.687157 63.919033
-23.60704 10.161749 64.518936
-21.913082 11.812275 65.263565
-20.316463 10.082972 66.723785
-18.873642 8.315676 68.530426
-17.56292 6.498526 70.627182
-17.670864 2.940413 71.388077
-16.340691 4.630802 72.918518
-15.1461 14.123352 72.893074
-15.135817 18.058704 71.933708
-30.090388 -1.569179 65.074711
-29.746437 -0.307626 64.551491
-30.980052 -0.660214 64.44952
-11.368986 2.145218 80.738045
-12.036346 3.194518 79.719902
-22.047479 17.009685 64.39476
-22.874432 16.095966 64.185587
-37.090237 -2.375614 64.107888
-37.313919 -3.515105 64.703099
-36.237024 1.232388 62.651286
-36.530277 -0.00994 63.063534
-35.308561 0.386613 63.175307
-35.980474 2.520217 62.380583
-36.237024 1.232388 62.651286
-34.76073 2.962191 62.544708
-35.725897 3.853467 62.162233
-35.980474 2.520217 62.380583
-26.225013 1.045018 65.120087
-27.092021 1.965192 64.468018
-27.358921 0.540156 64.888016
-25.12458 1.548439 65.403717
-26.225013 1.045018 65.120087
-17.033701 16.828544 69.50325
-17.64999 15.799976 68.818237
-17.000114 14.944523 69.909683
-16.390689 17.905704 70.115566
-17.033701 16.828544 69.50325
-37.986384 -6.760204 66.886231
-38.819321 -7.124179 66.659935
-38.06397 -7.837759 67.564354
-37.004053 -6.417801 67.014072
-37.759404 -5.70422 66.109654
-37.986384 -6.760204 66.886231
-8.488605 12.89486 80.609745
-9.163963 14.151207 79.781178
-9.269987 12.155327 80.347984
-34.600178 14.274217 62.052341
-35.679701 13.701844 61.834167
-34.716082 12.689612 62.076897
-33.568573 14.87118 62.217394
-34.600178 14.274217 62.052341
-17.066393 2.007961 72.565895
-17.793065 1.246163 71.845425
-16.401307 2.853156 73.331116
-17.005778 3.785608 72.153298
-17.066393 2.007961 72.565895
-15.745686 3.67424 74.104332
-16.401307 2.853156 73.331116
-20.516042 18.973119 65.065628
-19.776621 18.230833 65.95652
-14.468846 19.088296 72.541912
-14.517983 17.085632 73.096115
-13.851012 18.115225 73.704319
-15.099367 20.033414 71.377304
-14.468846 19.088296 72.541912
-28.541351 0.121869 64.706314
-29.431015 1.030834 64.081123
-29.746437 -0.307626 64.551491
-27.358921 0.540156 64.888016
-28.541351 0.121869 64.706314
-12.685659 4.271968 78.688976
-13.310403 5.292789 77.575356
-13.295212 3.40866 77.959507
-12.051538 5.078646 79.33575
-12.685659 4.271968 78.688976
-12.036346 3.194518 79.719902
-7.971076 5.706162 82.758702
-8.672249 5.075206 82.546844
-7.959067 3.797136 83.169552
-7.949891 7.627064 82.312138
-7.971076 5.706162 82.758702
-7.236708 6.348994 82.934845
-7.905076 9.584438 81.832416
-8.639444 8.941606 81.656273
-7.949891 7.627064 82.312138
-7.818999 11.548603 81.30708
-7.905076 9.584438 81.832416
-31.558951 12.852099 62.594577
-32.574999 13.853793 62.430139
-32.620511 12.260293 62.459509
-30.49023 13.456456 62.732931
-31.558951 12.852099 62.594577
-30.535741 11.862956 62.762301
-29.458573 14.08575 62.794185
-30.49023 13.456456 62.732931
-28.451326 13.131178 63.009966
-28.442878 14.749617 62.903498
-29.458573 14.08575 62.794185
-13.170921 19.079359 74.289261
-13.851012 18.115225 73.704319
-13.220059 17.076694 74.843464
-9.960513 -0.050534 82.536721
-10.676203 1.030641 81.643959
-10.620057 -0.791934 82.002174
-9.282428 0.617133 82.935158
-9.960513 -0.050534 82.536721
-9.226282 -1.205442 83.293374
-8.604218 1.314203 83.324753
-9.338449 2.469111 82.5681
-9.282428 0.617133 82.935158
-7.921579 1.926857 83.559452
-8.604218 1.314203 83.324753
-7.220406 2.557813 83.771309
-7.959067 3.797136 83.169552
-7.921579 1.926857 83.559452
-36.785486 -1.216712 63.511223
-37.090237 -2.375614 64.107888
-35.906565 -2.014617 64.184219
-36.785486 -1.216712 63.511223
-36.530277 -0.00994 63.063534
-36.713099 4.784377 61.891043
-37.660812 5.669702 61.553875
-35.493354 5.226351 62.055168
-36.713099 4.784377 61.891043
-35.725897 3.853467 62.162233
-24.0837 2.142255 65.72889
-24.917234 3.063871 65.025261
-25.12458 1.548439 65.403717
-23.291973 1.225285 66.506123
-23.084627 2.740718 66.127667
-24.0837 2.142255 65.72889
-19.030276 17.43282 66.822525
-19.776621 18.230833 65.95652
-19.737699 16.397863 66.367699
-18.337466 16.641924 67.822754
-18.303878 14.757903 68.229187
-17.64999 15.799976 68.818237
-19.030276 17.43282 66.822525
-18.337466 16.641924 67.822754
-11.144721 17.829145 76.956353
-10.486737 16.624206 77.948624
-39.537588 -6.467985 65.735718
-38.819321 -7.124179 66.659935
-39.529763 -5.353576 65.144165
-39.537588 -6.467985 65.735718
-38.579128 -4.951657 65.303562
-39.529763 -5.353576 65.144165
-38.579128 -4.951657 65.303562
-37.759404 -5.70422 66.109654
-36.494194 -4.267669 65.509189
-37.313919 -3.515105 64.703099
-35.371485 -3.979137 65.564343
-36.494194 -4.267669 65.509189
-35.654364 -5.073286 66.292648
-34.170675 -3.668179 65.60725
-35.010506 -2.862562 64.823791
-35.371485 -3.979137 65.564343
-32.963373 -3.399824 65.640045
-34.170675 -3.668179 65.60725
-31.720526 -3.084906 65.693066
-32.56685 -2.236686 64.919719
-32.963373 -3.399824 65.640045
-30.484848 -2.800454 65.751362
-31.720526 -3.084906 65.693066
-10.709442 2.886618 81.272591
-11.368986 2.145218 80.738045
-10.676203 1.030641 81.643959
-9.829872 15.431028 78.919163
-10.486737 16.624206 77.948624
-10.60221 14.604852 78.548878
-9.04849 16.170561 79.180924
-9.829872 15.431028 78.919163
-9.163963 14.151207 79.781178
-8.488605 12.89486 80.609745
-7.818999 11.548603 81.30708
-37.428417 7.081249 61.511494
-37.660812 5.669702 61.553875
-37.235636 8.535314 61.514965
-37.428417 7.081249 61.511494
-36.287775 7.611326 61.787449
-37.029294 10.020805 61.529966
-37.235636 8.535314 61.514965
-36.879599 11.546729 61.563868
-37.029294 10.020805 61.529966
-35.9453 10.591316 61.824821
-36.705267 13.097871 61.556956
-36.879599 11.546729 61.563868
-36.705267 13.097871 61.556956
-35.679701 13.701844 61.834167
-33.568573 14.87118 62.217394
-32.574999 13.853793 62.430139
-27.451144 15.434997 62.917808
-28.442878 14.749617 62.903498
-26.496365 16.172497 63.026655
-27.451144 15.434997 62.917808
-26.480853 14.532543 63.228124
-25.55215 16.932232 63.034431
-26.496365 16.172497 63.026655
-24.635924 16.092436 63.480144
-25.55215 16.932232 63.034431
-23.702478 15.221948 63.887915
-24.635924 16.092436 63.480144
-24.59263 14.399555 63.744742
-22.831138 14.403085 64.450184
-22.874432 16.095966 64.185587
-23.702478 15.221948 63.887915
-30.090388 -1.569179 65.074711
-30.484848 -2.800454 65.751362
-22.537803 0.31462 67.402752
-23.291973 1.225285 66.506123
-21.578961 0.912205 67.867859
-22.537803 0.31462 67.402752
-20.689292 1.60665 68.385052
-21.40323 2.518193 67.422092
-21.578961 0.912205 67.867859
-19.839883 2.299241 68.972103
-20.689292 1.60665 68.385052
-19.056379 3.082841 69.599506
-19.730056 3.996239 68.566688
-19.839883 2.299241 68.972103
-18.418535 2.163128 70.696499
-17.793065 1.246163 71.845425
-18.308708 3.860126 70.291084
-19.056379 3.082841 69.599506
-18.418535 2.163128 70.696499
-15.134124 4.565272 74.900436
-15.729128 5.521835 73.714623
-15.745686 3.67424 74.104332
-14.535319 3.573579 76.068016
-14.518761 5.421174 75.678306
-15.134124 4.565272 74.900436
-13.927981 2.596929 77.237694
-14.535319 3.573579 76.068016
-13.295212 3.40866 77.959507
-13.927981 2.596929 77.237694
-21.287954 17.969072 64.771679
-22.047479 17.009685 64.39476
-21.243567 16.23649 65.124775
-21.287954 17.969072 64.771679
-20.516042 18.973119 65.065628
-15.766685 18.948511 70.785072
-16.390689 17.905704 70.115566
-15.759821 17.015898 71.264202
-15.766685 18.948511 70.785072
-15.099367 20.033414 71.377304
-11.785167 18.950544 75.881386
-11.899521 16.91943 76.503372
-11.144721 17.829145 76.956353
-12.434889 20.068953 74.795925
-11.785167 18.950544 75.881386
-13.170921 19.079359 74.289261
-12.434889 20.068953 74.795925
3 0 24 22
3 0 26 24
3 0 82 84
3 84 83 26
3 82 83 84
3 1 30 28
3 85 32 86
3 3 36 34
3 3 37 36
3 3 39 37
3 5 42 40
3 5 44 42
3 4 87 88
3 2 47 45
3 7 89 90
3 8 91 93
3 93 92 23
3 91 92 93
3 8 94 95
3 8 96 98
3 96 50 97
3 96 97 98
3 10 51 25
3 10 52 51
3 10 54 52
3 99 55 100
3 101 100 27
3 99 100 101
3 103 102 55
3 12 58 56
3 13 104 106
3 106 105 29
3 104 105 106
3 13 107 108
3 109 59 110
3 109 110 111
3 114 113 59
3 112 113 114
3 14 62 60
3 16 63 31
3 16 64 63
3 6 65 48
3 17 66 33
3 17 67 66
3 17 115 117
3 117 116 67
3 115 116 117
3 9 68 49
3 18 69 35
3 18 118 120
3 120 119 69
3 118 119 120
3 18 121 122
3 19 70 38
3 19 71 70
3 11 72 53
3 20 73 41
3 20 74 73
3 20 75 74
3 21 76 43
3 21 77 76
3 123 78 124
3 125 79 126
3 127 126 78
3 125 126 127
3 129 128 79
3 131 130 57
3 15 80 61
3 132 81 133
3 134 133 46
3 132 133 134
3 136 135 81
3 22 23 7
3 24 23 22
3 24 8 23
3 24 25 8
3 26 25 24
3 26 10 25
3 26 27 10
3 137 27 138
3 139 138 26
3 137 138 139
3 141 140 27
3 28 29 12
3 30 29 28
3 30 13 29
3 142 31 143
3 144 143 14
3 142 143 144
3 32 145 147
3 145 31 146
3 145 146 147
3 32 16 31
3 148 33 149
3 150 149 6
3 148 149 150
3 151 33 152
3 151 152 153
3 154 17 155
3 156 155 33
3 154 155 156
3 158 157 17
3 34 35 9
3 36 35 34
3 36 18 35
3 36 159 161
3 161 160 18
3 159 160 161
3 37 162 164
3 164 163 36
3 162 163 164
3 37 165 166
3 37 167 169
3 167 38 168
3 167 168 169
3 39 38 37
3 39 19 38
3 40 41 11
3 42 41 40
3 42 20 41
3 42 43 20
3 44 43 42
3 44 21 43
3 45 46 15
3 47 46 45
3 47 170 172
3 172 171 46
3 170 171 172
3 173 48 174
3 173 174 175
3 176 48 177
3 176 177 178
3 179 6 180
3 181 180 48
3 179 180 181
3 182 6 183
3 186 185 6
3 184 185 186
3 23 187 189
3 189 188 7
3 187 188 189
3 191 190 23
3 192 49 193
3 50 194 196
3 194 49 195
3 194 195 196
3 50 9 49
3 25 50 8
3 51 50 25
3 51 9 50
3 51 34 9
3 52 34 51
3 52 3 34
3 52 53 3
3 54 53 52
3 54 11 53
3 27 54 10
3 55 54 27
3 55 11 54
3 55 40 11
3 197 40 198
3 199 198 55
3 197 198 199
3 200 5 201
3 202 201 40
3 200 201 202
3 56 57 4
3 58 57 56
3 58 203 205
3 205 204 57
3 203 204 205
3 29 58 12
3 206 58 207
3 208 207 29
3 206 207 208
3 210 209 58
3 212 211 2
3 59 213 214
3 59 215 216
3 59 217 218
3 220 219 59
3 221 7 222
3 223 7 224
3 223 224 225
3 226 22 227
3 228 227 7
3 226 227 228
3 229 22 230
3 231 0 232
3 233 232 22
3 231 232 233
3 235 234 0
3 60 61 1
3 62 61 60
3 62 15 61
3 31 62 14
3 63 62 31
3 63 15 62
3 63 45 15
3 64 45 63
3 64 2 45
3 48 236 238
3 236 32 237
3 236 237 238
3 65 32 48
3 65 16 32
3 33 65 6
3 66 65 33
3 66 16 65
3 66 64 16
3 67 64 66
3 67 2 64
3 67 239 241
3 241 240 2
3 239 240 241
3 244 243 67
3 242 243 244
3 246 245 17
3 49 247 248
3 68 249 251
3 251 250 49
3 249 250 251
3 68 252 253
3 35 68 9
3 69 68 35
3 69 254 256
3 256 255 68
3 254 255 256
3 69 257 258
3 260 259 69
3 262 261 18
3 38 263 264
3 70 265 267
3 267 266 38
3 265 266 267
3 70 268 269
3 70 270 271
3 71 272 274
3 274 273 70
3 272 273 274
3 71 275 277
3 275 4 276
3 275 276 277
3 53 39 3
3 72 39 53
3 72 19 39
3 41 72 11
3 73 72 41
3 73 19 72
3 73 71 19
3 74 71 73
3 74 4 71
3 74 56 4
3 75 56 74
3 75 12 56
3 43 75 20
3 76 75 43
3 76 12 75
3 76 28 12
3 77 28 76
3 77 1 28
3 279 278 0
3 280 5 281
3 282 5 283
3 284 44 285
3 286 285 5
3 284 285 286
3 287 44 288
3 289 21 290
3 291 290 44
3 289 290 291
3 78 292 293
3 78 294 296
3 294 21 295
3 294 295 296
3 78 77 21
3 79 77 78
3 79 1 77
3 79 60 1
3 297 60 298
3 299 298 79
3 297 298 299
3 300 14 301
3 302 301 60
3 300 301 302
3 303 14 304
3 306 305 14
3 57 307 309
3 309 308 4
3 307 308 309
3 311 310 57
3 61 30 1
3 80 30 61
3 80 13 30
3 46 80 15
3 81 80 46
3 81 13 80
3 81 312 314
3 314 313 13
3 312 313 314
3 316 315 81
3 317 47 318
3 319 318 2
3 317 318 319
3 320 47 321
3 323 322 47
