ply
format ascii 1.0
element vertex 516
property float x
property float y
property float z
element face 493
property list uchar int vertex_index
end_header
-47.570267 -42.670341 48.502716
-59.345577 -26.194023 47.090256
-36.682423 -48.692543 57.291817
-46.972691 -35.53199 53.739986
-53.247913 -33.944904 48.152992
-42.128437 -39.328968 60.696468
-40.849613 -44.930809 51.265446
-64.855545 -26.093304 39.93103
-33.832932 -52.702679 64.800323
-50.773323 -31.294739 54.824169
-44.424946 -37.230598 57.111046
-51.697372 -42.290276 48.138386
-56.470978 -30.010551 47.806686
-56.966141 -33.870522 46.02533
-59.725143 -29.925747 44.833031
-62.16164 -25.96104 43.452759
-37.03833 -46.068962 62.458336
-35.102314 -48.028481 65.951828
-35.263351 -50.713337 61.032379
-36.989437 -51.527626 52.707569
-43.909885 -43.541908 49.468414
-46.532639 -38.81686 50.091316
-50.134743 -38.135033 48.369205
-49.896797 -34.442432 50.71785
-53.471634 -30.416359 51.14785
-39.866261 -41.504574 64.306534
-38.876507 -43.980194 58.83287
-38.460732 -46.712814 53.927608
-40.94215 -41.905975 55.403854
-43.465321 -40.102535 52.444157
-54.178123 -37.947601 47.154438
-64.069733 -21.906456 41.618423
-48.581093 -44.769035 48.457123
-50.665985 -44.578537 48.514568
-49.586533 -42.425892 48.268173
-57.977943 -28.095926 47.515961
-58.076435 -29.933014 46.281471
-59.474934 -27.99015 45.815197
-60.998901 -27.953342 44.181488
-60.748886 -26.040934 45.243912
-36.81789 -47.367325 59.836926
-36.02771 -48.387238 61.685272
-35.950134 -49.704281 59.138454
-35.284779 -52.030014 58.531799
-36.717155 -50.069351 54.890755
-45.672108 -43.039429 48.89119
-44.708729 -45.476635 48.733906
-46.587715 -45.065056 48.511997
-46.583405 -37.101974 51.686333
-48.150711 -36.583855 50.411503
-48.382812 -34.906708 52.177349
-55.144867 -28.516239 51.173935
-42.821983 -38.156937 63.476189
-41.009964 -40.426464 62.514084
-39.358028 -42.719658 61.547081
-40.388058 -41.64296 59.739071
-39.863014 -42.926903 57.073685
-41.453117 -40.572609 57.960236
-45.657673 -36.313515 55.3899
-43.807907 -38.602699 54.61459
-45.137474 -37.779152 53.090919
-44.929932 -39.384491 51.187885
-51.64809 -36.000332 48.269939
-52.112251 -37.990875 47.714508
-53.561176 -35.895199 47.388382
-58.890244 -33.946548 45.052513
-57.589386 -35.945389 45.85379
-61.54287 -36.278603 44.263115
-63.961723 -28.132851 40.988983
-62.803368 -22.094614 43.623505
-34.365891 -50.357746 65.300537
-33.41753 -51.308437 67.016296
-33.005543 -53.681339 66.617386
-32.671074 -56.039902 66.330193
-33.410885 -55.036373 64.413742
-39.570797 -45.784683 52.493885
-38.694675 -48.231262 51.899971
-39.943848 -47.39959 50.739712
-47.595314 -34.095055 56.121288
-43.256596 -38.249535 58.886654
-52.812935 -44.480682 48.615364
-54.875404 -31.95418 48.006824
-55.071835 -33.865871 47.044914
-56.593456 -31.885143 46.681496
-58.369347 -31.891815 45.440018
-60.162704 -31.968758 44.244621
-61.917389 -32.119774 43.047028
-61.377724 -29.991291 43.427307
-62.511883 -27.996307 42.584747
-63.547188 -25.972803 41.691284
-37.250946 -44.782001 65.092468
-36.099995 -45.738678 66.756348
-36.102577 -47.068245 64.239021
-35.224667 -49.384827 63.517208
-34.572933 -51.713512 62.930912
-34.064289 -54.031944 62.453636
-34.672836 -53.028755 60.480362
-42.29837 -44.17638 50.25642
-41.370163 -46.652382 49.827381
-42.963608 -46.007298 49.163345
-46.866425 -40.677597 49.028034
-48.761303 -40.357948 48.450115
-48.270119 -38.403687 49.154568
-49.840378 -36.221989 49.273071
-51.519096 -34.128834 49.374619
-50.246815 -32.80106 52.618355
-51.696648 -32.388912 50.978111
-53.239601 -32.114525 49.437603
-54.932655 -30.165874 49.427994
-56.531212 -28.26833 49.301464
-57.974579 -26.407339 49.007931
-38.661888 -42.535378 66.037651
-38.325344 -43.772655 63.344917
-37.94862 -45.03513 60.642345
-37.641827 -46.333954 58.014355
-37.506599 -47.689606 55.539665
-38.543709 -45.303528 56.263695
-39.559864 -44.299809 54.628197
-40.715408 -43.352085 53.142876
-42.58511 -39.545933 56.243729
-42.138145 -40.952789 53.853733
-42.023678 -42.491676 51.831825
-43.488033 -41.747185 50.708218
-45.104908 -41.139427 49.775505
-50.773502 -40.165794 48.013702
-52.878937 -40.080482 47.676079
-55.041862 -40.081879 47.37949
-55.554893 -35.882671 46.598442
-57.212498 -40.156441 47.054543
-60.532227 -24.292334 46.483826
-61.865929 -24.076134 44.525833
-65.656441 -24.022743 38.823429
-37.62318 -49.12751 53.293232
-38.041065 -50.673035 51.345707
-40.680462 -49.153 49.409023
-36.316469 -49.866692 56.972178
-35.950325 -50.372561 57.895496
-36.316278 -49.198412 58.215136
-36.699789 -49.380947 56.091286
-36.333835 -50.555096 55.771647
-36.316469 -49.866692 56.972178
-59.249493 -35.011451 45.07428
-59.838822 -34.019356 44.562799
-61.165135 -35.185383 44.168101
-60.575806 -36.177479 44.679581
-62.065012 -35.296097 43.646925
-61.165135 -35.185383 44.168101
-65.070046 -27.233374 39.64592
-64.623135 -28.253147 40.174896
-64.408634 -27.113077 40.460006
-65.44051 -26.212609 39.039696
-65.070046 -27.233374 39.64592
-48.555943 -33.026946 56.427284
-47.948397 -33.436129 57.389469
-47.948397 -33.436129 57.389469
-46.981289 -34.532481 57.032247
-52.783714 -42.268105 48.094002
-53.341496 -43.363308 48.332491
-52.255154 -43.385479 48.376875
-35.009829 -53.17994 58.260773
-35.326092 -52.69753 57.302853
-36.735928 -52.715452 52.43227
-36.54796 -51.977989 53.502403
-37.265171 -52.312334 51.763472
-36.735928 -52.715452 52.43227
-44.341019 -46.723568 48.638742
-45.264059 -46.502128 48.598463
-50.510069 -32.047899 53.721262
-49.565133 -33.084658 53.479073
-49.828387 -32.331497 54.58198
-52.584141 -31.402635 51.06298
-51.892149 -31.587064 51.966007
-52.779642 -30.600788 52.050877
-56.588821 -27.473555 50.150701
-55.838039 -28.392284 50.2377
-55.895649 -27.59751 51.086937
-57.310505 -26.543059 50.003935
-57.252895 -27.337834 49.154697
-56.588821 -27.473555 50.150701
-40.070666 -40.916437 65.653553
-40.727463 -40.384409 64.789929
-39.264074 -42.019976 65.172092
-39.468479 -41.431839 66.519112
-40.070666 -40.916437 65.653553
-56.941777 -36.965263 46.245514
-57.998112 -37.01886 45.976505
-57.809668 -39.124386 46.576881
-56.753332 -39.07079 46.845891
-58.269869 -40.22851 46.841115
-57.809668 -39.124386 46.576881
-62.740816 -32.236673 42.422216
-62.448566 -31.12931 42.53437
-61.020468 -23.337947 46.070671
-60.371087 -23.51697 47.108177
-61.687319 -23.229847 45.091674
-61.199078 -24.184234 45.504829
-61.020468 -23.337947 46.070671
-63.630161 -22.925108 42.114196
-62.996979 -23.019187 43.116737
-63.43655 -22.000535 42.620964
-64.270001 -22.913127 41.167171
-63.630161 -22.925108 42.114196
-66.008556 -22.978958 38.23118
-65.463989 -22.935083 39.225493
-66.173119 -24.141014 37.871178
-66.008556 -22.978958 38.23118
-34.974746 -47.336067 67.134373
-35.473587 -46.191166 67.536632
-35.601154 -46.883579 66.354088
-32.652386 -57.847364 65.081253
-32.489548 -57.199309 66.205425
-32.833912 -56.687958 65.20602
-33.83209 -55.176167 62.246864
-34.113439 -54.674324 61.224135
-38.65662 -50.274994 50.793434
-38.36787 -49.452148 51.622839
-38.983425 -49.054108 51.070566
-38.408127 -51.509764 50.552655
-38.65662 -50.274994 50.793434
-41.467014 -48.833565 49.128814
-41.025312 -47.902691 49.618202
-41.811865 -47.583256 49.337993
-49.623539 -44.673786 48.485845
-50.235821 -45.759025 48.648197
-49.193375 -45.854275 48.619475
-35.617648 -51.535427 57.592168
-35.617457 -50.867148 58.835127
-35.950325 -50.372561 57.895496
-35.326092 -52.69753 57.302853
-35.617648 -51.535427 57.592168
-36.411819 -51.248852 54.593996
-36.333835 -50.555096 55.771647
-36.853296 -50.798488 53.799162
-36.54796 -51.977989 53.502403
-36.411819 -51.248852 54.593996
-46.203552 -46.296339 48.487509
-45.264059 -46.502128 48.598463
-45.648222 -45.270846 48.622951
-47.179327 -46.125292 48.537033
-46.203552 -46.296339 48.487509
-48.176016 -45.977282 48.509596
-47.179327 -46.125292 48.537033
-47.584404 -44.917046 48.48456
-49.193375 -45.854275 48.619475
-48.176016 -45.977282 48.509596
-51.430487 -31.039978 53.889036
-51.66004 -30.307054 54.971882
-53.645298 -29.637476 52.134407
-52.779642 -30.600788 52.050877
-54.481915 -28.687416 52.14745
-54.30825 -29.466299 51.160893
-53.645298 -29.637476 52.134407
-55.253563 -27.767691 52.114815
-54.481915 -28.687416 52.14745
-55.895649 -27.59751 51.086937
-55.253563 -27.767691 52.114815
-42.205324 -38.71059 64.374756
-43.102808 -37.6036 64.813382
-41.299314 -39.845354 63.893704
-42.205324 -38.71059 64.374756
-41.915973 -39.291701 62.995137
-40.438113 -40.965519 63.410309
-40.727463 -40.384409 64.789929
-41.299314 -39.845354 63.893704
-58.599064 -36.010872 45.474918
-58.239815 -34.945968 45.453151
-59.249493 -35.011451 45.07428
-57.998112 -37.01886 45.976505
-58.599064 -36.010872 45.474918
-60.995579 -37.273674 44.867894
-60.575806 -36.177479 44.679581
-61.941664 -37.400383 44.47963
-60.995579 -37.273674 44.867894
-62.427477 -36.419831 43.78132
-61.941664 -37.400383 44.47963
-62.427477 -36.419831 43.78132
-62.065012 -35.296097 43.646925
-64.213097 -29.25572 40.781501
-63.470733 -29.135849 41.505348
-64.213097 -29.25572 40.781501
-64.623135 -28.253147 40.174896
-62.532488 -21.280389 44.105225
-62.156039 -22.239087 44.640511
-63.176789 -21.098956 43.067467
-62.532488 -21.280389 44.105225
-63.809971 -21.004877 42.064926
-63.43655 -22.000535 42.620964
-63.176789 -21.098956 43.067467
-34.186907 -49.655134 66.439617
-34.555118 -48.490502 66.765263
-34.734102 -49.193113 65.626182
-33.712727 -50.130479 67.297496
-34.186907 -49.655134 66.439617
-33.891711 -50.833091 66.158417
-33.110138 -50.57835 68.066818
-33.712727 -50.130479 67.297496
-32.887802 -51.775325 67.837174
-33.110138 -50.57835 68.066818
-32.681809 -52.961776 67.637719
-32.887802 -51.775325 67.837174
-33.211537 -52.494888 66.816841
-32.534832 -54.16639 67.492554
-32.681809 -52.961776 67.637719
-32.838308 -54.86062 66.473789
-32.367598 -55.345671 67.348957
-32.534832 -54.16639 67.492554
-33.203817 -56.186194 64.247795
-32.833912 -56.687958 65.20602
-33.040979 -55.538137 65.371967
-39.608012 -48.638272 50.490437
-38.983425 -49.054108 51.070566
-39.319261 -47.815426 51.319841
-48.239382 -33.731656 55.230539
-47.928071 -34.450123 54.039888
-47.284002 -34.813523 54.930637
-48.239382 -33.731656 55.230539
-48.555943 -33.026946 56.427284
-50.144947 -31.626787 55.778724
-49.828387 -32.331497 54.58198
-51.0452 -30.607454 55.983164
-50.144947 -31.626787 55.778724
-51.66004 -30.307054 54.971882
-51.0452 -30.607454 55.983164
-43.751053 -37.035729 63.908894
-43.102808 -37.6036 64.813382
-43.414963 -37.599874 62.557743
-43.751053 -37.035729 63.908894
-43.06819 -38.18589 61.167883
-42.47521 -38.742953 62.086329
-43.414963 -37.599874 62.557743
-43.632269 -37.646174 60.262975
-42.692516 -38.789252 59.791561
-43.06819 -38.18589 61.167883
-44.218167 -37.107533 59.337445
-43.632269 -37.646174 60.262975
-44.802341 -36.598064 58.449641
-43.840771 -37.740066 57.99885
-44.218167 -37.107533 59.337445
-45.396105 -36.100252 57.527127
-44.802341 -36.598064 58.449641
-46.012468 -35.641711 56.666553
-45.041309 -36.772057 56.250473
-45.396105 -36.100252 57.527127
-46.626494 -35.204285 55.755594
-46.012468 -35.641711 56.666553
-46.981289 -34.532481 57.032247
-51.281643 -45.680537 48.782016
-50.235821 -45.759025 48.648197
-52.355118 -45.631609 48.832414
-51.281643 -45.680537 48.782016
-51.73946 -44.529609 48.564966
-53.412861 -45.594535 48.947931
-52.355118 -45.631609 48.832414
-53.897915 -44.472517 48.647196
-53.412861 -45.594535 48.947931
-53.897915 -44.472517 48.647196
-53.341496 -43.363308 48.332491
-60.475051 -33.030461 44.158854
-59.838822 -34.019356 44.562799
-59.526474 -32.957653 44.648567
-61.040047 -32.044266 43.645825
-61.352394 -33.105969 43.560057
-60.475051 -33.030461 44.158854
-62.178734 -30.065069 42.72451
-62.448566 -31.12931 42.53437
-61.647557 -31.055532 43.237167
-62.745813 -29.067577 42.30323
-62.178734 -30.065069 42.72451
-61.944803 -28.993799 43.006027
-63.236803 -28.064579 41.786865
-63.470733 -29.135849 41.505348
-62.745813 -29.067577 42.30323
-36.675471 -45.26034 65.924408
-36.732975 -44.620781 67.215424
-37.30845 -44.142443 66.383484
-34.417713 -54.17273 60.237498
-34.113439 -54.674324 61.224135
-34.368562 -53.530349 61.466999
-34.703857 -53.67931 59.235054
-34.978808 -52.529384 59.50608
-35.009829 -53.17994 58.260773
-34.417713 -54.17273 60.237498
-34.703857 -53.67931 59.235054
-42.608587 -47.260714 49.005975
-41.811865 -47.583256 49.337993
-42.166885 -46.32984 49.495363
-43.468458 -46.9889 48.853462
-43.836168 -45.741967 48.948625
-44.341019 -46.723568 48.638742
-42.608587 -47.260714 49.005975
-43.468458 -46.9889 48.853462
-48.633131 -34.137482 53.25857
-47.677751 -35.219349 52.958668
-47.928071 -34.450123 54.039888
-49.314813 -33.853884 52.397852
-48.633131 -34.137482 53.25857
-49.565133 -33.084658 53.479073
-51.167232 -31.793138 52.786129
-50.510069 -32.047899 53.721262
-51.430487 -31.039978 53.889036
-50.971732 -32.594986 51.798233
-51.167232 -31.793138 52.786129
-51.892149 -31.587064 51.966007
-38.757597 -41.929773 67.332729
-39.468479 -41.431839 66.519112
-38.013921 -43.019131 66.856076
-38.757597 -41.929773 67.332729
-37.956417 -43.65869 65.565059
-37.30845 -44.142443 66.383484
-38.013921 -43.019131 66.856076
-53.374496 -41.163208 47.862848
-52.783714 -42.268105 48.094002
-52.288155 -41.185379 47.907232
-54.455959 -41.163906 47.714554
-53.374496 -41.163208 47.862848
-53.9604 -40.081181 47.527784
-55.550817 -41.180554 47.65307
-54.455959 -41.163906 47.714554
-55.92453 -36.933904 46.61784
-56.572139 -35.91403 46.226116
-56.941777 -36.965263 46.245514
-55.236145 -37.966369 46.895838
-54.866508 -36.915136 46.87644
-55.92453 -36.933904 46.61784
-55.668014 -39.033508 47.008364
-54.609993 -39.01474 47.266964
-55.236145 -37.966369 46.895838
-56.12718 -40.11916 47.217016
-55.668014 -39.033508 47.008364
-56.753332 -39.07079 46.845891
-56.636135 -41.217835 47.490597
-55.550817 -41.180554 47.65307
-56.12718 -40.11916 47.217016
-57.710722 -41.270523 47.37225
-57.134359 -42.331917 47.808304
-56.636135 -41.217835 47.490597
-57.710722 -41.270523 47.37225
-58.269869 -40.22851 46.841115
-62.252271 -33.216683 43.038882
-61.352394 -33.105969 43.560057
-62.252271 -33.216683 43.038882
-62.740816 -32.236673 42.422216
-57.946506 -25.649793 49.790617
-57.310505 -26.543059 50.003935
-58.593559 -25.488259 48.7531
-57.946506 -25.649793 49.790617
-59.279058 -25.381601 47.794262
-58.660078 -26.300681 48.049093
-58.593559 -25.488259 48.7531
-59.872383 -24.430756 47.491047
-60.371087 -23.51697 47.108177
-59.938902 -25.243178 46.787041
-59.279058 -25.381601 47.794262
-59.872383 -24.430756 47.491047
-62.334649 -23.085374 44.074669
-61.687319 -23.229847 45.091674
-62.156039 -22.239087 44.640511
-62.52826 -24.009947 43.567901
-62.334649 -23.085374 44.074669
-62.996979 -23.019187 43.116737
-62.676115 -24.9524 43.031364
-62.013784 -25.018587 43.989296
-62.52826 -24.009947 43.567901
-63.368889 -24.958281 42.150627
-62.854414 -25.966921 42.572022
-62.676115 -24.9524 43.031364
-64.008728 -24.9463 41.203602
-63.368889 -24.958281 42.150627
-64.662907 -25.006551 40.323475
-64.201367 -26.033054 40.811157
-64.008728 -24.9463 41.203602
-64.430146 -20.884845 41.035394
-63.809971 -21.004877 42.064926
-64.670636 -21.87694 40.62299
-64.430146 -20.884845 41.035394
-64.270001 -22.913127 41.167171
-64.670636 -21.87694 40.62299
-65.063355 -23.97127 39.769674
-65.463989 -22.935083 39.225493
-65.255993 -25.058023 39.377229
-64.662907 -25.006551 40.323475
-65.063355 -23.97127 39.769674
-65.840958 -25.177329 38.485895
-65.44051 -26.212609 39.039696
-65.255993 -25.058023 39.377229
-65.840958 -25.177329 38.485895
-66.173119 -24.141014 37.871178
-36.028571 -45.07101 67.975739
-36.732975 -44.620781 67.215424
-36.028571 -45.07101 67.975739
-35.473587 -46.191166 67.536632
-34.974746 -47.336067 67.134373
-34.555118 -48.490502 66.765263
-32.242015 -56.54046 67.254368
-32.367598 -55.345671 67.348957
-32.242015 -56.54046 67.254368
-32.489548 -57.199309 66.205425
-33.505388 -55.678381 63.226917
-33.737587 -54.534159 63.433689
-33.83209 -55.176167 62.246864
-33.203817 -56.186194 64.247795
-33.505388 -55.678381 63.226917
-37.790985 -51.885039 51.082541
-37.265171 -52.312334 51.763472
-37.515251 -51.10033 52.026638
-37.790985 -51.885039 51.082541
-38.408127 -51.509764 50.552655
-39.976318 -49.514977 49.825092
-39.608012 -48.638272 50.490437
-40.312155 -48.276295 50.074367
-41.211314 -50.09721 48.962572
-41.467014 -48.833565 49.128814
-40.4305 -50.405931 49.200737
-41.211314 -50.09721 48.962572
-39.976318 -49.514977 49.825092
-40.4305 -50.405931 49.200737
3 0 34 32
3 1 37 35
3 1 39 37
3 2 42 40
3 2 135 137
3 137 136 42
3 135 136 137
3 2 138 140
3 138 44 139
3 138 139 140
3 0 47 45
3 0 32 47
3 3 50 48
3 5 53 52
3 5 55 53
3 5 57 55
3 3 60 58
3 3 48 60
3 4 64 62
3 142 141 65
3 143 67 144
3 146 145 67
3 7 147 149
3 149 148 68
3 147 148 149
3 7 150 151
3 8 71 70
3 8 72 71
3 8 74 72
3 6 77 75
3 153 152 78
3 154 78 155
3 11 80 33
3 11 156 158
3 158 157 80
3 156 157 158
3 12 83 81
3 14 84 36
3 14 85 84
3 14 87 85
3 15 88 38
3 15 89 88
3 16 92 90
3 18 93 41
3 18 94 93
3 18 96 94
3 160 159 43
3 19 161 162
3 19 163 164
3 20 99 97
3 166 165 46
3 21 102 100
3 23 103 49
3 23 104 103
3 9 167 169
3 167 105 168
3 167 168 169
3 24 170 172
3 170 106 171
3 170 171 172
3 24 107 106
3 24 108 107
3 173 109 174
3 175 174 51
3 173 174 175
3 176 110 177
3 178 177 109
3 176 177 178
3 25 179 180
3 25 181 183
3 181 111 182
3 181 182 183
3 25 112 111
3 26 113 54
3 26 114 113
3 26 116 114
3 28 117 56
3 28 118 117
3 10 119 79
3 29 120 59
3 29 121 120
3 29 122 121
3 21 123 61
3 21 100 123
3 22 124 101
3 30 125 63
3 30 126 125
3 13 127 82
3 185 184 66
3 186 128 187
3 189 188 128
3 191 190 86
3 192 129 193
3 194 130 195
3 196 195 129
3 194 195 196
3 31 197 199
3 199 198 69
3 197 198 199
3 31 200 201
3 202 131 203
3 205 204 131
3 17 206 208
3 208 207 91
3 206 207 208
3 211 210 73
3 209 210 211
3 213 212 95
3 27 132 115
3 214 133 215
3 216 215 76
3 214 215 216
3 218 217 133
3 219 134 220
3 221 220 98
3 219 220 221
3 32 222 224
3 222 33 223
3 222 223 224
3 34 33 32
3 34 11 33
3 35 36 12
3 37 36 35
3 37 14 36
3 37 38 14
3 39 38 37
3 39 15 38
3 40 41 16
3 42 41 40
3 42 18 41
3 42 43 18
3 225 43 226
3 227 226 42
3 225 226 227
3 229 228 43
3 44 230 231
3 44 232 234
3 232 19 233
3 232 233 234
3 45 46 20
3 47 46 45
3 47 235 237
3 237 236 46
3 235 236 237
3 47 238 239
3 32 240 242
3 242 241 47
3 240 241 242
3 32 243 244
3 48 49 21
3 50 49 48
3 50 23 49
3 246 245 9
3 247 24 248
3 249 51 250
3 251 250 24
3 249 250 251
3 252 51 253
3 255 254 51
3 52 256 257
3 53 258 260
3 260 259 52
3 258 259 260
3 53 261 263
3 261 25 262
3 261 262 263
3 53 54 25
3 55 54 53
3 55 26 54
3 55 56 26
3 57 56 55
3 57 28 56
3 58 59 10
3 60 59 58
3 60 29 59
3 60 61 29
3 48 61 60
3 48 21 61
3 62 63 22
3 64 63 62
3 64 30 63
3 65 66 13
3 264 66 265
3 266 265 65
3 264 265 266
3 268 267 66
3 67 269 270
3 67 271 272
3 67 273 274
3 276 275 67
3 68 277 278
3 280 279 68
3 281 69 282
3 283 69 284
3 285 31 286
3 287 286 69
3 285 286 287
3 70 288 290
3 290 289 17
3 288 289 290
3 71 291 293
3 293 292 70
3 291 292 293
3 71 294 295
3 71 296 297
3 72 298 300
3 300 299 71
3 298 299 300
3 72 301 302
3 72 303 305
3 303 73 304
3 303 304 305
3 74 73 72
3 74 306 308
3 308 307 73
3 306 307 308
3 75 76 27
3 77 76 75
3 77 309 311
3 311 310 76
3 309 310 311
3 78 312 314
3 314 313 3
3 312 313 314
3 316 315 78
3 317 9 318
3 319 9 320
3 322 321 9
3 323 52 324
3 325 52 326
3 327 5 328
3 329 328 52
3 327 328 329
3 330 79 331
3 332 331 5
3 330 331 332
3 333 79 334
3 335 10 336
3 337 336 79
3 335 336 337
3 338 10 339
3 340 58 341
3 342 341 10
3 340 341 342
3 78 343 345
3 343 58 344
3 343 344 345
3 78 3 58
3 33 346 347
3 80 348 350
3 350 349 33
3 348 349 350
3 80 351 352
3 80 353 354
3 356 355 80
3 81 82 4
3 83 82 81
3 83 13 82
3 36 83 12
3 84 83 36
3 84 13 83
3 84 65 13
3 85 65 84
3 85 357 359
3 359 358 65
3 357 358 359
3 85 360 362
3 360 86 361
3 360 361 362
3 87 86 85
3 87 363 365
3 365 364 86
3 363 364 365
3 38 87 14
3 88 87 38
3 88 366 368
3 368 367 87
3 366 367 368
3 88 369 371
3 369 68 370
3 369 370 371
3 89 68 88
3 89 7 68
3 90 372 374
3 372 91 373
3 372 373 374
3 92 91 90
3 92 17 91
3 41 92 16
3 93 92 41
3 93 17 92
3 93 70 17
3 94 70 93
3 94 8 70
3 94 95 8
3 96 95 94
3 96 375 377
3 377 376 95
3 375 376 377
3 43 96 18
3 378 96 379
3 380 379 43
3 378 379 380
3 382 381 96
3 97 98 6
3 99 98 97
3 99 383 385
3 385 384 98
3 383 384 385
3 46 99 20
3 386 99 387
3 388 387 46
3 386 387 388
3 390 389 99
3 100 101 0
3 102 101 100
3 102 22 101
3 49 102 21
3 103 102 49
3 103 22 102
3 103 62 22
3 104 62 103
3 104 4 62
3 391 50 392
3 393 392 3
3 391 392 393
3 105 394 396
3 394 50 395
3 394 395 396
3 105 23 50
3 397 105 398
3 399 398 9
3 397 398 399
3 106 400 402
3 400 105 401
3 400 401 402
3 106 23 105
3 106 104 23
3 107 104 106
3 107 4 104
3 107 81 4
3 108 81 107
3 108 12 81
3 51 108 24
3 109 108 51
3 109 12 108
3 109 35 12
3 110 35 109
3 110 1 35
3 111 403 404
3 111 405 406
3 111 407 409
3 407 90 408
3 407 408 409
3 112 90 111
3 112 16 90
3 54 112 25
3 113 112 54
3 113 16 112
3 113 40 16
3 114 40 113
3 114 2 40
3 114 115 2
3 116 115 114
3 116 27 115
3 56 116 26
3 117 116 56
3 117 27 116
3 117 75 27
3 118 75 117
3 118 6 75
3 79 57 5
3 119 57 79
3 119 28 57
3 59 119 10
3 120 119 59
3 120 28 119
3 120 118 28
3 121 118 120
3 121 6 118
3 121 97 6
3 122 97 121
3 122 20 97
3 61 122 29
3 123 122 61
3 123 20 122
3 123 45 20
3 100 45 123
3 100 0 45
3 101 34 0
3 124 34 101
3 124 11 34
3 63 124 22
3 125 124 63
3 125 11 124
3 125 410 412
3 412 411 11
3 410 411 412
3 126 413 415
3 415 414 125
3 413 414 415
3 126 416 417
3 82 64 4
3 127 64 82
3 127 30 64
3 66 127 13
3 418 127 419
3 420 419 66
3 418 419 420
3 421 30 422
3 423 422 127
3 421 422 423
3 424 126 425
3 426 425 30
3 424 425 426
3 128 427 429
3 427 126 428
3 427 428 429
3 128 430 432
3 432 431 126
3 430 431 432
3 128 433 435
3 433 434 435
3 437 436 128
3 86 438 439
3 441 440 86
3 442 110 443
3 444 110 445
3 446 1 447
3 448 447 110
3 446 447 448
3 129 449 450
3 129 451 453
3 451 1 452
3 451 452 453
3 129 39 1
3 130 39 129
3 130 15 39
3 69 454 456
3 454 130 455
3 454 455 456
3 457 130 458
3 459 458 69
3 457 458 459
3 460 15 461
3 462 461 130
3 460 461 462
3 463 89 464
3 465 464 15
3 463 464 465
3 466 89 467
3 468 7 469
3 470 469 89
3 468 469 470
3 471 31 472
3 473 31 474
3 476 475 31
3 131 477 478
3 131 479 481
3 479 7 480
3 479 480 481
3 131 482 484
3 484 483 7
3 482 483 484
3 486 485 131
3 91 487 488
3 490 489 91
3 492 491 17
3 73 493 494
3 496 495 73
3 95 74 8
3 497 74 498
3 499 498 95
3 497 498 499
3 501 500 74
3 115 44 2
3 132 44 115
3 132 19 44
3 76 132 27
3 133 132 76
3 133 19 132
3 133 502 504
3 504 503 19
3 502 503 504
3 506 505 133
3 98 77 6
3 134 77 98
3 134 507 509
3 509 508 77
3 507 508 509
3 510 134 511
3 512 134 513
3 515 514 134
