ply
format ascii 1.0
element vertex 121
property float x
property float y
property float z
element face 105
property list uchar int vertex_index
end_header
9.123188 -100.854187 42.884499
8.1049 -104.870918 38.885803
7.142529 -101.362465 37.642426
10.803829 -103.17907 43.560825
10.239025 -106.868782 38.406265
8.140327 -97.17942 40.841885
8.760494 -102.892929 41.02803
7.482359 -103.274223 38.44783
8.208998 -101.234459 40.343281
9.808517 -100.207718 45.27169
10.703533 -101.247589 45.690628
9.861813 -102.219765 43.435875
9.556488 -104.188423 41.30954
6.555428 -105.252968 36.273701
6.126266 -103.394638 35.694691
11.234041 -99.994675 47.828323
11.761805 -101.846939 45.6744
11.94833 -103.680382 43.218086
10.604719 -105.060257 41.128571
9.027622 -106.087257 38.882538
9.063496 -98.785606 44.481102
8.564241 -99.149055 41.986423
8.435499 -97.052574 43.409096
7.867287 -99.283676 39.347656
7.330164 -105.061943 37.579752
6.940983 -106.01577 36.360415
7.715719 -105.824745 37.666466
6.577355 -101.316223 36.217968
6.069223 -102.33231 35.244101
6.634398 -102.378552 36.668559
10.723962 -99.647385 47.67796
10.779188 -99.074318 48.758987
7.715719 -105.824745 37.666466
8.17708 -106.432914 37.664833
8.566261 -105.479087 38.88417
10.970948 -107.023758 37.942207
11.062934 -106.166172 39.439442
8.47919 -96.888855 44.630054
8.749498 -97.91909 43.945099
8.793188 -97.755371 45.166058
8.793188 -97.755371 45.166058
9.190445 -98.487381 45.661972
10.256025 -100.727654 45.481159
10.458709 -100.273842 46.609112
10.011201 -99.753906 46.399643
10.046789 -107.736553 36.920642
9.337816 -107.39022 37.286743
7.909883 -97.147403 39.494436
7.967651 -96.100696 40.196787
6.087437 -106.217594 35.042147
6.472992 -106.980396 35.128861
6.940983 -106.01577 36.360415
5.787056 -105.31931 34.875819
6.087437 -106.217594 35.042147
5.572475 -104.390144 34.586314
5.787056 -105.31931 34.875819
6.340847 -104.323803 35.984196
5.459371 -103.349591 34.240626
4.905579 -104.345097 33.132248
5.572475 -104.390144 34.586314
5.459371 -103.349591 34.240626
6.069223 -102.33231 35.244101
11.338731 -99.248196 48.86264
10.779188 -99.074318 48.758987
11.808159 -100.110928 47.763759
11.912848 -99.364449 48.798077
11.338731 -99.248196 48.86264
10.968787 -100.621132 46.759475
10.723962 -99.647385 47.67796
10.458709 -100.273842 46.609112
12.072041 -101.037059 46.686798
11.808159 -100.110928 47.763759
11.497923 -100.920807 46.751362
12.368734 -101.907139 45.437692
12.072041 -101.037059 46.686798
12.461996 -102.82386 44.209536
12.368734 -101.907139 45.437692
11.855068 -102.763661 44.446243
12.610454 -103.686943 42.817022
12.461996 -102.82386 44.209536
11.917587 -104.571972 41.845352
12.579711 -104.578533 41.444288
12.610454 -103.686943 42.817022
11.245781 -105.26191 40.800595
11.917587 -104.571972 41.845352
11.276525 -104.370319 42.173328
10.421872 -105.964519 39.767418
11.062934 -106.166172 39.439442
11.245781 -105.26191 40.800595
8.732114 -106.999458 37.524879
9.337816 -107.39022 37.286743
9.633323 -106.478019 38.644402
8.732114 -106.999458 37.524879
8.17708 -106.432914 37.664833
10.970948 -107.023758 37.942207
10.046789 -107.736553 36.920642
8.115956 -96.016853 44.026249
8.47919 -96.888855 44.630054
8.15745 -96.069008 42.781357
8.115956 -96.016853 44.026249
7.837907 -95.033288 43.39851
8.009863 -96.132431 41.497751
8.287913 -97.115997 42.12549
8.15745 -96.069008 42.781357
7.967651 -96.100696 40.196787
8.009863 -96.132431 41.497751
9.562956 -99.198437 46.057266
10.011201 -99.753906 46.399643
9.436007 -99.496662 44.876396
9.562956 -99.198437 46.057266
9.190445 -98.487381 45.661972
7.773364 -98.199532 38.747322
8.003807 -98.231548 40.09477
7.909883 -97.147403 39.494436
7.453794 -99.245083 37.958715
7.773364 -98.199532 38.747322
7.091416 -100.284478 37.1061
7.504908 -100.323071 38.495041
7.453794 -99.245083 37.958715
6.577355 -101.316223 36.217968
7.091416 -100.284478 37.1061
3 0 8 6
3 0 11 9
3 0 6 11
3 1 24 26
3 24 13 25
3 24 25 26
3 2 14 7
3 2 27 29
3 29 28 14
3 27 28 29
3 30 15 31
3 3 16 10
3 3 17 16
3 3 18 17
3 1 19 12
3 1 32 34
3 34 33 19
3 32 33 34
3 4 35 36
3 37 22 38
3 39 38 20
3 37 38 39
3 40 20 41
3 5 23 21
3 6 7 1
3 8 7 6
3 8 2 7
3 9 42 44
3 42 10 43
3 42 43 44
3 11 10 9
3 11 3 10
3 11 12 3
3 6 12 11
3 6 1 12
3 46 45 4
3 48 47 5
3 13 49 51
3 49 50 51
3 13 52 53
3 7 13 1
3 14 13 7
3 14 54 56
3 56 55 13
3 54 55 56
3 14 57 59
3 57 58 59
3 61 60 14
3 15 62 63
3 15 64 66
3 64 65 66
3 10 67 69
3 67 15 68
3 67 68 69
3 16 15 10
3 16 70 72
3 72 71 15
3 70 71 72
3 16 73 74
3 17 75 77
3 77 76 16
3 75 76 77
3 17 78 79
3 17 80 82
3 80 81 82
3 18 83 85
3 85 84 17
3 83 84 85
3 18 86 88
3 86 4 87
3 86 87 88
3 12 18 3
3 19 18 12
3 19 4 18
3 19 89 91
3 91 90 4
3 89 90 91
3 93 92 19
3 95 94 4
3 20 21 0
3 22 21 20
3 22 5 21
3 96 22 97
3 98 22 99
3 98 99 100
3 101 5 102
3 103 102 22
3 101 102 103
3 105 104 5
3 106 9 107
3 20 108 110
3 108 9 109
3 108 109 110
3 20 0 9
3 21 8 0
3 23 8 21
3 23 2 8
3 111 23 112
3 113 112 5
3 111 112 113
3 114 23 115
3 116 2 117
3 118 117 23
3 116 117 118
3 120 119 2
