ply
format ascii 1.0
element vertex 183
property float x
property float y
property float z
element face 161
property list uchar int vertex_index
end_header
3.15085 78.846687 6.767364
2.292236 73.244095 21.189398
2.820906 76.427002 13.947184
2.949896 70.295914 15.034483
3.150215 72.770821 8.033195
3.171421 81.981827 12.882952
2.585194 67.015938 22.029894
3.720549 84.228256 5.55172
3.021397 77.728706 10.344223
3.041321 74.712929 10.913624
3.137159 75.845383 7.377645
3.139925 73.724701 4.560883
3.14632 76.798729 3.869741
2.18099 68.231155 25.127579
2.428106 70.162079 21.592678
3.043751 68.534088 12.226919
2.95223 67.179878 15.681427
5.203552 87.179245 7.94082
4.474815 86.362206 4.916737
2.570585 74.935028 17.5667
2.665804 71.879539 18.034163
2.877064 73.3936 14.469584
3.08049 71.63063 11.527806
3.086227 69.684608 8.774676
3.061396 70.637543 5.336679
2.884417 79.322258 13.428679
3.130928 80.595078 9.782088
1.936798 66.075897 28.619385
2.38341 65.056602 25.485489
2.689939 63.846313 22.54002
2.778738 68.759903 18.540337
2.829378 65.618317 19.124384
3.770126 84.294662 12.292664
3.478096 83.204544 9.199313
3.308237 81.680511 6.166583
3.889191 85.047546 1.945683
3.403221 82.578568 2.587207
3.193176 79.785782 3.222733
2.360171 71.703087 21.391038
2.2165 70.752601 23.195491
2.148565 72.29361 22.993851
2.953997 66.989746 12.63721
2.956963 67.574333 10.933715
5.411537 87.572162 6.107633
5.924373 87.758754 7.617214
5.047168 87.163643 4.595592
4.839184 86.770725 6.428778
5.411537 87.572162 6.107633
3.046875 72.563923 3.242029
3.087845 74.113811 2.839756
3.027919 80.652042 13.155815
2.851694 79.942104 15.012059
2.995197 81.271889 14.739195
1.829917 67.647628 28.496592
1.696575 66.468204 30.257171
2.826554 64.84156 17.784945
2.890804 66.399098 17.402905
2.88798 65.622341 16.063466
2.795953 64.045968 19.47238
2.826554 64.84156 17.784945
4.253952 85.223045 11.975375
4.002791 84.593658 13.854403
3.599322 83.7164 7.375516
3.814647 84.320999 8.891432
3.935874 84.832855 7.067635
3.938716 85.350902 0.166507
4.312356 86.053348 1.622839
3.27269 81.563859 1.150648
3.408925 82.932488 0.817536
3.278394 81.917778 -0.619023
3.167667 80.167465 1.468411
3.298198 81.182175 2.90497
3.27269 81.563859 1.150648
3.125694 78.683403 1.808982
3.167667 80.167465 1.468411
3.091042 75.650825 2.494185
3.087845 74.113811 2.839756
3.143122 75.261715 4.215312
3.259611 82.461388 14.459596
2.995197 81.271889 14.739195
2.092942 69.787139 24.962941
1.952013 68.725257 26.750689
2.304548 69.196617 23.360129
2.092942 69.787139 24.962941
2.2165 70.752601 23.195491
2.908237 66.312641 14.364463
2.997991 67.856983 13.954173
2.953997 66.989746 12.63721
2.88798 65.622341 16.063466
2.908237 66.312641 14.364463
5.647124 87.320011 9.468849
5.924373 87.758754 7.617214
4.970665 86.665336 9.799453
5.647124 87.320011 9.468849
4.677376 86.308349 8.262186
4.970665 86.665336 9.799453
4.313007 85.89983 6.750144
4.677376 86.308349 8.262186
4.839184 86.770725 6.428778
4.097682 85.295231 5.234229
3.935874 84.832855 7.067635
4.313007 85.89983 6.750144
2.978201 68.149593 9.207593
2.956963 67.574333 10.933715
3.064989 69.109348 10.500798
2.956093 68.629386 7.506094
2.978201 68.149593 9.207593
2.943677 69.105854 5.787096
2.956093 68.629386 7.506094
3.073811 70.161075 7.055677
2.88912 69.484398 4.093675
2.943677 69.105854 5.787096
3.007611 71.020344 3.629927
3.100661 72.181122 4.948781
3.046875 72.563923 3.242029
2.88912 69.484398 4.093675
3.007611 71.020344 3.629927
2.114511 73.787789 22.822651
2.148565 72.29361 22.993851
2.279211 74.721432 20.984409
2.114511 73.787789 22.822651
2.418385 75.566899 19.17306
2.431411 74.089562 19.378049
2.279211 74.721432 20.984409
2.579692 76.397007 17.332546
2.418385 75.566899 19.17306
2.704852 77.142994 15.522788
2.695746 75.681015 15.756942
2.579692 76.397007 17.332546
2.736608 78.590622 15.263535
2.851694 79.942104 15.012059
2.852661 77.87463 13.687932
2.704852 77.142994 15.522788
2.736608 78.590622 15.263535
1.820183 64.881137 30.333619
1.696575 66.468204 30.257171
2.0599 64.474964 28.753675
1.820183 64.881137 30.333619
2.058894 67.153526 26.873482
1.829917 67.647628 28.496592
1.952013 68.725257 26.750689
2.283206 63.965317 27.186727
2.0599 64.474964 28.753675
2.160104 65.566249 27.052437
2.463939 63.4584 25.698103
2.283206 63.965317 27.186727
2.617204 62.853256 24.225369
2.463939 63.4584 25.698103
2.536675 64.451458 24.012754
2.690586 62.259799 22.848145
2.617851 61.266742 24.533493
2.617204 62.853256 24.225369
2.726234 63.159965 21.180198
2.759659 64.732315 20.832202
2.795953 64.045968 19.47238
2.690586 62.259799 22.848145
2.726234 63.159965 21.180198
3.558963 83.617805 14.164452
4.002791 84.593658 13.854403
3.470773 83.138244 12.587808
3.259611 82.461388 14.459596
3.558963 83.617805 14.164452
3.960662 84.866058 10.438108
4.253952 85.223045 11.975375
3.624111 83.749603 10.745988
3.960662 84.866058 10.438108
3.814647 84.320999 8.891432
4.605168 86.710679 3.108366
5.047168 87.163643 4.595592
5.177522 87.512115 2.78722
4.182003 85.704876 3.43121
4.605168 86.710679 3.108366
4.312356 86.053348 1.622839
3.65191 84.166977 0.496774
3.938716 85.350902 0.166507
3.646206 83.813057 2.266445
3.65191 84.166977 0.496774
3.408925 82.932488 0.817536
3.102266 77.189876 2.132486
3.169748 78.292255 3.546237
3.125694 78.683403 1.808982
3.091042 75.650825 2.494185
3.102266 77.189876 2.132486
3 0 10 8
3 0 12 10
3 1 38 40
3 38 14 39
3 38 39 40
3 42 41 15
3 43 17 44
3 45 18 46
3 47 46 17
3 45 46 47
3 2 21 19
3 4 22 9
3 4 23 22
3 4 24 23
3 49 48 11
3 5 50 52
3 50 25 51
3 50 51 52
3 5 26 25
3 53 27 54
3 6 28 13
3 6 29 28
3 3 30 20
3 55 31 56
3 57 56 16
3 55 56 57
3 59 58 31
3 60 32 61
3 7 62 64
3 62 33 63
3 62 63 64
3 7 34 33
3 65 35 66
3 67 36 68
3 67 68 69
3 70 37 71
3 72 71 36
3 70 71 72
3 74 73 37
3 8 9 2
3 10 9 8
3 10 4 9
3 10 11 4
3 12 11 10
3 12 75 77
3 77 76 11
3 75 76 77
3 78 5 79
3 80 13 81
3 14 82 84
3 82 13 83
3 82 83 84
3 14 6 13
3 15 16 3
3 85 16 86
3 87 86 15
3 85 86 87
3 89 88 16
3 17 90 91
3 17 92 93
3 17 94 95
3 18 96 98
3 98 97 17
3 96 97 98
3 18 99 101
3 99 7 100
3 99 100 101
3 19 20 1
3 21 20 19
3 21 3 20
3 9 21 2
3 22 21 9
3 22 3 21
3 22 15 3
3 23 15 22
3 23 102 104
3 104 103 15
3 102 103 104
3 23 105 106
3 24 107 109
3 109 108 23
3 107 108 109
3 24 110 111
3 11 24 4
3 112 24 113
3 114 113 11
3 112 113 114
3 116 115 24
3 117 1 118
3 119 1 120
3 121 19 122
3 123 122 1
3 121 122 123
3 124 19 125
3 126 2 127
3 128 127 19
3 126 127 128
3 25 129 130
3 25 131 133
3 131 2 132
3 131 132 133
3 25 8 2
3 26 8 25
3 26 0 8
3 27 134 135
3 27 136 137
3 13 138 140
3 138 27 139
3 138 139 140
3 28 27 13
3 28 141 143
3 143 142 27
3 141 142 143
3 28 144 145
3 29 146 148
3 148 147 28
3 146 147 148
3 29 149 151
3 149 150 151
3 20 14 1
3 30 14 20
3 30 6 14
3 16 30 3
3 31 30 16
3 31 6 30
3 31 29 6
3 152 29 153
3 154 153 31
3 152 153 154
3 156 155 29
3 32 157 158
3 32 159 161
3 159 5 160
3 159 160 161
3 162 32 163
3 33 164 166
3 164 32 165
3 164 165 166
3 33 5 32
3 33 26 5
3 34 26 33
3 34 0 26
3 167 18 168
3 167 168 169
3 35 170 172
3 170 18 171
3 170 171 172
3 35 7 18
3 173 35 174
3 36 175 177
3 175 35 176
3 175 176 177
3 36 7 35
3 36 34 7
3 37 34 36
3 37 0 34
3 37 12 0
3 178 12 179
3 180 179 37
3 178 179 180
3 182 181 12
