ply
format ascii 1.0
element vertex 253
property float x
property float y
property float z
element face 211
property list uchar int vertex_index
end_header
5.996883 -7.704256 36.095192
3.757061 -12.830784 42.970955
0.34025 -43.184113 44.848148
3.21386 -21.142952 43.495796
1.217978 -23.960777 46.138767
-0.713364 -38.516571 47.300755
5.184155 -1.042374 38.643288
4.04377 -4.138992 42.207451
0.270172 -31.449884 46.643745
1.500154 -36.219032 44.465256
0.855446 -17.648905 46.959763
1.642076 -20.037386 45.945129
0.412491 -21.599108 47.094185
6.224342 -3.130676 35.475697
6.885502 -2.154076 33.436905
6.635128 -6.768316 34.146011
3.210697 -10.157142 44.169941
3.936943 -8.517729 42.63385
4.537235 -6.972989 40.983353
4.377815 -11.364208 41.386436
-0.087627 -40.786953 46.191708
0.451832 -37.324608 45.923676
0.938349 -39.728634 44.677971
1.842667 -38.775421 43.08564
1.238358 -42.272705 43.209694
2.981262 -14.384893 44.437149
3.513405 -17.047089 43.248566
2.682121 -18.512424 44.66563
2.32373 -22.520571 44.884933
1.915119 -26.399937 45.116684
-1.175732 -41.929653 47.650227
-0.620174 -44.195736 46.433006
5.625263 -4.263795 37.40332
3.419182 -1.515099 43.395607
4.068424 0.269915 41.666943
4.63121 -2.525732 40.472992
5.077934 -5.548539 39.237118
5.430576 -8.785883 37.942944
-0.068657 -25.443434 47.272469
0.755756 -27.763966 46.368805
1.463142 -30.151714 45.370712
-0.224672 -35.028961 46.959145
0.973139 -33.787033 45.644089
2.009243 -32.628071 44.226376
0.208159 -18.479155 47.502387
0.43809 -16.501991 47.471109
-0.013319 -20.454257 47.569598
0.633969 -19.624007 47.026974
0.208159 -18.479155 47.502387
3.960088 -14.24808 42.340593
4.270466 -13.514792 41.548334
4.067438 -12.097496 42.178696
2.496854 -15.192265 45.101921
2.647419 -13.123537 45.005035
2.347283 -17.256031 45.216161
2.831691 -16.448659 44.551389
2.496854 -15.192265 45.101921
-1.379682 -43.606367 47.821028
-1.715516 -42.528635 48.375391
-1.101904 -44.739408 47.212418
-0.897953 -43.062694 47.041617
-1.379682 -43.606367 47.821028
7.233888 -1.743889 32.351981
7.107729 -4.064811 32.754517
5.471085 -0.375338 37.682637
5.200731 1.214606 38.274738
5.404709 -2.653084 38.023304
5.691639 -1.986048 37.062652
5.471085 -0.375338 37.682637
3.731476 -2.827046 42.801529
3.389506 -3.685701 43.613872
3.701799 -4.997648 43.019795
4.9943 -7.779082 39.471537
4.807584 -6.260764 40.110236
4.723951 -8.491307 40.344655
5.170622 -9.397754 38.82445
5.254255 -7.167211 38.590031
4.9943 -7.779082 39.471537
5.30961 -11.011737 38.153383
5.170622 -9.397754 38.82445
3.55758 -20.495858 42.739803
3.707352 -18.447927 42.616188
3.363633 -19.095021 43.372181
-0.763697 -26.196323 47.803425
-0.505282 -24.310214 47.711985
0.512964 -29.606925 46.506275
0.095465 -28.470993 46.942169
-0.147327 -30.313952 47.079639
-0.469018 -36.772766 47.12995
-0.868476 -35.680858 47.585195
-1.112823 -37.424664 47.756
1.939841 -35.718288 43.687083
2.194386 -33.922808 43.567643
1.754698 -34.423552 44.345816
2.215813 -38.357578 42.250513
1.934045 -40.125904 42.298042
1.046781 -15.626303 46.898606
0.43809 -16.501991 47.471109
1.433946 -16.824271 46.363228
1.046781 -15.626303 46.898606
1.248761 -18.843145 46.452446
1.82726 -18.018512 45.855911
1.433946 -16.824271 46.363228
6.554922 -2.642376 34.456301
6.634726 -0.344934 34.068672
6.304146 -0.833234 35.088068
6.982542 -6.371932 33.10907
7.107729 -4.064811 32.754517
6.760315 -4.461196 33.791458
4.916807 0.449103 39.238464
5.200731 1.214606 38.274738
3.285263 -8.006723 44.00104
2.870989 -8.902326 44.749662
3.648386 -7.187016 43.232994
3.285263 -8.006723 44.00104
3.57382 -9.337435 43.401896
3.990356 -6.32836 42.420651
3.701799 -4.997648 43.019795
3.648386 -7.187016 43.232994
4.644241 -10.686916 40.546196
4.723951 -8.491307 40.344655
4.457525 -9.168598 41.184894
4.536302 -12.876949 40.731062
4.644241 -10.686916 40.546196
4.536302 -12.876949 40.731062
4.270466 -13.514792 41.548334
3.405159 -22.519469 42.863718
3.038591 -23.123772 43.615578
-0.391544 -32.127622 47.237143
-0.147327 -30.313952 47.079639
1.63189 -41.874546 42.360069
1.934045 -40.125904 42.298042
1.540513 -40.524063 43.147667
2.762136 -11.009661 44.871431
2.870989 -8.902326 44.749662
3.09598 -12.271017 44.303545
2.762136 -11.009661 44.871431
2.647419 -13.123537 45.005035
2.162098 -19.274905 45.30538
2.347283 -17.256031 45.216161
1.82726 -18.018512 45.855911
2.593526 -23.812581 44.310146
3.038591 -23.123772 43.615578
2.768795 -21.831761 44.190365
2.389221 -25.752264 44.426022
2.593526 -23.812581 44.310146
2.119425 -24.460254 45.000808
2.18889 -27.664862 44.547912
2.662992 -27.017189 43.85725
2.389221 -25.752264 44.426022
-1.316955 -39.143356 47.971085
-1.112823 -37.424664 47.756
-1.548139 -40.849897 48.145821
-1.715516 -42.528635 48.375391
-0.944548 -40.223112 47.475491
-1.316955 -39.143356 47.971085
-1.548139 -40.849897 48.145821
6.972614 0.157507 32.999725
6.634726 -0.344934 34.068672
6.972614 0.157507 32.999725
7.233888 -1.743889 32.351981
6.159662 -9.520602 35.399287
5.856972 -9.96178 36.336469
5.991179 -1.419489 36.098841
6.304146 -0.833234 35.088068
5.924803 -3.697235 36.439509
5.991179 -1.419489 36.098841
5.691639 -1.986048 37.062652
3.036496 -2.449697 44.199829
3.389506 -3.685701 43.613872
3.045955 -0.31016 43.984246
3.036496 -2.449697 44.199829
3.400359 0.657934 43.118222
3.045955 -0.31016 43.984246
3.724979 1.550441 42.253889
3.400359 0.657934 43.118222
3.743803 -0.622592 42.531275
4.035919 2.471076 41.331843
3.724979 1.550441 42.253889
4.358942 1.105247 40.750292
4.035919 2.471076 41.331843
4.640335 -0.292576 40.153317
4.358942 1.105247 40.750292
4.349817 -1.127908 41.069968
4.907682 -1.784053 39.55814
4.916807 0.449103 39.238464
4.640335 -0.292576 40.153317
5.573818 -10.502594 37.260345
5.856972 -9.96178 36.336469
5.71373 -8.245069 37.019068
5.573818 -10.502594 37.260345
5.30961 -11.011737 38.153383
3.83826 -16.356233 42.479399
3.960088 -14.24808 42.340593
3.635233 -14.938937 43.10976
3.83826 -16.356233 42.479399
3.707352 -18.447927 42.616188
3.55758 -20.495858 42.739803
3.405159 -22.519469 42.863718
-0.264709 -22.388051 47.622843
-0.013319 -20.454257 47.569598
0.171917 -23.521271 47.183327
-0.264709 -22.388051 47.622843
-0.505282 -24.310214 47.711985
-0.316742 -27.310727 47.394001
-0.763697 -26.196323 47.803425
0.34355 -26.6037 46.820637
-0.316742 -27.310727 47.394001
0.095465 -28.470993 46.942169
1.962902 -29.540751 44.674926
2.18889 -27.664862 44.547912
1.689131 -28.275825 45.243698
-0.638966 -33.91716 47.394842
-0.868476 -35.680858 47.585195
0.02275 -33.239423 46.801445
-0.391544 -32.127622 47.237143
-0.638966 -33.91716 47.394842
2.235952 -30.778929 44.102759
1.962902 -29.540751 44.674926
1.736193 -31.389892 44.798544
2.427086 -32.098139 43.461946
2.235952 -30.778929 44.102759
2.427086 -32.098139 43.461946
2.194386 -33.922808 43.567643
2.111098 -36.996483 42.997275
1.939841 -35.718288 43.687083
1.67141 -37.497226 43.775448
2.111098 -36.996483 42.997275
2.215813 -38.357578 42.250513
-0.863112 -45.881487 46.537166
-1.101904 -44.739408 47.212418
-0.439325 -45.402075 45.700653
-0.863112 -45.881487 46.537166
0.040887 -44.896264 44.908224
-0.139962 -43.689925 45.640577
-0.439325 -45.402075 45.700653
0.465795 -44.46102 44.05929
0.040887 -44.896264 44.908224
0.166431 -46.17317 44.119366
0.914848 -44.005316 43.240063
0.789304 -42.728409 44.028921
0.465795 -44.46102 44.05929
1.314479 -43.623306 42.372242
0.914848 -44.005316 43.240063
1.63189 -41.874546 42.360069
1.314479 -43.623306 42.372242
6.478784 -9.052632 34.424696
6.316006 -7.236286 35.120601
6.159662 -9.520602 35.399287
6.819833 -8.676987 33.43095
6.478784 -9.052632 34.424696
6.982542 -6.371932 33.10907
6.819833 -8.676987 33.43095
3 44 10 45
3 46 12 47
3 48 47 10
3 46 47 48
3 0 15 13
3 1 17 16
3 1 19 17
3 1 49 51
3 51 50 19
3 49 50 51
3 2 22 20
3 2 24 22
3 52 25 53
3 54 27 55
3 56 55 25
3 54 55 56
3 4 28 11
3 4 29 28
3 57 30 58
3 59 31 60
3 61 60 30
3 59 60 61
3 63 62 14
3 6 64 65
3 6 66 68
3 66 32 67
3 66 67 68
3 7 69 71
3 69 33 70
3 69 70 71
3 7 34 33
3 7 35 34
3 72 36 73
3 74 73 18
3 72 73 74
3 75 37 76
3 77 76 36
3 75 76 77
3 79 78 37
3 3 80 82
3 82 81 26
3 80 81 82
3 83 38 84
3 8 85 87
3 85 39 86
3 85 86 87
3 8 40 39
3 5 88 90
3 88 41 89
3 88 89 90
3 9 42 21
3 9 43 42
3 9 91 93
3 93 92 43
3 91 92 93
3 95 94 23
3 10 96 97
3 10 98 99
3 10 100 102
3 100 11 101
3 100 101 102
3 12 11 10
3 12 4 11
3 13 103 105
3 103 14 104
3 103 104 105
3 15 14 13
3 15 106 108
3 108 107 14
3 106 107 108
3 109 6 110
3 16 111 112
3 17 113 115
3 115 114 16
3 113 114 115
3 17 116 118
3 116 7 117
3 116 117 118
3 17 18 7
3 19 18 17
3 19 119 121
3 121 120 18
3 119 120 121
3 19 122 123
3 125 124 19
3 127 126 3
3 128 8 129
3 20 21 5
3 22 21 20
3 22 9 21
3 22 23 9
3 24 23 22
3 24 130 132
3 132 131 23
3 130 131 132
3 133 16 134
3 25 135 137
3 135 16 136
3 135 136 137
3 25 1 16
3 25 26 1
3 27 26 25
3 27 3 26
3 11 138 140
3 138 27 139
3 138 139 140
3 28 27 11
3 28 3 27
3 28 141 143
3 143 142 3
3 141 142 143
3 29 144 146
3 146 145 28
3 144 145 146
3 29 147 149
3 147 148 149
3 150 5 151
3 30 152 153
3 30 154 156
3 154 5 155
3 154 155 156
3 30 20 5
3 31 20 30
3 31 2 20
3 14 157 158
3 160 159 14
3 162 161 0
3 163 13 164
3 32 165 167
3 165 13 166
3 165 166 167
3 32 0 13
3 33 168 169
3 33 170 171
3 33 172 173
3 34 174 176
3 176 175 33
3 174 175 176
3 34 177 178
3 34 179 180
3 35 181 183
3 183 182 34
3 181 182 183
3 35 184 186
3 184 6 185
3 184 185 186
3 18 35 7
3 36 35 18
3 36 6 35
3 36 32 6
3 37 32 36
3 37 0 32
3 37 187 189
3 189 188 0
3 187 188 189
3 191 190 37
3 26 192 194
3 194 193 1
3 192 193 194
3 196 195 26
3 198 197 3
3 199 12 200
3 38 201 203
3 201 12 202
3 201 202 203
3 38 4 12
3 204 38 205
3 39 206 208
3 206 38 207
3 206 207 208
3 39 4 38
3 39 29 4
3 40 29 39
3 40 209 211
3 211 210 29
3 209 210 211
3 41 212 213
3 41 214 216
3 214 8 215
3 214 215 216
3 21 41 5
3 42 41 21
3 42 8 41
3 42 40 8
3 43 40 42
3 43 217 219
3 219 218 40
3 217 218 219
3 43 220 221
3 223 222 43
3 23 224 226
3 226 225 9
3 224 225 226
3 228 227 23
3 229 31 230
3 231 31 232
3 233 2 234
3 235 234 31
3 233 234 235
3 236 2 237
3 236 237 238
3 239 24 240
3 241 240 2
3 239 240 241
3 242 24 243
3 245 244 24
3 246 15 247
3 248 247 0
3 246 247 248
3 249 15 250
3 252 251 15
