ply
format ascii 1.0
element vertex 240
property float x
property float y
property float z
element face 236
property list uchar int vertex_index
end_header
34.260532 -92.982216 35.617607
43.424194 -97.9105 19.90414
40.25967 -91.584564 41.664864
44.652813 -92.258408 32.793617
39.299358 -98.953766 28.362278
47.101246 -87.881676 22.355679
37.319416 -92.902679 38.814594
39.833496 -95.471756 35.192932
36.857925 -96.724815 32.024693
44.023514 -95.244881 26.387505
46.127903 -90.439171 27.620203
45.473339 -93.068855 21.490376
42.640289 -92.756554 37.582794
42.120026 -96.233826 31.035772
41.512005 -99.252899 24.314169
47.150208 -87.551834 33.477703
35.822235 -93.044106 37.192451
37.122623 -94.829872 35.442116
35.578552 -94.991867 33.797634
33.936932 -95.013985 32.271141
43.738506 -96.604042 23.133514
44.800964 -94.260376 23.954224
44.540195 -95.56385 20.778116
45.265755 -94.351807 18.40136
42.953144 -90.81488 40.619179
41.484413 -92.383766 39.725483
39.602417 -97.255478 31.778057
41.014179 -96.090431 33.186188
40.76384 -97.764153 29.782906
41.849583 -97.790039 27.664953
40.441002 -99.342072 26.391958
39.997017 -100.851067 23.076841
38.873936 -100.590263 25.021294
36.136997 -89.13868 43.644852
45.043179 -90.590988 35.853149
46.395691 -88.312943 36.165634
45.896645 -89.953186 33.260342
46.662121 -89.215523 24.987068
47.15332 -87.919228 27.902706
38.786785 -92.437729 40.344276
40.040798 -93.584801 38.519791
38.598095 -94.39032 37.059181
38.384075 -96.262306 33.654781
38.100552 -98.070808 30.230206
37.698009 -99.837135 26.873627
36.478882 -98.608025 28.662113
44.31831 -93.804115 29.622938
45.462666 -91.479271 30.233273
45.100189 -92.907562 27.118862
45.753029 -91.773445 24.574509
46.299812 -90.485077 22.017031
46.781654 -89.115837 19.46501
46.068161 -91.754929 19.019842
44.053955 -90.892967 38.323868
43.705074 -92.703606 35.25885
41.241325 -94.300865 36.527477
42.370537 -94.561012 34.364464
43.40398 -94.379341 32.05127
43.128639 -95.930908 28.759403
42.843468 -97.377594 25.439426
42.505444 -98.745949 22.14296
38.979176 -90.393616 43.406147
37.486511 -90.924301 42.033142
35.997791 -91.101036 40.513359
34.477585 -91.020302 38.974819
32.894733 -90.825302 37.558563
32.6096 -92.875465 34.235844
46.599201 -89.039909 30.596596
43.852026 -97.378799 18.765669
44.410027 -96.205475 19.202656
43.982194 -96.737175 20.341128
43.232218 -98.554314 18.319697
43.852026 -97.378799 18.765669
40.872042 -91.984165 40.695173
41.62459 -91.360393 41.210613
41.012219 -90.960792 42.180304
47.342894 -87.270748 23.780987
47.123331 -87.937672 25.096682
46.881684 -88.548599 23.671374
47.521725 -86.603665 22.439745
47.342894 -87.270748 23.780987
47.301123 -87.19133 21.047736
47.521725 -86.603665 22.439745
45.603088 -93.700046 17.213266
45.177103 -95.00021 16.870074
41.287126 -99.952786 22.675041
41.783846 -99.69931 21.589436
42.008724 -98.999424 23.228564
39.696156 -101.587189 21.481394
39.141342 -101.521878 22.445757
37.415836 -100.710895 25.265193
36.820131 -100.168182 26.15595
38.312483 -89.636677 44.196842
39.081583 -89.32402 44.774992
37.56615 -89.902019 43.51034
38.232844 -90.658958 42.719645
38.312483 -89.636677 44.196842
35.311743 -90.101036 41.369976
36.067394 -90.119858 42.079105
35.381346 -89.119858 42.935722
34.55164 -90.060669 40.600706
35.237688 -91.060669 39.744089
35.311743 -90.101036 41.369976
32.182507 -89.739258 38.622341
32.986593 -89.856395 39.210743
31.735847 -92.883892 33.708264
31.920594 -91.779354 35.318243
32.396521 -93.96769 32.621226
31.735847 -92.883892 33.708264
47.452414 -86.754551 34.859312
47.075156 -87.135106 36.203277
46.772949 -87.932389 34.821669
47.778618 -86.34214 33.485126
47.452414 -86.754551 34.859312
47.450508 -87.243199 29.322799
47.677341 -86.669327 27.950197
47.017482 -88.419269 18.198154
46.703066 -89.751034 18.012253
35.401596 -95.97918 32.117983
36.041283 -96.845653 31.231513
36.218238 -95.858341 32.911164
34.580786 -95.990239 31.354737
35.401596 -95.97918 32.117983
34.757742 -95.002926 33.034388
33.701397 -96.073757 30.655634
34.580786 -95.990239 31.354737
44.772807 -95.599453 18.014278
44.902975 -94.957829 19.589738
44.410027 -96.205475 19.202656
45.177103 -95.00021 16.870074
44.772807 -95.599453 18.014278
42.358956 -90.575951 41.657461
43.133585 -89.777813 42.010212
42.218778 -91.599323 40.172331
42.358956 -90.575951 41.657461
41.62459 -91.360393 41.210613
38.579802 -101.391475 23.417983
39.141342 -101.521878 22.445757
39.435477 -100.720665 24.049067
36.196272 -88.136677 45.06007
36.891393 -89.009209 44.316195
35.434031 -88.165325 44.450015
36.196272 -88.136677 45.06007
35.381346 -89.119858 42.935722
35.434031 -88.165325 44.450015
45.719435 -89.451966 36.009391
45.943482 -88.553288 37.460596
45.267226 -89.69231 37.304354
47.368931 -87.289524 26.5545
46.90772 -88.567375 26.444887
47.123331 -87.937672 25.096682
47.677341 -86.669327 27.950197
47.368931 -87.289524 26.5545
36.210567 -99.553627 27.050193
36.820131 -100.168182 26.15595
37.088445 -99.22258 27.76787
35.851761 -97.787259 29.550223
36.668403 -97.66642 30.343403
36.041283 -96.845653 31.231513
35.598517 -98.796776 27.935904
35.851761 -97.787259 29.550223
36.210567 -99.553627 27.050193
35.598517 -98.796776 27.935904
46.346319 -91.07058 17.789669
46.703066 -89.751034 18.012253
46.424908 -90.435383 19.242426
46.004292 -92.401608 17.522507
45.666958 -93.053368 18.710601
45.603088 -93.700046 17.213266
46.346319 -91.07058 17.789669
46.004292 -92.401608 17.522507
43.704797 -89.880703 40.903107
43.133585 -89.777813 42.010212
44.255203 -89.919747 39.755451
43.704797 -89.880703 40.903107
43.50355 -90.853924 39.471524
44.772614 -89.8433 38.539713
44.255203 -89.919747 39.755451
44.548567 -90.741977 37.088509
45.267226 -89.69231 37.304354
44.772614 -89.8433 38.539713
42.289265 -99.407425 20.528125
42.74864 -98.9897 19.408715
42.964819 -98.328225 21.02355
42.289265 -99.407425 20.528125
41.783846 -99.69931 21.589436
40.529632 -100.751869 22.056377
41.287126 -99.952786 22.675041
40.754511 -100.051983 23.695505
40.529632 -100.751869 22.056377
39.696156 -101.587189 21.481394
38.003799 -101.087459 24.339027
38.285972 -100.213699 25.94746
37.415836 -100.710895 25.265193
38.579802 -101.391475 23.417983
38.003799 -101.087459 24.339027
40.382745 -90.527195 43.099075
41.012219 -90.960792 42.180304
39.742498 -89.931721 43.969717
39.081583 -89.32402 44.774992
39.619423 -90.98909 42.535505
40.382745 -90.527195 43.099075
39.742498 -89.931721 43.969717
36.811754 -90.03149 42.838997
37.56615 -89.902019 43.51034
36.891393 -89.009209 44.316195
33.778019 -89.953896 39.918871
34.55164 -90.060669 40.600706
33.686159 -90.922802 38.266691
33.778019 -89.953896 39.918871
32.986593 -89.856395 39.210743
32.063161 -90.754272 36.979602
32.182507 -89.739258 38.622341
32.752167 -91.850383 35.897204
32.063161 -90.754272 36.979602
31.920594 -91.779354 35.318243
33.060187 -95.03695 31.638874
33.273266 -93.944725 33.253493
32.396521 -93.96769 32.621226
33.701397 -96.073757 30.655634
33.060187 -95.03695 31.638874
46.669597 -87.431912 37.540594
45.943482 -88.553288 37.460596
46.669597 -87.431912 37.540594
47.075156 -87.135106 36.203277
47.173448 -87.803539 30.669745
46.876261 -88.479568 29.249651
47.450508 -87.243199 29.322799
47.448952 -87.059502 32.110298
46.874704 -88.295872 32.037149
47.173448 -87.803539 30.669745
47.778618 -86.34214 33.485126
47.448952 -87.059502 32.110298
47.141327 -87.808411 19.602401
47.301123 -87.19133 21.047736
46.94145 -88.498756 20.910345
47.141327 -87.808411 19.602401
47.017482 -88.419269 18.198154
43.232218 -98.554314 18.319697
42.74864 -98.9897 19.408715
3 0 18 16
3 0 19 18
3 1 22 20
3 1 68 70
3 70 69 22
3 68 69 70
3 1 71 72
3 2 73 75
3 73 25 74
3 73 74 75
3 4 28 26
3 4 30 28
3 4 32 30
3 3 36 34
3 5 76 78
3 78 77 37
3 76 77 78
3 5 79 80
3 5 81 82
3 6 41 39
3 8 42 17
3 8 43 42
3 8 45 43
3 9 48 46
3 11 49 21
3 11 50 49
3 11 52 50
3 84 83 23
3 12 53 24
3 12 54 53
3 7 55 40
3 13 56 27
3 13 57 56
3 13 58 57
3 14 59 29
3 14 60 59
3 14 85 87
3 87 86 60
3 85 86 87
3 89 88 31
3 91 90 44
3 92 61 93
3 94 62 95
3 96 95 61
3 94 95 96
3 97 63 98
3 99 98 33
3 97 98 99
3 100 64 101
3 102 101 63
3 100 101 102
3 103 65 104
3 105 66 106
3 108 107 66
3 15 109 111
3 111 110 35
3 109 110 111
3 15 112 113
3 10 67 47
3 115 114 38
3 117 116 51
3 16 17 6
3 18 17 16
3 18 8 17
3 18 118 120
3 120 119 8
3 118 119 120
3 19 121 123
3 123 122 18
3 121 122 123
3 19 124 125
3 20 21 9
3 22 21 20
3 22 11 21
3 22 23 11
3 126 23 127
3 128 127 22
3 126 127 128
3 130 129 23
3 131 24 132
3 25 133 135
3 133 24 134
3 133 134 135
3 25 12 24
3 26 27 7
3 28 27 26
3 28 13 27
3 28 29 13
3 30 29 28
3 30 14 29
3 30 31 14
3 32 31 30
3 32 136 138
3 138 137 31
3 136 137 138
3 139 33 140
3 141 33 142
3 144 143 33
3 34 145 147
3 145 35 146
3 145 146 147
3 36 35 34
3 36 15 35
3 37 38 10
3 148 38 149
3 150 149 37
3 148 149 150
3 152 151 38
3 39 40 2
3 41 40 39
3 41 7 40
3 17 41 6
3 42 41 17
3 42 7 41
3 42 26 7
3 43 26 42
3 43 4 26
3 43 44 4
3 45 44 43
3 45 153 155
3 155 154 44
3 153 154 155
3 156 45 157
3 158 157 8
3 156 157 158
3 159 45 160
3 162 161 45
3 46 47 3
3 48 47 46
3 48 10 47
3 21 48 9
3 49 48 21
3 49 10 48
3 49 37 10
3 50 37 49
3 50 5 37
3 50 51 5
3 52 51 50
3 52 163 165
3 165 164 51
3 163 164 165
3 23 52 11
3 166 52 167
3 168 167 23
3 166 167 168
3 170 169 52
3 24 171 172
3 53 173 175
3 175 174 24
3 173 174 175
3 53 176 177
3 53 178 180
3 178 34 179
3 178 179 180
3 54 34 53
3 54 3 34
3 40 25 2
3 55 25 40
3 55 12 25
3 27 55 7
3 56 55 27
3 56 12 55
3 56 54 12
3 57 54 56
3 57 3 54
3 57 46 3
3 58 46 57
3 58 9 46
3 29 58 13
3 59 58 29
3 59 9 58
3 59 20 9
3 60 20 59
3 60 1 20
3 60 181 183
3 183 182 1
3 181 182 183
3 185 184 60
3 31 186 188
3 188 187 14
3 186 187 188
3 190 189 31
3 44 32 4
3 191 32 192
3 193 192 44
3 191 192 193
3 195 194 32
3 196 2 197
3 61 198 199
3 61 200 202
3 200 2 201
3 200 201 202
3 61 39 2
3 62 39 61
3 62 6 39
3 33 203 205
3 203 62 204
3 203 204 205
3 63 62 33
3 63 6 62
3 63 16 6
3 64 16 63
3 64 0 16
3 206 64 207
3 65 208 210
3 208 64 209
3 208 209 210
3 65 0 64
3 211 65 212
3 66 213 215
3 213 65 214
3 213 214 215
3 66 0 65
3 66 19 0
3 216 19 217
3 218 217 66
3 216 217 218
3 220 219 19
3 35 221 222
3 224 223 35
3 47 36 3
3 67 36 47
3 67 15 36
3 38 67 10
3 225 67 226
3 227 226 38
3 225 226 227
3 228 15 229
3 230 229 67
3 228 229 230
3 232 231 15
3 51 233 235
3 235 234 5
3 233 234 235
3 237 236 51
3 239 238 1
