ply
format ascii 1.0
element vertex 225
property float x
property float y
property float z
element face 193
property list uchar int vertex_index
end_header
43.911751 15.802189 -35.057663
53.305443 2.402288 -22.084528
49.58984 10.340231 -29.492975
47.465656 6.04031 -24.141748
51.709564 6.614716 -25.945211
53.37825 12.041252 -30.935751
55.764919 8.287928 -26.542128
40.684177 16.533558 -30.790632
40.530792 17.162525 -36.667702
43.409164 13.680161 -29.03557
46.97802 13.45784 -32.594734
50.417259 15.066658 -34.987717
53.562653 16.346558 -36.356873
51.052647 1.790031 -21.785975
50.375923 3.967873 -23.543276
52.576557 4.561346 -24.048204
53.796394 7.450359 -26.358332
42.317413 15.81398 -32.985313
40.744293 16.765545 -33.741508
42.245567 16.617836 -35.981476
48.658058 8.045231 -26.812464
46.625546 8.128712 -25.514048
47.623302 9.914007 -28.306349
46.47015 11.64813 -29.688292
48.344269 11.983711 -31.110487
48.725395 14.162834 -33.943161
50.188568 12.747189 -32.211601
55.104267 12.75095 -31.316702
53.645164 14.420033 -33.591286
37.495712 17.872845 -34.660568
49.575939 6.058319 -25.221121
50.712421 8.545662 -27.764975
51.524837 11.14497 -30.353426
52.729065 9.374224 -28.395132
54.645935 10.246292 -28.769384
49.324409 -0.668163 -19.515249
45.454914 16.341133 -36.897537
42.098766 15.210903 -29.978624
43.809437 14.625031 -32.046295
45.197659 13.226921 -30.941133
45.496502 14.739616 -33.919701
47.14307 15.369572 -35.51683
48.739494 16.253601 -36.810799
51.966629 13.65469 -33.01799
52.034348 15.879322 -35.771156
51.766827 17.651501 -38.597511
54.013094 3.895686 -23.172396
53.648651 4.975215 -24.154233
52.941 3.481817 -23.066366
55.151281 13.77655 -32.661341
55.885607 12.899561 -31.447605
36.6993 17.944119 -34.739719
37.312885 17.632645 -35.967517
56.085926 9.59166 -27.759119
55.526434 10.570843 -28.872747
55.205427 9.26711 -27.655756
39.937162 17.076794 -31.127415
39.864063 17.27105 -29.707073
39.827129 17.309442 -35.484905
39.93388 17.110952 -34.021809
40.637542 16.964035 -35.204605
39.67033 17.29186 -36.884003
39.827129 17.309442 -35.484905
49.513378 -1.822242 -18.658665
48.416225 -1.66353 -18.352629
50.460293 -0.561125 -19.733989
49.513378 -1.822242 -18.658665
45.260365 17.09148 -38.376091
46.201505 16.76471 -37.672562
42.753965 14.445532 -29.507097
41.869695 15.068352 -28.482133
42.524895 14.302981 -28.010607
46.451737 6.399468 -23.428762
46.786501 5.250386 -22.797756
45.644855 8.553814 -24.708056
46.149149 9.120643 -26.153656
50.349152 16.084587 -36.404629
49.510269 16.678058 -37.31617
49.578377 15.66013 -35.899258
53.380749 17.024113 -37.775467
52.482836 17.676585 -38.895786
52.66474 16.999029 -37.477192
50.714285 2.878952 -22.664625
49.597317 2.794872 -22.342129
49.935679 1.70595 -21.463479
54.25857 6.419721 -25.309297
53.186476 6.005852 -25.203268
53.648651 4.975215 -24.154233
55.242832 6.838506 -25.401196
54.780656 7.869143 -26.45023
54.25857 6.419721 -25.309297
43.09013 13.384999 -27.537563
42.524895 14.302981 -28.010607
46.648027 10.013291 -27.549807
46.149149 9.120643 -26.153656
47.124424 9.021359 -26.910198
47.046726 10.781068 -28.997321
46.071451 10.880352 -28.240778
46.648027 10.013291 -27.549807
54.42173 14.611092 -33.798633
54.374716 13.585491 -32.453994
55.151281 13.77655 -32.661341
54.380474 15.574355 -35.181427
53.603909 15.383296 -34.97408
54.42173 14.611092 -33.798633
54.278309 16.316401 -36.581959
54.380474 15.574355 -35.181427
36.799038 18.440287 -33.519703
37.573045 18.160658 -33.327399
36.799038 18.440287 -33.519703
36.6993 17.944119 -34.739719
47.831308 4.952815 -23.412366
46.786501 5.250386 -22.797756
49.286441 3.916596 -23.11313
49.597317 2.794872 -22.342129
48.886449 4.961819 -23.952053
49.286441 3.916596 -23.11313
49.975931 5.013096 -24.382199
48.520798 6.049314 -24.681435
47.831308 4.952815 -23.412366
48.886449 4.961819 -23.952053
55.7556 11.823172 -30.146406
54.875101 11.498621 -30.043043
55.526434 10.570843 -28.872747
55.885607 12.899561 -31.447605
55.7556 11.823172 -30.146406
39.96722 17.192787 -32.602852
39.937162 17.076794 -31.127415
40.714235 16.649552 -32.26607
39.96722 17.192787 -32.602852
39.93388 17.110952 -34.021809
38.309589 17.664603 -34.481338
37.573045 18.160658 -33.327399
38.15279 17.64702 -35.880436
38.309589 17.664603 -34.481338
37.312885 17.632645 -35.967517
38.15279 17.64702 -35.880436
48.235733 -0.472218 -19.106003
48.416225 -1.66353 -18.352629
49.07156 0.476853 -20.328116
48.235733 -0.472218 -19.106003
50.188528 0.560934 -20.650612
49.935679 1.70595 -21.463479
49.07156 0.476853 -20.328116
51.324411 0.667972 -20.869352
50.188528 0.560934 -20.650612
50.460293 -0.561125 -19.733989
52.450809 0.974101 -21.018629
52.179045 2.096159 -21.935251
51.324411 0.667972 -20.869352
44.568918 16.695463 -37.473122
43.797337 16.425991 -36.553185
44.683333 16.071661 -35.9776
44.568918 16.695463 -37.473122
45.260365 17.09148 -38.376091
40.538385 16.554455 -29.319019
39.864063 17.27105 -29.707073
41.245679 15.893127 -28.913015
41.869695 15.068352 -28.482133
41.391471 15.872231 -30.384628
40.538385 16.554455 -29.319019
41.245679 15.893127 -28.913015
46.031682 7.443669 -24.114912
46.451737 6.399468 -23.428762
47.045601 7.084511 -24.827898
46.031682 7.443669 -24.114912
45.644855 8.553814 -24.708056
44.005428 12.825718 -28.503009
43.09013 13.384999 -27.537563
45.535921 11.809703 -28.82937
46.071451 10.880352 -28.240778
44.899676 12.599098 -29.455791
45.535921 11.809703 -28.82937
45.833905 12.437525 -30.314712
44.303411 13.453541 -29.988352
44.005428 12.825718 -28.503009
44.899676 12.599098 -29.455791
47.045583 16.278929 -36.982208
46.201505 16.76471 -37.672562
46.298992 15.855352 -36.207183
47.843795 16.720944 -37.629193
47.045583 16.278929 -36.982208
47.941282 15.811587 -36.163815
48.570023 17.156847 -38.255909
47.843795 16.720944 -37.629193
48.570023 17.156847 -38.255909
49.510269 16.678058 -37.31617
51.157696 16.490919 -36.796349
50.349152 16.084587 -36.404629
51.225803 15.47299 -35.379436
51.023936 17.377009 -38.209526
51.157696 16.490919 -36.796349
51.900588 16.765411 -37.184333
50.796011 18.167984 -39.642319
51.023936 17.377009 -38.209526
51.501005 18.249077 -40.024192
50.796011 18.167984 -39.642319
51.501005 18.249077 -40.024192
52.482836 17.676585 -38.895786
53.380749 17.024113 -37.775467
54.278309 16.316401 -36.581959
42.964244 16.833815 -37.015091
43.078659 16.210013 -35.51957
43.797337 16.425991 -36.553185
42.052719 17.044275 -37.45861
42.964244 16.833815 -37.015091
41.195331 17.31662 -37.801723
41.388179 16.89018 -36.324589
42.052719 17.044275 -37.45861
40.280052 17.374899 -38.099255
41.195331 17.31662 -37.801723
39.67033 17.29186 -36.884003
40.280052 17.374899 -38.099255
53.595301 1.281154 -21.073109
52.450809 0.974101 -21.018629
54.399788 2.805935 -22.099539
53.595301 1.281154 -21.073109
54.013094 3.895686 -23.172396
54.399788 2.805935 -22.099539
56.247749 7.236521 -25.407633
55.242832 6.838506 -25.401196
56.658203 8.581604 -26.567763
56.247749 7.236521 -25.407633
56.085926 9.59166 -27.759119
56.658203 8.581604 -26.567763
3 1 15 13
3 1 46 48
3 48 47 15
3 46 47 48
3 0 19 17
3 2 22 20
3 2 24 22
3 2 26 24
3 50 49 27
3 52 51 29
3 4 30 14
3 4 31 30
3 4 33 31
3 6 34 16
3 6 53 55
3 55 54 34
3 53 54 55
3 7 56 57
3 8 58 60
3 60 59 18
3 58 59 60
3 8 61 62
3 63 35 64
3 66 65 35
3 68 67 36
3 9 69 71
3 69 37 70
3 69 70 71
3 9 38 37
3 3 72 73
3 75 74 21
3 10 39 23
3 10 40 39
3 10 41 40
3 11 42 25
3 11 76 78
3 78 77 42
3 76 77 78
3 5 43 32
3 12 44 28
3 12 45 44
3 12 79 81
3 81 80 45
3 79 80 81
3 13 82 84
3 82 14 83
3 82 83 84
3 15 14 13
3 15 4 14
3 15 16 4
3 85 16 86
3 87 86 15
3 85 86 87
3 88 6 89
3 90 89 16
3 88 89 90
3 17 18 7
3 19 18 17
3 19 8 18
3 91 9 92
3 20 21 3
3 22 21 20
3 22 93 95
3 95 94 21
3 93 94 95
3 22 96 98
3 96 23 97
3 96 97 98
3 24 23 22
3 24 10 23
3 24 25 10
3 26 25 24
3 26 11 25
3 27 28 5
3 99 28 100
3 101 100 27
3 99 100 101
3 102 12 103
3 104 103 28
3 102 103 104
3 106 105 12
3 29 107 108
3 110 109 29
3 111 3 112
3 14 113 114
3 30 115 117
3 117 116 14
3 115 116 117
3 30 118 120
3 118 3 119
3 118 119 120
3 30 20 3
3 31 20 30
3 31 2 20
3 31 32 2
3 33 32 31
3 33 5 32
3 16 33 4
3 34 33 16
3 34 5 33
3 34 27 5
3 121 27 122
3 123 122 34
3 121 122 123
3 125 124 27
3 18 126 128
3 128 127 7
3 126 127 128
3 130 129 18
3 131 29 132
3 133 29 134
3 136 135 29
3 35 137 138
3 35 139 140
3 35 141 143
3 141 13 142
3 141 142 143
3 144 13 145
3 146 145 35
3 144 145 146
3 147 1 148
3 149 148 13
3 147 148 149
3 36 150 152
3 152 151 0
3 150 151 152
3 154 153 36
3 155 7 156
3 37 157 158
3 37 159 161
3 159 7 160
3 159 160 161
3 37 17 7
3 38 17 37
3 38 0 17
3 21 162 164
3 164 163 3
3 162 163 164
3 166 165 21
3 167 9 168
3 23 169 170
3 39 171 173
3 173 172 23
3 171 172 173
3 39 174 176
3 174 9 175
3 174 175 176
3 39 38 9
3 40 38 39
3 40 0 38
3 40 36 0
3 41 36 40
3 41 177 179
3 179 178 36
3 177 178 179
3 25 41 10
3 42 41 25
3 42 180 182
3 182 181 41
3 180 181 182
3 42 183 184
3 186 185 42
3 32 26 2
3 43 26 32
3 43 11 26
3 28 43 5
3 44 43 28
3 44 11 43
3 44 187 189
3 189 188 11
3 187 188 189
3 45 190 192
3 192 191 44
3 190 191 192
3 45 193 194
3 45 195 196
3 198 197 45
3 200 199 12
3 201 19 202
3 203 202 0
3 201 202 203
3 204 19 205
3 206 8 207
3 208 207 19
3 206 207 208
3 209 8 210
3 212 211 8
3 213 1 214
3 215 1 216
3 218 217 1
3 219 6 220
3 221 6 222
3 224 223 6
