ply
format ascii 1.0
element vertex 53
property float x
property float y
property float z
element face 37
property list uchar int vertex_index
end_header
-8.387661 -4.113801 84.390198
-11.239496 -6.651168 82.634766
-12.774101 -7.902446 81.556717
-9.904367 -1.873108 82.894936
-11.269005 -3.267949 81.851746
-9.787153 -5.368866 83.612427
-8.467929 -2.325788 84.041004
-9.226282 -1.205442 83.293374
-9.146014 -2.993454 83.642567
-11.958133 -5.657899 81.647995
-12.725435 -6.283538 81.10897
-12.006799 -7.276807 82.095742
-11.254251 -4.959558 82.243256
-11.972887 -3.96629 81.256485
-11.958133 -5.657899 81.647995
-7.704453 -3.527597 84.633622
-7.601943 -5.283456 84.979805
-12.862637 -9.420493 82.02821
-13.597967 -8.485869 81.014035
-12.02391 -8.877052 82.508884
-12.862637 -9.420493 82.02821
-11.256608 -8.251413 83.047909
-12.006799 -7.276807 82.095742
-12.02391 -8.877052 82.508884
-10.471873 -7.678097 83.494763
-11.256608 -8.251413 83.047909
-9.960513 -0.050534 82.536721
-10.620057 -0.791934 82.002174
-9.960513 -0.050534 82.536721
-9.226282 -1.205442 83.293374
-8.467929 -2.325788 84.041004
-7.704453 -3.527597 84.633622
-13.472176 -6.953906 80.491379
-13.597967 -8.485869 81.014035
-13.472176 -6.953906 80.491379
-12.725435 -6.283538 81.10897
-11.959936 -2.248243 80.846264
-11.972887 -3.96629 81.256485
-11.302376 -1.489355 81.48058
-11.959936 -2.248243 80.846264
-10.586686 -2.570528 82.373341
-10.620057 -0.791934 82.002174
-11.302376 -1.489355 81.48058
-9.745701 -7.036946 83.983593
-10.513324 -6.010017 83.123596
-10.471873 -7.678097 83.494763
-9.00538 -6.461048 84.350544
-9.745701 -7.036946 83.983593
-8.305633 -5.833515 84.739429
-9.087407 -4.741333 84.001312
-9.00538 -6.461048 84.350544
-7.601943 -5.283456 84.979805
-8.305633 -5.833515 84.739429
3 0 6 8
3 8 7 3
3 6 7 8
3 1 9 11
3 11 10 2
3 9 10 11
3 1 12 14
3 12 4 13
3 12 13 14
3 1 5 4
3 16 15 0
3 17 2 18
3 19 2 20
3 21 1 22
3 23 22 2
3 21 22 23
3 25 24 1
3 3 26 27
3 29 28 3
3 31 30 0
3 2 32 33
3 35 34 2
3 4 36 37
3 4 38 39
3 4 40 42
3 40 3 41
3 40 41 42
3 5 3 4
3 5 0 3
3 43 5 44
3 45 44 1
3 43 44 45
3 46 5 47
3 48 0 49
3 50 49 5
3 48 49 50
3 52 51 0
