ply
format ascii 1.0
element vertex 325
property float x
property float y
property float z
element face 253
property list uchar int vertex_index
end_header
32.164204 -29.076363 -37.951195
48.7052 -39.047516 -38.343628
59.996002 -51.310184 -32.978561
41.74807 -39.01683 -37.447548
39.751465 -33.919445 -38.76886
58.12339 -59.702122 -29.793745
51.682568 -42.733944 -37.423576
31.200338 -21.889322 -42.102455
44.024609 -43.848785 -36.314491
45.897682 -34.784538 -39.347313
57.32695 -48.852257 -34.751244
37.535088 -40.599464 -35.664398
39.040775 -38.532791 -36.971954
38.207157 -35.941933 -37.56134
59.521057 -60.521782 -28.859426
31.180862 -31.045069 -36.051727
29.84528 -20.716478 -42.101913
42.610931 -34.42963 -39.067772
43.783775 -36.892036 -38.397232
61.322533 -52.325275 -31.975378
53.52729 -50.415127 -34.474678
54.923523 -51.871456 -33.765274
55.972736 -47.45813 -35.538002
50.188629 -40.955147 -37.89949
29.340639 -31.392605 -34.155014
29.989162 -29.460699 -36.186958
30.771536 -27.459679 -38.169983
40.742432 -36.469624 -38.086128
60.460083 -56.492798 -30.415125
59.087406 -55.564075 -31.363817
52.110901 -48.86277 -35.134361
53.154572 -44.401993 -36.879417
50.669891 -47.207653 -35.736145
49.21347 -45.434883 -36.281288
47.76585 -43.526314 -36.786285
30.306589 -24.024065 -40.192635
31.709187 -25.406271 -40.070786
37.262497 -33.445198 -38.160767
38.691383 -31.438667 -39.477074
46.360641 -41.466644 -37.282364
45.028755 -39.250694 -37.808044
47.267494 -36.993561 -38.808044
57.699287 -54.466415 -32.219452
53.82032 -56.252987 -32.094574
56.311058 -53.227257 -33.014153
58.664101 -50.143654 -33.898674
37.187634 -39.283434 -35.90855
36.878415 -41.624435 -34.902962
37.523668 -36.954668 -36.857021
37.871122 -38.270698 -36.612869
37.187634 -39.283434 -35.90855
32.334598 -30.997048 -36.855866
31.842928 -31.9814 -35.906132
31.672533 -30.060716 -37.001461
32.880246 -30.020011 -37.769623
32.334598 -30.997048 -36.855866
43.600975 -33.432612 -39.533596
42.96188 -32.213463 -39.919712
61.047401 -49.672239 -33.264858
61.710667 -50.179784 -32.763267
60.659267 -51.817729 -32.476969
60.411777 -49.134565 -33.81134
61.047401 -49.672239 -33.264858
55.279111 -46.716106 -35.894314
54.750013 -48.936628 -35.00634
54.056388 -48.194605 -35.362652
56.441214 -45.243198 -36.468586
55.279111 -46.716106 -35.894314
49.843593 -37.809161 -38.951363
50.585308 -38.762976 -38.729293
49.446914 -40.001331 -38.121559
49.084519 -36.876623 -39.141125
49.843593 -37.809161 -38.951363
29.077951 -30.773416 -34.066387
29.0698 -32.316334 -33.129875
29.807437 -27.792245 -37.185978
29.564322 -28.816451 -36.145691
30.198624 -26.791735 -38.177491
30.380349 -28.460189 -37.178471
29.807437 -27.792245 -37.185978
40.608193 -32.923086 -39.292534
41.103676 -34.198176 -38.951168
40.246949 -35.194535 -38.427494
50.83086 -50.291332 -34.623654
51.544441 -51.101419 -34.302818
50.110355 -49.463774 -34.924546
51.390396 -48.035212 -35.435253
50.83086 -50.291332 -34.623654
47.956516 -46.763302 -35.773494
48.666279 -47.705534 -35.496014
47.232706 -45.809017 -36.025993
48.48966 -44.480598 -36.533787
47.956516 -46.763302 -35.773494
37.372383 -31.269462 -39.171422
36.695436 -32.273885 -38.454915
38.086826 -30.266197 -39.829575
37.97694 -32.441933 -38.818921
37.372383 -31.269462 -39.171422
44.673704 -44.95005 -36.053314
43.475575 -46.195366 -35.577785
45.192625 -42.657714 -36.798428
45.841721 -43.75898 -36.53725
44.673704 -44.95005 -36.053314
42.290024 -40.255313 -37.153549
41.250737 -41.371826 -36.656407
46.950215 -33.739845 -39.864204
47.63512 -34.844357 -39.59457
46.582588 -35.889049 -39.077679
56.475166 -56.004526 -31.796277
57.194797 -56.583545 -31.418105
53.109478 -55.551359 -32.444702
52.535425 -57.759418 -31.660874
58.438318 -47.301949 -35.20237
59.106893 -47.947647 -34.776085
57.995525 -49.497956 -34.324959
52.861765 -41.353361 -38.057426
53.597767 -42.187385 -37.785347
52.41857 -43.567968 -37.151496
37.116867 -42.998278 -34.713726
36.878415 -41.624435 -34.902962
37.853295 -41.94046 -35.427891
37.116867 -42.998278 -34.713726
38.287931 -39.566128 -36.318176
38.606138 -40.907123 -36.081668
37.853295 -41.94046 -35.427891
59.015251 -62.46632 -28.084536
60.182914 -60.832279 -28.313327
58.318554 -62.119318 -28.564588
59.015251 -62.46632 -28.084536
57.61972 -61.709488 -29.031748
58.822223 -60.111952 -29.326586
58.318554 -62.119318 -28.564588
31.326162 -32.922159 -34.955841
30.735235 -31.993249 -35.073635
31.326162 -32.922159 -34.955841
31.842928 -31.9814 -35.906132
29.641974 -19.116574 -42.991672
29.390526 -20.254215 -41.962402
30.270542 -19.611025 -43.065857
29.641974 -19.116574 -42.991672
30.948071 -20.197447 -43.066128
30.522809 -21.3029 -42.102184
30.270542 -19.611025 -43.065857
42.897692 -45.026756 -35.831359
43.475575 -46.195366 -35.577785
44.187397 -34.663815 -39.198326
43.197353 -35.660833 -38.732502
43.600975 -33.432612 -39.533596
45.244351 -33.610065 -39.673367
44.840728 -35.838287 -38.872273
44.187397 -34.663815 -39.198326
46.25137 -32.648556 -40.153499
45.244351 -33.610065 -39.673367
62.342717 -50.640405 -32.170279
61.97531 -52.745344 -31.418819
62.342717 -50.640405 -32.170279
61.710667 -50.179784 -32.763267
54.225407 -51.143292 -34.119976
53.661079 -53.360594 -33.280052
52.962963 -52.632429 -33.634754
57.111799 -45.946762 -36.057118
57.788906 -46.643826 -35.663739
56.649843 -48.155193 -35.144623
57.111799 -45.946762 -36.057118
56.441214 -45.243198 -36.468586
51.355159 -39.637661 -38.53154
52.102129 -40.52706 -38.293582
50.935598 -41.844545 -37.661533
51.355159 -39.637661 -38.53154
50.585308 -38.762976 -38.729293
29.403712 -33.06984 -33.139035
29.0698 -32.316334 -33.129875
29.815123 -32.167017 -34.125279
29.403712 -33.06984 -33.139035
29.24006 -29.782404 -35.129719
29.077951 -30.773416 -34.066387
29.664901 -30.426652 -35.170986
29.24006 -29.782404 -35.129719
29.564322 -28.816451 -36.145691
30.139385 -31.201064 -35.14125
29.815123 -32.167017 -34.125279
29.664901 -30.426652 -35.170986
30.585012 -30.252884 -36.119343
30.735235 -31.993249 -35.073635
30.139385 -31.201064 -35.14125
40.80453 -40.083498 -36.92633
41.250737 -41.371826 -36.656407
39.450882 -39.841479 -36.688533
38.606138 -40.907123 -36.081668
40.30171 -38.809895 -37.245621
39.450882 -39.841479 -36.688533
39.891604 -37.501208 -37.529041
41.245251 -37.743227 -37.766838
40.80453 -40.083498 -36.92633
40.30171 -38.809895 -37.245621
42.037926 -33.178179 -39.44199
41.676682 -35.449627 -38.57695
41.103676 -34.198176 -38.951168
42.96188 -32.213463 -39.919712
42.037926 -33.178179 -39.44199
60.654777 -58.876385 -29.096508
60.182914 -60.832279 -28.313327
61.124291 -56.861893 -29.874358
60.654777 -58.876385 -29.096508
59.99057 -58.50729 -29.637276
61.544084 -54.829105 -30.638693
61.124291 -56.861893 -29.874358
60.891308 -54.409036 -31.195251
61.97531 -52.745344 -31.418819
61.544084 -54.829105 -30.638693
52.252636 -51.877598 -33.972977
52.962963 -52.632429 -33.634754
52.819096 -49.638948 -34.804519
52.252636 -51.877598 -33.972977
51.544441 -51.101419 -34.302818
53.348194 -47.418426 -35.692493
54.056388 -48.194605 -35.362652
52.819096 -49.638948 -34.804519
52.632737 -46.632381 -36.006889
53.87003 -45.188038 -36.565022
53.348194 -47.418426 -35.692493
49.394489 -48.591919 -35.223442
50.110355 -49.463774 -34.924546
49.941681 -46.321268 -36.008717
49.394489 -48.591919 -35.223442
48.666279 -47.705534 -35.496014
29.551603 -21.812264 -41.085498
29.390526 -20.254215 -41.962402
29.782258 -23.466058 -40.130859
29.551603 -21.812264 -41.085498
30.075934 -22.370272 -41.147274
29.96615 -25.073928 -39.188817
29.782258 -23.466058 -40.130859
30.539062 -25.741872 -39.181309
30.198624 -26.791735 -38.177491
29.96615 -25.073928 -39.188817
31.754622 -20.814296 -42.999557
30.948071 -20.197447 -43.066128
32.007348 -22.60436 -41.981194
31.754622 -20.814296 -42.999557
32.261772 -24.362834 -40.965359
31.454763 -23.647796 -41.08662
32.007348 -22.60436 -41.981194
32.485813 -26.230937 -39.911716
32.261772 -24.362834 -40.965359
32.713322 -28.065983 -38.851921
31.936695 -27.241317 -39.01099
32.485813 -26.230937 -39.911716
32.880246 -30.020011 -37.769623
32.713322 -28.065983 -38.851921
36.622916 -34.446928 -37.405251
36.695436 -32.273885 -38.454915
37.051338 -35.7063 -37.156734
36.622916 -34.446928 -37.405251
37.734827 -34.693565 -37.861053
37.523668 -36.954668 -36.857021
37.051338 -35.7063 -37.156734
38.834402 -29.271633 -40.459316
38.086826 -30.266197 -39.829575
39.484713 -30.449345 -40.048435
38.834402 -29.271633 -40.459316
40.014753 -31.689735 -39.694328
39.221424 -32.679056 -39.122967
39.484713 -30.449345 -40.048435
40.608193 -32.923086 -39.292534
40.014753 -31.689735 -39.694328
46.544325 -44.788815 -36.289211
47.232706 -45.809017 -36.025993
47.063246 -42.496479 -37.034324
46.544325 -44.788815 -36.289211
45.841721 -43.75898 -36.53725
43.428293 -42.671291 -36.58702
42.897692 -45.026756 -35.831359
43.307876 -39.192916 -37.628391
42.290024 -40.255313 -37.153549
42.765923 -37.954433 -37.92239
43.930366 -40.372246 -37.333797
43.307876 -39.192916 -37.628391
44.406265 -38.071365 -38.102638
44.526682 -41.54974 -37.061267
43.428293 -42.671291 -36.58702
43.930366 -40.372246 -37.333797
48.365665 -35.849646 -39.373333
49.084519 -36.876623 -39.141125
47.986347 -38.020539 -38.575836
48.365665 -35.849646 -39.373333
47.63512 -34.844357 -39.59457
46.950215 -33.739845 -39.864204
46.25137 -32.648556 -40.153499
56.891514 -61.268372 -29.44442
57.61972 -61.709488 -29.031748
57.406849 -59.201399 -30.205252
56.891514 -61.268372 -29.44442
57.888857 -57.132376 -30.990288
58.605398 -57.633099 -30.578781
57.406849 -59.201399 -30.205252
58.393346 -55.015245 -31.791635
57.888857 -57.132376 -30.990288
57.194797 -56.583545 -31.418105
53.263449 -58.421103 -31.31701
52.535425 -57.759418 -31.660874
54.535683 -56.897812 -31.733838
53.263449 -58.421103 -31.31701
54.371921 -54.062221 -32.929924
53.109478 -55.551359 -32.444702
53.661079 -53.360594 -33.280052
55.781052 -55.384947 -32.193627
54.535683 -56.897812 -31.733838
55.065689 -54.740122 -32.554364
57.005173 -53.846836 -32.616802
56.475166 -56.004526 -31.796277
55.781052 -55.384947 -32.193627
59.745827 -48.5513 -34.271397
60.411777 -49.134565 -33.81134
59.330051 -50.726919 -33.438617
59.745827 -48.5513 -34.271397
59.106893 -47.947647 -34.776085
58.438318 -47.301949 -35.20237
57.788906 -46.643826 -35.663739
54.331341 -42.971115 -37.493057
53.87003 -45.188038 -36.565022
54.331341 -42.971115 -37.493057
53.597767 -42.187385 -37.785347
52.861765 -41.353361 -38.057426
52.102129 -40.52706 -38.293582
3 46 11 47
3 48 13 49
3 50 49 11
3 48 49 50
3 0 51 53
3 53 52 15
3 51 52 53
3 0 54 55
3 57 56 17
3 2 58 60
3 60 59 19
3 58 59 60
3 2 61 62
3 63 22 64
3 65 64 20
3 63 64 65
3 67 66 22
3 1 68 70
3 70 69 23
3 68 69 70
3 1 71 72
3 73 24 74
3 75 25 76
3 77 26 78
3 79 78 25
3 77 78 79
3 4 27 12
3 4 80 82
3 82 81 27
3 80 81 82
3 5 28 14
3 5 29 28
3 83 30 84
3 85 32 86
3 87 86 30
3 85 86 87
3 88 33 89
3 90 34 91
3 92 91 33
3 90 91 92
3 7 35 16
3 7 36 35
3 93 37 94
3 95 38 96
3 97 96 37
3 95 96 97
3 8 98 99
3 8 100 102
3 100 39 101
3 100 101 102
3 3 103 104
3 9 40 18
3 9 41 40
3 9 105 107
3 107 106 41
3 105 106 107
3 108 42 109
3 110 43 111
3 10 44 21
3 10 45 44
3 10 112 114
3 114 113 45
3 112 113 114
3 6 115 117
3 117 116 31
3 115 116 117
3 11 118 119
3 11 120 121
3 11 122 124
3 122 12 123
3 122 123 124
3 13 12 11
3 13 4 12
3 125 14 126
3 127 14 128
3 129 5 130
3 131 130 14
3 129 130 131
3 15 132 133
3 135 134 15
3 136 16 137
3 138 16 139
3 140 7 141
3 142 141 16
3 140 141 142
3 143 8 144
3 17 18 3
3 145 18 146
3 147 146 17
3 145 146 147
3 148 9 149
3 150 149 18
3 148 149 150
3 152 151 9
3 19 153 154
3 156 155 19
3 20 157 159
3 157 21 158
3 157 158 159
3 22 21 20
3 22 10 21
3 22 160 162
3 162 161 10
3 160 161 162
3 164 163 22
3 23 165 167
3 167 166 6
3 165 166 167
3 169 168 23
3 24 170 171
3 24 172 173
3 174 24 175
3 25 176 178
3 176 24 177
3 176 177 178
3 25 179 181
3 181 180 24
3 179 180 181
3 25 182 184
3 182 15 183
3 182 183 184
3 26 15 25
3 26 0 15
3 185 3 186
3 12 187 188
3 27 189 191
3 191 190 12
3 189 190 191
3 27 192 194
3 192 3 193
3 192 193 194
3 27 17 3
3 195 17 196
3 197 196 27
3 195 196 197
3 199 198 17
3 14 200 201
3 28 202 204
3 204 203 14
3 202 203 204
3 28 205 206
3 28 207 209
3 207 19 208
3 207 208 209
3 29 19 28
3 29 2 19
3 210 20 211
3 30 212 214
3 212 20 213
3 212 213 214
3 30 215 217
3 217 216 20
3 215 216 217
3 30 218 220
3 218 31 219
3 218 219 220
3 32 31 30
3 32 6 31
3 221 32 222
3 33 223 225
3 223 32 224
3 223 224 225
3 33 6 32
3 33 23 6
3 34 23 33
3 34 1 23
3 16 226 227
3 35 228 230
3 230 229 16
3 228 229 230
3 35 231 232
3 35 233 235
3 233 26 234
3 233 234 235
3 36 26 35
3 36 0 26
3 236 7 237
3 238 7 239
3 240 36 241
3 242 241 7
3 240 241 242
3 243 36 244
3 245 0 246
3 247 246 36
3 245 246 247
3 249 248 0
3 37 250 251
3 37 252 253
3 37 254 256
3 254 13 255
3 254 255 256
3 38 13 37
3 38 4 13
3 257 38 258
3 259 38 260
3 261 4 262
3 263 262 38
3 261 262 263
3 265 264 4
3 266 34 267
3 39 268 270
3 268 34 269
3 268 269 270
3 39 1 34
3 271 8 272
3 18 273 275
3 275 274 3
3 273 274 275
3 40 276 278
3 278 277 18
3 276 277 278
3 40 279 281
3 279 8 280
3 279 280 281
3 40 39 8
3 41 39 40
3 41 1 39
3 41 282 284
3 284 283 1
3 282 283 284
3 286 285 41
3 288 287 9
3 289 5 290
3 291 5 292
3 293 29 294
3 295 294 5
3 293 294 295
3 42 296 298
3 296 29 297
3 296 297 298
3 42 2 29
3 43 299 300
3 43 301 302
3 21 303 305
3 303 43 304
3 303 304 305
3 44 43 21
3 44 306 308
3 308 307 43
3 306 307 308
3 44 309 311
3 309 42 310
3 309 310 311
3 45 42 44
3 45 2 42
3 45 312 314
3 314 313 2
3 312 313 314
3 316 315 45
3 318 317 10
3 31 319 320
3 322 321 31
3 324 323 6
