ply
format ascii 1.0
element vertex 255
property float x
property float y
property float z
element face 217
property list uchar int vertex_index
end_header
8.339899 -90.192535 60.570877
-0.558191 -80.18512 61.595001
0.835848 -85.351013 59.477234
11.466595 -88.20575 60.556984
-0.795452 -77.240204 58.639442
9.307777 -93.672493 56.07502
12.084143 -92.243988 55.966751
4.858795 -87.474762 64.170059
0.410589 -82.414474 64.512093
2.474886 -87.056076 62.154167
15.110473 -89.483322 54.750351
8.026276 -88.368629 62.891197
9.641577 -87.448837 63.027061
9.861151 -89.35743 60.700836
-0.685619 -75.560997 57.239525
-0.610804 -78.286636 56.169052
11.072569 -95.025665 54.03344
11.365765 -96.825073 51.949356
4.775484 -85.656624 66.530731
3.414738 -85.715965 65.678352
-0.175894 -79.793289 65.604591
-0.174299 -81.404358 63.079239
1.562311 -86.348686 60.872803
13.835661 -93.221848 53.233643
13.571228 -90.989014 55.467651
15.300529 -91.808144 52.423523
-0.382429 -81.506485 59.058884
-0.014717 -82.848686 60.540321
-0.828075 -77.417755 62.62326
-0.759001 -78.7883 60.102303
-0.577085 -79.977768 57.589897
8.791756 -91.963509 58.291779
10.224131 -91.261551 58.408752
10.658447 -93.157944 56.182526
6.308826 -87.153656 64.824287
6.522993 -88.953278 62.479759
0.53919 -83.974648 61.991562
1.291523 -84.850334 63.364693
2.250095 -85.440865 64.609589
3.575739 -87.439568 63.268677
5.154688 -89.170181 61.794601
6.923077 -90.659256 60.149437
7.455261 -92.266212 57.863953
11.735554 -90.200577 58.229782
13.310713 -88.85186 57.79538
14.938558 -87.314087 57.16613
16.814388 -90.187286 51.451683
16.698231 -87.843201 53.896896
-0.566578 -74.662586 56.584801
-0.638308 -74.211506 57.757832
-0.59045 -76.006298 56.031998
-0.566578 -74.662586 56.584801
10.76541 -96.815296 51.876969
10.581615 -96.061424 52.934692
2.823625 -84.692974 66.358688
3.443999 -84.785477 66.861324
-0.366245 -80.794739 62.33712
-0.386549 -80.046867 63.605064
-0.578495 -79.437248 62.862945
15.357217 -93.034367 51.321717
14.568095 -92.514996 52.828583
14.624783 -93.741219 51.726776
-0.047123 -82.802868 58.539662
-0.23572 -82.066834 57.80492
11.405697 -87.229813 61.731621
10.493188 -86.851357 62.96666
10.554086 -87.827293 61.792023
12.302231 -87.511505 60.367618
11.405697 -87.229813 61.731621
-0.847009 -76.015225 63.107746
-0.798212 -76.655609 63.874908
-0.841441 -76.624031 59.880211
-0.798139 -75.861901 59.149974
-0.777227 -78.014252 59.370873
-0.823216 -77.398079 60.611641
-0.841441 -76.624031 59.880211
-0.45648 -79.625061 55.639404
-0.483214 -78.709014 54.948914
11.747813 -94.672752 53.913029
11.861154 -95.706284 52.871101
0.43593 -81.555187 65.757283
0.142688 -80.244595 66.303531
0.117347 -81.103881 65.058342
0.810581 -82.79768 65.17979
0.43593 -81.555187 65.757283
5.391964 -89.952633 60.61871
4.547092 -89.091693 61.326508
6.276159 -90.69717 59.796127
6.038882 -89.914718 60.972019
5.391964 -89.952633 60.61871
6.54225 -91.500648 58.653385
7.189169 -91.462734 59.006695
6.276159 -90.69717 59.796127
17.601332 -90.608711 49.702387
16.844759 -91.455914 50.291004
17.516119 -87.021313 53.44688
17.538865 -88.167229 52.15818
16.655171 -86.773964 55.156002
17.516119 -87.021313 53.44688
8.833927 -87.908733 62.959129
8.772284 -86.969787 64.12067
7.964634 -87.429683 64.052738
-0.743222 -75.022297 58.450016
-0.638308 -74.211506 57.757832
-0.740536 -76.4006 57.939484
-0.798139 -75.861901 59.149974
-0.743222 -75.022297 58.450016
-0.553042 -77.369118 55.496762
-0.648211 -76.923817 56.704289
-0.59045 -76.006298 56.031998
-0.483214 -78.709014 54.948914
-0.553042 -77.369118 55.496762
10.435016 -95.16172 53.976734
10.190173 -94.349079 55.05423
9.55262 -94.485134 54.997524
11.219167 -95.925369 52.991398
10.435016 -95.16172 53.976734
10.581615 -96.061424 52.934692
12.007751 -96.605987 51.829059
11.861154 -95.706284 52.871101
11.219167 -95.925369 52.991398
4.124371 -84.755806 67.287514
4.847293 -84.689434 67.68018
4.095111 -85.686295 66.104542
4.124371 -84.755806 67.287514
3.443999 -84.785477 66.861324
-0.387346 -79.241333 64.86774
-0.334643 -78.420471 66.12051
-0.175096 -80.598824 64.341915
-0.387346 -79.241333 64.86774
-0.386549 -80.046867 63.605064
1.782348 -87.001548 59.639492
1.19908 -85.84985 60.175019
1.419116 -86.502712 58.941707
2.225145 -87.423279 60.292179
1.782348 -87.001548 59.639492
2.681433 -87.776973 60.932861
2.018598 -86.702381 61.513485
2.225145 -87.423279 60.292179
3.207191 -88.034641 61.506291
2.681433 -87.776973 60.932861
0.136733 -83.473968 59.28038
-0.198573 -82.177585 59.799602
-0.047123 -82.802868 58.539662
0.562016 -84.725132 58.748837
0.410566 -84.09985 60.008778
0.136733 -83.473968 59.28038
1.05747 -85.935608 58.238156
0.562016 -84.725132 58.748837
1.419116 -86.502712 58.941707
1.05747 -85.935608 58.238156
9.627848 -86.487541 64.184471
8.772284 -86.969787 64.12067
9.627848 -86.487541 64.184471
10.493188 -86.851357 62.96666
-0.713437 -78.053566 63.377075
-0.798212 -76.655609 63.874908
-0.693133 -78.801437 62.109131
-0.578495 -79.437248 62.862945
-0.713437 -78.053566 63.377075
-0.857753 -76.712806 61.872119
-0.847009 -76.015225 63.107746
-0.793538 -78.103027 61.362781
-0.857753 -76.712806 61.872119
-0.823216 -77.398079 60.611641
-0.333047 -81.302475 57.070427
-0.23572 -82.066834 57.80492
-0.479757 -80.742126 58.32439
-0.43962 -80.470627 56.349826
-0.593944 -79.132202 56.879475
-0.45648 -79.625061 55.639404
-0.333047 -81.302475 57.070427
-0.43962 -80.470627 56.349826
11.540752 -93.738891 54.987572
10.865508 -94.091804 55.107983
11.747813 -94.672752 53.913029
12.2536 -93.281914 54.879684
11.371295 -92.700966 56.074639
11.540752 -93.738891 54.987572
13.129359 -93.770843 53.513131
12.959902 -92.732918 54.600197
12.2536 -93.281914 54.879684
13.919498 -94.367317 52.172142
13.129359 -93.770843 53.513131
14.624783 -93.741219 51.726776
13.919498 -94.367317 52.172142
11.404592 -97.663395 50.923157
10.76541 -96.815296 51.876969
12.014502 -97.603336 50.82074
11.404592 -97.663395 50.923157
12.007751 -96.605987 51.829059
12.014502 -97.603336 50.82074
5.544136 -85.459087 66.834869
4.847293 -84.689434 67.68018
6.310807 -86.207604 65.981648
5.544136 -85.459087 66.834869
5.542155 -86.40514 65.677509
7.105909 -86.822197 65.019283
6.310807 -86.207604 65.981648
7.167551 -87.761143 63.857742
7.964634 -87.429683 64.052738
7.105909 -86.822197 65.019283
-0.095014 -78.917965 66.843864
-0.334643 -78.420471 66.12051
-0.095014 -78.917965 66.843864
0.142688 -80.244595 66.303531
1.251048 -84.01561 64.60609
0.810581 -82.79768 65.17979
0.851056 -83.632404 63.938393
1.730334 -84.310875 65.228538
1.251048 -84.01561 64.60609
1.770809 -85.1456 63.987141
2.241303 -84.555424 65.824307
1.730334 -84.310875 65.228538
2.832416 -85.578415 65.14397
2.823625 -84.692974 66.358688
2.241303 -84.555424 65.824307
3.757618 -88.226387 62.063546
3.025313 -87.247822 62.711422
3.207191 -88.034641 61.506291
4.365214 -88.304874 62.531639
3.757618 -88.226387 62.063546
4.547092 -89.091693 61.326508
6.84197 -92.21294 57.500873
6.54225 -91.500648 58.653385
7.750658 -93.014209 56.749321
6.84197 -92.21294 57.500873
8.676916 -93.71735 55.854855
8.381519 -92.969352 56.969487
7.750658 -93.014209 56.749321
9.55262 -94.485134 54.997524
8.676916 -93.71735 55.854855
13.22429 -87.834561 58.986817
12.302231 -87.511505 60.367618
12.388654 -88.528805 59.176182
14.038213 -87.065674 58.672191
13.22429 -87.834561 58.986817
14.124636 -88.082974 57.480755
14.89932 -86.303833 58.392761
14.038213 -87.065674 58.672191
16.087829 -92.266343 50.776924
15.357217 -93.034367 51.321717
16.057458 -90.997715 51.937603
16.087829 -92.266343 50.776924
16.844759 -91.455914 50.291004
17.596943 -89.339271 50.935574
17.601332 -90.608711 49.702387
16.75631 -89.015243 52.67429
17.596943 -89.339271 50.935574
17.538865 -88.167229 52.15818
15.775334 -86.509407 56.790619
15.818395 -87.578644 55.531513
16.655171 -86.773964 55.156002
14.89932 -86.303833 58.392761
15.775334 -86.509407 56.790619
3 0 13 11
3 48 14 49
3 51 50 14
3 52 17 53
3 54 19 55
3 1 56 58
3 56 21 57
3 56 57 58
3 59 25 60
3 61 60 23
3 59 60 61
3 63 62 26
3 3 64 66
3 66 65 12
3 64 65 66
3 3 67 68
3 69 28 70
3 4 71 72
3 4 73 75
3 73 29 74
3 73 74 75
3 4 30 29
3 77 76 15
3 5 33 31
3 79 78 16
3 7 34 18
3 7 35 34
3 8 80 82
3 82 81 20
3 80 81 82
3 8 83 84
3 2 36 27
3 9 37 22
3 9 38 37
3 9 39 38
3 85 40 86
3 87 41 88
3 89 88 40
3 87 88 89
3 90 42 91
3 92 91 41
3 90 91 92
3 6 43 32
3 10 44 24
3 10 45 44
3 93 46 94
3 95 47 96
3 98 97 47
3 11 99 101
3 99 12 100
3 99 100 101
3 13 12 11
3 13 3 12
3 14 102 103
3 14 104 106
3 104 4 105
3 104 105 106
3 14 15 4
3 107 15 108
3 109 108 14
3 107 108 109
3 111 110 15
3 112 16 113
3 114 113 5
3 112 113 114
3 17 115 117
3 115 16 116
3 115 116 117
3 17 118 120
3 120 119 16
3 118 119 120
3 121 18 122
3 19 123 125
3 123 18 124
3 123 124 125
3 19 7 18
3 126 20 127
3 21 128 130
3 128 20 129
3 128 129 130
3 21 8 20
3 131 22 132
3 133 132 2
3 131 132 133
3 134 22 135
3 136 9 137
3 138 137 22
3 136 137 138
3 140 139 9
3 23 24 6
3 25 24 23
3 25 10 24
3 26 27 1
3 141 27 142
3 143 142 26
3 141 142 143
3 144 2 145
3 146 145 27
3 144 145 146
3 147 2 148
3 150 149 2
3 12 151 152
3 154 153 12
3 28 155 156
3 28 157 159
3 157 1 158
3 157 158 159
3 160 28 161
3 29 162 164
3 162 28 163
3 162 163 164
3 29 1 28
3 29 26 1
3 30 26 29
3 30 165 167
3 167 166 26
3 165 166 167
3 15 30 4
3 168 30 169
3 170 169 15
3 168 169 170
3 172 171 30
3 31 32 0
3 33 32 31
3 33 6 32
3 16 33 5
3 173 33 174
3 175 174 16
3 173 174 175
3 176 6 177
3 178 177 33
3 176 177 178
3 179 23 180
3 181 180 6
3 179 180 181
3 182 23 183
3 185 184 23
3 186 17 187
3 188 17 189
3 191 190 17
3 18 192 193
3 34 194 196
3 196 195 18
3 194 195 196
3 34 197 198
3 34 199 201
3 199 11 200
3 199 200 201
3 35 11 34
3 35 0 11
3 20 202 203
3 205 204 20
3 27 21 1
3 36 21 27
3 36 8 21
3 22 36 2
3 37 36 22
3 37 8 36
3 37 206 208
3 208 207 8
3 206 207 208
3 38 209 211
3 211 210 37
3 209 210 211
3 38 212 213
3 38 214 216
3 214 19 215
3 214 215 216
3 39 19 38
3 39 7 19
3 217 39 218
3 219 218 9
3 217 218 219
3 40 220 222
3 220 39 221
3 220 221 222
3 40 7 39
3 40 35 7
3 41 35 40
3 41 0 35
3 41 31 0
3 42 31 41
3 42 5 31
3 223 42 224
3 225 42 226
3 227 5 228
3 229 228 42
3 227 228 229
3 231 230 5
3 32 13 0
3 43 13 32
3 43 3 13
3 24 43 6
3 44 43 24
3 44 3 43
3 44 232 234
3 234 233 3
3 232 233 234
3 45 235 237
3 237 236 44
3 235 236 237
3 45 238 239
3 240 25 241
3 46 242 244
3 242 25 243
3 242 243 244
3 46 10 25
3 245 46 246
3 47 247 249
3 247 46 248
3 247 248 249
3 47 10 46
3 47 45 10
3 250 45 251
3 252 251 47
3 250 251 252
3 254 253 45
