ply
format ascii 1.0
element vertex 547
property float x
property float y
property float z
element face 625
property list uchar int vertex_index
end_header
69.877029 -9.418596 30.266304
58.054901 -6.176364 38.924961
65.689178 6.592344 24.91814
51.377678 -7.044213 45.806515
54.099701 -13.066685 47.26701
52.356445 0.762735 50.362938
57.494011 1.25563 40.735809
65.229988 -6.698997 33.957001
61.456291 -12.492791 42.893238
63.198608 1.128195 31.983908
68.987556 -2.326021 25.565765
69.465187 -0.40209 18.239395
70.742874 -9.539621 27.122898
48.566063 -7.428116 50.080666
48.481895 -11.004391 48.84996
45.492466 -11.511497 52.760834
49.488037 -3.415765 52.546547
51.998051 -3.222055 47.808472
61.710403 -6.153815 36.267662
63.219818 -9.549216 38.402786
59.599289 -9.421154 40.547737
52.99865 -16.057346 52.064995
56.680897 -15.455918 49.723038
57.533897 -2.531191 39.055077
60.229912 1.456619 36.172394
60.712139 -2.455576 35.372002
64.079971 -2.947977 32.227051
67.432335 4.561174 17.356499
68.176796 3.710842 20.856949
69.844948 -1.085993 21.697767
67.758705 2.193176 24.562481
54.560383 -6.558615 42.07605
55.759415 -9.772485 42.852219
51.972431 -10.378533 45.560928
50.155891 -13.840148 49.710983
49.081669 -17.02603 54.428528
53.893791 4.679495 47.771675
56.518562 4.82172 42.874001
54.919083 0.93594 45.534302
54.64558 -2.88179 43.236679
68.155853 -7.891078 31.894928
68.620956 -11.495734 33.741329
66.325073 -10.276974 36.187469
64.454025 -13.045429 40.52774
57.951881 -12.546091 45.072647
59.902653 -15.376598 47.275612
59.193283 5.116793 37.95623
62.01738 5.106325 33.128986
64.963394 4.245872 28.544853
66.266815 -0.075745 28.353424
67.284409 -4.212481 29.667625
69.714226 -6.351835 27.852922
70.681694 -5.640094 23.92355
70.35463 -9.438058 28.865263
70.01255 -10.839113 30.507259
47.302757 -7.559752 52.369331
46.939869 -9.489521 51.350861
45.67646 -9.648007 53.583115
47.811737 -5.539137 53.607773
49.023438 -5.452621 51.247673
59.877197 -6.105158 37.543381
60.602875 -7.794695 38.375408
58.720901 -7.847017 39.558609
57.667648 -4.396601 38.752075
59.088177 -2.43931 37.147926
59.367825 -4.316869 37.113777
61.118229 -4.350797 35.606266
65.656677 7.439072 23.035566
66.945152 5.991402 20.893122
67.043129 5.323008 22.748264
68.115379 3.04682 22.693609
66.865837 4.455215 24.604469
52.924873 -6.803998 43.867783
53.184967 -8.507596 43.74263
51.465488 -8.791595 45.416981
47.346199 -12.87257 50.635643
48.252373 -14.258938 51.092056
49.543869 -15.450846 52.018539
51.030739 0.738285 52.694176
50.593628 2.801825 53.727455
51.991016 2.769337 51.489021
52.554955 4.716606 50.149139
53.331299 2.766104 49.138252
54.634228 2.815857 46.718544
53.646179 0.825056 47.962166
51.614296 -5.172217 46.652603
53.297688 -3.066645 45.484856
53.011154 -4.975589 44.486687
54.484238 -4.760957 42.440529
66.801094 -7.217981 32.894905
67.259415 -9.009179 34.014824
65.823921 -8.479 35.091263
62.303978 -11.0225 40.650978
63.920052 -11.25169 39.540951
63.025406 -12.690048 41.743416
62.166283 -14.131823 43.90028
54.846786 -11.463203 44.998749
56.801228 -11.191536 43.864285
56.055603 -12.76075 46.153305
58.355545 -15.342672 48.518326
59.13736 -16.794682 49.358963
60.473129 -16.997902 47.98114
57.208527 3.077631 41.820549
57.841755 4.972841 40.409286
58.518921 3.23629 39.396488
61.686966 1.383793 34.022079
61.265465 3.34454 34.686169
62.713634 3.169043 32.433395
63.485168 4.810801 30.789845
64.19873 2.767113 30.282345
65.68837 2.100618 28.271671
64.740402 0.650681 30.083345
64.625343 -4.869088 32.949326
65.735939 -3.475372 30.868301
66.272758 -5.391932 31.788717
67.753593 -6.101869 30.746269
69.552094 -1.628599 23.593857
70.35778 -3.427909 22.64912
70.005806 -3.85339 24.587891
70.302094 -5.921188 25.872986
69.411575 -4.424891 26.595619
70.916115 -9.702675 25.292957
49.923992 -7.256316 47.883606
49.842266 -9.06006 47.24752
48.330086 -9.295003 49.23037
46.914597 -11.275493 50.731842
45.729675 -13.199556 52.406624
49.749725 -1.351158 53.807213
51.041611 -1.307083 51.482567
52.312637 -1.235317 49.098732
50.732887 -3.337238 50.175446
50.287659 -5.332918 48.916481
63.512291 -6.346219 35.077946
64.201294 -8.097267 36.166065
62.444443 -7.871947 37.253483
61.455063 -9.414222 39.471127
60.560486 -10.94645 41.722549
53.49696 -14.589584 49.635704
55.43055 -14.257945 48.510719
54.887794 -15.700594 50.900375
57.536469 -0.628527 39.761299
58.834263 1.395824 38.415665
58.961136 -0.515026 37.616875
60.455078 -0.499884 35.582905
62.014076 -0.627287 33.671547
63.618393 -0.934984 31.896507
62.387627 -2.61541 33.73053
62.886459 -4.527224 34.220795
66.594551 6.490744 19.060019
67.942497 4.204273 19.071173
69.008934 1.786709 19.332405
69.822807 -0.683958 19.904167
69.128883 1.321808 21.105392
68.933289 0.69808 22.9594
68.445877 -0.097515 24.873915
56.275215 -6.338317 40.431076
56.8368 -8.003616 40.8311
54.982666 -8.234541 42.218739
53.843445 -10.059367 44.142609
52.887493 -11.794628 46.218178
50.17598 -10.70103 47.12645
50.959599 -12.155943 47.550617
52.119576 -13.435398 48.443672
51.520168 -14.99485 50.796753
51.048492 -16.505758 53.234619
55.208488 4.714842 45.3358
55.919975 2.924932 44.268875
56.195053 1.088215 43.115902
53.579857 -1.122412 46.699387
54.861069 -0.969513 44.323441
56.17429 -0.794136 42.002701
56.054398 -2.691833 41.087978
56.036865 -4.556543 40.527237
69.217216 -8.672034 30.985012
69.365623 -10.320383 31.814941
68.45475 -9.651948 32.929085
67.590485 -10.846105 35.002777
66.670937 -12.163605 37.124413
64.855865 -9.837471 37.315346
65.383713 -11.636215 38.370762
57.689075 -9.549517 41.664001
58.716454 -11.010079 42.783169
59.759571 -12.449501 43.995167
57.285141 -14.024773 47.396637
59.034897 -13.913984 46.269814
60.664215 -13.945383 45.109741
61.324604 -15.567338 45.988464
56.692463 6.609249 41.336273
59.499847 6.866646 36.397171
59.867607 3.346291 37.013397
60.584023 5.185743 35.525208
60.966198 6.876812 33.930592
62.466 6.700438 31.479548
63.977478 6.267616 29.072262
65.462631 5.528027 26.757671
66.408905 3.377712 26.447235
67.128746 1.147825 26.450563
67.710678 -1.0662 26.833563
65.228981 -1.452036 30.275421
66.785812 -2.198523 28.831348
68.210091 -3.186859 27.593338
68.640465 -5.168156 28.649071
68.983643 -6.994239 29.849236
69.874458 -8.065342 29.167057
66.682617 4.825512 15.732211
70.787323 -7.711588 21.799143
70.410172 -3.125113 20.815788
70.78627 -5.46803 22.055101
70.955254 -7.667588 23.571524
70.814194 -7.683619 25.444366
70.427673 -7.795396 27.337048
45.902157 -8.655369 54.147709
46.489609 -8.603879 52.976223
46.715305 -7.611242 53.540817
46.969795 -6.600934 54.160038
47.225554 -5.574867 54.780414
46.715305 -7.611242 53.540817
47.557247 -6.549444 52.988552
46.969795 -6.600934 54.160038
47.352198 -14.467565 51.847519
47.799286 -13.565754 50.86385
46.899111 -13.774381 51.619312
47.934081 -15.098655 52.207462
47.352198 -14.467565 51.847519
58.733113 -17.506838 50.340122
58.409136 -16.773264 50.030873
58.954067 -18.326949 50.583847
59.358314 -17.614793 49.602688
58.733113 -17.506838 50.340122
69.121242 -0.308049 17.481656
69.019284 0.857748 17.950339
69.477001 -1.600527 17.922651
69.121242 -0.308049 17.481656
69.794941 -1.66252 18.682178
69.477001 -1.600527 17.922651
70.707115 -10.556819 27.137596
70.793735 -10.638346 26.222625
70.829495 -9.621148 26.207928
49.618881 -2.383462 53.17688
48.99926 -2.412298 54.342617
48.868416 -3.444602 53.712284
65.995091 7.291365 20.094777
65.771209 7.542845 19.143197
50.557745 -12.998045 48.6308
50.02997 -12.338696 48.284475
49.628116 -13.180798 49.364658
49.864439 -17.521217 55.063263
50.84785 -17.261081 54.466308
50.065081 -16.765894 53.831574
50.156893 3.854246 54.146778
50.882295 3.803114 53.077873
53.28919 5.621236 48.209992
52.619772 5.639791 49.398724
53.224373 4.69805 48.960407
53.952907 5.584081 47.008167
53.28919 5.621236 48.209992
54.55114 4.697169 46.553737
54.610256 5.601755 45.790229
53.952907 5.584081 47.008167
65.092056 -13.298241 39.880859
65.5569 -12.593635 38.80237
64.918869 -12.340822 39.449251
64.618931 -14.01026 40.909981
65.092056 -13.298241 39.880859
61.090496 -17.178306 47.278874
60.608845 -17.903773 48.175949
56.605513 5.715485 42.105137
56.017357 6.558633 42.567938
55.930407 5.664868 43.336802
58.634466 5.933799 38.411678
57.958702 5.861823 39.638206
58.517519 5.044817 39.182758
59.346565 5.99172 37.1767
58.787748 6.808725 37.632148
58.634466 5.933799 38.411678
67.057476 4.693343 16.544355
66.355228 5.846101 16.502454
66.730087 5.713932 17.314597
70.675431 -6.543918 21.060288
70.527988 -7.751105 20.9952
69.012192 -11.822108 33.049093
69.384525 -11.234432 32.085899
68.99329 -10.908058 32.778135
70.403119 -10.324899 28.887404
70.59724 -10.375681 28.016222
70.548752 -9.48884 27.99408
70.232079 -11.025427 29.708402
70.403119 -10.324899 28.887404
70.18359 -10.138585 29.686261
69.977916 -11.794076 30.655216
70.232079 -11.025427 29.708402
48.030266 -4.506288 54.242897
47.225554 -5.574867 54.780414
48.649887 -4.477451 53.07716
48.868416 -3.444602 53.712284
48.030266 -4.506288 54.242897
53.687849 -16.590261 52.668419
52.774792 -16.785007 53.282123
66.300915 6.715237 21.964344
66.170391 7.041694 21.011329
65.526153 7.765529 22.082551
48.22327 -12.697009 49.826988
48.791118 -11.762919 48.934146
47.914047 -11.938481 49.742801
48.676357 -13.390193 50.055194
48.22327 -12.697009 49.826988
47.799286 -13.565754 50.86385
49.204132 -14.049543 50.401519
49.628116 -13.180798 49.364658
48.676357 -13.390193 50.055194
48.579829 -15.694609 52.670704
48.898121 -14.854892 51.555297
47.934081 -15.098655 52.207462
48.348728 -16.4822 53.875698
49.312769 -16.238438 53.223534
48.579829 -15.694609 52.670704
50.812184 1.770055 53.210815
50.122427 1.764913 54.319439
50.340982 0.733143 53.802799
51.58099 3.78687 51.958656
50.882295 3.803114 53.077873
51.292322 2.785581 52.608238
52.272986 3.742971 50.81908
51.862959 4.760504 51.288715
51.58099 3.78687 51.958656
63.282547 -13.583616 42.186726
63.996856 -13.761306 41.578888
63.739716 -12.867739 41.135578
62.852986 -14.304503 43.265158
63.282547 -13.583616 42.186726
62.595844 -13.410936 42.821848
62.398596 -15.024075 44.277209
62.852986 -14.304503 43.265158
58.018228 -16.047259 49.610554
57.518221 -15.399295 49.120682
57.180904 -16.103882 50.21291
58.746453 -16.068677 48.938645
58.018228 -16.047259 49.610554
58.409136 -16.773264 50.030873
60.026199 -17.716403 48.913776
59.805245 -16.896292 48.670051
59.358314 -17.614793 49.602688
60.161914 -18.622274 49.108586
60.608845 -17.903773 48.175949
60.026199 -17.716403 48.913776
67.63829 3.454805 16.733007
68.002858 3.33938 17.508891
68.624691 -12.50229 34.044874
68.18998 -12.149623 34.765061
70.765103 -10.82033 25.333196
70.707363 -10.919545 24.438679
70.858375 -9.80189 24.398441
70.765103 -10.82033 25.333196
70.793735 -10.638346 26.222625
70.707115 -10.556819 27.137596
70.59724 -10.375681 28.016222
46.090849 -13.937874 52.504803
46.899111 -13.774381 51.619312
46.537937 -13.036063 51.521134
49.085235 -1.37109 54.917694
48.99926 -2.412298 54.342617
49.700475 -0.311579 54.359318
49.085235 -1.37109 54.917694
50.390232 -0.306437 53.250694
50.340982 0.733143 53.802799
49.700475 -0.311579 54.359318
54.632421 -16.411886 52.086109
53.943222 -15.87897 51.482685
53.687849 -16.590261 52.668419
55.490486 -16.282698 51.453941
54.632421 -16.411886 52.086109
56.387038 -16.160359 50.865273
55.784346 -15.578256 50.311706
55.490486 -16.282698 51.453941
57.180904 -16.103882 50.21291
56.387038 -16.160359 50.865273
66.311195 6.678717 18.166358
65.771209 7.542845 19.143197
67.013443 5.525959 18.208259
66.730087 5.713932 17.314597
66.311195 6.678717 18.166358
66.769851 6.241073 19.976571
65.995091 7.291365 20.094777
66.170391 7.041694 21.011329
68.257938 3.160929 18.366228
68.002858 3.33938 17.508891
67.687416 4.382723 18.213836
68.791157 1.952148 18.496844
68.257938 3.160929 18.366228
68.475716 2.995491 19.201789
69.23706 0.69231 18.7859
69.019284 0.857748 17.950339
68.791157 1.952148 18.496844
49.638161 -11.611239 48.072391
49.328938 -10.852711 47.988205
48.791118 -11.762919 48.934146
50.56779 -11.428486 47.338533
49.638161 -11.611239 48.072391
50.02997 -12.338696 48.284475
51.799713 -17.009213 53.866935
52.774792 -16.785007 53.282123
52.023571 -16.281552 52.649807
51.799713 -17.009213 53.866935
50.84785 -17.261081 54.466308
49.857242 2.816079 54.769008
50.122427 1.764913 54.319439
49.857242 2.816079 54.769008
50.156893 3.854246 54.146778
51.946817 5.715537 50.563125
51.862959 4.760504 51.288715
51.946817 5.715537 50.563125
52.619772 5.639791 49.398724
55.275369 5.611429 44.567701
54.610256 5.601755 45.790229
55.863525 4.768281 44.1049
55.930407 5.664868 43.336802
55.275369 5.611429 44.567701
64.78561 8.389415 23.245162
65.526153 7.765529 22.082551
64.907295 7.984086 24.214841
64.78561 8.389415 23.245162
64.923545 7.560722 25.156128
65.672928 7.015708 23.976853
64.907295 7.984086 24.214841
67.674744 -11.824808 35.395785
68.18998 -12.149623 34.765061
68.105721 -11.17092 34.372053
67.21497 -12.483559 36.456603
67.674744 -11.824808 35.395785
67.130711 -11.504855 36.063595
66.755127 -13.17472 37.489429
67.21497 -12.483559 36.456603
66.200512 -12.85733 38.179195
66.027325 -11.89991 37.747587
65.5569 -12.593635 38.80237
66.755127 -13.17472 37.489429
66.200512 -12.85733 38.179195
64.618931 -14.01026 40.909981
63.996856 -13.761306 41.578888
61.977756 -15.741833 45.3213
62.398596 -15.024075 44.277209
61.745444 -14.849581 44.944372
61.516233 -16.463024 46.282536
60.898866 -16.28262 46.984802
61.090496 -17.178306 47.278874
61.977756 -15.741833 45.3213
61.516233 -16.463024 46.282536
45.105951 -9.71606 54.737114
45.902157 -8.655369 54.147709
44.950298 -10.683402 54.248406
45.105951 -9.71606 54.737114
44.858301 -11.615147 53.837265
45.584463 -10.579752 53.171975
44.950298 -10.683402 54.248406
44.883391 -12.50633 53.54211
44.858301 -11.615147 53.837265
45.001995 -13.350359 53.365005
45.61107 -12.355526 52.583729
44.883391 -12.50633 53.54211
45.260803 -14.14116 53.328553
45.001995 -13.350359 53.365005
46.090849 -13.937874 52.504803
45.260803 -14.14116 53.328553
48.114024 -17.312659 55.047055
48.348728 -16.4822 53.875698
48.894712 -17.82065 55.654438
48.114024 -17.312659 55.047055
49.864439 -17.521217 55.063263
48.894712 -17.82065 55.654438
64.941162 7.051239 26.095199
64.923545 7.560722 25.156128
55.874216 7.400004 41.72414
56.017357 6.558633 42.567938
56.579298 7.442838 40.496149
55.874216 7.400004 41.72414
57.384056 6.680027 40.101699
57.267109 5.791045 40.87278
57.958702 5.861823 39.638206
56.579298 7.442838 40.496149
57.384056 6.680027 40.101699
58.717888 7.629342 36.79377
58.787748 6.808725 37.632148
59.481192 7.662554 35.554165
58.717888 7.629342 36.79377
60.214367 7.667637 34.320875
59.481192 7.662554 35.554165
60.233023 6.871729 35.163882
60.999724 7.631946 33.074537
60.214367 7.667637 34.320875
61.749624 7.54376 31.849016
60.999724 7.631946 33.074537
61.716099 6.788625 32.70507
62.544575 7.397048 30.603053
61.749624 7.54376 31.849016
63.300314 7.180637 29.399409
62.544575 7.397048 30.603053
63.221739 6.484027 30.275905
64.085312 6.888875 28.172261
63.300314 7.180637 29.399409
64.827889 6.51908 27.014965
64.085312 6.888875 28.172261
64.720055 5.897822 27.914966
65.575905 6.060185 25.837905
64.941162 7.051239 26.095199
64.827889 6.51908 27.014965
65.986232 5.999221 15.643576
66.355228 5.846101 16.502454
66.211781 4.935742 14.973413
65.986232 5.999221 15.643576
67.263431 3.586974 15.920863
67.057476 4.693343 16.544355
67.63829 3.454805 16.733007
66.773056 3.672375 15.210907
67.263431 3.586974 15.920863
66.211781 4.935742 14.973413
66.773056 3.672375 15.210907
70.566597 -8.911641 21.82179
70.527988 -7.751105 20.9952
70.79398 -8.806347 22.651534
70.566597 -8.911641 21.82179
69.973751 -1.803454 19.514564
69.794941 -1.66252 18.682178
69.643997 -0.543024 19.071781
70.267434 -3.024032 19.970374
69.973751 -1.803454 19.514564
70.11649 -1.904535 20.359977
70.486855 -4.25068 20.56861
70.267434 -3.024032 19.970374
70.674904 -5.422139 21.188267
70.486855 -4.25068 20.56861
70.598221 -4.296571 21.435445
70.786797 -6.589809 21.927122
70.675431 -6.543918 21.060288
70.674904 -5.422139 21.188267
70.877945 -8.784346 23.537724
70.79398 -8.806347 22.651534
70.871288 -7.689588 22.685333
70.935685 -8.685132 24.43224
70.858375 -9.80189 24.398441
70.877945 -8.784346 23.537724
69.707988 -11.493797 31.432058
69.689087 -10.579748 31.1611
69.384525 -11.234432 32.085899
69.977916 -11.794076 30.655216
69.707988 -11.493797 31.432058
69.012192 -11.822108 33.049093
68.624691 -12.50229 34.044874
3 0 54 53
3 211 57 212
3 213 212 55
3 211 212 213
3 214 58 215
3 216 55 217
3 218 217 58
3 216 217 218
3 1 62 60
3 1 65 63
3 1 60 65
3 2 69 67
3 2 71 69
3 3 74 72
3 219 76 220
3 221 220 75
3 219 220 221
3 223 222 76
3 5 80 78
3 5 82 80
3 5 84 82
3 3 87 85
3 3 72 87
3 7 91 89
3 8 94 92
3 8 95 94
3 4 98 96
3 224 100 225
3 228 227 100
3 226 227 228
3 6 104 102
3 9 107 105
3 9 109 107
3 9 111 109
3 7 114 112
3 7 89 114
3 11 229 230
3 11 231 232
3 11 233 234
3 10 118 116
3 10 120 118
3 12 235 237
3 237 236 121
3 235 236 237
3 13 124 122
3 15 125 56
3 15 126 125
3 16 238 240
3 238 127 239
3 238 239 240
3 16 128 127
3 16 130 128
3 13 131 59
3 13 122 131
3 18 134 132
3 20 135 61
3 20 136 135
3 21 139 137
3 23 142 140
3 25 143 64
3 25 144 143
3 25 146 144
3 18 147 66
3 18 132 147
3 241 148 242
3 28 149 68
3 28 150 149
3 28 152 150
3 30 153 70
3 30 154 153
3 31 157 155
3 33 158 73
3 33 159 158
3 14 160 123
3 34 243 245
3 243 161 244
3 243 244 245
3 34 162 161
3 34 163 162
3 35 164 77
3 35 246 248
3 248 247 164
3 246 247 248
3 250 249 79
3 36 251 253
3 253 252 81
3 251 252 253
3 36 254 255
3 36 256 258
3 256 165 257
3 256 257 258
3 38 166 83
3 38 167 166
3 17 168 129
3 39 169 86
3 39 170 169
3 39 171 170
3 31 172 88
3 31 155 172
3 40 175 173
3 42 176 90
3 42 177 176
3 19 178 133
3 43 179 93
3 43 259 261
3 261 260 179
3 259 260 261
3 43 262 263
3 32 180 156
3 44 181 97
3 44 182 181
3 22 183 138
3 45 184 99
3 45 185 184
3 45 186 185
3 265 264 101
3 37 266 268
3 266 187 267
3 266 267 268
3 46 269 271
3 271 270 103
3 269 270 271
3 46 272 274
3 272 188 273
3 272 273 274
3 24 189 141
3 47 190 106
3 47 191 190
3 47 192 191
3 48 193 108
3 48 194 193
3 48 195 194
3 49 196 110
3 49 197 196
3 26 198 145
3 50 199 113
3 50 200 199
3 50 201 200
3 40 202 115
3 40 173 202
3 27 275 277
3 275 204 276
3 275 276 277
3 278 205 279
3 29 206 151
3 52 207 117
3 52 208 207
3 52 209 208
3 51 210 119
3 51 203 210
3 41 280 282
3 282 281 174
3 280 281 282
3 53 283 285
3 285 284 12
3 283 284 285
3 54 286 288
3 288 287 53
3 286 287 288
3 54 289 290
3 55 56 13
3 57 56 55
3 57 15 56
3 58 291 292
3 58 293 295
3 293 16 294
3 293 294 295
3 58 59 16
3 55 59 58
3 55 13 59
3 60 61 18
3 62 61 60
3 62 20 61
3 297 296 21
3 63 64 23
3 65 64 63
3 65 25 64
3 65 66 25
3 60 66 65
3 60 18 66
3 67 298 300
3 298 68 299
3 298 299 300
3 69 68 67
3 69 28 68
3 69 70 28
3 71 70 69
3 71 30 70
3 72 73 31
3 74 73 72
3 74 33 73
3 75 301 303
3 303 302 14
3 301 302 303
3 76 304 306
3 306 305 75
3 304 305 306
3 76 307 309
3 307 34 308
3 307 308 309
3 76 77 34
3 310 77 311
3 312 311 76
3 310 311 312
3 313 35 314
3 315 314 77
3 313 314 315
3 78 316 318
3 316 79 317
3 316 317 318
3 80 79 78
3 80 319 321
3 321 320 79
3 319 320 321
3 80 322 324
3 322 81 323
3 322 323 324
3 82 81 80
3 82 36 81
3 82 83 36
3 84 83 82
3 84 38 83
3 85 86 17
3 87 86 85
3 87 39 86
3 87 88 39
3 72 88 87
3 72 31 88
3 89 90 40
3 91 90 89
3 91 42 90
3 92 93 19
3 94 93 92
3 94 43 93
3 94 325 327
3 327 326 43
3 325 326 327
3 95 328 330
3 330 329 94
3 328 329 330
3 95 331 332
3 96 97 32
3 98 97 96
3 98 44 97
3 333 99 334
3 335 334 22
3 333 334 335
3 100 336 338
3 336 99 337
3 336 337 338
3 100 45 99
3 100 101 45
3 339 101 340
3 341 340 100
3 339 340 341
3 344 343 101
3 342 343 344
3 102 103 37
3 104 103 102
3 104 46 103
3 105 106 24
3 107 106 105
3 107 47 106
3 107 108 47
3 109 108 107
3 109 48 108
3 109 110 48
3 111 110 109
3 111 49 110
3 112 113 26
3 114 113 112
3 114 50 113
3 114 115 50
3 89 115 114
3 89 40 115
3 346 345 27
3 116 117 29
3 118 117 116
3 118 52 117
3 118 119 52
3 120 119 118
3 120 51 119
3 348 347 41
3 121 349 351
3 349 350 351
3 353 352 121
3 355 354 12
3 122 123 3
3 124 123 122
3 124 14 123
3 56 124 13
3 125 124 56
3 125 14 124
3 125 75 14
3 126 75 125
3 126 356 358
3 358 357 75
3 356 357 358
3 127 359 360
3 127 361 362
3 127 363 365
3 363 78 364
3 363 364 365
3 128 78 127
3 128 5 78
3 128 129 5
3 130 129 128
3 130 17 129
3 59 130 16
3 131 130 59
3 131 17 130
3 131 85 17
3 122 85 131
3 122 3 85
3 132 133 7
3 134 133 132
3 134 19 133
3 61 134 18
3 135 134 61
3 135 19 134
3 135 92 19
3 136 92 135
3 136 8 92
3 137 138 4
3 139 138 137
3 139 22 138
3 366 139 367
3 368 367 21
3 366 367 368
3 369 139 370
3 371 22 372
3 373 372 139
3 371 372 373
3 375 374 22
3 140 141 6
3 142 141 140
3 142 24 141
3 64 142 23
3 143 142 64
3 143 24 142
3 143 105 24
3 144 105 143
3 144 9 105
3 144 145 9
3 146 145 144
3 146 26 145
3 66 146 25
3 147 146 66
3 147 26 146
3 147 112 26
3 132 112 147
3 132 7 112
3 148 376 377
3 148 378 380
3 378 27 379
3 378 379 380
3 68 381 383
3 381 148 382
3 381 382 383
3 149 148 68
3 149 27 148
3 149 384 386
3 386 385 27
3 384 385 386
3 150 387 389
3 389 388 149
3 387 388 389
3 150 390 392
3 390 11 391
3 390 391 392
3 150 151 11
3 152 151 150
3 152 29 151
3 70 152 28
3 153 152 70
3 153 29 152
3 153 116 29
3 154 116 153
3 154 10 116
3 155 156 1
3 157 156 155
3 157 32 156
3 73 157 31
3 158 157 73
3 158 32 157
3 158 96 32
3 159 96 158
3 159 4 96
3 123 74 3
3 160 74 123
3 160 33 74
3 393 160 394
3 395 394 14
3 393 394 395
3 161 396 398
3 396 160 397
3 396 397 398
3 161 33 160
3 161 159 33
3 162 159 161
3 162 4 159
3 162 137 4
3 163 137 162
3 163 21 137
3 77 163 34
3 164 163 77
3 164 21 163
3 164 399 401
3 401 400 21
3 399 400 401
3 403 402 164
3 79 404 405
3 407 406 79
3 81 408 409
3 411 410 81
3 165 412 413
3 165 414 416
3 414 37 415
3 414 415 416
3 83 165 36
3 166 165 83
3 166 37 165
3 166 102 37
3 167 102 166
3 167 6 102
3 129 84 5
3 168 84 129
3 168 38 84
3 86 168 17
3 169 168 86
3 169 38 168
3 169 167 38
3 170 167 169
3 170 6 167
3 170 140 6
3 171 140 170
3 171 23 140
3 88 171 39
3 172 171 88
3 172 23 171
3 172 63 23
3 155 63 172
3 155 1 63
3 417 67 418
3 419 67 420
3 421 2 422
3 423 422 67
3 421 422 423
3 173 174 0
3 175 174 173
3 175 41 174
3 90 175 40
3 176 175 90
3 176 41 175
3 176 424 426
3 426 425 41
3 424 425 426
3 177 427 429
3 429 428 176
3 427 428 429
3 177 430 431
3 133 91 7
3 178 91 133
3 178 42 91
3 93 178 19
3 179 178 93
3 179 42 178
3 179 177 42
3 432 177 433
3 434 433 179
3 432 433 434
3 436 435 177
3 438 437 43
3 156 62 1
3 180 62 156
3 180 20 62
3 97 180 32
3 181 180 97
3 181 20 180
3 181 136 20
3 182 136 181
3 182 8 136
3 138 98 4
3 183 98 138
3 183 44 98
3 99 183 22
3 184 183 99
3 184 44 183
3 184 182 44
3 185 182 184
3 185 8 182
3 185 95 8
3 186 95 185
3 186 439 441
3 441 440 95
3 439 440 441
3 101 186 45
3 442 186 443
3 444 443 101
3 442 443 444
3 446 445 186
3 447 57 448
3 449 57 450
3 451 15 452
3 453 452 57
3 451 452 453
3 454 15 455
3 456 126 457
3 458 457 15
3 456 457 458
3 459 126 460
3 462 461 126
3 463 35 464
3 465 35 466
3 468 467 35
3 469 2 470
3 187 471 472
3 187 473 474
3 103 187 37
3 475 187 476
3 477 476 103
3 475 476 477
3 479 478 187
3 188 480 481
3 188 482 483
3 141 104 6
3 189 104 141
3 189 46 104
3 106 189 24
3 190 189 106
3 190 46 189
3 190 188 46
3 191 188 190
3 191 484 486
3 486 485 188
3 484 485 486
3 191 487 488
3 192 489 491
3 491 490 191
3 489 490 491
3 192 492 493
3 108 192 47
3 193 192 108
3 193 494 496
3 496 495 192
3 494 495 496
3 193 497 498
3 194 499 501
3 501 500 193
3 499 500 501
3 194 502 504
3 502 2 503
3 502 503 504
3 194 71 2
3 195 71 194
3 195 30 71
3 110 195 48
3 196 195 110
3 196 30 195
3 196 154 30
3 197 154 196
3 197 10 154
3 145 111 9
3 198 111 145
3 198 49 111
3 113 198 26
3 199 198 113
3 199 49 198
3 199 197 49
3 200 197 199
3 200 10 197
3 200 120 10
3 201 120 200
3 201 51 120
3 115 201 50
3 202 201 115
3 202 51 201
3 202 203 51
3 173 203 202
3 173 0 203
3 204 505 506
3 204 507 508
3 509 204 510
3 511 510 27
3 509 510 511
3 512 204 513
3 515 514 204
3 205 516 517
3 205 518 519
3 151 520 522
3 522 521 11
3 520 521 522
3 206 523 525
3 525 524 151
3 523 524 525
3 206 526 527
3 117 206 29
3 207 206 117
3 207 528 530
3 530 529 206
3 528 529 530
3 207 531 533
3 531 205 532
3 531 532 533
3 208 205 207
3 208 534 536
3 536 535 205
3 534 535 536
3 208 537 539
3 537 121 538
3 537 538 539
3 209 121 208
3 209 12 121
3 119 209 52
3 210 209 119
3 210 12 209
3 210 53 12
3 203 53 210
3 203 0 53
3 174 54 0
3 540 54 541
3 542 541 174
3 540 541 542
3 544 543 54
3 546 545 41
