ply
format ascii 1.0
element vertex 483
property float x
property float y
property float z
element face 432
property list uchar int vertex_index
end_header
70.77404 -41.502659 11.127046
66.240753 -10.14474 -12.23649
67.711342 -27.481136 -5.194647
70.333076 -34.907848 1.982778
66.102036 -42.444275 4.71163
67.167519 -14.792255 -8.300333
65.824829 -32.156998 -4.684864
69.707367 -44.55489 12.474018
69.556877 -41.709824 7.597552
66.831978 -45.224129 9.326433
64.345375 -1.95623 -16.558691
63.079865 2.904829 -21.509916
61.415085 7.588531 -26.707346
70.407242 -44.080833 16.302322
65.141502 -5.465304 -16.737249
68.486488 -23.136843 -5.201164
67.1968 -18.93733 -8.604527
65.996208 -23.76646 -8.655993
69.492043 -27.348701 -1.979799
69.25943 -31.216129 -1.774969
67.54557 -35.398148 -0.987095
70.812065 -38.395672 6.296448
68.846283 -38.614288 3.078235
64.883797 -39.664177 0.405643
65.864632 -14.713287 -12.482151
64.710243 -10.394635 -16.921347
63.783997 -33.042126 -6.066315
68.533524 -46.187855 13.283364
68.496323 -44.850979 10.821667
67.002808 -46.57692 11.722975
65.155899 -47.033932 10.296001
64.322556 -1.086798 -19.059416
63.759285 0.48698 -18.993235
69.881386 -43.83812 18.456589
70.160881 -45.494293 16.905529
65.918221 -8.310637 -12.099409
65.451591 -5.902764 -14.297066
65.704758 -7.809825 -14.420038
68.266129 -25.249479 -5.251139
67.503021 -23.269215 -6.924158
66.850639 -25.622429 -6.896166
70.427704 -33.154926 1.657136
70.074455 -31.206337 -0.202698
69.868149 -33.076073 0.041975
68.560074 -33.283966 -1.458982
69.245407 -35.021793 0.438055
70.67466 -38.548645 8.14841
70.847008 -40.006798 8.657257
68.032722 -41.998871 6.083841
69.277237 -40.184631 5.284491
67.587715 -40.521553 3.836453
67.002052 -39.02927 1.687129
65.965813 -19.307405 -10.533207
66.520668 -16.832792 -10.473677
65.270477 -17.303551 -12.524118
66.734161 -12.47135 -10.196491
66.875641 -29.794851 -5.010763
65.966568 -28.057095 -6.753082
64.919998 -30.539711 -6.479525
70.124687 -33.503624 3.398748
70.638611 -35.046135 3.665154
70.479477 -42.98838 11.753277
70.503677 -41.553307 9.275522
69.694908 -43.172794 10.000082
68.333542 -43.447784 8.417397
64.486305 -44.376381 5.674238
64.877953 -45.703674 7.959088
62.302711 5.279408 -24.088236
70.119965 -42.770004 15.77177
70.619125 -42.865906 13.681895
70.3582 -44.307907 14.300835
69.612839 -45.836288 15.006004
64.916565 -3.493326 -16.622702
64.561172 -3.11234 -19.171206
68.334389 -21.182558 -5.069456
67.880577 -18.967167 -6.719448
67.86264 -21.03619 -6.857355
66.722565 -21.291771 -8.673384
65.197556 -21.902071 -10.510778
65.085922 -26.320164 -8.534065
68.701607 -23.399883 -3.481974
69.038185 -25.242332 -3.592636
68.971481 -27.236591 -3.608341
69.829178 -29.443314 -0.307957
69.583382 -29.226542 -1.943039
68.528976 -29.347027 -3.504616
67.756927 -31.538198 -3.261705
66.718079 -33.77681 -2.867571
70.714935 -36.852634 5.831476
70.646049 -36.688778 4.067082
70.408455 -40.020699 6.886709
70.173943 -38.408745 4.608231
69.787071 -36.736122 2.4569
62.423214 -45.079933 4.451824
60.398598 8.602703 -26.629995
67.359924 -16.752205 -8.471382
66.794823 -14.532999 -10.352463
66.208519 -12.303688 -12.376837
65.254837 -12.56971 -14.63393
65.622726 -10.058689 -14.546272
65.054779 -7.793775 -16.851885
67.028862 -47.225933 12.945048
67.768166 -46.382388 12.50317
67.79422 -47.031401 13.725243
66.161866 -47.460553 12.20044
67.028862 -47.225933 12.945048
63.997456 0.11073 -20.323172
64.144009 -0.921367 -20.380083
66.079487 -9.227688 -12.167949
66.110894 -9.512968 -11.070027
66.27216 -10.43002 -11.138567
70.810524 -40.754728 9.892152
70.69495 -40.0593 9.62617
70.658466 -40.80723 10.861065
65.824181 -41.747143 3.614035
66.56702 -40.785782 3.176446
66.844876 -41.482914 4.274042
65.045944 -42.755983 4.080807
65.824181 -41.747143 3.614035
64.88485 -18.658857 -12.503895
65.618145 -18.305478 -11.528662
65.232518 -19.660784 -11.50844
66.880818 -13.954598 -8.211761
66.97316 -15.154326 -7.319873
66.95084 -13.631802 -9.248412
66.664139 -12.794145 -9.15984
66.880818 -13.954598 -8.211761
63.393483 -32.289504 -6.994907
62.877167 -33.597109 -6.742946
70.109486 -34.456766 4.444683
69.542575 -33.791954 4.334172
70.366447 -35.228021 4.577886
70.381649 -34.274879 3.531951
70.109486 -34.456766 4.444683
66.682354 -44.532123 8.155915
67.433136 -43.643951 7.701397
67.58276 -44.335956 8.871915
65.854966 -45.463901 8.64276
65.705342 -44.771896 7.472243
66.682354 -44.532123 8.155915
64.163429 -47.312106 9.63125
64.283959 -47.9555 10.792876
63.879975 -1.434711 -16.574234
64.097 -2.674452 -15.404896
62.965851 2.225628 -20.262878
63.305561 1.016703 -19.004538
63.419575 1.695904 -20.251576
62.621748 3.436265 -21.510317
62.965851 2.225628 -20.262878
62.691288 4.092118 -22.799076
62.233171 4.623555 -22.799476
62.621748 3.436265 -21.510317
69.520946 -46.416714 16.297999
69.88686 -45.66529 15.955767
69.794967 -46.245716 17.247762
69.036724 -46.636177 15.400586
69.520946 -46.416714 16.297999
64.575019 -27.619704 -8.413639
65.526245 -27.188629 -7.643574
65.015343 -28.48817 -7.523148
68.358986 -23.726915 -2.618111
68.328179 -22.571818 -3.392819
69.265114 -26.295516 -2.786218
69.002803 -25.428669 -2.750357
69.229732 -26.481854 -1.943938
69.934498 -30.473844 0.582249
69.499103 -29.71179 0.553028
66.516441 -35.71611 -1.653325
66.102696 -34.905441 -2.593563
67.131824 -34.587479 -1.927333
68.555385 -37.814278 2.033472
69.025779 -36.875194 1.722804
69.316677 -37.675205 2.767568
65.587803 -38.597859 0.022085
66.64693 -38.280405 0.662828
65.942925 -39.346723 1.046386
64.51479 -38.97591 -0.609418
65.587803 -38.597859 0.022085
63.829024 -40.093304 -0.196127
64.51479 -38.97591 -0.609418
62.630499 -45.698871 5.56879
63.45476 -44.728157 5.063031
63.662045 -45.347096 6.179997
60.906841 8.095617 -26.668671
60.873513 7.465471 -25.342624
61.381756 6.958385 -25.3813
64.98254 -11.482173 -15.777639
64.715618 -12.878964 -15.773238
64.443321 -11.791426 -16.916947
67.345791 -15.951282 -7.418585
66.97316 -15.154326 -7.319873
64.208413 -33.79034 -5.138307
64.804413 -32.599562 -5.37559
65.228828 -33.347777 -4.447582
63.207507 -34.291889 -5.788561
64.208413 -33.79034 -5.138307
62.877167 -33.597109 -6.742946
63.207507 -34.291889 -5.788561
65.238411 -47.689059 11.486954
66.079353 -46.805426 11.009488
66.161866 -47.460553 12.20044
64.283959 -47.9555 10.792876
65.238411 -47.689059 11.486954
63.71582 0.897619 -20.290081
64.04092 -0.299909 -19.026325
63.997456 0.11073 -20.323172
63.37611 2.106543 -21.548421
63.419575 1.695904 -20.251576
63.71582 0.897619 -20.290081
63.019509 3.291521 -22.846685
63.37611 2.106543 -21.548421
69.76503 -44.278359 19.82187
69.376603 -43.684736 19.586789
70.020027 -44.48569 18.7164
69.76503 -44.278359 19.82187
70.282955 -44.607046 17.639267
70.144314 -43.959477 17.379455
70.020027 -44.48569 18.7164
70.159775 -45.313776 17.940871
70.284062 -44.787563 16.603926
70.282955 -44.607046 17.639267
70.032535 -46.012793 18.233879
70.159775 -45.313776 17.940871
69.794967 -46.245716 17.247762
70.032535 -46.012793 18.233879
65.704037 -8.819736 -11.013112
66.110894 -9.512968 -11.070027
65.569012 -7.590704 -12.055097
65.704037 -8.819736 -11.013112
65.684906 -7.106701 -13.198237
65.335697 -6.386768 -13.153926
65.569012 -7.590704 -12.055097
69.307819 -27.582164 -1.13676
69.229732 -26.481854 -1.943938
70.25108 -32.180632 0.727219
70.057136 -31.355356 0.634879
70.233761 -32.32965 1.564796
70.608776 -39.330223 9.371747
70.222961 -38.687641 9.151453
70.760834 -39.277721 8.402833
70.608776 -39.330223 9.371747
70.69495 -40.0593 9.62617
66.274189 -40.03964 2.101784
67.294883 -39.775411 2.761791
66.56702 -40.785782 3.176446
65.215061 -40.357094 1.461041
65.942925 -39.346723 1.046386
66.274189 -40.03964 2.101784
64.146191 -40.724072 0.849079
65.215061 -40.357094 1.461041
60.905938 8.697436 -28.026812
61.338887 7.924839 -28.101584
64.257801 -10.726671 -18.104893
64.443321 -11.791426 -16.916947
64.475041 -9.28915 -18.124588
64.257801 -10.726671 -18.104893
66.518864 -11.593324 -10.118568
66.664139 -12.794145 -9.15984
66.487457 -11.308045 -11.21649
66.27216 -10.43002 -11.138567
66.518864 -11.593324 -10.118568
64.492058 -29.729478 -7.386369
65.015343 -28.48817 -7.523148
65.443283 -29.298403 -6.616303
63.961483 -31.038297 -7.201512
64.351998 -31.790919 -6.27292
63.393483 -32.289504 -6.994907
64.492058 -29.729478 -7.386369
63.961483 -31.038297 -7.201512
69.617367 -32.791702 3.328901
69.542575 -33.791954 4.334172
70.082252 -32.503999 2.435601
69.617367 -32.791702 3.328901
70.276196 -33.329275 2.527942
70.233761 -32.32965 1.564796
70.082252 -32.503999 2.435601
67.282726 -42.919494 6.534619
68.183132 -42.723327 7.250619
67.433136 -43.643951 7.701397
66.317383 -43.142196 5.848514
67.067379 -42.221573 5.397735
67.282726 -42.919494 6.534619
65.509518 -44.108249 6.329818
65.294171 -43.410328 5.192934
66.317383 -43.142196 5.848514
64.682129 -45.040028 6.816663
65.509518 -44.108249 6.329818
65.705342 -44.771896 7.472243
63.857869 -46.010742 7.322422
63.662045 -45.347096 6.179997
64.682129 -45.040028 6.816663
64.024456 -46.646977 8.462794
65.016926 -46.368803 9.127545
64.163429 -47.312106 9.63125
63.857869 -46.010742 7.322422
64.024456 -46.646977 8.462794
63.586929 -0.213107 -17.791506
63.879975 -1.434711 -16.574234
64.05233 -0.734625 -17.775963
63.586929 -0.213107 -17.791506
63.305561 1.016703 -19.004538
61.825569 5.803824 -24.071745
62.233171 4.623555 -22.799476
61.858898 6.433969 -25.397791
61.381756 6.958385 -25.3813
61.825569 5.803824 -24.071745
62.630932 4.47881 -24.135845
62.691288 4.092118 -22.799076
63.019509 3.291521 -22.846685
62.233963 5.6417 -25.457605
62.630932 4.47881 -24.135845
61.79015 6.796261 -26.767161
61.858898 6.433969 -25.397791
62.233963 5.6417 -25.457605
61.338887 7.924839 -28.101584
61.79015 6.796261 -26.767161
70.561267 -41.513254 12.135887
70.658466 -40.80723 10.861065
69.471428 -43.244771 18.221884
69.376603 -43.684736 19.586789
69.590717 -42.710712 16.879475
69.471428 -43.244771 18.221884
70.000675 -43.304062 17.114179
69.704533 -42.169349 15.537102
69.590717 -42.710712 16.879475
70.23423 -42.146926 14.45825
69.704533 -42.169349 15.537102
70.48381 -42.194878 13.413312
70.23423 -42.146926 14.45825
70.369545 -42.817955 14.726833
70.696583 -42.184283 12.404471
70.561267 -41.513254 12.135887
70.48381 -42.194878 13.413312
68.497067 -46.81196 14.539265
69.073182 -46.012072 14.144684
69.036724 -46.636177 15.400586
67.79422 -47.031401 13.725243
68.497067 -46.81196 14.539265
64.590176 -3.183921 -15.392122
64.097 -2.674452 -15.404896
65.143283 -5.157189 -14.261309
65.335697 -6.386768 -13.153926
64.875771 -3.95247 -15.424127
65.143283 -5.157189 -14.261309
65.184078 -4.698045 -15.459884
64.63097 -2.724778 -16.590696
64.590176 -3.183921 -15.392122
64.875771 -3.95247 -15.424127
64.263317 -1.934138 -20.435978
64.144009 -0.921367 -20.380083
64.441864 -2.099569 -19.115311
68.107483 -20.074863 -5.894452
67.835053 -19.197368 -5.801121
68.061959 -20.305064 -4.976126
64.848389 -20.958118 -11.497225
65.232518 -19.660784 -11.50844
65.581684 -20.604738 -10.521992
64.201843 -26.80182 -9.34791
64.575019 -27.619704 -8.413639
64.687923 -25.446213 -9.462495
64.201843 -26.80182 -9.34791
65.143067 -24.169361 -9.52346
65.541065 -25.043312 -8.595029
64.687923 -25.446213 -9.462495
64.743741 -23.237167 -10.450852
65.596882 -22.834266 -9.583386
65.143067 -24.169361 -9.52346
64.413121 -22.349463 -11.429624
64.743741 -23.237167 -10.450852
64.848389 -20.958118 -11.497225
64.413121 -22.349463 -11.429624
68.14457 -21.463155 -4.18656
68.061959 -20.305064 -4.976126
68.517998 -22.291221 -4.275715
68.14457 -21.463155 -4.18656
68.328179 -22.571818 -3.392819
68.834514 -24.507445 -2.695025
68.358986 -23.726915 -2.618111
68.869896 -24.321108 -3.537305
68.834514 -24.507445 -2.695025
69.002803 -25.428669 -2.750357
69.476387 -28.62947 -0.300839
69.499103 -29.71179 0.553028
69.66061 -28.396007 -1.143878
69.307819 -27.582164 -1.13676
69.476387 -28.62947 -0.300839
69.951817 -30.324826 -0.255327
69.934498 -30.473844 0.582249
70.057136 -31.355356 0.634879
65.675454 -34.157682 -3.538936
65.228828 -33.347777 -4.447582
66.271454 -32.966904 -3.776218
65.675454 -34.157682 -3.538936
66.102696 -34.905441 -2.593563
70.321224 -37.870813 7.94826
70.222961 -38.687641 9.151453
70.341362 -37.022808 6.789794
70.321224 -37.870813 7.94826
70.694797 -37.70064 6.989943
70.404609 -36.131271 5.661047
70.341362 -37.022808 6.789794
70.676773 -35.949385 4.748315
70.366447 -35.228021 4.577886
70.404609 -36.131271 5.661047
68.754948 -36.01803 0.713382
69.516239 -35.878957 1.447477
69.025779 -36.875194 1.722804
67.905029 -36.206207 0.000807
68.395488 -35.20997 -0.27452
68.754948 -36.01803 0.713382
67.63327 -38.021768 1.337919
68.555385 -37.814278 2.033472
67.924168 -38.821779 2.382682
67.63327 -38.021768 1.337919
66.64693 -38.280405 0.662828
66.918689 -36.464844 -0.674284
67.905029 -36.206207 0.000807
66.516441 -35.71611 -1.653325
66.918689 -36.464844 -0.674284
63.829024 -40.093304 -0.196127
64.146191 -40.724072 0.849079
64.238079 -43.722037 4.562111
65.045944 -42.755983 4.080807
65.294171 -43.410328 5.192934
63.206533 -44.073813 3.950904
64.238079 -43.722037 4.562111
63.45476 -44.728157 5.063031
62.186056 -44.48261 3.360135
63.206533 -44.073813 3.950904
61.676951 -46.08377 4.964725
62.630499 -45.698871 5.56879
61.50096 -45.522792 3.872994
61.676951 -46.08377 4.964725
60.754696 -46.52663 4.385896
62.186056 -44.48261 3.360135
61.50096 -45.522792 3.872994
60.243542 7.699352 -25.363072
60.873513 7.465471 -25.342624
59.752667 8.811024 -26.615614
60.243542 7.699352 -25.363072
60.397694 9.204522 -27.988136
60.906841 8.095617 -26.668671
60.905938 8.697436 -28.026812
59.850082 9.683498 -27.922401
60.397694 9.204522 -27.988136
59.752667 8.811024 -26.615614
59.850082 9.683498 -27.922401
67.70232 -18.038737 -6.628143
67.835053 -19.197368 -5.801121
67.441993 -16.931256 -7.50411
67.70232 -18.038737 -6.628143
67.62025 -17.859686 -7.595415
67.263722 -15.77223 -8.385858
67.345791 -15.951282 -7.418585
67.441993 -16.931256 -7.50411
64.603313 -17.695152 -13.553859
64.88485 -18.658857 -12.503895
64.968849 -16.285495 -13.588344
64.603313 -17.695152 -13.553859
64.301685 -16.677096 -14.618084
65.265927 -14.990363 -13.56736
65.567554 -16.008419 -12.503134
64.968849 -16.285495 -13.588344
64.961029 -13.918575 -14.643249
64.715618 -12.878964 -15.773238
65.559734 -13.641499 -13.558041
65.265927 -14.990363 -13.56736
64.961029 -13.918575 -14.643249
64.647309 -7.98872 -18.089857
64.882511 -9.094205 -16.886616
64.475041 -9.28915 -18.124588
64.78474 -6.650517 -18.064327
64.647309 -7.98872 -18.089857
64.828102 -5.486282 -18.007009
65.09814 -6.629539 -16.794567
64.78474 -6.650517 -18.064327
64.537937 -4.3098 -19.223988
64.851337 -4.288822 -17.954228
64.828102 -5.486282 -18.007009
64.281635 -3.156891 -20.48514
64.537937 -4.3098 -19.223988
64.263317 -1.934138 -20.435978
64.281635 -3.156891 -20.48514
3 101 29 102
3 103 102 27
3 101 102 103
3 105 104 29
3 107 106 31
3 1 108 110
3 108 35 109
3 108 109 110
3 1 37 35
3 2 40 38
3 3 43 41
3 3 45 43
3 0 111 113
3 111 47 112
3 111 112 113
3 4 50 48
3 4 114 116
3 116 115 50
3 114 115 116
3 4 117 118
3 119 54 120
3 121 120 52
3 119 120 121
3 5 122 123
3 5 124 126
3 124 55 125
3 124 125 126
3 6 58 56
3 128 127 26
3 129 59 130
3 131 60 132
3 133 132 59
3 131 132 133
3 7 63 61
3 9 64 28
3 9 134 136
3 136 135 64
3 134 135 136
3 9 137 139
3 137 66 138
3 137 138 139
3 141 140 30
3 10 142 143
3 11 144 146
3 146 145 32
3 144 145 146
3 11 147 148
3 11 149 151
3 149 67 150
3 149 150 151
3 13 68 33
3 13 69 68
3 13 70 69
3 152 71 153
3 154 153 34
3 152 153 154
3 156 155 71
3 14 72 36
3 14 73 72
3 15 76 74
3 17 77 39
3 17 78 77
3 157 79 158
3 159 158 57
3 157 158 159
3 160 80 161
3 18 162 164
3 162 81 163
3 162 163 164
3 18 82 81
3 165 83 166
3 19 84 42
3 19 85 84
3 19 86 85
3 20 87 44
3 20 167 169
3 169 168 87
3 167 168 169
3 21 88 46
3 21 89 88
3 8 90 62
3 22 91 49
3 22 92 91
3 22 170 172
3 172 171 92
3 170 171 172
3 23 173 175
3 175 174 51
3 173 174 175
3 23 176 177
3 23 178 179
3 180 93 181
3 182 181 65
3 180 181 182
3 12 183 185
3 183 94 184
3 183 184 185
3 16 95 75
3 24 96 53
3 24 97 96
3 25 186 188
3 186 98 187
3 186 187 188
3 25 99 98
3 25 100 99
3 189 5 190
3 191 26 192
3 193 192 6
3 191 192 193
3 194 26 195
3 197 196 26
3 27 28 7
3 29 28 27
3 29 9 28
3 29 30 9
3 198 30 199
3 200 199 29
3 198 199 200
3 202 201 30
3 31 32 10
3 203 32 204
3 205 204 31
3 203 204 205
3 206 11 207
3 208 207 32
3 206 207 208
3 210 209 11
3 211 33 212
3 213 33 214
3 215 13 216
3 217 216 33
3 215 216 217
3 218 34 219
3 220 219 13
3 218 219 220
3 221 34 222
3 224 223 34
3 35 225 226
3 35 227 228
3 35 229 231
3 229 36 230
3 229 230 231
3 37 36 35
3 37 14 36
3 38 39 15
3 40 39 38
3 40 17 39
3 232 18 233
3 41 234 236
3 234 42 235
3 234 235 236
3 43 42 41
3 43 19 42
3 43 44 19
3 45 44 43
3 45 20 44
3 237 46 238
3 47 239 241
3 239 46 240
3 239 240 241
3 47 21 46
3 48 49 8
3 50 49 48
3 50 22 49
3 50 51 22
3 242 51 243
3 244 243 50
3 242 243 244
3 245 23 246
3 247 246 51
3 245 246 247
3 249 248 23
3 251 250 12
3 52 53 16
3 54 53 52
3 54 24 53
3 252 25 253
3 255 254 25
3 55 256 257
3 55 258 260
3 258 1 259
3 258 259 260
3 56 57 2
3 58 57 56
3 58 261 263
3 263 262 57
3 261 262 263
3 26 58 6
3 264 58 265
3 266 265 26
3 264 265 266
3 268 267 58
3 59 269 270
3 59 271 272
3 59 273 275
3 273 41 274
3 273 274 275
3 60 41 59
3 60 3 41
3 61 62 0
3 63 62 61
3 63 8 62
3 28 63 7
3 64 63 28
3 64 8 63
3 64 48 8
3 276 48 277
3 278 277 64
3 276 277 278
3 279 4 280
3 281 280 48
3 279 280 281
3 282 65 283
3 284 283 4
3 282 283 284
3 66 285 287
3 285 65 286
3 285 286 287
3 66 288 290
3 290 289 65
3 288 289 290
3 30 66 9
3 291 66 292
3 293 292 30
3 291 292 293
3 295 294 66
3 32 296 298
3 298 297 10
3 296 297 298
3 300 299 32
3 67 301 302
3 67 303 305
3 303 12 304
3 303 304 305
3 306 67 307
3 308 307 11
3 306 307 308
3 309 67 310
3 311 12 312
3 313 312 67
3 311 312 313
3 315 314 12
3 316 0 317
3 33 318 319
3 68 320 322
3 322 321 33
3 320 321 322
3 68 323 324
3 68 325 326
3 69 327 329
3 329 328 68
3 327 328 329
3 69 330 332
3 330 0 331
3 330 331 332
3 69 61 0
3 70 61 69
3 70 7 61
3 34 70 13
3 71 70 34
3 71 7 70
3 71 27 7
3 333 27 334
3 335 334 71
3 333 334 335
3 337 336 27
3 338 10 339
3 36 340 341
3 72 342 344
3 344 343 36
3 342 343 344
3 72 345 347
3 345 10 346
3 345 346 347
3 72 31 10
3 73 31 72
3 73 348 350
3 350 349 31
3 348 349 350
3 74 351 353
3 351 75 352
3 351 352 353
3 76 75 74
3 76 16 75
3 39 76 15
3 77 76 39
3 77 16 76
3 77 52 16
3 78 52 77
3 78 354 356
3 356 355 52
3 354 355 356
3 57 40 2
3 79 40 57
3 79 17 40
3 357 79 358
3 359 79 360
3 361 17 362
3 363 362 79
3 361 362 363
3 364 78 365
3 366 365 17
3 364 365 366
3 367 78 368
3 370 369 78
3 371 74 372
3 80 373 375
3 373 74 374
3 373 374 375
3 80 15 74
3 376 80 377
3 81 378 380
3 378 80 379
3 378 379 380
3 81 15 80
3 81 38 15
3 82 38 81
3 82 2 38
3 83 381 382
3 83 383 385
3 383 18 384
3 383 384 385
3 42 386 388
3 386 83 387
3 386 387 388
3 84 83 42
3 84 18 83
3 84 82 18
3 85 82 84
3 85 2 82
3 85 56 2
3 86 56 85
3 86 6 56
3 44 86 19
3 87 86 44
3 87 6 86
3 87 389 391
3 391 390 6
3 389 390 391
3 393 392 87
3 46 394 395
3 88 396 398
3 398 397 46
3 396 397 398
3 88 399 400
3 88 401 403
3 401 60 402
3 401 402 403
3 89 60 88
3 89 3 60
3 62 47 0
3 90 47 62
3 90 21 47
3 49 90 8
3 91 90 49
3 91 21 90
3 91 89 21
3 92 89 91
3 92 3 89
3 92 45 3
3 404 45 405
3 406 405 92
3 404 405 406
3 407 20 408
3 409 408 45
3 407 408 409
3 51 410 412
3 412 411 22
3 410 411 412
3 414 413 51
3 415 20 416
3 418 417 20
3 420 419 23
3 65 421 423
3 423 422 4
3 421 422 423
3 93 424 426
3 426 425 65
3 424 425 426
3 93 427 428
3 429 93 430
3 431 93 432
3 431 432 433
3 435 434 93
3 94 436 437
3 94 438 439
3 440 94 441
3 442 441 12
3 440 441 442
3 443 94 444
3 446 445 94
3 75 447 448
3 95 449 451
3 451 450 75
3 449 450 451
3 95 452 454
3 452 5 453
3 452 453 454
3 53 95 16
3 96 95 53
3 96 5 95
3 96 55 5
3 97 55 96
3 97 1 55
3 455 54 456
3 457 54 458
3 457 458 459
3 460 24 461
3 462 461 54
3 460 461 462
3 98 463 464
3 98 465 467
3 465 24 466
3 465 466 467
3 98 97 24
3 99 97 98
3 99 1 97
3 99 37 1
3 100 37 99
3 100 14 37
3 468 100 469
3 470 469 25
3 468 469 470
3 471 100 472
3 473 14 474
3 475 474 100
3 473 474 475
3 476 73 477
3 478 477 14
3 476 477 478
3 479 73 480
3 482 481 73
