ply
format ascii 1.0
element vertex 286
property float x
property float y
property float z
element face 243
property list uchar int vertex_index
end_header
41.602715 28.147312 47.305573
44.648949 52.900566 28.089344
37.016335 20.778332 61.015808
42.631516 35.200233 38.404007
42.665787 19.714642 55.656502
41.669304 31.75206 42.74926
41.900845 25.677834 42.492928
40.31358 20.617443 59.062683
45.950821 47.698013 29.447199
44.129601 49.270706 32.71431
44.870388 44.116913 33.905457
43.253582 40.737595 38.157658
40.682606 25.82151 55.858452
42.12991 24.169994 51.770729
41.415874 32.994823 44.973583
41.532097 29.984612 45.014
41.663536 28.72406 42.665955
41.773361 26.914848 44.926552
45.457153 50.321564 28.844654
43.537132 47.53331 34.932106
44.683399 46.720718 33.415848
43.99268 44.999802 35.594986
42.30899 36.360718 40.505173
42.46183 39.122993 40.307587
43.029701 38.022797 38.365562
43.857822 39.714241 36.271839
41.609318 20.260132 57.518997
40.561104 23.292591 57.61264
41.62273 22.743225 55.859398
41.531826 25.085781 53.938805
42.43409 22.003372 53.818817
41.76054 34.697716 42.708656
42.039482 33.480167 40.541939
42.208755 32.279522 38.309364
38.181889 17.840572 61.120491
38.774578 20.784012 60.235352
39.921906 17.831512 60.182976
41.453659 17.65897 58.876495
42.767342 17.312225 57.232986
41.283306 29.313786 49.578438
44.512398 51.069077 30.439949
45.188904 48.502396 31.175476
45.514374 45.890038 31.721657
45.480705 43.2314 32.072979
44.087029 42.397743 36.036423
44.706036 41.450798 34.18911
39.230667 23.633774 59.01152
41.394997 27.275967 51.821358
41.826408 26.214951 49.577492
43.517384 19.006199 53.543648
43.045822 21.112816 51.566811
42.541443 23.125759 49.431091
42.08939 25.054958 47.19812
41.567406 29.065962 46.159787
41.400858 30.598204 46.145581
41.436167 29.679554 47.291367
45.06176 52.526268 27.247986
44.594031 53.820045 26.870331
45.053051 51.611065 28.466999
45.465862 51.236767 27.625641
45.06176 52.526268 27.247986
43.168982 46.704139 36.026703
42.800797 47.93047 35.595787
43.396755 45.437386 36.358143
43.764906 46.266556 35.263546
43.168982 46.704139 36.026703
43.014798 36.069316 37.365654
43.21389 37.480598 37.346431
42.830608 36.611515 38.384784
42.740332 34.634592 37.32074
43.014798 36.069316 37.365654
37.330322 22.275211 60.514534
36.428884 22.256203 60.815621
41.737125 31.128327 41.601219
41.922214 31.99238 40.497558
41.854393 32.616113 41.6456
41.837061 26.580437 41.384279
41.718407 28.10355 41.470793
41.78219 27.200947 42.579442
42.001724 25.084052 41.268656
41.837061 26.580437 41.384279
39.657619 16.40423 60.589187
39.051897 17.836042 60.651733
38.787611 16.40876 61.057945
42.07843 16.236451 58.702072
41.298067 16.315109 59.403472
42.735271 16.063078 57.880317
42.110501 17.485598 58.05474
42.07843 16.236451 58.702072
46.231549 47.276131 28.510111
46.048989 48.606826 28.251858
46.025593 46.369236 29.663221
46.231549 47.276131 28.510111
41.008143 29.833384 50.629787
41.036785 30.830545 49.490036
43.686899 50.519127 32.259878
43.432364 49.639747 33.378636
44.320999 50.169891 31.577129
43.878298 51.418312 31.122698
43.686899 50.519127 32.259878
42.818022 41.250866 39.037959
42.422146 40.443565 40.112923
42.857706 39.930294 39.232622
43.224697 42.044016 37.953875
42.818022 41.250866 39.037959
43.670305 41.567669 37.09704
43.64142 42.87409 36.893258
43.224697 42.044016 37.953875
44.484558 40.080337 34.236958
44.281929 40.58252 35.230474
44.060451 39.212059 35.278322
44.92067 40.983162 33.212387
44.484558 40.080337 34.236958
42.296365 31.701553 37.175815
42.071847 30.786569 38.215099
40.116343 26.083044 56.656471
40.055591 24.818585 57.533565
40.621855 24.557051 56.735546
40.220238 27.350191 55.733658
40.116343 26.083044 56.656471
40.701275 27.000228 54.857929
40.220238 27.350191 55.733658
43.871418 18.593782 52.397926
44.176786 17.582762 53.35318
44.53082 17.170345 52.207459
43.635637 19.647091 51.409508
43.281603 20.059507 52.555229
43.871418 18.593782 52.397926
42.698986 22.571642 48.209789
43.038296 21.627564 49.303661
42.47296 23.536241 47.093304
42.315416 24.090359 48.314605
42.698986 22.571642 48.209789
42.186411 24.458267 45.971115
42.47296 23.536241 47.093304
41.342747 32.103309 46.125372
41.186501 33.58839 46.028082
41.473985 31.489717 44.993792
41.342747 32.103309 46.125372
41.400858 30.598204 46.145581
45.802155 49.918602 27.950585
45.465862 51.236767 27.625641
45.703987 49.009788 29.145927
46.048989 48.606826 28.251858
45.802155 49.918602 27.950585
43.136129 48.77105 34.487533
42.800797 47.93047 35.595787
43.833366 48.402008 33.823208
43.432364 49.639747 33.378636
43.136129 48.77105 34.487533
42.38541 37.741855 40.40638
42.125267 38.322744 41.409394
42.048847 36.941606 41.508187
43.62795 38.326321 36.29957
43.443762 38.868519 37.3187
43.21389 37.480598 37.346431
44.060451 39.212059 35.278322
43.62795 38.326321 36.29957
44.121174 54.151207 27.648869
44.594031 53.820045 26.870331
41.349306 34.44334 44.874014
41.186501 33.58839 46.028082
41.521639 35.294787 43.741551
41.349306 34.44334 44.874014
41.588207 33.846269 43.841119
41.774622 36.110106 42.609928
41.521639 35.294787 43.741551
42.034765 35.529217 41.606915
42.048847 36.941606 41.508187
41.774622 36.110106 42.609928
42.006851 31.392057 39.381271
42.124118 32.879845 39.425652
41.922214 31.99238 40.497558
42.071847 30.786569 38.215099
42.006851 31.392057 39.381271
41.734241 29.614327 41.559567
41.737125 31.128327 41.601219
41.66642 30.23806 42.707607
41.734241 29.614327 41.559567
41.718407 28.10355 41.470793
40.53219 16.401381 60.056713
39.657619 16.40423 60.589187
40.687782 17.745241 59.529736
40.53219 16.401381 60.056713
41.298067 16.315109 59.403472
41.276463 30.262791 48.427799
41.036785 30.830545 49.490036
41.44301 28.730549 48.442006
41.436167 29.679554 47.291367
41.276463 30.262791 48.427799
36.050531 20.707378 61.221729
36.428884 22.256203 60.815621
36.64159 19.246454 61.354282
36.050531 20.707378 61.221729
37.224367 17.777575 61.406624
37.599112 19.309452 61.06815
36.64159 19.246454 61.354282
37.829563 16.346218 61.417259
37.224367 17.777575 61.406624
38.787611 16.40876 61.057945
37.829563 16.346218 61.417259
44.094048 53.238346 28.810047
44.121174 54.151207 27.648869
44.025772 52.322602 29.985349
43.878298 51.418312 31.122698
44.580674 51.984821 29.264646
44.094048 53.238346 28.810047
44.025772 52.322602 29.985349
45.807369 45.465249 30.800449
46.025593 46.369236 29.663221
45.732597 46.794026 30.584428
45.790535 44.13593 30.97611
45.807369 45.465249 30.800449
45.49754 44.560719 31.897318
45.703135 42.786867 31.103266
45.790535 44.13593 30.97611
42.04857 39.667332 41.217528
42.125267 38.322744 41.409394
42.04857 39.667332 41.217528
42.422146 40.443565 40.112923
43.594246 44.17512 36.672539
43.396755 45.437386 36.358143
44.039855 43.698773 35.815704
43.594246 44.17512 36.672539
43.64142 42.87409 36.893258
45.308004 41.873463 32.154321
45.09337 42.341099 33.131045
44.92067 40.983162 33.212387
45.703135 42.786867 31.103266
45.308004 41.873463 32.154321
42.528951 33.174236 37.273419
42.740332 34.634592 37.32074
42.420136 33.739877 38.356685
42.528951 33.174236 37.273419
42.296365 31.701553 37.175815
38.209444 22.278052 60.124306
37.330322 22.275211 60.514534
37.895456 20.781172 60.62558
38.437489 23.702932 59.51239
38.209444 22.278052 60.124306
39.002623 22.208893 59.623436
38.68304 25.13945 58.839752
38.437489 23.702932 59.51239
39.390373 24.989176 58.233005
39.895885 23.463183 58.31208
40.055591 24.818585 57.533565
38.68304 25.13945 58.839752
39.390373 24.989176 58.233005
41.125885 26.632364 53.898106
40.701275 27.000228 54.857929
41.107216 25.453646 54.898629
41.05747 27.727457 52.839382
41.125885 26.632364 53.898106
41.463411 26.180874 52.880082
41.063988 28.814475 51.751247
41.05747 27.727457 52.839382
41.339151 28.294877 50.699898
41.008143 29.833384 50.629787
41.063988 28.814475 51.751247
43.422154 15.907127 57.027702
42.735271 16.063078 57.880317
43.323853 17.056883 56.26995
43.422154 15.907127 57.027702
43.273075 18.258091 55.481708
42.716565 18.513434 56.444744
43.323853 17.056883 56.26995
43.698874 17.903869 54.425281
44.176786 17.582762 53.35318
43.091586 19.360421 54.600075
43.273075 18.258091 55.481708
43.698874 17.903869 54.425281
43.290486 20.621092 50.371521
43.635637 19.647091 51.409508
42.793633 22.119287 50.498951
43.290486 20.621092 50.371521
43.038296 21.627564 49.303661
42.028396 25.388212 44.835331
41.931376 25.984903 46.062336
42.186411 24.458267 45.971115
42.092138 24.769705 43.618519
41.837103 26.296341 43.70974
42.028396 25.388212 44.835331
42.210862 24.18813 42.37793
42.092138 24.769705 43.618519
42.001724 25.084052 41.268656
42.210862 24.18813 42.37793
3 0 53 55
3 53 15 54
3 53 54 55
3 0 17 15
3 1 56 57
3 1 58 60
3 58 18 59
3 58 59 60
3 61 19 62
3 63 21 64
3 65 64 19
3 63 64 65
3 3 24 22
3 3 66 68
3 68 67 24
3 66 67 68
3 3 69 70
3 2 71 72
3 4 28 26
3 4 30 28
3 5 31 14
3 5 32 31
3 5 73 75
3 75 74 32
3 73 74 75
3 6 76 78
3 78 77 16
3 76 77 78
3 6 79 80
3 81 36 82
3 83 82 34
3 81 82 83
3 84 37 85
3 86 38 87
3 88 87 37
3 86 87 88
3 8 89 90
3 8 91 92
3 93 39 94
3 9 95 96
3 9 97 99
3 97 40 98
3 97 98 99
3 9 41 40
3 10 42 20
3 10 43 42
3 11 100 102
3 102 101 23
3 100 101 102
3 11 103 104
3 11 105 107
3 105 44 106
3 105 106 107
3 108 45 109
3 110 109 25
3 108 109 110
3 112 111 45
3 114 113 33
3 7 46 35
3 12 115 117
3 117 116 27
3 115 116 117
3 12 118 119
3 12 120 121
3 13 47 29
3 13 48 47
3 122 49 123
3 122 123 124
3 125 50 126
3 127 126 49
3 125 126 127
3 128 51 129
3 130 52 131
3 132 131 51
3 130 131 132
3 134 133 52
3 135 14 136
3 15 137 139
3 137 14 138
3 137 138 139
3 15 5 14
3 15 16 5
3 17 16 15
3 17 6 16
3 18 140 141
3 18 142 144
3 142 8 143
3 142 143 144
3 19 145 146
3 19 147 149
3 147 9 148
3 147 148 149
3 19 20 9
3 21 20 19
3 21 10 20
3 22 150 152
3 150 23 151
3 150 151 152
3 24 23 22
3 24 11 23
3 24 25 11
3 153 25 154
3 155 154 24
3 153 154 155
3 157 156 25
3 26 27 7
3 28 27 26
3 28 12 27
3 28 29 12
3 30 29 28
3 30 13 29
3 158 1 159
3 14 160 161
3 31 162 164
3 164 163 14
3 162 163 164
3 31 165 166
3 31 167 169
3 167 22 168
3 167 168 169
3 32 22 31
3 32 3 22
3 32 33 3
3 170 33 171
3 172 171 32
3 170 171 172
3 174 173 33
3 16 175 177
3 177 176 5
3 175 176 177
3 179 178 16
3 34 35 2
3 36 35 34
3 36 7 35
3 180 36 181
3 37 182 184
3 182 36 183
3 182 183 184
3 37 7 36
3 37 26 7
3 38 26 37
3 38 4 26
3 39 185 186
3 39 187 189
3 187 0 188
3 187 188 189
3 190 2 191
3 192 2 193
3 194 34 195
3 196 195 2
3 194 195 196
3 197 34 198
3 200 199 34
3 201 1 202
3 40 203 204
3 40 205 207
3 205 1 206
3 205 206 207
3 40 18 1
3 41 18 40
3 41 8 18
3 20 41 9
3 42 41 20
3 42 8 41
3 42 208 210
3 210 209 8
3 208 209 210
3 43 211 213
3 213 212 42
3 211 212 213
3 43 214 215
3 23 216 217
3 219 218 23
3 220 21 221
3 44 222 224
3 222 21 223
3 222 223 224
3 44 10 21
3 25 44 11
3 45 44 25
3 45 10 44
3 45 43 10
3 225 43 226
3 227 226 45
3 225 226 227
3 229 228 43
3 33 230 232
3 232 231 3
3 230 231 232
3 234 233 33
3 35 235 237
3 237 236 2
3 235 236 237
3 46 238 240
3 240 239 35
3 238 239 240
3 46 241 242
3 27 46 7
3 243 46 244
3 245 244 27
3 243 244 245
3 247 246 46
3 29 248 250
3 250 249 12
3 248 249 250
3 47 251 253
3 253 252 29
3 251 252 253
3 47 254 255
3 47 256 258
3 256 39 257
3 256 257 258
3 48 39 47
3 48 0 39
3 259 38 260
3 261 38 262
3 263 4 264
3 265 264 38
3 263 264 265
3 49 266 267
3 49 268 270
3 268 4 269
3 268 269 270
3 49 30 4
3 50 30 49
3 50 13 30
3 271 50 272
3 51 273 275
3 273 50 274
3 273 274 275
3 51 13 50
3 51 48 13
3 52 48 51
3 52 0 48
3 52 17 0
3 276 17 277
3 278 277 52
3 276 277 278
3 279 6 280
3 281 280 17
3 279 280 281
3 282 6 283
3 285 284 6
