ply
format ascii 1.0
element vertex 178
property float x
property float y
property float z
element face 147
property list uchar int vertex_index
end_header
-12.566252 56.237873 -31.080734
-27.819452 63.153751 -23.703583
-22.81979 59.075939 -26.201847
-18.434872 54.188412 -28.870682
-16.271576 61.786274 -28.413769
-32.874382 66.21431 -21.405327
-24.375593 64.847214 -24.452183
-25.273474 61.224766 -24.913338
-21.876093 62.776432 -25.818626
-19.521879 60.47813 -27.231106
-18.482218 64.240005 -26.916424
-35.220409 67.261765 -20.179741
-29.521353 68.17305 -21.854485
-15.448972 55.269833 -29.957672
-16.589157 51.458317 -30.08984
-13.790543 52.369228 -31.090435
-11.953348 66.710358 -29.346115
-31.129499 61.409161 -23.154499
-28.598066 59.622219 -24.224072
-26.099087 57.620228 -25.378078
-23.705788 55.424114 -26.618263
-20.523521 56.727535 -27.54324
-17.366991 57.972767 -28.638481
-14.291384 59.115467 -29.831573
-33.613468 62.947124 -22.124115
-30.380695 64.830643 -22.553387
-26.95088 66.659225 -23.141296
-18.807411 44.053074 -30.433605
-19.469145 50.473766 -29.145889
-17.708899 47.712322 -30.252235
-13.122427 62.949604 -29.654495
-21.379055 64.6159 -25.613756
-23.125843 63.811823 -25.135404
-22.628805 65.651291 -24.930535
-19.682118 65.347687 -26.162655
-20.179156 63.508218 -26.367525
-21.379055 64.6159 -25.613756
-11.836686 54.695545 -31.575389
-12.448831 52.761223 -31.58024
-13.178397 54.303551 -31.085584
-34.422575 65.203781 -21.230866
-35.595588 65.727509 -20.618073
-34.047395 66.738037 -20.792534
-33.243925 64.580717 -21.764721
-34.792118 63.570189 -21.59026
-34.422575 65.203781 -21.230866
-26.475111 68.34903 -22.804842
-28.236117 67.416138 -22.497891
-27.760348 69.105942 -22.161437
-25.181581 67.530151 -23.53421
-26.475111 68.34903 -22.804842
-19.635009 45.453728 -29.947376
-20.108447 43.699011 -30.105648
-18.952008 52.331089 -29.008285
-20.474469 51.758007 -28.52344
-19.957333 53.61533 -28.385836
-16.358955 48.121418 -30.675087
-17.149028 49.585319 -30.171037
-15.799084 49.994416 -30.593889
-16.966123 46.230559 -30.685667
-16.358955 48.121418 -30.675087
-11.624259 63.427841 -30.246231
-12.537888 64.829981 -29.500305
-11.03972 65.308218 -30.092041
-12.231534 61.524777 -30.337789
-11.624259 63.427841 -30.246231
-34.768602 68.704133 -19.63681
-36.285596 67.599579 -19.487446
-33.611604 68.304505 -20.354912
-34.768602 68.704133 -19.63681
-32.438591 67.780777 -20.967705
-34.047395 66.738037 -20.792534
-33.611604 68.304505 -20.354912
-30.762076 68.760147 -21.192284
-31.197868 67.19368 -21.629906
-32.438591 67.780777 -20.967705
-29.040912 69.751023 -21.425117
-30.762076 68.760147 -21.192284
-27.760348 69.105942 -22.161437
-29.040912 69.751023 -21.425117
-14.399777 50.449871 -31.094187
-15.799084 49.994416 -30.593889
-15.18985 51.913773 -30.590137
-13.096733 50.816067 -31.516632
-14.399777 50.449871 -31.094187
-13.096733 50.816067 -31.516632
-12.448831 52.761223 -31.58024
-11.377999 68.516357 -29.081032
-12.989373 67.979454 -28.522736
-10.448569 67.151879 -29.894718
-11.377999 68.516357 -29.081032
-11.03972 65.308218 -30.092041
-10.448569 67.151879 -29.894718
-31.440546 59.706238 -23.432862
-32.665534 60.528725 -22.945076
-30.17483 58.812767 -23.967648
-31.440546 59.706238 -23.432862
-29.863782 60.51569 -23.689286
-28.934594 57.884033 -24.488055
-30.17483 58.812767 -23.967648
-27.685105 56.883038 -25.065058
-28.934594 57.884033 -24.488055
-27.348577 58.621223 -24.801075
-26.468041 55.859299 -25.631555
-27.685105 56.883038 -25.065058
-25.271391 54.761242 -26.251648
-26.468041 55.859299 -25.631555
-24.902437 56.522171 -25.998171
-24.112697 53.646736 -26.85523
-25.271391 54.761242 -26.251648
-22.592791 54.233181 -27.259626
-24.112697 53.646736 -26.85523
-21.001658 54.884892 -27.722115
-22.592791 54.233181 -27.259626
-22.114655 56.075825 -27.080751
-19.479197 55.457974 -28.206961
-19.957333 53.61533 -28.385836
-21.001658 54.884892 -27.722115
-36.676031 66.182953 -20.021389
-36.285596 67.599579 -19.487446
-36.676031 66.182953 -20.021389
-35.595588 65.727509 -20.618073
-35.078836 61.995922 -21.942393
-34.792118 63.570189 -21.59026
-33.907518 61.297707 -22.429884
-35.078836 61.995922 -21.942393
-32.371483 62.178142 -22.639307
-32.665534 60.528725 -22.945076
-33.907518 61.297707 -22.429884
-23.893937 66.624145 -24.189653
-25.663237 65.75322 -23.79674
-25.181581 67.530151 -23.53421
-22.628805 65.651291 -24.930535
-23.893937 66.624145 -24.189653
-19.347625 42.274229 -30.514219
-20.108447 43.699011 -30.105648
-18.123779 42.549383 -30.786774
-19.347625 42.274229 -30.514219
-20.923995 49.965408 -28.729899
-20.474469 51.758007 -28.52344
-19.965877 48.664074 -29.303518
-20.923995 49.965408 -28.729899
-19.085753 47.283352 -29.856691
-19.965877 48.664074 -29.303518
-18.589022 49.093044 -29.699062
-18.258155 45.882698 -30.34292
-19.635009 45.453728 -29.947376
-19.085753 47.283352 -29.856691
-17.515379 44.400935 -30.776352
-18.258155 45.882698 -30.34292
-16.966123 46.230559 -30.685667
-18.123779 42.549383 -30.786774
-17.515379 44.400935 -30.776352
-17.945842 66.089493 -26.719845
-19.682118 65.347687 -26.162655
-16.818426 64.905113 -27.522934
-17.945842 66.089493 -26.719845
-15.713105 63.678247 -28.271606
-17.376897 63.013139 -27.665096
-16.818426 64.905113 -27.522934
-13.553991 66.140289 -28.73778
-12.989373 67.979454 -28.522736
-14.13853 64.259912 -28.89197
-13.553991 66.140289 -28.73778
-12.537888 64.829981 -29.500305
-14.697001 62.367939 -29.034132
-15.713105 63.678247 -28.271606
-14.13853 64.259912 -28.89197
-12.816012 59.607708 -30.426328
-13.706906 61.032536 -29.743034
-12.231534 61.524777 -30.337789
-11.953447 58.168911 -31.050909
-13.428818 57.67667 -30.456153
-12.816012 59.607708 -30.426328
-11.193853 56.63525 -31.612848
-11.953447 58.168911 -31.050909
-11.836686 54.695545 -31.575389
-11.193853 56.63525 -31.612848
3 31 8 32
3 33 32 6
3 31 32 33
3 34 10 35
3 36 35 8
3 34 35 36
3 0 15 13
3 0 37 39
3 39 38 15
3 37 38 39
3 1 18 17
3 2 19 7
3 2 20 19
3 2 21 20
3 4 22 9
3 4 23 22
3 5 40 42
3 42 41 11
3 40 41 42
3 5 43 45
3 43 24 44
3 43 44 45
3 5 25 24
3 46 26 47
3 48 47 12
3 46 47 48
3 50 49 26
3 51 27 52
3 3 53 55
3 53 28 54
3 53 54 55
3 56 29 57
3 58 57 14
3 56 57 58
3 60 59 29
3 61 30 62
3 63 62 16
3 61 62 63
3 65 64 30
3 6 7 1
3 8 7 6
3 8 2 7
3 8 9 2
3 10 9 8
3 10 4 9
3 66 11 67
3 68 11 69
3 70 5 71
3 72 71 11
3 70 71 72
3 73 12 74
3 75 74 5
3 73 74 75
3 76 12 77
3 79 78 12
3 13 14 3
3 15 14 13
3 15 80 82
3 82 81 14
3 80 81 82
3 15 83 84
3 86 85 15
3 87 16 88
3 89 16 90
3 92 91 16
3 17 93 94
3 18 95 97
3 97 96 17
3 95 96 97
3 18 98 99
3 7 18 1
3 19 18 7
3 19 100 102
3 102 101 18
3 100 101 102
3 19 103 104
3 20 105 107
3 107 106 19
3 105 106 107
3 20 108 109
3 20 110 111
3 21 112 114
3 114 113 20
3 112 113 114
3 21 115 117
3 115 3 116
3 115 116 117
3 9 21 2
3 22 21 9
3 22 3 21
3 22 13 3
3 23 13 22
3 23 0 13
3 11 118 119
3 121 120 11
3 24 122 123
3 24 124 125
3 24 126 128
3 126 17 127
3 126 127 128
3 25 17 24
3 25 1 17
3 12 25 5
3 26 25 12
3 26 1 25
3 26 6 1
3 129 6 130
3 131 130 26
3 129 130 131
3 133 132 6
3 27 134 135
3 27 136 137
3 28 138 139
3 28 140 141
3 14 28 3
3 29 28 14
3 29 142 144
3 144 143 28
3 142 143 144
3 29 145 147
3 145 27 146
3 145 146 147
3 148 27 149
3 150 149 29
3 148 149 150
3 152 151 27
3 153 10 154
3 155 10 156
3 157 4 158
3 159 158 10
3 157 158 159
3 16 160 161
3 30 162 164
3 164 163 16
3 162 163 164
3 30 165 167
3 165 4 166
3 165 166 167
3 30 23 4
3 168 23 169
3 170 169 30
3 168 169 170
3 171 0 172
3 173 172 23
3 171 172 173
3 174 0 175
3 177 176 0
