ply
format ascii 1.0
element vertex 143
property float x
property float y
property float z
element face 100
property list uchar int vertex_index
end_header
-41.656693 53.175236 -19.803932
-30.077888 38.149044 -26.79586
-42.693184 58.167004 -19.444038
-45.336372 58.784 -16.216621
-28.592258 38.529987 -27.882095
-45.299747 60.923901 -15.404842
-44.107491 61.018787 -17.27243
-44.126583 58.651608 -17.957439
-32.430172 45.65205 -25.597641
-42.355488 55.627979 -19.744934
-40.73951 54.6497 -20.984936
-43.754234 56.303699 -18.315243
-30.273516 40.838947 -26.867432
-28.487898 41.385555 -27.772732
-38.914314 53.411091 -22.093498
-40.889359 52.62207 -20.439796
-41.139286 52.00106 -19.731571
-41.760762 52.483829 -19.002662
-42.3232 53.593647 -19.092085
-41.139286 52.00106 -19.731571
-41.760762 52.483829 -19.002662
-26.935139 37.491615 -28.757141
-27.85463 37.276808 -28.327547
-27.672767 38.744794 -28.311689
-43.214486 62.170189 -17.632888
-43.916594 62.184876 -16.758468
-43.390434 60.88517 -18.070312
-43.214486 62.170189 -17.632888
-33.4584 46.583702 -25.039105
-33.19856 45.26569 -25.111025
-34.226789 46.197342 -24.552489
-30.004001 36.820908 -26.655183
-30.626114 37.979531 -26.12257
-41.858996 57.75782 -20.073448
-41.690148 56.488308 -20.223896
-42.524336 56.897492 -19.594486
-45.843914 58.675693 -15.222881
-45.825602 59.745644 -14.816992
-45.31806 59.85395 -15.810731
-45.652755 57.712814 -15.498518
-45.843914 58.675693 -15.222881
-45.142574 57.714836 -16.439107
-45.652755 57.712814 -15.498518
-30.338958 42.226015 -26.787373
-31.18242 41.895544 -26.318697
-31.247862 43.282612 -26.238638
-29.446149 42.499319 -27.240023
-29.380707 41.112251 -27.320082
-30.338958 42.226015 -26.787373
-39.022778 54.821762 -21.942577
-39.826912 54.030395 -21.539217
-39.935376 55.441067 -21.388296
-28.639069 37.137776 -27.82609
-29.381884 36.947304 -27.282972
-29.335073 38.339516 -27.338977
-28.639069 37.137776 -27.82609
-27.85463 37.276808 -28.327547
-41.839396 59.146157 -19.824764
-42.683281 59.459278 -19.156116
-44.512722 62.137433 -15.824673
-45.086903 61.971161 -14.813591
-44.703619 60.971344 -16.338636
-44.512722 62.137433 -15.824673
-43.916594 62.184876 -16.758468
-43.39998 59.701581 -18.412817
-44.117037 59.835198 -17.614935
-43.390434 60.88517 -18.070312
-42.683281 59.459278 -19.156116
-43.409883 58.409306 -18.700738
-43.39998 59.701581 -18.412817
-32.260748 44.302096 -25.683802
-33.029136 43.915735 -25.197185
-33.19856 45.26569 -25.111025
-31.417286 44.632567 -26.152477
-31.247862 43.282612 -26.238638
-32.260748 44.302096 -25.683802
-29.307997 35.619168 -27.142295
-30.004001 36.820908 -26.655183
-29.381884 36.947304 -27.282972
-40.882159 55.999168 -20.843897
-41.547499 55.13884 -20.364935
-41.690148 56.488308 -20.223896
-39.935376 55.441067 -21.388296
-40.882159 55.999168 -20.843897
-41.858996 57.75782 -20.073448
-41.839396 59.146157 -19.824764
-45.789705 60.704514 -14.345154
-45.086903 61.971161 -14.813591
-45.789705 60.704514 -14.345154
-45.825602 59.745644 -14.816992
-44.537679 57.64864 -17.309517
-45.142574 57.714836 -16.439107
-44.731477 58.717804 -17.08703
-44.351505 56.474685 -17.488419
-44.537679 57.64864 -17.309517
-43.940408 57.477654 -18.136341
-43.945397 55.421703 -17.54213
-44.351505 56.474685 -17.488419
-43.371971 55.157879 -18.347741
-43.945397 55.421703 -17.54213
-42.672598 54.820019 -19.062586
-43.371971 55.157879 -18.347741
-43.054861 55.965839 -19.030088
-42.00609 54.401607 -19.774433
-42.3232 53.593647 -19.092085
-42.672598 54.820019 -19.062586
-30.85629 39.252821 -26.258207
-30.626114 37.979531 -26.12257
-30.954104 40.597772 -26.293993
-31.18242 41.895544 -26.318697
-30.175702 39.493995 -26.831646
-30.85629 39.252821 -26.258207
-30.954104 40.597772 -26.293993
-27.620587 40.172579 -28.257008
-27.672767 38.744794 -28.311689
-28.540078 39.957771 -27.827413
-40.430768 53.359302 -21.030299
-40.889359 52.62207 -20.439796
-41.198101 53.912468 -20.394434
-39.518169 52.739998 -21.58458
-40.430768 53.359302 -21.030299
-39.826912 54.030395 -21.539217
-38.653194 52.073475 -22.169977
-39.518169 52.739998 -21.58458
-37.979097 54.136677 -22.439943
-39.022778 54.821762 -21.942577
-37.912031 52.682701 -22.615697
-37.979097 54.136677 -22.439943
-38.653194 52.073475 -22.169977
-37.912031 52.682701 -22.615697
-32.503994 47.074803 -25.421642
-33.4584 46.583702 -25.039105
-31.410345 46.082893 -25.972532
-32.503994 47.074803 -25.421642
-30.397459 45.06341 -26.527369
-31.417286 44.632567 -26.152477
-31.410345 46.082893 -25.972532
-28.389126 42.867712 -27.612627
-29.446149 42.499319 -27.240023
-27.418616 41.689527 -28.138947
-28.389126 42.867712 -27.612627
-27.620587 40.172579 -28.257008
-27.418616 41.689527 -28.138947
3 0 15 16
3 0 17 18
3 0 19 20
3 23 22 4
3 21 22 23
3 24 6 25
3 27 26 6
3 28 8 29
3 28 29 30
3 1 31 32
3 2 33 35
3 35 34 9
3 33 34 35
3 3 36 38
3 38 37 5
3 36 37 38
3 3 39 40
3 3 41 42
3 2 11 7
3 2 9 11
3 43 12 44
3 43 44 45
3 46 13 47
3 48 47 12
3 46 47 48
3 49 14 50
3 51 50 10
3 49 50 51
3 4 52 54
3 54 53 1
3 52 53 54
3 56 55 4
3 58 57 2
3 59 5 60
3 6 61 63
3 61 5 62
3 61 62 63
3 6 3 5
3 6 7 3
3 64 7 65
3 66 65 6
3 64 65 66
3 67 2 68
3 69 68 7
3 67 68 69
3 8 70 72
3 70 71 72
3 8 73 75
3 73 74 75
3 78 77 1
3 76 77 78
3 9 10 0
3 79 10 80
3 81 80 9
3 79 80 81
3 83 82 10
3 85 84 2
3 5 86 87
3 89 88 5
3 7 90 92
3 92 91 3
3 90 91 92
3 11 93 95
3 95 94 7
3 93 94 95
3 11 96 97
3 11 98 99
3 9 100 102
3 102 101 11
3 100 101 102
3 9 103 105
3 103 0 104
3 103 104 105
3 106 1 107
3 12 108 109
3 12 110 112
3 110 1 111
3 110 111 112
3 12 4 1
3 13 4 12
3 13 113 115
3 115 114 4
3 113 114 115
3 10 116 118
3 118 117 0
3 116 117 118
3 14 119 121
3 121 120 10
3 119 120 121
3 14 122 123
3 124 14 125
3 126 14 127
3 129 128 14
3 130 8 131
3 132 8 133
3 136 135 8
3 134 135 136
3 137 13 138
3 139 13 140
3 142 141 13
