ply
format ascii 1.0
element vertex 312
property float x
property float y
property float z
element face 267
property list uchar int vertex_index
end_header
46.127853 -7.662731 54.712303
52.091652 -19.008293 56.872948
41.89978 -8.213974 63.732353
58.328865 -18.218994 51.321281
46.999191 -3.534005 57.125214
49.651226 0.728001 54.911423
55.470444 -18.28964 54.196777
43.9795 -7.865468 59.383141
43.104195 -11.910221 57.156342
44.395504 -3.767977 61.207466
43.29715 -15.474652 56.030495
45.287613 -18.206722 56.962059
46.63937 -5.610596 55.953056
48.248795 -3.473438 54.878021
39.103241 -6.938961 67.500786
52.550934 -17.512667 54.499252
54.377048 -17.123177 53.271843
53.841446 -18.572556 55.564995
53.223213 -20.098703 57.716934
47.615788 -15.938371 53.322868
42.95034 -8.011724 61.618835
42.539665 -10.067677 60.556412
41.902702 -6.22199 64.330017
43.000832 -3.984468 62.98201
43.150291 -5.978024 62.459854
44.334953 -5.806241 60.419533
57.680912 -16.751846 50.702782
41.865334 -14.050834 58.503204
42.98933 -13.782253 56.365807
41.974495 -15.850835 57.927589
43.539734 -18.828226 58.329704
44.895638 -20.005196 59.2565
46.777252 -19.287033 58.061226
47.039215 -1.454397 58.104469
48.201889 0.701931 56.972801
48.420746 -1.391022 56.028175
40.784019 -8.483144 65.691444
40.561768 -6.544082 66.011993
56.093178 -16.864801 52.007507
56.965302 -18.170078 52.777367
56.162548 -19.633778 54.692825
41.142555 -17.932272 59.578133
50.647209 -18.016405 55.697998
45.027756 -7.756781 57.065796
44.535442 -9.784113 55.891113
43.50008 -9.917106 58.2313
42.110104 -12.101385 59.446732
45.590508 -1.567739 60.00235
45.721375 -3.624012 59.246643
45.488346 -5.691167 58.238075
44.224136 -11.718797 54.913696
44.274315 -13.501163 54.323387
44.791931 -15.082764 54.250481
42.533081 -17.450302 57.858131
44.080311 -16.949892 56.237984
45.782036 -16.442179 54.726326
47.146378 -17.599289 55.665581
48.707756 -18.615271 56.880348
50.248459 -19.580956 58.118263
45.902157 -8.655369 54.147709
46.715305 -7.611242 53.540817
46.969795 -6.600934 54.160038
47.225554 -5.574867 54.780414
46.383612 -6.636664 55.332679
46.715305 -7.611242 53.540817
46.969795 -6.600934 54.160038
47.033906 -15.307282 52.962925
47.934081 -15.098655 52.207462
41.75515 -9.234063 63.276035
42.280429 -9.132938 62.219276
42.42506 -8.112849 62.675594
58.733113 -17.506838 50.340122
58.409136 -16.773264 50.030873
58.004888 -17.48542 51.012031
58.954067 -18.326949 50.583847
58.733113 -17.506838 50.340122
58.468879 -19.058124 51.43502
58.954067 -18.326949 50.583847
41.391624 -16.030869 58.922187
41.919914 -14.950834 58.215396
41.337044 -15.130868 59.209995
44.707524 -20.933925 60.405174
43.993429 -20.371916 59.86887
45.66153 -20.523303 59.85096
44.707524 -20.933925 60.405174
48.99926 -2.412298 54.342617
48.868416 -3.444602 53.712284
40.209142 -9.631198 66.346012
40.173126 -8.651788 66.583202
40.062 -7.682257 66.743476
39.832504 -6.741522 66.75639
39.332737 -7.879696 67.487873
40.173126 -8.651788 66.583202
40.672894 -7.513613 65.851719
40.062 -7.682257 66.743476
49.864439 -17.521217 55.063263
50.84785 -17.261081 54.466308
49.386042 1.779168 55.360992
48.661373 1.766133 56.391681
48.926558 0.714966 55.942112
41.655968 -12.20435 60.592796
42.324884 -11.084531 60.001572
41.870749 -11.187496 61.147637
41.491255 -13.208448 60.072075
41.655968 -12.20435 60.592796
44.228506 -2.760011 61.452713
43.53117 -2.868257 62.339985
43.698168 -3.876222 62.094738
44.993006 -2.667858 60.604908
44.826008 -1.659892 60.850155
44.228506 -2.760011 61.452713
42.226666 -18.446077 58.816303
41.837818 -17.691287 58.718132
41.531402 -18.687061 59.676304
48.527804 -19.441869 58.092918
47.742504 -18.951152 57.470787
47.562551 -19.77775 58.683357
49.298155 -19.924712 58.711876
49.478108 -19.098114 57.499305
48.527804 -19.441869 58.092918
48.030266 -4.506288 54.242897
47.444083 -4.542017 55.415538
47.225554 -5.574867 54.780414
48.868416 -3.444602 53.712284
48.030266 -4.506288 54.242897
38.308582 -7.163937 68.153663
38.669647 -6.024902 67.304055
38.653086 -8.077395 68.287987
38.308582 -7.163937 68.153663
39.332737 -7.879696 67.487873
38.653086 -8.077395 68.287987
53.463991 -17.317922 53.885548
53.687849 -16.590261 52.668419
52.774792 -16.785007 53.282123
54.301182 -19.173695 55.89972
55.115681 -19.032237 55.21561
54.655945 -18.431098 54.880886
53.992065 -19.936768 56.975689
54.301182 -19.173695 55.89972
53.53233 -19.335629 56.640965
53.570274 -20.730061 57.892243
53.992065 -19.936768 56.975689
48.579829 -15.694609 52.670704
47.934081 -15.098655 52.207462
48.348728 -16.4822 53.875698
48.579829 -15.694609 52.670704
50.122427 1.764913 54.319439
50.340982 0.733143 53.802799
42.075092 -10.160914 61.688064
42.745002 -9.0397 61.087623
42.280429 -9.132938 62.219276
41.870749 -11.187496 61.147637
42.075092 -10.160914 61.688064
42.451767 -5.103229 63.656014
42.259377 -4.133898 63.768802
41.710312 -5.25266 64.442806
58.018228 -16.047259 49.610554
57.180904 -16.103882 50.21291
58.018228 -16.047259 49.610554
58.409136 -16.773264 50.030873
43.315478 -19.783431 59.405472
42.729992 -19.135039 59.05209
44.217686 -19.416711 58.793102
43.315478 -19.783431 59.405472
43.993429 -20.371916 59.86887
46.602337 -20.164222 59.253322
45.836445 -19.646115 58.658863
45.66153 -20.523303 59.85096
47.562551 -19.77775 58.683357
46.602337 -20.164222 59.253322
47.620552 -0.376233 57.538635
47.435646 0.666246 57.90818
46.854309 -0.411918 58.474014
49.085235 -1.37109 54.917694
48.334771 -2.43223 55.453098
48.99926 -2.412298 54.342617
49.700475 -0.311579 54.359318
49.035986 -0.33151 55.469799
49.085235 -1.37109 54.917694
50.340982 0.733143 53.802799
49.700475 -0.311579 54.359318
40.722099 -9.486329 65.335266
41.279979 -9.351744 64.355721
41.341899 -8.348559 64.711899
40.722099 -9.486329 65.335266
40.209142 -9.631198 66.346012
39.517626 -5.801137 66.7136
38.669647 -6.024902 67.304055
40.24689 -5.603697 65.969203
39.517626 -5.801137 66.7136
39.832504 -6.741522 66.75639
41.039845 -5.413706 65.283794
40.24689 -5.603697 65.969203
41.232235 -6.383036 65.171005
41.710312 -5.25266 64.442806
41.039845 -5.413706 65.283794
54.632421 -16.411886 52.086109
53.687849 -16.590261 52.668419
55.490486 -16.282698 51.453941
54.632421 -16.411886 52.086109
55.235113 -16.993989 52.639675
56.387038 -16.160359 50.865273
55.490486 -16.282698 51.453941
56.887045 -16.808324 51.355144
57.180904 -16.103882 50.21291
56.387038 -16.160359 50.865273
57.201178 -18.92339 52.948967
57.882959 -18.947848 52.220924
57.647084 -18.194536 52.049324
56.799801 -19.65524 53.906696
57.201178 -18.92339 52.948967
56.563925 -18.901928 53.735096
56.293982 -20.415554 54.704582
56.799801 -19.65524 53.906696
55.461733 -19.704306 55.463634
55.816496 -18.961709 54.444801
55.115681 -19.032237 55.21561
55.696707 -20.406411 55.547669
55.461733 -19.704306 55.463634
54.995891 -20.47694 56.318478
56.293982 -20.415554 54.704582
55.696707 -20.406411 55.547669
40.515417 -18.158593 60.479763
40.975655 -17.071587 59.74746
40.78442 -18.978461 60.43718
40.515417 -18.158593 60.479763
41.531402 -18.687061 59.676304
40.78442 -18.978461 60.43718
51.799713 -17.009213 53.866935
52.774792 -16.785007 53.282123
51.599071 -17.764536 55.098625
51.799713 -17.009213 53.866935
50.84785 -17.261081 54.466308
47.87941 1.761324 57.336788
47.435646 0.666246 57.90818
47.87941 1.761324 57.336788
48.661373 1.766133 56.391681
49.386042 1.779168 55.360992
50.122427 1.764913 54.319439
41.36887 -14.183172 59.600311
41.987719 -13.07611 58.974968
41.491255 -13.208448 60.072075
41.337044 -15.130868 59.209995
41.36887 -14.183172 59.600311
41.75515 -9.234063 63.276035
41.279979 -9.351744 64.355721
42.721329 -3.002086 63.080421
42.259377 -4.133898 63.768802
42.721329 -3.002086 63.080421
43.53117 -2.868257 62.339985
45.317095 -0.538786 60.250641
44.826008 -1.659892 60.850155
46.129956 -0.468589 59.422955
45.317095 -0.538786 60.250641
46.314861 -1.511068 59.05341
46.854309 -0.411918 58.474014
46.129956 -0.468589 59.422955
58.468879 -19.058124 51.43502
57.882959 -18.947848 52.220924
45.105951 -9.71606 54.737114
45.902157 -8.655369 54.147709
45.331648 -8.723422 55.301708
44.950298 -10.683402 54.248406
45.105951 -9.71606 54.737114
44.379789 -10.751455 55.402405
44.858301 -11.615147 53.837265
44.950298 -10.683402 54.248406
44.883391 -12.50633 53.54211
44.858301 -11.615147 53.837265
44.249226 -12.60998 54.618541
45.001995 -13.350359 53.365005
44.883391 -12.50633 53.54211
45.260803 -14.14116 53.328553
45.001995 -13.350359 53.365005
44.533123 -14.291963 54.286934
45.621977 -14.879478 53.426732
45.260803 -14.14116 53.328553
41.558525 -16.891554 58.752861
41.391624 -16.030869 58.922187
40.975655 -17.071587 59.74746
43.036408 -18.139264 58.093918
42.226666 -18.446077 58.816303
42.729992 -19.135039 59.05209
46.11703 -15.559185 53.664654
45.621977 -14.879478 53.426732
45.286983 -15.762472 54.488404
46.698912 -16.190275 54.024597
47.033906 -15.307282 52.962925
46.11703 -15.559185 53.664654
48.114024 -17.312659 55.047055
48.348728 -16.4822 53.875698
47.381083 -16.76883 54.494225
48.894712 -17.82065 55.654438
48.114024 -17.312659 55.047055
47.927067 -18.10728 56.272965
49.677482 -18.315838 56.289173
49.864439 -17.521217 55.063263
48.894712 -17.82065 55.654438
50.014736 -20.413822 59.272022
49.298155 -19.924712 58.711876
50.902548 -20.088254 58.618347
50.014736 -20.413822 59.272022
51.824145 -19.801922 57.995689
51.170056 -19.294624 57.495605
50.902548 -20.088254 58.618347
52.389925 -20.347127 58.417682
52.657432 -19.553498 57.294941
51.824145 -19.801922 57.995689
52.846264 -20.920915 58.693188
52.389925 -20.347127 58.417682
53.570274 -20.730061 57.892243
52.846264 -20.920915 58.693188
3 0 59 60
3 0 61 63
3 63 62 12
3 61 62 63
3 0 64 65
3 1 17 15
3 1 18 17
3 66 19 67
3 2 68 70
3 70 69 20
3 68 69 70
3 2 24 22
3 2 20 24
3 3 71 73
3 73 72 26
3 71 72 73
3 3 74 75
3 3 76 77
3 78 29 79
3 80 79 27
3 78 79 80
3 81 31 82
3 84 83 31
3 4 35 33
3 86 85 13
3 88 87 36
3 89 37 90
3 91 90 14
3 89 90 91
3 92 36 93
3 94 93 37
3 92 93 94
3 6 38 16
3 6 39 38
3 6 40 39
3 95 42 96
3 5 97 99
3 99 98 34
3 97 98 99
3 7 45 43
3 100 46 101
3 102 101 21
3 100 101 102
3 104 103 46
3 9 105 107
3 107 106 23
3 105 106 107
3 9 108 110
3 108 47 109
3 108 109 110
3 9 48 47
3 7 49 25
3 7 43 49
3 8 50 44
3 10 51 28
3 10 52 51
3 111 53 112
3 113 112 41
3 111 112 113
3 11 54 30
3 11 55 54
3 11 56 55
3 114 57 115
3 116 115 32
3 114 115 116
3 117 58 118
3 119 118 57
3 117 118 119
3 12 13 4
3 120 13 121
3 122 121 12
3 120 121 122
3 124 123 13
3 125 14 126
3 127 14 128
3 130 129 14
3 15 131 133
3 131 16 132
3 131 132 133
3 17 16 15
3 17 6 16
3 17 134 136
3 136 135 6
3 134 135 136
3 18 137 139
3 139 138 17
3 137 138 139
3 18 140 141
3 19 142 143
3 19 144 145
3 147 146 5
3 20 21 7
3 148 21 149
3 150 149 20
3 148 149 150
3 152 151 21
3 22 153 155
3 153 23 154
3 153 154 155
3 24 23 22
3 24 9 23
3 24 25 9
3 20 25 24
3 20 7 25
3 26 156 157
3 159 158 26
3 27 28 8
3 29 28 27
3 29 10 28
3 160 30 161
3 31 162 164
3 162 30 163
3 162 163 164
3 31 11 30
3 31 32 11
3 165 32 166
3 167 166 31
3 165 166 167
3 169 168 32
3 33 170 172
3 170 34 171
3 170 171 172
3 35 34 33
3 35 5 34
3 13 35 4
3 173 35 174
3 175 174 13
3 173 174 175
3 176 5 177
3 178 177 35
3 176 177 178
3 180 179 5
3 36 181 183
3 183 182 2
3 181 182 183
3 185 184 36
3 14 186 187
3 37 188 190
3 190 189 14
3 188 189 190
3 37 191 192
3 37 193 195
3 193 22 194
3 193 194 195
3 36 22 37
3 36 2 22
3 16 196 197
3 38 198 200
3 200 199 16
3 198 199 200
3 38 201 202
3 38 203 205
3 203 26 204
3 203 204 205
3 39 26 38
3 39 3 26
3 39 206 208
3 208 207 3
3 206 207 208
3 40 209 211
3 211 210 39
3 209 210 211
3 40 212 213
3 214 40 215
3 216 215 6
3 214 215 216
3 217 40 218
3 217 218 219
3 221 220 40
3 222 41 223
3 224 41 225
3 227 226 41
3 228 15 229
3 42 230 232
3 230 15 231
3 230 231 232
3 42 1 15
3 34 233 234
3 236 235 34
3 238 237 5
3 43 44 0
3 45 44 43
3 45 8 44
3 21 45 7
3 46 45 21
3 46 8 45
3 46 27 8
3 239 27 240
3 241 240 46
3 239 240 241
3 243 242 27
3 245 244 2
3 23 246 247
3 249 248 23
3 47 250 251
3 47 252 253
3 47 254 256
3 254 33 255
3 254 255 256
3 48 33 47
3 48 4 33
3 25 48 9
3 49 48 25
3 49 4 48
3 49 12 4
3 43 12 49
3 43 0 12
3 258 257 3
3 44 259 261
3 261 260 0
3 259 260 261
3 50 262 264
3 264 263 44
3 262 263 264
3 50 265 266
3 28 50 8
3 51 50 28
3 51 267 269
3 269 268 50
3 267 268 269
3 51 270 271
3 52 272 274
3 274 273 51
3 272 273 274
3 52 275 276
3 41 277 279
3 277 29 278
3 277 278 279
3 53 29 41
3 53 10 29
3 30 280 282
3 280 53 281
3 280 281 282
3 54 53 30
3 54 10 53
3 54 52 10
3 55 52 54
3 55 283 285
3 285 284 52
3 283 284 285
3 55 286 288
3 286 19 287
3 286 287 288
3 56 19 55
3 56 289 291
3 291 290 19
3 289 290 291
3 32 56 11
3 57 56 32
3 57 292 294
3 294 293 56
3 292 293 294
3 57 295 297
3 295 42 296
3 295 296 297
3 58 42 57
3 58 1 42
3 298 58 299
3 300 58 301
3 302 1 303
3 304 303 58
3 302 303 304
3 305 18 306
3 307 306 1
3 305 306 307
3 308 18 309
3 311 310 18
