ply
format ascii 1.0
element vertex 109
property float x
property float y
property float z
element face 91
property list uchar int vertex_index
end_header
-5.059523 -86.424789 29.708662
-2.896481 -83.331879 33.906906
-4.609783 -80.214409 24.703579
-6.059046 -84.645294 25.009418
-3.821381 -81.851456 29.212795
-5.90172 -81.590637 22.639942
-5.563433 -85.539673 27.331499
-6.285263 -86.917786 25.117659
-5.800114 -87.851288 27.496227
-3.369612 -82.623322 31.533464
-4.533892 -84.131271 29.470724
-5.019342 -83.283508 27.148577
-5.335358 -88.774078 29.936138
-3.302698 -78.752365 26.716671
-6.540287 -83.778305 22.740818
-2.260706 -80.947083 33.538239
-2.651312 -80.27037 31.216211
-3.000906 -79.531448 28.945847
-4.236174 -81.038979 26.939068
-5.475224 -82.425476 24.873444
-6.106822 -81.200207 21.542567
-6.456958 -82.282009 21.582159
-4.796708 -85.27803 29.589693
-4.282165 -84.534866 30.657495
-4.54498 -85.681625 30.776464
-4.08658 -79.087193 24.609963
-3.433038 -78.35617 25.616509
-3.95624 -79.483387 25.710125
-6.420362 -85.329658 23.906781
-6.660983 -84.896164 22.772481
-6.299667 -84.2118 23.875118
-6.436451 -87.623406 23.985613
-6.203284 -88.095596 25.170556
-5.51768 -89.510292 28.802023
-5.334266 -89.988808 30.056059
-2.578594 -82.139481 33.722572
-2.053797 -81.246674 34.727908
-2.371685 -82.439072 34.912241
-5.426675 -80.499519 22.569094
-4.780706 -79.811405 23.600912
-5.255752 -80.902523 23.671761
-5.426675 -80.499519 22.569094
-6.106822 -81.200207 21.542567
-5.96071 -88.562348 26.359841
-6.203284 -88.095596 25.170556
-6.042688 -87.384537 26.306943
-3.700025 -83.780891 31.688865
-3.133046 -82.9776 32.720185
-3.463459 -84.13517 32.875586
-3.951752 -83.377296 30.502094
-3.700025 -83.780891 31.688865
-4.282165 -84.534866 30.657495
-4.948842 -88.02108 31.038034
-5.197441 -87.599434 29.8224
-4.810924 -86.846436 30.924296
-5.120674 -89.212379 31.182882
-4.948842 -88.02108 31.038034
-5.119582 -90.427109 31.302803
-5.334266 -89.988808 30.056059
-5.120674 -89.212379 31.182882
-2.66077 -83.646843 35.120441
-2.371685 -82.439072 34.912241
-3.21267 -84.506661 34.088391
-2.66077 -83.646843 35.120441
-3.463459 -84.13517 32.875586
-3.21267 -84.506661 34.088391
-4.810924 -86.846436 30.924296
-4.54498 -85.681625 30.776464
-2.805352 -77.560879 26.615242
-2.725035 -77.933777 27.708252
-2.805352 -77.560879 26.615242
-3.433038 -78.35617 25.616509
-4.08658 -79.087193 24.609963
-4.780706 -79.811405 23.600912
-6.914497 -84.478805 21.649096
-6.776242 -83.375843 21.632597
-6.914497 -84.478805 21.649096
-6.660983 -84.896164 22.772481
-6.533471 -86.465904 23.960901
-6.420362 -85.329658 23.906781
-6.172154 -85.78154 25.063538
-6.533471 -86.465904 23.960901
-6.436451 -87.623406 23.985613
-5.750058 -89.048897 27.582068
-5.567736 -88.312683 28.716183
-5.51768 -89.510292 28.802023
-5.910654 -89.759957 26.445681
-5.96071 -88.562348 26.359841
-5.750058 -89.048897 27.582068
-1.813987 -79.996998 34.526882
-2.053797 -81.246674 34.727908
-1.968506 -79.709717 33.363159
-1.813987 -79.996998 34.526882
-2.163809 -79.371361 32.202146
-1.968506 -79.709717 33.363159
-2.456009 -80.608727 32.377225
-2.295066 -79.046818 31.067925
-2.163809 -79.371361 32.202146
-2.469863 -78.677357 29.932742
-2.295066 -79.046818 31.067925
-2.826109 -79.900909 30.081029
-2.57414 -78.323318 28.82284
-2.469863 -78.677357 29.932742
-3.151802 -79.141907 27.831259
-2.725035 -77.933777 27.708252
-2.57414 -78.323318 28.82284
-6.776242 -83.375843 21.632597
-6.456958 -82.282009 21.582159
-6.221004 -82.684471 22.69038
3 21 20 5
3 0 8 6
3 0 22 24
3 22 10 23
3 22 23 24
3 0 6 10
3 2 25 27
3 27 26 13
3 25 26 27
3 3 28 30
3 30 29 14
3 28 29 30
3 32 31 7
3 34 33 12
3 1 35 37
3 35 15 36
3 35 36 37
3 4 16 9
3 4 17 16
3 4 18 17
3 3 19 11
3 3 14 19
3 5 38 40
3 40 39 2
3 38 39 40
3 42 41 5
3 6 7 3
3 8 7 6
3 8 43 45
3 45 44 7
3 43 44 45
3 46 9 47
3 48 47 1
3 46 47 48
3 10 49 51
3 49 9 50
3 49 50 51
3 10 4 9
3 10 11 4
3 6 11 10
3 6 3 11
3 52 12 53
3 54 53 0
3 52 53 54
3 55 12 56
3 59 58 12
3 57 58 59
3 60 1 61
3 62 1 63
3 65 64 1
3 66 0 67
3 13 68 69
3 71 70 13
3 73 72 2
3 14 74 75
3 77 76 14
3 7 78 80
3 80 79 3
3 78 79 80
3 82 81 7
3 12 8 0
3 83 8 84
3 85 84 12
3 83 84 85
3 88 87 8
3 86 87 88
3 15 89 90
3 15 91 92
3 9 15 1
3 16 15 9
3 16 93 95
3 95 94 15
3 93 94 95
3 16 96 97
3 17 98 100
3 100 99 16
3 98 99 100
3 17 101 102
3 17 103 105
3 103 13 104
3 103 104 105
3 18 13 17
3 18 2 13
3 11 18 4
3 19 18 11
3 19 2 18
3 19 5 2
3 14 5 19
3 14 106 108
3 108 107 5
3 106 107 108
