ply
format ascii 1.0
element vertex 139
property float x
property float y
property float z
element face 104
property list uchar int vertex_index
end_header
56.074715 -75.514832 -21.386412
58.644745 -68.538559 -24.554976
58.907463 -74.427849 -9.549021
58.400429 -74.825325 -13.80065
56.278458 -71.827309 -24.284231
57.427399 -68.172012 -25.778421
59.796234 -64.906029 -26.168062
58.333023 -72.138443 -21.402662
56.885788 -75.473045 -19.715509
59.087608 -72.078911 -19.652208
59.685066 -71.937973 -17.740858
57.39827 -72.066002 -22.953463
59.694149 -68.72496 -23.111994
60.98217 -71.612869 -9.3696
58.696167 -74.599686 -11.681311
58.01638 -75.077957 -15.87554
60.155888 -71.774895 -15.715754
56.749329 -67.892517 -26.289602
56.209456 -69.789154 -25.588985
57.968422 -66.291435 -26.544033
56.749329 -67.892517 -26.289602
59.827331 -70.421379 -20.554597
58.710316 -72.108677 -20.527435
59.450039 -70.451145 -21.429825
60.181206 -70.392948 -19.636032
59.827331 -70.421379 -20.554597
59.792406 -66.873795 -24.685238
60.317108 -66.966995 -23.963747
59.169447 -68.63176 -23.833485
60.925972 -63.235506 -26.324585
60.320503 -63.024403 -26.967645
59.944817 -73.020359 -9.459311
60.0019 -72.961167 -8.395999
58.964546 -74.368657 -8.48571
59.8554 -73.007855 -10.523846
60.892753 -71.600365 -10.434136
59.944817 -73.020359 -9.459311
58.548298 -74.712506 -12.74098
57.671948 -76.181557 -11.797821
57.524079 -76.294376 -12.857491
59.462845 -73.235348 -13.711624
59.610714 -73.122528 -12.651955
58.548298 -74.712506 -12.74098
55.389679 -77.209664 -20.626335
54.948346 -77.217491 -21.424942
56.141506 -77.108249 -18.891188
57.204099 -75.392284 -18.789421
57.769396 -75.19474 -16.869436
56.972606 -76.77399 -15.992009
60.998543 -70.196625 -16.679953
59.920477 -71.856434 -16.728306
60.763132 -70.278164 -17.692505
61.223273 -70.16853 -15.646276
60.998543 -70.196625 -16.679953
55.634985 -71.616803 -24.84189
55.078709 -73.473034 -24.180296
56.852929 -69.999661 -25.031326
55.634985 -71.616803 -24.84189
56.209456 -69.789154 -25.588985
59.152839 -64.658444 -26.738853
58.611817 -66.53902 -25.973242
57.968422 -66.291435 -26.544033
60.320503 -63.024403 -26.967645
59.152839 -64.658444 -26.738853
57.967354 -75.759933 -8.583163
58.964546 -74.368657 -8.48571
57.368038 -76.476688 -13.921146
57.524079 -76.294376 -12.857491
58.305009 -73.695217 -18.75777
57.204099 -75.392284 -18.789421
57.986698 -73.775978 -19.683858
59.386337 -72.008442 -18.696533
58.603738 -73.624748 -17.802096
58.305009 -73.695217 -18.75777
60.479934 -70.322479 -18.680357
59.386337 -72.008442 -18.696533
60.181206 -70.392948 -19.636032
60.763132 -70.278164 -17.692505
60.479934 -70.322479 -18.680357
55.572891 -75.458786 -22.114981
54.948346 -77.217491 -21.424942
55.674763 -73.615025 -23.56389
55.078709 -73.473034 -24.180296
56.234669 -73.734371 -22.898506
55.674763 -73.615025 -23.56389
56.838364 -71.946655 -23.618847
56.736492 -73.790417 -22.169937
55.572891 -75.458786 -22.114981
56.234669 -73.734371 -22.898506
60.130602 -68.744404 -22.284491
59.450039 -70.451145 -21.429825
59.013586 -70.431702 -22.257328
60.807234 -67.036716 -23.179445
60.130602 -68.744404 -22.284491
60.807234 -67.036716 -23.179445
60.317108 -66.966995 -23.963747
60.36815 -65.05753 -25.491781
59.792406 -66.873795 -24.685238
59.220489 -66.722294 -25.361519
60.36815 -65.05753 -25.491781
60.925972 -63.235506 -26.324585
61.011254 -71.656235 -8.309434
60.0019 -72.961167 -8.395999
61.987122 -70.280369 -9.280369
61.011254 -71.656235 -8.309434
61.92971 -70.166672 -10.346919
61.987122 -70.280369 -9.280369
61.92971 -70.166672 -10.346919
60.892753 -71.600365 -10.434136
57.893456 -75.9202 -9.656844
57.967354 -75.759933 -8.583163
57.787807 -76.006119 -10.722988
57.671948 -76.181557 -11.797821
58.801815 -74.513768 -10.615166
57.893456 -75.9202 -9.656844
57.787807 -76.006119 -10.722988
59.749752 -73.093773 -11.589992
59.8554 -73.007855 -10.523846
58.801815 -74.513768 -10.615166
59.749752 -73.093773 -11.589992
59.610714 -73.122528 -12.651955
55.795215 -77.18877 -19.790884
55.389679 -77.209664 -20.626335
56.480251 -75.493938 -20.550961
55.795215 -77.18877 -19.790884
56.141506 -77.108249 -18.891188
57.176014 -76.603004 -14.958592
56.972606 -76.77399 -15.992009
58.208405 -74.951641 -14.838095
57.368038 -76.476688 -13.921146
57.176014 -76.603004 -14.958592
58.850723 -73.507965 -16.808199
57.769396 -75.19474 -16.869436
58.603738 -73.624748 -17.802096
60.340575 -71.710133 -14.669176
59.462845 -73.235348 -13.711624
59.278159 -73.30011 -14.758202
60.340575 -71.710133 -14.669176
61.223273 -70.16853 -15.646276
3 17 5 18
3 20 19 5
3 21 9 22
3 23 22 7
3 21 22 23
3 25 24 9
3 1 11 4
3 1 12 11
3 1 26 28
3 28 27 12
3 26 27 28
3 30 29 6
3 2 31 33
3 31 13 32
3 31 32 33
3 2 34 36
3 36 35 13
3 34 35 36
3 3 37 39
3 37 14 38
3 37 38 39
3 3 40 42
3 42 41 14
3 40 41 42
3 0 43 44
3 46 45 8
3 47 15 48
3 49 16 50
3 51 50 10
3 49 50 51
3 53 52 16
3 54 4 55
3 5 56 58
3 56 4 57
3 56 57 58
3 5 1 4
3 5 6 1
3 59 6 60
3 61 60 5
3 59 60 61
3 63 62 6
3 64 2 65
3 66 3 67
3 7 8 0
3 9 8 7
3 9 68 70
3 70 69 8
3 68 69 70
3 9 71 73
3 71 10 72
3 71 72 73
3 74 10 75
3 76 75 9
3 74 75 76
3 78 77 10
3 79 0 80
3 4 81 82
3 11 83 85
3 85 84 4
3 83 84 85
3 11 86 88
3 86 0 87
3 86 87 88
3 11 7 0
3 12 7 11
3 12 89 91
3 91 90 7
3 89 90 91
3 12 92 93
3 95 94 12
3 6 96 98
3 98 97 1
3 96 97 98
3 100 99 6
3 13 101 102
3 13 103 104
3 13 105 106
3 108 107 13
3 109 2 110
3 14 111 112
3 14 113 115
3 113 2 114
3 113 114 115
3 14 116 118
3 118 117 2
3 116 117 118
3 120 119 14
3 8 121 123
3 123 122 0
3 121 122 123
3 125 124 8
3 15 126 127
3 15 128 130
3 128 3 129
3 128 129 130
3 10 131 133
3 131 15 132
3 131 132 133
3 16 15 10
3 16 3 15
3 16 134 136
3 136 135 3
3 134 135 136
3 138 137 16
