ply
format ascii 1.0
element vertex 664
property float x
property float y
property float z
element face 510
property list uchar int vertex_index
end_header
-1.385149 -32.798794 75.856186
2.425772 -13.549232 87.134392
4.965395 -31.416882 87.585426
-1.419146 -41.100468 82.19104
-1.300272 -42.494034 86.483322
0.05167 -46.411976 83.857628
4.289873 -17.123022 88.010063
10.033068 -22.745264 86.562561
8.962721 -27.820431 85.806221
5.538565 -26.174503 88.013237
-1.272547 -11.873024 79.58651
11.390308 -17.247711 86.126335
8.484232 -13.961405 86.576439
0.11776 -30.592783 70.763824
3.39744 -39.459644 89.596306
1.570154 -51.24876 85.108192
1.622076 -50.156853 80.764801
9.697006 -35.835228 85.070488
8.727449 -32.242161 84.991203
5.534178 -35.755024 87.510277
2.014812 -35.22963 89.116127
-1.624052 -25.469837 75.257912
-0.268726 -23.097549 70.442749
-0.977629 -9.194741 75.490417
-0.356415 -15.041361 70.70565
8.516542 -46.546989 89.201897
-2.118055 -39.019958 83.734833
-1.970209 -38.135902 81.437569
-1.490644 -41.860363 84.468704
5.479155 -18.777073 88.075188
8.366718 -21.611656 87.360374
7.711527 -24.413158 87.325577
6.128393 -23.293167 88.065132
-0.466644 -10.669547 83.043007
9.429066 -39.028198 86.901794
10.627853 -40.511208 87.070427
8.45997 -40.797413 88.176071
4.578653 -54.115047 88.422096
-0.37499 -35.128204 73.813545
-0.689178 -31.700279 73.304832
1.936117 -51.611496 86.835953
0.181921 -45.76292 81.499596
0.862574 -48.297455 82.356346
6.850166 -29.591379 86.69532
8.706999 -30.129425 85.325607
6.776217 -31.898872 86.38961
7.005733 -33.981144 86.258255
5.092426 -33.707691 87.462578
3.679726 -35.561081 88.466164
3.343334 -33.297142 88.415733
-0.996155 -24.283638 72.839493
-1.008831 -20.339914 72.841377
-0.311541 -10.875978 70.952774
-1.117239 -40.243649 79.727722
-0.410807 -44.978931 87.173195
0.175877 -46.937836 85.97049
-0.70409 -44.482162 85.244743
3.275599 -15.36404 87.689896
11.818371 -23.681984 85.488304
11.262527 -26.101665 84.960724
9.43012 -25.347668 86.274788
7.183455 -27.084213 87.057701
5.130508 -28.895035 87.809486
3.317192 -30.779594 88.484459
12.872063 -40.234451 85.897636
11.899948 -42.028015 86.949196
11.095837 -43.996239 87.695511
9.09342 -18.703861 87.072868
7.636255 -17.168209 87.363564
12.442095 -21.164728 85.743202
10.702526 -20.03986 86.536026
5.254108 -39.387711 88.918884
6.399061 -41.065872 89.135803
2.208426 -53.631165 85.329315
0.838026 -48.859406 84.587646
1.474682 -50.755539 83.058968
-0.15733 -12.258762 84.531952
6.344622 -15.459678 87.428413
10.595459 -37.367325 85.403702
10.682343 -30.525957 83.791702
10.799845 -32.46867 83.488297
6.277842 -37.5783 87.717285
4.32757 -37.577309 88.653954
2.558781 -37.46294 89.316086
1.005121 -37.208076 89.616859
1.784714 -32.732613 89.026855
-0.893875 -28.078827 72.985214
-0.116625 -26.927849 70.514069
-0.823837 -12.123141 73.146072
-0.345671 -19.125895 70.519691
10.45097 -46.141518 88.121628
8.099384 -48.855499 89.210632
-2.330385 -37.476358 83.419453
-2.318393 -37.936996 84.454609
-2.318393 -37.936996 84.454609
-2.068805 -39.409462 84.763615
6.160662 -19.530293 87.969548
5.090917 -20.38581 88.271916
6.485281 -21.788339 87.964519
7.247556 -22.452412 87.712753
7.604444 -20.947584 87.61214
5.415536 -22.643857 88.266887
6.485281 -21.788339 87.964519
-0.572746 -9.909219 82.212574
-0.111184 -8.614878 82.92313
7.868187 -40.014799 88.082748
8.944518 -39.912806 87.538932
8.352735 -39.130192 87.44561
5.082738 -55.252691 87.923119
4.475735 -55.268816 87.770508
-0.880069 -33.963499 74.834866
-0.721046 -35.647441 75.11491
-1.226125 -34.482737 76.13623
0.650598 -46.698629 80.709499
0.357888 -45.391267 80.235653
1.617906 -14.573726 87.01463
1.969211 -15.42224 87.427685
2.073061 -12.638063 86.746285
1.617906 -14.573726 87.01463
-1.222129 -18.93065 74.031464
-1.291104 -20.949112 74.0125
-1.268193 -40.672058 80.959381
-0.809312 -41.669314 80.159988
-0.960265 -42.097723 81.391648
-1.789608 -37.655983 80.206718
-2.155229 -36.534363 81.125725
-1.061991 -42.735283 87.320141
-1.473179 -41.469337 87.007995
-0.85554 -43.736483 86.828259
-0.617258 -43.977732 87.665077
-1.061991 -42.735283 87.320141
-1.071927 -42.472774 82.607849
-1.107676 -42.852722 83.746681
-1.454895 -41.480415 83.329872
-0.960265 -42.097723 81.391648
-1.071927 -42.472774 82.607849
3.339764 -18.040116 88.143253
3.871377 -18.830503 88.272015
3.782736 -16.243531 87.84998
2.832626 -17.160626 87.98317
3.339764 -18.040116 88.143253
4.554134 -27.102879 88.301567
4.350106 -28.463144 88.199692
5.334537 -27.534769 87.911361
-1.492088 -13.940223 79.595803
-1.265831 -12.578684 80.539872
-1.399105 -13.277537 78.543835
-1.492088 -13.940223 79.595803
12.276577 -39.520632 85.81942
13.439332 -39.413169 85.2359
10.826771 -42.194746 87.533279
11.263901 -41.269612 87.009811
10.190723 -41.436343 87.593895
10.424715 -43.178858 87.906437
11.497892 -43.012127 87.322353
10.826771 -42.194746 87.533279
10.623404 -16.475874 86.282978
9.47496 -17.203949 86.756245
10.241864 -17.975786 86.599602
13.656485 -20.41391 85.304821
13.364797 -21.622642 85.222797
11.046417 -18.643785 86.331181
11.886155 -19.304792 86.072331
12.230046 -17.908718 85.867485
0.726194 -31.801564 69.702228
0.277456 -32.333379 70.987232
0.561193 -30.035304 69.514359
0.726194 -31.801564 69.702228
3.939455 -40.370821 89.72765
4.867789 -40.334855 89.388939
4.325774 -39.423677 89.257595
1.77248 -52.218908 84.310012
2.091616 -53.410111 84.420574
1.88929 -52.439963 85.218753
1.808694 -51.39718 81.087834
1.734997 -51.696523 82.234917
1.548379 -50.456196 81.911884
1.928373 -51.080677 79.930722
1.808694 -51.39718 81.087834
0.488794 -11.098239 84.951618
0.051981 -13.083601 85.177918
0.245095 -10.234573 84.357247
0.488794 -11.098239 84.951618
10.146232 -36.601276 85.237095
11.275073 -36.572903 84.588009
10.825847 -35.806855 84.421402
9.036994 -36.666497 85.836765
9.48622 -37.432545 86.003372
10.146232 -36.601276 85.237095
9.909684 -28.107365 85.069535
11.059587 -27.247982 84.646786
10.112624 -26.961048 85.383472
8.893322 -33.191561 84.947227
9.92952 -33.304816 84.195774
9.763647 -32.355416 84.23975
6.541538 -35.795908 86.927872
7.277315 -34.908968 86.301861
6.269956 -34.868084 86.884266
5.90601 -36.666662 87.613781
6.913369 -36.707546 87.031376
6.541538 -35.795908 86.927872
1.82026 -31.356007 89.018589
2.550953 -31.756104 88.755657
2.586499 -30.379497 88.747391
-1.880327 -26.064574 76.45953
-1.826077 -24.128428 76.385388
-1.595701 -27.347876 75.366059
-1.880327 -26.064574 76.45953
-1.258964 -26.774332 74.121563
-1.230612 -28.652372 74.229709
-1.595701 -27.347876 75.366059
0.234245 -24.434083 69.266789
0.310296 -26.349233 69.302448
-0.192675 -25.012699 70.478409
-1.079237 -9.853559 76.532661
-0.891481 -7.749261 76.570812
-1.103918 -11.292303 75.413845
-1.079237 -9.853559 76.532661
-0.651393 -15.658748 71.831375
-0.885104 -14.199637 73.051586
-0.590126 -13.582251 71.925861
-0.351043 -17.083628 70.612671
-0.646021 -17.701014 71.738395
-0.651393 -15.658748 71.831375
7.044076 -41.883358 89.143901
6.07051 -42.040688 89.550392
8.786157 -45.460835 89.01899
7.81164 -45.647484 89.489201
9.483756 -46.344254 88.661763
9.753372 -45.258099 88.478855
8.786157 -45.460835 89.01899
7.925574 -50.059694 89.043442
7.241391 -49.037615 89.545944
-2.256462 -37.03433 82.270821
-2.044132 -38.57793 82.586201
-2.330385 -37.476358 83.419453
-2.155229 -36.534363 81.125725
-2.256462 -37.03433 82.270821
-1.659914 -41.1465 86.137859
-1.473179 -41.469337 87.007995
-1.7551 -40.829664 85.13055
-1.395458 -42.177199 85.476013
-1.659914 -41.1465 86.137859
-1.80435 -40.440161 84.101768
-1.7551 -40.829664 85.13055
-2.068805 -39.409462 84.763615
4.466018 -19.657528 88.304577
5.090917 -20.38581 88.271916
4.884514 -17.950048 88.042625
3.871377 -18.830503 88.272015
4.466018 -19.657528 88.304577
5.089242 -24.191527 88.342144
4.794328 -25.632196 88.316197
5.833479 -24.733835 88.039185
5.089242 -24.191527 88.342144
5.415536 -22.643857 88.266887
-0.86288 -11.976946 82.26812
-0.803478 -12.710337 83.151489
-0.86288 -11.976946 82.26812
-0.572746 -9.909219 82.212574
-0.975698 -10.510957 80.484326
-1.265831 -12.578684 80.539872
10.02846 -39.769703 86.98611
11.154472 -39.65901 86.405815
10.555079 -38.917505 86.321498
9.106782 -41.579445 88.146717
10.190723 -41.436343 87.593895
9.543912 -40.654311 87.623249
5.235224 -54.049896 88.482238
4.646411 -52.957874 88.93618
5.235224 -54.049896 88.482238
5.082738 -55.252691 87.923119
11.732152 -15.812129 85.731175
12.528525 -16.5775 85.584804
12.528525 -16.5775 85.584804
12.230046 -17.908718 85.867485
-0.165888 -36.740001 74.161568
-0.721046 -35.647441 75.11491
0.229811 -36.244493 72.835323
-0.165888 -36.740001 74.161568
0.031082 -34.60109 72.512092
0.229811 -36.244493 72.835323
-0.126012 -32.887127 72.257736
0.031082 -34.60109 72.512092
-0.532084 -33.414241 73.559189
-0.285709 -31.146531 72.034328
0.277456 -32.333379 70.987232
-0.126012 -32.887127 72.257736
2.245572 -40.410763 90.094299
3.072367 -40.433775 89.926083
2.570645 -39.436632 89.764522
1.767145 -50.594757 87.479519
2.261329 -51.718991 87.502502
1.506316 -50.452293 86.686043
1.767145 -50.594757 87.479519
1.323335 -50.270925 85.822163
1.753135 -51.430128 85.972072
1.506316 -50.452293 86.686043
0.990925 -47.965896 81.137875
0.522247 -47.030187 81.927971
0.650598 -46.698629 80.709499
1.370676 -48.895595 80.342102
1.242325 -49.227154 81.560574
0.990925 -47.965896 81.137875
1.798596 -49.81912 79.530388
1.370676 -48.895595 80.342102
7.880348 -13.00976 86.569382
8.928307 -12.317575 86.066494
10.464272 -35.024172 84.2818
10.825847 -35.806855 84.421402
-1.598715 -23.514074 75.220768
-1.826077 -24.128428 76.385388
-1.284766 -22.920974 74.011559
-1.310104 -24.876737 74.048703
-1.598715 -23.514074 75.220768
-1.002493 -22.311776 72.840435
-1.284766 -22.920974 74.011559
-1.291104 -20.949112 74.0125
-0.837709 -7.080505 75.561759
-0.891481 -7.749261 76.570812
-0.012135 -10.260793 69.864105
-0.267639 -8.769725 71.078945
0.001657 -12.344355 69.720616
-0.012135 -10.260793 69.864105
-0.02078 -14.427046 69.597054
-0.333978 -12.958669 70.829212
0.001657 -12.344355 69.720616
0.019321 -16.476191 69.474487
-0.02078 -14.427046 69.597054
7.60147 -46.738208 89.611317
7.81164 -45.647484 89.489201
6.896568 -45.838703 89.898621
-0.592523 -41.25268 78.873802
-0.809312 -41.669314 80.159988
-0.867949 -39.781334 78.437919
-0.592523 -41.25268 78.873802
-1.363123 -38.709857 79.351795
-1.543724 -39.189775 80.582645
-1.789608 -37.655983 80.206718
-0.867949 -39.781334 78.437919
-1.363123 -38.709857 79.351795
-1.664741 -33.339929 77.116424
-1.226125 -34.482737 76.13623
-0.118352 -45.1471 87.95287
-0.324803 -44.1459 88.444752
-0.617258 -43.977732 87.665077
0.084361 -46.147703 87.465576
0.376816 -46.315872 88.24525
-0.118352 -45.1471 87.95287
-0.117465 -45.958383 86.571843
0.377703 -47.127156 86.864224
0.084361 -46.147703 87.465576
-0.714398 -44.163622 84.134701
-1.097367 -43.171262 84.856724
-1.107676 -42.852722 83.746681
-0.336518 -45.128529 83.441143
-0.32621 -45.447069 84.551186
-0.714398 -44.163622 84.134701
-0.271393 -44.804001 82.262127
0.116795 -46.087448 82.678612
-0.336518 -45.128529 83.441143
-0.159732 -44.428949 81.045925
-0.271393 -44.804001 82.262127
0.357888 -45.391267 80.235653
-0.159732 -44.428949 81.045925
2.394125 -16.329644 87.705437
2.832626 -17.160626 87.98317
2.850685 -14.456636 87.412144
1.969211 -15.42224 87.427685
2.394125 -16.329644 87.705437
11.540449 -24.891824 85.224514
12.481385 -25.266093 84.568508
12.759307 -24.056252 84.832298
3.443448 -29.405424 88.537178
4.22385 -29.837314 88.146973
4.350106 -28.463144 88.199692
2.586499 -30.379497 88.747391
3.443448 -29.405424 88.537178
4.554134 -27.102879 88.301567
4.794328 -25.632196 88.316197
14.020156 -40.109806 85.306858
13.439332 -39.413169 85.2359
13.485824 -40.978023 85.809143
14.020156 -40.109806 85.306858
11.749958 -40.37283 86.484032
12.276577 -39.520632 85.81942
11.154472 -39.65901 86.405815
12.999766 -41.874806 86.334923
13.485824 -40.978023 85.809143
12.386005 -41.131233 86.423416
12.546897 -42.832688 86.694611
12.999766 -41.874806 86.334923
12.144842 -43.8168 87.067768
12.546897 -42.832688 86.694611
11.497892 -43.012127 87.322353
11.774017 -44.868488 87.284336
12.144842 -43.8168 87.067768
8.364838 -17.936035 87.218216
7.239212 -18.725861 87.613735
7.967795 -19.493687 87.468388
8.746378 -16.436123 86.901592
8.364838 -17.936035 87.218216
9.47496 -17.203949 86.756245
9.170367 -14.832721 86.50803
8.060244 -15.564807 86.970001
8.746378 -16.436123 86.901592
10.623404 -16.475874 86.282978
11.732152 -15.812129 85.731175
9.562427 -13.290793 86.03637
9.170367 -14.832721 86.50803
8.928307 -12.317575 86.066494
9.562427 -13.290793 86.03637
13.052936 -22.88127 85.095349
12.759307 -24.056252 84.832298
12.130233 -22.423356 85.615753
13.052936 -22.88127 85.095349
13.364797 -21.622642 85.222797
12.75594 -19.867227 85.675918
13.656485 -20.41391 85.304821
11.572311 -20.602294 86.139614
12.75594 -19.867227 85.675918
11.886155 -19.304792 86.072331
7.967795 -19.493687 87.468388
7.604444 -20.947584 87.61214
8.730069 -20.157758 87.216621
5.826584 -40.226792 89.027344
6.837732 -40.149029 88.562614
6.265256 -39.309948 88.454155
5.440265 -41.173935 89.497399
5.826584 -40.226792 89.027344
4.867789 -40.334855 89.388939
6.07051 -42.040688 89.550392
5.440265 -41.173935 89.497399
3.614382 -41.344952 90.057426
3.939455 -40.370821 89.72765
3.072367 -40.433775 89.926083
4.048794 -53.001264 88.736126
4.646411 -52.957874 88.93618
4.045507 -54.109083 88.128967
4.048794 -53.001264 88.736126
4.475735 -55.268816 87.770508
4.045507 -54.109083 88.128967
2.327434 -52.776094 86.813702
2.261329 -51.718991 87.502502
2.463588 -53.785929 86.060383
2.327434 -52.776094 86.813702
2.072271 -52.62133 86.082634
2.477432 -54.834835 85.262989
2.463588 -53.785929 86.060383
2.280964 -54.633259 84.487327
2.477432 -54.834835 85.262989
2.280964 -54.633259 84.487327
2.091616 -53.410111 84.420574
0.626196 -48.115463 86.253311
0.377703 -47.127156 86.864224
0.957271 -49.076248 85.56189
0.626196 -48.115463 86.253311
0.506951 -47.898621 85.279068
1.20409 -50.054083 84.847919
1.323335 -50.270925 85.822163
0.957271 -49.076248 85.56189
1.724744 -51.972297 83.2854
1.77248 -52.218908 84.310012
1.522418 -51.00215 84.08358
1.724744 -51.972297 83.2854
1.734997 -51.696523 82.234917
1.928373 -51.080677 79.930722
1.798596 -49.81912 79.530388
-0.531466 -14.264907 84.691124
0.051981 -13.083601 85.177918
-0.648821 -13.504945 83.895962
-0.531466 -14.264907 84.691124
-0.311987 -11.464154 83.78748
-0.803478 -12.710337 83.151489
-0.648821 -13.504945 83.895962
0.090438 -9.439965 83.612774
-0.311987 -11.464154 83.78748
0.245095 -10.234573 84.357247
-0.111184 -8.614878 82.92313
0.090438 -9.439965 83.612774
6.557705 -17.972641 87.719376
6.160662 -19.530293 87.969548
7.239212 -18.725861 87.613735
6.810543 -13.758897 86.995369
7.414427 -14.710541 87.002426
7.880348 -13.00976 86.569382
5.782528 -14.539452 87.358768
6.810543 -13.758897 86.995369
4.755154 -15.371123 87.649594
5.317248 -16.29135 87.719238
5.782528 -14.539452 87.358768
4.248017 -14.491632 87.48951
3.782736 -16.243531 87.84998
4.755154 -15.371123 87.649594
3.764143 -13.530698 87.325543
4.248017 -14.491632 87.48951
3.339229 -12.623295 87.047791
2.850685 -14.456636 87.412144
3.764143 -13.530698 87.325543
2.922725 -11.648167 86.792435
3.339229 -12.623295 87.047791
2.073061 -12.638063 86.746285
2.922725 -11.648167 86.792435
11.751543 -37.290909 84.799675
11.275073 -36.572903 84.588009
11.138275 -38.087069 85.572452
11.751543 -37.290909 84.799675
10.012263 -38.197761 86.152748
10.555079 -38.917505 86.321498
11.138275 -38.087069 85.572452
8.903024 -38.262982 86.752419
10.012263 -38.197761 86.152748
9.48622 -37.432545 86.003372
8.352735 -39.130192 87.44561
8.903024 -38.262982 86.752419
12.226083 -26.395176 84.204933
12.481385 -25.266093 84.568508
12.226083 -26.395176 84.204933
11.059587 -27.247982 84.646786
9.781823 -29.261862 84.829228
9.909684 -28.107365 85.069535
8.83486 -28.974928 85.565914
10.769495 -29.460128 84.062275
9.781823 -29.261862 84.829228
9.694671 -30.327691 84.558655
11.765515 -29.674645 83.256683
10.769495 -29.460128 84.062275
11.721385 -30.663978 82.988384
11.765515 -29.674645 83.256683
11.780136 -31.635334 82.836681
11.721385 -30.663978 82.988384
10.741094 -31.497314 83.64
11.888229 -32.535471 82.728936
11.780136 -31.635334 82.836681
11.015692 -33.340893 83.490704
11.888229 -32.535471 82.728936
11.015692 -33.340893 83.490704
9.92952 -33.304816 84.195774
9.378101 -34.988095 84.98687
10.464272 -35.024172 84.2818
8.032464 -34.061053 85.580754
8.893322 -33.191561 84.947227
7.866591 -33.111653 85.624729
8.032464 -34.061053 85.580754
7.277315 -34.908968 86.301861
8.622951 -35.83601 85.707977
9.378101 -34.988095 84.98687
9.036994 -36.666497 85.836765
8.622951 -35.83601 85.707977
7.327412 -37.538032 87.160164
6.913369 -36.707546 87.031376
6.777122 -38.405242 87.853355
7.327412 -37.538032 87.160164
5.765975 -38.483006 88.318084
6.265256 -39.309948 88.454155
6.777122 -38.405242 87.853355
2.151315 -38.43828 89.624413
2.570645 -39.436632 89.764522
2.978111 -38.461292 89.456196
1.374485 -38.310848 89.774799
2.151315 -38.43828 89.624413
1.781951 -37.335508 89.466473
0.667266 -38.214839 89.737579
1.374485 -38.310848 89.774799
1.113707 -32.370072 89.127552
1.82026 -31.356007 89.018589
1.17689 -33.737957 89.203232
1.113707 -32.370072 89.127552
1.29194 -34.986466 89.247868
1.899763 -33.981122 89.071491
1.17689 -33.737957 89.203232
0.787094 -35.975689 89.498233
1.509966 -36.218853 89.366493
1.29194 -34.986466 89.247868
0.351429 -37.00159 89.555038
0.787094 -35.975689 89.498233
0.667266 -38.214839 89.737579
0.351429 -37.00159 89.555038
-1.750658 -31.583229 76.898941
-1.664741 -33.339929 77.116424
-1.476249 -31.012355 75.665195
-1.750658 -31.583229 76.898941
-1.128264 -30.463097 74.389519
-1.037163 -32.249536 74.580509
-1.476249 -31.012355 75.665195
-0.791527 -29.889553 73.145023
-1.128264 -30.463097 74.389519
-1.230612 -28.652372 74.229709
0.444 -28.202837 69.389481
0.561193 -30.035304 69.514359
0.000567 -28.760316 70.638947
0.444 -28.202837 69.389481
0.310296 -26.349233 69.302448
-1.033637 -9.784344 79.581215
-0.975698 -10.510957 80.484326
-1.226696 -11.1927 78.580708
-1.033637 -9.784344 79.581215
-1.399105 -13.277537 78.543835
-1.226696 -11.1927 78.580708
-0.817451 -8.553964 74.425251
-0.837709 -7.080505 75.561759
-0.484407 -9.394583 72.15643
-0.267639 -8.769725 71.078945
-0.740556 -10.018165 73.253079
-0.484407 -9.394583 72.15643
-0.567689 -11.49956 72.049423
-0.900733 -10.658941 74.318244
-0.817451 -8.553964 74.425251
-0.740556 -10.018165 73.253079
-1.027022 -12.756504 74.241672
-1.103918 -11.292303 75.413845
-0.900733 -10.658941 74.318244
-1.027022 -12.756504 74.241672
-0.885104 -14.199637 73.051586
-0.977601 -18.308024 72.899238
-1.222129 -18.93065 74.031464
-0.677251 -19.732905 71.680534
-0.977601 -18.308024 72.899238
-0.646021 -17.701014 71.738395
0.024693 -18.518458 69.381507
-0.351043 -17.083628 70.612671
0.019321 -16.476191 69.474487
0.094431 -20.516396 69.307571
0.024693 -18.518458 69.381507
0.132904 -22.502223 69.2691
-0.307199 -21.111722 70.48122
0.094431 -20.516396 69.307571
0.234245 -24.434083 69.266789
0.132904 -22.502223 69.2691
7.429515 -40.931642 88.655937
7.868187 -40.014799 88.082748
6.837732 -40.149029 88.562614
8.07453 -41.749128 88.664035
7.429515 -40.931642 88.655937
7.044076 -41.883358 89.143901
9.106782 -41.579445 88.146717
8.07453 -41.749128 88.664035
10.075805 -44.18546 88.265796
10.424715 -43.178858 87.906437
10.773404 -45.068878 87.908569
10.075805 -44.18546 88.265796
9.753372 -45.258099 88.478855
11.451584 -45.941128 87.497394
11.774017 -44.868488 87.284336
10.773404 -45.068878 87.908569
7.392892 -47.892464 89.615685
7.241391 -49.037615 89.545944
8.307963 -47.701244 89.206265
7.60147 -46.738208 89.611317
7.392892 -47.892464 89.615685
8.80295 -49.863704 88.618904
7.925574 -50.059694 89.043442
9.01815 -48.65028 88.719265
8.80295 -49.863704 88.618904
9.226729 -47.496025 88.714898
8.307963 -47.701244 89.206265
9.01815 -48.65028 88.719265
10.193943 -47.29329 88.174763
9.483756 -46.344254 88.661763
9.226729 -47.496025 88.714898
11.152904 -47.079786 87.575504
10.193943 -47.29329 88.174763
11.451584 -45.941128 87.497394
11.152904 -47.079786 87.575504
3 93 92 26
3 94 26 95
3 96 29 97
3 98 32 99
3 100 99 30
3 98 99 100
3 102 101 32
3 104 103 33
3 105 36 106
3 107 106 34
3 105 106 107
3 109 108 37
3 0 110 112
3 110 38 111
3 110 111 112
3 0 39 38
3 114 113 41
3 1 115 116
3 1 117 118
3 2 45 43
3 2 47 45
3 2 49 47
3 119 51 120
3 3 121 123
3 121 53 122
3 121 122 123
3 125 124 27
3 4 126 127
3 4 128 130
3 128 54 129
3 128 129 130
3 4 56 54
3 3 131 133
3 133 132 28
3 131 132 133
3 3 134 135
3 6 136 137
3 6 138 140
3 138 57 139
3 138 139 140
3 7 60 58
3 9 61 31
3 9 62 61
3 9 141 143
3 143 142 62
3 141 142 143
3 10 144 145
3 10 146 147
3 148 64 149
3 150 65 151
3 152 151 35
3 150 151 152
3 153 66 154
3 155 154 65
3 153 154 155
3 11 156 158
3 158 157 67
3 156 157 158
3 159 69 160
3 11 161 163
3 161 70 162
3 161 162 163
3 11 67 70
3 13 164 165
3 13 166 167
3 14 168 170
3 170 169 71
3 168 169 170
3 15 73 40
3 15 171 173
3 173 172 73
3 171 172 173
3 5 74 55
3 16 75 42
3 16 174 176
3 176 175 75
3 174 175 176
3 16 177 178
3 179 76 180
3 182 181 76
3 12 77 68
3 17 183 185
3 183 78 184
3 183 184 185
3 17 186 188
3 188 187 78
3 186 187 188
3 8 189 191
3 191 190 59
3 189 190 191
3 18 79 44
3 18 80 79
3 18 192 194
3 194 193 80
3 192 193 194
3 19 195 197
3 197 196 46
3 195 196 197
3 19 198 200
3 198 81 199
3 198 199 200
3 19 82 81
3 20 83 48
3 20 84 83
3 201 85 202
3 203 202 63
3 201 202 203
3 21 204 205
3 21 206 207
3 21 208 210
3 208 86 209
3 208 209 210
3 22 87 50
3 22 211 213
3 213 212 87
3 211 212 213
3 23 214 215
3 23 216 217
3 24 88 52
3 24 218 220
3 220 219 88
3 218 219 220
3 24 221 223
3 221 89 222
3 221 222 223
3 225 224 72
3 25 226 227
3 25 228 230
3 228 90 229
3 228 229 230
3 231 91 232
3 26 27 3
3 233 27 234
3 235 234 26
3 233 234 235
3 237 236 27
3 238 4 239
3 240 28 241
3 242 241 4
3 240 241 242
3 26 243 245
3 243 28 244
3 243 244 245
3 26 3 28
3 29 246 247
3 29 248 250
3 248 6 249
3 248 249 250
3 30 31 7
3 32 31 30
3 32 9 31
3 32 251 253
3 253 252 9
3 251 252 253
3 255 254 32
3 33 256 257
3 259 258 33
3 260 10 261
3 34 262 264
3 262 35 263
3 262 263 264
3 36 35 34
3 36 265 267
3 267 266 35
3 265 266 267
3 37 268 269
3 271 270 37
3 273 272 11
3 274 11 275
3 38 276 277
3 38 278 279
3 38 280 281
3 39 282 284
3 284 283 38
3 282 283 284
3 39 285 287
3 285 13 286
3 285 286 287
3 290 289 14
3 288 289 290
3 291 40 292
3 293 40 294
3 295 15 296
3 297 296 40
3 295 296 297
3 41 42 5
3 298 42 299
3 300 299 41
3 298 299 300
3 301 16 302
3 303 302 42
3 301 302 303
3 305 304 16
3 307 306 12
3 308 17 309
3 43 44 8
3 45 44 43
3 45 18 44
3 45 46 18
3 47 46 45
3 47 19 46
3 47 48 19
3 49 48 47
3 49 20 48
3 310 21 311
3 312 50 313
3 314 313 21
3 312 313 314
3 51 315 317
3 315 50 316
3 315 316 317
3 51 22 50
3 318 23 319
3 320 52 321
3 322 52 323
3 324 24 325
3 326 325 52
3 324 325 326
3 328 327 24
3 329 25 330
3 329 330 331
3 53 332 333
3 53 334 335
3 27 53 3
3 336 53 337
3 338 337 27
3 336 337 338
3 340 339 53
3 341 0 342
3 54 343 345
3 343 344 345
3 54 346 348
3 346 347 348
3 54 349 351
3 349 55 350
3 349 350 351
3 56 55 54
3 56 5 55
3 28 56 4
3 352 56 353
3 354 353 28
3 352 353 354
3 355 5 356
3 357 356 56
3 355 356 357
3 358 41 359
3 360 359 5
3 358 359 360
3 361 41 362
3 364 363 41
3 57 365 366
3 57 367 369
3 367 1 368
3 367 368 369
3 58 370 372
3 370 59 371
3 370 371 372
3 60 59 58
3 60 8 59
3 31 60 7
3 61 60 31
3 61 8 60
3 61 43 8
3 62 43 61
3 62 2 43
3 62 63 2
3 373 63 374
3 375 374 62
3 373 374 375
3 377 376 63
3 379 378 9
3 64 380 381
3 64 382 383
3 35 384 386
3 384 64 385
3 384 385 386
3 65 64 35
3 65 387 389
3 389 388 64
3 387 388 389
3 65 390 391
3 66 392 394
3 394 393 65
3 392 393 394
3 66 395 396
3 67 397 399
3 397 68 398
3 397 398 399
3 400 68 401
3 402 401 67
3 400 401 402
3 403 12 404
3 405 404 68
3 403 404 405
3 407 406 11
3 408 12 409
3 411 410 12
3 412 58 413
3 69 414 416
3 414 58 415
3 414 415 416
3 69 7 58
3 417 69 418
3 70 419 421
3 419 69 420
3 419 420 421
3 70 7 69
3 70 30 7
3 67 30 70
3 67 422 424
3 424 423 30
3 422 423 424
3 71 425 427
3 425 72 426
3 425 426 427
3 428 72 429
3 430 429 71
3 428 429 430
3 432 431 72
3 435 434 14
3 433 434 435
3 436 37 437
3 438 37 439
3 441 440 37
3 40 442 443
3 73 444 446
3 446 445 40
3 444 445 446
3 73 447 448
3 73 449 450
3 452 451 73
3 55 453 454
3 74 455 457
3 457 456 55
3 455 456 457
3 74 458 460
3 458 15 459
3 458 459 460
3 42 74 5
3 75 74 42
3 75 15 74
3 75 461 463
3 463 462 15
3 461 462 463
3 465 464 75
3 467 466 16
3 76 468 469
3 76 470 471
3 76 472 474
3 472 33 473
3 472 473 474
3 475 33 476
3 477 476 76
3 475 476 477
3 479 478 33
3 68 480 482
3 480 29 481
3 480 481 482
3 77 29 68
3 77 6 29
3 483 77 484
3 485 484 12
3 483 484 485
3 486 77 487
3 488 6 489
3 490 489 77
3 488 489 490
3 491 57 492
3 493 492 6
3 491 492 493
3 494 57 495
3 496 1 497
3 498 497 57
3 496 497 498
3 499 1 500
3 502 501 1
3 78 503 504
3 78 505 506
3 78 507 509
3 507 34 508
3 507 508 509
3 510 34 511
3 512 511 78
3 510 511 512
3 514 513 34
3 59 515 516
3 518 517 59
3 44 519 521
3 521 520 8
3 519 520 521
3 79 522 524
3 524 523 44
3 522 523 524
3 79 525 526
3 79 527 528
3 80 529 531
3 531 530 79
3 529 530 531
3 80 532 533
3 80 534 535
3 537 536 80
3 538 17 539
3 46 540 542
3 542 541 18
3 540 541 542
3 544 543 46
3 545 17 546
3 548 547 17
3 81 549 550
3 81 551 552
3 81 553 555
3 553 71 554
3 553 554 555
3 82 71 81
3 82 14 71
3 48 82 19
3 83 82 48
3 83 14 82
3 83 556 558
3 558 557 14
3 556 557 558
3 84 559 561
3 561 560 83
3 559 560 561
3 84 562 563
3 63 49 2
3 85 49 63
3 85 20 49
3 564 85 565
3 566 85 567
3 568 20 569
3 570 569 85
3 568 569 570
3 571 84 572
3 573 572 20
3 571 572 573
3 574 84 575
3 577 576 84
3 578 0 579
3 580 0 581
3 582 39 583
3 584 583 0
3 582 583 584
3 86 585 587
3 585 39 586
3 585 586 587
3 86 13 39
3 50 86 21
3 87 86 50
3 87 13 86
3 87 588 590
3 590 589 13
3 588 589 590
3 592 591 87
3 593 10 594
3 595 10 596
3 598 597 10
3 599 23 600
3 52 601 602
3 88 603 605
3 605 604 52
3 603 604 605
3 88 606 608
3 606 23 607
3 606 607 608
3 88 609 611
3 611 610 23
3 609 610 611
3 613 612 88
3 614 51 615
3 89 616 618
3 616 51 617
3 616 617 618
3 89 22 51
3 619 89 620
3 621 620 24
3 619 620 621
3 622 89 623
3 624 22 625
3 626 625 89
3 624 625 626
3 628 627 22
3 72 629 631
3 629 36 630
3 629 630 631
3 632 36 633
3 634 633 72
3 632 633 634
3 636 635 36
3 637 66 638
3 90 639 641
3 639 66 640
3 639 640 641
3 90 642 644
3 644 643 66
3 642 643 644
3 91 645 646
3 91 647 649
3 647 25 648
3 647 648 649
3 650 91 651
3 652 91 653
3 654 25 655
3 656 655 91
3 654 655 656
3 657 90 658
3 659 658 25
3 657 658 659
3 660 90 661
3 663 662 90
