ply
format ascii 1.0
element vertex 108
property float x
property float y
property float z
element face 81
property list uchar int vertex_index
end_header
40.496468 -108.090157 -15.820734
42.833805 -102.994713 -18.506525
43.551384 -96.682106 -21.861994
44.587894 -93.012924 -22.593428
37.684788 -111.195847 -16.365778
38.989189 -108.958412 -17.814337
41.702961 -105.721817 -17.249205
40.214897 -106.353455 -19.064604
41.374252 -103.407768 -20.135889
43.01059 -92.728493 -23.415964
42.993271 -104.84903 -15.106447
43.913799 -99.947495 -19.608706
42.48251 -100.165909 -21.056555
43.272443 -94.772304 -22.693337
44.069639 -94.847515 -22.227711
42.754188 -96.606896 -22.327619
38.137806 -109.258388 -18.626713
37.48661 -110.497833 -17.998539
38.75066 -107.95591 -19.251846
39.602043 -107.655934 -18.43947
38.137806 -109.258388 -18.626713
39.372158 -106.54089 -19.778021
38.75066 -107.95591 -19.251846
44.811142 -89.004635 -23.668272
44.303574 -90.969139 -23.356006
43.518158 -90.763989 -23.728229
39.845697 -109.087071 -15.017284
38.439858 -110.639916 -15.289806
39.090628 -109.643002 -16.093256
41.155189 -107.535515 -14.676674
39.845697 -109.087071 -15.017284
41.74487 -106.469594 -15.46359
42.403591 -105.914952 -14.31953
41.155189 -107.535515 -14.676674
43.461546 -102.672012 -17.518032
42.896124 -104.035564 -16.889372
42.268383 -104.358265 -17.877865
43.985571 -101.253017 -18.157231
43.461546 -102.672012 -17.518032
43.373802 -101.471104 -19.057616
44.525568 -99.729409 -18.708321
43.985571 -101.253017 -18.157231
41.100759 -101.874073 -21.215474
41.928381 -101.786839 -20.596222
40.54663 -103.495002 -20.75514
41.671511 -100.166088 -21.592031
41.100759 -101.874073 -21.215474
44.77579 -94.898838 -21.661354
44.258087 -96.658165 -21.221874
45.294044 -93.064247 -22.027071
44.77579 -94.898838 -21.661354
44.069639 -94.847515 -22.227711
45.806596 -91.231434 -22.440599
46.512747 -91.282757 -21.874243
45.294044 -93.064247 -22.027071
36.83441 -111.616551 -17.274259
36.152971 -112.671963 -16.531526
38.336989 -110.077129 -17.090058
36.83441 -111.616551 -17.274259
37.48661 -110.497833 -17.998539
39.951836 -105.068047 -20.313663
40.794574 -104.880612 -19.600246
39.372158 -106.54089 -19.778021
40.54663 -103.495002 -20.75514
39.951836 -105.068047 -20.313663
41.620778 -94.457234 -23.409733
42.483791 -94.630089 -23.104605
42.166764 -92.496082 -23.691527
41.620778 -94.457234 -23.409733
43.518158 -90.763989 -23.728229
42.166764 -92.496082 -23.691527
43.799242 -92.870709 -23.004696
43.272443 -94.772304 -22.693337
42.483791 -94.630089 -23.104605
45.092226 -91.111355 -22.944738
43.799242 -92.870709 -23.004696
44.303574 -90.969139 -23.356006
45.806596 -91.231434 -22.440599
45.092226 -91.111355 -22.944738
36.99132 -112.128685 -15.53687
36.152971 -112.671963 -16.531526
36.99132 -112.128685 -15.53687
38.439858 -110.639916 -15.289806
43.547522 -104.304283 -13.91197
42.957842 -105.370205 -13.125053
42.403591 -105.914952 -14.31953
44.07358 -103.167378 -14.691144
43.547522 -104.304283 -13.91197
43.541279 -103.599171 -15.817993
42.348116 -105.285424 -16.177826
42.896124 -104.035564 -16.889372
44.07358 -103.167378 -14.691144
43.541279 -103.599171 -15.817993
45.042198 -98.166375 -19.283237
44.525568 -99.729409 -18.708321
44.439295 -98.29086 -20.09523
45.042198 -98.166375 -19.283237
43.72365 -98.400067 -20.819155
44.439295 -98.29086 -20.09523
43.198155 -100.056702 -20.332631
43.016947 -98.424008 -21.459274
44.258087 -96.658165 -21.221874
43.72365 -98.400067 -20.819155
42.205948 -98.424187 -21.994751
43.016947 -98.424008 -21.459274
41.671511 -100.166088 -21.592031
42.754188 -96.606896 -22.327619
42.205948 -98.424187 -21.994751
3 13 3 14
3 15 14 2
3 13 14 15
3 16 5 17
3 18 7 19
3 20 19 5
3 18 19 20
3 22 21 7
3 25 24 9
3 23 24 25
3 0 26 28
3 28 27 4
3 26 27 28
3 0 29 30
3 0 31 33
3 31 10 32
3 31 32 33
3 1 34 36
3 36 35 6
3 34 35 36
3 1 37 38
3 1 39 41
3 39 11 40
3 39 40 41
3 42 12 43
3 44 43 8
3 42 43 44
3 46 45 12
3 2 47 48
3 3 49 51
3 51 50 2
3 49 50 51
3 3 52 54
3 52 53 54
3 55 4 56
3 5 57 59
3 57 4 58
3 57 58 59
3 5 0 4
3 5 6 0
3 7 6 5
3 7 1 6
3 7 8 1
3 60 8 61
3 62 61 7
3 60 61 62
3 64 63 8
3 65 9 66
3 67 9 68
3 70 69 9
3 9 71 73
3 71 3 72
3 71 72 73
3 74 3 75
3 76 75 9
3 74 75 76
3 78 77 3
3 4 79 80
3 82 81 4
3 10 83 85
3 83 84 85
3 10 86 87
3 6 10 0
3 88 10 89
3 90 89 6
3 88 89 90
3 92 91 10
3 11 93 94
3 11 95 96
3 8 11 1
3 12 11 8
3 12 97 99
3 99 98 11
3 97 98 99
3 12 100 102
3 100 2 101
3 100 101 102
3 103 2 104
3 105 104 12
3 103 104 105
3 107 106 2
