ply
format ascii 1.0
element vertex 496
property float x
property float y
property float z
element face 463
property list uchar int vertex_index
end_header
1.210854 64.257591 35.340961
4.48394 56.391495 58.548798
4.478069 41.241253 68.881798
10.408382 86.19754 16.409613
5.32987 69.680275 45.587452
13.273457 68.848518 40.224213
1.943775 53.061653 60.15921
2.081549 60.551697 54.199158
2.451483 67.417542 47.580414
4.758841 63.371872 52.339233
11.058367 38.202988 67.907478
12.236877 63.711327 46.323647
1.808317 57.815788 35.454044
7.800879 88.162239 10.338911
1.975941 45.21244 65.369888
4.429745 48.94046 64.077377
1.053059 70.282173 35.09396
11.655838 79.130829 29.269833
8.844297 83.519165 23.793076
13.21949 82.298882 22.242203
14.898492 84.368851 15.198197
0.554888 64.498886 42.085846
1.203768 69.757935 41.682022
3.084658 73.449783 40.455139
6.224211 75.184128 38.480881
7.641748 36.491383 71.046577
7.648455 43.891064 66.587784
7.658613 51.11702 61.498322
7.829826 57.990852 55.773315
8.288065 64.341766 49.52597
9.101221 70.044647 42.943485
10.252825 75.005882 36.175659
14.577927 73.280907 33.997429
3.089418 54.934952 59.515739
1.986582 56.86834 57.268776
3.1605 58.632256 56.549538
3.290291 62.193184 53.412384
4.588055 59.954422 55.522461
1.486536 61.056374 35.39299
1.703568 63.686378 32.047852
3.15164 39.391495 69.525299
2.023054 41.227489 67.682915
3.115299 43.336426 67.304329
3.080988 47.257599 64.896461
4.450037 45.109268 66.569313
13.861509 78.17115 28.380627
12.421621 80.843376 25.767639
14.633566 79.749878 24.980129
0.741608 67.2864 41.976089
0.957079 66.641609 45.188755
3.753357 68.794189 46.696068
2.734077 70.546715 44.069736
4.094982 71.791504 43.161224
4.511806 74.568703 39.540691
5.73698 72.538101 42.067032
11.08338 41.669918 65.622528
9.364826 41.107689 67.377907
9.36834 44.668171 65.008522
7.64278 47.536186 64.124657
8.017097 61.240608 52.703758
12.713675 66.360771 43.28627
10.657347 66.987709 44.763134
11.168444 69.611061 41.557682
9.639132 72.623512 39.577545
11.759247 72.055405 38.320633
12.414909 74.307068 35.049664
13.900877 71.160324 37.132111
6.645195 88.338264 7.293608
1.453241 65.569328 48.206039
2.23502 64.078056 50.963875
3.486149 65.5886 50.120918
5.004417 66.620178 49.019653
14.25176 62.955437 44.789757
14.774542 65.470032 41.904686
11.207937 87.112259 12.760219
9.064478 87.441376 13.387027
9.80127 88.240845 9.718894
1.944269 49.165863 62.861267
3.067148 51.133034 62.299896
4.435669 52.71051 61.403206
1.043821 67.357948 35.256653
1.456352 66.860512 31.894958
9.478746 79.697662 30.21278
8.107254 81.788177 27.492956
10.217451 81.543205 26.611383
10.99551 83.139061 22.993919
11.802896 84.467331 19.373482
15.435945 81.069626 21.550179
14.045637 83.479141 18.710741
12.630701 85.510345 15.768923
13.471842 86.254303 12.204294
0.990707 61.408211 38.692047
0.801617 64.542786 38.709137
0.784437 67.515022 38.64061
1.6861 68.81559 44.750183
1.978855 71.833466 41.176384
6.786898 77.611862 34.847549
6.009651 38.950165 70.119102
9.349268 37.512413 69.60569
7.655149 40.203815 68.89241
5.997448 42.747475 67.892151
5.979113 46.514709 65.498856
5.974955 50.231033 62.933182
6.003792 53.871338 60.193588
7.715212 54.609543 58.711006
6.082407 57.409424 57.285454
6.225077 60.820129 54.221771
6.443184 64.081299 51.022308
6.744596 67.174599 47.710915
8.649172 67.280411 46.265045
7.133026 70.08548 44.31234
7.607536 72.80246 40.848877
8.162836 75.316193 37.337715
8.790159 77.617882 33.790085
10.929375 77.179619 32.739887
13.119814 76.351044 31.738008
6.86178 83.388702 24.614273
15.330299 78.31784 26.268749
14.247537 78.960514 26.680378
14.94427 77.528476 27.968998
0.859998 64.969978 46.878348
0.743032 65.366394 45.293211
10.236635 44.880774 64.107704
10.22586 43.169044 65.315525
11.094155 43.381647 64.414707
9.374562 46.421713 63.749565
10.236635 44.880774 64.107704
9.363255 86.276981 16.75668
10.012186 85.595996 18.251587
5.411537 87.572162 6.107633
5.924373 87.758754 7.617214
6.132359 88.151672 5.784027
1.518765 53.881881 58.914608
1.509548 51.93806 60.31604
1.620678 59.516437 54.440911
1.573195 57.674759 55.975719
2.034066 58.710019 55.733967
1.680057 61.333355 52.861046
1.620678 59.516437 54.440911
2.158284 62.314876 52.581516
1.756793 63.096535 51.243404
1.680057 61.333355 52.861046
15.254535 62.480133 44.094509
15.012967 61.215809 45.450657
15.515925 63.737431 42.651973
14.513151 64.212735 43.347222
15.254535 62.480133 44.094509
15.793204 64.927933 41.287109
15.515925 63.737431 42.651973
2.033107 57.523376 33.946657
1.965278 56.200321 35.504814
10.902932 87.983749 9.443202
10.504603 87.676552 11.239556
11.606265 87.419456 10.963864
1.560133 44.030956 65.430774
1.58369 42.03848 66.587288
1.999497 43.219965 66.526401
1.536103 46.032944 64.226028
1.560133 44.030956 65.430774
1.960105 47.189152 64.115578
1.520268 48.009655 62.971718
1.536103 46.032944 64.226028
1.184918 70.102795 33.405053
1.180299 68.640682 33.486399
1.04844 68.82006 35.175307
16.516011 80.305431 21.236286
16.11432 79.704479 22.902584
14.472064 83.923996 16.954469
15.159524 82.797012 18.412924
15.585952 83.241867 16.656652
0.895394 59.863659 40.310875
1.140402 59.797176 38.663826
0.573994 62.990429 42.070019
0.460513 62.872165 43.748226
0.678253 64.520836 40.397492
0.697358 63.012379 40.381664
0.573994 62.990429 42.070019
1.1021 69.999188 40.060883
0.87102 68.76342 40.207916
0.972688 68.522167 41.829056
1.353677 71.195118 39.87537
1.1021 69.999188 40.060883
2.708553 74.030857 38.981423
2.155652 73.222699 39.342045
2.531757 72.641625 40.815762
3.294039 74.784329 38.607945
2.708553 74.030857 38.981423
5.613257 76.151921 37.169096
4.757054 75.844208 37.699001
5.368009 74.876416 39.010786
6.505555 76.397995 36.664215
5.8946 77.365788 35.35243
5.613257 76.151921 37.169096
6.818224 35.814112 71.61663
7.614491 34.627518 72.052238
6.825699 37.720774 70.58284
6.002176 37.043503 71.152893
6.818224 35.814112 71.61663
10.203817 37.8577 68.756584
10.179436 36.10969 69.837829
11.033986 36.454977 68.988723
7.772519 56.300197 57.24216
8.614441 54.776134 57.862667
8.671748 56.466789 56.393822
11.236543 63.954483 47.127079
12.044375 62.312046 47.827191
14.933609 74.237751 32.402483
14.204552 75.772819 31.272773
13.848871 74.815976 32.867718
1.829917 67.647628 28.496592
1.696575 66.468204 30.257171
1.589694 68.039936 30.134378
7.467646 87.673985 12.199793
8.099445 87.313553 13.723851
8.432678 87.801807 11.862969
1.738241 60.758934 33.805225
1.899131 59.138641 33.835752
1.647426 59.436081 35.423517
1.846757 62.073936 32.132656
1.738241 60.758934 33.805225
1.595052 62.371376 33.720421
1.943285 63.280204 30.467909
1.846757 62.073936 32.132656
2.587347 40.309492 68.604107
2.044952 39.228513 68.741318
2.609246 38.310516 69.66251
1.205933 71.540706 33.280417
1.179026 71.613617 34.951752
16.025702 83.621964 14.952412
15.585952 83.241867 16.656652
16.465888 83.917301 13.220377
15.338679 84.664188 13.466162
16.025702 83.621964 14.952412
0.541937 64.295032 43.741756
0.460513 62.872165 43.748226
0.635297 65.688789 43.686878
0.648248 65.892643 42.030968
0.541937 64.295032 43.741756
0.849344 66.964005 43.582422
0.635297 65.688789 43.686878
0.743032 65.366394 45.293211
8.471266 35.193169 71.373657
7.614491 34.627518 72.052238
8.511782 47.855721 63.307632
8.50556 46.102179 64.566589
9.374562 46.421713 63.749565
8.519699 49.646137 61.994465
7.650697 49.326603 62.81149
8.511782 47.855721 63.307632
8.750357 58.076892 54.926754
8.671748 56.466789 56.393822
8.843993 59.701771 53.391976
7.923462 59.61573 54.238536
8.750357 58.076892 54.926754
8.962823 61.246414 51.873795
8.843993 59.701771 53.391976
9.098308 62.796993 50.2849
8.152581 62.791187 51.114864
8.962823 61.246414 51.873795
8.211161 84.259861 22.322212
9.230144 84.256809 21.943319
6.367946 87.89952 9.145243
6.945787 87.811508 10.667894
7.223037 88.250251 8.816259
5.647124 87.320011 9.468849
6.367946 87.89952 9.145243
5.924373 87.758754 7.617214
3.16074 37.414282 70.543446
2.609246 38.310516 69.66251
3.822643 38.372969 70.272564
3.16074 37.414282 70.543446
4.485858 39.297848 69.950814
3.814855 40.316374 69.203549
3.822643 38.372969 70.272564
1.540169 55.785225 57.469391
1.518765 53.881881 58.914608
1.965178 54.964996 58.713993
1.540169 55.785225 57.469391
1.573195 57.674759 55.975719
1.365903 63.84217 49.864486
1.108079 64.433837 48.386989
1.84413 64.823692 49.584957
1.365903 63.84217 49.864486
1.756793 63.096535 51.243404
11.864467 36.708061 68.061367
11.033986 36.454977 68.988723
11.894443 38.392899 66.957271
11.864467 36.708061 68.061367
12.700543 36.897972 67.11116
11.906949 40.126363 65.814796
11.070874 39.936453 66.765003
11.894443 38.392899 66.957271
11.929652 41.793743 64.655522
11.906949 40.126363 65.814796
11.940427 43.505472 63.4477
11.094155 43.381647 64.414707
11.929652 41.793743 64.655522
13.025054 62.002945 46.990704
12.044375 62.312046 47.827191
14.032496 61.625 46.223759
14.793702 59.885372 46.884659
15.012967 61.215809 45.450657
13.244319 63.333382 45.556702
13.025054 62.002945 46.990704
14.032496 61.625 46.223759
15.071079 66.647164 40.450249
14.320536 68.336407 39.610012
14.024 67.159275 41.064449
15.071079 66.647164 40.450249
15.793204 64.927933 41.287109
2.033107 57.523376 33.946657
1.899131 59.138641 33.835752
10.160424 88.492645 7.919289
10.902932 87.983749 9.443202
11.262085 88.23555 7.643597
9.120902 88.550713 8.196974
10.160424 88.492645 7.919289
8.120706 88.511409 8.506983
8.801075 88.201542 10.028903
9.120902 88.550713 8.196974
7.542864 88.599422 6.984331
7.223037 88.250251 8.816259
8.120706 88.511409 8.506983
6.90186 88.643505 5.473191
7.542864 88.599422 6.984331
6.132359 88.151672 5.784027
6.90186 88.643505 5.473191
1.613062 40.026566 67.690002
1.634961 38.02759 68.748406
2.044952 39.228513 68.741318
1.613062 40.026566 67.690002
1.58369 42.03848 66.587288
1.509795 49.990166 61.667068
1.520268 48.009655 62.971718
1.944022 51.113758 61.510238
1.509548 51.93806 60.31604
1.509795 49.990166 61.667068
1.386564 68.391964 31.805551
1.250087 67.10923 33.575806
1.180299 68.640682 33.486399
1.589694 68.039936 30.134378
1.386564 68.391964 31.805551
1.184918 70.102795 33.405053
1.205933 71.540706 33.280417
8.793 80.742919 28.852868
7.762486 80.801891 29.337083
8.448232 79.756633 30.696995
10.30575 84.066757 21.54374
9.230144 84.256809 21.943319
9.919904 83.329113 23.393498
10.709443 84.730892 19.733522
10.30575 84.066757 21.54374
11.399203 83.803196 21.183701
11.105639 85.332436 17.891548
10.012186 85.595996 18.251587
10.709443 84.730892 19.733522
15.71313 79.044605 24.617559
15.330299 78.31784 26.268749
15.034755 80.409752 23.265154
15.71313 79.044605 24.617559
16.11432 79.704479 22.902584
15.854678 81.592254 19.832643
16.516011 80.305431 21.236286
14.740791 82.274383 20.13046
15.854678 81.592254 19.832643
15.159524 82.797012 18.412924
12.738218 86.990478 10.685902
11.606265 87.419456 10.963864
12.339889 86.683281 12.482257
14.625353 85.606914 11.96921
14.185167 85.311577 13.701246
15.338679 84.664188 13.466162
13.897828 86.474033 10.455459
14.625353 85.606914 11.96921
12.738218 86.990478 10.685902
13.897828 86.474033 10.455459
1.725253 56.377575 37.016117
1.965278 56.200321 35.504814
1.549208 58.000965 37.044825
1.725253 56.377575 37.016117
1.466143 56.562752 38.606898
1.388317 59.621258 37.014297
1.647426 59.436081 35.423517
1.549208 58.000965 37.044825
1.238622 61.232292 37.042518
1.388317 59.621258 37.014297
1.140402 59.797176 38.663826
0.791903 61.445092 40.37312
0.895394 59.863659 40.310875
0.896162 62.975499 38.700592
0.791903 61.445092 40.37312
0.697358 63.012379 40.381664
0.892435 68.877731 38.540177
0.763023 67.400711 40.30835
0.87102 68.76342 40.207916
1.026746 70.261307 36.766852
0.918748 68.898597 36.867285
0.892435 68.877731 38.540177
1.179026 71.613617 34.951752
1.026746 70.261307 36.766852
1.20516 66.105469 46.697397
0.859998 64.969978 46.878348
1.108079 64.433837 48.386989
1.741221 72.232883 39.622551
1.353677 71.195118 39.87537
1.591311 70.795701 41.429203
1.741221 72.232883 39.622551
2.155652 73.222699 39.342045
4.007613 75.343789 38.150721
3.294039 74.784329 38.607945
3.798232 74.009243 39.997915
4.007613 75.343789 38.150721
4.757054 75.844208 37.699001
6.174676 78.526851 33.4893
5.8946 77.365788 35.35243
7.102308 78.713734 33.01438
6.174676 78.526851 33.4893
5.251649 38.152304 70.569466
6.002176 37.043503 71.152893
5.24386 40.095709 69.50045
4.485858 39.297848 69.950814
5.251649 38.152304 70.569466
9.325026 35.703684 70.653213
10.155195 34.300961 70.885353
10.179436 36.10969 69.837829
8.495508 37.001898 70.326133
8.471266 35.193169 71.373657
9.325026 35.703684 70.653213
8.540681 51.362125 60.660816
8.519699 49.646137 61.994465
8.568981 53.108387 59.267158
8.614441 54.776134 57.862667
7.686913 52.863281 60.104664
8.540681 51.362125 60.660816
8.568981 53.108387 59.267158
9.262137 64.269702 48.72824
9.098308 62.796993 50.2849
10.446779 65.592674 46.346823
11.236543 63.954483 47.127079
11.447112 65.349518 45.543391
9.442691 65.739025 47.097778
10.446779 65.592674 46.346823
9.65326 67.13406 45.514089
8.468618 65.811089 47.895508
9.262137 64.269702 48.72824
9.442691 65.739025 47.097778
8.103939 78.716744 32.485647
7.102308 78.713734 33.01438
7.788528 77.614872 34.318817
9.134452 78.657772 32.001432
8.448232 79.756633 30.696995
8.103939 78.716744 32.485647
14.575399 76.682873 29.594082
13.490661 77.261097 30.059317
14.204552 75.772819 31.272773
14.94427 77.528476 27.968998
14.575399 76.682873 29.594082
14.634246 69.49231 38.063961
13.587167 70.004421 38.678162
14.320536 68.336407 39.610012
14.956527 70.58184 36.589325
14.634246 69.49231 38.063961
15.295052 71.642132 35.021984
14.239402 72.220616 35.56477
14.956527 70.58184 36.589325
15.634102 72.636887 33.517483
15.295052 71.642132 35.021984
14.933609 74.237751 32.402483
15.634102 72.636887 33.517483
1.820183 64.881137 30.333619
1.57996 65.273445 31.971405
1.696575 66.468204 30.257171
2.0599 64.474964 28.753675
1.943285 63.280204 30.467909
1.820183 64.881137 30.333619
7.146397 81.660587 27.935791
7.762486 80.801891 29.337083
6.523661 82.460849 26.49645
7.146397 81.660587 27.935791
7.484517 82.588439 26.053615
6.000271 83.054176 25.017094
6.523661 82.460849 26.49645
7.219902 84.194629 22.73281
7.853039 83.453934 24.203674
8.211161 84.259861 22.322212
6.322874 83.920616 23.114804
7.219902 84.194629 22.73281
6.000271 83.054176 25.017094
6.322874 83.920616 23.114804
8.691302 86.898899 15.245387
9.363255 86.276981 16.75668
9.73643 86.819458 14.89832
8.691302 86.898899 15.245387
8.099445 87.313553 13.723851
7.467646 87.673985 12.199793
6.945787 87.811508 10.667894
3 1 35 33
3 1 37 35
3 0 39 38
3 2 42 40
3 2 44 42
3 117 47 118
3 119 118 45
3 117 118 119
3 120 49 121
3 4 52 50
3 4 54 52
3 122 57 123
3 124 123 55
3 122 123 124
3 126 125 57
3 5 62 60
3 5 64 62
3 5 66 64
3 3 127 128
3 131 130 67
3 129 130 131
3 6 132 133
3 7 134 136
3 136 135 34
3 134 135 136
3 7 137 138
3 7 139 141
3 139 69 140
3 139 140 141
3 9 70 36
3 9 71 70
3 142 72 143
3 144 73 145
3 146 145 72
3 144 145 146
3 148 147 73
3 12 149 150
3 151 76 152
3 153 152 74
3 151 152 153
3 14 154 156
3 156 155 41
3 154 155 156
3 14 157 158
3 14 159 161
3 159 77 160
3 159 160 161
3 15 78 43
3 15 79 78
3 16 162 164
3 164 163 80
3 162 163 164
3 17 84 82
3 19 85 46
3 19 86 85
3 165 87 166
3 20 167 169
3 167 88 168
3 167 168 169
3 20 89 88
3 20 90 89
3 170 91 171
3 21 172 173
3 21 174 176
3 174 92 175
3 174 175 176
3 21 93 92
3 22 177 179
3 179 178 48
3 177 178 179
3 22 180 181
3 8 94 68
3 23 95 51
3 23 182 184
3 184 183 95
3 182 183 184
3 23 185 186
3 24 187 189
3 189 188 53
3 187 188 189
3 24 190 192
3 190 96 191
3 190 191 192
3 25 193 194
3 25 195 197
3 195 97 196
3 195 196 197
3 10 198 200
3 198 98 199
3 198 199 200
3 26 99 56
3 26 100 99
3 26 101 100
3 27 102 58
3 27 103 102
3 28 201 203
3 201 104 202
3 201 202 203
3 28 105 104
3 28 106 105
3 29 107 59
3 29 108 107
3 11 204 205
3 30 109 61
3 30 110 109
3 30 111 110
3 31 112 63
3 31 113 112
3 31 114 113
3 32 115 65
3 32 206 208
3 208 207 115
3 206 207 208
3 211 210 81
3 209 210 211
3 18 116 83
3 13 212 214
3 214 213 75
3 212 213 214
3 33 34 6
3 35 34 33
3 35 7 34
3 35 36 7
3 37 36 35
3 37 9 36
3 38 215 217
3 217 216 12
3 215 216 217
3 39 218 220
3 220 219 38
3 218 219 220
3 39 221 222
3 40 223 225
3 223 41 224
3 223 224 225
3 42 41 40
3 42 14 41
3 42 43 14
3 44 43 42
3 44 15 43
3 227 226 16
3 45 46 17
3 47 46 45
3 47 19 46
3 228 20 229
3 232 231 20
3 230 231 232
3 233 21 234
3 235 48 236
3 237 236 21
3 235 236 237
3 49 238 240
3 238 48 239
3 238 239 240
3 49 22 48
3 50 51 8
3 52 51 50
3 52 23 51
3 52 53 23
3 54 53 52
3 54 24 53
3 241 25 242
3 55 56 10
3 57 56 55
3 57 26 56
3 57 58 26
3 243 58 244
3 245 244 57
3 243 244 245
3 246 27 247
3 248 247 58
3 246 247 248
3 249 28 250
3 251 59 252
3 253 252 28
3 251 252 253
3 254 59 255
3 256 29 257
3 258 257 59
3 256 257 258
3 60 61 11
3 62 61 60
3 62 30 61
3 62 63 30
3 64 63 62
3 64 31 63
3 64 65 31
3 66 65 64
3 66 32 65
3 260 259 18
3 67 261 263
3 263 262 13
3 261 262 263
3 266 265 67
3 264 265 266
3 267 40 268
3 269 40 270
3 271 2 272
3 273 272 40
3 271 272 273
3 34 274 276
3 276 275 6
3 274 275 276
3 278 277 34
3 279 68 280
3 69 281 283
3 281 68 282
3 281 282 283
3 69 8 68
3 36 69 7
3 70 69 36
3 70 8 69
3 70 50 8
3 71 50 70
3 71 4 50
3 284 10 285
3 286 10 287
3 286 287 288
3 289 55 290
3 291 290 10
3 289 290 291
3 292 55 293
3 296 295 55
3 294 295 296
3 297 11 298
3 72 299 301
3 299 300 301
3 72 302 304
3 302 11 303
3 302 303 304
3 72 60 11
3 73 60 72
3 73 5 60
3 73 305 307
3 307 306 5
3 305 306 307
3 309 308 73
3 311 310 12
3 74 75 3
3 76 75 74
3 76 13 75
3 312 76 313
3 312 313 314
3 315 76 316
3 317 13 318
3 319 318 76
3 317 318 319
3 320 67 321
3 322 321 13
3 320 321 322
3 323 67 324
3 326 325 67
3 41 327 329
3 327 328 329
3 331 330 41
3 77 332 333
3 77 334 336
3 334 6 335
3 334 335 336
3 43 77 14
3 78 77 43
3 78 6 77
3 78 33 6
3 79 33 78
3 79 1 33
3 80 81 0
3 337 81 338
3 339 338 80
3 337 338 339
3 341 340 81
3 343 342 16
3 82 344 346
3 344 83 345
3 344 345 346
3 84 83 82
3 84 18 83
3 46 84 17
3 85 84 46
3 85 18 84
3 85 347 349
3 349 348 18
3 347 348 349
3 86 350 352
3 352 351 85
3 350 351 352
3 86 353 355
3 353 3 354
3 353 354 355
3 356 47 357
3 87 358 360
3 358 47 359
3 358 359 360
3 87 19 47
3 361 87 362
3 88 363 365
3 363 87 364
3 363 364 365
3 88 19 87
3 88 86 19
3 89 86 88
3 89 3 86
3 89 74 3
3 90 74 89
3 90 366 368
3 368 367 74
3 366 367 368
3 369 90 370
3 371 370 20
3 369 370 371
3 372 90 373
3 375 374 90
3 376 12 377
3 378 12 379
3 378 379 380
3 381 38 382
3 383 382 12
3 381 382 383
3 91 384 386
3 384 38 385
3 384 385 386
3 91 0 38
3 387 91 388
3 92 389 391
3 389 91 390
3 389 390 391
3 92 0 91
3 92 80 0
3 93 80 92
3 93 16 80
3 48 93 21
3 392 93 393
3 394 393 48
3 392 393 394
3 395 16 396
3 397 396 93
3 395 396 397
3 399 398 16
3 68 400 402
3 400 49 401
3 400 401 402
3 94 49 68
3 94 22 49
3 51 94 8
3 95 94 51
3 95 22 94
3 95 403 405
3 405 404 22
3 403 404 405
3 407 406 95
3 53 408 410
3 410 409 23
3 408 409 410
3 412 411 53
3 96 413 414
3 96 415 416
3 97 417 418
3 97 419 421
3 419 2 420
3 419 420 421
3 98 422 424
3 422 423 424
3 98 425 427
3 425 25 426
3 425 426 427
3 56 98 10
3 99 98 56
3 99 25 98
3 99 97 25
3 100 97 99
3 100 2 97
3 100 44 2
3 101 44 100
3 101 15 44
3 58 101 26
3 102 101 58
3 102 15 101
3 102 79 15
3 103 79 102
3 103 1 79
3 428 27 429
3 104 430 431
3 104 432 434
3 432 27 433
3 432 433 434
3 104 103 27
3 105 103 104
3 105 1 103
3 105 37 1
3 106 37 105
3 106 9 37
3 59 106 28
3 107 106 59
3 107 9 106
3 107 71 9
3 108 71 107
3 108 4 71
3 435 29 436
3 61 437 439
3 439 438 11
3 437 438 439
3 109 440 442
3 442 441 61
3 440 441 442
3 109 443 445
3 443 29 444
3 443 444 445
3 109 108 29
3 110 108 109
3 110 4 108
3 110 54 4
3 111 54 110
3 111 24 54
3 63 111 30
3 112 111 63
3 112 24 111
3 112 96 24
3 113 96 112
3 113 446 448
3 448 447 96
3 446 447 448
3 113 449 451
3 449 82 450
3 449 450 451
3 114 82 113
3 114 17 82
3 65 114 31
3 115 114 65
3 115 17 114
3 115 45 17
3 452 45 453
3 454 453 115
3 452 453 454
3 456 455 45
3 457 66 458
3 459 458 5
3 457 458 459
3 460 66 461
3 462 32 463
3 464 463 66
3 462 463 464
3 465 32 466
3 468 467 32
3 81 39 0
3 469 39 470
3 471 470 81
3 469 470 471
3 474 473 39
3 472 473 474
3 83 475 476
3 116 477 479
3 479 478 83
3 477 478 479
3 116 480 481
3 482 116 483
3 484 483 18
3 482 483 484
3 485 116 486
3 488 487 116
3 75 489 491
3 491 490 3
3 489 490 491
3 493 492 75
3 495 494 13
