ply
format ascii 1.0
element vertex 458
property float x
property float y
property float z
element face 435
property list uchar int vertex_index
end_header
-28.747087 -7.968487 -38.381031
-30.56118 -4.485447 -52.852089
-48.552551 -19.99122 -48.145432
-36.408699 2.808485 -58.03315
-27.927532 2.162468 -45.079456
-33.657696 -15.549621 -46.753582
-39.785145 -9.118815 -52.490578
-41.250294 -22.430843 -44.006615
-27.888481 -7.475061 -33.441746
-27.924334 -3.167772 -36.462757
-28.075384 -2.942591 -41.884575
-27.301029 -1.538025 -47.074688
-27.699602 -7.075931 -43.360191
-33.280495 -0.40587 -55.987587
-38.106251 -3.073919 -56.034035
-34.920937 -5.985421 -53.348373
-36.555813 -11.851168 -49.677528
-32.033951 -9.864916 -50.117393
-44.770164 -20.881886 -46.095596
-29.477425 -12.79117 -34.745636
-28.729708 -12.482728 -39.377247
-29.481354 0.562963 -54.424255
-27.433275 -0.02247 -51.383156
-27.605375 -4.486532 -50.919342
-28.33201 -9.354585 -49.227516
-29.599415 -14.558723 -46.689434
-35.077045 -21.382637 -43.365688
-48.172646 -12.92383 -52.374901
-41.581894 -0.992674 -57.476151
-43.259758 -7.320132 -54.71875
-44.483948 -13.864915 -50.607262
-40.97826 -15.530607 -48.179665
-37.789509 -18.071627 -45.730774
-28.651272 -7.93102 -35.848846
-27.931705 -5.334402 -34.954929
-28.436029 -5.613171 -37.51693
-28.228451 -3.257931 -39.149162
-28.372526 -5.475022 -40.161983
-27.941553 -5.003894 -42.774521
-28.346262 -7.652832 -40.918274
-31.869759 -2.335974 -54.512161
-34.078682 -3.166008 -54.838364
-32.625404 -5.035498 -53.280609
-33.434475 -7.807158 -51.768433
-31.26162 -7.135673 -51.598984
-28.865503 -12.427678 -32.533592
-29.704905 -15.106318 -32.957287
-29.848381 -15.254494 -35.121391
-28.070147 1.514887 -42.221172
-27.450937 -2.197237 -51.327133
-28.90274 -11.917515 -48.040443
-40.746681 2.154549 -58.157936
-38.938175 1.09948 -57.938133
-38.977722 -6.065244 -54.415077
-40.679691 -5.011683 -55.529137
-41.49472 -8.117159 -53.72538
-43.9613 -10.547112 -52.778183
-42.18787 -11.298564 -51.6493
-42.699253 -14.590019 -49.42495
-40.470947 -12.265776 -50.371635
-35.056046 -13.58877 -48.22076
-37.249989 -14.919641 -47.690166
-35.775192 -16.592915 -46.358681
-36.360493 -19.63728 -44.551407
-34.419594 -18.471901 -45.023014
-39.648483 -23.418995 -43.057983
-27.022541 -2.60066 -33.951717
-27.47744 1.379694 -36.607151
-27.922033 -0.981041 -37.936024
-28.088055 -0.876537 -40.723076
-27.911146 -0.389023 -43.530197
-27.613853 0.356262 -46.245728
-27.682878 -2.325924 -44.556808
-27.400204 -4.310583 -45.260281
-27.087296 -6.350342 -45.630344
-34.790745 1.304403 -57.191589
-37.229439 -0.118898 -57.259468
-35.612473 -1.531775 -56.195503
-36.479225 -4.410864 -54.798485
-37.337982 -7.345608 -53.073364
-38.136478 -10.358863 -51.115372
-35.762333 -8.875566 -51.596909
-34.25909 -10.657099 -50.053345
-32.846111 -12.672255 -48.477467
-44.452431 -24.594147 -43.981968
-42.964691 -21.574583 -45.025536
-29.137081 -10.410079 -36.565365
-28.842604 -10.25306 -39.007187
-29.36652 -12.790169 -37.065022
-34.07016 4.090132 -57.740128
-32.572506 2.29347 -56.736076
-29.959309 -1.916124 -53.812462
-27.550816 2.017929 -51.055794
-28.109594 2.631313 -53.024437
-28.205223 0.437967 -53.079124
-28.45656 -1.885111 -52.745232
-28.849682 -4.314667 -52.061165
-28.160553 -9.807163 -41.392982
-27.377373 -9.168658 -43.638409
-27.898613 -6.875527 -50.203316
-29.37196 -6.836364 -51.076019
-30.009853 -9.442724 -49.844398
-30.744875 -12.129257 -48.423588
-31.549685 -14.889148 -46.873138
-32.386112 -17.706635 -45.256191
-48.500641 -16.407707 -50.32975
-39.80558 -1.947161 -56.957359
-42.443657 -4.146174 -56.313293
-45.072781 -6.680757 -55.364929
-45.778774 -9.969706 -53.650055
-46.315353 -13.32501 -51.628304
-46.6203 -16.78072 -49.422516
-44.769661 -17.304596 -48.337414
-42.973614 -18.013918 -47.180149
-41.253189 -18.922174 -46.028862
-38.820976 -13.472163 -49.033623
-39.336075 -16.695198 -46.93845
-39.627636 -20.019279 -44.925488
-38.117863 -21.275782 -43.878399
-48.420502 -21.839015 -47.046066
-49.399757 -21.709694 -47.478848
-47.597404 -20.175515 -47.654927
-48.420502 -21.839015 -47.046066
-29.734229 -16.229021 -32.096241
-29.231079 -14.852518 -31.959333
-29.961987 -16.37307 -33.083216
-29.734229 -16.229021 -32.096241
-28.075834 3.028288 -44.351803
-28.147142 2.704497 -42.922661
-27.998839 1.838678 -43.650314
-28.046232 3.422581 -45.792088
-28.075834 3.028288 -44.351803
-27.848202 2.587795 -46.446995
-28.046232 3.422581 -45.792088
-37.673437 1.953982 -57.985641
-38.542231 2.613268 -58.186065
-37.277493 3.46777 -58.233574
-41.095482 -24.23237 -43.081226
-41.94623 -23.844733 -43.520418
-40.449388 -22.924919 -43.532299
-40.294576 -24.726446 -42.60691
-41.095482 -24.23237 -43.081226
-27.321999 -6.030138 -33.022435
-27.144049 -7.018853 -32.363745
-27.58549 -1.88942 -35.879111
-27.134593 -1.605865 -34.623591
-27.473438 -2.884216 -35.207237
-27.923184 -2.074406 -37.199391
-27.584339 -0.796055 -36.615744
-27.58549 -1.88942 -35.879111
-44.611297 -22.738017 -45.038782
-45.398765 -24.331575 -44.477377
-45.557632 -22.475445 -45.534191
-29.145501 -11.497619 -34.460529
-28.83954 -11.315874 -33.354507
-29.171464 -12.609424 -33.639614
-29.307253 -11.600624 -35.655501
-28.975328 -10.307074 -35.370394
-29.145501 -11.497619 -34.460529
-29.59449 -15.170692 -36.228617
-29.883634 -16.431797 -35.208929
-33.037184 4.500084 -57.392849
-33.79006 5.440247 -57.780254
-32.288357 3.601753 -56.890823
-33.321333 3.191801 -57.238102
-33.037184 4.500084 -57.392849
-30.34245 0.427111 -54.910797
-30.07291 1.697752 -55.154949
-29.720332 -0.676581 -54.118358
-30.581428 -0.812433 -54.6049
-30.34245 0.427111 -54.910797
-27.62107 2.371945 -37.237423
-27.728969 1.298037 -37.980591
-27.364705 -0.16365 -47.926401
-27.521117 0.783494 -47.511921
-27.457441 -0.590881 -46.660208
-27.492045 0.99773 -51.219475
-27.355932 0.647571 -50.211857
-27.297161 -0.372629 -50.375538
-27.196554 -10.228603 -43.633389
-27.611133 -10.559145 -42.613411
-27.077567 -8.808306 -44.660235
-27.196554 -10.228603 -43.633389
-28.115312 -8.115056 -49.715416
-27.518352 -8.216724 -49.239231
-27.73505 -9.456253 -48.751331
-31.824932 -18.87064 -44.474702
-31.392351 -17.488132 -45.239486
-32.796495 -19.127672 -44.448747
-31.824932 -18.87064 -44.474702
-49.277482 -14.530486 -51.659607
-49.10257 -12.765864 -52.558101
-48.336644 -14.665768 -51.352325
-49.441479 -16.272424 -50.637031
-49.277482 -14.530486 -51.659607
-42.509203 -0.582187 -57.499234
-42.091597 0.991424 -57.840126
-41.164288 0.580937 -57.817043
-42.924539 -2.207743 -57.076138
-42.509203 -0.582187 -57.499234
-35.914526 -22.0195 -43.119185
-36.55625 -21.146822 -43.712044
-35.718769 -20.509958 -43.958547
-35.326072 -22.77118 -42.619354
-35.914526 -22.0195 -43.119185
-45.706211 -20.620848 -46.630009
-45.557632 -22.475445 -45.534191
-28.811377 -13.513198 -31.747486
-28.158113 -12.046406 -31.542101
-29.285204 -13.766998 -32.74544
-28.811377 -13.513198 -31.747486
-29.231079 -14.852518 -31.959333
-30.033725 -16.447158 -34.165268
-29.776643 -15.180406 -34.039339
-29.961987 -16.37307 -33.083216
-29.883634 -16.431797 -35.208929
-30.033725 -16.447158 -34.165268
-29.317877 1.746776 -54.533901
-30.07291 1.697752 -55.154949
-28.111292 2.462384 -41.460707
-28.025323 1.365634 -40.787602
-28.111292 2.462384 -41.460707
-28.147142 2.704497 -42.922661
-27.231038 -1.130406 -48.221304
-27.155093 -2.530971 -47.311182
-27.207595 -1.400166 -50.483352
-27.297161 -0.372629 -50.375538
-27.216426 -2.487549 -50.455341
-27.442106 -1.109854 -51.355145
-27.207595 -1.400166 -50.483352
-27.178822 -3.569807 -50.387242
-27.216426 -2.487549 -50.455341
-27.256041 -4.714455 -50.183346
-27.528156 -3.341884 -51.123238
-27.178822 -3.569807 -50.387242
-28.287301 -12.216181 -40.48283
-28.583173 -13.576368 -39.437371
-27.904187 -10.674716 -48.276919
-27.73505 -9.456253 -48.751331
-28.189552 -11.956181 -47.683382
-28.617375 -10.63605 -48.63398
-27.904187 -10.674716 -48.276919
-28.438631 -13.214908 -47.115105
-28.189552 -11.956181 -47.683382
-28.786969 -14.535512 -46.4396
-29.251078 -13.238119 -47.364939
-28.438631 -13.214908 -47.115105
-47.898502 -11.219189 -53.266285
-49.10257 -12.765864 -52.558101
-39.446483 3.140802 -58.295967
-40.379124 3.716978 -58.251033
-39.842428 1.627015 -58.048034
-39.446483 3.140802 -58.295967
-38.542231 2.613268 -58.186065
-39.507591 -25.142807 -42.203952
-40.294576 -24.726446 -42.60691
-38.914592 -23.952008 -42.618427
-39.507591 -25.142807 -42.203952
-27.343612 -4.959808 -33.779026
-27.321999 -6.030138 -33.022435
-27.910093 -6.404732 -34.198338
-26.889029 -3.592937 -33.27742
-27.343612 -4.959808 -33.779026
-27.477123 -3.967531 -34.453323
-26.253673 -2.059848 -32.846829
-26.889029 -3.592937 -33.27742
-26.503431 -1.156859 -33.440979
-26.253673 -2.059848 -32.846829
-26.503431 -1.156859 -33.440979
-27.134593 -1.605865 -34.623591
-27.362043 0.384313 -35.951307
-26.964786 1.728172 -35.360167
-27.699737 0.199326 -37.271588
-27.362043 0.384313 -35.951307
-27.584339 -0.796055 -36.615744
-27.951266 0.11767 -38.645027
-27.728969 1.298037 -37.980591
-27.699737 0.199326 -37.271588
-28.034277 0.169922 -40.038553
-27.951266 0.11767 -38.645027
-28.005044 -0.928789 -39.32955
-28.079101 0.319175 -41.472124
-28.025323 1.365634 -40.787602
-28.034277 0.169922 -40.038553
-27.20468 -3.91725 -46.403979
-27.155093 -2.530971 -47.311182
-27.350617 -2.924304 -46.167485
-27.048226 -4.937129 -46.58901
-27.20468 -3.91725 -46.403979
-27.24375 -5.330463 -45.445312
-26.924963 -5.974655 -46.651751
-27.048226 -4.937129 -46.58901
-45.08276 -26.246723 -43.45706
-45.398765 -24.331575 -44.477377
-44.128842 -26.508865 -43.016739
-45.08276 -26.246723 -43.45706
-43.547298 -24.926385 -43.508095
-44.128842 -26.508865 -43.016739
-42.803429 -23.416603 -44.029879
-43.547298 -24.926385 -43.508095
-43.708561 -23.084365 -44.503752
-42.107492 -22.002713 -44.516075
-41.94623 -23.844733 -43.520418
-42.803429 -23.416603 -44.029879
-27.815664 -8.530597 -32.701025
-27.144049 -7.018853 -32.363745
-28.304175 -11.006906 -32.246948
-28.158113 -12.046406 -31.542101
-28.304175 -11.006906 -32.246948
-28.83954 -11.315874 -33.354507
-28.351028 -8.839565 -33.808585
-27.815664 -8.530597 -32.701025
-28.732424 -9.067545 -35.012135
-28.269876 -7.703041 -34.645296
-28.351028 -8.839565 -33.808585
-28.894177 -9.170549 -36.207105
-28.732424 -9.067545 -35.012135
-28.975328 -10.307074 -35.370394
-29.35356 -13.938529 -37.200432
-29.60745 -14.022331 -36.093207
-29.59449 -15.170692 -36.228617
-29.035153 -13.784809 -38.356544
-29.048114 -12.636449 -38.221134
-29.35356 -13.938529 -37.200432
-28.583173 -13.576368 -39.437371
-29.035153 -13.784809 -38.356544
-36.058689 4.248933 -58.180359
-37.277493 3.46777 -58.233574
-34.88942 4.889756 -58.033848
-33.79006 5.440247 -57.780254
-35.239429 3.449308 -57.886639
-36.058689 4.248933 -58.180359
-34.88942 4.889756 -58.033848
-31.618485 2.563006 -56.310859
-32.288357 3.601753 -56.890823
-31.888026 1.292364 -56.066707
-31.618485 2.563006 -56.310859
-32.242021 -0.057306 -55.692463
-32.926501 0.9438 -56.361831
-31.888026 1.292364 -56.066707
-31.536653 -1.022358 -54.95475
-32.575127 -1.370922 -55.249874
-32.242021 -0.057306 -55.692463
-30.914534 -2.126049 -54.162312
-31.536653 -1.022358 -54.95475
-30.581428 -0.812433 -54.6049
-49.510689 -19.865331 -48.537251
-49.399757 -21.709694 -47.478848
-27.203829 2.614211 -35.936329
-26.964786 1.728172 -35.360167
-27.203829 2.614211 -35.936329
-27.62107 2.371945 -37.237423
-27.691362 1.684692 -47.03013
-27.848202 2.587795 -46.446995
-27.770692 1.259365 -45.662592
-27.691362 1.684692 -47.03013
-27.521117 0.783494 -47.511921
-27.364705 -0.16365 -47.926401
-27.231038 -1.130406 -48.221304
-27.489598 1.614327 -49.916954
-27.355932 0.647571 -50.211857
-27.675893 2.959912 -50.693989
-27.489598 1.614327 -49.916954
-27.867089 3.340726 -51.807545
-27.675893 2.959912 -50.693989
-28.146479 3.647418 -52.791866
-27.867089 3.340726 -51.807545
-27.830205 2.324621 -52.040115
-28.558437 3.891592 -53.733326
-28.146479 3.647418 -52.791866
-28.631997 2.780951 -53.833992
-28.558437 3.891592 -53.733326
-28.679811 1.684278 -53.861335
-28.631997 2.780951 -53.833992
-28.157409 1.53464 -53.05178
-28.843288 0.500465 -53.751689
-29.317877 1.746776 -54.533901
-28.679811 1.684278 -53.861335
-28.002723 -10.878398 -41.490698
-28.44513 -11.144945 -40.385115
-28.287301 -12.216181 -40.48283
-27.768963 -9.48791 -42.515696
-28.002723 -10.878398 -41.490698
-27.611133 -10.559145 -42.613411
-26.932529 -7.399148 -45.656202
-27.232335 -7.7595 -44.634377
-27.077567 -8.808306 -44.660235
-26.924963 -5.974655 -46.651751
-26.932529 -7.399148 -45.656202
-27.279149 -5.845879 -49.957988
-27.256041 -4.714455 -50.183346
-27.425768 -7.040376 -49.599975
-27.518352 -8.216724 -49.239231
-27.751994 -5.68103 -50.561329
-27.279149 -5.845879 -49.957988
-27.425768 -7.040376 -49.599975
-29.113467 -15.832832 -45.795777
-28.786969 -14.535512 -46.4396
-29.999002 -15.914176 -45.956108
-29.113467 -15.832832 -45.795777
-30.974137 -16.079389 -46.04796
-30.57455 -14.723935 -46.781286
-29.999002 -15.914176 -45.956108
-31.967898 -16.297891 -46.064664
-30.974137 -16.079389 -46.04796
-31.392351 -17.488132 -45.239486
-33.813237 -19.510306 -44.332159
-33.402853 -18.089268 -45.139603
-32.796495 -19.127672 -44.448747
-34.141962 -20.965674 -43.503496
-34.748319 -19.927269 -44.194351
-33.813237 -19.510306 -44.332159
-34.520387 -22.368478 -42.735166
-34.141962 -20.965674 -43.503496
-35.326072 -22.77118 -42.619354
-34.520387 -22.368478 -42.735166
-49.484734 -18.073575 -49.62941
-49.441479 -16.272424 -50.637031
-48.526596 -18.199464 -49.237591
-49.510689 -19.865331 -48.537251
-49.484734 -18.073575 -49.62941
-41.701885 2.613661 -58.018383
-40.379124 3.716978 -58.251033
-41.701885 2.613661 -58.018383
-42.091597 0.991424 -57.840126
-43.355421 -3.784493 -56.494709
-42.924539 -2.207743 -57.076138
-42.012776 -2.569424 -56.894722
-44.669983 -5.051785 -56.020527
-43.355421 -3.784493 -56.494709
-43.758219 -5.413466 -55.839111
-45.998003 -6.41465 -55.469982
-44.669983 -5.051785 -56.020527
-46.34857 -8.097652 -54.761299
-45.998003 -6.41465 -55.469982
-46.701566 -9.742127 -53.903862
-46.34857 -8.097652 -54.761299
-45.425777 -8.325232 -54.507492
-46.97571 -11.446768 -53.012478
-47.898502 -11.219189 -53.266285
-46.701566 -9.742127 -53.903862
-46.631279 -18.570265 -48.293469
-47.597404 -20.175515 -47.654927
-47.586426 -18.38597 -48.783974
-45.705959 -18.832203 -47.750917
-46.631279 -18.570265 -48.293469
-45.69498 -17.042658 -48.879965
-44.769913 -19.093241 -47.216505
-45.706211 -20.620848 -46.630009
-45.705959 -18.832203 -47.750917
-38.149282 -22.880402 -43.028635
-38.914592 -23.952008 -42.618427
-38.883173 -22.347389 -43.468191
-37.434935 -21.966073 -43.37554
-37.239178 -20.456531 -44.214903
-36.55625 -21.146822 -43.712044
-38.149282 -22.880402 -43.028635
-37.434935 -21.966073 -43.37554
3 0 35 33
3 0 37 35
3 0 39 37
3 1 42 40
3 1 44 42
3 2 119 120
3 2 121 122
3 123 46 124
3 126 125 46
3 4 127 129
3 129 128 48
3 127 128 129
3 4 130 131
3 4 132 133
3 3 134 136
3 134 52 135
3 134 135 136
3 6 55 53
3 6 57 55
3 6 59 57
3 5 62 60
3 5 64 62
3 7 137 138
3 7 139 141
3 139 65 140
3 139 140 141
3 8 142 143
3 9 66 34
3 9 144 146
3 146 145 66
3 144 145 146
3 9 147 149
3 147 68 148
3 147 148 149
3 10 69 36
3 10 70 69
3 10 72 70
3 12 73 38
3 12 74 73
3 13 77 75
3 15 78 41
3 15 79 78
3 15 81 79
3 17 82 43
3 17 83 82
3 18 150 152
3 150 84 151
3 150 151 152
3 18 85 84
3 19 153 155
3 155 154 45
3 153 154 155
3 19 156 158
3 156 86 157
3 156 157 158
3 19 88 86
3 160 159 47
3 161 89 162
3 163 90 164
3 165 164 89
3 163 164 165
3 21 166 167
3 21 168 170
3 168 91 169
3 168 169 170
3 172 171 67
3 11 173 175
3 175 174 71
3 173 174 175
3 22 176 178
3 176 92 177
3 176 177 178
3 22 93 92
3 22 94 93
3 23 95 49
3 23 96 95
3 20 97 87
3 179 98 180
3 182 181 98
3 24 183 185
3 183 99 184
3 183 184 185
3 24 100 99
3 24 101 100
3 25 102 50
3 25 103 102
3 186 104 187
3 189 188 104
3 27 190 191
3 27 192 194
3 192 105 193
3 192 193 194
3 28 195 197
3 197 196 51
3 195 196 197
3 28 198 199
3 14 106 76
3 29 107 54
3 29 108 107
3 29 109 108
3 30 110 56
3 30 111 110
3 30 112 111
3 31 113 58
3 31 114 113
3 16 115 80
3 32 116 61
3 32 117 116
3 32 118 117
3 26 200 202
3 202 201 63
3 200 201 202
3 26 203 204
3 33 34 8
3 35 34 33
3 35 9 34
3 35 36 9
3 37 36 35
3 37 10 36
3 37 38 10
3 39 38 37
3 39 12 38
3 40 41 13
3 42 41 40
3 42 15 41
3 42 43 15
3 44 43 42
3 44 17 43
3 205 18 206
3 207 45 208
3 46 209 211
3 209 45 210
3 209 210 211
3 46 19 45
3 46 47 19
3 212 47 213
3 214 213 46
3 212 213 214
3 216 215 47
3 217 21 218
3 48 219 220
3 222 221 48
3 224 223 11
3 225 22 226
3 227 49 228
3 229 228 22
3 227 228 229
3 230 49 231
3 232 23 233
3 234 233 49
3 232 233 234
3 236 235 20
3 237 24 238
3 239 50 240
3 241 240 24
3 239 240 241
3 242 50 243
3 244 25 245
3 246 245 50
3 244 245 246
3 247 27 248
3 249 51 250
3 52 251 253
3 251 51 252
3 251 252 253
3 52 28 51
3 53 54 14
3 55 54 53
3 55 29 54
3 55 56 29
3 57 56 55
3 57 30 56
3 57 58 30
3 59 58 57
3 59 31 58
3 60 61 16
3 62 61 60
3 62 32 61
3 62 63 32
3 64 63 62
3 64 26 63
3 65 254 255
3 65 256 257
3 34 258 260
3 260 259 8
3 258 259 260
3 66 261 263
3 263 262 34
3 261 262 263
3 66 264 265
3 66 266 267
3 269 268 66
3 270 67 271
3 68 272 274
3 272 67 273
3 272 273 274
3 68 275 277
3 277 276 67
3 275 276 277
3 36 68 9
3 69 68 36
3 69 278 280
3 280 279 68
3 278 279 280
3 69 281 283
3 281 48 282
3 281 282 283
3 70 48 69
3 70 4 48
3 70 71 4
3 72 71 70
3 72 11 71
3 38 72 10
3 73 72 38
3 73 11 72
3 73 284 286
3 286 285 11
3 284 285 286
3 74 287 289
3 289 288 73
3 287 288 289
3 74 290 291
3 75 76 3
3 77 76 75
3 77 14 76
3 41 77 13
3 78 77 41
3 78 14 77
3 78 53 14
3 79 53 78
3 79 6 53
3 79 80 6
3 81 80 79
3 81 16 80
3 43 81 15
3 82 81 43
3 82 16 81
3 82 60 16
3 83 60 82
3 83 5 60
3 84 292 293
3 84 294 295
3 84 296 297
3 85 298 300
3 300 299 84
3 298 299 300
3 85 301 303
3 301 7 302
3 301 302 303
3 304 8 305
3 45 306 307
3 309 308 45
3 310 8 311
3 312 33 313
3 314 313 8
3 312 313 314
3 86 315 317
3 315 33 316
3 315 316 317
3 86 0 33
3 86 87 0
3 88 87 86
3 88 20 87
3 47 88 19
3 318 88 319
3 320 319 47
3 318 319 320
3 321 20 322
3 323 322 88
3 321 322 323
3 325 324 20
3 326 3 327
3 89 328 329
3 89 330 332
3 330 3 331
3 330 331 332
3 89 75 3
3 90 75 89
3 90 13 75
3 333 90 334
3 335 90 336
3 337 13 338
3 339 338 90
3 337 338 339
3 340 40 341
3 342 341 13
3 340 341 342
3 91 343 345
3 343 40 344
3 343 344 345
3 91 1 40
3 346 2 347
3 67 348 349
3 351 350 67
3 71 352 354
3 354 353 4
3 352 353 354
3 356 355 71
3 358 357 11
3 92 359 360
3 92 361 362
3 92 363 364
3 93 365 367
3 367 366 92
3 365 366 367
3 93 368 369
3 93 370 371
3 94 372 374
3 374 373 93
3 372 373 374
3 94 375 377
3 375 21 376
3 375 376 377
3 49 94 22
3 95 94 49
3 95 21 94
3 95 91 21
3 96 91 95
3 96 1 91
3 87 39 0
3 97 39 87
3 97 12 39
3 378 97 379
3 380 379 20
3 378 379 380
3 98 381 383
3 381 97 382
3 381 382 383
3 98 12 97
3 98 74 12
3 384 74 385
3 386 385 98
3 384 385 386
3 388 387 74
3 389 23 390
3 99 391 392
3 99 393 395
3 393 23 394
3 393 394 395
3 99 96 23
3 100 96 99
3 100 1 96
3 100 44 1
3 101 44 100
3 101 17 44
3 50 101 24
3 102 101 50
3 102 17 101
3 102 83 17
3 103 83 102
3 103 5 83
3 396 25 397
3 398 25 399
3 400 103 401
3 402 401 25
3 400 401 402
3 104 403 405
3 403 103 404
3 403 404 405
3 104 5 103
3 104 64 5
3 406 64 407
3 408 407 104
3 406 407 408
3 409 26 410
3 411 410 64
3 409 410 411
3 412 26 413
3 415 414 26
3 105 416 417
3 105 418 420
3 418 2 419
3 418 419 420
3 51 421 422
3 424 423 51
3 76 52 3
3 106 52 76
3 106 28 52
3 54 106 14
3 107 106 54
3 107 28 106
3 107 425 427
3 427 426 28
3 425 426 427
3 108 428 430
3 430 429 107
3 428 429 430
3 108 431 432
3 108 433 434
3 109 435 437
3 437 436 108
3 435 436 437
3 109 438 440
3 438 27 439
3 438 439 440
3 56 109 29
3 110 109 56
3 110 27 109
3 110 105 27
3 111 105 110
3 111 2 105
3 111 441 443
3 443 442 2
3 441 442 443
3 112 444 446
3 446 445 111
3 444 445 446
3 112 447 449
3 447 18 448
3 447 448 449
3 58 112 30
3 113 112 58
3 113 18 112
3 113 85 18
3 114 85 113
3 114 7 85
3 80 59 6
3 115 59 80
3 115 31 59
3 61 115 16
3 116 115 61
3 116 31 115
3 116 114 31
3 117 114 116
3 117 7 114
3 117 65 7
3 118 65 117
3 118 450 452
3 452 451 65
3 450 451 452
3 63 118 32
3 453 118 454
3 455 454 63
3 453 454 455
3 457 456 118
