ply
format ascii 1.0
element vertex 463
property float x
property float y
property float z
element face 491
property list uchar int vertex_index
end_header
47.362888 20.020355 28.231661
45.925564 42.342335 30.133554
47.382755 49.420944 20.558455
50.027161 26.796013 21.242685
52.351662 44.822216 13.438243
48.745644 38.519024 22.287096
44.106739 30.925568 29.654217
42.493549 23.39209 37.610298
45.536674 16.442116 46.387421
48.11525 23.301266 24.51976
47.012798 45.967979 25.613358
48.406494 44.047676 21.701973
46.884094 40.516239 26.13467
46.340649 34.813583 26.035645
44.948124 36.763996 30.142876
41.93494 29.293617 38.120834
47.420082 12.917963 50.42662
47.253506 15.022583 41.450905
47.392868 52.646004 15.071603
45.585632 54.836746 19.165779
46.113552 51.32003 24.539944
52.520584 30.276848 18.214123
53.86644 39.33181 14.882379
49.430107 47.257195 16.74044
50.830978 41.86845 18.112537
51.68708 36.214241 18.695045
49.003517 32.695896 22.11702
46.440998 28.920731 25.421843
44.6675 25.12891 28.94096
44.263081 38.709877 34.284805
43.082855 32.981133 34.036331
42.666706 27.074474 33.463482
44.200832 21.528297 32.852707
44.225452 18.181366 51.252205
42.856529 22.017525 46.988487
43.617153 19.879238 42.003551
45.190235 18.185452 37.097775
48.011047 17.02673 32.337894
47.569473 21.624592 26.318253
49.477898 17.904465 27.907692
46.563881 44.16798 27.93615
47.054077 43.264755 25.951427
46.344368 41.441864 28.136124
45.945705 38.656303 28.17531
45.500362 39.588192 30.215439
45.474571 52.15197 26.406628
46.147156 49.51564 27.056517
51.246685 28.554562 19.715551
53.142159 27.298672 17.618416
52.036964 25.639477 19.089718
53.197411 42.113209 14.27739
47.400711 51.061012 17.853722
48.479141 49.934349 15.912949
48.273987 48.370178 18.598305
48.634762 41.317398 22.081242
49.487617 42.996387 19.855288
49.849152 40.243969 20.264503
51.302597 39.084446 18.528675
50.115639 37.412338 20.46846
50.372292 34.499447 20.441961
48.831932 35.640728 22.30007
45.1637 32.878006 27.838999
46.241714 31.870934 25.780741
45.091576 29.927448 27.518105
45.417255 27.011429 27.138054
44.146236 27.986107 29.308762
43.398079 36.9384 36.327301
43.667107 35.885162 34.221466
42.849148 34.068951 36.237473
41.98217 26.302944 37.876671
42.183006 28.146427 35.782478
42.406937 25.209381 35.495293
43.143326 24.210255 33.149483
43.17099 22.404484 35.21022
46.538521 14.70322 48.47187
45.697929 15.437927 50.864914
44.869659 17.303097 48.848297
43.535149 20.129368 49.176231
43.99577 19.121784 46.709709
43.179752 20.914165 44.49868
44.525459 18.159893 44.216599
48.418049 14.537083 39.017555
46.132252 16.590443 39.277794
47.325489 16.031429 36.860027
46.438263 17.550316 34.703964
48.807678 15.604836 34.471245
50.560726 15.26178 32.091419
48.956116 25.034042 22.833857
51.033619 23.981586 20.634014
50.218239 22.357689 22.278572
51.72039 48.835655 9.842256
51.324974 47.492798 12.453185
47.273506 47.722595 23.152279
47.998009 46.738068 21.181267
47.602875 45.034821 23.635769
47.712021 42.319275 23.984358
47.664051 39.548065 24.175926
47.55793 36.702671 24.199413
46.602646 37.701374 26.159897
45.500366 35.799255 28.068184
44.426762 33.868855 29.944267
41.804947 30.504593 40.453178
41.773277 27.48304 40.275631
42.102604 24.490269 40.044384
47.430187 14.024017 46.031944
46.308647 15.665207 43.912109
48.435295 13.458824 43.581261
46.381416 53.785728 17.094807
46.568295 52.119667 19.874372
45.900391 53.096077 21.903383
46.701454 50.406883 22.563757
46.703236 48.648895 25.135014
46.512276 46.854248 27.573023
46.100365 45.040459 29.879242
55.255943 30.495647 14.764886
54.250053 28.926613 16.18737
54.391716 36.461243 15.182022
48.6591 51.436806 13.161805
49.812008 48.745773 14.103502
50.824913 46.077713 15.017756
48.971504 45.693344 19.28285
50.215656 44.581711 17.495516
51.668999 43.392387 15.830882
52.342152 40.65073 16.463953
52.872635 37.826492 16.846054
52.063438 33.266865 18.587446
50.717403 31.530136 20.182882
49.370773 29.72604 21.753304
47.515602 33.785416 24.056511
47.664276 30.82642 23.761881
48.11718 27.883595 23.342209
47.044922 26.035748 24.990494
46.231533 24.214512 26.729612
45.738564 22.44574 28.576756
45.135303 40.515526 32.235664
44.580788 37.728836 32.228622
43.965302 34.865219 32.081818
43.463287 31.937126 31.832502
42.383976 31.123585 36.042267
42.692039 30.025478 33.770416
43.250546 28.983967 31.520128
43.478298 26.073994 31.181404
44.250248 23.296688 30.846075
45.606014 20.745029 30.532978
42.283432 23.861576 44.74411
42.520878 22.698425 42.262932
42.913288 21.618591 39.789413
45.213898 17.303249 41.732243
44.263325 18.961166 39.531525
43.557697 20.657177 37.34655
44.524334 19.826729 34.945381
45.846214 19.115864 32.584061
47.514076 18.491348 30.246822
49.875149 16.564098 29.976181
48.383737 19.665218 27.076033
48.48703 20.467337 26.119329
47.466181 20.822474 27.274957
48.420393 18.96241 28.069676
49.441243 18.607273 26.914048
48.383737 19.665218 27.076033
45.06176 52.526268 27.247986
45.006842 53.445747 26.028973
45.465862 51.236767 27.625641
45.06176 52.526268 27.247986
53.097542 44.151046 12.714947
52.611874 45.494913 12.203501
52.774536 43.467712 13.857817
53.520416 42.796543 13.134521
53.097542 44.151046 12.714947
43.014798 36.069316 37.365654
43.21389 37.480598 37.346431
42.740332 34.634592 37.32074
43.123614 35.503675 36.282387
43.014798 36.069316 37.365654
48.574699 15.114818 36.735361
47.871769 15.284256 37.938791
49.12098 14.367646 37.814125
49.315794 14.901522 35.54097
48.066584 15.818133 35.665636
48.574699 15.114818 36.735361
50.136868 14.783925 34.343296
49.315794 14.901522 35.54097
50.930548 49.501248 10.626421
51.072365 50.180683 9.272502
50.732839 48.829819 11.931886
51.522682 48.164226 11.147721
50.930548 49.501248 10.626421
41.737125 31.128327 41.601219
41.922214 31.99238 40.497558
41.837061 26.580437 41.384279
41.718407 28.10355 41.470793
42.001724 25.084052 41.268656
41.93794 25.986655 40.160007
41.837061 26.580437 41.384279
48.489638 12.948391 45.832037
47.943472 13.188359 47.041744
48.992192 12.665795 44.606696
47.932741 13.741421 44.806602
48.489638 12.948391 45.832037
45.983524 54.311237 18.130293
45.818191 55.162426 16.725125
45.420299 55.687935 17.760611
46.006971 52.208054 23.221663
45.585053 53.534558 22.880384
45.691633 52.646534 24.198664
46.231549 47.276131 28.510111
46.329716 48.184944 27.31477
46.048989 48.606826 28.251858
46.025593 46.369236 29.663221
46.30632 45.947353 28.726132
46.231549 47.276131 28.510111
53.385318 29.601731 17.200747
53.999153 30.430546 16.443399
53.134418 31.105663 17.456775
54.018399 26.621662 16.54119
53.566505 25.846966 17.246308
52.082812 23.417467 19.504013
51.720579 22.666473 20.30909
54.543447 38.617869 14.111293
54.243983 40.032844 13.847176
54.129078 37.896527 15.032201
54.806086 37.182585 14.261114
54.543447 38.617869 14.111293
48.025984 52.041405 14.116704
48.035258 52.808075 12.706421
47.402141 53.412674 13.661319
52.501694 35.564451 17.811959
53.094471 36.370576 16.887463
52.279858 37.020367 17.77055
51.875259 34.740553 18.641246
52.689872 34.090763 17.758159
52.501694 35.564451 17.811959
44.484558 40.080337 34.236958
44.060451 39.212059 35.278322
44.699192 39.612702 33.260234
44.92067 40.983162 33.212387
44.484558 40.080337 34.236958
42.159458 30.208601 37.081551
42.296365 31.701553 37.175815
42.071847 30.786569 38.215099
46.902161 13.21227 51.570839
47.751796 11.99034 51.321304
44.53082 17.170345 52.207459
45.267059 15.798626 52.013813
44.961691 16.809646 51.05856
43.871418 18.593782 52.397926
44.53082 17.170345 52.207459
43.635637 19.647091 51.409508
43.871418 18.593782 52.397926
42.698986 22.571642 48.209789
43.038296 21.627564 49.303661
43.195839 21.073446 48.082359
42.47296 23.536241 47.093304
42.698986 22.571642 48.209789
42.56998 22.93955 45.866298
42.186411 24.458267 45.971115
42.47296 23.536241 47.093304
51.548136 15.097969 30.893019
51.936867 14.512493 31.949752
56.085875 28.206555 13.467285
55.842804 29.719591 13.79033
55.499014 28.98261 14.441841
48.614391 21.209822 25.179069
48.88728 22.048159 24.279823
47.842362 22.462929 25.419007
48.614391 21.209822 25.179069
48.48703 20.467337 26.119329
50.564782 17.601278 26.723826
49.441243 18.607273 26.914048
50.720398 17.001488 27.749868
50.564782 17.601278 26.723826
45.029075 56.191372 18.813626
45.420299 55.687935 17.760611
45.372142 53.062504 25.132006
45.006842 53.445747 26.028973
45.794061 51.736 25.473286
45.691633 52.646534 24.198664
45.372142 53.062504 25.132006
45.802155 49.918602 27.950585
45.810863 50.833805 26.731572
45.465862 51.236767 27.625641
46.048989 48.606826 28.251858
45.802155 49.918602 27.950585
53.013908 25.017368 17.981959
53.566505 25.846966 17.246308
52.589562 26.469074 18.354067
53.909468 41.423544 13.544681
53.520416 42.796543 13.134521
53.531925 40.72251 14.579885
54.243983 40.032844 13.847176
53.909468 41.423544 13.544681
43.62795 38.326321 36.29957
43.21389 37.480598 37.346431
43.83058 37.824139 35.306053
44.060451 39.212059 35.278322
43.62795 38.326321 36.29957
51.013391 14.612396 33.153383
49.684202 15.433308 33.281332
50.136868 14.783925 34.343296
51.936867 14.512493 31.949752
51.013391 14.612396 33.153383
51.312889 21.854525 21.131369
51.720579 22.666473 20.30909
50.625929 23.169638 21.456293
49.938774 21.57637 23.159229
49.166745 22.829477 23.399166
48.88728 22.048159 24.279823
51.053717 21.137111 21.997797
49.938774 21.57637 23.159229
51.312889 21.854525 21.131369
51.053717 21.137111 21.997797
51.863222 49.474091 8.534533
51.072365 50.180683 9.272502
52.471878 48.137073 9.153668
51.863222 49.474091 8.534533
52.296238 47.501632 10.405508
52.471878 48.137073 9.153668
52.09853 46.830204 11.710973
52.296238 47.501632 10.405508
51.522682 48.164226 11.147721
51.838318 46.157507 12.945714
52.611874 45.494913 12.203501
52.09853 46.830204 11.710973
42.006851 31.392057 39.381271
41.922214 31.99238 40.497558
41.869943 29.899105 39.287006
42.071847 30.786569 38.215099
42.006851 31.392057 39.381271
41.734241 29.614327 41.559567
41.737125 31.128327 41.601219
41.789112 28.993817 40.364404
41.734241 29.614327 41.559567
41.718407 28.10355 41.470793
48.347634 11.770623 50.180107
47.751796 11.99034 51.321304
47.93842 12.635332 49.239082
48.347634 11.770623 50.180107
47.497639 13.52796 48.261707
46.979302 13.810592 49.449245
47.93842 12.635332 49.239082
46.984354 14.363619 47.251907
47.497639 13.52796 48.261707
47.943472 13.188359 47.041744
49.587876 12.49089 43.39016
48.992192 12.665795 44.606696
50.144772 11.697861 44.415594
49.017635 13.250805 42.361603
49.587876 12.49089 43.39016
48.426741 14.032684 41.296425
47.844401 14.240703 42.516083
49.017635 13.250805 42.361603
49.009012 13.789935 40.07975
47.835778 14.779833 40.23423
48.426741 14.032684 41.296425
49.68432 13.657743 38.869281
49.009012 13.789935 40.07975
49.12098 14.367646 37.814125
49.68432 13.657743 38.869281
46.803334 54.025948 14.666068
47.402141 53.412674 13.661319
46.297607 54.59581 15.67767
45.818191 55.162426 16.725125
46.887142 53.215866 16.083205
46.803334 54.025948 14.666068
46.297607 54.59581 15.67767
45.246355 55.304908 20.184703
45.029075 56.191372 18.813626
45.403734 54.434574 21.553505
45.585053 53.534558 22.880384
45.743011 53.966411 20.534581
45.246355 55.304908 20.184703
45.403734 54.434574 21.553505
54.502098 31.215063 15.732157
55.043312 32.001291 14.952195
54.752998 29.71113 15.476128
54.502098 31.215063 15.732157
53.999153 30.430546 16.443399
54.996069 28.198093 15.153083
55.499014 28.98261 14.441841
54.752998 29.71113 15.476128
54.572345 27.435633 15.825667
53.696106 28.112642 16.902893
54.018399 26.621662 16.54119
54.996069 28.198093 15.153083
54.572345 27.435633 15.825667
52.584484 24.246412 18.731865
51.535291 24.810531 19.861866
52.082812 23.417467 19.504013
53.013908 25.017368 17.981959
52.584484 24.246412 18.731865
55.035836 35.722369 14.3491
54.806086 37.182585 14.261114
54.611199 34.984089 15.160763
55.035836 35.722369 14.3491
48.750841 52.159527 11.773507
48.035258 52.808075 12.706421
49.399902 50.801823 12.286196
48.750841 52.159527 11.773507
49.976356 49.456306 12.757044
49.399902 50.801823 12.286196
49.235554 50.09129 13.632653
50.568491 48.119286 13.278344
50.732839 48.829819 11.931886
49.976356 49.456306 12.757044
53.854011 35.687952 16.055447
53.632176 37.143867 16.014038
53.094471 36.370576 16.887463
54.611199 34.984089 15.160763
53.854011 35.687952 16.055447
52.905845 32.600672 17.643436
52.689872 34.090763 17.758159
52.292011 31.771857 18.400785
53.134418 31.105663 17.456775
52.905845 32.600672 17.643436
45.807369 45.465249 30.800449
46.025593 46.369236 29.663221
45.790535 44.13593 30.97611
45.807369 45.465249 30.800449
45.703135 42.786867 31.103266
46.012964 43.691397 30.006398
45.790535 44.13593 30.97611
45.308004 41.873463 32.154321
44.92067 40.983162 33.212387
45.530434 41.42893 31.184609
45.703135 42.786867 31.103266
45.308004 41.873463 32.154321
42.528951 33.174236 37.273419
42.740332 34.634592 37.32074
42.616562 32.596268 36.13987
42.528951 33.174236 37.273419
42.296365 31.701553 37.175815
46.041084 14.472252 51.789986
46.902161 13.21227 51.570839
46.559005 14.177945 50.645767
46.041084 14.472252 51.789986
45.267059 15.798626 52.013813
43.290486 20.621092 50.371521
43.635637 19.647091 51.409508
43.8803 19.155367 50.214218
43.290486 20.621092 50.371521
43.038296 21.627564 49.303661
42.028396 25.388212 44.835331
42.186411 24.458267 45.971115
42.092138 24.769705 43.618519
42.028396 25.388212 44.835331
42.210862 24.18813 42.37793
42.092138 24.769705 43.618519
42.402155 23.28 43.503521
42.311741 23.594347 41.153658
42.001724 25.084052 41.268656
42.210862 24.18813 42.37793
50.919024 16.331305 28.784113
50.720398 17.001488 27.749868
49.676524 17.234282 28.941937
51.205347 15.749128 29.8354
50.217938 15.912939 31.0338
51.548136 15.097969 30.893019
50.919024 16.331305 28.784113
51.205347 15.749128 29.8354
55.657905 31.241107 14.04592
55.043312 32.001291 14.952195
55.657905 31.241107 14.04592
55.842804 29.719591 13.79033
3 0 154 156
3 156 155 38
3 154 155 156
3 0 157 159
3 157 39 158
3 157 158 159
3 1 42 40
3 1 44 42
3 160 45 161
3 163 162 45
3 3 49 47
3 4 164 165
3 4 166 168
3 166 50 167
3 166 167 168
3 2 53 51
3 5 56 54
3 5 58 56
3 5 60 58
3 6 63 61
3 6 65 63
3 169 66 170
3 171 68 172
3 173 172 66
3 171 172 173
3 7 71 69
3 7 73 71
3 8 76 74
3 8 78 76
3 8 80 78
3 174 83 175
3 176 175 81
3 174 175 176
3 177 85 178
3 179 178 83
3 177 178 179
3 181 180 85
3 9 89 87
3 182 90 183
3 184 91 185
3 186 185 90
3 184 185 186
3 10 94 92
3 12 95 41
3 12 96 95
3 12 98 96
3 14 99 43
3 14 100 99
3 187 101 188
3 189 102 190
3 191 103 192
3 193 192 102
3 191 192 193
3 194 104 195
3 196 106 197
3 198 197 104
3 196 197 198
3 19 199 201
3 199 107 200
3 199 200 201
3 19 108 107
3 20 202 204
3 202 109 203
3 202 203 204
3 20 110 109
3 20 111 110
3 205 112 206
3 207 206 46
3 205 206 207
3 208 113 209
3 210 209 112
3 208 209 210
3 21 211 213
3 211 115 212
3 211 212 213
3 215 214 48
3 217 216 88
3 22 218 219
3 22 220 222
3 220 116 221
3 220 221 222
3 18 223 225
3 223 117 224
3 223 224 225
3 23 118 52
3 23 119 118
3 11 120 93
3 24 121 55
3 24 122 121
3 24 123 122
3 25 124 57
3 25 226 228
3 228 227 124
3 226 227 228
3 25 229 231
3 229 125 230
3 229 230 231
3 26 126 59
3 26 127 126
3 13 128 97
3 27 129 62
3 27 130 129
3 27 131 130
3 28 132 64
3 28 133 132
3 29 232 233
3 29 234 236
3 234 134 235
3 234 235 236
3 29 135 134
3 30 136 67
3 30 137 136
3 15 237 239
3 237 138 238
3 237 238 239
3 31 139 70
3 31 140 139
3 31 141 140
3 32 142 72
3 32 143 142
3 16 240 241
3 33 242 244
3 244 243 75
3 242 243 244
3 33 245 246
3 33 247 248
3 34 249 251
3 251 250 77
3 249 250 251
3 34 252 253
3 34 254 256
3 254 144 255
3 254 255 256
3 35 145 79
3 35 146 145
3 17 147 105
3 36 148 82
3 36 149 148
3 36 150 149
3 37 151 84
3 37 152 151
3 37 153 152
3 258 257 86
3 261 260 114
3 259 260 261
3 38 262 264
3 264 263 9
3 262 263 264
3 266 265 38
3 39 267 268
3 39 269 270
3 40 41 10
3 42 41 40
3 42 12 41
3 42 43 12
3 44 43 42
3 44 14 43
3 271 19 272
3 45 273 274
3 45 275 277
3 275 20 276
3 275 276 277
3 45 46 20
3 278 46 279
3 280 279 45
3 278 279 280
3 282 281 46
3 47 48 21
3 49 48 47
3 49 283 285
3 285 284 48
3 283 284 285
3 50 286 287
3 50 288 290
3 288 22 289
3 288 289 290
3 51 52 18
3 53 52 51
3 53 23 52
3 54 55 11
3 56 55 54
3 56 24 55
3 56 57 24
3 58 57 56
3 58 25 57
3 58 59 25
3 60 59 58
3 60 26 59
3 61 62 13
3 63 62 61
3 63 27 62
3 63 64 27
3 65 64 63
3 65 28 64
3 66 291 292
3 66 293 295
3 293 29 294
3 293 294 295
3 66 67 29
3 68 67 66
3 68 30 67
3 69 70 15
3 71 70 69
3 71 31 70
3 71 72 31
3 73 72 71
3 73 32 72
3 74 75 16
3 76 75 74
3 76 33 75
3 76 77 33
3 78 77 76
3 78 34 77
3 78 79 34
3 80 79 78
3 80 35 79
3 81 82 17
3 83 82 81
3 83 36 82
3 83 84 36
3 85 84 83
3 85 37 84
3 85 86 37
3 296 86 297
3 298 297 85
3 296 297 298
3 300 299 86
3 87 88 3
3 89 88 87
3 89 301 303
3 303 302 88
3 301 302 303
3 304 89 305
3 306 305 9
3 304 305 306
3 307 89 308
3 310 309 89
3 90 311 312
3 90 313 314
3 90 315 316
3 91 317 319
3 319 318 90
3 317 318 319
3 91 320 322
3 320 4 321
3 320 321 322
3 92 93 2
3 94 93 92
3 94 11 93
3 41 94 10
3 95 94 41
3 95 11 94
3 95 54 11
3 96 54 95
3 96 5 54
3 96 97 5
3 98 97 96
3 98 13 97
3 43 98 12
3 99 98 43
3 99 13 98
3 99 61 13
3 100 61 99
3 100 6 61
3 101 323 324
3 101 325 327
3 325 15 326
3 325 326 327
3 328 101 329
3 102 330 332
3 330 101 331
3 330 331 332
3 102 15 101
3 102 69 15
3 103 69 102
3 103 7 69
3 333 16 334
3 335 16 336
3 337 74 338
3 339 338 16
3 337 338 339
3 104 340 342
3 340 74 341
3 340 341 342
3 104 8 74
3 104 105 8
3 106 105 104
3 106 17 105
3 343 106 344
3 343 344 345
3 346 106 347
3 348 17 349
3 350 349 106
3 348 349 350
3 351 81 352
3 353 352 17
3 351 352 353
3 354 81 355
3 357 356 81
3 358 18 359
3 107 360 361
3 107 362 364
3 362 18 363
3 362 363 364
3 107 51 18
3 108 51 107
3 108 2 51
3 365 19 366
3 109 367 368
3 109 369 371
3 369 19 370
3 369 370 371
3 109 108 19
3 110 108 109
3 110 2 108
3 110 92 2
3 111 92 110
3 111 10 92
3 46 111 20
3 112 111 46
3 112 10 111
3 112 40 10
3 113 40 112
3 113 1 40
3 372 114 373
3 115 374 376
3 374 114 375
3 374 375 376
3 115 377 379
3 379 378 114
3 377 378 379
3 48 115 21
3 380 115 381
3 382 381 48
3 380 381 382
3 384 383 115
3 88 49 3
3 385 49 386
3 387 386 88
3 385 386 387
3 389 388 49
3 116 390 391
3 116 392 393
3 117 394 395
3 117 396 397
3 52 117 18
3 118 117 52
3 118 398 400
3 400 399 117
3 398 399 400
3 118 401 403
3 401 91 402
3 401 402 403
3 119 91 118
3 119 4 91
3 93 53 2
3 120 53 93
3 120 23 53
3 55 120 11
3 121 120 55
3 121 23 120
3 121 119 23
3 122 119 121
3 122 4 119
3 122 50 4
3 123 50 122
3 123 22 50
3 57 123 24
3 124 123 57
3 124 22 123
3 124 116 22
3 404 116 405
3 406 405 124
3 404 405 406
3 408 407 116
3 125 409 410
3 125 411 413
3 411 21 412
3 411 412 413
3 59 125 25
3 126 125 59
3 126 21 125
3 126 47 21
3 127 47 126
3 127 3 47
3 97 60 5
3 128 60 97
3 128 26 60
3 62 128 13
3 129 128 62
3 129 26 128
3 129 127 26
3 130 127 129
3 130 3 127
3 130 87 3
3 131 87 130
3 131 9 87
3 64 131 27
3 132 131 64
3 132 9 131
3 132 38 9
3 133 38 132
3 133 0 38
3 414 113 415
3 416 113 417
3 418 1 419
3 420 419 113
3 418 419 420
3 134 421 422
3 134 423 425
3 423 1 424
3 423 424 425
3 134 44 1
3 135 44 134
3 135 14 44
3 67 135 29
3 136 135 67
3 136 14 135
3 136 100 14
3 137 100 136
3 137 6 100
3 426 68 427
3 138 428 430
3 428 68 429
3 428 429 430
3 138 30 68
3 70 138 15
3 139 138 70
3 139 30 138
3 139 137 30
3 140 137 139
3 140 6 137
3 140 65 6
3 141 65 140
3 141 28 65
3 72 141 31
3 142 141 72
3 142 28 141
3 142 133 28
3 143 133 142
3 143 0 133
3 75 431 433
3 433 432 16
3 431 432 433
3 435 434 75
3 77 436 438
3 438 437 33
3 436 437 438
3 440 439 77
3 144 441 442
3 144 443 444
3 79 144 34
3 145 144 79
3 145 445 447
3 447 446 144
3 445 446 447
3 145 448 450
3 448 103 449
3 448 449 450
3 146 103 145
3 146 7 103
3 105 80 8
3 147 80 105
3 147 35 80
3 82 147 17
3 148 147 82
3 148 35 147
3 148 146 35
3 149 146 148
3 149 7 146
3 149 73 7
3 150 73 149
3 150 32 73
3 84 150 36
3 151 150 84
3 151 32 150
3 151 143 32
3 152 143 151
3 152 0 143
3 152 39 0
3 153 39 152
3 153 451 453
3 453 452 39
3 451 452 453
3 86 153 37
3 454 153 455
3 456 455 86
3 454 455 456
3 458 457 153
3 114 459 460
3 462 461 114
