ply
format ascii 1.0
element vertex 125
property float x
property float y
property float z
element face 104
property list uchar int vertex_index
end_header
54.57621 -77.284828 2.948848
55.240547 -79.566299 -5.69832
55.095173 -78.526535 -1.392099
58.600723 -73.927521 -1.096321
59.017822 -74.217331 -5.30805
53.976295 -75.784882 7.454169
51.334396 -79.970055 7.332267
56.155907 -75.203514 3.056856
56.526909 -75.721275 0.892951
55.223221 -79.060402 -3.541334
57.008537 -76.490784 -3.360943
57.075623 -76.794151 -5.483103
59.021629 -74.309464 -7.422398
57.027245 -77.092018 -7.617304
53.095795 -79.535339 2.836582
54.86866 -77.939781 0.765172
53.347019 -80.347221 0.619023
56.821198 -76.144272 -1.240736
58.878769 -74.106232 -3.202776
54.263489 -76.56192 5.175166
52.599564 -77.791824 7.396065
52.827484 -78.678757 5.091443
55.153198 -80.067535 -7.871649
52.578779 -81.167851 1.6554
53.221407 -79.94128 1.727802
52.453167 -80.76191 2.76418
59.445124 -72.874108 -1.018943
58.399074 -73.785427 -0.035407
59.651976 -72.893913 -2.069207
59.445124 -72.874108 -1.018943
59.985416 -73.009487 -5.224752
59.91589 -72.953937 -4.172116
58.948296 -74.161782 -4.255413
60.02908 -72.958466 -6.278659
59.985416 -73.009487 -5.224752
60.0019 -72.961167 -8.395999
58.964546 -74.368657 -8.48571
54.86174 -75.187977 6.359525
54.657055 -74.841237 7.489356
54.119892 -76.173401 6.314668
55.005337 -75.576496 5.220023
54.86174 -75.187977 6.359525
51.96698 -78.88094 7.364166
51.907028 -78.378746 8.56007
51.274445 -79.467861 8.528171
51.444307 -80.47749 6.161219
52.190851 -79.83184 5.040807
52.08094 -79.324406 6.211855
55.064453 -80.320931 -8.965155
54.302597 -81.650982 -8.047942
56.016323 -78.740044 -8.818157
55.064453 -80.320931 -8.965155
57.176666 -74.423423 2.041182
56.926521 -74.219421 3.11711
57.362167 -74.682304 0.95923
57.176666 -74.423423 2.041182
56.341408 -75.462395 1.974903
57.563816 -74.824398 -0.101685
58.399074 -73.785427 -0.035407
57.362167 -74.682304 0.95923
57.967354 -75.759933 -8.583163
58.964546 -74.368657 -8.48571
58.024437 -75.700741 -7.519851
53.862129 -75.378841 8.620683
54.657055 -74.841237 7.489356
50.727169 -80.595554 8.501901
51.274445 -79.467861 8.528171
50.800975 -81.157689 7.282744
50.727169 -80.595554 8.501901
52.69148 -81.656444 0.520767
52.578779 -81.167851 1.6554
53.438327 -80.729843 -0.480179
52.69148 -81.656444 0.520767
54.312404 -79.8195 -1.485739
54.221096 -79.436878 -0.386538
53.438327 -80.729843 -0.480179
54.376429 -80.086433 -2.560357
55.159197 -78.793468 -2.466716
54.312404 -79.8195 -1.485739
54.417212 -80.450519 -3.659555
54.376429 -80.086433 -2.560357
54.425874 -80.703468 -4.738048
55.231884 -79.31335 -4.619827
54.417212 -80.450519 -3.659555
59.790999 -72.983269 -3.122434
59.651976 -72.893913 -2.069207
58.739746 -74.016876 -2.149548
59.790999 -72.983269 -3.122434
59.91589 -72.953937 -4.172116
60.030983 -73.004532 -7.335833
60.02908 -72.958466 -6.278659
59.019725 -74.263397 -6.365224
60.030983 -73.004532 -7.335833
60.0019 -72.961167 -8.395999
55.951546 -74.897293 4.160868
56.926521 -74.219421 3.11711
55.209698 -75.882717 4.116011
55.951546 -74.897293 4.160868
55.005337 -75.576496 5.220023
53.217557 -76.340065 8.604162
53.862129 -75.378841 8.620683
52.529192 -77.343536 8.575109
51.907028 -78.378746 8.56007
53.28793 -76.788353 7.425117
53.217557 -76.340065 8.604162
52.529192 -77.343536 8.575109
52.325007 -80.260131 3.913377
52.96164 -79.107048 3.964012
52.190851 -79.83184 5.040807
52.453167 -80.76191 2.76418
52.325007 -80.260131 3.913377
51.444307 -80.47749 6.161219
50.800975 -81.157689 7.282744
54.411554 -81.055851 -5.844644
54.425874 -80.703468 -4.738048
54.36788 -81.306469 -6.931309
54.302597 -81.650982 -8.047942
55.196872 -79.816917 -6.784985
54.411554 -81.055851 -5.844644
54.36788 -81.306469 -6.931309
56.953346 -77.252285 -8.690985
56.090221 -78.579777 -7.744476
56.016323 -78.740044 -8.818157
57.967354 -75.759933 -8.583163
56.953346 -77.252285 -8.690985
3 0 8 7
3 1 11 9
3 1 13 11
3 23 16 24
3 25 24 14
3 23 24 25
3 3 26 27
3 3 28 29
3 2 17 15
3 4 18 10
3 4 30 32
3 32 31 18
3 30 31 32
3 4 33 34
3 36 35 12
3 5 37 38
3 5 39 41
3 39 19 40
3 39 40 41
3 6 42 44
3 42 20 43
3 42 43 44
3 6 21 20
3 6 45 47
3 47 46 21
3 45 46 47
3 48 22 49
3 51 50 22
3 7 52 53
3 8 54 56
3 56 55 7
3 54 55 56
3 8 57 59
3 57 3 58
3 57 58 59
3 9 10 2
3 11 10 9
3 11 4 10
3 11 12 4
3 13 12 11
3 13 60 62
3 62 61 12
3 60 61 62
3 63 5 64
3 65 6 66
3 68 67 6
3 14 15 0
3 16 15 14
3 16 2 15
3 69 16 70
3 71 16 72
3 73 2 74
3 75 74 16
3 73 74 75
3 76 9 77
3 78 77 2
3 76 77 78
3 79 9 80
3 81 1 82
3 83 82 9
3 81 82 83
3 15 8 0
3 17 8 15
3 17 3 8
3 10 17 2
3 18 17 10
3 18 3 17
3 18 84 86
3 86 85 3
3 84 85 86
3 88 87 18
3 12 89 91
3 91 90 4
3 89 90 91
3 93 92 12
3 94 7 95
3 19 96 98
3 96 7 97
3 96 97 98
3 19 0 7
3 99 5 100
3 20 101 102
3 20 103 105
3 103 5 104
3 103 104 105
3 20 19 5
3 21 19 20
3 21 0 19
3 21 14 0
3 106 14 107
3 108 107 21
3 106 107 108
3 110 109 14
3 112 111 6
3 113 1 114
3 22 115 116
3 22 117 119
3 117 1 118
3 117 118 119
3 22 13 1
3 120 13 121
3 122 121 22
3 120 121 122
3 124 123 13
