ply
format ascii 1.0
element vertex 81
property float x
property float y
property float z
element face 52
property list uchar int vertex_index
end_header
-32.60841 -60.476326 -28.025295
-30.779259 -59.416798 -25.634109
-37.044262 -56.253963 -32.103672
-28.471516 -61.71014 -22.579571
-31.626623 -60.068386 -26.818398
-37.120129 -60.136654 -31.231541
-29.363037 -62.772846 -23.603561
-37.042153 -54.310392 -32.543936
-37.926285 -54.124803 -32.956007
-28.103371 -63.841063 -22.164822
-27.611247 -63.218809 -21.705914
-38.126452 -59.858343 -31.625475
-37.191954 -62.069311 -30.804854
-38.030804 -57.965935 -32.074602
-38.126452 -59.858343 -31.625475
-31.877091 -62.36826 -26.99193
-32.438793 -62.546005 -27.603275
-30.496814 -61.525923 -25.190864
-30.920496 -61.851717 -25.783009
-31.202941 -59.742592 -26.226253
-30.071148 -61.094822 -24.618835
-29.788703 -63.203947 -24.17559
-30.496814 -61.525923 -25.190864
-30.359847 -58.98414 -25.084179
-29.651736 -60.662165 -24.068905
-30.071148 -61.094822 -24.618835
-36.224783 -56.387922 -31.626005
-36.188341 -58.376874 -31.191479
-36.224783 -56.387922 -31.626005
-37.042153 -54.310392 -32.543936
-27.957735 -61.095165 -22.150442
-27.611247 -63.218809 -21.705914
-28.733041 -59.607548 -23.078005
-27.957735 -61.095165 -22.150442
-32.297797 -58.212507 -27.874477
-32.117517 -60.272356 -27.421847
-32.788691 -58.416477 -28.477926
-31.845555 -57.99136 -27.289759
-32.297797 -58.212507 -27.874477
-31.421873 -57.665565 -26.697615
-31.202941 -59.742592 -26.226253
-31.845555 -57.99136 -27.289759
-31.000797 -57.335402 -26.133201
-31.421873 -57.665565 -26.697615
-33.217357 -60.548495 -28.610726
-32.438793 -62.546005 -27.603275
-33.331877 -58.518667 -29.051351
-33.217357 -60.548495 -28.610726
-32.788691 -58.416477 -28.477926
-33.331877 -58.518667 -29.051351
-36.227943 -62.302031 -30.337483
-37.191954 -62.069311 -30.804854
-36.226275 -60.31822 -30.755413
-36.227943 -62.302031 -30.337483
-37.082195 -58.195308 -31.667607
-36.188341 -58.376874 -31.191479
-36.226275 -60.31822 -30.755413
-37.992871 -56.02459 -32.510668
-37.082195 -58.195308 -31.667607
-38.030804 -57.965935 -32.074602
-37.926285 -54.124803 -32.956007
-37.992871 -56.02459 -32.510668
-31.386198 -62.164289 -26.388481
-31.877091 -62.36826 -26.99193
-32.117517 -60.272356 -27.421847
-31.386198 -62.164289 -26.388481
-30.920496 -61.851717 -25.783009
-29.004368 -64.904016 -23.206087
-29.788703 -63.203947 -24.17559
-28.549132 -64.372416 -22.676817
-29.004368 -64.904016 -23.206087
-28.917276 -62.241493 -23.091566
-28.103371 -63.841063 -22.164822
-28.549132 -64.372416 -22.676817
-29.205976 -60.130812 -23.55691
-28.917276 -62.241493 -23.091566
-29.651736 -60.662165 -24.068905
-28.733041 -59.607548 -23.078005
-29.205976 -60.130812 -23.55691
-30.359847 -58.98414 -25.084179
-31.000797 -57.335402 -26.133201
3 8 7 2
3 9 3 10
3 11 5 12
3 14 13 5
3 0 15 16
3 1 17 19
3 19 18 4
3 17 18 19
3 1 20 22
3 20 6 21
3 20 21 22
3 1 23 25
3 25 24 6
3 23 24 25
3 2 26 27
3 29 28 2
3 3 30 31
3 3 32 33
3 34 4 35
3 36 35 0
3 34 35 36
3 37 4 38
3 39 1 40
3 41 40 4
3 39 40 41
3 43 42 1
3 44 0 45
3 46 0 47
3 49 48 0
3 5 50 51
3 5 52 53
3 5 54 56
3 54 2 55
3 54 55 56
3 57 2 58
3 59 58 5
3 57 58 59
3 61 60 2
3 4 62 64
3 64 63 0
3 62 63 64
3 66 65 4
3 6 67 68
3 6 69 70
3 6 71 73
3 71 3 72
3 71 72 73
3 74 3 75
3 76 75 6
3 74 75 76
3 78 77 3
3 80 79 1
