ply
format ascii 1.0
element vertex 437
property float x
property float y
property float z
element face 435
property list uchar int vertex_index
end_header
52.572174 43.289768 1.791972
54.830681 33.506935 15.139504
46.587601 64.070152 -11.347015
51.473625 53.578568 -5.606697
47.220535 54.726784 -13.422504
46.326263 46.416252 -4.081184
53.383507 49.784485 3.517124
56.280018 38.873962 8.346491
48.848511 39.67392 2.597615
52.334118 37.569599 4.579227
52.395519 48.531067 -1.839567
49.964645 50.027313 -5.5121
49.53849 45.153931 -1.149675
53.223366 47.438492 8.465079
56.22813 36.363567 11.829028
56.718315 32.942413 9.046719
44.469658 50.284889 -12.244444
41.613773 48.615288 -15.16765
49.567951 58.739067 -8.875736
47.92038 59.370064 -13.140818
49.58989 54.651321 -9.730436
47.265182 50.726288 -9.000563
54.253468 46.600441 2.075733
54.964775 41.15818 4.940167
55.225182 44.434402 6.28862
55.107372 42.042603 10.662028
50.523365 57.248726 -4.175072
52.783287 51.867645 -1.187019
55.120007 35.313824 6.700931
55.01091 29.03587 7.163147
50.893784 41.542385 2.075253
50.645348 38.652325 3.584949
52.48444 40.50053 3.327242
52.556923 45.955856 0.040083
51.235985 46.863358 -1.648607
51.105911 44.271839 0.306839
49.198128 42.50515 0.841825
55.679955 34.983494 13.516178
56.578117 33.390682 11.862485
56.059868 31.986568 13.326954
45.773697 64.303749 -13.523983
43.049595 49.595665 -13.746052
50.65213 56.132256 -7.331806
49.872063 56.67585 -9.504318
50.595505 54.216858 -7.710747
48.345703 48.2575 -4.929871
48.633774 50.501419 -7.280508
46.865776 48.640694 -6.548836
45.405853 48.749802 -8.154474
44.776409 46.689201 -5.588024
54.121532 48.207153 2.656427
54.866409 45.542519 4.147772
54.402924 47.118088 4.939976
52.872086 46.16761 10.96876
54.264511 44.76202 9.6443
53.843422 43.479877 11.991651
54.621525 40.733879 12.811973
49.128208 60.025764 -5.446899
49.335655 59.08622 -2.948349
52.187668 52.47274 2.112988
52.050011 53.545815 -0.350225
53.178299 50.862328 1.128813
53.619774 49.236572 0.446042
55.780342 40.036697 6.617798
55.094482 38.292984 5.989019
55.993767 37.144405 7.413429
56.815601 29.848003 8.873598
56.119217 31.055309 7.940697
56.116951 27.882214 7.766338
47.848846 57.020851 -13.480118
50.396217 35.594662 4.797118
52.156197 34.493114 5.518784
52.046261 51.057182 -3.751574
51.034378 51.789078 -5.751032
51.230717 49.353737 -3.700119
49.816032 47.647354 -3.299397
47.927841 45.887032 -2.605169
52.167847 51.325691 4.642399
53.396786 48.642746 5.969716
56.432926 37.655426 10.095437
56.55632 35.955647 8.883872
56.752602 34.710011 10.375437
56.973614 31.680557 10.280743
46.061764 52.492554 -12.990051
44.635525 51.934845 -14.533268
43.139183 51.073418 -15.955599
41.578556 49.939369 -17.274729
39.967213 48.575226 -18.521833
53.748253 31.934479 16.699427
48.214554 61.39534 -10.213362
47.472328 61.739021 -12.417162
48.836151 59.185318 -11.080431
48.939331 56.987099 -11.564869
48.464745 54.834641 -11.643148
49.912292 52.344902 -7.687168
48.702293 52.675423 -9.550917
47.417305 52.735413 -11.32498
45.874989 50.661659 -10.659872
43.983135 48.552231 -9.736996
53.726795 44.965534 1.786997
53.877739 42.244656 3.331319
54.694599 43.919361 3.606999
55.414047 42.829643 5.502057
55.846329 41.695747 7.457454
54.451912 45.971466 7.279763
55.309006 43.271435 8.472841
55.963745 40.507114 9.442381
55.753387 39.248459 11.416742
55.220455 37.903927 13.340206
53.316307 34.914661 16.928873
48.760117 60.808647 -7.876961
50.127823 58.07885 -6.564802
51.278992 55.403275 -5.074032
51.746941 54.530327 -2.745548
52.209251 52.782555 -3.431257
52.918591 50.194466 -1.688112
53.417175 47.602737 0.081573
53.905552 39.411999 4.626633
53.847473 36.453159 5.611998
53.739452 33.367561 6.270094
56.092361 34.147984 7.848783
55.079903 32.223915 7.073769
53.613377 30.165581 6.636653
56.429665 28.943535 12.815775
46.512215 61.791801 -14.4433
38.330296 57.0467 -21.386751
46.180649 64.18695 -12.435499
45.227125 65.507035 -12.914078
45.634077 65.390236 -11.825595
45.213448 45.417776 -3.578247
44.43852 45.55425 -4.331667
45.551336 46.552726 -4.834604
53.097542 44.151046 12.714947
53.357754 44.823744 11.480206
52.611874 45.494913 12.203501
53.520416 42.796543 13.134521
53.097542 44.151046 12.714947
48.604656 59.983173 -2.194006
48.565022 60.50882 -3.4878
56.506935 27.287487 8.114667
56.466276 28.865108 8.319968
56.85626 28.270381 8.668297
56.509077 25.67 7.957273
56.119093 26.264727 7.608944
56.506935 27.287487 8.114667
46.906669 55.734867 -14.321313
47.220825 56.881901 -14.350119
47.53469 55.873818 -13.451311
48.688147 38.162016 3.333784
47.733755 38.647574 2.945316
48.499994 44.248152 -0.778801
47.69467 44.614702 -1.506548
48.733165 45.520482 -1.877422
47.929673 40.132765 2.087372
48.104481 41.54838 1.209477
49.023319 41.089535 1.71972
47.733755 38.647574 2.945316
47.929673 40.132765 2.087372
52.086951 50.719109 5.934605
51.410527 52.074478 5.329256
51.410527 52.074478 5.329256
51.48592 52.690601 4.009357
56.91876 31.014885 10.909652
56.775865 32.535619 11.071614
56.721012 31.869947 11.700523
57.063361 30.13439 10.076579
56.91876 31.014885 10.909652
40.888884 47.997867 -15.846069
40.871275 48.659908 -16.899608
41.596165 49.277328 -16.22119
53.999153 30.430546 16.443399
53.134418 31.105663 17.456775
43.645617 47.608483 -8.430454
44.694494 48.651016 -8.945735
44.356976 47.707268 -7.639194
42.960111 47.436138 -9.207595
43.645617 47.608483 -8.430454
54.543447 38.617869 14.111293
54.92099 39.318903 13.07609
54.243983 40.032844 13.847176
54.806086 37.182585 14.261114
54.543447 38.617869 14.111293
52.501694 35.564451 17.811959
53.094471 36.370576 16.887463
52.689872 34.090763 17.758159
52.501694 35.564451 17.811959
48.165646 61.823139 -7.217071
47.968868 62.186798 -8.443041
54.252544 27.949787 6.980549
53.553778 28.514643 6.717302
54.312144 29.600725 6.8999
56.085875 28.206555 13.467285
55.842804 29.719591 13.79033
38.346201 55.478234 -21.46652
39.339268 56.283119 -20.946064
37.298954 54.588279 -21.970858
37.283049 56.156746 -21.891089
38.346201 55.478234 -21.46652
38.517414 46.478733 -18.78705
39.147074 47.799542 -19.127699
39.337553 47.254418 -18.181185
56.461888 31.16789 12.432758
56.721012 31.869947 11.700523
56.318993 32.688625 12.59472
44.756523 65.564995 -13.981233
45.227125 65.507035 -12.914078
45.242233 64.260666 -14.508507
44.756523 65.564995 -13.981233
42.826614 48.815906 -12.515245
43.759626 49.940277 -12.995248
43.536646 49.160518 -11.76444
42.157512 48.403824 -13.267558
42.826614 48.815906 -12.515245
41.439602 47.913635 -13.978357
42.331684 49.105476 -14.456851
42.157512 48.403824 -13.267558
40.788431 47.361927 -14.709646
41.439602 47.913635 -13.978357
44.042254 46.676968 -6.355968
44.356976 47.707268 -7.639194
45.091131 47.719501 -6.871249
43.674196 45.622301 -5.055627
44.042254 46.676968 -6.355968
43.674196 45.622301 -5.055627
44.43852 45.55425 -4.331667
53.909468 41.423544 13.544681
54.232473 42.106878 12.401812
53.520416 42.796543 13.134521
54.243983 40.032844 13.847176
53.909468 41.423544 13.544681
48.461298 60.978592 -4.737075
48.349691 61.431697 -6.00204
49.231932 59.555992 -4.197624
48.461298 60.978592 -4.737075
48.565022 60.50882 -3.4878
52.118839 53.009277 0.881382
51.449087 54.37981 0.223137
51.517916 53.843273 1.454743
55.530236 26.824402 7.420951
54.977215 27.40123 7.119356
55.56393 28.459042 7.464742
55.530236 26.824402 7.420951
56.119093 26.264727 7.608944
47.32759 58.135818 -14.249028
47.363357 59.310425 -14.079379
47.884613 58.195458 -13.310468
47.32759 58.135818 -14.249028
47.220825 56.881901 -14.350119
49.586565 37.651218 3.82745
48.688147 38.162016 3.333784
49.74693 39.163123 3.091282
49.462 36.122387 4.433535
49.586565 37.651218 3.82745
50.520782 37.123493 4.191033
49.327576 34.517027 5.023557
49.462 36.122387 4.433535
50.283772 33.985613 5.256451
49.327576 34.517027 5.023557
51.163761 33.434839 5.617284
50.283772 33.985613 5.256451
51.276207 35.043888 5.157951
52.067432 32.886425 5.841641
51.163761 33.434839 5.617284
46.836176 44.943032 -2.155711
46.035387 45.207642 -2.893719
47.127052 46.151642 -3.343177
46.836176 44.943032 -2.155711
47.69467 44.614702 -1.506548
48.329813 42.923761 0.216949
48.499994 44.248152 -0.778801
49.368309 43.829541 -0.153925
48.329813 42.923761 0.216949
48.104481 41.54838 1.209477
52.70142 49.377636 6.598263
52.782317 49.984218 5.306057
52.086951 50.719109 5.934605
52.61471 48.775509 7.845944
53.310076 48.040619 7.217397
52.70142 49.377636 6.598263
52.471878 48.137073 9.153668
52.61471 48.775509 7.845944
52.296238 47.501632 10.405508
53.047726 46.803051 9.716919
52.471878 48.137073 9.153668
52.09853 46.830204 11.710973
52.296238 47.501632 10.405508
52.611874 45.494913 12.203501
52.09853 46.830204 11.710973
51.49583 53.264126 2.744651
51.517916 53.843273 1.454743
52.177757 51.899215 3.377694
51.49583 53.264126 2.744651
51.48592 52.690601 4.009357
56.984354 29.218113 9.373006
56.894607 30.76428 9.57717
57.063361 30.13439 10.076579
57.025013 27.640491 9.167706
56.85626 28.270381 8.668297
56.984354 29.218113 9.373006
45.957872 53.398258 -14.01892
46.537258 54.515374 -14.235146
46.641149 53.609669 -13.206277
45.244753 53.119404 -14.790529
45.957872 53.398258 -14.01892
45.348644 52.2137 -13.76166
44.49989 52.749932 -15.523179
45.244753 53.119404 -14.790529
43.751719 52.319218 -16.234344
44.49989 52.749932 -15.523179
43.887354 51.504131 -15.244433
42.948941 51.802692 -16.894613
43.751719 52.319218 -16.234344
42.168627 51.235668 -17.554178
42.948941 51.802692 -16.894613
42.358869 50.506394 -16.615164
41.31682 50.591766 -18.15951
42.168627 51.235668 -17.554178
40.772885 49.257297 -17.898281
40.511149 49.909695 -18.783062
41.31682 50.591766 -18.15951
40.065604 47.977836 -17.523161
40.772885 49.257297 -17.898281
40.871275 48.659908 -16.899608
39.337553 47.254418 -18.181185
40.065604 47.977836 -17.523161
40.888884 47.997867 -15.846069
40.788431 47.361927 -14.709646
54.502098 31.215063 15.732157
55.043312 32.001291 14.952195
54.289467 32.720707 15.919466
54.502098 31.215063 15.732157
53.999153 30.430546 16.443399
43.293385 48.29419 -10.510717
43.536646 49.160518 -11.76444
44.226396 49.41856 -10.99072
43.293385 48.29419 -10.510717
42.960111 47.436138 -9.207595
45.213448 45.417776 -3.578247
46.035387 45.207642 -2.893719
55.035836 35.722369 14.3491
55.450205 36.443711 13.428192
54.806086 37.182585 14.261114
54.611199 34.984089 15.160763
55.255318 34.245215 14.327841
55.035836 35.722369 14.3491
53.854011 35.687952 16.055447
53.094471 36.370576 16.887463
54.073494 34.210798 16.034188
54.611199 34.984089 15.160763
53.854011 35.687952 16.055447
52.905845 32.600672 17.643436
53.53228 33.42457 16.81415
52.689872 34.090763 17.758159
53.134418 31.105663 17.456775
52.905845 32.600672 17.643436
45.980355 65.182857 -10.664703
45.634077 65.390236 -11.825595
46.88261 63.81755 -10.178068
45.980355 65.182857 -10.664703
47.696087 62.480144 -9.611242
47.401077 62.732746 -10.780189
46.88261 63.81755 -10.178068
48.487336 61.101993 -9.045161
47.696087 62.480144 -9.611242
47.968868 62.186798 -8.443041
48.944163 60.417206 -6.66193
48.165646 61.823139 -7.217071
48.349691 61.431697 -6.00204
49.368321 58.55339 -1.670131
48.604656 59.983173 -2.194006
50.048008 57.685451 -2.334329
49.368321 58.55339 -1.670131
50.641863 56.766705 -2.947691
49.92951 58.167473 -3.561711
50.048008 57.685451 -2.334329
51.405186 54.915249 -1.035268
51.449087 54.37981 0.223137
51.253651 55.407505 -2.232929
51.405186 54.915249 -1.035268
51.898476 54.038071 -1.547886
51.135153 55.889527 -3.46031
50.641863 56.766705 -2.947691
51.253651 55.407505 -2.232929
52.85906 32.323649 6.217296
52.067432 32.886425 5.841641
52.947824 33.930338 5.894439
52.796022 30.722659 6.400576
52.85906 32.323649 6.217296
53.676414 31.766571 6.453373
52.717264 29.055952 6.609922
52.796022 30.722659 6.400576
52.717264 29.055952 6.609922
53.553778 28.514643 6.717302
54.252544 27.949787 6.980549
54.977215 27.40123 7.119356
55.657905 31.241107 14.04592
55.445274 32.746752 14.233229
55.043312 32.001291 14.952195
56.244766 30.465052 13.071365
55.657905 31.241107 14.04592
55.842804 29.719591 13.79033
56.646786 29.646374 12.177168
56.461888 31.16789 12.432758
56.244766 30.465052 13.071365
56.642474 27.41848 12.44736
56.085875 28.206555 13.467285
56.789378 28.106257 11.877235
56.642474 27.41848 12.44736
56.646786 29.646374 12.177168
56.789378 28.106257 11.877235
45.611492 63.004692 -14.968166
45.242233 64.260666 -14.508507
46.142956 63.047775 -13.983642
46.659275 60.521293 -14.730619
47.216297 60.580933 -13.792059
47.363357 59.310425 -14.079379
45.914289 61.652962 -15.348034
46.659275 60.521293 -14.730619
45.013567 62.865853 -15.872899
45.611492 63.004692 -14.968166
45.914289 61.652962 -15.348034
46.906669 55.734867 -14.321313
46.537258 54.515374 -14.235146
39.335775 57.82898 -20.862291
39.339268 56.283119 -20.946064
38.151457 58.679317 -21.228908
39.156937 59.461597 -20.704448
39.335775 57.82898 -20.862291
37.092779 57.806469 -21.741343
38.151457 58.679317 -21.228908
37.092779 57.806469 -21.741343
37.283049 56.156746 -21.891089
39.624384 49.161473 -19.356642
40.511149 49.909695 -18.783062
38.804245 48.385788 -19.962507
39.624384 49.161473 -19.356642
39.147074 47.799542 -19.127699
3 0 32 30
3 0 35 33
3 0 30 35
3 1 39 37
3 2 126 128
3 126 40 127
3 126 127 128
3 3 44 42
3 5 47 45
3 5 49 47
3 5 129 131
3 131 130 49
3 129 130 131
3 6 52 50
3 132 55 133
3 134 133 53
3 132 133 134
3 136 135 55
3 137 58 138
3 6 61 59
3 6 50 61
3 7 65 63
3 139 68 140
3 141 140 66
3 139 140 141
3 144 143 68
3 142 143 144
3 4 145 147
3 147 146 69
3 145 146 147
3 8 148 149
3 9 70 31
3 9 71 70
3 10 74 72
3 12 75 34
3 12 76 75
3 12 150 152
3 152 151 76
3 150 151 152
3 8 153 155
3 155 154 36
3 153 154 155
3 8 156 157
3 159 158 77
3 160 77 161
3 14 81 79
3 162 82 163
3 164 163 38
3 162 163 164
3 166 165 82
3 16 84 83
3 17 85 41
3 17 86 85
3 17 167 169
3 169 168 86
3 167 168 169
3 171 170 88
3 18 91 89
3 20 92 43
3 20 93 92
3 11 94 73
3 21 95 46
3 21 96 95
3 21 97 96
3 172 98 173
3 174 173 48
3 172 173 174
3 176 175 98
3 22 101 99
3 24 102 51
3 24 103 102
3 13 104 78
3 25 105 54
3 25 106 105
3 25 107 106
3 177 108 178
3 179 178 56
3 177 178 179
3 181 180 108
3 182 109 183
3 185 184 109
3 186 110 187
3 26 111 57
3 26 112 111
3 27 113 60
3 27 114 113
3 27 115 114
3 22 116 62
3 22 99 116
3 23 117 100
3 28 118 64
3 28 119 118
3 15 120 80
3 29 121 67
3 29 122 121
3 29 188 190
3 190 189 122
3 188 189 190
3 191 123 192
3 19 124 90
3 193 125 194
3 197 196 125
3 195 196 197
3 200 199 87
3 198 199 200
3 30 31 8
3 32 31 30
3 32 9 31
3 33 34 10
3 35 34 33
3 35 12 34
3 35 36 12
3 30 36 35
3 30 8 36
3 37 38 14
3 39 38 37
3 39 201 203
3 203 202 38
3 201 202 203
3 40 204 205
3 40 206 207
3 208 41 209
3 210 209 16
3 208 209 210
3 211 41 212
3 213 17 214
3 215 214 41
3 213 214 215
3 217 216 17
3 42 43 18
3 44 43 42
3 44 20 43
3 45 46 11
3 47 46 45
3 47 21 46
3 47 48 21
3 49 48 47
3 49 218 220
3 220 219 48
3 218 219 220
3 49 221 222
3 224 223 49
3 50 51 22
3 52 51 50
3 52 24 51
3 53 54 13
3 55 54 53
3 55 25 54
3 55 56 25
3 225 56 226
3 227 226 55
3 225 226 227
3 229 228 56
3 230 57 231
3 58 232 234
3 232 57 233
3 232 233 234
3 58 26 57
3 59 235 237
3 235 60 236
3 235 236 237
3 61 60 59
3 61 27 60
3 61 62 27
3 50 62 61
3 50 22 62
3 63 64 23
3 65 64 63
3 65 28 64
3 66 67 15
3 68 67 66
3 68 29 67
3 68 238 240
3 240 239 29
3 238 239 240
3 242 241 68
3 69 243 245
3 245 244 19
3 243 244 245
3 247 246 69
3 31 248 250
3 250 249 8
3 248 249 250
3 70 251 253
3 253 252 31
3 251 252 253
3 70 254 255
3 70 256 257
3 71 258 260
3 260 259 70
3 258 259 260
3 71 261 262
3 72 73 3
3 74 73 72
3 74 11 73
3 34 74 10
3 75 74 34
3 75 11 74
3 75 45 11
3 76 45 75
3 76 5 45
3 76 263 265
3 265 264 5
3 263 264 265
3 267 266 76
3 36 268 270
3 270 269 12
3 268 269 270
3 272 271 36
3 77 78 6
3 273 78 274
3 275 274 77
3 273 274 275
3 276 13 277
3 278 277 78
3 276 277 278
3 279 13 280
3 281 53 282
3 283 282 13
3 281 282 283
3 284 53 285
3 287 286 53
3 288 59 289
3 77 290 292
3 290 59 291
3 290 291 292
3 77 6 59
3 79 80 7
3 81 80 79
3 81 15 80
3 38 81 14
3 82 81 38
3 82 15 81
3 82 66 15
3 293 66 294
3 295 294 82
3 293 294 295
3 298 297 66
3 296 297 298
3 83 299 301
3 301 300 4
3 299 300 301
3 84 302 304
3 304 303 83
3 302 303 304
3 84 305 306
3 41 84 16
3 85 84 41
3 85 307 309
3 309 308 84
3 307 308 309
3 85 310 311
3 86 312 314
3 314 313 85
3 312 313 314
3 86 315 316
3 86 317 319
3 317 87 318
3 317 318 319
3 320 87 321
3 322 321 86
3 320 321 322
3 324 323 87
3 326 325 17
3 88 327 329
3 329 328 1
3 327 328 329
3 331 330 88
3 89 90 2
3 91 90 89
3 91 19 90
3 43 91 18
3 92 91 43
3 92 19 91
3 92 69 19
3 93 69 92
3 93 4 69
3 73 44 3
3 94 44 73
3 94 20 44
3 46 94 11
3 95 94 46
3 95 20 94
3 95 93 20
3 96 93 95
3 96 4 93
3 96 83 4
3 97 83 96
3 97 16 83
3 48 97 21
3 98 97 48
3 98 16 97
3 98 332 334
3 334 333 16
3 332 333 334
3 336 335 98
3 338 337 5
3 99 100 0
3 101 100 99
3 101 23 100
3 51 101 22
3 102 101 51
3 102 23 101
3 102 63 23
3 103 63 102
3 103 7 63
3 78 52 6
3 104 52 78
3 104 24 52
3 54 104 13
3 105 104 54
3 105 24 104
3 105 103 24
3 106 103 105
3 106 7 103
3 106 79 7
3 107 79 106
3 107 14 79
3 56 107 25
3 108 107 56
3 108 14 107
3 108 37 14
3 339 37 340
3 341 340 108
3 339 340 341
3 342 1 343
3 344 343 37
3 342 343 344
3 109 345 346
3 109 347 349
3 347 1 348
3 347 348 349
3 109 88 1
3 350 88 351
3 352 351 109
3 350 351 352
3 354 353 88
3 355 2 356
3 357 2 358
3 359 89 360
3 361 360 2
3 359 360 361
3 110 362 364
3 362 89 363
3 362 363 364
3 110 18 89
3 57 365 367
3 365 110 366
3 365 366 367
3 111 110 57
3 111 18 110
3 111 42 18
3 112 42 111
3 112 3 42
3 368 58 369
3 370 58 371
3 372 26 373
3 374 373 58
3 372 373 374
3 60 375 376
3 113 377 379
3 379 378 60
3 377 378 379
3 113 380 382
3 380 26 381
3 380 381 382
3 113 112 26
3 114 112 113
3 114 3 112
3 114 72 3
3 115 72 114
3 115 10 72
3 62 115 27
3 116 115 62
3 116 10 115
3 116 33 10
3 99 33 116
3 99 0 33
3 100 32 0
3 117 32 100
3 117 9 32
3 64 117 23
3 118 117 64
3 118 9 117
3 118 71 9
3 119 71 118
3 119 383 385
3 385 384 71
3 383 384 385
3 80 65 7
3 120 65 80
3 120 28 65
3 67 120 15
3 121 120 67
3 121 28 120
3 121 119 28
3 122 119 121
3 122 386 388
3 388 387 119
3 386 387 388
3 122 389 390
3 392 391 122
3 394 393 29
3 395 39 396
3 397 396 1
3 395 396 397
3 123 398 400
3 398 39 399
3 398 399 400
3 123 401 403
3 403 402 39
3 401 402 403
3 404 123 405
3 406 123 407
3 409 408 123
3 90 40 2
3 124 40 90
3 124 410 412
3 412 411 40
3 410 411 412
3 413 124 414
3 415 414 19
3 413 414 415
3 416 124 417
3 420 419 124
3 418 419 420
3 422 421 4
3 125 423 424
3 125 425 427
3 425 426 427
3 125 428 429
3 431 430 125
3 87 432 433
3 436 435 87
3 434 435 436
