ply
format ascii 1.0
element vertex 300
property float x
property float y
property float z
element face 241
property list uchar int vertex_index
end_header
17.104214 -126.378906 -0.016056
9.300985 -108.816353 -16.79817
11.189243 -123.543571 9.532655
15.296179 -116.884613 -18.845968
21.122803 -124.316162 -1.741852
18.086479 -126.556046 -4.725187
6.80835 -113.818031 -14.895702
9.712988 -118.141617 -15.938604
14.337103 -125.752174 4.223652
18.913204 -124.119774 3.476802
13.373617 -121.355095 -16.493017
18.867472 -125.632195 -0.838724
19.682751 -125.605362 -3.399363
17.495409 -126.583015 -2.10803
7.855177 -111.489265 -15.997972
9.108477 -113.856995 -16.646059
21.500931 -124.871994 -8.87262
12.752546 -124.834091 6.821157
12.131428 -125.956444 4.318621
10.440817 -124.780952 7.018332
12.213722 -122.051147 11.856512
13.670547 -123.406677 9.151277
15.15543 -124.447044 6.509538
12.325773 -117.75985 -17.553507
11.466768 -119.894211 -16.2778
17.312569 -118.189262 -19.087183
18.554497 -115.541306 -19.872435
22.13332 -124.105026 -4.460449
20.546299 -125.360756 -6.126436
18.82856 -126.258553 -7.50152
8.84449 -123.231277 9.819958
8.149637 -116.114632 -15.483189
10.607601 -115.946907 -17.156713
13.452028 -115.288666 -18.498053
5.713406 -111.250885 -14.153496
6.864637 -108.843048 -15.192995
15.853554 -126.264854 1.845835
8.281036 -124.279602 7.13518
16.591015 -125.137413 3.957219
17.874174 -125.49424 1.545321
20.079773 -124.328201 0.895738
8.195843 -122.669548 -10.143696
10.276794 -123.138985 -12.611786
10.811666 -121.686455 -14.633444
12.674538 -123.080132 -14.759495
15.392361 -122.492737 -16.546045
9.865246 -110.036053 -17.146603
9.142342 -111.372509 -16.746504
8.578081 -110.152809 -16.398071
10.703984 -108.574093 -17.441007
9.865246 -110.036053 -17.146603
22.022556 -124.493946 -10.187931
20.59545 -125.272793 -9.558456
14.761819 -118.086345 -18.344271
13.276616 -118.523964 -17.69804
13.810976 -117.322232 -18.199737
16.304374 -117.536937 -18.966575
15.770014 -118.73867 -18.464878
14.761819 -118.086345 -18.344271
21.628062 -124.210594 -3.10115
22.868882 -123.328865 -3.502228
22.363624 -123.434433 -2.142929
7.478993 -114.966331 -15.189445
7.137087 -115.950649 -14.470371
6.466444 -114.802349 -14.176628
11.213679 -114.679523 -17.605055
9.858039 -114.901951 -16.901386
10.464116 -113.634568 -17.349728
12.635892 -114.350403 -18.275724
12.029815 -115.617786 -17.827383
11.213679 -114.679523 -17.605055
14.16068 -113.892406 -18.833534
12.635892 -114.350403 -18.275724
5.295907 -109.834549 -13.702728
4.885467 -110.902687 -13.065247
5.871522 -108.63063 -14.222478
6.289022 -110.046966 -14.673246
5.295907 -109.834549 -13.702728
14.10113 -126.222297 3.008996
14.859355 -126.478637 1.820087
15.095329 -126.008514 3.034744
11.99049 -126.347912 2.979555
11.070051 -125.84272 4.321966
7.492993 -123.376114 8.579553
8.562763 -123.755439 8.477569
7.77472 -122.851952 9.921941
19.496488 -124.223988 2.18627
20.70245 -123.515064 1.878587
20.119166 -123.410851 3.169119
8.399914 -122.081848 -11.285314
7.46901 -121.72834 -10.03015
9.44039 -122.316566 -12.519358
9.236318 -122.904267 -11.377741
8.399914 -122.081848 -11.285314
9.394604 -119.065601 -15.15182
8.60799 -118.080005 -14.95663
9.768992 -112.556374 -17.070547
8.481827 -112.67313 -16.322015
9.142342 -111.372509 -16.746504
10.464116 -113.634568 -17.349728
9.768992 -112.556374 -17.070547
22.915522 -123.957707 -9.370557
22.347157 -124.279412 -8.037422
22.915522 -123.957707 -9.370557
22.022556 -124.493946 -10.187931
10.224746 -125.254974 5.671822
11.070051 -125.84272 4.321966
11.286122 -125.368698 5.668477
13.516983 -121.883362 11.580129
14.139551 -121.024315 12.641934
12.83629 -121.192101 12.918316
14.245396 -122.561127 10.227512
13.516983 -121.883362 11.580129
12.942134 -122.728912 10.503895
14.948415 -123.119182 8.910626
14.245396 -122.561127 10.227512
14.412989 -123.926861 7.830407
15.690857 -123.639366 7.589757
14.948415 -123.119182 8.910626
19.508361 -123.26944 4.488002
20.119166 -123.410851 3.169119
12.847113 -119.591144 -17.060187
11.89627 -118.827031 -16.915653
13.276616 -118.523964 -17.69804
13.800538 -120.321586 -17.167795
12.420192 -120.624653 -16.385408
12.847113 -119.591144 -17.060187
14.821855 -120.933067 -17.245859
13.800538 -120.321586 -17.167795
16.791331 -119.350151 -18.542942
15.770014 -118.73867 -18.464878
18.382743 -118.684768 -19.131845
16.791331 -119.350151 -18.542942
18.9822 -117.409526 -19.574915
18.382743 -118.684768 -19.131845
19.603164 -116.085549 -19.967541
18.9822 -117.409526 -19.574915
17.933533 -116.865284 -19.479809
20.284312 -114.6535 -20.285899
21.332979 -115.197743 -20.381004
19.603164 -116.085549 -19.967541
23.446921 -123.144737 -4.868607
22.868882 -123.328865 -3.502228
22.663351 -123.895927 -5.831337
23.446921 -123.144737 -4.868607
21.869841 -124.523792 -6.664331
22.663351 -123.895927 -5.831337
21.33981 -124.732891 -5.293442
21.023615 -125.116375 -7.499528
22.347157 -124.279412 -8.037422
21.869841 -124.523792 -6.664331
19.259264 -125.966072 -8.872905
20.59545 -125.272793 -9.558456
20.164746 -125.565274 -8.18707
9.28019 -122.588211 11.072676
10.016866 -123.387424 9.676306
10.452566 -122.744358 10.929025
8.121173 -122.312027 11.26097
9.28019 -122.588211 11.072676
7.051403 -121.932701 11.362954
7.77472 -122.851952 9.921941
8.121173 -122.312027 11.26097
11.53435 -121.250103 13.245588
12.83629 -121.192101 12.918316
10.964806 -121.998146 12.090953
11.53435 -121.250103 13.245588
10.452566 -122.744358 10.929025
11.701483 -122.797359 10.694584
10.964806 -121.998146 12.090953
7.826315 -117.066513 -14.728922
7.137087 -115.950649 -14.470371
8.931313 -117.128124 -15.710897
8.60799 -118.080005 -14.95663
7.826315 -117.066513 -14.728922
15.032111 -114.723946 -19.031281
15.954186 -115.521919 -19.205238
14.374104 -116.08664 -18.67201
15.740763 -113.327686 -19.366762
15.032111 -114.723946 -19.031281
14.16068 -113.892406 -18.833534
5.888796 -113.557873 -13.845733
6.466444 -114.802349 -14.176628
5.341324 -112.274299 -13.47463
4.885467 -110.902687 -13.065247
6.260878 -112.534458 -14.524599
5.888796 -113.557873 -13.845733
5.341324 -112.274299 -13.47463
15.731119 -126.600414 0.719116
16.356449 -126.65744 -0.211829
16.478884 -126.32188 0.914889
15.731119 -126.600414 0.719116
14.859355 -126.478637 1.820087
12.998292 -126.324433 3.05648
14.10113 -126.222297 3.008996
13.234265 -125.854309 4.271137
12.998292 -126.324433 3.05648
11.99049 -126.347912 2.979555
9.144856 -125.004299 5.730246
10.224746 -125.254974 5.671822
9.360926 -124.530277 7.076756
7.309945 -123.808033 7.166037
7.492993 -123.376114 8.579553
8.159966 -124.668548 5.714777
7.309945 -123.808033 7.166037
9.144856 -125.004299 5.730246
8.159966 -124.668548 5.714777
18.262298 -123.877335 4.76887
19.508361 -123.26944 4.488002
16.383412 -124.04097 6.285238
15.690857 -123.639366 7.589757
17.101204 -124.386154 5.009079
16.383412 -124.04097 6.285238
15.873223 -124.792228 5.233378
17.752109 -124.628593 3.71701
18.262298 -123.877335 4.76887
17.101204 -124.386154 5.009079
21.800505 -123.524383 -0.780982
22.363624 -123.434433 -2.142929
21.27899 -123.530403 0.537813
20.70245 -123.515064 1.878587
20.601288 -124.322181 -0.423057
21.800505 -123.524383 -0.780982
21.27899 -123.530403 0.537813
16.552046 -126.759495 -1.257816
17.299811 -126.480961 -1.062043
16.356449 -126.65744 -0.211829
16.66873 -126.888947 -2.538314
16.552046 -126.759495 -1.257816
16.964265 -126.875462 -3.846892
17.790944 -126.56953 -3.416608
16.66873 -126.888947 -2.538314
17.212719 -126.842052 -5.238753
16.964265 -126.875462 -3.846892
17.583759 -126.693306 -6.626919
18.45752 -126.407299 -6.113354
17.212719 -126.842052 -5.238753
17.918445 -126.502022 -8.041072
17.583759 -126.693306 -6.626919
19.259264 -125.966072 -8.872905
17.918445 -126.502022 -8.041072
7.302021 -122.179172 -8.784553
7.46901 -121.72834 -10.03015
7.986831 -123.099472 -8.852619
7.302021 -122.179172 -8.784553
8.990407 -123.465481 -10.190518
7.986831 -123.099472 -8.852619
10.030883 -123.700199 -11.424564
8.990407 -123.465481 -10.190518
9.236318 -122.904267 -11.377741
11.170097 -123.801495 -12.625276
10.030883 -123.700199 -11.424564
10.271494 -119.941899 -15.321418
9.394604 -119.065601 -15.15182
10.589878 -119.017914 -16.108202
9.943943 -120.83802 -14.49924
10.271494 -119.941899 -15.321418
11.139217 -120.790333 -15.455622
9.707826 -121.590301 -13.530188
9.943943 -120.83802 -14.49924
10.54423 -122.41272 -13.622615
9.44039 -122.316566 -12.519358
9.707826 -121.590301 -13.530188
12.368969 -123.772069 -13.69913
11.170097 -123.801495 -12.625276
11.475666 -123.109559 -13.68564
13.6519 -123.604512 -14.72842
12.368969 -123.772069 -13.69913
15.010812 -123.310814 -15.621695
13.6519 -123.604512 -14.72842
14.033449 -122.786435 -15.65277
16.435563 -122.879505 -16.460451
15.010812 -123.310814 -15.621695
15.831226 -121.501889 -17.272373
14.382989 -121.923916 -16.519531
14.821855 -120.933067 -17.245859
16.898889 -121.944596 -17.25556
15.831226 -121.501889 -17.272373
16.435563 -122.879505 -16.460451
16.898889 -121.944596 -17.25556
17.583346 -114.850266 -19.718471
16.925338 -116.21296 -19.359201
15.954186 -115.521919 -19.205238
19.27801 -114.06506 -20.152273
17.583346 -114.850266 -19.718471
20.284312 -114.6535 -20.285899
19.27801 -114.06506 -20.152273
6.503321 -107.384258 -14.716304
5.871522 -108.63063 -14.222478
5.510205 -107.171841 -13.745787
7.653842 -107.469001 -15.573314
6.503321 -107.384258 -14.716304
7.292525 -106.010211 -15.096623
8.872016 -107.455654 -16.375902
8.082811 -108.829701 -15.995582
7.653842 -107.469001 -15.573314
10.212257 -107.320107 -17.07583
8.872016 -107.455654 -16.375902
11.615256 -107.077846 -17.718668
10.703984 -108.574093 -17.441007
10.212257 -107.320107 -17.07583
3 0 13 11
3 1 46 48
3 48 47 14
3 46 47 48
3 1 49 50
3 52 51 16
3 2 19 17
3 2 21 20
3 2 17 21
3 3 53 55
3 55 54 23
3 53 54 55
3 3 56 58
3 56 25 57
3 56 57 58
3 3 26 25
3 4 59 61
3 59 27 60
3 59 60 61
3 5 28 12
3 5 29 28
3 6 62 64
3 62 31 63
3 62 63 64
3 65 32 66
3 67 66 15
3 65 66 67
3 68 33 69
3 70 69 32
3 68 69 70
3 72 71 33
3 73 34 74
3 75 35 76
3 77 76 34
3 75 76 77
3 8 78 80
3 80 79 36
3 78 79 80
3 82 81 18
3 83 37 84
3 85 84 30
3 83 84 85
3 8 38 22
3 8 36 38
3 9 86 88
3 86 40 87
3 86 87 88
3 9 39 40
3 89 41 90
3 91 42 92
3 93 92 41
3 91 92 93
3 7 94 95
3 10 43 24
3 10 44 43
3 10 45 44
3 11 12 4
3 13 12 11
3 13 5 12
3 14 15 6
3 96 15 97
3 98 97 14
3 96 97 98
3 100 99 15
3 16 101 102
3 104 103 16
3 17 18 8
3 19 18 17
3 19 105 107
3 107 106 18
3 105 106 107
3 20 108 110
3 108 109 110
3 21 111 113
3 113 112 20
3 111 112 113
3 21 114 115
3 21 116 118
3 116 22 117
3 116 117 118
3 17 22 21
3 17 8 22
3 119 9 120
3 23 24 7
3 121 24 122
3 123 122 23
3 121 122 123
3 124 10 125
3 126 125 24
3 124 125 126
3 128 127 10
3 25 129 130
3 25 131 132
3 25 133 134
3 26 135 137
3 137 136 25
3 135 136 137
3 26 138 140
3 138 139 140
3 27 141 142
3 27 143 144
3 12 27 4
3 28 27 12
3 28 145 147
3 147 146 27
3 145 146 147
3 28 148 150
3 148 16 149
3 148 149 150
3 29 16 28
3 29 151 153
3 153 152 16
3 151 152 153
3 154 30 155
3 156 155 2
3 154 155 156
3 157 30 158
3 161 160 30
3 159 160 161
3 162 20 163
3 164 20 165
3 166 2 167
3 168 167 20
3 166 167 168
3 31 169 170
3 31 171 173
3 171 7 172
3 171 172 173
3 15 31 6
3 32 31 15
3 32 7 31
3 32 23 7
3 33 23 32
3 33 3 23
3 33 174 176
3 176 175 3
3 174 175 176
3 179 178 33
3 177 178 179
3 180 6 181
3 34 182 183
3 34 184 186
3 184 6 185
3 184 185 186
3 34 14 6
3 35 14 34
3 35 1 14
3 36 187 189
3 189 188 0
3 187 188 189
3 191 190 36
3 18 192 194
3 194 193 8
3 192 193 194
3 196 195 18
3 30 19 2
3 37 19 30
3 37 197 199
3 199 198 19
3 197 198 199
3 200 37 201
3 202 37 203
3 205 204 37
3 206 9 207
3 22 208 209
3 38 210 212
3 212 211 22
3 210 211 212
3 38 213 215
3 213 9 214
3 213 214 215
3 38 39 9
3 36 39 38
3 36 0 39
3 216 4 217
3 40 218 219
3 40 220 222
3 220 4 221
3 220 221 222
3 40 11 4
3 39 11 40
3 39 0 11
3 223 13 224
3 225 224 0
3 223 224 225
3 226 13 227
3 228 5 229
3 230 229 13
3 228 229 230
3 231 5 232
3 233 29 234
3 235 234 5
3 233 234 235
3 236 29 237
3 239 238 29
3 41 240 241
3 41 242 243
3 41 244 245
3 42 246 248
3 248 247 41
3 246 247 248
3 42 249 250
3 24 251 253
3 253 252 7
3 251 252 253
3 43 254 256
3 256 255 24
3 254 255 256
3 43 257 258
3 43 259 261
3 259 42 260
3 259 260 261
3 44 42 43
3 44 262 264
3 264 263 42
3 262 263 264
3 44 265 266
3 45 267 269
3 269 268 44
3 267 268 269
3 45 270 271
3 272 45 273
3 274 273 10
3 272 273 274
3 275 45 276
3 278 277 45
3 279 26 280
3 281 280 3
3 279 280 281
3 282 26 283
3 285 284 26
3 286 35 287
3 286 287 288
3 289 35 290
3 289 290 291
3 292 1 293
3 294 293 35
3 292 293 294
3 295 1 296
3 299 298 1
3 297 298 299
