ply
format ascii 1.0
element vertex 139
property float x
property float y
property float z
element face 102
property list uchar int vertex_index
end_header
29.370289 -11.074526 74.989655
19.745098 -12.545425 81.100433
25.543148 -11.206358 76.913864
33.222256 -10.494011 72.91507
22.857235 -12.414726 79.385178
21.433544 -13.541163 80.827202
24.5707 -12.779553 78.728569
35.794418 -7.864812 69.955078
37.513924 -7.388912 68.806541
31.322508 -10.833401 73.977875
30.077127 -9.074579 72.890137
32.041054 -8.744011 71.948288
27.421778 -11.199527 75.969597
26.440247 -12.94502 77.875275
33.960335 -8.329572 70.986176
22.085724 -12.035646 79.533321
22.660897 -11.684477 78.923867
22.660897 -11.684477 78.923867
23.340764 -11.762559 78.584641
37.101608 -8.518586 69.652751
36.654171 -7.626862 69.380809
36.241855 -8.756536 70.22702
37.858427 -8.302371 68.940865
37.101608 -8.518586 69.652751
29.856229 -11.952184 75.415997
30.832338 -11.831622 74.910107
30.346398 -10.953964 74.483765
29.723708 -10.074552 73.939896
29.097075 -9.187993 73.370521
28.743656 -10.187966 74.42028
18.944916 -11.865848 81.147152
18.824558 -13.050776 81.805027
19.700939 -13.617693 81.64389
20.545162 -14.115561 81.507274
20.589321 -13.043294 80.963818
18.824558 -13.050776 81.805027
18.780399 -14.123043 82.348484
19.700939 -13.617693 81.64389
24.842244 -13.667747 79.121662
23.896425 -13.482665 79.510853
25.878768 -10.315931 75.882981
24.985037 -10.341527 76.404606
26.482463 -11.202942 76.441731
26.818083 -10.312516 75.410847
25.878768 -10.315931 75.882981
33.631863 -11.379981 73.181995
34.12249 -10.29033 72.341519
34.12249 -10.29033 72.341519
34.491529 -9.20811 71.377071
33.591296 -9.411791 71.950623
19.792036 -11.476301 80.384159
20.529655 -12.100995 80.390949
22.14539 -12.977944 80.10619
22.327846 -13.863471 80.56017
23.039692 -13.300252 79.839157
21.373879 -12.598864 80.254334
22.14539 -12.977944 80.10619
22.085724 -12.035646 79.533321
20.529655 -12.100995 80.390949
20.589321 -13.043294 80.963818
21.373879 -12.598864 80.254334
24.197496 -11.944972 78.256336
25.056924 -11.992956 77.821216
24.68372 -11.158375 77.348984
23.713967 -12.59714 79.056873
24.197496 -11.944972 78.256336
23.340764 -11.762559 78.584641
23.039692 -13.300252 79.839157
23.896425 -13.482665 79.510853
23.713967 -12.59714 79.056873
24.68372 -11.158375 77.348984
24.985037 -10.341527 76.404606
36.113875 -6.732518 69.041207
35.166544 -6.980427 69.49316
36.973628 -6.494568 68.466938
36.113875 -6.732518 69.041207
36.654171 -7.626862 69.380809
37.874989 -6.249878 67.956932
36.973628 -6.494568 68.466938
38.308582 -7.163937 68.153663
37.874989 -6.249878 67.956932
38.653086 -8.077395 68.287987
38.308582 -7.163937 68.153663
37.858427 -8.302371 68.940865
31.783355 -11.71199 74.337094
32.733229 -11.542295 73.805691
32.272382 -10.663706 73.446472
31.783355 -11.71199 74.337094
30.832338 -11.831622 74.910107
29.341884 -8.161414 72.259098
29.097075 -9.187993 73.370521
30.331997 -8.012664 71.806492
29.341884 -8.161414 72.259098
31.059091 -8.909295 72.419213
31.313961 -7.84738 71.335567
30.331997 -8.012664 71.806492
18.944916 -11.865848 81.147152
19.792036 -11.476301 80.384159
21.468577 -14.529949 81.241185
22.327846 -13.863471 80.56017
21.468577 -14.529949 81.241185
20.545162 -14.115561 81.507274
27.904528 -12.077345 76.436218
28.878783 -12.014845 75.946247
28.396034 -11.137027 75.479626
27.413762 -12.950092 77.389058
27.904528 -12.077345 76.436218
26.931013 -12.072273 76.922436
26.756296 -13.835417 78.214764
27.413762 -12.950092 77.389058
25.777018 -13.750481 78.695015
25.505474 -12.862286 78.301922
24.842244 -13.667747 79.121662
26.756296 -13.835417 78.214764
25.777018 -13.750481 78.695015
27.7694 -10.250467 74.910251
26.818083 -10.312516 75.410847
28.396034 -11.137027 75.479626
28.743656 -10.187966 74.42028
27.7694 -10.250467 74.910251
33.631863 -11.379981 73.181995
32.733229 -11.542295 73.805691
29.856229 -11.952184 75.415997
28.878783 -12.014845 75.946247
32.309567 -7.651226 70.912098
31.313961 -7.84738 71.335567
33.269207 -7.444007 70.431042
32.309567 -7.651226 70.912098
33.000695 -8.536791 71.467232
34.249503 -7.212807 70.008709
33.269207 -7.444007 70.431042
34.877376 -8.097192 70.470627
35.166544 -6.980427 69.49316
34.249503 -7.212807 70.008709
35.408571 -8.97573 70.861523
34.877376 -8.097192 70.470627
34.491529 -9.20811 71.377071
36.241855 -8.756536 70.22702
35.408571 -8.97573 70.861523
3 16 15 4
3 17 4 18
3 19 8 20
3 21 20 7
3 19 20 21
3 23 22 8
3 0 24 26
3 26 25 9
3 24 25 26
3 0 27 29
3 27 10 28
3 27 28 29
3 0 9 10
3 1 30 31
3 1 32 34
3 34 33 5
3 32 33 34
3 1 35 37
3 35 36 37
3 2 13 12
3 39 38 6
3 2 40 41
3 2 42 44
3 42 12 43
3 42 43 44
3 3 45 46
3 3 14 11
3 3 47 49
3 49 48 14
3 47 48 49
3 51 50 1
3 4 52 54
3 52 5 53
3 52 53 54
3 55 5 56
3 57 56 4
3 55 56 57
3 58 1 59
3 60 59 5
3 58 59 60
3 61 6 62
3 63 62 2
3 61 62 63
3 4 64 66
3 64 6 65
3 64 65 66
3 4 67 69
3 69 68 6
3 67 68 69
3 70 2 71
3 7 72 73
3 8 74 76
3 76 75 7
3 74 75 76
3 8 77 78
3 8 79 80
3 83 82 8
3 81 82 83
3 9 84 86
3 86 85 3
3 84 85 86
3 88 87 9
3 10 89 90
3 10 91 92
3 10 93 95
3 93 11 94
3 93 94 95
3 9 11 10
3 9 3 11
3 97 96 1
3 5 98 99
3 101 100 5
3 12 102 104
3 104 103 0
3 102 103 104
3 13 105 107
3 107 106 12
3 105 106 107
3 13 108 109
3 6 13 2
3 110 13 111
3 112 111 6
3 110 111 112
3 114 113 13
3 12 115 116
3 12 117 119
3 117 0 118
3 117 118 119
3 121 120 3
3 123 122 0
3 11 124 125
3 14 126 128
3 128 127 11
3 126 127 128
3 14 129 130
3 14 131 133
3 131 7 132
3 131 132 133
3 134 7 135
3 136 135 14
3 134 135 136
3 138 137 7
