ply
format ascii 1.0
element vertex 260
property float x
property float y
property float z
element face 189
property list uchar int vertex_index
end_header
-29.491798 -25.088177 -40.247883
-38.319729 -37.201416 -37.301041
-27.84709 -19.727957 -43.046257
-59.194416 -48.616104 -35.007824
-50.928139 -41.996025 -39.061478
-46.61924 -42.645618 -38.11797
-42.367123 -43.577065 -36.940136
-28.23621 -30.395111 -36.351528
-28.607048 -22.362553 -41.68874
-30.301018 -22.507118 -42.030163
-31.235825 -25.299221 -40.539169
-52.995674 -41.813408 -39.360233
-48.268661 -38.645279 -39.762794
-44.457973 -43.094299 -37.550652
-44.03315 -39.450417 -38.483475
-42.035294 -39.918503 -37.822285
-37.086765 -40.995979 -35.655682
-36.910015 -37.472137 -36.584545
-36.543926 -34.187744 -37.550312
-37.934673 -33.886345 -38.199852
-27.963383 -24.994308 -39.780502
-57.181263 -45.198429 -37.513611
-55.318748 -45.287857 -37.780186
-51.317375 -45.579865 -37.693104
-49.194275 -45.862263 -37.41927
-50.397793 -38.368599 -40.335537
-48.791496 -42.272415 -38.631672
-47.01553 -46.252678 -37.038914
-44.818062 -46.73082 -36.573452
-39.881889 -36.803978 -38.002529
-39.426228 -33.433556 -38.876026
-27.454502 -27.630867 -37.787476
-28.814854 -27.732748 -38.348331
-29.743519 -30.617588 -36.856846
-30.443535 -27.916645 -38.76643
-44.776443 -37.419411 -39.297629
-45.081615 -39.231667 -38.808607
-43.771137 -37.647255 -38.938997
-44.776443 -37.419411 -39.297629
-27.397922 -25.009173 -39.445551
-27.61 -23.686822 -40.447315
-59.274193 -50.356964 -33.987106
-60.051676 -48.509025 -34.594738
-57.896299 -43.343132 -38.222343
-58.067097 -45.137661 -37.2556
-57.012667 -43.402342 -38.427898
-57.896299 -43.343132 -38.222343
-28.237305 -18.417449 -43.974188
-27.548644 -18.452866 -43.665592
-54.340751 -45.343361 -37.803532
-55.145235 -43.492945 -38.625999
-50.047831 -36.540768 -40.936991
-51.083922 -36.440939 -41.24171
-42.511858 -45.415215 -36.485241
-43.557283 -45.173832 -36.790499
-43.412548 -43.335682 -37.245394
-41.483984 -45.669758 -36.172621
-42.511858 -45.415215 -36.485241
-41.389891 -43.8088 -36.610056
-41.483984 -45.669758 -36.172621
-41.113438 -40.142647 -37.48161
-41.826055 -38.125695 -38.258694
-40.749353 -36.568432 -38.348816
-40.036735 -38.585385 -37.571731
-39.87405 -31.570343 -39.670755
-40.243685 -33.165577 -39.225341
-39.103465 -31.893067 -39.317242
-39.87405 -31.570343 -39.670755
-36.264989 -32.696616 -38.050501
-36.950594 -32.538224 -38.330731
-27.845356 -29.012989 -37.069502
-27.244748 -28.93494 -36.760447
-27.635602 -30.317062 -36.042473
-30.566121 -30.743559 -37.072952
-30.202379 -32.14564 -36.103725
-30.916129 -29.393088 -38.027744
-30.093527 -29.267117 -37.811638
-30.566121 -30.743559 -37.072952
-31.303862 -28.035559 -38.92256
-30.916129 -29.393088 -38.027744
-58.370737 -50.429487 -34.320339
-58.301035 -48.680206 -35.307768
-29.011088 -21.068348 -42.594942
-28.63111 -19.75105 -43.2737
-28.227069 -21.045255 -42.367498
-29.858073 -21.140631 -42.765653
-29.011088 -21.068348 -42.594942
-29.454033 -22.434835 -41.859452
-30.782385 -21.270882 -42.861688
-29.858073 -21.140631 -42.765653
-31.224922 -22.667626 -42.095223
-30.782385 -21.270882 -42.861688
-31.692326 -24.063678 -41.349726
-31.224922 -22.667626 -42.095223
-30.768421 -23.903169 -41.284666
-32.122507 -25.458822 -40.61354
-31.692326 -24.063678 -41.349726
-53.733082 -39.937332 -40.214983
-53.983698 -41.75572 -39.416023
-52.735712 -39.997524 -40.077416
-53.733082 -39.937332 -40.214983
-51.701944 -40.088833 -39.928038
-51.961906 -41.904717 -39.210856
-52.735712 -39.997524 -40.077416
-47.933971 -36.824867 -40.300663
-48.983265 -36.679108 -40.65062
-47.199371 -38.829098 -39.448267
-47.933971 -36.824867 -40.300663
-46.37466 -40.829268 -38.625855
-47.44395 -40.645449 -38.940382
-47.199371 -38.829098 -39.448267
-45.294027 -41.053608 -38.342196
-45.538607 -42.869958 -37.834311
-46.37466 -40.829268 -38.625855
-44.245562 -41.272358 -38.017063
-45.294027 -41.053608 -38.342196
-45.081615 -39.231667 -38.808607
-42.77221 -37.881298 -38.608402
-43.034222 -39.68446 -38.15288
-43.771137 -37.647255 -38.938997
-41.826055 -38.125695 -38.258694
-42.77221 -37.881298 -38.608402
-36.440498 -41.044441 -35.251135
-36.447187 -42.895588 -34.767935
-36.352123 -39.28252 -35.715566
-36.440498 -41.044441 -35.251135
-36.99839 -39.234058 -36.120114
-36.252161 -37.524665 -36.223806
-36.352123 -39.28252 -35.715566
-36.726971 -35.82994 -37.067428
-36.069116 -35.882469 -36.70669
-36.252161 -37.524665 -36.223806
-37.645967 -32.387524 -38.655501
-36.950594 -32.538224 -38.330731
-37.2393 -34.037045 -37.875082
-27.973418 -31.715746 -35.320415
-27.635602 -30.317062 -36.042473
-27.291544 -19.798189 -42.682762
-27.548644 -18.452866 -43.665592
-27.551853 -21.053647 -42.080192
-27.291544 -19.798189 -42.682762
-27.931832 -22.370945 -41.401434
-28.227069 -21.045255 -42.367498
-27.551853 -21.053647 -42.080192
-28.285215 -23.67843 -40.734621
-27.931832 -22.370945 -41.401434
-27.61 -23.686822 -40.447315
-59.274193 -50.356964 -33.987106
-58.370737 -50.429487 -34.320339
-37.104099 -42.844291 -35.20503
-36.447187 -42.895588 -34.767935
-37.813503 -40.868997 -36.039029
-37.104099 -42.844291 -35.20503
-38.429985 -38.971716 -36.861708
-37.703247 -39.098698 -36.478361
-37.813503 -40.868997 -36.039029
-59.918239 -46.746695 -35.61392
-60.051676 -48.509025 -34.594738
-59.073673 -46.846498 -36.002707
-59.918239 -46.746695 -35.61392
-58.301035 -48.680206 -35.307768
-59.073673 -46.846498 -36.002707
-57.294459 -46.971368 -36.560661
-58.067097 -45.137661 -37.2556
-56.363762 -47.016199 -36.753443
-57.294459 -46.971368 -36.560661
-56.250006 -45.243143 -37.646898
-55.432505 -47.060913 -36.88673
-56.363762 -47.016199 -36.753443
-56.081409 -43.447056 -38.561186
-56.250006 -45.243143 -37.646898
-57.012667 -43.402342 -38.427898
-55.145235 -43.492945 -38.625999
-56.081409 -43.447056 -38.561186
-28.237305 -18.417449 -43.974188
-28.63111 -19.75105 -43.2737
-54.463359 -47.115048 -36.983852
-55.432505 -47.060913 -36.88673
-54.463359 -47.115048 -36.983852
-54.340751 -45.343361 -37.803532
-53.179215 -43.606137 -38.593556
-53.983698 -41.75572 -39.416023
-52.340065 -45.489365 -37.759991
-53.179215 -43.606137 -38.593556
-52.156525 -43.696636 -38.526668
-51.454521 -47.351295 -36.955393
-52.340065 -45.489365 -37.759991
-50.408276 -47.496319 -36.900835
-51.454521 -47.351295 -36.955393
-49.346725 -47.637518 -36.763918
-50.408276 -47.496319 -36.900835
-50.255825 -45.721064 -37.556187
-48.266979 -47.843252 -36.648577
-49.346725 -47.637518 -36.763918
-51.436771 -38.27512 -40.565067
-51.083922 -36.440939 -41.24171
-50.662966 -40.182312 -39.698508
-51.701944 -40.088833 -39.928038
-51.436771 -38.27512 -40.565067
-49.333227 -38.506939 -40.049166
-50.047831 -36.540768 -40.936991
-48.983265 -36.679108 -40.65062
-47.177607 -48.03846 -36.458399
-48.266979 -47.843252 -36.648577
-48.104902 -46.057471 -37.229092
-46.076102 -48.296286 -36.286651
-47.177607 -48.03846 -36.458399
-44.977367 -48.535357 -36.053921
-46.076102 -48.296286 -36.286651
-45.916796 -46.491749 -36.806183
-43.876144 -48.823448 -35.826029
-44.977367 -48.535357 -36.053921
-43.737327 -46.992092 -36.301899
-44.638018 -44.91256 -37.062052
-43.557283 -45.173832 -36.790499
-43.876144 -48.823448 -35.826029
-43.737327 -46.992092 -36.301899
-41.223976 -41.979519 -37.05113
-41.389891 -43.8088 -36.610056
-42.201208 -41.747784 -37.381211
-41.223976 -41.979519 -37.05113
-41.113438 -40.142647 -37.48161
-39.211065 -38.772997 -37.212452
-40.036735 -38.585385 -37.571731
-39.100809 -37.002697 -37.651785
-38.429985 -38.971716 -36.861708
-39.211065 -38.772997 -37.212452
-40.471515 -34.850788 -38.788593
-40.749353 -36.568432 -38.348816
-39.654059 -35.118767 -38.439278
-40.471515 -34.850788 -38.788593
-40.243685 -33.165577 -39.225341
-38.357687 -32.119461 -38.979154
-38.68045 -33.659951 -38.537939
-39.103465 -31.893067 -39.317242
-37.645967 -32.387524 -38.655501
-38.357687 -32.119461 -38.979154
-35.861035 -34.239765 -37.245795
-36.069116 -35.882469 -36.70669
-35.861035 -34.239765 -37.245795
-36.264989 -32.696616 -38.050501
-26.992701 -27.631261 -37.42005
-27.244748 -28.93494 -36.760447
-27.143482 -26.327452 -38.449038
-26.992701 -27.631261 -37.42005
-27.708942 -26.312587 -38.783989
-27.397922 -25.009173 -39.445551
-27.143482 -26.327452 -38.449038
-28.669303 -31.869642 -35.596422
-27.973418 -31.715746 -35.320415
-29.422957 -31.98088 -35.849081
-30.202379 -32.14564 -36.103725
-28.989864 -30.506349 -36.604187
-28.669303 -31.869642 -35.596422
-29.422957 -31.98088 -35.849081
-31.700007 -26.726847 -39.80893
-30.83968 -26.607933 -39.6528
-31.303862 -28.035559 -38.92256
-32.122507 -25.458822 -40.61354
-31.700007 -26.726847 -39.80893
3 0 9 8
3 0 10 9
3 35 14 36
3 38 37 14
3 1 17 16
3 1 19 17
3 39 20 40
3 3 41 42
3 43 21 44
3 46 45 21
3 2 47 48
3 50 49 22
3 4 23 11
3 4 24 23
3 51 25 52
3 5 26 12
3 5 27 26
3 5 28 27
3 6 53 55
3 55 54 13
3 53 54 55
3 6 56 57
3 6 58 59
3 61 60 15
3 62 29 63
3 64 30 65
3 67 66 30
3 69 68 18
3 7 70 72
3 70 31 71
3 70 71 72
3 7 32 31
3 73 33 74
3 75 34 76
3 77 76 33
3 75 76 77
3 79 78 34
3 81 80 3
3 8 82 84
3 84 83 2
3 82 83 84
3 9 85 87
3 87 86 8
3 85 86 87
3 9 88 89
3 9 90 91
3 10 92 94
3 94 93 9
3 92 93 94
3 10 95 96
3 97 11 98
3 99 11 100
3 101 4 102
3 103 102 11
3 101 102 103
3 104 12 105
3 106 12 107
3 108 5 109
3 110 109 12
3 108 109 110
3 111 13 112
3 113 112 5
3 111 112 113
3 14 114 116
3 114 13 115
3 114 115 116
3 14 6 13
3 14 15 6
3 117 15 118
3 119 118 14
3 117 118 119
3 121 120 15
3 16 122 123
3 17 124 126
3 126 125 16
3 124 125 126
3 17 127 128
3 17 129 131
3 129 18 130
3 129 130 131
3 19 18 17
3 19 132 134
3 134 133 18
3 132 133 134
3 135 7 136
3 137 2 138
3 139 2 140
3 141 8 142
3 143 142 2
3 141 142 143
3 20 144 146
3 144 8 145
3 144 145 146
3 20 0 8
3 148 147 3
3 149 16 150
3 151 16 152
3 153 1 154
3 155 154 16
3 153 154 155
3 156 3 157
3 158 3 159
3 161 160 3
3 21 162 163
3 21 164 165
3 21 166 168
3 166 22 167
3 166 167 168
3 169 22 170
3 171 170 21
3 169 170 171
3 173 172 22
3 175 174 2
3 22 176 177
3 179 178 22
3 11 180 181
3 23 182 184
3 184 183 11
3 182 183 184
3 23 185 186
3 23 187 188
3 24 189 191
3 191 190 23
3 189 190 191
3 24 192 193
3 25 194 195
3 25 196 198
3 196 4 197
3 196 197 198
3 12 199 201
3 199 25 200
3 199 200 201
3 26 25 12
3 26 4 25
3 26 24 4
3 27 24 26
3 27 202 204
3 204 203 24
3 202 203 204
3 27 205 206
3 28 207 209
3 209 208 27
3 207 208 209
3 28 210 211
3 13 28 5
3 212 28 213
3 214 213 13
3 212 213 214
3 216 215 28
3 15 217 219
3 219 218 6
3 217 218 219
3 221 220 15
3 29 222 223
3 29 224 226
3 224 1 225
3 224 225 226
3 227 29 228
3 30 229 231
3 229 29 230
3 229 230 231
3 30 1 29
3 30 19 1
3 232 19 233
3 234 233 30
3 232 233 234
3 236 235 19
3 18 237 238
3 240 239 18
3 31 241 242
3 31 243 244
3 31 245 247
3 245 20 246
3 245 246 247
3 32 20 31
3 32 0 20
3 248 7 249
3 33 250 251
3 33 252 254
3 252 7 253
3 252 253 254
3 33 32 7
3 34 32 33
3 34 0 32
3 34 10 0
3 255 10 256
3 257 256 34
3 255 256 257
3 259 258 10
