ply
format ascii 1.0
element vertex 331
property float x
property float y
property float z
element face 333
property list uchar int vertex_index
end_header
-52.850601 -74.458397 43.839745
-55.571117 -66.376007 47.787685
-57.831512 -67.949242 39.924309
-60.184853 -60.245617 46.474487
-49.987972 -70.74791 48.404732
-46.980003 -79.979408 47.526886
-56.130814 -62.121929 49.662472
-57.87841 -63.510235 47.192154
-58.273586 -59.405781 49.493336
-50.460625 -77.822784 41.793259
-52.998028 -74.415344 39.276321
-51.902527 -73.262314 47.054054
-48.76989 -75.497238 48.121307
-50.094505 -77.380058 45.845947
-47.835995 -81.10379 44.137321
-54.556 -70.593796 45.775803
-55.342194 -71.262466 41.778847
-56.922287 -67.556671 44.449211
-59.308525 -64.307449 43.244682
-61.7976 -60.990402 42.211311
-53.014656 -68.794449 48.202717
-45.207745 -77.331078 48.873398
-43.571938 -82.244049 48.634125
-56.290867 -60.148129 50.376442
-57.231644 -60.872608 49.626614
-51.720222 -76.202194 42.85355
-51.731163 -76.129845 40.536346
-53.005394 -74.577698 41.679478
-52.492802 -74.026268 45.660149
-51.082893 -75.372604 46.480728
-51.516293 -75.958817 44.866886
-50.384644 -77.773842 44.001923
-55.135696 -68.512161 46.775528
-55.755054 -69.112747 45.106812
-56.314575 -67.079346 46.309311
-59.022556 -61.921558 46.848824
-58.630196 -63.966194 45.367737
-59.820305 -62.318298 44.911583
-60.552296 -62.652233 42.71172
-61.029655 -60.629913 44.458817
-54.674843 -65.41716 48.829433
-53.359158 -66.490135 48.812275
-54.341141 -67.642868 48.022064
-53.889805 -69.843071 47.216797
-56.569221 -69.607544 40.811756
-55.526726 -71.231201 39.403114
-48.692448 -69.051254 48.427872
-48.281097 -71.559143 48.444229
-47.93079 -77.774017 47.904022
-47.031845 -76.460632 48.540962
-46.208954 -78.835938 48.460945
-44.416756 -79.808167 48.889561
-45.305 -81.156639 48.166069
-44.384945 -83.422714 47.565117
-45.98262 -82.117332 46.905846
-55.894836 -64.227859 48.771553
-56.738129 -64.997307 47.507481
-57.044411 -62.910248 48.640263
-58.155602 -61.447586 48.441597
-59.262276 -59.838264 48.176479
-54.929981 -63.208565 49.59473
-49.014355 -78.918419 37.979088
-50.365372 -77.564346 39.319336
-51.065952 -72.16391 47.968483
-49.458801 -73.151711 48.264088
-50.398193 -74.433449 47.621979
-49.560577 -76.620972 47.236771
-48.580551 -78.720062 46.743385
-47.517784 -80.735077 46.066963
-48.985424 -79.285866 45.086037
-49.167027 -79.483101 43.007378
-53.800045 -72.584854 44.8018
-54.115517 -72.88736 42.798927
-55.03051 -71.059296 43.934654
-56.222733 -69.468765 43.088394
-57.418739 -67.83799 42.290352
-57.467609 -65.558701 45.83535
-58.098267 -65.947754 43.824097
-58.65078 -66.192352 41.561119
-59.927937 -64.552094 40.910156
-61.227203 -62.927521 40.33276
-50.372894 -68.302521 48.591393
-51.928726 -67.450897 48.727451
-51.56723 -69.828743 48.328281
-52.540863 -71.061783 47.617874
-53.282803 -71.981026 46.432369
-41.046577 -85.714386 48.216984
-54.263664 -72.913811 40.517456
-47.729065 -74.032791 48.505054
-45.898788 -74.817612 48.695545
-41.801033 -83.225021 48.910557
-42.734352 -84.631851 48.010971
-60.38311 -58.10614 47.833801
-61.354446 -58.502281 46.053055
-62.222015 -58.91161 43.987541
-62.985558 -59.321243 41.716087
-56.776463 -59.552082 50.376774
-56.3318 -59.346449 50.588734
-56.3318 -59.346449 50.588734
-55.831858 -59.610889 50.554508
-55.872792 -58.80921 50.7668
-57.329372 -68.752102 39.145897
-56.698227 -69.581253 39.589621
-57.200367 -68.778393 40.368032
-55.530397 -62.665247 49.628601
-55.037515 -62.139688 49.924413
-55.637932 -61.59637 49.958285
-50.412999 -77.693565 40.556297
-49.763136 -78.454369 39.962529
-49.810762 -78.583587 41.19949
-52.297411 -75.098442 38.643569
-51.663978 -75.955692 39.273582
-52.364596 -75.272594 39.906334
-52.937618 -74.212883 37.997119
-52.297411 -75.098442 38.643569
-49.810762 -78.583587 41.19949
-49.163963 -79.413746 41.80655
-49.813826 -78.652942 42.400318
-62.145432 -61.153664 41.01049
-61.860233 -62.122223 40.071214
-61.512402 -61.958962 41.272036
-50.509731 -67.068771 48.716734
-49.679649 -67.41298 48.543079
-40.709674 -86.923858 47.624392
-41.508029 -86.33725 47.584493
-49.468796 -77.656242 35.939829
-48.899676 -78.591381 36.594225
-49.583476 -77.98328 37.324692
-54.906418 -71.963718 38.726849
-55.574613 -71.112781 38.147922
-44.602854 -76.423801 48.858179
-44.948375 -75.167068 48.769253
-45.553267 -76.074345 48.784472
-44.267145 -77.722081 48.994326
-43.662255 -76.814804 48.979107
-44.602854 -76.423801 48.858179
-43.075709 -81.465077 48.905636
-43.498117 -80.247135 49.033354
-43.994347 -81.026108 48.761843
-42.686486 -82.734535 48.772341
-42.190256 -81.955562 49.043852
-43.075709 -81.465077 48.905636
-43.954071 -84.527595 47.076857
-44.702535 -83.80854 46.76836
-47.146229 -81.890904 44.638702
-46.987123 -81.706547 45.603523
-47.67689 -80.919433 45.102142
-60.384124 -57.009096 48.363659
-59.849432 -57.919131 48.544767
-61.925013 -57.606344 45.805076
-61.431282 -57.394455 46.722065
-62.358797 -57.811008 44.77232
-61.78823 -58.706946 45.020298
-61.925013 -57.606344 45.805076
-63.514443 -58.479225 41.452623
-63.163168 -58.244693 42.590604
-63.316803 -59.514778 40.512749
-63.514443 -58.479225 41.452623
-57.246851 -59.914322 50.00186
-56.761256 -60.510368 50.001528
-56.776463 -59.552082 50.376774
-57.767822 -59.180909 49.935221
-57.752615 -60.139195 49.559975
-57.246851 -59.914322 50.00186
-55.717958 -60.609471 50.315269
-55.258949 -60.072231 50.493336
-55.831858 -59.610889 50.554508
-56.210841 -61.135029 50.019457
-55.637932 -61.59637 49.958285
-55.717958 -60.609471 50.315269
-54.017001 -65.953647 48.820854
-53.488551 -65.335941 49.117718
-54.146393 -64.799453 49.126297
-56.176979 -70.393081 38.8853
-56.047973 -70.419373 40.107435
-56.698227 -69.581253 39.589621
-55.574613 -71.112781 38.147922
-56.176979 -70.393081 38.8853
-47.796539 -69.379383 48.346741
-47.060812 -68.418473 48.213644
-47.956721 -68.090344 48.294775
-47.590864 -70.633328 48.35492
-47.796539 -69.379383 48.346741
-48.486773 -70.305199 48.436051
-47.372783 -71.91639 48.453741
-47.590864 -70.633328 48.35492
-45.501373 -83.155849 46.438724
-44.702535 -83.80854 46.76836
-45.183782 -82.770023 47.235481
-47.290527 -81.979195 43.5425
-47.898786 -81.107399 42.983446
-54.38384 -62.556326 49.792318
-55.037515 -62.139688 49.924413
-54.273962 -63.695156 49.508945
-54.38384 -62.556326 49.792318
-54.802412 -64.312862 49.212081
-54.146393 -64.799453 49.126297
-54.273962 -63.695156 49.508945
-49.087627 -79.131405 39.292405
-48.473472 -79.860248 38.612327
-49.689864 -78.241383 38.649212
-49.087627 -79.131405 39.292405
-49.763136 -78.454369 39.962529
-50.258984 -77.306243 37.994816
-49.583476 -77.98328 37.324692
-49.689864 -78.241383 38.649212
-50.981083 -76.672943 38.665077
-51.048268 -76.847095 39.927841
-51.663978 -75.955692 39.273582
-50.258984 -77.306243 37.994816
-50.981083 -76.672943 38.665077
-58.009212 -67.929234 38.679066
-58.489036 -67.130047 39.528996
-48.564302 -80.297055 42.418475
-47.898786 -81.107399 42.983446
-48.501511 -80.293446 43.57235
-48.564302 -80.297055 42.418475
-49.163963 -79.413746 41.80655
-58.89867 -66.251602 40.3474
-58.489036 -67.130047 39.528996
-58.241146 -67.070797 40.742714
-59.537249 -65.431473 40.021919
-58.89867 -66.251602 40.3474
-59.289358 -65.372223 41.235637
-60.21522 -64.629151 39.677219
-59.537249 -65.431473 40.021919
-60.864852 -63.816864 39.388521
-60.21522 -64.629151 39.677219
-60.57757 -63.739807 40.621458
-61.540022 -63.031672 39.089556
-60.864852 -63.816864 39.388521
-61.540022 -63.031672 39.089556
-61.860233 -62.122223 40.071214
-48.839426 -67.787346 48.461319
-47.956721 -68.090344 48.294775
-48.103699 -66.826436 48.328222
-49.532671 -68.676887 48.509632
-48.839426 -67.787346 48.461319
-49.679649 -67.41298 48.543079
-52.775106 -65.773029 48.98777
-53.488551 -65.335941 49.117718
-52.05989 -66.25341 48.945358
-52.775106 -65.773029 48.98777
-52.643942 -66.970516 48.769863
-51.287647 -66.642959 48.784763
-52.05989 -66.25341 48.945358
-51.15081 -67.876709 48.659422
-50.509731 -67.068771 48.716734
-51.287647 -66.642959 48.784763
-40.195442 -86.172684 48.192657
-40.531616 -84.894181 48.600645
-39.858539 -87.382156 47.600065
-40.195442 -86.172684 48.192657
-40.709674 -86.923858 47.624392
-48.405905 -79.577401 37.228296
-48.473472 -79.860248 38.612327
-48.405905 -79.577401 37.228296
-48.899676 -78.591381 36.594225
-54.274887 -72.805024 39.284019
-54.895195 -72.072506 39.960285
-54.906418 -71.963718 38.726849
-53.642069 -73.55579 38.663452
-53.630846 -73.664578 39.896889
-54.274887 -72.805024 39.284019
-52.937618 -74.212883 37.997119
-53.642069 -73.55579 38.663452
-57.329372 -68.752102 39.145897
-58.009212 -67.929234 38.679066
-47.096767 -73.153213 48.484154
-47.372783 -71.91639 48.453741
-48.005081 -72.795967 48.474642
-46.181629 -73.545624 48.579399
-47.096767 -73.153213 48.484154
-46.813927 -74.425202 48.6003
-45.232512 -73.861096 48.588255
-46.181629 -73.545624 48.579399
-44.282099 -74.210552 48.661963
-45.232512 -73.861096 48.588255
-44.948375 -75.167068 48.769253
-43.871651 -78.960625 49.002407
-44.267145 -77.722081 48.994326
-44.812251 -78.569623 48.881479
-43.871651 -78.960625 49.002407
-43.498117 -80.247135 49.033354
-41.262964 -82.341305 49.114494
-42.190256 -81.955562 49.043852
-40.908844 -83.649498 48.947431
-41.262964 -82.341305 49.114494
-41.423805 -84.469704 48.56377
-40.531616 -84.894181 48.600645
-40.908844 -83.649498 48.947431
-42.351917 -85.795983 47.481487
-41.508029 -86.33725 47.584493
-41.890465 -85.173119 48.113977
-43.128775 -85.132164 47.299784
-43.559649 -84.027282 47.788044
-43.954071 -84.527595 47.076857
-42.351917 -85.795983 47.481487
-43.128775 -85.132164 47.299784
-46.219541 -82.397674 46.022965
-46.750202 -81.426205 46.486404
-46.987123 -81.706547 45.603523
-45.501373 -83.155849 46.438724
-46.219541 -82.397674 46.022965
-47.146229 -81.890904 44.638702
-47.290527 -81.979195 43.5425
-58.223806 -58.402082 49.87849
-57.767822 -59.180909 49.935221
-58.79467 -58.568951 49.374534
-58.223806 -58.402082 49.87849
-59.289015 -58.785193 48.716106
-58.767931 -59.622022 48.834907
-58.79467 -58.568951 49.374534
-59.822693 -58.972202 48.00514
-59.289015 -58.785193 48.716106
-59.849432 -57.919131 48.544767
-60.945614 -57.196385 47.612438
-60.384124 -57.009096 48.363659
-60.868778 -58.304211 46.943428
-60.945614 -57.196385 47.612438
-61.431282 -57.394455 46.722065
-62.781396 -58.039877 43.726332
-62.358797 -57.811008 44.77232
-62.603786 -59.116427 42.851814
-62.781396 -58.039877 43.726332
-63.163168 -58.244693 42.590604
-62.73941 -60.319084 40.762878
-62.145432 -61.153664 41.01049
-62.391579 -60.155822 41.963699
-62.73941 -60.319084 40.762878
-63.316803 -59.514778 40.512749
3 97 96 23
3 98 23 99
3 98 99 100
3 0 27 25
3 0 30 28
3 0 25 30
3 1 34 32
3 3 37 35
3 3 39 37
3 1 42 40
3 1 32 42
3 2 101 103
3 103 102 44
3 101 102 103
3 4 47 46
3 5 50 48
3 5 52 50
3 5 54 52
3 6 57 55
3 8 58 24
3 8 59 58
3 6 104 106
3 104 60 105
3 104 105 106
3 6 55 60
3 9 107 109
3 107 62 108
3 107 108 109
3 10 110 112
3 112 111 26
3 110 111 112
3 10 113 114
3 11 65 63
3 13 66 29
3 13 67 66
3 13 69 67
3 9 70 31
3 9 115 117
3 117 116 70
3 115 116 117
3 15 73 71
3 17 74 33
3 17 75 74
3 7 76 56
3 18 77 36
3 18 78 77
3 18 79 78
3 19 80 38
3 19 118 120
3 120 119 80
3 118 119 120
3 121 81 122
3 20 82 41
3 20 83 82
3 20 84 83
3 15 85 43
3 15 71 85
3 124 123 86
3 127 126 61
3 125 126 127
3 16 87 72
3 129 128 45
3 12 88 64
3 21 89 49
3 21 130 132
3 132 131 89
3 130 131 132
3 21 133 135
3 133 134 135
3 22 136 138
3 138 137 51
3 136 137 138
3 22 139 141
3 139 90 140
3 139 140 141
3 22 91 90
3 143 142 53
3 14 144 146
3 146 145 68
3 144 145 146
3 147 92 148
3 149 93 150
3 151 94 152
3 153 152 93
3 151 152 153
3 154 95 155
3 157 156 95
3 23 24 6
3 158 24 159
3 160 159 23
3 158 159 160
3 161 8 162
3 163 162 24
3 161 162 163
3 23 164 166
3 164 165 166
3 23 167 169
3 167 6 168
3 167 168 169
3 25 26 9
3 27 26 25
3 27 10 26
3 28 29 11
3 30 29 28
3 30 13 29
3 30 31 13
3 25 31 30
3 25 9 31
3 32 33 15
3 34 33 32
3 34 17 33
3 35 36 7
3 37 36 35
3 37 18 36
3 37 38 18
3 39 38 37
3 39 19 38
3 40 170 172
3 170 41 171
3 170 171 172
3 42 41 40
3 42 20 41
3 42 43 20
3 32 43 42
3 32 15 43
3 44 45 16
3 173 45 174
3 175 174 44
3 173 174 175
3 177 176 45
3 46 178 180
3 178 179 180
3 47 181 183
3 183 182 46
3 181 182 183
3 47 184 185
3 48 49 12
3 50 49 48
3 50 21 49
3 50 51 21
3 52 51 50
3 52 22 51
3 52 53 22
3 54 53 52
3 54 186 188
3 188 187 53
3 186 187 188
3 190 189 14
3 55 56 1
3 57 56 55
3 57 7 56
3 24 57 6
3 58 57 24
3 58 7 57
3 58 35 7
3 59 35 58
3 59 3 35
3 60 191 192
3 60 193 194
3 60 195 197
3 195 40 196
3 195 196 197
3 55 40 60
3 55 1 40
3 198 61 199
3 62 200 202
3 200 61 201
3 200 201 202
3 62 203 205
3 205 204 61
3 203 204 205
3 26 62 9
3 206 62 207
3 208 207 26
3 206 207 208
3 210 209 62
3 212 211 2
3 63 64 4
3 65 64 63
3 65 12 64
3 29 65 11
3 66 65 29
3 66 12 65
3 66 48 12
3 67 48 66
3 67 5 48
3 67 68 5
3 69 68 67
3 69 14 68
3 31 69 13
3 70 69 31
3 70 14 69
3 70 213 215
3 215 214 14
3 213 214 215
3 217 216 70
3 71 72 0
3 73 72 71
3 73 16 72
3 33 73 15
3 74 73 33
3 74 16 73
3 74 44 16
3 75 44 74
3 75 2 44
3 56 34 1
3 76 34 56
3 76 17 34
3 36 76 7
3 77 76 36
3 77 17 76
3 77 75 17
3 78 75 77
3 78 2 75
3 78 218 220
3 220 219 2
3 218 219 220
3 79 221 223
3 223 222 78
3 221 222 223
3 79 224 225
3 38 79 18
3 80 79 38
3 80 226 228
3 228 227 79
3 226 227 228
3 80 229 230
3 232 231 80
3 233 46 234
3 233 234 235
3 81 236 238
3 236 46 237
3 236 237 238
3 81 4 46
3 41 239 240
3 82 241 243
3 243 242 41
3 241 242 243
3 82 244 245
3 82 246 248
3 246 81 247
3 246 247 248
3 83 81 82
3 83 4 81
3 83 63 4
3 84 63 83
3 84 11 63
3 43 84 20
3 85 84 43
3 85 11 84
3 85 28 11
3 71 28 85
3 71 0 28
3 86 249 250
3 253 252 86
3 251 252 253
3 61 254 255
3 257 256 61
3 72 27 0
3 87 27 72
3 87 10 27
3 45 87 16
3 258 87 259
3 260 259 45
3 258 259 260
3 261 10 262
3 263 262 87
3 261 262 263
3 265 264 10
3 267 266 2
3 64 47 4
3 88 47 64
3 88 268 270
3 270 269 47
3 268 269 270
3 49 88 12
3 89 88 49
3 89 271 273
3 273 272 88
3 271 272 273
3 89 274 275
3 278 277 89
3 276 277 278
3 51 279 281
3 281 280 21
3 279 280 281
3 283 282 51
3 90 284 285
3 90 286 287
3 90 288 290
3 288 86 289
3 288 289 290
3 91 86 90
3 91 291 293
3 293 292 86
3 291 292 293
3 53 91 22
3 294 91 295
3 296 295 53
3 294 295 296
3 298 297 91
3 68 54 5
3 299 54 300
3 301 300 68
3 299 300 301
3 303 302 54
3 305 304 14
3 306 8 307
3 308 8 309
3 310 59 311
3 312 311 8
3 310 311 312
3 92 313 315
3 313 59 314
3 313 314 315
3 92 3 59
3 316 92 317
3 93 318 320
3 318 92 319
3 318 319 320
3 93 3 92
3 93 39 3
3 94 39 93
3 94 19 39
3 321 94 322
3 95 323 325
3 323 94 324
3 323 324 325
3 95 19 94
3 95 326 328
3 328 327 19
3 326 327 328
3 330 329 95
