ply
format ascii 1.0
element vertex 257
property float x
property float y
property float z
element face 197
property list uchar int vertex_index
end_header
31.89839 23.56945 -29.512476
29.683651 29.174137 -28.311827
32.364414 28.050583 -26.178377
34.286232 50.189392 -23.648008
26.579617 29.575916 -30.009108
29.01964 23.844486 -30.493513
36.902012 22.862011 -21.484079
33.223351 38.611008 -23.119425
37.473827 48.083733 -21.32102
34.717876 22.398308 -28.197157
32.267502 33.402584 -24.356188
31.589304 31.102646 -25.836115
27.264812 32.423824 -29.225996
30.701048 26.278469 -28.698309
29.261549 26.540627 -29.447439
30.471945 23.801384 -30.049681
30.356287 21.31469 -31.344156
31.778276 21.355465 -31.131979
32.122898 39.389713 -24.676451
33.546555 41.503277 -23.417707
35.992023 22.896984 -25.013117
34.729645 24.129402 -25.990412
36.104836 21.420593 -27.445864
30.297297 31.716484 -27.090193
31.068354 28.720619 -27.289843
32.084194 25.807491 -27.857447
26.149162 26.61097 -30.623907
28.191528 29.444935 -29.221609
27.748507 26.63501 -30.091066
30.846704 37.127197 -25.919924
38.326935 47.023857 -19.733564
36.686649 45.318504 -20.942461
35.080662 43.477268 -22.169054
34.487511 40.643608 -21.775953
33.589661 27.139927 -25.009642
33.425209 25.097317 -26.94639
33.312603 23.110439 -28.890676
33.218567 21.19286 -30.823038
32.513279 31.839214 -24.42427
32.771935 32.930977 -23.586727
27.731186 33.776356 -28.75425
26.854844 33.928633 -29.268041
33.732708 42.923694 -23.53124
32.901163 41.888256 -24.132461
36.778984 20.799357 -27.047161
36.048429 22.158788 -26.229491
36.722578 21.537552 -25.830787
30.699589 32.930712 -26.445301
30.023985 33.213677 -27.10232
33.293272 49.158886 -24.213676
33.16242 50.710354 -24.089886
34.243368 48.701988 -23.687908
33.293272 49.158886 -24.213676
25.714103 29.596546 -30.342062
26.046101 31.085831 -30.052893
26.36439 28.093443 -30.316508
25.498876 28.114073 -30.649462
25.714103 29.596546 -30.342062
28.93759 29.309536 -28.766718
28.525934 30.795012 -28.72314
29.271996 30.659613 -28.26825
28.271507 23.79545 -30.666969
27.635941 25.190712 -30.465746
28.384073 25.239748 -30.29229
28.978052 22.480477 -30.979129
28.271507 23.79545 -30.666969
30.340342 20.077625 -31.969731
31.023956 20.246375 -32.028672
36.381893 23.704643 -22.060242
36.32531 24.599525 -20.907896
37.049618 22.133038 -22.757959
36.529499 22.97567 -23.334122
36.381893 23.704643 -22.060242
30.78505 38.590595 -25.984225
30.103095 37.400701 -26.564438
32.654091 37.528021 -23.793732
32.103865 37.917373 -24.572245
32.673125 39.00036 -23.897938
33.158886 37.107384 -22.994978
32.654091 37.528021 -23.793732
36.796762 48.610676 -21.964602
37.768641 49.505867 -21.424509
36.573017 47.181515 -21.894085
36.796762 48.610676 -21.964602
38.517414 46.478733 -18.78705
39.147074 47.799542 -19.127699
36.265367 43.931806 -20.696179
36.973548 44.8157 -20.042183
35.462374 43.011189 -21.309475
35.883656 44.397886 -21.555757
36.265367 43.931806 -20.696179
35.165798 41.594358 -21.112924
34.784087 42.060438 -21.972504
35.462374 43.011189 -21.309475
34.17235 26.556999 -24.414174
33.710234 28.177509 -24.054612
33.899382 20.246842 -31.721811
33.950025 20.99214 -30.619264
33.162951 20.269663 -31.77527
33.899382 20.246842 -31.721811
31.928403 32.252615 -25.096151
31.345592 32.623793 -25.818262
31.684691 33.773761 -25.078298
32.17418 30.689245 -25.164234
31.928403 32.252615 -25.096151
32.513279 31.839214 -24.42427
32.561735 29.163214 -25.335365
31.976859 29.576614 -26.007246
32.17418 30.689245 -25.164234
34.203083 51.753792 -23.538969
33.16242 50.710354 -24.089886
26.388699 32.509785 -29.661337
26.854844 33.928633 -29.268041
26.922214 30.99987 -29.617552
26.046101 31.085831 -30.052893
26.388699 32.509785 -29.661337
31.734951 20.266762 -31.922584
31.023956 20.246375 -32.028672
31.067281 21.335077 -31.238067
36.754194 23.68477 -20.250999
36.32531 24.599525 -20.907896
32.189335 40.831474 -24.761834
31.423147 39.721853 -25.362488
32.834727 40.446495 -24.047079
32.189335 40.831474 -24.761834
32.901163 41.888256 -24.132461
38.377691 48.915726 -20.756235
37.768641 49.505867 -21.424509
35.360834 23.513193 -25.501765
34.742342 25.051737 -24.904559
35.373531 24.435528 -24.415911
29.578819 31.930786 -27.657432
30.023985 33.213677 -27.10232
29.990474 30.445311 -27.70101
29.271996 30.659613 -28.26825
29.578819 31.930786 -27.657432
30.9433 31.409565 -26.463154
30.699589 32.930712 -26.445301
31.345592 32.623793 -25.818262
25.305487 26.566858 -30.835074
25.498876 28.114073 -30.649462
26.058578 25.085733 -30.857343
25.305487 26.566858 -30.835074
28.062576 32.284456 -28.725334
27.731186 33.776356 -28.75425
27.72817 30.93438 -29.223802
28.062576 32.284456 -28.725334
28.525934 30.795012 -28.72314
26.836269 25.178692 -30.732166
26.948835 26.62299 -30.357487
27.635941 25.190712 -30.465746
26.058578 25.085733 -30.857343
26.836269 25.178692 -30.732166
29.646375 21.215578 -31.404451
28.978052 22.480477 -30.979129
29.687963 22.579588 -30.918835
29.646375 21.215578 -31.404451
30.340342 20.077625 -31.969731
35.926899 23.72213 -23.824761
35.373531 24.435528 -24.415911
36.594623 22.150524 -24.522478
35.926899 23.72213 -23.824761
36.529499 22.97567 -23.334122
37.325178 20.791092 -25.340149
36.722578 21.537552 -25.830787
36.594623 22.150524 -24.522478
37.382307 21.895229 -20.927879
36.754194 23.68477 -20.250999
37.23449 22.717989 -19.6948
37.613453 21.262881 -22.269695
37.382307 21.895229 -20.927879
38.093748 20.296099 -21.713495
37.761059 20.533907 -23.543575
37.049618 22.133038 -22.757959
37.613453 21.262881 -22.269695
30.298688 35.919033 -26.517186
30.103095 37.400701 -26.564438
30.974292 35.636068 -25.860166
30.298688 35.919033 -26.517186
31.484801 38.258455 -25.298188
30.78505 38.590595 -25.984225
31.423147 39.721853 -25.362488
31.465767 36.786116 -25.193981
31.484801 38.258455 -25.298188
32.103865 37.917373 -24.572245
30.974292 35.636068 -25.860166
31.465767 36.786116 -25.193981
32.176167 34.923809 -24.412114
31.684691 33.773761 -25.078298
32.680961 34.503172 -23.61336
32.176167 34.923809 -24.412114
32.771935 32.930977 -23.586727
32.680961 34.503172 -23.61336
35.304783 51.155548 -23.112789
34.203083 51.753792 -23.538969
35.202965 49.663505 -23.128096
35.304783 51.155548 -23.112789
34.243368 48.701988 -23.687908
35.202965 49.663505 -23.128096
38.804245 48.385788 -19.962507
39.147074 47.799542 -19.127699
37.900381 47.553795 -20.527292
38.377691 48.915726 -20.756235
38.804245 48.385788 -19.962507
37.793691 45.668377 -19.437735
38.517414 46.478733 -18.78705
37.506792 46.17118 -20.338013
37.793691 45.668377 -19.437735
36.973548 44.8157 -20.042183
36.179428 45.798901 -21.704805
36.573017 47.181515 -21.894085
37.080238 46.701118 -21.13174
35.376435 44.878282 -22.318102
36.179428 45.798901 -21.704805
35.883656 44.397886 -21.555757
34.499761 43.91069 -22.906914
35.376435 44.878282 -22.318102
34.313609 42.490273 -22.79338
33.732708 42.923694 -23.53124
34.499761 43.91069 -22.906914
34.800684 40.156149 -20.859287
35.165798 41.594358 -21.112924
34.269483 39.169319 -21.585987
34.800684 40.156149 -20.859287
33.637404 38.153019 -22.257723
33.855431 39.627308 -22.447689
34.269483 39.169319 -21.585987
33.158886 37.107384 -22.994978
33.637404 38.153019 -22.257723
33.174358 28.707886 -24.750998
33.710234 28.177509 -24.054612
32.977037 27.595255 -25.594009
32.561735 29.163214 -25.335365
33.174358 28.707886 -24.750998
34.159653 25.634664 -25.500027
34.17235 26.556999 -24.414174
34.742342 25.051737 -24.904559
36.863083 20.309948 -28.379047
36.778984 20.799357 -27.047161
36.130826 20.774925 -28.678317
36.863083 20.309948 -28.379047
35.437345 21.263782 -29.053963
35.411356 21.90945 -27.821511
36.130826 20.774925 -28.678317
34.69968 21.594864 -29.306324
35.437345 21.263782 -29.053963
33.997044 21.95093 -29.653084
34.015239 22.754373 -28.543917
34.69968 21.594864 -29.306324
33.265585 22.151649 -29.856857
33.997044 21.95093 -29.653084
33.950025 20.99214 -30.619264
32.442805 20.350966 -31.92974
32.498421 21.274162 -30.977508
33.162951 20.269663 -31.77527
31.734951 20.266762 -31.922584
32.442805 20.350966 -31.92974
3 39 38 10
3 40 12 41
3 0 15 13
3 0 17 15
3 42 19 43
3 44 22 45
3 46 45 20
3 44 45 46
3 47 23 48
3 2 24 11
3 2 25 24
3 3 49 50
3 3 51 52
3 4 53 54
3 4 55 57
3 55 26 56
3 55 56 57
3 1 58 60
3 58 27 59
3 58 59 60
3 5 28 14
3 5 61 63
3 63 62 28
3 61 62 63
3 5 64 65
3 67 66 16
3 6 68 69
3 6 70 72
3 70 71 72
3 73 29 74
3 7 75 77
3 77 76 18
3 75 76 77
3 7 78 79
3 8 80 81
3 8 82 83
3 84 30 85
3 86 31 87
3 88 32 89
3 90 89 31
3 88 89 90
3 91 33 92
3 93 92 32
3 91 92 93
3 94 34 95
3 9 35 21
3 9 36 35
3 96 37 97
3 99 98 37
3 10 100 102
3 100 11 101
3 100 101 102
3 103 11 104
3 105 104 10
3 103 104 105
3 106 2 107
3 108 107 11
3 106 107 108
3 109 3 110
3 12 111 112
3 12 113 115
3 113 4 114
3 113 114 115
3 13 14 1
3 15 14 13
3 15 5 14
3 15 16 5
3 17 16 15
3 17 116 118
3 118 117 16
3 116 117 118
3 119 6 120
3 121 18 122
3 19 123 125
3 123 18 124
3 123 124 125
3 19 7 18
3 126 8 127
3 20 128 130
3 128 21 129
3 128 129 130
3 22 21 20
3 22 9 21
3 23 131 132
3 23 133 135
3 133 1 134
3 133 134 135
3 11 136 138
3 136 23 137
3 136 137 138
3 24 23 11
3 24 1 23
3 24 13 1
3 25 13 24
3 25 0 13
3 26 139 140
3 26 141 142
3 143 12 144
3 27 145 147
3 145 12 146
3 145 146 147
3 27 4 12
3 14 27 1
3 28 27 14
3 28 4 27
3 28 26 4
3 148 26 149
3 150 149 28
3 148 149 150
3 152 151 26
3 16 153 155
3 155 154 5
3 153 154 155
3 157 156 16
3 158 20 159
3 160 20 161
3 160 161 162
3 165 164 20
3 163 164 165
3 166 6 167
3 166 167 168
3 169 6 170
3 169 170 171
3 174 173 6
3 172 173 174
3 29 175 176
3 29 177 178
3 18 179 181
3 179 29 180
3 179 180 181
3 182 29 183
3 184 183 18
3 182 183 184
3 186 185 29
3 187 10 188
3 189 10 190
3 192 191 10
3 193 3 194
3 195 3 196
3 198 197 3
3 30 199 200
3 30 201 203
3 201 8 202
3 201 202 203
3 204 30 205
3 31 206 208
3 206 30 207
3 206 207 208
3 31 8 30
3 31 209 211
3 211 210 8
3 209 210 211
3 32 212 214
3 214 213 31
3 212 213 214
3 32 215 216
3 32 217 219
3 217 19 218
3 217 218 219
3 33 19 32
3 33 7 19
3 220 33 221
3 222 33 223
3 224 7 225
3 226 225 33
3 224 225 226
3 228 227 7
3 34 229 230
3 34 231 233
3 231 2 232
3 231 232 233
3 21 234 236
3 234 34 235
3 234 235 236
3 35 34 21
3 35 2 34
3 35 25 2
3 36 25 35
3 36 0 25
3 237 22 238
3 239 22 240
3 241 9 242
3 243 242 22
3 241 242 243
3 244 9 245
3 246 36 247
3 248 247 9
3 246 247 248
3 37 249 251
3 249 36 250
3 249 250 251
3 37 0 36
3 37 17 0
3 252 17 253
3 254 253 37
3 252 253 254
3 256 255 17
