ply
format ascii 1.0
element vertex 344
property float x
property float y
property float z
element face 321
property list uchar int vertex_index
end_header
-32.406281 35.871651 -16.948601
-42.023445 45.951588 -3.46904
-33.414673 37.772118 -10.162464
-32.675049 31.607906 -15.299158
-33.472126 25.975887 -18.314362
-32.146435 31.891373 -18.970425
-44.088379 43.540329 -0.000153
-33.424889 30.711426 -3.363897
-33.223221 31.393661 -7.450052
-33.84021 37.954807 -6.100521
-33.657078 39.904522 -17.459991
-50.347218 27.259296 6.552577
-47.548584 30.698448 6.267757
-44.632843 34.160954 5.342397
-41.851597 37.447269 3.613961
-39.458733 40.274334 1.012075
-37.64732 42.31488 -2.373606
-36.437477 43.284275 -6.26594
-35.601112 43.096081 -10.291086
-34.757515 41.909412 -14.113752
-32.924976 36.957558 -13.954657
-33.048817 31.594246 -11.486715
-32.401237 34.12011 -16.117743
-32.424362 31.692554 -17.129314
-32.219688 34.16045 -17.789898
-33.453213 34.576267 -4.518456
-34.126072 37.728031 -4.068377
-34.849609 42.089111 -17.920315
-48.97736 28.968056 6.477311
-46.946041 35.671417 5.063085
-45.560135 37.403973 4.208322
-43.209167 35.842342 4.585814
-44.207901 39.068523 3.166476
-42.998051 44.853725 -1.665342
-41.73777 42.04776 0.500519
-40.676746 43.28019 -1.111765
-38.47364 41.413437 -0.59617
-39.756184 44.283157 -2.882732
-38.329224 45.450382 -6.749479
-37.777534 45.57098 -8.753418
-35.995529 43.329502 -8.284807
-37.278 45.384052 -10.743702
-36.227119 44.188801 -14.539536
-35.588951 43.243073 -16.291695
-34.241364 41.009464 -15.862642
-33.151642 34.853634 -8.61138
-33.152779 31.538845 -9.488333
-33.013344 34.764179 -10.620691
-32.839661 34.57233 -12.561687
-33.189049 37.425365 -12.112858
-33.255985 28.564198 -14.718571
-32.983654 28.799751 -16.623001
-32.635002 29.073414 -18.50935
-45.275051 42.055 1.508065
-33.607857 27.477154 -6.717615
-33.298656 31.126263 -5.397812
-33.283798 34.801529 -6.565607
-33.618935 37.960224 -8.145527
-32.820667 37.744694 -17.115677
-32.414948 36.359173 -18.382771
-33.03183 38.528633 -18.888588
-46.090031 32.436764 5.896923
-42.923344 40.629616 1.930364
-40.591938 38.938171 2.421159
-41.171673 46.790607 -5.380722
-38.978386 45.016552 -4.776737
-36.975636 42.94521 -4.27936
-35.319717 40.523251 -4.010822
-34.906624 40.790363 -6.020576
-34.578426 40.79493 -8.055626
-34.285561 40.55938 -10.072132
-36.777924 44.91251 -12.682386
-35.20282 42.612156 -12.24559
-33.981556 40.115108 -12.030174
-33.634781 39.493362 -13.89031
-33.239304 38.712036 -15.606348
-32.639256 36.411407 -15.623999
-33.59515 27.831802 -8.765612
-33.552299 28.11208 -10.790508
-33.445217 28.345875 -12.776825
-32.889408 31.599693 -13.426168
-32.626198 34.328773 -14.402979
-32.064579 34.437069 -19.566467
-31.81464 32.152538 -20.846786
-34.324224 37.496021 -3.081275
-33.916355 35.941923 -3.289084
-35.063698 42.488304 -18.927488
-35.56778 43.168676 -18.175176
-46.0452 38.921146 3.530156
-46.690681 38.065331 4.120406
-45.369084 39.753422 3.009232
-44.884018 38.236248 3.687399
-46.0452 38.921146 3.530156
-38.481945 46.512272 -10.045551
-38.781826 46.563656 -9.056849
-38.232178 46.418808 -11.040693
-37.527767 45.477516 -9.74856
-38.481945 46.512272 -10.045551
-35.93745 43.745657 -17.360867
-36.378903 44.323935 -16.552259
-35.56778 43.168676 -18.175176
-35.21928 42.666092 -17.106005
-35.93745 43.745657 -17.360867
-32.177801 30.632624 -19.680513
-32.422084 29.223644 -19.449976
-32.390718 30.482394 -18.739888
-33.572012 28.582161 -3.008211
-33.535461 30.422186 -2.375116
-33.529498 28.867636 -4.016866
-33.572012 28.582161 -3.008211
-33.361773 30.918844 -4.380854
-33.466381 29.075055 -5.033824
-33.529498 28.867636 -4.016866
-34.024151 24.328584 -18.391127
-33.659271 25.763605 -17.363938
-50.990316 26.418102 6.539669
-51.241816 27.92094 6.72033
-50.059637 25.654856 6.535736
-50.990316 26.418102 6.539669
-49.333956 26.468292 6.610734
-50.059637 25.654856 6.535736
-47.187382 29.017416 6.484244
-47.90177 28.15222 6.589022
-48.262972 29.833252 6.372534
-46.43086 29.85841 6.42328
-47.187382 29.017416 6.484244
-44.2207 32.433022 5.807965
-44.949294 31.570927 6.085228
-45.361437 33.298859 5.61966
-43.486843 33.265951 5.551512
-44.2207 32.433022 5.807965
-41.395544 35.716082 4.317732
-42.074329 34.913618 4.803659
-42.530382 36.644806 4.099888
-40.743015 36.479608 3.829485
-41.395544 35.716082 4.317732
-38.956501 38.594326 1.920962
-39.523103 37.926244 2.625503
-40.025335 39.606252 1.716617
-38.441006 39.213436 1.199461
-38.956501 38.594326 1.920962
-37.10239 40.751333 -1.316782
-37.515551 40.300612 -0.428064
-38.06048 41.864159 -1.484888
-36.753838 41.150442 -2.223936
-37.10239 40.751333 -1.316782
-40.803002 47.062077 -6.370242
-41.876392 47.894168 -6.67542
-39.706358 46.175049 -6.06825
-40.075029 45.903579 -5.078729
-40.803002 47.062077 -6.370242
-37.352129 45.628765 -13.883748
-37.680988 45.976169 -12.968579
-32.237011 35.620055 -19.876407
-32.239764 35.398121 -18.974619
-32.412196 36.581107 -19.28456
-31.595595 32.280106 -21.780684
-31.828227 33.443979 -21.143245
-31.752054 30.908546 -21.548338
-31.595595 32.280106 -21.780684
-33.565764 32.43362 -2.936845
-33.535461 30.422186 -2.375116
-33.579926 34.366041 -3.514124
-33.439051 32.643847 -3.941177
-33.565764 32.43362 -2.936845
-33.789642 36.152149 -4.293416
-33.579926 34.366041 -3.514124
-33.916355 35.941923 -3.289084
-33.773133 24.618889 -19.318665
-33.230067 26.183927 -19.250428
-34.435924 41.400934 -18.667704
-33.839659 40.308639 -18.437542
-34.253343 40.996817 -17.690153
-34.435924 41.400934 -18.667704
-35.063698 42.488304 -18.927488
-50.652639 28.80158 6.594297
-51.241816 27.92094 6.72033
-49.96771 29.65596 6.556664
-49.662289 28.113676 6.514944
-50.652639 28.80158 6.594297
-49.328363 30.544001 6.369274
-49.96771 29.65596 6.556664
-48.613975 31.409197 6.264497
-48.262972 29.833252 6.372534
-49.328363 30.544001 6.369274
-47.383634 37.199053 4.547788
-48.029198 36.311782 5.059018
-46.253088 36.537695 4.635703
-47.383634 37.199053 4.547788
-46.690681 38.065331 4.120406
-39.057671 46.503357 -8.054879
-39.381777 46.391964 -7.054621
-38.053379 45.510681 -7.751449
-39.057671 46.503357 -8.054879
-38.781826 46.563656 -9.056849
-36.697986 44.796799 -15.67618
-37.076726 45.26691 -14.812323
-35.908035 43.715937 -15.415616
-36.697986 44.796799 -15.67618
-36.378903 44.323935 -16.552259
-33.551201 27.057761 -15.566043
-33.68123 26.845661 -14.599727
-33.415035 27.175537 -16.518258
-33.551201 27.057761 -15.566043
-33.11982 28.681975 -15.670786
-33.22789 27.387819 -17.468681
-33.659271 25.763605 -17.363938
-33.415035 27.175537 -16.518258
-32.811504 27.732691 -19.347921
-33.230067 26.183927 -19.250428
-33.053564 27.52465 -18.411856
-32.811504 27.732691 -19.347921
-32.422084 29.223644 -19.449976
-46.369575 42.668388 1.399211
-45.902659 41.24666 2.180027
-45.800552 43.439844 0.579889
-46.369575 42.668388 1.399211
-45.207217 44.182508 -0.174219
-44.681715 42.797664 0.753956
-45.800552 43.439844 0.579889
-44.670904 44.87475 -1.057111
-45.207217 44.182508 -0.174219
-44.12574 45.531448 -1.889706
-43.543215 44.197027 -0.832748
-44.670904 44.87475 -1.057111
-43.632679 46.124145 -2.828784
-44.12574 45.531448 -1.889706
-43.145376 46.673077 -3.730633
-42.510748 45.402656 -2.567191
-43.632679 46.124145 -2.828784
-33.620981 27.2505 -5.693726
-33.930146 25.35173 -6.56707
-33.453257 29.301709 -6.057714
-33.620981 27.2505 -5.693726
-33.466381 29.075055 -5.033824
-34.024151 24.328584 -18.391127
-33.773133 24.618889 -19.318665
-32.720636 37.665836 -19.537468
-32.412196 36.581107 -19.28456
-32.723389 37.443903 -18.63568
-33.527035 39.620695 -19.15184
-33.344454 39.216577 -18.17429
-33.839659 40.308639 -18.437542
-33.088158 38.804323 -19.836762
-33.527035 39.620695 -19.15184
-32.720636 37.665836 -19.537468
-33.088158 38.804323 -19.836762
-48.649027 27.322672 6.573101
-49.333956 26.468292 6.610734
-49.662289 28.113676 6.514944
-48.649027 27.322672 6.573101
-47.90177 28.15222 6.589022
-47.939667 32.300078 6.005167
-48.613975 31.409197 6.264497
-47.638396 34.786562 5.402831
-48.029198 36.311782 5.059018
-47.210391 33.169235 5.81975
-47.638396 34.786562 5.402831
-46.518036 34.054091 5.480004
-46.819308 31.567606 6.08234
-47.939667 32.300078 6.005167
-47.210391 33.169235 5.81975
-45.701584 30.727568 6.237863
-46.43086 29.85841 6.42328
-46.819308 31.567606 6.08234
-45.701584 30.727568 6.237863
-44.949294 31.570927 6.085228
-42.775005 34.106645 5.17322
-43.486843 33.265951 5.551512
-43.921005 35.001648 4.964106
-42.775005 34.106645 5.17322
-42.074329 34.913618 4.803659
-44.741476 40.561762 2.33727
-45.369084 39.753422 3.009232
-45.902659 41.24666 2.180027
-40.113186 37.22506 3.233084
-40.743015 36.479608 3.829485
-41.221767 38.19272 3.01756
-40.113186 37.22506 3.233084
-39.523103 37.926244 2.625503
-37.948459 39.782988 0.395339
-38.441006 39.213436 1.199461
-38.966187 40.843885 0.207953
-37.948459 39.782988 0.395339
-37.515551 40.300612 -0.428064
-42.700659 47.14468 -4.712826
-43.145376 46.673077 -3.730633
-42.274772 47.564189 -5.668667
-41.876392 47.894168 -6.67542
-41.597559 46.371098 -4.424881
-42.700659 47.14468 -4.712826
-42.274772 47.564189 -5.668667
-38.653805 45.233467 -5.763108
-39.706358 46.175049 -6.06825
-39.381777 46.391964 -7.054621
-36.417996 41.465607 -3.176812
-36.753838 41.150442 -2.223936
-37.311478 42.630045 -3.326483
-35.590036 40.254627 -3.042543
-36.417996 41.465607 -3.176812
-36.147677 41.734231 -4.145091
-34.921047 38.893631 -3.052497
-35.590036 40.254627 -3.042543
-34.722894 39.125641 -4.039599
-34.324224 37.496021 -3.081275
-34.921047 38.893631 -3.052497
-37.931027 46.21194 -11.999237
-38.232178 46.418808 -11.040693
-37.027962 45.148281 -11.713044
-37.931027 46.21194 -11.999237
-37.680988 45.976169 -12.968579
-36.502522 44.550655 -13.610961
-37.352129 45.628765 -13.883748
-37.076726 45.26691 -14.812323
-33.949782 25.621046 -7.592646
-33.930146 25.35173 -6.56707
-33.943428 25.79837 -8.616645
-33.949782 25.621046 -7.592646
-33.601503 27.654478 -7.741614
-33.950601 26.040544 -9.63491
-33.943428 25.79837 -8.616645
-33.929176 26.180684 -10.647358
-33.950601 26.040544 -9.63491
-33.573724 27.971941 -9.77806
-33.903379 26.40487 -11.650809
-33.929176 26.180684 -10.647358
-33.849838 26.521767 -12.643968
-33.903379 26.40487 -11.650809
-33.498758 28.228977 -11.783667
-33.775847 26.7365 -13.628854
-33.849838 26.521767 -12.643968
-33.350601 28.455036 -13.747698
-33.68123 26.845661 -14.599727
-33.775847 26.7365 -13.628854
-31.953197 34.586244 -20.503086
-32.237011 35.620055 -19.876407
-31.93961 33.294804 -20.206626
-31.953197 34.586244 -20.503086
-31.828227 33.443979 -21.143245
-32.011904 30.763207 -20.618694
-32.177801 30.632624 -19.680513
-31.980537 32.021956 -19.908606
-32.011904 30.763207 -20.618694
-31.752054 30.908546 -21.548338
3 0 24 22
3 84 26 85
3 87 86 27
3 88 30 89
3 90 32 91
3 92 91 30
3 90 91 92
3 1 35 33
3 1 37 35
3 93 39 94
3 95 41 96
3 97 96 39
3 95 96 97
3 98 43 99
3 100 27 101
3 102 101 43
3 100 101 102
3 2 47 45
3 2 49 47
3 3 51 50
3 5 52 23
3 5 103 105
3 105 104 52
3 103 104 105
3 7 106 107
3 7 108 109
3 7 110 112
3 110 55 111
3 110 111 112
3 9 56 25
3 9 57 56
3 4 113 114
3 10 60 58
3 11 115 116
3 11 117 118
3 11 119 120
3 12 121 123
3 123 122 28
3 121 122 123
3 12 124 125
3 13 61 29
3 13 126 128
3 128 127 61
3 126 127 128
3 13 129 130
3 14 131 133
3 133 132 31
3 131 132 133
3 14 134 135
3 6 62 53
3 15 63 34
3 15 136 138
3 138 137 63
3 136 137 138
3 15 139 140
3 16 141 143
3 143 142 36
3 141 142 143
3 16 144 145
3 146 64 147
3 148 65 149
3 150 149 64
3 148 149 150
3 17 66 38
3 17 67 66
3 17 68 67
3 18 69 40
3 18 70 69
3 151 71 152
3 19 72 42
3 19 73 72
3 19 74 73
3 10 75 44
3 10 58 75
3 8 77 54
3 21 78 46
3 21 79 78
3 21 80 79
3 20 81 48
3 20 76 81
3 153 82 154
3 155 154 59
3 153 154 155
3 156 83 157
3 159 158 83
3 22 23 3
3 24 23 22
3 24 5 23
3 160 7 161
3 162 25 163
3 164 163 7
3 162 163 164
3 26 165 167
3 165 25 166
3 165 166 167
3 26 9 25
3 169 168 4
3 27 170 172
3 172 171 10
3 170 171 172
3 174 173 27
3 175 11 176
3 177 28 178
3 179 178 11
3 177 178 179
3 180 28 181
3 182 12 183
3 184 183 28
3 182 183 184
3 185 29 186
3 30 187 189
3 187 29 188
3 187 188 189
3 30 13 29
3 30 31 13
3 32 31 30
3 32 14 31
3 33 34 6
3 35 34 33
3 35 15 34
3 35 36 15
3 37 36 35
3 37 16 36
3 190 38 191
3 39 192 194
3 192 38 193
3 192 193 194
3 39 17 38
3 39 40 17
3 41 40 39
3 41 18 40
3 195 42 196
3 43 197 199
3 197 42 198
3 197 198 199
3 43 19 42
3 43 44 19
3 27 44 43
3 27 10 44
3 45 46 8
3 47 46 45
3 47 21 46
3 47 48 21
3 49 48 47
3 49 20 48
3 50 200 201
3 51 202 204
3 204 203 50
3 202 203 204
3 51 205 207
3 205 4 206
3 205 206 207
3 23 51 3
3 52 51 23
3 52 4 51
3 52 208 210
3 210 209 4
3 208 209 210
3 212 211 52
3 213 53 214
3 215 53 216
3 217 6 218
3 219 218 53
3 217 218 219
3 220 6 221
3 222 33 223
3 224 223 6
3 222 223 224
3 225 33 226
3 227 1 228
3 229 228 33
3 227 228 229
3 230 54 231
3 55 232 234
3 232 54 233
3 232 233 234
3 55 8 54
3 25 55 7
3 56 55 25
3 56 8 55
3 56 45 8
3 57 45 56
3 57 2 45
3 236 235 4
3 58 59 0
3 60 59 58
3 60 237 239
3 239 238 59
3 237 238 239
3 240 60 241
3 242 241 10
3 240 241 242
3 243 60 244
3 246 245 60
3 28 247 249
3 249 248 11
3 247 248 249
3 251 250 28
3 252 12 253
3 29 254 255
3 61 256 258
3 258 257 29
3 256 257 258
3 61 259 261
3 259 12 260
3 259 260 261
3 61 262 264
3 264 263 12
3 262 263 264
3 266 265 61
3 31 267 269
3 269 268 13
3 267 268 269
3 271 270 31
3 53 272 274
3 272 32 273
3 272 273 274
3 62 32 53
3 62 14 32
3 34 62 6
3 63 62 34
3 63 14 62
3 63 275 277
3 277 276 14
3 275 276 277
3 279 278 63
3 36 280 282
3 282 281 15
3 280 281 282
3 284 283 36
3 285 1 286
3 64 287 288
3 64 289 291
3 289 1 290
3 289 290 291
3 64 37 1
3 65 37 64
3 65 16 37
3 38 292 294
3 292 65 293
3 292 293 294
3 66 65 38
3 66 16 65
3 66 295 297
3 297 296 16
3 295 296 297
3 67 298 300
3 300 299 66
3 298 299 300
3 67 301 302
3 67 303 305
3 303 26 304
3 303 304 305
3 68 26 67
3 68 9 26
3 40 68 17
3 69 68 40
3 69 9 68
3 69 57 9
3 70 57 69
3 70 2 57
3 306 41 307
3 71 308 310
3 308 41 309
3 308 309 310
3 71 18 41
3 42 311 313
3 311 71 312
3 311 312 313
3 72 71 42
3 72 18 71
3 72 70 18
3 73 70 72
3 73 2 70
3 73 49 2
3 74 49 73
3 74 20 49
3 44 74 19
3 75 74 44
3 75 20 74
3 75 76 20
3 58 76 75
3 58 0 76
3 54 314 315
3 77 316 318
3 318 317 54
3 316 317 318
3 77 319 320
3 46 77 8
3 78 77 46
3 78 321 323
3 323 322 77
3 321 322 323
3 78 324 325
3 79 326 328
3 328 327 78
3 326 327 328
3 79 329 330
3 79 331 333
3 331 50 332
3 331 332 333
3 80 50 79
3 80 3 50
3 48 80 21
3 81 80 48
3 81 3 80
3 81 22 3
3 76 22 81
3 76 0 22
3 59 24 0
3 82 24 59
3 82 5 24
3 334 82 335
3 83 336 338
3 336 82 337
3 336 337 338
3 83 5 82
3 83 339 341
3 341 340 5
3 339 340 341
3 343 342 83
