ply
format ascii 1.0
element vertex 456
property float x
property float y
property float z
element face 346
property list uchar int vertex_index
end_header
-33.429058 14.160198 -40.264404
-28.581875 17.127991 -32.258652
-17.896635 10.303219 -28.519886
-25.558243 21.631844 -30.83939
-28.834412 12.719946 -34.984245
-26.688013 10.429516 -33.725163
-15.133424 7.737568 -27.422432
-6.665739 11.581594 -27.488277
-25.997372 27.54496 -29.912853
-31.275711 14.52383 -35.585522
-30.789661 11.956657 -39.791725
-29.789589 9.699902 -44.047489
-22.733452 17.528381 -30.850945
-24.213352 18.13205 -31.153107
-10.818388 9.607962 -27.203747
-13.713066 6.264988 -27.036983
-4.299921 15.329597 -28.053349
2.432232 17.262833 -26.064709
-24.368179 27.478115 -30.443275
-27.084442 19.182362 -31.322659
-29.896799 17.612877 -32.133965
-29.993519 15.553001 -33.691319
-28.873526 10.77487 -36.60067
-29.929192 12.045473 -37.225372
-29.723061 10.531515 -39.162262
-30.33474 10.830856 -41.946381
-29.410162 9.101324 -41.142296
-18.255863 15.392353 -29.410831
-19.246773 11.411615 -29.166584
-24.155743 1.730247 -30.953831
-24.88657 3.337471 -31.99173
-25.597826 4.908934 -33.020607
-26.322304 6.446236 -34.016476
-24.055807 24.393379 -30.702328
-25.667555 18.688148 -31.320766
-27.258598 16.517944 -32.175957
-28.725225 14.834076 -33.536015
-27.728485 11.616377 -34.414707
-27.933731 9.396549 -35.831703
-16.52743 9.082232 -27.925655
3.318211 15.282669 -24.584362
-21.24086 16.878876 -30.442013
-9.337017 8.005354 -27.03059
-2.956739 13.52879 -27.758183
-5.239664 9.813929 -27.327213
-32.606567 15.128685 -35.522781
-30.015821 13.704281 -35.390701
-31.110264 13.161442 -37.653721
-32.029503 13.186573 -40.178089
-31.477814 12.384949 -42.514771
-19.746387 16.173317 -29.952374
-27.091434 7.946016 -34.960426
-29.020571 7.688334 -43.085972
-29.211161 8.487459 -46.01429
-23.663525 16.289185 -31.191121
-22.995238 15.879213 -30.942721
-12.990969 5.466136 -26.906765
-12.265727 7.936475 -27.120365
-11.54363 7.137623 -26.990147
-3.278918 17.254888 -28.343117
-3.94177 18.095993 -28.518666
1.80665 15.337759 -26.282272
2.324171 14.337722 -25.708424
-33.901909 14.435678 -41.483288
-34.192284 14.489645 -40.135982
-33.131231 13.930117 -41.524405
-33.901909 14.435678 -41.483288
-23.490043 27.438005 -30.608781
-23.770027 29.003591 -30.509531
-28.519041 18.358797 -31.692509
-27.770325 19.385983 -31.224513
-27.833158 18.155177 -31.790655
-29.239337 17.370434 -32.196309
-29.176503 18.60124 -31.630166
-28.519041 18.358797 -31.692509
-29.274473 9.749557 -38.755837
-29.298293 10.653192 -37.881466
-28.849706 9.871234 -37.475041
-29.118024 9.034461 -39.745854
-29.566612 9.81642 -40.152279
-29.274473 9.749557 -38.755837
-17.333122 12.407553 -28.686172
-16.590525 11.905646 -28.418917
-18.571704 10.857417 -28.843235
-18.008191 12.961751 -29.009521
-17.333122 12.407553 -28.686172
-25.669351 2.70706 -33.052456
-25.435446 1.812206 -32.460985
-26.024979 3.492792 -33.566895
-25.242198 4.123202 -32.506169
-25.669351 2.70706 -33.052456
-26.264022 4.378831 -34.143057
-26.024979 3.492792 -33.566895
-25.798014 17.252546 -31.621302
-24.940454 18.410099 -31.236936
-25.070912 16.974497 -31.537472
-26.593536 16.167444 -32.048897
-26.463076 17.603046 -31.748361
-25.798014 17.252546 -31.621302
-27.374487 15.253912 -32.685707
-26.593536 16.167444 -32.048897
-27.208249 11.022946 -34.069935
-27.007112 12.336163 -33.562767
-26.486877 11.742733 -33.217995
-14.465225 10.04975 -27.635041
-13.720274 9.400022 -27.447338
-15.830427 8.4099 -27.674043
-15.162228 10.722081 -27.886652
-14.465225 10.04975 -27.635041
3.705498 17.208976 -24.101436
3.328157 18.188562 -24.993529
-20.201214 18.401516 -30.350779
-21.018912 18.64498 -30.516113
-7.400823 12.392781 -27.567265
-6.191372 14.280929 -27.879629
-8.001378 9.793474 -27.259434
-8.736462 10.604661 -27.338421
-7.400823 12.392781 -27.567265
-3.406607 10.728886 -27.431435
-2.318734 12.570585 -27.544041
-4.54807 8.871455 -27.21595
-4.098202 11.67136 -27.542698
-3.406607 10.728886 -27.431435
-26.307178 28.978766 -29.622264
-25.48917 29.0077 -29.985462
-26.733351 27.564213 -29.532455
-27.043157 28.998019 -29.241867
-26.307178 28.978766 -29.622264
-25.605933 23.116507 -30.617628
-24.854716 24.497274 -30.549097
-24.807025 23.012611 -30.770859
-31.941139 14.826258 -35.554152
-31.950212 15.616362 -34.571478
-31.284785 15.313934 -34.602848
-31.844753 14.296127 -36.708239
-32.510181 14.598555 -36.676868
-31.941139 14.826258 -35.554152
-30.300838 10.629408 -44.41317
-30.573413 11.194885 -43.362616
-30.062165 10.265379 -42.996935
-29.946976 10.156757 -45.473354
-30.458225 11.086263 -45.839036
-30.300838 10.629408 -44.41317
-20.166118 14.298513 -29.888478
-19.001125 15.782835 -29.681603
-19.420856 13.90803 -29.617706
-20.833796 14.76556 -30.204767
-20.166118 14.298513 -29.888478
-23.010255 2.717726 -30.199974
-23.502172 3.442971 -30.642558
-27.275789 6.771919 -35.664655
-26.706869 7.196126 -34.488451
-26.891224 6.022029 -35.19268
-27.586053 7.628789 -36.182896
-27.275789 6.771919 -35.664655
-28.753032 6.632967 -42.520308
-28.856415 7.470377 -41.624842
-28.588876 6.41501 -41.059177
-28.934165 7.811546 -46.88933
-28.901971 7.359371 -45.458701
-28.624975 6.683458 -46.333741
-29.321086 8.982421 -47.407994
-28.934165 7.811546 -46.88933
-23.473402 17.830216 -31.002026
-23.318157 19.492985 -30.984186
-22.578207 19.19115 -30.833106
-24.403475 16.591019 -31.342202
-23.473402 17.830216 -31.002026
-23.663525 16.289185 -31.191121
-25.070912 16.974497 -31.537472
-24.403475 16.591019 -31.342202
-25.896974 11.243116 -32.921268
-26.486877 11.742733 -33.217995
-11.562756 10.33522 -27.337995
-10.231707 12.134089 -27.527132
-13.010095 8.663733 -27.254613
-11.562756 10.33522 -27.337995
-12.265727 7.936475 -27.120365
-14.423245 7.001278 -27.229707
-13.720274 9.400022 -27.447338
-13.010095 8.663733 -27.254613
-5.008463 16.15493 -28.162165
-3.94177 18.095993 -28.518666
-5.48283 13.455596 -27.770813
-6.191372 14.280929 -27.879629
-5.008463 16.15493 -28.162165
1.972884 18.260809 -26.697496
2.501091 20.172481 -26.534811
1.972884 18.260809 -26.697496
1.80665 15.337759 -26.282272
-24.674574 28.974277 -30.250673
-23.770027 29.003591 -30.509531
-25.182775 27.511537 -30.178064
-25.48917 29.0077 -29.985462
-24.674574 28.974277 -30.250673
-27.055079 20.565109 -30.950228
-26.29198 21.789851 -30.708593
-26.321343 20.407103 -31.081025
-27.055079 20.565109 -30.950228
-27.770325 19.385983 -31.224513
-29.837792 18.745499 -31.418971
-29.176503 18.60124 -31.630166
-30.548391 17.773638 -31.952738
-30.489384 18.906259 -31.237744
-29.837792 18.745499 -31.418971
-30.595329 16.858458 -32.87707
-30.548391 17.773638 -31.952738
-30.643688 15.828519 -33.655746
-30.595329 16.858458 -32.87707
-29.945159 16.582939 -32.912642
-30.634615 15.038415 -34.63842
-31.284785 15.313934 -34.602848
-30.643688 15.828519 -33.655746
-17.512736 14.95212 -29.131645
-17.087954 17.059607 -29.402493
-18.751318 13.401984 -29.288708
-17.512736 14.95212 -29.131645
-18.008191 12.961751 -29.009521
-19.916311 11.917661 -29.495582
-19.420856 13.90803 -29.617706
-18.751318 13.401984 -29.288708
-25.070032 1.008595 -31.942036
-24.820275 0.105606 -31.347886
-24.521157 2.533859 -31.47278
-25.070032 1.008595 -31.942036
-25.435446 1.812206 -32.460985
-23.867585 4.246583 -31.161507
-23.502172 3.442971 -30.642558
-24.521157 2.533859 -31.47278
-24.343385 4.942561 -31.610712
-23.867585 4.246583 -31.161507
-24.699013 5.728293 -32.12515
-24.343385 4.942561 -31.610712
-25.242198 4.123202 -32.506169
-25.170276 6.398731 -32.565368
-24.699013 5.728293 -32.12515
-25.960065 5.677585 -33.518541
-25.532514 7.167381 -33.063303
-25.170276 6.398731 -32.565368
-26.626261 5.147482 -34.640991
-25.960065 5.677585 -33.518541
-26.264022 4.378831 -34.143057
-26.891224 6.022029 -35.19268
-26.626261 5.147482 -34.640991
-33.625082 14.435616 -38.987106
-34.192284 14.489645 -40.135982
-23.213048 24.276212 -30.763638
-23.333857 25.895637 -30.738308
-24.036748 22.827706 -30.805224
-23.213048 24.276212 -30.763638
-24.787966 21.446938 -30.873755
-24.807025 23.012611 -30.770859
-24.036748 22.827706 -30.805224
-24.115521 19.697041 -31.030613
-23.318157 19.492985 -30.984186
-24.842622 19.97509 -31.114442
-24.115521 19.697041 -31.030613
-24.940454 18.410099 -31.236936
-25.612899 20.159996 -31.080078
-24.787966 21.446938 -30.873755
-24.842622 19.97509 -31.114442
-28.1078 14.411978 -33.365736
-27.991912 15.67601 -32.855986
-27.374487 15.253912 -32.685707
-28.162394 13.354913 -34.089851
-28.779818 13.777011 -34.26013
-28.1078 14.411978 -33.365736
-27.609431 12.803128 -33.805082
-27.007112 12.336163 -33.562767
-28.281448 12.168162 -34.699476
-28.162394 13.354913 -34.089851
-27.609431 12.803128 -33.805082
-28.379809 9.182074 -37.090557
-28.849706 9.871234 -37.475041
-28.403628 10.08571 -36.216186
-15.905923 11.295152 -28.121801
-15.162228 10.722081 -27.886652
-17.212032 9.692725 -28.22277
-16.590525 11.905646 -28.418917
-15.905923 11.295152 -28.121801
2.885168 19.178645 -25.733702
2.501091 20.172481 -26.534811
2.875221 16.272751 -25.324535
2.885168 19.178645 -25.733702
3.328157 18.188562 -24.993529
2.767161 13.34764 -24.96825
2.324171 14.337722 -25.708424
2.875221 16.272751 -25.324535
3.752947 14.337498 -23.754211
3.705498 17.208976 -24.101436
3.271065 12.382974 -24.286617
3.752947 14.337498 -23.754211
2.767161 13.34764 -24.96825
3.271065 12.382974 -24.286617
-21.765208 18.969732 -30.720579
-22.578207 19.19115 -30.833106
-21.987156 17.203629 -30.646479
-21.765208 18.969732 -30.720579
-21.018912 18.64498 -30.516113
-22.248942 15.554461 -30.738255
-22.995238 15.879213 -30.942721
-21.987156 17.203629 -30.646479
-9.477147 11.405965 -27.424999
-10.231707 12.134089 -27.527132
-10.077703 8.806658 -27.117168
-9.477147 11.405965 -27.424999
-8.736462 10.604661 -27.338421
-10.802945 6.336319 -26.903568
-11.54363 7.137623 -26.990147
-10.077703 8.806658 -27.117168
-1.995022 15.439284 -27.942538
-2.318734 12.570585 -27.544041
-2.607327 16.354485 -28.195534
-1.995022 15.439284 -27.942538
-3.62833 14.429194 -27.905766
-3.278918 17.254888 -28.343117
-2.607327 16.354485 -28.195534
-5.827576 7.117339 -27.071072
-4.54807 8.871455 -27.21595
-6.554162 8.041543 -27.122767
-5.827576 7.117339 -27.071072
-7.2672 8.925375 -27.203299
-5.952701 10.697762 -27.407745
-6.554162 8.041543 -27.122767
-8.602839 7.137255 -26.974455
-8.001378 9.793474 -27.259434
-7.2672 8.925375 -27.203299
-10.07122 5.479527 -26.82782
-8.602839 7.137255 -26.974455
-10.802945 6.336319 -26.903568
-10.07122 5.479527 -26.82782
-24.211993 25.935747 -30.572802
-23.490043 27.438005 -30.608781
-23.333857 25.895637 -30.738308
-25.010902 26.039642 -30.41957
-24.211993 25.935747 -30.572802
-24.854716 24.497274 -30.549097
-25.825498 26.073065 -30.154359
-25.182775 27.511537 -30.178064
-25.010902 26.039642 -30.41957
-25.605933 23.116507 -30.617628
-26.29198 21.789851 -30.708593
-26.568033 26.155739 -29.893738
-25.825498 26.073065 -30.154359
-26.733351 27.564213 -29.532455
-26.568033 26.155739 -29.893738
-32.61166 15.786188 -34.405941
-31.950212 15.616362 -34.571478
-33.297004 15.30019 -35.345493
-33.302098 15.957693 -34.228653
-32.61166 15.786188 -34.405941
-33.213836 14.919859 -36.616295
-33.297004 15.30019 -35.345493
-33.213836 14.919859 -36.616295
-32.510181 14.598555 -36.676868
-32.921426 14.114311 -39.04768
-33.625082 14.435616 -38.987106
-31.76203 13.614933 -37.742339
-31.844753 14.296127 -36.708239
-31.192988 13.842636 -36.619621
-32.221649 13.627498 -39.004523
-31.76203 13.614933 -37.742339
-31.569883 13.174007 -38.915905
-32.729281 13.673385 -40.221246
-32.921426 14.114311 -39.04768
-32.221649 13.627498 -39.004523
-32.431454 13.443304 -41.481247
-33.131231 13.930117 -41.524405
-32.729281 13.673385 -40.221246
-32.155609 13.042492 -42.649588
-32.431454 13.443304 -41.481247
-31.753659 12.785761 -41.34643
-31.784348 12.793816 -43.864413
-32.462143 13.451358 -43.999229
-32.155609 13.042492 -42.649588
-31.14495 11.971932 -43.646811
-30.906277 11.607903 -42.230576
-30.573413 11.194885 -43.362616
-31.784348 12.793816 -43.864413
-31.14495 11.971932 -43.646811
-17.894467 17.38233 -29.630533
-17.087954 17.059607 -29.402493
-18.639728 17.772812 -29.901305
-17.894467 17.38233 -29.630533
-19.001125 15.782835 -29.681603
-19.453978 18.048737 -30.105959
-18.639728 17.772812 -29.901305
-20.493623 16.526097 -30.197193
-20.201214 18.401516 -30.350779
-19.453978 18.048737 -30.105959
-21.581033 15.11834 -30.449587
-20.493623 16.526097 -30.197193
-20.833796 14.76556 -30.204767
-22.248942 15.554461 -30.738255
-21.581033 15.11834 -30.449587
-14.54505 3.946985 -26.929949
-12.990969 5.466136 -26.906765
-15.219856 4.754031 -27.13603
-14.54505 3.946985 -26.929949
-15.930035 5.490321 -27.328755
-14.423245 7.001278 -27.229707
-15.219856 4.754031 -27.13603
-16.577741 6.247892 -27.602318
-15.930035 5.490321 -27.328755
-17.274743 6.920224 -27.853929
-15.830427 8.4099 -27.674043
-16.577741 6.247892 -27.602318
-17.896772 7.628222 -28.183425
-17.274743 6.920224 -27.853929
-18.581375 8.238716 -28.480541
-17.212032 9.692725 -28.22277
-17.896772 7.628222 -28.183425
-23.76467 0.907037 -30.446642
-24.820275 0.105606 -31.347886
-23.76467 0.907037 -30.446642
-23.010255 2.717726 -30.199974
-19.181833 8.899672 -28.847752
-18.581375 8.238716 -28.480541
-19.856902 9.453869 -29.171101
-18.571704 10.857417 -28.843235
-19.181833 8.899672 -28.847752
-20.442093 10.072606 -29.555582
-19.856902 9.453869 -29.171101
-19.916311 11.917661 -29.495582
-20.442093 10.072606 -29.555582
-26.193302 9.80628 -33.337012
-25.896974 11.243116 -32.921268
-26.010447 7.81464 -33.482668
-25.532514 7.167381 -33.063303
-26.395012 8.56453 -33.954643
-26.010447 7.81464 -33.482668
-26.706869 7.196126 -34.488451
-26.889724 9.187766 -34.342794
-26.193302 9.80628 -33.337012
-26.395012 8.56453 -33.954643
-28.007202 8.354056 -36.618534
-27.512583 8.671283 -35.396064
-27.586053 7.628789 -36.182896
-28.379809 9.182074 -37.090557
-28.007202 8.354056 -36.618534
-29.05121 8.176872 -40.653004
-29.118024 9.034461 -39.745854
-29.215367 8.394829 -42.114134
-29.05121 8.176872 -40.653004
-28.856415 7.470377 -41.624842
-28.806676 6.959809 -43.994541
-28.753032 6.632967 -42.520308
-28.539137 5.904442 -43.428877
-29.115866 8.087896 -44.550131
-28.806676 6.959809 -43.994541
-28.901971 7.359371 -45.458701
-29.657763 9.550535 -46.456755
-29.946976 10.156757 -45.473354
-29.500375 9.09368 -45.03089
-29.657763 9.550535 -46.456755
-29.321086 8.982421 -47.407994
3 55 54 12
3 56 15 57
3 58 57 14
3 56 57 58
3 59 16 60
3 62 61 17
3 0 63 64
3 0 65 66
3 67 18 68
3 1 69 71
3 71 70 19
3 69 70 71
3 1 72 74
3 72 20 73
3 72 73 74
3 1 21 20
3 75 24 76
3 77 76 22
3 75 76 77
3 78 26 79
3 80 79 24
3 78 79 80
3 2 81 82
3 2 83 85
3 83 28 84
3 83 84 85
3 86 30 87
3 88 31 89
3 90 89 30
3 88 89 90
3 92 91 31
3 93 34 94
3 95 94 13
3 93 94 95
3 96 35 97
3 98 97 34
3 96 97 98
3 100 99 35
3 5 101 103
3 101 37 102
3 101 102 103
3 5 38 37
3 6 104 105
3 6 106 108
3 106 39 107
3 106 107 108
3 109 40 110
3 111 41 112
3 7 113 114
3 7 115 117
3 115 42 116
3 115 116 117
3 118 43 119
3 120 44 121
3 122 121 43
3 120 121 122
3 8 123 124
3 8 125 127
3 125 126 127
3 3 128 130
3 130 129 33
3 128 129 130
3 9 131 133
3 131 45 132
3 131 132 133
3 9 134 136
3 136 135 45
3 134 135 136
3 4 46 36
3 10 47 23
3 10 48 47
3 10 49 48
3 11 137 139
3 139 138 25
3 137 138 139
3 11 140 142
3 140 141 142
3 143 50 144
3 145 144 27
3 143 144 145
3 147 146 50
3 149 148 29
3 150 51 151
3 152 151 32
3 150 151 152
3 154 153 51
3 155 52 156
3 155 156 157
3 158 53 159
3 158 159 160
3 162 161 53
3 12 163 165
3 163 13 164
3 163 164 165
3 166 13 167
3 168 167 12
3 166 167 168
3 170 169 13
3 171 5 172
3 14 173 174
3 15 175 177
3 177 176 14
3 175 176 177
3 15 178 180
3 178 6 179
3 178 179 180
3 16 181 182
3 16 183 185
3 183 7 184
3 183 184 185
3 17 186 187
3 189 188 17
3 18 190 191
3 18 192 194
3 192 8 193
3 192 193 194
3 19 195 197
3 197 196 3
3 195 196 197
3 199 198 19
3 20 200 201
3 20 202 204
3 202 203 204
3 20 205 206
3 21 207 209
3 209 208 20
3 207 208 209
3 21 210 212
3 210 9 211
3 210 211 212
3 22 23 4
3 24 23 22
3 24 10 23
3 24 25 10
3 26 25 24
3 26 11 25
3 213 27 214
3 28 215 217
3 215 27 216
3 215 216 217
3 28 218 220
3 220 219 27
3 218 219 220
3 221 29 222
3 30 223 225
3 223 29 224
3 223 224 225
3 30 226 228
3 228 227 29
3 226 227 228
3 30 229 230
3 31 231 233
3 233 232 30
3 231 232 233
3 31 234 235
3 31 236 238
3 236 32 237
3 236 237 238
3 239 32 240
3 241 240 31
3 239 240 241
3 243 242 32
3 244 0 245
3 246 33 247
3 248 33 249
3 250 3 251
3 252 251 33
3 250 251 252
3 13 253 254
3 34 255 257
3 257 256 13
3 255 256 257
3 34 258 260
3 258 3 259
3 258 259 260
3 34 19 3
3 35 19 34
3 35 1 19
3 35 36 1
3 261 36 262
3 263 262 35
3 261 262 263
3 264 4 265
3 266 265 36
3 264 265 266
3 37 267 268
3 37 269 271
3 269 4 270
3 269 270 271
3 37 22 4
3 38 22 37
3 38 272 274
3 274 273 22
3 272 273 274
3 39 275 276
3 39 277 279
3 277 2 278
3 277 278 279
3 280 17 281
3 40 282 284
3 282 17 283
3 282 283 284
3 40 285 287
3 287 286 17
3 285 286 287
3 288 40 289
3 290 40 291
3 293 292 40
3 294 12 295
3 41 296 298
3 296 12 297
3 296 297 298
3 41 299 301
3 301 300 12
3 299 300 301
3 302 14 303
3 42 304 306
3 304 14 305
3 304 305 306
3 42 307 309
3 309 308 14
3 307 308 309
3 43 310 311
3 43 312 313
3 43 314 316
3 314 16 315
3 314 315 316
3 44 16 43
3 44 7 16
3 317 44 318
3 319 44 320
3 321 7 322
3 323 322 44
3 321 322 323
3 324 42 325
3 326 325 7
3 324 325 326
3 327 42 328
3 330 329 42
3 33 331 333
3 331 18 332
3 331 332 333
3 334 18 335
3 336 335 33
3 334 335 336
3 337 8 338
3 339 338 18
3 337 338 339
3 341 340 3
3 342 8 343
3 345 344 8
3 45 346 347
3 45 348 350
3 348 349 350
3 45 351 352
3 354 353 45
3 355 0 356
3 36 21 1
3 46 21 36
3 46 9 21
3 23 46 4
3 47 46 23
3 47 9 46
3 47 357 359
3 359 358 9
3 357 358 359
3 48 360 362
3 362 361 47
3 360 361 362
3 48 363 365
3 363 0 364
3 363 364 365
3 48 366 368
3 368 367 0
3 366 367 368
3 49 369 371
3 371 370 48
3 369 370 371
3 49 372 374
3 372 373 374
3 25 49 10
3 375 49 376
3 377 376 25
3 375 376 377
3 379 378 49
3 27 380 381
3 50 382 384
3 384 383 27
3 382 383 384
3 50 385 386
3 50 387 389
3 387 41 388
3 387 388 389
3 390 41 391
3 392 391 50
3 390 391 392
3 394 393 41
3 395 15 396
3 397 15 398
3 399 6 400
3 401 400 15
3 399 400 401
3 402 6 403
3 404 39 405
3 406 405 6
3 404 405 406
3 407 39 408
3 409 2 410
3 411 410 39
3 409 410 411
3 29 412 413
3 415 414 29
3 416 2 417
3 418 28 419
3 420 419 2
3 418 419 420
3 421 28 422
3 424 423 28
3 425 5 426
3 32 427 428
3 51 429 431
3 431 430 32
3 429 430 431
3 51 432 434
3 432 5 433
3 432 433 434
3 51 38 5
3 435 38 436
3 437 436 51
3 435 436 437
3 439 438 38
3 440 26 441
3 52 442 444
3 442 26 443
3 442 443 444
3 52 11 26
3 445 52 446
3 445 446 447
3 53 448 450
3 448 52 449
3 448 449 450
3 53 11 52
3 53 451 453
3 453 452 11
3 451 452 453
3 455 454 53
