ply
format ascii 1.0
element vertex 144
property float x
property float y
property float z
element face 107
property list uchar int vertex_index
end_header
-12.268873 4.667284 -26.776546
-15.896831 -4.568282 -26.464226
-17.976601 -8.765008 -26.447823
-19.284964 -6.922589 -26.865147
-6.415487 4.42075 -26.81493
-7.833878 -0.752869 -26.47628
-11.028231 -3.727731 -26.30629
-9.490494 -5.629189 -26.231312
-17.802778 -21.584507 -24.404388
-13.974854 -0.078737 -26.548492
-15.377034 1.628981 -26.822914
-17.255262 -2.780516 -26.788315
-7.86866 6.269156 -26.91832
-10.805424 2.953699 -26.62505
-14.458722 -6.406632 -26.258236
-16.55727 -10.625553 -26.143078
-16.726645 3.243074 -27.235077
-12.990969 5.466136 -26.906765
-11.54363 7.137623 -26.990147
-19.681441 -9.772897 -26.711668
-19.057419 -10.71127 -26.434344
-7.080207 -1.722749 -26.414858
-6.40454 0.868164 -26.567272
-7.908515 -4.160909 -26.292374
-8.662186 -3.191029 -26.353796
-7.080207 -1.722749 -26.414858
-15.833807 -20.685849 -24.479099
-16.698201 -19.850344 -24.758609
-19.880947 -6.016609 -27.146028
-20.885292 -7.913285 -27.266813
-8.59764 3.704368 -26.731102
-7.142074 5.344953 -26.866625
-7.871054 2.780165 -26.679407
-10.066022 2.046639 -26.584467
-9.337042 4.611427 -26.771685
-8.59764 3.704368 -26.731102
-11.664701 0.542002 -26.507994
-10.066022 2.046639 -26.584467
-13.702493 -7.342415 -26.189249
-12.743476 -5.067182 -26.282263
-11.987247 -6.002964 -26.213276
-14.751767 -9.451875 -26.13167
-15.507996 -8.516092 -26.200657
-13.702493 -7.342415 -26.189249
-17.628219 1.094247 -27.245924
-16.051839 2.436027 -27.028996
-16.953413 0.2872 -27.039842
-20.335622 -8.851688 -26.92033
-18.630782 -7.843799 -26.656485
-19.681441 -9.772897 -26.711668
-20.885292 -7.913285 -27.266813
-20.335622 -8.851688 -26.92033
-5.695345 3.454973 -26.736597
-5.135981 6.174866 -26.959809
-7.124683 1.83394 -26.645605
-5.695345 3.454973 -26.736597
-6.40454 0.868164 -26.567272
-8.580249 0.193356 -26.510082
-7.871054 2.780165 -26.679407
-7.124683 1.83394 -26.645605
-9.431055 -2.2403 -26.391285
-10.177426 -1.294075 -26.425087
-8.580249 0.193356 -26.510082
-11.218379 -6.953693 -26.175787
-11.987247 -6.002964 -26.213276
-10.259362 -4.67846 -26.268801
-18.622141 -20.738002 -24.733925
-16.698201 -19.850344 -24.758609
-19.687003 -22.365244 -24.407789
-18.622141 -20.738002 -24.733925
-17.892527 -1.917549 -27.022543
-16.953413 0.2872 -27.039842
-16.316148 -0.575767 -26.805615
-18.866096 -3.945573 -27.107613
-18.270113 -4.851553 -26.826731
-19.880947 -6.016609 -27.146028
-17.892527 -1.917549 -27.022543
-18.866096 -3.945573 -27.107613
-10.802945 6.336319 -26.903568
-11.54363 7.137623 -26.990147
-5.827576 7.117339 -27.071072
-5.135981 6.174866 -26.959809
-6.554162 8.041543 -27.122767
-5.827576 7.117339 -27.071072
-7.142074 5.344953 -26.866625
-7.2672 8.925375 -27.203299
-6.554162 8.041543 -27.122767
-8.602839 7.137255 -26.974455
-7.2672 8.925375 -27.203299
-10.07122 5.479527 -26.82782
-8.602839 7.137255 -26.974455
-9.337042 4.611427 -26.771685
-11.537149 3.810492 -26.700798
-10.802945 6.336319 -26.903568
-10.07122 5.479527 -26.82782
-13.249417 -0.974216 -26.469715
-12.390139 1.437481 -26.586771
-11.664701 0.542002 -26.507994
-14.210405 -3.218988 -26.427582
-14.935842 -2.32351 -26.506359
-13.249417 -0.974216 -26.469715
-11.776105 -2.798712 -26.348614
-10.177426 -1.294075 -26.425087
-13.49135 -4.138163 -26.324587
-11.776105 -2.798712 -26.348614
-12.743476 -5.067182 -26.282263
-15.177777 -5.487457 -26.361231
-14.210405 -3.218988 -26.427582
-13.49135 -4.138163 -26.324587
-18.347753 -11.641542 -26.281971
-19.057419 -10.71127 -26.434344
-17.266935 -9.69528 -26.295451
-8.702253 -6.584923 -26.160444
-7.908515 -4.160909 -26.292374
-10.428047 -7.893326 -26.105915
-8.702253 -6.584923 -26.160444
-11.218379 -6.953693 -26.175787
-10.428047 -7.893326 -26.105915
-15.796107 -11.555426 -26.019142
-14.751767 -9.451875 -26.13167
-17.652918 -12.57302 -26.055429
-15.796107 -11.555426 -26.019142
-18.347753 -11.641542 -26.281971
-17.652918 -12.57302 -26.055429
-14.54505 3.946985 -26.929949
-12.990969 5.466136 -26.906765
-13.822954 3.148133 -26.79973
-15.219856 4.754031 -27.13603
-14.54505 3.946985 -26.929949
-16.051839 2.436027 -27.028996
-15.930035 5.490321 -27.328755
-15.219856 4.754031 -27.13603
-18.222894 1.922973 -27.55324
-17.628219 1.094247 -27.245924
-17.374351 4.000646 -27.50864
-18.222894 1.922973 -27.55324
-15.930035 5.490321 -27.328755
-17.374351 4.000646 -27.50864
-16.928478 -22.369682 -24.015526
-15.833807 -20.685849 -24.479099
-18.873674 -23.174278 -23.963057
-16.928478 -22.369682 -24.015526
-19.687003 -22.365244 -24.407789
-18.873674 -23.174278 -23.963057
3 0 17 18
3 20 19 2
3 21 5 22
3 23 7 24
3 25 24 5
3 23 24 25
3 26 8 27
3 1 11 9
3 29 28 3
3 30 12 31
3 32 31 4
3 30 31 32
3 33 13 34
3 35 34 12
3 33 34 35
3 37 36 13
3 38 14 39
3 40 39 6
3 38 39 40
3 41 15 42
3 43 42 14
3 41 42 43
3 44 16 45
3 46 45 10
3 44 45 46
3 2 3 1
3 47 3 48
3 49 48 2
3 47 48 49
3 51 50 3
3 52 4 53
3 5 54 56
3 54 4 55
3 54 55 56
3 5 57 59
3 59 58 4
3 57 58 59
3 5 60 62
3 60 6 61
3 60 61 62
3 7 6 5
3 7 63 65
3 65 64 6
3 63 64 65
3 8 66 67
3 8 68 69
3 9 10 0
3 11 10 9
3 11 70 72
3 72 71 10
3 70 71 72
3 3 11 1
3 73 11 74
3 75 74 3
3 73 74 75
3 77 76 11
3 78 0 79
3 4 80 81
3 12 82 84
3 84 83 4
3 82 83 84
3 12 85 86
3 12 87 88
3 13 89 91
3 91 90 12
3 89 90 91
3 13 92 94
3 92 0 93
3 92 93 94
3 13 9 0
3 95 9 96
3 97 96 13
3 95 96 97
3 98 1 99
3 100 99 9
3 98 99 100
3 6 101 102
3 14 103 105
3 105 104 6
3 103 104 105
3 14 106 108
3 106 1 107
3 106 107 108
3 14 2 1
3 15 2 14
3 15 109 111
3 111 110 2
3 109 110 111
3 112 7 113
3 114 7 115
3 117 116 7
3 118 15 119
3 120 15 121
3 123 122 15
3 10 124 126
3 126 125 0
3 124 125 126
3 16 127 129
3 129 128 10
3 127 128 129
3 16 130 131
3 132 16 133
3 134 16 135
3 137 136 16
3 138 8 139
3 140 8 141
3 143 142 8
