ply
format ascii 1.0
element vertex 270
property float x
property float y
property float z
element face 217
property list uchar int vertex_index
end_header
-34.725185 -46.925648 3.07241
-37.121796 -42.093597 10.197
-35.289314 -46.100449 11.973898
-36.586639 -43.036373 15.150571
-33.5858 -48.834354 -0.366076
-35.938046 -44.779533 6.672934
-37.525028 -40.539471 5.181339
-36.413857 -39.539013 22.797838
-37.494442 -39.451233 18.311321
-37.965866 -39.217937 13.488289
-38.148464 -38.227379 8.658536
-36.244583 -43.209984 17.636999
-32.951828 -50.003155 2.131161
-34.130997 -47.915207 1.243762
-36.270885 -44.147865 11.002405
-36.512039 -43.59866 8.536114
-36.80994 -42.733025 5.954223
-37.292652 -41.511436 7.635438
-37.771633 -39.441525 15.943411
-38.484467 -34.753174 9.23592
-38.413391 -36.756435 10.296845
-38.358009 -36.120754 7.743586
-31.856071 -51.86573 -1.359267
-35.716518 -44.942123 2.490939
-35.987003 -44.594765 13.587056
-36.847095 -42.723145 12.678541
-38.357819 -32.726086 8.554228
-35.190575 -43.269474 22.313223
-32.43903 -50.836559 0.267221
-34.710976 -46.719021 -1.280718
-36.297367 -43.812225 4.075676
-37.086922 -41.763248 3.453292
-36.143528 -41.502403 21.502798
-37.020397 -39.547985 20.63674
-36.665131 -41.47554 19.282349
-37.057003 -41.382206 16.926514
-37.351116 -41.141319 14.503412
-37.565105 -40.748569 12.034211
-38.40387 -37.147011 12.740726
-38.11195 -38.684471 11.064146
-37.712578 -40.24707 9.489106
-37.86277 -39.407684 6.936963
-37.89732 -29.053318 8.775524
-36.015642 -43.24351 18.844321
-35.75481 -44.106962 18.121503
-34.428091 -47.420428 2.158086
-33.896546 -48.386268 2.574378
-34.19364 -47.891489 3.488702
-38.335413 -35.075178 7.327773
-38.421238 -35.436964 8.489753
-38.398642 -34.391388 8.07394
-38.311112 -35.726959 6.510181
-38.335413 -35.075178 7.327773
-32.042501 -51.63999 -3.599006
-31.653581 -52.288347 -2.293593
-32.244991 -51.217373 -2.66468
-35.953199 -44.326729 1.22039
-36.179518 -43.855396 2.068696
-36.286821 -43.815569 14.368813
-35.812584 -44.763279 14.836186
-36.112402 -43.984083 15.617943
-38.359803 -31.922303 9.200582
-38.473555 -32.950026 9.660281
-34.83675 -43.168506 23.385565
-34.624145 -44.183497 22.722391
-33.334806 -49.269011 -1.309477
-32.761421 -50.270113 -0.992829
-33.012415 -49.835456 -0.049428
-35.234135 -45.638975 -1.616227
-34.94636 -46.309244 -0.319032
-34.941502 -46.75787 11.124987
-34.756197 -47.030571 12.413958
-35.443835 -45.760284 7.135279
-35.782708 -45.138046 7.993447
-35.62286 -45.358894 5.804331
-35.443835 -45.760284 7.135279
-36.117706 -44.295879 5.374305
-35.80252 -44.87524 4.505702
-35.62286 -45.358894 5.804331
-37.60109 -40.097753 3.914557
-37.382036 -40.709642 3.050534
-37.305975 -41.151359 4.317316
-35.967402 -40.40538 23.230191
-36.102213 -39.303564 23.788276
-36.278693 -40.520708 22.150318
-35.832238 -41.387076 22.582671
-35.967402 -40.40538 23.230191
-37.257419 -39.499609 19.47403
-37.390884 -38.554218 20.156029
-37.627907 -38.505842 18.993319
-38.507979 -36.110884 12.229537
-38.52224 -36.262072 13.439608
-37.596611 -28.101754 8.302691
-37.909113 -28.257755 9.387787
-35.941374 -44.070888 16.861157
-35.75481 -44.106962 18.121503
-36.415611 -43.123178 16.393785
-36.112402 -43.984083 15.617943
-35.941374 -44.070888 16.861157
-33.306961 -49.430242 3.018077
-32.676277 -50.489256 3.454326
-33.541412 -48.959181 1.687461
-33.306961 -49.430242 3.018077
-33.896546 -48.386268 2.574378
-35.949127 -44.822212 10.158182
-35.458342 -45.798504 10.643929
-35.780099 -45.124157 11.488152
-36.069704 -44.54761 8.925037
-35.949127 -44.822212 10.158182
-36.391462 -43.873263 9.76926
-36.225043 -44.189097 7.604524
-35.782708 -45.138046 7.993447
-36.069704 -44.54761 8.925037
-36.533133 -38.469967 23.293306
-36.102213 -39.303564 23.788276
-37.792492 -38.503998 17.893324
-37.627907 -38.505842 18.993319
-37.931088 -38.499144 16.70937
-37.633038 -39.446379 17.127366
-37.792492 -38.503998 17.893324
-38.032328 -38.461554 15.51453
-37.931088 -38.499144 16.70937
-38.129444 -38.34976 14.286969
-37.868749 -39.329731 14.71585
-38.032328 -38.461554 15.51453
-38.448929 -35.754805 9.766382
-38.512739 -35.915596 11.007597
-38.548277 -34.913966 10.477135
-38.268166 -36.763385 6.92689
-38.163393 -37.816698 7.384365
-38.253236 -37.174066 8.201061
-38.268166 -36.763385 6.92689
-38.311112 -35.726959 6.510181
-31.230154 -52.954748 -0.983013
-31.535358 -52.385973 -0.122088
-31.027664 -53.377365 -1.917339
-31.230154 -52.954748 -0.983013
-31.653581 -52.288347 -2.293593
-35.449131 -45.420795 1.566796
-34.953465 -46.412558 1.857532
-35.220852 -45.933886 2.781675
-35.449131 -45.420795 1.566796
-35.953199 -44.326729 1.22039
-35.127138 -46.298065 13.236667
-34.756197 -47.030571 12.413958
-35.475983 -45.545224 14.043246
-35.812584 -44.763279 14.836186
-35.638159 -45.347607 12.780477
-35.127138 -46.298065 13.236667
-35.475983 -45.545224 14.043246
-38.536879 -33.96357 10.001127
-38.548277 -34.913966 10.477135
-38.421143 -33.73963 8.895074
-38.536879 -33.96357 10.001127
-38.473555 -32.950026 9.660281
-38.335318 -33.377844 7.733094
-38.398642 -34.391388 8.07394
-38.421143 -33.73963 8.895074
-34.971798 -44.158056 21.620761
-34.405368 -45.072079 22.029929
-34.624145 -44.183497 22.722391
-35.488638 -43.273255 21.182433
-34.971798 -44.158056 21.620761
-32.3541 -50.999117 2.511519
-32.676277 -50.489256 3.454326
-32.097701 -51.415819 1.579549
-32.3541 -50.999117 2.511519
-32.695429 -50.419857 1.199191
-31.826838 -51.871387 0.691156
-32.097701 -51.415819 1.579549
-32.147551 -51.351145 -0.546023
-31.535358 -52.385973 -0.122088
-31.826838 -51.871387 0.691156
-32.469942 -50.784699 -1.806072
-32.147551 -51.351145 -0.546023
-32.761421 -50.270113 -0.992829
-32.244991 -51.217373 -2.66468
-32.469942 -50.784699 -1.806072
-34.656371 -46.907337 0.943208
-34.428091 -47.420428 2.158086
-34.953465 -46.412558 1.857532
-34.420986 -47.317114 -0.018478
-34.656371 -46.907337 0.943208
-34.94636 -46.309244 -0.319032
-34.996626 -46.102348 -2.53949
-35.234135 -45.638975 -1.616227
-34.443549 -47.204574 -2.135073
-34.996626 -46.102348 -2.53949
-33.880961 -48.262241 -1.677752
-34.148388 -47.776687 -0.823397
-34.443549 -47.204574 -2.135073
-33.334806 -49.269011 -1.309477
-33.880961 -48.262241 -1.677752
-34.500013 -47.399216 4.384003
-34.19364 -47.891489 3.488702
-34.941502 -46.75787 11.124987
-35.458342 -45.798504 10.643929
-35.01643 -46.431951 4.004069
-34.500013 -47.399216 4.384003
-35.512096 -45.440189 3.713334
-35.220852 -45.933886 2.781675
-35.01643 -46.431951 4.004069
-36.006943 -44.377174 3.283307
-35.512096 -45.440189 3.713334
-35.80252 -44.87524 4.505702
-36.469942 -43.290447 2.861064
-36.179518 -43.855396 2.068696
-36.006943 -44.377174 3.283307
-36.864719 -42.265958 2.549872
-36.469942 -43.290447 2.861064
-36.692144 -42.787736 3.764484
-37.223156 -41.223349 2.267399
-36.864719 -42.265958 2.549872
-37.223156 -41.223349 2.267399
-37.382036 -40.709642 3.050534
-35.355761 -42.270611 22.987884
-34.83675 -43.168506 23.385565
-35.667051 -42.385939 21.90801
-35.355761 -42.270611 22.987884
-35.832238 -41.387076 22.582671
-35.965114 -42.389719 20.77722
-35.488638 -43.273255 21.182433
-35.667051 -42.385939 21.90801
-36.845343 -38.497789 22.328666
-36.533133 -38.469967 23.293306
-37.148613 -38.502275 21.248117
-37.390884 -38.554218 20.156029
-36.717127 -39.543499 21.717289
-36.845343 -38.497789 22.328666
-37.148613 -38.502275 21.248117
-36.225916 -42.376288 19.666996
-35.965114 -42.389719 20.77722
-36.40433 -41.488972 20.392573
-36.454857 -42.342762 18.459674
-36.015642 -43.24351 18.844321
-36.225916 -42.376288 19.666996
-38.348446 -37.314297 13.913188
-38.52224 -36.262072 13.439608
-38.184868 -38.182474 13.114508
-38.129444 -38.34976 14.286969
-38.348446 -37.314297 13.913188
-38.408631 -36.951723 11.518785
-38.507979 -36.110884 12.229537
-38.512739 -35.915596 11.007597
-38.020546 -38.406851 6.523579
-38.005617 -38.817532 7.79775
-38.163393 -37.816698 7.384365
-37.900913 -39.028335 5.675868
-38.020546 -38.406851 6.523579
-37.732042 -39.594229 4.798057
-37.693899 -39.973578 6.059151
-37.900913 -39.028335 5.675868
-37.60109 -40.097753 3.914557
-37.732042 -39.594229 4.798057
-38.139538 -29.274105 9.897623
-37.909113 -28.257755 9.387787
-38.129553 -30.085918 9.311231
-38.139538 -29.274105 9.897623
-37.643684 -28.873984 7.697946
-37.596611 -28.101754 8.302691
-37.943453 -29.862471 8.232458
-37.643684 -28.873984 7.697946
-38.129553 -30.085918 9.311231
-37.943453 -29.862471 8.232458
-38.173703 -31.698855 8.12181
-38.359803 -31.922303 9.200582
-38.209024 -32.394503 7.439514
-38.173703 -31.698855 8.12181
-38.335318 -33.377844 7.733094
-38.209024 -32.394503 7.439514
3 43 11 44
3 0 45 47
3 45 13 46
3 45 46 47
3 1 15 14
3 1 17 15
3 48 21 49
3 50 49 19
3 48 49 50
3 52 51 21
3 55 54 22
3 53 54 55
3 57 56 23
3 3 58 60
3 58 24 59
3 58 59 60
3 3 25 24
3 61 26 62
3 63 27 64
3 4 28 12
3 4 65 67
3 67 66 28
3 65 66 67
3 68 29 69
3 2 70 71
3 5 72 73
3 5 74 75
3 5 76 78
3 76 30 77
3 76 77 78
3 6 31 16
3 6 79 81
3 81 80 31
3 79 80 81
3 7 82 83
3 7 84 86
3 84 32 85
3 84 85 86
3 8 87 89
3 87 33 88
3 87 88 89
3 8 34 33
3 8 35 34
3 9 36 18
3 9 37 36
3 90 38 91
3 10 39 20
3 10 40 39
3 10 41 40
3 92 42 93
3 11 94 95
3 11 96 98
3 96 3 97
3 96 97 98
3 99 12 100
3 13 101 103
3 101 12 102
3 101 102 103
3 13 4 12
3 14 104 106
3 106 105 2
3 104 105 106
3 15 107 109
3 109 108 14
3 107 108 109
3 15 110 112
3 110 5 111
3 110 111 112
3 15 16 5
3 17 16 15
3 17 6 16
3 113 7 114
3 115 8 116
3 117 18 118
3 119 118 8
3 117 118 119
3 120 18 121
3 122 9 123
3 124 123 18
3 122 123 124
3 19 125 127
3 125 20 126
3 125 126 127
3 21 20 19
3 21 10 20
3 21 128 130
3 130 129 10
3 128 129 130
3 132 131 21
3 22 133 134
3 137 136 22
3 135 136 137
3 23 138 140
3 140 139 0
3 138 139 140
3 142 141 23
3 143 2 144
3 24 145 146
3 24 147 149
3 147 2 148
3 147 148 149
3 24 14 2
3 25 14 24
3 25 1 14
3 150 19 151
3 26 152 154
3 152 19 153
3 152 153 154
3 26 155 157
3 157 156 19
3 155 156 157
3 27 158 160
3 158 159 160
3 27 161 162
3 12 163 164
3 28 165 167
3 167 166 12
3 165 166 167
3 28 168 169
3 28 170 172
3 170 22 171
3 170 171 172
3 173 22 174
3 175 174 28
3 173 174 175
3 177 176 22
3 178 13 179
3 180 179 0
3 178 179 180
3 29 181 183
3 181 13 182
3 181 182 183
3 29 4 13
3 184 29 185
3 186 29 187
3 188 4 189
3 190 189 29
3 188 189 190
3 192 191 4
3 193 0 194
3 196 195 2
3 197 0 198
3 199 23 200
3 201 200 0
3 199 200 201
3 30 202 204
3 202 23 203
3 202 203 204
3 30 205 207
3 207 206 23
3 205 206 207
3 16 30 5
3 31 30 16
3 31 208 210
3 210 209 30
3 208 209 210
3 31 211 212
3 214 213 31
3 215 27 216
3 32 217 219
3 217 27 218
3 217 218 219
3 32 220 222
3 222 221 27
3 220 221 222
3 223 7 224
3 33 225 226
3 33 227 229
3 227 7 228
3 227 228 229
3 33 32 7
3 34 32 33
3 34 230 232
3 232 231 32
3 230 231 232
3 34 233 235
3 233 11 234
3 233 234 235
3 35 11 34
3 35 3 11
3 18 35 8
3 36 35 18
3 36 3 35
3 36 25 3
3 37 25 36
3 37 1 25
3 38 236 237
3 38 238 240
3 238 9 239
3 238 239 240
3 20 241 243
3 241 38 242
3 241 242 243
3 39 38 20
3 39 9 38
3 39 37 9
3 40 37 39
3 40 1 37
3 40 17 1
3 41 17 40
3 41 6 17
3 244 41 245
3 246 245 10
3 244 245 246
3 247 41 248
3 249 6 250
3 251 250 41
3 249 250 251
3 253 252 6
3 42 254 255
3 42 256 257
3 258 42 259
3 260 42 261
3 263 262 42
3 264 26 265
3 266 26 267
3 269 268 26
