ply
format ascii 1.0
element vertex 206
property float x
property float y
property float z
element face 169
property list uchar int vertex_index
end_header
29.875109 14.859743 58.33123
30.107933 15.855638 49.973476
29.650637 2.034346 53.338844
29.247784 -11.238466 56.518913
30.007164 13.634071 40.981323
30.105503 15.379445 54.222839
29.861057 8.973483 51.656353
30.059568 16.263596 46.045815
29.76532 11.417317 44.106777
29.763445 10.142307 47.58297
30.032635 15.132002 56.254562
30.012539 11.683975 55.084682
29.953598 11.671432 57.302197
30.079294 16.078079 47.838787
29.920576 13.487783 46.824772
29.947088 13.002459 48.779922
29.757698 5.616694 52.517643
29.689447 6.365846 50.326302
29.563942 2.799961 51.177032
29.424845 -0.728488 51.802879
29.207113 -7.484741 53.401691
29.600285 8.439708 44.650372
30.125439 15.624858 52.090679
29.987438 12.552746 50.861332
30.016075 12.131033 52.893967
29.91444 8.648474 53.857796
29.782108 11.32215 59.564747
30.050653 16.427753 44.452549
29.932396 14.376741 43.578354
29.906857 13.831663 45.082832
29.750071 10.796534 45.802387
29.575989 7.292041 46.446918
29.816006 9.727766 49.610416
29.622766 6.823244 48.360561
29.564186 -1.121575 54.194733
29.324244 -3.881054 52.636532
29.853451 12.473297 42.461185
29.902027 16.599737 57.834104
29.74677 16.462617 58.933748
29.953872 14.995873 57.292896
29.98079 16.735867 56.795771
29.902027 16.599737 57.834104
29.301108 -9.69088 56.157833
29.355472 -9.799793 57.280605
29.175295 -10.982083 55.349384
29.301108 -9.69088 56.157833
29.112895 -12.727502 55.802917
29.175295 -10.982083 55.349384
30.165793 17.414832 49.40582
30.167454 17.418596 50.454664
30.093614 15.966859 48.906132
30.151474 17.526052 48.338476
30.165793 17.414832 49.40582
29.526618 7.26268 44.013756
29.503693 6.750901 44.902293
30.130762 14.372943 40.216305
30.108243 15.198383 40.866291
30.018153 12.681287 40.316647
30.130762 14.372943 40.216305
29.921171 8.49171 55.03961
29.96349 10.166225 54.471239
29.97022 10.009461 55.653053
29.870064 7.008571 54.260437
29.921171 8.49171 55.03961
30.151734 17.166073 53.597904
30.10629 17.133257 54.689191
30.115471 15.502152 53.156759
30.161703 17.28878 52.531824
30.151734 17.166073 53.597904
29.551898 5.179505 48.698746
29.656106 6.594545 49.343431
29.585239 4.950807 49.681616
29.518231 5.417101 47.739933
29.551898 5.179505 48.698746
29.82895 9.770943 58.921554
29.755722 9.434677 59.93063
29.506911 -2.924171 54.551783
29.605355 -1.519995 55.323749
29.38694 -4.303911 53.772683
29.444215 -2.501314 53.415633
29.506911 -2.924171 54.551783
29.135479 -7.141061 52.325083
29.070861 -8.935151 52.703806
30.128281 17.587201 45.558651
30.133393 17.578905 46.44843
30.05511 16.345675 45.249182
30.123824 17.66928 44.762018
30.128281 17.587201 45.558651
30.018339 14.508463 41.580176
30.108243 15.198383 40.866291
29.94075 10.003189 56.76181
29.97022 10.009461 55.653053
29.983069 11.677703 56.193439
30.069856 17.009535 55.705053
29.98079 16.735867 56.795771
30.069069 15.255724 55.238701
30.10629 17.133257 54.689191
30.069856 17.009535 55.705053
29.522486 3.167864 50.106981
29.585239 4.950807 49.681616
29.626694 4.582904 50.751667
29.438586 1.364313 50.413175
29.522486 3.167864 50.106981
29.369037 -0.399912 50.726099
29.438586 1.364313 50.413175
29.494394 1.035737 51.489955
29.295876 -2.127283 51.072876
29.369037 -0.399912 50.726099
29.280772 -7.814017 54.599222
29.328375 -6.105754 54.155262
29.15496 -9.10522 53.790773
29.280772 -7.814017 54.599222
29.070861 -8.935151 52.703806
29.15496 -9.10522 53.790773
30.143256 17.486146 47.344915
30.151474 17.526052 48.338476
30.069431 16.170837 46.942301
30.133393 17.578905 46.44843
30.143256 17.486146 47.344915
29.631232 8.910639 43.793492
29.71375 10.399443 43.521694
29.682803 9.928513 44.378574
29.631232 8.910639 43.793492
29.526618 7.26268 44.013756
29.791692 5.492681 53.590361
29.836069 7.132584 53.18772
29.870064 7.008571 54.260437
29.738162 3.701507 54.000961
29.704168 3.82552 52.928244
29.791692 5.492681 53.590361
29.287681 -11.533463 57.667913
29.355472 -9.799793 57.280605
29.185531 -12.859299 56.984848
29.287681 -11.533463 57.667913
30.176206 17.303206 51.513266
30.161703 17.28878 52.531824
30.116686 15.740248 51.032077
30.167454 17.418596 50.454664
30.176206 17.303206 51.513266
29.684527 12.932913 60.011341
29.828609 13.090947 58.947988
29.731027 14.701709 59.394582
29.639685 11.158753 60.561158
29.684527 12.932913 60.011341
29.755722 9.434677 59.93063
29.639685 11.158753 60.561158
29.731027 14.701709 59.394582
29.74677 16.462617 58.933748
29.991525 15.402247 44.015451
29.997483 15.465014 43.386778
30.056611 16.490519 43.823875
29.491545 6.177068 45.800565
29.503693 6.750901 44.902293
29.588137 7.865875 45.548645
29.494843 5.651499 46.783111
29.599377 7.057643 47.40374
29.518231 5.417101 47.739933
29.491545 6.177068 45.800565
29.494843 5.651499 46.783111
29.914695 9.945584 57.790279
29.867853 11.496791 58.433472
29.82895 9.770943 58.921554
29.94075 10.003189 56.76181
29.914695 9.945584 57.790279
29.693246 1.905056 54.424877
29.738162 3.701507 54.000961
29.650021 0.327095 54.852822
29.605355 -1.519995 55.323749
29.607411 0.456386 53.766789
29.693246 1.905056 54.424877
29.650021 0.327095 54.852822
29.245576 -3.703566 51.489702
29.295876 -2.127283 51.072876
29.374544 -2.304771 52.219706
29.265678 -5.682897 53.019112
29.38694 -4.303911 53.772683
29.328375 -6.105754 54.155262
29.194045 -5.339218 51.942503
29.265678 -5.682897 53.019112
29.135479 -7.141061 52.325083
29.245576 -3.703566 51.489702
29.194045 -5.339218 51.942503
29.112895 -12.727502 55.802917
29.185531 -12.859299 56.984848
30.119205 17.546854 43.995203
30.123824 17.66928 44.762018
30.056611 16.490519 43.823875
30.119205 17.546854 43.995203
29.980955 14.879798 42.878691
29.997483 15.465014 43.386778
29.941482 13.928076 42.320107
29.980955 14.879798 42.878691
29.892924 13.425019 43.019769
29.930307 13.053684 41.721254
30.018339 14.508463 41.580176
29.941482 13.928076 42.320107
29.757815 10.927433 42.698898
29.809385 11.945307 43.283981
29.71375 10.399443 43.521694
29.825261 11.408908 41.833754
29.757815 10.927433 42.698898
29.902117 11.989296 41.093823
29.930307 13.053684 41.721254
29.825261 11.408908 41.833754
30.018153 12.681287 40.316647
29.902117 11.989296 41.093823
3 0 12 10
3 0 37 38
3 0 39 41
3 39 10 40
3 39 40 41
3 1 15 13
3 2 18 16
3 2 19 18
3 3 42 43
3 3 44 45
3 3 46 47
3 1 48 49
3 1 50 52
3 50 13 51
3 50 51 52
3 54 53 21
3 4 55 56
3 4 57 58
3 5 24 22
3 59 25 60
3 61 60 11
3 59 60 61
3 63 62 25
3 5 64 65
3 5 66 68
3 66 22 67
3 66 67 68
3 7 29 27
3 9 30 14
3 9 31 30
3 6 32 23
3 69 33 70
3 71 70 17
3 69 70 71
3 73 72 33
3 75 74 26
3 76 34 77
3 78 35 79
3 80 79 34
3 78 79 80
3 82 81 20
3 7 83 84
3 7 85 87
3 85 27 86
3 85 86 87
3 8 36 28
3 88 4 89
3 10 11 5
3 12 11 10
3 12 90 92
3 92 91 11
3 90 91 92
3 10 93 94
3 10 95 97
3 95 5 96
3 95 96 97
3 13 14 7
3 15 14 13
3 15 9 14
3 16 17 6
3 18 17 16
3 18 98 100
3 100 99 17
3 98 99 100
3 18 101 102
3 19 103 105
3 105 104 18
3 103 104 105
3 19 106 107
3 108 20 109
3 110 20 111
3 113 112 20
3 13 114 115
3 13 116 118
3 116 7 117
3 116 117 118
3 21 119 121
3 121 120 8
3 119 120 121
3 123 122 21
3 22 23 1
3 24 23 22
3 24 6 23
3 11 24 5
3 25 24 11
3 25 6 24
3 25 16 6
3 124 16 125
3 126 125 25
3 124 125 126
3 127 2 128
3 129 128 16
3 127 128 129
3 130 3 131
3 133 132 3
3 22 134 135
3 22 136 138
3 136 1 137
3 136 137 138
3 139 26 140
3 141 140 0
3 139 140 141
3 142 26 143
3 145 144 26
3 146 0 147
3 27 148 150
3 148 28 149
3 148 149 150
3 29 28 27
3 29 8 28
3 14 29 7
3 30 29 14
3 30 8 29
3 30 21 8
3 31 21 30
3 31 151 153
3 153 152 21
3 151 152 153
3 23 15 1
3 32 15 23
3 32 9 15
3 17 32 6
3 33 32 17
3 33 9 32
3 33 31 9
3 154 31 155
3 156 155 33
3 154 155 156
3 158 157 31
3 26 12 0
3 159 12 160
3 161 160 26
3 159 160 161
3 163 162 12
3 164 2 165
3 34 166 167
3 34 168 170
3 168 2 169
3 168 169 170
3 34 19 2
3 35 19 34
3 35 171 173
3 173 172 19
3 171 172 173
3 20 174 176
3 174 35 175
3 174 175 176
3 177 35 178
3 179 178 20
3 177 178 179
3 181 180 35
3 183 182 3
3 27 184 185
3 27 186 187
3 28 188 189
3 36 190 192
3 192 191 28
3 190 191 192
3 36 193 195
3 193 4 194
3 193 194 195
3 196 36 197
3 198 197 8
3 196 197 198
3 199 36 200
3 201 4 202
3 203 202 36
3 201 202 203
3 205 204 4
