ply
format ascii 1.0
element vertex 170
property float x
property float y
property float z
element face 137
property list uchar int vertex_index
end_header
20.730097 -88.66684 20.394104
23.441442 -85.830673 21.802263
23.043219 -90.02459 16.193739
20.335443 -92.861717 14.416763
16.845915 -94.594048 12.416327
21.369745 -84.526756 26.041298
18.285086 -86.530235 24.153614
22.138176 -87.426117 21.125759
23.22953 -87.948669 18.992729
21.958254 -89.487228 18.262781
22.788746 -83.359085 26.416742
21.925486 -82.474388 28.64262
16.608959 -87.188568 23.047678
21.557156 -93.67865 12.380935
24.589737 -83.987709 22.270126
24.337103 -86.171608 19.580456
24.122591 -88.330513 16.831755
18.655983 -93.871254 13.443774
23.744249 -83.782669 24.360657
22.436079 -85.32003 23.907949
21.000208 -86.613426 23.226795
20.821154 -81.620491 30.664577
20.41423 -83.57946 27.973032
19.890059 -85.63665 25.168894
21.736158 -91.56546 15.391705
22.080075 -81.486007 29.978918
22.559434 -81.783856 28.966239
23.485755 -90.211185 15.182756
24.025441 -89.364147 15.501765
23.582905 -89.177551 16.512747
17.750949 -94.232651 12.930051
17.960501 -93.282105 14.359649
17.055467 -93.643501 13.845926
17.597659 -95.214028 11.460493
18.502693 -94.852631 11.974216
17.750949 -94.232651 12.930051
23.8709 -82.723557 25.727283
24.246107 -82.902424 24.61215
24.372758 -81.843311 25.978777
20.093204 -82.012733 30.330948
20.305749 -80.97607 31.800863
19.889741 -82.992218 28.985176
20.617692 -82.599975 29.318804
20.093204 -82.012733 30.330948
19.087573 -86.083443 24.661254
19.380686 -85.032238 26.152043
18.5782 -85.47903 25.644402
18.898274 -87.118096 23.223472
19.70076 -86.671303 23.731112
19.087573 -86.083443 24.661254
18.06823 -87.536068 22.721277
18.898274 -87.118096 23.223472
16.460029 -88.222973 21.556875
15.773574 -87.329319 22.577419
21.035801 -92.213589 14.904234
21.114665 -91.166179 16.422542
20.414307 -91.814308 15.935071
22.179913 -92.942852 12.831345
22.177247 -93.920952 11.366728
16.157482 -93.877678 13.347133
17.055467 -93.643501 13.845926
22.991064 -82.226204 27.8533
23.393149 -82.511764 26.755326
23.595467 -81.378884 28.191884
22.357116 -82.916736 27.529681
22.991064 -82.226204 27.8533
22.559434 -81.783856 28.966239
17.694595 -85.83852 25.089106
18.5782 -85.47903 25.644402
16.856531 -86.167687 24.536138
17.447022 -86.859402 23.600646
17.694595 -85.83852 25.089106
16.053631 -86.322666 24.089257
16.856531 -86.167687 24.536138
15.218246 -86.463417 23.618997
15.773574 -87.329319 22.577419
16.053631 -86.322666 24.089257
20.797078 -94.221859 12.028595
20.9463 -93.270184 13.398849
20.186222 -93.813392 13.046509
21.456563 -94.650017 10.975827
20.797078 -94.221859 12.028595
22.076654 -94.892319 9.96162
22.177247 -93.920952 11.366728
21.456563 -94.650017 10.975827
24.918779 -84.121914 21.102063
25.007751 -83.009472 22.520846
24.792462 -85.213864 19.757228
24.918779 -84.121914 21.102063
24.46342 -85.079658 20.925291
24.669239 -86.302193 18.49392
24.792462 -85.213864 19.757228
24.561983 -87.381645 17.119569
24.669239 -86.302193 18.49392
24.229847 -87.25106 18.206105
24.527687 -88.362179 15.769816
24.967079 -87.413311 16.05763
24.561983 -87.381645 17.119569
24.527687 -88.362179 15.769816
24.025441 -89.364147 15.501765
20.611635 -89.71687 18.923741
19.936511 -89.237556 19.87417
19.629599 -92.387478 15.367205
20.414307 -91.814308 15.935071
18.789868 -92.892246 14.880711
17.960501 -93.282105 14.359649
19.495713 -93.366485 13.930269
19.629599 -92.387478 15.367205
18.789868 -92.892246 14.880711
19.346492 -94.318161 12.560015
20.186222 -93.813392 13.046509
19.495713 -93.366485 13.930269
19.346492 -94.318161 12.560015
18.502693 -94.852631 11.974216
15.996878 -94.853405 11.871606
16.157482 -93.877678 13.347133
16.715876 -95.56477 10.92804
15.996878 -94.853405 11.871606
17.597659 -95.214028 11.460493
16.715876 -95.56477 10.92804
24.668851 -83.004944 23.566885
25.007751 -83.009472 22.520846
24.166993 -83.885189 23.315392
24.668851 -83.004944 23.566885
24.246107 -82.902424 24.61215
23.266497 -83.570877 25.3887
23.8709 -82.723557 25.727283
23.393149 -82.511764 26.755326
21.068045 -80.569397 32.081441
20.55264 -79.924976 33.217727
20.305749 -80.97607 31.800863
21.527909 -81.059059 30.989897
21.7748 -80.007965 32.406761
21.068045 -80.569397 32.081441
21.37332 -82.047439 29.653599
22.080075 -81.486007 29.978918
21.527909 -81.059059 30.989897
19.642772 -84.003643 27.554111
19.889741 -82.992218 28.985176
20.152144 -84.608055 26.570963
19.642772 -84.003643 27.554111
19.380686 -85.032238 26.152043
20.255834 -87.159691 22.760062
20.445134 -86.125038 24.197845
19.70076 -86.671303 23.731112
20.120779 -88.186398 21.343716
20.865153 -87.640133 21.810449
20.255834 -87.159691 22.760062
19.936511 -89.237556 19.87417
20.120779 -88.186398 21.343716
17.230166 -87.865234 22.168309
18.06823 -87.536068 22.721277
17.447022 -86.859402 23.600646
17.230166 -87.865234 22.168309
16.460029 -88.222973 21.556875
21.225713 -90.127063 17.85808
21.344175 -89.077034 19.328443
20.611635 -89.71687 18.923741
21.847206 -90.526344 16.827243
21.225713 -90.127063 17.85808
21.114665 -91.166179 16.422542
22.269414 -91.886257 14.33673
21.646657 -92.622055 13.88632
22.179913 -92.942852 12.831345
22.922944 -91.115822 14.737748
22.389688 -90.795025 15.792722
22.269414 -91.886257 14.33673
23.365481 -91.302417 13.726765
23.485755 -90.211185 15.182756
22.922944 -91.115822 14.737748
3 0 9 7
3 25 11 26
3 1 15 14
3 2 16 8
3 2 27 29
3 29 28 16
3 27 28 29
3 4 30 32
3 30 17 31
3 30 31 32
3 4 33 35
3 35 34 17
3 33 34 35
3 36 18 37
3 36 37 38
3 5 19 10
3 5 20 19
3 39 21 40
3 41 22 42
3 43 42 21
3 41 42 43
3 6 44 46
3 44 23 45
3 44 45 46
3 6 47 49
3 49 48 23
3 47 48 49
3 6 50 51
3 53 52 12
3 3 54 56
3 54 24 55
3 54 55 56
3 58 57 13
3 7 8 1
3 9 8 7
3 9 2 8
3 59 4 60
3 61 10 62
3 61 62 63
3 11 64 66
3 64 10 65
3 64 65 66
3 11 5 10
3 67 6 68
3 69 12 70
3 71 70 6
3 69 70 71
3 72 12 73
3 76 75 12
3 74 75 76
3 77 13 78
3 79 78 3
3 77 78 79
3 80 13 81
3 84 83 13
3 82 83 84
3 14 85 86
3 15 87 89
3 89 88 14
3 87 88 89
3 15 90 91
3 8 15 1
3 16 15 8
3 16 92 94
3 94 93 15
3 92 93 94
3 16 95 97
3 95 96 97
3 99 98 16
3 101 100 0
3 102 3 103
3 17 104 105
3 17 106 108
3 106 3 107
3 106 107 108
3 17 109 111
3 111 110 3
3 109 110 111
3 113 112 17
3 114 4 115
3 116 4 117
3 119 118 4
3 120 14 121
3 18 122 124
3 122 14 123
3 122 123 124
3 18 1 14
3 10 125 127
3 125 18 126
3 125 126 127
3 19 18 10
3 19 1 18
3 19 7 1
3 20 7 19
3 20 0 7
3 21 128 130
3 128 129 130
3 21 131 133
3 131 132 133
3 21 134 136
3 134 11 135
3 134 135 136
3 22 11 21
3 22 5 11
3 137 22 138
3 23 139 141
3 139 22 140
3 139 140 141
3 23 5 22
3 23 20 5
3 142 20 143
3 144 143 23
3 142 143 144
3 145 0 146
3 147 146 20
3 145 146 147
3 149 148 0
3 12 150 152
3 152 151 6
3 150 151 152
3 154 153 12
3 155 9 156
3 157 156 0
3 155 156 157
3 24 158 160
3 158 9 159
3 158 159 160
3 24 2 9
3 13 24 3
3 161 24 162
3 163 162 13
3 161 162 163
3 164 2 165
3 166 165 24
3 164 165 166
3 169 168 2
3 167 168 169
