ply
format ascii 1.0
element vertex 139
property float x
property float y
property float z
element face 104
property list uchar int vertex_index
end_header
28.083681 -59.535767 -39.85675
30.091444 -52.281441 -43.113457
31.486425 -58.970665 -27.654343
30.914145 -59.605049 -32.101913
27.936766 -55.461929 -43.235565
28.972239 -51.470539 -44.816891
31.052164 -48.578938 -44.585232
30.093027 -56.348267 -39.716576
28.983376 -59.813484 -38.020496
30.925734 -56.414246 -38.01152
31.53533 -56.73315 -35.927208
29.065042 -56.003696 -41.545025
31.159212 -52.723843 -41.343784
32.703835 -56.079403 -27.243996
31.237741 -59.410698 -29.917873
30.408901 -59.820995 -34.103825
32.181725 -56.450386 -33.902142
28.360481 -51.152392 -45.507519
27.810118 -53.181286 -44.783964
29.508502 -49.465889 -45.538298
28.360481 -51.152392 -45.507519
31.519658 -54.633488 -38.780187
30.50938 -56.381256 -38.864048
31.103305 -54.600499 -39.632716
31.797223 -54.913818 -37.793005
31.519658 -54.633488 -38.780187
31.142426 -50.528233 -43.081066
31.67631 -50.749434 -42.19623
30.625328 -52.502642 -42.22862
32.023717 -46.871389 -44.594645
31.501318 -46.55949 -45.397778
32.09513 -57.525034 -27.449169
32.087988 -57.402874 -26.312134
31.479283 -58.848505 -26.517308
32.101901 -57.583446 -28.602797
32.710606 -56.137816 -28.397623
32.09513 -57.525034 -27.449169
31.075943 -59.507874 -31.009893
30.453661 -60.949491 -30.020246
30.291863 -61.046667 -31.112267
31.689813 -58.051904 -31.943488
31.851611 -57.954729 -30.851468
31.075943 -59.507874 -31.009893
27.47889 -61.264515 -39.088852
26.91858 -61.126795 -40.04853
28.378571 -61.473427 -37.188133
29.375969 -59.834497 -37.083192
30.088732 -59.838253 -35.124857
29.449455 -61.48039 -34.232063
32.693139 -54.996876 -34.730654
31.858528 -56.591768 -34.914675
32.369941 -55.138258 -35.743187
32.914307 -54.944187 -33.639833
32.693139 -54.996876 -34.730654
27.292381 -55.176981 -43.993302
26.800624 -57.066763 -43.256012
28.454502 -53.466234 -44.026228
27.292381 -55.176981 -43.993302
27.810118 -53.181286 -44.783964
30.548465 -48.020088 -45.422468
30.012201 -50.024738 -44.701061
29.508502 -49.465889 -45.538298
31.501318 -46.55949 -45.397778
30.548465 -48.020088 -45.422468
30.788362 -60.400318 -26.668337
31.479283 -58.848505 -26.517308
30.062632 -61.180502 -32.198736
30.291863 -61.046667 -31.112267
30.347148 -58.134878 -37.078705
29.375969 -59.834497 -37.083192
29.954555 -58.113865 -38.016008
31.230532 -56.573698 -36.969364
30.651946 -58.294331 -36.036548
30.347148 -58.134878 -37.078705
32.102021 -55.07327 -36.750849
31.230532 -56.573698 -36.969364
31.797223 -54.913818 -37.793005
32.369941 -55.138258 -35.743187
32.102021 -55.07327 -36.750849
27.470816 -59.438587 -40.736497
26.91858 -61.126795 -40.04853
27.397359 -57.401668 -42.425905
26.800624 -57.066763 -43.256012
27.961497 -57.672552 -41.580635
27.397359 -57.401668 -42.425905
28.500904 -55.732812 -42.390295
28.574361 -57.769731 -40.700888
27.470816 -59.438587 -40.736497
27.961497 -57.672552 -41.580635
31.636398 -52.788286 -40.44632
31.103305 -54.600499 -39.632716
30.62612 -54.536055 -40.53018
32.122991 -50.983885 -41.296381
31.636398 -52.788286 -40.44632
32.122991 -50.983885 -41.296381
31.67631 -50.749434 -42.19623
31.622787 -48.676981 -43.816954
31.142426 -50.528233 -43.081066
30.571804 -50.430189 -43.849345
31.622787 -48.676981 -43.816954
32.023717 -46.871389 -44.594645
32.629959 -56.001381 -26.111559
32.087988 -57.402874 -26.312134
33.178212 -54.765698 -27.016618
32.629959 -56.001381 -26.111559
33.289485 -54.686846 -28.19082
33.178212 -54.765698 -27.016618
33.289485 -54.686846 -28.19082
32.710606 -56.137816 -28.397623
30.725307 -60.565815 -27.809674
30.788362 -60.400318 -26.668337
30.600966 -60.785832 -28.94144
30.453661 -60.949491 -30.020246
31.362083 -59.190681 -28.786108
30.725307 -60.565815 -27.809674
30.600966 -60.785832 -28.94144
31.977559 -57.803463 -29.734561
32.101901 -57.583446 -28.602797
31.362083 -59.190681 -28.786108
31.977559 -57.803463 -29.734561
31.851611 -57.954729 -30.851468
27.928738 -61.403374 -38.170725
27.47889 -61.264515 -39.088852
28.533528 -59.674626 -38.938623
27.928738 -61.403374 -38.170725
28.378571 -61.473427 -37.188133
29.81001 -61.288475 -33.199692
29.449455 -61.48039 -34.232063
30.661523 -59.713022 -33.102869
30.062632 -61.180502 -32.198736
29.81001 -61.288475 -33.199692
30.972116 -58.277073 -35.015517
30.088732 -59.838253 -35.124857
30.651946 -58.294331 -36.036548
32.323603 -56.474573 -32.843603
31.689813 -58.051904 -31.943488
31.547935 -58.027718 -33.002027
32.323603 -56.474573 -32.843603
32.914307 -54.944187 -33.639833
3 17 5 18
3 20 19 5
3 21 9 22
3 23 22 7
3 21 22 23
3 25 24 9
3 1 11 4
3 1 12 11
3 1 26 28
3 28 27 12
3 26 27 28
3 30 29 6
3 2 31 33
3 31 13 32
3 31 32 33
3 2 34 36
3 36 35 13
3 34 35 36
3 3 37 39
3 37 14 38
3 37 38 39
3 3 40 42
3 42 41 14
3 40 41 42
3 0 43 44
3 46 45 8
3 47 15 48
3 49 16 50
3 51 50 10
3 49 50 51
3 53 52 16
3 54 4 55
3 5 56 58
3 56 4 57
3 56 57 58
3 5 1 4
3 5 6 1
3 59 6 60
3 61 60 5
3 59 60 61
3 63 62 6
3 64 2 65
3 66 3 67
3 7 8 0
3 9 8 7
3 9 68 70
3 70 69 8
3 68 69 70
3 9 71 73
3 71 10 72
3 71 72 73
3 74 10 75
3 76 75 9
3 74 75 76
3 78 77 10
3 79 0 80
3 4 81 82
3 11 83 85
3 85 84 4
3 83 84 85
3 11 86 88
3 86 0 87
3 86 87 88
3 11 7 0
3 12 7 11
3 12 89 91
3 91 90 7
3 89 90 91
3 12 92 93
3 95 94 12
3 6 96 98
3 98 97 1
3 96 97 98
3 100 99 6
3 13 101 102
3 13 103 104
3 13 105 106
3 108 107 13
3 109 2 110
3 14 111 112
3 14 113 115
3 113 2 114
3 113 114 115
3 14 116 118
3 118 117 2
3 116 117 118
3 120 119 14
3 8 121 123
3 123 122 0
3 121 122 123
3 125 124 8
3 15 126 127
3 15 128 130
3 128 3 129
3 128 129 130
3 10 131 133
3 131 15 132
3 131 132 133
3 16 15 10
3 16 3 15
3 16 134 136
3 136 135 3
3 134 135 136
3 138 137 16
