ply
format ascii 1.0
element vertex 69
property float x
property float y
property float z
element face 54
property list uchar int vertex_index
end_header
-10.644199 67.742203 22.725607
-13.008141 68.803352 18.094801
-12.180111 65.505211 22.544239
-13.315077 65.921486 20.327436
-11.911006 68.263542 20.379326
-11.419845 71.166847 18.298239
-10.261418 70.570984 20.567446
-11.105243 64.863655 24.704405
-12.496518 71.837471 15.927655
-9.554054 66.795502 25.055542
-9.093558 69.804001 22.868698
-11.334109 63.35354 25.706026
-11.843373 63.677611 24.677062
-12.072239 62.167496 25.678683
-13.679329 67.644596 18.026347
-13.832797 66.203663 19.142664
-13.161609 67.362419 19.211118
-13.479219 69.132289 16.949033
-13.679329 67.644596 18.026347
-12.75233 70.320412 17.011228
-13.223408 70.649349 15.865461
-13.479219 69.132289 16.949033
-11.211419 72.575969 17.168937
-10.619115 72.300068 18.309186
-8.990894 66.279068 26.192865
-9.801369 65.285686 26.060499
-8.264654 70.803928 22.930779
-8.530821 69.26947 24.055979
-8.883494 71.263642 21.717888
-8.264654 70.803928 22.930779
-12.747594 65.713348 21.435837
-13.481728 64.570013 21.29371
-12.914245 64.361875 22.402112
-10.039901 72.002137 19.44379
-10.619115 72.300068 18.309186
-10.840632 70.868915 19.432842
-12.380807 63.998389 23.596979
-12.914245 64.361875 22.402112
-11.642677 65.184433 23.624322
-12.380807 63.998389 23.596979
-11.843373 63.677611 24.677062
-14.041885 64.806923 20.069845
-13.481728 64.570013 21.29371
-14.041885 64.806923 20.069845
-13.832797 66.203663 19.142664
-13.080032 71.965733 14.794446
-13.223408 70.649349 15.865461
-12.340013 73.202526 14.746966
-13.080032 71.965733 14.794446
-11.749755 72.911282 15.983645
-11.958182 71.502159 17.112947
-11.211419 72.575969 17.168937
-12.340013 73.202526 14.746966
-11.749755 72.911282 15.983645
-10.576964 64.319763 25.884931
-11.334109 63.35354 25.706026
-10.329649 65.829578 24.879973
-10.576964 64.319763 25.884931
-9.801369 65.285686 26.060499
-8.761069 67.765221 25.149401
-8.990894 66.279068 26.192865
-9.323806 68.299751 23.96212
-8.761069 67.765221 25.149401
-8.530821 69.26947 24.055979
-9.467424 71.647133 20.567262
-9.677488 70.187492 21.718072
-8.883494 71.263642 21.717888
-10.039901 72.002137 19.44379
-9.467424 71.647133 20.567262
3 0 4 2
3 0 6 4
3 11 7 12
3 11 12 13
3 1 14 16
3 16 15 3
3 14 15 16
3 1 17 18
3 1 19 21
3 19 8 20
3 19 20 21
3 23 22 5
3 24 9 25
3 26 10 27
3 29 28 10
3 2 30 32
3 30 3 31
3 30 31 32
3 4 3 2
3 4 1 3
3 4 5 1
3 6 5 4
3 6 33 35
3 35 34 5
3 33 34 35
3 36 2 37
3 7 38 40
3 38 2 39
3 38 39 40
3 7 0 2
3 3 41 42
3 44 43 3
3 8 45 46
3 8 47 48
3 5 8 1
3 49 8 50
3 51 50 5
3 49 50 51
3 53 52 8
3 54 7 55
3 9 56 58
3 56 7 57
3 56 57 58
3 9 0 7
3 59 9 60
3 10 61 63
3 61 9 62
3 61 62 63
3 10 0 9
3 10 6 0
3 64 6 65
3 66 65 10
3 64 65 66
3 68 67 6
