ply
format ascii 1.0
element vertex 218
property float x
property float y
property float z
element face 172
property list uchar int vertex_index
end_header
27.179058 -0.824224 69.090874
22.335506 -22.68425 72.505722
25.601391 -12.920989 71.48719
22.977661 -27.907335 71.531151
19.800669 -26.83787 72.406815
20.39797 -32.041473 71.476814
24.733124 -1.184563 71.029083
26.542534 -6.946466 70.432327
23.253036 -30.446123 70.825569
24.282211 -28.334387 70.641205
16.71133 -28.233364 72.009361
18.11401 -26.207205 72.406105
18.480324 -28.869686 72.13443
20.2057 -29.4296 72.003906
24.883528 -10.14043 71.866119
25.328949 -7.25319 71.415863
26.132841 -10.09233 71.001572
23.315916 -20.401039 72.395508
23.46328 -9.89025 72.40773
22.641756 -25.429808 72.08638
23.736511 -23.038511 71.948196
24.083059 -25.698977 71.336075
19.338915 -24.213633 72.664932
21.07308 -24.732113 72.543159
21.418846 -27.382944 72.137962
21.854265 -30.031796 71.542015
26.044743 -0.898916 70.208473
24.435202 -4.155879 71.545784
25.742682 -4.048245 70.831879
26.871109 -3.849356 69.803017
23.476479 -15.211223 72.562271
24.946852 -15.442904 71.888962
25.596386 -18.287954 71.245384
26.16905 -15.637705 70.923485
23.866596 -30.667496 70.3022
23.361522 -31.753469 70.390656
27.607964 -0.580723 68.408619
27.278126 0.848771 68.725021
27.534402 -2.317304 68.72976
27.607964 -0.580723 68.408619
17.748017 -29.796621 71.935028
17.595827 -28.551525 72.071895
16.86352 -29.478459 71.872493
18.644326 -30.15223 71.936966
17.748017 -29.796621 71.935028
26.194834 -12.841742 70.921112
26.460559 -11.427412 70.678303
25.867116 -11.50666 71.244381
22.825711 -21.542645 72.450615
22.503185 -20.235172 72.607643
22.01298 -21.376777 72.66275
23.081567 -11.217517 72.560791
22.632223 -9.945508 72.545979
23.822063 -11.294289 72.346519
23.081567 -11.217517 72.560791
24.828117 -27.239724 70.398896
24.866663 -28.517177 70.010403
21.239026 -32.290789 71.174214
21.967174 -31.28595 71.206814
21.126117 -31.036635 71.509415
20.583503 -33.318502 71.124333
21.239026 -32.290789 71.174214
24.907536 0.3803 70.708702
24.125281 0.22158 71.011887
25.388934 -1.04174 70.618778
25.563345 0.523123 70.298397
24.907536 0.3803 70.708702
24.212475 -5.667977 71.791168
23.692691 -4.296504 71.772285
27.051962 -6.818354 69.78828
27.216249 -5.269799 69.473625
26.706822 -5.397911 70.117672
23.86527 -16.605896 72.359307
23.141371 -16.495166 72.631679
24.600456 -16.721736 72.022652
24.211666 -15.327064 72.225617
23.86527 -16.605896 72.359307
24.250902 -21.865962 71.786636
24.400493 -23.240241 71.475822
26.137377 -18.312091 70.662094
25.775413 -19.688623 70.893673
26.423709 -16.986966 70.501145
25.882718 -16.962829 71.084435
26.137377 -18.312091 70.662094
26.692037 -15.534297 70.274116
26.423709 -16.986966 70.501145
24.381183 -29.611629 70.210018
23.767623 -29.390255 70.733387
23.866596 -30.667496 70.3022
24.866663 -28.517177 70.010403
24.381183 -29.611629 70.210018
17.41267 -27.220284 72.207733
17.192602 -25.978998 72.273731
16.491262 -26.992078 72.075359
19.507015 -30.432187 71.871704
19.343012 -29.149643 72.069168
18.644326 -30.15223 71.936966
19.60315 -31.738124 71.608158
20.301835 -30.735537 71.74036
19.507015 -30.432187 71.871704
19.685365 -32.989018 71.347431
19.60315 -31.738124 71.608158
24.019143 -1.323374 71.277489
24.125281 0.22158 71.011887
25.106238 -8.69681 71.640991
24.659349 -7.216633 71.726208
24.436638 -8.660253 71.951335
26.665627 -9.876765 70.407524
26.870473 -8.303833 70.122902
26.337688 -8.519398 70.716949
26.665627 -9.876765 70.407524
26.460559 -11.427412 70.678303
23.06109 -19.090075 72.548298
22.503185 -20.235172 72.607643
23.784989 -19.200803 72.275925
23.06109 -19.090075 72.548298
26.761772 0.742206 69.290913
27.278126 0.848771 68.725021
15.716038 -27.835448 71.813812
16.491262 -26.992078 72.075359
15.969541 -29.01545 71.760574
15.716038 -27.835448 71.813812
16.86352 -29.478459 71.872493
15.969541 -29.01545 71.760574
22.932315 -8.591974 72.402347
22.632223 -9.945508 72.545979
23.726514 -8.535163 72.222141
22.932315 -8.591974 72.402347
24.173404 -10.01534 72.136924
24.436638 -8.660253 71.951335
23.726514 -8.535163 72.222141
24.532187 -11.419379 72.075714
24.173404 -10.01534 72.136924
23.822063 -11.294289 72.346519
24.891119 -12.809658 71.886249
25.242459 -11.53071 71.676654
24.532187 -11.419379 72.075714
24.573767 -24.570474 71.169761
24.400493 -23.240241 71.475822
23.909785 -24.368744 71.642135
24.728541 -25.922019 70.74633
24.182635 -27.016682 70.98864
24.828117 -27.239724 70.398896
24.573767 -24.570474 71.169761
24.728541 -25.922019 70.74633
21.439574 -22.499336 72.651615
22.01298 -21.376777 72.66275
17.809214 -24.94789 72.455211
17.192602 -25.978998 72.273731
18.421667 -23.951104 72.584625
17.809214 -24.94789 72.455211
18.726463 -25.210419 72.535518
19.056134 -22.966909 72.716888
18.421667 -23.951104 72.584625
19.941278 -23.264028 72.73122
19.056134 -22.966909 72.716888
20.808361 -23.523268 72.670333
19.941278 -23.264028 72.73122
20.205998 -24.472873 72.604045
21.704293 -23.708181 72.52444
21.439574 -22.499336 72.651615
20.808361 -23.523268 72.670333
22.666559 -31.493113 70.848591
22.553651 -30.238959 71.183792
21.967174 -31.28595 71.206814
23.361522 -31.753469 70.390656
22.666559 -31.493113 70.848591
20.583503 -33.318502 71.124333
19.685365 -32.989018 71.347431
26.194615 0.704861 69.849712
25.563345 0.523123 70.298397
26.611901 -0.86157 69.649674
26.761772 0.742206 69.290913
26.194615 0.704861 69.849712
23.870182 -2.809032 71.535839
23.692691 -4.296504 71.772285
24.584163 -2.670221 71.287433
24.019143 -1.323374 71.277489
23.870182 -2.809032 71.535839
24.882075 -5.704534 71.480823
24.212475 -5.667977 71.791168
24.659349 -7.216633 71.726208
27.380427 -3.82987 69.085831
27.534402 -2.317304 68.72976
27.025084 -2.33679 69.446945
27.380427 -3.82987 69.085831
27.216249 -5.269799 69.473625
27.051962 -6.818354 69.78828
26.870473 -8.303833 70.122902
22.689782 -15.172283 72.726425
23.141371 -16.495166 72.631679
23.088166 -13.878003 72.638061
22.689782 -15.172283 72.726425
23.828663 -13.954775 72.42379
23.088166 -13.878003 72.638061
24.563849 -14.070616 72.087136
23.828663 -13.954775 72.42379
24.211666 -15.327064 72.225617
25.274121 -14.181947 71.688076
24.891119 -12.809658 71.886249
24.563849 -14.070616 72.087136
24.040605 -20.547226 72.010292
23.526214 -21.719775 72.171852
24.250902 -21.865962 71.786636
23.784989 -19.200803 72.275925
24.040605 -20.547226 72.010292
25.180839 -19.490683 71.43523
25.775413 -19.688623 70.893673
24.925224 -18.144261 71.700863
25.180839 -19.490683 71.43523
25.271619 -16.865429 71.567173
24.600456 -16.721736 72.022652
24.925224 -18.144261 71.700863
26.478663 -14.2001 70.63926
26.194834 -12.841742 70.921112
25.88522 -14.279347 71.205337
26.478663 -14.2001 70.63926
26.692037 -15.534297 70.274116
3 35 34 8
3 0 36 37
3 0 38 39
3 40 12 41
3 42 41 10
3 40 41 42
3 44 43 12
3 2 16 14
3 2 45 47
3 47 46 16
3 45 46 47
3 1 48 50
3 48 17 49
3 48 49 50
3 51 18 52
3 54 53 18
3 3 21 19
3 56 55 9
3 4 22 11
3 4 23 22
3 4 24 23
3 5 25 13
3 5 57 59
3 59 58 25
3 57 58 59
3 5 60 61
3 6 62 63
3 6 64 66
3 64 26 65
3 64 65 66
3 67 27 68
3 7 28 15
3 7 29 28
3 7 69 71
3 71 70 29
3 69 70 71
3 72 30 73
3 74 31 75
3 76 75 30
3 74 75 76
3 78 77 20
3 79 32 80
3 81 33 82
3 83 82 32
3 81 82 83
3 85 84 33
3 8 9 3
3 86 9 87
3 88 87 8
3 86 87 88
3 90 89 9
3 10 91 93
3 91 11 92
3 91 92 93
3 12 11 10
3 12 4 11
3 12 13 4
3 94 13 95
3 96 95 12
3 94 95 96
3 97 5 98
3 99 98 13
3 97 98 99
3 101 100 5
3 102 6 103
3 14 104 106
3 104 15 105
3 104 105 106
3 16 15 14
3 16 7 15
3 16 107 109
3 109 108 7
3 107 108 109
3 111 110 16
3 17 112 113
3 17 114 115
3 116 0 117
3 118 10 119
3 120 10 121
3 123 122 10
3 18 124 125
3 18 126 127
3 18 128 130
3 128 14 129
3 128 129 130
3 131 14 132
3 133 132 18
3 131 132 133
3 134 2 135
3 136 135 14
3 134 135 136
3 19 20 1
3 21 20 19
3 21 137 139
3 139 138 20
3 137 138 139
3 9 21 3
3 140 21 141
3 142 141 9
3 140 141 142
3 144 143 21
3 145 1 146
3 11 147 148
3 22 149 151
3 151 150 11
3 149 150 151
3 22 152 153
3 22 154 155
3 23 156 158
3 158 157 22
3 156 157 158
3 23 159 161
3 159 1 160
3 159 160 161
3 23 19 1
3 24 19 23
3 24 3 19
3 13 24 4
3 25 24 13
3 25 3 24
3 25 8 3
3 162 8 163
3 164 163 25
3 162 163 164
3 166 165 8
3 168 167 5
3 26 169 170
3 26 171 173
3 171 0 172
3 171 172 173
3 27 174 175
3 27 176 178
3 176 6 177
3 176 177 178
3 15 179 181
3 179 27 180
3 179 180 181
3 28 27 15
3 28 6 27
3 28 26 6
3 29 26 28
3 29 0 26
3 29 182 184
3 184 183 0
3 182 183 184
3 186 185 29
3 188 187 7
3 30 189 190
3 30 191 192
3 30 193 194
3 31 195 197
3 197 196 30
3 195 196 197
3 31 198 200
3 198 2 199
3 198 199 200
3 20 17 1
3 201 17 202
3 203 202 20
3 201 202 203
3 205 204 17
3 32 206 207
3 32 208 209
3 32 210 212
3 210 31 211
3 210 211 212
3 33 31 32
3 33 2 31
3 33 213 215
3 215 214 2
3 213 214 215
3 217 216 33
