ply
format ascii 1.0
element vertex 239
property float x
property float y
property float z
element face 201
property list uchar int vertex_index
end_header
-37.724838 -11.030354 9.859914
-36.119534 -2.380083 4.530548
-35.84803 -19.806217 7.61036
-35.261257 -11.593972 6.446991
-36.566586 -15.621774 8.857738
-34.111698 -15.771411 5.478236
-36.876942 -6.859761 7.153438
-33.943001 -7.118064 3.938694
-35.33614 2.303087 1.913295
-33.564194 -19.393545 4.071786
-35.640377 -23.294975 5.93857
-34.537464 -13.718301 5.903963
-37.488075 -2.099271 6.125241
-37.707359 -4.383235 7.405705
-36.525059 -4.608907 5.862296
-35.469521 -7.07209 5.487972
-34.975491 -4.937387 4.260038
-36.547276 5.076269 2.004812
-38.102535 -13.186568 11.181181
-36.153458 -17.845276 8.291886
-37.217979 -17.757687 10.149066
-36.908157 -19.880304 9.522492
-36.655296 -21.841465 8.699372
-34.712738 -22.859249 4.077953
-36.546833 -25.30401 6.851077
-36.551285 -11.358864 8.077324
-37.090702 -13.385955 9.361156
-35.813534 -13.70689 7.515121
-35.325741 -15.840899 7.049081
-34.9263 -17.827847 6.441706
-38.760002 -4.169766 9.199851
-37.31469 -8.964628 8.52673
-35.96888 -9.220326 6.730783
-34.539333 -9.502354 5.163629
-37.836128 4.956495 3.599668
-36.808842 2.648104 3.277489
-32.407982 -7.230106 2.615881
-37.648308 -15.616595 10.76101
-38.122288 -17.571466 12.066286
-33.688171 -17.626854 4.758682
-34.727791 -19.613762 5.824079
-34.67329 -21.300322 5.086529
-35.734314 -21.6884 6.912224
-36.571487 -23.653303 7.89894
-37.913686 -12.108461 10.520547
-38.372068 -11.953875 11.412738
-38.18322 -10.875768 10.752105
-38.652086 -3.01693 8.455192
-39.0851 -2.91578 9.346924
-37.44923 -6.661971 7.967291
-37.864439 -5.423708 8.093424
-37.29215 -5.621498 7.279572
-37.095816 -7.912195 7.840084
-37.668104 -7.714404 8.653937
-37.44923 -6.661971 7.967291
-33.524405 -8.334588 3.846525
-33.82257 -9.526733 4.458992
-34.241167 -8.310209 4.551162
-37.683725 6.238522 2.886478
-38.226246 6.284096 3.659361
-35.505471 1.136943 2.530096
-36.241822 1.309451 3.212194
-36.072491 2.475595 2.595392
-31.587992 -7.195537 1.960634
-32.070268 -6.023117 2.034325
-31.981172 -8.338569 2.489466
-31.587992 -7.195537 1.960634
-37.979714 -18.683786 11.79455
-37.670133 -17.664577 11.107676
-37.527559 -18.776896 10.83594
-38.342574 -18.592704 12.788417
-37.979714 -18.683786 11.79455
-33.626182 -18.510199 4.415234
-33.049518 -17.52181 3.932529
-32.98753 -18.405155 3.589081
-36.901013 -25.366111 7.847099
-36.921368 -26.2271 7.340468
-34.182089 -12.76238 5.38795
-34.899361 -12.656137 6.175477
-34.543986 -11.700216 5.659464
-33.800173 -13.741499 5.077148
-34.182089 -12.76238 5.38795
-33.587289 -14.768054 4.864284
-34.324581 -14.744856 5.691099
-33.800173 -13.741499 5.077148
-37.597717 -3.241253 6.765473
-38.125765 -3.123664 7.558119
-38.016123 -1.981682 6.917887
-36.346624 6.319824 1.31952
-37.039299 6.298409 2.08905
-35.815996 4.982833 1.352397
-36.346624 6.319824 1.31952
-35.615345 6.226389 0.667106
-35.210428 3.596242 1.306639
-35.941708 3.689678 1.959054
-35.815996 4.982833 1.352397
-38.492296 -13.097618 12.118695
-38.372068 -11.953875 11.412738
-38.303089 -14.237929 11.904098
-38.492296 -13.097618 12.118695
-37.372648 -19.838205 10.522654
-37.527559 -18.776896 10.83594
-37.063068 -18.818995 9.835779
-37.221117 -20.873106 10.095233
-37.372648 -19.838205 10.522654
-37.094687 -21.853687 9.683673
-37.221117 -20.873106 10.095233
-36.781727 -20.860884 9.110932
-37.027271 -22.765978 9.319211
-37.094687 -21.853687 9.683673
-32.9879 -19.168806 3.258362
-32.98753 -18.405155 3.589081
-34.844328 -23.563764 3.571338
-34.253544 -22.570867 3.185377
-35.24229 -23.836509 4.53381
-34.844328 -23.563764 3.571338
-35.37388 -24.541024 4.027195
-35.70611 -24.054372 5.464118
-35.176558 -23.077112 5.008261
-35.24229 -23.836509 4.53381
-36.159338 -25.058889 5.920372
-36.093605 -24.299492 6.394824
-35.70611 -24.054372 5.464118
-36.574326 -25.984355 6.27838
-36.159338 -25.058889 5.920372
-36.18683 -25.739234 5.347675
-36.94886 -26.907445 6.767772
-36.921368 -26.2271 7.340468
-36.574326 -25.984355 6.27838
-37.884142 -0.846686 6.177347
-38.016123 -1.981682 6.917887
-37.28175 -0.950703 5.36824
-37.884142 -0.846686 6.177347
-36.597479 -1.091109 4.570894
-36.803804 -2.239677 5.327894
-37.28175 -0.950703 5.36824
-38.018919 -9.860254 10.02335
-38.18322 -10.875768 10.752105
-39.165945 -4.009387 10.146871
-39.0851 -2.91578 9.346924
-38.863325 -5.268061 9.933644
-39.165945 -4.009387 10.146871
-38.23368 -4.276501 8.302778
-38.652086 -3.01693 8.455192
-38.125765 -3.123664 7.558119
-38.39076 -5.316973 8.990497
-38.23368 -4.276501 8.302778
-37.864439 -5.423708 8.093424
-38.863325 -5.268061 9.933644
-38.39076 -5.316973 8.990497
-37.813845 -8.827391 9.356758
-37.668104 -7.714404 8.653937
-37.519764 -9.997491 9.193322
-38.018919 -9.860254 10.02335
-37.813845 -8.827391 9.356758
-34.183024 -10.654407 5.017783
-34.543986 -11.700216 5.659464
-34.900295 -10.548163 5.80531
-34.183024 -10.654407 5.017783
-33.82257 -9.526733 4.458992
-38.377358 5.188282 4.362433
-38.226246 6.284096 3.659361
-37.978502 3.814376 4.289214
-38.377358 5.188282 4.362433
-37.191702 5.016382 2.80224
-37.683725 6.238522 2.886478
-37.039299 6.298409 2.08905
-37.464859 2.66018 4.128125
-37.978502 3.814376 4.289214
-37.322485 3.8023 3.438579
-36.942133 1.422985 3.944364
-37.464859 2.66018 4.128125
-36.942133 1.422985 3.944364
-36.241822 1.309451 3.212194
-35.897168 -1.204642 3.838723
-36.597479 -1.091109 4.570894
-34.581509 2.330812 1.278563
-35.210428 3.596242 1.306639
-34.745469 1.086053 1.861235
-34.581509 2.330812 1.278563
-35.505471 1.136943 2.530096
-34.745469 1.086053 1.861235
-35.32429 -2.487101 3.775648
-35.897168 -1.204642 3.838723
-34.752268 -3.765753 3.640394
-35.547512 -3.658735 4.395293
-35.32429 -2.487101 3.775648
-34.158574 -4.875143 3.490264
-34.752268 -3.765753 3.640394
-33.642329 -5.965482 3.329592
-34.459246 -6.027726 4.099366
-34.158574 -4.875143 3.490264
-32.874819 -6.021503 2.668186
-32.070268 -6.023117 2.034325
-33.175491 -7.174085 3.277287
-33.642329 -5.965482 3.329592
-32.874819 -6.021503 2.668186
-32.756895 -8.390609 3.185118
-33.524405 -8.334588 3.846525
-33.175491 -7.174085 3.277287
-32.756895 -8.390609 3.185118
-31.981172 -8.338569 2.489466
-38.075975 -15.452943 11.694013
-38.303089 -14.237929 11.904098
-37.875422 -14.401581 10.971096
-38.312965 -16.430378 12.346651
-38.075975 -15.452943 11.694013
-37.885298 -16.594031 11.413648
-38.478134 -17.469785 13.071072
-38.312965 -16.430378 12.346651
-38.478134 -17.469785 13.071072
-38.342574 -18.592704 12.788417
-33.440643 -15.794545 4.670822
-33.587289 -14.768054 4.864284
-32.916235 -14.791189 4.056871
-33.228879 -16.722267 4.311046
-33.049518 -17.52181 3.932529
-33.899935 -16.699133 5.118459
-33.440643 -15.794545 4.670822
-33.228879 -16.722267 4.311046
-33.557875 -20.128976 3.645314
-32.9879 -19.168806 3.258362
-34.132147 -21.861828 3.648397
-34.253544 -22.570867 3.185377
-34.112423 -21.082365 4.152685
-34.132147 -21.861828 3.648397
-34.693014 -22.079785 4.582241
-34.118742 -20.346933 4.579157
-33.557875 -20.128976 3.645314
-34.112423 -21.082365 4.152685
-36.985366 -23.671897 8.918995
-37.027271 -22.765978 9.319211
-36.613391 -22.747384 8.299156
-36.913339 -24.540757 8.371031
-36.55916 -24.478656 7.375008
-36.901013 -25.366111 7.847099
-37.327219 -24.559351 9.391087
-36.985366 -23.671897 8.918995
-36.913339 -24.540757 8.371031
3 1 14 12
3 1 16 14
3 0 44 46
3 44 18 45
3 44 45 46
3 2 21 19
3 2 22 21
3 3 27 25
3 5 28 11
3 5 29 28
3 47 30 48
3 6 49 51
3 51 50 13
3 49 50 51
3 6 52 54
3 52 31 53
3 52 53 54
3 6 32 31
3 7 33 15
3 7 55 57
3 57 56 33
3 55 56 57
3 58 34 59
3 8 35 17
3 8 60 62
3 62 61 35
3 60 61 62
3 63 36 64
3 66 65 36
3 4 37 26
3 67 38 68
3 69 68 20
3 67 68 69
3 71 70 38
3 9 72 74
3 72 39 73
3 72 73 74
3 9 40 39
3 10 41 23
3 10 42 41
3 10 43 42
3 76 75 24
3 77 11 78
3 79 78 3
3 77 78 79
3 80 11 81
3 82 5 83
3 84 83 11
3 82 83 84
3 12 85 87
3 85 13 86
3 85 86 87
3 14 13 12
3 14 6 13
3 14 15 6
3 16 15 14
3 16 7 15
3 88 17 89
3 90 17 91
3 90 91 92
3 93 8 94
3 95 94 17
3 93 94 95
3 18 96 97
3 18 98 99
3 19 20 4
3 21 20 19
3 21 100 102
3 102 101 20
3 100 101 102
3 21 103 104
3 22 105 107
3 107 106 21
3 105 106 107
3 22 108 109
3 110 9 111
3 112 23 113
3 114 23 115
3 114 115 116
3 117 10 118
3 119 118 23
3 117 118 119
3 120 24 121
3 122 121 10
3 120 121 122
3 123 24 124
3 123 124 125
3 128 127 24
3 126 127 128
3 129 12 130
3 131 12 132
3 133 1 134
3 135 134 12
3 133 134 135
3 25 26 0
3 27 26 25
3 27 4 26
3 11 27 3
3 28 27 11
3 28 4 27
3 28 19 4
3 29 19 28
3 29 2 19
3 136 0 137
3 30 138 139
3 30 140 141
3 13 142 144
3 142 30 143
3 142 143 144
3 145 30 146
3 147 146 13
3 145 146 147
3 149 148 30
3 31 150 151
3 31 152 154
3 152 0 153
3 152 153 154
3 31 25 0
3 32 25 31
3 32 3 25
3 15 32 6
3 33 32 15
3 33 3 32
3 33 155 157
3 157 156 3
3 155 156 157
3 159 158 33
3 34 160 161
3 34 162 163
3 17 164 166
3 164 34 165
3 164 165 166
3 35 34 17
3 35 167 169
3 169 168 34
3 167 168 169
3 35 170 171
3 173 172 35
3 174 1 175
3 176 8 177
3 178 8 179
3 181 180 8
3 182 1 183
3 184 16 185
3 186 185 1
3 184 185 186
3 187 16 188
3 189 7 190
3 191 190 16
3 189 190 191
3 36 192 193
3 36 194 196
3 194 7 195
3 194 195 196
3 36 197 199
3 199 198 7
3 197 198 199
3 201 200 36
3 26 18 0
3 37 18 26
3 37 202 204
3 204 203 18
3 202 203 204
3 20 37 4
3 38 37 20
3 38 205 207
3 207 206 37
3 205 206 207
3 38 208 209
3 211 210 38
3 212 5 213
3 212 213 214
3 39 215 216
3 39 217 219
3 217 5 218
3 217 218 219
3 39 29 5
3 40 29 39
3 40 2 29
3 220 9 221
3 23 222 223
3 41 224 226
3 226 225 23
3 224 225 226
3 41 227 229
3 227 9 228
3 227 228 229
3 41 40 9
3 42 40 41
3 42 2 40
3 42 22 2
3 43 22 42
3 43 230 232
3 232 231 22
3 230 231 232
3 24 43 10
3 233 43 234
3 235 234 24
3 233 234 235
3 238 237 43
3 236 237 238
