ply
format ascii 1.0
element vertex 185
property float x
property float y
property float z
element face 140
property list uchar int vertex_index
end_header
31.713572 -27.685732 31.301487
34.734112 -36.652012 22.770775
34.684761 -32.892376 25.578566
23.296684 -33.980328 34.77351
34.166634 -24.04501 30.001387
34.364117 -28.661879 28.123806
26.381815 -32.54707 33.489372
27.986074 -33.145348 32.297108
32.335846 -34.36319 28.03129
34.540821 -30.874353 26.878134
30.555868 -29.496696 31.656706
33.764671 -36.670921 24.66964
33.654827 -34.673237 26.138134
34.711239 -34.877838 24.247679
35.660717 -33.089561 23.629541
24.913034 -34.373871 33.795067
35.17971 -22.442478 29.199425
32.008156 -29.9659 30.229122
33.522472 -32.600262 27.430901
33.31144 -30.379469 28.701681
33.166656 -28.051571 29.774673
34.319271 -26.365843 29.064978
35.238682 -24.645977 28.452801
27.281161 -33.995375 32.485875
27.183944 -32.846209 32.89324
26.479031 -33.696236 33.082007
31.699265 -26.503519 31.683412
31.014571 -27.380536 31.961899
32.377913 -26.821039 30.959899
31.699265 -26.503519 31.683412
32.471192 -35.414206 27.311715
31.800761 -35.271357 28.201441
29.906459 -30.31825 31.867881
29.82771 -29.195338 32.288287
29.178301 -30.016891 32.499462
36.116993 -33.085176 22.527186
35.682997 -33.979709 22.862184
36.116329 -32.210924 23.223118
36.116993 -33.085176 22.527186
24.028072 -32.995718 34.665911
23.166588 -32.79466 35.174309
24.104859 -34.177099 34.284289
24.836247 -33.19249 34.176689
24.028072 -32.995718 34.665911
34.076588 -22.938012 30.40345
33.426721 -22.718849 31.147519
33.516768 -23.825847 30.745456
34.673172 -23.243744 29.600406
34.583126 -22.136745 30.002469
34.076588 -22.938012 30.40345
32.110411 -31.069119 29.688734
31.361144 -30.912222 30.458483
31.463399 -32.01544 29.918095
35.768976 -24.880007 27.53212
35.346853 -25.729982 27.895375
35.728083 -23.769675 27.977176
35.768976 -24.880007 27.53212
27.02814 -31.63939 33.378826
26.202606 -31.360844 33.951306
27.830269 -31.938529 32.782694
27.02814 -31.63939 33.378826
27.183944 -32.846209 32.89324
28.621562 -32.142575 32.188082
28.465758 -30.935757 32.673668
27.830269 -31.938529 32.782694
35.219694 -35.760935 22.4328
35.142556 -36.681694 21.682302
22.498203 -33.692244 35.260355
23.166588 -32.79466 35.174309
33.604444 -25.000678 30.309849
33.516768 -23.825847 30.745456
31.665819 -34.18549 28.813503
31.800761 -35.271357 28.201441
32.274256 -33.267764 28.589818
31.665819 -34.18549 28.813503
35.114523 -30.943601 25.893802
34.612791 -31.883364 26.22835
35.186493 -31.952613 25.244018
35.023497 -29.930568 26.586651
35.114523 -30.943601 25.893802
34.935144 -28.824331 27.209487
34.452469 -29.768116 27.50097
35.023497 -29.930568 26.586651
34.909571 -27.737933 27.730877
34.935144 -28.824331 27.209487
30.435719 -28.286018 32.139509
29.82771 -29.195338 32.288287
31.13472 -28.591214 31.479097
31.014571 -27.380536 31.961899
30.435719 -28.286018 32.139509
33.709749 -35.672079 25.403887
33.130682 -35.569229 26.365137
33.185604 -36.568071 25.63089
35.208258 -34.873848 23.171253
34.722676 -35.764925 23.509227
35.219694 -35.760935 22.4328
35.185978 -33.9837 23.93861
35.208258 -34.873848 23.171253
35.682997 -33.979709 22.862184
35.674471 -32.051206 24.269506
35.186493 -31.952613 25.244018
35.172739 -32.990969 24.604053
35.674471 -32.051206 24.269506
36.116329 -32.210924 23.223118
33.226215 -37.535521 24.954821
33.185604 -36.568071 25.63089
32.647148 -37.432671 25.916071
33.738615 -37.586946 23.977597
33.226215 -37.535521 24.954821
34.223336 -37.577492 23.028164
34.249392 -36.661467 23.720208
33.738615 -37.586946 23.977597
34.673828 -37.552435 21.967914
34.223336 -37.577492 23.028164
35.142556 -36.681694 21.682302
34.673828 -37.552435 21.967914
25.570638 -32.279089 34.023842
26.202606 -31.360844 33.951306
25.647424 -33.46047 33.64222
25.570638 -32.279089 34.023842
24.836247 -33.19249 34.176689
25.744641 -34.609637 33.234854
26.479031 -33.696236 33.082007
25.647424 -33.46047 33.64222
22.644147 -34.882984 34.876442
22.498203 -33.692244 35.260355
23.458793 -35.116219 34.387361
22.644147 -34.882984 34.876442
22.806257 -36.018876 34.490293
24.266968 -35.31299 33.89814
24.104859 -34.177099 34.284289
23.458793 -35.116219 34.387361
25.148903 -35.49276 33.343516
24.266968 -35.31299 33.89814
25.744641 -34.609637 33.234854
25.148903 -35.49276 33.343516
35.10098 -21.333192 29.569683
34.583126 -22.136745 30.002469
35.628152 -21.546978 28.76573
35.10098 -21.333192 29.569683
28.0995 -34.292623 31.83639
27.281161 -33.995375 32.485875
27.394586 -35.142651 32.025156
28.718319 -33.325184 31.706874
28.0995 -34.292623 31.83639
28.831745 -34.472459 31.246156
28.621562 -32.142575 32.188082
28.718319 -33.325184 31.706874
30.635 -30.677619 31.172275
29.906459 -30.31825 31.867881
31.282012 -29.731298 30.942914
30.635 -30.677619 31.172275
31.361144 -30.912222 30.458483
32.995336 -34.518214 27.084712
32.471192 -35.414206 27.311715
33.130682 -35.569229 26.365137
32.867569 -32.386299 28.289623
32.274256 -33.267764 28.589818
32.929159 -33.481726 27.731095
32.762053 -31.275903 28.925013
32.867569 -32.386299 28.289623
33.416956 -31.489866 28.066291
32.659798 -30.172685 29.465401
32.110411 -31.069119 29.688734
32.762053 -31.275903 28.925013
33.104456 -27.003958 30.196492
32.377913 -26.821039 30.959899
32.440114 -27.868651 30.53808
33.680763 -26.161094 29.841645
33.104456 -27.003958 30.196492
33.742964 -27.208707 29.419826
34.242953 -25.205427 29.533183
33.604444 -25.000678 30.309849
33.680763 -26.161094 29.841645
34.887148 -26.589916 28.201463
34.341694 -27.513861 28.594392
34.909571 -27.737933 27.730877
34.778976 -25.50591 28.75889
34.887148 -26.589916 28.201463
35.346853 -25.729982 27.895375
35.698597 -22.667926 28.350488
35.209196 -23.544227 28.826113
35.728083 -23.769675 27.977176
35.628152 -21.546978 28.76573
35.698597 -22.667926 28.350488
3 23 7 24
3 25 24 6
3 23 24 25
3 0 26 27
3 0 28 29
3 30 8 31
3 32 10 33
3 32 33 34
3 1 13 11
3 35 14 36
3 38 37 14
3 3 39 40
3 3 41 43
3 41 15 42
3 41 42 43
3 4 44 46
3 44 45 46
3 4 47 49
3 47 16 48
3 47 48 49
3 50 17 51
3 50 51 52
3 2 18 12
3 5 19 9
3 5 20 19
3 5 21 20
3 53 22 54
3 56 55 22
3 6 57 58
3 7 59 61
3 61 60 6
3 59 60 61
3 7 62 64
3 62 63 64
3 66 65 1
3 67 3 68
3 69 4 70
3 8 71 72
3 8 73 74
3 75 9 76
3 77 76 2
3 75 76 77
3 78 9 79
3 80 5 81
3 82 81 9
3 80 81 82
3 84 83 5
3 10 85 86
3 10 87 89
3 87 0 88
3 87 88 89
3 11 90 92
3 90 12 91
3 90 91 92
3 13 12 11
3 13 2 12
3 93 13 94
3 95 94 1
3 93 94 95
3 14 96 98
3 96 13 97
3 96 97 98
3 14 2 13
3 14 99 101
3 101 100 2
3 99 100 101
3 103 102 14
3 104 11 105
3 104 105 106
3 107 11 108
3 109 1 110
3 111 110 11
3 109 110 111
3 112 1 113
3 115 114 1
3 116 6 117
3 15 118 120
3 118 6 119
3 118 119 120
3 15 121 123
3 123 122 6
3 121 122 123
3 124 3 125
3 126 3 127
3 126 127 128
3 129 15 130
3 131 130 3
3 129 130 131
3 132 15 133
3 135 134 15
3 16 136 137
3 16 138 139
3 140 7 141
3 140 141 142
3 143 7 144
3 143 144 145
3 147 146 7
3 148 10 149
3 17 150 152
3 150 10 151
3 150 151 152
3 17 0 10
3 12 153 155
3 153 8 154
3 153 154 155
3 18 8 12
3 18 156 158
3 158 157 8
3 156 157 158
3 9 18 2
3 19 18 9
3 19 159 161
3 161 160 18
3 159 160 161
3 19 162 164
3 162 17 163
3 162 163 164
3 20 17 19
3 20 0 17
3 20 165 167
3 167 166 0
3 165 166 167
3 21 168 170
3 170 169 20
3 168 169 170
3 21 171 173
3 171 4 172
3 171 172 173
3 174 21 175
3 176 175 5
3 174 175 176
3 22 177 179
3 177 21 178
3 177 178 179
3 22 4 21
3 22 16 4
3 180 16 181
3 182 181 22
3 180 181 182
3 184 183 16
