ply
format ascii 1.0
element vertex 392
property float x
property float y
property float z
element face 303
property list uchar int vertex_index
end_header
0.444677 -7.06246 -56.196083
20.050705 -13.859176 -34.224743
3.155047 -16.45587 -48.710506
17.944933 -6.262924 -39.731945
16.741974 -12.298138 -37.818146
5.061106 -20.626492 -45.148285
14.369769 -37.285191 -33.409447
8.582203 -30.703056 -39.91106
5.929104 -26.74507 -43.39579
12.40823 -0.761421 -45.8708
15.028235 -3.693759 -42.995193
1.669844 -11.687292 -52.442436
3.605855 -22.09244 -47.097912
1.748684 -17.30127 -50.84745
-0.147483 -4.460351 -58.221821
-0.336235 -7.159232 -57.480095
20.738264 -11.001709 -35.006947
19.117399 -10.156117 -36.879665
18.389124 -13.111427 -36.062153
15.851645 -38.415821 -31.778559
9.976767 -32.418808 -38.255642
9.174673 -33.576511 -39.238201
13.436072 2.89856 -46.475689
15.763631 -8.132645 -40.527603
14.177571 -7.010046 -42.18354
12.868427 -5.500209 -43.737007
2.357833 -14.149429 -50.561108
4.693485 -24.333055 -45.265633
1.019333 -14.790228 -52.668514
17.439449 -9.314834 -38.680717
15.146456 -11.133312 -39.615692
4.052882 -18.779758 -46.87883
21.86371 -14.499326 -32.166618
16.834236 -36.595184 -30.77832
15.352971 -35.365559 -32.414837
13.81737 -34.095699 -34.068417
12.937631 -35.625832 -34.962631
12.239736 -32.67281 -35.768799
10.690056 -31.036295 -37.485748
9.30476 -29.352339 -39.092964
7.985895 -27.706898 -40.711697
6.658536 -25.812624 -42.471973
7.221211 -28.751331 -41.634155
10.394366 -2.154233 -46.706295
13.828174 -1.991574 -44.483402
1.72868 -9.123783 -53.172222
1.023195 -9.522343 -54.289791
5.43125 -23.603191 -44.272083
4.310408 -21.395643 -46.103458
3.330577 -19.141735 -47.923927
2.652445 -19.713293 -48.919056
2.46703 -17.009069 -49.716976
0.289281 -9.714567 -55.497681
0.148597 -5.761406 -57.208952
0.218068 -4.375015 -57.616964
0.514148 -5.67607 -56.604095
20.394485 -12.430442 -34.615845
21.538002 -11.33591 -34.061403
21.194223 -12.764644 -33.670301
9.535344 -35.19013 -38.890482
9.875082 -34.547415 -38.436906
8.835904 -34.241146 -39.69429
9.535344 -35.19013 -38.890482
13.879288 -8.431415 -41.775024
14.970601 -7.571345 -41.355571
14.672318 -8.992714 -40.947056
13.160281 -7.783382 -42.576925
13.879288 -8.431415 -41.775024
3.107951 -15.075971 -49.123659
3.521334 -16.195384 -48.219167
2.75644 -15.30265 -49.635807
2.709344 -13.92275 -50.04896
3.107951 -15.075971 -49.123659
4.923813 -19.307752 -45.5852
5.492722 -20.33157 -44.653808
4.556994 -19.703125 -46.013558
4.419702 -18.384385 -46.450472
4.923813 -19.307752 -45.5852
22.701559 -14.777358 -31.15065
22.972662 -13.280458 -31.622476
17.106945 -38.14689 -30.40525
17.596024 -37.241324 -29.895931
12.193125 -34.876711 -35.7778
12.500325 -36.372097 -35.471353
11.844178 -33.4002 -36.180884
12.588684 -34.149321 -35.365715
12.193125 -34.876711 -35.7778
11.069337 -32.581942 -37.039358
11.464896 -31.854552 -36.627274
11.844178 -33.4002 -36.180884
11.84459 0.238111 -46.582014
12.358511 2.068102 -46.884459
12.922151 1.068569 -46.173245
11.401298 -1.457827 -46.288547
10.837658 -0.458295 -46.999761
11.84459 0.238111 -46.582014
18.400495 -4.616216 -40.140963
19.251216 -5.11188 -39.228258
16.177193 -2.736845 -42.594093
15.747308 -4.367668 -42.198935
15.550378 -1.92242 -43.35041
16.177193 -2.736845 -42.594093
14.428204 -2.842666 -43.739297
14.950347 -1.071327 -44.094515
15.550378 -1.92242 -43.35041
12.260389 -4.687137 -44.475856
11.869823 -6.200965 -44.149004
1.699262 -10.405537 -52.807329
2.047481 -10.350547 -52.224268
2.018064 -11.632302 -51.859375
2.200565 -18.507281 -49.883253
2.292281 -20.011669 -49.433662
1.8404 -18.805657 -50.39786
1.722266 -15.905492 -51.226275
2.08144 -15.759391 -50.661038
2.107857 -17.155169 -50.282213
0.975691 -13.395879 -53.152715
0.637828 -13.689127 -53.620611
0.272802 -11.151296 -55.035195
0.610664 -10.858049 -54.567299
-0.087288 -9.865531 -56.048319
0.272802 -11.151296 -55.035195
-0.032254 -3.18572 -58.527014
0.218068 -4.375015 -57.616964
-0.456954 -3.203878 -59.220123
-0.032254 -3.18572 -58.527014
-0.557698 -4.550227 -58.838223
-0.456954 -3.203878 -59.220123
-0.652075 -5.899667 -58.46736
-0.557698 -4.550227 -58.838223
-0.241859 -5.809792 -57.850958
-0.753758 -7.320881 -58.047753
-0.652075 -5.899667 -58.46736
21.887746 -9.828906 -34.503985
21.538002 -11.33591 -34.061403
21.053566 -9.462353 -35.508202
21.887746 -9.828906 -34.503985
19.927831 -10.578913 -35.943306
20.243133 -9.039557 -36.444561
21.053566 -9.462353 -35.508202
5.628116 -21.68143 -44.257641
5.492722 -20.33157 -44.653808
16.199551 -40.077812 -31.38915
16.615649 -39.057209 -30.905369
15.509586 -39.400086 -32.176189
16.199551 -40.077812 -31.38915
14.768648 -38.83477 -32.991633
15.110707 -37.850506 -32.594003
15.509586 -39.400086 -32.176189
10.276129 -33.968563 -37.945627
10.712693 -33.273199 -37.424305
9.57572 -32.997659 -38.746921
10.276129 -33.968563 -37.945627
9.875082 -34.547415 -38.436906
8.47455 -32.598466 -40.085437
8.178314 -31.161738 -40.421867
8.878438 -32.139784 -39.57463
8.47455 -32.598466 -40.085437
8.835904 -34.241146 -39.69429
14.591196 4.039202 -46.137987
13.935617 4.845129 -46.778952
14.02185 2.126761 -45.844448
14.591196 4.039202 -46.137987
13.507929 0.29677 -45.542003
12.922151 1.068569 -46.173245
14.02185 2.126761 -45.844448
16.115006 -6.587111 -40.965139
17.205657 -5.652251 -40.567311
16.854282 -7.197785 -40.129774
15.321976 -6.025811 -41.793108
16.115006 -6.587111 -40.965139
14.970601 -7.571345 -41.355571
14.602903 -5.351902 -42.589366
15.747308 -4.367668 -42.198935
15.321976 -6.025811 -41.793108
12.505709 -7.028463 -43.353658
13.522999 -6.255128 -42.960273
13.160281 -7.783382 -42.576925
11.869823 -6.200965 -44.149004
12.505709 -7.028463 -43.353658
2.362058 -12.86337 -50.918711
2.709344 -13.92275 -50.04896
2.013838 -12.91836 -51.501772
2.018064 -11.632302 -51.859375
2.362058 -12.86337 -50.918711
4.921176 -25.816561 -44.865555
5.311294 -25.539062 -44.330711
5.538985 -27.022569 -43.930633
4.354798 -24.778936 -45.732636
4.921176 -25.816561 -44.865555
3.810983 -23.658628 -46.648775
4.14967 -23.212747 -46.181773
4.354798 -24.778936 -45.732636
1.388008 -17.499913 -51.371487
1.8404 -18.805657 -50.39786
1.023333 -16.244391 -52.282018
1.384008 -16.045749 -51.757982
1.388008 -17.499913 -51.371487
0.63685 -15.056671 -53.193439
1.023333 -16.244391 -52.282018
0.637828 -13.689127 -53.620611
0.63685 -15.056671 -53.193439
18.825705 -6.689127 -38.811419
19.251216 -5.11188 -39.228258
19.411938 -8.635724 -37.385278
20.243133 -9.039557 -36.444561
18.572964 -8.215082 -38.285804
19.411938 -8.635724 -37.385278
18.278424 -9.735475 -37.780191
17.692191 -7.788879 -39.206331
18.825705 -6.689127 -38.811419
18.572964 -8.215082 -38.285804
14.36373 -10.493048 -40.4911
14.672318 -8.992714 -40.947056
15.455044 -9.632979 -40.071647
3.970252 -17.357329 -47.30333
4.419702 -18.384385 -46.450472
3.603965 -17.617814 -47.794668
3.521334 -16.195384 -48.219167
3.970252 -17.357329 -47.30333
0.799631 -6.852882 -55.639822
0.514148 -5.67607 -56.604095
22.100725 -13.084719 -32.641239
22.972662 -13.280458 -31.622476
20.957208 -14.179251 -33.19568
21.194223 -12.764644 -33.670301
22.100725 -13.084719 -32.641239
17.417977 -35.675493 -30.234368
17.596024 -37.241324 -29.895931
16.615187 -35.088516 -31.128247
17.417977 -35.675493 -30.234368
16.342941 -37.505503 -31.27844
17.106945 -38.14689 -30.40525
16.615649 -39.057209 -30.905369
15.874554 -34.473703 -31.946506
16.615187 -35.088516 -31.128247
16.093604 -35.980372 -31.596578
15.065571 -33.88912 -32.816248
15.874554 -34.473703 -31.946506
14.297771 -33.25419 -33.643038
15.065571 -33.88912 -32.816248
14.585171 -34.730629 -33.241627
13.502549 -32.586619 -34.493095
14.297771 -33.25419 -33.643038
13.993835 -38.085854 -33.847217
14.768648 -38.83477 -32.991633
13.277767 -37.256175 -34.62381
12.500325 -36.372097 -35.471353
13.6537 -36.455512 -34.186039
13.993835 -38.085854 -33.847217
13.277767 -37.256175 -34.62381
12.713732 -31.875174 -35.343287
13.502549 -32.586619 -34.493095
13.028553 -33.384254 -34.918608
11.948029 -31.241414 -36.16516
12.713732 -31.875174 -35.343287
11.173189 -30.423157 -37.023634
11.948029 -31.241414 -36.16516
11.464896 -31.854552 -36.627274
10.440863 -29.557439 -37.855372
11.173189 -30.423157 -37.023634
10.333412 -31.727551 -37.870695
11.069337 -32.581942 -37.039358
10.712693 -33.273199 -37.424305
9.748216 -28.715461 -38.65898
10.440863 -29.557439 -37.855372
9.997408 -30.194317 -38.289356
9.048644 -27.971037 -39.482181
9.748216 -28.715461 -38.65898
8.389212 -27.148316 -40.291548
9.048644 -27.971037 -39.482181
8.645328 -28.529618 -39.902331
7.713614 -26.213239 -41.160048
8.389212 -27.148316 -40.291548
7.322216 -26.759761 -41.591835
7.049934 -25.266102 -42.040185
7.713614 -26.213239 -41.160048
7.497819 -30.185876 -41.283414
7.901707 -29.727193 -40.772607
8.178314 -31.161738 -40.421867
6.818793 -29.237773 -42.159776
7.497819 -30.185876 -41.283414
6.17274 -28.234643 -43.040594
6.575157 -27.7482 -42.514972
6.818793 -29.237773 -42.159776
5.538985 -27.022569 -43.930633
6.17274 -28.234643 -43.040594
12.859101 3.851939 -47.132599
13.935617 4.845129 -46.778952
12.859101 3.851939 -47.132599
12.358511 2.068102 -46.884459
9.921152 -1.249731 -47.350219
10.837658 -0.458295 -46.999761
9.495051 -2.78754 -47.113907
9.921152 -1.249731 -47.350219
18.400495 -4.616216 -40.140963
17.205657 -5.652251 -40.567311
14.217901 -0.318306 -44.848304
14.950347 -1.071327 -44.094515
13.118202 -1.376497 -45.177101
13.507929 0.29677 -45.542003
14.217901 -0.318306 -44.848304
12.740263 -2.932819 -44.849054
13.348301 -3.745891 -44.110204
12.260389 -4.687137 -44.475856
12.03029 -2.317743 -45.542753
13.118202 -1.376497 -45.177101
12.740263 -2.932819 -44.849054
11.023359 -3.014149 -45.9605
11.401298 -1.457827 -46.288547
12.03029 -2.317743 -45.542753
10.057471 -3.631687 -46.393011
11.023359 -3.014149 -45.9605
9.495051 -2.78754 -47.113907
10.057471 -3.631687 -46.393011
21.581524 -15.914022 -31.772728
22.701559 -14.777358 -31.15065
20.746099 -15.523224 -32.756588
21.581524 -15.914022 -31.772728
19.839596 -15.203149 -33.785651
20.957208 -14.179251 -33.19568
20.746099 -15.523224 -32.756588
18.978573 -14.914865 -34.687553
19.839596 -15.203149 -33.785651
18.147782 -14.54099 -35.606259
19.219915 -13.485302 -35.143448
18.978573 -14.914865 -34.687553
17.262581 -14.109521 -36.541407
18.147782 -14.54099 -35.606259
16.439006 -13.702876 -37.419403
17.565549 -12.704783 -36.94015
17.262581 -14.109521 -36.541407
15.615143 -13.17668 -38.309929
16.439006 -13.702876 -37.419403
14.817384 -12.594268 -39.208702
15.944215 -11.715725 -38.716919
15.615143 -13.17668 -38.309929
14.142764 -11.906638 -40.029436
14.817384 -12.594268 -39.208702
14.36373 -10.493048 -40.4911
14.142764 -11.906638 -40.029436
2.102886 -9.051564 -52.563347
2.047481 -10.350547 -52.224268
1.798485 -7.874493 -53.49963
2.102886 -9.051564 -52.563347
1.441632 -7.883544 -54.127892
1.798485 -7.874493 -53.49963
1.08889 -8.082824 -54.686676
1.441632 -7.883544 -54.127892
1.375938 -9.323063 -53.731006
0.733936 -8.292402 -55.242937
0.799631 -6.852882 -55.639822
1.08889 -8.082824 -54.686676
6.426831 -24.274496 -42.919485
7.049934 -25.266102 -42.040185
5.813188 -23.169779 -43.81954
6.426831 -24.274496 -42.919485
6.044893 -24.707907 -43.372028
5.246178 -22.114841 -44.710184
5.628116 -21.68143 -44.257641
5.813188 -23.169779 -43.81954
3.271275 -22.420206 -47.572848
3.810983 -23.658628 -46.648775
2.79457 -21.230632 -48.483419
2.292281 -20.011669 -49.433662
3.12915 -20.902867 -48.008484
3.271275 -22.420206 -47.572848
2.79457 -21.230632 -48.483419
2.026841 -14.329571 -51.083103
2.412431 -15.579249 -50.139042
2.08144 -15.759391 -50.661038
1.682847 -13.098502 -52.023768
2.013838 -12.91836 -51.501772
2.026841 -14.329571 -51.083103
1.357591 -14.649971 -52.136807
1.722266 -15.905492 -51.226275
1.384008 -16.045749 -51.757982
1.357591 -14.649971 -52.136807
0.975691 -13.395879 -53.152715
1.300946 -11.844411 -53.039676
1.682847 -13.098502 -52.023768
0.977622 -10.761937 -53.963354
1.34652 -10.604817 -53.366113
1.300946 -11.844411 -53.039676
0.656238 -9.618455 -54.893736
0.977622 -10.761937 -53.963354
0.610664 -10.858049 -54.567299
-0.400046 -8.587864 -57.039526
-0.023477 -8.4369 -56.488888
-0.087288 -9.865531 -56.048319
-0.753758 -7.320881 -58.047753
-0.400046 -8.587864 -57.039526
3 0 53 55
3 53 14 54
3 53 54 55
3 0 15 14
3 1 56 58
3 56 16 57
3 56 57 58
3 1 18 16
3 59 21 60
3 62 61 21
3 63 24 64
3 65 64 23
3 63 64 65
3 67 66 24
3 2 68 69
3 2 70 72
3 70 26 71
3 70 71 72
3 4 29 17
3 4 30 29
3 5 73 74
3 5 75 77
3 75 31 76
3 75 76 77
3 78 32 79
3 80 33 81
3 6 34 19
3 6 35 34
3 82 36 83
3 84 37 85
3 86 85 36
3 84 85 86
3 87 38 88
3 89 88 37
3 87 88 89
3 7 39 20
3 7 40 39
3 7 42 40
3 9 90 92
3 92 91 22
3 90 91 92
3 9 93 95
3 93 43 94
3 93 94 95
3 3 96 97
3 10 98 99
3 10 100 101
3 10 102 104
3 102 44 103
3 102 103 104
3 106 105 25
3 11 107 109
3 107 45 108
3 107 108 109
3 11 46 45
3 8 47 41
3 12 48 27
3 12 49 48
3 13 110 112
3 110 50 111
3 110 111 112
3 13 51 50
3 13 113 115
3 115 114 51
3 113 114 115
3 117 116 28
3 118 52 119
3 121 120 52
3 14 122 123
3 14 124 125
3 14 126 127
3 15 128 130
3 130 129 14
3 128 129 130
3 15 131 132
3 16 133 134
3 16 135 136
3 16 137 139
3 137 17 138
3 137 138 139
3 18 17 16
3 18 4 17
3 140 5 141
3 142 19 143
3 144 19 145
3 146 6 147
3 148 147 19
3 146 147 148
3 149 20 150
3 21 151 153
3 151 20 152
3 151 152 153
3 21 7 20
3 21 154 156
3 156 155 7
3 154 155 156
3 158 157 21
3 159 22 160
3 161 22 162
3 163 9 164
3 165 164 22
3 163 164 165
3 23 166 168
3 168 167 3
3 166 167 168
3 24 169 171
3 171 170 23
3 169 170 171
3 24 172 174
3 172 10 173
3 172 173 174
3 24 25 10
3 175 25 176
3 177 176 24
3 175 176 177
3 179 178 25
3 26 180 181
3 26 182 184
3 182 11 183
3 182 183 184
3 185 27 186
3 187 186 8
3 185 186 187
3 188 27 189
3 190 12 191
3 192 191 27
3 190 191 192
3 193 13 194
3 195 28 196
3 197 196 13
3 195 196 197
3 198 28 199
3 201 200 28
3 202 3 203
3 17 204 205
3 29 206 208
3 208 207 17
3 206 207 208
3 29 209 211
3 209 3 210
3 209 210 211
3 29 23 3
3 30 23 29
3 30 212 214
3 214 213 23
3 212 213 214
3 31 215 216
3 31 217 219
3 217 2 218
3 217 218 219
3 220 0 221
3 32 222 223
3 32 224 226
3 224 1 225
3 224 225 226
3 33 227 228
3 33 229 230
3 19 231 233
3 231 33 232
3 231 232 233
3 34 33 19
3 34 234 236
3 236 235 33
3 234 235 236
3 34 237 238
3 35 239 241
3 241 240 34
3 239 240 241
3 35 242 243
3 244 6 245
3 36 246 247
3 36 248 250
3 248 6 249
3 248 249 250
3 36 35 6
3 37 35 36
3 37 251 253
3 253 252 35
3 251 252 253
3 37 254 255
3 38 256 258
3 258 257 37
3 256 257 258
3 38 259 260
3 20 261 263
3 261 38 262
3 261 262 263
3 39 38 20
3 39 264 266
3 266 265 38
3 264 265 266
3 39 267 268
3 40 269 271
3 271 270 39
3 269 270 271
3 40 272 273
3 40 274 276
3 274 41 275
3 274 275 276
3 42 41 40
3 42 8 41
3 277 42 278
3 279 278 7
3 277 278 279
3 280 42 281
3 282 8 283
3 284 283 42
3 282 283 284
3 286 285 8
3 22 287 288
3 290 289 22
3 43 291 292
3 43 293 294
3 296 295 3
3 44 297 298
3 44 299 301
3 299 9 300
3 299 300 301
3 25 44 10
3 302 44 303
3 304 303 25
3 302 303 304
3 305 9 306
3 307 306 44
3 305 306 307
3 308 43 309
3 310 309 9
3 308 309 310
3 311 43 312
3 314 313 43
3 315 32 316
3 317 32 318
3 319 1 320
3 321 320 32
3 319 320 321
3 322 1 323
3 324 18 325
3 326 325 1
3 324 325 326
3 327 18 328
3 329 4 330
3 331 330 18
3 329 330 331
3 332 4 333
3 334 30 335
3 336 335 4
3 334 335 336
3 337 30 338
3 340 339 30
3 45 341 342
3 45 343 344
3 45 345 346
3 46 347 349
3 349 348 45
3 347 348 349
3 46 350 352
3 350 0 351
3 350 351 352
3 41 353 354
3 47 355 357
3 357 356 41
3 355 356 357
3 47 358 360
3 358 5 359
3 358 359 360
3 27 47 8
3 48 47 27
3 48 5 47
3 48 31 5
3 49 31 48
3 49 2 31
3 361 12 362
3 50 363 364
3 50 365 367
3 365 12 366
3 365 366 367
3 50 49 12
3 51 49 50
3 51 2 49
3 51 26 2
3 368 26 369
3 370 369 51
3 368 369 370
3 371 11 372
3 373 372 26
3 371 372 373
3 28 374 376
3 376 375 13
3 374 375 376
3 378 377 28
3 379 11 380
3 381 46 382
3 383 382 11
3 381 382 383
3 52 384 386
3 384 46 385
3 384 385 386
3 52 0 46
3 52 15 0
3 387 15 388
3 389 388 52
3 387 388 389
3 391 390 15
