ply
format ascii 1.0
element vertex 230
property float x
property float y
property float z
element face 194
property list uchar int vertex_index
end_header
30.450136 -45.620106 3.771632
28.313868 -59.392132 12.52454
29.683142 -43.779404 -4.638562
27.859364 -58.27747 7.960356
30.064226 -44.973446 -0.532168
28.261429 -50.699558 -0.606791
28.655369 -60.430527 17.230122
30.581156 -46.507332 8.186147
29.237944 -53.664684 12.520768
29.035364 -52.621403 8.068676
28.746891 -51.545658 3.780754
31.60796 -37.355885 -4.930292
31.226494 -42.228409 1.576911
30.261072 -45.361206 1.60872
29.149281 -47.832176 -0.594887
29.373827 -48.233788 1.57425
28.835707 -57.267101 14.767632
29.31142 -54.090977 14.700191
28.730362 -56.546062 12.468076
28.344622 -55.617462 7.823912
28.218313 -54.871643 5.83185
28.916134 -52.018322 5.886649
27.98349 -54.450977 3.735199
27.736479 -53.918228 1.552442
31.876879 -37.905079 -2.869771
30.609795 -40.639442 -4.934379
30.182789 -40.336754 -7.057629
28.067129 -58.981613 10.159376
29.956615 -44.245342 -2.515646
28.981041 -47.177509 -2.681294
28.965548 -57.648907 17.173828
28.490421 -59.934696 14.78649
30.527617 -46.077114 5.87074
29.815514 -50.702152 12.511948
28.570705 -55.992332 10.138323
29.146685 -53.122272 10.211684
29.798143 -50.177437 10.245072
29.743553 -49.646545 7.915717
29.709173 -49.005531 5.876938
29.55352 -48.608948 3.650033
28.486759 -51.203629 1.529238
27.494003 -53.429256 -0.442847
30.355604 -45.490656 2.690176
30.792916 -44.031609 2.683067
30.887448 -44.161058 3.764523
27.780285 -56.037544 4.766123
27.904487 -56.352314 5.821685
27.662873 -55.827211 3.717798
28.100901 -54.66131 4.783525
27.780285 -56.037544 4.766123
27.521222 -55.496681 2.594629
27.662873 -55.827211 3.717798
30.146468 -42.209423 -4.786471
30.760258 -40.885255 -3.826068
30.296931 -42.455236 -3.67816
29.484547 -43.629244 -5.702172
29.947874 -42.059263 -5.85008
30.146468 -42.209423 -4.786471
29.041095 -45.074928 -5.632723
29.484547 -43.629244 -5.702172
30.579928 -43.325088 -0.572935
31.161061 -41.95257 0.481605
30.64536 -43.600927 0.522371
30.010421 -44.609394 -1.523907
30.526122 -42.961036 -1.564674
30.579928 -43.325088 -0.572935
28.153577 -50.417309 -1.627493
28.597503 -48.983617 -1.621541
28.705355 -49.265867 -0.600839
27.751693 -51.759124 -1.586039
28.153577 -50.417309 -1.627493
28.810458 -59.039717 17.201975
29.011792 -57.835235 18.38202
28.856703 -59.226045 18.410167
30.992022 -44.992339 8.22426
30.943424 -45.273668 9.27751
30.554386 -46.292223 7.028443
30.965253 -44.77723 7.066557
30.992022 -44.992339 8.22426
29.519495 -52.447754 13.635304
29.556233 -52.6609 14.725016
29.274682 -53.877831 13.61048
29.526729 -52.183418 12.516358
29.80828 -50.966488 13.630894
29.519495 -52.447754 13.635304
27.10804 -54.787759 -0.552129
27.615241 -53.673742 0.554798
27.229278 -55.032246 0.445515
26.99243 -54.446901 -1.501793
27.10804 -54.787759 -0.552129
32.221108 -35.988581 -3.915231
32.355567 -36.263178 -2.884971
31.742419 -37.630482 -3.900031
32.0446 -35.773184 -5.00695
32.221108 -35.988581 -3.915231
31.347856 -37.264168 -6.05149
32.0446 -35.773184 -5.00695
29.997972 -39.949676 -8.091385
29.541272 -41.604405 -7.976825
31.275627 -42.46521 2.667162
31.783842 -40.762829 2.691401
30.743783 -43.794808 1.592815
31.275627 -42.46521 2.667162
30.792916 -44.031609 2.683067
28.718972 -60.657011 18.468975
28.856703 -59.226045 18.410167
30.540458 -46.878969 9.240396
30.943424 -45.273668 9.27751
29.073563 -55.679039 14.733912
29.310029 -54.47818 15.809069
29.072173 -56.066242 15.842789
27.967642 -56.725223 6.817716
28.101993 -56.947466 7.892134
27.725013 -58.055228 6.885938
28.281467 -55.244552 6.827881
27.967642 -56.725223 6.817716
27.904487 -56.352314 5.821685
27.397717 -55.230306 1.503251
27.859984 -54.184602 2.643821
27.521222 -55.496681 2.594629
27.229278 -55.032246 0.445515
27.397717 -55.230306 1.503251
31.3938 -39.518074 -2.793764
32.012538 -38.109042 -1.691324
31.243337 -39.272261 -3.902075
31.3938 -39.518074 -2.793764
30.760258 -40.885255 -3.826068
29.734371 -41.907919 -6.911706
30.396292 -40.488098 -5.996004
29.947874 -42.059263 -5.85008
29.541272 -41.604405 -7.976825
29.734371 -41.907919 -6.911706
27.900359 -60.249327 10.217465
28.190499 -59.186872 11.341958
28.023728 -60.454586 11.400047
27.742227 -59.984547 9.001571
27.900359 -60.249327 10.217465
27.638345 -59.632475 7.902061
27.963247 -58.629542 9.059866
27.742227 -59.984547 9.001571
27.498689 -59.368282 6.887544
27.638345 -59.632475 7.902061
27.725013 -58.055228 6.885938
27.498689 -59.368282 6.887544
31.730171 -40.580244 1.575854
31.783842 -40.762829 2.691401
31.730171 -40.580244 1.575854
31.161061 -41.95257 0.481605
30.433668 -42.688205 -2.616702
30.526122 -42.961036 -1.564674
29.819879 -44.012373 -3.577104
30.296931 -42.455236 -3.67816
30.433668 -42.688205 -2.616702
29.33101 -45.541483 -3.554215
29.194273 -45.308514 -4.615673
29.819879 -44.012373 -3.577104
28.843223 -47.007566 -3.637039
29.33101 -45.541483 -3.554215
29.468828 -45.711426 -2.59847
28.374575 -48.467334 -3.627602
28.843223 -47.007566 -3.637039
28.513383 -48.656284 -2.664745
29.065161 -47.504842 -1.63809
28.597503 -48.983617 -1.621541
28.374575 -48.467334 -3.627602
28.513383 -48.656284 -2.664745
29.150349 -56.487556 18.192847
29.011792 -57.835235 18.38202
29.137093 -56.257145 17.045887
29.150349 -56.487556 18.192847
28.900627 -57.458004 15.97073
29.072173 -56.066242 15.842789
29.137093 -56.257145 17.045887
28.519894 -61.886473 17.317886
28.718972 -60.657011 18.468975
28.583497 -62.112957 18.556739
28.423439 -61.58468 16.036219
28.519894 -61.886473 17.317886
28.340965 -61.336765 14.814403
28.572895 -60.182612 16.008306
28.423439 -61.58468 16.036219
28.222912 -61.091493 13.623646
28.340965 -61.336765 14.814403
28.134636 -60.820211 12.492672
28.402144 -59.663414 13.655515
28.222912 -61.091493 13.623646
28.023728 -60.454586 11.400047
28.134636 -60.820211 12.492672
30.950715 -44.266705 4.92748
30.887448 -44.161058 3.764523
30.989455 -44.495209 5.977034
30.965253 -44.77723 7.066557
30.488876 -45.84861 4.821186
30.950715 -44.266705 4.92748
30.989455 -44.495209 5.977034
29.529047 -52.97365 15.841998
29.310029 -54.47818 15.809069
29.529047 -52.97365 15.841998
29.556233 -52.6609 14.725016
30.103922 -49.39307 13.59034
29.80828 -50.966488 13.630894
30.153494 -49.127229 12.496606
30.103922 -49.39307 13.59034
30.144808 -48.864872 11.363167
30.153494 -49.127229 12.496606
29.806829 -50.439794 11.37851
30.148951 -48.714022 10.269859
30.144808 -48.864872 11.363167
30.121657 -48.448576 9.105182
30.148951 -48.714022 10.269859
29.770848 -49.911991 9.080395
30.162354 -48.076938 8.050932
30.540458 -46.878969 9.240396
30.121657 -48.448576 9.105182
27.36798 -53.123974 -1.504067
27.751693 -51.759124 -1.586039
27.877716 -52.064407 -0.524819
27.36798 -53.123974 -1.504067
26.99243 -54.446901 -1.501793
32.475625 -36.493977 -1.786129
32.012538 -38.109042 -1.691324
32.475625 -36.493977 -1.786129
32.355567 -36.263178 -2.884971
30.63527 -38.754603 -7.115158
31.347856 -37.264168 -6.05149
30.895374 -38.846319 -5.993961
30.63527 -38.754603 -7.115158
29.997972 -39.949676 -8.091385
29.041095 -45.074928 -5.632723
29.194273 -45.308514 -4.615673
3 0 42 44
3 42 13 43
3 42 43 44
3 0 15 13
3 1 18 16
3 45 20 46
3 47 22 48
3 49 48 20
3 47 48 49
3 51 50 22
3 2 52 54
3 52 25 53
3 52 53 54
3 2 55 57
3 57 56 25
3 55 56 57
3 2 58 59
3 4 60 62
3 62 61 12
3 60 61 62
3 4 63 65
3 63 28 64
3 63 64 65
3 4 29 28
3 5 66 68
3 68 67 14
3 66 67 68
3 5 69 70
3 6 71 73
3 71 30 72
3 71 72 73
3 6 31 30
3 7 74 75
3 7 76 78
3 76 32 77
3 76 77 78
3 8 79 81
3 81 80 17
3 79 80 81
3 8 82 84
3 82 33 83
3 82 83 84
3 3 34 27
3 9 35 19
3 9 36 35
3 9 37 36
3 10 38 21
3 10 39 38
3 10 40 39
3 85 41 86
3 87 86 23
3 85 86 87
3 89 88 41
3 11 90 92
3 92 91 24
3 90 91 92
3 11 93 94
3 11 95 96
3 98 97 26
3 99 12 100
3 13 101 103
3 101 12 102
3 101 102 103
3 13 4 12
3 13 14 4
3 15 14 13
3 15 5 14
3 104 6 105
3 106 7 107
3 16 108 110
3 108 17 109
3 108 109 110
3 18 17 16
3 18 8 17
3 111 19 112
3 113 112 3
3 111 112 113
3 20 114 116
3 114 19 115
3 114 115 116
3 20 9 19
3 20 21 9
3 22 21 20
3 22 10 21
3 22 23 10
3 117 23 118
3 119 118 22
3 117 118 119
3 121 120 23
3 122 24 123
3 25 124 126
3 124 24 125
3 124 125 126
3 25 11 24
3 25 26 11
3 127 26 128
3 129 128 25
3 127 128 129
3 131 130 26
3 132 27 133
3 134 133 1
3 132 133 134
3 135 27 136
3 137 3 138
3 139 138 27
3 137 138 139
3 140 3 141
3 143 142 3
3 12 144 145
3 147 146 12
3 28 148 149
3 28 150 152
3 150 2 151
3 150 151 152
3 28 153 155
3 155 154 2
3 153 154 155
3 29 156 158
3 158 157 28
3 156 157 158
3 29 159 160
3 14 29 4
3 161 29 162
3 163 162 14
3 161 162 163
3 165 164 29
3 30 166 167
3 30 168 169
3 30 170 172
3 170 16 171
3 170 171 172
3 31 16 30
3 31 1 16
3 173 6 174
3 173 174 175
3 176 6 177
3 178 31 179
3 180 179 6
3 178 179 180
3 181 31 182
3 183 1 184
3 185 184 31
3 183 184 185
3 187 186 1
3 188 0 189
3 32 190 191
3 32 192 194
3 192 0 193
3 192 193 194
3 17 195 196
3 198 197 17
3 33 199 200
3 33 201 202
3 27 18 1
3 34 18 27
3 34 8 18
3 19 34 3
3 35 34 19
3 35 8 34
3 35 33 8
3 36 33 35
3 36 203 205
3 205 204 33
3 203 204 205
3 36 206 207
3 37 208 210
3 210 209 36
3 208 209 210
3 37 211 213
3 211 7 212
3 211 212 213
3 21 37 9
3 38 37 21
3 38 7 37
3 38 32 7
3 39 32 38
3 39 0 32
3 39 15 0
3 40 15 39
3 40 5 15
3 23 40 10
3 41 40 23
3 41 5 40
3 41 214 216
3 216 215 5
3 214 215 216
3 218 217 41
3 24 219 220
3 222 221 24
3 26 223 225
3 225 224 11
3 223 224 225
3 227 226 26
3 229 228 2
