ply
format ascii 1.0
element vertex 535
property float x
property float y
property float z
element face 573
property list uchar int vertex_index
end_header
-1.705941 -19.812298 63.275246
6.13366 10.670652 54.367931
10.124616 -4.246849 53.798054
-6.357863 2.839046 64.646378
1.014855 1.89239 59.770714
4.135614 -12.13059 59.07626
11.61523 -10.653358 52.686611
15.411247 4.006504 47.748859
8.3695 2.706044 54.154182
2.369556 -5.473902 59.869808
16.950853 -2.571486 47.445637
18.242695 -9.286576 46.274136
-6.578241 7.038543 64.027931
-9.672545 4.165447 66.46286
-3.294834 6.382066 61.975327
1.061275 -15.966891 61.372028
5.097715 -15.398157 58.124195
2.256576 -19.292833 60.107498
9.84403 11.034431 51.377651
11.004788 6.98488 51.178875
7.417706 6.46936 54.219276
-2.104294 -1.94912 62.497784
1.758745 -1.888355 59.817875
24.121769 -4.716884 40.773125
12.860421 -0.151283 50.881336
16.335743 0.84257 47.485794
13.646678 -3.237981 50.611561
14.950627 -9.988445 49.49762
3.750777 6.151599 57.051296
0.175642 6.075081 59.633076
-2.68223 2.22377 62.293983
7.123706 -8.213927 56.601154
10.890697 -7.344146 53.399223
7.846816 -11.386353 56.044418
8.684786 -14.698462 54.959774
14.366384 7.548608 48.029163
11.982138 3.259226 51.03326
9.367294 -0.768292 53.942329
4.618875 2.093827 57.139339
5.51197 -1.499527 57.049797
6.367429 -4.95191 56.877922
3.145173 -8.887344 59.680485
-0.083357 -12.666403 62.207878
20.350273 -1.620867 44.016579
14.402196 -6.554708 50.175835
17.735773 -5.781455 46.948166
20.982195 -5.099513 43.768402
-0.361705 -17.945011 62.363953
1.603354 -17.501514 60.849148
0.388691 -19.525158 61.652359
0.946215 -21.239485 60.971775
8.054029 10.842321 52.859711
8.620498 8.774754 52.822678
6.865528 8.596045 54.237732
25.344179 -2.804711 39.423771
11.413383 -2.111134 52.440365
13.334541 -1.646889 50.687092
11.938288 -3.600567 52.174644
-6.120203 0.700569 64.813156
-7.914943 1.114292 65.885323
1.457876 8.215829 58.290325
-0.256318 8.218159 59.498985
-4.748544 4.427287 63.324966
-3.012949 4.202665 62.192558
-4.584855 2.297548 63.570122
-4.266916 0.305844 63.652199
5.584577 -10.151983 57.909634
7.45627 -9.840132 56.390644
5.957028 -11.809107 57.619179
5.59165 -17.028368 57.469913
6.952125 -14.966324 56.533539
7.369805 -16.710365 55.852295
9.137611 -16.337784 54.179726
13.890604 9.507561 48.096378
9.762389 4.79783 52.638477
11.591844 5.123685 51.020962
10.204387 2.961864 52.609566
10.709494 1.228855 52.499306
8.915031 0.82031 54.048023
2.428572 4.132977 58.38736
4.377028 4.126841 56.966095
2.88646 2.08488 58.406651
2.014986 -3.763595 59.896053
3.636446 -1.664283 58.446594
4.025486 -3.443121 58.419937
5.963316 -3.162093 56.95343
4.416553 -5.213886 58.369045
4.734769 -6.914995 58.328064
2.852693 -7.068313 59.716164
16.638811 -0.926565 47.503597
18.663265 -2.049339 45.723667
11.155531 -9.037118 53.188721
12.734161 -6.961051 51.736774
12.96825 -8.621107 51.525822
16.734982 -9.57352 47.75272
16.370804 -7.967737 48.258156
17.984774 -7.521451 46.684151
19.308538 -5.454839 45.405373
19.58527 -7.2228 45.120049
21.115177 -7.048378 43.646324
-6.42817 5.060481 64.313141
-7.94772 3.430344 65.552719
-8.048292 5.588931 65.237656
-9.54677 6.383845 65.984489
-2.055151 8.350881 60.719402
-4.948528 6.677112 63.031452
2.665261 -13.984228 60.199608
4.486352 -13.800805 58.756012
3.066815 -15.671737 59.801292
3.606582 -17.300421 59.195953
4.235347 -18.813049 58.412254
2.955258 -20.854485 59.219044
12.212879 9.286004 49.681377
10.497473 9.091067 51.212978
9.246928 6.829669 52.685032
7.977189 4.640095 54.11639
-0.522384 -0.100053 61.152451
1.442986 0.059547 59.754055
-0.147586 -1.904294 61.150993
-0.001338 -3.784585 61.301163
0.402819 -5.581734 61.250282
14.220551 1.932722 49.278587
14.656358 0.412232 49.152447
15.097411 -1.145405 48.996284
15.260917 -2.888072 49.083221
11.820767 -12.459173 52.271614
13.244447 -10.302265 51.152344
13.559484 -11.997168 50.601757
15.318024 -11.698295 48.853817
-9.695211 1.864053 66.84269
4.320924 10.540874 55.734314
5.05117 8.449192 55.637547
3.286236 8.337515 56.953312
1.906838 6.149865 58.388405
0.549561 3.981029 59.753132
-1.555814 6.218708 60.814003
-1.232384 4.102648 60.981361
-0.865054 1.910796 61.085514
-2.49681 -0.009341 62.499058
8.568425 -6.207008 55.28236
10.462182 -5.732622 53.662075
9.06043 -7.812957 54.989262
9.346004 -9.491169 54.787807
9.662457 -11.125377 54.458328
6.39167 -13.362322 57.187271
8.259077 -13.003939 55.575012
10.088446 -12.649834 53.923477
10.407265 -14.369671 53.33453
-2.419301 -18.0837 63.872707
14.888692 5.695516 47.903931
12.705714 7.218869 49.630825
13.169128 5.373999 49.566891
13.750614 3.710717 49.365673
12.474393 1.621573 50.909618
11.176085 -0.37392 52.3792
9.764546 -2.429164 53.866596
5.608573 6.408314 55.62077
6.115299 4.290843 55.629211
6.55992 2.323413 55.636925
3.198408 0.034002 58.506634
5.066117 0.233964 57.111488
7.051937 0.558679 55.558289
7.398347 -1.140699 55.564396
7.856734 -2.826051 55.450848
8.344755 -4.411748 55.271309
6.794105 -6.559666 56.727772
5.228418 -8.448533 58.097996
3.672295 -10.469137 59.394451
1.150546 -9.028178 61.110817
1.599317 -10.81458 60.928825
2.100901 -12.398242 60.627701
0.618883 -14.280984 61.738094
12.221488 -5.373197 52.101547
13.946991 -4.888692 50.50531
15.66044 -4.516881 48.877644
14.735226 -8.217075 49.848652
16.107288 -6.207187 48.541145
17.273109 -4.182552 47.311039
18.978844 -3.624066 45.609512
20.54752 -3.412352 44.064255
22.123407 -3.138497 42.514027
22.52187 -4.988805 42.289982
-2.418188 -20.826342 63.743568
-1.389358 -20.626759 62.95879
-1.389358 -20.626759 62.95879
-0.342041 -20.483189 62.147346
-0.658625 -19.668728 62.463802
6.720041 11.8227 53.677548
5.823679 11.749028 54.363594
7.093844 10.756487 53.613821
7.680226 11.908535 52.923437
6.720041 11.8227 53.677548
-0.553789 9.307865 59.465711
0.284374 9.31061 58.879242
6.6932 -17.692252 56.299818
6.480728 -16.869366 56.661104
5.804122 -17.851253 57.108627
7.583903 -17.535856 55.439478
6.6932 -17.692252 56.299818
13.636214 10.507201 48.13846
14.480629 10.641292 47.304358
16.273291 4.277248 46.848286
15.977406 5.046506 46.979897
17.588498 -1.548203 46.674183
17.432477 -0.725742 46.703163
16.794832 -1.749026 47.474617
17.807059 -2.310412 46.584652
18.444704 -1.287129 45.813198
17.588498 -1.548203 46.674183
19.010232 -9.191245 45.529229
19.68152 -8.159357 44.952185
18.913983 -8.254688 45.697092
-9.414473 7.567574 65.661884
-8.773557 7.092153 65.376575
-10.241307 6.926628 66.269981
-9.414473 7.567574 65.661884
-5.763384 6.857827 63.529691
-5.109091 7.720249 62.922159
-5.923948 7.900964 63.420398
0.58221 -22.943512 60.99321
1.263985 -22.023096 60.540917
0.26444 -22.159901 61.424069
10.170751 10.062749 51.295315
11.052881 10.172399 50.522228
10.72616 11.144081 50.604564
-0.829856 -4.814966 61.989615
-0.967145 -3.828005 61.964506
-0.627777 -5.713541 61.964174
0.20074 -4.68316 61.275723
-0.829856 -4.814966 61.989615
-0.370399 -6.562701 61.886528
-0.627777 -5.713541 61.964174
10.366912 12.144035 50.710608
9.443676 12.088151 51.48513
10.72616 11.144081 50.604564
10.366912 12.144035 50.710608
24.871915 -4.680883 40.07907
25.48312 -3.724797 39.404393
24.732974 -3.760798 40.098448
24.242238 -5.673324 40.702408
24.871915 -4.680883 40.07907
12.863357 -13.012454 51.107764
12.690126 -12.228171 51.436685
11.993999 -13.243457 51.942692
15.382554 -12.55008 48.590946
14.550898 -12.706267 49.425226
16.079244 -11.586433 48.094122
15.382554 -12.55008 48.590946
2.909584 9.394196 56.996645
3.80358 9.439194 56.343813
3.426927 10.495876 56.387146
-4.187292 -0.718921 63.736126
-5.172665 -0.587131 64.364323
3.426927 10.495876 56.387146
4.046129 11.632361 55.688392
10.020821 -16.172497 53.304092
9.276025 -17.196998 53.791176
-3.520876 -18.252612 64.626836
-2.759002 -17.272373 64.117097
15.225133 7.73009 47.158712
14.976888 8.651623 47.218854
14.627538 6.622062 47.966547
15.486287 6.803544 47.096096
15.225133 7.73009 47.158712
0.092663 -9.177369 61.846466
0.967063 -8.218758 61.156442
0.75798 -11.740492 61.568352
0.583457 -10.875405 61.639856
-0.25788 -11.801317 62.279382
-2.759002 -17.272373 64.117097
-1.67804 -17.154294 63.361988
16.963487 1.899449 46.659407
16.15411 1.665396 47.501198
20.914649 -0.622795 43.274916
20.118316 -0.767709 44.089323
21.136298 -1.437043 43.220253
20.914649 -0.622795 43.274916
21.940343 -6.890373 42.871453
21.270895 -7.877153 43.448813
-7.289292 7.419501 64.398296
-6.614838 8.100301 63.830555
-6.614838 8.100301 63.830555
-5.923948 7.900964 63.420398
-0.063279 -21.340352 61.807054
0.667453 -20.382321 61.312067
-0.342041 -20.483189 62.147346
0.26444 -22.159901 61.424069
-0.063279 -21.340352 61.807054
-2.018623 -2.910273 62.562817
-2.989234 -2.812455 63.199595
8.548675 11.992096 52.22616
7.680226 11.908535 52.923437
8.949029 10.938376 52.118681
9.443676 12.088151 51.48513
8.548675 11.992096 52.22616
25.151604 -1.845416 39.43231
25.921355 -1.890271 38.713513
24.55865 -2.83865 40.16684
25.151604 -1.845416 39.43231
23.947445 -3.794737 40.841516
24.732974 -3.760798 40.098448
24.55865 -2.83865 40.16684
-7.031861 -0.250684 65.513558
-6.099309 -0.389768 64.944802
-7.929231 -0.043822 66.049641
-7.031861 -0.250684 65.513558
-7.017573 0.907431 65.34924
-8.81563 0.297242 66.536011
-7.929231 -0.043822 66.049641
-10.567069 3.442947 67.082855
-10.504983 4.620157 66.851032
1.141471 9.309445 58.274912
1.995404 9.333353 57.665152
0.600779 8.216994 58.894655
1.141471 9.309445 58.274912
0.284374 9.31061 58.879242
-6.099309 -0.389768 64.944802
-5.172665 -0.587131 64.364323
-5.19356 0.503207 64.232678
8.467807 -17.349565 54.603194
8.253708 -16.524074 55.016011
7.583903 -17.535856 55.439478
9.276025 -17.196998 53.791176
8.467807 -17.349565 54.603194
14.738998 9.631099 47.252462
14.480629 10.641292 47.304358
14.128494 8.528085 48.06277
14.976888 8.651623 47.218854
14.738998 9.631099 47.252462
-1.088455 -12.792556 62.897417
-0.25788 -11.801317 62.279382
-0.760414 -13.620645 62.705928
-1.088455 -12.792556 62.897417
17.240732 0.094763 46.735632
17.089198 0.97933 46.726731
16.487277 -0.041997 47.494695
17.240732 0.094763 46.735632
17.432477 -0.725742 46.703163
19.274811 -0.981944 44.942867
18.444704 -1.287129 45.813198
19.506769 -1.835103 44.870123
20.118316 -0.767709 44.089323
19.274811 -0.981944 44.942867
20.446473 -8.072146 44.215322
20.350223 -7.135589 44.383187
19.68152 -8.159357 44.952185
21.270895 -7.877153 43.448813
20.446473 -8.072146 44.215322
-8.024318 6.694695 65.003158
-7.313267 6.313737 64.632793
-7.289292 7.419501 64.398296
-8.797531 5.986388 65.611073
-8.024318 6.694695 65.003158
-8.773557 7.092153 65.376575
-10.442095 5.729356 66.611846
-10.504983 4.620157 66.851032
-9.609658 5.274646 66.223675
-10.442095 5.729356 66.611846
-10.241307 6.926628 66.269981
-2.318846 9.39313 60.670719
-1.453205 9.374225 60.07592
-2.88862 8.4677 61.264804
-2.318846 9.39313 60.670719
-3.508462 7.483293 61.892767
-2.674993 7.366473 61.347364
-2.88862 8.4677 61.264804
-4.335309 7.630816 62.420829
-5.109091 7.720249 62.922159
-4.121681 6.529589 62.503389
-3.508462 7.483293 61.892767
-4.335309 7.630816 62.420829
5.125971 -18.743594 57.579797
5.804122 -17.851253 57.108627
4.913498 -17.920708 57.941083
4.487576 -19.682094 57.984607
5.125971 -18.743594 57.579797
3.847532 -20.702812 58.388002
4.487576 -19.682094 57.984607
3.595302 -19.833767 58.815649
3.239541 -21.635158 58.759035
3.847532 -20.702812 58.388002
2.268506 -21.830596 59.664551
1.950737 -21.046985 60.09541
1.263985 -22.023096 60.540917
3.239541 -21.635158 58.759035
2.268506 -21.830596 59.664551
11.910584 10.269868 49.756428
12.797351 10.396422 48.93096
11.355176 9.188536 50.447177
11.910584 10.269868 49.756428
11.052881 10.172399 50.522228
-1.040269 -2.88786 61.889421
-1.12594 -1.926707 61.824388
-2.018623 -2.910273 62.562817
-0.074462 -2.84444 61.226078
-1.040269 -2.88786 61.889421
-0.967145 -3.828005 61.964506
0.593199 -6.495535 61.226175
1.576568 -6.441619 60.535938
1.386188 -5.527818 60.560045
0.593199 -6.495535 61.226175
-0.370399 -6.562701 61.886528
26.091718 -2.788656 38.725779
25.921355 -1.890271 38.713513
26.091718 -2.788656 38.725779
25.48312 -3.724797 39.404393
15.096514 2.210472 48.397594
15.691862 3.247363 47.632731
14.815899 2.969613 48.513723
15.314418 1.450228 48.334525
15.096514 2.210472 48.397594
14.438455 1.172477 49.215517
15.496051 0.627401 48.31912
16.15411 1.665396 47.501198
15.314418 1.450228 48.334525
13.671628 -12.855704 50.299196
12.863357 -13.012454 51.107764
14.438754 -11.847732 49.727787
13.671628 -12.855704 50.299196
14.550898 -12.706267 49.425226
16.787723 -10.524045 47.543573
16.026503 -10.635908 48.303269
16.079244 -11.586433 48.094122
17.54158 -10.380573 46.804282
17.488838 -9.430048 47.013428
16.787723 -10.524045 47.543573
18.305502 -10.188189 46.071434
17.54158 -10.380573 46.804282
-9.705763 0.672122 67.014695
-8.81563 0.297242 66.536011
-8.805077 1.489173 66.364007
-10.578402 2.29225 67.27277
-9.683878 3.01475 66.652775
-10.567069 3.442947 67.082855
-10.612563 1.016686 67.477608
-10.578402 2.29225 67.27277
-9.705763 0.672122 67.014695
-10.612563 1.016686 67.477608
2.372056 8.276672 57.621819
2.909584 9.394196 56.996645
1.995404 9.333353 57.665152
-1.155734 8.28452 60.109194
-0.553789 9.307865 59.465711
-1.453205 9.374225 60.07592
-3.302239 -0.876514 63.159555
-3.381863 0.148252 63.075629
-4.187292 -0.718921 63.736126
-3.105981 -1.846404 63.158918
-2.300552 -0.979231 62.498421
-3.302239 -0.876514 63.159555
-2.989234 -2.812455 63.199595
-3.105981 -1.846404 63.158918
4.917311 11.684139 55.046785
4.046129 11.632361 55.688392
5.227292 10.605763 55.051122
5.823679 11.749028 54.363594
4.917311 11.684139 55.046785
11.287248 -14.198705 52.47415
11.993999 -13.243457 51.942692
11.114016 -13.414422 52.803072
10.655648 -15.188441 52.881495
9.772438 -15.353727 53.757128
10.020821 -16.172497 53.304092
11.287248 -14.198705 52.47415
10.655648 -15.188441 52.881495
-3.116762 -19.04904 64.336268
-2.760082 -19.913339 64.037537
-2.062621 -18.947999 63.573977
-3.116762 -19.04904 64.336268
-3.520876 -18.252612 64.626836
15.716129 5.891011 47.057433
15.486287 6.803544 47.096096
15.14997 4.85101 47.826395
15.977406 5.046506 46.979897
15.716129 5.891011 47.057433
13.051741 9.396783 48.888877
13.636214 10.507201 48.13846
12.797351 10.396422 48.93096
1.818137 -7.238825 60.459116
2.611124 -6.271107 59.792986
1.576568 -6.441619 60.535938
2.001619 -8.048246 60.41349
1.818137 -7.238825 60.459116
0.967063 -8.218758 61.156442
0.359072 -9.982204 61.730852
0.092663 -9.177369 61.846466
1.374932 -9.921379 61.019821
0.359072 -9.982204 61.730852
0.583457 -10.875405 61.639856
-0.409295 -14.427935 62.471036
0.267763 -13.473693 61.972986
-0.760414 -13.620645 62.705928
-0.158948 -15.252936 62.294681
-0.409295 -14.427935 62.471036
0.062248 -16.095889 62.111649
0.840079 -15.123938 61.555061
-0.158948 -15.252936 62.294681
-0.649242 -17.08495 62.607611
0.349785 -16.955951 61.867991
0.062248 -16.095889 62.111649
-1.390503 -18.014356 63.11833
-0.649242 -17.08495 62.607611
-1.67804 -17.154294 63.361988
-2.418188 -20.826342 63.743568
-2.760082 -19.913339 64.037537
16.273291 4.277248 46.848286
15.691862 3.247363 47.632731
16.963487 1.899449 46.659407
17.089198 0.97933 46.726731
21.234921 -2.332785 43.244091
21.136298 -1.437043 43.220253
20.448897 -2.516609 44.040417
22.022865 -2.195857 42.468977
21.234921 -2.332785 43.244091
21.335463 -3.275424 43.289141
22.772635 -2.162004 41.740076
22.022865 -2.195857 42.468977
22.948264 -3.005543 41.711968
22.772635 -2.162004 41.740076
23.147495 -3.930697 41.599945
22.948264 -3.005543 41.711968
22.322639 -4.063651 42.402005
23.32182 -4.852844 41.531554
23.947445 -3.794737 40.841516
23.147495 -3.930697 41.599945
22.64369 -5.860587 42.193281
21.818523 -6.018591 42.968153
21.940343 -6.890373 42.871453
23.443639 -5.724626 41.434853
23.32182 -4.852844 41.531554
22.64369 -5.860587 42.193281
24.242238 -5.673324 40.702408
23.443639 -5.724626 41.434853
19.010232 -9.191245 45.529229
18.305502 -10.188189 46.071434
3 0 182 183
3 0 49 47
3 0 184 186
3 186 185 49
3 184 185 186
3 1 53 51
3 1 187 188
3 1 189 191
3 189 51 190
3 189 190 191
3 2 57 55
3 3 59 58
3 192 61 193
3 3 64 62
3 3 58 64
3 5 68 66
3 194 71 195
3 196 195 69
3 194 195 196
3 198 197 71
3 199 73 200
3 8 76 74
3 8 78 76
3 4 81 79
3 9 84 82
3 9 86 84
3 9 88 86
3 7 201 202
3 10 203 205
3 205 204 89
3 203 204 205
3 10 206 208
3 206 90 207
3 206 207 208
3 6 93 91
3 11 96 94
3 11 98 96
3 11 209 211
3 211 210 98
3 209 210 211
3 12 102 100
3 212 103 213
3 215 214 103
3 12 216 218
3 216 105 217
3 216 217 218
3 12 100 105
3 15 108 106
3 17 109 48
3 17 110 109
3 17 111 110
3 221 220 50
3 219 220 221
3 18 222 224
3 222 113 223
3 222 223 224
3 20 114 52
3 20 115 114
3 21 118 116
3 225 119 226
3 227 120 228
3 229 228 119
3 227 228 229
3 231 230 120
3 18 232 233
3 18 234 235
3 23 236 238
3 238 237 54
3 236 237 238
3 23 239 240
3 24 122 121
3 26 123 56
3 26 124 123
3 241 127 242
3 243 242 125
3 241 242 243
3 244 128 245
3 247 246 128
3 13 129 101
3 248 132 249
3 250 249 130
3 248 249 250
3 29 133 60
3 29 134 133
3 14 135 104
3 30 136 63
3 30 137 136
3 30 138 137
3 252 251 65
3 253 130 254
3 31 141 139
3 33 142 67
3 33 143 142
3 16 144 107
3 34 145 70
3 34 146 145
3 34 147 146
3 256 255 72
3 258 257 148
3 35 259 260
3 35 261 263
3 261 149 262
3 261 262 263
3 19 150 112
3 36 151 75
3 36 152 151
3 36 153 152
3 37 154 77
3 37 155 154
3 28 156 131
3 38 157 80
3 38 158 157
3 22 159 117
3 39 160 83
3 39 161 160
3 39 162 161
3 40 163 85
3 40 164 163
3 40 165 164
3 41 166 87
3 41 167 166
3 264 168 265
3 42 266 268
3 266 169 267
3 266 267 268
3 42 170 169
3 42 171 170
3 269 148 270
3 25 271 272
3 43 273 274
3 43 275 276
3 32 172 140
3 44 173 92
3 44 174 173
3 27 175 126
3 45 176 95
3 45 177 176
3 45 178 177
3 46 179 97
3 46 180 179
3 46 181 180
3 278 277 99
3 280 279 12
3 281 12 282
3 47 48 15
3 49 48 47
3 49 17 48
3 49 50 17
3 283 50 284
3 285 284 49
3 283 284 285
3 287 286 50
3 51 52 18
3 53 52 51
3 53 20 52
3 289 288 21
3 51 290 291
3 51 292 294
3 292 18 293
3 292 293 294
3 295 54 296
3 297 54 298
3 299 23 300
3 301 300 54
3 299 300 301
3 55 56 24
3 57 56 55
3 57 26 56
3 58 302 303
3 59 304 306
3 306 305 58
3 304 305 306
3 59 307 308
3 310 309 13
3 311 60 312
3 61 313 315
3 313 60 314
3 313 314 315
3 61 29 60
3 62 63 14
3 64 63 62
3 64 30 63
3 64 65 30
3 58 65 64
3 58 316 318
3 318 317 65
3 316 317 318
3 66 67 31
3 68 67 66
3 68 33 67
3 69 70 16
3 71 70 69
3 71 34 70
3 71 72 34
3 319 72 320
3 321 320 71
3 319 320 321
3 323 322 72
3 73 324 325
3 73 326 328
3 326 35 327
3 326 327 328
3 74 75 19
3 76 75 74
3 76 36 75
3 76 77 36
3 78 77 76
3 78 37 77
3 79 80 28
3 81 80 79
3 81 38 80
3 82 83 22
3 84 83 82
3 84 39 83
3 84 85 39
3 86 85 84
3 86 40 85
3 86 87 40
3 88 87 86
3 88 41 87
3 329 42 330
3 332 331 42
3 89 333 335
3 335 334 25
3 333 334 335
3 337 336 89
3 90 338 339
3 90 340 342
3 340 43 341
3 340 341 342
3 91 92 32
3 93 92 91
3 93 44 92
3 94 95 27
3 96 95 94
3 96 45 95
3 96 97 45
3 98 97 96
3 98 46 97
3 98 99 46
3 343 99 344
3 345 344 98
3 343 344 345
3 347 346 99
3 100 101 3
3 102 101 100
3 102 13 101
3 348 102 349
3 350 349 12
3 348 349 350
3 103 351 353
3 351 102 352
3 351 352 353
3 103 13 102
3 103 354 356
3 356 355 13
3 354 355 356
3 358 357 103
3 359 104 360
3 361 104 362
3 363 14 364
3 365 364 104
3 363 364 365
3 105 366 367
3 105 368 370
3 368 14 369
3 368 369 370
3 105 62 14
3 100 62 105
3 100 3 62
3 106 107 5
3 108 107 106
3 108 16 107
3 48 108 15
3 109 108 48
3 109 16 108
3 109 69 16
3 110 69 109
3 110 371 373
3 373 372 69
3 371 372 373
3 110 374 375
3 111 376 378
3 378 377 110
3 376 377 378
3 111 379 380
3 50 111 17
3 381 111 382
3 383 382 50
3 381 382 383
3 385 384 111
3 386 112 387
3 113 388 390
3 388 112 389
3 388 389 390
3 113 19 112
3 52 113 18
3 114 113 52
3 114 19 113
3 114 74 19
3 115 74 114
3 115 8 74
3 116 117 4
3 118 117 116
3 118 22 117
3 391 118 392
3 393 392 21
3 391 392 393
3 119 394 396
3 394 118 395
3 394 395 396
3 119 22 118
3 119 82 22
3 120 82 119
3 120 9 82
3 120 397 399
3 399 398 9
3 397 398 399
3 401 400 120
3 54 402 403
3 405 404 54
3 121 406 408
3 408 407 7
3 406 407 408
3 122 409 411
3 411 410 121
3 409 410 411
3 122 412 414
3 412 25 413
3 412 413 414
3 56 122 24
3 123 122 56
3 123 25 122
3 123 89 25
3 124 89 123
3 124 10 89
3 125 126 6
3 127 126 125
3 127 27 126
3 415 127 416
3 128 417 419
3 417 127 418
3 417 418 419
3 128 27 127
3 128 94 27
3 420 94 421
3 422 421 128
3 420 421 422
3 423 11 424
3 425 424 94
3 423 424 425
3 427 426 11
3 101 59 3
3 129 59 101
3 129 428 430
3 430 429 59
3 428 429 430
3 431 129 432
3 433 432 13
3 431 432 433
3 434 129 435
3 437 436 129
3 130 131 1
3 132 131 130
3 132 28 131
3 60 438 440
3 438 132 439
3 438 439 440
3 133 132 60
3 133 28 132
3 133 79 28
3 134 79 133
3 134 4 79
3 104 441 443
3 441 61 442
3 441 442 443
3 135 61 104
3 135 29 61
3 63 135 14
3 136 135 63
3 136 29 135
3 136 134 29
3 137 134 136
3 137 4 134
3 137 116 4
3 138 116 137
3 138 21 116
3 65 138 30
3 444 138 445
3 446 445 65
3 444 445 446
3 447 21 448
3 449 448 138
3 447 448 449
3 451 450 21
3 130 452 453
3 130 454 456
3 454 1 455
3 454 455 456
3 139 140 2
3 141 140 139
3 141 32 140
3 67 141 31
3 142 141 67
3 142 32 141
3 142 91 32
3 143 91 142
3 143 6 91
3 107 68 5
3 144 68 107
3 144 33 68
3 70 144 16
3 145 144 70
3 145 33 144
3 145 143 33
3 146 143 145
3 146 6 143
3 146 125 6
3 147 125 146
3 147 457 459
3 459 458 125
3 457 458 459
3 72 147 34
3 460 147 461
3 462 461 72
3 460 461 462
3 464 463 147
3 148 465 467
3 467 466 0
3 465 466 467
3 469 468 148
3 149 470 471
3 149 472 474
3 472 7 473
3 472 473 474
3 112 475 477
3 475 73 476
3 475 476 477
3 150 73 112
3 150 35 73
3 75 150 19
3 151 150 75
3 151 35 150
3 151 149 35
3 152 149 151
3 152 7 149
3 152 121 7
3 153 121 152
3 153 24 121
3 77 153 36
3 154 153 77
3 154 24 153
3 154 55 24
3 155 55 154
3 155 2 55
3 131 53 1
3 156 53 131
3 156 20 53
3 80 156 28
3 157 156 80
3 157 20 156
3 157 115 20
3 158 115 157
3 158 8 115
3 117 81 4
3 159 81 117
3 159 38 81
3 83 159 22
3 160 159 83
3 160 38 159
3 160 158 38
3 161 158 160
3 161 8 158
3 161 78 8
3 162 78 161
3 162 37 78
3 85 162 39
3 163 162 85
3 163 37 162
3 163 155 37
3 164 155 163
3 164 2 155
3 164 139 2
3 165 139 164
3 165 31 139
3 87 165 40
3 166 165 87
3 166 31 165
3 166 66 31
3 167 66 166
3 167 5 66
3 478 88 479
3 480 479 9
3 478 479 480
3 168 481 483
3 481 88 482
3 481 482 483
3 168 41 88
3 484 168 485
3 169 486 488
3 486 168 487
3 486 487 488
3 169 41 168
3 169 167 41
3 170 167 169
3 170 5 167
3 170 106 5
3 171 106 170
3 171 15 106
3 489 171 490
3 491 490 42
3 489 490 491
3 492 171 493
3 494 15 495
3 496 495 171
3 494 495 496
3 497 47 498
3 499 498 15
3 497 498 499
3 148 500 502
3 500 47 501
3 500 501 502
3 148 0 47
3 504 503 0
3 506 505 7
3 508 507 25
3 140 57 2
3 172 57 140
3 172 26 57
3 92 172 32
3 173 172 92
3 173 26 172
3 173 124 26
3 174 124 173
3 174 10 124
3 126 93 6
3 175 93 126
3 175 44 93
3 95 175 27
3 176 175 95
3 176 44 175
3 176 174 44
3 177 174 176
3 177 10 174
3 177 90 10
3 178 90 177
3 178 43 90
3 97 178 45
3 179 178 97
3 179 43 178
3 179 509 511
3 511 510 43
3 509 510 511
3 180 512 514
3 514 513 179
3 512 513 514
3 180 515 516
3 180 517 518
3 181 519 521
3 521 520 180
3 519 520 521
3 181 522 524
3 522 23 523
3 522 523 524
3 99 181 46
3 525 181 526
3 527 526 99
3 525 526 527
3 528 23 529
3 530 529 181
3 528 529 530
3 532 531 23
3 534 533 11
