ply
format ascii 1.0
element vertex 179
property float x
property float y
property float z
element face 133
property list uchar int vertex_index
end_header
-13.432471 -45.992207 65.507103
-4.382477 -38.868664 61.691479
-7.89417 -40.183041 64.422195
-9.449151 -44.742683 63.644085
-11.871738 -41.317928 66.752586
-17.258671 -47.109512 66.410759
-9.873321 -40.797375 65.675644
-1.84832 -36.283009 59.83688
-11.420848 -45.553543 64.587418
-10.344497 -47.215347 62.955627
-14.123136 -48.387444 64.517075
-3.542194 -36.701923 61.572258
-5.406166 -37.219425 63.253307
-6.130689 -39.525753 63.144573
-6.776833 -41.902817 62.78067
-8.659934 -42.309982 64.178307
-10.589578 -43.153126 65.20182
-12.508286 -43.611069 66.166199
-1.940645 -32.44981 61.173996
-3.726024 -32.906883 62.856895
-14.521351 -44.109776 66.939377
-16.08765 -49.166862 64.87265
-2.27992 -35.440559 60.5982
-1.488193 -35.213072 59.786621
-12.804959 -46.965353 64.619292
-11.799148 -46.746021 64.159449
-12.426659 -45.772875 65.04726
-13.777804 -47.189825 65.012089
-13.150292 -48.162971 64.124278
-12.804959 -46.965353 64.619292
-5.910618 -36.398428 63.93379
-4.935176 -36.128697 63.127312
-7.012429 -39.854397 63.783384
-6.656897 -38.712845 63.876253
-7.538638 -39.041489 64.515064
-1.507055 -31.424822 61.009974
-1.084643 -32.229789 60.287615
-4.15925 -32.019436 63.461963
-3.255124 -31.820091 62.674398
-4.639273 -33.105459 63.642643
-4.15925 -32.019436 63.461963
-3.511552 -38.560009 60.859938
-3.091411 -37.476638 60.800327
-3.962336 -37.785294 61.631868
-8.930751 -45.545033 62.807344
-8.495289 -44.418827 63.038072
-10.099632 -49.160118 61.556598
-9.745327 -47.950005 62.056781
-10.698802 -48.42546 62.455444
-15.130764 -43.147387 67.590439
-14.166667 -42.905066 67.284317
-16.877668 -45.86141 66.92981
-17.832462 -46.108208 67.04731
-16.312338 -46.865603 66.230419
-16.877668 -45.86141 66.92981
-16.673161 -48.138187 65.641705
-15.726827 -47.894278 65.461365
-16.312338 -46.865603 66.230419
-8.463441 -39.304586 65.151004
-7.538638 -39.041489 64.515064
-9.453017 -39.611754 65.777729
-8.883745 -40.490208 65.04892
-8.463441 -39.304586 65.151004
-10.430009 -39.887532 66.349762
-9.453017 -39.611754 65.777729
-11.429218 -40.147808 66.888233
-10.87253 -41.057652 66.214115
-10.430009 -39.887532 66.349762
-1.08258 -35.998972 59.002808
-1.488193 -35.213072 59.786621
-1.413466 -37.030586 59.018979
-1.08258 -35.998972 59.002808
-3.901073 -39.663494 60.85661
-4.716288 -40.003229 61.580305
-11.260973 -47.576923 63.343553
-10.882672 -46.384445 63.771523
-11.799148 -46.746021 64.159449
-10.698802 -48.42546 62.455444
-11.260973 -47.576923 63.343553
-13.507791 -49.315911 63.614184
-13.150292 -48.162971 64.124278
-14.432167 -49.661223 63.86028
-13.507791 -49.315911 63.614184
-18.225227 -47.354343 66.459511
-17.832462 -46.108208 67.04731
-18.799019 -46.353038 67.096062
-17.567312 -48.335386 65.779613
-18.225227 -47.354343 66.459511
-4.00319 -35.869946 62.286787
-3.126857 -35.650016 61.465889
-4.47418 -36.960674 62.412782
-4.00319 -35.869946 62.286787
-4.935176 -36.128697 63.127312
-6.294636 -37.559681 63.93062
-5.910618 -36.398428 63.93379
-5.768427 -38.372589 63.19894
-6.294636 -37.559681 63.93062
-6.656897 -38.712845 63.876253
-5.590395 -40.331773 62.306852
-4.716288 -40.003229 61.580305
-5.256583 -39.197209 62.418026
-5.913467 -41.520305 62.1249
-5.590395 -40.331773 62.306852
-6.453761 -40.714285 62.962621
-6.243053 -42.670708 61.922643
-5.913467 -41.520305 62.1249
-7.15913 -42.998894 62.606365
-6.243053 -42.670708 61.922643
-8.10068 -43.202477 63.305183
-7.15913 -42.998894 62.606365
-7.718383 -42.106399 63.479489
-9.054543 -43.526332 63.911196
-8.495289 -44.418827 63.038072
-8.10068 -43.202477 63.305183
-1.534356 -33.296473 60.455179
-1.084643 -32.229789 60.287615
-2.326083 -33.52396 61.266758
-1.534356 -33.296473 60.455179
-2.362435 -31.591555 61.832949
-1.507055 -31.424822 61.009974
-2.833334 -32.678347 62.015445
-2.362435 -31.591555 61.832949
-3.255124 -31.820091 62.674398
-3.218772 -33.752496 62.108208
-2.326083 -33.52396 61.266758
-2.833334 -32.678347 62.015445
-4.095105 -33.972425 62.929106
-3.218772 -33.752496 62.108208
-4.095105 -33.972425 62.929106
-4.639273 -33.105459 63.642643
-2.695257 -36.492466 60.704569
-2.27992 -35.440559 60.5982
-3.126857 -35.650016 61.465889
-2.244474 -37.267181 59.932638
-2.695257 -36.492466 60.704569
-3.091411 -37.476638 60.800327
-1.413466 -37.030586 59.018979
-2.244474 -37.267181 59.932638
-3.511552 -38.560009 60.859938
-3.901073 -39.663494 60.85661
-9.378424 -46.781365 62.463116
-8.930751 -45.545033 62.807344
-9.896824 -45.979015 63.299856
-9.378424 -46.781365 62.463116
-9.745327 -47.950005 62.056781
-12.420403 -40.302938 67.400707
-11.429218 -40.147808 66.888233
-12.841861 -41.509142 67.190922
-12.420403 -40.302938 67.400707
-13.160135 -42.655712 66.897728
-12.190012 -42.464499 66.459393
-12.841861 -41.509142 67.190922
-13.514819 -43.860422 66.552788
-13.160135 -42.655712 66.897728
-14.166667 -42.905066 67.284317
-15.509009 -44.361542 67.194119
-15.130764 -43.147387 67.590439
-14.943678 -45.365735 66.494728
-15.509009 -44.361542 67.194119
-14.399238 -46.30695 65.778591
-13.976911 -45.050991 66.22324
-14.943678 -45.365735 66.494728
-14.744571 -47.504569 65.283577
-13.777804 -47.189825 65.012089
-14.399238 -46.30695 65.778591
-15.105393 -48.777153 64.694862
-14.744571 -47.504569 65.283577
-15.726827 -47.894278 65.461365
-15.414423 -50.050932 64.038067
-14.432167 -49.661223 63.86028
-15.105393 -48.777153 64.694862
-16.981801 -49.364061 65.010559
-16.673161 -48.138187 65.641705
-17.567312 -48.335386 65.779613
-16.390658 -50.381777 64.195474
-16.981801 -49.364061 65.010559
-15.717431 -51.265846 63.360892
-15.414423 -50.050932 64.038067
-16.390658 -50.381777 64.195474
3 22 7 23
3 0 24 26
3 26 25 8
3 24 25 26
3 0 27 29
3 27 10 28
3 27 28 29
3 30 12 31
3 2 32 34
3 32 13 33
3 32 33 34
3 2 14 13
3 2 15 14
3 4 16 6
3 4 17 16
3 35 18 36
3 37 19 38
3 40 39 19
3 1 41 43
3 43 42 11
3 41 42 43
3 3 44 45
3 48 47 9
3 46 47 48
3 49 20 50
3 5 51 52
3 5 53 54
3 5 55 57
3 55 21 56
3 55 56 57
3 58 2 59
3 60 6 61
3 62 61 2
3 60 61 62
3 63 6 64
3 65 4 66
3 67 66 6
3 65 66 67
3 7 68 69
3 7 70 71
3 73 72 1
3 8 9 3
3 74 9 75
3 76 75 8
3 74 75 76
3 78 77 9
3 10 79 80
3 10 81 82
3 83 5 84
3 83 84 85
3 87 86 5
3 88 11 89
3 12 90 92
3 90 11 91
3 90 91 92
3 12 1 11
3 93 12 94
3 13 95 97
3 95 12 96
3 95 96 97
3 13 1 12
3 13 98 100
3 100 99 1
3 98 99 100
3 14 101 103
3 103 102 13
3 101 102 103
3 14 104 105
3 14 106 107
3 15 108 110
3 110 109 14
3 108 109 110
3 15 111 113
3 111 3 112
3 111 112 113
3 6 15 2
3 16 15 6
3 16 3 15
3 16 8 3
3 17 8 16
3 17 0 8
3 18 114 115
3 18 116 117
3 118 18 119
3 19 120 122
3 120 18 121
3 120 121 122
3 19 123 125
3 125 124 18
3 123 124 125
3 19 126 127
3 129 128 19
3 11 130 132
3 130 7 131
3 130 131 132
3 133 7 134
3 135 134 11
3 133 134 135
3 137 136 7
3 139 138 1
3 9 140 142
3 142 141 3
3 140 141 142
3 144 143 9
3 145 4 146
3 147 4 148
3 149 17 150
3 151 150 4
3 149 150 151
3 20 152 154
3 152 17 153
3 152 153 154
3 20 0 17
3 155 20 156
3 157 20 158
3 159 0 160
3 161 160 20
3 159 160 161
3 162 10 163
3 164 163 0
3 162 163 164
3 21 165 167
3 165 10 166
3 165 166 167
3 21 168 170
3 170 169 10
3 168 169 170
3 171 21 172
3 173 172 5
3 171 172 173
3 174 21 175
3 178 177 21
3 176 177 178
