ply
format ascii 1.0
element vertex 127
property float x
property float y
property float z
element face 92
property list uchar int vertex_index
end_header
-38.52737 -35.706154 16.404354
-38.612087 -35.074757 11.718349
-38.361786 -31.118519 9.846937
-37.295902 -27.15019 7.829859
-38.672501 -31.493637 12.127586
-37.761372 -37.560452 19.675318
-38.090542 -37.556763 17.475328
-38.293022 -37.481583 15.08565
-38.801495 -33.591404 15.32487
-38.64061 -35.377132 14.138489
-38.756294 -33.379597 13.151299
-38.589291 -33.173965 10.766335
-37.276829 -37.456566 21.859495
-37.255192 -25.428211 8.843122
-37.920906 -27.462191 10.000051
-38.432203 -35.625152 17.529556
-38.61643 -34.737715 16.954026
-38.308956 -36.631458 16.939841
-38.213789 -36.550457 18.065043
-38.432203 -35.625152 17.529556
-38.830383 -32.59773 14.837737
-38.8545 -32.681621 15.951492
-38.807783 -32.491827 13.750951
-38.778894 -33.485501 14.238084
-38.830383 -32.59773 14.837737
-38.359803 -31.922303 9.200582
-38.473555 -32.950026 9.660281
-38.475538 -32.146242 10.306636
-37.621943 -36.4956 21.306435
-37.343417 -36.402247 22.389777
-37.390884 -38.554218 20.156029
-37.627907 -38.505842 18.993319
-38.507979 -36.110884 12.229537
-38.52224 -36.262072 13.439608
-38.626349 -35.225944 12.928419
-37.275547 -26.2892 8.336491
-36.901013 -25.366111 7.847099
-36.921368 -26.2271 7.340468
-37.596611 -28.101754 8.302691
-37.909113 -28.257755 9.387787
-37.608404 -27.30619 8.914955
-38.704916 -30.52428 12.709898
-38.765886 -31.548847 13.239095
-38.527129 -30.494264 11.573654
-38.704916 -30.52428 12.709898
-38.371771 -30.306705 10.433329
-38.517144 -31.306078 10.987262
-38.527129 -30.494264 11.573654
-38.049204 -36.552301 19.165038
-37.864214 -36.547543 20.214346
-37.925957 -37.558607 18.575323
-38.049204 -36.552301 19.165038
-38.213789 -36.550457 18.065043
-37.792492 -38.503998 17.893324
-37.627907 -38.505842 18.993319
-37.925957 -37.558607 18.575323
-37.931088 -38.499144 16.70937
-37.792492 -38.503998 17.893324
-38.032328 -38.461554 15.51453
-37.931088 -38.499144 16.70937
-38.191782 -37.519173 16.280489
-38.129444 -38.34976 14.286969
-38.032328 -38.461554 15.51453
-38.512739 -35.915596 11.007597
-38.548277 -34.913966 10.477135
-36.94886 -26.907445 6.767772
-36.921368 -26.2271 7.340468
-37.342975 -27.922419 7.225113
-36.94886 -26.907445 6.767772
-38.753493 -33.68034 16.414284
-38.8545 -32.681621 15.951492
-38.664433 -34.648779 15.864612
-38.61643 -34.737715 16.954026
-38.753493 -33.68034 16.414284
-38.714397 -32.436617 12.639443
-38.807783 -32.491827 13.750951
-38.765886 -31.548847 13.239095
-38.536879 -33.96357 10.001127
-38.548277 -34.913966 10.477135
-38.600689 -34.124361 11.242342
-38.536879 -33.96357 10.001127
-38.473555 -32.950026 9.660281
-36.964619 -37.428743 22.824134
-37.343417 -36.402247 22.389777
-36.845343 -38.497789 22.328666
-36.964619 -37.428743 22.824134
-37.519101 -37.508509 20.767406
-37.621943 -36.4956 21.306435
-37.864214 -36.547543 20.214346
-37.148613 -38.502275 21.248117
-37.519101 -37.508509 20.767406
-37.390884 -38.554218 20.156029
-36.845343 -38.497789 22.328666
-37.148613 -38.502275 21.248117
-38.348446 -37.314297 13.913188
-38.466816 -36.429358 14.61207
-38.52224 -36.262072 13.439608
-38.129444 -38.34976 14.286969
-38.348446 -37.314297 13.913188
-38.507979 -36.110884 12.229537
-38.512739 -35.915596 11.007597
-36.913339 -24.540757 8.371031
-36.901013 -25.366111 7.847099
-37.327219 -24.559351 9.391087
-36.913339 -24.540757 8.371031
-37.610888 -25.629663 9.881417
-37.327219 -24.559351 9.391087
-37.943745 -26.646653 10.459881
-37.610888 -25.629663 9.881417
-37.588049 -26.445201 9.421587
-38.178579 -27.575859 11.053618
-37.943745 -26.646653 10.459881
-38.151331 -28.478541 10.509887
-38.178579 -27.575859 11.053618
-38.151331 -28.478541 10.509887
-37.909113 -28.257755 9.387787
-38.129553 -30.085918 9.311231
-38.371771 -30.306705 10.433329
-37.643684 -28.873984 7.697946
-37.596611 -28.101754 8.302691
-37.342975 -27.922419 7.225113
-38.175686 -30.895071 8.768165
-38.129553 -30.085918 9.311231
-37.943453 -29.862471 8.232458
-38.173703 -31.698855 8.12181
-38.359803 -31.922303 9.200582
-38.175686 -30.895071 8.768165
3 0 15 16
3 0 17 19
3 17 6 18
3 17 18 19
3 0 7 6
3 20 8 21
3 22 10 23
3 24 23 8
3 22 23 24
3 2 11 4
3 2 25 27
3 27 26 11
3 25 26 27
3 28 12 29
3 31 30 5
3 1 32 34
3 34 33 9
3 32 33 34
3 3 35 37
3 35 13 36
3 35 36 37
3 3 14 13
3 3 38 40
3 40 39 14
3 38 39 40
3 41 4 42
3 43 4 44
3 45 2 46
3 47 46 4
3 45 46 47
3 48 5 49
3 6 50 52
3 50 5 51
3 50 51 52
3 6 53 55
3 55 54 5
3 53 54 55
3 6 56 57
3 7 58 60
3 60 59 6
3 58 59 60
3 7 61 62
3 64 63 1
3 65 3 66
3 68 67 3
3 8 69 70
3 8 71 73
3 71 0 72
3 71 72 73
3 8 9 0
3 10 9 8
3 10 1 9
3 4 74 76
3 74 10 75
3 74 75 76
3 11 10 4
3 11 1 10
3 11 77 79
3 79 78 1
3 77 78 79
3 81 80 11
3 12 82 83
3 12 84 85
3 5 86 88
3 86 12 87
3 86 87 88
3 89 12 90
3 91 90 5
3 89 90 91
3 93 92 12
3 9 7 0
3 94 7 95
3 96 95 9
3 94 95 96
3 98 97 7
3 100 99 1
3 13 101 102
3 13 103 104
3 13 105 106
3 14 107 109
3 109 108 13
3 107 108 109
3 14 110 111
3 14 112 113
3 115 114 14
3 116 2 117
3 120 119 3
3 118 119 120
3 121 2 122
3 121 122 123
3 126 125 2
3 124 125 126
