ply
format ascii 1.0
element vertex 245
property float x
property float y
property float z
element face 231
property list uchar int vertex_index
end_header
-24.32995 -80.31768 -18.25366
-25.446321 -91.892769 -17.981405
-26.263781 -94.329269 -7.546952
-25.992374 -83.917152 -9.012271
-25.176865 -86.271843 -18.106136
-24.141607 -89.275818 -22.61582
-23.82979 -83.534416 -22.335939
-26.515232 -89.342056 -8.195225
-23.232056 -74.142517 -18.566143
-23.046818 -77.229408 -22.101564
-21.951559 -70.732216 -22.265678
-25.044569 -98.726006 -7.184369
-26.093977 -88.192825 -13.324671
-25.363787 -82.431328 -13.572407
-25.000511 -78.416756 -9.654777
-24.214176 -76.49144 -14.266642
-24.837357 -83.384766 -18.031031
-24.566746 -85.053787 -20.252939
-24.198256 -82.11042 -20.234846
-22.649403 -72.645981 -20.449459
-26.073423 -94.594521 -4.773139
-25.471464 -96.840736 -4.737193
-25.782484 -96.629456 -7.243268
-26.266056 -94.171951 -10.43273
-26.332541 -86.654312 -8.622035
-26.367804 -88.754585 -10.651019
-26.109426 -86.060326 -11.094816
-25.792459 -85.257462 -13.395009
-25.714382 -83.263329 -11.414463
-24.631433 -77.535522 -12.009802
-24.065586 -74.771439 -12.405001
-23.649986 -73.6716 -14.59889
-22.195551 -75.246323 -24.108192
-22.640213 -78.529495 -24.180038
-25.406637 -89.019211 -18.003334
-24.834568 -88.050659 -20.213568
-24.121258 -86.473518 -22.297178
-23.213634 -84.68856 -24.45204
-26.434809 -92.16671 -5.064223
-26.49749 -91.91468 -7.966772
-26.551643 -89.681458 -5.419557
-26.464832 -87.134331 -5.987218
-26.203117 -84.477562 -6.358748
-23.827375 -77.283424 -18.270624
-23.73399 -78.90789 -20.196341
-23.218193 -75.858429 -20.334932
-22.515635 -74.020004 -22.199894
-24.646084 -98.668343 -4.506105
-26.426691 -91.553085 -10.562295
-26.249178 -90.835045 -12.924991
-25.880623 -90.142563 -15.662678
-25.710537 -87.208504 -15.62088
-25.365685 -84.418739 -15.773758
-24.884287 -81.407349 -15.948027
-25.793734 -81.765213 -6.845749
-25.541285 -81.183708 -9.282136
-25.194628 -80.310394 -11.639202
-24.803654 -79.486656 -14.014885
-24.347689 -78.451736 -16.166685
-23.780981 -75.57399 -16.521687
-23.453037 -80.346657 -22.257368
-22.933664 -81.659401 -24.430567
-25.100363 -92.673073 -19.147725
-25.345855 -93.273583 -17.974443
-26.087149 -95.365032 -8.733934
-25.8465 -96.515126 -8.582092
-26.023133 -95.479363 -7.39511
-26.264919 -94.25061 -8.989841
-26.088286 -95.286373 -10.176823
-26.087149 -95.365032 -8.733934
-23.967927 -73.740208 -11.567652
-24.240747 -75.183338 -11.308347
-23.799005 -73.346562 -12.620646
-23.967927 -73.740208 -11.567652
-21.957998 -75.896264 -25.058656
-21.744149 -74.157235 -24.97611
-26.448117 -91.12754 -3.859095
-26.327656 -92.324433 -3.672309
-26.506533 -89.884915 -4.036761
-26.493226 -90.924084 -5.24189
-26.448117 -91.12754 -3.859095
-26.388055 -86.010941 -4.884726
-26.472449 -87.240063 -4.56403
-26.257197 -84.682556 -5.070491
-26.333975 -85.805947 -6.172983
-26.388055 -86.010941 -4.884726
-24.082114 -90.719314 -22.682654
-24.487663 -90.07056 -21.54842
-21.837464 -71.408062 -23.152995
-22.119502 -73.051956 -23.120103
-22.233597 -72.37611 -22.232786
-24.529333 -99.661786 -7.131112
-24.33009 -99.632954 -5.79198
-24.845326 -98.697174 -5.845237
-24.697818 -99.667843 -8.511222
-24.529333 -99.661786 -7.131112
-25.671518 -80.666771 -5.847948
-25.885088 -81.96859 -5.519139
-25.140594 -78.686074 -8.486055
-24.882915 -77.374306 -8.714177
-25.270898 -79.800232 -9.468456
-25.410981 -80.069549 -8.299735
-25.140594 -78.686074 -8.486055
-23.426145 -73.099559 -15.661745
-23.384555 -72.24044 -14.801938
-22.462219 -80.691819 -25.355632
-22.786938 -80.094448 -24.305302
-22.315493 -79.126866 -25.230367
-22.563021 -82.267383 -25.454837
-22.462219 -80.691819 -25.355632
-23.697755 -89.996437 -23.678736
-23.742223 -88.509873 -23.59189
-22.666784 -71.914185 -19.603763
-22.940729 -73.394249 -19.507801
-22.958111 -72.662453 -18.662104
-22.37037 -71.107799 -20.549619
-22.666784 -71.914185 -19.603763
-22.021448 -70.150917 -21.457729
-22.300481 -71.689099 -21.357568
-22.37037 -71.107799 -20.549619
-25.772444 -95.717629 -4.755166
-25.621451 -95.703739 -3.373291
-25.922431 -94.580632 -3.391264
-25.533055 -97.593766 -8.560735
-25.164098 -98.642041 -8.531285
-25.413526 -97.677731 -7.213819
-25.533055 -97.593766 -8.560735
-25.8465 -96.515126 -8.582092
-26.051516 -95.137795 -11.618009
-26.088286 -95.286373 -10.176823
-26.20566 -93.875518 -11.725894
-26.051516 -95.137795 -11.618009
-24.708209 -77.005997 -9.933235
-24.882915 -77.374306 -8.714177
-24.52367 -76.56538 -11.110748
-24.815972 -77.976139 -10.832289
-24.708209 -77.005997 -9.933235
-24.348509 -76.153481 -12.207401
-24.52367 -76.56538 -11.110748
-24.240747 -75.183338 -11.308347
-23.591204 -72.796642 -13.717591
-23.857786 -74.221519 -13.501946
-23.799005 -73.346562 -12.620646
-23.384555 -72.24044 -14.801938
-23.591204 -72.796642 -13.717591
-22.180329 -77.537849 -25.09458
-22.417882 -76.887909 -24.144115
-21.957998 -75.896264 -25.058656
-22.315493 -79.126866 -25.230367
-22.180329 -77.537849 -25.09458
-25.120178 -89.942257 -19.242177
-25.14002 -91.379036 -19.231212
-25.426479 -90.45599 -17.992369
-24.834143 -89.457981 -20.347294
-25.120178 -89.942257 -19.242177
-25.120603 -88.534935 -19.108451
-24.488087 -88.663239 -21.414694
-24.487663 -90.07056 -21.54842
-24.834143 -89.457981 -20.347294
-23.732048 -87.108722 -23.432569
-23.742223 -88.509873 -23.59189
-24.131433 -87.874668 -22.456499
-23.278236 -86.216243 -24.510001
-23.732048 -87.108722 -23.432569
-23.667446 -85.581039 -23.374609
-22.772145 -85.284339 -25.514227
-22.836747 -86.812023 -25.572187
-23.278236 -86.216243 -24.510001
-26.146963 -93.538338 -3.526767
-25.922431 -94.580632 -3.391264
-26.254116 -93.380616 -4.918681
-26.146963 -93.538338 -3.526767
-26.327656 -92.324433 -3.672309
-26.515854 -88.513627 -4.2802
-26.506533 -89.884915 -4.036761
-26.508237 -88.407894 -5.703387
-26.515854 -88.513627 -4.2802
-26.472449 -87.240063 -4.56403
-25.100363 -92.673073 -19.147725
-25.14002 -91.379036 -19.231212
-24.082114 -90.719314 -22.682654
-23.697755 -89.996437 -23.678736
-21.95946 -73.665115 -24.074252
-22.355593 -74.633163 -23.154043
-22.119502 -73.051956 -23.120103
-21.744149 -74.157235 -24.97611
-21.95946 -73.665115 -24.074252
-21.67172 -69.115643 -22.345373
-22.021448 -70.150917 -21.457729
-21.572745 -69.794472 -23.169185
-21.67172 -69.115643 -22.345373
-21.837464 -71.408062 -23.152995
-21.572745 -69.794472 -23.169185
-25.237165 -96.781345 -3.299904
-25.621451 -95.703739 -3.373291
-24.824475 -97.695148 -3.18436
-25.237165 -96.781345 -3.299904
-25.058774 -97.754539 -4.621649
-24.328326 -98.564426 -3.084169
-24.824475 -97.695148 -3.18436
-24.046141 -99.576939 -4.500123
-24.328326 -98.564426 -3.084169
-24.046141 -99.576939 -4.500123
-24.33009 -99.632954 -5.79198
-24.697818 -99.667843 -8.511222
-25.164098 -98.642041 -8.531285
-25.666201 -92.361985 -16.70664
-25.345855 -93.273583 -17.974443
-26.285978 -92.566085 -11.790677
-26.20566 -93.875518 -11.725894
-26.346373 -92.862518 -10.497512
-26.197221 -92.207065 -12.972024
-26.285978 -92.566085 -11.790677
-26.337935 -91.194065 -11.743643
-26.067629 -91.833123 -14.178433
-26.197221 -92.207065 -12.972024
-25.883351 -91.486881 -15.547276
-26.067629 -91.833123 -14.178433
-26.064901 -90.488804 -14.293834
-25.663472 -91.017666 -16.822041
-25.666201 -92.361985 -16.70664
-25.883351 -91.486881 -15.547276
-26.089779 -83.324765 -5.275638
-26.257197 -84.682556 -5.070491
-25.998425 -83.121387 -6.602248
-26.089779 -83.324765 -5.275638
-25.885088 -81.96859 -5.519139
-25.537206 -80.360302 -7.081542
-25.671518 -80.666771 -5.847948
-25.66751 -81.47446 -8.063942
-25.537206 -80.360302 -7.081542
-25.410981 -80.069549 -8.299735
-23.491643 -74.050754 -16.623143
-23.715483 -74.622795 -15.560289
-23.426145 -73.099559 -15.661745
-23.21718 -73.335018 -17.645371
-23.506518 -74.858253 -17.543915
-23.491643 -74.050754 -16.623143
-22.958111 -72.662453 -18.662104
-23.21718 -73.335018 -17.645371
-22.703007 -83.781963 -25.465573
-23.073649 -83.17398 -24.441304
-22.563021 -82.267383 -25.454837
-22.772145 -85.284339 -25.514227
-22.703007 -83.781963 -25.465573
3 0 18 16
3 1 62 63
3 2 22 20
3 2 64 66
3 66 65 22
3 64 65 66
3 2 67 69
3 67 23 68
3 67 68 69
3 3 26 24
3 3 28 26
3 70 30 71
3 73 72 30
3 75 74 32
3 4 35 34
3 6 36 17
3 6 37 36
3 76 38 77
3 78 40 79
3 80 79 38
3 78 79 80
3 81 41 82
3 83 42 84
3 85 84 41
3 83 84 85
3 5 86 87
3 8 45 43
3 10 46 19
3 10 88 90
3 90 89 46
3 88 89 90
3 11 47 21
3 11 91 93
3 93 92 47
3 91 92 93
3 11 94 95
3 7 48 39
3 12 49 25
3 12 50 49
3 12 51 50
3 13 52 27
3 13 53 52
3 96 54 97
3 14 98 99
3 14 100 102
3 100 55 101
3 100 101 102
3 14 56 55
3 15 57 29
3 15 58 57
3 15 59 58
3 104 103 31
3 9 60 44
3 105 61 106
3 107 106 33
3 105 106 107
3 109 108 61
3 16 17 4
3 18 17 16
3 18 6 17
3 111 110 5
3 112 19 113
3 114 113 8
3 112 113 114
3 115 19 116
3 117 10 118
3 119 118 19
3 117 118 119
3 20 120 122
3 120 21 121
3 120 121 122
3 22 21 20
3 22 11 21
3 22 123 125
3 125 124 11
3 123 124 125
3 127 126 22
3 23 128 129
3 23 130 131
3 24 25 7
3 26 25 24
3 26 12 25
3 26 27 12
3 28 27 26
3 28 13 27
3 132 14 133
3 134 29 135
3 136 135 14
3 134 135 136
3 30 137 139
3 137 29 138
3 137 138 139
3 30 15 29
3 30 31 15
3 140 31 141
3 142 141 30
3 140 141 142
3 144 143 31
3 32 33 9
3 145 33 146
3 147 146 32
3 145 146 147
3 149 148 33
3 34 150 152
3 152 151 1
3 150 151 152
3 35 153 155
3 155 154 34
3 153 154 155
3 35 156 158
3 156 5 157
3 156 157 158
3 17 35 4
3 36 35 17
3 36 5 35
3 36 159 161
3 161 160 5
3 159 160 161
3 37 162 164
3 164 163 36
3 162 163 164
3 37 165 167
3 165 166 167
3 168 20 169
3 38 170 172
3 170 20 171
3 170 171 172
3 38 2 20
3 38 39 2
3 40 39 38
3 40 7 39
3 173 40 174
3 41 175 177
3 175 40 176
3 175 176 177
3 41 7 40
3 41 24 7
3 42 24 41
3 42 3 24
3 179 178 1
3 181 180 5
3 43 44 0
3 45 44 43
3 45 9 44
3 19 45 8
3 46 45 19
3 46 9 45
3 46 32 9
3 182 32 183
3 184 183 46
3 182 183 184
3 186 185 32
3 187 10 188
3 189 10 190
3 192 191 10
3 21 193 194
3 47 195 197
3 197 196 21
3 195 196 197
3 47 198 199
3 47 200 201
3 203 202 47
3 205 204 11
3 206 1 207
3 39 23 2
3 48 23 39
3 48 208 210
3 210 209 23
3 208 209 210
3 25 48 7
3 49 48 25
3 49 211 213
3 213 212 48
3 211 212 213
3 49 214 215
3 50 216 218
3 218 217 49
3 216 217 218
3 50 219 221
3 219 1 220
3 219 220 221
3 50 34 1
3 51 34 50
3 51 4 34
3 27 51 12
3 52 51 27
3 52 4 51
3 52 16 4
3 53 16 52
3 53 0 16
3 222 42 223
3 54 224 226
3 224 42 225
3 224 225 226
3 54 3 42
3 227 54 228
3 55 229 231
3 229 54 230
3 229 230 231
3 55 3 54
3 55 28 3
3 56 28 55
3 56 13 28
3 29 56 14
3 57 56 29
3 57 13 56
3 57 53 13
3 58 53 57
3 58 0 53
3 58 43 0
3 59 43 58
3 59 8 43
3 31 59 15
3 232 59 233
3 234 233 31
3 232 233 234
3 235 8 236
3 237 236 59
3 235 236 237
3 239 238 8
3 44 18 0
3 60 18 44
3 60 6 18
3 33 60 9
3 61 60 33
3 61 6 60
3 61 37 6
3 240 37 241
3 242 241 61
3 240 241 242
3 244 243 37
