ply
format ascii 1.0
element vertex 231
property float x
property float y
property float z
element face 209
property list uchar int vertex_index
end_header
-39.125629 -29.613762 -45.496834
-38.119534 -16.369896 -53.823238
-38.071434 -41.270241 -36.773037
-40.938885 -15.782024 -46.216919
-38.86335 -35.552761 -41.188725
-38.867271 -23.187622 -49.788956
-37.388069 -30.105192 -48.902508
-38.657768 -40.019566 -33.223282
-39.665184 -34.542099 -37.800674
-40.180519 -29.017462 -41.89233
-41.022018 -22.40926 -42.357674
-40.299145 -22.53377 -46.101982
-39.831398 -15.828982 -50.347713
-38.905758 -9.105255 -54.087238
-39.054317 -32.550694 -43.420822
-38.183018 -36.250237 -42.858994
-38.287296 -33.080765 -45.197384
-38.608288 -19.793247 -51.74696
-37.92321 -23.082872 -51.59082
-37.956863 -42.66539 -31.029388
-39.876816 -34.167648 -36.00177
-40.268471 -31.328106 -38.023739
-39.979607 -31.829456 -39.827049
-40.524799 -28.583057 -40.011906
-41.027367 -19.186617 -44.343678
-40.730644 -22.36227 -44.268723
-40.672714 -19.165483 -46.235291
-40.143288 -19.080093 -48.27169
-40.472122 -15.701791 -48.329456
-36.466637 4.315364 -58.953491
-41.067829 -12.640163 -46.069206
-40.6954 -12.627949 -48.128792
-38.520393 -38.485439 -38.996761
-39.112705 -26.265648 -47.646633
-38.3815 -29.636143 -47.324505
-38.198208 -26.466648 -49.489353
-37.096519 -26.667862 -51.162971
-37.767487 -43.348026 -32.746376
-38.392906 -40.752834 -34.986279
-39.193546 -37.479275 -35.427414
-38.949425 -37.83783 -37.285831
-39.325989 -35.078426 -39.470695
-39.595089 -32.222286 -41.57449
-39.747978 -29.050079 -43.860054
-40.954536 -25.132519 -40.352039
-40.680859 -25.567198 -42.15218
-40.315754 -25.811922 -43.958614
-39.775597 -25.903763 -45.971699
-39.697292 -22.633665 -48.022499
-39.451275 -19.414379 -50.077881
-39.058445 -16.023115 -52.157135
-40.115601 -12.561457 -50.335724
-39.429237 -12.543749 -52.248779
-37.362061 -33.506596 -46.85302
-37.799925 -18.074038 -53.719183
-38.044302 -19.785713 -52.681044
-38.363911 -18.081572 -52.785099
-40.510216 -29.709342 -38.134224
-40.340334 -31.22701 -37.080624
-40.63838 -28.336818 -39.128308
-40.396635 -29.955582 -39.017823
-40.510216 -29.709342 -38.134224
-40.983126 -17.48432 -45.280299
-41.127905 -17.648515 -44.256788
-41.083664 -15.946219 -45.193409
-37.532299 -43.077621 -36.555769
-37.778704 -42.625442 -35.682764
-41.083769 -11.234057 -45.887194
-41.185854 -12.803489 -45.024449
-40.915243 -10.972725 -47.027128
-41.083769 -11.234057 -45.887194
-38.39873 -37.305492 -40.995487
-38.227251 -38.771832 -39.899506
-38.691871 -37.0191 -40.092743
-37.642696 -38.053648 -42.664183
-37.784754 -36.397374 -43.739674
-36.90455 -25.06971 -52.15102
-37.509864 -24.875367 -51.376896
-37.317896 -23.277215 -52.364945
-36.421291 -27.051039 -51.813873
-36.90455 -25.06971 -52.15102
-41.125393 -22.292836 -41.410292
-41.147396 -20.767219 -42.377335
-40.988277 -23.770889 -41.354856
-41.091651 -23.654466 -40.407474
-41.125393 -22.292836 -41.410292
-40.209667 -10.936983 -50.217121
-40.405501 -12.594703 -49.232258
-40.499567 -10.970229 -49.113655
-39.167497 -10.824502 -53.168008
-39.551384 -10.918285 -52.20862
-39.289644 -9.199037 -53.127849
-38.744591 -10.953812 -54.04721
-39.006331 -12.67306 -53.127981
-39.167497 -10.824502 -53.168008
-38.44697 -9.093712 -54.985792
-38.744591 -10.953812 -54.04721
-35.778534 2.896714 -60.256752
-36.419231 2.769728 -59.190906
-35.82594 4.44235 -60.019337
-37.836893 -34.812638 -44.908869
-37.784754 -36.397374 -43.739674
-38.235157 -34.665501 -44.028189
-37.701763 -21.430526 -52.602974
-38.265749 -21.43806 -51.66889
-38.044302 -19.785713 -52.681044
-37.317896 -23.277215 -52.364945
-37.701763 -21.430526 -52.602974
-38.01552 -42.326737 -30.175646
-37.588867 -43.818476 -29.930264
-38.363771 -41.103016 -31.293053
-38.01552 -42.326737 -30.175646
-38.714224 -39.780104 -32.39
-38.307316 -41.342478 -32.126335
-38.363771 -41.103016 -31.293053
-40.144506 -32.646781 -36.069639
-39.941301 -33.971368 -35.042538
-40.072643 -32.747877 -37.012754
-40.144506 -32.646781 -36.069639
-40.340334 -31.22701 -37.080624
-41.15007 -19.155898 -43.370337
-41.127905 -17.648515 -44.256788
-41.024693 -20.797939 -43.350676
-41.147396 -20.767219 -42.377335
-41.15007 -19.155898 -43.370337
-39.009054 -7.397078 -54.004871
-39.289644 -9.199037 -53.127849
-38.526087 -7.314607 -55.082241
-39.009054 -7.397078 -54.004871
-36.380783 5.855401 -58.708672
-36.959418 4.152813 -57.922632
-35.832053 5.98162 -59.757511
-36.380783 5.855401 -58.708672
-35.82594 4.44235 -60.019337
-35.832053 5.98162 -59.757511
-36.822841 -31.908912 -48.695539
-36.748738 -30.350085 -49.674692
-37.534604 -16.326871 -54.700136
-37.839293 -14.555945 -54.794506
-41.148136 -14.375288 -45.119552
-41.185854 -12.803489 -45.024449
-41.003357 -14.211094 -46.143062
-41.083664 -15.946219 -45.193409
-41.148136 -14.375288 -45.119552
-40.729028 -10.966618 -48.056921
-40.881614 -12.634056 -47.098999
-40.915243 -10.972725 -47.027128
-40.499567 -10.970229 -49.113655
-40.729028 -10.966618 -48.056921
-38.045019 -40.201749 -38.76979
-37.82054 -41.59415 -37.657928
-38.295913 -39.87784 -37.884899
-38.045019 -40.201749 -38.76979
-38.227251 -38.771832 -39.899506
-38.058563 -37.65423 -41.830622
-38.39873 -37.305492 -40.995487
-38.523184 -35.901499 -42.02386
-38.058563 -37.65423 -41.830622
-37.642696 -38.053648 -42.664183
-36.602963 -28.63142 -50.804924
-36.748738 -30.350085 -49.674692
-37.242294 -28.386527 -50.032739
-35.927734 -29.014597 -51.455826
-36.602963 -28.63142 -50.804924
-36.421291 -27.051039 -51.813873
-37.799925 -18.074038 -53.719183
-37.534604 -16.326871 -54.700136
-37.480407 -44.29147 -30.773974
-37.112412 -45.444555 -29.67485
-37.588867 -43.818476 -29.930264
-37.38572 -44.632787 -31.632467
-37.480407 -44.29147 -30.773974
-37.862175 -43.006708 -31.887882
-37.269845 -45.002836 -32.463962
-37.38572 -44.632787 -31.632467
-37.62673 -43.664335 -33.669433
-37.269845 -45.002836 -32.463962
-37.93944 -42.366739 -34.789385
-37.62673 -43.664335 -33.669433
-38.080196 -42.05043 -33.866327
-38.23217 -41.011538 -35.879658
-37.778704 -42.625442 -35.682764
-37.93944 -42.366739 -34.789385
-39.037312 -38.382301 -33.473358
-38.714224 -39.780104 -32.39
-39.646835 -35.456343 -34.862602
-39.941301 -33.971368 -35.042538
-39.3052 -37.112156 -34.575424
-39.646835 -35.456343 -34.862602
-39.535181 -35.823462 -35.714592
-38.925657 -38.74942 -34.325348
-39.037312 -38.382301 -33.473358
-39.3052 -37.112156 -34.575424
-41.019914 -25.132604 -39.41704
-41.091651 -23.654466 -40.407474
-40.853248 -26.611548 -39.298374
-41.019914 -25.132604 -39.41704
-40.739667 -26.857788 -40.181973
-40.63838 -28.336818 -39.128308
-40.853248 -26.611548 -39.298374
-39.894566 -10.927139 -51.252093
-40.209667 -10.936983 -50.217121
-39.772419 -12.552603 -51.292251
-39.894566 -10.927139 -51.252093
-39.551384 -10.918285 -52.20862
-38.820934 -14.412743 -53.082159
-39.243841 -14.283432 -52.202957
-39.006331 -12.67306 -53.127981
-38.351479 -14.586133 -53.915211
-38.588989 -16.196506 -52.990187
-38.820934 -14.412743 -53.082159
-37.839293 -14.555945 -54.794506
-38.351479 -14.586133 -53.915211
-38.44697 -9.093712 -54.985792
-38.526087 -7.314607 -55.082241
-36.945795 2.616846 -58.237264
-36.959418 4.152813 -57.922632
-36.945795 2.616846 -58.237264
-36.419231 2.769728 -59.190906
-37.532299 -43.077621 -36.555769
-37.82054 -41.59415 -37.657928
-37.374275 -35.025553 -45.736687
-37.836893 -34.812638 -44.908869
-37.824678 -33.293681 -46.025202
-36.809838 -33.609614 -47.670795
-37.375065 -31.805894 -47.877764
-36.822841 -31.908912 -48.695539
-36.820868 -35.330847 -46.547176
-36.809838 -33.609614 -47.670795
-37.374275 -35.025553 -45.736687
-36.820868 -35.330847 -46.547176
3 0 16 14
3 1 54 56
3 56 55 17
3 54 55 56
3 57 21 58
3 59 23 60
3 61 60 21
3 59 60 61
3 3 62 64
3 62 24 63
3 62 63 64
3 3 26 24
3 3 28 26
3 2 65 66
3 67 30 68
3 70 69 30
3 4 71 73
3 73 72 32
3 71 72 73
3 75 74 15
3 5 35 33
3 76 36 77
3 78 77 18
3 76 77 78
3 80 79 36
3 7 37 19
3 7 38 37
3 8 39 20
3 8 40 39
3 8 41 40
3 9 42 22
3 9 43 42
3 10 81 82
3 10 83 85
3 83 44 84
3 83 84 85
3 10 45 44
3 11 46 25
3 11 47 46
3 11 48 47
3 12 49 27
3 12 50 49
3 86 51 87
3 88 87 31
3 86 87 88
3 13 89 91
3 89 52 90
3 89 90 91
3 13 92 94
3 94 93 52
3 92 93 94
3 13 95 96
3 99 98 29
3 97 98 99
3 6 53 34
3 14 15 4
3 16 15 14
3 16 100 102
3 102 101 15
3 100 101 102
3 17 18 5
3 103 18 104
3 105 104 17
3 103 104 105
3 107 106 18
3 108 19 109
3 110 19 111
3 112 7 113
3 114 113 19
3 112 113 114
3 115 20 116
3 21 117 119
3 117 20 118
3 117 118 119
3 21 8 20
3 21 22 8
3 23 22 21
3 23 9 22
3 24 120 121
3 24 122 124
3 122 10 123
3 122 123 124
3 24 25 10
3 26 25 24
3 26 11 25
3 26 27 11
3 28 27 26
3 28 12 27
3 125 13 126
3 128 127 13
3 129 29 130
3 131 29 132
3 134 133 29
3 136 135 6
3 138 137 1
3 30 139 140
3 30 141 143
3 141 3 142
3 141 142 143
3 30 31 3
3 144 31 145
3 146 145 30
3 144 145 146
3 148 147 31
3 32 149 151
3 151 150 2
3 149 150 151
3 153 152 32
3 15 154 156
3 156 155 4
3 154 155 156
3 158 157 15
3 33 34 0
3 35 34 33
3 35 6 34
3 18 35 5
3 36 35 18
3 36 6 35
3 36 159 161
3 161 160 6
3 159 160 161
3 164 163 36
3 162 163 164
3 166 165 1
3 19 167 169
3 167 168 169
3 37 170 172
3 172 171 19
3 170 171 172
3 37 173 174
3 37 175 176
3 38 177 179
3 179 178 37
3 177 178 179
3 38 180 182
3 180 2 181
3 180 181 182
3 183 7 184
3 20 185 186
3 39 187 189
3 189 188 20
3 187 188 189
3 39 190 192
3 190 7 191
3 190 191 192
3 39 38 7
3 40 38 39
3 40 2 38
3 40 32 2
3 41 32 40
3 41 4 32
3 22 41 8
3 42 41 22
3 42 4 41
3 42 14 4
3 43 14 42
3 43 0 14
3 44 193 194
3 44 195 196
3 44 197 199
3 197 23 198
3 197 198 199
3 45 23 44
3 45 9 23
3 25 45 10
3 46 45 25
3 46 9 45
3 46 43 9
3 47 43 46
3 47 0 43
3 47 33 0
3 48 33 47
3 48 5 33
3 27 48 11
3 49 48 27
3 49 5 48
3 49 17 5
3 50 17 49
3 50 1 17
3 31 28 3
3 51 28 31
3 51 12 28
3 200 51 201
3 52 202 204
3 202 51 203
3 202 203 204
3 52 12 51
3 52 50 12
3 205 50 206
3 207 206 52
3 205 206 207
3 208 1 209
3 210 209 50
3 208 209 210
3 212 211 1
3 214 213 13
3 29 215 216
3 218 217 29
3 220 219 2
3 34 16 0
3 53 16 34
3 53 221 223
3 223 222 16
3 221 222 223
3 224 53 225
3 226 225 6
3 224 225 226
3 227 53 228
3 230 229 53
