ply
format ascii 1.0
element vertex 180
property float x
property float y
property float z
element face 137
property list uchar int vertex_index
end_header
-24.680716 -94.317986 3.511598
-25.985506 -76.332664 9.627645
-23.708393 -89.00341 13.810966
-23.228161 -93.151299 8.950747
-25.014954 -89.957352 8.294302
-25.877567 -81.171135 11.313988
-21.951147 -94.626381 8.784482
-22.23 -92.626457 11.420653
-24.439075 -89.399445 11.133822
-23.696394 -96.031784 3.512689
-25.979616 -78.920692 10.304541
-25.9741 -81.03717 8.665721
-22.618916 -90.475227 13.984048
-25.465246 -92.385941 3.151803
-22.835262 -95.351334 6.332359
-23.95619 -93.965683 6.137563
-23.47768 -91.119072 11.349792
-24.260681 -91.683212 8.598739
-24.896593 -92.200165 5.820482
-25.56616 -90.132874 5.465075
-25.961283 -87.959373 5.078304
-25.383183 -83.048874 14.829978
-25.636402 -83.381897 12.104535
-25.912201 -73.968964 8.624833
-25.690176 -73.710556 5.973733
-21.788046 -92.09198 12.786067
-21.558659 -93.094383 11.508738
-24.566507 -95.32399 2.231917
-24.074345 -96.180889 2.232462
-24.188555 -95.174885 3.512144
-25.982561 -77.626678 9.966093
-26.027373 -77.700172 11.269623
-26.030318 -76.406158 10.931175
-25.972982 -77.486427 8.713485
-25.970036 -78.780441 9.051934
-25.982561 -77.626678 9.966093
-25.682504 -92.404965 1.858764
-25.722112 -91.276497 2.962875
-25.938465 -86.823048 6.163528
-25.770276 -87.880123 6.523373
-26.050173 -86.767452 4.823906
-25.938465 -86.823048 6.163528
-25.474874 -81.972595 15.795446
-25.224612 -82.918873 16.216933
-25.81679 -81.056942 12.631713
-25.924526 -79.942299 12.190185
-25.756985 -82.276516 11.709262
-25.696208 -82.162323 13.026986
-25.81679 -81.056942 12.631713
-25.875742 -82.292874 10.308626
-25.755159 -83.398255 10.7039
-25.756985 -82.276516 11.709262
-26.004751 -82.169265 7.691391
-25.995646 -80.995541 7.267575
-25.864398 -72.740917 8.138939
-25.992507 -72.905034 9.428765
-25.682905 -74.814731 5.063223
-25.557676 -73.590481 4.597419
-25.772551 -75.015808 6.381808
-25.682905 -74.814731 5.063223
-21.419232 -94.094345 10.190653
-21.178435 -95.04554 8.916888
-22.090573 -93.626419 10.102567
-21.419232 -94.094345 10.190653
-21.558659 -93.094383 11.508738
-24.515321 -88.365651 12.233056
-24.073734 -89.201427 12.472394
-24.14998 -88.167633 13.571628
-24.782291 -88.498703 10.919342
-24.515321 -88.365651 12.233056
-25.070231 -88.777657 9.499582
-24.727014 -89.678399 9.714062
-24.782291 -88.498703 10.919342
-25.297111 -88.879112 8.131372
-25.070231 -88.777657 9.499582
-23.486295 -97.02185 2.282726
-23.038604 -96.69685 3.655406
-23.486295 -97.02185 2.282726
-24.074345 -96.180889 2.232462
-25.975551 -78.817078 11.685461
-26.027373 -77.700172 11.269623
-25.928591 -80.045914 10.809265
-25.924526 -79.942299 12.190185
-25.975551 -78.817078 11.685461
-25.967278 -79.83868 8.232523
-25.976858 -79.978931 9.485131
-25.970036 -78.780441 9.051934
-25.995646 -80.995541 7.267575
-25.967278 -79.83868 8.232523
-22.216546 -89.994552 15.317009
-21.982504 -91.016365 14.067764
-22.824813 -89.403053 15.168394
-22.216546 -89.994552 15.317009
-23.369552 -88.667145 15.081853
-23.163654 -89.739318 13.897507
-22.824813 -89.403053 15.168394
-23.881559 -87.847576 14.967947
-23.369552 -88.667145 15.081853
-24.14998 -88.167633 13.571628
-23.881559 -87.847576 14.967947
-25.380716 -93.452332 1.957314
-24.98845 -94.418354 2.137212
-25.072981 -93.351964 3.331701
-25.597973 -93.471355 0.664274
-25.380716 -93.452332 1.957314
-25.682504 -92.404965 1.858764
-26.045269 -75.217975 10.486921
-26.030318 -76.406158 10.931175
-21.64466 -95.632923 7.55212
-21.178435 -95.04554 8.916888
-22.086717 -95.995399 6.326059
-21.64466 -95.632923 7.55212
-22.393204 -94.988857 7.558421
-22.608038 -96.356625 5.065241
-22.086717 -95.995399 6.326059
-23.265828 -95.691559 4.922524
-23.038604 -96.69685 3.655406
-22.608038 -96.356625 5.065241
-22.424458 -91.550842 12.70235
-21.788046 -92.09198 12.786067
-21.982504 -91.016365 14.067764
-25.772568 -90.149963 4.119511
-25.722112 -91.276497 2.962875
-25.515703 -91.259408 4.308439
-25.572715 -88.966873 6.716758
-25.290557 -90.045113 6.879689
-25.297111 -88.879112 8.131372
-25.763722 -89.046123 5.271689
-25.572715 -88.966873 6.716758
-25.770276 -87.880123 6.523373
-25.97013 -89.063213 3.926126
-25.772568 -90.149963 4.119511
-25.763722 -89.046123 5.271689
-26.099307 -87.910488 3.690461
-25.97013 -89.063213 3.926126
-26.099307 -87.910488 3.690461
-26.050173 -86.767452 4.823906
-24.566507 -95.32399 2.231917
-24.98845 -94.418354 2.137212
-25.105086 -84.048599 15.138016
-25.224612 -82.918873 16.216933
-25.318172 -84.183785 13.788193
-25.105086 -84.048599 15.138016
-25.569598 -81.995812 14.389708
-25.474874 -81.972595 15.795446
-25.509792 -83.215385 13.467257
-25.569598 -81.995812 14.389708
-25.696208 -82.162323 13.026986
-25.444782 -84.350296 12.425472
-25.318172 -84.183785 13.788193
-25.509792 -83.215385 13.467257
-25.615733 -84.505978 11.088514
-25.444782 -84.350296 12.425472
-25.615733 -84.505978 11.088514
-25.755159 -83.398255 10.7039
-25.924008 -82.225891 8.984493
-25.875742 -82.292874 10.308626
-25.925833 -81.104152 9.989854
-25.924008 -82.225891 8.984493
-26.004751 -82.169265 7.691391
-26.008617 -74.036125 9.985515
-25.992507 -72.905034 9.428765
-25.948853 -75.150814 9.126239
-26.045269 -75.217975 10.486921
-26.008617 -74.036125 9.985515
-25.611828 -72.50269 5.521826
-25.557676 -73.590481 4.597419
-25.753386 -72.611714 6.813389
-25.611828 -72.50269 5.521826
-25.801189 -73.83976 7.299283
-25.864398 -72.740917 8.138939
-25.753386 -72.611714 6.813389
-25.883563 -75.145012 7.707358
-25.801189 -73.83976 7.299283
-25.772551 -75.015808 6.381808
-25.920216 -76.326862 8.208763
-25.948853 -75.150814 9.126239
-25.883563 -75.145012 7.707358
-25.972982 -77.486427 8.713485
-25.920216 -76.326862 8.208763
3 25 7 26
3 0 27 29
3 29 28 9
3 27 28 29
3 1 30 32
3 30 10 31
3 30 31 32
3 1 33 35
3 35 34 10
3 33 34 35
3 37 36 13
3 3 14 6
3 3 15 14
3 2 16 12
3 4 17 8
3 4 18 17
3 4 19 18
3 38 20 39
3 41 40 20
3 42 21 43
3 5 44 45
3 5 46 48
3 46 22 47
3 46 47 48
3 5 49 51
3 51 50 22
3 49 50 51
3 53 52 11
3 54 23 55
3 56 24 57
3 59 58 24
3 60 6 61
3 7 62 64
3 62 6 63
3 62 63 64
3 7 3 6
3 65 8 66
3 67 66 2
3 65 66 67
3 68 8 69
3 70 4 71
3 72 71 8
3 70 71 72
3 74 73 4
3 9 75 76
3 78 77 9
3 10 79 80
3 10 81 83
3 81 5 82
3 81 82 83
3 10 11 5
3 84 11 85
3 86 85 10
3 84 85 86
3 88 87 11
3 89 12 90
3 91 12 92
3 93 2 94
3 95 94 12
3 93 94 95
3 96 2 97
3 99 98 2
3 13 100 102
3 102 101 0
3 100 101 102
3 105 104 13
3 103 104 105
3 106 1 107
3 6 108 109
3 14 110 112
3 112 111 6
3 110 111 112
3 14 113 114
3 14 115 117
3 115 9 116
3 115 116 117
3 15 9 14
3 15 0 9
3 12 118 120
3 118 7 119
3 118 119 120
3 16 7 12
3 16 3 7
3 8 16 2
3 17 16 8
3 17 3 16
3 17 15 3
3 18 15 17
3 18 0 15
3 18 13 0
3 19 13 18
3 19 121 123
3 123 122 13
3 121 122 123
3 124 19 125
3 126 125 4
3 124 125 126
3 20 127 129
3 127 19 128
3 127 128 129
3 20 130 132
3 132 131 19
3 130 131 132
3 20 133 134
3 136 135 20
3 138 137 0
3 21 139 140
3 21 141 142
3 143 21 144
3 22 145 147
3 145 21 146
3 145 146 147
3 22 148 150
3 150 149 21
3 148 149 150
3 22 151 152
3 154 153 22
3 11 155 157
3 157 156 5
3 155 156 157
3 159 158 11
3 23 160 161
3 23 162 164
3 162 1 163
3 162 163 164
3 24 165 166
3 24 167 168
3 24 169 171
3 169 23 170
3 169 170 171
3 172 23 173
3 174 173 24
3 172 173 174
3 175 1 176
3 177 176 23
3 175 176 177
3 179 178 1
