ply
format ascii 1.0
element vertex 406
property float x
property float y
property float z
element face 321
property list uchar int vertex_index
end_header
21.678465 -61.216187 -22.449066
23.400646 -51.765026 -18.603907
22.637928 -62.316193 -15.783028
26.52174 -78.315964 3.661978
18.739723 -57.543106 -29.198486
23.457077 -57.933525 -13.914347
22.974499 -61.984226 -12.706267
22.236986 -56.401718 -20.641214
22.289967 -50.241726 -21.904734
21.134211 -54.892719 -24.017714
19.476191 -53.069351 -27.375044
20.544273 -59.824017 -25.824524
26.898689 -83.860626 3.414801
22.952147 -57.362556 -17.185793
22.295982 -61.916527 -19.107161
23.366957 -60.128235 -11.846946
23.177967 -61.780106 -11.236647
21.880541 -58.955822 -21.582985
21.759766 -55.810242 -22.289986
21.386349 -58.164059 -23.314629
20.767397 -57.406273 -24.99218
26.948692 -85.56031 0.765136
22.956499 -60.135403 -14.866322
23.223579 -57.65554 -15.511898
22.776293 -59.869919 -16.436302
22.540543 -59.634197 -18.15189
22.483257 -62.184807 -17.453663
21.517502 -49.343334 -23.64967
19.565653 -47.380318 -27.07501
18.397444 -51.849964 -29.069744
18.077032 -54.276741 -29.840096
24.515278 -72.10173 -4.754565
26.114813 -80.846474 -3.3057
23.179291 -60.051247 -13.277062
22.800505 -62.255161 -14.134405
22.766785 -54.02755 -19.568815
22.897108 -51.002113 -20.268705
22.250095 -53.418587 -21.287924
21.642296 -52.532997 -22.98414
20.90201 -51.796303 -24.649797
19.986969 -50.811054 -26.382225
20.383471 -54.18354 -25.695969
26.732582 -81.140709 3.50395
26.730106 -82.74614 1.151529
26.794088 -84.540665 -1.237729
23.5495 -55.040203 -16.135334
23.186405 -54.625473 -17.840336
22.643188 -56.737835 -18.936117
22.262434 -59.287651 -19.842857
22.028135 -61.669128 -20.825319
26.757555 -79.124062 5.993119
18.906071 -49.640392 -28.1276
16.473492 -47.012867 -31.381731
15.991785 -49.131744 -32.238316
23.142921 -63.137932 -10.427353
23.277359 -64.172218 -9.296519
22.905054 -63.702923 -11.866806
22.74095 -64.13974 -13.304108
22.502085 -64.47168 -16.554726
21.573425 -63.47839 -23.282867
20.347925 -62.205681 -26.755219
19.522537 -61.241806 -28.390268
19.375645 -63.795258 -29.241579
23.280775 -61.678645 -10.662624
23.390645 -60.930498 -10.832397
21.437717 -60.830811 -23.265453
21.291658 -59.304747 -23.698235
21.532407 -59.690123 -22.881847
23.577675 -50.154194 -18.839475
23.849176 -50.587806 -17.950221
21.426414 -47.813015 -24.000829
21.078659 -48.989992 -24.478965
20.102735 -48.008484 -26.191635
19.949105 -46.369568 -26.539996
18.408378 -55.909924 -29.519291
18.611044 -54.853454 -29.014162
18.94239 -56.486637 -28.693357
18.203854 -57.034866 -30.000922
17.872509 -55.401684 -30.321727
18.408378 -55.909924 -29.519291
24.431348 -72.830082 -5.76078
24.681351 -73.326103 -4.764649
26.351958 -77.843041 2.527214
26.416516 -76.945148 3.711406
20.284548 -58.176395 -26.217182
20.39611 -56.967523 -25.80101
20.655835 -58.615145 -25.408352
20.143361 -59.353558 -26.662768
20.284548 -58.176395 -26.217182
26.910497 -85.868424 -1.481515
26.87139 -85.050488 -0.236297
26.987799 -86.378246 -0.480083
26.844825 -85.468777 -2.549314
26.910497 -85.868424 -1.481515
23.659909 -56.652533 -14.207263
23.789293 -56.832018 -13.415771
26.828027 -79.545193 7.214326
26.807257 -78.16391 7.224839
26.87773 -78.585041 8.446046
26.884356 -80.921966 7.129191
26.813884 -80.500835 5.907984
26.828027 -79.545193 7.214326
22.684293 -48.989345 -21.379401
22.987863 -49.369539 -20.561386
22.593538 -50.62192 -21.08672
18.078323 -50.172477 -29.40867
17.827807 -51.255104 -29.861674
16.865831 -48.836556 -31.017667
17.116347 -47.753929 -30.564663
16.624977 -49.895994 -31.44596
16.232639 -48.072305 -31.810023
16.865831 -48.836556 -31.017667
23.495382 -63.646849 -8.502948
23.395209 -63.186533 -9.174133
25.919794 -79.603814 -3.21172
25.919571 -80.393417 -4.340582
22.940849 -64.473379 -11.342011
23.023988 -63.420428 -11.14708
23.059783 -64.190883 -10.622284
22.706682 -65.246109 -13.603088
22.763038 -65.008194 -12.854084
22.674956 -64.305821 -14.10485
22.706682 -65.246109 -13.603088
22.519106 -65.731426 -16.854044
22.548869 -65.592591 -16.051379
22.445732 -64.515583 -17.34926
22.519106 -65.731426 -16.854044
21.563281 -64.727271 -23.70104
21.774146 -64.949995 -22.831783
21.317228 -63.219843 -24.12624
21.563281 -64.727271 -23.70104
20.306861 -63.520344 -27.178304
20.647709 -63.782821 -26.354645
19.894167 -63.038407 -27.995829
19.935231 -61.723743 -27.572744
20.306861 -63.520344 -27.178304
18.813457 -63.098408 -30.080945
19.256888 -64.903774 -29.716384
18.969468 -61.990225 -29.605218
18.813457 -63.098408 -30.080945
23.48514 -60.104563 -11.137547
23.649677 -59.171413 -11.367374
23.272462 -60.954171 -11.541797
23.48514 -60.104563 -11.137547
23.390645 -60.930498 -10.832397
20.982183 -58.925854 -24.537011
21.076873 -57.785166 -24.153405
21.291658 -59.304747 -23.698235
20.870621 -60.134726 -24.953183
20.655835 -58.615145 -25.408352
20.982183 -58.925854 -24.537011
26.963934 -85.992848 1.936098
26.92369 -84.710468 2.089969
26.938932 -85.143006 3.260931
27.006458 -86.944187 0.584716
26.963934 -85.992848 1.936098
27.0217 -87.376724 1.755678
26.987799 -86.378246 -0.480083
27.006458 -86.944187 0.584716
21.882133 -48.243433 -23.135814
22.268365 -48.692629 -22.263346
21.903734 -49.79253 -22.777202
21.882133 -48.243433 -23.135814
21.426414 -47.813015 -24.000829
19.355208 -45.821576 -27.404995
19.949105 -46.369568 -26.539996
18.951607 -46.848642 -27.954981
19.355208 -45.821576 -27.404995
18.77125 -53.640066 -28.628985
18.936818 -52.459657 -28.222394
19.310623 -54.249759 -27.781636
18.237238 -53.063353 -29.45492
18.77125 -53.640066 -28.628985
18.611044 -54.853454 -29.014162
17.6676 -52.468492 -30.246849
17.827807 -51.255104 -29.861674
18.237238 -53.063353 -29.45492
17.496905 -53.644051 -30.632726
17.6676 -52.468492 -30.246849
17.496905 -53.644051 -30.632726
17.872509 -55.401684 -30.321727
24.277795 -71.580616 -5.666175
24.419827 -70.865814 -4.671721
24.277795 -71.580616 -5.666175
24.431348 -72.830082 -5.76078
26.323686 -82.214989 -3.402069
26.296836 -81.370404 -2.192455
26.145585 -81.663983 -4.442911
26.323686 -82.214989 -3.402069
25.919571 -80.393417 -4.340582
26.145585 -81.663983 -4.442911
23.59039 -57.949892 -13.131611
23.789293 -56.832018 -13.415771
23.54533 -59.047247 -12.097911
23.649677 -59.171413 -11.367374
23.451497 -59.008753 -12.812969
23.54533 -59.047247 -12.097911
23.273124 -60.089741 -12.562004
23.318184 -58.992386 -13.595705
23.59039 -57.949892 -13.131611
23.451497 -59.008753 -12.812969
20.770913 -50.216476 -24.979028
21.078659 -48.989992 -24.478965
21.209756 -50.569818 -24.149733
20.444489 -51.303679 -25.516011
20.313392 -49.723852 -25.845242
20.770913 -50.216476 -24.979028
20.204147 -55.356157 -26.152904
20.575434 -55.794906 -25.344075
20.39611 -56.967523 -25.80101
19.750507 -54.799062 -26.992442
19.929831 -53.626446 -26.535507
20.204147 -55.356157 -26.152904
19.310623 -54.249759 -27.781636
19.750507 -54.799062 -26.992442
19.241086 -58.213103 -28.349748
18.94239 -56.486637 -28.693357
24.639469 -71.305774 -3.778143
24.419827 -70.865814 -4.671721
24.760814 -72.496143 -3.711683
24.639469 -71.305774 -3.778143
24.681351 -73.326103 -4.764649
24.760814 -72.496143 -3.711683
26.596131 -80.555172 2.405957
26.49071 -79.142799 2.484971
26.627161 -79.728336 3.582964
26.594893 -81.357888 1.229746
26.596131 -80.555172 2.405957
26.731344 -81.943424 2.327739
26.604482 -82.320236 0.036159
26.594893 -81.357888 1.229746
26.636474 -83.217499 -1.15847
26.604482 -82.320236 0.036159
26.762097 -83.643403 -0.0431
26.663323 -84.062084 -2.368084
26.636474 -83.217499 -1.15847
26.663323 -84.062084 -2.368084
26.844825 -85.468777 -2.549314
23.643958 -52.032325 -17.705748
23.849176 -50.587806 -17.950221
23.54316 -56.51354 -15.006039
23.659909 -56.652533 -14.207263
23.340328 -57.794533 -14.713123
23.70612 -55.205872 -15.317757
23.54316 -56.51354 -15.006039
23.386539 -56.347871 -15.823616
23.935608 -53.866672 -15.581547
23.70612 -55.205872 -15.317757
23.718385 -53.669914 -16.471462
23.935608 -53.866672 -15.581547
23.536838 -53.462549 -17.323963
23.718385 -53.669914 -16.471462
23.367953 -54.832838 -16.987835
23.293526 -53.19525 -18.222122
23.643958 -52.032325 -17.705748
23.536838 -53.462549 -17.323963
26.57007 -77.373112 4.836621
26.416516 -76.945148 3.711406
26.687978 -77.777161 6.002192
26.73768 -76.817009 7.233912
26.807257 -78.16391 7.224839
26.639648 -78.720013 4.827548
26.57007 -77.373112 4.836621
26.687978 -77.777161 6.002192
26.801398 -81.509159 4.663399
26.745069 -80.132385 4.748534
26.813884 -80.500835 5.907984
26.884451 -82.869118 4.618825
26.815635 -82.500667 3.459376
26.801398 -81.509159 4.663399
26.906668 -84.174762 4.615189
26.884451 -82.869118 4.618825
26.938932 -85.143006 3.260931
26.906668 -84.174762 4.615189
23.325906 -49.772738 -19.671874
23.577675 -50.154194 -18.839475
23.148877 -51.38357 -19.436306
23.325906 -49.772738 -19.671874
22.987863 -49.369539 -20.561386
22.684293 -48.989345 -21.379401
22.268365 -48.692629 -22.263346
19.776311 -49.095686 -26.728617
20.102735 -48.008484 -26.191635
20.313392 -49.723852 -25.845242
18.621816 -47.978679 -28.481276
18.951607 -46.848642 -27.954981
19.235862 -48.510355 -27.601305
18.332637 -49.067691 -28.937598
18.651758 -50.745178 -28.598672
18.078323 -50.172477 -29.40867
18.621816 -47.978679 -28.481276
18.332637 -49.067691 -28.937598
16.815214 -46.069378 -30.872315
17.116347 -47.753929 -30.564663
16.139667 -45.373596 -31.682249
16.815214 -46.069378 -30.872315
15.818056 -46.282455 -32.159503
16.139667 -45.373596 -31.682249
15.577203 -47.341894 -32.587795
15.818056 -46.282455 -32.159503
16.232639 -48.072305 -31.810023
15.320101 -48.378124 -33.030158
15.577203 -47.341894 -32.587795
16.454282 -51.071552 -31.831836
16.624977 -49.895994 -31.44596
15.771591 -50.173606 -32.662651
16.454282 -51.071552 -31.831836
15.320101 -48.378124 -33.030158
15.771591 -50.173606 -32.662651
23.32799 -62.66939 -9.73955
23.263252 -62.357557 -10.257977
23.21014 -63.655075 -9.861936
23.32799 -62.66939 -9.73955
23.395209 -63.186533 -9.174133
23.127002 -64.708027 -10.056867
23.059783 -64.190883 -10.622284
23.21014 -63.655075 -9.861936
23.394317 -64.769795 -8.614018
23.495382 -63.646849 -8.502948
23.232562 -65.320453 -9.406122
23.394317 -64.769795 -8.614018
23.127002 -64.708027 -10.056867
23.232562 -65.320453 -9.406122
26.351958 -77.843041 2.527214
26.49071 -79.142799 2.484971
26.116293 -80.038525 -2.172505
26.296836 -81.370404 -2.192455
26.116293 -80.038525 -2.172505
25.919794 -79.603814 -3.21172
23.160444 -62.459019 -10.832
23.280775 -61.678645 -10.662624
23.263252 -62.357557 -10.257977
22.84509 -64.789785 -12.135434
22.940849 -64.473379 -11.342011
22.823002 -63.921332 -12.585457
22.84509 -64.789785 -12.135434
22.763038 -65.008194 -12.854084
22.704733 -63.363531 -14.519998
22.770727 -63.197451 -13.719257
22.674956 -64.305821 -14.10485
22.623444 -63.394047 -15.34431
22.719217 -62.285677 -14.958716
22.704733 -63.363531 -14.519998
22.555523 -64.47179 -15.730159
22.548869 -65.592591 -16.051379
22.570006 -63.393937 -16.168877
22.623444 -63.394047 -15.34431
22.555523 -64.47179 -15.730159
22.436318 -63.372146 -17.798729
22.492671 -63.328243 -17.004194
22.445732 -64.515583 -17.34926
22.342681 -63.238007 -18.625478
22.389619 -62.050667 -18.280412
22.436318 -63.372146 -17.798729
22.25804 -63.132534 -19.485256
22.342681 -63.238007 -18.625478
22.124116 -63.008834 -20.344335
22.162059 -61.792828 -19.96624
22.25804 -63.132534 -19.485256
21.99559 -62.860363 -21.191737
22.124116 -63.008834 -20.344335
21.820755 -62.633893 -22.003611
21.8533 -61.442657 -21.637192
21.99559 -62.860363 -21.191737
21.768235 -63.764994 -22.420511
21.774146 -64.949995 -22.831783
21.625945 -62.347288 -22.865966
21.820755 -62.633893 -22.003611
21.768235 -63.764994 -22.420511
21.385196 -61.961912 -23.682354
21.437717 -60.830811 -23.265453
21.625945 -62.347288 -22.865966
21.385196 -61.961912 -23.682354
21.317228 -63.219843 -24.12624
20.802652 -61.392657 -25.397068
20.870621 -60.134726 -24.953183
20.704478 -62.583489 -25.862416
20.647709 -63.782821 -26.354645
20.446099 -61.014849 -26.289872
20.802652 -61.392657 -25.397068
20.704478 -62.583489 -25.862416
20.045187 -60.54439 -27.128115
20.143361 -59.353558 -26.662768
20.446099 -61.014849 -26.289872
19.632493 -60.062452 -27.945639
20.045187 -60.54439 -27.128115
19.935231 -61.723743 -27.572744
19.13113 -59.392456 -28.794377
19.241086 -58.213103 -28.349748
19.632493 -60.062452 -27.945639
19.73607 -65.395893 -28.90735
19.256888 -64.903774 -29.716384
19.820721 -64.315133 -28.421484
20.181146 -65.915768 -28.087255
19.73607 -65.395893 -28.90735
19.449091 -62.518532 -28.815924
19.894167 -63.038407 -27.995829
19.820721 -64.315133 -28.421484
19.042915 -60.713499 -29.179562
19.449091 -62.518532 -28.815924
18.969468 -61.990225 -29.605218
18.651508 -58.864149 -29.583672
19.13113 -59.392456 -28.794377
19.042915 -60.713499 -29.179562
18.203854 -57.034866 -30.000922
18.651508 -58.864149 -29.583672
3 63 16 64
3 0 19 17
3 0 65 67
3 67 66 19
3 65 66 67
3 2 24 22
3 2 26 24
3 1 68 69
3 71 70 27
3 72 28 73
3 4 74 76
3 74 30 75
3 74 75 76
3 4 77 79
3 79 78 30
3 77 78 79
3 81 80 31
3 3 82 83
3 6 33 15
3 6 34 33
3 7 37 35
3 9 38 18
3 9 39 38
3 9 41 39
3 11 84 86
3 86 85 20
3 84 85 86
3 11 87 88
3 12 43 42
3 89 44 90
3 91 90 21
3 89 90 91
3 93 92 44
3 5 94 95
3 13 45 23
3 13 46 45
3 13 47 46
3 14 48 25
3 14 49 48
3 96 50 97
3 96 97 98
3 101 100 50
3 99 100 101
3 8 102 104
3 104 103 36
3 102 103 104
3 10 51 40
3 106 105 29
3 107 52 108
3 109 53 110
3 111 110 52
3 109 110 111
3 112 55 113
3 115 114 32
3 116 56 117
3 118 117 54
3 116 117 118
3 119 57 120
3 122 121 57
3 123 58 124
3 126 125 58
3 127 59 128
3 130 129 59
3 131 60 132
3 133 61 134
3 135 134 60
3 133 134 135
3 136 62 137
3 139 138 62
3 140 15 141
3 16 142 144
3 142 15 143
3 142 143 144
3 16 6 15
3 17 18 7
3 19 18 17
3 19 9 18
3 19 20 9
3 145 20 146
3 147 146 19
3 145 146 147
3 148 11 149
3 150 149 20
3 148 149 150
3 151 21 152
3 153 152 12
3 151 152 153
3 154 21 155
3 154 155 156
3 158 157 21
3 22 23 5
3 24 23 22
3 24 13 23
3 24 25 13
3 26 25 24
3 26 14 25
3 27 159 161
3 161 160 8
3 159 160 161
3 163 162 27
3 28 164 165
3 28 166 167
3 168 29 169
3 170 169 10
3 168 169 170
3 30 171 173
3 171 29 172
3 171 172 173
3 30 174 176
3 176 175 29
3 174 175 176
3 30 177 178
3 180 179 30
3 31 181 182
3 184 183 31
3 185 32 186
3 187 32 188
3 190 189 32
3 191 5 192
3 15 193 194
3 33 195 197
3 197 196 15
3 195 196 197
3 33 198 200
3 198 5 199
3 198 199 200
3 33 22 5
3 34 22 33
3 34 2 22
3 35 36 1
3 37 36 35
3 37 8 36
3 18 37 7
3 38 37 18
3 38 8 37
3 38 27 8
3 39 27 38
3 39 201 203
3 203 202 27
3 201 202 203
3 39 204 206
3 204 40 205
3 204 205 206
3 41 40 39
3 41 10 40
3 20 41 9
3 207 41 208
3 209 208 20
3 207 208 209
3 210 10 211
3 212 211 41
3 210 211 212
3 214 213 10
3 215 4 216
3 217 31 218
3 219 31 220
3 222 221 31
3 42 223 225
3 225 224 3
3 223 224 225
3 43 226 228
3 228 227 42
3 226 227 228
3 43 229 230
3 21 43 12
3 44 43 21
3 44 231 233
3 233 232 43
3 231 232 233
3 44 234 235
3 237 236 44
3 238 1 239
3 23 240 242
3 242 241 5
3 240 241 242
3 45 243 245
3 245 244 23
3 243 244 245
3 45 246 247
3 45 248 249
3 46 250 252
3 252 251 45
3 250 251 252
3 46 253 255
3 253 1 254
3 253 254 255
3 46 35 1
3 47 35 46
3 47 7 35
3 25 47 13
3 48 47 25
3 48 7 47
3 48 17 7
3 49 17 48
3 49 0 17
3 256 3 257
3 50 258 260
3 258 259 260
3 50 261 263
3 261 3 262
3 261 262 263
3 50 42 3
3 264 42 265
3 266 265 50
3 264 265 266
3 267 12 268
3 269 268 42
3 267 268 269
3 270 12 271
3 273 272 12
3 36 274 276
3 276 275 1
3 274 275 276
3 278 277 36
3 280 279 8
3 40 281 283
3 281 28 282
3 281 282 283
3 51 28 40
3 51 284 286
3 286 285 28
3 284 285 286
3 29 51 10
3 287 51 288
3 289 288 29
3 287 288 289
3 291 290 51
3 52 292 293
3 52 294 295
3 52 296 297
3 53 298 300
3 300 299 52
3 298 299 300
3 53 301 302
3 303 53 304
3 305 53 306
3 308 307 53
3 309 54 310
3 55 311 313
3 311 54 312
3 311 312 313
3 55 314 316
3 316 315 54
3 314 315 316
3 317 55 318
3 319 55 320
3 322 321 55
3 324 323 3
3 32 325 326
3 328 327 32
3 54 329 331
3 329 16 330
3 329 330 331
3 56 16 54
3 56 6 16
3 332 56 333
3 57 334 336
3 334 56 335
3 334 335 336
3 57 6 56
3 57 34 6
3 337 34 338
3 339 338 57
3 337 338 339
3 340 2 341
3 342 341 34
3 340 341 342
3 58 343 344
3 58 345 347
3 345 2 346
3 345 346 347
3 58 26 2
3 348 26 349
3 350 349 58
3 348 349 350
3 351 14 352
3 353 352 26
3 351 352 353
3 354 14 355
3 356 49 357
3 358 357 14
3 356 357 358
3 359 49 360
3 361 0 362
3 363 362 49
3 361 362 363
3 59 364 365
3 59 366 368
3 366 0 367
3 366 367 368
3 59 369 371
3 371 370 0
3 369 370 371
3 373 372 59
3 374 11 375
3 60 376 377
3 60 378 380
3 378 11 379
3 378 379 380
3 60 381 383
3 383 382 11
3 381 382 383
3 61 384 386
3 386 385 60
3 384 385 386
3 61 387 389
3 387 4 388
3 387 388 389
3 62 390 391
3 62 392 394
3 392 393 394
3 62 395 397
3 395 61 396
3 395 396 397
3 398 61 399
3 400 399 62
3 398 399 400
3 401 4 402
3 403 402 61
3 401 402 403
3 405 404 4
