ply
format ascii 1.0
element vertex 308
property float x
property float y
property float z
element face 252
property list uchar int vertex_index
end_header
15.770384 19.823299 -21.647617
25.076122 7.595218 -22.21653
19.173136 20.260698 -28.658756
25.133251 15.203015 -30.633701
15.273171 23.466028 -23.47094
16.698603 23.728895 -27.252743
22.09338 10.308691 -22.046072
22.196037 13.67132 -25.934597
25.190578 11.195137 -26.316114
28.331184 8.843018 -26.606977
19.41856 16.504137 -25.31613
21.974676 17.406845 -29.618822
28.282274 12.854434 -30.941963
27.865175 16.952135 -35.228767
27.11717 21.120329 -39.650032
15.545788 21.310804 -22.408566
16.192823 21.389696 -24.076124
23.542295 8.99267 -22.197321
23.689213 10.612522 -24.189125
25.195612 9.322715 -24.258615
18.955683 22.252005 -30.242022
19.951641 22.910383 -32.544498
23.640038 14.344808 -28.217287
22.097754 15.480796 -27.749407
23.489656 16.203379 -30.049482
23.444567 18.113663 -32.052517
24.927778 17.060698 -32.470375
28.442745 10.880837 -28.912834
30.682852 16.92709 -38.10511
29.47027 15.974754 -35.637115
29.15543 17.941158 -37.736217
27.570478 19.007421 -37.418026
15.695475 25.833874 -26.645046
15.957536 23.537985 -25.345364
20.848688 13.333374 -23.914371
22.188324 11.844989 -23.914734
23.618986 12.468911 -26.167717
25.122061 13.186759 -28.426937
14.265712 35.725758 -32.272511
16.438026 25.968742 -28.694178
26.638733 8.186471 -24.367916
23.512123 7.274281 -20.174498
24.989634 6.010427 -20.336126
17.253048 18.051128 -23.205515
19.295418 18.317987 -26.954556
20.789867 15.005111 -25.654247
20.659441 16.802553 -27.355831
20.503557 18.676767 -29.04557
21.793085 19.39608 -31.466534
26.886471 10.049119 -26.619652
26.734922 11.924504 -28.529984
26.71191 13.946425 -30.733755
29.745249 13.908037 -33.478275
28.19692 14.872567 -33.133556
26.560402 16.035738 -32.92276
26.268265 18.065527 -34.958107
25.893593 20.148279 -37.048664
16.061087 19.725389 -22.259917
15.948788 20.469141 -22.640391
15.658086 20.567051 -22.028092
19.06441 21.256352 -29.450389
18.415106 22.086891 -29.121151
18.523832 21.091237 -28.329518
19.76826 20.528742 -29.823763
19.659534 21.524396 -30.615396
19.06441 21.256352 -29.450389
29.663815 18.451346 -38.990007
29.919141 17.434124 -37.920664
30.427526 17.944311 -39.174453
28.902461 18.995363 -38.842329
29.663815 18.451346 -38.990007
15.615353 23.502007 -24.408152
15.487291 24.658192 -24.982078
15.145109 24.622214 -24.044866
16.569515 21.485694 -24.975138
16.699348 20.493609 -24.337995
22.140852 11.07684 -22.980403
21.462912 11.798179 -22.938672
21.415439 11.03003 -22.004341
20.515985 23.265993 -33.820475
20.752774 22.196942 -32.964044
14.487023 35.669456 -33.48182
14.716992 34.529562 -32.655787
22.789983 7.252044 -19.252733
22.801038 8.015604 -20.191065
25.011503 5.127591 -19.348443
24.280829 5.819101 -19.320587
25.76531 5.267029 -20.295403
25.011503 5.127591 -19.348443
17.28909 17.349381 -22.525264
16.836078 18.179612 -22.442375
18.820094 17.239036 -25.103678
18.877578 16.423353 -24.367578
19.356989 17.411062 -26.135343
18.758523 18.145961 -25.922891
18.820094 17.239036 -25.103678
23.246212 19.18591 -32.999451
24.070107 18.634442 -33.316904
30.374523 14.361287 -34.647247
30.525325 13.294355 -33.549524
26.27981 21.706266 -39.45068
25.668022 21.22024 -38.149996
26.505381 20.634304 -38.349348
26.780276 22.206277 -40.776144
26.27981 21.706266 -39.45068
16.272306 20.508587 -23.47417
15.869305 21.35025 -23.242345
15.948788 20.469141 -22.640391
16.699348 20.493609 -24.337995
16.272306 20.508587 -23.47417
17.144936 23.892039 -28.358018
17.286566 22.825336 -27.626511
18.273476 23.153594 -29.852657
18.415106 22.086891 -29.121151
18.720363 23.40675 -30.985135
18.273476 23.153594 -29.852657
19.453662 22.581194 -31.39326
19.218342 23.735939 -32.136373
18.720363 23.40675 -30.985135
20.157512 21.853585 -31.766634
19.453662 22.581194 -31.39326
19.659534 21.524396 -30.615396
20.752774 22.196942 -32.964044
20.157512 21.853585 -31.766634
19.481804 15.679869 -24.536703
18.877578 16.423353 -24.367578
24.811712 18.10796 -33.525833
24.070107 18.634442 -33.316904
24.186172 17.58718 -32.261446
29.16022 10.23941 -28.867753
28.386964 9.861928 -27.759906
29.104439 9.2205 -27.714824
29.156011 11.347368 -30.073267
29.16022 10.23941 -28.867753
29.075775 12.334167 -31.087832
28.36251 11.867635 -29.927399
29.156011 11.347368 -30.073267
30.076561 16.450922 -36.871113
30.237033 15.394646 -35.726667
30.843324 15.870814 -36.960665
28.109985 19.528495 -38.683234
28.362954 18.47429 -37.577122
28.902461 18.995363 -38.842329
27.883331 20.584949 -39.799237
27.343824 20.063875 -38.534029
28.109985 19.528495 -38.683234
27.588907 21.659156 -40.986428
27.883331 20.584949 -39.799237
15.356261 25.806137 -25.631919
15.246703 26.96189 -26.254058
15.826505 24.68593 -25.995205
15.356261 25.806137 -25.631919
15.487291 24.658192 -24.982078
16.451871 22.559838 -25.609758
16.07518 22.46384 -24.710744
16.569515 21.485694 -24.975138
16.822405 22.655293 -26.563448
16.328069 23.63344 -26.299053
16.451871 22.559838 -25.609758
17.286566 22.825336 -27.626511
16.822405 22.655293 -26.563448
18.619946 20.067398 -27.551289
18.523832 21.091237 -28.329518
20.793093 12.542371 -22.938491
20.192857 13.33621 -22.974441
21.518506 12.589181 -23.914552
20.793093 12.542371 -22.938491
21.462912 11.798179 -22.938672
31.422136 16.327403 -38.211872
30.843324 15.870814 -36.960665
31.204991 17.333329 -39.308729
31.422136 16.327403 -38.211872
30.427526 17.944311 -39.174453
31.204991 17.333329 -39.308729
14.073557 35.778878 -31.098956
13.883634 37.073746 -31.873724
14.469905 34.448177 -31.454448
14.073557 35.778878 -31.098956
14.716992 34.529562 -32.655787
14.469905 34.448177 -31.454448
15.5412 27.043335 -27.298279
15.246703 26.96189 -26.254058
15.912475 27.110769 -28.322845
15.5412 27.043335 -27.298279
16.066751 25.901308 -27.669612
16.237453 27.18918 -29.372357
15.912475 27.110769 -28.322845
17.014648 25.011962 -29.078736
16.568314 24.848819 -27.973461
17.144936 23.892039 -28.358018
16.81131 26.230306 -29.849874
17.014648 25.011962 -29.078736
16.237453 27.18918 -29.372357
16.81131 26.230306 -29.849874
19.778333 23.969786 -33.417301
19.218342 23.735939 -32.136373
19.778333 23.969786 -33.417301
20.515985 23.265993 -33.820475
26.663902 7.219362 -23.334508
25.857428 7.890845 -23.292223
25.882597 6.923736 -22.258815
27.454756 7.54188 -24.418378
26.663902 7.219362 -23.334508
28.300981 7.870154 -25.537909
27.484958 8.514744 -25.487447
27.454756 7.54188 -24.418378
29.067557 8.22346 -26.617704
28.300981 7.870154 -25.537909
29.104439 9.2205 -27.714824
29.067557 8.22346 -26.617704
14.00556 37.003622 -33.011677
13.883634 37.073746 -31.873724
14.00556 37.003622 -33.011677
14.487023 35.669456 -33.48182
15.708351 19.525667 -21.087407
15.452202 20.479906 -21.28661
14.883465 24.577401 -23.102752
15.145109 24.622214 -24.044866
15.046394 23.298243 -22.598599
14.883465 24.577401 -23.102752
15.182703 22.220631 -22.067411
15.409479 22.388416 -22.939753
15.046394 23.298243 -22.598599
15.339904 21.223658 -21.667084
15.182703 22.220631 -22.067411
15.452202 20.479906 -21.28661
15.658086 20.567051 -22.028092
15.339904 21.223658 -21.667084
16.094746 19.065697 -21.663426
15.708351 19.525667 -21.087407
21.407304 10.297266 -21.116872
21.415439 11.03003 -22.004341
22.091667 9.532809 -21.126852
21.407304 10.297266 -21.116872
22.816125 8.874799 -21.202476
22.817837 9.65068 -22.121696
22.091667 9.532809 -21.126852
23.527209 8.133475 -21.18591
22.816125 8.874799 -21.202476
22.801038 8.015604 -20.191065
23.542074 6.451028 -19.239773
22.789983 7.252044 -19.252733
24.250878 6.642354 -20.255312
23.542074 6.451028 -19.239773
24.280829 5.819101 -19.320587
25.839353 6.131341 -21.318613
25.882597 6.923736 -22.258815
25.032878 6.802822 -21.276328
25.839353 6.131341 -21.318613
25.76531 5.267029 -20.295403
16.061087 19.725389 -22.259917
16.094746 19.065697 -21.663426
16.802419 18.839303 -23.038866
16.836078 18.179612 -22.442375
17.22946 18.824326 -23.902691
16.802419 18.839303 -23.038866
17.794823 17.196849 -23.31227
17.28909 17.349381 -22.525264
17.737338 18.012532 -24.04837
17.794823 17.196849 -23.31227
17.22946 18.824326 -23.902691
17.737338 18.012532 -24.04837
18.681088 19.096042 -26.699189
18.758523 18.145961 -25.922891
19.234277 19.289343 -27.806656
18.619946 20.067398 -27.551289
18.681088 19.096042 -26.699189
20.196868 14.094488 -23.835823
20.192857 13.33621 -22.974441
20.167458 14.930356 -24.705761
20.196868 14.094488 -23.835823
20.819277 14.169242 -24.784309
20.104214 15.754624 -25.485188
19.481804 15.679869 -24.536703
20.167458 14.930356 -24.705761
20.43347 19.736777 -30.01717
19.76826 20.528742 -29.823763
19.838347 19.468733 -28.852163
21.078235 20.096433 -31.227652
20.43347 19.736777 -30.01717
21.148321 19.036424 -30.256052
21.673496 20.43979 -32.425063
21.078235 20.096433 -31.227652
22.420471 19.827118 -32.706459
22.618826 18.754872 -31.759526
23.246212 19.18591 -32.999451
21.673496 20.43979 -32.425063
22.420471 19.827118 -32.706459
29.807263 12.860969 -32.355987
30.525325 13.294355 -33.549524
29.013762 13.381235 -32.210119
29.075775 12.334167 -31.087832
29.807263 12.860969 -32.355987
29.60776 14.941396 -34.557695
30.374523 14.361287 -34.647247
30.237033 15.394646 -35.726667
25.481955 18.610374 -34.769699
24.811712 18.10796 -33.525833
25.598022 17.563112 -33.714241
25.294619 19.65175 -35.814977
25.481955 18.610374 -34.769699
26.080929 19.106903 -36.003386
25.060238 20.745023 -36.830002
25.294619 19.65175 -35.814977
25.060238 20.745023 -36.830002
25.668022 21.22024 -38.149996
26.780276 22.206277 -40.776144
27.588907 21.659156 -40.986428
3 0 57 59
3 59 58 15
3 57 58 59
3 1 19 17
3 2 60 62
3 60 20 61
3 60 61 62
3 2 63 65
3 65 64 20
3 63 64 65
3 3 24 22
3 3 26 24
3 66 30 67
3 68 67 28
3 66 67 68
3 70 69 30
3 4 71 73
3 71 33 72
3 71 72 73
3 75 74 16
3 6 76 78
3 76 35 77
3 76 77 78
3 8 36 18
3 8 37 36
3 5 39 32
3 80 79 21
3 82 81 38
3 83 41 84
3 85 42 86
3 88 87 42
3 89 43 90
3 10 91 92
3 10 93 95
3 93 44 94
3 93 94 95
3 7 45 34
3 11 46 23
3 11 47 46
3 11 48 47
3 97 96 25
3 9 49 40
3 12 50 27
3 12 51 50
3 98 52 99
3 13 53 29
3 13 54 53
3 13 55 54
3 14 56 31
3 14 100 102
3 102 101 56
3 100 101 102
3 14 103 104
3 15 16 4
3 105 16 106
3 107 106 15
3 105 106 107
3 109 108 16
3 17 18 6
3 19 18 17
3 19 8 18
3 111 110 5
3 20 112 113
3 20 114 115
3 20 116 118
3 116 21 117
3 116 117 118
3 119 21 120
3 121 120 20
3 119 120 121
3 123 122 21
3 124 10 125
3 22 23 7
3 24 23 22
3 24 11 23
3 24 25 11
3 26 25 24
3 26 126 128
3 128 127 25
3 126 127 128
3 129 27 130
3 131 130 9
3 129 130 131
3 132 27 133
3 134 12 135
3 136 135 27
3 134 135 136
3 28 137 139
3 137 29 138
3 137 138 139
3 30 29 28
3 30 13 29
3 30 31 13
3 140 31 141
3 142 141 30
3 140 141 142
3 143 14 144
3 145 144 31
3 143 144 145
3 147 146 14
3 148 32 149
3 33 150 152
3 150 32 151
3 150 151 152
3 33 5 32
3 16 33 4
3 153 33 154
3 155 154 16
3 153 154 155
3 156 5 157
3 158 157 33
3 156 157 158
3 160 159 5
3 161 2 162
3 163 34 164
3 35 165 167
3 165 34 166
3 165 166 167
3 35 7 34
3 18 35 6
3 36 35 18
3 36 7 35
3 36 22 7
3 37 22 36
3 37 3 22
3 168 28 169
3 170 28 171
3 173 172 28
3 174 38 175
3 176 38 177
3 179 178 38
3 32 180 181
3 39 182 184
3 184 183 32
3 182 183 184
3 39 185 186
3 187 39 188
3 189 188 5
3 187 188 189
3 190 39 191
3 193 192 39
3 21 194 195
3 197 196 21
3 198 40 199
3 200 199 1
3 198 199 200
3 201 40 202
3 203 9 204
3 205 204 40
3 203 204 205
3 206 9 207
3 209 208 9
3 38 210 211
3 213 212 38
3 215 214 0
3 216 4 217
3 218 4 219
3 220 15 221
3 222 221 4
3 220 221 222
3 223 15 224
3 225 0 226
3 227 226 15
3 225 226 227
3 229 228 0
3 230 6 231
3 232 6 233
3 234 17 235
3 236 235 6
3 234 235 236
3 41 237 239
3 237 17 238
3 237 238 239
3 41 1 17
3 240 41 241
3 42 242 244
3 242 41 243
3 242 243 244
3 42 1 41
3 42 245 247
3 247 246 1
3 245 246 247
3 249 248 42
3 251 250 0
3 43 252 253
3 43 254 255
3 256 43 257
3 258 43 259
3 261 260 43
3 44 262 263
3 44 264 266
3 264 2 265
3 264 265 266
3 34 267 268
3 45 269 271
3 271 270 34
3 269 270 271
3 45 272 274
3 272 10 273
3 272 273 274
3 23 45 7
3 46 45 23
3 46 10 45
3 46 44 10
3 47 44 46
3 47 2 44
3 47 275 277
3 277 276 2
3 275 276 277
3 48 278 280
3 280 279 47
3 278 279 280
3 48 281 282
3 25 48 11
3 283 48 284
3 285 284 25
3 283 284 285
3 287 286 48
3 40 19 1
3 49 19 40
3 49 8 19
3 27 49 9
3 50 49 27
3 50 8 49
3 50 37 8
3 51 37 50
3 51 3 37
3 52 288 289
3 52 290 292
3 290 12 291
3 290 291 292
3 29 293 295
3 293 52 294
3 293 294 295
3 53 52 29
3 53 12 52
3 53 51 12
3 54 51 53
3 54 3 51
3 54 26 3
3 55 26 54
3 55 296 298
3 298 297 26
3 296 297 298
3 31 55 13
3 56 55 31
3 56 299 301
3 301 300 55
3 299 300 301
3 56 302 303
3 305 304 56
3 307 306 14
