ply
format ascii 1.0
element vertex 631
property float x
property float y
property float z
element face 601
property list uchar int vertex_index
end_header
11.678028 -75.885155 35.820042
-0.431999 -71.285469 30.577602
-0.944098 -54.960773 45.379211
-3.992875 -45.195202 48.778034
-8.968554 -41.885063 43.476032
8.055037 -67.669212 43.143166
5.486824 -73.89801 32.404224
-3.625432 -53.200935 43.278324
-2.084158 -58.167946 41.223392
10.526009 -79.48587 29.998857
-11.455201 -40.284847 41.230034
9.367559 -64.854622 48.350254
6.32924 -63.176182 46.669785
0.934862 -67.769302 35.197144
3.744562 -69.108902 36.384705
2.422131 -72.458885 31.362099
4.052433 -77.445435 26.986565
1.02781 -76.24366 26.267
13.018601 -72.568825 41.593388
1.742105 -56.81662 47.408707
3.302722 -61.310558 44.841393
0.618425 -59.817719 42.918186
3.098417 -54.001369 52.121067
0.125352 -51.937462 49.657303
-2.530595 -50.206627 47.119007
-4.977512 -48.5695 44.791389
-6.480825 -43.553112 46.042763
-7.505561 -46.866123 42.517818
-10.000593 -45.29475 40.466114
-12.621981 -43.673046 38.724892
-15.321208 -42.306442 37.309299
-18.198572 -40.980877 36.213779
-21.306719 -39.606831 35.335072
-24.446066 -38.443264 34.503426
9.842236 -71.69191 39.76606
5.085143 -66.146446 41.46019
6.773019 -70.696617 37.716133
8.52766 -75.002335 34.021393
7.240499 -78.642372 28.189003
-2.075928 -74.902924 26.071005
-0.723555 -79.910118 21.380772
14.317424 -78.078178 34.784927
12.72064 -77.894867 33.921165
12.068871 -79.752792 30.897408
11.107236 -77.680634 32.892879
0.23215 -69.493523 32.850807
1.685925 -70.070389 33.378048
1.003218 -71.83416 30.96384
1.727626 -74.396378 28.721764
0.250813 -73.710663 28.499346
0.332965 -55.727257 46.466721
1.117296 -58.229454 45.134766
-0.213718 -57.454926 44.106083
2.332708 -51.599873 53.243702
1.615778 -52.943901 50.96701
-1.97675 -48.609913 49.277069
-3.227896 -47.811939 47.960419
-3.763589 -49.316944 45.985397
-4.504191 -46.76881 46.784359
-8.461299 -40.24622 45.248264
-7.745382 -42.760769 44.671131
-6.937132 -45.247849 44.242851
-8.271311 -44.424824 42.929062
-8.79329 -46.047085 41.420025
-9.518452 -43.50124 41.866871
-12.740063 -39.555275 40.216892
-11.97713 -42.105133 39.866787
-13.27046 -41.338299 39.022968
-13.974816 -42.969006 37.960171
-14.600561 -40.593525 38.26545
-17.383148 -39.241764 36.990528
-18.911438 -38.548588 36.444855
-19.739916 -40.225376 35.765953
-20.494455 -37.785439 35.971275
8.645674 -66.158691 45.828033
10.281526 -66.836487 46.824024
9.557757 -68.330299 44.011551
10.402909 -70.244057 42.33353
8.865372 -69.725021 41.353081
2.771521 -63.023186 42.259857
4.172067 -63.763878 43.177143
3.632219 -65.37075 40.632786
4.599687 -71.522408 34.388474
5.207861 -69.812035 37.094978
6.054552 -72.096024 35.174061
7.600712 -72.810463 35.902248
6.952146 -74.357109 33.271484
7.788525 -76.704086 31.126209
6.260625 -76.21743 30.309311
3.38546 -79.44799 24.194218
4.963951 -79.879135 24.822868
-1.360098 -77.419159 23.777672
-2.279285 -54.169495 44.255051
-1.50993 -56.536327 43.264156
-2.843528 -55.789146 42.267876
9.792293 -81.358528 26.926407
-9.702264 -39.535034 43.884369
-10.26314 -41.100212 42.221241
-11.009354 -38.622204 42.659611
7.156419 -65.432716 44.935837
3.001542 -66.879715 38.178204
3.136237 -70.863419 33.763569
3.920545 -73.167732 31.825499
4.774911 -75.506737 29.839647
3.266203 -74.911644 29.286079
2.610163 -76.883018 26.579126
1.88555 -78.65966 24.125069
2.47939 -59.019939 46.189068
1.994005 -60.643177 43.838779
1.307463 -62.014061 41.552662
-0.722458 -59.141491 41.924492
-0.057124 -61.35656 40.627605
2.391811 -55.327087 49.8186
1.022139 -54.418518 48.699615
-0.368419 -53.430664 47.570625
-1.19268 -50.926388 48.543446
-1.683976 -52.503578 46.462429
-3.001752 -51.821289 45.148075
-4.349702 -50.889572 44.018196
-5.596795 -50.160336 42.907856
-5.937184 -41.96339 48.03759
-5.256651 -44.388229 47.363216
-5.781308 -46.080559 45.354778
-6.248717 -47.802261 43.567024
-6.92078 -49.26379 41.86216
-8.129706 -48.443729 40.952831
-10.755681 -42.838203 40.781944
-11.289554 -44.583286 39.519566
-11.97762 -46.30529 38.342945
-13.309558 -45.550293 37.64772
-14.639857 -44.846836 37.035221
-16.042904 -44.175747 36.471836
-15.959911 -39.678596 37.657246
-16.721684 -41.537746 36.758842
-17.548172 -43.292835 35.993454
-19.144258 -42.618996 35.507027
-20.677168 -42.007469 35.090698
-22.165131 -41.186016 34.759903
-22.883675 -38.89986 34.939964
11.020004 -65.436592 49.43721
11.368999 -72.230507 40.577988
10.763442 -73.831932 37.784592
4.778052 -62.343323 45.623634
5.631723 -64.57196 44.077896
6.485581 -66.804276 42.358986
4.461299 -67.553093 39.012798
5.88597 -68.384827 39.638493
7.309548 -68.989166 40.53371
8.262441 -71.149246 38.782673
9.144264 -73.275574 36.910271
10.078845 -75.419998 34.984585
9.461475 -77.225548 32.022507
8.871815 -79.019836 29.159241
8.124981 -80.881027 26.138174
5.616795 -77.96032 27.632008
6.51147 -80.396896 25.407501
-1.129136 -73.199806 28.249325
-0.538789 -75.678215 26.004622
0.273352 -78.089409 23.847916
0.973312 -80.58622 21.467165
12.199334 -76.890011 34.870604
13.030914 -76.993782 35.407722
12.509607 -75.988926 36.35716
1.985099 -50.410965 53.764364
2.716896 -50.896889 54.381723
1.560053 -51.080782 52.565401
1.985099 -50.410965 53.764364
-3.610386 -46.503571 48.369226
-2.938985 -47.056179 49.01746
-3.321474 -45.74781 49.426267
-13.682692 -40.080639 39.15208
-13.005261 -40.446787 39.61993
-13.417493 -39.189127 39.749043
-14.347742 -39.708252 38.773322
-13.93551 -40.965912 38.644209
-13.682692 -40.080639 39.15208
-19.319602 -37.32098 36.5487
-18.581977 -37.602488 36.832258
-20.11111 -36.939405 36.31191
-19.702946 -38.167013 36.208065
-19.319602 -37.32098 36.5487
2.871455 -64.934433 40.243178
3.20187 -64.196968 41.446321
2.441107 -63.760651 41.056713
3.8063 -80.556946 23.194823
2.955437 -80.283791 22.966183
14.920821 -78.967437 33.870069
14.052216 -78.986537 33.353366
10.985111 -80.574463 28.929471
11.756542 -80.707923 29.378746
11.29744 -79.619331 30.448132
10.159151 -80.422199 28.462632
10.618253 -81.510792 27.393246
10.985111 -80.574463 28.929471
-10.148007 -38.277233 44.058424
-9.485698 -38.741827 44.731785
-10.801552 -37.820818 43.446045
-10.355809 -39.078619 43.27199
-10.148007 -38.277233 44.058424
7.040235 -63.506502 47.170794
6.674954 -62.489197 47.927172
6.74283 -64.304449 45.802811
7.453824 -64.63477 46.30382
7.040235 -63.506502 47.170794
1.644775 -68.10897 35.47649
1.239181 -66.955509 36.339678
13.472865 -73.515762 40.608728
13.879532 -72.783619 41.928968
12.686106 -73.364803 40.194766
13.472865 -73.515762 40.608728
2.110747 -57.918279 46.798887
2.83089 -58.352808 47.373226
2.462248 -57.251148 47.983046
-0.335941 -62.129721 39.611066
-0.741391 -60.940773 40.27486
0.34055 -62.529122 39.908819
-0.335941 -62.129721 39.611066
3.800604 -54.458166 52.652912
3.456378 -53.325203 53.245418
3.487461 -55.178045 51.509403
3.800604 -54.458166 52.652912
2.745114 -54.664228 50.969834
3.134158 -55.840904 50.35817
3.487461 -55.178045 51.509403
-6.209005 -42.758251 47.040177
-6.562157 -41.56793 47.315506
-6.833977 -42.362791 46.318092
-9.677357 -46.500312 40.259119
-9.073705 -46.87648 40.736075
-9.396942 -45.670918 40.94307
-10.328046 -46.086414 39.834511
-9.677357 -46.500312 40.259119
-16.3982 -38.531347 37.731398
-15.69147 -38.857134 38.093867
-23.66487 -38.671562 34.721695
-23.246927 -37.812021 35.000151
-24.028122 -37.583723 34.781881
-24.084529 -39.485042 34.442179
-23.303334 -39.713341 34.660448
-23.66487 -38.671562 34.721695
-24.86164 -39.204525 34.235231
-24.084529 -39.485042 34.442179
10.193782 -65.145607 48.893732
10.573057 -64.458264 50.162878
9.746835 -64.167279 49.6194
11.07219 -67.079605 47.323458
10.685143 -67.815811 45.931778
4.040387 -61.82694 45.232513
4.367102 -61.138391 46.429199
3.629437 -60.622009 46.038078
6.188316 -81.303867 24.059131
5.737711 -80.138015 25.115184
5.414557 -81.044986 23.766815
7.035779 -81.648552 24.283652
6.188316 -81.303867 24.059131
-2.393963 -73.688946 27.136187
-2.865852 -74.635551 26.009309
-1.602532 -74.051365 27.160165
-1.920567 -72.837387 28.225347
-2.393963 -73.688946 27.136187
-3.858064 -54.15583 42.326099
-4.243248 -52.949863 42.712463
13.829306 -77.085437 35.839603
14.618064 -77.198326 36.213296
13.519032 -77.986523 34.353046
13.829306 -77.085437 35.839603
13.030914 -76.993782 35.407722
13.253824 -78.894882 32.921486
14.052216 -78.986537 33.353366
13.519032 -77.986523 34.353046
12.394755 -78.82383 32.409287
12.92794 -79.823845 31.409607
13.253824 -78.894882 32.921486
5.901836 -62.066746 47.405104
6.674954 -62.489197 47.927172
13.365741 -71.816708 42.934181
13.879532 -72.783619 41.928968
-1.754908 -59.346466 40.572753
-2.424945 -58.98164 40.223176
3.073523 -52.124454 53.806736
2.716896 -50.896889 54.381723
2.715562 -52.800621 52.682384
3.456378 -53.325203 53.245418
3.073523 -52.124454 53.806736
1.201588 -51.752796 51.427055
1.974243 -52.271887 52.105356
1.560053 -51.080782 52.565401
0.456375 -51.249577 50.772201
0.870565 -52.440681 50.312157
1.201588 -51.752796 51.427055
-2.313412 -47.455166 49.675785
-1.617713 -47.876377 50.444103
-2.602323 -48.210926 48.618744
-2.313412 -47.455166 49.675785
-2.938985 -47.056179 49.01746
-7.824215 -40.709345 45.920843
-8.236851 -39.45909 46.150617
-7.466256 -41.96662 45.632277
-7.824215 -40.709345 45.920843
-8.10334 -41.503495 44.959698
-7.113104 -43.156941 45.356947
-6.833977 -42.362791 46.318092
-7.466256 -41.96662 45.632277
-17.817832 -37.949076 37.105095
-17.109818 -38.312931 37.398039
-18.147293 -38.895176 36.717692
-17.817832 -37.949076 37.105095
-18.581977 -37.602488 36.832258
-24.805287 -37.374099 34.542788
-24.028122 -37.583723 34.781881
-25.223478 -38.226038 34.267722
-24.805287 -37.374099 34.542788
10.323259 -68.562717 44.525542
10.685143 -67.815811 45.931778
9.919642 -67.583393 45.417788
9.980333 -69.287178 43.17254
10.745835 -69.519596 43.686531
10.323259 -68.562717 44.525542
4.595546 -80.772518 23.509149
4.174705 -79.663563 24.508543
3.8063 -80.556946 23.194823
5.414557 -81.044986 23.766815
4.595546 -80.772518 23.509149
-2.565456 -75.837059 24.904466
-2.865852 -74.635551 26.009309
-2.20754 -77.095176 23.7578
-1.718013 -76.161041 24.924338
-2.565456 -75.837059 24.904466
-1.821292 -78.227867 22.712658
-2.20754 -77.095176 23.7578
-1.50302 -79.473346 21.514208
-1.041826 -78.664638 22.579222
-1.821292 -78.227867 22.712658
-3.467112 -55.449936 41.820875
-3.23448 -54.495041 42.7731
-3.858064 -54.15583 42.326099
-3.122927 -56.667238 41.302372
-3.467112 -55.449936 41.820875
-2.743241 -57.856638 40.78013
-2.463843 -56.978546 41.745634
-3.122927 -56.667238 41.302372
-2.424945 -58.98164 40.223176
-2.743241 -57.856638 40.78013
15.15773 -78.052967 35.272852
15.45837 -77.173115 36.701222
14.618064 -77.198326 36.213296
15.15773 -78.052967 35.272852
14.920821 -78.967437 33.870069
12.620359 -80.697876 30.015314
12.92794 -79.823845 31.409607
12.308029 -81.653008 28.496653
12.620359 -80.697876 30.015314
11.756542 -80.707923 29.378746
10.373483 -82.494534 25.903735
11.199442 -82.646797 26.370574
10.618253 -81.510792 27.393246
9.517602 -82.305088 25.483645
10.373483 -82.494534 25.903735
-3.647352 -44.513174 49.86001
-3.321474 -45.74781 49.426267
-8.865216 -39.09742 45.413732
-8.236851 -39.45909 46.150617
-9.081781 -39.890627 44.566316
-8.865216 -39.09742 45.413732
-9.485698 -38.741827 44.731785
-11.426362 -37.446801 42.821817
-10.801552 -37.820818 43.446045
-11.628 -38.261734 42.101045
-11.426362 -37.446801 42.821817
-11.850924 -39.093055 41.386257
-11.232278 -39.453525 41.944823
-11.628 -38.261734 42.101045
-12.493355 -38.728269 40.879686
-12.097632 -39.920061 40.723463
-11.850924 -39.093055 41.386257
-13.135918 -38.33907 40.378816
-12.493355 -38.728269 40.879686
-13.417493 -39.189127 39.749043
-13.135918 -38.33907 40.378816
8.959489 -63.777396 49.184386
9.746835 -64.167279 49.6194
8.559394 -64.345723 48.011028
8.959489 -63.777396 49.184386
8.198452 -64.997757 46.749918
9.006616 -65.506657 47.089143
8.559394 -64.345723 48.011028
7.901046 -65.795704 45.381935
8.198452 -64.997757 46.749918
7.453824 -64.63477 46.30382
2.272521 -66.510716 37.830208
2.556117 -65.688916 39.015887
2.678116 -67.664177 36.96702
2.272521 -66.510716 37.830208
3.049626 -68.778771 36.07027
3.373052 -67.994309 37.281454
2.678116 -67.664177 36.96702
2.020307 -69.259514 34.566942
1.644775 -68.10897 35.47649
1.310393 -68.919846 34.287596
2.745463 -69.656029 34.759703
2.020307 -69.259514 34.566942
2.411081 -70.466904 33.570808
3.440399 -69.98616 35.074137
3.049626 -68.778771 36.07027
2.745463 -69.656029 34.759703
2.205482 -79.889625 22.931608
2.955437 -80.283791 22.966183
2.635505 -79.053825 24.159644
12.015819 -75.022968 37.308093
12.509607 -75.988926 36.35716
3.217771 -59.476699 46.711916
2.83089 -58.352808 47.373226
2.891056 -60.165249 45.515231
3.629437 -60.622009 46.038078
3.217771 -59.476699 46.711916
1.709077 -63.256088 40.703115
2.441107 -63.760651 41.056713
2.039492 -62.518624 41.906259
-1.074058 -59.833239 40.923304
-1.403308 -58.654719 41.573942
-1.754908 -59.346466 40.572753
-0.389791 -60.249026 41.276049
-1.074058 -59.833239 40.923304
-0.741391 -60.940773 40.27486
1.022844 -62.857872 40.371347
0.62517 -61.68531 41.090134
0.34055 -62.529122 39.908819
1.709077 -63.256088 40.703115
1.022844 -62.857872 40.371347
0.529747 -66.568077 36.06013
1.239181 -66.955509 36.339678
0.196876 -67.387634 34.97739
0.529747 -66.568077 36.06013
-0.15448 -68.249744 33.804222
0.583506 -68.631412 34.023976
0.196876 -67.387634 34.97739
-0.496053 -69.198059 32.645819
-0.15448 -68.249744 33.804222
-0.828127 -70.094032 31.509216
-0.099925 -70.389496 31.714205
-0.496053 -69.198059 32.645819
2.787101 -56.506382 49.187992
3.134158 -55.840904 50.35817
2.066958 -56.071854 48.613653
2.462248 -57.251148 47.983046
2.787101 -56.506382 49.187992
-0.23086 -50.690279 50.203833
0.456375 -51.249577 50.772201
-1.281911 -49.026505 50.013716
-1.617713 -47.876377 50.444103
-0.889876 -50.184742 49.646904
-1.281911 -49.026505 50.013716
-1.584715 -49.768151 48.910258
-0.533664 -51.431925 49.100375
-0.23086 -50.690279 50.203833
-0.889876 -50.184742 49.646904
-4.605383 -51.794182 43.0824
-4.243248 -52.949863 42.712463
-3.987567 -52.045254 43.64826
-5.228929 -51.429564 42.52723
-4.605383 -51.794182 43.0824
-4.973249 -50.524954 43.463026
-5.88117 -50.939352 42.105652
-5.228929 -51.429564 42.52723
-4.318612 -44.021866 49.136806
-3.647352 -44.513174 49.86001
-6.321377 -40.793903 48.265518
-6.562157 -41.56793 47.315506
-5.659949 -41.213573 49.049084
-6.321377 -40.793903 48.265518
-5.290767 -42.40596 48.766585
-5.659949 -41.213573 49.049084
-4.9505 -43.61838 48.429398
-5.290767 -42.40596 48.766585
-5.596917 -43.175809 47.700403
-4.624763 -44.791716 48.070625
-4.318612 -44.021866 49.136806
-4.9505 -43.61838 48.429398
-6.543162 -50.491079 41.582804
-5.88117 -50.939352 42.105652
-6.258788 -49.712063 42.385008
-7.194033 -50.131513 41.105269
-6.543162 -50.491079 41.582804
-7.798496 -49.721483 40.650604
-7.194033 -50.131513 41.105269
-7.525243 -48.853759 41.407496
-8.452074 -49.308076 40.23352
-7.798496 -49.721483 40.650604
-8.741913 -48.074802 40.502477
-8.461498 -47.245407 41.186428
-9.073705 -46.87648 40.736075
-8.452074 -49.308076 40.23352
-8.741913 -48.074802 40.502477
-10.972527 -45.730682 39.361237
-10.328046 -46.086414 39.834511
-10.645074 -44.939018 39.99284
-11.31656 -46.591684 38.772926
-10.972527 -45.730682 39.361237
-11.633587 -45.444288 38.931255
-11.648699 -47.578467 38.164799
-11.31656 -46.591684 38.772926
-12.306705 -47.178711 37.849481
-11.648699 -47.578467 38.164799
-12.972673 -46.801213 37.501869
-12.306705 -47.178711 37.849481
-12.643589 -45.927791 37.995333
-13.671308 -46.492775 37.178049
-12.972673 -46.801213 37.501869
-14.336458 -46.141047 36.8718
-13.671308 -46.492775 37.178049
-13.974707 -45.198565 37.34147
-15.04484 -45.69869 36.619793
-14.336458 -46.141047 36.8718
-15.746364 -45.363146 36.338101
-15.04484 -45.69869 36.619793
-15.34138 -44.511291 36.753529
-16.502417 -44.975518 36.087147
-15.746364 -45.363146 36.338101
-15.011795 -39.314598 38.397969
-14.347742 -39.708252 38.773322
-15.280236 -40.13606 37.961348
-15.011795 -39.314598 38.397969
-15.69147 -38.857134 38.093867
-16.671529 -39.46018 37.323887
-16.3982 -38.531347 37.731398
-17.109818 -38.312931 37.398039
-17.255051 -44.534061 35.847955
-16.502417 -44.975518 36.087147
-16.795538 -43.734291 36.232645
-18.032913 -44.14896 35.621012
-17.255051 -44.534061 35.847955
-18.830956 -43.812041 35.377798
-18.032913 -44.14896 35.621012
-18.346215 -42.955916 35.750241
-19.591449 -43.521943 35.162388
-18.830956 -43.812041 35.377798
-20.357905 -43.216179 34.954223
-19.591449 -43.521943 35.162388
-19.910713 -42.313232 35.298862
-21.15491 -42.809397 34.768416
-20.357905 -43.216179 34.954223
-21.898891 -42.39867 34.603018
-21.15491 -42.809397 34.768416
-21.421149 -41.596743 34.925301
-22.671231 -41.958842 34.440548
-21.898891 -42.39867 34.603018
-20.89968 -36.61397 36.052021
-20.11111 -36.939405 36.31191
-21.214737 -37.557513 35.753313
-20.89968 -36.61397 36.052021
-21.620869 -38.468209 35.435211
-20.900587 -38.696135 35.653173
-21.214737 -37.557513 35.753313
-22.409347 -38.114723 35.237657
-23.246927 -37.812021 35.000151
-22.095197 -39.253345 35.137518
-21.620869 -38.468209 35.435211
-22.409347 -38.114723 35.237657
-22.944062 -40.856419 34.570418
-22.524403 -40.042938 34.849934
-23.303334 -39.713341 34.660448
-22.671231 -41.958842 34.440548
-22.944062 -40.856419 34.570418
-24.86164 -39.204525 34.235231
-25.223478 -38.226038 34.267722
11.33829 -64.751637 50.600614
10.573057 -64.458264 50.162878
11.80451 -65.730259 49.825666
11.33829 -64.751637 50.600614
11.441429 -66.379658 48.63005
10.650765 -66.136539 48.130617
11.07219 -67.079605 47.323458
11.80451 -65.730259 49.825666
11.441429 -66.379658 48.63005
12.552017 -71.639637 42.482331
13.365741 -71.816708 42.934181
11.244171 -70.477253 42.852401
10.745835 -69.519596 43.686531
11.727216 -71.470478 41.974631
11.244171 -70.477253 42.852401
10.885954 -71.237282 41.455759
12.1938 -72.399666 41.085688
12.552017 -71.639637 42.482331
11.727216 -71.470478 41.974631
11.861305 -73.195645 39.687066
12.686106 -73.364803 40.194766
12.1938 -72.399666 41.085688
11.558526 -73.996357 38.290368
11.861305 -73.195645 39.687066
11.066221 -73.031219 39.18129
11.220735 -74.858543 36.802317
12.015819 -75.022968 37.308093
11.558526 -73.996357 38.290368
5.126241 -61.650317 46.882029
4.367102 -61.138391 46.429199
5.553646 -62.759752 46.14671
5.901836 -62.066746 47.405104
5.126241 -61.650317 46.882029
3.31688 -66.125233 39.405495
2.871455 -64.934433 40.243178
2.556117 -65.688916 39.015887
8.683946 -82.066338 25.089528
9.517602 -82.305088 25.483645
8.958637 -81.119777 26.532291
7.842534 -81.890618 24.648989
7.318226 -80.638961 25.772838
7.035779 -81.648552 24.283652
8.683946 -82.066338 25.089528
7.842534 -81.890618 24.648989
-1.141541 -71.053581 30.399009
-0.828127 -70.094032 31.509216
-1.49011 -72.01075 29.23487
-1.920567 -72.837387 28.225347
-0.780567 -72.242638 29.413463
-1.141541 -71.053581 30.399009
-1.49011 -72.01075 29.23487
1.749363 -80.852905 21.602657
2.205482 -79.889625 22.931608
1.429431 -79.62294 22.796117
-1.142078 -80.801002 20.205337
-1.50302 -79.473346 21.514208
-0.300583 -81.120792 20.234751
-1.142078 -80.801002 20.205337
0.547851 -81.458844 20.277948
0.124879 -80.248169 21.423969
-0.300583 -81.120792 20.234751
1.395108 -81.86309 20.254137
0.547851 -81.458844 20.277948
2.171159 -82.129776 20.389629
1.749363 -80.852905 21.602657
1.395108 -81.86309 20.254137
3 0 160 162
3 160 42 161
3 160 161 162
3 0 44 42
3 1 47 45
3 1 49 47
3 2 52 50
3 163 53 164
3 166 165 53
3 3 167 169
3 167 56 168
3 167 168 169
3 3 58 56
3 4 60 59
3 4 62 60
3 4 64 62
3 170 67 171
3 172 171 65
3 170 171 172
3 173 69 174
3 175 174 67
3 173 174 175
3 176 71 177
3 178 73 179
3 180 179 71
3 178 179 180
3 5 76 74
3 5 78 76
3 181 81 182
3 183 182 79
3 181 182 183
3 6 84 82
3 6 86 84
3 6 88 86
3 185 184 89
3 7 94 92
3 187 186 41
3 9 188 190
3 190 189 43
3 188 189 190
3 9 191 193
3 191 95 192
3 191 192 193
3 194 96 195
3 196 98 197
3 198 197 96
3 196 197 198
3 12 199 200
3 12 201 203
3 201 99 202
3 201 202 203
3 13 204 205
3 15 101 46
3 15 102 101
3 15 104 102
3 17 105 48
3 17 106 105
3 18 206 207
3 18 208 209
3 19 210 212
3 210 107 211
3 210 211 212
3 21 108 51
3 21 109 108
3 8 110 93
3 213 111 214
3 216 215 111
3 22 217 218
3 22 219 220
3 22 221 223
3 221 112 222
3 221 222 223
3 23 113 54
3 23 114 113
3 24 115 55
3 24 116 115
3 24 117 116
3 25 118 57
3 25 119 118
3 26 224 226
3 224 120 225
3 224 225 226
3 26 121 120
3 26 122 121
3 27 123 61
3 27 124 123
3 27 125 124
3 28 227 229
3 229 228 63
3 227 228 229
3 28 230 231
3 10 126 97
3 29 127 66
3 29 128 127
3 29 129 128
3 30 130 68
3 30 131 130
3 232 132 233
3 31 133 70
3 31 134 133
3 31 135 134
3 32 136 72
3 32 137 136
3 33 234 236
3 234 138 235
3 234 235 236
3 33 237 239
3 239 238 138
3 237 238 239
3 33 240 241
3 11 242 244
3 242 139 243
3 242 243 244
3 246 245 75
3 34 140 77
3 34 141 140
3 20 247 249
3 247 142 248
3 247 248 249
3 35 143 80
3 35 144 143
3 14 145 100
3 36 146 83
3 36 147 146
3 36 148 147
3 37 149 85
3 37 150 149
3 37 151 150
3 38 152 87
3 38 153 152
3 16 154 103
3 250 155 251
3 252 251 90
3 250 251 252
3 254 253 155
3 39 255 256
3 39 257 259
3 257 156 258
3 257 258 259
3 39 157 156
3 40 158 91
3 40 159 158
3 261 260 7
3 262 41 263
3 42 264 266
3 264 41 265
3 264 265 266
3 42 267 269
3 269 268 41
3 267 268 269
3 42 270 272
3 270 43 271
3 270 271 272
3 44 43 42
3 44 9 43
3 273 12 274
3 45 46 13
3 47 46 45
3 47 15 46
3 47 48 15
3 49 48 47
3 49 17 48
3 275 18 276
3 50 51 19
3 52 51 50
3 52 21 51
3 278 277 8
3 53 279 280
3 53 281 283
3 281 22 282
3 281 282 283
3 53 54 22
3 284 54 285
3 286 285 53
3 284 285 286
3 287 23 288
3 289 288 54
3 287 288 289
3 290 55 291
3 56 292 294
3 292 55 293
3 292 293 294
3 56 24 55
3 56 57 24
3 58 57 56
3 58 25 57
3 59 295 296
3 60 297 299
3 299 298 59
3 297 298 299
3 60 300 302
3 300 26 301
3 300 301 302
3 60 61 26
3 62 61 60
3 62 27 61
3 62 63 27
3 64 63 62
3 64 28 63
3 65 66 10
3 67 66 65
3 67 29 66
3 67 68 29
3 69 68 67
3 69 30 68
3 303 70 304
3 71 305 307
3 305 70 306
3 305 306 307
3 71 31 70
3 71 72 31
3 73 72 71
3 73 32 72
3 308 33 309
3 311 310 33
3 74 75 11
3 76 75 74
3 76 312 314
3 314 313 75
3 312 313 314
3 76 315 317
3 315 77 316
3 315 316 317
3 78 77 76
3 78 34 77
3 79 80 20
3 81 80 79
3 81 35 80
3 82 83 14
3 84 83 82
3 84 36 83
3 84 85 36
3 86 85 84
3 86 37 85
3 86 87 37
3 88 87 86
3 88 38 87
3 89 90 16
3 318 90 319
3 320 319 89
3 318 319 320
3 322 321 90
3 323 39 324
3 325 91 326
3 327 326 39
3 325 326 327
3 328 91 329
3 330 40 331
3 332 331 91
3 330 331 332
3 92 93 2
3 94 93 92
3 94 8 93
3 333 94 334
3 335 334 7
3 333 334 335
3 336 94 337
3 338 8 339
3 340 339 94
3 338 339 340
3 342 341 8
3 41 343 345
3 343 344 345
3 347 346 41
3 43 348 349
3 352 351 43
3 350 351 352
3 95 353 355
3 353 354 355
3 95 356 357
3 358 3 359
3 360 59 361
3 96 362 364
3 362 59 363
3 362 363 364
3 96 4 59
3 96 97 4
3 98 97 96
3 98 10 97
3 365 98 366
3 367 98 368
3 369 10 370
3 371 370 98
3 369 370 371
3 372 65 373
3 374 373 10
3 372 373 374
3 375 65 376
3 378 377 65
3 379 11 380
3 381 11 382
3 383 74 384
3 385 384 11
3 383 384 385
3 99 386 388
3 386 74 387
3 386 387 388
3 99 5 74
3 389 100 390
3 391 100 392
3 393 14 394
3 395 394 100
3 393 394 395
3 46 396 398
3 398 397 13
3 396 397 398
3 101 399 401
3 401 400 46
3 399 400 401
3 101 402 404
3 402 14 403
3 402 403 404
3 101 82 14
3 102 82 101
3 102 6 82
3 102 103 6
3 104 103 102
3 104 16 103
3 48 104 15
3 105 104 48
3 105 16 104
3 105 89 16
3 106 89 105
3 106 405 407
3 407 406 89
3 405 406 407
3 408 0 409
3 107 410 411
3 107 412 414
3 412 20 413
3 412 413 414
3 51 107 19
3 108 107 51
3 108 20 107
3 108 79 20
3 109 79 108
3 109 415 417
3 417 416 79
3 415 416 417
3 93 52 2
3 110 52 93
3 110 21 52
3 418 110 419
3 420 419 8
3 418 419 420
3 111 421 423
3 421 110 422
3 421 422 423
3 111 21 110
3 111 109 21
3 424 109 425
3 426 425 111
3 424 425 426
3 428 427 109
3 429 13 430
3 431 13 432
3 433 45 434
3 435 434 13
3 433 434 435
3 436 45 437
3 438 1 439
3 440 439 45
3 438 439 440
3 112 441 442
3 112 443 445
3 443 19 444
3 443 444 445
3 54 112 22
3 113 112 54
3 113 19 112
3 113 50 19
3 114 50 113
3 114 2 50
3 446 23 447
3 55 448 449
3 115 450 452
3 452 451 55
3 450 451 452
3 115 453 455
3 453 23 454
3 453 454 455
3 115 114 23
3 116 114 115
3 116 2 114
3 116 92 2
3 117 92 116
3 117 7 92
3 57 117 24
3 118 117 57
3 118 7 117
3 118 456 458
3 458 457 7
3 456 457 458
3 119 459 461
3 461 460 118
3 459 460 461
3 119 462 463
3 464 3 465
3 120 466 467
3 120 468 469
3 120 470 471
3 121 472 474
3 474 473 120
3 472 473 474
3 121 475 477
3 475 3 476
3 475 476 477
3 121 58 3
3 122 58 121
3 122 25 58
3 61 122 26
3 123 122 61
3 123 25 122
3 123 119 25
3 124 119 123
3 124 478 480
3 480 479 119
3 478 479 480
3 124 481 482
3 125 483 485
3 485 484 124
3 483 484 485
3 125 486 487
3 63 125 27
3 488 125 489
3 490 489 63
3 488 489 490
3 492 491 125
3 97 64 4
3 126 64 97
3 126 28 64
3 66 126 10
3 127 126 66
3 127 28 126
3 127 493 495
3 495 494 28
3 493 494 495
3 128 496 498
3 498 497 127
3 496 497 498
3 128 499 500
3 128 501 502
3 129 503 505
3 505 504 128
3 503 504 505
3 129 506 507
3 68 129 29
3 130 129 68
3 130 508 510
3 510 509 129
3 508 509 510
3 130 511 512
3 131 513 515
3 515 514 130
3 513 514 515
3 131 516 517
3 518 69 519
3 132 520 522
3 520 69 521
3 520 521 522
3 132 30 69
3 70 523 525
3 523 132 524
3 523 524 525
3 133 132 70
3 133 30 132
3 133 131 30
3 134 131 133
3 134 526 528
3 528 527 131
3 526 527 528
3 134 529 530
3 135 531 533
3 533 532 134
3 531 532 533
3 135 534 535
3 72 135 31
3 136 135 72
3 136 536 538
3 538 537 135
3 536 537 538
3 136 539 540
3 137 541 543
3 543 542 136
3 541 542 543
3 137 544 545
3 546 73 547
3 548 73 549
3 550 32 551
3 552 551 73
3 550 551 552
3 138 553 554
3 138 555 557
3 555 32 556
3 555 556 557
3 138 137 32
3 558 137 559
3 560 559 138
3 558 559 560
3 562 561 137
3 564 563 33
3 139 565 566
3 139 567 568
3 75 139 11
3 569 139 570
3 571 570 75
3 569 570 571
3 573 572 139
3 574 18 575
3 77 576 577
3 140 578 580
3 580 579 77
3 578 579 580
3 140 581 583
3 581 18 582
3 581 582 583
3 140 584 586
3 586 585 18
3 584 585 586
3 141 587 589
3 589 588 140
3 587 588 589
3 141 590 592
3 590 0 591
3 590 591 592
3 142 593 594
3 142 595 597
3 595 12 596
3 595 596 597
3 80 142 20
3 143 142 80
3 143 12 142
3 143 99 12
3 144 99 143
3 144 5 99
3 100 598 600
3 598 81 599
3 598 599 600
3 145 81 100
3 145 35 81
3 83 145 14
3 146 145 83
3 146 35 145
3 146 144 35
3 147 144 146
3 147 5 144
3 147 78 5
3 148 78 147
3 148 34 78
3 85 148 36
3 149 148 85
3 149 34 148
3 149 141 34
3 150 141 149
3 150 0 141
3 150 44 0
3 151 44 150
3 151 9 44
3 87 151 37
3 152 151 87
3 152 9 151
3 152 95 9
3 153 95 152
3 153 601 603
3 603 602 95
3 601 602 603
3 103 88 6
3 154 88 103
3 154 38 88
3 90 154 16
3 155 154 90
3 155 38 154
3 155 153 38
3 604 153 605
3 606 605 155
3 604 605 606
3 608 607 153
3 609 1 610
3 156 611 612
3 156 613 615
3 613 1 614
3 613 614 615
3 156 49 1
3 157 49 156
3 157 17 49
3 91 157 39
3 158 157 91
3 158 17 157
3 158 106 17
3 159 106 158
3 159 616 618
3 618 617 106
3 616 617 618
3 619 40 620
3 621 40 622
3 623 159 624
3 625 624 40
3 623 624 625
3 626 159 627
3 630 629 159
3 628 629 630
