ply
format ascii 1.0
element vertex 130
property float x
property float y
property float z
element face 114
property list uchar int vertex_index
end_header
21.892311 105.857269 -24.42738
19.636169 107.620972 -12.664471
17.612066 106.482368 -26.575649
16.391996 104.017227 -32.65955
20.844637 103.924156 -31.065535
18.616478 107.674088 -19.998938
22.608866 106.507919 -17.561827
19.986107 106.284775 -25.660662
19.385883 105.353096 -28.921421
21.530464 104.929199 -28.01405
16.389408 107.693611 -21.168833
16.972057 107.983215 -17.53544
21.545986 106.970299 -11.546319
21.138018 107.266403 -15.293294
17.952484 102.635765 -34.687275
23.751261 104.949181 -23.39407
23.412491 104.284821 -26.715464
15.130195 106.283897 -27.345306
14.568471 105.085083 -30.387762
17.048246 105.38475 -29.751913
18.720436 104.106354 -31.989363
20.414314 102.456688 -33.973618
15.770249 107.161621 -24.186796
18.224152 107.200233 -23.473938
20.257277 106.956154 -22.379871
19.103346 107.818481 -16.242113
20.690374 107.262383 -18.962648
22.379145 106.258278 -21.091949
16.053201 107.929955 -16.371119
15.879868 107.900742 -18.029732
22.258243 106.66932 -12.725993
22.414907 106.451352 -10.801463
17.69667 101.672264 -36.015486
18.840913 101.713288 -35.664456
24.491949 104.072663 -24.307384
24.61898 104.31665 -22.655882
23.188798 103.784157 -28.396535
24.104653 103.347061 -27.743492
14.837639 107.293201 -22.902878
14.498926 106.957206 -24.494259
19.369757 107.719727 -14.453292
18.288182 107.88065 -15.127605
18.554593 107.781895 -13.338784
23.391177 105.871834 -18.643134
23.276317 105.747013 -20.408195
22.494006 106.383099 -19.326888
15.095819 103.809536 -32.912579
14.184057 104.343464 -31.776685
15.480234 104.551155 -31.523656
15.588544 107.75594 -19.846428
15.147219 107.559196 -21.393897
16.680732 107.838413 -19.352137
15.588544 107.75594 -19.846428
15.879868 107.900742 -18.029732
22.054258 106.817372 -14.59948
21.342002 107.118351 -13.419806
22.258243 106.66932 -12.725993
22.789682 106.43813 -15.733747
21.873442 106.887161 -16.42756
22.054258 106.817372 -14.59948
23.504418 105.917858 -16.76126
22.789682 106.43813 -15.733747
16.718259 102.470623 -35.041654
15.938015 103.161354 -34.027792
17.17224 103.326496 -33.673412
16.718259 102.470623 -35.041654
17.69667 101.672264 -36.015486
24.322564 103.740482 -25.968082
23.581876 104.617001 -25.054767
24.491949 104.072663 -24.307384
24.104653 103.347061 -27.743492
24.322564 103.740482 -25.968082
18.787483 107.609787 -11.477706
18.554593 107.781895 -13.338784
19.845053 107.399708 -10.901524
18.787483 107.609787 -11.477706
20.799961 107.074371 -10.342448
20.591077 107.295636 -12.105395
19.845053 107.399708 -10.901524
21.690844 106.687107 -9.648779
20.799961 107.074371 -10.342448
22.414907 106.451352 -10.801463
21.690844 106.687107 -9.648779
14.849333 105.68449 -28.866534
13.578331 105.437309 -29.110844
13.859193 106.036716 -27.589616
20.071828 101.623749 -35.307627
18.840913 101.713288 -35.664456
19.183399 102.546227 -34.330447
22.247785 104.106346 -29.045828
22.471477 104.60701 -27.364757
23.188798 103.784157 -28.396535
21.904871 103.603825 -30.57157
21.187551 104.426677 -29.539793
22.247785 104.106346 -29.045828
21.675536 102.972717 -32.05301
21.904871 103.603825 -30.57157
21.460375 102.238983 -33.507052
20.629475 103.190422 -32.519576
21.675536 102.972717 -32.05301
21.191825 101.342568 -35.048077
21.460375 102.238983 -33.507052
20.071828 101.623749 -35.307627
21.191825 101.342568 -35.048077
14.178899 106.518344 -26.073515
13.859193 106.036716 -27.589616
15.450222 106.722759 -25.766051
14.178899 106.518344 -26.073515
14.498926 106.957206 -24.494259
16.079828 107.427616 -22.677815
14.837639 107.293201 -22.902878
15.147219 107.559196 -21.393897
17.222537 107.963017 -15.774269
16.053201 107.929955 -16.371119
18.037701 107.900848 -16.888776
17.222537 107.963017 -15.774269
18.288182 107.88065 -15.127605
23.962375 105.092465 -21.559255
23.065203 105.60373 -22.243009
23.276317 105.747013 -20.408195
24.61898 104.31665 -22.655882
23.962375 105.092465 -21.559255
23.391177 105.871834 -18.643134
23.504418 105.917858 -16.76126
13.21679 104.790715 -30.575408
13.578331 105.437309 -29.110844
13.21679 104.790715 -30.575408
14.184057 104.343464 -31.776685
15.095819 103.809536 -32.912579
15.938015 103.161354 -34.027792
3 0 9 7
3 28 11 29
3 31 30 12
3 33 32 14
3 35 34 15
3 2 19 17
3 4 20 8
3 4 21 20
3 37 36 16
3 38 22 39
3 5 23 10
3 5 24 23
3 1 40 42
3 40 25 41
3 40 41 42
3 6 26 13
3 6 27 26
3 6 43 45
3 45 44 27
3 43 44 45
3 3 46 48
3 48 47 18
3 46 47 48
3 7 8 2
3 9 8 7
3 9 4 8
3 49 10 50
3 11 51 53
3 51 10 52
3 51 52 53
3 11 5 10
3 12 13 1
3 54 13 55
3 56 55 12
3 54 55 56
3 57 6 58
3 59 58 13
3 57 58 59
3 61 60 6
3 14 62 64
3 64 63 3
3 62 63 64
3 66 65 14
3 15 16 0
3 67 16 68
3 69 68 15
3 67 68 69
3 71 70 16
3 72 1 73
3 74 1 75
3 76 12 77
3 78 77 1
3 76 77 78
3 79 12 80
3 82 81 12
3 17 83 85
3 83 18 84
3 83 84 85
3 19 18 17
3 19 3 18
3 8 19 2
3 20 19 8
3 20 3 19
3 20 14 3
3 21 14 20
3 21 86 88
3 88 87 14
3 86 87 88
3 16 9 0
3 89 9 90
3 91 90 16
3 89 90 91
3 92 4 93
3 94 93 9
3 92 93 94
3 95 4 96
3 97 21 98
3 99 98 4
3 97 98 99
3 100 21 101
3 103 102 21
3 104 17 105
3 22 106 108
3 106 17 107
3 106 107 108
3 22 2 17
3 10 109 111
3 109 22 110
3 109 110 111
3 23 22 10
3 23 2 22
3 23 7 2
3 24 7 23
3 24 0 7
3 112 11 113
3 25 114 116
3 114 11 115
3 114 115 116
3 25 5 11
3 13 25 1
3 26 25 13
3 26 5 25
3 26 24 5
3 27 24 26
3 27 0 24
3 27 15 0
3 117 15 118
3 119 118 27
3 117 118 119
3 121 120 15
3 123 122 6
3 18 124 125
3 127 126 18
3 129 128 3
