ply
format ascii 1.0
element vertex 123
property float x
property float y
property float z
element face 85
property list uchar int vertex_index
end_header
9.24291 -83.251648 24.040882
2.525414 -81.119591 21.738148
13.787008 -79.894897 31.921806
5.865163 -82.210838 22.710762
10.954672 -83.630539 24.881063
4.227141 -81.665901 22.195429
5.178773 -84.111877 19.962334
3.463546 -83.600159 19.460459
15.998035 -78.027756 35.760777
15.524218 -79.856697 32.955212
13.171846 -81.64296 29.133221
7.560087 -82.900208 23.159803
9.792416 -84.404457 22.977199
10.648297 -84.593902 23.397289
10.098791 -83.441093 24.460973
8.917449 -84.207176 22.58648
9.792416 -84.404457 22.977199
3.376277 -81.392746 21.966788
3.8063 -80.556946 23.194823
2.955437 -80.283791 22.966183
15.45837 -77.173115 36.701222
16.310973 -77.158729 37.137754
14.655613 -79.875797 32.438509
14.920821 -78.967437 33.870069
14.052216 -78.986537 33.353366
14.331163 -80.820171 30.961189
15.199768 -80.801071 31.477892
14.655613 -79.875797 32.438509
13.479427 -80.768929 30.527513
14.023582 -81.694203 29.566896
14.331163 -80.820171 30.961189
6.188316 -81.303867 24.059131
5.414557 -81.044986 23.766815
6.712625 -82.555523 22.935282
7.035779 -81.648552 24.283652
6.188316 -81.303867 24.059131
6.333073 -83.432896 21.57778
7.180535 -83.77758 21.802301
6.712625 -82.555523 22.935282
5.699867 -85.381397 18.793905
4.844856 -85.123024 18.552251
13.253824 -78.894882 32.921486
14.052216 -78.986537 33.353366
12.92794 -79.823845 31.409607
13.253824 -78.894882 32.921486
11.504043 -84.676983 23.885295
11.762291 -83.651146 25.435085
11.504043 -84.676983 23.885295
10.648297 -84.593902 23.397289
4.595546 -80.772518 23.509149
3.8063 -80.556946 23.194823
5.046152 -81.938369 22.453095
5.414557 -81.044986 23.766815
4.595546 -80.772518 23.509149
3.987242 -84.867165 18.301313
4.844856 -85.123024 18.552251
4.32116 -83.856018 19.711396
16.811187 -77.899341 36.211868
17.124125 -77.030315 37.588846
16.310973 -77.158729 37.137754
16.579543 -78.822094 34.829603
17.392695 -78.69368 35.280695
16.811187 -77.899341 36.211868
15.15773 -78.052967 35.272852
15.45837 -77.173115 36.701222
15.761126 -78.942227 34.357995
15.15773 -78.052967 35.272852
14.920821 -78.967437 33.870069
16.342634 -79.736565 33.426821
16.579543 -78.822094 34.829603
15.761126 -78.942227 34.357995
16.013506 -80.699905 31.962003
16.342634 -79.736565 33.426821
16.013506 -80.699905 31.962003
15.199768 -80.801071 31.477892
13.698975 -82.630959 28.103333
14.023582 -81.694203 29.566896
12.870878 -82.657356 27.561164
13.698975 -82.630959 28.103333
12.620359 -80.697876 30.015314
13.479427 -80.768929 30.527513
12.92794 -79.823845 31.409607
12.308029 -81.653008 28.496653
12.620359 -80.697876 30.015314
12.870878 -82.657356 27.561164
12.308029 -81.653008 28.496653
11.199442 -82.646797 26.370574
11.762291 -83.651146 25.435085
10.373483 -82.494534 25.903735
11.199442 -82.646797 26.370574
9.517602 -82.305088 25.483645
10.098791 -83.441093 24.460973
10.373483 -82.494534 25.903735
2.205482 -79.889625 22.931608
2.955437 -80.283791 22.966183
8.683946 -82.066338 25.089528
9.517602 -82.305088 25.483645
7.842534 -81.890618 24.648989
7.035779 -81.648552 24.283652
8.401499 -83.075928 23.600343
8.683946 -82.066338 25.089528
7.842534 -81.890618 24.648989
8.076037 -84.031456 22.145941
8.917449 -84.207176 22.58648
8.401499 -83.075928 23.600343
8.076037 -84.031456 22.145941
7.180535 -83.77758 21.802301
5.989878 -84.383415 20.203567
6.333073 -83.432896 21.57778
5.521968 -83.161358 21.336548
5.989878 -84.383415 20.203567
5.699867 -85.381397 18.793905
1.749363 -80.852905 21.602657
2.205482 -79.889625 22.931608
2.171159 -82.129776 20.389629
1.749363 -80.852905 21.602657
2.640225 -83.37006 19.250784
2.99448 -82.359875 20.599303
2.171159 -82.129776 20.389629
3.089954 -84.590023 18.096866
2.640225 -83.37006 19.250784
3.987242 -84.867165 18.301313
3.089954 -84.590023 18.096866
3 0 12 14
3 14 13 4
3 12 13 14
3 0 15 16
3 1 17 19
3 17 5 18
3 17 18 19
3 1 7 5
3 20 8 21
3 2 22 24
3 22 9 23
3 22 23 24
3 2 25 27
3 27 26 9
3 25 26 27
3 2 28 30
3 28 10 29
3 28 29 30
3 3 31 32
3 3 33 35
3 33 11 34
3 33 34 35
3 3 36 38
3 38 37 11
3 36 37 38
3 40 39 6
3 41 2 42
3 44 43 2
3 4 45 46
3 48 47 4
3 5 49 50
3 5 51 53
3 51 3 52
3 51 52 53
3 5 6 3
3 7 6 5
3 7 54 56
3 56 55 6
3 54 55 56
3 8 57 59
3 57 58 59
3 8 60 62
3 60 61 62
3 63 8 64
3 9 65 67
3 65 8 66
3 65 66 67
3 9 68 70
3 70 69 8
3 68 69 70
3 9 71 72
3 74 73 9
3 10 75 76
3 10 77 78
3 79 10 80
3 81 80 2
3 79 80 81
3 82 10 83
3 85 84 10
3 86 4 87
3 88 4 89
3 90 0 91
3 92 91 4
3 90 91 92
3 93 1 94
3 95 0 96
3 11 97 98
3 11 99 101
3 99 0 100
3 99 100 101
3 11 102 104
3 104 103 0
3 102 103 104
3 106 105 11
3 6 107 109
3 109 108 3
3 107 108 109
3 111 110 6
3 112 1 113
3 114 1 115
3 116 7 117
3 118 117 1
3 116 117 118
3 119 7 120
3 122 121 7
