ply
format ascii 1.0
element vertex 212
property float x
property float y
property float z
element face 205
property list uchar int vertex_index
end_header
23.912971 41.333057 59.708942
28.036871 28.241961 61.107948
28.528067 43.112137 54.152588
27.021833 49.838367 53.440254
26.522596 42.786217 57.421917
29.369631 29.058506 57.402611
23.350101 33.619778 62.899651
26.194836 34.968636 60.987206
25.844316 27.122765 64.004707
28.852419 50.323898 49.709888
29.727634 43.25272 50.186577
28.149256 36.0574 58.006821
29.519718 36.241673 54.135689
30.288801 35.973797 49.768784
22.45113 40.063217 60.531898
25.611471 45.839302 56.816925
25.296021 41.849304 58.843903
21.644119 28.576553 64.764389
21.867369 32.323166 63.521313
23.266209 29.805683 64.234482
24.706039 30.404289 63.581169
27.831722 46.569897 53.879097
27.997679 50.178318 51.739891
28.665092 46.919853 51.972179
29.321768 46.746326 50.109886
29.22546 43.132969 52.203281
27.162836 31.691349 61.194832
27.267792 35.474579 59.64122
28.054993 32.211483 59.669857
29.804607 29.066097 55.408173
29.400816 32.780636 55.954845
29.867321 32.490669 53.914818
29.973026 35.855957 52.064503
30.201754 32.622238 51.579746
25.897583 49.505184 54.798561
26.781363 46.351143 55.484398
27.641663 43.105534 55.848003
28.75699 28.924519 59.341347
20.443352 34.982578 62.454514
22.091743 36.218941 62.085846
23.699846 37.347797 61.408428
25.063761 38.023556 60.577934
24.906155 34.169739 62.150139
26.033314 30.902763 62.60022
27.053349 27.65946 62.716633
29.07741 53.748287 47.145393
29.522726 50.024632 47.669449
29.874023 46.494892 47.921177
30.1618 42.618332 48.074772
26.375641 38.902668 59.250195
27.430746 39.355934 57.825897
28.355286 39.426018 56.192577
28.819517 32.499043 57.888336
28.921576 36.180908 56.180981
29.040051 39.806496 54.307301
29.63509 39.664402 52.21233
30.048145 39.386372 50.19577
23.272933 42.726997 59.237054
22.542012 42.092077 59.648533
23.18205 40.698137 60.12042
24.070408 43.165895 58.841192
23.272933 42.726997 59.237054
24.604496 41.59118 59.276422
24.761933 43.424019 58.408672
24.070408 43.165895 58.841192
22.361131 27.26412 65.121746
21.594494 26.685067 65.336292
23.172176 27.878685 64.856792
22.455164 29.191118 64.499436
22.361131 27.26412 65.121746
23.89891 28.167474 64.568794
23.172176 27.878685 64.856792
29.986742 30.905411 53.614094
29.835964 30.778383 54.661496
29.955385 29.193126 54.360771
30.153959 30.971196 52.446558
30.034537 32.556454 52.747282
29.986742 30.905411 53.614094
30.261697 30.811779 51.3782
30.153959 30.971196 52.446558
25.250504 49.187002 55.382675
25.417397 51.099945 54.307548
20.310357 33.156287 63.085
19.55201 34.569734 62.402476
27.184116 51.779405 52.167217
26.62762 51.497026 53.001415
28.583596 51.974232 49.45752
28.156227 51.901441 50.472521
28.425049 50.251108 50.72489
28.964914 52.036092 48.42764
28.696092 53.686426 48.175272
28.583596 51.974232 49.45752
30.331266 37.508486 48.847485
30.210938 39.214773 49.060978
30.168473 37.680084 49.982277
30.397659 35.685509 48.730555
30.440123 37.220198 47.809256
30.331266 37.508486 48.847485
21.727235 41.532015 59.898015
21.638384 39.569462 60.719738
21.727235 41.532015 59.898015
22.542012 42.092077 59.648533
24.919657 45.419018 57.395184
25.107447 47.354061 56.391857
25.453746 43.844303 57.830414
24.919657 45.419018 57.395184
24.761933 43.424019 58.408672
20.841189 28.060085 64.844357
21.594494 26.685067 65.336292
20.91074 29.953274 64.239937
20.841189 28.060085 64.844357
21.755744 30.44986 64.142851
21.022365 31.826581 63.618399
20.91074 29.953274 64.239937
24.618825 28.466777 64.242138
23.986124 30.104986 63.907826
23.89891 28.167474 64.568794
25.187964 26.826016 64.453907
25.275177 28.763527 63.792938
24.618825 28.466777 64.242138
30.310341 32.505621 50.493971
30.353865 34.1814 49.588489
30.245278 34.298018 50.674265
30.310341 32.505621 50.493971
30.261697 30.811779 51.3782
26.065496 51.330434 53.680568
25.417397 51.099945 54.307548
26.459708 49.671775 54.119408
26.62762 51.497026 53.001415
26.065496 51.330434 53.680568
25.754527 47.672243 55.807743
25.250504 49.187002 55.382675
25.107447 47.354061 56.391857
28.742465 26.897983 60.052854
28.39693 28.58324 60.224648
28.382406 26.556704 60.936155
29.030667 27.150689 59.097488
28.742465 26.897983 60.052854
29.016142 25.124153 59.808996
29.336987 27.217683 58.128121
29.063311 28.991512 58.371979
29.030667 27.150689 59.097488
29.55119 27.317238 57.147066
29.336987 27.217683 58.128121
29.768679 27.321033 56.149847
29.587119 29.062302 56.405392
29.55119 27.317238 57.147066
29.92889 27.279517 55.073715
29.768679 27.321033 56.149847
29.892961 25.534454 55.815389
29.955385 29.193126 54.360771
29.92889 27.279517 55.073715
19.738302 36.422958 61.743504
19.55201 34.569734 62.402476
20.634495 37.029142 61.681046
19.738302 36.422958 61.743504
21.155361 33.652872 62.987914
20.310357 33.156287 63.085
21.022365 31.826581 63.618399
21.458691 37.647323 61.496712
20.634495 37.029142 61.681046
21.267547 35.600759 62.27018
22.271437 38.141079 61.308872
21.638384 39.569462 60.719738
21.458691 37.647323 61.496712
25.797895 25.274441 64.597328
25.187964 26.826016 64.453907
26.362737 25.573484 64.029167
25.797895 25.274441 64.597328
26.967253 25.841832 63.38513
26.448833 27.391112 63.36067
26.362737 25.573484 64.029167
27.494992 26.117198 62.594136
26.967253 25.841832 63.38513
27.986753 26.408448 61.789793
27.54511 27.95071 61.91229
27.494992 26.117198 62.594136
28.382406 26.556704 60.936155
27.986753 26.408448 61.789793
27.672039 51.949381 51.317036
27.184116 51.779405 52.167217
27.509756 50.008342 52.590073
27.672039 51.949381 51.317036
28.156227 51.901441 50.472521
28.781381 55.525684 46.886573
28.696092 53.686426 48.175272
29.162889 55.421621 45.837553
28.781381 55.525684 46.886573
29.38872 53.489502 46.135126
29.162889 55.421621 45.837553
29.611377 51.627674 46.397154
29.38872 53.489502 46.135126
29.300068 51.88646 47.407421
29.782797 49.887332 46.510059
29.611377 51.627674 46.397154
29.958445 48.122462 46.635924
29.782797 49.887332 46.510059
29.698374 48.259762 47.795313
30.075266 46.283343 46.818636
29.958445 48.122462 46.635924
30.219155 44.345062 46.895434
30.075266 46.283343 46.818636
30.017912 44.556612 47.997974
30.317203 42.490475 46.930893
30.219155 44.345062 46.895434
30.267765 40.830754 48.000479
30.104973 41.002352 49.135271
30.210938 39.214773 49.060978
30.317203 42.490475 46.930893
30.267765 40.830754 48.000479
30.397659 35.685509 48.730555
30.353865 34.1814 49.588489
3 0 57 59
3 59 58 14
3 57 58 59
3 0 60 61
3 0 62 64
3 62 16 63
3 62 63 64
3 65 17 66
3 67 19 68
3 69 68 17
3 67 68 69
3 71 70 19
3 2 23 21
3 2 25 23
3 1 28 26
3 72 31 73
3 74 73 29
3 72 73 74
3 75 33 76
3 77 76 31
3 75 76 77
3 79 78 33
3 80 34 81
3 4 35 15
3 4 36 35
3 82 38 83
3 6 39 18
3 6 40 39
3 6 42 40
3 8 43 20
3 8 44 43
3 3 84 85
3 9 86 88
3 88 87 22
3 86 87 88
3 9 89 91
3 89 45 90
3 89 90 91
3 9 46 45
3 10 47 24
3 10 48 47
3 7 49 41
3 11 50 27
3 11 51 50
3 5 52 37
3 12 53 30
3 12 54 53
3 12 55 54
3 13 56 32
3 13 92 94
3 94 93 56
3 92 93 94
3 13 95 97
3 95 96 97
3 14 98 99
3 101 100 14
3 102 15 103
3 16 104 106
3 104 15 105
3 104 105 106
3 16 4 15
3 17 107 108
3 17 109 110
3 17 111 113
3 111 18 112
3 111 112 113
3 19 18 17
3 19 6 18
3 19 20 6
3 114 20 115
3 116 115 19
3 114 115 116
3 117 8 118
3 119 118 20
3 117 118 119
3 21 22 3
3 23 22 21
3 23 9 22
3 23 24 9
3 25 24 23
3 25 10 24
3 26 27 7
3 28 27 26
3 28 11 27
3 29 30 5
3 31 30 29
3 31 12 30
3 31 32 12
3 33 32 31
3 33 13 32
3 33 120 122
3 122 121 13
3 120 121 122
3 124 123 33
3 34 125 126
3 34 127 129
3 127 3 128
3 127 128 129
3 15 130 132
3 130 34 131
3 130 131 132
3 35 34 15
3 35 3 34
3 35 21 3
3 36 21 35
3 36 2 21
3 133 37 134
3 135 134 1
3 133 134 135
3 136 37 137
3 136 137 138
3 139 5 140
3 141 140 37
3 139 140 141
3 142 5 143
3 144 29 145
3 146 145 5
3 144 145 146
3 147 29 148
3 147 148 149
3 151 150 29
3 38 152 153
3 38 154 155
3 18 156 158
3 156 38 157
3 156 157 158
3 39 38 18
3 39 159 161
3 161 160 38
3 159 160 161
3 39 162 164
3 162 14 163
3 162 163 164
3 40 14 39
3 40 0 14
3 40 41 0
3 42 41 40
3 42 7 41
3 20 42 6
3 43 42 20
3 43 7 42
3 43 26 7
3 44 26 43
3 44 1 26
3 165 8 166
3 167 8 168
3 169 44 170
3 171 170 8
3 169 170 171
3 172 44 173
3 174 1 175
3 176 175 44
3 174 175 176
3 178 177 1
3 22 179 181
3 181 180 3
3 179 180 181
3 183 182 22
3 45 184 185
3 45 186 187
3 45 188 189
3 46 190 192
3 192 191 45
3 190 191 192
3 46 193 194
3 24 46 9
3 47 46 24
3 47 195 197
3 197 196 46
3 195 196 197
3 47 198 199
3 48 200 202
3 202 201 47
3 200 201 202
3 48 203 204
3 41 16 0
3 49 16 41
3 49 4 16
3 27 49 7
3 50 49 27
3 50 4 49
3 50 36 4
3 51 36 50
3 51 2 36
3 37 28 1
3 52 28 37
3 52 11 28
3 30 52 5
3 53 52 30
3 53 11 52
3 53 51 11
3 54 51 53
3 54 2 51
3 54 25 2
3 55 25 54
3 55 10 25
3 32 55 12
3 56 55 32
3 56 10 55
3 56 48 10
3 205 48 206
3 207 206 56
3 205 206 207
3 209 208 48
3 211 210 13
