ply
format ascii 1.0
element vertex 271
property float x
property float y
property float z
element face 258
property list uchar int vertex_index
end_header
-6.731928 10.740438 63.335739
-10.875224 17.34691 64.046021
-3.988358 19.262455 59.16106
3.04009 20.13328 54.270176
-8.487589 13.484251 63.729103
-7.359223 18.496147 61.576523
-5.431643 14.523905 61.517323
-2.160407 14.761455 59.258282
4.721301 15.21207 54.383179
8.302398 15.477412 51.669163
-13.11451 21.400269 64.068153
-9.597676 22.87059 61.555588
-6.006557 23.999773 58.878479
-2.58442 24.635038 56.45322
-14.446839 15.284755 66.469627
1.047362 25.134327 54.009514
-0.489683 19.630272 56.744293
1.237124 15.013751 56.864571
-7.573001 11.77029 63.612553
-6.991998 14.066798 62.646839
-6.161379 12.297488 62.585144
-7.867726 9.952718 64.223663
-8.998107 11.09725 64.637016
-5.640039 10.625863 62.648537
-4.720716 12.441401 61.59726
6.50794 15.195205 53.090836
-12.009591 19.214542 64.130409
-11.338085 22.188787 62.82835
-10.25208 20.083036 62.854733
-5.587479 18.883804 60.322208
-6.67472 21.130592 60.293083
-4.884426 21.622459 58.97282
-4.281374 24.515156 57.579773
-3.184853 21.839407 57.799046
-11.361188 14.46923 65.123535
-12.700496 16.355785 65.32296
-13.76369 18.427046 65.280411
-1.431888 22.153894 56.563175
-2.242031 19.677607 57.884296
-1.503992 12.539631 59.378033
-0.464276 14.847416 58.075809
2.065128 22.661921 54.162971
-9.578811 15.360744 63.865902
-9.148973 18.017267 62.831501
-7.953031 16.035719 62.690487
-6.335948 16.466167 61.545235
-4.696967 16.689779 60.414177
-10.568279 10.117528 65.772034
-10.12249 12.658363 64.904755
-2.974003 17.148968 59.136131
-3.800994 14.625568 60.406582
-3.181301 12.420965 60.560341
3.878817 17.450211 54.422558
4.777459 20.087601 53.110611
5.77906 17.715494 53.020485
-12.501429 24.743378 62.662964
-10.712584 25.261702 61.427563
-9.02074 25.924116 60.130661
-8.50364 20.647169 61.608444
-7.78893 23.620461 60.159988
-0.785509 24.855049 55.244301
0.240474 22.496778 55.379841
-1.310059 17.244328 57.992607
0.381594 17.298538 56.83852
2.105186 17.485886 55.624798
2.907349 15.022202 55.70673
-7.299827 10.346578 63.779701
-7.259581 9.557389 63.928421
-6.691681 9.951248 63.484459
-6.691681 9.951248 63.484459
-6.145737 9.893961 63.140858
-6.185983 10.68315 62.992138
-0.609258 12.591952 58.74527
-1.177626 11.468601 59.405236
3.447323 21.372108 53.644268
2.959842 22.636429 53.590666
2.552609 21.3976 54.216573
-9.925227 9.434416 65.555656
-10.752061 8.79347 66.163754
-10.109009 8.110357 65.947376
-3.7101 11.469587 61.147161
-3.951009 12.431183 61.0788
-4.479807 11.479805 61.665621
-2.88192 11.428172 60.591189
-3.7101 11.469587 61.147161
7.879685 16.653457 51.717568
6.982456 16.512353 52.428404
7.405169 15.336308 52.379999
8.77085 16.648038 51.033747
7.879685 16.653457 51.717568
9.187694 15.486067 50.959095
8.77085 16.648038 51.033747
-12.807969 23.071824 63.365558
-13.436606 24.266822 63.317993
-13.743147 22.595267 64.020588
-6.580893 25.310386 58.773201
-7.472079 25.120729 59.413956
-6.897743 23.810117 59.519233
-5.68657 25.46763 58.13361
-6.580893 25.310386 58.773201
-3.110955 26.02749 56.276641
-3.959431 25.967548 56.839918
-3.432897 24.575097 57.016497
-2.212915 26.03369 55.713563
-3.110955 26.02749 56.276641
-14.738188 13.757464 66.988002
-13.81756 14.288249 66.427582
-15.4245 14.678712 67.037899
-15.715848 13.15142 67.556275
-14.738188 13.757464 66.988002
-15.040287 16.23777 66.476642
-16.017948 15.631727 67.044915
-15.4245 14.678712 67.037899
-14.079392 20.9052 64.693752
-14.403982 19.418588 65.299881
-13.4391 19.913657 64.674282
-13.743147 22.595267 64.020588
-14.079392 20.9052 64.693752
-1.684964 24.745044 55.84876
-1.313459 26.143695 55.109104
-2.212915 26.03369 55.713563
0.390572 19.819804 56.108734
0.755651 21.253057 55.426508
-0.124604 21.063525 56.062067
1.327597 26.51014 53.365368
0.448844 26.333633 53.957234
5.146315 21.489375 52.468578
5.612783 20.218819 52.490862
-8.432916 10.524984 64.43034
-9.140141 9.924277 64.988147
-8.57495 9.352011 64.781471
-7.934035 8.876589 64.496162
-7.259581 9.557389 63.928421
-8.57495 9.352011 64.781471
-7.934035 8.876589 64.496162
-5.454847 9.694624 62.730701
-4.939469 10.572036 62.19126
-5.454847 9.694624 62.730701
-6.145737 9.893961 63.140858
-4.939469 10.572036 62.19126
-4.479807 11.479805 61.665621
-5.180378 11.533632 62.122898
6.010819 14.011304 53.725047
5.614621 15.203637 53.737008
5.1175 14.019737 54.371218
6.907181 14.084976 53.039
6.010819 14.011304 53.725047
7.80441 14.22608 52.328164
7.405169 15.336308 52.379999
6.907181 14.084976 53.039
8.174872 13.058309 52.289887
8.67286 14.309641 51.630886
7.80441 14.22608 52.328164
-12.274734 13.880487 65.754536
-12.541778 12.462036 66.261582
-11.628232 13.05078 65.630581
-12.944388 14.823764 65.854248
-12.274734 13.880487 65.754536
-12.030842 15.412508 65.223247
-13.573667 15.82027 65.896293
-13.81756 14.288249 66.427582
-12.944388 14.823764 65.854248
-0.0894 13.745845 58.094158
-0.984134 13.693524 58.726921
-0.609258 12.591952 58.74527
0.7613 13.829012 57.488539
0.386424 14.930584 57.47019
-0.0894 13.745845 58.094158
1.607511 13.858627 56.890474
0.7613 13.829012 57.488539
2.436128 23.925461 53.528997
1.927245 25.161664 53.452269
1.556245 23.898124 54.086242
2.436128 23.925461 53.528997
2.959842 22.636429 53.590666
-11.464214 9.489141 66.39613
-10.752061 8.79347 66.163754
-11.231778 10.874928 65.95483
-12.127713 10.246542 66.578926
-11.464214 9.489141 66.39613
-9.783193 10.607389 65.204525
-9.925227 9.434416 65.555656
-9.140141 9.924277 64.988147
-11.008883 12.145346 65.521191
-11.231778 10.874928 65.95483
-10.345385 11.387946 65.338394
-10.741839 13.563796 65.014145
-11.628232 13.05078 65.630581
-11.008883 12.145346 65.521191
-2.043266 11.487505 60.000034
-2.342646 12.480298 59.969187
-2.88192 11.428172 60.591189
-1.177626 11.468601 59.405236
-2.043266 11.487505 60.000034
6.113584 19.032766 52.445799
5.612783 20.218819 52.490862
5.27826 18.901547 53.065548
6.618016 17.772498 52.393228
6.1435 16.45535 53.055661
6.982456 16.512353 52.428404
6.113584 19.032766 52.445799
6.618016 17.772498 52.393228
9.558156 14.318296 50.920818
9.187694 15.486067 50.959095
8.67286 14.309641 51.630886
-13.135841 25.947895 62.609047
-13.436606 24.266822 63.317993
-12.191885 26.341349 61.927407
-13.135841 25.947895 62.609047
-11.297463 26.600511 61.309706
-12.191885 26.341349 61.927407
-11.607007 25.00254 62.045264
-10.386491 26.824599 60.658432
-11.297463 26.600511 61.309706
-9.540569 27.155805 60.009981
-10.386491 26.824599 60.658432
-9.866662 25.592909 60.779112
-8.677901 27.400742 59.356837
-9.540569 27.155805 60.009981
-8.087984 26.272557 59.399292
-8.404835 24.772289 60.145325
-7.472079 25.120729 59.413956
-8.677901 27.400742 59.356837
-8.087984 26.272557 59.399292
-4.823978 25.725322 57.484257
-5.68657 25.46763 58.13361
-5.143966 24.257465 58.229126
-4.823978 25.725322 57.484257
-3.959431 25.967548 56.839918
-14.698712 17.808916 65.882035
-15.040287 16.23777 66.476642
-14.105265 16.855901 65.875019
-14.698712 17.808916 65.882035
-14.403982 19.418588 65.299881
-0.467591 26.193994 54.574627
-1.313459 26.143695 55.109104
0.130926 24.994688 54.626908
0.448844 26.333633 53.957234
-0.467591 26.193994 54.574627
1.667978 21.335628 54.818073
1.152801 22.579349 54.771406
0.755651 21.253057 55.426508
2.155458 20.071308 54.871675
2.552609 21.3976 54.216573
1.667978 21.335628 54.818073
0.82621 18.653937 56.155848
0.390572 19.819804 56.108734
-0.054044 18.464405 56.791407
1.688006 18.747611 55.548986
0.82621 18.653937 56.155848
1.24339 17.392212 56.231659
2.572638 18.809583 54.947487
2.155458 20.071308 54.871675
1.688006 18.747611 55.548986
2.442623 13.862852 56.311554
2.072236 15.017976 56.285651
1.607511 13.858627 56.890474
3.339341 13.873024 55.6746
2.442623 13.862852 56.311554
4.246317 13.967958 55.012825
3.814325 15.117136 55.044955
3.339341 13.873024 55.6746
5.1175 14.019737 54.371218
4.246317 13.967958 55.012825
1.327597 26.51014 53.365368
1.927245 25.161664 53.452269
4.316008 21.349269 53.064486
3.447323 21.372108 53.644268
3.908775 20.11044 53.690393
4.316008 21.349269 53.064486
5.146315 21.489375 52.468578
3 0 20 18
3 0 18 21
3 0 66 68
3 66 21 67
3 66 67 68
3 0 69 71
3 71 70 23
3 69 70 71
3 0 23 20
3 1 28 26
3 2 31 29
3 2 33 31
3 1 35 34
3 1 26 35
3 2 38 33
3 73 72 39
3 3 74 76
3 76 75 41
3 74 75 76
3 4 44 42
3 6 45 19
3 6 46 45
3 77 47 78
3 77 78 79
3 4 48 22
3 4 42 48
3 6 50 46
3 80 51 81
3 82 81 24
3 80 81 82
3 84 83 51
3 8 54 52
3 9 85 87
3 87 86 25
3 85 86 87
3 9 88 89
3 9 90 91
3 10 92 94
3 92 55 93
3 92 93 94
3 11 56 27
3 11 57 56
3 5 58 43
3 12 59 30
3 12 95 97
3 97 96 59
3 95 96 97
3 12 98 99
3 13 100 102
3 102 101 32
3 100 101 102
3 13 103 104
3 14 105 106
3 14 107 109
3 107 108 109
3 14 110 112
3 110 111 112
3 10 113 115
3 115 114 36
3 113 114 115
3 10 116 117
3 13 118 120
3 118 60 119
3 118 119 120
3 16 61 37
3 16 121 123
3 123 122 61
3 121 122 123
3 7 62 49
3 17 63 40
3 17 64 63
3 17 65 64
3 15 124 125
3 127 126 53
3 18 19 4
3 20 19 18
3 20 6 19
3 21 128 130
3 128 22 129
3 128 129 130
3 18 22 21
3 18 4 22
3 21 131 132
3 21 133 134
3 23 135 136
3 138 137 23
3 20 24 6
3 23 24 20
3 23 139 141
3 141 140 24
3 139 140 141
3 142 25 143
3 144 143 8
3 142 143 144
3 145 25 146
3 147 9 148
3 149 148 25
3 147 148 149
3 152 151 9
3 150 151 152
3 26 27 10
3 28 27 26
3 28 11 27
3 29 30 5
3 31 30 29
3 31 12 30
3 31 32 12
3 33 32 31
3 33 13 32
3 34 153 155
3 153 154 155
3 35 156 158
3 158 157 34
3 156 157 158
3 35 159 161
3 159 14 160
3 159 160 161
3 35 36 14
3 26 36 35
3 26 10 36
3 33 37 13
3 38 37 33
3 38 16 37
3 39 40 7
3 162 40 163
3 164 163 39
3 162 163 164
3 165 17 166
3 167 166 40
3 165 166 167
3 169 168 17
3 41 170 172
3 172 171 15
3 170 171 172
3 174 173 41
3 42 43 1
3 44 43 42
3 44 5 43
3 19 44 4
3 45 44 19
3 45 5 44
3 45 29 5
3 46 29 45
3 46 2 29
3 47 175 176
3 47 177 179
3 177 178 179
3 22 180 182
3 180 47 181
3 180 181 182
3 48 47 22
3 48 183 185
3 185 184 47
3 183 184 185
3 48 186 188
3 186 34 187
3 186 187 188
3 42 34 48
3 42 1 34
3 46 49 2
3 50 49 46
3 50 7 49
3 24 50 6
3 51 50 24
3 51 7 50
3 51 39 7
3 189 39 190
3 191 190 51
3 189 190 191
3 193 192 39
3 52 53 3
3 54 53 52
3 54 194 196
3 196 195 53
3 194 195 196
3 25 54 8
3 197 54 198
3 199 198 25
3 197 198 199
3 201 200 54
3 204 203 9
3 202 203 204
3 55 205 206
3 55 207 208
3 27 55 10
3 56 55 27
3 56 209 211
3 211 210 55
3 209 210 211
3 56 212 213
3 57 214 216
3 216 215 56
3 214 215 216
3 57 217 218
3 43 28 1
3 58 28 43
3 58 11 28
3 30 58 5
3 59 58 30
3 59 11 58
3 59 57 11
3 219 57 220
3 221 220 59
3 219 220 221
3 223 222 57
3 32 224 226
3 226 225 12
3 224 225 226
3 228 227 32
3 36 229 231
3 231 230 14
3 229 230 231
3 233 232 36
3 60 234 235
3 60 236 238
3 236 15 237
3 236 237 238
3 37 60 13
3 61 60 37
3 61 15 60
3 61 41 15
3 239 41 240
3 241 240 61
3 239 240 241
3 242 3 243
3 244 243 41
3 242 243 244
3 49 38 2
3 62 38 49
3 62 16 38
3 40 62 7
3 63 62 40
3 63 16 62
3 63 245 247
3 247 246 16
3 245 246 247
3 64 248 250
3 250 249 63
3 248 249 250
3 64 251 253
3 251 3 252
3 251 252 253
3 64 52 3
3 65 52 64
3 65 8 52
3 254 65 255
3 256 255 17
3 254 255 256
3 257 65 258
3 259 8 260
3 261 260 65
3 259 260 261
3 263 262 8
3 265 264 15
3 53 266 268
3 268 267 3
3 266 267 268
3 270 269 53
