ply
format ascii 1.0
element vertex 282
property float x
property float y
property float z
element face 250
property list uchar int vertex_index
end_header
-28.25598 -55.553238 55.227112
-23.304688 -57.04509 59.510967
-18.33329 -64.591072 52.649193
-24.778221 -64.926498 50.720867
-26.997787 -47.709526 63.193691
-26.124605 -56.774708 57.711155
-24.176773 -61.063473 55.37038
-26.823698 -60.400921 53.27544
-24.320131 -48.017303 65.397461
-26.067099 -43.412228 66.610977
-19.139317 -68.671478 48.209095
-28.646709 -58.853306 50.731953
-20.918686 -61.014118 56.472649
-21.784885 -65.093491 52.151749
-27.288166 -56.193085 56.624622
-26.545219 -58.556793 55.55291
-27.616199 -57.938702 54.39603
-24.800385 -43.420578 67.558525
-25.707458 -40.965652 68.065895
-29.6222 -55.525887 50.018375
-21.759634 -56.74799 60.193447
-20.528061 -58.848297 58.494957
-22.194834 -59.059177 58.107178
-24.567312 -62.997822 53.08112
-23.091639 -63.20327 53.75592
-23.404781 -65.031052 51.598312
-25.743481 -47.946697 64.438538
-24.825747 -50.407825 63.625847
-26.169838 -50.2001 62.626011
-26.655983 -52.207745 60.69738
-27.310057 -49.840157 61.39904
-24.794453 -56.90321 58.806187
-23.744041 -59.092552 57.502575
-25.197397 -58.93708 56.666378
-25.585764 -60.924973 54.336464
-25.841846 -62.853233 51.9678
-25.263262 -45.715752 66.091682
-26.549551 -45.488312 65.030594
-18.69577 -66.618393 50.509529
-17.345589 -68.355492 48.184452
-29.006241 -54.751705 53.699509
-28.440769 -57.326859 53.037678
-29.117754 -56.578499 51.477676
-19.626495 -62.927509 54.574474
-22.618921 -61.291172 55.879368
-21.419052 -63.193371 54.246979
-20.135925 -64.838882 52.603619
-20.473244 -66.877083 50.339535
-27.806604 -59.768177 52.067539
-26.976286 -62.121475 51.094059
-26.101 -64.454834 49.716686
-22.843979 -54.666573 61.582325
-25.79874 -54.658592 59.800407
-26.967955 -54.327328 58.684059
-27.955404 -53.865364 57.338066
-27.290445 -42.867664 65.446831
-27.618801 -45.117905 63.733147
-28.478809 -44.536362 62.239254
-27.973583 -47.205254 61.865929
-28.231993 -49.121754 60.114025
-25.447325 -39.84481 68.703957
-24.997104 -40.989033 68.485828
-24.206028 -65.968582 49.929807
-23.519308 -66.020859 50.36853
-24.091501 -64.978775 51.159589
-17.422918 -64.328213 52.648184
-18.15832 -63.526941 53.703483
-29.322184 -55.294344 51.781134
-29.061998 -55.665102 52.588593
-29.266428 -54.380947 52.89205
-29.440687 -56.734156 49.634872
-29.665618 -56.201252 48.876058
-20.028561 -60.846907 56.596907
-19.833248 -59.763996 57.608061
-20.723374 -59.931207 57.483803
-20.27259 -61.970814 55.523561
-19.382465 -61.803602 55.647819
-20.028561 -60.846907 56.596907
-27.066423 -62.936258 49.900476
-27.473552 -61.734875 50.439686
-26.62878 -64.102937 49.21179
-26.538643 -63.288155 50.405372
-27.066423 -62.936258 49.900476
-22.526152 -53.605751 62.44104
-21.974531 -54.610805 61.794695
-23.836892 -49.222801 64.882332
-23.564839 -48.04356 65.690831
-24.339571 -51.545876 63.132393
-25.0973 -51.42058 62.735412
-25.583796 -53.545963 60.822693
-25.103161 -54.757133 60.265329
-27.328446 -53.07882 59.036915
-26.811969 -53.267537 59.69072
-27.17246 -52.019028 60.043576
-27.822171 -52.847837 58.363918
-27.46168 -54.096346 58.011062
-27.328446 -53.07882 59.036915
-27.730514 -42.69845 64.752938
-27.587802 -41.615307 65.585533
-27.894692 -43.823571 63.896096
-27.454623 -43.992784 64.589989
-27.730514 -42.69845 64.752938
-28.612164 -45.616991 61.240293
-28.771444 -44.2502 61.452435
-28.359552 -46.951437 61.053631
-28.226196 -45.870808 62.052592
-28.612164 -45.616991 61.240293
-28.488757 -47.909687 60.177679
-28.102788 -48.163504 60.989977
-28.359552 -46.951437 61.053631
-24.543567 -42.216496 68.232144
-24.037755 -43.400633 67.909107
-25.253921 -42.193115 67.81221
-24.543567 -42.216496 68.232144
-24.997104 -40.989033 68.485828
-18.432144 -69.541916 47.025551
-19.270305 -69.680389 46.993725
-29.766461 -54.215266 50.25658
-29.574407 -54.768038 51.051483
-29.803707 -54.941961 49.211732
-29.766461 -54.215266 50.25658
-29.665618 -56.201252 48.876058
-29.803707 -54.941961 49.211732
-21.143847 -57.798144 59.344202
-20.268062 -57.700783 59.474701
-20.883849 -56.650629 60.323946
-22.753104 -66.071968 50.683183
-21.943156 -66.103188 50.959902
-22.594833 -65.062272 51.875031
-22.753104 -66.071968 50.683183
-23.519308 -66.020859 50.36853
-28.308764 -60.10079 50.258633
-28.711778 -59.596159 49.540304
-25.769346 -51.316717 62.235495
-25.0973 -51.42058 62.735412
-25.497792 -50.303962 63.125929
-26.41291 -51.203923 61.661696
-26.012418 -52.32054 61.271179
-25.769346 -51.316717 62.235495
-27.499498 -50.835234 60.394406
-27.17246 -52.019028 60.043576
-26.98302 -51.023951 61.04821
-24.065205 -46.86713 66.154079
-23.564839 -48.04356 65.690831
-24.305332 -44.568767 67.234611
-24.037755 -43.400633 67.909107
-24.536771 -45.716355 66.50119
-24.305332 -44.568767 67.234611
-25.031824 -44.568165 66.825104
-24.791697 -46.866528 65.744572
-24.065205 -46.86713 66.154079
-24.536771 -45.716355 66.50119
-17.816935 -66.34938 50.572647
-17.635696 -65.33572 51.642479
-18.51453 -65.604732 51.579361
-17.141845 -67.21793 49.410108
-17.816935 -66.34938 50.572647
-18.020679 -67.486942 49.346991
-16.4492 -67.981811 48.261397
-17.141845 -67.21793 49.410108
-17.53528 -69.383923 47.01323
-18.242453 -68.513485 48.196773
-18.432144 -69.541916 47.025551
-16.637447 -69.090359 47.047362
-17.53528 -69.383923 47.01323
-16.4492 -67.981811 48.261397
-16.637447 -69.090359 47.047362
-29.369977 -56.052193 50.748025
-29.322184 -55.294344 51.781134
-29.574407 -54.768038 51.051483
-29.188464 -57.260462 50.364522
-29.369977 -56.052193 50.748025
-29.440687 -56.734156 49.634872
-28.952942 -58.397866 49.991661
-28.882232 -57.715902 51.104815
-29.188464 -57.260462 50.364522
-28.711778 -59.596159 49.540304
-28.952942 -58.397866 49.991661
-19.614589 -58.625853 58.612696
-20.268062 -57.700783 59.474701
-19.614589 -58.625853 58.612696
-19.833248 -59.763996 57.608061
-18.804922 -62.69516 54.666124
-19.382465 -61.803602 55.647819
-18.979892 -63.75929 53.611834
-18.15832 -63.526941 53.703483
-18.804922 -62.69516 54.666124
-21.287336 -66.994984 50.053795
-21.129064 -65.985287 51.245642
-21.943156 -66.103188 50.959902
-20.637073 -67.919789 49.096075
-21.287336 -66.994984 50.053795
-19.97011 -68.816986 48.030855
-19.80628 -67.774281 49.274315
-20.637073 -67.919789 49.096075
-19.270305 -69.680389 46.993725
-19.97011 -68.816986 48.030855
-27.888711 -60.558226 50.926426
-28.226657 -59.310742 51.399746
-28.308764 -60.10079 50.258633
-27.391445 -60.944826 51.580799
-27.888711 -60.558226 50.926426
-27.473552 -61.734875 50.439686
-26.210673 -65.22958 48.52935
-26.62878 -64.102937 49.21179
-25.583413 -65.557183 49.002144
-26.210673 -65.22958 48.52935
-24.922024 -65.793014 49.504234
-25.439611 -64.690666 50.218777
-25.583413 -65.557183 49.002144
-24.206028 -65.968582 49.929807
-24.922024 -65.793014 49.504234
-21.432358 -55.651514 61.100256
-20.883849 -56.650629 60.323946
-22.301806 -55.707282 60.887886
-21.432358 -55.651514 61.100256
-21.974531 -54.610805 61.794695
-24.0897 -50.418062 63.996525
-23.836892 -49.222801 64.882332
-24.572939 -49.212564 64.511654
-24.0897 -50.418062 63.996525
-24.339571 -51.545876 63.132393
-23.348687 -53.675249 62.110632
-22.526152 -53.605751 62.44104
-23.62578 -54.761124 61.156288
-23.348687 -53.675249 62.110632
-23.856134 -55.950383 60.120609
-23.074334 -55.855832 60.546646
-23.62578 -54.761124 61.156288
-24.601017 -55.879442 59.768219
-24.049571 -56.97415 59.158577
-23.856134 -55.950383 60.120609
-25.296596 -55.780901 59.303297
-24.601017 -55.879442 59.768219
-25.103161 -54.757133 60.265329
-26.227362 -53.433169 60.248894
-25.583796 -53.545963 60.822693
-26.012418 -52.32054 61.271179
-26.115431 -39.751363 68.225597
-25.447325 -39.84481 68.703957
-26.281672 -40.924709 67.528854
-26.115431 -39.751363 68.225597
-26.461492 -42.147997 66.801396
-25.887279 -42.18894 67.338436
-26.281672 -40.924709 67.528854
-27.073166 -41.875715 66.219323
-27.587802 -41.615307 65.585533
-26.678772 -43.139946 66.028904
-26.461492 -42.147997 66.801396
-27.073166 -41.875715 66.219323
-28.674688 -43.223664 62.369854
-28.771444 -44.2502 61.452435
-28.324695 -43.532799 63.149149
-28.674688 -43.223664 62.369854
-28.048805 -44.827134 62.986201
-27.894692 -43.823571 63.896096
-28.324695 -43.532799 63.149149
-27.960465 -50.476033 59.751898
-27.499498 -50.835234 60.394406
-27.771025 -49.480956 60.756532
-28.581376 -48.943728 59.249828
-28.488757 -47.909687 60.177679
-28.382407 -50.152681 59.04938
-28.581376 -48.943728 59.249828
-27.960465 -50.476033 59.751898
-28.382407 -50.152681 59.04938
-28.244113 -52.524486 57.6614
-27.822171 -52.847837 58.363918
-28.369217 -53.446655 56.619461
-28.244113 -52.524486 57.6614
-28.519505 -54.290592 55.563984
-28.105692 -54.709301 56.282589
-28.369217 -53.446655 56.619461
-28.894635 -53.889826 54.800182
-28.63111 -55.152472 54.46331
-28.519505 -54.290592 55.563984
-29.202186 -53.50062 53.942107
-28.894635 -53.889826 54.800182
-29.266428 -54.380947 52.89205
-29.202186 -53.50062 53.942107
-17.422918 -64.328213 52.648184
-17.635696 -65.33572 51.642479
3 0 16 14
3 60 18 61
3 1 22 20
3 3 25 23
3 3 62 64
3 64 63 25
3 62 63 64
3 4 28 26
3 4 30 28
3 2 65 66
3 5 33 31
3 7 34 15
3 7 35 34
3 9 36 17
3 9 37 36
3 10 39 38
3 67 42 68
3 69 68 40
3 67 68 69
3 71 70 19
3 12 72 74
3 74 73 21
3 72 73 74
3 12 75 77
3 75 43 76
3 75 76 77
3 6 44 32
3 13 45 24
3 13 46 45
3 13 47 46
3 11 48 41
3 78 49 79
3 80 50 81
3 82 81 49
3 80 81 82
3 83 51 84
3 8 85 86
3 88 87 27
3 89 52 90
3 91 53 92
3 93 92 29
3 91 92 93
3 94 54 95
3 96 95 53
3 94 95 96
3 97 55 98
3 99 56 100
3 101 100 55
3 99 100 101
3 102 57 103
3 104 58 105
3 106 105 57
3 104 105 106
3 107 59 108
3 109 108 58
3 107 108 109
3 14 15 5
3 16 15 14
3 16 7 15
3 110 17 111
3 18 112 114
3 112 17 113
3 112 113 114
3 18 9 17
3 116 115 10
3 117 19 118
3 119 19 120
3 122 121 19
3 20 123 125
3 123 21 124
3 123 124 125
3 22 21 20
3 22 12 21
3 23 24 6
3 25 24 23
3 25 13 24
3 25 126 128
3 128 127 13
3 126 127 128
3 130 129 25
3 132 131 11
3 26 27 8
3 28 27 26
3 28 133 135
3 135 134 27
3 133 134 135
3 28 136 138
3 136 29 137
3 136 137 138
3 30 29 28
3 30 139 141
3 141 140 29
3 139 140 141
3 31 32 1
3 33 32 31
3 33 6 32
3 15 33 5
3 34 33 15
3 34 6 33
3 34 23 6
3 35 23 34
3 35 3 23
3 142 8 143
3 17 144 145
3 36 146 148
3 148 147 17
3 146 147 148
3 36 149 151
3 149 8 150
3 149 150 151
3 36 26 8
3 37 26 36
3 37 4 26
3 38 152 154
3 154 153 2
3 152 153 154
3 39 155 157
3 157 156 38
3 155 156 157
3 39 158 159
3 160 39 161
3 162 161 10
3 160 161 162
3 163 39 164
3 166 165 39
3 40 41 0
3 42 41 40
3 42 11 41
3 19 167 169
3 167 42 168
3 167 168 169
3 170 42 171
3 172 171 19
3 170 171 172
3 173 11 174
3 175 174 42
3 173 174 175
3 177 176 11
3 21 178 179
3 181 180 21
3 43 182 183
3 43 184 186
3 184 2 185
3 184 185 186
3 32 22 1
3 44 22 32
3 44 12 22
3 24 44 6
3 45 44 24
3 45 12 44
3 45 43 12
3 46 43 45
3 46 2 43
3 46 38 2
3 47 38 46
3 47 10 38
3 187 47 188
3 189 188 13
3 187 188 189
3 190 47 191
3 192 10 193
3 194 193 47
3 192 193 194
3 196 195 10
3 41 16 0
3 48 16 41
3 48 7 16
3 197 48 198
3 199 198 11
3 197 198 199
3 49 200 202
3 200 48 201
3 200 201 202
3 49 7 48
3 49 35 7
3 50 35 49
3 50 3 35
3 203 50 204
3 205 50 206
3 207 3 208
3 209 208 50
3 207 208 209
3 211 210 3
3 212 20 213
3 51 214 216
3 214 20 215
3 214 215 216
3 51 1 20
3 27 217 219
3 219 218 8
3 217 218 219
3 221 220 27
3 222 51 223
3 224 51 225
3 226 1 227
3 228 227 51
3 226 227 228
3 229 31 230
3 231 230 1
3 229 230 231
3 52 232 234
3 232 31 233
3 232 233 234
3 52 5 31
3 29 235 237
3 235 52 236
3 235 236 237
3 53 52 29
3 53 5 52
3 53 14 5
3 54 14 53
3 54 0 14
3 238 18 239
3 240 18 241
3 242 9 243
3 244 243 18
3 242 243 244
3 55 245 246
3 55 247 249
3 247 9 248
3 247 248 249
3 55 37 9
3 56 37 55
3 56 4 37
3 57 250 251
3 57 252 253
3 57 254 256
3 254 56 255
3 254 255 256
3 58 56 57
3 58 4 56
3 58 30 4
3 59 30 58
3 59 257 259
3 259 258 30
3 257 258 259
3 260 59 261
3 262 59 263
3 265 264 59
3 266 54 267
3 268 54 269
3 270 0 271
3 272 271 54
3 270 271 272
3 273 40 274
3 275 274 0
3 273 274 275
3 276 40 277
3 279 278 40
3 281 280 2
