ply
format ascii 1.0
element vertex 398
property float x
property float y
property float z
element face 334
property list uchar int vertex_index
end_header
-1.601586 -103.52253 -18.072569
2.895946 -99.579781 -27.007856
-6.291302 -103.33226 -8.486573
-4.52854 -105.352951 -21.354959
5.265937 -95.991028 -30.92898
2.029612 -96.182678 -33.988892
4.512986 -90.748016 -37.336998
-1.716709 -95.515541 -36.084259
-13.880604 -92.295906 -34.755791
0.516593 -102.174438 -22.608046
-2.624996 -103.544037 -25.871708
8.306421 -94.541962 -27.213413
10.132023 -85.451828 -37.821529
-8.719423 -101.740929 -3.17672
-10.917928 -104.792297 -7.721639
1.010076 -100.666069 -13.64746
-4.006949 -103.959503 -13.26213
0.151477 -95.997238 -35.158592
-2.934948 -97.952858 -34.454288
-14.826644 -89.755798 -34.718559
-12.475408 -89.266037 -36.257881
-13.451009 -86.817162 -36.082664
0.939102 -101.700386 -18.149654
2.154998 -100.947998 -20.540892
-0.391738 -102.86908 -20.286495
-3.691148 -104.629753 -23.665916
4.359415 -98.81958 -24.975027
7.089041 -96.220184 -25.136724
5.541693 -97.26049 -27.214584
9.039617 -88.33802 -36.24369
2.727443 -90.306801 -38.323914
5.579441 -87.873817 -38.782013
3.891831 -87.215935 -39.702625
-12.266256 -103.99295 -5.330165
-3.753938 -102.087128 -8.748746
-2.732686 -102.492996 -11.256813
-5.124846 -103.685898 -10.723489
-6.364041 -105.037994 -12.671062
-7.542655 -104.756729 -10.43964
-12.269703 -98.48996 -33.029701
-6.650359 -96.111801 -35.8843
-4.159854 -105.022659 -17.437407
-3.117465 -104.619347 -19.760271
1.196796 -100.261002 -28.593063
4.071251 -97.892723 -29.076189
2.433947 -98.389008 -30.634794
4.991765 -93.745819 -34.360817
6.14607 -91.091774 -36.075085
3.181181 -93.634148 -35.740452
1.45285 -93.247208 -36.819839
-0.341046 -92.568459 -37.713924
-2.720372 -100.418465 -6.468906
-5.136182 -101.659645 -6.212933
-11.138363 -91.284439 -36.456924
3.297669 -99.982513 -22.728134
1.841033 -100.927475 -24.729956
-2.01924 -103.911514 -22.00956
-0.863168 -102.902557 -24.286896
0.146125 -101.725487 -26.477427
6.980443 -95.209457 -29.249887
7.327876 -88.186249 -37.662674
8.536249 -85.162987 -39.0653
-6.378362 -100.828903 -3.414489
-7.395277 -102.61895 -5.918517
-9.843297 -103.422607 -5.57332
-8.711285 -104.226517 -8.096743
-9.772772 -105.48188 -10.130676
-0.219313 -102.160339 -15.879264
-0.290234 -100.891022 -11.357056
-1.577128 -102.527824 -13.608433
-2.615663 -103.763756 -15.685635
-5.199602 -105.168625 -15.191465
-5.897875 -99.527397 -33.542747
-4.955614 -97.321602 -35.205559
-3.487387 -94.58609 -36.87735
-2.341425 -91.684776 -38.349003
-3.464866 -99.053726 -33.541513
-1.979683 -98.096733 -33.995088
-15.291663 -88.507331 -34.560158
-15.986912 -89.885159 -33.80084
-14.603845 -87.038014 -35.24221
-14.138827 -88.28648 -35.400611
-15.291663 -88.507331 -34.560158
8.362317 -89.795665 -35.396627
9.746491 -88.369659 -35.450159
2.349194 -88.37851 -39.423174
3.309637 -88.761368 -39.013269
1.767 -89.923942 -38.733818
3.056937 -86.696144 -40.089889
2.349194 -88.37851 -39.423174
-11.729124 -97.271541 -33.882368
-13.004611 -97.549774 -33.163857
-10.860561 -98.041073 -33.772239
-11.729124 -97.271541 -33.882368
-4.841918 -105.454437 -18.273525
-5.323312 -105.59185 -17.205551
0.938475 -99.493824 -30.370341
1.815371 -99.325005 -29.613929
0.3199 -100.429821 -29.349476
2.904135 -96.162887 -33.281661
1.399652 -97.341674 -33.057592
3.510689 -94.964248 -34.174854
4.385211 -94.944458 -33.467623
2.904135 -96.162887 -33.281661
-3.314438 -100.134243 -5.230704
-2.101201 -99.45129 -5.300381
-4.522343 -100.754833 -5.102717
-3.928277 -101.039055 -6.34092
-3.314438 -100.134243 -5.230704
-14.489384 -93.512264 -34.001663
-15.082311 -92.409347 -33.910582
-13.180796 -93.189472 -34.858517
-14.489384 -93.512264 -34.001663
-12.509483 -91.790173 -35.606358
-11.809675 -92.683739 -35.709084
-13.180796 -93.189472 -34.858517
-11.046587 -88.795852 -37.049556
-11.642648 -87.700581 -36.973838
-2.095937 -102.870991 -26.953129
-0.710376 -101.961716 -27.255989
-1.239435 -102.634762 -26.174568
8.964332 -94.046917 -26.080535
8.355642 -94.886028 -25.042191
7.697731 -95.381073 -26.175069
9.562546 -93.166721 -27.138838
8.964332 -94.046917 -26.080535
11.517854 -84.017212 -37.813278
10.967981 -85.430966 -37.074291
10.754514 -83.859985 -38.534964
12.140345 -82.425369 -38.526713
11.517854 -84.017212 -37.813278
7.717234 -84.899586 -39.591435
7.057845 -86.518402 -38.923656
6.238831 -86.255001 -39.449791
9.156068 -83.442966 -39.776797
7.717234 -84.899586 -39.591435
-7.548893 -101.284916 -3.295605
-6.886323 -100.336975 -2.115204
-8.056853 -100.792988 -1.99632
1.600125 -100.503578 -14.863877
2.272321 -99.698666 -13.850115
0.395381 -101.413204 -14.763362
0.98543 -101.250713 -15.979779
1.600125 -100.503578 -14.863877
-0.833692 -100.784577 -10.132212
0.338589 -99.964749 -10.131574
-6.921204 -105.590878 -13.655818
-7.472696 -105.48399 -12.551268
-6.867065 -99.12524 -33.823415
-7.327723 -100.244384 -32.88405
-6.395935 -98.022343 -34.654821
-5.426744 -98.424499 -34.374153
-6.867065 -99.12524 -33.823415
-4.328049 -93.969871 -37.160527
-5.068873 -95.348945 -36.380825
-5.909535 -94.732727 -36.664001
-3.755068 -92.519215 -37.896353
-2.914406 -93.135433 -37.613177
-4.328049 -93.969871 -37.160527
0.502597 -97.211643 -33.76239
1.399652 -97.341674 -33.057592
-0.436471 -97.118923 -34.34724
1.090545 -96.089958 -34.573742
0.502597 -97.211643 -33.76239
-1.391736 -96.975048 -34.80644
-0.436471 -97.118923 -34.34724
-1.979683 -98.096733 -33.995088
-15.555332 -91.139294 -33.891965
-15.986912 -89.885159 -33.80084
-14.353624 -91.025852 -34.737175
-15.082311 -92.409347 -33.910582
-15.555332 -91.139294 -33.891965
-12.130448 -86.476143 -36.88623
-11.642648 -87.700581 -36.973838
-12.963209 -88.041599 -36.170272
1.54705 -101.324192 -19.345273
2.766043 -100.339298 -19.445184
2.158095 -100.715492 -18.249565
-4.987656 -105.278835 -23.199601
-4.109844 -104.991352 -22.510438
-5.406352 -105.640434 -22.044123
-4.5635 -104.842537 -24.361733
-4.987656 -105.278835 -23.199601
-4.030424 -104.299679 -25.464629
-3.158072 -104.086895 -24.768812
-4.5635 -104.842537 -24.361733
-3.494804 -103.6782 -26.595908
-4.030424 -104.299679 -25.464629
5.724228 -97.519882 -25.055875
6.505073 -96.910683 -24.025465
5.14026 -98.21038 -23.944617
6.691363 -94.590126 -31.051333
5.893849 -94.868725 -31.835313
10.421778 -86.874062 -36.285371
9.746491 -88.369659 -35.450159
9.58582 -86.894924 -37.032609
10.967981 -85.430966 -37.074291
10.421778 -86.874062 -36.285371
5.395026 -85.92606 -39.910097
6.238831 -86.255001 -39.449791
4.735636 -87.544876 -39.242319
4.468047 -85.554856 -40.351501
5.395026 -85.92606 -39.910097
3.633154 -85.035065 -40.738766
4.468047 -85.554856 -40.351501
3.056937 -86.696144 -40.089889
-9.265876 -101.189606 -1.824826
-8.056853 -100.792988 -1.99632
-8.603306 -100.241665 -0.644426
-13.370557 -104.07941 -5.156916
-12.761527 -103.388035 -3.960218
-12.706194 -104.589764 -6.439165
-13.370557 -104.07941 -5.156916
-12.03203 -104.989437 -7.634901
-11.592092 -104.392623 -6.525902
-12.706194 -104.589764 -6.439165
-11.484293 -105.366451 -8.766103
-12.03203 -104.989437 -7.634901
1.628628 -99.835217 -12.545015
2.272321 -99.698666 -13.850115
-3.243312 -102.290062 -10.002779
-2.054918 -101.585564 -10.08209
-2.565544 -101.38263 -8.828057
-8.062003 -105.343357 -11.435557
-7.472696 -105.48399 -12.551268
-6.953348 -104.897362 -11.555351
-13.589448 -98.671154 -32.239328
-13.004611 -97.549774 -33.163857
-12.870634 -99.565254 -32.038293
-13.589448 -98.671154 -32.239328
-11.487356 -99.207809 -32.844141
-12.870634 -99.565254 -32.038293
-11.487356 -99.207809 -32.844141
-10.860561 -98.041073 -33.772239
-8.05089 -96.851993 -35.199539
-7.243308 -97.417442 -34.994192
-7.434883 -95.482757 -36.052149
-8.05089 -96.851993 -35.199539
-5.909535 -94.732727 -36.664001
-7.434883 -95.482757 -36.052149
-4.320723 -105.252781 -19.434957
-3.63866 -104.821003 -18.598839
-4.841918 -105.454437 -18.273525
-5.02626 -105.619583 -20.232301
-3.823002 -104.986149 -20.557615
-4.320723 -105.252781 -19.434957
-5.824877 -105.938866 -20.902706
-5.02626 -105.619583 -20.232301
-5.406352 -105.640434 -22.044123
-5.824877 -105.938866 -20.902706
1.601819 -98.44484 -31.380543
0.938475 -99.493824 -30.370341
3.106302 -97.266053 -31.604612
1.601819 -98.44484 -31.380543
4.522297 -96.067062 -31.751705
3.849942 -97.190018 -30.781887
3.106302 -97.266053 -31.604612
5.893849 -94.868725 -31.835313
4.522297 -96.067062 -31.751705
5.756763 -93.74612 -33.551232
4.385211 -94.944458 -33.467623
6.338391 -92.499565 -34.455191
5.756763 -93.74612 -33.551232
5.568917 -92.418796 -35.217951
6.915543 -91.172542 -35.312325
6.338391 -92.499565 -34.455191
0.232755 -91.054772 -38.428824
1.767 -89.923942 -38.733818
1.193199 -91.43763 -38.018919
-1.456718 -99.63316 -6.526765
-2.101201 -99.45129 -5.300381
-2.048761 -100.548298 -7.688137
-1.456718 -99.63316 -6.526765
-3.237155 -101.252797 -7.608826
-2.565544 -101.38263 -8.828057
-2.048761 -100.548298 -7.688137
-10.393484 -92.273289 -36.446663
-11.809675 -92.683739 -35.709084
-9.74533 -90.715191 -37.164752
-10.393484 -92.273289 -36.446663
-10.378064 -89.805053 -37.149078
-11.806885 -90.275238 -36.357402
-11.046587 -88.795852 -37.049556
-9.74533 -90.715191 -37.164752
-10.378064 -89.805053 -37.149078
3.38822 -99.888619 -20.614801
2.766043 -100.339298 -19.445184
3.959556 -99.405876 -21.708422
3.38822 -99.888619 -20.614801
2.726333 -100.465255 -21.634513
4.609387 -98.791847 -22.82117
3.959556 -99.405876 -21.708422
3.828542 -99.401047 -23.851581
5.14026 -98.21038 -23.944617
4.609387 -98.791847 -22.82117
-0.185041 -101.229474 -28.313806
0.671461 -100.993245 -27.535245
-0.710376 -101.961716 -27.255989
0.3199 -100.429821 -29.349476
-0.185041 -101.229474 -28.313806
-2.095937 -102.870991 -26.953129
-3.494804 -103.6782 -26.595908
7.800504 -95.58675 -24.017941
6.505073 -96.910683 -24.025465
7.800504 -95.58675 -24.017941
8.355642 -94.886028 -25.042191
7.548616 -94.199341 -30.211787
6.12319 -95.600243 -30.089433
6.691363 -94.590126 -31.051333
8.311803 -93.83337 -29.25125
7.548616 -94.199341 -30.211787
8.879977 -92.823253 -30.21315
8.974792 -93.499623 -28.233013
7.643432 -94.875709 -28.23165
8.311803 -93.83337 -29.25125
9.562546 -93.166721 -27.138838
8.974792 -93.499623 -28.233013
7.592843 -89.714897 -36.159388
8.362317 -89.795665 -35.396627
6.915543 -91.172542 -35.312325
9.956627 -83.715565 -39.156849
10.754514 -83.859985 -38.534964
9.334136 -85.307408 -38.443415
9.956627 -83.715565 -39.156849
9.156068 -83.442966 -39.776797
-5.683127 -99.902893 -2.383613
-6.886323 -100.336975 -2.115204
-5.143434 -100.339462 -3.703495
-5.683127 -99.902893 -2.383613
-5.757272 -101.244274 -4.813711
-4.522343 -100.754833 -5.102717
-5.143434 -100.339462 -3.703495
-9.85962 -102.096169 -3.08606
-9.265876 -101.189606 -1.824826
-11.633036 -103.222179 -4.162782
-12.761527 -103.388035 -3.960218
-10.421556 -102.937007 -4.284359
-11.633036 -103.222179 -4.162782
-11.054776 -103.707778 -5.451742
-9.28136 -102.581768 -4.37502
-9.85962 -102.096169 -3.08606
-10.421556 -102.937007 -4.284359
-9.177061 -105.705933 -11.281075
-8.062003 -105.343357 -11.435557
-8.657713 -105.119304 -10.285158
-10.911715 -105.711242 -9.970622
-10.34535 -105.137089 -8.926157
-11.484293 -105.366451 -8.766103
-10.229799 -105.992855 -11.144483
-10.911715 -105.711242 -9.970622
-9.177061 -105.705933 -11.281075
-10.229799 -105.992855 -11.144483
1.564638 -101.020736 -17.114974
2.158095 -100.715492 -18.249565
0.359895 -101.930363 -17.014459
1.564638 -101.020736 -17.114974
0.98543 -101.250713 -15.979779
0.978473 -99.947693 -11.399813
0.338589 -99.964749 -10.131574
0.359921 -100.778546 -12.502258
1.628628 -99.835217 -12.545015
0.978473 -99.947693 -11.399813
-1.51146 -101.692009 -11.306935
-0.833692 -100.784577 -10.132212
-2.054918 -101.585564 -10.08209
-5.843186 -105.664833 -16.08258
-5.323312 -105.59185 -17.205551
-4.679728 -105.095642 -16.314436
-6.338985 -105.656193 -14.91602
-5.781821 -105.103309 -13.931264
-6.921204 -105.590878 -13.655818
-5.843186 -105.664833 -16.08258
-6.338985 -105.656193 -14.91602
-6.466788 -100.611282 -32.540451
-7.327723 -100.244384 -32.88405
-4.94633 -99.840995 -33.085742
-6.466788 -100.611282 -32.540451
-4.416411 -98.740127 -33.998517
-3.464866 -99.053726 -33.541513
-4.94633 -99.840995 -33.085742
-5.802986 -96.716701 -35.54493
-6.395935 -98.022343 -34.654821
-7.243308 -97.417442 -34.994192
-0.767434 -90.61293 -38.746363
0.232755 -91.054772 -38.428824
-1.341236 -92.126618 -38.031464
-3.093474 -90.921032 -38.622951
-3.755068 -92.519215 -37.896353
-1.600465 -90.081005 -39.030886
-3.093474 -90.921032 -38.622951
-0.767434 -90.61293 -38.746363
-1.600465 -90.081005 -39.030886
-13.820201 -85.520791 -35.973379
-14.603845 -87.038014 -35.24221
-12.704481 -85.258938 -36.7241
-13.820201 -85.520791 -35.973379
-12.130448 -86.476143 -36.88623
-12.704481 -85.258938 -36.7241
3 76 18 77
3 78 19 79
3 80 21 81
3 82 81 19
3 80 81 82
3 0 24 22
3 1 28 26
3 83 29 84
3 85 32 86
3 87 86 30
3 85 86 87
3 89 88 32
3 2 36 34
3 2 38 36
3 90 39 91
3 93 92 39
3 95 94 41
3 96 45 97
3 98 97 43
3 96 97 98
3 5 99 100
3 5 101 103
3 101 46 102
3 101 102 103
3 5 48 46
3 7 49 17
3 7 50 49
3 104 51 105
3 106 52 107
3 108 107 51
3 106 107 108
3 8 109 110
3 8 111 112
3 8 113 115
3 113 53 114
3 113 114 115
3 117 116 20
3 9 54 23
3 9 55 54
3 3 56 42
3 10 57 25
3 10 58 57
3 10 118 120
3 120 119 58
3 118 119 120
3 11 121 123
3 123 122 27
3 121 122 123
3 11 124 125
3 4 59 44
3 12 126 127
3 12 128 130
3 128 129 130
3 6 60 47
3 131 61 132
3 133 132 31
3 131 132 133
3 135 134 61
3 13 136 138
3 136 62 137
3 136 137 138
3 13 63 62
3 14 64 33
3 14 65 64
3 14 66 65
3 15 139 140
3 15 141 143
3 141 67 142
3 141 142 143
3 144 68 145
3 16 69 35
3 16 70 69
3 16 71 70
3 147 146 37
3 148 72 149
3 150 73 151
3 152 151 72
3 150 151 152
3 153 74 154
3 155 154 40
3 153 154 155
3 156 75 157
3 158 157 74
3 156 157 158
3 159 5 160
3 161 17 162
3 163 162 5
3 161 162 163
3 18 164 166
3 164 17 165
3 164 165 166
3 18 7 17
3 19 167 168
3 19 169 171
3 169 8 170
3 169 170 171
3 19 20 8
3 21 20 19
3 21 172 174
3 174 173 20
3 172 173 174
3 22 175 177
3 175 23 176
3 175 176 177
3 24 23 22
3 24 9 23
3 178 25 179
3 180 179 3
3 178 179 180
3 181 25 182
3 183 10 184
3 185 184 25
3 183 184 185
3 187 186 10
3 26 188 190
3 188 27 189
3 188 189 190
3 28 27 26
3 28 11 27
3 192 191 4
3 29 193 194
3 29 195 197
3 195 12 196
3 195 196 197
3 30 31 6
3 32 31 30
3 32 198 200
3 200 199 31
3 198 199 200
3 32 201 202
3 205 204 32
3 203 204 205
3 206 13 207
3 206 207 208
3 209 33 210
3 211 33 212
3 213 14 214
3 215 214 33
3 213 214 215
3 217 216 14
3 218 15 219
3 34 220 222
3 220 35 221
3 220 221 222
3 36 35 34
3 36 16 35
3 36 37 16
3 38 37 36
3 38 223 225
3 225 224 37
3 223 224 225
3 39 226 227
3 39 228 229
3 39 230 231
3 233 232 39
3 234 40 235
3 236 40 237
3 239 238 40
3 41 42 0
3 240 42 241
3 242 241 41
3 240 241 242
3 243 3 244
3 245 244 42
3 243 244 245
3 246 3 247
3 249 248 3
3 43 44 1
3 45 44 43
3 45 4 44
3 250 45 251
3 252 45 253
3 254 4 255
3 256 255 45
3 254 255 256
3 258 257 4
3 46 259 260
3 46 261 262
3 46 263 265
3 263 47 264
3 263 264 265
3 48 47 46
3 48 6 47
3 17 48 5
3 49 48 17
3 49 6 48
3 49 30 6
3 50 30 49
3 50 266 268
3 268 267 30
3 266 267 268
3 51 269 270
3 51 271 272
3 51 273 275
3 273 34 274
3 273 274 275
3 52 34 51
3 52 2 34
3 53 276 277
3 53 278 279
3 20 53 8
3 280 53 281
3 282 281 20
3 280 281 282
3 284 283 53
3 23 285 286
3 54 287 289
3 289 288 23
3 287 288 289
3 54 290 291
3 54 292 294
3 292 26 293
3 292 293 294
3 55 26 54
3 55 1 26
3 42 24 0
3 56 24 42
3 56 9 24
3 25 56 3
3 57 56 25
3 57 9 56
3 57 55 9
3 58 55 57
3 58 1 55
3 58 43 1
3 295 43 296
3 297 296 58
3 295 296 297
3 299 298 43
3 301 300 10
3 27 302 303
3 305 304 27
3 44 28 1
3 59 28 44
3 59 11 28
3 306 59 307
3 308 307 4
3 306 307 308
3 309 59 310
3 309 310 311
3 312 11 313
3 314 313 59
3 312 313 314
3 316 315 11
3 47 317 319
3 317 29 318
3 317 318 319
3 60 29 47
3 60 12 29
3 31 60 6
3 61 60 31
3 61 12 60
3 61 320 322
3 322 321 12
3 320 321 322
3 324 323 61
3 62 325 326
3 62 327 328
3 62 329 331
3 329 52 330
3 329 330 331
3 63 52 62
3 63 2 52
3 332 13 333
3 33 334 335
3 64 336 338
3 338 337 33
3 336 337 338
3 64 339 341
3 339 13 340
3 339 340 341
3 64 63 13
3 65 63 64
3 65 2 63
3 65 38 2
3 66 38 65
3 66 342 344
3 344 343 38
3 342 343 344
3 345 66 346
3 347 346 14
3 345 346 347
3 348 66 349
3 351 350 66
3 352 22 353
3 67 354 356
3 354 22 355
3 354 355 356
3 67 0 22
3 68 357 358
3 68 359 361
3 359 15 360
3 359 360 361
3 35 362 364
3 362 68 363
3 362 363 364
3 69 68 35
3 69 15 68
3 69 67 15
3 70 67 69
3 70 0 67
3 70 41 0
3 71 41 70
3 71 365 367
3 367 366 41
3 365 366 367
3 37 71 16
3 368 71 369
3 370 369 37
3 368 369 370
3 372 371 71
3 72 373 374
3 72 375 376
3 72 377 379
3 377 18 378
3 377 378 379
3 73 18 72
3 73 7 18
3 40 380 382
3 380 73 381
3 380 381 382
3 74 73 40
3 74 7 73
3 74 50 7
3 75 50 74
3 75 383 385
3 385 384 50
3 383 384 385
3 386 75 387
3 388 75 389
3 391 390 75
3 392 21 393
3 394 21 395
3 397 396 21
