ply
format ascii 1.0
element vertex 138
property float x
property float y
property float z
element face 106
property list uchar int vertex_index
end_header
28.686516 20.817019 -4.745104
27.885345 27.209789 -5.75702
30.521465 26.198639 -4.016378
31.003796 14.814538 -35.816219
29.922716 29.357824 -4.388476
31.162056 28.606112 -3.270078
31.74761 25.602261 -3.006675
28.272305 24.051191 -5.301985
26.826921 24.562695 -6.036682
27.585581 30.469646 -6.09158
28.779995 29.75717 -5.275954
29.274269 26.623016 -4.899852
29.714304 23.465197 -4.468679
30.167566 20.243294 -3.912253
31.086224 23.111755 -3.56686
32.475849 22.755232 -2.481858
32.650681 11.256026 -33.478893
31.305401 12.680673 -33.620773
32.161419 15.727716 -38.318634
26.460953 27.921152 -6.540779
31.31864 29.820184 -2.771863
30.829524 30.134163 -3.373687
31.717651 28.298471 -2.672135
31.31864 29.820184 -2.771863
27.919155 20.947527 -5.105818
27.712049 22.564613 -5.384259
28.479411 22.434105 -5.023544
28.099559 19.373667 -4.799241
27.919155 20.947527 -5.105818
28.897699 19.10057 -4.40208
28.099559 19.373667 -4.799241
29.110914 31.111261 -4.915133
28.531002 31.445177 -5.43457
32.719202 23.922708 -2.152664
32.111729 24.178746 -2.744267
32.355083 25.346222 -2.415072
33.103141 22.467486 -1.903215
32.719202 23.922708 -2.152664
33.109462 12.826769 -35.90278
32.552428 12.426348 -34.734579
33.207716 11.656447 -34.647094
32.674133 16.042529 -39.497246
32.886123 14.96173 -38.311098
31.944275 16.733642 -39.415491
32.674133 16.042529 -39.497246
26.110991 24.785915 -6.366238
26.238332 23.056374 -6.086227
30.434832 18.6925 -3.559105
30.913113 20.105074 -3.444227
30.374523 14.361287 -34.647247
30.525325 13.294355 -33.549524
31.154598 13.747606 -34.718496
30.209854 30.510019 -3.932886
29.682274 30.911587 -4.471394
30.542386 28.981968 -3.829277
30.209854 30.510019 -3.932886
30.829524 30.134163 -3.373687
32.010429 26.796545 -2.540433
31.454833 27.104186 -3.138376
31.717651 28.298471 -2.672135
32.355083 25.346222 -2.415072
32.010429 26.796545 -2.540433
26.989357 22.820365 -5.751608
27.549613 24.306943 -5.669334
27.712049 22.564613 -5.384259
26.238332 23.056374 -6.086227
26.989357 22.820365 -5.751608
30.237033 15.394646 -35.726667
30.843324 15.870814 -36.960665
27.933795 31.801414 -5.842383
27.341303 32.075546 -6.297751
28.182788 30.113408 -5.683767
27.933795 31.801414 -5.842383
28.531002 31.445177 -5.43457
29.351356 29.557497 -4.832215
29.110914 31.111261 -4.915133
29.682274 30.911587 -4.471394
31.372442 21.539305 -3.27153
30.913113 20.105074 -3.444227
30.626895 21.677524 -3.739556
32.067254 21.361043 -2.729029
31.372442 21.539305 -3.27153
31.781036 22.933493 -3.024359
32.800216 21.230776 -2.183869
32.067254 21.361043 -2.729029
32.800216 21.230776 -2.183869
33.103141 22.467486 -1.903215
31.978041 11.96835 -33.549833
31.314588 11.598155 -32.41883
31.987227 10.885832 -32.34789
31.879787 13.138671 -34.805519
31.978041 11.96835 -33.549833
32.552428 12.426348 -34.734579
31.728985 14.205604 -35.903242
31.154598 13.747606 -34.718496
31.879787 13.138671 -34.805519
32.307797 14.662192 -37.154449
33.032501 13.896207 -37.146913
32.886123 14.96173 -38.311098
31.582608 15.271127 -37.067426
31.728985 14.205604 -35.903242
32.307797 14.662192 -37.154449
31.422136 16.327403 -38.211872
30.843324 15.870814 -36.960665
31.582608 15.271127 -37.067426
31.422136 16.327403 -38.211872
31.944275 16.733642 -39.415491
32.713109 10.200678 -32.383436
31.987227 10.885832 -32.34789
33.344351 10.607565 -33.608185
32.713109 10.200678 -32.383436
33.901386 11.007986 -34.776386
33.207716 11.656447 -34.647094
33.344351 10.607565 -33.608185
26.884405 30.784142 -6.517038
27.341303 32.075546 -6.297751
26.322091 29.509895 -6.741637
26.884405 30.784142 -6.517038
27.023267 29.195399 -6.31618
25.75861 28.136584 -6.885631
26.322091 29.509895 -6.741637
25.928007 26.465143 -6.618286
26.643937 26.241923 -6.28873
26.110991 24.785915 -6.366238
25.75861 28.136584 -6.885631
25.928007 26.465143 -6.618286
29.638224 18.813707 -3.985654
28.897699 19.10057 -4.40208
29.427041 20.530156 -4.328679
29.638224 18.813707 -3.985654
30.434832 18.6925 -3.559105
30.587339 12.247287 -32.427236
31.314588 11.598155 -32.41883
29.807263 12.860969 -32.355987
30.587339 12.247287 -32.427236
30.525325 13.294355 -33.549524
30.374523 14.361287 -34.647247
30.237033 15.394646 -35.726667
3 20 5 21
3 23 22 5
3 0 24 26
3 26 25 7
3 24 25 26
3 0 27 28
3 0 29 30
3 31 10 32
3 2 11 4
3 2 12 11
3 2 14 12
3 33 15 34
3 35 34 6
3 33 34 35
3 37 36 15
3 40 39 16
3 38 39 40
3 41 18 42
3 44 43 18
3 1 19 9
3 46 45 8
3 48 47 13
3 3 49 51
3 51 50 17
3 49 50 51
3 52 4 53
3 5 54 56
3 54 4 55
3 54 55 56
3 5 2 4
3 5 6 2
3 57 6 58
3 59 58 5
3 57 58 59
3 61 60 6
3 7 8 1
3 62 8 63
3 64 63 7
3 62 63 64
3 66 65 8
3 68 67 3
3 69 9 70
3 10 71 73
3 71 9 72
3 71 72 73
3 10 1 9
3 4 74 76
3 74 10 75
3 74 75 76
3 11 10 4
3 11 1 10
3 11 7 1
3 12 7 11
3 12 0 7
3 12 13 0
3 14 13 12
3 14 77 79
3 79 78 13
3 77 78 79
3 6 14 2
3 15 14 6
3 15 80 82
3 82 81 14
3 80 81 82
3 15 83 84
3 86 85 15
3 16 87 89
3 87 17 88
3 87 88 89
3 90 17 91
3 92 91 16
3 90 91 92
3 93 3 94
3 95 94 17
3 93 94 95
3 18 96 98
3 96 97 98
3 18 99 101
3 99 3 100
3 99 100 101
3 18 102 104
3 104 103 3
3 102 103 104
3 106 105 18
3 107 16 108
3 109 16 110
3 113 112 16
3 111 112 113
3 9 114 115
3 19 116 118
3 118 117 9
3 116 117 118
3 19 119 120
3 8 19 1
3 121 19 122
3 123 122 8
3 121 122 123
3 125 124 19
3 13 126 128
3 128 127 0
3 126 127 128
3 130 129 13
3 17 131 132
3 135 134 17
3 133 134 135
3 137 136 3
