ply
format ascii 1.0
element vertex 108
property float x
property float y
property float z
element face 91
property list uchar int vertex_index
end_header
-25.117765 44.905045 57.727505
-27.1014 48.4921 54.393776
-26.681585 56.775021 50.605042
-24.561554 52.949036 54.198463
-22.14641 48.261322 57.012783
-26.132704 46.864983 56.139164
-25.868837 50.959438 54.410301
-24.886946 48.855915 56.05027
-20.539108 49.708588 56.206921
-21.857044 52.162521 55.126434
-20.109102 53.393208 54.312084
-27.758364 54.557911 50.413399
-26.911528 52.664066 52.56543
-25.671234 54.946949 52.510784
-24.306122 56.935173 52.185036
-24.090467 42.634995 59.163738
-23.729397 46.862137 57.421463
-22.603548 44.453674 58.69875
-20.852524 45.98172 57.979626
-23.425442 50.634335 55.722607
-23.088711 54.640274 53.765522
-25.780954 43.971525 57.634974
-25.335164 42.907719 58.442368
-25.625234 45.885014 56.933335
-26.288424 44.951495 56.840803
-25.780954 43.971525 57.634974
-19.489333 52.154579 54.763599
-20.324105 51.550898 55.259502
-19.704336 50.312269 55.711018
-27.006464 50.578083 53.479603
-27.394753 51.581796 52.445276
-27.489688 49.495813 53.359449
-27.60541 47.535696 54.087786
-27.226185 46.566896 55.106224
-27.489688 49.495813 53.359449
-27.60541 47.535696 54.087786
-27.127346 57.663429 49.521017
-27.665736 56.554874 49.425196
-27.219974 55.666466 50.50922
-22.745447 42.52853 59.488656
-23.347008 43.544335 58.931244
-23.488906 41.619191 59.72115
-20.182368 44.689268 58.416101
-21.061059 44.084591 58.823317
-19.948139 46.557722 57.518622
-20.182368 44.689268 58.416101
-23.488906 41.619191 59.72115
-24.333272 40.72576 59.847713
-22.2588 55.23057 53.495316
-22.472877 53.401398 54.445978
-21.642966 53.991693 54.175772
-22.956008 56.540054 52.74941
-22.2588 55.23057 53.495316
-26.741838 45.753338 55.978918
-26.288424 44.951495 56.840803
-26.617052 47.678542 55.26647
-27.226185 46.566896 55.106224
-26.741838 45.753338 55.978918
-26.590146 58.713564 49.558929
-26.105816 57.794699 50.525076
-20.768995 54.607037 53.768597
-21.642966 53.991693 54.175772
-20.983073 52.777864 54.719259
-27.818171 52.528719 51.369261
-28.191272 53.1301 50.34285
-27.334946 53.610988 51.489414
-27.818171 52.528719 51.369261
-27.394753 51.581796 52.445276
-25.600641 56.880663 51.477947
-26.105816 57.794699 50.525076
-26.176409 55.860985 51.557913
-24.918085 57.874775 51.315073
-25.600641 56.880663 51.477947
-24.988678 55.941061 52.34791
-24.221698 58.689554 51.207506
-24.918085 57.874775 51.315073
-28.12163 55.234425 49.368452
-28.191272 53.1301 50.34285
-28.12163 55.234425 49.368452
-27.665736 56.554874 49.425196
-27.127346 57.663429 49.521017
-26.590146 58.713564 49.558929
-21.936571 43.320568 59.182879
-22.745447 42.52853 59.488656
-21.728036 45.217697 58.339188
-21.936571 43.320568 59.182879
-21.061059 44.084591 58.823317
-19.791432 48.421156 56.632269
-20.695816 47.845154 57.093274
-19.948139 46.557722 57.518622
-19.704336 50.312269 55.711018
-19.791432 48.421156 56.632269
-24.821515 41.772694 59.160484
-24.333272 40.72576 59.847713
-24.604116 43.77002 58.445622
-25.335164 42.907719 58.442368
-24.821515 41.772694 59.160484
-23.564713 57.687504 51.959167
-23.697416 55.787723 52.975279
-22.956008 56.540054 52.74941
-24.221698 58.689554 51.207506
-23.564713 57.687504 51.959167
-19.239045 54.032736 53.738245
-19.489333 52.154579 54.763599
-19.933383 55.259213 53.293129
-19.239045 54.032736 53.738245
-20.768995 54.607037 53.768597
-19.933383 55.259213 53.293129
3 0 7 5
3 0 21 22
3 0 23 25
3 23 5 24
3 23 24 25
3 26 10 27
3 28 27 8
3 26 27 28
3 1 29 31
3 29 12 30
3 29 30 31
3 3 13 6
3 3 14 13
3 1 32 33
3 1 34 35
3 2 36 38
3 38 37 11
3 36 37 38
3 39 17 40
3 41 40 15
3 39 40 41
3 42 18 43
3 45 44 18
3 46 15 47
3 4 19 16
3 48 20 49
3 50 49 9
3 48 49 50
3 52 51 20
3 5 6 1
3 7 6 5
3 7 3 6
3 5 53 54
3 5 55 57
3 55 1 56
3 55 56 57
3 59 58 2
3 8 9 4
3 10 9 8
3 10 60 62
3 62 61 9
3 60 61 62
3 63 11 64
3 12 65 67
3 65 11 66
3 65 66 67
3 12 2 11
3 6 12 1
3 13 12 6
3 13 2 12
3 13 68 70
3 70 69 2
3 68 69 70
3 14 71 73
3 73 72 13
3 71 72 73
3 14 74 75
3 11 76 77
3 79 78 11
3 81 80 2
3 15 16 0
3 17 16 15
3 17 4 16
3 82 17 83
3 18 84 86
3 84 17 85
3 84 85 86
3 18 4 17
3 18 8 4
3 87 8 88
3 89 88 18
3 87 88 89
3 91 90 8
3 15 92 93
3 15 94 96
3 94 0 95
3 94 95 96
3 16 7 0
3 19 7 16
3 19 3 7
3 9 19 4
3 20 19 9
3 20 3 19
3 20 14 3
3 97 14 98
3 99 98 20
3 97 98 99
3 101 100 14
3 102 10 103
3 104 10 105
3 107 106 10
