ply
format ascii 1.0
element vertex 396
property float x
property float y
property float z
element face 342
property list uchar int vertex_index
end_header
17.165039 62.778118 -51.248756
0.428223 62.079052 -47.410851
8.540997 63.255203 -50.456841
3.89147 50.611832 -51.221378
11.230453 48.556496 -52.163887
24.82262 60.057564 -49.763691
12.955297 63.173347 -51.139145
10.150247 56.249138 -51.45237
14.147142 55.742004 -51.677143
4.939553 44.421417 -52.864002
4.374492 62.968815 -49.228149
2.407654 56.58334 -49.430809
6.403233 56.612938 -50.766125
7.560699 49.784714 -51.964203
8.307718 42.809219 -52.973595
17.949324 54.369869 -51.459755
21.145306 42.764221 -50.338455
-1.961234 66.812065 -45.101387
15.383924 70.827072 -50.568146
14.643045 47.172108 -51.944386
11.307005 40.779366 -52.67683
15.06919 63.478512 -51.231594
13.728921 59.580128 -51.449574
15.753196 59.335384 -51.477226
6.499353 62.96479 -49.959423
5.317925 59.803925 -50.007427
7.389494 59.807594 -50.587509
10.875859 52.734257 -51.822826
9.011549 52.889877 -51.684776
9.463299 49.489925 -52.094902
8.000921 46.495533 -52.469219
9.63097 45.6231 -52.513123
23.117804 46.637821 -49.943901
22.737225 41.496101 -49.638958
20.732368 38.001175 -50.044174
13.085855 70.794601 -50.398693
14.254725 74.301788 -50.044601
16.375538 46.352188 -51.689243
12.868988 39.783485 -52.372967
10.738596 63.452293 -50.850136
9.428241 59.71788 -51.008495
11.526132 59.83041 -51.277443
12.188331 56.050789 -51.620441
4.494641 47.624859 -52.043613
3.32355 44.872189 -52.663437
16.092119 41.693829 -51.661697
2.34351 62.481956 -48.409122
1.471908 59.395813 -48.454041
3.398034 59.614597 -49.331532
4.330126 56.595242 -50.172081
5.230478 53.56218 -50.956295
8.245755 56.315083 -51.184509
7.063345 53.083477 -51.408825
5.717938 50.250023 -51.661701
6.188073 46.783661 -52.384338
6.662555 43.707813 -52.976051
19.240147 62.381611 -51.093239
17.809189 58.658913 -51.387508
19.619259 57.868408 -51.179447
19.825928 53.502277 -51.156521
19.23246 39.245964 -50.668373
-0.074422 67.779205 -46.302536
1.221365 65.096603 -47.43853
9.672305 66.790909 -50.309887
11.948254 67.047005 -50.671349
14.090514 67.166206 -50.880527
17.606625 70.833992 -50.566978
24.478035 64.582169 -49.761036
0.7273 56.37286 -48.637569
16.117533 55.308929 -51.619453
14.605371 51.600723 -51.834366
12.978714 47.968597 -52.094391
14.540187 42.93829 -52.004429
12.934725 43.802963 -52.264648
11.303583 44.704418 -52.43927
9.806533 41.73098 -52.885117
0.072367 60.492153 -47.459345
-0.481522 61.723297 -46.846724
24.024149 58.0135 -50.043104
23.940511 60.339231 -50.06502
23.540557 40.803459 -49.208618
23.709153 43.378868 -49.407858
24.512486 42.686226 -48.977518
23.270634 38.32465 -49.036512
22.467301 39.017292 -49.466852
23.540557 40.803459 -49.208618
13.547712 75.856037 -49.704098
13.126934 74.135647 -49.933373
3.027019 50.691164 -50.946624
2.702106 52.200096 -50.513529
3.566556 52.120764 -50.788282
17.171669 45.772871 -51.519588
17.268522 48.16008 -51.554678
13.413559 53.82172 -51.788501
12.434154 53.976112 -51.76015
13.167737 55.896397 -51.648792
7.563478 41.593142 -53.278164
6.740897 42.042439 -53.279392
7.485136 43.258516 -52.974823
20.416677 59.728907 -50.989699
19.429703 60.12501 -51.136343
20.227122 61.985508 -50.946595
20.679625 53.028126 -50.951629
20.623907 55.289473 -50.993793
19.827081 51.108942 -51.104097
20.679625 53.028126 -50.951629
21.346127 45.292854 -50.443842
22.332375 47.229654 -50.246565
22.131555 44.701021 -50.141178
20.415031 43.433111 -50.607023
21.346127 45.292854 -50.443842
20.188883 41.005093 -50.503414
19.458607 41.673983 -50.771982
20.415031 43.433111 -50.607023
19.735178 36.302826 -50.219046
20.436877 35.729135 -49.889362
-2.193943 65.263466 -45.10146
-2.706065 66.28698 -44.526665
-1.33502 65.697842 -45.701441
-2.193943 65.263466 -45.10146
0.94687 68.033943 -46.853895
0.202219 69.356636 -46.266527
1.594764 66.692642 -47.421892
0.573472 66.437904 -46.870533
0.94687 68.033943 -46.853895
2.253129 65.386234 -47.917994
1.594764 66.692642 -47.421892
10.22569 68.583626 -50.207321
9.04675 68.571045 -49.945334
9.600136 70.363762 -49.842767
11.363665 68.711674 -50.388052
10.81028 66.918957 -50.490618
10.22569 68.583626 -50.207321
15.916626 68.863533 -50.772637
15.269921 67.0331 -50.928827
14.737219 68.996639 -50.724336
18.695191 70.563835 -50.506301
18.292943 72.582783 -50.292315
18.092616 68.776043 -50.732023
18.695191 70.563835 -50.506301
24.169151 66.838761 -49.702433
23.565644 64.997551 -50.026943
14.624208 49.386415 -51.889376
15.425118 51.197853 -51.767819
15.443955 48.983546 -51.822828
14.434981 40.69667 -52.006449
15.316153 42.31606 -51.833063
15.210947 40.07444 -51.835083
4.319954 43.224695 -53.209816
5.093454 42.836212 -53.248956
23.899443 45.949728 -49.560329
24.016851 48.314982 -49.693214
22.927515 44.066961 -49.791429
23.899443 45.949728 -49.560329
23.709153 43.378868 -49.407858
21.464873 37.269829 -49.66946
21.734797 39.748638 -49.841566
22.467301 39.017292 -49.466852
20.436877 35.729135 -49.889362
21.464873 37.269829 -49.66946
-2.603693 67.915173 -44.460253
-2.706065 66.28698 -44.526665
12.542499 72.382053 -50.110419
11.932465 70.585472 -50.251724
11.389109 72.172924 -49.963449
13.67029 72.548194 -50.221647
12.542499 72.382053 -50.110419
13.126934 74.135647 -49.933373
1.938896 55.144571 -49.531872
2.824648 55.106518 -49.892998
17.097095 52.582426 -51.580513
18.055416 52.16892 -51.439934
16.310201 48.573586 -51.695257
17.268522 48.16008 -51.554678
15.509291 46.762148 -51.816814
15.443955 48.983546 -51.822828
16.310201 48.573586 -51.695257
12.745717 37.70314 -52.406405
13.599381 39.119268 -52.190718
12.054077 38.330656 -52.612498
12.745717 37.70314 -52.406405
11.273086 38.828597 -52.764429
12.087996 40.281425 -52.524899
12.054077 38.330656 -52.612498
10.56313 39.481949 -52.927595
11.273086 38.828597 -52.764429
11.777918 52.317847 -51.861343
11.532095 54.392523 -51.721633
12.434154 53.976112 -51.76015
11.955215 50.228966 -52.031874
11.053156 50.645376 -51.993357
11.777918 52.317847 -51.861343
24.924975 57.630281 -49.699613
25.645089 59.4243 -49.390736
3.6419 47.713037 -51.868834
3.340314 49.206524 -51.457716
4.193055 49.118346 -51.632496
3.056355 46.336703 -52.178746
3.6419 47.713037 -51.868834
3.909095 46.248524 -52.353525
2.496336 45.065491 -52.488214
3.056355 46.336703 -52.178746
3.511953 43.450081 -53.109533
4.131552 44.646803 -52.76372
4.319954 43.224695 -53.209816
2.712862 43.687455 -53.034941
3.511953 43.450081 -53.109533
2.496336 45.065491 -52.488214
2.712862 43.687455 -53.034941
16.894721 41.214037 -51.441011
17.02996 43.443691 -51.505815
15.970747 39.562764 -51.60655
16.894721 41.214037 -51.441011
15.210947 40.07444 -51.835083
15.970747 39.562764 -51.60655
3.785884 55.112469 -50.263633
2.824648 55.106518 -49.892998
3.36889 56.589291 -49.801445
4.23606 53.595938 -50.655741
3.785884 55.112469 -50.263633
4.780302 55.078711 -50.564188
4.560974 52.087006 -51.088836
3.566556 52.120764 -50.788282
4.23606 53.595938 -50.655741
5.954956 42.47941 -53.304981
5.093454 42.836212 -53.248956
5.801054 44.064615 -52.920026
5.954956 42.47941 -53.304981
6.740897 42.042439 -53.279392
20.520573 57.472538 -51.005257
20.416677 59.728907 -50.989699
19.722594 55.685343 -51.167984
20.520573 57.472538 -51.005257
20.623907 55.289473 -50.993793
18.993718 51.735124 -51.288317
18.055416 52.16892 -51.439934
18.887626 53.936073 -51.308138
18.993718 51.735124 -51.288317
19.827081 51.108942 -51.104097
24.126503 55.586218 -49.979027
24.024149 58.0135 -50.043104
24.924975 57.630281 -49.699613
23.206915 49.09647 -50.056862
24.105961 50.77363 -49.806176
24.016851 48.314982 -49.693214
23.206915 49.09647 -50.056862
22.332375 47.229654 -50.246565
18.464892 39.990105 -50.944349
19.458607 41.673983 -50.771982
18.267672 37.577088 -50.836256
18.464892 39.990105 -50.944349
18.985225 36.925221 -50.531145
19.982414 38.62357 -50.356274
19.735178 36.302826 -50.219046
18.267672 37.577088 -50.836256
18.985225 36.925221 -50.531145
-0.140291 63.331335 -46.856173
-0.481522 61.723297 -46.846724
-1.706226 68.402657 -45.103026
-2.603693 67.915173 -44.460253
-0.76282 68.886226 -45.7036
0.202219 69.356636 -46.266527
-1.017828 67.295635 -45.701962
-1.706226 68.402657 -45.103026
-0.76282 68.886226 -45.7036
-0.391614 66.181411 -46.302016
-1.33502 65.697842 -45.701441
-1.017828 67.295635 -45.701962
0.25628 64.840111 -46.870013
-0.391614 66.181411 -46.302016
0.573472 66.437904 -46.870533
0.824794 63.587828 -47.42469
-0.140291 63.331335 -46.856173
0.25628 64.840111 -46.870013
2.814202 64.078911 -48.403289
1.782438 63.789279 -47.923826
2.253129 65.386234 -47.917994
3.829693 64.32234 -48.812803
3.359001 62.725386 -48.818635
2.814202 64.078911 -48.403289
4.86319 64.610216 -49.193245
3.829693 64.32234 -48.812803
5.925621 64.608204 -49.558881
5.436922 62.966803 -49.593786
4.86319 64.610216 -49.193245
7.004093 64.8493 -49.874292
5.925621 64.608204 -49.558881
6.430362 66.492714 -49.473751
8.024916 64.994506 -50.123002
7.520175 63.109997 -50.208132
7.004093 64.8493 -49.874292
8.59057 66.76236 -50.049525
9.04675 68.571045 -49.945334
9.106651 65.023056 -50.383364
8.024916 64.994506 -50.123002
8.59057 66.76236 -50.049525
12.517055 68.920803 -50.535021
11.363665 68.711674 -50.388052
11.932465 70.585472 -50.251724
15.759259 65.189253 -51.10436
14.579852 65.322359 -51.056061
15.269921 67.0331 -50.928827
16.807183 64.839056 -51.112942
16.117114 63.128315 -51.240175
15.759259 65.189253 -51.10436
14.742387 76.035435 -49.781197
13.547712 75.856037 -49.704098
15.444131 74.388465 -50.077707
14.742387 76.035435 -49.781197
16.00873 72.651107 -50.339479
14.819325 72.56443 -50.306373
15.444131 74.388465 -50.077707
17.120081 72.654567 -50.338895
18.292943 72.582783 -50.292315
16.495275 70.830532 -50.567562
16.00873 72.651107 -50.339479
17.120081 72.654567 -50.338895
17.027976 68.866993 -50.772053
15.916626 68.863533 -50.772637
16.495275 70.830532 -50.567562
17.027976 68.866993 -50.772053
18.092616 68.776043 -50.732023
17.871823 64.748106 -51.072912
16.807183 64.839056 -51.112942
18.909377 64.549853 -50.995154
18.202593 62.579864 -51.170997
17.871823 64.748106 -51.072912
19.931767 64.182207 -50.893081
18.909377 64.549853 -50.995154
20.918742 63.786104 -50.746437
20.227122 61.985508 -50.946595
19.931767 64.182207 -50.893081
23.768218 62.601534 -50.063692
22.855828 63.016916 -50.329599
23.565644 64.997551 -50.026943
24.650327 62.319866 -49.762363
23.940511 60.339231 -50.06502
23.768218 62.601534 -50.063692
25.132483 66.495357 -49.34308
24.169151 66.838761 -49.702433
25.335609 64.079245 -49.411194
25.132483 66.495357 -49.34308
25.507902 61.816942 -49.412521
24.650327 62.319866 -49.762363
25.335609 64.079245 -49.411194
25.645089 59.4243 -49.390736
25.507902 61.816942 -49.412521
0.59421 59.150533 -47.98094
0.072367 60.492153 -47.459345
0.950066 60.737432 -47.932446
0.221905 57.639057 -48.072704
0.59421 59.150533 -47.98094
1.099604 57.884337 -48.545805
-0.146378 56.208069 -48.129818
-0.651773 57.474266 -47.564952
0.221905 57.639057 -48.072704
1.098719 55.039332 -49.135252
1.567477 56.4781 -49.034189
1.938896 55.144571 -49.531872
0.239361 54.881597 -48.73036
1.098719 55.039332 -49.135252
-0.146378 56.208069 -48.129818
0.239361 54.881597 -48.73036
3.027019 50.691164 -50.946624
3.340314 49.206524 -51.457716
16.181199 53.051956 -51.660362
17.033428 54.839399 -51.539604
17.097095 52.582426 -51.580513
15.361452 53.454826 -51.72691
16.181199 53.051956 -51.660362
15.425118 51.197853 -51.767819
13.642674 51.75108 -51.867113
13.413559 53.82172 -51.788501
14.376257 53.671363 -51.755755
12.829345 49.935017 -51.997125
13.642674 51.75108 -51.867113
13.792043 49.78466 -51.964379
12.104584 48.262546 -52.129139
11.955215 50.228966 -52.031874
12.829345 49.935017 -51.997125
16.233829 44.023009 -51.67547
17.171669 45.772871 -51.519588
17.02996 43.443691 -51.505815
13.704587 41.360888 -52.188698
14.434981 40.69667 -52.006449
13.599381 39.119268 -52.190718
9.812894 39.957756 -53.031739
10.556769 41.255173 -52.780974
10.56313 39.481949 -52.927595
9.029854 40.423981 -53.180532
9.812894 39.957756 -53.031739
8.280447 40.9631 -53.224772
9.057125 42.2701 -52.929356
9.029854 40.423981 -53.180532
7.563478 41.593142 -53.278164
8.280447 40.9631 -53.224772
3 0 23 21
3 1 76 77
3 2 26 24
3 4 29 27
3 4 31 29
3 5 78 79
3 80 33 81
3 80 81 82
3 85 84 33
3 83 84 85
3 86 36 87
3 3 88 90
3 88 89 90
3 91 37 92
3 6 41 39
3 8 42 22
3 8 93 95
3 95 94 42
3 93 94 95
3 9 44 43
3 10 48 46
3 12 49 25
3 12 50 49
3 7 51 40
3 13 52 28
3 13 53 52
3 13 54 53
3 14 55 30
3 14 96 98
3 98 97 55
3 96 97 98
3 99 58 100
3 101 100 56
3 99 100 101
3 102 59 103
3 105 104 59
3 16 106 108
3 108 107 32
3 106 107 108
3 16 109 110
3 16 111 113
3 111 60 112
3 111 112 113
3 115 114 34
3 17 116 117
3 17 118 119
3 120 61 121
3 122 62 123
3 124 123 61
3 122 123 124
3 126 125 62
3 127 63 128
3 127 128 129
3 130 64 131
3 132 131 63
3 130 131 132
3 18 65 35
3 18 133 135
3 135 134 65
3 133 134 135
3 136 66 137
3 139 138 66
3 140 67 141
3 11 68 47
3 15 69 57
3 19 142 144
3 142 70 143
3 142 143 144
3 19 71 70
3 145 72 146
3 147 146 45
3 145 146 147
3 20 73 38
3 20 74 73
3 20 75 74
3 21 22 6
3 23 22 21
3 23 8 22
3 149 148 9
3 24 25 10
3 26 25 24
3 26 12 25
3 27 28 7
3 29 28 27
3 29 13 28
3 29 30 13
3 31 30 29
3 31 14 30
3 150 32 151
3 33 152 154
3 152 32 153
3 152 153 154
3 33 16 32
3 33 34 16
3 155 34 156
3 157 156 33
3 155 156 157
3 159 158 34
3 160 17 161
3 162 35 163
3 162 163 164
3 36 165 167
3 165 35 166
3 165 166 167
3 36 18 35
3 169 168 11
3 171 170 15
3 37 172 173
3 37 174 176
3 174 19 175
3 174 175 176
3 177 38 178
3 179 38 180
3 181 20 182
3 183 182 38
3 181 182 183
3 185 184 20
3 39 40 2
3 41 40 39
3 41 7 40
3 22 41 6
3 42 41 22
3 42 7 41
3 42 27 7
3 186 27 187
3 188 187 42
3 186 187 188
3 189 4 190
3 191 190 27
3 189 190 191
3 193 192 5
3 43 194 196
3 196 195 3
3 194 195 196
3 44 197 199
3 199 198 43
3 197 198 199
3 44 200 201
3 202 44 203
3 204 203 9
3 202 203 204
3 205 44 206
3 208 207 44
3 209 45 210
3 211 45 212
3 214 213 45
3 46 47 1
3 48 47 46
3 48 11 47
3 25 48 10
3 49 48 25
3 49 11 48
3 49 215 217
3 217 216 11
3 215 216 217
3 50 218 220
3 220 219 49
3 218 219 220
3 50 221 223
3 221 3 222
3 221 222 223
3 40 26 2
3 51 26 40
3 51 12 26
3 28 51 7
3 52 51 28
3 52 12 51
3 52 50 12
3 53 50 52
3 53 3 50
3 53 43 3
3 54 43 53
3 54 9 43
3 30 54 13
3 55 54 30
3 55 9 54
3 55 224 226
3 226 225 9
3 224 225 226
3 228 227 55
3 56 57 0
3 58 57 56
3 58 15 57
3 229 58 230
3 59 231 233
3 231 58 232
3 231 232 233
3 59 15 58
3 59 234 236
3 236 235 15
3 234 235 236
3 238 237 59
3 241 240 5
3 239 240 241
3 32 242 244
3 242 243 244
3 246 245 32
3 60 247 248
3 60 249 250
3 34 60 16
3 251 60 252
3 253 252 34
3 251 252 253
3 255 254 60
3 256 1 257
3 258 17 259
3 61 260 261
3 61 262 264
3 262 17 263
3 262 263 264
3 61 265 267
3 267 266 17
3 265 266 267
3 62 268 270
3 270 269 61
3 268 269 270
3 62 271 273
3 271 1 272
3 271 272 273
3 62 46 1
3 274 46 275
3 276 275 62
3 274 275 276
3 277 10 278
3 279 278 46
3 277 278 279
3 280 10 281
3 282 24 283
3 284 283 10
3 282 283 284
3 285 24 286
3 285 286 287
3 288 2 289
3 290 289 24
3 288 289 290
3 63 291 292
3 63 293 295
3 293 2 294
3 293 294 295
3 63 39 2
3 64 39 63
3 64 6 39
3 35 296 298
3 296 64 297
3 296 297 298
3 65 64 35
3 65 6 64
3 65 21 6
3 299 21 300
3 301 300 65
3 299 300 301
3 302 0 303
3 304 303 21
3 302 303 304
3 305 36 306
3 307 36 308
3 309 18 310
3 311 310 36
3 309 310 311
3 66 312 313
3 66 314 316
3 314 18 315
3 314 315 316
3 66 317 319
3 319 318 18
3 317 318 319
3 321 320 66
3 322 0 323
3 324 56 325
3 326 325 0
3 324 325 326
3 327 56 328
3 331 330 56
3 329 330 331
3 67 332 334
3 332 333 334
3 67 335 337
3 335 5 336
3 335 336 337
3 338 67 339
3 340 67 341
3 342 5 343
3 344 343 67
3 342 343 344
3 346 345 5
3 47 347 349
3 349 348 1
3 347 348 349
3 68 350 352
3 352 351 47
3 350 351 352
3 68 353 355
3 353 354 355
3 356 68 357
3 358 357 11
3 356 357 358
3 359 68 360
3 362 361 68
3 364 363 3
3 57 23 0
3 69 23 57
3 69 8 23
3 365 69 366
3 367 366 15
3 365 366 367
3 70 368 370
3 368 69 369
3 368 369 370
3 70 8 69
3 70 371 373
3 373 372 8
3 371 372 373
3 71 374 376
3 376 375 70
3 374 375 376
3 71 377 379
3 377 4 378
3 377 378 379
3 45 380 382
3 380 37 381
3 380 381 382
3 72 37 45
3 72 19 37
3 38 383 385
3 383 72 384
3 383 384 385
3 73 72 38
3 73 19 72
3 73 71 19
3 74 71 73
3 74 4 71
3 74 31 4
3 75 31 74
3 75 14 31
3 386 75 387
3 388 387 20
3 386 387 388
3 389 75 390
3 391 14 392
3 393 392 75
3 391 392 393
3 395 394 14
