ply
format ascii 1.0
element vertex 132
property float x
property float y
property float z
element face 118
property list uchar int vertex_index
end_header
38.069183 28.118042 15.078429
35.085522 22.957891 24.228546
35.155422 31.607134 22.757944
38.015926 19.480251 16.780144
39.36869 21.202412 11.965016
37.893089 36.895809 12.807305
36.628368 34.670036 17.694038
36.639591 25.99419 19.743813
36.504539 38.990982 16.592344
35.843369 37.308414 19.240726
35.11837 27.411501 23.611044
35.860329 29.046059 21.317299
35.843483 24.493118 22.105255
36.587288 21.537012 20.524124
35.751942 20.044323 22.801483
38.014961 32.519447 13.991349
38.661411 33.481346 11.356212
38.744389 29.073778 12.52471
38.096451 23.616846 15.946228
38.775097 24.813583 13.482037
38.769165 20.190895 14.288168
37.126942 40.030132 14.138056
37.278679 35.694561 15.32766
37.367783 31.48428 16.38744
35.905819 33.238556 20.237305
36.644112 30.359497 18.828516
37.41547 26.994364 17.344936
37.375111 22.577785 18.248087
37.243191 18.451206 19.085691
38.509491 37.994934 10.041358
35.443076 38.820966 19.993024
35.764651 39.412918 18.742884
36.697916 41.589207 14.899138
37.026831 42.120489 13.517691
35.53062 32.422845 21.497625
35.537428 34.565197 20.966491
35.16223 33.749486 22.22681
36.825432 17.901941 20.215003
36.915239 19.994109 19.804907
36.497481 19.444844 20.93422
37.127442 16.212058 19.512002
36.825432 17.901941 20.215003
38.20129 37.445372 11.424332
38.12335 39.559818 10.767721
37.815149 39.010255 12.150695
38.956951 33.886095 10.000393
39.011201 31.682208 10.621476
39.390274 23.341556 11.458723
39.093478 25.147142 12.217233
39.071894 23.007998 12.723527
38.31715 17.674146 15.988751
37.937862 17.265563 17.178643
36.095236 40.254202 17.418693
36.386714 41.069631 16.126282
36.173954 38.149698 17.916535
36.095236 40.254202 17.418693
35.764651 39.412918 18.742884
36.079808 18.698499 22.072899
36.497481 19.444844 20.93422
36.169615 20.790667 21.662804
39.05269 29.478424 11.205725
39.011201 31.682208 10.621476
38.7029 31.277562 11.940461
39.660419 21.458211 10.682196
39.603228 19.374399 11.194617
34.824703 32.880605 23.447046
35.16223 33.749486 22.22681
34.805819 30.780361 23.892711
34.824703 32.880605 23.447046
34.787292 28.682544 24.319261
35.136896 29.509318 23.184494
34.805819 30.780361 23.892711
34.772222 26.461413 24.648845
34.787292 28.682544 24.319261
34.755798 24.234609 24.957596
35.101946 25.184696 23.919795
34.772222 26.461413 24.648845
38.69377 18.029468 14.742763
38.392545 19.835573 15.534156
38.31715 17.674146 15.988751
39.019371 18.415288 13.567579
38.69377 18.029468 14.742763
39.319133 18.921046 12.406003
39.068928 20.696654 13.126592
39.019371 18.415288 13.567579
39.603228 19.374399 11.194617
39.319133 18.921046 12.406003
37.432075 40.577417 12.81607
37.026831 42.120489 13.517691
37.510016 38.46297 13.47268
37.815149 39.010255 12.150695
37.432075 40.577417 12.81607
36.815741 39.510557 15.3652
36.697916 41.589207 14.899138
36.386714 41.069631 16.126282
35.506203 36.600126 20.468201
35.443076 38.820966 19.993024
35.874594 35.273485 19.739016
35.506203 36.600126 20.468201
35.537428 34.565197 20.966491
37.551495 16.75104 18.331416
37.937862 17.265563 17.178643
37.629559 18.965728 17.932918
37.551495 16.75104 18.331416
37.127442 16.212058 19.512002
34.689325 22.163491 25.28707
34.755798 24.234609 24.957596
35.026804 20.833167 24.518212
34.689325 22.163491 25.28707
35.360014 19.376383 23.80468
35.418732 21.501107 23.515014
35.026804 20.833167 24.518212
35.664818 17.886394 23.123581
35.360014 19.376383 23.80468
36.079808 18.698499 22.072899
35.664818 17.886394 23.123581
38.411564 40.179678 9.319669
38.12335 39.559818 10.767721
38.793335 38.397241 8.647543
38.411564 40.179678 9.319669
38.880991 36.142889 9.342966
38.585451 35.73814 10.698785
38.956951 33.886095 10.000393
38.793335 38.397241 8.647543
38.880991 36.142889 9.342966
39.078124 27.277239 11.73857
38.759743 26.94368 13.003374
39.093478 25.147142 12.217233
39.05269 29.478424 11.205725
39.078124 27.277239 11.73857
39.390274 23.341556 11.458723
39.660419 21.458211 10.682196
3 30 9 31
3 1 12 10
3 1 14 12
3 0 17 15
3 3 20 18
3 32 21 33
3 6 22 8
3 6 23 22
3 2 34 36
3 34 24 35
3 34 35 36
3 7 25 11
3 7 26 25
3 7 27 26
3 37 28 38
3 39 38 13
3 37 38 39
3 41 40 28
3 5 42 44
3 42 29 43
3 42 43 44
3 46 45 16
3 4 47 49
3 49 48 19
3 47 48 49
3 51 50 3
3 52 8 53
3 9 54 56
3 54 8 55
3 54 55 56
3 9 6 8
3 10 11 2
3 12 11 10
3 12 7 11
3 12 13 7
3 14 13 12
3 14 57 59
3 59 58 13
3 57 58 59
3 15 16 5
3 17 16 15
3 17 60 62
3 62 61 16
3 60 61 62
3 64 63 4
3 65 2 66
3 67 2 68
3 69 10 70
3 71 70 2
3 69 70 71
3 72 10 73
3 74 1 75
3 76 75 10
3 74 75 76
3 18 19 0
3 20 19 18
3 20 4 19
3 77 20 78
3 79 78 3
3 77 78 79
3 80 20 81
3 82 4 83
3 84 83 20
3 82 83 84
3 86 85 4
3 21 87 88
3 21 89 91
3 89 5 90
3 89 90 91
3 8 92 94
3 92 21 93
3 92 93 94
3 22 21 8
3 22 5 21
3 22 15 5
3 23 15 22
3 23 0 15
3 95 9 96
3 24 97 99
3 97 9 98
3 97 98 99
3 24 6 9
3 11 24 2
3 25 24 11
3 25 6 24
3 25 23 6
3 26 23 25
3 26 0 23
3 26 18 0
3 27 18 26
3 27 3 18
3 13 27 7
3 28 27 13
3 28 3 27
3 28 100 102
3 102 101 3
3 100 101 102
3 104 103 28
3 105 1 106
3 107 1 108
3 109 14 110
3 111 110 1
3 109 110 111
3 112 14 113
3 115 114 14
3 29 116 117
3 29 118 119
3 16 29 5
3 120 29 121
3 122 121 16
3 120 121 122
3 124 123 29
3 19 17 0
3 125 17 126
3 127 126 19
3 125 126 127
3 129 128 17
3 131 130 4
