ply
format ascii 1.0
element vertex 141
property float x
property float y
property float z
element face 108
property list uchar int vertex_index
end_header
22.517044 -98.1614 4.345421
26.8985 -79.966324 8.435533
26.197439 -90.235931 7.300366
22.797338 -94.163254 10.352521
24.825815 -94.490349 6.169168
26.891983 -82.462921 8.352679
26.788939 -83.231209 10.645012
25.588608 -90.421188 9.72554
23.675303 -98.375435 2.264613
23.783443 -96.4776 5.264622
24.786219 -96.543587 3.036191
25.623032 -94.418198 3.889304
26.560684 -85.734932 10.363034
26.67536 -89.537048 5.064516
22.80267 -92.207054 13.281756
23.926449 -92.357704 11.296082
22.647263 -96.104546 7.538077
23.858953 -94.444489 8.312241
24.884535 -92.426865 9.075903
25.621599 -92.342545 6.943536
26.251787 -92.114899 4.535643
26.821732 -82.166581 11.908466
26.857544 -81.90028 10.779908
25.214236 -90.436543 10.876304
25.603886 -89.462604 10.9719
24.705406 -97.502518 1.553455
24.230761 -97.459511 2.650402
24.149949 -98.418442 1.167666
25.178833 -96.435967 2.025711
24.705406 -97.502518 1.553455
26.87773 -78.585041 8.446046
26.945989 -78.96775 9.613323
26.828027 -79.545193 7.214326
26.87773 -78.585041 8.446046
26.884356 -80.921966 7.129191
26.828027 -79.545193 7.214326
26.903315 -83.47591 7.084128
26.851346 -83.759224 8.226513
26.369633 -85.903244 11.567059
26.580279 -84.637436 11.65867
26.389014 -88.962989 7.590071
26.181594 -89.210685 8.699677
26.4364 -89.886489 6.182441
26.627975 -88.613548 6.472146
26.389014 -88.962989 7.590071
22.800004 -93.185154 11.817138
22.179913 -92.942852 12.831345
22.177247 -93.920952 11.366728
22.582153 -97.132973 5.941749
21.958478 -96.900162 6.936808
21.893369 -97.928589 5.34048
26.273786 -93.059296 3.075645
25.93741 -93.266548 4.212473
25.959409 -94.210946 2.752476
26.486045 -91.823384 3.450567
26.273786 -93.059296 3.075645
26.912324 -80.267837 9.675168
26.945989 -78.96775 9.613323
26.909066 -81.516136 9.633741
26.895241 -81.214622 8.394106
26.912324 -80.267837 9.675168
26.840461 -82.847065 9.498845
26.909066 -81.516136 9.633741
26.857544 -81.90028 10.779908
26.799824 -84.143368 9.372679
26.851346 -83.759224 8.226513
26.840461 -82.847065 9.498845
25.877178 -89.303314 9.912264
25.603886 -89.462604 10.9719
25.893023 -90.328559 8.512953
26.181594 -89.210685 8.699677
25.877178 -89.303314 9.912264
22.076654 -94.892319 9.96162
22.177247 -93.920952 11.366728
25.59724 -95.373272 2.452268
25.204625 -95.480893 3.462747
25.178833 -96.435967 2.025711
25.959409 -94.210946 2.752476
25.59724 -95.373272 2.452268
21.755204 -98.824776 3.927448
21.893369 -97.928589 5.34048
22.379751 -99.128223 2.787219
21.755204 -98.824776 3.927448
22.95888 -99.235241 1.746816
23.096173 -98.268417 3.305017
22.379751 -99.128223 2.787219
23.5918 -99.274051 0.726018
22.95888 -99.235241 1.746816
24.066446 -99.317059 -0.370929
24.149949 -98.418442 1.167666
23.5918 -99.274051 0.726018
26.881098 -82.170265 7.087764
26.884356 -80.921966 7.129191
26.895241 -81.214622 8.394106
26.881098 -82.170265 7.087764
26.903315 -83.47591 7.084128
26.694406 -83.385575 11.799658
26.821732 -82.166581 11.908466
26.674811 -84.48307 10.504023
26.694406 -83.385575 11.799658
26.580279 -84.637436 11.65867
26.685696 -85.395229 9.23169
26.799824 -84.143368 9.372679
26.674811 -84.48307 10.504023
26.363217 -86.960186 10.231012
26.369633 -85.903244 11.567059
26.570636 -86.71249 9.121405
26.363217 -86.960186 10.231012
26.685696 -85.395229 9.23169
26.570636 -86.71249 9.121405
26.765839 -88.355495 5.274306
26.627975 -88.613548 6.472146
26.81014 -89.280349 3.877528
26.765839 -88.355495 5.274306
22.269414 -91.886257 14.33673
22.179913 -92.942852 12.831345
22.922944 -91.115822 14.737748
22.269414 -91.886257 14.33673
23.365481 -91.302417 13.726765
22.922944 -91.115822 14.737748
23.92737 -91.377742 12.733928
23.365481 -91.302417 13.726765
23.364559 -92.282379 12.288919
24.383156 -91.4048 11.661575
23.92737 -91.377742 12.733928
22.001616 -95.862965 8.554398
21.958478 -96.900162 6.936808
22.7223 -95.1339 8.945299
22.076654 -94.892319 9.96162
22.001616 -95.862965 8.554398
24.862199 -91.439381 10.551486
24.383156 -91.4048 11.661575
24.405492 -92.392285 10.185993
25.236572 -91.424026 9.400721
25.214236 -90.436543 10.876304
24.862199 -91.439381 10.551486
26.697832 -90.534458 3.715003
26.463574 -90.825974 4.80008
26.486045 -91.823384 3.450567
26.81014 -89.280349 3.877528
26.697832 -90.534458 3.715003
3 21 6 22
3 23 7 24
3 25 10 26
3 27 26 8
3 25 26 27
3 29 28 10
3 1 30 31
3 1 32 33
3 1 34 35
3 37 36 5
3 38 12 39
3 2 40 41
3 2 42 44
3 42 13 43
3 42 43 44
3 3 45 47
3 45 14 46
3 45 46 47
3 3 15 14
3 0 48 50
3 48 16 49
3 48 49 50
3 4 17 9
3 4 18 17
3 4 19 18
3 51 20 52
3 53 52 11
3 51 52 53
3 55 54 20
3 56 1 57
3 58 5 59
3 60 59 1
3 58 59 60
3 6 61 63
3 61 5 62
3 61 62 63
3 6 64 66
3 66 65 5
3 64 65 66
3 7 67 68
3 7 69 71
3 69 2 70
3 69 70 71
3 72 3 73
3 8 9 0
3 10 9 8
3 10 4 9
3 10 11 4
3 74 11 75
3 76 75 10
3 74 75 76
3 78 77 11
3 79 0 80
3 81 0 82
3 83 8 84
3 85 84 0
3 83 84 85
3 86 8 87
3 90 89 8
3 88 89 90
3 5 91 93
3 93 92 1
3 91 92 93
3 95 94 5
3 96 6 97
3 12 98 100
3 98 6 99
3 98 99 100
3 12 101 103
3 103 102 6
3 101 102 103
3 104 12 105
3 106 12 107
3 109 108 12
3 13 110 111
3 13 112 113
3 14 114 115
3 14 116 117
3 14 118 119
3 15 120 122
3 122 121 14
3 120 121 122
3 15 123 124
3 16 125 126
3 16 127 129
3 127 3 128
3 127 128 129
3 9 16 0
3 17 16 9
3 17 3 16
3 17 15 3
3 18 15 17
3 18 130 132
3 132 131 15
3 130 131 132
3 18 133 135
3 133 7 134
3 133 134 135
3 19 7 18
3 19 2 7
3 11 19 4
3 20 19 11
3 20 2 19
3 20 13 2
3 136 13 137
3 138 137 20
3 136 137 138
3 140 139 13
