ply
format ascii 1.0
element vertex 70
property float x
property float y
property float z
element face 44
property list uchar int vertex_index
end_header
-36.557617 42.758991 13.262677
-34.221359 51.1777 16.801624
-34.804298 39.583126 20.976297
-35.747314 45.881504 14.417443
-34.615002 43.445538 19.831594
-35.166645 44.852615 17.142178
-36.823433 43.212638 11.901789
-36.962719 41.135101 12.623929
-36.640165 40.829456 14.01456
-36.257975 42.387352 14.573702
-36.962719 41.135101 12.623929
-36.640165 40.829456 14.01456
-34.088207 53.02363 16.062946
-33.876776 52.447066 17.350611
-33.876776 52.447066 17.350611
-33.975874 50.667024 18.092078
-35.130293 38.130526 20.50083
-35.078854 40.306713 19.726954
-35.604189 47.910806 13.608666
-35.342821 47.320675 15.024459
-34.274919 44.930785 20.291945
-34.35623 42.962612 20.975282
-35.052487 46.80623 16.386827
-34.797402 46.157358 17.73536
-35.342821 47.320675 15.024459
-35.45698 45.367059 15.77981
-35.052487 46.80623 16.386827
-34.466116 51.879185 15.346838
-34.579843 49.968773 16.216549
-34.466116 51.879185 15.346838
-34.088207 53.02363 16.062946
-34.324759 49.319901 17.565083
-33.975874 50.667024 18.092078
-34.579843 49.968773 16.216549
-34.324759 49.319901 17.565083
-34.821985 37.524265 21.710516
-34.506409 39.00502 22.206384
-34.821985 37.524265 21.710516
-35.130293 38.130526 20.50083
-36.013208 46.327358 13.087311
-36.41836 44.766102 12.509928
-36.152466 44.320248 13.84006
-36.013208 46.327358 13.087311
-35.604189 47.910806 13.608666
-34.450878 41.031407 21.547634
-34.506409 39.00502 22.206384
-34.70965 41.514332 20.403945
-34.450878 41.031407 21.547634
-34.35623 42.962612 20.975282
-34.984206 42.237919 19.154603
-35.078854 40.306713 19.726954
-34.70965 41.514332 20.403945
-34.52158 45.453819 19.080067
-34.274919 44.930785 20.291945
-34.890823 44.149076 18.486886
-34.52158 45.453819 19.080067
-34.797402 46.157358 17.73536
-35.260027 42.941457 17.809895
-34.984206 42.237919 19.154603
-34.890823 44.149076 18.486886
-35.562489 43.434164 16.513452
-35.260027 42.941457 17.809895
-35.852823 43.948608 15.151085
-35.562489 43.434164 16.513452
-35.45698 45.367059 15.77981
-36.152466 44.320248 13.84006
-36.257975 42.387352 14.573702
-35.852823 43.948608 15.151085
-36.823433 43.212638 11.901789
-36.41836 44.766102 12.509928
3 0 6 7
3 0 8 9
3 0 10 11
3 13 12 1
3 14 1 15
3 17 16 2
3 19 18 3
3 20 4 21
3 22 5 23
3 24 3 25
3 26 25 5
3 24 25 26
3 1 27 28
3 30 29 1
3 1 31 32
3 1 33 34
3 2 35 36
3 38 37 2
3 3 39 41
3 41 40 0
3 39 40 41
3 43 42 3
3 44 2 45
3 4 46 48
3 46 2 47
3 46 47 48
3 4 49 51
3 51 50 2
3 49 50 51
3 52 4 53
3 5 54 56
3 54 4 55
3 54 55 56
3 5 57 59
3 59 58 4
3 57 58 59
3 5 60 61
3 3 62 64
3 64 63 5
3 62 63 64
3 3 65 67
3 65 0 66
3 65 66 67
3 69 68 0
