ply
format ascii 1.0
element vertex 236
property float x
property float y
property float z
element face 197
property list uchar int vertex_index
end_header
-8.590484 -52.607704 57.987579
-3.972895 -58.469627 49.106659
-12.436333 -54.152687 59.618504
-9.86296 -57.261562 55.214668
0.219585 -52.199047 49.472378
-2.982303 -53.839699 51.789841
-6.229159 -55.61116 53.553707
-7.389727 -60.056969 50.680229
-11.053107 -49.635574 61.955261
-14.741197 -50.935001 63.203484
-14.252529 -55.10685 59.901188
-12.918791 -56.619633 57.890633
-6.878693 -51.769974 57.10767
-5.743324 -53.368862 54.864693
-7.466757 -54.25108 55.755482
-10.554981 -59.596272 53.624821
-8.729846 -58.755337 52.988178
-9.124631 -60.896992 51.292633
-12.177448 -47.938499 63.73148
-12.892445 -50.244377 62.711292
11.168456 -29.889301 44.803017
9.984491 -31.720987 45.194149
-3.400262 -56.22958 50.405926
-1.817377 -55.327888 49.546383
-10.4664 -53.482964 58.793613
-9.244051 -54.940979 56.693916
-11.694282 -58.192333 55.719971
-3.405618 -50.224274 54.706902
-2.41174 -51.616959 52.71722
-4.088093 -52.482155 53.886738
-4.509974 -54.753338 52.623882
-5.182352 -56.966248 51.482174
-7.983158 -56.580555 54.284721
-6.905667 -57.947392 52.180565
-5.653317 -59.271156 49.909569
-9.740202 -50.985886 60.085224
-13.657269 -52.638027 61.477314
-1.347499 -53.13818 50.57568
-0.272574 -54.466019 48.584198
-14.609669 -56.217043 59.151415
-15.235925 -55.339641 60.154887
-10.035383 -61.316671 51.568669
-9.839806 -60.246632 52.458727
-10.750557 -60.666311 52.734763
-9.409848 -62.062311 50.341276
-10.035383 -61.316671 51.568669
-12.804959 -46.965353 64.619292
-11.799148 -46.746021 64.159449
-13.150292 -48.162971 64.124278
-12.804959 -46.965353 64.619292
9.36821 -31.714262 46.021423
9.938413 -30.790005 45.810261
9.513105 -32.591904 45.3233
9.36821 -31.714262 46.021423
-3.088648 -58.030048 48.651114
-2.802332 -56.910024 49.300747
-3.686578 -57.349604 49.756293
-11.779966 -54.987804 58.500063
-10.794999 -54.652943 58.087618
-11.451366 -53.817825 59.206058
-12.634377 -58.573524 55.967667
-12.306536 -57.405983 56.805302
-13.246631 -57.787174 57.052998
-12.936543 -59.691143 55.135166
-11.996448 -59.309951 54.88747
-12.634377 -58.573524 55.967667
0.876531 -51.74795 48.989656
0.445472 -51.088597 49.831299
0.727795 -52.922962 48.507367
0.876531 -51.74795 48.989656
-4.589576 -51.798685 54.872789
-3.746855 -51.353214 54.29682
-4.248339 -50.669745 55.282871
-6.76596 -60.782977 49.455545
-5.897755 -60.39007 49.070216
-6.521522 -59.664062 50.294899
-10.099632 -49.160118 61.556598
-10.698802 -48.42546 62.455444
-10.396655 -50.31073 61.020242
-9.443179 -49.835274 60.62158
-10.099632 -49.160118 61.556598
-11.345833 -50.791195 61.359237
-10.68938 -51.466351 60.424219
-10.396655 -50.31073 61.020242
-15.144721 -52.143225 62.530514
-14.602756 -52.994737 61.667429
-14.199233 -51.786514 62.340399
11.808859 -29.892007 44.081436
11.234537 -30.795517 44.21934
-0.445348 -55.59639 47.972019
-1.044976 -54.896954 49.065291
-1.217749 -56.027325 48.453111
0.269761 -55.15452 47.593677
-0.445348 -55.59639 47.972019
-13.9428 -56.973434 58.146138
-13.58566 -55.863242 58.89591
-14.609669 -56.217043 59.151415
-13.246631 -57.787174 57.052998
-13.9428 -56.973434 58.146138
-0.294703 -51.534683 50.438463
0.445472 -51.088597 49.831299
-0.068817 -50.424233 50.797384
-6.311008 -52.569418 55.986182
-5.417192 -52.242038 55.361767
-5.984877 -51.442594 56.483255
-8.53358 -61.613188 50.106407
-7.666127 -61.193176 49.800205
-8.257179 -60.47698 50.986431
-8.53358 -61.613188 50.106407
-9.409848 -62.062311 50.341276
-11.260973 -47.576923 63.343553
-11.799148 -46.746021 64.159449
-11.615278 -48.787036 62.84337
-10.698802 -48.42546 62.455444
-11.260973 -47.576923 63.343553
-13.507791 -49.315911 63.614184
-12.534947 -49.091438 63.221386
-13.150292 -48.162971 64.124278
-14.432167 -49.661223 63.86028
-13.816821 -50.589689 62.957388
-13.507791 -49.315911 63.614184
10.530396 -29.874163 45.614695
11.097328 -28.997324 45.435121
10.576474 -30.805144 44.998583
10.530396 -29.874163 45.614695
9.938413 -30.790005 45.810261
10.642554 -31.71136 44.414906
11.234537 -30.795517 44.21934
10.576474 -30.805144 44.998583
10.143987 -32.555781 44.55085
10.642554 -31.71136 44.414906
10.143987 -32.555781 44.55085
9.513105 -32.591904 45.3233
-2.01089 -56.459179 48.870976
-2.60882 -55.778734 49.976154
-2.802332 -56.910024 49.300747
-1.217749 -56.027325 48.453111
-2.01089 -56.459179 48.870976
-10.183825 -55.381951 57.037769
-9.855225 -54.211972 57.743764
-10.794999 -54.652943 58.087618
-10.493279 -56.542242 56.298145
-9.553505 -56.10127 55.954292
-10.183825 -55.381951 57.037769
-12.021195 -56.221277 57.636128
-11.779966 -54.987804 58.500063
-12.677562 -55.38616 58.754569
-11.40894 -57.007627 56.550797
-12.021195 -56.221277 57.636128
-12.306536 -57.405983 56.805302
-10.778621 -57.726947 55.46732
-10.493279 -56.542242 56.298145
-11.40894 -57.007627 56.550797
-11.426797 -60.011921 53.839895
-11.124631 -58.894302 54.672396
-11.996448 -59.309951 54.88747
-10.750557 -60.666311 52.734763
-11.426797 -60.011921 53.839895
-3.329033 -59.128332 47.95529
-4.18423 -59.575519 48.308071
-2.908679 -50.920617 53.712061
-2.102195 -50.536091 53.051387
-2.599134 -49.839748 54.046228
-4.915709 -52.925508 54.375715
-4.589576 -51.798685 54.872789
-5.417192 -52.242038 55.361767
-5.024442 -59.976284 48.709526
-4.18423 -59.575519 48.308071
-4.813106 -58.870391 49.508114
-5.024442 -59.976284 48.709526
-5.897755 -60.39007 49.070216
-6.76596 -60.782977 49.455545
-7.666127 -61.193176 49.800205
-3.087893 -49.116222 55.041277
-2.599134 -49.839748 54.046228
-3.919255 -49.488785 55.725702
-3.087893 -49.116222 55.041277
-4.248339 -50.669745 55.282871
-3.919255 -49.488785 55.725702
-6.486293 -50.646843 57.514332
-5.984877 -51.442594 56.483255
-7.396064 -51.018633 58.097302
-6.486293 -50.646843 57.514332
-8.25196 -51.437498 58.537256
-7.734589 -52.188839 57.547624
-7.396064 -51.018633 58.097302
-8.826819 -50.626589 59.586078
-9.443179 -49.835274 60.62158
-9.165343 -51.796795 59.036401
-8.25196 -51.437498 58.537256
-8.826819 -50.626589 59.586078
-11.052479 -52.714889 59.778413
-10.103301 -52.234425 59.439419
-10.68938 -51.466351 60.424219
-12.037446 -53.049751 60.190859
-11.451366 -53.817825 59.206058
-11.052479 -52.714889 59.778413
-12.265501 -51.095596 61.737253
-11.345833 -50.791195 61.359237
-11.972776 -49.939976 62.333276
-12.647913 -52.292421 61.120264
-12.265501 -51.095596 61.737253
-13.274857 -51.441202 62.094303
-13.046801 -53.395357 60.547909
-12.037446 -53.049751 60.190859
-12.647913 -52.292421 61.120264
-14.900386 -54.229149 60.879366
-13.954899 -53.872439 60.689251
-14.602756 -52.994737 61.667429
-15.235925 -55.339641 60.154887
-14.900386 -54.229149 60.879366
-15.414423 -50.050932 64.038067
-14.432167 -49.661223 63.86028
-15.717431 -51.265846 63.360892
-15.414423 -50.050932 64.038067
-15.144721 -52.143225 62.530514
-15.717431 -51.265846 63.360892
11.728771 -28.999215 44.681404
11.097328 -28.997324 45.435121
11.728771 -28.999215 44.681404
11.808859 -29.892007 44.081436
-1.610365 -51.243639 52.060885
-2.102195 -50.536091 53.051387
-1.078245 -52.00425 50.990115
-1.610365 -51.243639 52.060885
-1.879619 -52.377569 51.64645
-0.563957 -52.668613 50.024029
-0.294703 -51.534683 50.438463
-1.078245 -52.00425 50.990115
0.481716 -54.056448 48.063277
0.727795 -52.922962 48.507367
-0.026494 -53.332533 49.028288
0.481716 -54.056448 48.063277
0.269761 -55.15452 47.593677
-3.088648 -58.030048 48.651114
-3.329033 -59.128332 47.95529
3 40 39 10
3 0 14 12
3 41 17 42
3 43 42 15
3 41 42 43
3 45 44 17
3 46 18 47
3 49 48 18
3 50 21 51
3 53 52 21
3 1 54 56
3 56 55 22
3 54 55 56
3 2 57 59
3 59 58 24
3 57 58 59
3 60 26 61
3 62 61 11
3 60 61 62
3 65 64 26
3 63 64 65
3 4 66 67
3 4 68 69
3 70 29 71
3 72 71 27
3 70 71 72
3 6 30 13
3 6 31 30
3 3 32 25
3 7 33 16
3 7 34 33
3 7 73 75
3 75 74 34
3 73 74 75
3 8 76 77
3 8 78 80
3 78 35 79
3 78 79 80
3 8 81 83
3 83 82 35
3 81 82 83
3 9 36 19
3 9 84 86
3 86 85 36
3 84 85 86
3 88 87 20
3 5 37 28
3 89 38 90
3 91 90 23
3 89 90 91
3 93 92 38
3 10 11 2
3 94 11 95
3 96 95 10
3 94 95 96
3 98 97 11
3 99 4 100
3 99 100 101
3 12 102 104
3 102 13 103
3 102 103 104
3 14 13 12
3 14 6 13
3 15 16 3
3 17 16 15
3 17 7 16
3 17 105 107
3 107 106 7
3 105 106 107
3 109 108 17
3 18 110 111
3 18 112 114
3 112 8 113
3 112 113 114
3 18 19 8
3 115 19 116
3 117 116 18
3 115 116 117
3 118 9 119
3 120 119 19
3 118 119 120
3 121 20 122
3 21 123 125
3 123 20 124
3 123 124 125
3 21 126 128
3 128 127 20
3 126 127 128
3 21 129 130
3 132 131 21
3 22 23 5
3 133 23 134
3 135 134 22
3 133 134 135
3 137 136 23
3 24 25 0
3 138 25 139
3 140 139 24
3 138 139 140
3 141 3 142
3 143 142 25
3 141 142 143
3 11 144 146
3 146 145 2
3 144 145 146
3 26 147 149
3 149 148 11
3 147 148 149
3 26 150 152
3 150 3 151
3 150 151 152
3 26 15 3
3 153 15 154
3 155 154 26
3 153 154 155
3 157 156 15
3 159 158 1
3 27 160 162
3 160 28 161
3 160 161 162
3 29 28 27
3 29 5 28
3 13 163 165
3 163 29 164
3 163 164 165
3 30 29 13
3 30 5 29
3 30 22 5
3 31 22 30
3 31 1 22
3 25 14 0
3 32 14 25
3 32 6 14
3 16 32 3
3 33 32 16
3 33 6 32
3 33 31 6
3 34 31 33
3 34 1 31
3 34 166 168
3 168 167 1
3 166 167 168
3 170 169 34
3 172 171 7
3 173 27 174
3 175 27 176
3 178 177 27
3 179 12 180
3 181 12 182
3 183 0 184
3 185 184 12
3 183 184 185
3 35 186 187
3 35 188 190
3 188 0 189
3 188 189 190
3 35 24 0
3 191 24 192
3 193 192 35
3 191 192 193
3 194 2 195
3 196 195 24
3 194 195 196
3 19 197 199
3 199 198 8
3 197 198 199
3 36 200 202
3 202 201 19
3 200 201 202
3 36 203 205
3 203 2 204
3 203 204 205
3 36 10 2
3 206 10 207
3 208 207 36
3 206 207 208
3 210 209 10
3 211 9 212
3 213 9 214
3 216 215 9
3 20 217 218
3 220 219 20
3 28 221 222
3 37 223 225
3 225 224 28
3 223 224 225
3 37 226 228
3 226 4 227
3 226 227 228
3 23 37 5
3 38 37 23
3 38 4 37
3 38 229 231
3 231 230 4
3 229 230 231
3 233 232 38
3 235 234 1
