ply
format ascii 1.0
element vertex 55
property float x
property float y
property float z
element face 39
property list uchar int vertex_index
end_header
14.103431 -74.049858 -36.925785
15.753562 -81.571762 -35.857796
13.670065 -79.520462 -37.423168
14.787045 -77.714539 -36.527515
16.058691 -76.370216 -35.361721
14.424596 -83.097122 -36.891537
14.445238 -75.882199 -36.72665
13.796127 -76.717713 -37.253729
13.45432 -74.885372 -37.452863
14.655114 -73.313984 -36.407028
15.632744 -74.474163 -35.624996
15.081061 -75.210037 -36.143753
16.146425 -83.348423 -35.555018
15.481942 -84.111103 -36.071888
15.089079 -82.334442 -36.374667
16.756711 -82.481598 -34.995525
16.146425 -83.348423 -35.555018
13.237637 -77.620674 -37.701555
12.552321 -78.280037 -38.169124
14.228555 -78.617501 -36.975341
13.237637 -77.620674 -37.701555
13.796127 -76.717713 -37.253729
15.820664 -78.818802 -35.680398
16.303922 -80.747413 -35.345539
15.270304 -79.643151 -36.192656
16.456487 -78.14664 -35.097501
15.820664 -78.818802 -35.680398
15.422868 -77.042378 -35.944618
16.981606 -77.254791 -34.513368
16.456487 -78.14664 -35.097501
16.497965 -75.367455 -34.853688
16.981606 -77.254791 -34.513368
16.497965 -75.367455 -34.853688
15.632744 -74.474163 -35.624996
13.043017 -72.949829 -37.702059
13.45432 -74.885372 -37.452863
13.639772 -72.094433 -37.214895
13.043017 -72.949829 -37.702059
12.878664 -80.082679 -37.950943
12.552321 -78.280037 -38.169124
13.25593 -81.871009 -37.685128
12.878664 -80.082679 -37.950943
14.04733 -81.308792 -37.157353
13.634646 -83.677089 -37.404971
13.25593 -81.871009 -37.685128
14.768495 -84.797234 -36.607582
13.978545 -85.377201 -37.121015
13.634646 -83.677089 -37.404971
15.825841 -85.811215 -35.787933
14.768495 -84.797234 -36.607582
15.481942 -84.111103 -36.071888
16.756711 -82.481598 -34.995525
16.303922 -80.747413 -35.345539
14.655114 -73.313984 -36.407028
13.639772 -72.094433 -37.214895
3 0 6 8
3 6 3 7
3 6 7 8
3 0 4 3
3 0 9 11
3 11 10 4
3 9 10 11
3 1 5 2
3 1 12 14
3 14 13 5
3 12 13 14
3 1 15 16
3 17 2 18
3 3 19 21
3 19 2 20
3 19 20 21
3 3 1 2
3 3 22 24
3 24 23 1
3 22 23 24
3 4 25 27
3 27 26 3
3 25 26 27
3 4 28 29
3 4 30 31
3 33 32 4
3 34 0 35
3 37 36 0
3 2 38 39
3 5 40 42
3 42 41 2
3 40 41 42
3 5 43 44
3 5 45 47
3 45 46 47
3 50 49 5
3 48 49 50
3 52 51 1
3 54 53 0
