ply
format ascii 1.0
element vertex 468
property float x
property float y
property float z
element face 421
property list uchar int vertex_index
end_header
-24.425484 19.416185 -36.260479
-13.316051 36.363949 -35.584911
-6.723172 41.9921 -50.233326
-11.051484 40.14505 -43.728619
-18.317924 26.944101 -36.037628
-16.351032 32.634373 -45.223782
-18.624992 20.254309 -27.019445
-30.468935 16.556572 -40.355495
-15.575725 31.472279 -35.687916
-17.646385 29.92767 -40.735001
-14.810169 34.042225 -40.267891
-9.174723 41.433815 -47.086212
-16.180943 25.545992 -27.059589
-11.487615 41.542786 -35.49815
-12.388013 38.535378 -39.677521
-21.314262 22.980598 -36.299301
-23.959885 23.05402 -41.311092
-20.802202 26.273697 -41.237179
-13.58235 36.124573 -44.329529
-21.372009 19.282064 -31.227205
-18.595924 23.715982 -31.446669
-16.009592 28.638962 -31.392138
-13.849681 33.982151 -31.40609
-3.835075 41.994678 -52.429771
-26.389599 23.446167 -46.585667
-25.832991 19.581657 -38.544678
-14.432503 33.811165 -35.726913
-15.270519 32.762138 -37.992081
-14.087134 34.980064 -37.828056
-8.031091 41.745293 -48.788715
-9.16335 40.095531 -49.378063
-11.056221 42.303848 -37.519855
-30.181252 18.418833 -43.061447
-19.836557 24.808512 -36.152061
-20.991999 24.725302 -38.595474
-19.501728 26.630157 -38.708839
-17.035488 31.376993 -42.960323
-17.906435 31.005362 -45.76339
-11.751978 39.464539 -41.733471
-12.988426 37.199242 -41.910824
-12.313851 38.0256 -44.003769
-19.350479 12.591399 -20.554586
-18.467791 18.599268 -24.796453
-19.697002 16.089666 -24.651888
-19.823999 17.91457 -26.830278
-21.35988 17.402937 -28.969261
-19.994446 19.657692 -29.157709
-19.993147 21.369558 -31.318888
-18.647655 21.963923 -29.179874
-16.102434 27.15029 -29.202421
-14.987549 29.965441 -29.308411
-14.826483 31.343603 -31.318218
-13.973822 32.790565 -29.121758
-3.559211 40.005867 -54.176983
-23.622566 24.673241 -43.893658
-25.286346 23.243479 -44.04443
-24.671541 24.942541 -46.663124
-30.511719 14.863377 -37.908463
-28.857216 18.229164 -40.716686
-28.606438 20.044893 -43.481243
-16.868378 29.212368 -35.895966
-18.031023 28.454054 -38.31374
-16.580814 30.560791 -38.049179
-16.182898 31.903732 -40.397114
-15.521549 33.326523 -42.682533
-10.149753 40.910599 -45.420994
-11.384958 38.885056 -45.963177
-10.302217 39.628517 -47.728668
-17.382967 22.796227 -27.066935
-12.317601 38.992512 -35.639534
-12.942736 37.409317 -37.630112
-11.900513 39.956127 -37.527935
-11.385362 40.809872 -39.515213
-10.721015 41.648434 -41.436886
-9.955624 42.354092 -43.272144
-9.128735 42.856636 -44.975639
-22.784513 21.143209 -36.167389
-24.191883 21.314264 -38.739407
-19.164497 28.100416 -41.052757
-13.557428 36.205601 -39.878819
-14.224134 35.185528 -42.27549
-14.936294 34.322075 -44.814251
-24.433548 17.409573 -33.600044
-22.929695 19.193888 -33.684647
-21.387362 21.147697 -33.714916
-19.946518 23.101559 -33.671989
-18.501385 25.371069 -33.7621
-17.315573 24.415728 -29.045631
-17.225269 26.036341 -31.201534
-17.097431 27.643225 -33.543755
-15.891695 29.970045 -33.542442
-14.70295 32.543152 -33.55238
-13.624011 35.2132 -33.606567
-12.922072 36.854191 -31.382977
-12.701741 37.820717 -33.564117
-5.369144 41.944572 -51.52702
-5.091911 40.360626 -53.25835
-25.647238 21.422688 -41.238075
-26.92244 21.648134 -43.735085
-28.065968 21.849871 -46.215202
-27.560192 23.405191 -49.079578
-25.129238 19.498921 -37.402578
-25.878525 18.638071 -37.261665
-25.174771 18.555335 -36.119566
-7.348762 41.115609 -50.604489
-8.002721 40.992205 -49.882183
-7.377131 41.868696 -49.511021
-6.662215 41.192938 -51.216917
-7.348762 41.115609 -50.604489
-30.827665 18.399409 -44.236221
-30.013589 19.249924 -44.41778
-16.728588 32.414282 -46.598305
-17.50629 31.599776 -46.868109
-17.128733 31.819868 -45.493586
-18.703339 13.196998 -19.758902
-19.224784 11.814295 -19.581656
-14.571269 30.680327 -28.253683
-15.064255 29.170704 -28.253113
-14.647975 29.88559 -27.198384
-14.064405 32.092889 -28.160356
-14.480685 31.378003 -29.215084
-14.571269 30.680327 -28.253683
-23.825283 25.636371 -46.56015
-24.147053 24.807891 -45.278391
-23.300795 25.501722 -45.175417
-28.039295 19.009961 -40.806336
-28.126651 18.140017 -39.57754
-27.913905 19.917825 -42.188614
-28.731827 19.137028 -42.098965
-28.039295 19.009961 -40.806336
-9.849573 39.266849 -49.663488
-9.242749 39.411947 -50.503122
-10.912353 42.009974 -39.495085
-11.220792 41.55686 -38.517534
-10.747782 42.756962 -38.497406
-10.580179 42.429254 -40.455922
-11.053189 41.229153 -40.47605
-10.912353 42.009974 -39.495085
-9.472877 43.456097 -43.142426
-9.852483 43.156544 -42.291191
-9.059432 43.707369 -43.994173
-9.542179 42.605364 -44.123891
-9.472877 43.456097 -43.142426
-31.236747 15.723386 -40.184801
-31.258139 14.876788 -38.961285
-30.490327 15.709974 -39.131979
-21.972296 22.966864 -37.523958
-22.707422 22.048169 -37.458002
-22.049388 22.061903 -36.233345
-21.566632 25.422469 -41.172012
-21.66153 24.648271 -39.85116
-20.897101 25.499499 -39.916326
-21.352039 26.254382 -42.479933
-21.566632 25.422469 -41.172012
-12.053482 37.952259 -46.220531
-11.523671 38.380331 -47.080323
-24.405401 16.419976 -32.372088
-25.187841 16.622698 -33.606623
-20.290174 14.994442 -24.573165
-20.397213 15.896663 -25.669444
-22.143687 18.305543 -31.277515
-22.137622 17.365979 -30.148542
-21.365944 18.3425 -30.098233
-22.150852 19.237976 -32.455926
-22.92253 18.261454 -32.506236
-22.143687 18.305543 -31.277515
-12.541293 38.24346 -31.532302
-12.652818 37.781622 -30.505001
-12.431127 38.726723 -32.622872
-12.811906 37.337454 -32.473547
-12.541293 38.24346 -31.532302
-12.279638 39.21967 -33.566448
-12.431127 38.726723 -32.622872
-4.022504 42.980234 -51.555601
-3.254426 42.928348 -52.044668
-4.60211 41.969625 -51.978396
-4.789538 42.955181 -51.104225
-4.022504 42.980234 -51.555601
-4.184848 39.307579 -54.67049
-3.392101 39.035965 -55.042803
-28.051288 23.318136 -50.245356
-27.130254 24.159827 -50.414447
-28.418105 22.555563 -48.806955
-28.051288 23.318136 -50.245356
-26.614539 18.816264 -38.491535
-25.878525 18.638071 -37.261665
-26.527182 19.686208 -39.720332
-26.614539 18.816264 -38.491535
-8.56885 40.167324 -50.176857
-8.59722 40.920412 -49.083389
-8.002721 40.992205 -49.882183
-8.64825 39.48374 -51.301916
-9.242749 39.411947 -50.503122
-8.56885 40.167324 -50.176857
-10.879586 43.267461 -36.635511
-11.271918 41.923317 -36.509003
-11.095283 42.88693 -35.624659
-10.656227 43.533851 -37.598278
-10.879586 43.267461 -36.635511
-10.747782 42.756962 -38.497406
-10.656227 43.533851 -37.598278
-30.954335 17.57752 -42.851486
-31.098176 16.64639 -41.49851
-30.325094 17.487702 -41.708471
-30.954335 17.57752 -42.851486
-30.827665 18.399409 -44.236221
-17.847272 30.478947 -43.240521
-18.152721 29.754286 -42.127859
-17.340936 30.652331 -41.847662
-18.282745 30.293132 -44.642054
-17.847272 30.478947 -43.240521
-17.470962 31.191178 -44.361857
-18.744288 30.188794 -45.942394
-18.282745 30.293132 -44.642054
-18.350804 30.849419 -47.163077
-19.188658 30.032851 -47.342081
-18.744288 30.188794 -45.942394
-18.350804 30.849419 -47.163077
-17.50629 31.599776 -46.868109
-19.917521 11.444204 -20.485031
-19.224784 11.814295 -19.581656
-20.003428 12.413251 -21.535267
-19.917521 11.444204 -20.485031
-19.082397 17.344467 -24.72417
-19.018374 16.509774 -23.694894
-18.403768 17.764575 -23.767176
-20.460712 16.809115 -26.758639
-20.397213 15.896663 -25.669444
-19.7605 17.002118 -25.741083
-20.59194 17.658754 -27.899769
-21.228653 16.553299 -27.828131
-20.460712 16.809115 -26.758639
-15.621697 27.763129 -28.200118
-16.141689 26.348141 -28.131005
-15.660952 26.96098 -27.128702
-15.544991 28.557865 -29.255416
-15.621697 27.763129 -28.200118
-15.064255 29.170704 -28.253113
-3.058973 41.855732 -52.827416
-3.254426 42.928348 -52.044668
-2.921041 40.861326 -53.701021
-3.697143 41.000273 -53.303377
-3.058973 41.855732 -52.827416
-2.773347 39.765695 -54.493561
-2.921041 40.861326 -53.701021
-3.392101 39.035965 -55.042803
-2.773347 39.765695 -54.493561
-29.763704 14.708254 -36.786803
-30.501982 13.871219 -36.582483
-29.753968 13.716096 -35.460823
-29.753361 15.638218 -38.034279
-29.763704 14.708254 -36.786803
-29.731969 16.484815 -39.257795
-30.490327 15.709974 -39.131979
-29.753361 15.638218 -38.034279
-28.92611 17.321112 -39.43839
-28.126651 18.140017 -39.57754
-29.663075 17.392868 -40.536091
-29.731969 16.484815 -39.257795
-28.92611 17.321112 -39.43839
-29.226182 20.062954 -44.627678
-30.013589 19.249924 -44.41778
-29.393845 19.231863 -43.271345
-10.982301 38.752062 -47.963068
-11.523671 38.380331 -47.080323
-10.843587 39.256787 -46.845923
-10.419006 39.033343 -48.838791
-9.732784 39.862024 -48.553365
-9.849573 39.266849 -49.663488
-11.09909 38.156887 -49.073191
-10.982301 38.752062 -47.963068
-10.419006 39.033343 -48.838791
-17.84712 19.086287 -23.793568
-18.403768 17.764575 -23.767176
-17.881676 19.910924 -24.840611
-17.84712 19.086287 -23.793568
-17.960276 20.738444 -25.952107
-18.546391 19.426789 -25.907949
-17.881676 19.910924 -24.840611
-17.339264 22.009403 -25.975852
-18.003979 21.525268 -27.04319
-17.960276 20.738444 -25.952107
-16.802301 23.390463 -26.051461
-17.339264 22.009403 -25.975852
-16.20129 24.765345 -26.047787
-16.781955 24.17111 -27.063262
-16.802301 23.390463 -26.051461
-15.675932 26.253874 -26.047719
-16.20129 24.765345 -26.047787
-15.696279 25.473228 -25.035918
-15.155942 27.668861 -26.116832
-15.660952 26.96098 -27.128702
-15.675932 26.253874 -26.047719
-10.235178 42.803715 -41.373562
-10.580179 42.429254 -40.455922
-10.33832 42.001263 -42.354515
-10.235178 42.803715 -41.373562
-9.852483 43.156544 -42.291191
-8.633737 43.899309 -44.841701
-9.059432 43.707369 -43.994173
-8.585277 43.132338 -45.817656
-8.633737 43.899309 -44.841701
-8.608271 42.420927 -46.872942
-9.151729 42.145226 -46.030926
-8.585277 43.132338 -45.817656
-8.036455 42.576666 -47.724193
-8.602907 41.589554 -47.937464
-8.608271 42.420927 -46.872942
-7.469356 42.644028 -48.566952
-8.036455 42.576666 -47.724193
-6.815397 42.767432 -49.289257
-7.377131 41.868696 -49.511021
-7.469356 42.644028 -48.566952
-31.241645 13.976306 -37.632692
-31.231908 12.984148 -36.306713
-30.501982 13.871219 -36.582483
-31.241645 13.976306 -37.632692
-31.258139 14.876788 -38.961285
-31.236747 15.723386 -40.184801
-31.098176 16.64639 -41.49851
-23.411107 22.133696 -38.744011
-23.488198 21.228737 -37.453398
-22.707422 22.048169 -37.458002
-23.295108 23.003574 -40.029854
-24.075884 22.184142 -40.02525
-23.411107 22.133696 -38.744011
-21.811165 23.839216 -38.672044
-21.972296 22.966864 -37.523958
-21.15313 23.85295 -37.447388
-21.811165 23.839216 -38.672044
-21.66153 24.648271 -39.85116
-23.145474 23.812631 -41.208969
-23.295108 23.003574 -40.029854
-22.976814 24.622241 -42.500252
-23.791225 23.86363 -42.602375
-23.145474 23.812631 -41.208969
-22.762221 25.454154 -43.808172
-22.976814 24.622241 -42.500252
-23.300795 25.501722 -45.175417
-22.762221 25.454154 -43.808172
-18.911777 28.840659 -42.286738
-18.405441 29.014043 -40.893879
-18.152721 29.754286 -42.127859
-19.669375 28.007808 -42.286329
-18.911777 28.840659 -42.286738
-20.488228 27.094449 -42.37854
-19.98335 27.187056 -41.144968
-19.669375 28.007808 -42.286329
-21.352039 26.254382 -42.479933
-20.488228 27.094449 -42.37854
-12.517928 37.522531 -45.240827
-11.849404 38.455328 -44.983473
-12.053482 37.952259 -46.220531
-13.152178 36.572018 -45.403707
-12.9481 37.075086 -44.166649
-12.517928 37.522531 -45.240827
-13.816865 35.75486 -45.618836
-13.152178 36.572018 -45.403707
-13.386692 36.202305 -46.693014
-14.493837 34.853611 -45.861196
-14.259322 35.223324 -44.57189
-13.816865 35.75486 -45.618836
-15.248857 34.023792 -46.192917
-14.493837 34.853611 -45.861196
-15.956226 33.179941 -46.397683
-15.643663 33.478224 -45.019016
-15.248857 34.023792 -46.192917
-16.728588 32.414282 -46.598305
-15.956226 33.179941 -46.397683
-25.178804 17.552029 -34.789349
-25.187841 16.622698 -33.606623
-24.429516 18.412879 -34.930262
-25.174771 18.555335 -36.119566
-25.178804 17.552029 -34.789349
-18.796891 13.920603 -20.688877
-18.703339 13.196998 -19.758902
-19.40449 13.484981 -21.52196
-18.796891 13.920603 -20.688877
-20.003428 12.413251 -21.535267
-19.40449 13.484981 -21.52196
-19.577751 15.234115 -23.570611
-19.018374 16.509774 -23.694894
-19.577751 15.234115 -23.570611
-20.290174 14.994442 -24.573165
-22.038301 16.426177 -28.929404
-21.228653 16.553299 -27.828131
-22.038301 16.426177 -28.929404
-22.137622 17.365979 -30.148542
-23.674456 17.369297 -32.463934
-24.405401 16.419976 -32.372088
-23.681621 18.301731 -33.642345
-23.674456 17.369297 -32.463934
-22.92253 18.261454 -32.506236
-13.635108 33.670786 -28.223802
-14.064405 32.092889 -28.160356
-13.725691 32.97311 -27.2624
-13.562057 34.217911 -29.230691
-13.635108 33.670786 -28.223802
-13.499986 34.813704 -30.372857
-13.911752 33.386358 -30.263924
-13.562057 34.217911 -29.230691
-13.036181 36.249724 -30.3613
-12.652818 37.781622 -30.505001
-13.385877 35.418171 -31.394534
-13.499986 34.813704 -30.372857
-13.036181 36.249724 -30.3613
-12.087568 39.805567 -34.604157
-12.509671 38.406615 -34.601826
-12.279638 39.21967 -33.566448
-11.672575 41.080704 -34.533465
-11.902608 40.267649 -35.568842
-12.087568 39.805567 -34.604157
-11.290215 42.554554 -34.64608
-11.672575 41.080704 -34.533465
-11.095283 42.88693 -35.624659
-11.290215 42.554554 -34.64608
-6.144018 42.953568 -49.902075
-6.815397 42.767432 -49.289257
-5.467004 42.929804 -50.548922
-4.789538 42.955181 -51.104225
-6.046158 41.968336 -50.880173
-6.144018 42.953568 -49.902075
-5.467004 42.929804 -50.548922
-5.985201 41.169174 -51.863764
-6.662215 41.192938 -51.216917
-6.046158 41.968336 -50.880173
-5.846584 40.377201 -52.729429
-5.985201 41.169174 -51.863764
-5.230527 41.152599 -52.392685
-5.74431 39.646561 -53.699257
-6.498983 39.663136 -53.170336
-5.846584 40.377201 -52.729429
-4.951197 39.484959 -54.211174
-4.325561 40.183247 -53.717666
-4.184848 39.307579 -54.67049
-5.74431 39.646561 -53.699257
-4.951197 39.484959 -54.211174
-26.434306 20.606723 -41.06703
-26.527182 19.686208 -39.720332
-25.740115 20.502173 -39.891376
-27.071907 20.719446 -42.315535
-26.434306 20.606723 -41.06703
-26.284839 21.535411 -42.48658
-27.764439 20.846514 -43.608164
-27.913905 19.917825 -42.188614
-27.071907 20.719446 -42.315535
-28.955947 20.965443 -45.994658
-29.226182 20.062954 -44.627678
-28.336203 20.947382 -44.848222
-24.332169 25.688532 -47.965029
-23.825283 25.636371 -46.56015
-25.21704 24.956373 -47.948315
-24.332169 25.688532 -47.965029
-26.076069 24.208186 -47.909586
-25.53057 24.194354 -46.624396
-25.21704 24.956373 -47.948315
-26.661366 24.187698 -49.156542
-26.231428 24.942334 -50.491411
-27.130254 24.159827 -50.414447
-26.974896 23.425679 -47.832622
-26.076069 24.208186 -47.909586
-26.661366 24.187698 -49.156542
-28.670993 21.777903 -47.374767
-27.81308 22.627531 -47.64739
-28.418105 22.555563 -48.806955
-29.560972 20.893475 -47.154223
-28.955947 20.965443 -45.994658
-28.670993 21.777903 -47.374767
3 0 101 103
3 101 25 102
3 101 102 103
3 1 28 26
3 2 104 106
3 106 105 29
3 104 105 106
3 2 107 108
3 110 109 32
3 4 35 33
3 5 37 36
3 5 111 113
3 113 112 37
3 111 112 113
3 3 40 38
3 114 41 115
3 6 44 42
3 6 46 44
3 6 48 46
3 116 50 117
3 116 117 118
3 119 52 120
3 121 120 50
3 119 120 121
3 122 56 123
3 124 123 54
3 122 123 124
3 125 58 126
3 127 59 128
3 129 128 58
3 127 128 129
3 8 62 60
3 10 63 27
3 10 64 63
3 11 67 65
3 131 130 30
3 13 71 69
3 132 72 133
3 134 133 31
3 132 133 134
3 135 73 136
3 137 136 72
3 135 136 137
3 138 74 139
3 140 75 141
3 142 141 74
3 140 141 142
3 7 143 145
3 145 144 57
3 143 144 145
3 15 146 148
3 148 147 76
3 146 147 148
3 17 149 151
3 151 150 34
3 149 150 151
3 17 152 153
3 9 78 61
3 14 79 70
3 18 80 39
3 18 81 80
3 155 154 66
3 156 82 157
3 159 158 43
3 19 160 162
3 162 161 45
3 160 161 162
3 19 163 165
3 163 83 164
3 163 164 165
3 19 84 83
3 20 85 47
3 20 86 85
3 12 87 68
3 21 88 49
3 21 89 88
3 21 90 89
3 22 91 51
3 22 92 91
3 166 93 167
3 168 94 169
3 170 169 93
3 168 169 170
3 172 171 94
3 23 173 174
3 23 175 177
3 175 95 176
3 175 176 177
3 23 96 95
3 179 178 53
3 16 97 77
3 24 98 55
3 24 99 98
3 180 100 181
3 183 182 100
3 25 184 185
3 25 186 187
3 26 27 8
3 28 27 26
3 28 10 27
3 29 30 11
3 188 30 189
3 190 189 29
3 188 189 190
3 193 192 30
3 191 192 193
3 194 31 195
3 196 195 13
3 194 195 196
3 197 31 198
3 200 199 31
3 32 201 203
3 203 202 7
3 201 202 203
3 205 204 32
3 33 34 15
3 35 34 33
3 35 17 34
3 36 206 208
3 208 207 9
3 206 207 208
3 37 209 211
3 211 210 36
3 209 210 211
3 37 212 213
3 37 214 216
3 214 215 216
3 218 217 37
3 38 39 14
3 40 39 38
3 40 18 39
3 41 219 220
3 41 221 222
3 42 223 225
3 223 43 224
3 223 224 225
3 44 43 42
3 44 226 228
3 228 227 43
3 226 227 228
3 44 229 231
3 229 45 230
3 229 230 231
3 46 45 44
3 46 19 45
3 46 47 19
3 48 47 46
3 48 20 47
3 232 49 233
3 234 233 12
3 232 233 234
3 50 235 237
3 235 49 236
3 235 236 237
3 50 21 49
3 50 51 21
3 52 51 50
3 52 22 51
3 238 23 239
3 240 53 241
3 242 241 23
3 240 241 242
3 243 53 244
3 246 245 53
3 54 55 16
3 56 55 54
3 56 24 55
3 247 57 248
3 247 248 249
3 250 57 251
3 252 7 253
3 254 253 57
3 252 253 254
3 58 255 256
3 58 257 259
3 257 7 258
3 257 258 259
3 58 32 7
3 59 32 58
3 59 260 262
3 262 261 32
3 260 261 262
3 60 61 4
3 62 61 60
3 62 9 61
3 27 62 8
3 63 62 27
3 63 9 62
3 63 36 9
3 64 36 63
3 64 5 36
3 65 66 3
3 67 66 65
3 67 263 265
3 265 264 66
3 263 264 265
3 30 67 11
3 266 67 267
3 268 267 30
3 266 267 268
3 271 270 67
3 269 270 271
3 272 42 273
3 274 42 275
3 276 6 277
3 278 277 42
3 276 277 278
3 279 68 280
3 281 280 6
3 279 280 281
3 282 68 283
3 284 12 285
3 286 285 68
3 284 285 286
3 287 12 288
3 287 288 289
3 292 291 12
3 290 291 292
3 69 70 1
3 71 70 69
3 71 14 70
3 31 71 13
3 72 71 31
3 72 14 71
3 72 38 14
3 73 38 72
3 73 3 38
3 293 73 294
3 74 295 297
3 295 73 296
3 295 296 297
3 74 3 73
3 74 65 3
3 75 65 74
3 75 11 65
3 298 75 299
3 300 75 301
3 302 11 303
3 304 303 75
3 302 303 304
3 305 29 306
3 307 306 11
3 305 306 307
3 308 29 309
3 310 2 311
3 312 311 29
3 310 311 312
3 57 313 315
3 313 314 315
3 317 316 57
3 319 318 7
3 76 77 0
3 320 77 321
3 322 321 76
3 320 321 322
3 323 16 324
3 325 324 77
3 323 324 325
3 34 326 328
3 328 327 15
3 326 327 328
3 330 329 34
3 331 16 332
3 333 54 334
3 335 334 16
3 333 334 335
3 336 54 337
3 339 338 54
3 61 35 4
3 78 35 61
3 78 17 35
3 340 78 341
3 342 341 9
3 340 341 342
3 343 78 344
3 345 17 346
3 347 346 78
3 345 346 347
3 349 348 17
3 70 28 1
3 79 28 70
3 79 10 28
3 39 79 14
3 80 79 39
3 80 10 79
3 80 64 10
3 81 64 80
3 81 5 64
3 66 40 3
3 350 40 351
3 352 351 66
3 350 351 352
3 353 18 354
3 355 354 40
3 353 354 355
3 356 18 357
3 356 357 358
3 359 81 360
3 361 360 18
3 359 360 361
3 362 81 363
3 364 5 365
3 366 365 81
3 364 365 366
3 368 367 5
3 82 369 370
3 82 371 373
3 371 0 372
3 371 372 373
3 374 41 375
3 376 41 377
3 379 378 41
3 43 380 381
3 383 382 43
3 45 384 385
3 387 386 45
3 388 82 389
3 83 390 392
3 390 82 391
3 390 391 392
3 83 0 82
3 83 76 0
3 84 76 83
3 84 15 76
3 47 84 19
3 85 84 47
3 85 15 84
3 85 33 15
3 86 33 85
3 86 4 33
3 68 48 6
3 87 48 68
3 87 20 48
3 49 87 12
3 88 87 49
3 88 20 87
3 88 86 20
3 89 86 88
3 89 4 86
3 89 60 4
3 90 60 89
3 90 8 60
3 51 90 21
3 91 90 51
3 91 8 90
3 91 26 8
3 92 26 91
3 92 1 26
3 393 52 394
3 393 394 395
3 396 52 397
3 398 22 399
3 400 399 52
3 398 399 400
3 93 401 402
3 93 403 405
3 403 22 404
3 403 404 405
3 93 92 22
3 94 92 93
3 94 1 92
3 94 69 1
3 406 69 407
3 408 407 94
3 406 407 408
3 409 13 410
3 411 410 69
3 409 410 411
3 412 13 413
3 415 414 13
3 416 2 417
3 95 418 419
3 95 420 422
3 420 2 421
3 420 421 422
3 95 423 425
3 425 424 2
3 423 424 425
3 96 426 428
3 428 427 95
3 426 427 428
3 96 429 431
3 429 430 431
3 53 96 23
3 432 96 433
3 434 433 53
3 432 433 434
3 436 435 96
3 77 25 0
3 97 25 77
3 97 437 439
3 439 438 25
3 437 438 439
3 55 97 16
3 98 97 55
3 98 440 442
3 442 441 97
3 440 441 442
3 98 443 445
3 443 59 444
3 443 444 445
3 99 59 98
3 99 446 448
3 448 447 59
3 446 447 448
3 449 56 450
3 451 56 452
3 453 24 454
3 455 454 56
3 453 454 455
3 100 456 458
3 456 457 458
3 100 459 461
3 459 24 460
3 459 460 461
3 100 99 24
3 462 99 463
3 464 463 100
3 462 463 464
3 467 466 99
3 465 466 467
