ply
format ascii 1.0
element vertex 502
property float x
property float y
property float z
element face 451
property list uchar int vertex_index
end_header
-31.960606 28.605862 -5.78777
-17.242313 30.304398 -11.91748
-14.465016 35.458904 -15.865112
-21.398729 25.25255 -9.351578
-33.538582 32.55286 -0.541717
-34.346104 26.497383 -4.32702
-17.490927 38.197914 -12.931623
-15.704782 32.956635 -13.680019
-26.81629 27.396423 -8.042606
-24.088573 22.967949 -8.322462
-24.071461 29.712093 -9.037519
-21.580307 32.411098 -10.102205
-31.543783 35.944756 -2.372104
-29.768789 25.192122 -6.940632
-29.222195 31.045712 -7.119814
-15.851169 25.287655 -12.684733
-14.758267 28.065895 -14.86841
-13.977738 30.601898 -17.48362
-13.420637 33.027588 -20.512766
-19.103659 27.632502 -10.508416
-19.298061 35.260773 -11.402924
-35.185947 28.415365 -2.005435
-35.311867 29.162107 1.219398
-33.158684 31.258951 -3.653566
-12.987142 35.406891 -23.904795
-12.598077 37.648617 -27.662374
-12.160514 39.632729 -31.681627
-34.849121 24.098719 -4.236974
-35.38884 25.480682 -3.522968
-26.773832 30.536877 -8.194415
-25.48037 28.740551 -8.538354
-32.373207 25.798111 -5.796213
-31.308832 24.00956 -6.275502
-30.985126 26.826368 -6.473747
-29.591263 28.087238 -7.078037
-30.640194 29.800699 -6.460022
-17.165035 26.580164 -11.487574
-16.465195 24.191166 -11.844658
-16.405926 28.075508 -12.31564
-15.055541 34.152512 -14.696052
-15.108044 30.213139 -14.185631
-14.557589 31.872013 -15.358909
-14.336168 29.296797 -16.126179
-14.089011 33.171097 -16.597887
-13.69401 34.360935 -17.905735
-22.738897 24.253649 -8.838995
-22.743198 20.564781 -8.338623
-21.380217 21.67938 -8.887438
-20.165432 23.051607 -9.478798
-19.025919 24.066252 -10.078717
-20.236942 26.432995 -9.893031
-20.35763 33.745182 -10.726745
-34.404263 30.525883 -1.357182
-34.207214 29.817688 -2.881764
-33.393749 32.131889 -2.246023
-30.556141 37.649563 -3.14258
-31.331951 35.149422 -3.886758
-12.99744 36.742798 -21.007111
-13.169099 34.40115 -22.106884
-12.721889 37.845955 -22.613056
-12.383564 38.709053 -29.627024
-33.213776 27.431387 -5.084584
-17.326473 34.137619 -12.40717
-16.431013 31.751501 -12.769647
-16.535057 35.682106 -13.27213
-15.780096 36.771187 -14.192282
-26.888041 24.215544 -7.750427
-25.509874 22.06547 -7.848816
-25.447855 25.272709 -8.244267
-24.159718 26.312708 -8.696445
-22.722803 27.476351 -9.222357
-21.541624 28.88372 -9.740617
-22.850473 31.028906 -9.533398
-32.524837 34.292244 -1.533969
-28.473955 23.077477 -7.182562
-28.234915 26.29303 -7.528934
-28.180967 29.277239 -7.650536
-27.944113 32.466057 -7.66715
-15.696145 29.066067 -13.213643
-15.273086 26.399645 -13.702236
-14.694542 25.637678 -15.617998
-14.382858 26.967554 -16.972878
-14.138363 28.22607 -18.481714
-13.93973 29.476204 -20.112247
-13.671797 31.883804 -18.950274
-13.317772 35.478882 -19.463528
-18.016527 25.108927 -10.737794
-18.074059 28.824739 -11.187551
-20.351076 30.062857 -10.297591
-19.197153 31.473398 -10.961879
-18.20051 32.704082 -11.642625
-35.810387 26.319923 -2.500782
-36.091797 26.80546 -1.155714
-35.346527 28.870981 -0.436004
-34.425079 30.933638 0.395592
-35.104435 29.319714 3.168843
-33.365955 32.998016 1.300441
-34.928329 27.466858 -3.299495
-33.82119 28.884066 -4.077179
-32.663857 30.03064 -4.888502
-32.417427 33.524883 -3.11821
-31.409657 31.490988 -5.594223
-28.944378 34.189194 -6.896219
-13.724003 31.004671 -21.839811
-13.57262 32.240467 -23.577852
-13.448875 33.382374 -25.448629
-12.780246 36.62899 -25.876959
-13.296394 34.551006 -27.325846
-13.150291 35.645256 -29.339624
-35.764729 25.111975 -3.142564
-35.623674 24.533878 -3.423905
-26.073929 31.258744 -8.467413
-26.682077 32.205984 -8.222342
-14.216108 36.187191 -16.48834
-14.028105 35.043288 -16.854727
-14.277013 34.315 -16.231499
-30.405926 37.186322 -3.89504
-30.057961 38.462376 -3.594415
-12.713348 39.142392 -22.07515
-12.859664 37.294376 -21.810083
-12.851123 38.590813 -21.272177
-34.011343 25.720192 -4.686373
-34.262851 24.52086 -4.64135
-34.597612 25.298051 -4.281997
-33.77994 26.964385 -4.705802
-33.445179 26.187194 -5.065155
-34.011343 25.720192 -4.686373
-15.846303 38.745901 -14.495806
-16.231625 38.138798 -14.00205
-15.421941 37.410105 -14.746918
-15.846303 38.745901 -14.495806
-29.935788 23.733656 -6.760314
-30.70581 23.142375 -6.42775
-30.538811 24.600841 -6.608067
-29.121372 24.134799 -7.061597
-29.288371 22.676333 -6.881279
-29.935788 23.733656 -6.760314
-15.94183 23.443914 -12.470446
-16.248843 22.895669 -12.050409
-16.158182 24.73941 -12.264696
-15.687754 24.074454 -12.965406
-15.94183 23.443914 -12.470446
-14.90052 26.185201 -14.674621
-15.157929 25.352075 -14.091534
-15.015676 27.23277 -14.285323
-14.726405 26.851787 -15.243204
-14.868658 24.971092 -15.049415
-14.90052 26.185201 -14.674621
-13.39951 36.834246 -19.007971
-13.505891 34.919908 -18.684632
-13.587629 36.275272 -18.229074
-13.188372 37.378507 -19.757262
-13.39951 36.834246 -19.007971
-24.154595 21.34635 -8.07711
-24.865246 20.895111 -7.840288
-24.799224 22.51671 -8.085639
-22.749917 18.863204 -8.077658
-22.054589 19.380247 -8.365775
-18.790526 35.859167 -11.766907
-18.24175 34.580821 -11.886758
-18.749285 33.982428 -11.522775
-36.476478 25.963878 -0.718716
-36.317482 25.868288 -1.45656
-35.329197 29.016544 0.391697
-35.767063 28.009199 -0.032741
-35.749733 28.154762 0.79496
-34.919522 29.363042 4.168817
-35.526972 28.31317 3.697106
-33.223873 33.100565 2.242119
-33.822569 32.065222 1.757321
-32.799247 34.027359 1.731069
-33.223873 33.100565 2.242119
-31.697003 33.868883 -4.170361
-31.086253 34.632208 -4.558326
-31.125106 32.802991 -5.412059
-31.735855 32.039666 -5.024093
-30.786031 32.055409 -5.956002
-31.125106 32.802991 -5.412059
-28.764854 35.608225 -6.732727
-29.346303 34.852049 -6.389963
-28.321979 34.917412 -7.204476
-28.764854 35.608225 -6.732727
-12.689162 37.138804 -26.769666
-12.511484 38.210102 -26.039932
-12.420399 38.719915 -26.93264
-12.541293 38.24346 -31.532302
-12.652818 37.781622 -30.505001
-12.272039 39.170891 -30.654325
-12.431127 38.726723 -32.622872
-12.541293 38.24346 -31.532302
-12.009024 40.125675 -32.625203
-12.431127 38.726723 -32.622872
-35.353815 23.842897 -3.780908
-35.049453 22.972897 -4.063617
-35.554147 22.717075 -3.60755
-35.11898 24.789701 -3.879971
-35.353815 23.842897 -3.780908
-35.623674 24.533878 -3.423905
-17.087041 38.852161 -13.371721
-17.575386 40.047713 -13.195402
-25.427199 30.360582 -8.639383
-26.127101 29.638714 -8.366384
-26.073929 31.258744 -8.467413
-24.722744 30.846353 -8.888965
-24.775915 29.226322 -8.787937
-25.427199 30.360582 -8.639383
-24.092312 31.55027 -9.150959
-24.722744 30.846353 -8.888965
-31.84102 24.903835 -6.035858
-32.017978 23.659721 -5.930321
-32.550165 24.553997 -5.690677
-16.815115 25.385665 -11.666116
-16.84527 23.394377 -11.411839
-17.195189 24.588876 -11.233297
-13.830605 35.638206 -17.508651
-13.89151 33.766016 -17.251811
-14.028105 35.043288 -16.854727
-13.587629 36.275272 -18.229074
-13.830605 35.638206 -17.508651
-21.373098 19.937546 -8.640183
-22.054589 19.380247 -8.365775
-22.061707 21.12208 -8.613031
-20.782933 20.403132 -8.912713
-21.373098 19.937546 -8.640183
-20.17554 21.089246 -9.208393
-20.782933 20.403132 -8.912713
-20.772824 22.365493 -9.183118
-19.638602 21.797105 -9.530285
-20.17554 21.089246 -9.208393
-19.595675 23.558929 -9.778757
-19.068845 22.304427 -9.830245
-19.638602 21.797105 -9.530285
-20.972272 34.880572 -10.583892
-20.968969 33.07814 -10.414475
-21.58361 34.213529 -10.271622
-20.430618 35.512842 -10.89216
-20.972272 34.880572 -10.583892
-19.900833 36.270637 -11.230249
-19.827846 34.502978 -11.064834
-20.430618 35.512842 -10.89216
-19.385615 37.002584 -11.585759
-19.900833 36.270637 -11.230249
-35.712429 28.268254 1.719836
-35.749733 28.154762 0.79496
-30.793831 35.936251 -4.267129
-30.944046 36.399493 -3.514669
-30.405926 37.186322 -3.89504
-31.086253 34.632208 -4.558326
-30.793831 35.936251 -4.267129
-12.294593 39.254131 -27.849379
-12.420399 38.719915 -26.93264
-12.187337 39.784349 -28.831705
-12.49082 38.178835 -28.644699
-12.294593 39.254131 -27.849379
-12.056286 40.255964 -29.81992
-12.187337 39.784349 -28.831705
-11.944761 40.717802 -30.847222
-12.272039 39.170891 -30.654325
-12.056286 40.255964 -29.81992
-11.802623 41.137283 -31.821814
-11.944761 40.717802 -30.847222
-34.440632 23.340204 -4.52274
-35.049453 22.972897 -4.063617
-34.440632 23.340204 -4.52274
-34.262851 24.52086 -4.64135
-33.024895 25.370556 -5.420969
-32.550165 24.553997 -5.690677
-32.793492 26.614749 -5.440399
-33.024895 25.370556 -5.420969
-33.445179 26.187194 -5.065155
-16.609106 37.594257 -13.541974
-17.012992 36.94001 -13.101876
-17.087041 38.852161 -13.371721
-16.157576 36.226647 -13.732206
-16.609106 37.594257 -13.541974
-16.231625 38.138798 -14.00205
-15.059663 36.100768 -14.998803
-15.417818 35.461849 -14.444167
-15.421941 37.410105 -14.746918
-14.764401 36.753963 -15.583333
-14.760279 34.805708 -15.280582
-15.059663 36.100768 -14.998803
-14.462931 37.495592 -16.184961
-14.764401 36.753963 -15.583333
-26.198957 23.140507 -7.799622
-26.258178 21.534605 -7.585943
-26.947262 22.609642 -7.536748
-23.481818 32.208676 -9.398899
-23.460967 30.3705 -9.285459
-24.092312 31.55027 -9.150959
-22.822856 32.84538 -9.687162
-23.481818 32.208676 -9.398899
-22.187773 33.536476 -9.971566
-22.21539 31.720002 -9.817801
-22.822856 32.84538 -9.687162
-21.58361 34.213529 -10.271622
-22.187773 33.536476 -9.971566
-32.502628 34.516174 -0.639773
-33.031709 33.422552 -1.037843
-33.009501 33.646483 -0.143647
-32.012748 35.470777 -1.057338
-32.502628 34.516174 -0.639773
-31.522221 36.297033 -1.476405
-32.03431 35.1185 -1.953037
-32.012748 35.470777 -1.057338
-31.098123 37.113979 -1.91281
-31.522221 36.297033 -1.476405
-30.604301 37.966383 -2.298048
-31.049962 36.797159 -2.757342
-31.098123 37.113979 -1.91281
-30.178083 38.791069 -2.729694
-30.604301 37.966383 -2.298048
-30.057961 38.462376 -3.594415
-30.178083 38.791069 -2.729694
-31.476592 22.637458 -6.07846
-32.017978 23.659721 -5.930321
-31.476592 22.637458 -6.07846
-30.70581 23.142375 -6.42775
-28.585252 21.521557 -6.943538
-29.288371 22.676333 -6.881279
-27.740219 22.040608 -7.252816
-28.585252 21.521557 -6.943538
-27.680998 23.64651 -7.466494
-26.947262 22.609642 -7.536748
-27.740219 22.040608 -7.252816
-27.267218 33.170575 -7.958709
-26.682077 32.205984 -8.222342
-27.358973 31.501467 -7.930782
-16.552266 22.229307 -11.596947
-16.84527 23.394377 -11.411839
-16.552266 22.229307 -11.596947
-16.248843 22.895669 -12.050409
-15.398712 24.630448 -13.474158
-15.687754 24.074454 -12.965406
-15.562127 25.84365 -13.193485
-15.398712 24.630448 -13.474158
-15.157929 25.352075 -14.091534
-14.916939 23.838093 -15.417278
-14.868658 24.971092 -15.049415
-14.789331 24.535548 -16.128031
-14.916939 23.838093 -15.417278
-14.633489 25.200486 -16.80547
-14.789331 24.535548 -16.128031
-14.5387 26.302616 -16.295438
-14.525386 25.946875 -17.558625
-14.633489 25.200486 -16.80547
-14.403138 26.576133 -18.313043
-14.525386 25.946875 -17.558625
-14.260611 27.596812 -17.727296
-14.344283 27.197615 -19.162188
-14.403138 26.576133 -18.313043
-14.039047 28.851137 -19.296981
-14.244966 27.822682 -19.977455
-14.344283 27.197615 -19.162188
-13.028206 38.010465 -20.529054
-13.157606 36.11084 -20.235319
-13.188372 37.378507 -19.757262
-12.851123 38.590813 -21.272177
-13.028206 38.010465 -20.529054
-14.216108 36.187191 -16.48834
-14.462931 37.495592 -16.184961
-25.557771 20.311266 -7.57354
-26.258178 21.534605 -7.585943
-25.557771 20.311266 -7.57354
-24.865246 20.895111 -7.840288
-23.481907 20.144766 -8.085191
-24.154595 21.34635 -8.07711
-23.415886 21.766365 -8.330542
-23.481907 20.144766 -8.085191
-22.749917 18.863204 -8.077658
-18.581207 22.852048 -10.157213
-19.068845 22.304427 -9.830245
-18.076512 23.373386 -10.486752
-18.581207 22.852048 -10.157213
-18.521223 24.587589 -10.408255
-17.620936 23.853258 -10.858407
-18.076512 23.373386 -10.486752
-17.590781 25.844546 -11.112684
-17.195189 24.588876 -11.233297
-17.620936 23.853258 -10.858407
-17.804732 35.29759 -12.26903
-17.763492 33.420851 -12.024898
-18.24175 34.580821 -11.886758
-17.886958 37.327737 -12.531257
-17.4087 36.167766 -12.669397
-17.804732 35.29759 -12.26903
-18.790526 35.859167 -11.766907
-19.385615 37.002584 -11.585759
-18.000451 39.237169 -12.752089
-17.886958 37.327737 -12.531257
-17.575386 40.047713 -13.195402
-18.000451 39.237169 -12.752089
-36.176777 25.625519 -2.129094
-35.975502 25.531596 -2.63147
-35.951092 26.562691 -1.828248
-36.176777 25.625519 -2.129094
-36.317482 25.868288 -1.45656
-36.139698 26.976439 -0.392596
-36.476478 25.963878 -0.718716
-35.719162 27.83822 -0.795859
-36.139698 26.976439 -0.392596
-35.767063 28.009199 -0.032741
-35.608713 28.347057 2.694558
-35.526972 28.31317 3.697106
-35.208151 29.24091 2.19412
-35.712429 28.268254 1.719836
-35.608713 28.347057 2.694558
-34.475966 30.377876 3.708219
-34.919522 29.363042 4.168817
-34.691809 30.226071 2.691522
-34.475966 30.377876 3.708219
-34.795524 30.147268 1.7168
-35.208151 29.24091 2.19412
-34.691809 30.226071 2.691522
-34.352131 31.033033 1.304897
-34.868473 30.047872 0.807495
-34.795524 30.147268 1.7168
-33.895517 31.965827 0.848016
-34.352131 31.033033 1.304897
-33.822569 32.065222 1.757321
-32.923187 33.869061 0.777432
-33.009501 33.646483 -0.143647
-33.452269 32.775438 0.379362
-32.923187 33.869061 0.777432
-32.799247 34.027359 1.731069
-35.599614 25.900303 -3.011875
-35.764729 25.111975 -3.142564
-35.975502 25.531596 -2.63147
-32.239741 33.056614 -3.786086
-31.874689 34.337153 -3.502484
-31.697003 33.868883 -4.170361
-32.610369 31.923648 -4.053764
-32.788055 32.391917 -3.385888
-32.239741 33.056614 -3.786086
-32.362955 31.309492 -4.671233
-32.911271 30.644796 -4.271034
-32.610369 31.923648 -4.053764
-32.036757 30.760814 -5.241363
-32.362955 31.309492 -4.671233
-31.735855 32.039666 -5.024093
-30.4013 31.210265 -6.388902
-31.024926 30.645844 -6.027123
-30.786031 32.055409 -5.956002
-29.6923 31.832771 -6.718797
-29.931195 30.423206 -6.789918
-30.4013 31.210265 -6.388902
-29.553392 33.404512 -6.607
-29.346303 34.852049 -6.389963
-29.083286 32.617453 -7.008017
-29.6923 31.832771 -6.718797
-29.553392 33.404512 -6.607
-27.821846 34.055843 -7.589942
-28.444246 33.327625 -7.281685
-28.321979 34.917412 -7.204476
-27.267218 33.170575 -7.958709
-27.821846 34.055843 -7.589942
-14.18591 28.50681 -20.843792
-14.244966 27.822682 -19.977455
-14.078046 29.271043 -21.707574
-14.18591 28.50681 -20.843792
-13.831867 30.240437 -20.976029
-14.018937 29.957345 -22.569938
-14.078046 29.271043 -21.707574
-13.943246 30.575243 -23.438959
-14.018937 29.957345 -22.569938
-13.648312 31.622569 -22.708832
-13.919328 31.152385 -24.391492
-13.943246 30.575243 -23.438959
-13.857455 31.723338 -25.326881
-13.919328 31.152385 -24.391492
-13.510748 32.81142 -24.513241
-13.801932 32.388794 -26.323791
-13.857455 31.723338 -25.326881
-12.554752 39.546015 -22.878331
-12.713348 39.142392 -22.07515
-12.589144 38.408043 -23.509691
-12.554752 39.546015 -22.878331
-12.72177 37.188511 -24.15556
-12.854515 36.626423 -23.258926
-12.589144 38.408043 -23.509691
-12.618322 37.79956 -25.141642
-12.511484 38.210102 -26.039932
-12.883694 36.017941 -24.890877
-12.72177 37.188511 -24.15556
-12.618322 37.79956 -25.141642
-13.725691 32.97311 -27.2624
-13.801932 32.388794 -26.323791
-13.372635 33.96669 -26.387237
-13.635108 33.670786 -28.223802
-13.725691 32.97311 -27.2624
-13.562057 34.217911 -29.230691
-13.635108 33.670786 -28.223802
-13.223342 35.098131 -28.332735
-13.499986 34.813704 -30.372857
-13.562057 34.217911 -29.230691
-13.036181 36.249724 -30.3613
-12.766927 37.177155 -29.483324
-12.652818 37.781622 -30.505001
-13.499986 34.813704 -30.372857
-13.036181 36.249724 -30.3613
-12.009024 40.125675 -32.625203
-11.802623 41.137283 -31.821814
3 109 28 110
3 112 111 29
3 0 33 31
3 0 35 33
3 1 38 36
3 2 41 39
3 2 43 41
3 2 113 115
3 115 114 43
3 113 114 115
3 3 47 45
3 3 48 47
3 3 50 48
3 4 54 52
3 117 116 55
3 118 59 119
3 120 119 57
3 118 119 120
3 5 121 123
3 123 122 27
3 121 122 123
3 5 124 126
3 124 61 125
3 124 125 126
3 6 64 62
3 127 65 128
3 130 129 65
3 8 68 66
3 10 69 30
3 10 70 69
3 10 72 70
3 13 131 133
3 133 132 32
3 131 132 133
3 13 134 136
3 134 74 135
3 134 135 136
3 13 75 74
3 14 76 34
3 14 77 76
3 15 137 139
3 139 138 37
3 137 138 139
3 15 140 141
3 7 78 63
3 16 79 40
3 16 142 144
3 144 143 79
3 142 143 144
3 16 145 147
3 145 80 146
3 145 146 147
3 17 81 42
3 17 82 81
3 17 84 82
3 148 85 149
3 150 149 44
3 148 149 150
3 152 151 85
3 9 153 155
3 155 154 67
3 153 154 155
3 157 156 46
3 19 86 49
3 19 87 86
3 11 88 71
3 20 89 51
3 20 90 89
3 20 158 160
3 160 159 90
3 158 159 160
3 161 92 162
3 22 163 165
3 163 93 164
3 163 164 165
3 22 94 93
3 166 95 167
3 168 96 169
3 171 170 96
3 21 97 91
3 23 98 53
3 23 99 98
3 12 100 73
3 173 172 56
3 174 101 175
3 177 176 101
3 178 102 179
3 181 180 102
3 18 103 83
3 24 104 58
3 24 105 104
3 25 182 184
3 182 106 183
3 182 183 184
3 25 107 106
3 25 108 107
3 26 185 187
3 187 186 60
3 185 186 187
3 26 188 189
3 26 190 191
3 192 27 193
3 192 193 194
3 28 195 197
3 195 27 196
3 195 196 197
3 28 5 27
3 199 198 6
3 29 30 8
3 200 30 201
3 202 201 29
3 200 201 202
3 203 10 204
3 205 204 30
3 203 204 205
3 207 206 10
3 31 208 210
3 208 32 209
3 208 209 210
3 33 32 31
3 33 13 32
3 33 34 13
3 35 34 33
3 35 14 34
3 36 211 213
3 211 37 212
3 211 212 213
3 38 37 36
3 38 15 37
3 39 40 7
3 41 40 39
3 41 16 40
3 41 42 16
3 43 42 41
3 43 17 42
3 43 44 17
3 214 44 215
3 216 215 43
3 214 215 216
3 218 217 44
3 45 46 9
3 47 46 45
3 47 219 221
3 221 220 46
3 219 220 221
3 47 222 223
3 48 224 226
3 226 225 47
3 224 225 226
3 48 227 228
3 48 229 231
3 229 49 230
3 229 230 231
3 50 49 48
3 50 19 49
3 232 51 233
3 234 233 11
3 232 233 234
3 235 51 236
3 237 20 238
3 239 238 51
3 237 238 239
3 241 240 20
3 242 22 243
3 52 53 21
3 54 53 52
3 54 23 53
3 55 56 12
3 244 56 245
3 246 245 55
3 244 245 246
3 248 247 56
3 57 58 18
3 59 58 57
3 59 24 58
3 249 25 250
3 251 60 252
3 253 252 25
3 251 252 253
3 254 60 255
3 256 26 257
3 258 257 60
3 256 257 258
3 260 259 26
3 27 261 262
3 264 263 27
3 265 31 266
3 61 267 269
3 267 31 268
3 267 268 269
3 61 0 31
3 62 63 1
3 64 63 62
3 64 7 63
3 270 64 271
3 272 271 6
3 270 271 272
3 65 273 275
3 273 64 274
3 273 274 275
3 65 7 64
3 65 39 7
3 276 39 277
3 278 277 65
3 276 277 278
3 279 2 280
3 281 280 39
3 279 280 281
3 283 282 2
3 66 284 286
3 284 67 285
3 284 285 286
3 68 67 66
3 68 9 67
3 30 68 8
3 69 68 30
3 69 9 68
3 69 45 9
3 70 45 69
3 70 3 45
3 70 71 3
3 72 71 70
3 72 11 71
3 287 72 288
3 289 288 10
3 287 288 289
3 290 72 291
3 292 11 293
3 294 293 72
3 292 293 294
3 296 295 11
3 297 73 298
3 299 298 4
3 297 298 299
3 300 73 301
3 302 12 303
3 304 303 73
3 302 303 304
3 305 12 306
3 307 55 308
3 309 308 12
3 307 308 309
3 310 55 311
3 313 312 55
3 32 314 315
3 317 316 32
3 74 318 319
3 74 320 321
3 74 322 324
3 322 66 323
3 322 323 324
3 75 66 74
3 75 8 66
3 34 75 13
3 76 75 34
3 76 8 75
3 76 29 8
3 77 29 76
3 77 325 327
3 327 326 29
3 325 326 327
3 37 328 329
3 331 330 37
3 63 38 1
3 78 38 63
3 78 15 38
3 40 78 7
3 79 78 40
3 79 15 78
3 79 332 334
3 334 333 15
3 332 333 334
3 336 335 79
3 80 337 338
3 80 339 340
3 42 80 16
3 81 80 42
3 81 341 343
3 343 342 80
3 341 342 343
3 81 344 345
3 82 346 348
3 348 347 81
3 346 347 348
3 82 349 350
3 82 351 353
3 351 83 352
3 351 352 353
3 84 83 82
3 84 18 83
3 44 84 17
3 85 84 44
3 85 18 84
3 85 57 18
3 354 57 355
3 356 355 85
3 354 355 356
3 358 357 57
3 360 359 2
3 67 361 362
3 364 363 67
3 46 365 367
3 367 366 9
3 365 366 367
3 369 368 46
3 49 370 371
3 86 372 374
3 374 373 49
3 372 373 374
3 86 375 376
3 86 377 379
3 377 36 378
3 377 378 379
3 87 36 86
3 87 1 36
3 71 50 3
3 88 50 71
3 88 19 50
3 51 88 11
3 89 88 51
3 89 19 88
3 89 87 19
3 90 87 89
3 90 1 87
3 90 62 1
3 380 62 381
3 382 381 90
3 380 381 382
3 383 6 384
3 385 384 62
3 383 384 385
3 387 386 20
3 388 6 389
3 391 390 6
3 392 91 393
3 92 394 396
3 394 91 395
3 394 395 396
3 92 21 91
3 397 92 398
3 93 399 401
3 399 92 400
3 399 400 401
3 93 21 92
3 93 52 21
3 94 52 93
3 94 4 52
3 95 402 403
3 95 404 406
3 404 22 405
3 404 405 406
3 407 95 408
3 409 95 410
3 411 22 412
3 413 412 95
3 411 412 413
3 414 94 415
3 416 415 22
3 414 415 416
3 96 417 419
3 417 94 418
3 417 418 419
3 96 4 94
3 96 420 422
3 422 421 4
3 420 421 422
3 424 423 96
3 91 425 427
3 425 28 426
3 425 426 427
3 97 28 91
3 97 5 28
3 53 97 21
3 98 97 53
3 98 5 97
3 98 61 5
3 99 61 98
3 99 0 61
3 73 54 4
3 100 54 73
3 100 23 54
3 56 100 12
3 428 100 429
3 430 429 56
3 428 429 430
3 431 23 432
3 433 432 100
3 431 432 433
3 434 99 435
3 436 435 23
3 434 435 436
3 101 437 439
3 437 99 438
3 437 438 439
3 101 0 99
3 101 35 0
3 440 35 441
3 442 441 101
3 440 441 442
3 443 14 444
3 445 444 35
3 443 444 445
3 102 446 447
3 102 448 450
3 448 14 449
3 448 449 450
3 102 77 14
3 451 77 452
3 453 452 102
3 451 452 453
3 455 454 77
3 83 456 457
3 103 458 460
3 460 459 83
3 458 459 460
3 103 461 462
3 58 103 18
3 104 103 58
3 104 463 465
3 465 464 103
3 463 464 465
3 104 466 467
3 105 468 470
3 470 469 104
3 468 469 470
3 105 471 472
3 473 59 474
3 475 59 476
3 477 24 478
3 479 478 59
3 477 478 479
3 106 480 481
3 106 482 484
3 482 24 483
3 482 483 484
3 106 105 24
3 107 105 106
3 107 485 487
3 487 486 105
3 485 486 487
3 107 488 489
3 108 490 492
3 492 491 107
3 490 491 492
3 108 493 494
3 60 108 25
3 495 108 496
3 497 496 60
3 495 496 497
3 499 498 108
3 501 500 26
