ply
format ascii 1.0
element vertex 399
property float x
property float y
property float z
element face 379
property list uchar int vertex_index
end_header
7.079351 53.219219 -43.752502
13.616772 63.721127 -29.478897
18.19656 53.280712 -17.263811
22.180426 50.754559 -12.457651
14.636176 53.064007 -22.716206
11.195627 47.344051 -37.70937
10.028214 59.508213 -36.381958
12.320109 50.849705 -29.577995
20.22164 52.321171 -14.792441
18.133541 59.228004 -19.883966
9.951637 65.919197 -36.484711
11.725621 61.951031 -32.902924
11.44636 55.403679 -32.980465
12.78918 57.141319 -29.257292
15.74374 64.860641 -26.065336
14.371665 58.862766 -26.065094
16.239489 59.5797 -22.878349
16.312969 53.503117 -19.834763
9.456373 50.518021 -40.802959
8.445346 47.990509 -45.073193
7.898922 63.009655 -39.753983
8.444037 56.622944 -40.077496
10.353768 53.217663 -36.809429
11.673503 49.071606 -33.52227
13.305892 52.13522 -25.936878
6.41874 51.620022 -45.534763
14.164993 66.81144 -29.455788
13.066776 66.201965 -31.202488
12.013418 65.333847 -32.907845
12.64622 63.140968 -31.237436
12.331841 59.79958 -31.124735
13.137113 60.561111 -29.457836
21.20487 51.486485 -13.590063
20.123447 48.835987 -13.790211
21.206051 48.044014 -12.649862
22.258392 47.512661 -11.642811
16.071316 62.239033 -24.396055
17.105888 62.588253 -22.8846
18.242468 56.297394 -18.46217
17.229429 56.566132 -19.915546
10.410015 48.865124 -39.333252
10.025327 47.871605 -41.544857
11.017369 46.19891 -40.058113
24.288727 45.724792 -9.540741
25.20896 44.752117 -8.517473
9.939366 62.668015 -36.457111
8.904675 64.59153 -38.128277
9.059925 61.293629 -38.092312
8.221128 59.709839 -39.742191
9.297739 57.983368 -38.091148
9.475037 55.008862 -38.461536
10.143378 56.411709 -36.50338
11.940031 53.053131 -31.266325
11.513338 52.152477 -33.057381
11.971468 49.855591 -31.454344
12.158311 46.828617 -31.764126
14.530756 56.009827 -24.395248
13.796035 55.35516 -25.859201
13.933605 52.487541 -24.181986
19.274225 55.957729 -17.104431
19.195576 52.60083 -15.918395
20.250637 55.406349 -15.817501
18.087669 62.308872 -21.302843
19.118572 62.019691 -19.743494
19.175457 59.066166 -18.465439
11.909719 45.354458 -36.201923
11.103275 67.373039 -34.740124
10.985349 64.161018 -34.621441
10.821195 60.839413 -34.704174
10.80908 57.405235 -34.716103
11.515157 58.637833 -32.950748
12.083695 56.507374 -31.136007
12.479255 54.114399 -29.418653
19.125355 49.364151 -14.855288
14.669551 64.575035 -27.821325
14.066859 61.309525 -27.727379
15.066796 61.957108 -26.045341
15.245916 59.124676 -24.425308
15.393492 56.284443 -22.760935
17.190121 59.602352 -21.389267
16.315296 56.561348 -21.286615
8.337428 52.025585 -42.27478
7.8072 50.463821 -44.219887
8.971174 49.22678 -42.94849
9.695312 46.759819 -43.682739
23.297346 46.77972 -10.604115
6.521947 56.192669 -43.293571
7.276873 58.207897 -41.574951
7.778971 55.030754 -41.817986
8.90604 53.456989 -40.363434
9.912557 51.878822 -38.724007
10.723694 50.148697 -37.169743
10.911545 54.373573 -34.748657
11.093639 51.336597 -35.036572
11.414926 48.254848 -35.605137
12.010753 46.119595 -33.988762
13.513748 57.972019 -27.653648
13.123526 54.824585 -27.536762
12.774565 51.494774 -27.685867
13.404604 49.231842 -24.400188
12.960763 48.701199 -26.068371
12.605118 48.210068 -27.880659
6.749045 52.419621 -44.643632
6.063328 53.069769 -45.266886
6.393633 53.869368 -44.375755
18.172629 51.578671 -16.631778
17.679797 51.777405 -17.263184
17.477217 63.97981 -22.907191
16.943651 63.946554 -23.717495
17.715367 53.410017 -17.905292
17.738321 54.918358 -18.504471
18.219514 54.789053 -17.862991
17.679797 51.777405 -17.263184
17.715367 53.410017 -17.905292
25.532308 45.921686 -8.123592
25.12156 46.407795 -8.718768
12.331102 49.258307 -29.650294
12.156782 48.761249 -30.588468
12.145789 50.352648 -30.51617
20.244304 57.060562 -16.421122
19.762431 55.682039 -16.460966
19.756098 57.336252 -17.064588
19.540599 63.436477 -19.684006
19.015121 63.590065 -20.508269
19.706713 58.890471 -17.745092
19.663691 60.398218 -18.351025
19.756098 57.336252 -17.064588
19.224841 57.511948 -17.784935
19.706713 58.890471 -17.745092
12.257807 43.953049 -36.514764
12.210925 44.332796 -35.364086
11.670019 67.833119 -33.882338
11.172563 68.976128 -34.776987
19.532595 47.297154 -13.83233
20.090905 47.051607 -13.313681
15.518363 66.247268 -26.945894
16.052313 66.374966 -26.130599
15.206646 64.717838 -26.943331
14.981269 66.104466 -27.823889
15.518363 66.247268 -26.945894
15.869293 53.410027 -20.534864
15.870456 54.939142 -21.26079
16.314132 55.032233 -20.560689
15.857985 51.865138 -19.822249
15.869293 53.410027 -20.534864
10.224934 46.084749 -42.996759
9.860319 47.315712 -42.613798
10.389942 46.640642 -41.927819
10.141976 45.549335 -44.151579
10.224934 46.084749 -42.996759
23.713227 47.898825 -10.361626
23.249395 48.499 -10.961669
23.827241 44.422234 -9.749917
24.371737 43.998169 -9.274417
6.242232 57.782972 -43.179546
5.769505 56.809969 -44.009483
9.377267 66.894241 -37.328369
10.018496 67.56147 -36.440832
7.793249 64.590693 -39.751194
8.296125 65.38163 -38.938341
8.401798 63.800593 -38.94113
7.201121 63.68846 -40.601349
7.793249 64.590693 -39.751194
7.423761 62.108229 -40.562048
7.201121 63.68846 -40.601349
12.345301 45.252985 -32.030779
12.35211 45.557941 -30.967936
13.462263 47.884756 -23.620471
13.70033 49.452933 -23.544355
12.876895 47.146599 -26.242576
13.023442 47.397683 -25.347009
12.699072 46.901033 -27.148719
12.78294 48.455634 -26.974515
12.876895 47.146599 -26.242576
12.606404 46.620306 -28.101466
12.699072 46.901033 -27.148719
7.780111 48.551182 -45.656632
7.461038 49.787838 -45.229979
8.126273 49.227165 -44.64654
5.709903 52.004441 -46.139579
6.063328 53.069769 -45.266886
6.048412 50.739991 -46.489214
5.709903 52.004441 -46.139579
13.791513 68.053895 -30.383598
14.372277 68.433625 -29.552551
13.242404 67.749157 -31.256949
13.791513 68.053895 -30.383598
13.615884 66.506703 -30.329138
12.651769 67.247581 -32.11352
13.242404 67.749157 -31.256949
12.540097 65.767906 -32.055166
12.12509 66.813523 -32.966198
12.651769 67.247581 -32.11352
20.632207 46.65562 -12.743507
20.090905 47.051607 -13.313681
20.664749 48.44 -13.220036
21.206816 46.346714 -12.237622
20.632207 46.65562 -12.743507
21.732987 46.081038 -11.734096
21.206816 46.346714 -12.237622
21.732222 47.778337 -12.146337
22.264231 45.665844 -11.261585
21.732987 46.081038 -11.734096
16.262577 65.082748 -25.307863
16.052313 66.374966 -26.130599
16.426365 63.771944 -24.473222
15.907528 63.549837 -25.230695
16.262577 65.082748 -25.307863
16.588602 62.413643 -23.640327
16.426365 63.771944 -24.473222
16.943651 63.946554 -23.717495
17.231802 55.052727 -19.231159
17.735948 56.431763 -19.188858
17.738321 54.918358 -18.504471
16.773572 53.52122 -19.190767
16.771199 55.034625 -19.875155
17.231802 55.052727 -19.231159
16.260927 51.916314 -19.19573
16.773572 53.52122 -19.190767
10.885963 45.804294 -41.184446
10.389942 46.640642 -41.927819
10.521348 47.035258 -40.801485
24.661443 46.894132 -9.230402
24.208917 47.371361 -9.82994
24.748843 45.238455 -9.029107
24.661443 46.894132 -9.230402
25.12156 46.407795 -8.718768
24.831853 43.511831 -8.762783
24.371737 43.998169 -9.274417
24.748843 45.238455 -9.029107
12.250203 47.247763 -30.74336
12.064889 48.342104 -31.609235
12.156782 48.761249 -30.588468
12.35211 45.557941 -30.967936
12.250203 47.247763 -30.74336
8.18823 47.304707 -46.144138
8.896628 46.807167 -45.462126
20.73556 56.77568 -15.722786
20.244304 57.060562 -16.421122
20.766029 55.14187 -15.17174
20.73556 56.77568 -15.722786
20.75153 53.599282 -14.659209
20.236139 53.86376 -15.304971
20.766029 55.14187 -15.17174
21.243145 53.181939 -14.058021
20.713255 51.903828 -14.191252
20.75153 53.599282 -14.659209
21.68467 52.799885 -13.462448
21.243145 53.181939 -14.058021
22.172449 52.433922 -12.896242
21.692648 51.120522 -13.023857
21.68467 52.799885 -13.462448
18.49967 63.734656 -21.287944
17.968107 63.84012 -22.116313
18.603121 62.164282 -20.523168
18.49967 63.734656 -21.287944
19.015121 63.590065 -20.508269
19.635248 61.87498 -18.990053
19.540599 63.436477 -19.684006
19.147015 60.542929 -19.104467
19.635248 61.87498 -18.990053
19.663691 60.398218 -18.351025
11.886688 44.947319 -37.284153
11.529642 45.942115 -38.037876
11.552673 46.349255 -36.955647
11.886688 44.947319 -37.284153
12.257807 43.953049 -36.514764
10.594314 68.288391 -35.568539
11.172563 68.976128 -34.776987
10.527456 66.646118 -35.612417
10.018496 67.56147 -36.440832
10.594314 68.288391 -35.568539
11.558346 66.353443 -33.823985
11.670019 67.833119 -33.882338
12.12509 66.813523 -32.966198
14.316116 51.369015 -22.702364
14.655686 51.569607 -21.947707
18.672137 51.23873 -15.95907
18.172629 51.578671 -16.631778
18.696068 52.940771 -16.591103
18.637027 49.62039 -15.427516
18.672137 51.23873 -15.95907
19.160466 50.98249 -15.386841
18.547518 47.841603 -14.891485
18.637027 49.62039 -15.427516
19.033549 47.561235 -14.364868
19.624401 49.100069 -14.32275
19.532595 47.297154 -13.83233
18.547518 47.841603 -14.891485
19.033549 47.561235 -14.364868
14.72899 67.222668 -28.64112
14.372277 68.433625 -29.552551
14.417272 65.693238 -28.638556
14.72899 67.222668 -28.64112
14.981269 66.104466 -27.823889
17.596778 62.448563 -22.093722
17.477217 63.97981 -22.907191
17.968107 63.84012 -22.116313
15.409555 54.80069 -21.99795
15.854394 56.422896 -22.023775
15.870456 54.939142 -21.26079
15.030897 53.190472 -21.975585
15.014834 54.674225 -22.738571
15.409555 54.80069 -21.99795
14.655686 51.569607 -21.947707
15.030897 53.190472 -21.975585
15.857985 51.865138 -19.822249
16.260927 51.916314 -19.19573
9.521611 46.191822 -44.766899
8.896628 46.807167 -45.462126
9.070329 47.375164 -44.377966
9.521611 46.191822 -44.766899
10.141976 45.549335 -44.151579
11.440513 45.369545 -39.212248
11.106498 46.77148 -38.883741
11.529642 45.942115 -38.037876
11.386346 45.017589 -40.409488
11.440513 45.369545 -39.212248
10.885963 45.804294 -41.184446
11.386346 45.017589 -40.409488
22.642569 52.067083 -12.262646
22.172449 52.433922 -12.896242
22.690935 50.48642 -11.888437
22.642569 52.067083 -12.262646
22.729917 48.865471 -11.481017
22.219409 49.13361 -12.050231
22.690935 50.48642 -11.888437
22.777869 47.146191 -11.123463
22.729917 48.865471 -11.481017
23.249395 48.499 -10.961669
22.783707 45.299374 -10.742237
22.264231 45.665844 -11.261585
22.777869 47.146191 -11.123463
23.793036 46.252256 -10.072428
23.713227 47.898825 -10.361626
24.208917 47.371361 -9.82994
23.33155 44.949697 -10.281604
23.793036 46.252256 -10.072428
23.827241 44.422234 -9.749917
22.783707 45.299374 -10.742237
23.33155 44.949697 -10.281604
25.684998 44.314138 -7.945336
25.532308 45.921686 -8.123592
25.340542 43.148016 -8.29625
25.684998 44.314138 -7.945336
24.831853 43.511831 -8.762783
25.340542 43.148016 -8.29625
6.114931 55.356093 -44.14629
5.769505 56.809969 -44.009483
6.800649 54.705944 -43.523037
6.393633 53.869368 -44.375755
6.114931 55.356093 -44.14629
8.853786 66.230408 -38.150152
9.377267 66.894241 -37.328369
9.428156 65.255364 -37.306494
8.853786 66.230408 -38.150152
8.296125 65.38163 -38.938341
7.584863 60.45832 -40.556152
7.423761 62.108229 -40.562048
8.060025 61.359747 -39.748087
7.112736 59.70735 -41.472532
7.584863 60.45832 -40.556152
7.749001 58.958868 -40.658571
6.619695 58.790587 -42.320236
7.112736 59.70735 -41.472532
6.89941 57.200283 -42.434261
6.242232 57.782972 -43.179546
6.619695 58.790587 -42.320236
12.261442 44.715364 -34.257506
12.210925 44.332796 -35.364086
11.960236 45.737026 -35.095343
12.271521 44.898474 -33.143097
12.084532 46.474106 -32.876444
12.345301 45.252985 -32.030779
12.261442 44.715364 -34.257506
12.271521 44.898474 -33.143097
13.96483 51.080782 -23.435254
14.28489 52.775774 -23.449096
14.316116 51.369015 -22.702364
13.669104 50.859691 -24.291087
13.96483 51.080782 -23.435254
13.70033 49.452933 -23.544355
13.245362 47.663004 -24.512918
13.462263 47.884756 -23.620471
13.182683 48.966521 -25.234279
13.245362 47.663004 -24.512918
13.023442 47.397683 -25.347009
12.473606 47.938488 -28.801626
12.331102 49.258307 -29.650294
12.462613 49.529887 -28.729327
12.473606 47.938488 -28.801626
12.606404 46.620306 -28.101466
6.766808 50.365938 -45.887417
7.11297 51.041922 -44.877325
7.461038 49.787838 -45.229979
6.048412 50.739991 -46.489214
6.766808 50.365938 -45.887417
7.780111 48.551182 -45.656632
8.18823 47.304707 -46.144138
3 0 102 104
3 102 25 103
3 102 103 104
3 1 27 26
3 1 29 27
3 1 31 29
3 2 105 106
3 3 34 32
3 3 35 34
3 107 37 108
3 2 109 111
3 111 110 38
3 109 110 111
3 2 112 113
3 5 42 40
3 114 44 115
3 6 47 45
3 6 49 47
3 6 51 49
3 7 54 52
3 7 116 118
3 118 117 54
3 116 117 118
3 4 58 56
3 119 61 120
3 121 120 59
3 119 120 121
3 122 63 123
3 124 64 125
3 126 59 127
3 128 127 64
3 126 127 128
3 130 129 65
3 131 66 132
3 11 67 28
3 11 68 67
3 11 70 68
3 13 71 30
3 13 72 71
3 8 73 60
3 134 133 33
3 14 135 136
3 14 137 139
3 137 74 138
3 137 138 139
3 14 76 74
3 16 77 36
3 16 78 77
3 9 79 62
3 17 80 39
3 17 140 142
3 142 141 80
3 140 141 142
3 17 143 144
3 18 83 81
3 145 84 146
3 147 146 41
3 145 146 147
3 149 148 84
3 150 85 151
3 153 152 43
3 154 86 155
3 10 156 157
3 20 158 160
3 160 159 46
3 158 159 160
3 20 161 162
3 20 163 164
3 21 87 48
3 21 88 87
3 21 89 88
3 22 90 50
3 22 91 90
3 12 92 69
3 23 93 53
3 23 94 93
3 23 95 94
3 166 165 55
3 15 96 75
3 24 97 57
3 24 98 97
3 167 99 168
3 169 100 170
3 171 101 172
3 173 172 100
3 171 172 173
3 175 174 101
3 19 176 178
3 178 177 82
3 176 177 178
3 25 179 180
3 25 181 182
3 26 183 184
3 27 185 187
3 187 186 26
3 185 186 187
3 27 188 189
3 27 190 192
3 190 28 191
3 190 191 192
3 29 28 27
3 29 11 28
3 29 30 11
3 31 30 29
3 31 13 30
3 32 33 8
3 34 33 32
3 34 193 195
3 195 194 33
3 193 194 195
3 34 196 197
3 35 198 200
3 200 199 34
3 198 199 200
3 35 201 202
3 203 14 204
3 205 36 206
3 207 206 14
3 205 206 207
3 37 208 210
3 208 36 209
3 208 209 210
3 37 16 36
3 38 39 9
3 211 39 212
3 213 212 38
3 211 212 213
3 214 17 215
3 216 215 39
3 214 215 216
3 218 217 17
3 40 41 18
3 42 41 40
3 42 219 221
3 221 220 41
3 219 220 221
3 222 43 223
3 44 224 226
3 224 43 225
3 224 225 226
3 44 227 229
3 229 228 43
3 227 228 229
3 45 46 10
3 47 46 45
3 47 20 46
3 47 48 20
3 49 48 47
3 49 21 48
3 49 50 21
3 51 50 49
3 51 22 50
3 52 53 12
3 54 53 52
3 54 23 53
3 54 55 23
3 230 55 231
3 232 231 54
3 230 231 232
3 234 233 55
3 56 57 15
3 58 57 56
3 58 24 57
3 236 235 19
3 59 60 2
3 61 60 59
3 61 8 60
3 237 61 238
3 239 61 240
3 241 8 242
3 243 242 61
3 241 242 243
3 244 32 245
3 246 245 8
3 244 245 246
3 247 32 248
3 249 3 250
3 251 250 32
3 249 250 251
3 252 62 253
3 63 254 256
3 254 62 255
3 254 255 256
3 63 9 62
3 257 63 258
3 64 259 261
3 259 63 260
3 259 260 261
3 64 9 63
3 64 38 9
3 59 38 64
3 59 2 38
3 65 262 264
3 264 263 5
3 262 263 264
3 266 265 65
3 66 267 268
3 66 269 271
3 269 10 270
3 269 270 271
3 28 272 274
3 272 66 273
3 272 273 274
3 67 66 28
3 67 10 66
3 67 45 10
3 68 45 67
3 68 6 45
3 68 69 6
3 70 69 68
3 70 12 69
3 30 70 11
3 71 70 30
3 71 12 70
3 71 52 12
3 72 52 71
3 72 7 52
3 276 275 4
3 60 277 279
3 279 278 2
3 277 278 279
3 73 280 282
3 282 281 60
3 280 281 282
3 73 283 284
3 33 73 8
3 285 73 286
3 287 286 33
3 285 286 287
3 289 288 73
3 290 26 291
3 74 292 294
3 292 26 293
3 292 293 294
3 74 1 26
3 74 75 1
3 76 75 74
3 76 15 75
3 36 76 14
3 77 76 36
3 77 15 76
3 77 56 15
3 78 56 77
3 78 4 56
3 62 295 297
3 295 37 296
3 295 296 297
3 79 37 62
3 79 16 37
3 39 79 9
3 80 79 39
3 80 16 79
3 80 78 16
3 298 78 299
3 300 299 80
3 298 299 300
3 301 4 302
3 303 302 78
3 301 302 303
3 305 304 4
3 307 306 17
3 81 82 0
3 83 82 81
3 83 19 82
3 41 83 18
3 84 83 41
3 84 19 83
3 84 308 310
3 310 309 19
3 308 309 310
3 312 311 84
3 313 42 314
3 315 314 5
3 313 314 315
3 316 42 317
3 319 318 42
3 320 3 321
3 322 3 323
3 324 35 325
3 326 325 3
3 324 325 326
3 85 327 329
3 327 35 328
3 327 328 329
3 85 330 332
3 332 331 35
3 330 331 332
3 43 333 335
3 333 85 334
3 333 334 335
3 336 85 337
3 338 337 43
3 336 337 338
3 340 339 85
3 341 44 342
3 343 44 344
3 346 345 44
3 86 347 348
3 86 349 351
3 349 0 350
3 349 350 351
3 46 352 354
3 354 353 10
3 352 353 354
3 356 355 46
3 48 357 359
3 359 358 20
3 357 358 359
3 87 360 362
3 362 361 48
3 360 361 362
3 87 363 364
3 87 365 367
3 365 86 366
3 365 366 367
3 88 86 87
3 88 0 86
3 88 81 0
3 89 81 88
3 89 18 81
3 50 89 21
3 90 89 50
3 90 18 89
3 90 40 18
3 91 40 90
3 91 5 40
3 69 51 6
3 92 51 69
3 92 22 51
3 53 92 12
3 93 92 53
3 93 22 92
3 93 91 22
3 94 91 93
3 94 5 91
3 94 65 5
3 95 65 94
3 95 368 370
3 370 369 65
3 368 369 370
3 55 95 23
3 371 95 372
3 373 372 55
3 371 372 373
3 375 374 95
3 75 31 1
3 96 31 75
3 96 13 31
3 57 96 15
3 97 96 57
3 97 13 96
3 97 72 13
3 98 72 97
3 98 7 72
3 376 58 377
3 378 377 4
3 376 377 378
3 99 379 381
3 379 58 380
3 379 380 381
3 99 24 58
3 382 99 383
3 100 384 386
3 384 99 385
3 384 385 386
3 100 24 99
3 100 98 24
3 101 98 100
3 101 7 98
3 101 387 389
3 389 388 7
3 387 388 389
3 391 390 101
3 82 25 0
3 392 25 393
3 394 393 82
3 392 393 394
3 396 395 25
3 398 397 19
