ply
format ascii 1.0
element vertex 482
property float x
property float y
property float z
element face 398
property list uchar int vertex_index
end_header
12.205852 10.191476 -49.308628
8.549442 17.861589 -53.331398
5.645975 4.802898 -52.962078
-12.573693 32.623173 -62.722458
0.175067 31.792046 -59.156464
4.98809 25.594818 -56.8479
6.7998 -14.450503 -44.830227
10.299594 3.128083 -48.547523
8.410895 6.872886 -51.02364
6.900177 0.470856 -50.267921
4.322035 -0.842785 -52.47348
5.644958 -5.180419 -49.38443
-9.004798 31.590166 -64.582909
6.899521 21.844233 -55.137947
10.202336 13.996218 -51.441177
7.036033 11.084787 -53.316692
3.361741 3.880721 -55.516941
-5.706524 32.66906 -62.033184
2.733522 28.807089 -58.312103
7.536543 -9.221066 -46.162868
4.87625 -10.308389 -48.253387
9.447938 -0.345229 -47.994144
8.524849 1.601188 -49.323265
7.772654 -1.41867 -48.871635
6.298481 -2.487044 -49.753838
7.024444 -4.570288 -48.345089
11.296206 12.258819 -50.353428
6.916677 5.723519 -51.972225
7.685506 9.027985 -52.210072
6.301678 8.065756 -53.258484
4.378932 4.198435 -54.243969
3.915229 -3.491765 -51.977757
2.925104 -3.731172 -53.253841
-14.305949 32.703053 -61.365078
-16.169575 31.733356 -62.217945
9.132937 21.422142 -53.372013
5.850888 23.492783 -56.134884
3.869535 27.030762 -57.694962
-1.211174 26.769709 -63.08247
7.923834 -16.070948 -43.237141
9.416011 -15.271606 -42.274487
8.20134 -13.616472 -43.906506
7.077302 -11.839016 -45.544304
6.086854 -9.947802 -47.159149
5.784657 -12.468254 -46.517227
11.259923 6.762343 -48.993984
10.274803 8.564539 -50.12133
9.369485 5.058903 -49.777897
7.713109 3.619294 -50.620079
6.244634 2.613643 -51.620636
4.873053 1.999254 -52.865902
5.549732 -0.241614 -51.311672
4.971897 -3.036054 -50.893799
4.462963 -5.811829 -50.417759
-10.902794 32.170929 -63.934532
-12.658879 31.53684 -64.807098
-10.763557 30.917862 -65.82135
7.042153 16.557693 -54.412102
7.697604 19.969217 -54.291084
6.231363 18.536949 -55.480919
4.541211 22.408895 -57.467926
6.77037 -16.962578 -44.019348
11.05097 17.859024 -51.624115
9.408358 16.113169 -52.402557
9.376012 10.415779 -51.216228
8.536786 12.478694 -52.334209
7.764874 14.336882 -53.363838
6.325387 13.090591 -54.482182
5.08677 12.437549 -55.750576
12.282129 4.805319 -47.789509
11.28095 1.237643 -47.293228
-12.59411 33.488411 -60.651485
-10.877607 33.371216 -61.723644
-9.188635 32.93042 -62.644218
-7.342142 32.189598 -63.275566
-5.643952 31.074911 -63.729546
-4.091657 31.703722 -62.163853
8.35857 23.527534 -54.101761
1.568854 30.521149 -58.698849
1.370395 28.045723 -59.823639
0.224241 29.59638 -60.248619
6.570763 -7.313621 -47.714821
5.313144 -7.810819 -48.726192
4.133622 -8.32791 -49.849243
8.184195 -2.419759 -48.196577
8.610296 -0.88195 -48.43289
9.021837 -1.883038 -47.757831
7.81009 -3.995567 -47.933304
7.398549 -2.994479 -48.608362
8.184195 -2.419759 -48.196577
11.751029 11.225148 -49.831028
12.241072 13.195752 -50.005036
12.695895 12.16208 -49.482636
5.343197 5.941933 -53.667766
5.671048 7.573362 -53.81597
5.973826 6.434327 -53.110281
5.012453 4.500666 -53.603023
4.709675 5.639702 -54.308712
5.343197 5.941933 -53.667766
3.211888 -4.835911 -52.414062
3.420167 -3.611468 -52.615799
3.706951 -4.716207 -51.776021
2.778942 -5.01072 -52.9762
3.211888 -4.835911 -52.414062
-13.492765 32.203038 -63.180059
-14.358893 32.242977 -62.501369
-13.439821 32.663113 -62.043768
-0.593679 32.441769 -59.251272
0.072485 32.993769 -58.538256
-0.517215 31.385143 -59.910983
-0.593679 32.441769 -59.251272
8.84119 19.641866 -53.351706
9.65282 20.657672 -52.931769
9.361073 18.877395 -52.911461
5.67368 26.171567 -56.236973
6.10508 25.120549 -55.880465
5.419489 24.5438 -56.491392
5.098486 27.059261 -56.597437
5.67368 26.171567 -56.236973
4.428812 26.31279 -57.271431
4.539208 27.777234 -57.020967
5.098486 27.059261 -56.597437
5.934504 16.955253 -55.579742
6.636758 17.547321 -54.946511
6.339899 15.965625 -55.045334
4.350009 20.913272 -57.678858
5.002161 21.49453 -56.958603
3.90853 21.917752 -58.226982
4.350009 20.913272 -57.678858
6.824967 -18.142953 -43.628692
7.391444 -17.787041 -43.164299
6.253334 -17.293024 -44.480539
6.824967 -18.142953 -43.628692
10.626653 15.927621 -51.532646
11.56867 16.967683 -51.153954
11.144354 15.03628 -51.062484
4.774634 10.927596 -55.767374
5.369074 11.283349 -55.137675
4.477799 11.939653 -56.437071
4.774634 10.927596 -55.767374
3.111411 4.980405 -56.281597
3.636297 5.243221 -55.597328
2.865154 3.666902 -56.213536
3.111411 4.980405 -56.281597
4.051147 0.297818 -53.250855
4.326656 1.718838 -53.447066
4.597544 0.578234 -52.669691
-17.08101 31.217758 -62.578568
-16.223022 31.270605 -63.359544
-13.606222 31.07549 -65.315017
-12.669846 30.894044 -65.785308
13.358646 5.798509 -47.435862
12.829832 6.681527 -47.993035
11.84459 0.238111 -46.582014
12.358511 2.068102 -46.884459
10.837658 -0.458295 -46.999761
11.84459 0.238111 -46.582014
-12.526501 33.930832 -59.458178
-13.327397 33.486981 -59.869865
-10.072563 33.744442 -61.17472
-10.912561 33.875177 -60.623181
-9.228077 33.524044 -61.635008
-10.033121 33.150818 -62.183931
-10.072563 33.744442 -61.17472
-6.524333 32.429329 -62.654375
-7.39761 32.883133 -62.352846
-6.579801 33.122864 -61.731655
-3.344656 31.074379 -62.152199
-3.425015 32.048587 -61.441628
-4.038312 30.790987 -62.92769
-3.344656 31.074379 -62.152199
2.762783 30.205827 -57.855459
3.365335 29.388841 -57.656129
2.151188 29.664119 -58.505476
2.180448 31.062857 -58.048832
2.762783 30.205827 -57.855459
0.762349 27.680467 -60.590231
1.333734 26.731514 -60.285857
0.189272 28.455796 -60.802721
0.797318 28.821051 -60.036129
0.762349 27.680467 -60.590231
-0.468202 29.214398 -61.090931
0.189272 28.455796 -60.802721
-1.920267 27.560254 -63.356928
-1.853966 26.48162 -63.919905
10.28083 -14.652424 -41.835403
9.618351 -13.972508 -42.624935
8.316845 -8.584497 -45.798622
8.09121 -10.064986 -45.384407
7.783037 -7.802669 -46.507666
8.316845 -8.584497 -45.798622
7.053653 -8.267344 -46.938845
7.300147 -6.848946 -47.283642
7.783037 -7.802669 -46.507666
-8.974183 30.78012 -65.554928
-8.178882 31.131407 -64.833619
11.691288 14.16758 -50.51861
12.241072 13.195752 -50.005036
10.749271 13.127519 -50.897303
11.144354 15.03628 -51.062484
11.691288 14.16758 -50.51861
5.976529 9.097452 -53.891629
6.343706 10.606968 -53.920732
6.668855 9.575271 -53.287588
5.976529 9.097452 -53.891629
5.671048 7.573362 -53.81597
4.144893 5.402079 -54.960842
4.709675 5.639702 -54.308712
3.870336 4.039578 -54.880455
3.636297 5.243221 -55.597328
4.144893 5.402079 -54.960842
3.610564 -2.355438 -52.828667
3.813967 -1.030949 -53.076529
4.118632 -2.167275 -52.225618
3.115502 -2.475142 -53.466709
3.610564 -2.355438 -52.828667
3.420167 -3.611468 -52.615799
2.65822 -2.635327 -54.101671
3.115502 -2.475142 -53.466709
2.503877 -3.867761 -53.86401
2.65822 -2.635327 -54.101671
2.503877 -3.867761 -53.86401
2.778942 -5.01072 -52.9762
-15.237762 32.218204 -61.791511
-16.016594 32.121443 -61.041719
-15.084781 32.606291 -60.615286
-15.290706 31.758129 -62.927803
-15.237762 32.218204 -61.791511
-14.358893 32.242977 -62.501369
-16.223022 31.270605 -63.359544
-15.290706 31.758129 -62.927803
-5.783314 33.483607 -61.091824
-6.579801 33.122864 -61.731655
10.001549 22.549259 -52.956299
9.65282 20.657672 -52.931769
9.521786 23.409263 -53.304323
10.001549 22.549259 -52.956299
6.604458 24.334699 -55.516973
7.128775 23.510424 -55.018505
6.375205 22.668508 -55.636415
6.604458 24.334699 -55.516973
6.10508 25.120549 -55.880465
3.933342 28.500677 -57.347559
4.539208 27.777234 -57.020967
3.301528 27.918926 -58.003532
3.365335 29.388841 -57.656129
3.933342 28.500677 -57.347559
-0.57237 25.866812 -62.716616
-0.528435 27.04246 -62.219646
-1.200207 25.680946 -63.543901
-0.57237 25.866812 -62.716616
-1.853966 26.48162 -63.919905
-1.200207 25.680946 -63.543901
8.669923 -15.671277 -42.755814
9.383184 -16.481189 -41.852673
8.637096 -16.880861 -42.334
9.011015 -13.144941 -43.440945
9.618351 -13.972508 -42.624935
8.808675 -14.444039 -43.090497
8.423609 -12.262688 -44.256226
9.011015 -13.144941 -43.440945
7.86159 -11.373961 -45.075125
8.423609 -12.262688 -44.256226
7.639321 -12.727744 -44.725405
7.306923 -10.530041 -45.853586
8.09121 -10.064986 -45.384407
7.86159 -11.373961 -45.075125
3.980818 -5.87624 -50.996021
3.706951 -4.716207 -51.776021
4.189096 -4.651797 -51.197758
-11.722185 30.584554 -66.292434
-12.669846 30.894044 -65.785308
-11.711218 31.227351 -65.314224
-9.853563 30.443968 -66.174149
-9.884177 31.254014 -65.202129
-8.974183 30.78012 -65.554928
-10.755664 30.178765 -66.706253
-9.853563 30.443968 -66.174149
-11.722185 30.584554 -66.292434
-10.755664 30.178765 -66.706253
0.785713 32.45315 -58.426754
0.072485 32.993769 -58.538256
5.566381 17.960817 -56.15177
5.934504 16.955253 -55.579742
5.847238 19.558557 -55.9651
5.566381 17.960817 -56.15177
6.181316 21.212199 -55.793613
6.565442 20.190591 -55.309433
5.847238 19.558557 -55.9651
5.657 22.036474 -56.292082
6.375205 22.668508 -55.636415
6.181316 21.212199 -55.793613
5.196049 22.950839 -56.801405
5.657 22.036474 -56.292082
5.002161 21.49453 -56.958603
4.100599 23.312634 -57.889351
4.324038 24.905596 -57.579338
4.764651 24.001857 -57.157913
4.100599 23.312634 -57.889351
3.90853 21.917752 -58.226982
7.968176 -17.341226 -42.773195
8.637096 -16.880861 -42.334
8.681437 -18.151139 -41.870054
7.347102 -16.516763 -43.628245
7.968176 -17.341226 -42.773195
7.391444 -17.787041 -43.164299
6.234896 -16.013522 -44.872329
6.249611 -14.757485 -45.277769
6.785085 -15.70654 -44.424788
6.234896 -16.013522 -44.872329
6.253334 -17.293024 -44.480539
12.013438 18.927766 -51.259119
11.56867 16.967683 -51.153954
11.510509 19.927714 -51.678896
12.013438 18.927766 -51.259119
10.611836 18.876113 -52.05782
11.510509 19.927714 -51.678896
9.79053 18.003186 -52.44704
10.611836 18.876113 -52.05782
10.229664 16.986097 -52.013336
8.9789 16.987379 -52.866978
9.361073 18.877395 -52.911461
9.79053 18.003186 -52.44704
5.981516 14.232074 -55.080374
6.339899 15.965625 -55.045334
6.68377 14.824142 -54.447142
5.988383 11.60987 -54.503478
6.68071 12.087689 -53.899437
6.343706 10.606968 -53.920732
5.706079 12.76407 -55.116379
5.988383 11.60987 -54.503478
5.369074 11.283349 -55.137675
5.362208 13.905553 -55.714571
5.981516 14.232074 -55.080374
5.706079 12.76407 -55.116379
4.718661 13.383087 -56.41131
5.362208 13.905553 -55.714571
4.718661 13.383087 -56.41131
4.477799 11.939653 -56.437071
4.079595 2.818428 -54.136099
4.625992 3.098845 -53.554935
4.326656 1.718838 -53.447066
3.571 2.659571 -54.772585
3.870336 4.039578 -54.880455
4.079595 2.818428 -54.136099
4.051147 0.297818 -53.250855
3.813967 -1.030949 -53.076529
3.098044 2.509547 -55.404305
3.571 2.659571 -54.772585
2.865154 3.666902 -56.213536
3.098044 2.509547 -55.404305
-17.023233 31.576704 -61.321531
-16.016594 32.121443 -61.041719
-17.023233 31.576704 -61.321531
-17.08101 31.217758 -62.578568
-13.535358 31.659871 -64.22238
-13.492765 32.203038 -63.180059
-12.616286 32.080007 -63.764778
-13.535358 31.659871 -64.22238
-13.606222 31.07549 -65.315017
13.233224 11.287998 -48.985611
12.695895 12.16208 -49.482636
12.791694 9.374605 -48.752594
13.233224 11.287998 -48.985611
12.318729 7.660039 -48.595272
11.732888 8.476909 -49.151306
12.791694 9.374605 -48.752594
11.771026 5.783831 -48.391746
12.318729 7.660039 -48.595272
12.829832 6.681527 -47.993035
12.859101 3.851939 -47.132599
13.358646 5.798509 -47.435862
11.78154 3.021481 -47.541369
12.859101 3.851939 -47.132599
12.358511 2.068102 -46.884459
9.921152 -1.249731 -47.350219
10.364444 0.446207 -47.643686
10.837658 -0.458295 -46.999761
9.495051 -2.78754 -47.113907
9.021837 -1.883038 -47.757831
9.921152 -1.249731 -47.350219
-14.183317 33.094302 -60.226661
-15.084781 32.606291 -60.615286
-13.450029 33.095732 -61.008281
-14.183317 33.094302 -60.226661
-13.327397 33.486981 -59.869865
-11.770812 33.933775 -60.087101
-12.526501 33.930832 -59.458178
-11.735858 33.429813 -61.187565
-11.770812 33.933775 -60.087101
-10.912561 33.875177 -60.623181
-8.320856 33.253544 -62.037172
-9.228077 33.524044 -61.635008
-8.265389 32.560009 -62.959892
-8.320856 33.253544 -62.037172
-7.39761 32.883133 -62.352846
-7.347554 31.431123 -64.179947
-8.178882 31.131407 -64.833619
-8.17347 31.889882 -63.929237
-6.498459 30.873779 -64.406937
-7.347554 31.431123 -64.179947
-6.493047 31.632254 -63.502556
-5.628658 30.260122 -64.497433
-6.498459 30.873779 -64.406937
-5.018638 33.07631 -61.292259
-5.783314 33.483607 -61.091824
-4.211205 32.59364 -61.357594
-3.425015 32.048587 -61.441628
-4.89909 32.186391 -62.098518
-5.018638 33.07631 -61.292259
-4.211205 32.59364 -61.357594
-4.81446 30.476582 -63.710537
-4.867805 31.389316 -62.9467
-4.038312 30.790987 -62.92769
-5.628658 30.260122 -64.497433
-4.81446 30.476582 -63.710537
9.134602 24.461959 -53.669197
9.521786 23.409263 -53.304323
8.745753 22.474838 -53.736887
7.858299 24.352075 -54.500412
7.629046 22.685883 -54.619854
7.128775 23.510424 -55.018505
8.631792 25.340181 -54.006314
7.858299 24.352075 -54.500412
9.134602 24.461959 -53.669197
8.631792 25.340181 -54.006314
1.482606 31.817702 -58.197947
2.180448 31.062857 -58.048832
0.871961 31.156598 -58.927656
0.785713 32.45315 -58.426754
1.482606 31.817702 -58.197947
3.76476 25.623568 -58.002869
4.428812 26.31279 -57.271431
4.324038 24.905596 -57.579338
3.21241 26.559971 -58.437588
3.76476 25.623568 -58.002869
2.644404 27.448135 -58.746158
3.301528 27.918926 -58.003532
3.21241 26.559971 -58.437588
1.96284 27.067451 -59.501926
1.333734 26.731514 -60.285857
2.051959 28.426406 -59.067871
2.644404 27.448135 -58.746158
1.96284 27.067451 -59.501926
-0.492628 30.287311 -60.45706
-0.517215 31.385143 -59.910983
0.199654 30.694213 -59.702541
-0.492628 30.287311 -60.45706
-0.468202 29.214398 -61.090931
-1.185909 27.801062 -62.507857
-0.528435 27.04246 -62.219646
-1.185909 27.801062 -62.507857
-1.920267 27.560254 -63.356928
10.160381 -15.989022 -41.399532
9.383184 -16.481189 -41.852673
10.160381 -15.989022 -41.399532
10.28083 -14.652424 -41.835403
7.526988 -5.477279 -47.598776
7.81009 -3.995567 -47.933304
6.797604 -5.941954 -48.029955
7.526988 -5.477279 -47.598776
7.300147 -6.848946 -47.283642
3.816147 -7.13428 -50.711764
3.980818 -5.87624 -50.996021
4.298293 -7.069869 -50.133501
5.742039 -13.76636 -46.121269
6.292229 -13.459378 -45.673727
6.249611 -14.757485 -45.277769
5.272749 -12.723426 -46.983509
5.742039 -13.76636 -46.121269
4.818545 -11.643493 -47.851589
5.330453 -11.388321 -47.385307
5.272749 -12.723426 -46.983509
4.409508 -10.62633 -48.695503
4.818545 -11.643493 -47.851589
4.038194 -9.636091 -49.493431
4.504936 -9.31815 -49.051315
4.409508 -10.62633 -48.695503
3.693224 -8.487978 -50.369929
4.038194 -9.636091 -49.493431
3.816147 -7.13428 -50.711764
3.693224 -8.487978 -50.369929
3 84 23 85
3 86 85 21
3 84 85 86
3 87 25 88
3 89 88 23
3 87 88 89
3 0 90 92
3 90 26 91
3 90 91 92
3 2 29 27
3 2 93 95
3 95 94 29
3 93 94 95
3 2 96 98
3 96 30 97
3 96 97 98
3 99 32 100
3 101 100 31
3 99 100 101
3 103 102 32
3 3 104 106
3 106 105 33
3 104 105 106
3 4 107 108
3 4 109 110
3 1 111 113
3 111 35 112
3 111 112 113
3 5 114 116
3 116 115 36
3 114 115 116
3 5 117 118
3 5 119 121
3 119 37 120
3 119 120 121
3 6 41 39
3 6 42 41
3 6 44 42
3 7 47 45
3 9 48 22
3 9 49 48
3 9 51 49
3 11 52 24
3 11 53 52
3 12 56 54
3 122 59 123
3 124 123 57
3 122 123 124
3 125 60 126
3 128 127 60
3 129 61 130
3 132 131 61
3 14 133 135
3 133 62 134
3 133 134 135
3 14 63 62
3 8 64 46
3 15 65 28
3 15 66 65
3 15 67 66
3 136 68 137
3 139 138 68
3 16 140 141
3 16 142 143
3 10 144 146
3 146 145 50
3 144 145 146
3 148 147 34
3 150 149 55
3 151 69 152
3 153 70 154
3 156 155 70
3 157 71 158
3 159 72 160
3 161 73 162
3 163 162 72
3 161 162 163
3 17 164 166
3 164 74 165
3 164 165 166
3 17 75 74
3 167 76 168
3 170 169 76
3 13 77 58
3 18 171 172
3 18 173 175
3 173 78 174
3 173 174 175
3 176 79 177
3 178 80 179
3 180 179 79
3 178 179 180
3 182 181 80
3 184 183 38
3 186 185 40
3 19 187 188
3 19 189 190
3 19 191 193
3 191 81 192
3 191 192 193
3 20 82 43
3 20 83 82
3 21 22 7
3 23 22 21
3 23 9 22
3 23 24 9
3 25 24 23
3 25 11 24
3 195 194 12
3 26 196 197
3 26 198 200
3 198 14 199
3 198 199 200
3 27 28 8
3 29 28 27
3 29 15 28
3 29 201 203
3 203 202 15
3 201 202 203
3 205 204 29
3 30 206 207
3 30 208 210
3 208 16 209
3 208 209 210
3 31 211 213
3 213 212 10
3 211 212 213
3 32 214 216
3 216 215 31
3 214 215 216
3 32 217 218
3 32 219 220
3 222 221 32
3 33 223 225
3 223 34 224
3 223 224 225
3 226 34 227
3 228 227 33
3 226 227 228
3 230 229 34
3 231 17 232
3 35 233 234
3 35 235 236
3 36 237 239
3 239 238 13
3 237 238 239
3 241 240 36
3 37 242 243
3 37 244 246
3 244 18 245
3 244 245 246
3 247 38 248
3 249 38 250
3 252 251 38
3 39 253 255
3 253 40 254
3 253 254 255
3 41 40 39
3 41 256 258
3 258 257 40
3 256 257 258
3 41 259 260
3 42 261 263
3 263 262 41
3 261 262 263
3 42 264 266
3 264 19 265
3 264 265 266
3 42 43 19
3 44 43 42
3 44 20 43
3 45 46 0
3 47 46 45
3 47 8 46
3 22 47 7
3 48 47 22
3 48 8 47
3 48 27 8
3 49 27 48
3 49 2 27
3 49 50 2
3 51 50 49
3 51 10 50
3 24 51 9
3 52 51 24
3 52 10 51
3 52 31 10
3 53 31 52
3 53 267 269
3 269 268 31
3 267 268 269
3 54 55 3
3 56 55 54
3 56 270 272
3 272 271 55
3 270 271 272
3 273 56 274
3 275 274 12
3 273 274 275
3 276 56 277
3 279 278 56
3 280 4 281
3 57 58 1
3 59 58 57
3 59 13 58
3 282 59 283
3 284 59 285
3 286 13 287
3 288 287 59
3 286 287 288
3 289 36 290
3 291 290 13
3 289 290 291
3 60 292 294
3 292 36 293
3 292 293 294
3 60 5 36
3 60 295 297
3 297 296 5
3 295 296 297
3 299 298 60
3 300 39 301
3 300 301 302
3 61 303 305
3 303 39 304
3 303 304 305
3 61 6 39
3 61 306 308
3 308 307 6
3 306 307 308
3 310 309 61
3 62 311 312
3 62 313 314
3 62 315 316
3 63 317 319
3 319 318 62
3 317 318 319
3 63 320 322
3 320 1 321
3 320 321 322
3 46 26 0
3 64 26 46
3 64 14 26
3 28 64 8
3 65 64 28
3 65 14 64
3 65 63 14
3 66 63 65
3 66 1 63
3 66 57 1
3 67 57 66
3 67 323 325
3 325 324 57
3 323 324 325
3 326 67 327
3 328 327 15
3 326 327 328
3 68 329 331
3 329 67 330
3 329 330 331
3 68 332 334
3 334 333 67
3 332 333 334
3 68 335 336
3 338 337 68
3 50 30 2
3 339 30 340
3 341 340 50
3 339 340 341
3 342 16 343
3 344 343 30
3 342 343 344
3 346 345 10
3 347 16 348
3 350 349 16
3 34 351 352
3 354 353 34
3 55 355 357
3 357 356 3
3 355 356 357
3 359 358 55
3 360 0 361
3 362 0 363
3 364 45 365
3 366 365 0
3 364 365 366
3 69 367 369
3 367 45 368
3 367 368 369
3 69 7 45
3 370 69 371
3 70 372 374
3 372 69 373
3 372 373 374
3 70 7 69
3 70 21 7
3 375 21 376
3 377 376 70
3 375 376 377
3 380 379 21
3 378 379 380
3 381 33 382
3 71 383 385
3 383 33 384
3 383 384 385
3 71 3 33
3 386 71 387
3 72 388 390
3 388 71 389
3 388 389 390
3 72 3 71
3 72 54 3
3 73 54 72
3 73 12 54
3 391 73 392
3 74 393 395
3 393 73 394
3 393 394 395
3 74 12 73
3 74 396 398
3 398 397 12
3 396 397 398
3 75 399 401
3 401 400 74
3 399 400 401
3 75 402 403
3 404 17 405
3 76 406 407
3 76 408 410
3 408 17 409
3 408 409 410
3 76 75 17
3 411 75 412
3 413 412 76
3 411 412 413
3 415 414 75
3 58 35 1
3 77 35 58
3 77 416 418
3 418 417 35
3 416 417 418
3 419 77 420
3 421 420 13
3 419 420 421
3 422 77 423
3 425 424 77
3 78 426 427
3 78 428 430
3 428 4 429
3 428 429 430
3 431 37 432
3 433 432 5
3 431 432 433
3 434 37 435
3 436 18 437
3 438 437 37
3 436 437 438
3 79 439 440
3 79 441 443
3 441 18 442
3 441 442 443
3 79 78 18
3 80 78 79
3 80 4 78
3 80 444 446
3 446 445 4
3 444 445 446
3 448 447 80
3 38 449 450
3 452 451 38
3 40 453 454
3 456 455 40
3 457 25 458
3 81 459 461
3 459 25 460
3 459 460 461
3 81 11 25
3 43 81 19
3 82 81 43
3 82 11 81
3 82 53 11
3 83 53 82
3 83 462 464
3 464 463 53
3 462 463 464
3 465 44 466
3 467 466 6
3 465 466 467
3 468 44 469
3 470 20 471
3 472 471 44
3 470 471 472
3 473 20 474
3 475 83 476
3 477 476 20
3 475 476 477
3 478 83 479
3 481 480 83
