ply
format ascii 1.0
element vertex 255
property float x
property float y
property float z
element face 191
property list uchar int vertex_index
end_header
13.444701 -14.923699 -62.546486
2.110324 -20.65889 -54.440292
4.820261 -17.243498 -57.919807
7.778534 -13.745371 -61.080441
19.495026 -15.325809 -63.141148
22.468559 -18.006666 -61.901386
2.724533 -16.728132 -56.225857
3.439029 -19.156656 -56.151154
3.994829 -15.186477 -57.963272
3.149287 -0.463107 -62.391533
4.054132 -2.051349 -62.865501
6.617887 -11.627822 -61.270111
8.208015 -9.972773 -62.825352
9.387981 -12.095975 -62.482315
14.753943 -16.991606 -61.949707
16.494299 -15.100729 -63.000267
15.222467 -13.234303 -63.593697
27.158607 -21.931217 -59.342041
22.19533 -21.965256 -60.320168
20.625593 -20.488239 -61.016075
20.941641 -16.703972 -62.554642
19.223537 -18.788105 -61.705647
11.776877 -16.582741 -61.442326
4.232501 -21.392334 -56.069374
5.702363 -19.705376 -57.63929
4.749162 -7.263549 -61.558277
4.426479 -11.031843 -59.842384
5.309532 -13.267262 -59.73978
6.282584 -15.681278 -59.488796
10.497057 -14.3471 -61.963619
12.12452 -12.723837 -63.139534
17.77096 -17.200422 -62.270393
18.130806 -13.523439 -63.827457
24.096712 -19.255665 -61.16785
3.000599 -14.816395 -57.137652
2.414361 -15.651781 -56.199713
3.635747 -14.045568 -58.006359
3.359681 -15.957304 -57.094565
3.000599 -14.816395 -57.137652
4.12329 -0.293576 -63.590526
3.60171 -1.257228 -62.628517
3.670867 0.500545 -63.353543
8.32647 -7.957962 -63.71773
7.629905 -8.869724 -62.956383
8.971495 -9.049204 -63.552381
8.32647 -7.957962 -63.71773
14.099322 -15.957653 -62.248097
13.834692 -17.976053 -61.359253
13.180072 -16.9421 -61.657643
19.763846 -21.641015 -60.548338
20.432973 -22.591458 -60.175936
19.062818 -20.790948 -60.893124
19.924565 -19.638172 -61.360861
19.763846 -21.641015 -60.548338
10.94701 -17.438345 -60.836698
11.486855 -18.660998 -60.524512
1.492595 -21.401941 -53.572176
1.799009 -19.560783 -54.384394
1.725458 -22.728842 -53.521627
1.492595 -21.401941 -53.572176
2.410911 -21.973813 -54.356641
1.725458 -22.728842 -53.521627
5.249605 -8.231355 -61.595447
5.347674 -6.468993 -62.365864
5.088264 -10.115502 -60.737501
4.58782 -9.147696 -60.70033
5.249605 -8.231355 -61.595447
5.52979 -11.233211 -60.686199
4.868005 -12.149553 -59.791082
5.088264 -10.115502 -60.737501
7.524078 -15.843038 -60.128222
6.776103 -16.810992 -59.3324
7.030559 -14.713325 -60.284619
8.30754 -14.974988 -60.830317
7.524078 -15.843038 -60.128222
10.706847 -12.380069 -62.855597
9.942519 -13.221538 -62.222967
10.152309 -11.254507 -63.114945
11.520578 -11.568438 -63.443554
11.310789 -13.535469 -62.551576
10.706847 -12.380069 -62.855597
16.895759 -18.166424 -61.776086
17.591353 -19.238407 -61.428194
17.545968 -12.590846 -64.162897
17.312553 -14.312084 -63.413862
16.727715 -13.37949 -63.749302
18.290154 -11.943894 -64.498388
17.545968 -12.590846 -64.162897
27.225587 -19.850285 -60.16667
26.395642 -21.242372 -59.833975
23.340317 -16.734848 -62.289438
24.154393 -17.359347 -61.92267
23.282635 -18.631166 -61.534618
22.490979 -16.21856 -62.628264
23.340317 -16.734848 -62.289438
20.241784 -14.219065 -63.586344
20.965091 -14.908147 -63.293091
20.218333 -16.01489 -62.847895
19.541277 -13.587601 -63.866411
20.241784 -14.219065 -63.586344
2.106114 -17.595405 -55.277176
2.414361 -15.651781 -56.199713
2.417428 -18.693511 -55.333074
1.799009 -19.560783 -54.384394
2.106114 -17.595405 -55.277176
3.091845 -2.179495 -61.688589
2.682805 -1.379864 -61.415757
3.544268 -2.973616 -61.925573
3.091845 -2.179495 -61.688589
3.60171 -1.257228 -62.628517
3.968008 -3.755679 -62.128246
3.544268 -2.973616 -61.925573
6.834841 -9.697249 -62.178763
6.183968 -10.413491 -61.451364
7.412951 -10.800297 -62.047731
6.834841 -9.697249 -62.178763
7.629905 -8.869724 -62.956383
9.561478 -10.110805 -63.380863
8.797998 -11.034374 -62.653834
8.971495 -9.049204 -63.552381
10.152309 -11.254507 -63.114945
9.561478 -10.110805 -63.380863
14.478243 -19.018611 -61.080423
13.834692 -17.976053 -61.359253
15.387251 -18.062016 -61.615743
14.478243 -19.018611 -61.080423
15.624121 -16.046167 -62.474987
16.257429 -17.116578 -62.141024
15.387251 -18.062016 -61.615743
16.091798 -12.446278 -64.046017
16.727715 -13.37949 -63.749302
15.858383 -14.167516 -63.296982
26.971526 -24.110218 -58.498337
27.93305 -22.702708 -58.7451
26.28229 -23.355522 -58.996286
26.971526 -24.110218 -58.498337
26.395642 -21.242372 -59.833975
26.28229 -23.355522 -58.996286
21.217841 -23.329966 -59.827982
21.991104 -24.11174 -59.475893
21.410461 -21.226748 -60.668121
21.217841 -23.329966 -59.827982
20.432973 -22.591458 -60.175936
12.34616 -17.771621 -61.105563
11.486855 -18.660998 -60.524512
12.610789 -15.75322 -61.994406
13.180072 -16.9421 -61.657643
12.34616 -17.771621 -61.105563
2.75291 0.256906 -62.098163
2.682805 -1.379864 -61.415757
3.208108 1.102801 -63.019034
2.75291 0.256906 -62.098163
3.670867 0.500545 -63.353543
3.208108 1.102801 -63.019034
3.075264 -21.222696 -55.212072
2.410911 -21.973813 -54.356641
2.774676 -19.907773 -55.295723
3.471999 -22.340535 -55.171183
3.075264 -21.222696 -55.212072
3.835765 -20.274495 -56.110264
3.824399 -23.475535 -55.123602
3.471999 -22.340535 -55.171183
4.612998 -22.60483 -55.92555
3.824399 -23.475535 -55.123602
5.347929 -21.761351 -56.710509
4.612998 -22.60483 -55.92555
4.967432 -20.548855 -56.854332
6.217826 -20.80931 -57.528294
5.347929 -21.761351 -56.710509
4.605854 -1.066693 -63.781425
4.12329 -0.293576 -63.590526
4.533581 -2.919394 -63.005111
4.605854 -1.066693 -63.781425
3.968008 -3.755679 -62.128246
4.533581 -2.919394 -63.005111
4.881096 -5.525494 -62.3515
5.347674 -6.468993 -62.365864
4.315523 -6.361779 -61.474634
4.881096 -5.525494 -62.3515
4.163683 -8.211515 -60.625507
4.315523 -6.361779 -61.474634
4.002341 -10.095662 -59.767561
4.163683 -8.211515 -60.625507
4.58782 -9.147696 -60.70033
3.851572 -11.96825 -58.945915
4.002341 -10.095662 -59.767561
4.210654 -13.10916 -58.902828
3.635747 -14.045568 -58.006359
3.851572 -11.96825 -58.945915
5.96371 -12.447542 -60.504946
5.52979 -11.233211 -60.686199
6.183968 -10.413491 -61.451364
6.485993 -18.823041 -58.407646
5.992474 -17.693327 -58.564043
6.776103 -16.810992 -59.3324
6.217826 -20.80931 -57.528294
6.485993 -18.823041 -58.407646
9.112264 -14.15029 -61.531254
8.30754 -14.974988 -60.830317
8.583258 -12.920673 -61.781378
9.666802 -15.275852 -61.271906
9.112264 -14.15029 -61.531254
9.942519 -13.221538 -62.222967
10.3071 -16.320525 -61.097345
9.666802 -15.275852 -61.271906
11.136967 -15.46492 -61.702973
10.94701 -17.438345 -60.836698
10.3071 -16.320525 -61.097345
12.3489 -10.849335 -63.989765
11.520578 -11.568438 -63.443554
13.02326 -11.938261 -63.685158
12.3489 -10.849335 -63.989765
13.683351 -13.038192 -63.388634
12.78461 -13.823768 -62.84301
13.02326 -11.938261 -63.685158
14.572234 -12.193494 -63.912239
14.333584 -14.079001 -63.070092
13.683351 -13.038192 -63.388634
15.445308 -11.519666 -64.351662
14.572234 -12.193494 -63.912239
16.091798 -12.446278 -64.046017
15.445308 -11.519666 -64.351662
18.317642 -20.032249 -61.145821
19.062818 -20.790948 -60.893124
18.497248 -17.994264 -61.98802
18.317642 -20.032249 -61.145821
17.591353 -19.238407 -61.428194
17.13263 -16.150575 -62.63533
16.895759 -18.166424 -61.776086
16.257429 -17.116578 -62.141024
18.859167 -12.686415 -64.209566
19.541277 -13.587601 -63.866411
18.812916 -14.424624 -63.484302
18.859167 -12.686415 -64.209566
18.290154 -11.943894 -64.498388
28.027093 -20.588054 -59.57772
27.93305 -22.702708 -58.7451
28.027093 -20.588054 -59.57772
27.225587 -19.850285 -60.16667
22.984765 -22.785181 -59.886839
21.991104 -24.11174 -59.475893
23.935456 -21.430385 -60.31068
22.984765 -22.785181 -59.886839
23.146021 -20.610461 -60.744009
24.864694 -19.904595 -60.74688
23.935456 -21.430385 -60.31068
24.939995 -17.940347 -61.521349
24.864694 -19.904595 -60.74688
24.939995 -17.940347 -61.521349
24.154393 -17.359347 -61.92267
21.72752 -15.567213 -62.954892
22.490979 -16.21856 -62.628264
21.7051 -17.355319 -62.228014
21.72752 -15.567213 -62.954892
20.965091 -14.908147 -63.293091
3 34 6 35
3 36 8 37
3 38 37 6
3 36 37 38
3 39 10 40
3 41 40 9
3 39 40 41
3 42 12 43
3 45 44 12
3 0 46 48
3 46 14 47
3 46 47 48
3 0 16 14
3 49 19 50
3 51 21 52
3 53 52 19
3 51 52 53
3 54 22 55
3 1 56 57
3 1 58 59
3 1 60 61
3 2 23 7
3 2 24 23
3 62 25 63
3 64 26 65
3 66 65 25
3 64 65 66
3 67 27 68
3 69 68 26
3 67 68 69
3 3 28 11
3 3 70 72
3 72 71 28
3 70 71 72
3 3 73 74
3 75 29 76
3 77 76 13
3 75 76 77
3 78 30 79
3 80 79 29
3 78 79 80
3 81 31 82
3 83 32 84
3 85 84 15
3 83 84 85
3 87 86 32
3 89 88 17
3 5 33 18
3 5 90 92
3 92 91 33
3 90 91 92
3 5 93 94
3 4 95 97
3 97 96 20
3 95 96 97
3 4 98 99
3 6 100 101
3 6 102 104
3 102 1 103
3 102 103 104
3 6 7 1
3 8 7 6
3 8 2 7
3 9 105 106
3 10 107 109
3 109 108 9
3 107 108 109
3 10 110 111
3 112 11 113
3 12 114 116
3 114 11 115
3 114 115 116
3 12 3 11
3 12 13 3
3 117 13 118
3 119 118 12
3 117 118 119
3 121 120 13
3 14 122 123
3 14 124 125
3 14 126 128
3 126 15 127
3 126 127 128
3 16 15 14
3 16 129 131
3 131 130 15
3 129 130 131
3 132 17 133
3 134 17 135
3 137 136 17
3 138 18 139
3 19 140 142
3 140 18 141
3 140 141 142
3 19 5 18
3 19 20 5
3 21 20 19
3 21 4 20
3 22 143 144
3 22 145 147
3 145 0 146
3 145 146 147
3 148 9 149
3 150 9 151
3 153 152 9
3 7 154 156
3 156 155 1
3 154 155 156
3 23 157 159
3 159 158 7
3 157 158 159
3 23 160 161
3 23 162 163
3 24 164 166
3 166 165 23
3 164 165 166
3 24 167 168
3 169 10 170
3 171 10 172
3 174 173 10
3 25 175 176
3 25 177 178
3 25 179 180
3 26 181 183
3 183 182 25
3 181 182 183
3 26 184 185
3 26 186 188
3 186 8 187
3 186 187 188
3 27 8 26
3 27 2 8
3 11 189 191
3 189 27 190
3 189 190 191
3 28 27 11
3 28 2 27
3 28 24 2
3 192 24 193
3 194 193 28
3 192 193 194
3 196 195 24
3 13 197 199
3 199 198 3
3 197 198 199
3 29 200 202
3 202 201 13
3 200 201 202
3 29 203 204
3 29 205 207
3 205 22 206
3 205 206 207
3 30 22 29
3 30 0 22
3 208 30 209
3 210 30 211
3 212 0 213
3 214 213 30
3 212 213 214
3 215 16 216
3 217 216 0
3 215 216 217
3 218 16 219
3 221 220 16
3 222 21 223
3 31 224 226
3 224 21 225
3 224 225 226
3 31 4 21
3 15 227 229
3 227 31 228
3 227 228 229
3 32 31 15
3 32 4 31
3 32 230 232
3 232 231 4
3 230 231 232
3 234 233 32
3 17 235 236
3 238 237 17
3 18 239 240
3 33 241 243
3 243 242 18
3 241 242 243
3 33 244 245
3 33 246 247
3 249 248 33
3 20 250 252
3 252 251 5
3 250 251 252
3 254 253 20
