ply
format ascii 1.0
element vertex 262
property float x
property float y
property float z
element face 248
property list uchar int vertex_index
end_header
38.766216 -22.581221 11.36142
38.945908 -7.819839 16.255924
38.208801 -16.130535 15.1835
37.528248 -19.277847 9.317506
38.243729 -21.913918 6.814953
39.153309 -25.218908 8.34499
38.654209 -4.304078 12.584405
37.69585 -8.889683 12.637546
37.150036 -12.804285 12.183049
38.375916 -12.095333 15.889577
39.74469 0.29053 12.513978
39.701321 -3.108794 16.091404
37.115028 -16.458595 11.028318
38.350052 -19.477209 13.623888
38.939919 -11.015186 19.858425
38.721561 -15.286298 19.16494
38.221169 -20.880171 10.302936
37.887508 -20.670935 8.170098
38.551796 -22.356474 9.077684
38.823254 -23.631927 7.634671
38.987946 -23.980759 9.978746
38.845211 -6.061475 14.4444
38.164898 -6.567317 12.686192
38.414509 -8.310732 14.391503
38.091167 -10.510106 14.332631
38.616863 -10.10103 16.136883
40.178173 0.781147 14.18326
39.727001 -1.548703 14.196312
40.043327 -0.959059 15.948065
37.700554 -14.523726 13.611208
37.061886 -14.737959 11.691526
37.6744 -16.2633 12.981104
37.81028 -18.037434 12.297953
38.207527 -17.781675 14.352335
38.89048 -10.308393 21.647802
38.798019 -12.504244 21.394291
38.800026 -13.320929 19.638405
38.719547 -14.74004 21.257984
36.670338 -17.686363 8.245311
37.029179 -19.00457 7.188686
37.449455 -20.211632 5.945671
37.883034 -21.327885 4.518665
38.570026 -23.046827 5.221735
39.022858 -24.742945 5.920394
37.281315 -7.068265 10.951294
36.787876 -9.093563 10.760617
37.371082 -10.841258 12.485431
37.829258 -12.560001 14.021667
38.227909 -14.100849 15.564597
39.178867 -2.013075 12.460893
39.293644 -3.719681 14.315279
39.310135 -5.534596 16.261997
36.327896 -14.81446 9.804356
36.430302 -16.337648 9.069024
37.247253 -17.864061 10.210531
37.96582 -19.456848 11.371692
38.515617 -21.028788 12.47435
39.533897 -4.966807 18.025185
39.255688 -7.183044 18.122614
39.127281 -8.665726 19.876577
38.991837 -9.387856 18.049391
38.77763 -11.60925 17.973093
38.616379 -13.606516 17.608114
38.53907 -15.651011 17.156298
38.702461 -16.772362 20.740364
38.542107 -17.673302 16.487488
40.263277 0.985263 15.039099
40.348786 1.894598 14.104999
40.195854 0.11516 15.921501
40.11075 -0.088956 15.065663
40.263277 0.985263 15.039099
38.664459 -13.274112 22.230804
38.675333 -12.225064 22.370124
38.625223 -14.39201 22.162651
38.758783 -13.622142 21.326138
38.664459 -13.274112 22.230804
39.209141 -25.873154 7.601255
39.143915 -25.635172 6.388957
39.088083 -24.980926 7.132692
38.238802 -4.627387 11.79183
38.532028 -3.419185 11.708455
39.709903 1.279738 11.650658
39.979301 1.471454 12.450049
39.388561 0.054273 11.634621
39.709903 1.279738 11.650658
39.461778 -0.861273 12.487436
39.10565 -1.09753 11.608078
39.388561 0.054273 11.634621
36.763542 -12.928807 11.294396
36.842591 -11.967995 11.450074
39.43275 -5.710317 18.928737
39.543333 -4.57678 18.829429
39.293646 -6.818435 18.977452
39.394793 -6.074925 18.073899
39.43275 -5.710317 18.928737
38.618642 -17.604553 21.427944
38.601833 -16.513756 21.756147
38.643484 -18.375606 17.206302
38.625117 -17.470421 17.581773
38.726494 -18.172725 18.300587
38.579648 -18.547587 16.132036
38.643484 -18.375606 17.206302
40.196043 1.716763 13.28469
40.348786 1.894598 14.104999
39.961432 0.535838 13.348619
39.979301 1.471454 12.450049
40.196043 1.716763 13.28469
38.721564 -11.127139 22.496879
38.757576 -9.971725 22.517083
38.844249 -11.406319 21.521046
38.721564 -11.127139 22.496879
38.675333 -12.225064 22.370124
36.35742 -17.549985 7.233649
36.17951 -16.892973 7.70203
36.53684 -18.209089 6.705336
36.35742 -17.549985 7.233649
36.849759 -18.345467 7.716998
36.765726 -18.802355 6.141643
36.53684 -18.209089 6.705336
36.975865 -19.405886 5.520136
36.765726 -18.802355 6.141643
37.239317 -19.608101 6.567178
37.239428 -19.961322 4.837141
36.975865 -19.405886 5.520136
37.456217 -20.519448 4.123638
37.239428 -19.961322 4.837141
37.666245 -20.769759 5.232168
37.701535 -20.989979 3.3568
37.456217 -20.519448 4.123638
38.092348 -21.857931 3.694545
37.701535 -20.989979 3.3568
38.435844 -22.717402 4.046079
38.092348 -21.857931 3.694545
38.22653 -22.187356 4.8702
38.717954 -23.619391 4.376712
38.435844 -22.717402 4.046079
38.94437 -24.46745 4.726042
38.717954 -23.619391 4.376712
38.796442 -23.894886 5.571065
39.100367 -25.34754 5.0864
38.94437 -24.46745 4.726042
39.100367 -25.34754 5.0864
39.143915 -25.635172 6.388957
37.994146 -5.759006 11.842724
38.238802 -4.627387 11.79183
38.409554 -5.435697 12.635299
37.552355 -6.009481 10.975275
37.994146 -5.759006 11.842724
37.723107 -6.817791 11.818743
37.051548 -6.142413 10.119874
37.552355 -6.009481 10.975275
36.765867 -7.180665 10.082405
37.051548 -6.142413 10.119874
36.519148 -8.193314 9.987067
36.765867 -7.180665 10.082405
37.034595 -8.080914 10.855956
36.287838 -9.259227 9.920758
36.519148 -8.193314 9.987067
36.66151 -10.112634 10.738858
36.287838 -9.259227 9.920758
36.953114 -10.986482 11.601266
36.66151 -10.112634 10.738858
37.079479 -9.96741 11.623024
37.260559 -11.822771 12.33424
36.842591 -11.967995 11.450074
36.953114 -10.986482 11.601266
38.794357 -2.273684 11.646698
39.10565 -1.09753 11.608078
38.916538 -3.158576 12.522649
38.532028 -3.419185 11.708455
38.794357 -2.273684 11.646698
36.719467 -13.895644 11.048634
36.763542 -12.928807 11.294396
37.105961 -13.771122 11.937288
36.352472 -13.933895 10.105049
36.719467 -13.895644 11.048634
36.694891 -14.77621 10.747941
35.886048 -14.00379 9.143688
36.352472 -13.933895 10.105049
35.891579 -14.777299 8.806703
35.886048 -14.00379 9.143688
35.942781 -15.538894 8.439037
35.891579 -14.777299 8.806703
36.379099 -15.576054 9.43669
36.059492 -16.218615 8.113886
35.942781 -15.538894 8.439037
36.55032 -17.012006 8.657167
36.17951 -16.892973 7.70203
36.059492 -16.218615 8.113886
40.071266 -0.645744 16.811158
40.195854 0.11516 15.921501
39.939636 -1.791604 16.88057
40.071266 -0.645744 16.811158
39.768633 -2.866472 16.952239
39.872324 -2.033927 16.019734
39.939636 -1.791604 16.88057
39.684921 -3.795478 17.91913
39.543333 -4.57678 18.829429
39.617609 -4.037801 17.058295
39.768633 -2.866472 16.952239
39.684921 -3.795478 17.91913
38.957027 -9.138796 21.655237
38.757576 -9.971725 22.517083
39.075428 -8.317463 20.769624
38.957027 -9.138796 21.655237
39.008881 -9.48706 20.762189
39.229443 -7.559776 19.854433
39.075428 -8.317463 20.769624
39.191485 -7.924385 18.999595
39.293646 -6.818435 18.977452
39.229443 -7.559776 19.854433
38.610376 -15.497595 22.014958
38.625223 -14.39201 22.162651
38.711004 -15.756201 20.999174
38.610376 -15.497595 22.014958
38.601833 -16.513756 21.756147
38.717352 -17.788224 20.379354
38.618642 -17.604553 21.427944
38.633533 -18.620415 21.066934
38.705293 -17.019951 19.708211
38.717352 -17.788224 20.379354
38.720185 -18.035813 19.3472
38.714844 -16.276919 18.920499
38.712011 -16.02933 19.952652
38.705293 -17.019951 19.708211
38.623598 -16.459276 17.916178
38.630316 -15.468654 18.160619
38.714844 -16.276919 18.920499
38.540588 -16.662157 16.821893
38.623598 -16.459276 17.916178
38.625117 -17.470421 17.581773
38.412357 -18.601773 15.06446
38.374817 -17.727488 15.419911
38.579648 -18.547587 16.132036
38.48362 -19.44954 14.700237
38.27879 -18.629442 13.988112
38.412357 -18.601773 15.06446
38.541208 -20.286564 14.152097
38.48362 -19.44954 14.700237
38.623991 -21.062354 13.577327
38.432834 -20.252998 13.049119
38.541208 -20.286564 14.152097
38.717747 -21.898612 13.022711
38.623991 -21.062354 13.577327
38.843046 -22.674828 12.466246
38.640917 -21.805004 11.917885
38.717747 -21.898612 13.022711
38.935192 -23.459353 11.776605
38.843046 -22.674828 12.466246
39.046057 -24.159121 11.085268
38.877081 -23.28099 10.670083
38.935192 -23.459353 11.776605
39.112538 -24.854639 10.415993
39.046057 -24.159121 11.085268
39.195219 -25.473713 9.599115
39.070628 -24.599833 9.161868
39.112538 -24.854639 10.415993
39.228257 -26.150329 8.832493
39.195219 -25.473713 9.599115
39.270167 -26.405133 10.086618
39.209141 -25.873154 7.601255
39.228257 -26.150329 8.832493
3 0 18 16
3 0 20 18
3 1 23 21
3 1 25 23
3 66 26 67
3 68 28 69
3 70 69 26
3 68 69 70
3 2 31 29
3 2 33 31
3 71 35 72
3 73 37 74
3 75 74 35
3 73 74 75
3 3 39 38
3 4 40 17
3 4 41 40
3 4 42 41
3 5 43 19
3 5 76 78
3 78 77 43
3 76 77 78
3 6 79 80
3 7 44 22
3 7 45 44
3 7 46 45
3 9 47 24
3 9 48 47
3 10 81 82
3 10 83 84
3 10 85 87
3 85 49 86
3 85 86 87
3 11 50 27
3 11 51 50
3 8 88 89
3 12 52 30
3 12 53 52
3 12 54 53
3 13 55 32
3 13 56 55
3 90 57 91
3 92 58 93
3 94 93 57
3 92 93 94
3 14 59 34
3 14 60 59
3 14 61 60
3 15 62 36
3 15 63 62
3 95 64 96
3 97 65 98
3 97 98 99
3 101 100 65
3 16 17 3
3 18 17 16
3 18 4 17
3 18 19 4
3 20 19 18
3 20 5 19
3 21 22 6
3 23 22 21
3 23 7 22
3 23 24 7
3 25 24 23
3 25 9 24
3 26 102 103
3 26 104 106
3 104 10 105
3 104 105 106
3 26 27 10
3 28 27 26
3 28 11 27
3 29 30 8
3 31 30 29
3 31 12 30
3 31 32 12
3 33 32 31
3 33 13 32
3 107 34 108
3 35 109 111
3 109 34 110
3 109 110 111
3 35 14 34
3 35 36 14
3 37 36 35
3 37 15 36
3 38 112 113
3 39 114 116
3 116 115 38
3 114 115 116
3 39 117 118
3 17 39 3
3 40 39 17
3 40 119 121
3 121 120 39
3 119 120 121
3 40 122 123
3 41 124 126
3 126 125 40
3 124 125 126
3 41 127 128
3 41 129 130
3 42 131 133
3 133 132 41
3 131 132 133
3 42 134 135
3 19 42 4
3 43 42 19
3 43 136 138
3 138 137 42
3 136 137 138
3 43 139 140
3 142 141 43
3 22 143 145
3 145 144 6
3 143 144 145
3 44 146 148
3 148 147 22
3 146 147 148
3 44 149 150
3 44 151 152
3 45 153 155
3 155 154 44
3 153 154 155
3 45 156 157
3 45 158 159
3 46 160 162
3 162 161 45
3 160 161 162
3 46 163 165
3 163 8 164
3 163 164 165
3 24 46 7
3 47 46 24
3 47 8 46
3 47 29 8
3 48 29 47
3 48 2 29
3 49 166 167
3 49 168 170
3 168 6 169
3 168 169 170
3 27 49 10
3 50 49 27
3 50 6 49
3 50 21 6
3 51 21 50
3 51 1 21
3 30 171 173
3 173 172 8
3 171 172 173
3 52 174 176
3 176 175 30
3 174 175 176
3 52 177 178
3 52 179 180
3 53 181 183
3 183 182 52
3 181 182 183
3 53 184 185
3 53 186 188
3 186 38 187
3 186 187 188
3 54 38 53
3 54 3 38
3 32 54 12
3 55 54 32
3 55 3 54
3 55 16 3
3 56 16 55
3 56 0 16
3 189 28 190
3 191 28 192
3 193 11 194
3 195 194 28
3 193 194 195
3 57 196 197
3 57 198 200
3 198 11 199
3 198 199 200
3 57 51 11
3 58 51 57
3 58 1 51
3 34 201 202
3 59 203 205
3 205 204 34
3 203 204 205
3 59 206 207
3 59 208 210
3 208 58 209
3 208 209 210
3 60 58 59
3 60 1 58
3 60 25 1
3 61 25 60
3 61 9 25
3 36 61 14
3 62 61 36
3 62 9 61
3 62 48 9
3 63 48 62
3 63 2 48
3 211 37 212
3 64 213 215
3 213 37 214
3 213 214 215
3 64 15 37
3 216 64 217
3 216 217 218
3 219 64 220
3 219 220 221
3 222 15 223
3 224 223 64
3 222 223 224
3 225 63 226
3 227 226 15
3 225 226 227
3 65 228 230
3 228 63 229
3 228 229 230
3 65 2 63
3 65 33 2
3 231 33 232
3 233 232 65
3 231 232 233
3 234 13 235
3 236 235 33
3 234 235 236
3 237 13 238
3 239 56 240
3 241 240 13
3 239 240 241
3 242 56 243
3 244 0 245
3 246 245 56
3 244 245 246
3 247 0 248
3 249 20 250
3 251 250 0
3 249 250 251
3 252 20 253
3 254 5 255
3 256 255 20
3 254 255 256
3 257 5 258
3 257 258 259
3 261 260 5
