ply
format ascii 1.0
element vertex 68
property float x
property float y
property float z
element face 40
property list uchar int vertex_index
end_header
-14.572083 -79.125267 33.509022
-12.325427 -82.169365 28.294405
-8.725245 -80.77961 27.671162
-10.492888 -81.550278 27.938648
-11.544154 -79.984764 30.693941
-5.641798 -81.391731 24.50997
-14.381144 -78.054112 34.814356
-15.185333 -78.306663 34.842361
-11.934791 -81.077065 29.494173
-12.435641 -80.332256 30.768428
-12.826278 -81.424557 29.568661
-9.2846 -80.017834 29.06553
-10.168422 -80.403168 29.199273
-9.609067 -81.164944 27.804905
-8.388971 -79.726696 28.766196
-9.2846 -80.017834 29.06553
-7.775679 -80.390137 27.446713
-8.388971 -79.726696 28.766196
-5.981685 -82.57283 23.222879
-6.555239 -81.812481 24.667826
-5.021124 -82.121948 23.07778
-5.981685 -82.57283 23.222879
-10.86254 -82.640618 26.726228
-11.409157 -81.859822 28.116526
-11.778809 -82.950161 26.904106
-9.922159 -82.336479 26.495494
-10.86254 -82.640618 26.726228
-9.038338 -81.951145 26.361751
-9.609067 -81.164944 27.804905
-9.922159 -82.336479 26.495494
-8.096963 -81.506421 26.248422
-9.038338 -81.951145 26.361751
-13.727286 -78.839699 33.440747
-13.949606 -79.902508 32.175969
-12.213321 -79.269447 32.033206
-12.435641 -80.332256 30.768428
-11.335289 -78.887276 31.964751
-12.213321 -79.269447 32.033206
-10.694055 -79.620411 30.576919
-11.018521 -80.767521 29.316294
-10.168422 -80.403168 29.199273
-11.335289 -78.887276 31.964751
-10.694055 -79.620411 30.576919
-7.775679 -80.390137 27.446713
-8.096963 -81.506421 26.248422
-6.233956 -80.696197 25.866117
-6.555239 -81.812481 24.667826
-5.294139 -80.280109 25.667998
-6.233956 -80.696197 25.866117
-4.721743 -80.972756 24.341388
-5.294139 -80.280109 25.667998
-4.721743 -80.972756 24.341388
-5.021124 -82.121948 23.07778
-15.444907 -79.189453 33.744444
-15.185333 -78.306663 34.842361
-16.058158 -78.37085 35.077783
-14.886831 -80.089695 32.346903
-15.444907 -79.189453 33.744444
-13.949606 -79.902508 32.175969
-14.886831 -80.089695 32.346903
-13.20041 -82.39605 28.445629
-12.826278 -81.424557 29.568661
-12.699852 -83.207096 27.084859
-13.20041 -82.39605 28.445629
-11.778809 -82.950161 26.904106
-12.699852 -83.207096 27.084859
-14.381144 -78.054112 34.814356
-13.727286 -78.839699 33.440747
3 0 6 7
3 1 8 10
3 8 4 9
3 8 9 10
3 2 11 13
3 13 12 3
3 11 12 13
3 2 14 15
3 2 16 17
3 18 5 19
3 21 20 5
3 22 3 23
3 24 23 1
3 22 23 24
3 25 3 26
3 27 2 28
3 29 28 3
3 27 28 29
3 31 30 2
3 33 32 0
3 4 34 35
3 4 36 37
3 3 4 1
3 38 4 39
3 40 39 3
3 38 39 40
3 42 41 4
3 44 43 2
3 5 45 46
3 5 47 48
3 5 49 50
3 52 51 5
3 53 0 54
3 53 54 55
3 56 0 57
3 59 58 0
3 60 1 61
3 62 1 63
3 65 64 1
3 67 66 0
