ply
format ascii 1.0
element vertex 177
property float x
property float y
property float z
element face 152
property list uchar int vertex_index
end_header
0.806557 -89.541084 -39.143723
-5.499354 -83.653511 -40.273411
-8.352298 -90.145943 -37.872581
-10.809888 -86.135124 -37.689796
-5.168711 -93.353653 -37.443703
-2.693183 -87.076126 -40.075092
0.3017 -79.968269 -42.357159
-12.593347 -81.036415 -37.18689
-7.656379 -79.027176 -40.08329
-2.482189 -76.163712 -42.414017
2.222043 -86.176353 -40.477154
-6.952853 -86.832916 -39.161133
-5.657486 -88.808006 -39.017509
-4.154255 -85.475685 -40.250534
-1.296234 -83.68222 -41.225262
-2.658607 -81.706894 -41.42662
-10.13306 -80.154655 -38.731964
-8.51925 -76.390923 -39.88578
-9.648604 -93.262138 -36.436401
-9.617765 -88.325668 -37.841232
-8.301153 -85.091637 -39.007317
4.861599 -78.962578 -42.846264
-6.770678 -91.832916 -37.78109
-3.845523 -90.157288 -38.8969
-0.859504 -88.477234 -39.712769
0.460217 -85.037506 -40.968174
1.809579 -81.559692 -42.088547
-16.277 -84.561882 -34.204288
-14.189392 -84.224419 -35.864094
-11.957954 -83.700714 -37.365536
-9.356012 -82.695488 -38.878082
-6.725537 -81.515305 -40.183002
-5.112843 -77.574158 -41.313877
-4.047167 -80.028595 -41.348423
-1.057669 -78.030159 -42.496735
2.349194 -88.37851 -39.423174
1.767 -89.923942 -38.733818
1.5143 -87.858719 -39.810439
3.056937 -86.696144 -40.089889
2.349194 -88.37851 -39.423174
-8.985053 -75.116707 -39.704893
-9.761191 -77.054398 -39.137369
-10.213826 -87.230396 -37.765514
-11.046587 -88.795852 -37.049556
-11.642648 -87.700581 -36.973838
4.234043 -80.760388 -42.290928
5.682043 -79.617214 -42.523062
-4.328049 -93.969871 -37.160527
-5.909535 -94.732727 -36.664001
-3.755068 -92.519215 -37.896353
-4.328049 -93.969871 -37.160527
1.69596 -78.878948 -42.763838
2.449899 -79.674659 -42.629532
1.05564 -80.763981 -42.222853
-16.522204 -83.170616 -34.029956
-17.270691 -84.642414 -33.25107
-13.664207 -81.298699 -36.402969
-12.904139 -79.635388 -37.035572
-13.391369 -82.630417 -36.525492
-14.46223 -82.8927 -35.741571
-13.664207 -81.298699 -36.402969
-3.797516 -76.868935 -41.863947
-4.227284 -75.552082 -41.884546
-2.911957 -74.846859 -42.434616
-12.130448 -86.476143 -36.88623
-11.642648 -87.700581 -36.973838
3.633154 -85.035065 -40.738766
3.056937 -86.696144 -40.089889
2.914265 -84.367275 -41.106373
3.633154 -85.035065 -40.738766
-6.694059 -94.103683 -36.83185
-5.909535 -94.732727 -36.664001
-11.79824 -79.377144 -37.787924
-12.904139 -79.635388 -37.035572
-10.568096 -78.936264 -38.560461
-11.363204 -80.595535 -37.959427
-11.79824 -79.377144 -37.787924
-9.326155 -78.272789 -39.308872
-10.568096 -78.936264 -38.560461
-9.761191 -77.054398 -39.137369
-1.60434 -74.07893 -42.976969
-2.911957 -74.846859 -42.434616
-1.009725 -75.112034 -42.980462
-1.60434 -74.07893 -42.976969
0.232755 -91.054772 -38.428824
1.767 -89.923942 -38.733818
-11.064796 -93.672588 -35.698822
-10.418574 -94.65763 -35.585718
-10.393484 -92.273289 -36.446663
-11.064796 -93.672588 -35.698822
-9.74533 -90.715191 -37.164752
-9.000451 -91.70404 -37.154491
-10.393484 -92.273289 -36.446663
-10.378064 -89.805053 -37.149078
-11.046587 -88.795852 -37.049556
-8.985031 -89.235805 -37.856906
-9.74533 -90.715191 -37.164752
-10.378064 -89.805053 -37.149078
6.343324 -77.744972 -43.089832
5.682043 -79.617214 -42.523062
5.481273 -77.122867 -43.363514
6.343324 -77.744972 -43.089832
-0.767434 -90.61293 -38.746363
0.232755 -91.054772 -38.428824
-8.934006 -94.057926 -36.328199
-10.418574 -94.65763 -35.585718
-7.495043 -93.343315 -37.000543
-8.934006 -94.057926 -36.328199
-8.209641 -92.547527 -37.108745
-5.969695 -92.593284 -37.612397
-6.694059 -94.103683 -36.83185
-7.495043 -93.343315 -37.000543
-3.093474 -90.921032 -38.622951
-3.755068 -92.519215 -37.896353
-4.507117 -91.755471 -38.170302
-1.600465 -90.081005 -39.030886
-3.093474 -90.921032 -38.622951
-2.352514 -89.317261 -39.304834
-0.026474 -89.009159 -39.428246
-0.767434 -90.61293 -38.746363
-1.600465 -90.081005 -39.030886
2.033352 -83.797852 -41.351883
2.914265 -84.367275 -41.106373
1.34113 -85.60693 -40.722664
2.708033 -82.058944 -41.91207
2.033352 -83.797852 -41.351883
1.134898 -83.298599 -41.52836
3.335589 -80.261135 -42.467405
4.234043 -80.760388 -42.290928
2.708033 -82.058944 -41.91207
3.97591 -78.376103 -43.00839
3.335589 -80.261135 -42.467405
2.449899 -79.674659 -42.629532
5.481273 -77.122867 -43.363514
3.97591 -78.376103 -43.00839
-17.052753 -85.963848 -33.399494
-17.270691 -84.642414 -33.25107
-16.016841 -85.910373 -34.303022
-17.052753 -85.963848 -33.399494
-15.506034 -83.061432 -34.911668
-16.522204 -83.170616 -34.029956
-15.233196 -84.39315 -35.034191
-15.506034 -83.061432 -34.911668
-14.46223 -82.8927 -35.741571
-14.973036 -85.741642 -35.132925
-16.016841 -85.910373 -34.303022
-15.233196 -84.39315 -35.034191
-13.820201 -85.520791 -35.973379
-14.973036 -85.741642 -35.132925
-12.704481 -85.258938 -36.7241
-13.820201 -85.520791 -35.973379
-13.073673 -83.962567 -36.614815
-11.383921 -84.917919 -37.527666
-12.130448 -86.476143 -36.88623
-12.704481 -85.258938 -36.7241
-7.692904 -74.546978 -40.444093
-8.985053 -75.116707 -39.704893
-7.241224 -75.727894 -40.557282
-7.692904 -74.546978 -40.444093
-6.809789 -77.04602 -40.656036
-8.087815 -77.709049 -39.984535
-7.241224 -75.727894 -40.557282
-5.538021 -76.319512 -41.27133
-4.227284 -75.552082 -41.884546
-6.384611 -78.300667 -40.698583
-6.809789 -77.04602 -40.656036
-5.538021 -76.319512 -41.27133
-0.297465 -76.045257 -43.021821
-1.769929 -77.096936 -42.455376
-1.009725 -75.112034 -42.980462
0.4251 -76.877037 -43.006502
-0.297465 -76.045257 -43.021821
1.104785 -77.846092 -42.936715
-0.377984 -78.999214 -42.426947
0.4251 -76.877037 -43.006502
1.69596 -78.878948 -42.763838
1.104785 -77.846092 -42.936715
3 0 35 36
3 0 37 39
3 37 10 38
3 37 38 39
3 1 13 11
3 1 15 13
3 40 17 41
3 3 42 44
3 42 19 43
3 42 43 44
3 3 20 19
3 45 21 46
3 4 47 48
3 4 49 50
3 2 22 18
3 5 23 12
3 5 24 23
3 5 25 24
3 6 26 14
3 6 51 53
3 53 52 26
3 51 52 53
3 54 27 55
3 7 56 57
3 7 58 60
3 58 28 59
3 58 59 60
3 7 29 28
3 8 30 16
3 8 31 30
3 9 61 63
3 61 32 62
3 61 62 63
3 9 33 32
3 9 34 33
3 64 3 65
3 10 66 67
3 10 68 69
3 70 4 71
3 11 12 2
3 13 12 11
3 13 5 12
3 13 14 5
3 15 14 13
3 15 6 14
3 72 7 73
3 74 16 75
3 76 75 7
3 74 75 76
3 17 77 79
3 77 16 78
3 77 78 79
3 17 8 16
3 80 9 81
3 83 82 9
3 84 0 85
3 86 18 87
3 88 18 89
3 90 2 91
3 92 91 18
3 90 91 92
3 19 93 94
3 19 95 97
3 95 2 96
3 95 96 97
3 19 11 2
3 20 11 19
3 20 1 11
3 21 98 99
3 21 100 101
3 102 0 103
3 18 104 105
3 22 106 108
3 108 107 18
3 106 107 108
3 22 109 111
3 109 4 110
3 109 110 111
3 12 22 2
3 23 22 12
3 23 4 22
3 23 112 114
3 114 113 4
3 112 113 114
3 24 115 117
3 117 116 23
3 115 116 117
3 24 118 120
3 118 0 119
3 118 119 120
3 24 10 0
3 25 10 24
3 25 121 123
3 123 122 10
3 121 122 123
3 14 25 5
3 26 25 14
3 26 124 126
3 126 125 25
3 124 125 126
3 26 127 129
3 127 21 128
3 127 128 129
3 130 21 131
3 132 131 26
3 130 131 132
3 134 133 21
3 27 135 136
3 27 137 138
3 139 27 140
3 28 141 143
3 141 27 142
3 141 142 143
3 28 144 146
3 146 145 27
3 144 145 146
3 28 147 148
3 29 149 151
3 151 150 28
3 149 150 151
3 29 152 154
3 152 3 153
3 152 153 154
3 16 29 7
3 30 29 16
3 30 3 29
3 30 20 3
3 31 20 30
3 31 1 20
3 155 17 156
3 157 17 158
3 159 8 160
3 161 160 17
3 159 160 161
3 32 162 163
3 32 164 166
3 164 8 165
3 164 165 166
3 32 31 8
3 33 31 32
3 33 1 31
3 33 15 1
3 34 15 33
3 34 6 15
3 167 34 168
3 169 168 9
3 167 168 169
3 170 34 171
3 172 6 173
3 174 173 34
3 172 173 174
3 176 175 6
