ply
format ascii 1.0
element vertex 463
property float x
property float y
property float z
element face 411
property list uchar int vertex_index
end_header
-37.867306 -38.525963 0.187868
-35.921806 -44.491837 -14.046764
-32.633911 -50.569016 -3.970092
-36.837421 -41.816082 -6.944328
-38.312817 -34.029602 6.911961
-36.642517 -42.768669 1.646453
-35.757294 -44.558929 -1.951735
-37.423813 -40.172501 -3.309194
-38.25045 -37.085232 -8.223651
-38.298588 -35.848331 -4.579336
-34.211594 -47.832447 -9.159435
-31.862354 -52.531033 -7.57927
-33.832214 -49.320915 -12.608516
-35.681534 -45.983227 -17.415184
-37.413296 -42.127773 -21.932085
-40.201416 -20.77276 -21.400639
-34.907173 -46.225273 -5.611024
-36.298855 -43.207577 -10.48603
-38.003696 -38.410576 -11.715071
-39.029964 -33.680386 -12.625997
-38.17207 -36.546329 3.638548
-37.572598 -30.13863 5.42334
-37.890221 -32.363922 2.275804
-38.179752 -34.252388 -1.088033
-37.349274 -43.529549 -25.258387
-37.35939 -40.683449 1.081506
-37.00853 -41.595707 -0.728382
-37.649948 -39.423054 -1.482701
-37.970013 -37.983379 -3.912624
-38.085239 -37.162586 -2.185062
-35.083755 -46.177391 -11.608525
-33.947487 -48.668701 -10.916031
-34.85994 -46.992928 -13.231608
-34.744446 -47.742161 -14.988701
-35.724926 -45.328278 -15.586422
-36.567497 -43.562798 -17.893488
-36.752281 -42.669315 -16.397671
-39.876022 -27.361605 -17.312048
-36.303894 -43.209198 -4.454928
-35.282276 -45.485676 -3.798261
-35.912544 -44.067715 -6.287361
-35.635113 -44.69384 -8.159985
-36.588806 -42.449215 -8.749285
-37.210102 -40.849243 -11.118021
-37.444736 -40.120644 -9.313884
-38.178322 -37.406017 6.110194
-38.264214 -35.333164 5.276776
-36.601818 -26.6647 5.705684
-37.390049 -28.694649 6.620368
-36.843327 -28.0599 4.630004
-37.389874 -30.362064 1.707813
-37.684277 -31.295862 0.06175
-38.053257 -33.356209 0.631082
-37.965092 -32.156586 -1.613181
-38.19717 -32.94096 -3.233292
-36.429035 -46.440403 -24.646891
-36.447803 -45.722897 -22.897539
-35.181744 -45.899467 0.642654
-36.18988 -43.711334 -0.05016
-36.672794 -42.378674 -2.577644
-37.120266 -41.068733 -5.081028
-37.657276 -39.397552 -7.534966
-37.819023 -38.737278 -5.780557
-38.276016 -36.579334 -6.31727
-38.531639 -34.267433 -6.761098
-33.371758 -49.319794 -6.541561
-32.86216 -50.922955 -10.074214
-34.616089 -48.663845 -16.656553
-35.584335 -46.84227 -19.007212
-36.543446 -44.836372 -21.408543
-36.586319 -44.082321 -19.733736
-39.52507 -32.032898 -16.673525
-39.910553 -30.05533 -18.836763
-33.083813 -49.703667 -2.252878
-34.176121 -47.690128 -2.989429
-33.830898 -48.349693 -5.027009
-34.572868 -46.947254 -7.397263
-35.251614 -45.609264 -9.723648
-36.118298 -43.768158 -12.300981
-37.019772 -41.462837 -12.802624
-37.858475 -39.026073 -13.578707
-38.562504 -36.531918 -14.122203
-38.147678 -37.744129 -9.94874
-38.623959 -35.984604 -12.306733
-39.071243 -34.177593 -14.524824
-39.582939 -29.441599 -15.240396
-37.677151 -39.656036 2.647775
-37.939056 -38.648987 4.414774
-38.037354 -37.62748 1.976408
-37.989586 -30.671623 7.689392
-38.06023 -32.06292 6.3248
-37.097389 -29.279148 3.185118
-37.72694 -31.310951 3.966157
-38.113922 -33.314796 4.616249
-38.157425 -34.417007 2.928319
-38.17094 -35.503414 1.261124
-38.148598 -36.331856 -0.465143
-38.257637 -35.07354 -2.729342
-37.291943 -44.276718 -26.994871
-38.168934 -41.205532 -27.585674
-37.415241 -42.688148 -23.517778
-38.158897 -40.657578 -25.682926
-40.01115 -26.353805 -18.318952
-39.827537 -26.23416 -17.376541
-38.335413 -35.075178 7.327773
-38.398642 -34.391388 8.07394
-38.288516 -34.681383 6.094368
-38.311112 -35.726959 6.510181
-38.335413 -35.075178 7.327773
-36.263388 -26.380642 4.694215
-36.18683 -25.739234 5.347675
-36.384142 -27.078242 4.156375
-36.722572 -27.3623 5.167844
-36.263388 -26.380642 4.694215
-37.592803 -30.692777 -1.018253
-37.395271 -30.328688 -0.167051
-37.73321 -31.123138 -1.855719
-37.824685 -31.726224 -0.775716
-37.592803 -30.692777 -1.018253
-37.935541 -31.533046 -2.641135
-37.73321 -31.123138 -1.855719
-32.042501 -51.63999 -3.599006
-32.244991 -51.217373 -2.66468
-36.011716 -46.637707 -21.785742
-35.954162 -47.151862 -22.596706
-36.416199 -43.240002 0.798146
-35.953199 -44.326729 1.22039
-36.179518 -43.855396 2.068696
-33.660826 -48.945896 -8.762549
-33.240908 -49.68957 -7.453612
-33.791676 -48.576121 -7.850498
-33.235591 -50.602695 -12.157898
-32.750565 -51.403716 -10.890746
-33.347187 -50.121935 -11.341365
-33.7444 -49.791407 -13.415931
-33.235591 -50.602695 -12.157898
-36.999843 -42.532876 -19.043325
-37.055626 -42.141327 -18.256509
-39.845114 -29.921579 -17.94279
-39.717811 -31.044114 -17.755144
-39.652372 -30.910363 -16.861171
-40.383339 -20.899639 -22.232528
-40.285297 -22.021763 -21.298408
-40.281206 -19.769747 -22.25224
-40.383339 -20.899639 -22.232528
-33.334806 -49.269011 -1.309477
-32.761421 -50.270113 -0.992829
-35.234135 -45.638975 -1.616227
-34.94636 -46.309244 -0.319032
-35.469519 -45.229198 -0.65454
-38.826961 -34.832495 -12.466365
-38.62763 -35.747417 -11.370604
-38.830633 -34.595309 -11.530237
-39.211685 -32.801868 -13.70353
-39.232325 -33.050471 -14.652943
-39.050604 -33.92899 -13.575411
-39.431238 -29.215234 -14.272704
-39.430042 -30.342679 -14.185282
-39.553475 -28.309442 -15.277802
-39.431238 -29.215234 -14.272704
-37.60109 -40.097753 3.914557
-37.382036 -40.709642 3.050534
-36.892227 -28.854501 2.14815
-36.702884 -28.340958 2.826658
-38.290789 -33.376528 -4.045849
-38.223625 -32.30118 -4.264021
-31.412529 -53.197443 -6.243106
-32.035696 -52.039898 -6.728042
-38.547279 -39.144305 -26.03395
-38.193728 -40.265496 -24.906428
-38.528399 -39.469168 -26.820988
-38.547279 -39.144305 -26.03395
-37.148018 -41.694586 -17.508601
-37.055626 -42.141327 -18.256509
-36.659889 -43.116056 -17.14558
-39.997656 -27.46658 -18.247962
-39.827849 -28.574716 -17.180433
-39.997656 -27.46658 -18.247962
-40.01115 -26.353805 -18.318952
-40.104046 -21.902969 -20.421849
-40.285297 -22.021763 -21.298408
-38.440876 -36.297731 -9.329064
-38.424478 -36.037907 -8.355266
-38.988983 -33.411007 -11.75324
-38.830633 -34.595309 -11.530237
-39.153554 -32.462072 -12.878082
-38.988983 -33.411007 -11.75324
-38.268166 -36.763385 6.92689
-38.163393 -37.816698 7.384365
-38.221268 -36.369591 5.693485
-38.268166 -36.763385 6.92689
-38.311112 -35.726959 6.510181
-36.574326 -25.984355 6.27838
-36.18683 -25.739234 5.347675
-36.94886 -26.907445 6.767772
-36.574326 -25.984355 6.27838
-36.995933 -27.679674 6.163026
-37.342975 -27.922419 7.225113
-36.94886 -26.907445 6.767772
-37.24807 -29.861788 0.655981
-37.038469 -29.395958 1.409498
-37.537076 -30.828963 0.884781
-37.24807 -29.861788 0.655981
-37.395271 -30.328688 -0.167051
-38.051581 -31.925233 -3.451191
-38.081131 -32.548773 -2.423236
-37.935541 -31.533046 -2.641135
-38.223625 -32.30118 -4.264021
-38.051581 -31.925233 -3.451191
-31.28843 -53.652466 -7.194109
-31.792717 -52.911538 -8.505868
-35.944778 -47.510615 -23.471383
-35.946427 -47.856589 -24.367493
-36.438419 -46.08165 -23.772215
-35.944778 -47.510615 -23.471383
-35.954162 -47.151862 -22.596706
-37.820927 -41.000593 -23.031008
-37.830464 -40.695194 -22.194906
-35.449131 -45.420795 1.566796
-34.953465 -46.412558 1.857532
-35.685812 -44.805401 0.296247
-35.449131 -45.420795 1.566796
-35.953199 -44.326729 1.22039
-38.437261 -35.784958 -7.402076
-38.424478 -36.037907 -8.355266
-38.263233 -36.832283 -7.270461
-38.565073 -34.629008 -7.62399
-38.437261 -35.784958 -7.402076
-38.403827 -35.423383 -6.539184
-38.652287 -33.545355 -7.864715
-38.565073 -34.629008 -7.62399
-38.335318 -33.377844 7.733094
-38.398642 -34.391388 8.07394
-32.790398 -50.434279 -6.209188
-32.421475 -51.058889 -4.923453
-33.002834 -49.944405 -5.255826
-32.790398 -50.434279 -6.209188
-33.240908 -49.68957 -7.453612
-32.486206 -51.295189 -7.972466
-32.035696 -52.039898 -6.728042
-33.528773 -49.364023 -9.640847
-33.660826 -48.945896 -8.762549
-34.079541 -48.250574 -10.037733
-32.986109 -50.49115 -9.219938
-33.528773 -49.364023 -9.640847
-33.404824 -49.795828 -10.495123
-32.362257 -51.726994 -8.826742
-32.486206 -51.295189 -7.972466
-32.986109 -50.49115 -9.219938
-32.29262 -52.107499 -9.75334
-31.792717 -52.911538 -8.505868
-32.362257 -51.726994 -8.826742
-32.29262 -52.107499 -9.75334
-32.750565 -51.403716 -10.890746
-34.200516 -49.00203 -14.606024
-33.7444 -49.791407 -13.415931
-34.28833 -48.531538 -13.798609
-34.136337 -49.462872 -15.43995
-34.200516 -49.00203 -14.606024
-34.680267 -48.203003 -15.822627
-34.057562 -50.01338 -16.302448
-34.136337 -49.462872 -15.43995
-34.584886 -49.100668 -17.505477
-34.057562 -50.01338 -16.302448
-35.069009 -48.189881 -18.680806
-34.584886 -49.100668 -17.505477
-35.100212 -47.753057 -17.831882
-35.579982 -47.197394 -19.840578
-35.069009 -48.189881 -18.680806
-36.06389 -45.839321 -20.207878
-36.059538 -46.194445 -21.041244
-35.579982 -47.197394 -19.840578
-37.009254 -42.792637 -19.963448
-36.576908 -43.822559 -18.813612
-36.999843 -42.532876 -19.043325
-37.422743 -41.815363 -21.062623
-36.999808 -43.105047 -20.832911
-37.009254 -42.792637 -19.963448
-37.830464 -40.695194 -22.194906
-37.422743 -41.815363 -21.062623
-39.534267 -32.31164 -17.539759
-39.312196 -33.257111 -16.497207
-39.727009 -31.322856 -18.621378
-39.534267 -32.31164 -17.539759
-39.717811 -31.044114 -17.755144
-39.94564 -30.226792 -19.680314
-39.727009 -31.322856 -18.621378
-40.014921 -28.813443 -19.01032
-39.845114 -29.921579 -17.94279
-40.090847 -28.953031 -19.89383
-40.014921 -28.813443 -19.01032
-39.94564 -30.226792 -19.680314
-40.090847 -28.953031 -19.89383
-32.469942 -50.784699 -1.806072
-32.761421 -50.270113 -0.992829
-32.858862 -50.136342 -3.111485
-32.244991 -51.217373 -2.66468
-32.469942 -50.784699 -1.806072
-34.656371 -46.907337 0.943208
-34.953465 -46.412558 1.857532
-34.656371 -46.907337 0.943208
-34.94636 -46.309244 -0.319032
-34.996626 -46.102348 -2.53949
-35.234135 -45.638975 -1.616227
-35.519785 -45.022302 -2.874998
-34.443549 -47.204574 -2.135073
-34.996626 -46.102348 -2.53949
-34.729199 -46.587902 -3.393845
-33.880961 -48.262241 -1.677752
-34.443549 -47.204574 -2.135073
-33.629967 -48.696898 -2.621154
-33.334806 -49.269011 -1.309477
-33.880961 -48.262241 -1.677752
-36.517071 -42.850378 -13.514509
-36.418825 -43.212217 -14.387401
-36.020052 -44.129998 -13.173872
-36.967808 -41.697717 -13.765331
-36.517071 -42.850378 -13.514509
-36.569035 -42.615498 -12.551803
-37.376175 -40.51623 -13.996647
-36.967808 -41.697717 -13.765331
-37.795526 -39.297848 -14.384689
-37.376175 -40.51623 -13.996647
-37.439124 -40.244455 -13.190665
-38.174353 -38.028666 -14.698987
-37.795526 -39.297848 -14.384689
-38.526367 -36.781588 -14.970735
-38.174353 -38.028666 -14.698987
-38.210489 -37.778995 -13.850455
-38.830913 -35.50662 -15.221546
-38.526367 -36.781588 -14.970735
-38.38949 -36.62718 -10.191608
-38.199064 -37.414681 -9.086196
-38.440876 -36.297731 -9.329064
-38.385818 -36.864367 -11.127737
-38.38949 -36.62718 -10.191608
-38.62763 -35.747417 -11.370604
-39.085283 -34.329458 -15.422857
-38.830913 -35.50662 -15.221546
-38.816873 -35.354755 -14.323514
-39.298157 -33.105246 -15.599175
-39.312196 -33.257111 -16.497207
-39.085283 -34.329458 -15.422857
-39.459238 -31.978124 -15.727294
-39.298157 -33.105246 -15.599175
-39.232325 -33.050471 -14.652943
-39.652372 -30.910363 -16.861171
-39.459238 -31.978124 -15.727294
-39.211685 -32.801868 -13.70353
-39.153554 -32.462072 -12.878082
-39.488173 -30.682474 -15.010729
-39.430042 -30.342679 -14.185282
-39.681307 -29.614713 -16.144607
-39.488173 -30.682474 -15.010729
-39.729481 -28.401602 -16.276222
-39.827849 -28.574716 -17.180433
-39.681307 -29.614713 -16.144607
-39.700016 -27.269445 -16.313628
-39.729481 -28.401602 -16.276222
-39.553475 -28.309442 -15.277802
-39.827537 -26.23416 -17.376541
-39.700016 -27.269445 -16.313628
-36.469942 -43.290447 2.861064
-36.179518 -43.855396 2.068696
-36.864719 -42.265958 2.549872
-36.469942 -43.290447 2.861064
-37.223156 -41.223349 2.267399
-37.000953 -41.726059 1.36398
-36.864719 -42.265958 2.549872
-37.51827 -40.169742 1.864641
-37.223156 -41.223349 2.267399
-37.382036 -40.709642 3.050534
-38.020546 -38.406851 6.523579
-38.163393 -37.816698 7.384365
-37.900913 -39.028335 5.675868
-38.020546 -38.406851 6.523579
-38.058689 -38.027502 5.262484
-37.732042 -39.594229 4.798057
-37.900913 -39.028335 5.675868
-37.808104 -39.152512 3.531275
-37.60109 -40.097753 3.914557
-37.732042 -39.594229 4.798057
-37.643684 -28.873984 7.697946
-37.342975 -27.922419 7.225113
-37.943453 -29.862471 8.232458
-37.643684 -28.873984 7.697946
-37.689818 -29.683136 7.15488
-38.175686 -30.895071 8.768165
-37.943453 -29.862471 8.232458
-38.173703 -31.698855 8.12181
-38.175686 -30.895071 8.768165
-38.209024 -32.394503 7.439514
-38.173703 -31.698855 8.12181
-38.024908 -31.367272 7.007096
-38.186523 -33.046261 6.61838
-38.335318 -33.377844 7.733094
-38.209024 -32.394503 7.439514
-36.575854 -27.731334 3.549101
-36.384142 -27.078242 4.156375
-36.970358 -28.669524 3.907561
-36.575854 -27.731334 3.549101
-36.702884 -28.340958 2.826658
-37.243631 -29.820606 2.446465
-36.892227 -28.854501 2.14815
-37.038469 -29.395958 1.409498
-38.321022 -34.442818 -3.793874
-38.227404 -34.00725 -2.981317
-38.290789 -33.376528 -4.045849
-38.341498 -34.830213 -4.718871
-38.278113 -35.460936 -3.654339
-38.321022 -34.442818 -3.793874
-38.458023 -34.039764 -5.809752
-38.415114 -35.057882 -5.670217
-38.341498 -34.830213 -4.718871
-38.532839 -33.19654 -6.937867
-38.458023 -34.039764 -5.809752
-38.652287 -33.545355 -7.864715
-38.532839 -33.19654 -6.937867
-39.940756 -20.719394 -20.465042
-40.104046 -21.902969 -20.421849
-40.023111 -19.73337 -21.328194
-39.940756 -20.719394 -20.465042
-40.281206 -19.769747 -22.25224
-40.023111 -19.73337 -21.328194
-32.042501 -51.63999 -3.599006
-32.421475 -51.058889 -4.923453
-31.412529 -53.197443 -6.243106
-31.28843 -53.652466 -7.194109
-36.387739 -46.876976 -25.579632
-35.946427 -47.856589 -24.367493
-36.819193 -45.795134 -26.753622
-36.387739 -46.876976 -25.579632
-36.860489 -45.358561 -25.820881
-37.256407 -44.624139 -27.913006
-36.819193 -45.795134 -26.753622
-37.68306 -43.132401 -28.158388
-37.256407 -44.624139 -27.913006
-38.121555 -41.596807 -28.453789
-37.68306 -43.132401 -28.158388
-37.730439 -42.741125 -27.290273
-38.513596 -40.054603 -28.663213
-38.121555 -41.596807 -28.453789
-36.495625 -45.279635 -22.153041
-36.011716 -46.637707 -21.785742
-36.059538 -46.194445 -21.041244
-37.8219 -41.28078 -23.823854
-37.414269 -42.407961 -22.724932
-37.820927 -41.000593 -23.031008
-37.787069 -41.672863 -24.600352
-37.8219 -41.28078 -23.823854
-38.193728 -40.265496 -24.906428
-38.533417 -39.743145 -27.772362
-38.163916 -40.931555 -26.6343
-38.528399 -39.469168 -26.820988
-38.513596 -40.054603 -28.663213
-38.533417 -39.743145 -27.772362
-36.834063 -42.300956 -15.562854
-36.337044 -43.580576 -15.222217
-36.418825 -43.212217 -14.387401
-37.179894 -41.435478 -16.691874
-36.834063 -42.300956 -15.562854
-37.148018 -41.694586 -17.508601
-37.179894 -41.435478 -16.691874
3 0 27 25
3 0 29 27
3 1 32 30
3 1 34 32
3 1 36 34
3 103 102 37
3 3 40 38
3 3 42 40
3 3 44 42
3 4 104 105
3 4 106 108
3 106 46 107
3 106 107 108
3 109 47 110
3 111 49 112
3 113 112 47
3 111 112 113
3 114 51 115
3 116 53 117
3 118 117 51
3 116 117 118
3 120 119 53
3 2 121 122
3 123 56 124
3 5 125 127
3 125 58 126
3 125 126 127
3 7 59 26
3 7 60 59
3 7 62 60
3 9 63 28
3 9 64 63
3 10 128 130
3 130 129 65
3 128 129 130
3 12 66 31
3 12 131 133
3 133 132 66
3 131 132 133
3 12 134 135
3 13 67 33
3 13 68 67
3 13 70 68
3 137 136 35
3 138 72 139
3 140 139 71
3 138 139 140
3 15 141 142
3 15 143 144
3 145 73 146
3 6 147 149
3 149 148 57
3 147 148 149
3 16 74 39
3 16 75 74
3 16 76 75
3 17 77 41
3 17 78 77
3 17 79 78
3 18 80 43
3 18 81 80
3 8 82 61
3 19 150 152
3 150 83 151
3 150 151 152
3 19 84 83
3 19 153 155
3 155 154 84
3 153 154 155
3 156 85 157
3 159 158 85
3 160 86 161
3 20 87 45
3 20 88 87
3 21 89 48
3 21 90 89
3 162 91 163
3 22 92 50
3 22 93 92
3 22 94 93
3 23 95 52
3 23 96 95
3 23 97 96
3 165 164 54
3 11 166 167
3 24 98 55
3 24 99 98
3 14 100 69
3 168 101 169
3 171 170 101
3 25 26 5
3 27 26 25
3 27 7 26
3 27 28 7
3 29 28 27
3 29 9 28
3 30 31 10
3 32 31 30
3 32 12 31
3 32 33 12
3 34 33 32
3 34 13 33
3 34 35 13
3 36 35 34
3 36 172 174
3 174 173 35
3 172 173 174
3 37 175 176
3 178 177 37
3 179 15 180
3 38 39 6
3 40 39 38
3 40 16 39
3 40 41 16
3 42 41 40
3 42 17 41
3 42 43 17
3 44 43 42
3 44 18 43
3 182 181 8
3 183 19 184
3 186 185 19
3 187 45 188
3 46 189 191
3 189 45 190
3 189 190 191
3 46 20 45
3 47 192 193
3 47 194 195
3 47 196 198
3 196 48 197
3 196 197 198
3 49 48 47
3 49 21 48
3 199 50 200
3 51 201 203
3 201 50 202
3 201 202 203
3 51 22 50
3 51 52 22
3 53 52 51
3 53 23 52
3 53 54 23
3 204 54 205
3 206 205 53
3 204 205 206
3 208 207 54
3 210 209 11
3 211 55 212
3 56 213 215
3 213 55 214
3 213 214 215
3 56 24 55
3 217 216 14
3 218 57 219
3 58 220 222
3 220 57 221
3 220 221 222
3 58 6 57
3 26 58 5
3 59 58 26
3 59 6 58
3 59 38 6
3 60 38 59
3 60 3 38
3 60 61 3
3 62 61 60
3 62 8 61
3 28 62 7
3 63 62 28
3 63 8 62
3 63 223 225
3 225 224 8
3 223 224 225
3 64 226 228
3 228 227 63
3 226 227 228
3 64 229 230
3 231 4 232
3 65 233 235
3 235 234 2
3 233 234 235
3 237 236 65
3 238 11 239
3 31 240 242
3 242 241 10
3 240 241 242
3 66 243 245
3 245 244 31
3 243 244 245
3 66 246 248
3 246 11 247
3 246 247 248
3 66 249 251
3 251 250 11
3 249 250 251
3 253 252 66
3 33 254 256
3 256 255 12
3 254 255 256
3 67 257 259
3 259 258 33
3 257 258 259
3 67 260 261
3 67 262 263
3 68 264 266
3 266 265 67
3 264 265 266
3 68 267 268
3 68 269 271
3 269 69 270
3 269 270 271
3 70 69 68
3 70 14 69
3 35 70 13
3 272 70 273
3 274 273 35
3 272 273 274
3 275 14 276
3 277 276 70
3 275 276 277
3 279 278 14
3 71 280 281
3 72 282 284
3 284 283 71
3 282 283 284
3 72 285 286
3 287 72 288
3 289 72 290
3 292 291 72
3 73 293 294
3 73 295 297
3 295 2 296
3 295 296 297
3 57 298 299
3 301 300 57
3 39 302 304
3 304 303 6
3 302 303 304
3 74 305 307
3 307 306 39
3 305 306 307
3 74 308 309
3 74 310 312
3 310 73 311
3 310 311 312
3 75 73 74
3 75 2 73
3 75 65 2
3 76 65 75
3 76 10 65
3 41 76 16
3 77 76 41
3 77 10 76
3 77 30 10
3 78 30 77
3 78 1 30
3 78 313 315
3 315 314 1
3 313 314 315
3 79 316 318
3 318 317 78
3 316 317 318
3 79 319 320
3 43 79 17
3 80 79 43
3 80 321 323
3 323 322 79
3 321 322 323
3 80 324 325
3 81 326 328
3 328 327 80
3 326 327 328
3 81 329 330
3 61 44 3
3 82 44 61
3 82 18 44
3 331 82 332
3 333 332 8
3 331 332 333
3 83 334 336
3 334 82 335
3 334 335 336
3 83 18 82
3 83 81 18
3 84 81 83
3 84 337 339
3 339 338 81
3 337 338 339
3 84 340 342
3 340 71 341
3 340 341 342
3 343 71 344
3 345 344 84
3 343 344 345
3 347 346 71
3 349 348 19
3 85 350 351
3 85 352 353
3 85 354 356
3 354 37 355
3 354 355 356
3 357 37 358
3 359 358 85
3 357 358 359
3 361 360 37
3 362 5 363
3 364 5 365
3 366 25 367
3 368 367 5
3 366 367 368
3 86 369 371
3 369 25 370
3 369 370 371
3 86 0 25
3 45 372 373
3 87 374 376
3 376 375 45
3 374 375 376
3 87 377 378
3 87 379 381
3 379 86 380
3 379 380 381
3 88 86 87
3 88 0 86
3 48 382 383
3 89 384 386
3 386 385 48
3 384 385 386
3 89 387 388
3 89 389 390
3 90 391 393
3 393 392 89
3 391 392 393
3 90 394 396
3 394 4 395
3 394 395 396
3 397 49 398
3 91 399 401
3 399 49 400
3 399 400 401
3 91 21 49
3 50 402 404
3 402 91 403
3 402 403 404
3 92 91 50
3 92 21 91
3 92 90 21
3 93 90 92
3 93 4 90
3 93 46 4
3 94 46 93
3 94 20 46
3 52 94 22
3 95 94 52
3 95 20 94
3 95 88 20
3 96 88 95
3 96 0 88
3 96 29 0
3 97 29 96
3 97 9 29
3 54 97 23
3 405 97 406
3 407 406 54
3 405 406 407
3 408 9 409
3 410 409 97
3 408 409 410
3 411 64 412
3 413 412 9
3 411 412 413
3 414 64 415
3 417 416 64
3 418 15 419
3 420 15 421
3 423 422 15
3 425 424 2
3 427 426 11
3 55 428 429
3 98 430 432
3 432 431 55
3 430 431 432
3 98 433 434
3 98 435 436
3 99 437 439
3 439 438 98
3 437 438 439
3 99 440 441
3 69 442 444
3 442 56 443
3 442 443 444
3 100 56 69
3 100 24 56
3 445 100 446
3 447 446 14
3 445 446 447
3 101 448 450
3 448 100 449
3 448 449 450
3 101 24 100
3 101 99 24
3 451 99 452
3 453 452 101
3 451 452 453
3 455 454 99
3 456 36 457
3 458 457 1
3 456 457 458
3 459 36 460
3 462 461 36
