ply
format ascii 1.0
element vertex 312
property float x
property float y
property float z
element face 287
property list uchar int vertex_index
end_header
27.849581 -41.851936 -12.872649
26.031067 -67.790031 3.601604
24.975054 -53.520039 -11.647998
24.341116 -64.688133 -4.545337
27.342257 -57.203445 3.700397
26.188572 -55.039642 -4.454307
29.277662 -35.453976 -13.460328
26.425766 -40.592293 -16.819839
25.191818 -66.193169 -0.598374
26.425909 -62.500351 3.625637
25.686102 -61.236702 -0.56544
27.76811 -49.75716 -4.57391
26.722076 -56.146263 -0.661412
24.999043 -59.96138 -4.416683
24.493254 -58.73534 -7.669718
28.899755 -42.872055 -8.89602
27.158449 -48.855785 -8.468848
25.574558 -54.265606 -8.171091
28.593338 -38.528828 -13.215096
27.804094 -38.048683 -15.235498
27.163055 -41.378143 -14.843853
25.594769 -67.038483 1.366195
25.132839 -68.900864 -0.737081
25.587225 -69.71373 1.365887
26.747183 -63.26152 5.691831
26.146656 -65.071938 3.50967
25.740622 -64.392258 1.345937
24.004902 -63.835236 -6.203253
27.590662 -57.832985 5.81152
27.058954 -56.542385 1.454059
24.979809 -62.885078 -2.601972
25.350544 -60.429611 -2.573598
24.622284 -62.189617 -4.440406
24.296209 -61.570026 -6.147343
29.285952 -43.479084 -6.765782
28.032038 -45.88628 -8.684818
28.399048 -46.370453 -6.626885
26.912741 -52.49329 -4.570746
26.625528 -52.02039 -6.527701
25.935457 -54.489799 -6.29235
25.025408 -56.524788 -7.787255
25.243828 -57.125488 -6.136866
24.423147 -55.948299 -11.22771
28.968634 -31.65572 -15.963692
28.422806 -34.809761 -15.564109
24.735079 -65.469055 -2.698227
24.701426 -67.904427 -2.619664
27.417326 -60.98748 7.843766
27.138014 -60.459095 5.814732
26.824003 -59.891079 3.686486
26.496077 -59.210457 1.488867
26.068192 -61.891445 1.553664
25.339413 -63.70892 -0.705453
28.705404 -46.837624 -4.592784
28.045725 -50.135059 -2.648196
27.241957 -52.818691 -2.565288
27.063635 -45.088772 -12.591047
26.490856 -55.464546 -2.560739
26.115044 -58.74572 -0.678356
25.837782 -58.008774 -2.618954
25.50663 -57.603027 -4.480554
24.717676 -59.390434 -6.085328
24.045977 -60.877499 -7.663431
29.126173 -39.433975 -11.248112
29.813156 -39.562599 -9.12514
28.426571 -42.382648 -10.863597
27.581997 -45.493073 -10.652847
26.783024 -48.431049 -10.37763
25.988726 -51.282478 -10.148618
27.478479 -49.309689 -6.535113
26.30698 -51.670593 -8.372715
25.283615 -53.87989 -9.914827
24.695171 -56.258755 -9.587012
26.088862 -66.430984 3.555637
26.346609 -65.457592 4.656778
26.288815 -66.816638 4.702744
24.822195 -53.304003 -12.497733
25.327723 -52.156067 -11.755356
24.099894 -65.446872 -5.423094
23.931787 -65.020424 -6.252052
24.173009 -64.261685 -5.374295
27.780285 -56.037544 4.766123
27.904487 -56.352314 5.821685
27.466459 -57.518215 4.755959
27.662873 -55.827211 3.717798
27.780285 -56.037544 4.766123
27.200606 -56.872915 2.577228
27.521222 -55.496681 2.594629
27.662873 -55.827211 3.717798
29.484547 -43.629244 -5.702172
29.947874 -42.059263 -5.85008
29.041095 -45.074928 -5.632723
28.8425 -44.924768 -6.696333
29.484547 -43.629244 -5.702172
24.073425 -56.957279 -11.788293
24.177772 -57.081446 -11.057756
28.850234 -35.131868 -14.512218
29.129456 -33.571099 -14.753045
29.556884 -33.893206 -13.701155
26.689754 -39.029587 -16.993452
27.378918 -37.757782 -16.201282
27.11493 -39.320488 -16.027669
26.007931 -40.230228 -17.758997
26.689754 -39.029587 -16.993452
24.94825 -69.705342 -1.769401
25.186274 -70.143238 -0.753008
27.275946 -62.318314 7.938358
27.575457 -61.25226 9.05966
28.153577 -50.417309 -1.627493
28.597503 -48.983617 -1.621541
27.751693 -51.759124 -1.586039
27.643841 -51.476875 -2.606742
28.153577 -50.417309 -1.627493
26.484729 -46.226431 -13.370503
26.720883 -46.531948 -12.397679
28.37769 -31.475456 -17.064121
28.175239 -32.992407 -16.817018
27.10804 -54.787759 -0.552129
27.229278 -55.032246 0.445515
26.606466 -55.805404 -1.611075
26.99243 -54.446901 -1.501793
27.10804 -54.787759 -0.552129
23.879691 -61.999489 -7.686404
24.171093 -61.223762 -6.905387
24.004807 -62.345753 -6.92836
23.779518 -61.539174 -8.357589
23.879691 -61.999489 -7.686404
29.862827 -37.947778 -10.329375
29.563495 -37.703432 -11.335141
29.356455 -41.217327 -9.01058
29.997972 -39.949676 -8.091385
29.541272 -41.604405 -7.976825
24.357845 -58.558779 -8.462706
24.623922 -57.453502 -8.521474
24.759331 -57.630064 -7.728486
24.150908 -59.551418 -8.388296
24.357845 -58.558779 -8.462706
25.413467 -70.549671 0.298477
25.186274 -70.143238 -0.753008
25.360032 -69.307297 0.314403
26.646873 -64.552383 5.747858
26.940875 -63.455333 6.862391
26.446919 -64.166729 4.600751
26.646873 -64.552383 5.747858
26.346609 -65.457592 4.656778
23.758089 -64.601304 -7.067385
23.859154 -63.478358 -6.956315
23.758089 -64.601304 -7.067385
23.931787 -65.020424 -6.252052
27.967642 -56.725223 6.817716
27.725013 -58.055228 6.885938
27.967642 -56.725223 6.817716
27.904487 -56.352314 5.821685
27.397717 -55.230306 1.503251
27.521222 -55.496681 2.594629
26.890515 -56.344324 0.396323
27.229278 -55.032246 0.445515
27.397717 -55.230306 1.503251
23.859154 -63.478358 -6.956315
24.004807 -62.345753 -6.92836
24.150556 -62.702631 -6.175298
29.734371 -41.907919 -6.911706
29.947874 -42.059263 -5.85008
29.092854 -43.17557 -7.830901
29.541272 -41.604405 -7.976825
29.734371 -41.907919 -6.911706
24.272327 -55.839405 -12.072452
24.548281 -54.625275 -12.282596
24.699101 -54.734169 -11.437854
24.272327 -55.839405 -12.072452
24.073425 -56.957279 -11.788293
29.40237 -31.994078 -14.952837
29.703505 -30.390696 -15.142651
28.69572 -33.23274 -15.763901
29.40237 -31.994078 -14.952837
29.129456 -33.571099 -14.753045
27.902325 -34.569428 -16.617227
28.175239 -32.992407 -16.817018
28.69572 -33.23274 -15.763901
27.688274 -36.138321 -16.365587
28.11345 -36.429222 -15.399804
27.378918 -37.757782 -16.201282
27.902325 -34.569428 -16.617227
27.688274 -36.138321 -16.365587
24.492775 -66.359261 -3.631384
24.295794 -65.968799 -4.554939
24.538097 -65.078594 -3.621782
24.475949 -67.576946 -3.592103
24.492775 -66.359261 -3.631384
24.718252 -66.686741 -2.658946
24.512901 -68.767162 -3.60427
24.475949 -67.576946 -3.592103
24.732543 -69.207123 -2.710693
24.917133 -68.402646 -1.678373
24.94825 -69.705342 -1.769401
24.512901 -68.767162 -3.60427
24.732543 -69.207123 -2.710693
27.742227 -59.984547 9.001571
27.900359 -60.249327 10.217465
27.575457 -61.25226 9.05966
27.638345 -59.632475 7.902061
27.742227 -59.984547 9.001571
27.082254 -62.1245 6.767798
27.275946 -62.318314 7.938358
26.940875 -63.455333 6.862391
27.498689 -59.368282 6.887544
27.638345 -59.632475 7.902061
27.27767 -60.723287 6.829249
27.364338 -59.14604 5.813126
27.725013 -58.055228 6.885938
27.498689 -59.368282 6.887544
29.33101 -45.541483 -3.554215
29.194273 -45.308514 -4.615673
28.843223 -47.007566 -3.637039
29.33101 -45.541483 -3.554215
28.374575 -48.467334 -3.627602
28.236757 -48.297392 -4.583347
28.843223 -47.007566 -3.637039
28.513383 -48.656284 -2.664745
28.597503 -48.983617 -1.621541
27.906917 -49.946109 -3.611053
28.374575 -48.467334 -3.627602
28.513383 -48.656284 -2.664745
26.819083 -44.685389 -13.540887
27.212055 -43.06697 -13.681688
27.456608 -43.470354 -12.731848
26.819083 -44.685389 -13.540887
26.484729 -46.226431 -13.370503
24.822195 -53.304003 -12.497733
24.548281 -54.625275 -12.282596
26.215916 -69.482681 4.674632
26.01576 -69.082043 3.546761
26.231222 -68.19067 4.729475
26.231222 -68.19067 4.729475
26.288815 -66.816638 4.702744
29.172023 -30.110831 -16.2713
29.703505 -30.390696 -15.142651
29.172023 -30.110831 -16.2713
28.37769 -31.475456 -17.064121
26.868792 -42.830074 -14.66729
27.506318 -41.61504 -13.858251
27.212055 -43.06697 -13.681688
26.516396 -42.514263 -15.681974
26.868792 -42.830074 -14.66729
26.147752 -42.121338 -16.669967
26.79441 -40.985218 -15.831846
26.516396 -42.514263 -15.681974
25.767241 -41.801544 -17.610116
26.147752 -42.121338 -16.669967
26.007931 -40.230228 -17.758997
25.767241 -41.801544 -17.610116
24.099894 -65.446872 -5.423094
24.295794 -65.968799 -4.554939
25.79384 -70.043892 2.428902
25.809146 -68.75188 2.483745
26.01576 -69.082043 3.546761
25.643124 -70.969238 1.368563
25.79384 -70.043892 2.428902
25.413467 -70.549671 0.298477
25.643124 -70.969238 1.368563
27.36798 -53.123974 -1.504067
27.751693 -51.759124 -1.586039
26.866407 -54.141618 -2.563013
27.36798 -53.123974 -1.504067
26.99243 -54.446901 -1.501793
23.927269 -60.622498 -8.385153
24.150908 -59.551418 -8.388296
24.269616 -59.80642 -7.666574
23.927269 -60.622498 -8.385153
23.779518 -61.539174 -8.357589
29.98719 -34.092661 -12.625549
29.556884 -33.893206 -13.701155
29.639239 -35.713432 -12.441249
29.98719 -34.092661 -12.625549
29.297077 -37.250858 -12.318633
28.9355 -36.991402 -13.337712
29.639239 -35.713432 -12.441249
28.859755 -38.981401 -12.231604
29.297077 -37.250858 -12.318633
29.563495 -37.703432 -11.335141
30.450454 -38.367525 -8.148914
29.997972 -39.949676 -8.091385
30.206318 -38.01209 -9.267889
30.450454 -38.367525 -8.148914
29.469665 -39.498287 -10.186626
29.862827 -37.947778 -10.329375
30.206318 -38.01209 -9.267889
26.980063 -46.734099 -11.428579
26.720883 -46.531948 -12.397679
27.322816 -45.290923 -11.621947
26.580577 -48.203086 -11.290971
26.980063 -46.734099 -11.428579
27.18251 -46.962061 -10.515238
26.231708 -49.611572 -11.120171
26.580577 -48.203086 -11.290971
25.834559 -51.037287 -11.005665
26.231708 -49.611572 -11.120171
26.385875 -49.856763 -10.263124
25.48189 -52.401258 -10.898308
25.327723 -52.156067 -11.755356
25.834559 -51.037287 -11.005665
28.552226 -46.604039 -5.609834
29.041095 -45.074928 -5.632723
29.194273 -45.308514 -4.615673
24.313784 -57.236674 -10.237407
24.177772 -57.081446 -11.057756
24.559159 -56.103527 -10.407361
24.458804 -57.320486 -9.421353
24.86029 -56.391772 -8.687133
24.623922 -57.453502 -8.521474
24.313784 -57.236674 -10.237407
24.458804 -57.320486 -9.421353
3 0 20 18
3 1 23 21
3 1 73 75
3 73 25 74
3 73 74 75
3 1 21 25
3 2 76 77
3 3 78 80
3 80 79 27
3 78 79 80
3 4 81 83
3 83 82 28
3 81 82 83
3 4 84 85
3 4 86 88
3 86 29 87
3 86 87 88
3 3 32 30
3 3 27 32
3 89 34 90
3 91 36 92
3 93 92 34
3 91 92 93
3 5 39 37
3 5 41 39
3 95 94 42
3 6 96 98
3 96 44 97
3 96 97 98
3 7 99 101
3 101 100 19
3 99 100 101
3 7 102 103
3 8 46 45
3 105 104 22
3 106 47 107
3 9 48 24
3 9 49 48
3 9 51 49
3 8 52 26
3 8 45 52
3 108 54 109
3 110 55 111
3 112 111 54
3 110 111 112
3 114 113 56
3 116 115 43
3 12 117 118
3 12 119 121
3 119 57 120
3 119 120 121
3 10 58 50
3 13 59 31
3 13 60 59
3 13 61 60
3 122 62 123
3 124 123 33
3 122 123 124
3 126 125 62
3 127 63 128
3 15 129 131
3 129 64 130
3 129 130 131
3 15 65 64
3 15 66 65
3 16 67 35
3 16 68 67
3 11 69 53
3 17 70 38
3 17 71 70
3 17 72 71
3 14 132 134
3 134 133 40
3 132 133 134
3 14 135 136
3 18 19 6
3 20 19 18
3 20 7 19
3 21 22 8
3 23 22 21
3 23 137 139
3 139 138 22
3 137 138 139
3 140 24 141
3 25 142 144
3 142 24 143
3 142 143 144
3 25 9 24
3 25 26 9
3 21 26 25
3 21 8 26
3 27 145 146
3 148 147 27
3 28 149 150
3 152 151 28
3 29 153 154
3 29 155 157
3 155 12 156
3 155 156 157
3 30 31 10
3 32 31 30
3 32 13 31
3 32 33 13
3 27 33 32
3 27 158 160
3 160 159 33
3 158 159 160
3 34 161 162
3 34 163 165
3 163 15 164
3 163 164 165
3 34 35 15
3 36 35 34
3 36 16 35
3 37 38 11
3 39 38 37
3 39 17 38
3 39 40 17
3 41 40 39
3 41 14 40
3 42 166 168
3 168 167 2
3 166 167 168
3 170 169 42
3 171 43 172
3 44 173 175
3 173 43 174
3 173 174 175
3 44 176 178
3 178 177 43
3 176 177 178
3 19 44 6
3 179 44 180
3 181 180 19
3 179 180 181
3 183 182 44
3 45 184 186
3 186 185 3
3 184 185 186
3 46 187 189
3 189 188 45
3 187 188 189
3 46 190 191
3 22 46 8
3 192 46 193
3 194 193 22
3 192 193 194
3 196 195 46
3 47 197 199
3 197 198 199
3 47 200 201
3 24 202 204
3 202 47 203
3 202 203 204
3 48 47 24
3 48 205 207
3 207 206 47
3 205 206 207
3 48 208 210
3 208 28 209
3 208 209 210
3 49 28 48
3 49 4 28
3 49 50 4
3 51 50 49
3 51 10 50
3 26 51 9
3 52 51 26
3 52 10 51
3 52 30 10
3 45 30 52
3 45 3 30
3 211 53 212
3 213 53 214
3 215 11 216
3 217 216 53
3 215 216 217
3 54 218 219
3 54 220 222
3 220 11 221
3 220 221 222
3 54 37 11
3 55 37 54
3 55 5 37
3 56 223 225
3 225 224 0
3 223 224 225
3 227 226 56
3 229 228 2
3 232 231 1
3 230 231 232
3 233 1 234
3 43 235 236
3 238 237 43
3 239 20 240
3 241 240 0
3 239 240 241
3 242 20 243
3 244 7 245
3 246 245 20
3 244 245 246
3 247 7 248
3 250 249 7
3 252 251 3
3 253 23 254
3 255 254 1
3 253 254 255
3 256 23 257
3 259 258 23
3 260 55 261
3 57 262 264
3 262 55 263
3 262 263 264
3 57 5 55
3 50 29 4
3 58 29 50
3 58 12 29
3 31 58 10
3 59 58 31
3 59 12 58
3 59 57 12
3 60 57 59
3 60 5 57
3 60 41 5
3 61 41 60
3 61 14 41
3 33 61 13
3 62 61 33
3 62 14 61
3 62 265 267
3 267 266 14
3 265 266 267
3 269 268 62
3 270 6 271
3 272 6 273
3 274 18 275
3 276 275 6
3 274 275 276
3 63 277 279
3 277 18 278
3 277 278 279
3 63 0 18
3 64 280 281
3 64 282 283
3 64 284 286
3 284 63 285
3 284 285 286
3 65 63 64
3 65 0 63
3 65 56 0
3 66 56 65
3 66 287 289
3 289 288 56
3 287 288 289
3 35 66 15
3 67 66 35
3 67 290 292
3 292 291 66
3 290 291 292
3 67 293 294
3 68 295 297
3 297 296 67
3 295 296 297
3 68 298 300
3 298 2 299
3 298 299 300
3 53 301 303
3 301 36 302
3 301 302 303
3 69 36 53
3 69 16 36
3 38 69 11
3 70 69 38
3 70 16 69
3 70 68 16
3 71 68 70
3 71 2 68
3 71 42 2
3 72 42 71
3 72 304 306
3 306 305 42
3 304 305 306
3 40 72 17
3 307 72 308
3 309 308 40
3 307 308 309
3 311 310 72
