ply
format ascii 1.0
element vertex 271
property float x
property float y
property float z
element face 223
property list uchar int vertex_index
end_header
5.284311 -63.261143 -42.738468
7.855089 -79.010498 -40.830818
-2.374292 -65.592621 -45.792557
-3.60207 -49.729492 -48.395729
2.803171 -47.152935 -45.388348
6.49202 -71.121994 -41.80257
11.434577 -77.039612 -38.915081
9.716108 -69.168526 -39.992256
2.698662 -72.485641 -43.400784
1.789033 -64.980858 -44.320984
0.615734 -56.685314 -45.567657
-3.047069 -57.825245 -46.971611
-7.676212 -49.933796 -49.852737
-0.235076 -48.601665 -46.975304
5.79713 -67.195511 -42.30468
8.152143 -70.190788 -40.939384
7.41484 -66.076859 -41.446491
9.032491 -65.401031 -40.448307
0.225655 -69.180878 -44.571678
2.212024 -68.793121 -43.858849
-0.218069 -65.318939 -45.091198
-0.825509 -61.315094 -45.719376
-2.788043 -61.6273 -46.394554
-7.463145 -53.843575 -49.023716
-17.891094 -74.590431 -40.698994
8.310672 -82.360535 -40.418266
12.805209 -75.720886 -37.979942
-1.617856 -53.342098 -46.987194
0.150432 -52.655785 -46.237511
-1.917423 -49.201855 -47.723881
7.065114 -74.978462 -41.381111
9.519958 -77.758293 -40.027882
8.949964 -74.299194 -40.414776
10.490581 -73.084496 -39.506184
11.982602 -71.8498 -38.478333
-4.021502 -45.531746 -49.334194
5.690963 -79.178207 -41.764179
5.238058 -75.62394 -42.181332
4.533722 -71.737343 -42.697124
4.048013 -67.947609 -43.123352
3.546649 -63.962856 -43.591965
1.186299 -61.042957 -44.903793
-1.16364 -57.328369 -46.30019
-3.508082 -53.624573 -47.743881
-7.689856 -46.148842 -50.66507
-17.968643 -71.898132 -42.258404
2.522916 -56.273613 -44.648689
1.335036 -48.027939 -46.187626
-2.157278 -45.446445 -48.467297
-0.571574 -44.62833 -47.777279
6.086967 -62.742044 -42.297821
7.152232 -64.149902 -41.651832
6.349576 -64.669001 -42.092479
4.947463 -61.324787 -43.018713
6.086967 -62.742044 -42.297821
-1.074318 -67.38675 -45.182118
-0.928579 -69.284592 -44.916277
-2.228552 -67.490464 -45.526717
-18.947126 -74.024746 -40.062882
-17.755843 -75.916675 -39.890627
9.115642 -80.270447 -40.138962
9.343433 -81.945465 -39.932686
8.08288 -80.685517 -40.624542
13.796127 -76.717713 -37.253729
13.45432 -74.885372 -37.452863
3.45009 -46.66248 -44.987227
3.770365 -48.651399 -44.607468
2.484589 -45.091352 -45.849225
3.45009 -46.66248 -44.987227
10.408847 -68.428272 -39.510266
11.542094 -69.76891 -38.753304
10.849355 -70.509163 -39.235294
9.643269 -64.636438 -40.024586
8.632884 -63.339228 -40.738018
4.612959 -79.429767 -42.127747
5.892238 -80.932602 -41.531401
2.856631 -74.245883 -43.207167
1.558773 -72.606563 -43.784662
3.96836 -74.05479 -42.791058
4.126329 -75.815033 -42.597441
2.856631 -74.245883 -43.207167
-6.514603 -51.959232 -49.104242
-6.408069 -53.914122 -48.689732
-7.569679 -51.888686 -49.438226
-6.649169 -50.050171 -49.484275
-6.514603 -51.959232 -49.104242
-7.683034 -48.041319 -50.258904
-6.655991 -48.157694 -49.890442
-6.649169 -50.050171 -49.484275
-19.129706 -69.971706 -42.487984
-18.995094 -71.456604 -41.696909
11.76092 -78.842254 -38.6969
10.803611 -79.201595 -39.2533
10.477267 -77.398953 -39.471481
1.569325 -56.479463 -45.108173
2.707281 -58.201128 -44.405115
1.75369 -58.406978 -44.864599
0.782376 -50.330974 -46.210257
0.97513 -52.358035 -45.841361
-0.042322 -50.628725 -46.606408
0.54998 -48.314802 -46.581465
1.567432 -50.044111 -45.816418
0.782376 -50.330974 -46.210257
-3.138942 -43.593902 -49.315672
-3.08939 -45.489095 -48.900745
-4.071053 -43.636553 -49.74912
-0.733394 -42.669119 -48.22274
-1.491831 -43.011062 -48.580092
0.185459 -44.400869 -47.36838
-0.733394 -42.669119 -48.22274
7.961057 -63.811988 -41.152741
8.223665 -65.738945 -40.947399
7.152232 -64.149902 -41.651832
8.632884 -63.339228 -40.738018
7.961057 -63.811988 -41.152741
0.322269 -70.954182 -44.370109
-0.928579 -69.284592 -44.916277
1.462159 -70.833259 -43.986231
1.558773 -72.606563 -43.784662
0.322269 -70.954182 -44.370109
-8.467939 -53.87887 -49.257973
-7.336959 -55.839381 -48.629919
-8.546786 -51.897436 -49.703003
-8.467939 -53.87887 -49.257973
-8.653319 -49.942547 -50.117514
-7.569679 -51.888686 -49.438226
-8.546786 -51.897436 -49.703003
-8.666683 -48.004868 -50.57109
-8.653319 -49.942547 -50.117514
-16.799359 -76.312732 -40.506918
-17.755843 -75.916675 -39.890627
-16.756954 -75.168026 -41.227734
-16.799359 -76.312732 -40.506918
9.640667 -83.685627 -39.680568
8.514146 -83.974956 -40.18652
9.640667 -83.685627 -39.680568
9.343433 -81.945465 -39.932686
13.237637 -77.620674 -37.701555
12.552321 -78.280037 -38.169124
12.119893 -76.380249 -38.447512
13.237637 -77.620674 -37.701555
13.796127 -76.717713 -37.253729
-3.449643 -65.709469 -46.069313
-2.228552 -67.490464 -45.526717
-3.567888 -63.73814 -46.378084
-3.449643 -65.709469 -46.069313
13.043017 -72.949829 -37.702059
13.45432 -74.885372 -37.452863
12.393905 -73.785343 -38.229138
12.579357 -70.994404 -37.991169
13.043017 -72.949829 -37.702059
12.579357 -70.994404 -37.991169
11.542094 -69.76891 -38.753304
10.067038 -66.544525 -39.738291
10.408847 -68.428272 -39.510266
9.374299 -67.284779 -40.220281
10.067038 -66.544525 -39.738291
9.643269 -64.636438 -40.024586
3.071549 -49.165795 -45.017073
3.770365 -48.651399 -44.607468
-4.873907 -45.86281 -49.6294
-3.811786 -47.630619 -48.864961
-4.664191 -47.961683 -49.160168
-4.949653 -43.779835 -50.112213
-4.873907 -45.86281 -49.6294
-4.071053 -43.636553 -49.74912
-4.949653 -43.779835 -50.112213
7.202093 -82.523765 -40.858444
8.514146 -83.974956 -40.18652
7.000818 -80.769371 -41.091223
7.202093 -82.523765 -40.858444
5.892238 -80.932602 -41.531401
4.352781 -77.592166 -42.388864
4.612959 -79.429767 -42.127747
5.46451 -77.401073 -41.972755
4.352781 -77.592166 -42.388864
4.126329 -75.815033 -42.597441
3.219148 -62.045749 -43.876753
4.087979 -61.694893 -43.450004
4.41548 -63.611999 -43.165216
2.038972 -60.5858 -44.532667
3.219148 -62.045749 -43.876753
2.366474 -62.502907 -44.247879
0.901016 -58.864136 -45.235725
1.75369 -58.406978 -44.864599
2.038972 -60.5858 -44.532667
-3.774764 -61.755479 -46.679083
-2.581168 -63.60996 -46.093556
-3.567888 -63.73814 -46.378084
-3.984389 -59.643463 -47.051336
-3.774764 -61.755479 -46.679083
-4.113902 -57.742435 -47.339865
-2.917556 -59.726273 -46.683082
-3.984389 -59.643463 -47.051336
-6.32194 -55.751601 -48.365917
-7.336959 -55.839381 -48.629919
-6.32194 -55.751601 -48.365917
-6.408069 -53.914122 -48.689732
-4.200031 -55.904957 -47.663679
-4.113902 -57.742435 -47.339865
-4.430538 -53.804621 -48.049814
-3.277576 -55.724909 -47.357746
-4.200031 -55.904957 -47.663679
-4.565104 -51.895559 -48.429848
-4.430538 -53.804621 -48.049814
-4.612098 -49.948019 -48.755772
-3.555076 -51.677032 -48.069805
-4.565104 -51.895559 -48.429848
-4.664191 -47.961683 -49.160168
-4.612098 -49.948019 -48.755772
-6.708083 -46.171358 -50.294838
-6.655991 -48.157694 -49.890442
-7.643147 -44.250073 -51.086161
-6.708083 -46.171358 -50.294838
-8.673505 -46.112391 -50.977257
-7.683034 -48.041319 -50.258904
-8.666683 -48.004868 -50.57109
-8.653095 -44.233235 -51.438906
-8.673505 -46.112391 -50.977257
-7.643147 -44.250073 -51.086161
-8.653095 -44.233235 -51.438906
-18.956319 -72.802753 -40.917204
-18.947126 -74.024746 -40.062882
-17.929868 -73.244281 -41.478699
-18.956319 -72.802753 -40.917204
-18.995094 -71.456604 -41.696909
-16.795728 -73.821877 -42.007439
-16.756954 -75.168026 -41.227734
-17.929868 -73.244281 -41.478699
-18.122784 -70.430999 -42.930407
-19.129706 -69.971706 -42.487984
-16.888151 -72.341388 -42.713166
-18.122784 -70.430999 -42.930407
-16.795728 -73.821877 -42.007439
-16.888151 -72.341388 -42.713166
9.948076 -79.644344 -39.737493
9.115642 -80.270447 -40.138962
8.687524 -78.384395 -40.42935
9.948076 -79.644344 -39.737493
10.803611 -79.201595 -39.2533
11.76092 -78.842254 -38.6969
12.552321 -78.280037 -38.169124
4.947463 -61.324787 -43.018713
4.087979 -61.694893 -43.450004
3.566765 -57.831023 -43.973823
2.707281 -58.201128 -44.405115
3.261725 -55.727493 -44.285734
3.566765 -57.831023 -43.973823
2.161372 -54.166949 -45.046949
1.336674 -54.464699 -45.4431
0.97513 -52.358035 -45.841361
3.261725 -55.727493 -44.285734
2.161372 -54.166949 -45.046949
2.337481 -49.603296 -45.416712
1.567432 -50.044111 -45.816418
2.069103 -47.590437 -45.787987
3.071549 -49.165795 -45.017073
2.337481 -49.603296 -45.416712
-2.284683 -43.42012 -48.9251
-3.138942 -43.593902 -49.315672
-1.364426 -45.037387 -48.122288
-2.284683 -43.42012 -48.9251
-1.491831 -43.011062 -48.580092
1.138764 -46.100674 -46.573553
0.381731 -46.328135 -46.982453
0.185459 -44.400869 -47.36838
1.872831 -45.663172 -46.173914
2.069103 -47.590437 -45.787987
1.138764 -46.100674 -46.573553
2.484589 -45.091352 -45.849225
1.872831 -45.663172 -46.173914
3 0 16 14
3 0 50 52
3 52 51 16
3 50 51 52
3 0 53 54
3 2 55 57
3 55 18 56
3 55 56 57
3 2 20 18
3 2 22 20
3 58 24 59
3 1 60 62
3 62 61 25
3 60 61 62
3 64 63 26
3 4 65 66
3 4 67 68
3 3 29 27
3 5 32 30
3 7 33 15
3 7 34 33
3 7 69 71
3 71 70 34
3 69 70 71
3 73 72 17
3 74 36 75
3 8 76 77
3 8 78 80
3 78 37 79
3 78 79 80
3 8 38 37
3 9 39 19
3 9 40 39
3 9 41 40
3 11 42 21
3 11 43 42
3 12 81 83
3 83 82 23
3 81 82 83
3 12 84 85
3 12 86 88
3 86 44 87
3 86 87 88
3 89 45 90
3 6 91 93
3 93 92 31
3 91 92 93
3 10 94 96
3 94 46 95
3 94 95 96
3 13 97 99
3 99 98 28
3 97 98 99
3 13 100 102
3 100 47 101
3 100 101 102
3 103 48 104
3 105 104 35
3 103 104 105
3 106 49 107
3 109 108 49
3 14 15 5
3 16 15 14
3 16 7 15
3 16 17 7
3 110 17 111
3 112 111 16
3 110 111 112
3 114 113 17
3 18 115 116
3 18 117 119
3 117 8 118
3 117 118 119
3 18 19 8
3 20 19 18
3 20 9 19
3 20 21 9
3 22 21 20
3 22 11 21
3 120 23 121
3 122 23 123
3 124 12 125
3 126 125 23
3 124 125 126
3 128 127 12
3 24 129 130
3 24 131 132
3 25 133 134
3 136 135 25
3 26 137 139
3 139 138 6
3 137 138 139
3 141 140 26
3 27 28 10
3 29 28 27
3 29 13 28
3 142 2 143
3 145 144 2
3 30 31 1
3 32 31 30
3 32 6 31
3 15 32 5
3 33 32 15
3 33 6 32
3 33 26 6
3 34 26 33
3 34 146 148
3 148 147 26
3 146 147 148
3 34 149 150
3 152 151 34
3 17 153 155
3 155 154 7
3 153 154 155
3 157 156 17
3 158 4 159
3 160 35 161
3 162 161 3
3 160 161 162
3 163 35 164
3 166 165 35
3 167 25 168
3 36 169 171
3 169 25 170
3 169 170 171
3 36 1 25
3 172 36 173
3 37 174 176
3 174 36 175
3 174 175 176
3 37 1 36
3 37 30 1
3 38 30 37
3 38 5 30
3 19 38 8
3 39 38 19
3 39 5 38
3 39 14 5
3 40 14 39
3 40 0 14
3 40 177 179
3 179 178 0
3 177 178 179
3 41 180 182
3 182 181 40
3 180 181 182
3 41 183 185
3 183 10 184
3 183 184 185
3 21 41 9
3 42 41 21
3 42 10 41
3 42 27 10
3 43 27 42
3 43 3 27
3 186 22 187
3 188 187 2
3 186 187 188
3 189 22 190
3 191 11 192
3 193 192 22
3 191 192 193
3 23 194 195
3 197 196 23
3 198 11 199
3 200 43 201
3 202 201 11
3 200 201 202
3 203 43 204
3 205 3 206
3 207 206 43
3 205 206 207
3 209 208 3
3 44 210 211
3 44 212 213
3 214 44 215
3 216 215 12
3 214 215 216
3 217 44 218
3 220 219 44
3 221 24 222
3 45 223 225
3 223 24 224
3 223 224 225
3 45 226 228
3 228 227 24
3 226 227 228
3 229 45 230
3 231 45 232
3 234 233 45
3 31 235 237
3 237 236 1
3 235 236 237
3 239 238 31
3 241 240 6
3 243 242 0
3 46 244 245
3 46 246 247
3 28 46 10
3 248 46 249
3 250 249 28
3 248 249 250
3 252 251 46
3 47 253 254
3 47 255 257
3 255 4 256
3 255 256 257
3 35 29 3
3 48 29 35
3 48 13 29
3 258 48 259
3 49 260 262
3 260 48 261
3 260 261 262
3 49 13 48
3 49 47 13
3 263 47 264
3 265 264 49
3 263 264 265
3 266 4 267
3 268 267 47
3 266 267 268
3 270 269 4
