ply
format ascii 1.0
element vertex 559
property float x
property float y
property float z
element face 568
property list uchar int vertex_index
end_header
-5.838037 2.50201 57.6474
-13.444104 -5.583815 53.716228
-6.936424 -21.424625 58.772488
-11.346878 6.223547 52.507805
-9.441671 -1.623627 56.104919
-15.77923 2.084874 49.641827
-5.975513 -8.720084 60.081825
0.254718 3.655817 61.344994
-13.965147 -18.084496 52.286285
-17.074604 -9.923631 50.445908
-19.728189 -1.793596 46.5956
-10.279991 -13.33072 57.117859
-8.266015 4.103002 55.479713
-8.602467 8.073249 54.21146
-5.767719 5.685984 56.865608
-7.387609 0.579945 57.044212
-10.53962 2.151714 54.241386
-4.275943 -0.250204 59.38644
-5.938326 -2.781484 58.900234
-3.323261 2.911839 59.229702
-17.120953 -16.25602 49.022991
-15.32816 -7.635264 52.20636
-18.472258 -5.743446 48.670406
-16.645546 -3.842841 50.318901
-9.762907 -7.400892 57.115112
-11.818105 -9.552151 55.685341
-13.818842 -11.541497 53.866314
-3.107689 -23.138647 61.768482
-11.323769 -3.57171 55.115421
-14.752297 -1.705901 51.677036
-12.669014 0.138696 53.031136
-13.609387 4.104956 51.099285
-7.866665 -5.064725 58.086605
3.094956 0.076779 63.934528
-10.469744 -19.864166 55.663662
-18.75754 -12.080532 48.184189
-21.93428 -10.285766 44.512207
-20.184536 -8.030369 46.84584
-17.736687 0.138093 48.252892
-0.566206 -20.422434 64.097946
-4.608126 -18.862267 61.311089
-6.380361 -14.853403 60.241791
-8.608837 -17.311333 58.185379
-12.207928 -15.780277 54.97765
-15.574081 -13.885017 51.661964
-24.939297 -8.575743 40.991421
-6.938295 3.075036 56.722225
-7.101721 4.902055 56.125687
-5.806425 3.801071 57.33168
-6.586735 1.690947 57.328369
-7.962158 2.296625 56.180046
-5.1836 1.342727 58.383999
-5.896595 0.093263 58.210739
-4.752639 2.663644 58.343388
-3.697367 1.313473 59.381336
-4.451951 4.28799 58.128708
-18.649834 -15.493184 47.327736
-14.325812 -6.734282 53.080093
-16.005411 -5.740169 51.287971
-15.091003 -4.616881 52.005634
-11.630713 -6.550906 55.46246
-10.886035 -8.411018 56.358734
-12.593658 -7.5484 54.783222
-13.536139 -8.693867 54.050419
-5.070773 -22.163057 60.299648
-10.405881 -2.540227 55.596947
-12.010093 -1.790518 54.109943
-11.135343 -0.755233 54.55159
-10.95718 4.158526 53.362934
-12.069392 3.037102 52.737122
-12.547916 5.135573 51.764603
-7.760962 -2.276171 57.507877
-8.701756 -3.34232 57.087959
-9.624403 -4.352509 56.632038
2.064818 4.08306 62.356388
1.727927 1.908107 62.682312
-12.24739 -18.970848 53.989895
-17.99966 -10.857734 49.30534
-19.608368 -10.109841 47.434814
-18.710043 -8.86497 48.588909
-19.10976 -3.848452 47.688995
-19.978714 -4.911425 46.868382
-20.642876 -2.869097 45.781349
-15.28154 0.109823 50.686665
-16.305601 -0.955155 49.995094
-16.738691 1.10573 48.987228
-2.603709 -19.647612 62.730942
-3.367976 -17.650076 62.337585
-9.206841 -12.264906 58.029545
-7.306658 -12.920019 59.532433
-8.319482 -14.156042 58.74173
-7.414637 -16.145144 59.358921
-9.389677 -15.330118 57.757591
-10.492409 -16.529173 56.557407
-11.298416 -14.481406 56.098488
-15.46633 -10.773527 52.182983
-14.723811 -12.738173 52.822937
-16.432583 -11.908026 51.018505
-17.211483 -13.021854 49.894863
-22.620766 -8.189086 43.858841
-23.415688 -9.500823 42.768276
-24.129532 -7.325039 42.024906
-27.20137 -5.781036 38.307129
-28.685287 -5.101746 36.512836
-9.733996 5.170419 54.079327
-10.066601 7.165518 53.310478
-8.5078 6.080489 54.786671
-7.150337 6.882707 55.580757
-8.327848 -0.560074 56.658848
-10.002749 0.223299 55.186272
-8.958783 1.333968 55.690868
-9.407681 3.17032 54.857788
-5.05319 -1.55775 59.19416
-6.718472 -1.162092 57.96088
-1.591485 3.25322 60.271343
-0.250426 1.647125 61.519768
-2.075865 1.489516 60.394497
-2.542989 -0.26369 60.52042
-2.890023 4.699867 59.062664
-16.198978 -8.767027 51.388569
-17.85651 -7.806304 49.537407
-16.996922 -6.727878 50.384911
-17.63125 -4.712039 49.441284
-18.20281 -2.777744 48.477234
-7.871964 -8.063481 58.645023
-9.976187 -10.288774 57.300949
-11.037487 -11.319578 56.466217
-12.117716 -12.490448 55.484058
-12.820098 -10.621434 54.838493
-14.546019 -9.623602 53.131271
-12.357462 -4.62617 54.486282
-14.064338 -3.649436 52.774223
-13.070747 -2.670513 53.43079
-13.638837 -0.7873 52.441849
-14.305622 1.174721 51.288788
-11.615325 1.140019 53.640759
-13.181273 2.082622 52.040447
-14.749125 3.05037 50.34375
-7.012122 -6.911443 59.06052
-8.805903 -6.194323 57.630947
-10.582122 -5.531173 56.133087
-8.795353 -20.541851 57.200836
-19.551849 -13.194049 46.9161
-21.074545 -12.422565 45.176945
-20.415407 -11.163968 46.277882
-21.111113 -9.067391 45.674351
-19.44536 -6.798332 47.673561
-15.615915 -2.798885 51.125626
-17.272726 -1.824614 49.241806
2.227671 -23.229713 65.71701
0.250177 -22.475195 64.457634
-1.739019 -21.749323 63.11211
-3.771062 -21.0903 61.640579
-5.731765 -20.202387 60.174934
-5.450345 -16.851803 60.853302
-6.69507 -18.20665 59.711975
-7.64158 -19.407505 58.645039
-9.562235 -18.559786 57.00861
-11.3589 -17.827854 55.359386
-13.08808 -16.858231 53.74276
-13.032259 -13.651428 54.489845
-13.906028 -14.769119 53.368004
-14.679273 -15.974896 52.166367
-16.379278 -15.103593 50.367199
-18.05205 -14.15883 48.552189
-22.486895 -11.735385 43.560268
-25.617426 -6.473927 40.217026
-26.385202 -7.906486 39.298328
-18.96949 -16.111421 46.64979
-19.392634 -15.021679 46.535553
-6.481511 -22.468078 58.881785
-5.548686 -22.837294 59.645364
-6.003598 -21.793841 59.536068
-11.430851 7.255739 52.179289
-12.045502 6.70603 51.788513
-12.045502 6.70603 51.788513
-12.646021 6.162043 51.416912
-11.947397 5.67956 52.136204
0.475413 4.774004 61.203024
-0.462544 4.467144 60.68694
1.159768 3.869438 61.850691
1.380462 4.987625 61.708721
0.475413 4.774004 61.203024
-13.444496 -19.189266 52.447977
-12.585617 -19.632441 53.299782
-13.106268 -18.527672 53.13809
-20.480777 -1.264765 45.621246
-20.93812 -1.802515 45.214121
-20.185533 -2.331346 46.188474
-2.861752 -16.980345 62.70288
-2.3392 -17.972339 63.029985
-5.48324 -9.673118 60.540575
-4.981027 -9.046549 60.789457
-23.716938 -6.690945 42.520773
-23.375149 -7.757062 42.941873
-22.962555 -7.122968 43.437741
-29.007058 -4.013643 35.998407
-28.241445 -4.422419 36.963094
-29.430845 -4.73717 35.600313
-29.007058 -4.013643 35.998407
-5.705382 6.638326 56.665676
-6.396691 7.236687 56.023251
-6.459028 6.284346 56.223183
-4.664566 -0.903977 59.2903
-4.179104 -1.654126 59.79177
-3.79048 -1.000353 59.887911
-3.79048 -1.000353 59.887911
-2.924003 -1.007096 60.454901
-3.409466 -0.256947 59.95343
-4.979694 5.975874 57.330637
-5.705382 6.638326 56.665676
-16.675285 -17.354366 49.120461
-16.342039 -16.717223 49.839498
-9.36353 -8.269968 57.548975
-8.418059 -8.601263 58.31393
-8.817436 -7.732186 57.880068
-2.714644 -24.183084 61.844856
-2.126397 -23.497527 62.491777
-9.371022 8.670691 53.469549
-10.103089 8.216826 53.019058
-9.334534 7.619383 53.760969
-14.316122 4.597039 50.312561
-14.885991 4.069745 49.934793
-14.179256 3.577663 50.721518
-5.460314 -3.630049 59.418577
-4.990601 -2.976124 59.575743
-6.896581 -5.437093 58.838604
-7.398553 -4.506536 58.292221
-7.439393 -5.988084 58.573562
-6.469309 -6.360453 59.325561
-6.896581 -5.437093 58.838604
4.036371 0.24299 64.444013
3.351423 1.165511 63.830774
3.773398 -0.866712 64.538049
4.036371 0.24299 64.444013
0.453358 0.787204 62.162157
-0.495439 0.711171 61.590177
-10.028767 -20.944192 55.731861
-9.191572 -21.283034 56.500448
-9.632549 -20.203009 56.432249
-20.979862 -7.526153 45.879632
-21.443151 -8.044664 45.293888
-20.647824 -8.54888 46.260096
-20.466833 -5.419324 46.354088
-20.77543 -4.436982 45.877972
-18.261137 -0.297405 47.815186
-18.029156 -1.278758 48.309643
-17.504706 -0.84326 48.747349
2.932584 -22.460283 66.207283
3.319752 -23.549342 66.375214
0.487314 -20.688858 64.772731
0.074968 -19.709697 64.552848
-0.158015 -21.448814 64.27779
0.895506 -21.715238 64.952575
0.487314 -20.688858 64.772731
-5.813059 -14.309932 60.650925
-6.276208 -13.343239 60.296246
-6.843509 -13.886711 59.887112
-5.360815 -15.225833 60.97855
-5.813059 -14.309932 60.650925
-5.915353 -15.852603 60.547546
-4.895808 -16.225033 61.284306
-5.360815 -15.225833 60.97855
-24.505316 -9.700688 41.3887
-23.743512 -10.163228 42.277128
-24.177492 -9.038283 41.879849
-25.279997 -9.287232 40.524184
-24.505316 -9.700688 41.3887
-25.983942 -5.500587 39.719978
-25.176516 -5.88354 40.723835
-27.106392 -7.573749 38.459597
-26.793286 -6.843761 38.802729
-27.514477 -6.511024 37.963997
-26.783101 -8.621047 38.804924
-27.106392 -7.573749 38.459597
-18.208239 -16.541672 47.457453
-17.443798 -16.92309 48.305081
-17.885393 -15.874602 48.175364
-18.208239 -16.541672 47.457453
-18.96949 -16.111421 46.64979
-4.645136 -23.229555 60.386673
-3.663594 -23.71735 61.12109
-4.089231 -22.650852 61.034065
-5.123048 -23.903793 59.732389
-4.645136 -23.229555 60.386673
-5.548686 -22.837294 59.645364
-8.597558 9.185074 53.936665
-7.82602 8.526391 54.667727
-13.234365 5.691584 51.007673
-13.765101 5.176275 50.675015
-13.078651 4.620264 51.431944
-13.234365 5.691584 51.007673
-12.646021 6.162043 51.416912
-7.345702 -3.112259 58.002857
-6.434384 -3.364915 58.699035
-6.849644 -2.528828 58.204055
-7.816098 -3.645333 57.792898
-7.345702 -3.112259 58.002857
-8.231359 -2.809246 57.297918
-8.284211 -4.203523 57.587282
-7.398553 -4.506536 58.292221
-7.816098 -3.645333 57.792898
2.836354 3.168652 63.041704
2.993939 4.318773 62.856447
2.667908 2.081175 63.204666
2.836354 3.168652 63.041704
1.896373 2.995583 62.51935
2.411442 0.992443 63.30842
3.351423 1.165511 63.830774
2.667908 2.081175 63.204666
2.287814 5.26581 62.195374
1.380462 4.987625 61.708721
2.993939 4.318773 62.856447
2.287814 5.26581 62.195374
-11.772204 -20.022412 54.112018
-10.883381 -20.469071 54.948902
-11.358567 -19.417507 54.826779
-11.772204 -20.022412 54.112018
-12.585617 -19.632441 53.299782
-21.107512 -3.415818 45.334456
-20.77543 -4.436982 45.877972
-20.310795 -3.890261 46.324866
-21.365239 -2.403713 44.853754
-21.107512 -3.415818 45.334456
-21.365239 -2.403713 44.853754
-20.93812 -1.802515 45.214121
-0.938315 -19.358518 63.910165
0.074968 -19.709697 64.552848
-1.957066 -18.971107 63.226664
-1.584957 -20.035023 63.414444
-0.938315 -19.358518 63.910165
-2.985842 -18.648844 62.534263
-1.957066 -18.971107 63.226664
-2.3392 -17.972339 63.029985
-8.256749 -12.592462 58.780989
-7.744419 -11.974691 59.150488
-8.69451 -11.647134 58.399044
-27.499487 -4.762064 37.860241
-26.775914 -5.154141 38.76503
-27.943328 -5.441391 37.409982
-27.499487 -4.762064 37.860241
-28.241445 -4.422419 36.963094
-28.256435 -6.17138 37.066851
-27.514477 -6.511024 37.963997
-27.943328 -5.441391 37.409982
-29.090659 -5.797229 36.092237
-28.256435 -6.17138 37.066851
-29.090659 -5.797229 36.092237
-29.430845 -4.73717 35.600313
-7.099955 7.93112 55.352375
-7.82602 8.526391 54.667727
-7.876402 7.477978 54.896108
-7.099955 7.93112 55.352375
-6.396691 7.236687 56.023251
-4.548032 -2.364257 59.722706
-4.179104 -1.654126 59.79177
-5.495758 -2.169617 59.047197
-4.990601 -2.976124 59.575743
-4.548032 -2.364257 59.722706
-1.408158 0.632367 61.027542
-0.495439 0.711171 61.590177
-1.163145 1.568321 60.957133
-1.64172 -0.244236 61.090503
-1.408158 0.632367 61.027542
-2.309427 0.612913 60.457459
-1.956463 -1.150079 61.10577
-1.64172 -0.244236 61.090503
-1.956463 -1.150079 61.10577
-2.924003 -1.007096 60.454901
-4.32181 5.276877 57.962187
-4.979694 5.975874 57.330637
-5.109835 4.986987 57.497158
-3.540846 5.482815 58.429165
-4.32181 5.276877 57.962187
-3.670987 4.493928 58.595686
-2.722307 5.800446 58.893186
-3.540846 5.482815 58.429165
-2.034914 4.989168 59.545775
-2.722307 5.800446 58.893186
-1.385645 4.265845 60.150114
-2.034914 4.989168 59.545775
-2.240754 3.976544 59.667003
-0.668384 3.454518 60.808169
-0.462544 4.467144 60.68694
-1.385645 4.265845 60.150114
-14.279929 -18.689576 51.622228
-14.764136 -17.631462 51.471145
-16.675285 -17.354366 49.120461
-17.443798 -16.92309 48.305081
-16.495956 2.631358 48.773581
-15.998822 3.102836 49.13687
-7.44947 -8.977559 59.07584
-6.501244 -9.30586 59.794241
-6.923739 -8.391782 59.363424
-7.44947 -8.977559 59.07584
-8.418059 -8.601263 58.31393
-9.925094 -8.775031 57.170786
-9.36353 -8.269968 57.548975
-10.324471 -7.905955 56.736923
-9.47017 -9.713909 57.641894
-9.925094 -8.775031 57.170786
-10.431111 -9.349896 56.829842
-9.079183 -10.659069 58.034746
-9.47017 -9.713909 57.641894
-9.591514 -11.27684 57.665247
-8.69451 -11.647134 58.399044
-9.079183 -10.659069 58.034746
-2.714644 -24.183084 61.844856
-3.663594 -23.71735 61.12109
-10.790713 7.726725 52.580625
-11.430851 7.255739 52.179289
-10.70674 6.694532 52.909142
-10.790713 7.726725 52.580625
-10.103089 8.216826 53.019058
-9.371022 8.670691 53.469549
-8.597558 9.185074 53.936665
-15.483769 3.585584 49.487831
-15.998822 3.102836 49.13687
-15.264177 2.567622 49.992789
-15.483769 3.585584 49.487831
-14.885991 4.069745 49.934793
-14.316122 4.597039 50.312561
-13.765101 5.176275 50.675015
-5.448586 -8.193724 60.348327
-4.981027 -9.046549 60.789457
-5.460314 -3.630049 59.418577
-6.434384 -3.364915 58.699035
-5.96689 -7.289404 59.837675
-6.469309 -6.360453 59.325561
-6.493818 -7.815764 59.571173
-5.448586 -8.193724 60.348327
-5.96689 -7.289404 59.837675
1.442534 0.917695 62.743429
0.73875 1.777616 62.10104
0.453358 0.787204 62.162157
2.126049 0.002031 63.369537
2.411442 0.992443 63.30842
1.442534 0.917695 62.743429
2.772814 -0.905953 63.964735
2.126049 0.002031 63.369537
3.773398 -0.866712 64.538049
2.772814 -0.905953 63.964735
-8.335055 -21.577205 57.315416
-7.40559 -22.018591 58.101242
-7.865889 -20.983238 57.986662
-8.335055 -21.577205 57.315416
-9.191572 -21.283034 56.500448
-10.028767 -20.944192 55.731861
-10.883381 -20.469071 54.948902
-13.444496 -19.189266 52.447977
-14.279929 -18.689576 51.622228
-20.313197 -12.808307 46.046523
-20.60499 -13.48637 45.460158
-19.843642 -13.872112 46.329735
-22.197977 -7.605512 44.386133
-21.865939 -8.628239 44.766596
-21.443151 -8.044664 45.293888
-22.962555 -7.122968 43.437741
-22.197977 -7.605512 44.386133
-20.200156 -6.362777 46.756677
-19.712037 -5.854878 47.270972
-20.466833 -5.419324 46.354088
-20.569744 -6.978796 46.342817
-19.814948 -7.414351 47.259701
-20.200156 -6.362777 46.756677
-20.979862 -7.526153 45.879632
-20.569744 -6.978796 46.342817
-18.494198 -1.755323 47.927357
-17.737768 -2.301179 48.85952
-18.029156 -1.278758 48.309643
-19.256888 -1.263249 46.98654
-18.965499 -2.28567 47.536417
-18.494198 -1.755323 47.927357
-16.975686 2.141786 48.446281
-16.258961 1.595302 49.314527
-16.495956 2.631358 48.773581
-17.486513 1.617243 48.074402
-16.975686 2.141786 48.446281
-17.985511 1.133424 47.707234
-17.237689 0.621912 48.62006
-17.486513 1.617243 48.074402
-18.501099 0.629856 47.304123
-17.985511 1.133424 47.707234
-18.261137 -0.297405 47.815186
-18.501099 0.629856 47.304123
-19.983432 -0.829733 46.074936
-19.256888 -1.263249 46.98654
-20.480777 -1.264765 45.621246
-19.983432 -0.829733 46.074936
2.607554 -24.361581 65.840435
3.319752 -23.549342 66.375214
1.578985 -23.939131 65.181339
2.607554 -24.361581 65.840435
1.884253 -22.092498 65.582264
2.932584 -22.460283 66.207283
1.238924 -22.852454 65.087322
1.884253 -22.092498 65.582264
0.895506 -21.715238 64.952575
0.590237 -23.561872 64.551651
1.578985 -23.939131 65.181339
1.238924 -22.852454 65.087322
-0.447463 -23.165801 63.836354
0.590237 -23.561872 64.551651
-1.442061 -22.802865 63.163591
-0.447463 -23.165801 63.836354
-0.744421 -22.112259 63.784872
-2.423354 -22.443985 62.440296
-2.126397 -23.497527 62.491777
-1.442061 -22.802865 63.163591
-5.48324 -9.673118 60.540575
-6.501244 -9.30586 59.794241
-6.744188 -12.369911 59.913825
-7.744419 -11.974691 59.150488
-6.744188 -12.369911 59.913825
-6.276208 -13.343239 60.296246
-3.854623 -16.62417 62.026447
-2.861752 -16.980345 62.70288
-4.409161 -17.25094 61.595444
-3.854623 -16.62417 62.026447
-4.895808 -16.225033 61.284306
-15.121199 -16.576662 51.411186
-14.764136 -17.631462 51.471145
-14.32221 -17.029696 52.226326
-15.971201 -16.14101 50.511602
-15.121199 -16.576662 51.411186
-15.529276 -15.539244 51.266783
-16.750115 -15.679806 49.695095
-16.342039 -16.717223 49.839498
-15.971201 -16.14101 50.511602
-19.843642 -13.872112 46.329735
-19.392634 -15.021679 46.535553
-19.100842 -14.343616 47.121918
-21.357024 -13.119288 44.624792
-20.60499 -13.48637 45.460158
-22.063198 -12.775697 43.816454
-21.357024 -13.119288 44.624792
-21.78072 -12.078975 44.368606
-22.835141 -12.333279 42.989889
-22.063198 -12.775697 43.816454
-23.279115 -11.280508 42.673124
-22.951291 -10.618104 43.164272
-23.743512 -10.163228 42.277128
-22.835141 -12.333279 42.989889
-23.279115 -11.280508 42.673124
-24.432569 -6.309096 41.627775
-23.716938 -6.690945 42.520773
-24.873479 -6.899483 41.120966
-24.432569 -6.309096 41.627775
-25.176516 -5.88354 40.723835
-26.409398 -6.127482 39.262078
-25.983942 -5.500587 39.719978
-26.775914 -5.154141 38.76503
-26.002949 -8.952603 39.677637
-25.279997 -9.287232 40.524184
-25.66225 -8.241115 40.144875
-26.002949 -8.952603 39.677637
-26.783101 -8.621047 38.804924
-6.481511 -22.468078 58.881785
-7.40559 -22.018591 58.101242
3 0 48 46
3 0 46 49
3 0 49 51
3 0 51 53
3 0 53 48
3 169 168 56
3 1 59 57
3 1 62 60
3 1 57 62
3 2 170 172
3 172 171 64
3 170 171 172
3 3 173 174
3 4 67 65
3 3 70 68
3 3 175 177
3 177 176 70
3 175 176 177
3 4 72 71
3 4 65 72
3 7 75 74
3 7 178 179
3 7 180 182
3 180 74 181
3 180 181 182
3 8 183 185
3 185 184 76
3 183 184 185
3 9 79 77
3 10 82 80
3 10 186 188
3 188 187 82
3 186 187 188
3 5 85 83
3 189 87 190
3 6 191 192
3 11 90 88
3 11 92 90
3 11 94 92
3 9 97 95
3 9 77 97
3 193 101 194
3 195 194 99
3 193 194 195
3 196 103 197
3 199 198 103
3 12 106 104
3 14 107 47
3 14 200 202
3 202 201 107
3 200 201 202
3 15 110 108
3 12 111 50
3 12 104 111
3 17 203 205
3 203 112 204
3 203 204 205
3 15 113 52
3 15 108 113
3 19 116 114
3 17 117 54
3 17 206 208
3 208 207 117
3 206 207 208
3 14 209 210
3 19 118 55
3 19 114 118
3 20 211 212
3 21 121 119
3 23 122 58
3 23 123 122
3 24 213 215
3 215 214 124
3 213 214 215
3 25 125 61
3 25 126 125
3 25 128 126
3 21 129 63
3 21 119 129
3 27 216 217
3 13 218 220
3 220 219 105
3 218 219 220
3 28 132 130
3 30 133 66
3 30 134 133
3 16 135 109
3 31 136 69
3 31 137 136
3 31 221 223
3 223 222 137
3 221 222 223
3 18 224 225
3 32 226 227
3 32 228 230
3 228 138 229
3 228 229 230
3 32 139 138
3 28 140 73
3 28 130 140
3 33 231 232
3 33 233 234
3 236 235 115
3 34 237 239
3 239 238 141
3 237 238 239
3 35 144 142
3 37 145 78
3 37 240 242
3 242 241 145
3 240 241 242
3 22 146 120
3 244 243 81
3 29 147 131
3 38 148 84
3 38 245 247
3 247 246 148
3 245 246 247
3 248 149 249
3 39 250 251
3 39 252 254
3 252 150 253
3 252 253 254
3 39 151 150
3 40 152 86
3 40 153 152
3 41 255 257
3 257 256 89
3 255 256 257
3 41 258 259
3 41 260 262
3 260 154 261
3 260 261 262
3 42 155 91
3 42 156 155
3 42 157 156
3 43 158 93
3 43 159 158
3 26 160 127
3 44 161 96
3 44 162 161
3 44 163 162
3 35 164 98
3 35 142 164
3 36 165 143
3 45 263 265
3 265 264 100
3 263 264 265
3 45 266 267
3 268 166 269
3 270 167 271
3 272 271 102
3 270 271 272
3 274 273 167
3 46 47 12
3 48 47 46
3 48 14 47
3 49 50 15
3 46 50 49
3 46 12 50
3 51 52 17
3 49 52 51
3 49 15 52
3 53 54 19
3 51 54 53
3 51 17 54
3 48 55 14
3 53 55 48
3 53 19 55
3 56 275 277
3 277 276 20
3 275 276 277
3 279 278 56
3 57 58 21
3 59 58 57
3 59 23 58
3 60 61 24
3 62 61 60
3 62 25 61
3 62 63 25
3 57 63 62
3 57 21 63
3 64 280 282
3 282 281 27
3 280 281 282
3 285 284 64
3 283 284 285
3 287 286 13
3 65 66 28
3 67 66 65
3 67 30 66
3 68 69 16
3 70 69 68
3 70 31 69
3 70 288 290
3 290 289 31
3 288 289 290
3 292 291 70
3 71 293 295
3 295 294 18
3 293 294 295
3 72 296 298
3 298 297 71
3 296 297 298
3 72 299 301
3 299 32 300
3 299 300 301
3 72 73 32
3 65 73 72
3 65 28 73
3 74 302 303
3 75 304 306
3 306 305 74
3 304 305 306
3 75 307 309
3 307 33 308
3 307 308 309
3 74 310 311
3 74 312 313
3 76 314 316
3 316 315 34
3 314 315 316
3 318 317 76
3 77 78 35
3 79 78 77
3 79 37 78
3 80 81 22
3 82 81 80
3 82 319 321
3 321 320 81
3 319 320 321
3 82 322 323
3 325 324 82
3 83 84 29
3 85 84 83
3 85 38 84
3 326 39 327
3 328 86 329
3 330 329 39
3 328 329 330
3 87 331 333
3 331 86 332
3 331 332 333
3 87 40 86
3 88 334 336
3 334 89 335
3 334 335 336
3 90 89 88
3 90 41 89
3 90 91 41
3 92 91 90
3 92 42 91
3 92 93 42
3 94 93 92
3 94 43 93
3 95 96 26
3 97 96 95
3 97 44 96
3 97 98 44
3 77 98 97
3 77 35 98
3 99 100 36
3 101 100 99
3 101 45 100
3 337 102 338
3 103 339 341
3 339 102 340
3 339 340 341
3 103 342 344
3 344 343 102
3 342 343 344
3 103 345 346
3 348 347 103
3 104 105 3
3 106 105 104
3 106 13 105
3 47 106 12
3 107 106 47
3 107 13 106
3 107 349 351
3 351 350 13
3 349 350 351
3 353 352 107
3 108 109 4
3 110 109 108
3 110 16 109
3 50 110 15
3 111 110 50
3 111 16 110
3 111 68 16
3 104 68 111
3 104 3 68
3 112 354 355
3 112 356 358
3 356 18 357
3 356 357 358
3 52 112 17
3 113 112 52
3 113 18 112
3 113 71 18
3 108 71 113
3 108 4 71
3 114 115 7
3 116 115 114
3 116 359 361
3 361 360 115
3 359 360 361
3 54 116 19
3 117 116 54
3 117 362 364
3 364 363 116
3 362 363 364
3 117 365 366
3 368 367 117
3 55 369 371
3 371 370 14
3 369 370 371
3 118 372 374
3 374 373 55
3 372 373 374
3 118 375 376
3 118 377 378
3 114 379 381
3 381 380 118
3 379 380 381
3 114 382 384
3 382 7 383
3 382 383 384
3 386 385 8
3 388 387 20
3 119 120 9
3 121 120 119
3 121 22 120
3 58 121 21
3 122 121 58
3 122 22 121
3 122 80 22
3 123 80 122
3 123 10 80
3 390 389 5
3 124 391 393
3 393 392 6
3 391 392 393
3 395 394 124
3 61 396 398
3 398 397 24
3 396 397 398
3 125 399 401
3 401 400 61
3 399 400 401
3 125 402 403
3 125 404 406
3 404 88 405
3 404 405 406
3 126 88 125
3 126 11 88
3 126 127 11
3 128 127 126
3 128 26 127
3 63 128 25
3 129 128 63
3 129 26 128
3 129 95 26
3 119 95 129
3 119 9 95
3 408 407 27
3 105 409 411
3 411 410 3
3 409 410 411
3 413 412 105
3 415 414 13
3 130 131 1
3 132 131 130
3 132 29 131
3 66 132 28
3 133 132 66
3 133 29 132
3 133 83 29
3 134 83 133
3 134 5 83
3 109 67 4
3 135 67 109
3 135 30 67
3 69 135 16
3 136 135 69
3 136 30 135
3 136 134 30
3 137 134 136
3 137 5 134
3 137 416 418
3 418 417 5
3 416 417 418
3 420 419 137
3 422 421 31
3 423 6 424
3 426 425 18
3 138 427 428
3 138 429 431
3 429 6 430
3 429 430 431
3 138 124 6
3 139 124 138
3 139 24 124
3 73 139 32
3 140 139 73
3 140 24 139
3 140 60 24
3 130 60 140
3 130 1 60
3 115 75 7
3 432 75 433
3 434 433 115
3 432 433 434
3 435 33 436
3 437 436 75
3 435 436 437
3 438 33 439
3 441 440 33
3 141 442 444
3 444 443 2
3 442 443 444
3 446 445 141
3 448 447 34
3 450 449 8
3 142 451 453
3 451 143 452
3 451 452 453
3 144 143 142
3 144 36 143
3 78 144 35
3 145 144 78
3 145 36 144
3 145 99 36
3 454 99 455
3 456 455 145
3 454 455 456
3 458 457 99
3 120 79 9
3 146 79 120
3 146 37 79
3 81 146 22
3 459 146 460
3 461 460 81
3 459 460 461
3 462 37 463
3 464 463 146
3 462 463 464
3 466 465 37
3 131 59 1
3 147 59 131
3 147 23 59
3 84 147 29
3 148 147 84
3 148 23 147
3 148 123 23
3 467 123 468
3 469 468 148
3 467 468 469
3 470 10 471
3 472 471 123
3 470 471 472
3 473 85 474
3 475 474 5
3 473 474 475
3 476 85 477
3 478 38 479
3 480 479 85
3 478 479 480
3 481 38 482
3 484 483 38
3 485 10 486
3 488 487 10
3 149 489 490
3 149 491 492
3 493 149 494
3 150 495 497
3 495 149 496
3 495 496 497
3 150 498 500
3 500 499 149
3 498 499 500
3 150 501 502
3 151 503 505
3 505 504 150
3 503 504 505
3 151 506 508
3 506 27 507
3 506 507 508
3 86 151 39
3 152 151 86
3 152 27 151
3 152 64 27
3 153 64 152
3 153 2 64
3 510 509 6
3 89 511 512
3 514 513 89
3 515 87 516
3 154 517 519
3 517 87 518
3 517 518 519
3 154 40 87
3 91 154 41
3 155 154 91
3 155 40 154
3 155 153 40
3 156 153 155
3 156 2 153
3 156 141 2
3 157 141 156
3 157 34 141
3 93 157 42
3 158 157 93
3 158 34 157
3 158 76 34
3 159 76 158
3 159 8 76
3 127 94 11
3 160 94 127
3 160 43 94
3 96 160 26
3 161 160 96
3 161 43 160
3 161 159 43
3 162 159 161
3 162 8 159
3 162 520 522
3 522 521 8
3 520 521 522
3 163 523 525
3 525 524 162
3 523 524 525
3 163 526 528
3 526 20 527
3 526 527 528
3 98 163 44
3 164 163 98
3 164 20 163
3 164 56 20
3 142 56 164
3 142 529 531
3 531 530 56
3 529 530 531
3 143 532 533
3 165 534 536
3 536 535 143
3 534 535 536
3 165 537 538
3 100 165 36
3 539 165 540
3 541 540 100
3 539 540 541
3 543 542 165
3 544 101 545
3 166 546 548
3 546 101 547
3 546 547 548
3 166 45 101
3 102 549 551
3 549 166 550
3 549 550 551
3 167 166 102
3 167 45 166
3 167 552 554
3 554 553 45
3 552 553 554
3 556 555 167
3 558 557 2
