ply
format ascii 1.0
element vertex 171
property float x
property float y
property float z
element face 115
property list uchar int vertex_index
end_header
-4.579156 -45.625961 -44.407036
-7.698593 -41.340847 -41.149689
-0.910508 -42.824429 -47.39175
19.818455 -55.50359 -48.069241
-6.305643 -40.581055 -42.797871
-6.277355 -46.531689 -42.886848
-2.776134 -44.15942 -45.93425
20.308739 -60.582439 -45.759605
18.651875 -59.67635 -46.809402
10.039312 -36.126534 -53.899845
11.209859 -38.490673 -53.485329
12.14874 -34.195538 -55.040752
-6.249998 -43.432846 -42.926018
-4.734184 -42.61866 -44.441265
-3.085865 -41.418121 -45.978622
4.989758 -37.714027 -51.639008
1.036837 -41.121704 -48.876022
-1.313932 -39.925663 -47.551521
-5.37694 -47.630107 -43.645722
-6.22604 -48.082971 -42.885627
-5.428256 -46.078825 -43.646942
-4.465924 -47.156221 -44.374285
-5.37694 -47.630107 -43.645722
-3.677645 -44.892691 -45.170643
-3.564414 -46.42295 -45.137892
-4.465924 -47.156221 -44.374285
18.923496 -62.198606 -45.645308
19.748606 -62.574877 -45.111271
18.095064 -61.745562 -46.170206
19.480307 -60.129395 -46.284503
18.923496 -62.198606 -45.645308
10.499558 -33.981732 -54.709297
9.514354 -34.878407 -54.124891
11.554272 -33.016234 -55.27975
11.094026 -35.161036 -54.470298
10.499558 -33.981732 -54.709297
12.560257 -31.963641 -55.881353
11.554272 -33.016234 -55.27975
-7.766386 -42.897957 -41.183605
-8.444639 -43.237852 -40.391913
-5.539 -41.408075 -43.682793
-6.27782 -42.006951 -42.861944
-5.566822 -39.98218 -43.618719
-4.781092 -41.000982 -44.440416
-5.492091 -43.025753 -43.683642
-5.539 -41.408075 -43.682793
-4.04283 -40.526592 -45.213017
-4.781092 -41.000982 -44.440416
-0.644864 -44.211468 -47.328901
-1.633447 -44.958946 -46.625225
0.063165 -41.973067 -48.133886
0.328808 -43.360106 -48.071037
-0.644864 -44.211468 -47.328901
-1.513978 -38.511093 -47.582691
-2.199899 -40.671892 -46.765072
-2.399945 -39.257322 -46.796242
21.080592 -53.922196 -48.263784
20.512814 -56.072281 -47.580809
20.303776 -53.322535 -48.765324
21.080592 -53.922196 -48.263784
5.490394 -38.988968 -51.512772
6.043403 -36.721643 -52.342075
11.877112 -39.616495 -53.279627
12.287369 -37.421259 -54.031071
-6.334457 -39.170315 -42.688705
-7.002118 -40.960951 -41.97378
-7.030932 -39.550211 -41.864615
-5.643876 -38.590931 -43.529561
-6.334457 -39.170315 -42.688705
-5.566822 -39.98218 -43.618719
-5.643876 -38.590931 -43.529561
-7.044657 -48.495317 -42.158934
-7.034262 -46.964735 -42.14402
-7.044657 -48.495317 -42.158934
-6.22604 -48.082971 -42.885627
-2.56626 -45.626442 -45.896475
-3.564414 -46.42295 -45.137892
-1.843321 -43.491924 -46.663
-1.633447 -44.958946 -46.625225
-2.56626 -45.626442 -45.896475
21.030826 -61.024838 -45.161926
19.748606 -62.574877 -45.111271
21.598885 -59.040866 -45.820861
21.030826 -61.024838 -45.161926
20.757956 -58.611705 -46.425991
21.598885 -59.040866 -45.820861
19.929524 -58.158661 -46.95089
20.757956 -58.611705 -46.425991
19.480307 -60.129395 -46.284503
19.235165 -57.58997 -47.439321
20.512814 -56.072281 -47.580809
19.929524 -58.158661 -46.95089
9.055414 -37.224155 -53.275046
9.514354 -34.878407 -54.124891
9.547391 -38.445787 -53.089822
9.055414 -37.224155 -53.275046
10.624586 -37.308604 -53.692587
10.132665 -39.627857 -52.882565
9.547391 -38.445787 -53.089822
12.756809 -35.273691 -54.808782
12.287369 -37.421259 -54.031071
11.679299 -36.343106 -54.263041
13.229652 -33.035789 -55.633413
12.756809 -35.273691 -54.808782
13.229652 -33.035789 -55.633413
12.560257 -31.963641 -55.881353
-7.06991 -42.518061 -42.007697
-7.766386 -42.897957 -41.183605
-7.002118 -40.960951 -41.97378
-7.042088 -43.943956 -42.07177
-7.06991 -42.518061 -42.007697
-6.27782 -42.006951 -42.861944
-7.020583 -45.415313 -42.163605
-7.042088 -43.943956 -42.07177
-6.263676 -44.982267 -42.906433
-7.034262 -46.964735 -42.14402
-7.020583 -45.415313 -42.163605
-3.218671 -39.926323 -45.981695
-3.910025 -42.01839 -45.209944
-4.04283 -40.526592 -45.213017
-2.399945 -39.257322 -46.796242
-3.218671 -39.926323 -45.981695
4.547441 -36.251844 -51.818022
4.023443 -38.48418 -50.996828
5.50166 -35.433027 -52.50143
4.547441 -36.251844 -51.818022
6.043403 -36.721643 -52.342075
5.50166 -35.433027 -52.50143
1.331897 -42.600826 -48.742425
0.328808 -43.360106 -48.071037
2.046983 -40.188018 -49.615336
1.331897 -42.600826 -48.742425
-0.711458 -37.815649 -48.342935
-1.513978 -38.511093 -47.582691
-0.491847 -39.179109 -48.254376
-0.711458 -37.815649 -48.342935
-0.290134 -40.628493 -48.17449
-1.11222 -41.375046 -47.471636
-0.491847 -39.179109 -48.254376
0.683538 -39.77713 -48.916626
0.063165 -41.973067 -48.133886
-0.290134 -40.628493 -48.17449
1.628481 -38.934849 -49.679882
0.683538 -39.77713 -48.916626
2.046983 -40.188018 -49.615336
1.628481 -38.934849 -49.679882
17.364742 -61.178242 -46.627335
18.095064 -61.745562 -46.170206
17.927675 -58.960918 -47.284132
17.364742 -61.178242 -46.627335
18.510965 -56.874538 -47.914051
19.235165 -57.58997 -47.439321
17.927675 -58.960918 -47.284132
19.084005 -54.809511 -48.515528
18.510965 -56.874538 -47.914051
20.303776 -53.322535 -48.765324
19.084005 -54.809511 -48.515528
-8.358524 -41.681141 -40.324387
-8.444639 -43.237852 -40.391913
-7.645871 -39.887045 -41.077826
-8.358524 -41.681141 -40.324387
-7.030932 -39.550211 -41.864615
-7.645871 -39.887045 -41.077826
4.381003 -39.935173 -50.828251
4.023443 -38.48418 -50.996828
4.381003 -39.935173 -50.828251
5.490394 -38.988968 -51.512772
10.792147 -40.679709 -52.761082
10.132665 -39.627857 -52.882565
10.792147 -40.679709 -52.761082
11.877112 -39.616495 -53.279627
3 0 18 20
3 20 19 5
3 18 19 20
3 0 21 22
3 0 23 25
3 23 6 24
3 23 24 25
3 26 7 27
3 28 8 29
3 30 29 7
3 28 29 30
3 31 9 32
3 33 11 34
3 35 34 9
3 33 34 35
3 37 36 11
3 1 38 39
3 40 12 41
3 42 41 4
3 40 41 42
3 43 13 44
3 45 44 12
3 43 44 45
3 47 46 13
3 2 48 49
3 2 50 52
3 50 16 51
3 50 51 52
3 53 17 54
3 55 54 14
3 53 54 55
3 3 56 57
3 3 58 59
3 61 60 15
3 63 62 10
3 64 4 65
3 66 65 1
3 64 65 66
3 67 4 68
3 70 69 4
3 5 71 72
3 74 73 5
3 6 75 76
3 6 77 79
3 77 2 78
3 77 78 79
3 7 80 81
3 7 82 83
3 7 84 85
3 8 86 88
3 88 87 7
3 86 87 88
3 8 89 91
3 89 3 90
3 89 90 91
3 9 92 93
3 9 94 95
3 9 96 98
3 96 10 97
3 96 97 98
3 11 10 9
3 11 99 101
3 101 100 10
3 99 100 101
3 11 102 103
3 105 104 11
3 4 106 108
3 108 107 1
3 106 107 108
3 12 109 111
3 111 110 4
3 109 110 111
3 12 112 113
3 12 114 116
3 114 5 115
3 114 115 116
3 13 5 12
3 13 0 5
3 13 14 0
3 117 14 118
3 119 118 13
3 117 118 119
3 121 120 14
3 122 15 123
3 124 15 125
3 127 126 15
3 16 128 129
3 16 130 131
3 14 6 0
3 17 6 14
3 17 2 6
3 132 17 133
3 134 17 135
3 136 2 137
3 138 137 17
3 136 137 138
3 139 16 140
3 141 140 2
3 139 140 141
3 142 16 143
3 145 144 16
3 146 8 147
3 148 8 149
3 150 3 151
3 152 151 8
3 150 151 152
3 153 3 154
3 156 155 3
3 157 1 158
3 159 1 160
3 162 161 1
3 15 163 164
3 166 165 15
3 10 167 168
3 170 169 10
