ply
format ascii 1.0
element vertex 571
property float x
property float y
property float z
element face 500
property list uchar int vertex_index
end_header
-17.923731 45.438148 -13.953789
-26.590322 33.875092 -8.250269
-12.425122 54.121861 -24.873646
-10.017678 46.865871 -36.082592
-12.704807 40.438828 -21.537243
-14.900738 50.609085 -18.703987
-21.764774 39.745575 -10.673367
-8.804253 64.58567 -36.722088
-12.48711 66.273621 -29.889446
-11.489249 44.129005 -28.53546
-15.91251 40.720615 -14.79933
-14.559677 43.410576 -17.164331
-16.285452 48.088737 -16.163521
-24.010702 36.718414 -9.429921
-10.688843 65.955139 -33.353569
-12.452987 47.555382 -22.91923
-12.071302 42.363285 -24.894495
-10.439343 43.210075 -39.474957
-13.481248 38.18961 -18.552414
-13.420305 45.363052 -19.803753
-13.653937 52.631321 -21.55051
-19.688702 42.520374 -12.161512
-30.840555 34.114994 -5.229895
-28.585329 37.027256 -6.569234
-26.318758 39.945995 -7.93748
-24.083126 43.37822 -9.401538
-14.122559 65.401917 -26.403276
-10.87678 45.556858 -32.174492
-17.659845 41.897511 -13.459181
-16.683155 39.506409 -13.811818
-16.854191 43.215263 -14.403956
-16.092882 44.685192 -15.49412
-17.084568 46.709709 -14.987539
-25.374027 31.980612 -8.740412
-24.113163 33.388447 -9.2644
-25.312166 35.391354 -8.816738
-12.41248 50.859859 -23.85203
-11.985545 48.271912 -24.674063
-11.9248 51.694824 -25.55138
-10.702951 44.231075 -35.751167
-10.256232 44.763855 -37.676701
-13.9672 36.915478 -17.111568
-14.684041 47.096119 -17.935284
-13.94795 44.398041 -18.466822
-14.043346 48.258385 -19.336161
-13.439619 48.981102 -20.741711
-14.252924 51.683689 -20.107439
-21.586914 36.015961 -10.441039
-20.503605 37.280502 -11.057575
-19.473169 38.744396 -11.768594
-20.653734 40.965454 -11.389849
-30.255711 36.72308 -4.647499
-29.748228 35.514904 -5.883706
-29.168932 38.162266 -5.493463
-27.067295 41.475533 -6.927835
-26.042387 43.150867 -7.686616
-25.180475 41.707436 -8.648646
-13.329105 65.981529 -28.137232
-9.710503 65.489243 -35.155617
-11.7729 43.236679 -26.778606
-12.242721 39.791214 -26.202906
-11.991109 40.859646 -28.036385
-11.729009 41.802876 -30.012817
-11.444731 42.641838 -31.962002
-11.181571 44.964134 -30.371693
-9.540197 47.329403 -37.79604
-15.063786 38.049023 -15.301553
-14.460845 39.53228 -16.50481
-15.213411 41.902962 -15.878244
-15.341282 45.762302 -16.650867
-15.591695 49.429035 -17.373459
-22.795238 34.661854 -9.840927
-22.879477 38.247314 -10.019423
-16.795576 66.273018 -22.40317
-11.604223 66.272835 -31.636324
-12.510109 43.87429 -22.249516
-12.387616 41.246075 -23.143606
-12.146056 44.878746 -23.823683
-11.784695 45.678055 -25.576559
-11.446898 46.704472 -27.250359
-9.621359 45.615093 -39.436447
-9.749341 43.958996 -41.310238
-13.058972 39.278133 -20.050997
-13.925947 40.594639 -17.715031
-13.390189 41.711315 -19.158764
-12.927786 43.048447 -20.683096
-12.904797 46.531006 -21.36405
-12.942358 50.311569 -22.288612
-13.04883 53.629486 -23.192368
-18.28299 36.457561 -12.13089
-18.509975 40.276424 -12.572555
-18.731424 43.855881 -13.021114
-32.062054 32.588345 -4.453963
-30.162405 32.619831 -6.317781
-27.699579 35.64563 -7.512733
-28.120365 39.946949 -6.130484
-27.433802 38.57399 -7.242309
-26.52244 36.968224 -8.113524
-25.290123 38.417347 -8.758816
-24.140589 40.154114 -9.402534
-22.969656 41.7262 -10.129949
-23.086899 45.057831 -10.164412
-21.899641 43.048851 -10.861853
-20.955971 44.621494 -11.626888
-19.908154 46.009136 -12.544272
-18.996605 47.529789 -13.517964
-18.126448 48.959507 -14.575479
-17.372152 50.39817 -15.667619
-16.551231 51.795357 -16.964273
-15.870951 53.159771 -18.248013
-15.152761 54.169891 -19.610638
-14.459661 55.075455 -21.057835
-13.801051 55.978157 -22.603994
-13.142571 56.788914 -24.271809
-15.923971 67.337746 -24.243851
-12.456399 38.970131 -24.406326
-11.857535 40.618622 -33.568779
-11.092814 43.566322 -33.79401
-10.468621 46.25811 -34.202938
-25.982174 32.927852 -8.49534
-26.073929 31.258744 -8.467413
-26.682077 32.205984 -8.222342
-12.162592 54.516239 -25.722251
-11.91243 53.302721 -26.061118
-12.174961 52.908343 -25.212513
-14.216108 36.187191 -16.48834
-14.028105 35.043288 -16.854727
-8.388594 64.153228 -37.443573
-8.711669 63.291582 -36.746719
-29.907746 37.999134 -4.346875
-30.405926 37.186322 -3.89504
-29.364356 38.718727 -4.769856
-29.712322 37.442673 -5.070481
-29.907746 37.999134 -4.346875
-25.929729 44.689203 -7.497851
-26.392429 43.759584 -7.065811
-25.558325 44.019025 -8.071203
-25.929729 44.689203 -7.497851
-12.908107 66.127575 -29.013339
-13.2292 67.429378 -28.936943
-12.808203 67.575424 -29.81305
-12.54679 64.909209 -29.175016
-12.967788 64.763162 -28.298908
-12.908107 66.127575 -29.013339
-12.142983 64.950323 -30.047754
-12.54679 64.909209 -29.175016
-9.088893 63.650138 -35.996243
-9.542018 64.101925 -35.213007
-9.257378 65.037456 -35.938852
-8.711669 63.291582 -36.746719
-9.088893 63.650138 -35.996243
-12.713348 39.142392 -22.07515
-12.851123 38.590813 -21.272177
-15.846303 38.745901 -14.495806
-16.231625 38.138798 -14.00205
-16.297832 40.113512 -14.305574
-15.488148 39.384819 -15.050441
-15.421941 37.410105 -14.746918
-15.846303 38.745901 -14.495806
-17.199841 67.407921 -22.206187
-17.237327 65.890224 -21.569412
-11.682353 47.391657 -25.975476
-11.88512 46.974984 -25.125311
-11.782778 48.688586 -25.524228
-11.513454 47.904865 -26.812376
-11.615796 46.191264 -26.413459
-11.682353 47.391657 -25.975476
-11.318184 48.173804 -27.678109
-11.513454 47.904865 -26.812376
-10.912353 42.009974 -39.495085
-10.747782 42.756962 -38.497406
-10.580179 42.429254 -40.455922
-10.912353 42.009974 -39.495085
-9.278534 46.805353 -39.426203
-9.580778 46.472248 -38.616243
-9.237953 47.662508 -38.605999
-9.369736 44.258549 -42.161473
-9.342992 45.117742 -41.22163
-9.852483 43.156544 -42.291191
-9.369736 44.258549 -42.161473
-13.39951 36.834246 -19.007971
-13.587629 36.275272 -18.229074
-13.27011 38.733871 -19.301705
-13.188372 37.378507 -19.757262
-13.39951 36.834246 -19.007971
-18.790526 35.859167 -11.766907
-18.24175 34.580821 -11.886758
-31.451304 33.351669 -4.841929
-31.697003 33.868883 -4.170361
-31.086253 34.632208 -4.558326
-31.125106 32.802991 -5.412059
-31.735855 32.039666 -5.024093
-31.451304 33.351669 -4.841929
-30.50148 33.367413 -5.773838
-30.786031 32.055409 -5.956002
-31.125106 32.802991 -5.412059
-28.764854 35.608225 -6.732727
-29.346303 34.852049 -6.389963
-29.166778 36.27108 -6.22647
-28.142454 36.336443 -7.040983
-28.321979 34.917412 -7.204476
-28.764854 35.608225 -6.732727
-27.879136 41.351362 -5.875725
-28.36307 40.496336 -5.446794
-22.618107 45.764816 -10.563672
-23.117997 46.726452 -10.192664
-22.024478 44.760326 -10.912393
-22.49327 44.053341 -10.513133
-22.618107 45.764816 -10.563672
-21.552643 45.546648 -11.294911
-21.427806 43.835172 -11.24437
-22.024478 44.760326 -10.912393
-20.040803 47.849516 -12.759743
-20.511084 46.982238 -12.236642
-19.585028 48.609842 -13.246589
-19.452379 46.769463 -13.031118
-20.040803 47.849516 -12.759743
-18.3054 50.84667 -14.895285
-18.690205 50.052326 -14.329352
-17.928252 51.566001 -15.441355
-17.7493 49.678838 -15.121549
-18.3054 50.84667 -14.895285
-16.726359 53.662414 -17.39046
-17.108483 52.905068 -16.701009
-16.386219 54.344622 -18.032331
-16.211091 52.477564 -17.606143
-16.726359 53.662414 -17.39046
-15.253293 55.830627 -20.135764
-15.657059 55.413837 -19.394234
-14.906743 56.283409 -20.859362
-14.806211 54.622673 -20.334237
-15.253293 55.830627 -20.135764
-13.879697 57.696768 -23.226715
-14.219937 57.255684 -22.426752
-13.550458 58.102147 -24.060623
-13.471811 56.383536 -23.437902
-13.879697 57.696768 -23.226715
-15.879453 68.682702 -24.86708
-16.344396 68.33361 -23.962187
-14.531878 66.647297 -26.259335
-14.078577 66.843834 -27.133993
-14.55605 65.231506 -25.570141
-14.531878 66.647297 -26.259335
-14.123075 63.976816 -25.722254
-14.55605 65.231506 -25.570141
-10.82455 64.767851 -32.688845
-11.28224 64.926699 -31.830222
-11.146533 66.113987 -32.494946
-12.511484 38.210102 -26.039932
-12.420399 38.719915 -26.93264
-12.009024 40.125675 -32.625203
-12.279638 39.21967 -33.566448
-12.431127 38.726723 -32.622872
-17.1715 40.70196 -13.635499
-17.087041 38.852161 -13.371721
-17.575386 40.047713 -13.195402
-25.427199 30.360582 -8.639383
-26.073929 31.258744 -8.467413
-24.722744 30.846353 -8.888965
-25.427199 30.360582 -8.639383
-24.743595 32.684529 -9.002406
-24.092312 31.55027 -9.150959
-24.722744 30.846353 -8.888965
-11.752406 50.400042 -25.962887
-11.782778 48.688586 -25.524228
-11.955172 49.983368 -25.112721
-11.699509 51.945865 -26.365313
-11.752406 50.400042 -25.962887
-11.699509 51.945865 -26.365313
-11.91243 53.302721 -26.061118
-10.879586 43.267461 -36.635511
-11.095283 42.88693 -35.624659
-10.656227 43.533851 -37.598278
-10.879586 43.267461 -36.635511
-10.479592 44.497465 -36.713934
-10.347787 43.986965 -38.575829
-10.747782 42.756962 -38.497406
-10.656227 43.533851 -37.598278
-13.830605 35.638206 -17.508651
-14.028105 35.043288 -16.854727
-13.724224 37.552544 -17.831991
-13.587629 36.275272 -18.229074
-13.830605 35.638206 -17.508651
-20.972272 34.880572 -10.583892
-21.58361 34.213529 -10.271622
-20.430618 35.512842 -10.89216
-20.972272 34.880572 -10.583892
-21.04526 36.648231 -10.749307
-19.900833 36.270637 -11.230249
-20.430618 35.512842 -10.89216
-19.988387 38.012449 -11.413085
-19.385615 37.002584 -11.585759
-19.900833 36.270637 -11.230249
-30.793831 35.936251 -4.267129
-30.405926 37.186322 -3.89504
-30.548133 35.419037 -4.938697
-31.086253 34.632208 -4.558326
-30.793831 35.936251 -4.267129
-26.904884 42.921917 -6.686421
-27.352601 42.115654 -6.274401
-26.554841 42.3132 -7.307225
-26.904884 42.921917 -6.686421
-26.392429 43.759584 -7.065811
-25.127369 43.29731 -8.552218
-25.611431 42.429152 -8.167631
-25.558325 44.019025 -8.071203
-24.578694 44.132702 -8.928665
-24.631801 42.542828 -9.025092
-25.127369 43.29731 -8.552218
-13.68185 67.13364 -28.000971
-13.2292 67.429378 -28.936943
-13.725832 65.691723 -27.270254
-14.078577 66.843834 -27.133993
-13.68185 67.13364 -28.000971
-13.340561 64.489739 -27.421289
-13.737288 64.199933 -26.55431
-13.725832 65.691723 -27.270254
-13.340561 64.489739 -27.421289
-12.967788 64.763162 -28.298908
-9.935873 64.395874 -34.422985
-10.425043 64.628822 -33.521961
-10.199673 65.722191 -34.254593
-9.935873 64.395874 -34.422985
-9.542018 64.101925 -35.213007
-12.294593 39.254131 -27.849379
-12.420399 38.719915 -26.93264
-12.116915 40.32543 -27.119645
-12.187337 39.784349 -28.831705
-12.294593 39.254131 -27.849379
-12.056286 40.255964 -29.81992
-12.187337 39.784349 -28.831705
-11.860059 41.331261 -29.024601
-11.944761 40.717802 -30.847222
-12.056286 40.255964 -29.81992
-11.58687 42.222357 -30.987409
-11.802623 41.137283 -31.821814
-11.944761 40.717802 -30.847222
-9.496802 48.379216 -37.065861
-9.778937 47.097637 -36.939316
-9.735543 48.14745 -36.209137
-9.226719 48.612223 -37.89872
-9.496802 48.379216 -37.065861
-9.237953 47.662508 -38.605999
-9.226719 48.612223 -37.89872
-16.609106 37.594257 -13.541974
-17.087041 38.852161 -13.371721
-16.609106 37.594257 -13.541974
-16.231625 38.138798 -14.00205
-15.059663 36.100768 -14.998803
-15.421941 37.410105 -14.746918
-14.764401 36.753963 -15.583333
-15.059663 36.100768 -14.998803
-14.762315 38.790651 -15.903181
-14.462931 37.495592 -16.184961
-14.764401 36.753963 -15.583333
-23.481818 32.208676 -9.398899
-24.092312 31.55027 -9.150959
-22.822856 32.84538 -9.687162
-23.481818 32.208676 -9.398899
-23.4542 34.02515 -9.552664
-22.187773 33.536476 -9.971566
-22.822856 32.84538 -9.687162
-22.191076 35.338907 -10.140983
-21.58361 34.213529 -10.271622
-22.187773 33.536476 -9.971566
-8.429149 65.510422 -37.481318
-8.971491 65.950592 -36.637338
-16.715316 64.765467 -21.862038
-17.237327 65.890224 -21.569412
-16.324018 65.326229 -22.711189
-16.715316 64.765467 -21.862038
-12.338035 67.602913 -30.681034
-12.808203 67.575424 -29.81305
-11.896591 67.60252 -31.554473
-12.045666 66.273228 -30.762885
-12.338035 67.602913 -30.681034
-11.413369 67.502831 -32.40519
-11.896591 67.60252 -31.554473
-10.955679 67.343983 -33.263813
-11.146533 66.113987 -32.494946
-11.413369 67.502831 -32.40519
-10.464089 67.055004 -34.072539
-10.955679 67.343983 -33.263813
-9.974919 66.822056 -34.973562
-10.199673 65.722191 -34.254593
-10.464089 67.055004 -34.072539
-9.424616 66.402378 -35.854103
-9.974919 66.822056 -34.973562
-8.971491 65.950592 -36.637338
-9.257378 65.037456 -35.938852
-9.424616 66.402378 -35.854103
-11.279065 46.966698 -28.163165
-11.300241 45.678964 -28.805716
-11.468073 45.416739 -27.89291
-11.279065 46.966698 -28.163165
-11.318184 48.173804 -27.678109
-27.267218 33.170575 -7.958709
-26.682077 32.205984 -8.222342
-9.279001 45.945791 -40.284734
-9.278534 46.805353 -39.426203
-9.68535 44.787045 -40.373342
-9.279001 45.945791 -40.284734
-9.342992 45.117742 -41.22163
-10.235178 42.803715 -41.373562
-10.580179 42.429254 -40.455922
-10.094342 43.584536 -40.392598
-10.235178 42.803715 -41.373562
-9.852483 43.156544 -42.291191
-13.028206 38.010465 -20.529054
-13.188372 37.378507 -19.757262
-12.881889 39.85848 -20.79412
-12.851123 38.590813 -21.272177
-13.028206 38.010465 -20.529054
-14.214023 38.223879 -16.808189
-14.216108 36.187191 -16.48834
-14.462931 37.495592 -16.184961
-17.804732 35.29759 -12.26903
-18.24175 34.580821 -11.886758
-17.886958 37.327737 -12.531257
-17.804732 35.29759 -12.26903
-18.878079 37.600978 -11.949742
-18.790526 35.859167 -11.766907
-19.385615 37.002584 -11.585759
-18.000451 39.237169 -12.752089
-17.886958 37.327737 -12.531257
-18.396483 38.366992 -12.351723
-18.08491 41.086968 -13.015868
-17.575386 40.047713 -13.195402
-18.000451 39.237169 -12.752089
-8.388594 64.153228 -37.443573
-8.429149 65.510422 -37.481318
-32.239741 33.056614 -3.786086
-31.697003 33.868883 -4.170361
-32.610369 31.923648 -4.053764
-32.239741 33.056614 -3.786086
-32.362955 31.309492 -4.671233
-32.610369 31.923648 -4.053764
-32.362955 31.309492 -4.671233
-31.735855 32.039666 -5.024093
-30.4013 31.210265 -6.388902
-30.786031 32.055409 -5.956002
-29.6923 31.832771 -6.718797
-30.4013 31.210265 -6.388902
-29.553392 33.404512 -6.607
-29.955317 34.067368 -6.100744
-29.346303 34.852049 -6.389963
-29.6923 31.832771 -6.718797
-29.553392 33.404512 -6.607
-27.821846 34.055843 -7.589942
-28.321979 34.917412 -7.204476
-27.144951 34.760361 -7.881501
-27.267218 33.170575 -7.958709
-27.821846 34.055843 -7.589942
-28.887354 39.603994 -5.128283
-29.364356 38.718727 -4.769856
-28.644649 39.054608 -5.811974
-28.887354 39.603994 -5.128283
-28.36307 40.496336 -5.446794
-27.59383 40.711241 -6.52916
-27.879136 41.351362 -5.875725
-27.352601 42.115654 -6.274401
-24.075976 45.007511 -9.367657
-24.578694 44.132702 -8.928665
-23.577863 45.847317 -9.749094
-23.117997 46.726452 -10.192664
-23.585012 44.218025 -9.782975
-24.075976 45.007511 -9.367657
-23.577863 45.847317 -9.749094
-21.034993 46.288417 -11.77795
-21.552643 45.546648 -11.294911
-20.432063 45.315315 -12.08558
-21.034993 46.288417 -11.77795
-20.511084 46.982238 -12.236642
-19.125284 49.337467 -13.800595
-19.585028 48.609842 -13.246589
-18.561526 48.244648 -14.046722
-19.125284 49.337467 -13.800595
-18.690205 50.052326 -14.329352
-17.518943 52.206474 -16.052681
-17.928252 51.566001 -15.441355
-16.961692 51.096764 -16.315946
-17.518943 52.206474 -16.052681
-17.108483 52.905068 -16.701009
-16.016154 54.908777 -18.712922
-16.386219 54.344622 -18.032331
-15.511856 53.664831 -18.929326
-16.016154 54.908777 -18.712922
-15.657059 55.413837 -19.394234
-14.549242 56.804333 -21.653672
-14.906743 56.283409 -20.859362
-14.130356 55.526806 -21.830914
-14.549242 56.804333 -21.653672
-14.219937 57.255684 -22.426752
-16.780199 67.801246 -23.041846
-17.199841 67.407921 -22.206187
-16.359773 66.805382 -23.32351
-16.780199 67.801246 -23.041846
-16.344396 68.33361 -23.962187
-15.888216 65.858593 -23.63153
-16.324018 65.326229 -22.711189
-16.359773 66.805382 -23.32351
-15.432583 67.615212 -25.179623
-15.879453 68.682702 -24.86708
-15.456756 66.199421 -24.490429
-15.432583 67.615212 -25.179623
-15.888216 65.858593 -23.63153
-15.456756 66.199421 -24.490429
-14.123075 63.976816 -25.722254
-13.737288 64.199933 -26.55431
-13.189675 58.392488 -24.895939
-13.550458 58.102147 -24.060623
-12.810484 57.062738 -25.132778
-13.189675 58.392488 -24.895939
-12.451759 55.729212 -25.433696
-12.783846 55.455388 -24.572727
-12.810484 57.062738 -25.132778
-12.162592 54.516239 -25.722251
-12.451759 55.729212 -25.433696
-11.701539 64.94993 -30.921193
-12.142983 64.950323 -30.047754
-12.045666 66.273228 -30.762885
-11.701539 64.94993 -30.921193
-11.28224 64.926699 -31.830222
-10.82455 64.767851 -32.688845
-10.425043 64.628822 -33.521961
-12.554752 39.546015 -22.878331
-12.713348 39.142392 -22.07515
-12.546212 40.842451 -22.340424
-12.589144 38.408043 -23.509691
-12.554752 39.546015 -22.878331
-12.422007 40.108103 -23.774966
-12.72177 37.188511 -24.15556
-12.589144 38.408043 -23.509691
-12.618322 37.79956 -25.141642
-12.34956 39.380673 -25.304616
-12.511484 38.210102 -26.039932
-12.72177 37.188511 -24.15556
-12.618322 37.79956 -25.141642
-12.087568 39.805567 -34.604157
-12.279638 39.21967 -33.566448
-11.672575 41.080704 -34.533465
-12.087568 39.805567 -34.604157
-11.651133 41.63023 -32.76539
-12.009024 40.125675 -32.625203
-11.802623 41.137283 -31.821814
-11.290215 42.554554 -34.64608
-11.672575 41.080704 -34.533465
-11.475175 42.092472 -33.681394
-10.897883 43.898698 -34.772588
-11.095283 42.88693 -35.624659
-11.290215 42.554554 -34.64608
-11.146402 46.096529 -29.723833
-11.33541 44.54657 -29.453577
-11.300241 45.678964 -28.805716
-10.95785 46.460222 -30.675057
-11.146402 46.096529 -29.723833
-10.805455 46.756584 -31.576456
-11.029176 45.260496 -31.273093
-10.95785 46.460222 -30.675057
-10.618339 46.956573 -32.518696
-10.805455 46.756584 -31.576456
-10.41426 47.307199 -33.532919
-10.672701 45.907484 -33.188715
-10.618339 46.956573 -32.518696
-10.197079 47.589222 -34.429949
-10.41426 47.307199 -33.532919
-9.971608 47.893102 -35.369776
-10.24315 46.561991 -35.142765
-10.197079 47.589222 -34.429949
-9.735543 48.14745 -36.209137
-9.971608 47.893102 -35.369776
3 0 30 28
3 0 32 30
3 1 119 121
3 119 33 120
3 119 120 121
3 1 35 33
3 2 38 36
3 2 122 124
3 124 123 38
3 122 123 124
3 3 40 39
3 125 41 126
3 5 44 42
3 5 46 44
3 6 48 47
3 6 50 48
3 7 127 128
3 129 51 130
3 131 53 132
3 133 132 51
3 131 132 133
3 134 55 135
3 137 136 55
3 8 138 140
3 138 57 139
3 138 139 140
3 8 141 143
3 143 142 57
3 141 142 143
3 8 144 145
3 7 146 148
3 148 147 58
3 146 147 148
3 7 149 150
3 4 151 152
3 9 61 59
3 9 62 61
3 9 64 62
3 10 153 155
3 155 154 29
3 153 154 155
3 10 156 158
3 156 66 157
3 156 157 158
3 10 68 66
3 12 69 31
3 12 70 69
3 13 71 34
3 13 72 71
3 159 73 160
3 15 77 75
3 161 78 162
3 163 162 37
3 161 162 163
3 164 79 165
3 166 165 78
3 164 165 166
3 168 167 79
3 17 169 170
3 17 171 172
3 173 80 174
3 175 174 65
3 173 174 175
3 176 81 177
3 179 178 81
3 18 180 181
3 18 182 184
3 182 82 183
3 182 183 184
3 11 83 67
3 19 84 43
3 19 85 84
3 19 86 85
3 20 87 45
3 20 88 87
3 185 89 186
3 21 90 49
3 21 91 90
3 22 187 189
3 187 92 188
3 187 188 189
3 22 190 192
3 192 191 92
3 190 191 192
3 22 193 195
3 193 93 194
3 193 194 195
3 23 196 198
3 198 197 52
3 196 197 198
3 23 199 201
3 199 94 200
3 199 200 201
3 202 95 203
3 24 96 54
3 24 97 96
3 24 98 97
3 25 99 56
3 25 100 99
3 204 101 205
3 206 102 207
3 208 207 101
3 206 207 208
3 209 103 210
3 211 210 102
3 209 210 211
3 212 104 213
3 214 105 215
3 216 215 104
3 214 215 216
3 217 106 218
3 219 107 220
3 221 220 106
3 219 220 221
3 222 108 223
3 224 109 225
3 226 225 108
3 224 225 226
3 227 110 228
3 229 111 230
3 231 230 110
3 229 230 231
3 232 112 233
3 234 113 235
3 236 235 112
3 234 235 236
3 237 114 238
3 26 239 240
3 26 241 242
3 26 243 244
3 14 245 247
3 247 246 74
3 245 246 247
3 16 115 76
3 249 248 60
3 250 116 251
3 250 251 252
3 27 117 63
3 27 118 117
3 28 253 255
3 253 29 254
3 253 254 255
3 30 29 28
3 30 10 29
3 30 31 10
3 32 31 30
3 32 12 31
3 33 256 257
3 33 258 259
3 33 260 262
3 260 34 261
3 260 261 262
3 35 34 33
3 35 13 34
3 36 37 15
3 38 37 36
3 38 263 265
3 265 264 37
3 263 264 265
3 38 266 267
3 269 268 38
3 39 270 271
3 40 272 274
3 274 273 39
3 272 273 274
3 40 275 277
3 275 17 276
3 275 276 277
3 41 278 279
3 41 280 282
3 280 18 281
3 280 281 282
3 42 43 11
3 44 43 42
3 44 19 43
3 44 45 19
3 46 45 44
3 46 20 45
3 47 283 284
3 48 285 287
3 287 286 47
3 285 286 287
3 48 288 289
3 48 290 292
3 290 49 291
3 290 291 292
3 50 49 48
3 50 21 49
3 51 293 294
3 51 295 297
3 295 22 296
3 295 296 297
3 51 52 22
3 53 52 51
3 53 23 52
3 298 54 299
3 55 300 302
3 300 54 301
3 300 301 302
3 55 24 54
3 55 56 24
3 303 56 304
3 305 304 55
3 303 304 305
3 306 25 307
3 308 307 56
3 306 307 308
3 57 309 310
3 57 311 313
3 311 26 312
3 311 312 313
3 57 314 316
3 316 315 26
3 314 315 316
3 318 317 57
3 58 319 321
3 321 320 14
3 319 320 321
3 323 322 58
3 59 60 16
3 61 60 59
3 61 324 326
3 326 325 60
3 324 325 326
3 61 327 328
3 62 329 331
3 331 330 61
3 329 330 331
3 62 332 333
3 62 334 336
3 334 63 335
3 334 335 336
3 64 63 62
3 64 27 63
3 337 65 338
3 339 338 3
3 337 338 339
3 340 65 341
3 343 342 65
3 29 344 345
3 347 346 29
3 66 348 349
3 66 350 351
3 66 352 354
3 352 67 353
3 352 353 354
3 68 67 66
3 68 11 67
3 31 68 10
3 69 68 31
3 69 11 68
3 69 42 11
3 70 42 69
3 70 5 42
3 34 355 356
3 71 357 359
3 359 358 34
3 357 358 359
3 71 360 361
3 71 362 364
3 362 47 363
3 362 363 364
3 72 47 71
3 72 6 47
3 366 365 7
3 73 367 368
3 73 369 370
3 371 8 372
3 373 74 374
3 375 374 8
3 373 374 375
3 376 74 377
3 378 14 379
3 380 379 74
3 378 379 380
3 381 14 382
3 383 58 384
3 385 384 14
3 383 384 385
3 386 58 387
3 388 7 389
3 390 389 58
3 388 389 390
3 75 76 4
3 77 76 75
3 77 16 76
3 37 77 15
3 78 77 37
3 78 16 77
3 78 59 16
3 79 59 78
3 79 9 59
3 79 391 393
3 393 392 9
3 391 392 393
3 395 394 79
3 396 1 397
3 65 40 3
3 80 40 65
3 80 17 40
3 398 80 399
3 81 400 402
3 400 80 401
3 400 401 402
3 81 17 80
3 81 403 405
3 405 404 17
3 403 404 405
3 407 406 81
3 82 408 409
3 82 410 412
3 410 4 411
3 410 411 412
3 67 413 415
3 413 41 414
3 413 414 415
3 83 41 67
3 83 18 41
3 43 83 11
3 84 83 43
3 84 18 83
3 84 82 18
3 85 82 84
3 85 4 82
3 85 75 4
3 86 75 85
3 86 15 75
3 45 86 19
3 87 86 45
3 87 15 86
3 87 36 15
3 88 36 87
3 88 2 36
3 89 416 417
3 89 418 419
3 49 420 422
3 420 89 421
3 420 421 422
3 90 89 49
3 90 423 425
3 425 424 89
3 423 424 425
3 90 426 428
3 426 28 427
3 426 427 428
3 91 28 90
3 91 0 28
3 430 429 7
3 92 431 432
3 92 433 434
3 92 435 436
3 438 437 92
3 93 439 440
3 93 441 442
3 52 93 22
3 443 93 444
3 445 444 52
3 443 444 445
3 447 446 93
3 94 448 449
3 94 450 452
3 450 1 451
3 450 451 452
3 453 53 454
3 95 455 457
3 455 53 456
3 455 456 457
3 95 23 53
3 54 458 460
3 458 95 459
3 458 459 460
3 96 95 54
3 96 23 95
3 96 94 23
3 97 94 96
3 97 1 94
3 97 35 1
3 98 35 97
3 98 13 35
3 56 98 24
3 99 98 56
3 99 13 98
3 99 72 13
3 100 72 99
3 100 6 72
3 461 25 462
3 101 463 464
3 101 465 467
3 465 25 466
3 465 466 467
3 101 100 25
3 102 100 101
3 102 6 100
3 102 50 6
3 103 50 102
3 103 21 50
3 468 103 469
3 104 470 472
3 470 103 471
3 470 471 472
3 104 21 103
3 104 91 21
3 105 91 104
3 105 0 91
3 473 105 474
3 106 475 477
3 475 105 476
3 475 476 477
3 106 0 105
3 106 32 0
3 107 32 106
3 107 12 32
3 478 107 479
3 108 480 482
3 480 107 481
3 480 481 482
3 108 12 107
3 108 70 12
3 109 70 108
3 109 5 70
3 483 109 484
3 110 485 487
3 485 109 486
3 485 486 487
3 110 5 109
3 110 46 5
3 111 46 110
3 111 20 46
3 488 111 489
3 112 490 492
3 490 111 491
3 490 491 492
3 112 20 111
3 112 88 20
3 113 88 112
3 113 2 88
3 493 73 494
3 114 495 497
3 495 73 496
3 495 496 497
3 114 498 500
3 500 499 73
3 498 499 500
3 501 114 502
3 503 114 504
3 506 505 114
3 508 507 26
3 509 113 510
3 511 113 512
3 513 2 514
3 515 514 113
3 513 514 515
3 517 516 2
3 74 518 520
3 520 519 8
3 518 519 520
3 522 521 74
3 524 523 14
3 76 525 527
3 527 526 4
3 525 526 527
3 115 528 530
3 530 529 76
3 528 529 530
3 115 531 532
3 60 115 16
3 533 115 534
3 535 534 60
3 533 534 535
3 537 536 115
3 116 538 539
3 116 540 541
3 63 542 544
3 542 116 543
3 542 543 544
3 117 116 63
3 117 545 547
3 547 546 116
3 545 546 547
3 117 548 550
3 548 39 549
3 548 549 550
3 118 39 117
3 118 3 39
3 551 64 552
3 553 552 9
3 551 552 553
3 554 64 555
3 556 27 557
3 558 557 64
3 556 557 558
3 559 27 560
3 561 118 562
3 563 562 27
3 561 562 563
3 564 118 565
3 566 3 567
3 568 567 118
3 566 567 568
3 570 569 3
