ply
format ascii 1.0
element vertex 447
property float x
property float y
property float z
element face 369
property list uchar int vertex_index
end_header
-5.613364 29.445332 -65.26532
1.486815 3.298111 -58.359138
-12.739565 26.946716 -70.018173
-5.624463 21.40056 -69.535439
-0.987009 12.81214 -64.922813
-12.680813 30.251247 -66.763519
-8.919678 28.421505 -68.008133
-8.889956 24.448641 -70.466385
-5.532343 25.623814 -67.884689
2.422802 23.460287 -59.834118
-16.713011 24.523634 -71.052628
-12.681582 22.662584 -72.072296
-9.006163 19.921186 -71.754951
0.154303 27.315212 -61.356823
-2.496759 26.193531 -64.757339
-2.671069 21.888338 -66.625435
0.390806 8.129424 -61.821903
-7.352966 30.672647 -65.084328
-8.943569 29.970074 -66.526947
-7.186428 29.008818 -66.648842
-7.218365 27.17724 -68.096611
-5.5672 27.562731 -66.713638
3.3059 -1.219112 -53.679577
-14.411837 31.782902 -63.637661
-12.583318 28.692995 -68.550491
-14.509259 29.236872 -67.777687
-14.554895 27.679468 -69.364845
-16.588095 26.495237 -69.866791
-14.664906 25.786995 -70.714844
-14.770402 23.609974 -71.770592
-12.762739 24.88903 -71.222557
-7.238864 23.039619 -70.159256
-9.054275 22.265598 -71.293602
-7.320583 20.682253 -70.815292
-7.423162 18.23859 -71.174164
-5.83343 18.957813 -70.106903
1.297072 25.417305 -60.748074
0.066434 24.963915 -62.350761
-1.18924 24.592184 -64.005333
-2.599216 24.143456 -65.804916
-1.284287 22.210264 -64.881927
-0.799357 15.395554 -64.88855
-1.700467 17.558823 -66.106667
-1.955868 15.301744 -66.439163
-2.173439 12.766239 -66.501411
1.86627 5.928952 -58.627403
1.328248 8.401849 -60.31271
0.968123 5.799503 -60.135754
-2.774404 7.61376 -66.20031
-2.948537 4.898462 -65.604721
-3.156741 2.371137 -64.972229
-14.757195 18.781399 -72.869324
-10.74777 29.439669 -67.591156
-10.875863 27.769714 -69.153633
-10.822744 25.840139 -70.425613
-9.025895 26.606947 -69.386292
-7.291544 25.264931 -69.272079
-5.583963 23.604103 -68.831749
2.861082 6.08009 -57.046253
3.780259 1.438421 -54.028229
-14.553565 30.61414 -65.822937
-14.674154 21.333971 -72.473877
-12.8408 20.125566 -72.656624
-10.803935 23.755224 -71.386749
-10.85291 21.289162 -72.113335
-7.584242 15.804073 -71.287956
-3.984968 29.878252 -63.691528
2.555285 26.08918 -59.180214
-4.028709 27.951927 -65.179375
-3.932946 25.998453 -66.306038
-4.082232 23.895779 -67.427719
-4.097815 21.582096 -68.187332
-1.538482 19.825554 -65.681824
-0.268046 10.53866 -63.4622
-1.367032 10.378379 -65.057365
-3.37309 -0.467366 -64.125496
-13.492765 32.203038 -63.180059
-14.358893 32.242977 -62.501369
0.010265 23.759813 -62.770574
0.649133 23.930181 -61.894081
-0.617572 23.573948 -63.59786
-0.561403 24.77805 -63.178047
0.010265 23.759813 -62.770574
-0.665095 22.382988 -64.036158
-1.236763 23.401224 -64.44363
-0.617572 23.573948 -63.59786
-2.553975 3.758407 -64.756167
-2.423872 5.120838 -65.041404
-2.658078 2.494744 -64.43992
-3.052639 3.6348 -65.288475
-2.553975 3.758407 -64.756167
-14.758657 17.350088 -72.904133
-13.753615 18.178126 -72.86523
3.111411 4.980405 -56.281597
3.385968 6.342906 -56.361984
3.636297 5.243221 -55.597328
2.865154 3.666902 -56.213536
2.614825 4.766587 -56.978192
3.111411 4.980405 -56.281597
4.051147 0.297818 -53.250855
4.326656 1.718838 -53.447066
3.070123 -0.040369 -54.485623
2.848618 -1.379297 -54.314539
-13.617189 30.432693 -66.293228
-13.606222 31.07549 -65.315017
-12.669846 30.894044 -65.785308
-15.460201 29.415017 -67.192814
-15.511287 28.694436 -68.090317
-17.749679 24.802134 -70.535359
-17.687221 25.787935 -69.94244
-16.650553 25.509436 -70.45971
-17.723618 23.717484 -71.114148
-17.749679 24.802134 -70.535359
-16.765217 23.403643 -71.499085
-17.723618 23.717484 -71.114148
-9.955421 19.42903 -72.112068
-10.878794 20.113018 -72.29126
-9.929537 20.605174 -71.934143
-9.131103 18.725037 -71.898537
-9.955421 19.42903 -72.112068
-6.784002 16.142117 -70.813449
-7.503702 17.021331 -71.23106
-6.703462 17.359375 -70.756553
-6.83401 14.857551 -70.777432
-6.784002 16.142117 -70.813449
-3.291311 30.161644 -62.916037
-4.038312 30.790987 -62.92769
2.489044 24.774733 -59.507166
3.107635 25.152777 -58.745495
3.041394 23.83833 -59.072447
0.762349 27.680467 -60.590231
1.333734 26.731514 -60.285857
0.725688 26.366259 -61.052448
0.189272 28.455796 -60.802721
0.762349 27.680467 -60.590231
-0.503171 28.073813 -61.645033
0.189272 28.455796 -60.802721
-2.56306 27.272165 -64.194362
-1.853966 26.48162 -63.919905
-3.262734 27.072729 -64.968357
-3.329035 28.151364 -64.40538
-2.56306 27.272165 -64.194362
-1.001151 18.820321 -65.049405
-0.90406 20.009218 -64.812258
-2.283821 18.578243 -66.707478
-2.394195 17.431286 -66.938126
0.55674 9.426761 -61.866173
1.025461 9.562973 -61.111576
0.859527 8.265636 -61.067307
0.06138 9.334042 -62.642052
0.227314 10.631379 -62.686321
0.55674 9.426761 -61.866173
-1.488225 9.120579 -64.933266
-0.953682 9.245093 -64.187294
-1.074874 7.987293 -64.063195
-1.915376 10.258447 -65.7426
-1.488225 9.120579 -64.933266
-3.240784 8.717446 -66.952396
-3.312177 7.353293 -66.690277
-2.97211 -1.674055 -63.20619
-2.851225 -0.300482 -63.610132
-2.450245 -1.507171 -62.690827
-8.148267 30.321361 -65.805638
-8.974183 30.78012 -65.554928
-8.178882 31.131407 -64.833619
3.610564 -2.355438 -52.828667
3.813967 -1.030949 -53.076529
3.115502 -2.475142 -53.466709
3.610564 -2.355438 -52.828667
2.65822 -2.635327 -54.101671
2.848618 -1.379297 -54.314539
3.115502 -2.475142 -53.466709
-15.290706 31.758129 -62.927803
-14.358893 32.242977 -62.501369
-15.344152 31.295378 -64.069402
-15.290706 31.758129 -62.927803
-15.534105 27.915734 -68.883895
-15.511287 28.694436 -68.090317
-14.532077 28.45817 -68.571266
-15.571495 27.087353 -69.615818
-16.550705 27.323619 -69.134869
-15.534105 27.915734 -68.883895
-5.908596 17.718986 -70.222923
-6.703462 17.359375 -70.756553
-6.628296 18.598202 -70.640534
1.264452 24.156876 -61.092737
1.859937 24.438796 -60.291096
1.827317 23.178368 -60.635759
0.681753 25.19061 -61.549418
1.264452 24.156876 -61.092737
0.649133 23.930181 -61.894081
-0.57237 25.866812 -62.716616
-0.528435 27.04246 -62.219646
0.110368 26.139564 -61.853792
-1.200207 25.680946 -63.543901
-0.57237 25.866812 -62.716616
-0.561403 24.77805 -63.178047
-1.842999 25.392857 -64.381336
-1.853966 26.48162 -63.919905
-1.200207 25.680946 -63.543901
-1.249912 16.477189 -65.497608
-1.082144 17.686955 -65.261826
-0.631589 16.605321 -64.652767
-2.521896 16.302746 -67.104374
-2.394195 17.431286 -66.938126
-1.828167 16.430284 -66.272915
-2.599974 15.09005 -67.180733
-2.521896 16.302746 -67.104374
-2.70876 13.822298 -67.211857
-2.599974 15.09005 -67.180733
-2.064653 14.033991 -66.470287
-2.778948 12.533591 -67.159763
-2.70876 13.822298 -67.211857
1.597259 7.165401 -59.470056
1.824893 8.422079 -59.487877
2.093904 7.18563 -58.645224
-2.336806 6.478487 -65.339199
-2.191911 7.73827 -65.504738
-2.861471 6.256111 -65.902515
-2.336806 6.478487 -65.339199
-2.423872 5.120838 -65.041404
-3.399244 5.995643 -66.392482
-3.312177 7.353293 -66.690277
-2.861471 6.256111 -65.902515
-3.536938 4.702948 -66.12896
-3.399244 5.995643 -66.392482
-3.64104 3.439286 -65.812714
-3.536938 4.702948 -66.12896
-3.052639 3.6348 -65.288475
-3.741526 2.006311 -65.400044
-3.64104 3.439286 -65.812714
-15.764791 17.859251 -72.831917
-15.768876 19.307147 -72.704258
-15.764791 17.859251 -72.831917
-14.758657 17.350088 -72.904133
-11.722185 30.584554 -66.292434
-12.669846 30.894044 -65.785308
-9.853563 30.443968 -66.174149
-8.974183 30.78012 -65.554928
-10.755664 30.178765 -66.706253
-9.853563 30.443968 -66.174149
-9.845669 29.704871 -67.059052
-11.714291 29.845458 -67.177337
-11.722185 30.584554 -66.292434
-10.755664 30.178765 -66.706253
2.849326 22.443448 -59.410078
3.041394 23.83833 -59.072447
2.290648 22.190715 -60.153526
2.849326 22.443448 -59.410078
1.827317 23.178368 -60.635759
2.290648 22.190715 -60.153526
-0.213742 15.476658 -64.023089
-0.631589 16.605321 -64.652767
-0.383993 14.28479 -64.169155
-0.213742 15.476658 -64.023089
-0.477819 12.993083 -64.186286
-0.893183 14.103847 -64.905682
-0.383993 14.28479 -64.169155
1.072306 3.284782 -59.083071
1.291352 2.024602 -58.220462
3.095627 7.453075 -57.124981
3.385968 6.342906 -56.361984
2.59131 7.261199 -57.854648
3.095627 7.453075 -57.124981
2.363676 6.004521 -57.836828
2.093904 7.18563 -58.645224
2.59131 7.261199 -57.854648
2.117419 4.691018 -57.768766
2.363676 6.004521 -57.836828
2.614825 4.766587 -56.978192
1.927691 3.375598 -57.634634
1.676543 4.613531 -58.493271
2.117419 4.691018 -57.768766
4.079595 2.818428 -54.136099
4.326656 1.718838 -53.447066
3.571 2.659571 -54.772585
4.079595 2.818428 -54.136099
3.54308 0.109654 -53.853903
4.051147 0.297818 -53.250855
3.813967 -1.030949 -53.076529
3.307303 1.288397 -54.659948
3.54308 0.109654 -53.853903
3.070123 -0.040369 -54.485623
3.098044 2.509547 -55.404305
3.571 2.659571 -54.772585
3.307303 1.288397 -54.659948
1.726548 2.085437 -57.484713
1.927691 3.375598 -57.634634
1.291352 2.024602 -58.220462
1.726548 2.085437 -57.484713
-13.535358 31.659871 -64.22238
-13.492765 32.203038 -63.180059
-14.482701 31.198521 -64.730299
-13.535358 31.659871 -64.22238
-13.606222 31.07549 -65.315017
-15.415017 30.710997 -65.16204
-15.344152 31.295378 -64.069402
-14.482701 31.198521 -64.730299
-15.482354 30.103651 -66.215439
-14.531412 29.925506 -66.800312
-15.460201 29.415017 -67.192814
-15.415017 30.710997 -65.16204
-15.482354 30.103651 -66.215439
-17.577742 26.726756 -69.258343
-16.550705 27.323619 -69.134869
-17.577742 26.726756 -69.258343
-17.687221 25.787935 -69.94244
-15.793913 22.946813 -71.858067
-16.765217 23.403643 -71.499085
-15.741707 24.066804 -71.41161
-15.745788 21.808811 -72.209709
-15.793913 22.946813 -71.858067
-14.722278 22.471972 -72.122234
-15.727356 20.583433 -72.506535
-15.745788 21.808811 -72.209709
-14.715674 20.057685 -72.671601
-15.768876 19.307147 -72.704258
-15.727356 20.583433 -72.506535
-12.795417 18.85021 -72.758881
-13.753615 18.178126 -72.86523
-13.798997 19.453482 -72.762974
-11.872739 19.53122 -72.562905
-11.846855 20.707364 -72.38498
-10.878794 20.113018 -72.29126
-12.795417 18.85021 -72.758881
-11.872739 19.53122 -72.562905
-8.339602 17.883738 -71.608143
-9.131103 18.725037 -71.898537
-8.214662 19.079888 -71.464558
-8.420143 16.66648 -71.665039
-8.339602 17.883738 -71.608143
-7.503702 17.021331 -71.23106
-8.385603 15.32744 -71.615276
-8.420143 16.66648 -71.665039
-7.652145 14.36478 -71.196716
-8.385603 15.32744 -71.615276
-7.652145 14.36478 -71.196716
-6.83401 14.857551 -70.777432
-7.347554 31.431123 -64.179947
-8.178882 31.131407 -64.833619
-6.498459 30.873779 -64.406937
-7.347554 31.431123 -64.179947
-5.628658 30.260122 -64.497433
-6.483165 30.05899 -65.174824
-6.498459 30.873779 -64.406937
-4.81446 30.476582 -63.710537
-4.038312 30.790987 -62.92769
-4.799166 29.661792 -64.478424
-5.628658 30.260122 -64.497433
-4.81446 30.476582 -63.710537
3.21241 26.559971 -58.437588
3.76476 25.623568 -58.002869
3.107635 25.152777 -58.745495
2.644404 27.448135 -58.746158
3.21241 26.559971 -58.437588
1.96284 27.067451 -59.501926
1.926179 25.753242 -59.964144
1.333734 26.731514 -60.285857
2.644404 27.448135 -58.746158
1.96284 27.067451 -59.501926
-0.503171 28.073813 -61.645033
-0.528435 27.04246 -62.219646
-3.307164 29.114526 -63.661457
-3.291311 30.161644 -62.916037
-4.006838 28.91509 -64.435451
-3.307164 29.114526 -63.661457
-3.329035 28.151364 -64.40538
-0.776963 21.201573 -64.41231
-0.665095 22.382988 -64.036158
-1.411385 21.017909 -65.281876
-0.776963 21.201573 -64.41231
-0.90406 20.009218 -64.812258
-1.619474 18.692189 -65.894246
-1.001151 18.820321 -65.049405
-1.082144 17.686955 -65.261826
-2.202828 19.711608 -66.495057
-1.619474 18.692189 -65.894246
-2.283821 18.578243 -66.707478
-2.769121 20.743 -66.966862
-2.104776 20.856946 -66.153629
-2.202828 19.711608 -66.495057
-3.482494 20.589879 -67.74781
-3.384442 21.735217 -67.406384
-2.769121 20.743 -66.966862
-4.189548 20.433246 -68.49231
-3.482494 20.589879 -67.74781
-4.952872 20.342478 -69.166363
-4.861139 21.491328 -68.861385
-4.189548 20.433246 -68.49231
-5.057356 19.121105 -69.452095
-5.728947 20.179187 -69.821171
-4.952872 20.342478 -69.166363
-5.136815 17.919665 -69.612942
-5.057356 19.121105 -69.452095
-5.908596 17.718986 -70.222923
-5.136815 17.919665 -69.612942
1.569323 9.65184 -60.233944
1.824893 8.422079 -59.487877
1.569323 9.65184 -60.233944
1.025461 9.562973 -61.111576
-0.118337 11.856343 -63.45598
0.227314 10.631379 -62.686321
-0.627528 11.6754 -64.192507
-0.477819 12.993083 -64.186286
-0.118337 11.856343 -63.45598
0.81296 4.535478 -59.971379
1.227469 4.548807 -59.247446
1.072306 3.284782 -59.083071
0.523875 5.677445 -60.855678
0.81296 4.535478 -59.971379
0.235217 6.842406 -61.698753
0.679464 6.964463 -60.978828
0.523875 5.677445 -60.855678
-0.074763 8.120615 -62.569563
0.235217 6.842406 -61.698753
-0.404189 9.325233 -63.389712
0.06138 9.334042 -62.642052
-0.074763 8.120615 -62.569563
-0.817539 10.45852 -64.259783
-0.404189 9.325233 -63.389712
-0.953682 9.245093 -64.187294
-2.31858 11.452376 -66.464623
-1.770236 11.572309 -65.779388
-1.915376 10.258447 -65.7426
-2.924088 11.219729 -67.122974
-2.778948 12.533591 -67.159763
-2.31858 11.452376 -66.464623
-2.619062 8.876137 -66.314072
-2.191911 7.73827 -65.504738
-3.085441 9.979824 -67.066159
-2.619062 8.876137 -66.314072
-3.240784 8.717446 -66.952396
-2.74305 1.118769 -64.033499
-2.658078 2.494744 -64.43992
-3.264915 0.951886 -64.548862
-2.74305 1.118769 -64.033499
-2.851225 -0.300482 -63.610132
-3.849701 0.587059 -64.976677
-3.741526 2.006311 -65.400044
-3.264915 0.951886 -64.548862
-3.460527 -1.943308 -63.617119
-2.97211 -1.674055 -63.20619
-3.059547 -3.149996 -62.697813
-3.943185 -0.859455 -64.498623
-3.460527 -1.943308 -63.617119
-3.849701 0.587059 -64.976677
-3.943185 -0.859455 -64.498623
3 0 19 17
3 0 21 19
3 76 23 77
3 2 26 24
3 2 28 26
3 2 30 28
3 3 33 31
3 3 35 33
3 78 37 79
3 80 38 81
3 82 81 37
3 80 81 82
3 83 40 84
3 85 84 38
3 83 84 85
3 4 43 41
3 4 44 43
3 1 47 45
3 86 49 87
3 88 50 89
3 90 89 49
3 88 89 90
3 92 91 51
3 6 52 18
3 6 53 52
3 6 55 53
3 8 56 20
3 8 57 56
3 93 58 94
3 93 94 95
3 98 97 58
3 96 97 98
3 99 59 100
3 102 101 22
3 5 103 105
3 103 60 104
3 103 104 105
3 107 106 25
3 10 108 110
3 110 109 27
3 108 109 110
3 10 111 112
3 10 113 114
3 11 61 29
3 11 62 61
3 7 63 54
3 12 64 32
3 12 115 117
3 117 116 64
3 115 116 117
3 12 118 119
3 120 65 121
3 122 121 34
3 120 121 122
3 124 123 65
3 125 66 126
3 9 127 129
3 127 67 128
3 127 128 129
3 13 130 132
3 132 131 36
3 130 131 132
3 13 133 134
3 13 135 136
3 14 137 138
3 14 139 141
3 139 68 140
3 139 140 141
3 14 69 68
3 15 70 39
3 15 71 70
3 142 72 143
3 145 144 42
3 16 146 148
3 148 147 46
3 146 147 148
3 16 149 151
3 149 73 150
3 149 150 151
3 152 74 153
3 152 153 154
3 156 155 74
3 158 157 48
3 159 75 160
3 159 160 161
3 17 162 164
3 162 18 163
3 162 163 164
3 19 18 17
3 19 6 18
3 19 20 6
3 21 20 19
3 21 8 20
3 165 22 166
3 167 22 168
3 171 170 22
3 169 170 171
3 23 172 173
3 23 174 175
3 24 25 5
3 26 25 24
3 26 176 178
3 178 177 25
3 176 177 178
3 26 179 181
3 179 27 180
3 179 180 181
3 28 27 26
3 28 10 27
3 28 29 10
3 30 29 28
3 30 11 29
3 31 32 7
3 33 32 31
3 33 12 32
3 33 34 12
3 35 34 33
3 35 182 184
3 184 183 34
3 182 183 184
3 185 36 186
3 187 186 9
3 185 186 187
3 37 188 190
3 188 36 189
3 188 189 190
3 37 13 36
3 37 191 193
3 193 192 13
3 191 192 193
3 38 194 196
3 196 195 37
3 194 195 196
3 38 197 199
3 197 14 198
3 197 198 199
3 38 39 14
3 40 39 38
3 40 15 39
3 41 200 202
3 200 42 201
3 200 201 202
3 43 42 41
3 43 203 205
3 205 204 42
3 203 204 205
3 43 206 207
3 44 208 210
3 210 209 43
3 208 209 210
3 44 211 212
3 45 213 215
3 213 46 214
3 213 214 215
3 47 46 45
3 47 16 46
3 216 48 217
3 49 218 220
3 218 48 219
3 218 219 220
3 49 221 223
3 223 222 48
3 221 222 223
3 49 224 225
3 50 226 228
3 228 227 49
3 226 227 228
3 50 229 230
3 51 231 232
3 234 233 51
3 235 5 236
3 18 237 238
3 52 239 241
3 241 240 18
3 239 240 241
3 52 242 244
3 242 5 243
3 242 243 244
3 52 24 5
3 53 24 52
3 53 2 24
3 53 54 2
3 55 54 53
3 55 7 54
3 20 55 6
3 56 55 20
3 56 7 55
3 56 31 7
3 57 31 56
3 57 3 31
3 245 9 246
3 247 9 248
3 250 249 9
3 251 41 252
3 253 41 254
3 255 4 256
3 257 256 41
3 255 256 257
3 259 258 1
3 58 260 261
3 58 262 263
3 58 264 266
3 264 45 265
3 264 265 266
3 267 45 268
3 269 268 58
3 267 268 269
3 270 1 271
3 272 271 45
3 270 271 272
3 59 273 274
3 59 275 276
3 22 277 279
3 277 59 278
3 277 278 279
3 280 59 281
3 282 281 22
3 280 281 282
3 285 284 59
3 283 284 285
3 286 1 287
3 289 288 1
3 290 23 291
3 60 292 294
3 292 23 293
3 292 293 294
3 60 295 297
3 297 296 23
3 295 296 297
3 25 60 5
3 298 60 299
3 300 299 25
3 298 299 300
3 302 301 60
3 27 303 304
3 306 305 27
3 29 307 309
3 309 308 10
3 307 308 309
3 61 310 312
3 312 311 29
3 310 311 312
3 61 313 314
3 61 315 317
3 315 51 316
3 315 316 317
3 62 51 61
3 62 318 320
3 320 319 51
3 318 319 320
3 54 30 2
3 63 30 54
3 63 11 30
3 32 63 7
3 64 63 32
3 64 11 63
3 64 62 11
3 321 62 322
3 323 322 64
3 321 322 323
3 325 324 62
3 34 326 328
3 328 327 12
3 326 327 328
3 65 329 331
3 331 330 34
3 329 330 331
3 65 332 333
3 65 334 335
3 337 336 65
3 338 17 339
3 340 17 341
3 342 0 343
3 344 343 17
3 342 343 344
3 66 345 346
3 66 347 349
3 347 0 348
3 347 348 349
3 67 350 352
3 350 351 352
3 67 353 354
3 36 67 9
3 355 67 356
3 357 356 36
3 355 356 357
3 359 358 67
3 361 360 13
3 362 66 363
3 68 364 366
3 364 66 365
3 364 365 366
3 68 0 66
3 68 21 0
3 69 21 68
3 69 8 21
3 39 69 14
3 70 69 39
3 70 8 69
3 70 57 8
3 71 57 70
3 71 3 57
3 367 40 368
3 72 369 371
3 369 40 370
3 369 370 371
3 72 15 40
3 42 372 374
3 372 72 373
3 372 373 374
3 375 72 376
3 377 376 42
3 375 376 377
3 378 15 379
3 380 379 72
3 378 379 380
3 381 71 382
3 383 382 15
3 381 382 383
3 384 71 385
3 386 3 387
3 388 387 71
3 386 387 388
3 389 35 390
3 391 390 3
3 389 390 391
3 392 35 393
3 395 394 35
3 46 396 397
3 399 398 46
3 73 400 401
3 73 402 404
3 402 4 403
3 402 403 404
3 405 47 406
3 407 406 1
3 405 406 407
3 408 47 409
3 410 16 411
3 412 411 47
3 410 411 412
3 413 16 414
3 415 73 416
3 417 416 16
3 415 416 417
3 74 418 420
3 418 73 419
3 418 419 420
3 74 4 73
3 74 44 4
3 421 44 422
3 423 422 74
3 421 422 423
3 426 425 44
3 424 425 426
3 48 427 428
3 431 430 48
3 429 430 431
3 432 50 433
3 75 434 436
3 434 50 435
3 434 435 436
3 75 437 439
3 439 438 50
3 437 438 439
3 440 75 441
3 440 441 442
3 443 75 444
3 446 445 75
