ply
format ascii 1.0
element vertex 134
property float x
property float y
property float z
element face 107
property list uchar int vertex_index
end_header
-16.575109 -62.446892 -32.293568
-19.138731 -68.089226 -29.188356
-18.286215 -61.740097 -29.058355
-15.778894 -55.703659 -32.100464
-17.8643 -65.282333 -30.818516
-18.291666 -68.793037 -30.864559
-16.811989 -65.693512 -32.542168
-16.595594 -55.446129 -30.604361
-15.362678 -52.463013 -32.058372
-14.340109 -52.360714 -33.6735
-13.970863 -49.172031 -33.610291
-18.659367 -75.442909 -31.385361
-18.502384 -72.161011 -31.147856
-17.237831 -72.322845 -32.894176
-15.145644 -59.127144 -33.76886
-18.722483 -64.865105 -29.108154
-17.431574 -61.931854 -30.771881
-17.100025 -58.796234 -30.554188
-16.119091 -58.921116 -32.268578
-14.754063 -55.711182 -33.705235
-12.603438 -46.142879 -35.109131
-15.171041 -50.823524 -32.031982
-15.777204 -52.395384 -31.321254
-14.475133 -49.178033 -32.807941
-14.666771 -50.817522 -32.834331
-15.171041 -50.823524 -32.031982
-18.623363 -77.005005 -31.579093
-17.956116 -75.508415 -32.276194
-19.311575 -69.762783 -29.279466
-19.70341 -69.40242 -28.374766
-17.813707 -70.539608 -31.881276
-18.397025 -70.477024 -31.006208
-17.708348 -68.855621 -31.739628
-17.181431 -70.620525 -32.754436
-17.870107 -72.241928 -32.021016
-17.813707 -70.539608 -31.881276
-14.492362 -59.04591 -34.618799
-14.39621 -57.543711 -34.531927
-18.504349 -63.302601 -29.083254
-19.027904 -64.541905 -28.309056
-18.80977 -62.9794 -28.284157
-13.830909 -52.42045 -34.428447
-13.623024 -50.758873 -34.437164
-12.481887 -44.633157 -35.030983
-13.160973 -46.196317 -34.280375
-16.96851 -67.305858 -32.578432
-17.708348 -68.855621 -31.739628
-17.551828 -67.243274 -31.703363
-18.589141 -61.360003 -28.233042
-18.80977 -62.9794 -28.284157
-16.393662 -53.886942 -30.594249
-16.974193 -55.336506 -29.840047
-15.979136 -53.954571 -31.331367
-16.393662 -53.886942 -30.594249
-15.777204 -52.395384 -31.321254
-13.438401 -49.164531 -34.40556
-13.623024 -50.758873 -34.437164
-14.155486 -50.766373 -33.641895
-19.276643 -76.732204 -30.640425
-19.20084 -75.049717 -30.491349
-19.24064 -78.2943 -30.834157
-19.276643 -76.732204 -30.640425
-18.623363 -77.005005 -31.579093
-18.888042 -70.114688 -30.117567
-19.311575 -69.762783 -29.279466
-18.715198 -68.441131 -30.026457
-18.993401 -71.798676 -30.259215
-18.888042 -70.114688 -30.117567
-18.397025 -70.477024 -31.006208
-19.122349 -73.408768 -30.372597
-18.993401 -71.798676 -30.259215
-18.580875 -73.80196 -31.266609
-19.20084 -75.049717 -30.491349
-19.122349 -73.408768 -30.372597
-17.245348 -73.948383 -33.030602
-17.956116 -75.508415 -32.276194
-17.948599 -73.882877 -32.139769
-15.262683 -60.693418 -33.863853
-15.977415 -62.353292 -33.126207
-15.860377 -60.787018 -33.031214
-15.262683 -60.693418 -33.863853
-14.492362 -59.04591 -34.618799
-19.468299 -67.751762 -28.36714
-19.70341 -69.40242 -28.374766
-19.260175 -66.139702 -28.327039
-19.027904 -64.541905 -28.309056
-18.930607 -66.477165 -29.148255
-19.468299 -67.751762 -28.36714
-19.260175 -66.139702 -28.327039
-18.044339 -60.044109 -29.043143
-18.589141 -61.360003 -28.233042
-17.199029 -56.897126 -29.816146
-16.974193 -55.336506 -29.840047
-17.451245 -58.572178 -29.791059
-17.199029 -56.897126 -29.816146
-16.847809 -57.121181 -30.579275
-17.69312 -60.268165 -29.806272
-18.044339 -60.044109 -29.043143
-17.451245 -58.572178 -29.791059
-14.200419 -55.83573 -34.500115
-14.39621 -57.543711 -34.531927
-14.949853 -57.419163 -33.737048
-14.037886 -54.095684 -34.444315
-14.547086 -54.035948 -33.689368
-13.830909 -52.42045 -34.428447
-14.200419 -55.83573 -34.500115
-14.037886 -54.095684 -34.444315
-13.844686 -47.710893 -33.530954
-14.475133 -49.178033 -32.807941
-13.28715 -47.657455 -34.359711
-13.844686 -47.710893 -33.530954
-13.160973 -46.196317 -34.280375
-12.754689 -47.649956 -35.15498
-13.438401 -49.164531 -34.40556
-13.28715 -47.657455 -34.359711
-11.940327 -44.556159 -35.804004
-12.481887 -44.633157 -35.030983
-12.065774 -46.023162 -35.861807
-11.940327 -44.556159 -35.804004
-12.754689 -47.649956 -35.15498
-12.065774 -46.023162 -35.861807
-16.095855 -63.976602 -33.250507
-16.693549 -64.070202 -32.417868
-15.977415 -62.353292 -33.126207
-16.191049 -65.751121 -33.36952
-16.095855 -63.976602 -33.250507
-16.96851 -67.305858 -32.578432
-16.191049 -65.751121 -33.36952
-16.486615 -70.718163 -33.624595
-17.181431 -70.620525 -32.754436
-16.49015 -72.347515 -33.750301
-16.486615 -70.718163 -33.624595
-17.245348 -73.948383 -33.030602
-16.49015 -72.347515 -33.750301
3 0 6 4
3 21 8 22
3 23 10 24
3 25 24 8
3 23 24 25
3 27 26 11
3 1 28 29
3 30 12 31
3 32 31 5
3 30 31 32
3 33 13 34
3 35 34 12
3 33 34 35
3 37 36 14
3 2 38 40
3 38 15 39
3 38 39 40
3 2 16 15
3 3 17 7
3 3 18 17
3 3 19 18
3 42 41 9
3 43 20 44
3 4 5 1
3 6 5 4
3 6 45 47
3 47 46 5
3 45 46 47
3 48 2 49
3 50 7 51
3 8 52 54
3 52 7 53
3 52 53 54
3 8 3 7
3 8 9 3
3 10 9 8
3 10 55 57
3 57 56 9
3 55 56 57
3 11 58 59
3 62 61 11
3 60 61 62
3 5 63 65
3 65 64 1
3 63 64 65
3 12 66 68
3 68 67 5
3 66 67 68
3 12 69 70
3 12 71 73
3 71 11 72
3 71 72 73
3 13 11 12
3 13 74 76
3 76 75 11
3 74 75 76
3 14 77 79
3 79 78 0
3 77 78 79
3 81 80 14
3 82 1 83
3 15 84 85
3 15 86 88
3 86 1 87
3 86 87 88
3 15 4 1
3 16 4 15
3 16 0 4
3 89 2 90
3 7 91 92
3 17 93 95
3 95 94 7
3 93 94 95
3 17 96 98
3 96 2 97
3 96 97 98
3 17 16 2
3 18 16 17
3 18 0 16
3 18 14 0
3 19 14 18
3 19 99 101
3 101 100 14
3 99 100 101
3 9 19 3
3 102 19 103
3 104 103 9
3 102 103 104
3 106 105 19
3 107 10 108
3 20 109 111
3 109 10 110
3 109 110 111
3 20 112 114
3 114 113 10
3 112 113 114
3 115 20 116
3 117 20 118
3 120 119 20
3 121 6 122
3 123 122 0
3 121 122 123
3 124 6 125
3 127 126 6
3 128 13 129
3 130 13 131
3 133 132 13
