ply
format ascii 1.0
element vertex 72
property float x
property float y
property float z
element face 54
property list uchar int vertex_index
end_header
-1.485542 93.430611 -36.870361
-3.750025 97.448509 -27.959652
-0.051842 97.705978 -33.101227
-1.110627 99.300171 -28.346409
-2.042501 97.695381 -30.528759
-3.462886 93.82486 -34.548588
-2.837345 98.796211 -25.805704
-4.658158 95.781204 -30.064217
-2.850095 95.878166 -32.57732
-0.983322 95.650551 -34.965904
-1.894051 92.219124 -37.531931
-2.782904 92.47411 -36.53667
-0.654705 92.915932 -37.953075
-1.894051 92.219124 -37.531931
-0.191877 99.381256 -29.631191
0.166801 100.103863 -28.444295
-4.437693 93.85595 -33.30181
-4.690581 92.828358 -34.225656
-2.360494 99.369228 -24.571835
-3.732673 98.341103 -24.491891
-1.563904 99.683239 -25.861791
-2.360494 99.369228 -24.571835
-4.204092 96.614857 -29.011934
-5.46045 95.590832 -28.863333
-5.006383 96.424484 -27.811051
-0.657814 98.578861 -30.722366
-1.576564 98.497776 -29.437584
-0.191877 99.381256 -29.631191
0.337515 98.584159 -32.0086
-1.047172 97.70068 -31.814993
-0.657814 98.578861 -30.722366
-3.771576 92.671234 -35.375784
-4.690581 92.828358 -34.225656
-2.474214 93.627736 -35.709474
-2.782904 92.47411 -36.53667
-3.771576 92.671234 -35.375784
-4.674433 97.059948 -26.703965
-5.006383 96.424484 -27.811051
-4.218093 97.733799 -25.626991
-3.732673 98.341103 -24.491891
-3.293685 98.12236 -26.882678
-4.674433 97.059948 -26.703965
-4.218093 97.733799 -25.626991
-0.700545 99.935219 -27.132144
-1.973986 99.048191 -27.076056
-1.563904 99.683239 -25.861791
0.166801 100.103863 -28.444295
-0.700545 99.935219 -27.132144
-5.900735 94.724514 -29.816565
-5.46045 95.590832 -28.863333
-5.035329 94.834122 -31.059624
-5.900735 94.724514 -29.816565
-4.131297 94.882602 -32.316175
-5.035329 94.834122 -31.059624
-3.754126 95.829685 -31.320768
-3.156491 94.851513 -33.562954
-4.437693 93.85595 -33.30181
-4.131297 94.882602 -32.316175
1.273313 98.463089 -33.281113
0.337515 98.584159 -32.0086
0.852584 97.451786 -34.321362
1.273313 98.463089 -33.281113
0.386844 96.424072 -35.2537
-0.517582 96.678264 -34.033566
0.852584 97.451786 -34.321362
0.010189 95.340824 -36.156601
0.386844 96.424072 -35.2537
-0.240921 94.230854 -37.108829
-1.234432 94.540581 -35.918132
0.010189 95.340824 -36.156601
-0.654705 92.915932 -37.953075
-0.240921 94.230854 -37.108829
3 0 10 11
3 0 12 13
3 15 14 3
3 16 5 17
3 18 6 19
3 21 20 6
3 1 22 24
3 22 7 23
3 22 23 24
3 2 8 4
3 2 9 8
3 3 4 1
3 25 4 26
3 27 26 3
3 25 26 27
3 28 2 29
3 30 29 4
3 28 29 30
3 5 31 32
3 5 33 35
3 33 0 34
3 33 34 35
3 36 1 37
3 6 38 39
3 6 40 42
3 40 1 41
3 40 41 42
3 6 3 1
3 43 3 44
3 45 44 6
3 43 44 45
3 47 46 3
3 7 48 49
3 7 50 51
3 4 7 1
3 8 7 4
3 8 52 54
3 54 53 7
3 52 53 54
3 8 55 57
3 55 5 56
3 55 56 57
3 9 5 8
3 9 0 5
3 58 2 59
3 60 2 61
3 62 9 63
3 64 63 2
3 62 63 64
3 65 9 66
3 67 0 68
3 69 68 9
3 67 68 69
3 71 70 0
