ply
format ascii 1.0
element vertex 144
property float x
property float y
property float z
element face 120
property list uchar int vertex_index
end_header
19.996334 78.107689 -6.722471
18.394268 83.40435 -17.151745
21.816061 75.393173 -10.253403
22.004171 72.667267 -5.432322
19.514141 81.003487 -11.951266
21.016438 77.757286 -14.842744
17.677105 80.41156 -3.304675
20.95826 76.964317 -8.646031
21.898401 74.283691 -7.804821
21.065035 75.401711 -6.029001
18.779652 80.781525 -7.515907
18.524494 82.273994 -10.189472
19.854074 79.58316 -9.387639
20.790897 78.144547 -11.067376
17.776312 78.573555 -0.780977
17.799801 84.035652 -19.556948
22.681805 72.537659 -9.158208
18.161793 83.596481 -12.926545
19.04764 82.251282 -14.56973
19.816008 80.613472 -15.984898
20.358522 79.484398 -13.442369
21.498108 76.600899 -12.574204
18.8543 79.377411 -5.050557
19.994852 76.69014 -4.305908
18.928394 77.652275 -2.546864
20.365807 78.875801 -17.189846
17.637158 84.651985 -17.650973
17.967541 84.155109 -16.324575
18.097034 83.720001 -18.354346
17.339925 84.967636 -18.853575
17.637158 84.651985 -17.650973
18.769868 82.477314 -17.790819
18.472634 82.792965 -18.99342
18.097034 83.720001 -18.354346
22.248933 73.965416 -9.705806
22.538557 73.194435 -10.41027
22.105685 74.622193 -10.957867
22.408526 71.946388 -6.208592
22.355641 72.754601 -7.394841
21.951286 73.475479 -6.618571
22.398616 71.19722 -4.991803
22.408526 71.946388 -6.208592
22.105685 74.622193 -10.957867
21.946708 75.226056 -12.118268
21.657084 75.997036 -11.413804
18.279791 77.288021 -0.37503
17.661735 77.823788 0.473567
17.645093 81.173946 -4.58448
17.029651 81.678257 -3.731753
18.265702 79.894486 -4.177616
18.233691 80.656872 -5.457422
17.645093 81.173946 -4.58448
20.499639 75.280556 -3.914583
19.954483 75.877693 -3.055296
18.652073 81.52776 -8.85269
17.955649 82.86517 -9.333187
18.083227 82.118935 -7.996405
17.113276 79.900833 -1.081909
17.726709 79.492558 -2.042826
17.063672 80.819835 -2.343758
17.120327 79.029388 0.183119
17.113276 79.900833 -1.081909
17.661735 77.823788 0.473567
17.120327 79.029388 0.183119
17.063672 80.819835 -2.343758
17.029651 81.678257 -3.731753
16.974243 85.339542 -20.083822
17.339925 84.967636 -18.853575
17.304498 84.526008 -20.754713
16.974243 85.339542 -20.083822
18.043135 83.195766 -20.27606
17.304498 84.526008 -20.754713
18.043135 83.195766 -20.27606
18.472634 82.792965 -18.99342
21.184906 76.925113 -15.557444
21.488675 76.375389 -14.405957
22.905843 71.84412 -9.931276
22.538557 73.194435 -10.41027
23.072105 71.048992 -8.840077
22.905843 71.84412 -9.931276
22.747343 71.881585 -8.071535
22.290103 73.410675 -8.481514
22.355641 72.754601 -7.394841
23.137644 70.392918 -7.753404
23.072105 71.048992 -8.840077
22.747343 71.881585 -8.071535
17.82488 83.519042 -10.668406
17.955649 82.86517 -9.333187
17.643529 84.180286 -12.036943
17.82488 83.519042 -10.668406
18.343144 82.935237 -11.558008
17.388133 84.835247 -13.288047
17.643529 84.180286 -12.036943
17.851304 84.251175 -14.211976
17.388133 84.835247 -13.288047
18.294227 83.578575 -15.033568
17.851304 84.251175 -14.211976
18.604717 82.923881 -13.748138
18.720954 82.827816 -15.860737
17.967541 84.155109 -16.324575
18.294227 83.578575 -15.033568
21.729509 75.797196 -13.271687
21.488675 76.375389 -14.405957
21.257273 77.179092 -13.708474
21.729509 75.797196 -13.271687
21.946708 75.226056 -12.118268
19.421254 76.358761 -2.175775
19.954483 75.877693 -3.055296
19.461623 77.171208 -3.426386
18.855832 76.827381 -1.257973
18.352353 78.112915 -1.66392
18.279791 77.288021 -0.37503
19.421254 76.358761 -2.175775
18.855832 76.827381 -1.257973
18.196366 81.358929 -6.690097
18.083227 82.118935 -7.996405
18.816976 80.079468 -6.283232
18.196366 81.358929 -6.690097
18.233691 80.656872 -5.457422
21.03473 74.636342 -4.776129
20.529944 76.045926 -5.167454
20.499639 75.280556 -3.914583
21.504298 73.269119 -4.47779
21.534603 74.034489 -5.730662
21.03473 74.636342 -4.776129
21.963836 71.857201 -4.201741
21.504298 73.269119 -4.47779
22.398616 71.19722 -4.991803
21.963836 71.857201 -4.201741
19.480738 81.081875 -17.207396
18.769868 82.477314 -17.790819
19.105138 82.008911 -16.568321
19.755637 80.21304 -17.809869
19.480738 81.081875 -17.207396
20.090908 79.744636 -16.587372
19.971312 79.302833 -18.435214
19.755637 80.21304 -17.809869
20.85959 77.484371 -16.730995
20.691122 78.316543 -16.016295
21.184906 76.925113 -15.557444
20.491741 77.950149 -17.873372
20.85959 77.484371 -16.730995
19.971312 79.302833 -18.435214
20.491741 77.950149 -17.873372
3 0 9 7
3 0 12 10
3 0 7 12
3 1 26 27
3 1 28 30
3 28 15 29
3 28 29 30
3 1 31 33
3 33 32 15
3 31 32 33
3 2 34 36
3 34 16 35
3 34 35 36
3 3 37 39
3 39 38 8
3 37 38 39
3 3 40 41
3 4 17 11
3 4 18 17
3 4 20 18
3 2 21 13
3 2 42 44
3 44 43 21
3 42 43 44
3 6 24 22
3 46 45 14
3 6 47 48
3 6 49 51
3 49 22 50
3 49 50 51
3 53 52 23
3 5 25 19
3 7 8 2
3 9 8 7
3 9 3 8
3 10 54 56
3 54 11 55
3 54 55 56
3 12 11 10
3 12 4 11
3 12 13 4
3 7 13 12
3 7 2 13
3 57 14 58
3 59 58 6
3 57 58 59
3 60 14 61
3 63 62 14
3 64 6 65
3 15 66 67
3 15 68 69
3 15 70 71
3 73 72 15
3 75 74 5
3 16 76 77
3 16 78 79
3 8 16 2
3 80 16 81
3 82 81 8
3 80 81 82
3 85 84 16
3 83 84 85
3 11 86 87
3 17 88 90
3 90 89 11
3 88 89 90
3 17 91 92
3 17 93 94
3 18 95 97
3 97 96 17
3 95 96 97
3 18 98 100
3 98 1 99
3 98 99 100
3 18 19 1
3 20 19 18
3 20 5 19
3 13 20 4
3 21 20 13
3 21 5 20
3 21 101 103
3 103 102 5
3 101 102 103
3 105 104 21
3 22 23 0
3 24 23 22
3 24 106 108
3 108 107 23
3 106 107 108
3 14 24 6
3 109 24 110
3 111 110 14
3 109 110 111
3 113 112 24
3 114 10 115
3 22 116 118
3 116 10 117
3 116 117 118
3 22 0 10
3 23 9 0
3 119 9 120
3 121 120 23
3 119 120 121
3 122 3 123
3 124 123 9
3 122 123 124
3 125 3 126
3 128 127 3
3 19 129 131
3 131 130 1
3 129 130 131
3 25 132 134
3 134 133 19
3 132 133 134
3 25 135 136
3 137 25 138
3 139 138 5
3 137 138 139
3 140 25 141
3 143 142 25
