ply
format ascii 1.0
element vertex 245
property float x
property float y
property float z
element face 210
property list uchar int vertex_index
end_header
-35.9617 -26.133116 28.038187
-38.687088 -17.925934 23.372663
-34.568386 -17.171589 30.226391
-39.469349 -13.722162 20.557068
-36.243324 -12.852661 28.019257
-34.111988 -30.241373 29.79229
-37.534077 -22.070984 25.833212
-33.341839 -25.722837 30.962534
-32.525536 -21.384548 32.033207
-35.329678 -21.521862 29.179651
-37.020378 -17.393944 26.95224
-38.327488 -13.280492 24.375765
-39.296646 -9.174217 21.479223
-35.010761 -28.216078 29.0287
-38.140842 -19.951672 24.687527
-38.79776 -20.291265 22.749598
-31.761898 -25.726101 32.26828
-33.522507 -19.216194 31.252176
-33.96682 -21.260942 30.69396
-36.232296 -19.529894 28.097467
-35.916359 -17.240068 28.580067
-37.384838 -13.214697 26.240795
-38.02216 -11.087657 24.898745
-38.85907 -11.292706 22.937923
-38.567795 -9.088853 23.520342
-39.141983 -15.910425 21.919804
-39.180862 -18.140242 21.420494
-39.463734 -16.183969 19.972607
-36.817551 -23.971249 26.954861
-33.746616 -27.867846 30.404148
-34.757381 -25.83016 29.546099
-31.012962 -21.395304 33.275642
-32.96217 -23.562462 31.473465
-34.35857 -23.44669 30.151482
-35.617489 -23.898157 28.677389
-36.521732 -21.721981 27.575733
-37.325432 -19.682699 26.3699
-38.00322 -17.641809 25.115156
-36.651661 -15.079846 27.516552
-37.706184 -15.333272 25.731506
-38.5467 -15.458604 23.86264
-39.01186 -13.617016 22.522699
-39.411591 -11.579511 21.058716
-39.061779 -6.885359 22.02527
-39.665997 -7.10958 19.97345
-40.16692 -5.226734 16.38063
-40.289539 -3.10611 14.838898
-36.097796 -27.285649 27.704091
-35.622326 -28.327129 28.199348
-35.486231 -27.174597 28.533444
-30.952782 -25.68143 32.844854
-31.214801 -26.739224 32.561477
-34.045446 -18.193891 30.739283
-33.3179 -18.142958 31.506318
-33.84084 -17.120656 30.993426
-34.789606 -18.245939 29.942828
-34.266666 -19.268241 30.455721
-34.045446 -18.193891 30.739283
-35.242373 -17.205829 29.403229
-35.463593 -18.280178 29.119667
-34.789606 -18.245939 29.942828
-37.836285 -9.996816 25.145476
-37.542482 -11.0335 25.762797
-38.109102 -8.997414 24.456274
-38.294978 -10.088255 24.209544
-37.836285 -9.996816 25.145476
-34.271291 -31.322547 29.468409
-33.627659 -31.225426 30.145954
-37.627215 -23.202016 25.529792
-37.268952 -24.152149 26.090617
-37.175814 -23.021116 26.394036
-39.184148 -19.353328 21.114756
-39.292333 -18.350487 20.419072
-33.544228 -26.795341 30.683341
-32.988247 -27.862602 31.061054
-32.785858 -26.790097 31.340247
-31.769249 -21.389926 32.654424
-31.517733 -20.331679 32.959083
-32.27402 -20.326301 32.337866
-31.97033 -22.444342 32.388386
-31.214043 -22.44972 33.009603
-31.769249 -21.389926 32.654424
-32.743853 -22.473505 31.753336
-32.188647 -23.533299 32.108515
-31.97033 -22.444342 32.388386
-36.447492 -13.966254 27.767905
-36.079031 -15.047968 28.309292
-35.874862 -13.934375 28.560645
-39.520855 -9.355895 20.454633
-39.578328 -10.558542 20.244379
-39.354118 -10.376864 21.26897
-38.89695 -5.747503 22.280376
-38.664301 -6.854268 22.966198
-39.816719 -6.067167 19.210306
-39.572401 -5.956258 20.248022
-39.827108 -7.262187 18.912498
-39.816719 -6.067167 19.210306
-40.067181 -5.125744 17.413896
-40.07757 -6.320764 17.116089
-40.339441 -1.942711 15.099854
-40.252173 -3.013094 15.844396
-40.328062 -2.092168 14.146142
-40.339441 -1.942711 15.099854
-39.553232 -13.968994 19.581785
-39.593925 -12.779792 19.794317
-35.178921 -29.319123 28.677615
-34.729534 -30.331771 29.05941
-34.561374 -29.228725 29.410495
-35.178921 -29.319123 28.677615
-35.622326 -28.327129 28.199348
-38.224622 -21.093356 24.368986
-37.92124 -22.153012 24.941828
-37.83746 -21.011328 25.260369
-38.553081 -21.263153 23.400021
-38.224622 -21.093356 24.368986
-38.469301 -20.121468 23.718562
-38.820977 -21.462204 22.46152
-38.553081 -21.263153 23.400021
-31.995888 -26.791729 31.99312
-31.214801 -26.739224 32.561477
-32.551868 -25.724469 31.615407
-32.785858 -26.790097 31.340247
-31.995888 -26.791729 31.99312
-32.772505 -19.242125 31.94735
-33.3179 -18.142958 31.506318
-33.024022 -20.300371 31.642691
-32.27402 -20.326301 32.337866
-32.772505 -19.242125 31.94735
-34.488823 -20.290615 30.176613
-33.744664 -20.238568 30.973068
-34.266666 -19.268241 30.455721
-35.170252 -20.421075 29.419458
-34.648249 -21.391402 29.936805
-34.488823 -20.290615 30.176613
-35.621561 -19.425091 28.878366
-35.780987 -20.525878 28.638559
-35.170252 -20.421075 29.419458
-36.074327 -18.384981 28.338767
-35.621561 -19.425091 28.878366
-35.463593 -18.280178 29.119667
-37.223821 -12.09702 26.433822
-36.814081 -13.033679 27.130026
-36.653064 -11.916002 27.323052
-37.703499 -12.151177 25.56977
-37.223821 -12.09702 26.433822
-37.542482 -11.0335 25.762797
-39.433769 -17.372351 19.695128
-39.292333 -18.350487 20.419072
-39.322298 -17.162106 20.696551
-39.550425 -15.199898 19.289554
-39.466542 -14.953066 20.264837
-39.553232 -13.968994 19.581785
-39.488945 -16.40065 19.000233
-39.550425 -15.199898 19.289554
-39.433769 -17.372351 19.695128
-39.488945 -16.40065 19.000233
-34.368715 -16.129896 30.459257
-33.84084 -17.120656 30.993426
-35.037393 -16.09384 29.664212
-34.368715 -16.129896 30.459257
-35.606346 -12.881474 28.864934
-35.874862 -13.934375 28.560645
-36.006065 -11.869304 28.281332
-35.606346 -12.881474 28.864934
-36.653064 -11.916002 27.323052
-36.006065 -11.869304 28.281332
-34.271291 -31.322547 29.468409
-34.729534 -30.331771 29.05941
-36.883105 -25.188904 26.716869
-36.455179 -26.269838 27.258532
-36.389626 -25.052183 27.496524
-36.883105 -25.188904 26.716869
-37.268952 -24.152149 26.090617
-37.627215 -23.202016 25.529792
-37.92124 -22.153012 24.941828
-38.992598 -20.42884 21.779308
-38.989311 -19.215753 22.085046
-39.184148 -19.353328 21.114756
-38.820977 -21.462204 22.46152
-38.992598 -20.42884 21.779308
-33.457601 -30.104934 30.422717
-33.627659 -31.225426 30.145954
-32.973273 -31.088987 30.776381
-33.274916 -28.91817 30.728646
-32.988247 -27.862602 31.061054
-33.929302 -29.054609 30.098219
-33.457601 -30.104934 30.422717
-33.274916 -28.91817 30.728646
-30.740874 -20.450261 33.59899
-31.517733 -20.331679 32.959083
-30.197651 -21.559528 33.865343
-30.740874 -20.450261 33.59899
-30.3905 -22.507608 33.596277
-30.197651 -21.559528 33.865343
-30.3905 -22.507608 33.596277
-31.214043 -22.44972 33.009603
-31.58851 -24.615118 32.505922
-30.952782 -25.68143 32.844854
-32.362034 -24.644281 31.870872
-31.58851 -24.615118 32.505922
-32.188647 -23.533299 32.108515
-35.71138 -16.128079 28.84105
-35.242373 -17.205829 29.403229
-35.037393 -16.09384 29.664212
-36.28401 -16.159957 28.04831
-35.71138 -16.128079 28.84105
-36.079031 -15.047968 28.309292
-39.565047 -11.708466 20.045141
-39.593925 -12.779792 19.794317
-39.44047 -12.650837 20.807892
-39.565047 -11.708466 20.045141
-39.578328 -10.558542 20.244379
-38.417309 -7.956015 23.713735
-38.109102 -8.997414 24.456274
-38.814787 -7.987106 22.772806
-38.417309 -7.956015 23.713735
-38.664301 -6.854268 22.966198
-39.270292 -5.844148 21.273932
-38.89695 -5.747503 22.280376
-39.363888 -6.99747 20.99936
-39.270292 -5.844148 21.273932
-39.572401 -5.956258 20.248022
-39.70553 -8.323576 19.701746
-39.520855 -9.355895 20.454633
-39.481321 -8.141898 20.726337
-39.70553 -8.323576 19.701746
-39.827108 -7.262187 18.912498
-40.082714 -6.477682 16.182416
-40.07757 -6.320764 17.116089
-40.117639 -5.415051 15.475614
-40.082714 -6.477682 16.182416
-40.190863 -4.073405 16.615262
-40.067181 -5.125744 17.413896
-40.228229 -4.166422 15.609764
-40.190863 -4.073405 16.615262
-40.252173 -3.013094 15.844396
-40.178949 -4.354738 14.704749
-40.117639 -5.415051 15.475614
-40.228229 -4.166422 15.609764
-40.172721 -3.331104 13.868849
-40.178949 -4.354738 14.704749
-40.172721 -3.331104 13.868849
-40.328062 -2.092168 14.146142
-36.097796 -27.285649 27.704091
-36.455179 -26.269838 27.258532
3 0 47 49
3 49 48 13
3 47 48 49
3 1 15 14
3 50 16 51
3 2 52 54
3 52 17 53
3 52 53 54
3 2 55 57
3 57 56 17
3 55 56 57
3 2 58 60
3 58 20 59
3 58 59 60
3 61 22 62
3 63 24 64
3 65 64 22
3 63 64 65
3 3 27 25
3 5 66 67
3 6 68 70
3 70 69 28
3 68 69 70
3 72 71 26
3 7 73 75
3 73 29 74
3 73 74 75
3 7 30 29
3 8 76 78
3 76 31 77
3 76 77 78
3 8 79 81
3 81 80 31
3 79 80 81
3 8 82 84
3 82 32 83
3 82 83 84
3 9 33 18
3 9 34 33
3 9 35 34
3 10 36 19
3 10 37 36
3 4 85 87
3 85 38 86
3 85 86 87
3 11 39 21
3 11 40 39
3 11 41 40
3 12 42 23
3 12 88 90
3 90 89 42
3 88 89 90
3 91 43 92
3 93 44 94
3 96 95 44
3 97 45 98
3 99 46 100
3 102 101 46
3 104 103 3
3 13 105 107
3 107 106 5
3 105 106 107
3 109 108 13
3 14 110 112
3 112 111 6
3 110 111 112
3 15 113 115
3 115 114 14
3 113 114 115
3 15 116 117
3 16 118 119
3 16 120 122
3 120 7 121
3 120 121 122
3 17 123 124
3 17 125 127
3 125 8 126
3 125 126 127
3 17 18 8
3 128 18 129
3 130 129 17
3 128 129 130
3 131 9 132
3 133 132 18
3 131 132 133
3 134 19 135
3 136 135 9
3 134 135 136
3 20 137 139
3 137 19 138
3 137 138 139
3 20 10 19
3 140 21 141
3 142 141 4
3 140 141 142
3 22 143 145
3 143 21 144
3 143 144 145
3 22 11 21
3 22 23 11
3 24 23 22
3 24 12 23
3 25 26 1
3 27 26 25
3 27 146 148
3 148 147 26
3 146 147 148
3 149 27 150
3 151 150 3
3 149 150 151
3 152 27 153
3 155 154 27
3 156 2 157
3 159 158 2
3 160 4 161
3 162 4 163
3 165 164 4
3 167 166 5
3 28 168 170
3 170 169 0
3 168 169 170
3 172 171 28
3 174 173 6
3 26 15 1
3 175 15 176
3 177 176 26
3 175 176 177
3 179 178 15
3 180 5 181
3 180 181 182
3 29 183 184
3 29 185 187
3 185 5 186
3 185 186 187
3 29 13 5
3 30 13 29
3 30 0 13
3 31 188 189
3 31 190 191
3 31 192 193
3 195 194 31
3 196 16 197
3 32 198 200
3 198 16 199
3 198 199 200
3 32 7 16
3 18 32 8
3 33 32 18
3 33 7 32
3 33 30 7
3 34 30 33
3 34 0 30
3 34 28 0
3 35 28 34
3 35 6 28
3 19 35 9
3 36 35 19
3 36 6 35
3 36 14 6
3 37 14 36
3 37 1 14
3 201 20 202
3 203 202 2
3 201 202 203
3 38 204 206
3 204 20 205
3 204 205 206
3 38 10 20
3 21 38 4
3 39 38 21
3 39 10 38
3 39 37 10
3 40 37 39
3 40 1 37
3 40 25 1
3 41 25 40
3 41 3 25
3 23 41 11
3 42 41 23
3 42 3 41
3 42 207 209
3 209 208 3
3 207 208 209
3 211 210 42
3 212 24 213
3 43 214 216
3 214 24 215
3 214 215 216
3 43 12 24
3 217 43 218
3 44 219 221
3 219 43 220
3 219 220 221
3 44 12 43
3 44 222 224
3 224 223 12
3 222 223 224
3 226 225 44
3 45 227 228
3 45 229 230
3 231 45 232
3 46 233 235
3 233 45 234
3 233 234 235
3 46 236 238
3 238 237 45
3 236 237 238
3 46 239 240
3 242 241 46
3 244 243 0
