ply
format ascii 1.0
element vertex 209
property float x
property float y
property float z
element face 172
property list uchar int vertex_index
end_header
-18.85857 -77.224236 3.743697
-23.434107 -68.189117 2.256902
-10.727991 -74.966682 22.277903
-15.18876 -77.921196 13.478166
-19.684063 -73.804207 8.439642
-21.167767 -72.875641 3.310316
-21.908773 -69.651794 7.750471
-17.042963 -78.0084 8.755372
-20.743073 -71.870506 8.194816
-18.882761 -74.074371 11.067651
-19.648674 -76.840691 1.024181
-22.292559 -70.593559 2.820699
-22.039837 -72.002251 0.664657
-23.096376 -69.747475 0.236805
-24.156891 -67.475502 -0.369687
-15.627682 -75.938263 15.944575
-14.537652 -75.463501 18.286001
-14.135033 -77.391647 16.039101
-17.95426 -77.699455 6.309853
-19.263605 -75.504135 6.1908
-20.033356 -75.11702 3.520921
-20.433777 -73.403183 5.845697
-21.579556 -71.124039 5.596
-22.674105 -68.971252 4.933665
-17.133175 -74.236816 15.774312
-16.5748 -76.180504 13.642829
-16.201828 -77.944153 11.229148
-17.580059 -76.067558 11.182757
-18.434731 -75.921783 8.597299
-20.898453 -74.385269 0.905352
-21.766212 -73.589355 -1.781114
-13.475327 -74.757904 20.394152
-11.902051 -75.972343 20.296206
-23.761057 -66.742531 4.370765
-25.267893 -65.114494 -1.084869
-19.253622 -77.032464 2.383939
-19.044153 -77.890858 1.143915
-18.649101 -78.08263 2.503674
-14.454976 -78.652729 13.50335
-13.928113 -78.387955 14.783818
-14.661897 -77.656421 14.758633
-14.904438 -78.889328 12.312837
-14.454976 -78.652729 13.50335
-18.204114 -78.310166 3.778686
-17.751959 -78.547775 5.061764
-18.406415 -77.461846 5.026775
-18.649101 -78.08263 2.503674
-18.204114 -78.310166 3.778686
-10.194949 -74.233799 23.342512
-10.95985 -73.819541 23.354957
-17.558362 -74.274284 14.640166
-17.806328 -73.367207 15.66038
-17.279174 -75.246128 13.574424
-16.853988 -75.20866 14.708571
-17.558362 -74.274284 14.640166
-17.781804 -75.189655 12.344388
-17.07743 -76.124031 12.412793
-17.279174 -75.246128 13.574424
-22.29598 -72.458869 -1.93741
-21.903025 -72.795803 -0.558229
-22.432792 -71.665318 -0.714524
-22.176544 -73.212154 -3.107807
-22.29598 -72.458869 -1.93741
-13.210815 -75.847508 19.258402
-14.00649 -75.110703 19.340076
-13.741978 -76.200306 18.204327
-12.424177 -76.454727 19.209429
-12.688689 -75.365123 20.345179
-13.210815 -75.847508 19.258402
-11.638382 -77.051109 19.161127
-12.424177 -76.454727 19.209429
-16.32191 -78.970639 8.772239
-15.901342 -78.938515 10.009127
-16.622395 -77.976276 9.99226
-23.938581 -66.079983 5.373966
-23.39814 -67.110401 5.755148
-25.395808 -64.482544 -0.066857
-24.851807 -65.599933 0.29009
-20.422702 -71.975075 9.473841
-20.213568 -72.837356 8.317229
-19.893197 -72.941925 9.596254
-20.962629 -71.0369 9.259655
-20.422702 -71.975075 9.473841
-21.545479 -69.927543 9.037482
-21.325923 -70.76115 7.972644
-20.962629 -71.0369 9.259655
-19.106912 -73.226574 12.103405
-18.433155 -74.193061 12.286835
-19.492546 -73.077007 10.910258
-19.106912 -73.226574 12.103405
-19.893197 -72.941925 9.596254
-19.283412 -73.939289 9.753646
-19.492546 -73.077007 10.910258
-19.504638 -77.593338 -0.247108
-18.900116 -78.643505 -0.127373
-19.044153 -77.890858 1.143915
-20.126551 -76.365914 -0.191774
-19.504638 -77.593338 -0.247108
-22.961062 -70.537929 -0.92845
-22.432792 -71.665318 -0.714524
-22.568106 -70.874863 0.450731
-23.516191 -69.294742 -1.090518
-22.961062 -70.537929 -0.92845
-24.046449 -68.158756 -1.393764
-23.516191 -69.294742 -1.090518
-23.626634 -68.611489 -0.066441
-24.599034 -66.970642 -1.737964
-24.046449 -68.158756 -1.393764
-15.082667 -75.700882 17.115288
-15.287987 -74.735458 18.233743
-15.833002 -74.97284 17.06303
-13.540668 -77.164379 17.080876
-13.741978 -76.200306 18.204327
-14.336343 -76.427574 17.162551
-13.35244 -78.136543 15.927664
-13.540668 -77.164379 17.080876
-13.35244 -78.136543 15.927664
-13.928113 -78.387955 14.783818
-17.273415 -78.731136 6.310681
-16.817766 -78.885608 7.53344
-17.498612 -77.853927 7.532612
-17.273415 -78.731136 6.310681
-17.751959 -78.547775 5.061764
-17.313029 -73.336575 16.855428
-17.806328 -73.367207 15.66038
-16.585749 -74.122116 16.977899
-17.313029 -73.336575 16.855428
-16.380429 -75.08754 15.859444
-15.833002 -74.97284 17.06303
-16.585749 -74.122116 16.977899
-18.23141 -75.070965 11.125204
-17.781804 -75.189655 12.344388
-18.433155 -74.193061 12.286835
-9.921093 -75.419467 22.231722
-10.448262 -76.102562 21.150308
-20.751441 -75.138203 -0.251188
-20.126551 -76.365914 -0.191774
-20.273564 -75.61298 0.964767
-21.18532 -74.740246 -1.594421
-20.751441 -75.138203 -0.251188
-21.332332 -73.987312 -0.437881
-21.569077 -74.463359 -2.945589
-21.18532 -74.740246 -1.594421
-21.569077 -74.463359 -2.945589
-22.176544 -73.212154 -3.107807
-11.503986 -74.324276 22.467113
-10.95985 -73.819541 23.354957
-14.755626 -74.41383 19.404086
-15.287987 -74.735458 18.233743
-14.224464 -74.061031 20.458161
-14.755626 -74.41383 19.404086
-14.00649 -75.110703 19.340076
-13.71454 -73.653343 21.473064
-14.224464 -74.061031 20.458161
-12.877655 -74.219887 21.525238
-13.71454 -73.653343 21.473064
-12.091017 -74.827106 21.476265
-12.877655 -74.219887 21.525238
-12.688689 -75.365123 20.345179
-11.315021 -75.469513 21.287054
-11.503986 -74.324276 22.467113
-12.091017 -74.827106 21.476265
-11.035291 -76.605392 20.15946
-10.448262 -76.102562 21.150308
-11.315021 -75.469513 21.287054
-11.035291 -76.605392 20.15946
-11.638382 -77.051109 19.161127
-15.410972 -78.900807 11.188328
-14.904438 -78.889328 12.312837
-15.695294 -77.932674 12.353657
-15.410972 -78.900807 11.188328
-15.901342 -78.938515 10.009127
-16.32191 -78.970639 8.772239
-16.817766 -78.885608 7.53344
-22.096463 -68.921761 8.794301
-21.545479 -69.927543 9.037482
-22.471998 -68.565033 7.445002
-22.096463 -68.921761 8.794301
-22.854664 -68.224761 6.036599
-22.291439 -69.311523 6.342068
-22.471998 -68.565033 7.445002
-23.217581 -67.856892 4.652215
-22.854664 -68.224761 6.036599
-23.39814 -67.110401 5.755148
-24.316524 -65.641625 3.971982
-23.938581 -66.079983 5.373966
-24.098389 -66.413952 3.017907
-24.316524 -65.641625 3.971982
-23.934914 -67.137245 1.960975
-23.597582 -67.465824 3.313833
-24.098389 -66.413952 3.017907
-24.296307 -66.780438 0.647681
-23.795499 -67.83231 0.943608
-23.934914 -67.137245 1.960975
-24.712392 -66.294998 -0.727278
-24.296307 -66.780438 0.647681
-24.851807 -65.599933 0.29009
-25.154535 -65.790138 -2.095556
-24.599034 -66.970642 -1.737964
-24.712392 -66.294998 -0.727278
-25.80561 -63.96727 -1.367873
-25.395808 -64.482544 -0.066857
-25.933524 -63.335319 -0.34986
-25.690116 -64.600346 -2.340209
-25.80561 -63.96727 -1.367873
-25.154535 -65.790138 -2.095556
-25.690116 -64.600346 -2.340209
-10.194949 -74.233799 23.342512
-9.921093 -75.419467 22.231722
3 0 35 37
3 35 10 36
3 35 36 37
3 1 13 11
3 1 14 13
3 3 17 15
3 3 38 40
3 40 39 17
3 38 39 40
3 3 41 42
3 0 43 45
3 45 44 18
3 43 44 45
3 0 46 47
3 2 48 49
3 4 21 19
3 6 22 8
3 6 23 22
3 50 24 51
3 52 25 53
3 54 53 24
3 52 53 54
3 55 27 56
3 57 56 25
3 55 56 57
3 4 28 9
3 4 19 28
3 5 29 20
3 58 30 59
3 60 59 12
3 58 59 60
3 62 61 30
3 63 31 64
3 65 64 16
3 63 64 65
3 66 32 67
3 68 67 31
3 66 67 68
3 70 69 32
3 7 71 73
3 73 72 26
3 71 72 73
3 74 33 75
3 76 34 77
3 78 8 79
3 80 79 4
3 78 79 80
3 81 8 82
3 83 6 84
3 85 84 8
3 83 84 85
3 86 9 87
3 88 9 89
3 90 4 91
3 92 91 9
3 90 91 92
3 10 93 95
3 93 94 95
3 10 96 97
3 11 12 5
3 13 12 11
3 13 98 100
3 100 99 12
3 98 99 100
3 13 101 102
3 14 103 105
3 105 104 13
3 103 104 105
3 14 106 107
3 15 108 110
3 108 16 109
3 108 109 110
3 17 16 15
3 17 111 113
3 113 112 16
3 111 112 113
3 17 114 115
3 117 116 17
3 18 118 120
3 120 119 7
3 118 119 120
3 122 121 18
3 19 20 0
3 21 20 19
3 21 5 20
3 8 21 4
3 22 21 8
3 22 5 21
3 22 11 5
3 23 11 22
3 23 1 11
3 24 123 124
3 24 125 126
3 24 127 129
3 127 15 128
3 127 128 129
3 25 15 24
3 25 3 15
3 25 26 3
3 27 26 25
3 27 7 26
3 9 130 132
3 130 27 131
3 130 131 132
3 28 27 9
3 28 7 27
3 28 18 7
3 19 18 28
3 19 0 18
3 134 133 2
3 20 10 0
3 29 10 20
3 29 135 137
3 137 136 10
3 135 136 137
3 12 29 5
3 30 29 12
3 30 138 140
3 140 139 29
3 138 139 140
3 30 141 142
3 144 143 30
3 145 2 146
3 16 147 148
3 31 149 151
3 151 150 16
3 149 150 151
3 31 152 153
3 31 154 155
3 32 156 158
3 158 157 31
3 156 157 158
3 32 159 161
3 159 2 160
3 159 160 161
3 32 162 164
3 164 163 2
3 162 163 164
3 166 165 32
3 26 167 169
3 169 168 3
3 167 168 169
3 171 170 26
3 173 172 7
3 174 6 175
3 176 6 177
3 178 23 179
3 180 179 6
3 178 179 180
3 33 181 183
3 181 23 182
3 181 182 183
3 33 1 23
3 184 33 185
3 186 33 187
3 188 1 189
3 190 189 33
3 188 189 190
3 191 14 192
3 193 192 1
3 191 192 193
3 34 194 196
3 194 14 195
3 194 195 196
3 34 197 199
3 199 198 14
3 197 198 199
3 200 34 201
3 200 201 202
3 203 34 204
3 206 205 34
3 208 207 2
