ply
format ascii 1.0
element vertex 503
property float x
property float y
property float z
element face 411
property list uchar int vertex_index
end_header
-7.302727 5.396419 -50.4781
14.160055 34.945221 -62.1563
-8.548701 18.321188 -52.527203
-6.705056 -6.272201 -47.011444
-5.983363 20.202763 -54.668835
-6.4204 26.650259 -54.718182
-1.438783 30.71207 -58.076859
1.297248 32.965828 -59.439667
10.324112 34.595055 -63.22625
-10.373396 3.875692 -47.861164
-6.816284 -0.493032 -48.98835
-4.926378 7.950172 -53.30246
-10.893479 10.444688 -49.415104
-11.372539 16.965231 -50.61417
-8.008978 11.913694 -51.660652
-5.466164 13.864996 -54.17627
-3.835633 28.595764 -56.501541
11.215096 36.88549 -59.112465
4.33689 34.947739 -60.201073
-6.995682 -11.820602 -44.676868
-4.231486 -3.844081 -50.213654
-4.397265 -9.576805 -47.99604
-7.743105 25.568237 -53.846703
0.219504 34.372673 -57.950466
1.654537 35.355946 -58.318924
-9.166658 -17.715946 -40.637188
-9.824945 -20.105543 -39.256557
-8.194467 -19.571964 -40.957684
-8.704197 4.472388 -49.167992
-8.48683 1.594358 -48.414806
-6.974955 2.426929 -49.820541
-12.364779 9.562074 -48.303207
-10.246423 21.060671 -51.939434
-11.649631 20.271763 -51.076565
-9.845851 17.434875 -51.567921
-9.598818 14.195923 -51.086052
-8.16261 14.917142 -52.188961
-6.616291 12.717795 -52.92231
-6.920266 16.063023 -53.327572
-4.925633 21.283436 -55.686909
-1.576276 28.073101 -58.615517
12.612229 35.82621 -60.842857
6.070855 35.849709 -60.202492
-8.181883 -7.08565 -45.51078
-6.770937 -9.026639 -45.918423
-3.180757 -2.451711 -51.895668
-4.553628 -12.398669 -46.874939
-8.835531 21.744087 -52.834114
-7.179987 19.16931 -53.608555
-7.446739 22.164463 -53.766251
-6.231919 23.41157 -54.735332
-5.013101 24.518005 -55.739777
-0.16537 31.913435 -58.73914
-6.792219 -3.283793 -48.033798
15.954402 34.798359 -61.178581
17.565735 33.771809 -62.558285
15.705811 33.961227 -63.605129
-8.787329 -15.187322 -41.872578
-6.057494 6.484819 -51.826958
-5.75162 3.498703 -51.199696
-10.532717 6.993155 -48.700684
-8.982315 7.627509 -49.892902
-11.077633 13.697535 -50.087322
-9.331544 10.905256 -50.510025
-7.54967 8.535704 -51.167618
-6.393818 9.620125 -52.38512
-5.205094 11.000427 -53.805618
-5.707344 17.010725 -54.498638
-5.098343 27.590565 -55.621788
-3.854647 25.694189 -56.721813
-2.652715 29.594824 -57.313107
-2.747161 26.790569 -57.670654
9.863041 37.986641 -57.495743
8.178365 37.905441 -58.015503
6.467839 37.574013 -58.365643
4.75338 36.890324 -58.64267
-7.200418 -14.322911 -43.593266
-5.516309 0.667391 -50.499634
-5.520385 -2.313601 -49.478497
-5.46284 -5.258584 -48.480213
-4.275223 -6.611456 -49.174824
-5.380549 -7.938303 -47.580837
-5.57841 -10.716045 -46.387657
-5.81285 -13.378581 -45.235031
1.871242 36.515622 -57.685295
1.101198 36.14806 -57.58958
-7.948681 -18.229236 -41.605717
-8.680563 -18.643955 -40.797436
-8.434777 -17.301227 -41.445469
-7.519527 -19.169665 -41.749566
-7.948681 -18.229236 -41.605717
-4.294234 20.488943 -56.271641
-4.3646 21.933333 -56.260435
13.386142 35.385716 -61.499578
13.493322 35.796112 -60.327241
14.267235 35.355617 -60.983963
-7.443469 -6.678926 -46.261112
-8.143261 -5.705685 -46.067934
-7.404847 -5.29896 -46.818266
-2.756862 -1.716925 -52.69727
-3.250259 -0.936188 -52.337128
-8.944823 23.298447 -52.942449
-9.692381 23.094109 -52.537359
-8.250426 23.508634 -53.408518
-8.141135 21.954275 -53.300182
-8.944823 23.298447 -52.942449
1.087749 31.808742 -59.831732
0.356439 31.282545 -59.481468
0.565939 32.439632 -59.089404
-9.6546 -22.369511 -38.788576
-10.106336 -21.368121 -38.630199
-9.373209 -21.106932 -39.414934
-10.210399 2.250749 -47.435574
-11.198578 3.558509 -47.227434
-7.564986 -0.895299 -48.275959
-8.40026 0.148396 -47.989187
-7.651557 0.550663 -48.701578
-6.804251 -1.888413 -48.511074
-7.552954 -2.29068 -47.798683
-7.564986 -0.895299 -48.275959
16.913075 34.544663 -60.650421
16.094866 35.050932 -60.009932
17.438783 33.361841 -63.688288
18.414998 33.2099 -63.15727
16.508821 33.45655 -64.21171
16.635773 33.866518 -63.081707
17.438783 33.361841 -63.688288
15.512215 33.445606 -64.684141
16.508821 33.45655 -64.21171
-9.486647 -14.237523 -41.649301
-9.638074 -15.45721 -41.045313
-4.821766 6.372421 -52.947607
-5.387325 5.639744 -52.209856
-5.491936 7.217496 -52.564709
-12.382709 18.538685 -50.397138
-12.521255 20.191951 -50.628336
-11.511085 18.618497 -50.845368
-12.188322 16.711909 -50.122059
-12.382709 18.538685 -50.397138
-11.225086 15.331383 -50.350746
-12.040869 15.078062 -49.858635
-12.188322 16.711909 -50.122059
-4.808999 12.958452 -54.661473
-4.678464 11.526167 -54.476146
-5.335629 12.432711 -53.990944
-4.466988 28.093165 -56.061665
-5.104718 29.083877 -55.515927
-4.473363 29.586476 -55.955803
-2.045749 30.153447 -57.694983
-2.579845 31.061654 -57.04567
-1.972879 31.620277 -57.427546
-2.193862 26.099187 -58.351087
-2.161719 27.431835 -58.143085
-1.60842 26.740454 -58.823519
-2.739942 25.397472 -57.805534
-2.193862 26.099187 -58.351087
11.425487 37.342726 -57.953874
12.073315 36.805196 -58.762722
10.539069 37.436065 -58.304104
10.74946 37.893301 -57.145513
11.425487 37.342726 -57.953874
10.540211 35.221455 -62.220062
11.231129 34.746958 -63.033211
7.947844 37.192349 -58.989952
8.804845 37.362364 -58.814276
7.092581 37.026635 -59.165022
7.323102 37.739727 -58.190573
7.947844 37.192349 -58.989952
3.756755 35.624872 -59.341811
3.965 36.596165 -58.562609
4.545135 35.919032 -59.421872
3.562136 34.513824 -60.03805
3.756755 35.624872 -59.341811
-7.772853 -12.162732 -43.880184
-7.629145 -10.81206 -44.526571
-7.09805 -13.071756 -44.135067
-7.875221 -13.413887 -43.338383
-7.772853 -12.162732 -43.880184
-4.973847 1.296338 -51.238638
-5.633964 2.083047 -50.849665
-5.091503 2.711994 -51.588669
-4.875936 -3.078841 -49.846075
-4.900796 -1.659202 -50.317327
-4.256347 -2.424442 -50.684906
-4.336244 -8.094131 -48.585432
-3.813832 -7.407273 -49.417168
-3.874853 -8.889947 -48.827776
-5.424058 -14.270056 -45.363747
-5.183239 -12.888625 -46.054985
-4.794447 -13.7801 -46.183701
-6.052376 -14.812435 -44.533596
-5.424058 -14.270056 -45.363747
-8.44212 26.844254 -53.549214
-8.398609 25.210521 -53.448744
-7.772011 27.227025 -53.896881
-8.44212 26.844254 -53.549214
-7.110658 27.768036 -54.332621
-7.081753 26.109248 -54.282443
-7.772011 27.227025 -53.896881
0.383681 35.656424 -57.405351
-0.30976 35.277584 -57.254017
0.93702 34.86431 -58.134695
0.383681 35.656424 -57.405351
1.101198 36.14806 -57.58958
-9.495801 -18.910744 -39.946872
-10.35137 -19.077935 -39.134899
-10.022226 -17.883136 -39.825215
-8.55797 -20.840143 -40.265497
-9.373209 -21.106932 -39.414934
-9.009706 -19.838754 -40.107121
-7.836968 -20.523985 -41.088453
-8.55797 -20.840143 -40.265497
-7.836968 -20.523985 -41.088453
-7.519527 -19.169665 -41.749566
-4.308001 7.101007 -53.728571
-4.454448 8.608327 -53.983317
-13.432184 11.204745 -48.126976
-13.293901 9.44555 -47.721769
-12.57002 11.339888 -48.64347
-13.432184 11.204745 -48.126976
-11.834369 11.781195 -49.199419
-11.629129 10.003381 -48.859155
-12.57002 11.339888 -48.64347
-10.948027 20.666217 -51.507999
-11.866752 22.137318 -51.268601
-11.165148 22.531771 -51.700035
-4.769455 19.719127 -55.692478
-5.29832 19.178791 -55.183442
-5.454498 20.743099 -55.177872
-4.769455 19.719127 -55.692478
-4.294234 20.488943 -56.271641
-3.825247 30.063699 -56.308088
-4.473363 29.586476 -55.955803
-0.96504 28.683324 -59.068935
-1.507529 29.392586 -58.346188
-0.896294 30.002809 -58.799606
-1.023597 27.352581 -59.386801
-0.96504 28.683324 -59.068935
-1.60842 26.740454 -58.823519
-1.023597 27.352581 -59.386801
12.771882 36.275557 -59.627918
13.493322 35.796112 -60.327241
11.913663 36.35585 -59.977661
12.073315 36.805196 -58.762722
12.771882 36.275557 -59.627918
9.645177 35.02258 -62.446679
9.396521 34.212159 -63.43054
6.675539 35.34948 -61.034211
6.894089 36.164482 -60.083447
5.770995 34.919771 -60.988417
6.675539 35.34948 -61.034211
4.904013 34.468787 -60.987707
5.203873 35.398724 -60.201783
5.770995 34.919771 -60.988417
4.1124 33.925528 -60.884839
4.904013 34.468787 -60.987707
-8.947404 -6.130308 -45.307977
-8.143261 -5.705685 -46.067934
-8.974934 -7.566244 -44.709177
-8.947404 -6.130308 -45.307977
-8.222246 -8.444584 -44.943527
-8.974934 -7.566244 -44.709177
-7.516773 -9.415079 -45.147348
-8.222246 -8.444584 -44.943527
-7.47641 -8.056145 -45.714602
-6.88331 -10.42362 -45.297646
-7.629145 -10.81206 -44.526571
-7.516773 -9.415079 -45.147348
-3.730982 -1.728257 -51.525913
-3.250259 -0.936188 -52.337128
-3.706122 -3.147896 -51.054661
-4.256347 -2.424442 -50.684906
-3.730982 -1.728257 -51.525913
-3.925403 -10.233184 -48.31913
-3.874853 -8.889947 -48.827776
-4.003584 -11.644116 -47.758579
-4.475447 -10.987737 -47.43549
-3.925403 -10.233184 -48.31913
-4.196179 -13.125389 -47.075744
-4.003584 -11.644116 -47.758579
-4.794447 -13.7801 -46.183701
-4.196179 -13.125389 -47.075744
-10.397828 22.752401 -52.090019
-11.165148 22.531771 -51.700035
-9.540977 21.402379 -52.386774
-10.397828 22.752401 -52.090019
-9.692381 23.094109 -52.537359
-7.594922 23.86635 -53.806477
-8.250426 23.508634 -53.408518
-8.398609 25.210521 -53.448744
-4.408334 23.550618 -56.286869
-4.3646 21.933333 -56.260435
-4.969367 22.90072 -55.713343
-1.303374 32.081255 -57.740427
-1.972879 31.620277 -57.427546
-0.47423 33.911556 -57.677231
-0.30976 35.277584 -57.254017
-0.666667 32.681937 -58.071568
-0.47423 33.911556 -57.677231
0.027067 33.143054 -58.344803
-0.802076 31.312753 -58.408
-1.303374 32.081255 -57.740427
-0.666667 32.681937 -58.071568
-0.259587 30.603491 -59.130747
-0.896294 30.002809 -58.799606
-0.802076 31.312753 -58.408
-0.259587 30.603491 -59.130747
0.356439 31.282545 -59.481468
13.1491 34.922041 -62.498236
13.897998 34.459564 -63.242159
10.993634 34.103916 -64.070911
11.231129 34.746958 -63.033211
10.037829 33.832407 -64.169724
10.993634 34.103916 -64.070911
9.396521 34.212159 -63.43054
10.037829 33.832407 -64.169724
-10.618503 -20.330465 -38.464805
-10.35137 -19.077935 -39.134899
-10.899894 -21.593043 -37.838448
-10.618503 -20.330465 -38.464805
-10.106336 -21.368121 -38.630199
-9.267117 1.110082 -47.712395
-10.210399 2.250749 -47.435574
-9.430113 2.735025 -48.137985
-9.267117 1.110082 -47.712395
-8.40026 0.148396 -47.989187
-7.448429 -3.804756 -47.329443
-7.552954 -2.29068 -47.798683
-6.748638 -4.777997 -47.522621
-7.404847 -5.29896 -46.818266
-7.448429 -3.804756 -47.329443
15.164409 35.282186 -60.495103
16.094866 35.050932 -60.009932
15.057229 34.87179 -61.66744
14.267235 35.355617 -60.983963
15.164409 35.282186 -60.495103
18.558362 33.513356 -61.895897
18.414998 33.2099 -63.15727
17.718742 34.031387 -61.340273
18.558362 33.513356 -61.895897
16.760068 34.285084 -61.868433
16.913075 34.544663 -60.650421
17.718742 34.031387 -61.340273
14.670876 33.967567 -63.966573
13.897998 34.459564 -63.242159
14.932933 34.453224 -62.880714
14.670876 33.967567 -63.966573
15.512215 33.445606 -64.684141
-9.827738 -16.721522 -40.427618
-10.022226 -17.883136 -39.825215
-8.976993 -16.451634 -41.254883
-9.827738 -16.721522 -40.427618
-9.638074 -15.45721 -41.045313
-8.245112 -16.036915 -42.063164
-8.434777 -17.301227 -41.445469
-8.976993 -16.451634 -41.254883
-5.234388 4.146686 -51.896225
-5.904557 4.991761 -51.513327
-5.387325 5.639744 -52.209856
-5.091503 2.711994 -51.588669
-5.234388 4.146686 -51.896225
-4.821766 6.372421 -52.947607
-4.308001 7.101007 -53.728571
-11.326308 5.155723 -47.656241
-11.198578 3.558509 -47.227434
-12.322 7.998914 -47.877262
-13.251122 7.88239 -47.295824
-13.293901 9.44555 -47.721769
-11.405969 6.714455 -48.076001
-12.322 7.998914 -47.877262
-11.448748 8.277615 -48.501946
-10.453056 5.434423 -48.280924
-11.326308 5.155723 -47.656241
-11.405969 6.714455 -48.076001
-12.61695 21.836595 -50.882768
-11.866752 22.137318 -51.268601
-12.61695 21.836595 -50.882768
-12.521255 20.191951 -50.628336
-11.926447 13.407618 -49.535528
-12.040869 15.078062 -49.858635
-10.985556 12.071112 -49.751213
-11.834369 11.781195 -49.199419
-11.926447 13.407618 -49.535528
-4.593806 10.133454 -54.234896
-4.454448 8.608327 -53.983317
-5.065736 9.4753 -53.554039
-4.593806 10.133454 -54.234896
-4.678464 11.526167 -54.476146
-5.16031 17.582772 -55.098343
-5.845353 18.606744 -54.583737
-5.29832 19.178791 -55.183442
-5.09583 16.04447 -54.939331
-5.16031 17.582772 -55.098343
-4.97524 14.471606 -54.778147
-5.586754 15.43786 -54.337454
-5.09583 16.04447 -54.939331
-4.808999 12.958452 -54.661473
-4.97524 14.471606 -54.778147
-6.439824 28.216952 -54.691336
-7.110658 27.768036 -54.332621
-5.778795 28.687105 -55.143139
-5.104718 29.083877 -55.515927
-5.759372 27.120412 -55.169985
-6.439824 28.216952 -54.691336
-5.778795 28.687105 -55.143139
-3.829108 24.13871 -56.777887
-4.408334 23.550618 -56.286869
-4.433874 25.106097 -56.230795
-3.233788 30.563229 -56.713871
-2.579845 31.061654 -57.04567
-3.244174 29.095294 -56.907324
-3.825247 30.063699 -56.308088
-3.233788 30.563229 -56.713871
-3.293685 24.849282 -57.331114
-3.300904 26.242379 -57.196233
-2.739942 25.397472 -57.805534
-3.829108 24.13871 -56.777887
-3.293685 24.849282 -57.331114
10.131625 38.487589 -56.371071
10.74946 37.893301 -57.145513
9.292288 38.575762 -56.738401
10.131625 38.487589 -56.371071
12.375187 35.362535 -61.841515
13.386142 35.385716 -61.499578
13.1491 34.922041 -62.498236
11.684269 35.837033 -61.028366
12.375187 35.362535 -61.841515
10.985703 36.366672 -60.16317
11.913663 36.35585 -59.977661
11.684269 35.837033 -61.028366
10.540211 35.221455 -62.220062
9.645177 35.02258 -62.446679
10.323211 36.852388 -59.362757
10.985703 36.366672 -60.16317
9.647184 37.402963 -58.554396
10.539069 37.436065 -58.304104
10.323211 36.852388 -59.362757
9.020703 37.946041 -57.755623
9.647184 37.402963 -58.554396
8.804845 37.362364 -58.814276
8.449949 38.535162 -56.998282
9.292288 38.575762 -56.738401
9.020703 37.946041 -57.755623
7.607748 38.506382 -57.268608
8.449949 38.535162 -56.998282
6.752485 38.340668 -57.443678
7.607748 38.506382 -57.268608
7.323102 37.739727 -58.190573
5.909707 38.173405 -57.646004
6.752485 38.340668 -57.443678
6.269347 36.711861 -59.284067
7.092581 37.026635 -59.165022
6.894089 36.164482 -60.083447
5.052478 37.83156 -57.784517
5.909707 38.173405 -57.646004
5.610609 37.232169 -58.504157
4.217268 37.628172 -57.838059
5.052478 37.83156 -57.784517
4.217268 37.628172 -57.838059
3.965 36.596165 -58.562609
2.415578 35.828976 -58.400736
1.871242 36.515622 -57.685295
2.220959 34.717928 -59.096975
2.415578 35.828976 -58.400736
2.042314 33.522869 -59.657347
1.475893 34.160887 -58.879295
2.220959 34.717928 -59.096975
3.562136 34.513824 -60.03805
4.1124 33.925528 -60.884839
1.829804 32.422174 -60.203118
2.042314 33.522869 -59.657347
1.087749 31.808742 -59.831732
1.829804 32.422174 -60.203118
-8.668677 -13.846092 -42.478039
-9.486647 -14.237523 -41.649301
-7.993873 -14.755116 -42.732922
-8.668677 -13.846092 -42.478039
-7.875221 -13.413887 -43.338383
-7.451657 -15.60471 -42.923508
-8.245112 -16.036915 -42.063164
-7.993873 -14.755116 -42.732922
-4.898758 -0.168706 -50.827896
-4.973847 1.296338 -51.238638
-5.518347 -0.823105 -49.989065
-4.898758 -0.168706 -50.827896
-4.900796 -1.659202 -50.317327
-2.727823 -3.141354 -52.232959
-2.756862 -1.716925 -52.69727
-3.205345 -3.931689 -51.339337
-2.727823 -3.141354 -52.232959
-3.73071 -4.627874 -50.498329
-3.706122 -3.147896 -51.054661
-3.205345 -3.931689 -51.339337
-3.752578 -6.011562 -49.978915
-3.813832 -7.407273 -49.417168
-4.253355 -5.227768 -49.694239
-3.73071 -4.627874 -50.498329
-3.752578 -6.011562 -49.978915
-6.746161 -15.284599 -43.712713
-6.506634 -13.850746 -44.414148
-6.052376 -14.812435 -44.533596
-7.451657 -15.60471 -42.923508
-6.746161 -15.284599 -43.712713
3 84 24 85
3 86 27 87
3 88 87 25
3 86 87 88
3 90 89 27
3 0 30 28
3 2 34 32
3 2 36 34
3 2 38 36
3 92 91 39
3 1 93 95
3 93 41 94
3 93 94 95
3 3 96 98
3 96 43 97
3 96 97 98
3 3 44 43
3 99 45 100
3 101 47 102
3 103 49 104
3 105 104 47
3 103 104 105
3 5 50 22
3 5 51 50
3 7 52 23
3 7 106 108
3 108 107 52
3 106 107 108
3 111 110 26
3 109 110 111
3 9 112 113
3 10 114 116
3 116 115 29
3 114 115 116
3 10 117 119
3 117 53 118
3 117 118 119
3 120 54 121
3 122 55 123
3 124 56 125
3 126 125 55
3 124 125 126
3 128 127 56
3 129 57 130
3 11 131 133
3 133 132 58
3 131 132 133
3 12 60 31
3 12 61 60
3 13 134 136
3 136 135 33
3 134 135 136
3 13 137 138
3 13 139 141
3 139 62 140
3 139 140 141
3 14 63 35
3 14 64 63
3 14 65 64
3 15 66 37
3 15 142 144
3 144 143 66
3 142 143 144
3 4 67 48
3 16 145 147
3 145 68 146
3 145 146 147
3 16 69 68
3 6 148 150
3 148 70 149
3 148 149 150
3 151 71 152
3 153 152 40
3 151 152 153
3 155 154 71
3 17 156 157
3 17 158 160
3 158 72 159
3 158 159 160
3 8 161 162
3 163 73 164
3 165 74 166
3 167 166 73
3 165 166 167
3 18 75 42
3 18 168 170
3 170 169 75
3 168 169 170
3 18 171 172
3 19 173 174
3 19 175 177
3 175 76 176
3 175 176 177
3 178 77 179
3 180 179 59
3 178 179 180
3 20 181 183
3 181 78 182
3 181 182 183
3 20 79 78
3 21 184 186
3 184 80 185
3 184 185 186
3 21 81 80
3 21 82 81
3 187 83 188
3 189 188 46
3 187 188 189
3 191 190 83
3 192 22 193
3 194 22 195
3 196 5 197
3 198 197 22
3 196 197 198
3 199 23 200
3 24 201 203
3 201 23 202
3 201 202 203
3 24 7 23
3 25 204 206
3 204 26 205
3 204 205 206
3 27 26 25
3 27 207 209
3 209 208 26
3 207 208 209
3 27 210 211
3 213 212 27
3 28 29 9
3 30 29 28
3 30 10 29
3 215 214 11
3 216 31 217
3 218 31 219
3 220 12 221
3 222 221 31
3 220 221 222
3 32 223 225
3 223 33 224
3 223 224 225
3 34 33 32
3 34 13 33
3 34 35 13
3 36 35 34
3 36 14 35
3 36 37 14
3 38 37 36
3 38 15 37
3 39 226 228
3 228 227 4
3 226 227 228
3 230 229 39
3 231 16 232
3 233 40 234
3 235 234 6
3 233 234 235
3 236 40 237
3 239 238 40
3 41 240 241
3 41 242 244
3 242 17 243
3 242 243 244
3 246 245 8
3 247 42 248
3 249 42 250
3 251 18 252
3 253 252 42
3 251 252 253
3 255 254 18
3 43 256 257
3 43 258 259
3 43 260 261
3 44 262 264
3 264 263 43
3 262 263 264
3 44 265 267
3 265 19 266
3 265 266 267
3 45 268 269
3 45 270 272
3 270 20 271
3 270 271 272
3 273 21 274
3 275 46 276
3 277 276 21
3 275 276 277
3 278 46 279
3 281 280 46
3 282 32 283
3 47 284 286
3 284 32 285
3 284 285 286
3 47 2 32
3 47 48 2
3 49 48 47
3 49 4 48
3 22 287 289
3 287 49 288
3 287 288 289
3 50 49 22
3 50 4 49
3 50 39 4
3 51 39 50
3 51 290 292
3 292 291 39
3 290 291 292
3 293 6 294
3 23 295 296
3 52 297 299
3 299 298 23
3 297 298 299
3 52 300 302
3 300 6 301
3 300 301 302
3 52 303 305
3 305 304 6
3 303 304 305
3 307 306 52
3 309 308 1
3 310 8 311
3 312 8 313
3 315 314 8
3 26 316 317
3 320 319 26
3 318 319 320
3 29 321 323
3 323 322 9
3 321 322 323
3 325 324 29
3 53 326 327
3 53 328 330
3 328 3 329
3 328 329 330
3 54 331 332
3 54 333 335
3 333 1 334
3 333 334 335
3 55 336 337
3 55 338 339
3 55 340 342
3 340 54 341
3 340 341 342
3 56 54 55
3 56 1 54
3 56 343 345
3 345 344 1
3 343 344 345
3 347 346 56
3 348 25 349
3 57 350 352
3 350 25 351
3 350 351 352
3 57 353 355
3 355 354 25
3 353 354 355
3 58 59 0
3 356 59 357
3 358 357 58
3 356 357 358
3 360 359 59
3 362 361 11
3 363 9 364
3 31 365 367
3 365 366 367
3 60 368 370
3 370 369 31
3 368 369 370
3 60 371 373
3 371 9 372
3 371 372 373
3 60 28 9
3 61 28 60
3 61 0 28
3 33 374 375
3 377 376 33
3 62 378 379
3 62 380 382
3 380 12 381
3 380 381 382
3 35 62 13
3 63 62 35
3 63 12 62
3 63 61 12
3 64 61 63
3 64 0 61
3 64 58 0
3 65 58 64
3 65 11 58
3 37 65 14
3 66 65 37
3 66 11 65
3 66 383 385
3 385 384 11
3 383 384 385
3 387 386 66
3 48 38 2
3 67 38 48
3 67 15 38
3 388 67 389
3 390 389 4
3 388 389 390
3 391 67 392
3 393 15 394
3 395 394 67
3 393 394 395
3 397 396 15
3 398 5 399
3 68 400 401
3 68 402 404
3 402 5 403
3 402 403 404
3 68 51 5
3 69 51 68
3 69 405 407
3 407 406 51
3 405 406 407
3 70 408 409
3 70 410 412
3 410 16 411
3 410 411 412
3 40 70 6
3 71 70 40
3 71 16 70
3 71 69 16
3 413 69 414
3 415 414 71
3 413 414 415
3 417 416 69
3 72 418 419
3 72 420 421
3 422 41 423
3 424 423 1
3 422 423 424
3 425 41 426
3 427 17 428
3 429 428 41
3 427 428 429
3 431 430 8
3 432 17 433
3 434 72 435
3 436 435 17
3 434 435 436
3 73 437 439
3 437 72 438
3 437 438 439
3 73 440 442
3 442 441 72
3 440 441 442
3 73 443 444
3 74 445 447
3 447 446 73
3 445 446 447
3 74 448 449
3 42 450 452
3 450 74 451
3 450 451 452
3 75 74 42
3 75 453 455
3 455 454 74
3 453 454 455
3 75 456 457
3 459 458 75
3 460 24 461
3 462 24 463
3 464 7 465
3 466 465 24
3 464 465 466
3 468 467 18
3 469 7 470
3 472 471 7
3 473 57 474
3 76 475 477
3 475 57 476
3 475 476 477
3 76 478 480
3 480 479 57
3 478 479 480
3 59 30 0
3 77 30 59
3 77 10 30
3 481 77 482
3 78 483 485
3 483 77 484
3 483 484 485
3 78 10 77
3 78 53 10
3 79 53 78
3 79 3 53
3 486 45 487
3 488 45 489
3 490 20 491
3 492 491 45
3 490 491 492
3 80 493 494
3 80 495 497
3 495 20 496
3 495 496 497
3 80 79 20
3 81 79 80
3 81 3 79
3 81 44 3
3 82 44 81
3 82 19 44
3 46 82 21
3 83 82 46
3 83 19 82
3 83 76 19
3 498 76 499
3 500 499 83
3 498 499 500
3 502 501 76
