ply
format ascii 1.0
element vertex 207
property float x
property float y
property float z
element face 184
property list uchar int vertex_index
end_header
11.13856 60.794109 27.928234
9.640492 51.981979 36.104591
12.715467 68.488533 19.161516
7.248049 57.525135 34.905457
6.282763 52.775482 38.682827
13.288664 55.283989 28.989338
13.818754 59.17453 24.915638
7.969782 62.232349 30.847391
10.345449 56.417439 32.306252
12.647458 50.984779 33.203598
5.356935 47.466351 42.240967
11.901978 64.852631 23.516342
8.900389 47.05732 39.706284
4.986129 55.704956 37.978622
4.620506 53.005905 39.817142
14.377128 52.338749 29.535007
8.442872 54.737892 35.561707
8.884858 56.978691 33.606014
10.026667 54.071087 34.319233
11.446793 53.790157 32.794846
11.224832 51.502258 34.657021
11.448722 62.919182 25.77997
7.116526 47.248554 41.067535
8.363266 44.504532 41.498569
5.433973 58.130749 36.117096
6.821411 55.186333 36.79314
8.058584 52.14901 37.539295
12.161753 57.876724 28.707989
12.496318 59.90617 26.566629
13.55574 57.181293 27.015272
9.59185 61.50301 29.469809
7.558249 59.827915 33.026428
9.132602 59.296848 31.68132
10.640636 58.76812 30.187794
11.843157 55.789501 30.786556
13.041798 53.041462 31.122534
12.851006 61.875103 24.38674
13.277419 63.751167 22.126251
13.72681 65.593605 19.827503
5.78974 49.952286 40.635483
7.554616 49.82338 39.324047
9.30605 49.549759 37.92207
10.529931 46.587906 38.451008
10.876238 49.154583 36.56461
12.429284 48.637321 35.095684
3.696715 53.1506 40.379831
3.896863 54.453945 39.505842
15.050044 51.987442 28.599013
14.961323 50.96977 29.620018
12.958855 69.438027 17.942567
12.26265 69.911522 18.653158
13.379995 68.09277 18.345198
12.958855 69.438027 17.942567
11.293641 61.856645 26.854102
10.716538 63.334125 26.496673
10.561457 62.271589 27.570805
8.18819 43.140257 42.298864
7.56257 44.506983 42.10671
4.509671 58.313413 36.72629
4.761319 59.608747 35.702934
8.253277 63.205717 29.779749
7.388975 63.700956 30.36518
8.780816 61.86768 30.1586
9.064311 62.841048 29.090958
8.253277 63.205717 29.779749
7.403149 58.676525 33.965942
6.711148 60.230808 33.559275
6.556048 59.079418 34.498789
13.420365 50.603887 32.350624
13.617535 51.632229 31.310092
12.844628 52.01312 32.163066
11.364083 66.273979 23.160153
11.183855 65.283413 24.243965
12.103877 65.738068 22.460104
11.364083 66.273979 23.160153
13.95911 63.313055 21.237785
13.739223 62.434666 22.369297
14.183806 64.234274 20.088411
13.502115 64.672386 20.976877
13.95911 63.313055 21.237785
14.372001 65.190883 18.956503
14.183806 64.234274 20.088411
5.573338 48.709319 41.438225
4.924844 50.204363 41.114055
4.708442 48.961396 41.916798
11.289877 46.454082 37.7291
11.104286 45.205923 38.649996
11.463031 47.737421 36.7859
10.703084 47.871245 37.507809
11.289877 46.454082 37.7291
12.239553 47.47879 36.051437
11.652761 48.895952 35.830147
11.463031 47.737421 36.7859
4.079675 55.803471 38.586582
4.285749 57.100517 37.657053
4.803318 54.35543 38.897882
4.079675 55.803471 38.586582
3.896863 54.453945 39.505842
14.514551 53.37232 28.44216
13.970319 54.84494 28.169325
13.832896 53.811369 29.262172
14.514551 53.37232 28.44216
15.050044 51.987442 28.599013
7.196672 62.540501 31.42761
7.388975 63.700956 30.36518
10.957227 64.316688 25.375779
10.716538 63.334125 26.496673
11.67535 63.885907 24.648156
11.183855 65.283413 24.243965
10.957227 64.316688 25.375779
14.009891 60.146347 23.76399
14.480622 58.71146 24.051707
6.9392 45.878994 41.891193
6.236731 47.357453 41.654251
6.059404 45.987893 42.477909
7.739896 45.876543 41.283052
6.9392 45.878994 41.891193
7.56257 44.506983 42.10671
5.64901 59.382225 35.104608
4.761319 59.608747 35.702934
6.341011 57.827942 35.511276
6.556048 59.079418 34.498789
5.64901 59.382225 35.104608
5.210051 56.917853 37.047859
4.509671 58.313413 36.72629
4.285749 57.100517 37.657053
12.02488 69.012577 19.810482
12.26265 69.911522 18.653158
14.103856 55.793592 27.182292
13.422202 56.232641 28.002305
13.970319 54.84494 28.169325
14.173815 56.845163 26.172498
14.103856 55.793592 27.182292
14.305322 57.841781 25.122681
13.687247 58.177911 25.965455
14.173815 56.845163 26.172498
14.480622 58.71146 24.051707
14.305322 57.841781 25.122681
9.788101 62.62604 28.341593
9.064311 62.841048 29.090958
10.365205 61.14856 28.699022
10.561457 62.271589 27.570805
9.788101 62.62604 28.341593
6.990905 61.338284 32.517128
6.711148 60.230808 33.559275
7.764016 61.030132 31.936909
7.196672 62.540501 31.42761
6.990905 61.338284 32.517128
14.285201 51.280873 30.516329
13.709463 52.690106 30.328771
13.617535 51.632229 31.310092
14.961323 50.96977 29.620018
14.285201 51.280873 30.516329
4.488165 47.547056 42.775025
4.708442 48.961396 41.916798
5.164274 46.065587 43.053034
4.488165 47.547056 42.775025
6.059404 45.987893 42.477909
5.164274 46.065587 43.053034
12.510622 67.556019 20.282691
12.02488 69.012577 19.810482
13.526017 61.496634 23.499541
13.33488 60.524817 24.651189
14.009891 60.146347 23.76399
13.064213 62.813135 23.256495
13.526017 61.496634 23.499541
13.739223 62.434666 22.369297
12.791598 65.187336 21.765059
12.103877 65.738068 22.460104
12.589699 64.301899 22.821297
13.016293 66.108555 20.615685
12.791598 65.187336 21.765059
13.502115 64.672386 20.976877
13.221139 67.041069 19.494509
12.510622 67.556019 20.282691
13.016293 66.108555 20.615685
13.885666 66.645306 18.678192
13.379995 68.09277 18.345198
13.221139 67.041069 19.494509
13.885666 66.645306 18.678192
14.372001 65.190883 18.956503
4.340227 51.731172 40.704885
3.696715 53.1506 40.379831
5.205123 51.479095 40.226312
4.340227 51.731172 40.704885
4.924844 50.204363 41.114055
8.991915 43.063221 41.69585
8.18819 43.140257 42.298864
9.200215 44.308335 40.886164
8.991915 43.063221 41.69585
9.468777 45.584728 39.990021
8.631827 45.780926 40.602426
9.200215 44.308335 40.886164
10.283548 45.350021 39.362383
11.104286 45.205923 38.649996
9.71516 46.822613 39.078646
9.468777 45.584728 39.990021
10.283548 45.350021 39.362383
12.988167 47.279846 35.271909
12.239553 47.47879 36.051437
13.19235 48.382074 34.248588
12.988167 47.279846 35.271909
13.301437 49.555803 33.302546
12.538371 49.81105 34.149641
13.19235 48.382074 34.248588
13.420365 50.603887 32.350624
13.301437 49.555803 33.302546
3 45 14 46
3 48 47 15
3 1 18 16
3 1 20 18
3 2 49 50
3 2 51 52
3 0 53 55
3 53 21 54
3 53 54 55
3 56 23 57
3 58 24 59
3 4 25 13
3 4 26 25
3 5 29 27
3 7 60 61
3 7 62 64
3 62 30 63
3 62 63 64
3 3 65 67
3 65 31 66
3 65 66 67
3 8 32 17
3 8 33 32
3 8 34 33
3 9 35 19
3 9 68 70
3 70 69 35
3 68 69 70
3 11 71 72
3 11 73 74
3 6 36 28
3 75 37 76
3 77 38 78
3 79 78 37
3 77 78 79
3 81 80 38
3 10 82 84
3 82 39 83
3 82 83 84
3 12 40 22
3 12 41 40
3 85 42 86
3 87 43 88
3 89 88 42
3 87 88 89
3 90 44 91
3 92 91 43
3 90 91 92
3 93 13 94
3 14 95 97
3 95 13 96
3 95 96 97
3 14 4 13
3 15 98 100
3 100 99 5
3 98 99 100
3 102 101 15
3 103 7 104
3 16 17 3
3 18 17 16
3 18 8 17
3 18 19 8
3 20 19 18
3 20 9 19
3 21 105 106
3 21 107 109
3 107 11 108
3 107 108 109
3 111 110 6
3 112 22 113
3 114 113 10
3 112 113 114
3 23 115 117
3 115 22 116
3 115 116 117
3 23 12 22
3 24 118 119
3 24 120 122
3 120 3 121
3 120 121 122
3 13 123 125
3 123 24 124
3 123 124 125
3 25 24 13
3 25 3 24
3 25 16 3
3 26 16 25
3 26 1 16
3 126 2 127
3 27 28 0
3 29 28 27
3 29 6 28
3 128 29 129
3 130 129 5
3 128 129 130
3 131 29 132
3 133 6 134
3 135 134 29
3 133 134 135
3 137 136 6
3 30 138 139
3 30 140 142
3 140 0 141
3 140 141 142
3 31 143 144
3 31 145 147
3 145 7 146
3 145 146 147
3 17 31 3
3 32 31 17
3 32 7 31
3 32 30 7
3 33 30 32
3 33 0 30
3 33 27 0
3 34 27 33
3 34 5 27
3 19 34 8
3 35 34 19
3 35 5 34
3 35 15 5
3 148 15 149
3 150 149 35
3 148 149 150
3 152 151 15
3 153 10 154
3 155 10 156
3 158 157 10
3 159 2 160
3 28 21 0
3 36 21 28
3 36 11 21
3 161 36 162
3 163 162 6
3 161 162 163
3 37 164 166
3 164 36 165
3 164 165 166
3 37 11 36
3 37 167 169
3 169 168 11
3 167 168 169
3 38 170 172
3 172 171 37
3 170 171 172
3 38 173 175
3 173 2 174
3 173 174 175
3 38 176 178
3 178 177 2
3 176 177 178
3 180 179 38
3 181 14 182
3 39 183 185
3 183 14 184
3 183 184 185
3 39 4 14
3 22 39 10
3 40 39 22
3 40 4 39
3 40 26 4
3 41 26 40
3 41 1 26
3 186 23 187
3 188 23 189
3 190 12 191
3 192 191 23
3 190 191 192
3 42 193 194
3 42 195 197
3 195 12 196
3 195 196 197
3 42 41 12
3 43 41 42
3 43 1 41
3 43 20 1
3 44 20 43
3 44 9 20
3 198 44 199
3 200 44 201
3 202 9 203
3 204 203 44
3 202 203 204
3 206 205 9
