ply
format ascii 1.0
element vertex 151
property float x
property float y
property float z
element face 114
property list uchar int vertex_index
end_header
21.461481 32.598507 -57.033588
8.721534 39.164883 -55.98106
-2.77343 57.507832 -49.964939
18.174948 34.692867 -54.702488
14.703304 36.343483 -57.331875
17.871748 34.290966 -60.122261
-0.850833 56.864525 -49.247398
-1.838057 54.337364 -50.298935
19.77137 33.657955 -55.924847
17.993196 34.640892 -57.482471
19.690882 33.605919 -58.493752
14.374416 35.766014 -59.811626
12.931535 36.724903 -58.412979
10.400208 38.988537 -55.246399
15.036654 36.725086 -54.594097
16.494011 35.626175 -56.203762
16.235331 35.303505 -58.841282
19.550989 33.254902 -61.233509
21.304331 32.533337 -54.34753
13.423029 37.323723 -55.943264
11.635878 37.799961 -56.795284
-0.426773 55.408171 -49.434259
0.012346 56.685191 -48.826593
8.152764 39.812123 -55.306486
8.966155 39.719143 -54.942905
7.879333 39.136103 -56.251386
8.152764 39.812123 -55.306486
13.493322 35.796112 -60.327241
14.267235 35.355617 -60.983963
11.213334 38.754851 -54.868089
10.592377 39.451923 -54.065365
-3.207713 56.012005 -50.419319
-3.759189 57.590466 -50.312264
-2.197288 52.925068 -50.76854
-1.250968 52.867666 -50.49177
17.33448 35.159521 -55.453125
16.524817 35.731036 -54.807035
17.365285 35.264381 -54.056399
16.913075 34.544663 -60.650421
16.094866 35.050932 -60.009932
17.053539 34.797235 -59.481772
20.41147 32.661507 -61.818895
20.444924 32.896382 -60.473512
21.204934 32.391357 -52.992811
20.454222 33.07444 -53.715616
11.425487 37.342726 -57.953874
12.283707 37.262432 -57.604132
12.073315 36.805196 -58.762722
10.74946 37.893301 -57.145513
11.425487 37.342726 -57.953874
-0.920385 54.14459 -49.960027
-1.344445 55.600944 -49.773167
-0.426773 55.408171 -49.434259
-1.250968 52.867666 -50.49177
-0.920385 54.14459 -49.960027
12.771882 36.275557 -59.627918
13.652976 36.245458 -59.112302
13.493322 35.796112 -60.327241
12.073315 36.805196 -58.762722
12.771882 36.275557 -59.627918
21.400171 32.568184 -58.373552
22.241965 32.091549 -57.521907
9.805492 39.63097 -54.575575
10.592377 39.451923 -54.065365
9.560871 39.07671 -55.613729
8.966155 39.719143 -54.942905
9.805492 39.63097 -54.575575
-2.740026 54.426771 -50.586317
-3.207713 56.012005 -50.419319
-2.305744 55.922598 -50.131937
-2.740026 54.426771 -50.586317
-2.197288 52.925068 -50.76854
15.796138 36.280491 -54.002203
15.09684 36.854473 -53.303423
15.765332 36.17563 -55.398929
15.796138 36.280491 -54.002203
16.524817 35.731036 -54.807035
15.164409 35.282186 -60.495103
15.304873 35.534759 -59.326454
16.094866 35.050932 -60.009932
14.267235 35.355617 -60.983963
15.164409 35.282186 -60.495103
20.514871 33.07189 -59.103634
20.576181 33.102213 -57.76367
21.400171 32.568184 -58.373552
19.620936 33.430411 -59.86363
20.514871 33.07189 -59.103634
20.444924 32.896382 -60.473512
19.407625 32.951447 -62.494883
20.41147 32.661507 -61.818895
18.558362 33.513356 -61.895897
19.407625 32.951447 -62.494883
18.414998 33.2099 -63.15727
17.718742 34.031387 -61.340273
18.711368 33.772934 -60.677885
18.558362 33.513356 -61.895897
16.913075 34.544663 -60.650421
17.718742 34.031387 -61.340273
18.112552 34.69795 -53.371584
17.365285 35.264381 -54.056399
18.88953 34.154205 -53.893095
18.112552 34.69795 -53.371584
19.687742 33.636749 -54.504275
18.973159 34.175411 -55.313668
18.88953 34.154205 -53.893095
20.537851 33.095646 -55.136189
19.687742 33.636749 -54.504275
20.454222 33.07444 -53.715616
22.010925 31.87261 -53.449852
21.204934 32.391357 -52.992811
22.152444 31.988346 -54.769403
22.010925 31.87261 -53.449852
22.231019 32.02093 -56.112432
21.382906 32.565922 -55.690559
22.152444 31.988346 -54.769403
22.241965 32.091549 -57.521907
22.231019 32.02093 -56.112432
-3.256387 59.012928 -49.892021
-3.759189 57.590466 -50.312264
-2.288283 58.861125 -49.482453
-3.256387 59.012928 -49.892021
-1.326985 58.539471 -49.123682
-1.812132 57.186178 -49.606168
-2.288283 58.861125 -49.482453
-0.388479 58.315832 -48.658207
-1.326985 58.539471 -49.123682
0.012346 56.685191 -48.826593
-0.388479 58.315832 -48.658207
14.329531 37.295929 -54.014076
15.09684 36.854473 -53.303423
13.522719 37.595247 -54.688659
14.329531 37.295929 -54.014076
14.229841 37.024405 -55.268681
12.724745 37.922443 -55.216522
13.522719 37.595247 -54.688659
11.831169 38.160562 -55.642532
12.724745 37.922443 -55.216522
12.529453 37.561842 -56.369274
11.018043 38.394249 -56.020842
11.213334 38.754851 -54.868089
11.831169 38.160562 -55.642532
10.131625 38.487589 -56.371071
11.018043 38.394249 -56.020842
10.74946 37.893301 -57.145513
9.292288 38.575762 -56.738401
9.560871 39.07671 -55.613729
10.131625 38.487589 -56.371071
8.449949 38.535162 -56.998282
9.292288 38.575762 -56.738401
7.879333 39.136103 -56.251386
8.449949 38.535162 -56.998282
3 22 21 6
3 0 10 8
3 1 23 24
3 1 25 26
3 28 27 11
3 29 13 30
3 2 31 32
3 34 33 7
3 3 35 37
3 35 15 36
3 35 36 37
3 5 16 9
3 5 38 40
3 40 39 16
3 38 39 40
3 41 17 42
3 43 18 44
3 4 19 14
3 45 20 46
3 47 46 12
3 45 46 47
3 49 48 20
3 6 7 2
3 50 7 51
3 52 51 6
3 50 51 52
3 54 53 7
3 8 9 3
3 10 9 8
3 10 5 9
3 11 12 4
3 55 12 56
3 57 56 11
3 55 56 57
3 59 58 12
3 61 60 0
3 13 62 63
3 13 64 66
3 64 1 65
3 64 65 66
3 7 67 69
3 69 68 2
3 67 68 69
3 71 70 7
3 72 14 73
3 15 74 76
3 74 14 75
3 74 75 76
3 15 4 14
3 9 15 3
3 16 15 9
3 16 4 15
3 16 11 4
3 77 11 78
3 79 78 16
3 77 78 79
3 81 80 11
3 82 10 83
3 84 83 0
3 82 83 84
3 17 85 87
3 85 10 86
3 85 86 87
3 17 5 10
3 88 17 89
3 90 17 91
3 90 91 92
3 93 5 94
3 95 94 17
3 93 94 95
3 97 96 5
3 98 3 99
3 100 3 101
3 102 8 103
3 104 103 3
3 102 103 104
3 18 105 107
3 105 8 106
3 105 106 107
3 18 0 8
3 108 18 109
3 110 18 111
3 112 0 113
3 114 113 18
3 112 113 114
3 116 115 0
3 117 2 118
3 119 2 120
3 121 6 122
3 123 122 2
3 121 122 123
3 124 6 125
3 127 126 6
3 14 128 129
3 19 130 132
3 132 131 14
3 130 131 132
3 19 133 134
3 12 19 4
3 20 19 12
3 20 135 137
3 137 136 19
3 135 136 137
3 20 138 140
3 138 13 139
3 138 139 140
3 141 13 142
3 143 142 20
3 141 142 143
3 144 1 145
3 146 145 13
3 144 145 146
3 147 1 148
3 150 149 1
