ply
format ascii 1.0
element vertex 403
property float x
property float y
property float z
element face 351
property list uchar int vertex_index
end_header
26.94492 -89.023651 2.690539
23.079554 -69.604469 -11.6112
24.847425 -74.550476 -4.774733
26.631023 -85.29509 -5.963315
24.624594 -98.461449 0.070719
22.973444 -71.862831 -18.526463
21.651636 -70.981628 -25.821669
27.026905 -87.196182 -1.725302
27.058867 -92.673782 -2.755681
23.785191 -74.527031 -12.193254
23.01053 -71.058464 -14.940533
22.976645 -65.243835 -10.817216
23.482004 -67.64077 -8.117467
23.874666 -72.334259 -8.446026
24.722569 -77.336357 -9.134855
25.724329 -79.940361 -5.375464
26.295786 -94.003693 1.615647
26.165855 -97.614792 -4.314251
22.672415 -66.352478 -13.902068
22.536127 -66.991173 -17.153362
22.274584 -67.03492 -20.700199
22.627277 -72.012764 -22.16721
20.265797 -64.835007 -27.601389
27.064224 -88.328064 0.404296
27.139688 -90.079353 -2.124676
27.002197 -90.998825 0.08448
20.555534 -75.162918 -29.707296
24.040312 -71.059502 -6.577785
24.347418 -73.558434 -6.766995
24.253269 -74.808784 -8.765543
24.723906 -75.919601 -7.03142
26.176357 -82.481491 -5.580122
25.7642 -81.430748 -7.64863
26.260563 -83.990944 -7.807304
25.571447 -96.328346 1.015232
26.247904 -95.871208 -1.175417
25.536695 -97.980087 -1.934592
22.962181 -67.42173 -11.192253
22.785126 -65.876648 -12.404061
22.829357 -68.121658 -12.884032
22.994762 -71.477303 -16.759771
22.749258 -69.250977 -16.155132
22.685596 -69.285141 -17.883476
22.422615 -66.839958 -18.945271
22.610788 -69.46579 -19.546381
22.349369 -74.245453 -24.971119
22.252926 -71.824875 -23.977264
22.096279 -69.123871 -23.136951
21.619335 -68.585159 -24.901207
20.955416 -67.951385 -26.764933
26.895561 -86.396889 -3.860899
23.369423 -71.996368 -11.843823
23.025728 -70.452995 -13.304033
23.356945 -72.821869 -13.599148
23.373747 -73.548676 -15.503492
23.392805 -74.139633 -17.323059
21.699568 -73.621979 -26.770357
20.88813 -70.281097 -27.716372
20.837076 -72.731453 -28.57575
23.187765 -66.468689 -9.515725
23.249338 -68.804237 -9.798018
23.602764 -69.868744 -8.255421
23.451944 -71.060791 -10.032616
23.808937 -73.607468 -10.363334
25.256466 -77.283737 -5.13819
25.235527 -78.676849 -7.304607
25.265337 -80.00486 -9.424381
26.720304 -91.531868 2.365491
26.74749 -93.399796 -0.384517
22.608961 -64.471901 -14.905592
22.762991 -68.611504 -14.490761
22.595652 -66.713501 -15.548032
22.38938 -64.559486 -18.143795
22.220098 -64.348541 -19.86335
21.963045 -64.051598 -21.558155
23.309227 -74.348724 -19.263735
23.147339 -74.629135 -21.235176
22.841238 -71.91671 -20.420378
22.410927 -69.385307 -21.413363
21.974867 -66.4216 -22.380699
27.004572 -88.675858 1.547417
27.0217 -87.376724 1.755678
26.962048 -87.724518 2.8988
24.597422 -74.054455 -5.770864
24.431348 -72.830082 -5.76078
24.681351 -73.326103 -4.764649
26.40369 -83.888291 -5.771719
26.354458 -83.032498 -4.53928
26.581791 -84.439297 -4.730876
26.654717 -85.991127 -7.230553
26.469487 -85.339054 -8.152548
26.445793 -84.643017 -6.885309
24.705406 -97.502518 1.553455
24.149949 -98.418442 1.167666
25.09802 -97.394897 0.542975
25.178833 -96.435967 2.025711
24.705406 -97.502518 1.553455
26.910497 -85.868424 -1.481515
26.987799 -86.378246 -0.480083
26.961233 -86.796536 -2.7931
26.844825 -85.468777 -2.549314
26.910497 -85.868424 -1.481515
27.076605 -88.15184 -3.015921
27.010933 -87.752194 -4.083719
26.961233 -86.796536 -2.7931
27.123638 -92.243404 -3.886704
27.164048 -90.94619 -3.571201
27.099277 -91.376567 -2.440179
27.042988 -93.547451 -4.183205
27.123638 -92.243404 -3.886704
23.607841 -74.857281 -15.772389
23.576802 -74.415379 -14.820441
23.61737 -75.15276 -16.682173
23.383276 -73.844155 -16.413276
23.607841 -74.857281 -15.772389
21.667994 -74.901951 -27.29761
22.066185 -75.186135 -26.357501
21.236747 -74.456688 -28.200306
21.268322 -73.176716 -27.673054
21.667994 -74.901951 -27.29761
20.159588 -73.498474 -30.035208
19.924477 -74.491707 -30.576051
23.334885 -67.05473 -8.816596
23.34952 -65.91803 -8.723621
23.49664 -66.504071 -8.024492
24.49757 -76.716721 -9.899964
24.26292 -75.452934 -9.715307
24.487919 -76.072571 -8.950199
24.753324 -78.009361 -10.154324
24.49757 -76.716721 -9.899964
25.724552 -79.150757 -4.246601
25.919571 -80.393417 -4.340582
25.490398 -78.612049 -5.256827
25.49062 -77.822445 -4.127965
25.724552 -79.150757 -4.246601
25.528785 -81.302654 -9.624774
25.514768 -80.717804 -8.536506
25.778216 -82.015598 -8.736899
25.285936 -80.602081 -10.546464
25.528785 -81.302654 -9.624774
26.273786 -93.059296 3.075645
25.959409 -94.210946 2.752476
26.508045 -92.767781 1.990569
26.486045 -91.823384 3.450567
26.273786 -93.059296 3.075645
26.449534 -96.385296 -3.798344
26.490558 -95.513504 -2.228927
26.206879 -96.743 -2.744834
26.401487 -97.244633 -5.387945
26.449534 -96.385296 -3.798344
22.940849 -64.473379 -11.342011
23.059783 -64.190883 -10.622284
22.706682 -65.246109 -13.603088
22.763038 -65.008194 -12.854084
22.728771 -66.114563 -13.153064
22.640688 -65.41219 -14.40383
22.674956 -64.305821 -14.10485
22.706682 -65.246109 -13.603088
22.519106 -65.731426 -16.854044
22.548869 -65.592591 -16.051379
22.56589 -66.852337 -16.350697
22.462753 -65.775329 -17.648578
22.445732 -64.515583 -17.34926
22.519106 -65.731426 -16.854044
23.497025 -75.631256 -19.607599
23.575224 -75.575573 -18.64069
22.887308 -73.32095 -21.701193
22.983973 -74.592091 -22.18612
22.723942 -73.283905 -22.652137
21.764002 -66.198875 -23.249956
22.035573 -67.772735 -22.758825
21.824708 -67.550011 -23.628082
21.774146 -64.949995 -22.831783
21.764002 -66.198875 -23.249956
20.306861 -63.520344 -27.178304
20.606645 -65.097485 -26.77773
19.894167 -63.038407 -27.995829
20.306861 -63.520344 -27.178304
20.492313 -68.638813 -28.144746
20.410488 -69.816352 -28.615212
27.006458 -86.944187 0.584716
27.0217 -87.376724 1.755678
27.045564 -87.762123 -0.660503
26.987799 -86.378246 -0.480083
27.006458 -86.944187 0.584716
23.782523 -74.904556 -13.165322
24.020469 -75.758907 -12.46951
20.999731 -76.781067 -29.25526
21.095976 -75.672421 -28.766079
20.371188 -76.299069 -30.213319
20.999731 -76.781067 -29.25526
19.74013 -75.627858 -31.082074
19.924477 -74.491707 -30.576051
20.371188 -76.299069 -30.213319
23.670338 -66.923191 -7.209158
23.49664 -66.504071 -8.024492
24.277795 -71.580616 -5.666175
24.182344 -70.3447 -5.583331
24.193865 -72.308968 -6.67239
24.277795 -71.580616 -5.666175
24.431348 -72.830082 -5.76078
26.145585 -81.663983 -4.442911
26.354458 -83.032498 -4.53928
25.950343 -81.210926 -5.477793
25.919571 -80.393417 -4.340582
26.145585 -81.663983 -4.442911
26.026398 -83.295696 -8.816236
25.778216 -82.015598 -8.736899
26.012382 -82.710846 -7.727967
26.286482 -84.677112 -9.041317
26.026398 -83.295696 -8.816236
26.286482 -84.677112 -9.041317
26.469487 -85.339054 -8.152548
25.59724 -95.373272 2.452268
25.178833 -96.435967 2.025711
25.933616 -95.16602 1.31544
25.959409 -94.210946 2.752476
25.59724 -95.373272 2.452268
22.584988 -74.40025 -24.054091
22.691731 -75.676472 -24.479498
22.536766 -73.189961 -23.557164
22.584988 -74.40025 -24.054091
22.301147 -73.035164 -24.474192
22.440101 -71.91882 -23.072237
22.723942 -73.283905 -22.652137
22.536766 -73.189961 -23.557164
21.586236 -67.280655 -24.51021
21.824708 -67.550011 -23.628082
21.857807 -68.854515 -24.019079
21.283414 -66.972561 -25.427639
21.586236 -67.280655 -24.51021
20.951455 -66.655674 -26.359502
21.283414 -66.972561 -25.427639
21.287375 -68.268272 -25.83307
20.610606 -66.393196 -27.183161
20.606645 -65.097485 -26.77773
20.951455 -66.655674 -26.359502
24.926888 -73.720516 -3.721767
24.681351 -73.326103 -4.764649
26.71406 -84.990196 -3.679669
26.844825 -85.468777 -2.549314
26.763292 -85.84599 -4.912107
26.581791 -84.439297 -4.730876
26.71406 -84.990196 -3.679669
26.928967 -87.174129 -5.203648
26.796698 -86.62323 -6.254856
26.763292 -85.84599 -4.912107
26.928967 -87.174129 -5.203648
27.010933 -87.752194 -4.083719
27.132996 -89.593425 -3.215607
27.076605 -88.15184 -3.015921
27.083296 -88.637767 -1.924989
27.132996 -89.593425 -3.215607
27.164048 -90.94619 -3.571201
24.066446 -99.317059 -0.370929
24.149949 -98.418442 1.167666
24.585912 -99.257069 -1.464768
24.066446 -99.317059 -0.370929
23.5684 -74.051975 -13.868268
23.571068 -73.67445 -12.896201
23.782523 -74.904556 -13.165322
23.365346 -73.185272 -14.55132
23.5684 -74.051975 -13.868268
23.576802 -74.415379 -14.820441
22.391085 -75.497872 -25.457882
22.691731 -75.676472 -24.479498
22.024468 -73.933716 -25.870738
22.391085 -75.497872 -25.457882
22.066185 -75.186135 -26.357501
20.384961 -71.04153 -29.044902
20.410488 -69.816352 -28.615212
20.862603 -71.506275 -28.146061
20.696305 -73.947186 -29.141523
21.236747 -74.456688 -28.200306
21.095976 -75.672421 -28.766079
20.300359 -72.282742 -29.469435
20.696305 -73.947186 -29.141523
20.159588 -73.498474 -30.035208
20.384961 -71.04153 -29.044902
20.300359 -72.282742 -29.469435
26.900619 -88.098797 4.087318
26.962048 -87.724518 2.8988
23.127002 -64.708027 -10.056867
23.059783 -64.190883 -10.622284
23.232562 -65.320453 -9.406122
23.34952 -65.91803 -8.723621
23.082205 -65.856262 -10.16647
23.127002 -64.708027 -10.056867
23.232562 -65.320453 -9.406122
23.672486 -68.118862 -7.295184
23.670338 -66.923191 -7.209158
23.95164 -69.828228 -6.525343
24.182344 -70.3447 -5.583331
23.732866 -69.232849 -7.364161
23.95164 -69.828228 -6.525343
23.821538 -70.464123 -7.416603
23.542384 -68.754757 -8.186444
23.672486 -68.118862 -7.295184
23.732866 -69.232849 -7.364161
24.040754 -74.852276 -10.514203
24.031103 -74.208126 -9.564438
24.26292 -75.452934 -9.715307
24.02888 -75.312057 -11.429163
23.797064 -74.06725 -11.278294
24.040754 -74.852276 -10.514203
24.020469 -75.758907 -12.46951
24.02888 -75.312057 -11.429163
25.0873 -75.105404 -3.839083
24.926888 -73.720516 -3.721767
25.291821 -76.472035 -4.020811
25.49062 -77.822445 -4.127965
25.051946 -75.917107 -4.956461
25.0873 -75.105404 -3.839083
25.291821 -76.472035 -4.020811
25.024708 -79.343613 -10.299087
24.753324 -78.009361 -10.154324
24.993953 -78.670609 -9.279618
25.024708 -79.343613 -10.299087
25.285936 -80.602081 -10.546464
26.654717 -85.991127 -7.230553
26.796698 -86.62323 -6.254856
26.81014 -89.280349 3.877528
26.900619 -88.098797 4.087318
26.697832 -90.534458 3.715003
26.486045 -91.823384 3.450567
26.832612 -90.27776 2.528015
26.81014 -89.280349 3.877528
26.697832 -90.534458 3.715003
26.740351 -94.277798 -1.833477
26.497697 -94.635502 -0.779967
26.490558 -95.513504 -2.228927
26.89604 -93.914791 -3.019059
26.903178 -93.036789 -1.570099
26.740351 -94.277798 -1.833477
27.042988 -93.547451 -4.183205
26.89604 -93.914791 -3.019059
25.041963 -99.016388 -2.467424
25.080644 -98.220768 -0.931937
24.585912 -99.257069 -1.464768
25.418245 -98.879963 -3.490367
25.041963 -99.016388 -2.467424
25.732825 -98.697316 -4.680196
25.851275 -97.797439 -3.124421
25.418245 -98.879963 -3.490367
26.065774 -98.395363 -5.746733
25.732825 -98.697316 -4.680196
26.401487 -97.244633 -5.387945
26.065774 -98.395363 -5.746733
22.84509 -64.789785 -12.135434
22.940849 -64.473379 -11.342011
22.880886 -65.560242 -11.610639
22.84509 -64.789785 -12.135434
22.763038 -65.008194 -12.854084
22.704733 -63.363531 -14.519998
22.674956 -64.305821 -14.10485
22.623444 -63.394047 -15.34431
22.704733 -63.363531 -14.519998
22.555523 -64.47179 -15.730159
22.602307 -65.592701 -15.226812
22.548869 -65.592591 -16.051379
22.623444 -63.394047 -15.34431
22.555523 -64.47179 -15.730159
22.436318 -63.372146 -17.798729
22.445732 -64.515583 -17.34926
22.342681 -63.238007 -18.625478
22.436318 -63.372146 -17.798729
22.25804 -63.132534 -19.485256
22.342681 -63.238007 -18.625478
22.304739 -64.454014 -19.003573
22.124116 -63.008834 -20.344335
22.25804 -63.132534 -19.485256
21.99559 -62.860363 -21.191737
22.124116 -63.008834 -20.344335
22.091572 -64.200069 -20.710752
21.820755 -62.633893 -22.003611
21.99559 -62.860363 -21.191737
23.617013 -75.471028 -17.670352
23.61737 -75.15276 -16.682173
23.351016 -74.244179 -18.293397
23.617013 -75.471028 -17.670352
23.575224 -75.575573 -18.64069
23.283615 -75.839317 -21.631844
22.983973 -74.592091 -22.18612
23.416081 -75.771462 -20.59332
23.283615 -75.839317 -21.631844
23.228283 -74.48893 -20.249455
23.497025 -75.631256 -19.607599
23.416081 -75.771462 -20.59332
21.768235 -63.764994 -22.420511
21.968956 -65.236599 -21.969427
21.774146 -64.949995 -22.831783
21.820755 -62.633893 -22.003611
21.768235 -63.764994 -22.420511
20.525956 -67.473957 -27.669027
20.921773 -69.116241 -27.240652
20.492313 -68.638813 -28.144746
20.181146 -65.915768 -28.087255
20.610606 -66.393196 -27.183161
20.525956 -67.473957 -27.669027
19.820721 -64.315133 -28.421484
20.181146 -65.915768 -28.087255
19.894167 -63.038407 -27.995829
19.820721 -64.315133 -28.421484
3 0 80 82
3 80 23 81
3 80 81 82
3 0 25 23
3 2 83 85
3 83 28 84
3 83 84 85
3 2 30 28
3 3 86 88
3 86 31 87
3 86 87 88
3 3 33 31
3 3 89 91
3 91 90 33
3 89 90 91
3 4 92 93
3 4 94 96
3 94 34 95
3 94 95 96
3 4 36 34
3 1 39 37
3 5 42 40
3 5 44 42
3 6 46 45
3 6 48 46
3 6 49 48
3 7 97 98
3 7 99 101
3 99 50 100
3 99 100 101
3 7 102 104
3 104 103 50
3 102 103 104
3 8 105 107
3 107 106 24
3 105 106 107
3 8 108 109
3 9 53 51
3 110 54 111
3 112 55 113
3 114 113 54
3 112 113 114
3 115 56 116
3 117 58 118
3 119 118 56
3 117 118 119
3 121 120 26
3 12 122 124
3 122 59 123
3 122 123 124
3 12 60 59
3 13 61 27
3 13 62 61
3 13 63 62
3 14 125 127
3 127 126 29
3 125 126 127
3 14 128 129
3 15 130 131
3 15 132 134
3 132 64 133
3 132 133 134
3 15 65 64
3 135 66 136
3 137 136 32
3 135 136 137
3 139 138 66
3 16 140 141
3 16 142 144
3 142 67 143
3 142 143 144
3 16 68 67
3 17 145 147
3 147 146 35
3 145 146 147
3 17 148 149
3 11 150 151
3 18 152 154
3 154 153 38
3 152 153 154
3 18 155 157
3 155 69 156
3 155 156 157
3 10 70 52
3 19 71 41
3 19 158 160
3 160 159 71
3 158 159 160
3 19 161 163
3 161 72 162
3 161 162 163
3 20 73 43
3 20 74 73
3 164 75 165
3 21 166 168
3 166 76 167
3 166 167 168
3 21 77 76
3 21 78 77
3 169 79 170
3 171 170 47
3 169 170 171
3 173 172 79
3 22 174 175
3 22 176 177
3 179 178 57
3 23 180 181
3 23 182 184
3 182 7 183
3 182 183 184
3 23 24 7
3 25 24 23
3 25 8 24
3 186 185 9
3 187 26 188
3 189 26 190
3 193 192 26
3 191 192 193
3 194 12 195
3 196 27 197
3 28 198 200
3 198 27 199
3 198 199 200
3 28 13 27
3 28 29 13
3 30 29 28
3 30 14 29
3 31 201 202
3 31 203 205
3 203 15 204
3 203 204 205
3 31 32 15
3 33 32 31
3 33 206 208
3 208 207 32
3 206 207 208
3 33 209 210
3 212 211 33
3 34 213 214
3 34 215 217
3 215 16 216
3 215 216 217
3 34 35 16
3 36 35 34
3 36 17 35
3 37 38 11
3 39 38 37
3 39 18 38
3 40 41 10
3 42 41 40
3 42 19 41
3 42 43 19
3 44 43 42
3 44 20 43
3 45 218 219
3 46 220 222
3 222 221 45
3 220 221 222
3 46 223 225
3 223 21 224
3 223 224 225
3 46 47 21
3 48 47 46
3 48 226 228
3 228 227 47
3 226 227 228
3 48 229 230
3 49 231 233
3 233 232 48
3 231 232 233
3 49 234 236
3 234 22 235
3 234 235 236
3 237 2 238
3 50 239 240
3 50 241 243
3 241 3 242
3 241 242 243
3 50 244 246
3 246 245 3
3 244 245 246
3 248 247 50
3 24 249 251
3 251 250 7
3 249 250 251
3 253 252 24
3 254 4 255
3 257 256 4
3 51 52 1
3 53 52 51
3 53 10 52
3 258 53 259
3 260 259 9
3 258 259 260
3 54 261 263
3 261 53 262
3 261 262 263
3 54 10 53
3 54 40 10
3 55 40 54
3 55 5 40
3 264 45 265
3 56 266 268
3 266 45 267
3 266 267 268
3 56 6 45
3 56 57 6
3 58 57 56
3 58 269 271
3 271 270 57
3 269 270 271
3 26 272 274
3 272 58 273
3 272 273 274
3 275 58 276
3 277 276 26
3 275 276 277
3 279 278 58
3 280 0 281
3 282 11 283
3 59 284 285
3 59 286 288
3 286 11 287
3 286 287 288
3 59 37 11
3 60 37 59
3 60 1 37
3 289 12 290
3 27 291 292
3 61 293 295
3 295 294 27
3 293 294 295
3 61 296 298
3 296 12 297
3 296 297 298
3 61 60 12
3 62 60 61
3 62 1 60
3 62 51 1
3 63 51 62
3 63 9 51
3 29 63 13
3 299 63 300
3 301 300 29
3 299 300 301
3 302 9 303
3 304 303 63
3 302 303 304
3 306 305 9
3 307 2 308
3 64 309 310
3 64 311 313
3 311 2 312
3 311 312 313
3 64 30 2
3 65 30 64
3 65 14 30
3 32 65 15
3 66 65 32
3 66 14 65
3 66 314 316
3 316 315 14
3 314 315 316
3 318 317 66
3 320 319 3
3 321 0 322
3 67 323 324
3 67 325 327
3 325 0 326
3 325 326 327
3 67 25 0
3 68 25 67
3 68 8 25
3 35 68 16
3 328 68 329
3 330 329 35
3 328 329 330
3 331 8 332
3 333 332 68
3 331 332 333
3 335 334 8
3 336 36 337
3 338 337 4
3 336 337 338
3 339 36 340
3 341 17 342
3 343 342 36
3 341 342 343
3 344 17 345
3 347 346 17
3 38 348 350
3 350 349 11
3 348 349 350
3 352 351 38
3 69 353 354
3 69 355 356
3 52 39 1
3 70 39 52
3 70 18 39
3 41 70 10
3 71 70 41
3 71 18 70
3 71 69 18
3 357 69 358
3 359 358 71
3 357 358 359
3 361 360 69
3 72 362 363
3 72 364 365
3 43 72 19
3 73 72 43
3 73 366 368
3 368 367 72
3 366 367 368
3 73 369 370
3 74 371 373
3 373 372 73
3 371 372 373
3 74 374 375
3 376 55 377
3 75 378 380
3 378 55 379
3 378 379 380
3 75 5 55
3 76 381 382
3 76 383 384
3 76 385 387
3 385 75 386
3 385 386 387
3 77 75 76
3 77 5 75
3 77 44 5
3 78 44 77
3 78 20 44
3 47 78 21
3 79 78 47
3 79 20 78
3 79 74 20
3 388 74 389
3 390 389 79
3 388 389 390
3 392 391 74
3 57 49 6
3 393 49 394
3 395 394 57
3 393 394 395
3 396 22 397
3 398 397 49
3 396 397 398
3 399 22 400
3 402 401 22
