ply
format ascii 1.0
element vertex 165
property float x
property float y
property float z
element face 131
property list uchar int vertex_index
end_header
12.588191 105.789536 -27.833925
15.134345 107.876694 -15.206799
9.3248 98.898705 -38.125401
5.247106 100.621185 -33.545586
11.170377 102.871704 -33.568802
13.905029 107.424782 -21.618961
9.803625 104.900963 -28.323803
9.071972 103.503822 -31.185469
11.865109 104.496346 -30.763054
14.787679 107.818268 -18.524023
7.298891 99.955025 -35.906097
4.478444 98.679283 -35.761742
6.528544 97.620369 -38.219666
5.666492 95.322441 -39.948814
8.566114 96.567184 -40.119774
6.264174 102.328651 -31.298338
8.225972 101.878937 -33.646107
10.216945 101.115303 -35.806828
7.8895 104.960037 -25.757811
10.675424 106.015945 -25.392666
11.427188 106.798454 -22.332752
13.227603 106.752792 -24.801723
1.757009 97.197594 -35.541496
12.985301 101.749649 -35.839367
13.988185 107.677105 -15.627527
14.274638 107.622627 -13.896635
14.961012 107.847481 -16.865411
13.814852 107.647892 -17.286138
13.988185 107.677105 -15.627527
16.053201 107.929955 -16.371119
15.879868 107.900742 -18.029732
14.961012 107.847481 -16.865411
6.678489 103.061702 -29.960824
5.236406 102.371311 -29.998807
8.341033 105.406887 -24.331739
6.969861 104.796864 -24.539475
9.733995 105.934841 -24.149166
9.282462 105.487991 -25.575238
8.341033 105.406887 -24.331739
12.666108 107.111618 -21.975856
11.857096 107.05674 -20.771136
13.096017 107.369903 -20.41424
14.837639 107.293201 -22.902878
14.498926 106.957206 -24.494259
13.566316 107.088787 -23.210342
3.922788 99.920693 -33.503293
4.322172 100.784641 -32.358143
2.790125 96.879909 -36.65424
3.117726 97.938438 -35.651619
4.150842 97.620754 -36.764363
1.380355 96.114345 -36.444397
2.790125 96.879909 -36.65424
5.294519 94.071095 -40.723884
6.67082 94.56821 -40.951179
13.956837 101.015377 -36.886076
14.234668 102.027565 -35.6177
12.545696 100.761776 -36.948015
13.956837 101.015377 -36.886076
9.437798 104.202393 -29.754636
8.082387 103.649288 -29.90439
8.448214 104.347859 -28.473557
13.537342 107.566647 -18.866771
13.814852 107.647892 -17.286138
14.346354 107.621525 -20.071492
13.096017 107.369903 -20.41424
13.537342 107.566647 -18.866771
15.588544 107.75594 -19.846428
15.147219 107.559196 -21.393897
14.346354 107.621525 -20.071492
15.588544 107.75594 -19.846428
15.879868 107.900742 -18.029732
5.175892 97.091297 -37.993324
4.150842 97.620754 -36.764363
5.503494 98.149826 -36.990704
6.097518 96.471405 -39.08424
4.744866 95.942333 -38.857899
5.175892 97.091297 -37.993324
8.120631 95.190582 -41.036659
6.67082 94.56821 -40.951179
7.116303 95.944812 -40.034294
15.442671 107.777508 -13.435365
14.274638 107.622627 -13.896635
16.303681 107.909756 -14.609948
15.442671 107.777508 -13.435365
4.830706 101.638374 -31.234519
5.236406 102.371311 -29.998807
5.75564 101.474918 -32.421962
4.322172 100.784641 -32.358143
4.830706 101.638374 -31.234519
7.668073 102.916236 -31.241903
6.678489 103.061702 -29.960824
8.082387 103.649288 -29.90439
13.578331 105.437309 -29.110844
13.859193 106.036716 -27.589616
6.605486 104.337311 -25.987219
6.969861 104.796864 -24.539475
7.491151 104.377396 -27.190561
6.605486 104.337311 -25.987219
8.846563 104.9305 -27.040807
8.448214 104.347859 -28.473557
7.491151 104.377396 -27.190561
10.619627 106.665676 -21.066079
11.857096 107.05674 -20.771136
10.109877 106.326096 -22.619209
10.619627 106.665676 -21.066079
11.051306 106.4072 -23.862709
9.733995 105.934841 -24.149166
10.109877 106.326096 -22.619209
14.178899 106.518344 -26.073515
13.859193 106.036716 -27.589616
12.907897 106.271164 -26.317824
14.178899 106.518344 -26.073515
14.498926 106.957206 -24.494259
14.837639 107.293201 -22.902878
15.147219 107.559196 -21.393897
16.053201 107.929955 -16.371119
16.303681 107.909756 -14.609948
3.538456 98.949742 -34.61137
3.922788 99.920693 -33.503293
4.862775 99.650234 -34.653664
2.177739 98.208897 -34.501248
3.538456 98.949742 -34.61137
3.117726 97.938438 -35.651619
0.852584 97.451786 -34.321362
1.273313 98.463089 -33.281113
2.177739 98.208897 -34.501248
0.386844 96.424072 -35.2537
0.852584 97.451786 -34.321362
0.010189 95.340824 -36.156601
0.386844 96.424072 -35.2537
1.380355 96.114345 -36.444397
4.263555 94.64925 -39.745718
4.744866 95.942333 -38.857899
4.263555 94.64925 -39.745718
5.294519 94.071095 -40.723884
13.21679 104.790715 -30.575408
12.22665 105.142941 -29.29849
13.578331 105.437309 -29.110844
12.832376 104.049095 -31.964331
13.21679 104.790715 -30.575408
14.184057 104.343464 -31.776685
12.48501 103.236774 -33.367204
11.517743 103.684025 -32.165928
12.832376 104.049095 -31.964331
13.392471 102.675747 -34.502487
14.234668 102.027565 -35.6177
12.077839 102.310676 -34.704085
12.48501 103.236774 -33.367204
13.392471 102.675747 -34.502487
11.161518 100.444603 -36.931746
11.601123 101.432476 -35.823098
12.545696 100.761776 -36.948015
10.715445 99.336304 -38.091032
9.770872 100.007004 -36.966115
11.161518 100.444603 -36.931746
10.336225 98.081738 -39.245199
10.715445 99.336304 -38.091032
9.956882 96.915977 -40.242386
8.945457 97.732945 -39.122587
10.336225 98.081738 -39.245199
9.485539 95.729927 -41.079712
9.956882 96.915977 -40.242386
10.876306 96.078721 -41.202324
8.120631 95.190582 -41.036659
9.485539 95.729927 -41.079712
3 0 8 6
3 1 24 25
3 1 26 28
3 26 9 27
3 26 27 28
3 1 29 31
3 31 30 9
3 29 30 31
3 2 12 10
3 2 14 12
3 32 15 33
3 4 16 7
3 4 17 16
3 34 18 35
3 36 19 37
3 38 37 18
3 36 37 38
3 5 39 41
3 39 20 40
3 39 40 41
3 5 21 20
3 5 42 44
3 44 43 21
3 42 43 44
3 3 45 46
3 47 22 48
3 49 48 11
3 47 48 49
3 51 50 22
3 53 52 13
3 54 23 55
3 57 56 23
3 6 58 60
3 58 7 59
3 58 59 60
3 8 7 6
3 8 4 7
3 9 61 62
3 9 63 65
3 63 5 64
3 63 64 65
3 9 66 68
3 68 67 5
3 66 67 68
3 70 69 9
3 10 11 3
3 12 11 10
3 12 71 73
3 73 72 11
3 71 72 73
3 12 74 76
3 74 13 75
3 74 75 76
3 14 13 12
3 14 77 79
3 79 78 13
3 77 78 79
3 80 1 81
3 83 82 1
3 15 84 85
3 15 86 88
3 86 3 87
3 86 87 88
3 7 89 91
3 89 15 90
3 89 90 91
3 16 15 7
3 16 3 15
3 16 10 3
3 17 10 16
3 17 2 10
3 93 92 0
3 18 94 95
3 18 96 97
3 18 98 100
3 98 6 99
3 98 99 100
3 19 6 18
3 19 0 6
3 20 101 102
3 20 103 104
3 20 105 107
3 105 19 106
3 105 106 107
3 21 19 20
3 21 0 19
3 21 108 110
3 110 109 0
3 108 109 110
3 112 111 21
3 114 113 5
3 116 115 1
3 11 117 119
3 119 118 3
3 117 118 119
3 22 120 122
3 122 121 11
3 120 121 122
3 22 123 125
3 123 124 125
3 22 126 127
3 130 129 22
3 128 129 130
3 13 131 132
3 134 133 13
3 135 8 136
3 137 136 0
3 135 136 137
3 138 8 139
3 138 139 140
3 141 4 142
3 143 142 8
3 141 142 143
3 23 144 145
3 23 146 148
3 146 4 147
3 146 147 148
3 23 17 4
3 149 17 150
3 151 150 23
3 149 150 151
3 152 2 153
3 154 153 17
3 152 153 154
3 155 2 156
3 157 14 158
3 159 158 2
3 157 158 159
3 160 14 161
3 160 161 162
3 164 163 14
