ply
format ascii 1.0
element vertex 273
property float x
property float y
property float z
element face 253
property list uchar int vertex_index
end_header
-1.238522 98.245697 -6.819683
-8.816068 78.96788 13.594213
-1.356327 86.498276 13.510772
-5.845136 89.410683 3.454483
2.372161 89.791832 13.402618
-3.719533 93.989616 -1.438025
-8.092038 90.160362 -1.751182
-5.889757 94.488991 -6.922797
0.738994 97.389542 -1.089141
-5.136065 83.063683 13.382799
-7.492592 84.265625 8.705955
-3.648046 88.138855 8.493389
-9.794367 85.288223 3.641474
-12.149324 85.521606 -1.226156
-9.818384 73.433289 18.320133
-6.451282 77.502815 18.296204
-2.625168 81.436203 18.206879
-2.125009 98.48909 -9.705277
-10.543666 76.75531 13.688595
-10.037725 79.383888 11.344782
-2.516292 96.220543 -4.153698
-4.859214 94.26622 -4.154461
-3.596316 96.393684 -6.823238
-3.295361 84.898491 13.294837
-4.426321 85.598259 11.003052
-2.486033 87.403915 10.982794
-6.75682 86.838791 6.096199
-8.727987 84.715866 6.234512
-7.93691 87.244423 3.651928
-9.292903 90.098412 -4.08612
-10.224376 87.786148 -1.392698
-11.291151 87.947632 -4.019037
-12.376511 87.809937 -6.44909
-4.610355 79.566841 18.137978
-3.359385 78.697838 20.451443
0.588178 88.360733 13.307867
-0.591574 88.973686 11.127234
-4.945193 91.700172 0.922323
-7.095622 89.640976 1.027769
-5.968351 92.065132 -1.545491
-7.100202 92.314774 -4.288916
-0.224565 97.895088 -3.886913
1.19871 99.909302 -6.478389
2.015805 99.449287 -3.687173
-6.924756 81.056648 13.606935
-8.217258 81.646675 11.14152
-6.303894 83.655212 11.145347
-5.670479 86.013107 8.814453
-4.801167 88.712227 6.087492
-1.537338 89.840431 8.742799
-2.656881 90.571968 6.186952
-3.810238 91.255196 3.461417
-1.566891 95.746933 -1.405931
-9.450929 82.142036 8.704691
-10.582528 82.582207 6.307483
-9.048421 87.701782 1.001194
-11.002992 73.985092 16.039635
-9.346306 76.220726 16.000473
-8.260613 75.390625 18.344248
-7.632069 78.2118 16.042938
-5.867499 80.24575 15.890703
-4.005965 82.185776 15.79767
-2.140708 83.986473 15.747905
-1.485879 80.644913 20.265039
-0.825469 83.368141 17.889206
-0.129666 85.91201 15.602899
-0.472266 99.221726 -8.145119
-0.915509 99.343422 -9.587916
-1.681766 98.367394 -8.26248
-10.780033 89.09975 -5.390617
-10.292027 89.023022 -4.052579
-9.780909 90.17514 -5.424158
-11.322713 89.030903 -6.605643
-11.833831 87.878784 -5.234063
-10.780033 89.09975 -5.390617
-11.871448 88.884545 -7.782608
-11.322713 89.030903 -6.605643
-3.590523 77.264175 21.699046
-4.225368 77.766308 20.515452
1.874026 90.210018 12.281743
0.982034 89.494468 12.234367
1.48017 89.076282 13.355242
-7.037088 93.404469 -6.832276
-7.642311 92.31736 -5.515336
-6.49498 93.401882 -5.605856
-6.487502 94.413563 -8.253272
-7.037088 93.404469 -6.832276
-0.54893 90.65208 8.786839
-1.064456 89.407059 9.935016
-0.076048 90.218708 9.979057
-2.199826 91.724323 4.952585
-1.625725 91.368576 6.316592
-2.776505 92.065937 3.589818
-3.23356 90.913582 4.824184
-2.199826 91.724323 4.952585
-3.307734 92.363877 2.269852
-2.776505 92.065937 3.589818
-0.413948 96.568238 -1.247536
-1.031613 95.487572 -0.037532
0.12133 96.308876 0.120863
1.936358 100.8349 -7.887144
2.344035 100.657108 -6.402615
-10.722123 84.178901 3.693684
-11.116204 82.825894 5.026689
-10.188447 83.935215 4.974479
-11.533798 85.51022 0.031531
-10.571324 86.642491 -0.05174
-11.18685 86.653877 -1.309427
-12.463964 84.37698 0.050956
-11.533798 85.51022 0.031531
-13.014284 84.38826 -1.152003
-12.463964 84.37698 0.050956
-10.410688 73.709191 17.179884
-11.211419 72.575969 17.168937
-10.619115 72.300068 18.309186
-7.355947 76.44672 18.320226
-7.601934 75.031212 19.531744
-6.697268 76.087307 19.507722
-0.782434 80.269463 21.335377
-1.731607 79.289597 21.447991
0.084066 84.259487 17.781001
-0.159178 82.979889 18.989383
0.431968 85.531421 16.637847
-0.477568 84.640075 16.746053
0.084066 84.259487 17.781001
0.768606 86.748542 15.523143
0.431968 85.531421 16.637847
2.77089 90.920071 12.315106
3.197437 90.504604 13.34534
-1.418631 99.347992 -11.067973
-2.591881 98.480904 -11.096721
-1.418631 99.347992 -11.067973
-0.915509 99.343422 -9.587916
-11.157669 76.939865 12.521366
-11.363587 75.661445 13.627436
-10.904699 78.254154 11.34946
-11.157669 76.939865 12.521366
-10.290695 78.069599 12.516689
-10.628756 79.593727 10.162745
-10.904699 78.254154 11.34946
-4.095522 96.453422 -8.242344
-5.242242 95.501076 -8.292124
-4.743037 95.441338 -6.873017
-3.359869 97.501126 -9.683364
-4.095522 96.453422 -8.242344
-2.860663 97.441387 -8.264257
-2.591881 98.480904 -11.096721
-3.359869 97.501126 -9.683364
1.925598 98.239693 -1.058004
1.22126 97.087586 0.263746
1.22126 97.087586 0.263746
0.12133 96.308876 0.120863
-12.241741 86.785691 -3.921412
-12.670827 85.572677 -2.524972
-11.720237 86.734619 -2.622597
-12.784421 86.716843 -5.136439
-12.241741 86.785691 -3.921412
-11.833831 87.878784 -5.234063
-13.319806 86.578618 -6.289819
-12.784421 86.716843 -5.136439
-12.861662 87.701466 -7.656058
-13.319806 86.578618 -6.289819
-12.861662 87.701466 -7.656058
-11.871448 88.884545 -7.782608
-10.039901 72.002137 19.44379
-10.619115 72.300068 18.309186
-5.771317 77.168796 19.437832
-6.697268 76.087307 19.507722
-4.850853 78.200809 19.358719
-5.530819 78.534828 18.217091
-5.771317 77.168796 19.437832
-3.98487 79.13234 19.294711
-4.850853 78.200809 19.358719
-4.225368 77.766308 20.515452
0.392158 89.800945 11.14405
-0.001698 88.667209 12.21755
0.982034 89.494468 12.234367
-0.076048 90.218708 9.979057
0.392158 89.800945 11.14405
1.874026 90.210018 12.281743
2.77089 90.920071 12.315106
-8.738661 91.209179 -5.413938
-8.196553 91.206593 -4.187518
-7.642311 92.31736 -5.515336
-9.780909 90.17514 -5.424158
-8.738661 91.209179 -5.413938
-6.487502 94.413563 -8.253272
-5.242242 95.501076 -8.292124
2.752583 100.427101 -5.007008
2.344035 100.657108 -6.402615
1.607257 99.679294 -5.082781
2.564004 99.269565 -2.35702
1.377399 98.419415 -2.388157
1.925598 98.239693 -1.058004
3.224504 100.229236 -3.595047
2.564004 99.269565 -2.35702
2.752583 100.427101 -5.007008
3.224504 100.229236 -3.595047
-1.065953 91.002807 7.594515
-0.54893 90.65208 8.786839
-2.09711 90.206199 7.464875
-1.065953 91.002807 7.594515
-1.625725 91.368576 6.316592
-3.875211 92.586365 1.000305
-4.377715 91.477684 2.19187
-3.307734 92.363877 2.269852
-3.262381 93.731087 -0.179869
-4.332363 92.844894 -0.257851
-3.875211 92.586365 1.000305
-2.18606 94.609745 -0.163822
-1.031613 95.487572 -0.037532
-2.643212 94.868274 -1.421978
-3.262381 93.731087 -0.179869
-2.18606 94.609745 -0.163822
0.74635 100.053528 -7.974471
-0.472266 99.221726 -8.145119
-0.019906 99.0775 -6.649036
0.74635 100.053528 -7.974471
1.936358 100.8349 -7.887144
-10.335358 80.972801 8.8427
-10.628756 79.593727 10.162745
-9.744327 80.762962 10.024736
-10.901158 81.192887 7.644096
-10.335358 80.972801 8.8427
-10.016728 82.362122 7.506087
-11.444564 81.506524 6.304119
-10.901158 81.192887 7.644096
-11.444564 81.506524 6.304119
-11.116204 82.825894 5.026689
-9.983346 86.600307 1.145207
-9.636398 87.743965 -0.195752
-10.571324 86.642491 -0.05174
-10.356319 85.393528 2.465346
-9.421394 86.495002 2.321334
-9.983346 86.600307 1.145207
-10.722123 84.178901 3.693684
-10.356319 85.393528 2.465346
-13.014284 84.38826 -1.152003
-12.670827 85.572677 -2.524972
-11.749755 72.911282 15.983645
-11.211419 72.575969 17.168937
-11.59325 74.276336 14.802956
-11.749755 72.911282 15.983645
-10.773329 75.370201 14.864115
-11.363587 75.661445 13.627436
-11.59325 74.276336 14.802956
-9.245907 73.078285 19.443605
-10.039901 72.002137 19.44379
-8.467021 74.056953 19.455663
-7.601934 75.031212 19.531744
-9.039499 74.411957 18.33219
-9.245907 73.078285 19.443605
-8.467021 74.056953 19.455663
-2.66836 78.316059 21.541193
-3.590523 77.264175 21.699046
-2.422632 79.671376 20.358241
-2.66836 78.316059 21.541193
-1.731607 79.289597 21.447991
-0.489382 81.618275 20.1773
-0.782434 80.269463 21.335377
-1.155674 82.006527 19.077123
-0.489382 81.618275 20.1773
-0.159178 82.979889 18.989383
1.127528 87.972904 14.375628
0.229256 87.136371 14.455383
0.768606 86.748542 15.523143
2.01952 88.688454 14.423003
1.48017 89.076282 13.355242
1.127528 87.972904 14.375628
2.926498 89.49482 14.348316
2.01952 88.688454 14.423003
3.197437 90.504604 13.34534
2.926498 89.49482 14.348316
3 0 66 68
3 68 67 17
3 66 67 68
3 1 19 18
3 0 22 20
3 0 17 22
3 2 25 23
3 3 28 26
3 69 31 70
3 71 70 29
3 69 70 71
3 72 32 73
3 74 73 31
3 72 73 74
3 76 75 32
3 77 34 78
3 4 79 81
3 81 80 35
3 79 80 81
3 5 39 37
3 7 40 21
3 7 82 84
3 84 83 40
3 82 83 84
3 7 85 86
3 8 43 41
3 9 46 44
3 11 47 24
3 11 48 47
3 87 49 88
3 89 88 36
3 87 88 89
3 90 50 91
3 92 51 93
3 94 93 50
3 92 93 94
3 96 95 51
3 8 97 99
3 97 52 98
3 97 98 99
3 8 41 52
3 101 100 42
3 10 53 45
3 12 54 27
3 12 102 104
3 104 103 54
3 102 103 104
3 6 55 38
3 13 105 107
3 107 106 30
3 105 106 107
3 13 108 109
3 13 110 111
3 14 112 114
3 112 56 113
3 112 113 114
3 14 57 56
3 15 115 117
3 115 58 116
3 115 116 117
3 15 59 58
3 15 60 59
3 16 61 33
3 16 62 61
3 118 63 119
3 120 64 121
3 122 65 123
3 124 123 64
3 122 123 124
3 126 125 65
3 128 127 4
3 17 129 130
3 132 131 17
3 18 133 134
3 19 135 137
3 137 136 18
3 135 136 137
3 19 138 139
3 20 21 5
3 22 21 20
3 22 7 21
3 22 140 142
3 142 141 7
3 140 141 142
3 17 143 145
3 145 144 22
3 143 144 145
3 17 146 147
3 149 148 8
3 23 24 9
3 25 24 23
3 25 11 24
3 150 8 151
3 26 27 10
3 28 27 26
3 28 12 27
3 29 30 6
3 31 30 29
3 31 13 30
3 31 152 154
3 154 153 13
3 152 153 154
3 32 155 157
3 157 156 31
3 155 156 157
3 32 158 159
3 32 160 161
3 163 162 32
3 164 14 165
3 166 15 167
3 168 33 169
3 170 169 15
3 168 169 170
3 34 171 173
3 171 33 172
3 171 172 173
3 34 16 33
3 35 36 2
3 174 36 175
3 176 175 35
3 174 175 176
3 178 177 36
3 180 179 4
3 37 38 3
3 39 38 37
3 39 6 38
3 21 39 5
3 40 39 21
3 40 6 39
3 40 29 6
3 181 29 182
3 183 182 40
3 181 182 183
3 185 184 29
3 187 186 7
3 41 42 0
3 43 42 41
3 43 188 190
3 190 189 42
3 188 189 190
3 191 43 192
3 193 192 8
3 191 192 193
3 194 43 195
3 197 196 43
3 44 45 1
3 46 45 44
3 46 10 45
3 24 46 9
3 47 46 24
3 47 10 46
3 47 26 10
3 48 26 47
3 48 3 26
3 36 25 2
3 49 25 36
3 49 11 25
3 198 49 199
3 50 200 202
3 200 49 201
3 200 201 202
3 50 11 49
3 50 48 11
3 51 48 50
3 51 3 48
3 51 37 3
3 203 37 204
3 205 204 51
3 203 204 205
3 206 5 207
3 208 207 37
3 206 207 208
3 52 209 210
3 52 211 213
3 211 5 212
3 211 212 213
3 52 20 5
3 41 20 52
3 41 0 20
3 42 214 216
3 216 215 0
3 214 215 216
3 218 217 42
3 45 19 1
3 53 19 45
3 53 219 221
3 221 220 19
3 219 220 221
3 27 53 10
3 54 53 27
3 54 222 224
3 224 223 53
3 222 223 224
3 54 225 226
3 228 227 54
3 38 28 3
3 55 28 38
3 55 12 28
3 30 55 6
3 229 55 230
3 231 230 30
3 229 230 231
3 232 12 233
3 234 233 55
3 232 233 234
3 236 235 12
3 238 237 13
3 56 239 240
3 56 241 242
3 56 243 245
3 243 18 244
3 243 244 245
3 57 18 56
3 57 1 18
3 246 14 247
3 58 248 249
3 58 250 252
3 250 14 251
3 250 251 252
3 58 57 14
3 59 57 58
3 59 1 57
3 59 44 1
3 60 44 59
3 60 9 44
3 33 60 15
3 61 60 33
3 61 9 60
3 61 23 9
3 62 23 61
3 62 2 23
3 253 34 254
3 63 255 257
3 255 34 256
3 255 256 257
3 63 16 34
3 258 63 259
3 64 260 262
3 260 63 261
3 260 261 262
3 64 16 63
3 64 62 16
3 65 62 64
3 65 2 62
3 65 35 2
3 263 35 264
3 265 264 65
3 263 264 265
3 266 4 267
3 268 267 35
3 266 267 268
3 269 4 270
3 272 271 4
