ply
format ascii 1.0
element vertex 192
property float x
property float y
property float z
element face 166
property list uchar int vertex_index
end_header
11.057216 93.048004 -21.014462
9.239076 84.473328 -35.549667
3.64982 99.410561 -17.989058
6.241457 97.362473 -22.545189
8.46483 95.451172 -16.885666
10.708899 90.363007 -29.35708
7.836184 89.890572 -34.014908
12.199725 85.435196 -31.366041
8.694981 94.322609 -26.375917
13.150491 89.86441 -24.330549
4.94303 88.032715 -38.164284
4.674606 98.309418 -15.122577
5.993382 97.584122 -17.507332
7.044124 96.33815 -14.565714
12.768995 88.188301 -28.109486
11.501772 88.02034 -30.528599
8.662881 95.326889 -21.735262
7.672751 95.841316 -24.42885
10.02915 93.727325 -23.644947
10.963634 92.18306 -25.486574
12.155835 91.574554 -22.807577
8.629421 87.242928 -34.897785
6.376739 89.117935 -36.172241
7.069806 86.199028 -37.077915
2.260232 100.470398 -20.985882
3.755376 99.230537 -23.340868
4.843101 98.598312 -20.452192
7.438644 96.493607 -19.556255
9.819503 94.340294 -18.988575
8.363728 92.535751 -30.516201
7.00878 92.205574 -32.897308
9.35943 90.146751 -31.782835
10.135335 87.735771 -32.742027
5.013209 97.894302 -25.462906
9.836378 92.323616 -28.08036
11.947427 90.3181 -26.836617
14.026654 87.91375 -25.63689
3.97909 90.757851 -37.378864
6.313616 96.677712 -13.390251
5.859365 97.323784 -14.844145
5.128856 97.663345 -13.668682
5.128856 97.663345 -13.668682
3.93895 98.58928 -13.793368
13.134421 86.978607 -28.594234
13.747013 86.976853 -27.425204
8.508026 83.959892 -36.496752
7.423391 84.822743 -37.260875
8.154441 85.336178 -36.313791
2.334131 100.330224 -18.166431
2.890179 99.803269 -16.719184
2.955026 99.94048 -19.48747
1.639337 100.860142 -19.664842
2.334131 100.330224 -18.166431
11.492885 85.31279 -32.389777
10.46069 86.463077 -33.07777
11.16753 86.585484 -32.054034
7.494459 95.316688 -26.810859
6.983344 96.076042 -25.837325
8.183866 95.081963 -25.402383
8.045269 94.425018 -27.679959
7.494459 95.316688 -26.810859
9.26568 93.323113 -27.228139
8.615968 93.425522 -28.53218
8.045269 94.425018 -27.679959
6.700314 90.747315 -34.598547
6.286612 91.904815 -34.039747
7.422482 91.048073 -33.456108
3.671635 88.844288 -38.776798
3.189665 90.206856 -38.384089
4.46106 89.395283 -37.771574
4.03102 87.425812 -39.206459
3.671635 88.844288 -38.776798
3.402571 99.252697 -15.285944
3.93895 98.58928 -13.793368
4.162213 98.859989 -16.555817
2.890179 99.803269 -16.719184
3.402571 99.252697 -15.285944
12.500809 86.894627 -29.80379
12.135383 88.104321 -29.319043
13.134421 86.978607 -28.594234
12.849785 85.602055 -30.222511
11.850749 86.727768 -30.94732
12.500809 86.894627 -29.80379
6.291019 85.698689 -38.006746
5.227632 86.615532 -38.549931
6.006418 87.115871 -37.621099
6.644604 84.322403 -38.189706
6.291019 85.698689 -38.006746
7.423391 84.822743 -37.260875
3.007804 99.850468 -22.163375
2.406814 100.145981 -23.586293
1.659242 100.765911 -22.4088
0.904748 101.344158 -21.173795
1.639337 100.860142 -19.664842
1.659242 100.765911 -22.4088
0.904748 101.344158 -21.173795
7.686254 92.370663 -31.706755
6.484669 93.36158 -32.182014
7.162143 93.526668 -30.99146
9.707733 86.216656 -34.155649
9.382378 87.48935 -33.819906
10.46069 86.463077 -33.07777
10.01256 84.831856 -34.48159
8.934249 85.858128 -35.223726
9.707733 86.216656 -34.155649
3.065726 99.48405 -24.752326
2.406814 100.145981 -23.586293
3.694642 98.815933 -25.813345
3.065726 99.48405 -24.752326
4.384292 98.56242 -24.401887
4.40191 98.0219 -26.738001
3.694642 98.815933 -25.813345
5.653574 97.102535 -26.354353
6.34298 96.867809 -24.945878
6.983344 96.076042 -25.837325
4.40191 98.0219 -26.738001
5.653574 97.102535 -26.354353
7.879643 93.531589 -29.750101
7.162143 93.526668 -30.99146
9.100053 92.429684 -29.29828
7.879643 93.531589 -29.750101
8.615968 93.425522 -28.53218
14.375843 86.839577 -26.188906
13.747013 86.976853 -27.425204
13.397825 88.051025 -26.873188
7.485454 95.649616 -13.11597
6.313616 96.677712 -13.390251
8.147986 95.340439 -14.336844
7.485454 95.649616 -13.11597
8.858339 94.89695 -15.49682
7.754477 95.894661 -15.72569
8.147986 95.340439 -14.336844
9.638863 94.320362 -16.532755
8.858339 94.89695 -15.49682
10.3162 93.764923 -17.58421
9.142166 94.895733 -17.93712
9.638863 94.320362 -16.532755
10.893427 93.251568 -18.602454
10.3162 93.764923 -17.58421
11.512283 92.605423 -19.615398
10.43836 93.694149 -20.001519
10.893427 93.251568 -18.602454
12.129907 91.893524 -20.556049
11.512283 92.605423 -19.615398
12.679217 91.156799 -21.452606
11.606526 92.311279 -21.91102
12.129907 91.893524 -20.556049
13.257204 90.308197 -22.226501
12.679217 91.156799 -21.452606
13.754532 89.453125 -22.987988
12.653163 90.719482 -23.569063
13.257204 90.308197 -22.226501
14.129886 88.66259 -23.737699
13.754532 89.453125 -22.987988
14.567967 87.68726 -24.390869
13.588573 88.88908 -24.983719
14.129886 88.66259 -23.737699
14.917 86.727425 -25.01634
14.567967 87.68726 -24.390869
14.375843 86.839577 -26.188906
14.917 86.727425 -25.01634
5.826213 93.108734 -33.37229
6.484669 93.36158 -32.182014
5.826213 93.108734 -33.37229
6.286612 91.904815 -34.039747
5.970591 90.360996 -35.677214
6.700314 90.747315 -34.598547
7.106461 89.504254 -35.093575
4.771767 91.180954 -36.280525
5.970591 90.360996 -35.677214
5.177914 89.937893 -36.775553
3.567865 92.021351 -36.766449
4.771767 91.180954 -36.280525
2.708842 91.600377 -37.861881
3.567865 92.021351 -36.766449
2.708842 91.600377 -37.861881
3.189665 90.206856 -38.384089
4.03102 87.425812 -39.206459
5.227632 86.615532 -38.549931
13.057903 84.354042 -30.645168
12.849785 85.602055 -30.222511
12.361797 84.179981 -31.736916
13.057903 84.354042 -30.645168
11.492885 85.31279 -32.389777
12.361797 84.179981 -31.736916
10.18118 83.467442 -34.810246
10.01256 84.831856 -34.48159
9.427584 82.947628 -35.824453
10.18118 83.467442 -34.810246
8.696534 82.434192 -36.771537
8.508026 83.959892 -36.496752
9.427584 82.947628 -35.824453
3 38 13 39
3 40 39 11
3 38 39 40
3 41 11 42
3 44 43 14
3 0 18 16
3 0 20 18
3 1 23 21
3 1 45 47
3 47 46 23
3 45 46 47
3 2 26 24
3 4 27 12
3 4 28 27
3 2 48 49
3 2 50 52
3 50 24 51
3 50 51 52
3 5 31 29
3 7 32 15
3 7 53 55
3 55 54 32
3 53 54 55
3 3 33 25
3 8 56 58
3 58 57 17
3 56 57 58
3 8 59 60
3 8 61 63
3 61 34 62
3 61 62 63
3 9 35 19
3 9 36 35
3 6 64 66
3 66 65 30
3 64 65 66
3 10 37 22
3 10 67 69
3 69 68 37
3 67 68 69
3 10 70 71
3 11 12 2
3 13 12 11
3 13 4 12
3 11 72 73
3 11 74 76
3 74 2 75
3 74 75 76
3 14 15 5
3 77 15 78
3 79 78 14
3 77 78 79
3 80 7 81
3 82 81 15
3 80 81 82
3 16 17 3
3 18 17 16
3 18 8 17
3 18 19 8
3 20 19 18
3 20 9 19
3 21 22 6
3 23 22 21
3 23 10 22
3 23 83 85
3 85 84 10
3 83 84 85
3 88 87 23
3 86 87 88
3 24 89 91
3 89 25 90
3 89 90 91
3 26 25 24
3 26 3 25
3 12 26 2
3 27 26 12
3 27 3 26
3 27 16 3
3 28 16 27
3 28 0 16
3 24 92 93
3 24 94 95
3 29 96 98
3 96 30 97
3 96 97 98
3 31 30 29
3 31 6 30
3 15 31 5
3 32 31 15
3 32 6 31
3 32 21 6
3 99 21 100
3 101 100 32
3 99 100 101
3 102 1 103
3 104 103 21
3 102 103 104
3 25 105 106
3 33 107 109
3 109 108 25
3 107 108 109
3 33 110 111
3 17 33 3
3 112 33 113
3 114 113 17
3 112 113 114
3 116 115 33
3 117 29 118
3 34 119 121
3 119 29 120
3 119 120 121
3 34 5 29
3 19 34 8
3 35 34 19
3 35 5 34
3 35 14 5
3 36 14 35
3 36 122 124
3 124 123 14
3 122 123 124
3 125 13 126
3 127 13 128
3 129 4 130
3 131 130 13
3 129 130 131
3 132 4 133
3 134 28 135
3 136 135 4
3 134 135 136
3 137 28 138
3 139 0 140
3 141 140 28
3 139 140 141
3 142 0 143
3 144 20 145
3 146 145 0
3 144 145 146
3 147 20 148
3 149 9 150
3 151 150 20
3 149 150 151
3 152 9 153
3 154 36 155
3 156 155 9
3 154 155 156
3 157 36 158
3 160 159 36
3 30 161 162
3 164 163 30
3 22 165 167
3 167 166 6
3 165 166 167
3 37 168 170
3 170 169 22
3 168 169 170
3 37 171 172
3 37 173 174
3 176 175 37
3 178 177 10
3 179 7 180
3 181 7 182
3 184 183 7
3 185 1 186
3 187 1 188
3 191 190 1
3 189 190 191
