ply
format ascii 1.0
element vertex 234
property float x
property float y
property float z
element face 165
property list uchar int vertex_index
end_header
-28.66691 -40.43227 32.491753
-12.766424 -65.522766 29.761169
-26.182564 -41.504459 33.336746
-25.23004 -45.711269 32.558182
-22.141607 -47.530899 33.289116
-17.890717 -54.048119 33.031868
-29.550619 -40.884499 31.817438
-27.261431 -42.697975 32.576801
-11.646009 -64.155281 31.235577
-11.192869 -66.518967 29.828888
-22.640551 -45.209213 33.729767
-18.445591 -51.570343 33.615547
-24.138798 -44.408466 33.388691
-25.726215 -43.60017 32.989567
-20.555708 -48.316616 33.694904
-23.751066 -46.606728 32.912914
-12.313542 -67.893112 28.194624
-13.249756 -63.14064 31.07889
-16.82782 -52.448673 34.054981
-16.415596 -54.962234 33.398216
-15.442316 -59.939644 31.717793
-14.874017 -62.18961 30.776848
-29.382029 -39.189522 32.319241
-25.277214 -39.965786 33.967037
-30.574135 -39.51527 31.416849
-31.763634 -39.974598 30.245968
-29.108764 -40.658384 32.154595
-29.031411 -41.425238 31.985383
-28.589557 -41.199123 32.322541
-28.589557 -41.199123 32.322541
-28.145285 -40.654827 32.691292
-22.90894 -43.97044 33.92548
-22.136601 -44.410269 34.08795
-25.954389 -42.552314 33.163156
-25.203721 -42.876323 33.363495
-25.431895 -41.828468 33.537084
-27.0042 -43.749001 32.360022
-27.735396 -43.288353 32.120792
-21.348658 -47.923758 33.49201
-20.773913 -47.173647 33.907613
-21.566862 -46.780788 33.704719
-21.878542 -48.688883 33.034699
-21.085592 -49.081742 33.237593
-21.348658 -47.923758 33.49201
-13.580482 -61.912394 31.603663
-12.746785 -62.406753 31.748214
-16.208544 -59.431698 31.552546
-15.677698 -58.687158 32.187609
-15.362403 -62.95047 29.980055
-15.694342 -61.732592 30.562998
-14.604489 -63.412016 30.138958
-15.362403 -62.95047 29.980055
-24.86164 -39.204525 34.235231
-24.500103 -40.246303 34.173985
-24.084529 -39.485042 34.442179
-30.378548 -38.549244 31.748484
-29.978082 -39.352396 31.868045
-29.782495 -38.38637 32.19968
-32.226937 -39.087044 30.040868
-31.629198 -38.930847 30.641106
-32.319088 -40.114041 29.5865
-32.226937 -39.087044 30.040868
-11.463475 -68.37249 28.228254
-11.979339 -69.093598 27.334058
-29.550991 -41.78805 31.511784
-29.031411 -41.425238 31.985383
-30.128923 -41.158347 31.274286
-29.550991 -41.78805 31.511784
-27.442546 -41.787679 32.733816
-26.721998 -42.101217 32.956773
-26.903112 -41.190922 33.113788
-27.886817 -42.331976 32.365065
-27.442546 -41.787679 32.733816
-27.735396 -43.288353 32.120792
-27.886817 -42.331976 32.365065
-10.903443 -64.571278 31.300591
-11.181694 -63.274599 31.979397
-10.676873 -65.75312 30.597247
-10.903443 -64.571278 31.300591
-11.419439 -65.337124 30.532232
-10.393443 -66.864803 29.924803
-10.676873 -65.75312 30.597247
-21.816334 -45.619946 33.925045
-22.136601 -44.410269 34.08795
-22.391079 -46.370056 33.509442
-21.566862 -46.780788 33.704719
-21.816334 -45.619946 33.925045
-25.032574 -46.802193 32.258585
-25.820967 -46.317289 32.025275
-19.285329 -51.099457 33.398178
-18.717156 -50.32219 33.863228
-18.967435 -52.34767 33.109029
-19.285329 -51.099457 33.398178
-18.689998 -53.586557 32.81719
-18.168154 -52.809231 33.323707
-18.967435 -52.34767 33.109029
-24.410013 -43.280471 33.563057
-23.658064 -43.570066 33.754942
-24.932507 -44.004318 33.189129
-24.410013 -43.280471 33.563057
-25.203721 -42.876323 33.363495
-26.236592 -44.200098 32.566405
-26.493823 -43.149073 32.783184
-27.0042 -43.749001 32.360022
-25.988504 -45.255648 32.350712
-25.478127 -44.65572 32.773875
-26.236592 -44.200098 32.566405
-25.820967 -46.317289 32.025275
-25.988504 -45.255648 32.350712
-20.002316 -47.589112 34.091457
-20.773913 -47.173647 33.907613
-19.772214 -48.695326 33.902907
-20.002316 -47.589112 34.091457
-20.340387 -49.472594 33.437857
-19.772214 -48.695326 33.902907
-20.340387 -49.472594 33.437857
-21.085592 -49.081742 33.237593
-23.389674 -44.808839 33.559229
-22.90894 -43.97044 33.92548
-23.658064 -43.570066 33.754942
-24.293087 -47.249922 32.435951
-24.490553 -46.158998 32.735548
-25.032574 -46.802193 32.258585
-23.489083 -47.761723 32.639616
-24.293087 -47.249922 32.435951
-22.684354 -48.223809 32.827717
-22.946337 -47.068813 33.101015
-23.489083 -47.761723 32.639616
-21.878542 -48.688883 33.034699
-22.684354 -48.223809 32.827717
-13.054511 -67.466622 28.10507
-12.539983 -66.707939 28.977896
-13.280952 -66.281449 28.888343
-12.817128 -68.626182 27.253145
-13.054511 -67.466622 28.10507
-11.979339 -69.093598 27.334058
-12.817128 -68.626182 27.253145
-11.944911 -62.914074 31.826557
-11.181694 -63.274599 31.979397
-12.447882 -63.64796 31.157234
-11.944911 -62.914074 31.826557
-12.746785 -62.406753 31.748214
-17.930731 -50.776438 34.062593
-18.717156 -50.32219 33.863228
-17.121845 -51.215603 34.28231
-17.930731 -50.776438 34.062593
-17.636705 -52.009508 33.835264
-16.383592 -51.607986 34.49216
-17.121845 -51.215603 34.28231
-16.114087 -52.948715 34.219276
-16.383592 -51.607986 34.49216
-15.907975 -54.205495 33.890894
-16.114087 -52.948715 34.219276
-16.621708 -53.705454 33.726598
-15.620555 -55.405439 33.61021
-15.907975 -54.205495 33.890894
-18.432813 -54.786517 32.458056
-18.689998 -53.586557 32.81719
-17.693679 -55.234955 32.657769
-18.432813 -54.786517 32.458056
-16.956119 -55.692013 32.840942
-17.153157 -54.505177 33.215042
-17.693679 -55.234955 32.657769
-16.164338 -56.198453 33.027821
-16.956119 -55.692013 32.840942
-15.620555 -55.405439 33.61021
-16.164338 -56.198453 33.027821
-14.878422 -59.142924 32.384337
-15.677698 -58.687158 32.187609
-14.676762 -60.311896 31.923115
-14.878422 -59.142924 32.384337
-15.978491 -60.607609 31.03347
-16.208544 -59.431698 31.552546
-15.158167 -61.064627 31.247321
-15.978491 -60.607609 31.03347
-15.694342 -61.732592 30.562998
-14.392613 -61.436879 31.452642
-14.676762 -60.311896 31.923115
-15.158167 -61.064627 31.247321
-14.061886 -62.665125 30.927869
-13.580482 -61.912394 31.603663
-14.392613 -61.436879 31.452642
-13.792358 -63.887531 30.289979
-14.061886 -62.665125 30.927869
-14.604489 -63.412016 30.138958
-13.550693 -65.078594 29.631118
-13.00809 -64.331703 30.420029
-13.792358 -63.887531 30.289979
-13.280952 -66.281449 28.888343
-13.550693 -65.078594 29.631118
-28.775966 -39.195219 32.644452
-29.02447 -39.810896 32.405497
-28.418407 -39.816593 32.730708
-29.119765 -38.377157 32.5944
-28.775966 -39.195219 32.644452
-29.782495 -38.38637 32.19968
-29.119765 -38.377157 32.5944
-24.979221 -41.059131 33.85223
-24.500103 -40.246303 34.173985
-25.729889 -40.735123 33.651891
-25.431895 -41.828468 33.537084
-24.979221 -41.059131 33.85223
-25.639052 -38.987299 33.999527
-24.86164 -39.204525 34.235231
-25.223478 -38.226038 34.267722
-26.0397 -39.724676 33.732926
-25.639052 -38.987299 33.999527
-26.492375 -40.494012 33.41778
-25.729889 -40.735123 33.651891
-26.0397 -39.724676 33.732926
-26.903112 -41.190922 33.113788
-26.492375 -40.494012 33.41778
-28.418407 -39.816593 32.730708
-28.145285 -40.654827 32.691292
-30.64068 -40.473732 31.073991
-30.128923 -41.158347 31.274286
-30.062377 -40.199884 31.617143
-31.034448 -38.701183 31.226547
-30.378548 -38.549244 31.748484
-31.168884 -39.744934 30.831409
-31.034448 -38.701183 31.226547
-31.629198 -38.930847 30.641106
-31.23543 -40.703396 30.488551
-30.64068 -40.473732 31.073991
-31.168884 -39.744934 30.831409
-31.726235 -41.001992 29.885159
-31.23543 -40.703396 30.488551
-31.726235 -41.001992 29.885159
-32.319088 -40.114041 29.5865
-10.903138 -67.685417 29.045386
-11.753205 -67.20604 29.011756
-11.463475 -68.37249 28.228254
-10.393443 -66.864803 29.924803
-10.903138 -67.685417 29.045386
3 0 26 28
3 26 6 27
3 26 27 28
3 0 29 30
3 1 9 8
3 31 10 32
3 2 33 35
3 33 13 34
3 33 34 35
3 37 36 7
3 4 38 40
3 38 14 39
3 38 39 40
3 4 41 43
3 43 42 14
3 41 42 43
3 3 15 12
3 44 17 45
3 5 18 11
3 5 19 18
3 46 20 47
3 48 21 49
3 51 50 21
3 52 23 53
3 52 53 54
3 55 24 56
3 57 56 22
3 55 56 57
3 58 25 59
3 61 60 25
3 63 62 16
3 6 64 65
3 6 66 67
3 68 7 69
3 70 69 2
3 68 69 70
3 71 7 72
3 74 73 7
3 8 75 76
3 9 77 79
3 79 78 8
3 77 78 79
3 9 80 81
3 10 82 83
3 10 84 86
3 84 4 85
3 84 85 86
3 88 87 3
3 89 11 90
3 91 11 92
3 93 5 94
3 95 94 11
3 93 94 95
3 96 12 97
3 13 98 100
3 98 12 99
3 98 99 100
3 13 3 12
3 7 13 2
3 101 13 102
3 103 102 7
3 101 102 103
3 104 3 105
3 106 105 13
3 104 105 106
3 108 107 3
3 14 109 110
3 14 111 112
3 14 113 114
3 116 115 14
3 12 117 119
3 117 10 118
3 117 118 119
3 15 10 12
3 15 4 10
3 120 15 121
3 122 121 3
3 120 121 122
3 123 15 124
3 125 4 126
3 127 126 15
3 125 126 127
3 129 128 4
3 130 16 131
3 132 131 1
3 130 131 132
3 133 16 134
3 136 135 16
3 137 8 138
3 17 139 141
3 139 8 140
3 139 140 141
3 17 1 8
3 11 142 143
3 18 144 146
3 146 145 11
3 144 145 146
3 18 147 148
3 18 149 150
3 19 151 153
3 153 152 18
3 151 152 153
3 19 154 155
3 156 5 157
3 158 5 159
3 160 19 161
3 162 161 5
3 160 161 162
3 163 19 164
3 166 165 19
3 20 167 168
3 20 169 170
3 171 20 172
3 21 173 175
3 173 20 174
3 173 174 175
3 21 176 178
3 178 177 20
3 176 177 178
3 21 179 181
3 179 17 180
3 179 180 181
3 182 17 183
3 184 183 21
3 182 183 184
3 185 1 186
3 187 186 17
3 185 186 187
3 189 188 1
3 190 22 191
3 192 191 0
3 190 191 192
3 193 22 194
3 196 195 22
3 23 197 198
3 23 199 201
3 199 2 200
3 199 200 201
3 202 23 203
3 202 203 204
3 205 23 206
3 207 2 208
3 209 208 23
3 207 208 209
3 211 210 2
3 212 0 213
3 22 6 0
3 24 6 22
3 24 214 216
3 216 215 6
3 214 215 216
3 217 24 218
3 25 219 221
3 219 24 220
3 219 220 221
3 25 222 224
3 224 223 24
3 222 223 224
3 25 225 226
3 228 227 25
3 16 9 1
3 229 9 230
3 231 230 16
3 229 230 231
3 233 232 9
