ply
format ascii 1.0
element vertex 293
property float x
property float y
property float z
element face 264
property list uchar int vertex_index
end_header
30.994955 54.374344 -45.654152
25.632113 89.413521 -42.811924
22.192945 77.413986 -48.906933
29.439291 73.700485 -45.47966
28.110184 57.738396 -48.044163
24.915897 49.992142 -49.442528
28.023546 47.360214 -47.536873
22.829159 95.744423 -40.258305
19.665134 84.51371 -47.581322
24.075443 83.840958 -46.441017
26.109947 75.874786 -47.629223
27.91448 81.965805 -44.419552
17.670345 78.048195 -49.468719
19.783756 70.293678 -50.445625
23.860268 69.095352 -49.643829
27.460667 66.965721 -48.12368
30.610626 64.266983 -45.756851
29.563812 56.010357 -46.95565
28.142725 52.577671 -47.85471
29.599045 51.182896 -46.717831
24.421047 92.742065 -41.551613
22.199924 93.332428 -42.478287
22.809784 87.613541 -45.483536
24.786673 86.938141 -44.758392
25.997536 83.190941 -45.542343
26.741947 85.835358 -43.793594
24.681082 45.261635 -49.176758
20.985474 80.997055 -48.367168
18.672007 81.405151 -48.631306
20.009626 77.785126 -49.287769
21.207558 73.874168 -49.759262
21.873627 69.796425 -50.129803
23.119493 73.509895 -49.337795
27.890471 74.709412 -46.661285
26.971066 71.59964 -47.885418
28.599699 70.30751 -46.901653
29.128727 65.877716 -46.993347
30.116743 69.338753 -45.632694
26.467558 58.791035 -49.01778
25.02733 55.202999 -49.635536
26.644598 53.911701 -48.810814
26.53229 48.700047 -48.551121
21.329954 98.49604 -38.518932
21.954992 84.548866 -47.028275
23.107527 80.689171 -47.840897
24.235041 76.564171 -48.40163
25.146719 79.89183 -47.165707
27.003448 79.201065 -46.179169
28.680634 78.055885 -45.06205
24.88242 95.20105 -39.116322
26.158886 92.035446 -40.506947
16.449327 66.899994 -50.977127
18.578606 66.718094 -50.897068
20.623388 65.982803 -50.692924
22.653254 65.412933 -50.29285
25.132185 72.711441 -48.702583
25.786932 68.408546 -48.925125
26.193184 63.576321 -49.061352
27.853582 62.367455 -48.153023
29.4877 60.898407 -46.995319
30.873806 59.22863 -45.782345
28.479362 84.655067 -42.539288
31.411654 67.45533 -44.429688
31.900808 62.687412 -44.42625
32.1292 57.796497 -44.444763
24.632464 89.86554 -43.243713
24.02693 91.529811 -42.613558
25.02658 91.077793 -42.181769
25.209393 88.175831 -43.785158
24.209744 88.627849 -44.216948
24.632464 89.86554 -43.243713
23.709153 43.378868 -49.407858
24.512486 42.686226 -48.977518
27.109913 45.584303 -47.900904
26.364286 46.254219 -48.408028
27.277918 48.03013 -48.043997
21.774589 96.00169 -40.573187
21.024986 97.377499 -39.703501
22.079557 97.120231 -39.388618
21.055772 93.455292 -42.813073
21.838507 91.950859 -43.486496
25.826463 94.639152 -38.522465
25.152575 96.109344 -37.869074
26.464696 93.05635 -39.217777
25.520653 93.618248 -39.811634
25.826463 94.639152 -38.522465
27.016524 91.489182 -39.839626
26.464696 93.05635 -39.217777
24.105961 50.77363 -49.806176
24.161678 53.379059 -49.90268
24.971614 52.597571 -49.539032
15.916626 68.863533 -50.772637
15.269921 67.0331 -50.928827
18.451088 84.618336 -47.669485
18.992652 86.212387 -47.025757
17.011979 79.708435 -49.108849
17.51281 81.386913 -48.690142
18.171176 79.726673 -49.050013
16.450198 77.908638 -49.493256
17.011979 79.708435 -49.108849
17.151941 76.261669 -49.789766
16.450198 77.908638 -49.493256
18.695191 70.563835 -50.506301
19.381509 72.312625 -50.231638
19.181181 68.505886 -50.671346
18.092616 68.776043 -50.732023
18.695191 70.563835 -50.506301
24.169151 66.838761 -49.702433
23.565644 64.997551 -50.026943
23.256761 67.254143 -49.968339
28.687356 86.012058 -41.430439
27.933107 86.576454 -42.08662
31.778104 68.944641 -43.580715
31.166515 69.80634 -44.264176
32.512389 61.7255 -43.675523
32.302386 64.185564 -43.656075
32.913967 63.223652 -42.905348
32.626585 59.280043 -43.68478
32.015004 60.241955 -44.435507
32.512389 61.7255 -43.675523
32.740686 57.042994 -43.667545
32.626585 59.280043 -43.68478
22.916369 91.824993 -43.076895
23.310485 93.037246 -42.01495
24.02693 91.529811 -42.613558
21.838507 91.950859 -43.486496
22.916369 91.824993 -43.076895
23.221299 88.96555 -44.57952
22.143438 89.091415 -44.98912
23.798229 87.275841 -45.120964
23.221299 88.96555 -44.57952
24.209744 88.627849 -44.216948
23.899443 45.949728 -49.560329
24.016851 48.314982 -49.693214
24.79849 47.626888 -49.309643
23.899443 45.949728 -49.560329
23.709153 43.378868 -49.407858
19.494444 76.05835 -49.65271
18.324803 76.189884 -49.743185
18.839986 77.916661 -49.378244
20.093409 74.10287 -49.888457
19.494444 76.05835 -49.65271
20.608592 75.829647 -49.523516
20.495657 72.083923 -50.102443
19.381509 72.312625 -50.231638
20.093409 74.10287 -49.888457
25.747444 56.997017 -49.326658
24.924975 57.630281 -49.699613
25.645089 59.4243 -49.390736
25.438682 44.535013 -48.720847
25.606686 46.980841 -48.86394
26.364286 46.254219 -48.408028
24.512486 42.686226 -48.977518
25.438682 44.535013 -48.720847
20.27076 98.544037 -38.890537
20.529648 99.643425 -37.580284
20.27076 98.544037 -38.890537
21.024986 97.377499 -39.703501
21.459971 94.795693 -41.683178
21.774589 96.00169 -40.573187
22.514541 94.538425 -41.368296
21.459971 94.795693 -41.683178
21.055772 93.455292 -42.813073
20.10819 86.178875 -46.850842
18.992652 86.212387 -47.025757
21.680515 87.728791 -45.801949
22.143438 89.091415 -44.98912
21.25312 86.196453 -46.574318
21.680515 87.728791 -45.801949
22.382388 86.081204 -46.255905
20.810063 84.531288 -47.304799
20.10819 86.178875 -46.850842
21.25312 86.196453 -46.574318
30.975715 51.810242 -45.535397
31.655421 53.508911 -44.932528
21.649645 99.362244 -37.320734
20.529648 99.643425 -37.580284
22.393718 98.2075 -38.103721
21.649645 99.362244 -37.320734
23.14332 96.831692 -38.973408
22.079557 97.120231 -39.388618
22.393718 98.2075 -38.103721
24.16995 96.560005 -38.402417
25.152575 96.109344 -37.869074
23.85579 95.472736 -39.687314
23.14332 96.831692 -38.973408
24.16995 96.560005 -38.402417
26.772869 90.266643 -41.07045
26.509483 88.955681 -42.222938
25.895499 90.724483 -41.659436
26.772869 90.266643 -41.07045
27.016524 91.489182 -39.839626
24.126503 55.586218 -49.979027
24.924975 57.630281 -49.699613
24.126503 55.586218 -49.979027
24.161678 53.379059 -49.90268
24.105961 50.77363 -49.806176
24.016851 48.314982 -49.693214
30.27776 50.214518 -46.067236
30.297 52.77862 -46.185992
30.975715 51.810242 -45.535397
29.50063 48.442213 -46.555199
30.27776 50.214518 -46.067236
28.71288 46.530872 -46.96472
28.811295 49.271555 -47.127352
29.50063 48.442213 -46.555199
27.776184 44.628054 -47.390878
28.71288 46.530872 -46.96472
27.109913 45.584303 -47.900904
27.776184 44.628054 -47.390878
15.759259 65.189253 -51.10436
15.269921 67.0331 -50.928827
16.807183 64.839056 -51.112942
15.759259 65.189253 -51.10436
17.954525 83.064056 -48.194477
18.451088 84.618336 -47.669485
19.168571 82.95943 -48.106314
17.954525 83.064056 -48.194477
17.51281 81.386913 -48.690142
17.151941 76.261669 -49.789766
18.324803 76.189884 -49.743185
17.027976 68.866993 -50.772053
15.916626 68.863533 -50.772637
17.513967 66.809044 -50.937098
17.027976 68.866993 -50.772053
18.092616 68.776043 -50.732023
17.871823 64.748106 -51.072912
16.807183 64.839056 -51.112942
17.513967 66.809044 -50.937098
18.909377 64.549853 -50.995154
17.871823 64.748106 -51.072912
19.931767 64.182207 -50.893081
18.909377 64.549853 -50.995154
19.600997 66.350448 -50.794996
20.918742 63.786104 -50.746437
19.931767 64.182207 -50.893081
21.933675 63.501169 -50.5464
20.918742 63.786104 -50.746437
21.638321 65.697868 -50.492887
22.855828 63.016916 -50.329599
21.933675 63.501169 -50.5464
22.855828 63.016916 -50.329599
23.565644 64.997551 -50.026943
25.132483 66.495357 -49.34308
24.169151 66.838761 -49.702433
24.8236 68.751949 -49.284477
25.335609 64.079245 -49.411194
25.132483 66.495357 -49.34308
25.990058 65.992434 -48.993239
25.507902 61.816942 -49.412521
25.335609 64.079245 -49.411194
26.330371 61.183678 -49.039566
25.645089 59.4243 -49.390736
25.507902 61.816942 -49.412521
27.0644 87.166599 -42.713774
26.18703 87.624439 -43.302759
26.509483 88.955681 -42.222938
27.610654 85.245213 -43.166441
27.0644 87.166599 -42.713774
27.933107 86.576454 -42.08662
29.239507 84.021221 -41.781891
28.687356 86.012058 -41.430439
28.957075 82.804989 -42.821039
29.239507 84.021221 -41.781891
28.674634 81.460358 -43.761172
28.196921 83.310436 -43.47942
28.957075 82.804989 -42.821039
29.057711 79.505398 -44.08242
28.297557 80.010845 -44.740801
28.674634 81.460358 -43.761172
29.455345 77.337383 -44.389692
29.057711 79.505398 -44.08242
29.834674 75.159683 -44.598498
29.059963 75.878185 -45.270855
29.455345 77.337383 -44.389692
30.180334 72.928917 -44.789162
29.834674 75.159683 -44.598498
30.51906 70.748051 -44.865679
29.778017 71.519619 -45.556177
30.180334 72.928917 -44.789162
30.764198 68.397042 -45.031191
30.51906 70.748051 -44.865679
31.166515 69.80634 -44.264176
32.057809 66.569523 -43.657793
31.778104 68.944641 -43.580715
31.656231 65.071371 -44.427969
32.057809 66.569523 -43.657793
32.302386 64.185564 -43.656075
32.222544 55.219988 -44.327833
31.655421 53.508911 -44.932528
31.562078 56.08542 -45.049458
32.222544 55.219988 -44.327833
32.740686 57.042994 -43.667545
3 0 19 17
3 1 65 67
3 67 66 20
3 65 66 67
3 1 68 70
3 68 23 69
3 68 69 70
3 1 25 23
3 72 71 26
3 2 29 27
3 2 30 29
3 2 32 30
3 3 35 33
3 3 37 35
3 4 40 38
3 6 41 18
3 6 73 75
3 75 74 41
3 73 74 75
3 7 76 78
3 78 77 42
3 76 77 78
3 80 79 21
3 9 43 22
3 9 44 43
3 9 46 44
3 11 47 24
3 11 48 47
3 81 49 82
3 83 50 84
3 85 84 49
3 83 84 85
3 87 86 50
3 5 88 90
3 90 89 39
3 88 89 90
3 91 51 92
3 8 93 94
3 12 95 97
3 97 96 28
3 95 96 97
3 12 98 99
3 12 100 101
3 13 102 103
3 13 104 106
3 104 52 105
3 104 105 106
3 13 53 52
3 14 54 31
3 14 107 109
3 109 108 54
3 107 108 109
3 10 55 45
3 15 56 34
3 15 57 56
3 15 58 57
3 16 59 36
3 16 60 59
3 110 61 111
3 112 62 113
3 114 63 115
3 114 115 116
3 117 64 118
3 119 118 63
3 117 118 119
3 121 120 64
3 17 18 4
3 19 18 17
3 19 6 18
3 20 21 7
3 122 21 123
3 124 123 20
3 122 123 124
3 126 125 21
3 127 22 128
3 23 129 131
3 129 22 130
3 129 130 131
3 23 9 22
3 23 24 9
3 25 24 23
3 25 11 24
3 26 132 134
3 134 133 5
3 132 133 134
3 136 135 26
3 27 28 8
3 29 28 27
3 29 12 28
3 29 137 139
3 139 138 12
3 137 138 139
3 30 140 142
3 142 141 29
3 140 141 142
3 30 143 145
3 143 13 144
3 143 144 145
3 30 31 13
3 32 31 30
3 32 14 31
3 33 34 10
3 35 34 33
3 35 15 34
3 35 36 15
3 37 36 35
3 37 16 36
3 38 146 148
3 146 39 147
3 146 147 148
3 40 39 38
3 40 5 39
3 18 40 4
3 41 40 18
3 41 5 40
3 41 26 5
3 149 26 150
3 151 150 41
3 149 150 151
3 153 152 26
3 42 154 155
3 157 156 42
3 21 158 160
3 160 159 7
3 158 159 160
3 162 161 21
3 163 8 164
3 22 165 166
3 43 167 169
3 169 168 22
3 167 168 169
3 43 170 172
3 170 8 171
3 170 171 172
3 43 27 8
3 44 27 43
3 44 2 27
3 44 45 2
3 46 45 44
3 46 10 45
3 24 46 9
3 47 46 24
3 47 10 46
3 47 33 10
3 48 33 47
3 48 3 33
3 174 173 0
3 175 42 176
3 177 42 178
3 179 7 180
3 181 180 42
3 179 180 181
3 49 182 183
3 49 184 186
3 184 7 185
3 184 185 186
3 49 20 7
3 50 20 49
3 50 1 20
3 50 187 189
3 189 188 1
3 187 188 189
3 191 190 50
3 39 192 193
3 195 194 39
3 197 196 5
3 198 19 199
3 200 199 0
3 198 199 200
3 201 19 202
3 203 6 204
3 205 204 19
3 203 204 205
3 206 6 207
3 209 208 6
3 51 210 211
3 51 212 213
3 28 214 216
3 216 215 8
3 214 215 216
3 218 217 28
3 220 219 12
3 221 51 222
3 52 223 225
3 223 51 224
3 223 224 225
3 52 226 228
3 228 227 51
3 226 227 228
3 52 229 230
3 53 231 233
3 233 232 52
3 231 232 233
3 53 234 235
3 31 53 13
3 54 53 31
3 54 236 238
3 238 237 53
3 236 237 238
3 54 239 240
3 242 241 54
3 45 32 2
3 55 32 45
3 55 14 32
3 34 55 10
3 56 55 34
3 56 14 55
3 56 243 245
3 245 244 14
3 243 244 245
3 57 246 248
3 248 247 56
3 246 247 248
3 57 249 250
3 57 251 253
3 251 38 252
3 251 252 253
3 58 38 57
3 58 4 38
3 36 58 15
3 59 58 36
3 59 4 58
3 59 17 4
3 60 17 59
3 60 0 17
3 254 25 255
3 256 255 1
3 254 255 256
3 61 257 259
3 257 25 258
3 257 258 259
3 61 11 25
3 260 61 261
3 262 61 263
3 264 11 265
3 266 265 61
3 264 265 266
3 267 48 268
3 269 268 11
3 267 268 269
3 270 48 271
3 272 3 273
3 274 273 48
3 272 273 274
3 275 3 276
3 277 37 278
3 279 278 3
3 277 278 279
3 62 280 282
3 280 37 281
3 280 281 282
3 62 16 37
3 283 62 284
3 63 285 287
3 285 62 286
3 285 286 287
3 63 16 62
3 63 60 16
3 64 60 63
3 64 0 60
3 64 288 290
3 290 289 0
3 288 289 290
3 292 291 64
