ply
format ascii 1.0
element vertex 189
property float x
property float y
property float z
element face 141
property list uchar int vertex_index
end_header
-16.433535 -19.774059 -61.522663
-5.003318 -9.456858 -61.766895
-12.654007 -20.124052 -60.543137
-7.965026 -15.035209 -60.989983
-5.532864 -14.918756 -59.731121
-3.288549 -14.150818 -58.33934
-3.547963 -3.419249 -63.108742
-4.79875 -6.682404 -62.819904
-18.368309 -19.190048 -61.985489
-17.333475 -23.007454 -60.383163
-14.506966 -20.124405 -61.016026
-3.487518 -17.255354 -57.261753
-4.38977 -14.511329 -59.103313
-4.678249 -17.630632 -58.009796
-15.353804 -16.356434 -62.709679
-5.857636 -7.635052 -63.170193
-5.995003 -10.341696 -62.063797
-13.522465 -16.667446 -62.186558
-11.803748 -17.151613 -61.511784
-9.39581 -14.555834 -61.80608
-4.852588 -20.710621 -56.893307
-5.879116 -17.862352 -58.678337
-6.677036 -15.049882 -60.344715
-6.232346 -12.478829 -61.247086
-4.158901 -11.654835 -60.140816
-5.194695 -12.20616 -60.696598
-15.892449 -21.668139 -60.686599
-16.342419 -23.284836 -60.11685
-16.883505 -21.390757 -60.952913
-15.47025 -19.949232 -61.269345
-14.929164 -21.843311 -60.433281
-15.892449 -21.668139 -60.686599
-3.555725 -18.867914 -56.694977
-2.976625 -18.608639 -56.316529
-4.15109 -19.055553 -57.068998
-4.082884 -17.442993 -57.635774
-3.555725 -18.867914 -56.694977
-4.030622 -2.335396 -63.990246
-4.097877 -3.731323 -63.469776
-12.149964 -21.960546 -59.667772
-12.513059 -23.809596 -59.044332
-13.017103 -21.973101 -59.919697
-11.773308 -20.413466 -60.148018
-11.269265 -22.24996 -59.272654
-12.149964 -21.960546 -59.667772
-13.92283 -14.930674 -63.002697
-14.438135 -16.51194 -62.448118
-14.8385 -14.775168 -63.264257
-11.360017 -15.636335 -62.022315
-12.188685 -15.375827 -62.374519
-10.998625 -17.363732 -61.154635
-11.360017 -15.636335 -62.022315
-10.156047 -14.338445 -62.169463
-9.794656 -16.065843 -61.301783
-5.554075 -20.718601 -57.304259
-5.006875 -22.231285 -56.414721
-6.067338 -19.294466 -58.196773
-5.365852 -19.286487 -57.785822
-5.554075 -20.718601 -57.304259
-7.321031 -15.042545 -60.667349
-6.931669 -16.441208 -59.871282
-7.575665 -16.433871 -60.193917
-7.646636 -13.755559 -61.415245
-7.002641 -13.762895 -61.092612
-7.321031 -15.042545 -60.667349
-2.786716 -13.916906 -57.940666
-2.849069 -15.39548 -57.437182
-3.196661 -12.6412 -58.874775
-2.786716 -13.916906 -57.940666
-3.723725 -12.902826 -59.240078
-3.631837 -11.393209 -59.775513
-3.196661 -12.6412 -58.874775
-3.136553 -4.49808 -62.227972
-3.059547 -3.149996 -62.697813
-3.620751 -4.768201 -62.608871
-3.136553 -4.49808 -62.227972
-4.097877 -3.731323 -63.469776
-3.620751 -4.768201 -62.608871
-4.246145 -6.399779 -62.464453
-4.72327 -5.362901 -63.325357
-4.377766 -7.712664 -62.020275
-4.246145 -6.399779 -62.464453
-4.48005 -9.099891 -61.49377
-4.901034 -8.069631 -62.293399
-4.377766 -7.712664 -62.020275
-18.783857 -21.069448 -61.277265
-19.319295 -19.125407 -62.052099
-18.266441 -22.97815 -60.476103
-18.783857 -21.069448 -61.277265
-17.850892 -21.098751 -61.184326
-17.684344 -24.853728 -59.715494
-18.266441 -22.97815 -60.476103
-16.710234 -24.933098 -59.561708
-17.684344 -24.853728 -59.715494
-16.710234 -24.933098 -59.561708
-16.342419 -23.284836 -60.11685
-13.943582 -21.973278 -60.156141
-14.929164 -21.843311 -60.433281
-13.580486 -20.124229 -60.779581
-13.017103 -21.973101 -59.919697
-13.943582 -21.973278 -60.156141
-8.287388 -16.295656 -60.582695
-7.575665 -16.433871 -60.193917
-2.948554 -16.947748 -56.898388
-2.976625 -18.608639 -56.316529
-3.388034 -15.703086 -57.800546
-2.849069 -15.39548 -57.437182
-2.948554 -16.947748 -56.898388
-18.903104 -17.317392 -62.754147
-19.319295 -19.125407 -62.052099
-17.831242 -17.449466 -62.623259
-18.903104 -17.317392 -62.754147
-16.863855 -17.741472 -62.391846
-17.400922 -19.482053 -61.754076
-17.831242 -17.449466 -62.623259
-16.323989 -16.03266 -62.985354
-15.893669 -18.065247 -62.116171
-16.863855 -17.741472 -62.391846
-15.729398 -14.46553 -63.545872
-16.323989 -16.03266 -62.985354
-14.8385 -14.775168 -63.264257
-15.729398 -14.46553 -63.545872
-3.460527 -1.943308 -63.617119
-3.059547 -3.149996 -62.697813
-3.460527 -1.943308 -63.617119
-4.030622 -2.335396 -63.990246
-5.274829 -5.779043 -63.558718
-4.72327 -5.362901 -63.325357
-5.804272 -6.255367 -63.733862
-5.274829 -5.779043 -63.558718
-5.328193 -7.158728 -62.995048
-6.354304 -6.786081 -63.841879
-5.804272 -6.255367 -63.733862
-6.363338 -8.168757 -63.240055
-6.354304 -6.786081 -63.841879
-6.432021 -9.52208 -62.686857
-6.363338 -8.168757 -63.240055
-5.926319 -8.988374 -62.616995
-6.419343 -10.543483 -62.223669
-6.432021 -9.52208 -62.686857
-13.048043 -15.133744 -62.711906
-13.92283 -14.930674 -63.002697
-12.663107 -16.90953 -61.849171
-13.048043 -15.133744 -62.711906
-12.188685 -15.375827 -62.374519
-11.348179 -18.927246 -60.632341
-11.773308 -20.413466 -60.148018
-12.228877 -18.637833 -61.027461
-11.348179 -18.927246 -60.632341
-10.998625 -17.363732 -61.154635
-9.00278 -16.055968 -60.990744
-9.794656 -16.065843 -61.301783
-8.680418 -14.795521 -61.398032
-8.287388 -16.295656 -60.582695
-9.00278 -16.055968 -60.990744
-9.637573 -12.979282 -62.596008
-10.156047 -14.338445 -62.169463
-8.962065 -13.310665 -62.18853
-9.637573 -12.979282 -62.596008
-8.246672 -13.550352 -61.780482
-8.680418 -14.795521 -61.398032
-8.962065 -13.310665 -62.18853
-7.646636 -13.755559 -61.415245
-8.246672 -13.550352 -61.780482
-4.344722 -22.13572 -56.027523
-5.006875 -22.231285 -56.414721
-4.238259 -20.595548 -56.510754
-4.344722 -22.13572 -56.027523
-4.765419 -19.170626 -57.451552
-4.15109 -19.055553 -57.068998
-4.238259 -20.595548 -56.510754
-6.532709 -17.847442 -59.038094
-6.067338 -19.294466 -58.196773
-6.278076 -16.456117 -59.511526
-6.532709 -17.847442 -59.038094
-6.931669 -16.441208 -59.871282
-6.780295 -12.477369 -61.543797
-6.454691 -13.764356 -60.795901
-7.002641 -13.762895 -61.092612
-6.538015 -11.612049 -61.815314
-6.780295 -12.477369 -61.543797
-4.057842 -10.19888 -60.680731
-3.631837 -11.393209 -59.775513
-4.58111 -10.555847 -60.953856
-4.48005 -9.099891 -61.49377
-4.057842 -10.19888 -60.680731
-6.538015 -11.612049 -61.815314
-6.419343 -10.543483 -62.223669
-6.113675 -11.410262 -61.655442
3 0 9 8
3 0 26 28
3 28 27 9
3 26 27 28
3 0 29 31
3 29 10 30
3 29 30 31
3 32 11 33
3 34 13 35
3 36 35 11
3 34 35 36
3 38 37 6
3 1 15 7
3 1 16 15
3 2 39 41
3 39 40 41
3 2 42 44
3 42 43 44
3 45 17 46
3 47 46 14
3 45 46 47
3 48 18 49
3 51 50 18
3 52 19 53
3 54 20 55
3 56 21 57
3 58 57 20
3 56 57 58
3 3 59 61
3 59 22 60
3 59 60 61
3 3 62 64
3 64 63 22
3 62 63 64
3 5 65 66
3 5 67 68
3 5 69 71
3 69 24 70
3 69 70 71
3 4 25 12
3 4 23 25
3 72 6 73
3 74 6 75
3 77 76 6
3 78 7 79
3 80 7 81
3 82 1 83
3 84 83 7
3 82 83 84
3 8 85 86
3 9 87 89
3 89 88 8
3 87 88 89
3 9 90 91
3 9 92 93
3 95 94 9
3 10 96 97
3 10 98 100
3 98 2 99
3 98 99 100
3 101 3 102
3 11 103 104
3 11 105 107
3 105 5 106
3 105 106 107
3 11 12 5
3 13 12 11
3 13 4 12
3 108 8 109
3 110 8 111
3 112 0 113
3 114 113 8
3 112 113 114
3 115 14 116
3 117 116 0
3 115 116 117
3 118 14 119
3 121 120 14
3 6 122 123
3 125 124 6
3 7 126 127
3 15 128 130
3 130 129 7
3 128 129 130
3 15 131 132
3 15 133 134
3 16 135 137
3 137 136 15
3 135 136 137
3 16 138 139
3 14 10 0
3 17 10 14
3 17 2 10
3 140 17 141
3 18 142 144
3 142 17 143
3 142 143 144
3 18 2 17
3 18 145 147
3 147 146 2
3 145 146 147
3 149 148 18
3 19 150 151
3 19 152 154
3 152 3 153
3 152 153 154
3 155 19 156
3 157 19 158
3 159 3 160
3 161 160 19
3 159 160 161
3 163 162 3
3 20 164 165
3 20 166 167
3 20 168 170
3 168 13 169
3 168 169 170
3 21 13 20
3 21 4 13
3 171 21 172
3 22 173 175
3 173 21 174
3 173 174 175
3 22 4 21
3 22 23 4
3 176 23 177
3 178 177 22
3 176 177 178
3 180 179 23
3 24 181 182
3 24 183 185
3 183 1 184
3 183 184 185
3 12 24 5
3 25 24 12
3 25 1 24
3 25 16 1
3 23 16 25
3 23 186 188
3 188 187 16
3 186 187 188
