ply
format ascii 1.0
element vertex 458
property float x
property float y
property float z
element face 435
property list uchar int vertex_index
end_header
3.273629 13.789266 -58.472294
-6.289782 11.187957 -70.022224
-19.28055 -4.713273 -67.623161
-12.750035 17.574854 -72.861137
-0.045904 22.555712 -63.190388
-6.76012 -0.361538 -66.780869
-12.801277 5.704574 -70.912178
-11.925368 -7.628088 -65.659599
5.637645 15.373558 -55.678566
4.158807 19.41765 -57.88979
1.882838 18.346416 -60.96645
-0.463821 17.815088 -64.416985
1.083577 13.236465 -61.787544
-9.186964 14.850807 -71.942596
-12.944426 11.835321 -72.415161
-9.500757 9.080718 -71.096199
-9.549664 2.792621 -69.19696
-6.547618 5.488169 -68.749542
-15.345226 -6.105977 -66.933212
4.462498 9.417643 -55.784172
2.321537 8.442308 -58.663044
-5.983762 16.48016 -70.338943
-3.087924 17.303749 -67.769585
-3.384457 12.300944 -67.818115
-3.849951 7.092825 -67.180244
-4.326312 1.641484 -65.827858
-6.850972 -5.937109 -64.513565
-20.147524 2.560199 -69.922379
-16.663124 14.06714 -72.714348
-16.402689 7.817577 -71.662331
-16.116163 0.972732 -69.633064
-12.505415 -0.959878 -68.54464
-9.40145 -3.326544 -66.758804
4.350552 14.328625 -57.072044
4.901399 17.384686 -56.82262
3.685627 16.614855 -58.296955
2.954644 18.695648 -59.44305
2.58775 15.946582 -59.794853
1.494634 15.933913 -61.453331
2.146482 13.554699 -60.148361
-7.720047 12.925487 -71.105476
-9.328588 11.915546 -71.626671
-7.84172 10.107585 -70.668625
-7.947641 7.299314 -70.019516
-6.479364 8.455018 -69.549652
5.651379 10.129149 -54.524773
5.040419 7.080969 -54.373455
3.910854 6.605722 -55.677715
1.231832 22.896448 -61.437401
-3.24408 14.878356 -67.922302
-4.12534 4.507435 -66.653198
-16.772387 16.937103 -72.79451
-14.760119 15.918777 -72.938942
-12.932677 8.744529 -71.765381
-14.753386 10.001472 -72.177872
-14.639701 6.671329 -71.360023
-16.474913 4.475962 -70.755508
-14.480613 3.253332 -70.313347
-14.220756 -0.07944 -69.129059
-12.628029 2.313453 -69.775253
-8.030794 1.473084 -68.123993
-9.461782 -0.169651 -68.05896
-8.077904 -1.498571 -66.986488
-8.072165 -4.611405 -65.690643
-6.858318 -3.296299 -65.641991
-10.312817 -8.479524 -64.827156
5.463112 20.580166 -56.44928
3.659986 24.216373 -58.310776
3.27585 21.426609 -58.986038
2.158494 20.921143 -60.472935
0.994837 20.424582 -62.135777
-0.269638 20.192883 -63.942692
0.641157 18.089233 -62.803497
0.371874 15.557762 -63.157627
0.031372 13.174026 -63.44976
-10.96317 16.166597 -72.554253
-12.776244 14.85146 -72.782883
-10.964426 13.311333 -72.31134
-11.168496 10.484849 -71.871552
-11.118714 7.582562 -71.153954
-11.081817 4.42388 -70.18895
-9.447683 6.055997 -70.244644
-8.077204 4.386619 -69.179787
-6.749812 2.59266 -67.890617
-14.95495 -9.628344 -65.432465
-13.579924 -6.851366 -66.35582
3.868828 11.441757 -57.123566
2.755128 11.241678 -58.723625
3.330173 8.82606 -57.203709
-10.904679 18.936874 -72.469185
-9.256043 17.528887 -72.042122
-6.083777 13.911029 -70.266907
-2.867174 19.597662 -67.308289
-4.281282 19.284397 -68.797287
-4.440201 16.881516 -69.11898
-4.61153 14.455147 -69.199745
-4.791679 11.933802 -69.060951
1.810398 10.901831 -60.155178
0.722674 10.724097 -61.910442
-3.707163 9.821133 -67.704483
-4.981862 9.24739 -68.698387
-5.156879 6.664701 -68.169632
-5.337302 3.764224 -67.390007
-5.567104 0.854044 -66.502876
-5.706857 -2.09557 -65.432915
-19.836895 -1.124864 -68.825241
-14.736757 12.949386 -72.68779
-16.595766 11.076011 -72.330154
-18.50239 8.740787 -71.681595
-18.356634 5.296368 -70.881439
-18.137667 1.63257 -69.828629
-17.813162 -1.834502 -68.678841
-15.910514 -2.5868 -68.347954
-14.004537 -3.368125 -67.847572
-12.307514 -4.269605 -67.175636
-10.994002 1.043265 -68.978058
-10.907389 -2.14277 -67.711525
-10.639251 -5.376387 -66.281097
-9.194623 -6.529078 -65.30925
-19.047544 -6.498162 -66.963352
-20.065444 -6.226978 -67.038406
-18.274428 -5.045829 -67.496269
-19.047544 -6.498162 -66.963352
5.343197 5.941933 -53.667766
5.671048 7.573362 -53.81597
4.709675 5.639702 -54.308712
5.343197 5.941933 -53.667766
0.010265 23.759813 -62.770574
0.649133 23.930181 -61.894081
0.592964 22.72608 -62.313895
-0.617572 23.573948 -63.59786
0.010265 23.759813 -62.770574
-0.665095 22.382988 -64.036158
-0.617572 23.573948 -63.59786
-13.755077 16.746816 -72.900039
-14.758657 17.350088 -72.904133
-13.753615 18.178126 -72.86523
-11.684438 -9.246205 -64.887962
-12.566322 -8.942778 -65.244774
-11.119093 -8.053806 -65.243378
-10.878162 -9.671923 -64.471741
-11.684438 -9.246205 -64.887962
5.934504 16.955253 -55.579742
6.339899 15.965625 -55.045334
4.350009 20.913272 -57.678858
5.002161 21.49453 -56.958603
4.81096 19.998908 -57.169535
3.717329 20.422129 -58.437914
3.90853 21.917752 -58.226982
4.350009 20.913272 -57.678858
-15.150088 -7.867161 -66.182839
-15.917307 -9.25647 -65.702682
-16.112445 -7.495287 -66.453056
4.774634 10.927596 -55.767374
5.369074 11.283349 -55.137675
5.056939 9.773396 -55.154472
4.165663 10.4297 -56.453869
4.477799 11.939653 -56.437071
4.774634 10.927596 -55.767374
3.385968 6.342906 -56.361984
3.636297 5.243221 -55.597328
-9.955421 19.42903 -72.112068
-10.878794 20.113018 -72.29126
-9.131103 18.725037 -71.898537
-10.080361 18.232881 -72.255653
-9.955421 19.42903 -72.112068
-6.784002 16.142117 -70.813449
-6.703462 17.359375 -70.756553
-6.03377 15.195595 -70.302925
-6.83401 14.857551 -70.777432
-6.784002 16.142117 -70.813449
3.107635 25.152777 -58.745495
3.041394 23.83833 -59.072447
-1.001151 18.820321 -65.049405
-0.90406 20.009218 -64.812258
-0.366729 19.003985 -64.179839
-2.977549 18.450705 -67.538937
-2.283821 18.578243 -66.707478
-2.394195 17.431286 -66.938126
0.55674 9.426761 -61.866173
1.025461 9.562973 -61.111576
0.227314 10.631379 -62.686321
0.55674 9.426761 -61.866173
-3.778557 8.456979 -67.442363
-3.240784 8.717446 -66.952396
-3.312177 7.353293 -66.690277
-5.177324 -3.069483 -64.631863
-5.110069 -1.673557 -65.152332
-5.728883 -3.485626 -64.865223
-5.177324 -3.069483 -64.631863
-21.000402 1.021717 -69.337868
-21.216142 2.77944 -69.784618
-19.99221 0.717667 -69.37381
-20.845088 -0.820814 -68.789299
-21.000402 1.021717 -69.337868
-17.694127 14.458026 -72.572571
-17.748759 15.893008 -72.612652
-16.717755 15.502122 -72.754429
-17.684226 12.984338 -72.449028
-17.694127 14.458026 -72.572571
-7.39127 -6.72975 -64.435791
-8.001867 -6.066897 -65.02433
-7.461569 -5.274257 -65.102104
-6.860006 -7.319786 -63.911741
-7.39127 -6.72975 -64.435791
-16.306767 -5.742181 -67.151295
-16.112445 -7.495287 -66.453056
5.976529 9.097452 -53.891629
6.343706 10.606968 -53.920732
5.345899 8.605059 -54.449114
5.976529 9.097452 -53.891629
5.671048 7.573362 -53.81597
4.144893 5.402079 -54.960842
4.475637 6.843345 -55.025585
4.709675 5.639702 -54.308712
3.636297 5.243221 -55.597328
4.144893 5.402079 -54.960842
-5.908596 17.718986 -70.222923
-6.703462 17.359375 -70.756553
1.264452 24.156876 -61.092737
1.827317 23.178368 -60.635759
1.264452 24.156876 -61.092737
0.649133 23.930181 -61.894081
-1.082144 17.686955 -65.261826
-0.631589 16.605321 -64.652767
-2.521896 16.302746 -67.104374
-2.394195 17.431286 -66.938126
-2.599974 15.09005 -67.180733
-3.166002 16.091052 -67.845944
-2.521896 16.302746 -67.104374
-2.70876 13.822298 -67.211857
-2.599974 15.09005 -67.180733
-2.778948 12.533591 -67.159763
-3.314268 13.58965 -67.870209
-2.70876 13.822298 -67.211857
1.824893 8.422079 -59.487877
2.093904 7.18563 -58.645224
-3.399244 5.995643 -66.392482
-3.312177 7.353293 -66.690277
-3.536938 4.702948 -66.12896
-3.987645 5.80013 -66.916721
-3.399244 5.995643 -66.392482
-3.64104 3.439286 -65.812714
-3.536938 4.702948 -66.12896
-3.741526 2.006311 -65.400044
-4.225826 3.07446 -66.240528
-3.64104 3.439286 -65.812714
-20.311535 4.217158 -70.324528
-21.216142 2.77944 -69.784618
-15.764791 17.859251 -72.831917
-16.776472 18.384999 -72.666851
-15.766253 16.42794 -72.866726
-15.764791 17.859251 -72.831917
-14.758657 17.350088 -72.904133
-10.096076 -9.941126 -64.106547
-10.878162 -9.671923 -64.471741
-9.588563 -8.91062 -64.380811
-10.096076 -9.941126 -64.106547
5.566381 17.960817 -56.15177
5.934504 16.955253 -55.579742
5.269522 16.379122 -56.250593
5.847238 19.558557 -55.9651
5.566381 17.960817 -56.15177
5.182256 18.982426 -56.63595
6.181316 21.212199 -55.793613
5.847238 19.558557 -55.9651
5.657 22.036474 -56.292082
6.181316 21.212199 -55.793613
5.657 22.036474 -56.292082
5.002161 21.49453 -56.958603
4.100599 23.312634 -57.889351
4.324038 24.905596 -57.579338
3.467918 22.821491 -58.648407
4.100599 23.312634 -57.889351
3.90853 21.917752 -58.226982
2.849326 22.443448 -59.410078
3.041394 23.83833 -59.072447
3.467918 22.821491 -58.648407
2.290648 22.190715 -60.153526
2.849326 22.443448 -59.410078
2.717172 21.173876 -59.729487
1.695163 21.908796 -60.955168
1.827317 23.178368 -60.635759
2.290648 22.190715 -60.153526
-0.213742 15.476658 -64.023089
-0.631589 16.605321 -64.652767
-0.045974 16.686425 -63.787306
-0.383993 14.28479 -64.169155
-0.213742 15.476658 -64.023089
0.201623 14.365894 -63.303693
-0.477819 12.993083 -64.186286
-0.383993 14.28479 -64.169155
-15.529971 -11.101485 -64.907265
-15.917307 -9.25647 -65.702682
-14.639073 -11.411123 -64.62565
-15.529971 -11.101485 -64.907265
-14.081112 -9.942906 -65.131206
-14.639073 -11.411123 -64.62565
-13.3936 -8.554417 -65.592884
-14.081112 -9.942906 -65.131206
-14.267437 -8.239855 -65.894142
-12.752646 -7.239727 -66.00771
-12.566322 -8.942778 -65.244774
-13.3936 -8.554417 -65.592884
5.981516 14.232074 -55.080374
6.339899 15.965625 -55.045334
5.988383 11.60987 -54.503478
6.343706 10.606968 -53.920732
5.988383 11.60987 -54.503478
5.369074 11.283349 -55.137675
5.362208 13.905553 -55.714571
5.981516 14.232074 -55.080374
4.718661 13.383087 -56.41131
4.994098 14.851091 -56.375305
5.362208 13.905553 -55.714571
4.10969 12.885191 -57.097805
4.718661 13.383087 -56.41131
4.477799 11.939653 -56.437071
3.095627 7.453075 -57.124981
3.620513 7.715891 -56.440712
3.385968 6.342906 -56.361984
2.59131 7.261199 -57.854648
2.825855 8.634184 -57.933377
3.095627 7.453075 -57.124981
2.093904 7.18563 -58.645224
2.59131 7.261199 -57.854648
-12.795417 18.85021 -72.758881
-13.753615 18.178126 -72.86523
-11.872739 19.53122 -72.562905
-10.878794 20.113018 -72.29126
-11.827357 18.255864 -72.665161
-12.795417 18.85021 -72.758881
-11.872739 19.53122 -72.562905
-8.339602 17.883738 -71.608143
-9.131103 18.725037 -71.898537
-8.420143 16.66648 -71.665039
-8.339602 17.883738 -71.608143
-8.385603 15.32744 -71.615276
-9.221504 16.189847 -71.992359
-8.420143 16.66648 -71.665039
-7.652145 14.36478 -71.196716
-8.453506 13.888147 -71.524036
-8.385603 15.32744 -71.615276
-6.901912 13.418258 -70.686192
-7.652145 14.36478 -71.196716
-6.83401 14.857551 -70.777432
-20.376494 -4.398404 -67.648487
-20.065444 -6.226978 -67.038406
3.76476 25.623568 -58.002869
4.324038 24.905596 -57.579338
3.76476 25.623568 -58.002869
3.107635 25.152777 -58.745495
-0.776963 21.201573 -64.41231
-0.665095 22.382988 -64.036158
-0.157771 21.374297 -63.56654
-0.776963 21.201573 -64.41231
-0.90406 20.009218 -64.812258
-1.001151 18.820321 -65.049405
-1.082144 17.686955 -65.261826
-2.202828 19.711608 -66.495057
-2.283821 18.578243 -66.707478
-2.769121 20.743 -66.966862
-2.202828 19.711608 -66.495057
-3.482494 20.589879 -67.74781
-2.769121 20.743 -66.966862
-4.189548 20.433246 -68.49231
-3.482494 20.589879 -67.74781
-3.574228 19.441029 -68.052788
-4.952872 20.342478 -69.166363
-4.189548 20.433246 -68.49231
-5.057356 19.121105 -69.452095
-4.952872 20.342478 -69.166363
-5.136815 17.919665 -69.612942
-5.057356 19.121105 -69.452095
-4.360741 18.082957 -68.958134
-5.211982 16.680838 -69.728961
-5.908596 17.718986 -70.222923
-5.136815 17.919665 -69.612942
1.569323 9.65184 -60.233944
2.065968 9.672069 -59.409111
1.824893 8.422079 -59.487877
1.266536 10.812964 -61.03281
1.569323 9.65184 -60.233944
1.025461 9.562973 -61.111576
-0.118337 11.856343 -63.45598
0.377023 11.949061 -62.680101
0.227314 10.631379 -62.686321
-0.477819 12.993083 -64.186286
-0.118337 11.856343 -63.45598
-2.924088 11.219729 -67.122974
-2.778948 12.533591 -67.159763
-3.085441 9.979824 -67.066159
-3.240784 8.717446 -66.952396
-3.54581 11.061038 -67.761299
-2.924088 11.219729 -67.122974
-3.085441 9.979824 -67.066159
-3.849701 0.587059 -64.976677
-3.741526 2.006311 -65.400044
-4.419796 0.19497 -65.349804
-3.849701 0.587059 -64.976677
-5.040192 -0.19875 -65.687313
-4.946708 1.247764 -66.165367
-4.419796 0.19497 -65.349804
-5.63698 -0.620763 -65.967895
-5.040192 -0.19875 -65.687313
-5.110069 -1.673557 -65.152332
-6.304613 -4.08599 -64.969761
-6.282587 -2.695934 -65.537453
-5.728883 -3.485626 -64.865223
-6.30094 -5.406395 -64.405548
-6.854645 -4.616704 -65.077778
-6.304613 -4.08599 -64.969761
-6.354304 -6.786081 -63.841879
-6.30094 -5.406395 -64.405548
-6.860006 -7.319786 -63.911741
-6.354304 -6.786081 -63.841879
-20.654667 -2.6042 -68.249527
-20.845088 -0.820814 -68.789299
-19.558723 -2.919068 -68.224201
-20.376494 -4.398404 -67.648487
-20.654667 -2.6042 -68.249527
-17.806429 17.354535 -72.566971
-16.776472 18.384999 -72.666851
-17.806429 17.354535 -72.566971
-17.748759 15.893008 -72.612652
-17.650547 11.488774 -72.256931
-17.684226 12.984338 -72.449028
-16.629445 12.571575 -72.522251
-18.603859 10.321162 -71.932651
-17.650547 11.488774 -72.256931
-17.549078 9.908399 -72.005875
-19.534099 9.019389 -71.542393
-18.603859 10.321162 -71.932651
-19.488968 7.307452 -71.204136
-19.534099 9.019389 -71.542393
-19.41609 5.585242 -70.804058
-19.488968 7.307452 -71.204136
-18.429512 7.018577 -71.281517
-19.252079 3.928284 -70.401909
-20.311535 4.217158 -70.324528
-19.41609 5.585242 -70.804058
-17.540734 -3.606444 -68.024109
-18.274428 -5.045829 -67.496269
-18.546856 -3.273887 -68.151001
-16.58941 -3.982592 -67.858666
-17.540734 -3.606444 -68.024109
-16.861838 -2.210651 -68.513397
-15.62787 -4.346388 -67.640583
-16.306767 -5.742181 -67.151295
-16.58941 -3.982592 -67.858666
-9.029466 -7.935397 -64.621859
-9.588563 -8.91062 -64.380811
-9.75372 -7.504301 -65.068203
-8.563095 -7.025734 -64.833634
-8.633394 -5.570241 -65.499946
-8.001867 -6.066897 -65.02433
-9.029466 -7.935397 -64.621859
-8.563095 -7.025734 -64.833634
3 0 35 33
3 0 37 35
3 0 39 37
3 1 42 40
3 1 44 42
3 2 119 120
3 2 121 122
3 123 46 124
3 126 125 46
3 4 127 129
3 129 128 48
3 127 128 129
3 4 130 131
3 4 132 133
3 3 134 136
3 134 52 135
3 134 135 136
3 6 55 53
3 6 57 55
3 6 59 57
3 5 62 60
3 5 64 62
3 7 137 138
3 7 139 141
3 139 65 140
3 139 140 141
3 8 142 143
3 9 66 34
3 9 144 146
3 146 145 66
3 144 145 146
3 9 147 149
3 147 68 148
3 147 148 149
3 10 69 36
3 10 70 69
3 10 72 70
3 12 73 38
3 12 74 73
3 13 77 75
3 15 78 41
3 15 79 78
3 15 81 79
3 17 82 43
3 17 83 82
3 18 150 152
3 150 84 151
3 150 151 152
3 18 85 84
3 19 153 155
3 155 154 45
3 153 154 155
3 19 156 158
3 156 86 157
3 156 157 158
3 19 88 86
3 160 159 47
3 161 89 162
3 163 90 164
3 165 164 89
3 163 164 165
3 21 166 167
3 21 168 170
3 168 91 169
3 168 169 170
3 172 171 67
3 11 173 175
3 175 174 71
3 173 174 175
3 22 176 178
3 176 92 177
3 176 177 178
3 22 93 92
3 22 94 93
3 23 95 49
3 23 96 95
3 20 97 87
3 179 98 180
3 182 181 98
3 24 183 185
3 183 99 184
3 183 184 185
3 24 100 99
3 24 101 100
3 25 102 50
3 25 103 102
3 186 104 187
3 189 188 104
3 27 190 191
3 27 192 194
3 192 105 193
3 192 193 194
3 28 195 197
3 197 196 51
3 195 196 197
3 28 198 199
3 14 106 76
3 29 107 54
3 29 108 107
3 29 109 108
3 30 110 56
3 30 111 110
3 30 112 111
3 31 113 58
3 31 114 113
3 16 115 80
3 32 116 61
3 32 117 116
3 32 118 117
3 26 200 202
3 202 201 63
3 200 201 202
3 26 203 204
3 33 34 8
3 35 34 33
3 35 9 34
3 35 36 9
3 37 36 35
3 37 10 36
3 37 38 10
3 39 38 37
3 39 12 38
3 40 41 13
3 42 41 40
3 42 15 41
3 42 43 15
3 44 43 42
3 44 17 43
3 205 18 206
3 207 45 208
3 46 209 211
3 209 45 210
3 209 210 211
3 46 19 45
3 46 47 19
3 212 47 213
3 214 213 46
3 212 213 214
3 216 215 47
3 217 21 218
3 48 219 220
3 222 221 48
3 224 223 11
3 225 22 226
3 227 49 228
3 229 228 22
3 227 228 229
3 230 49 231
3 232 23 233
3 234 233 49
3 232 233 234
3 236 235 20
3 237 24 238
3 239 50 240
3 241 240 24
3 239 240 241
3 242 50 243
3 244 25 245
3 246 245 50
3 244 245 246
3 247 27 248
3 249 51 250
3 52 251 253
3 251 51 252
3 251 252 253
3 52 28 51
3 53 54 14
3 55 54 53
3 55 29 54
3 55 56 29
3 57 56 55
3 57 30 56
3 57 58 30
3 59 58 57
3 59 31 58
3 60 61 16
3 62 61 60
3 62 32 61
3 62 63 32
3 64 63 62
3 64 26 63
3 65 254 255
3 65 256 257
3 34 258 260
3 260 259 8
3 258 259 260
3 66 261 263
3 263 262 34
3 261 262 263
3 66 264 265
3 66 266 267
3 269 268 66
3 270 67 271
3 68 272 274
3 272 67 273
3 272 273 274
3 68 275 277
3 277 276 67
3 275 276 277
3 36 68 9
3 69 68 36
3 69 278 280
3 280 279 68
3 278 279 280
3 69 281 283
3 281 48 282
3 281 282 283
3 70 48 69
3 70 4 48
3 70 71 4
3 72 71 70
3 72 11 71
3 38 72 10
3 73 72 38
3 73 11 72
3 73 284 286
3 286 285 11
3 284 285 286
3 74 287 289
3 289 288 73
3 287 288 289
3 74 290 291
3 75 76 3
3 77 76 75
3 77 14 76
3 41 77 13
3 78 77 41
3 78 14 77
3 78 53 14
3 79 53 78
3 79 6 53
3 79 80 6
3 81 80 79
3 81 16 80
3 43 81 15
3 82 81 43
3 82 16 81
3 82 60 16
3 83 60 82
3 83 5 60
3 84 292 293
3 84 294 295
3 84 296 297
3 85 298 300
3 300 299 84
3 298 299 300
3 85 301 303
3 301 7 302
3 301 302 303
3 304 8 305
3 45 306 307
3 309 308 45
3 310 8 311
3 312 33 313
3 314 313 8
3 312 313 314
3 86 315 317
3 315 33 316
3 315 316 317
3 86 0 33
3 86 87 0
3 88 87 86
3 88 20 87
3 47 88 19
3 318 88 319
3 320 319 47
3 318 319 320
3 321 20 322
3 323 322 88
3 321 322 323
3 325 324 20
3 326 3 327
3 89 328 329
3 89 330 332
3 330 3 331
3 330 331 332
3 89 75 3
3 90 75 89
3 90 13 75
3 333 90 334
3 335 90 336
3 337 13 338
3 339 338 90
3 337 338 339
3 340 40 341
3 342 341 13
3 340 341 342
3 91 343 345
3 343 40 344
3 343 344 345
3 91 1 40
3 346 2 347
3 67 348 349
3 351 350 67
3 71 352 354
3 354 353 4
3 352 353 354
3 356 355 71
3 358 357 11
3 92 359 360
3 92 361 362
3 92 363 364
3 93 365 367
3 367 366 92
3 365 366 367
3 93 368 369
3 93 370 371
3 94 372 374
3 374 373 93
3 372 373 374
3 94 375 377
3 375 21 376
3 375 376 377
3 49 94 22
3 95 94 49
3 95 21 94
3 95 91 21
3 96 91 95
3 96 1 91
3 87 39 0
3 97 39 87
3 97 12 39
3 378 97 379
3 380 379 20
3 378 379 380
3 98 381 383
3 381 97 382
3 381 382 383
3 98 12 97
3 98 74 12
3 384 74 385
3 386 385 98
3 384 385 386
3 388 387 74
3 389 23 390
3 99 391 392
3 99 393 395
3 393 23 394
3 393 394 395
3 99 96 23
3 100 96 99
3 100 1 96
3 100 44 1
3 101 44 100
3 101 17 44
3 50 101 24
3 102 101 50
3 102 17 101
3 102 83 17
3 103 83 102
3 103 5 83
3 396 25 397
3 398 25 399
3 400 103 401
3 402 401 25
3 400 401 402
3 104 403 405
3 403 103 404
3 403 404 405
3 104 5 103
3 104 64 5
3 406 64 407
3 408 407 104
3 406 407 408
3 409 26 410
3 411 410 64
3 409 410 411
3 412 26 413
3 415 414 26
3 105 416 417
3 105 418 420
3 418 2 419
3 418 419 420
3 51 421 422
3 424 423 51
3 76 52 3
3 106 52 76
3 106 28 52
3 54 106 14
3 107 106 54
3 107 28 106
3 107 425 427
3 427 426 28
3 425 426 427
3 108 428 430
3 430 429 107
3 428 429 430
3 108 431 432
3 108 433 434
3 109 435 437
3 437 436 108
3 435 436 437
3 109 438 440
3 438 27 439
3 438 439 440
3 56 109 29
3 110 109 56
3 110 27 109
3 110 105 27
3 111 105 110
3 111 2 105
3 111 441 443
3 443 442 2
3 441 442 443
3 112 444 446
3 446 445 111
3 444 445 446
3 112 447 449
3 447 18 448
3 447 448 449
3 58 112 30
3 113 112 58
3 113 18 112
3 113 85 18
3 114 85 113
3 114 7 85
3 80 59 6
3 115 59 80
3 115 31 59
3 61 115 16
3 116 115 61
3 116 31 115
3 116 114 31
3 117 114 116
3 117 7 114
3 117 65 7
3 118 65 117
3 118 450 452
3 452 451 65
3 450 451 452
3 63 118 32
3 453 118 454
3 455 454 63
3 453 454 455
3 457 456 118
