ply
format ascii 1.0
element vertex 265
property float x
property float y
property float z
element face 238
property list uchar int vertex_index
end_header
-5.587218 9.870329 55.928837
16.347269 21.786613 65.487411
8.954453 17.128925 62.963459
-1.2367 22.917229 55.013878
5.131239 15.32574 61.223057
8.526821 11.201527 64.337936
12.331484 12.901729 65.975815
-8.575659 12.7699 53.054028
-5.310946 14.860848 54.830627
-1.60626 17.100113 56.608215
-2.085869 11.592557 57.820107
2.063878 19.193094 58.223732
5.70697 21.344217 59.735775
9.557348 23.719343 61.305977
12.701675 19.468105 64.399826
-3.018609 21.429667 54.408543
6.353403 7.617781 64.015182
6.647957 10.264968 63.500031
-8.592649 10.296899 53.661869
-7.001745 11.386422 54.551796
-7.001916 13.954224 53.897278
-5.363682 12.279234 55.468639
-3.631554 13.320566 56.358913
14.786394 24.250963 64.068481
-0.053431 15.397236 58.062397
0.246944 18.063341 57.467945
1.858381 16.222969 58.994831
7.091933 16.31937 62.102158
5.406367 18.31646 60.505096
7.392858 19.35927 61.378273
7.577421 22.414747 60.525356
9.272155 20.573002 62.127491
11.121367 21.632908 62.888435
10.84669 18.286652 63.716511
0.672829 23.884741 55.831581
5.099632 12.458028 62.002502
6.88274 13.270123 62.833878
8.823576 14.020451 63.756672
10.673248 15.112896 64.504509
10.478308 11.883064 65.252014
-6.860767 16.643291 53.28759
-5.019484 17.600389 54.275173
-3.267278 18.58996 55.124386
-3.486056 15.93237 55.746822
-1.950447 14.386136 57.157684
-1.469747 19.864492 55.861492
0.33388 20.879339 56.641369
2.232853 22.209249 57.346588
3.56471 17.323627 59.700146
3.87967 20.144201 59.01722
4.159291 23.251785 58.156475
6.038833 24.480921 58.885025
11.402688 24.978842 62.003124
12.959227 22.824266 63.557644
14.587009 20.503637 65.066559
12.609243 16.118982 65.275185
14.283528 17.127556 65.841286
-3.933809 20.884147 53.996389
-3.832122 22.335983 53.60253
7.322696 7.960695 64.481887
7.102532 6.636182 64.684658
-6.294481 10.628376 55.240317
-7.025659 10.182977 54.837895
-6.318395 9.424931 55.526415
-4.753699 10.386782 56.362959
-4.641931 11.591235 56.13286
-5.47545 11.074782 55.698738
16.510501 23.544258 65.041359
15.730063 24.776433 64.331894
15.566831 23.018788 64.777946
1.700387 14.889917 59.276018
0.902475 15.810102 58.528614
0.74448 14.477051 58.809801
-1.008098 24.382198 54.635006
-1.980341 23.727976 54.282669
-0.281935 23.400985 55.42273
-0.053333 24.865953 55.043858
-1.008098 24.382198 54.635006
4.895269 11.052534 62.257144
4.111756 11.947119 61.549228
-9.364463 12.248792 52.578778
-9.372958 11.012291 52.882698
-8.584154 11.533399 53.357949
-9.363381 13.520589 52.261854
-9.364463 12.248792 52.578778
-8.538158 14.07134 52.749804
-9.363381 13.520589 52.261854
-1.199451 12.131407 58.238014
-1.13174 13.528196 57.906803
-2.018158 12.989346 57.488895
4.347974 16.324683 60.461602
3.486949 15.810885 60.090964
4.270213 14.811941 60.852419
8.73125 24.741616 60.452518
7.741287 24.089318 60.062208
8.567384 23.067045 60.915667
9.685236 25.420592 60.810989
8.73125 24.741616 60.452518
10.480018 24.349092 61.65455
10.607906 26.050341 61.159563
9.685236 25.420592 60.810989
15.116459 15.935405 66.514027
14.215892 15.498704 66.232227
15.203083 17.686384 66.100677
15.116459 15.935405 66.514027
-2.871295 22.984195 53.980002
-3.832122 22.335983 53.60253
-2.127655 22.173448 54.71121
-1.980341 23.727976 54.282669
-2.871295 22.984195 53.980002
6.50068 8.941375 63.757606
5.669432 9.956004 63.005909
5.522155 8.632411 63.263484
7.469973 9.284288 64.224312
6.50068 8.941375 63.757606
7.322696 7.960695 64.481887
8.409405 9.752568 64.643265
7.587389 10.733248 63.918983
7.469973 9.284288 64.224312
9.34713 10.104813 65.07323
8.409405 9.752568 64.643265
-7.82111 9.638216 54.392931
-8.597558 9.185074 53.936665
-7.82602 8.526391 54.667727
-7.797197 10.84166 54.106833
-7.82111 9.638216 54.392931
-7.025659 10.182977 54.837895
-3.775867 12.111901 56.577997
-4.497618 12.7999 55.913776
-4.641931 11.591235 56.13286
-3.003025 11.247896 57.308594
-2.858712 12.456561 57.08951
-3.775867 12.111901 56.577997
14.908554 25.962981 63.587492
13.958039 25.392585 63.275446
14.908554 25.962981 63.587492
15.730063 24.776433 64.331894
14.09375 12.21331 67.005516
13.23987 13.385791 66.299492
13.185364 11.729248 66.681839
-5.615132 8.730498 56.197291
-6.318395 9.424931 55.526415
-4.817125 9.212691 56.620149
-5.615132 8.730498 56.197291
17.284054 22.266369 65.689896
17.128494 20.522296 66.114364
0.834247 25.473526 55.349911
-0.053333 24.865953 55.043858
1.593613 24.539846 56.153046
0.834247 25.473526 55.349911
4.254409 13.378086 61.242142
4.111756 11.947119 61.549228
5.115436 13.891884 61.61278
4.270213 14.811941 60.852419
4.254409 13.378086 61.242142
5.873794 11.361498 62.751266
4.895269 11.052534 62.257144
5.669432 9.956004 63.005909
10.322874 10.445581 65.53027
9.502565 11.542295 64.794975
9.34713 10.104813 65.07323
11.336872 10.794476 65.977356
10.322874 10.445581 65.53027
12.26346 11.303808 66.339257
11.404896 12.392397 65.613914
11.336872 10.794476 65.977356
13.11734 10.131327 67.04528
13.185364 11.729248 66.681839
12.26346 11.303808 66.339257
-9.366112 9.782516 53.194754
-9.371022 8.670691 53.469549
-8.597558 9.185074 53.936665
-10.146421 10.497909 52.415582
-9.366112 9.782516 53.194754
-9.372958 11.012291 52.882698
-7.751287 14.663502 53.171429
-8.538158 14.07134 52.749804
-7.788787 13.362062 53.475653
-7.680713 16.008036 52.866585
-7.751287 14.663502 53.171429
-6.931342 15.298758 53.592434
-7.675308 17.288228 52.530039
-7.680713 16.008036 52.866585
-6.776415 17.916576 52.990654
-7.675308 17.288228 52.530039
-5.855773 18.395125 53.484445
-6.776415 17.916576 52.990654
-5.940126 17.12184 53.781382
-4.934247 18.969508 53.929704
-5.855773 18.395125 53.484445
-4.143381 18.095174 54.69978
-4.058144 19.464294 54.354311
-4.934247 18.969508 53.929704
-0.183231 14.033746 58.359159
-1.001939 14.891686 57.61004
-1.13174 13.528196 57.906803
0.74448 14.477051 58.809801
-0.183231 14.033746 58.359159
-4.753699 10.386782 56.362959
-4.817125 9.212691 56.620149
-2.220423 10.42072 58.037397
-3.003025 11.247896 57.308594
-1.334369 10.766171 58.51635
-2.220423 10.42072 58.037397
-1.199451 12.131407 58.238014
-1.334369 10.766171 58.51635
5.41048 7.309042 63.541131
5.522155 8.632411 63.263484
6.113362 6.350419 64.192142
5.41048 7.309042 63.541131
5.170439 6.04168 63.718091
7.102532 6.636182 64.684658
6.113362 6.350419 64.192142
16.510501 23.544258 65.041359
17.284054 22.266369 65.689896
-3.142944 20.009813 54.766464
-3.933809 20.884147 53.996389
-4.058144 19.464294 54.354311
2.373625 23.702101 56.910549
1.593613 24.539846 56.153046
1.452841 23.046995 56.589084
2.633784 15.260556 59.738306
1.700387 14.889917 59.276018
2.711545 16.773298 59.347488
2.633784 15.260556 59.738306
3.486949 15.810885 60.090964
3.336844 24.223368 57.315493
2.373625 23.702101 56.910549
3.196072 22.730517 57.751531
4.309594 24.886138 57.669335
3.336844 24.223368 57.315493
5.249365 25.500706 58.033609
4.309594 24.886138 57.669335
5.099062 23.866353 58.52075
6.191986 26.220884 58.357319
5.249365 25.500706 58.033609
6.971993 25.122405 59.242042
6.808127 23.447834 59.705191
7.741287 24.089318 60.062208
6.191986 26.220884 58.357319
6.971993 25.122405 59.242042
11.44377 26.721868 61.436237
10.607906 26.050341 61.159563
12.266185 25.756525 62.242767
11.44377 26.721868 61.436237
13.044455 24.679237 63.020027
12.266185 25.756525 62.242767
12.180957 23.901554 62.780384
13.87281 23.537615 63.813063
13.958039 25.392585 63.275446
13.044455 24.679237 63.020027
13.378749 14.994418 65.949177
12.470363 14.510355 65.6255
13.23987 13.385791 66.299492
13.446385 16.623269 65.558235
13.378749 14.994418 65.949177
14.215892 15.498704 66.232227
15.354823 19.374425 65.713314
14.435268 18.815596 65.453923
15.203083 17.686384 66.100677
16.234953 20.015913 65.92374
15.467139 21.145125 65.276985
15.354823 19.374425 65.713314
17.128494 20.522296 66.114364
16.234953 20.015913 65.92374
3 57 15 58
3 60 59 16
3 0 61 63
3 61 19 62
3 61 62 63
3 0 21 19
3 0 64 66
3 66 65 21
3 64 65 66
3 1 67 69
3 69 68 23
3 67 68 69
3 70 26 71
3 72 71 24
3 70 71 72
3 2 29 27
3 2 31 29
3 2 33 31
3 3 73 74
3 3 75 77
3 75 34 76
3 75 76 77
3 78 35 79
3 5 36 17
3 5 37 36
3 5 39 37
3 7 80 82
3 82 81 18
3 80 81 82
3 7 83 84
3 7 85 86
3 8 40 20
3 8 41 40
3 8 43 41
3 10 44 22
3 10 87 89
3 89 88 44
3 87 88 89
3 9 45 42
3 11 46 25
3 11 47 46
3 4 90 92
3 90 48 91
3 90 91 92
3 12 49 28
3 12 50 49
3 12 51 50
3 13 93 95
3 95 94 30
3 93 94 95
3 13 96 97
3 13 98 100
3 98 52 99
3 98 99 100
3 14 53 32
3 14 54 53
3 6 55 38
3 101 56 102
3 104 103 56
3 15 105 106
3 15 107 109
3 107 3 108
3 107 108 109
3 16 110 112
3 110 17 111
3 110 111 112
3 113 17 114
3 115 114 16
3 113 114 115
3 116 5 117
3 118 117 17
3 116 117 118
3 120 119 5
3 121 18 122
3 121 122 123
3 19 124 126
3 124 18 125
3 124 125 126
3 19 7 18
3 19 20 7
3 21 20 19
3 21 8 20
3 21 22 8
3 127 22 128
3 129 128 21
3 127 128 129
3 130 10 131
3 132 131 22
3 130 131 132
3 23 133 134
3 136 135 23
3 24 25 9
3 26 25 24
3 26 11 25
3 27 28 4
3 29 28 27
3 29 12 28
3 29 30 12
3 31 30 29
3 31 13 30
3 31 32 13
3 33 32 31
3 33 14 32
3 139 138 6
3 137 138 139
3 140 0 141
3 143 142 0
3 145 144 1
3 34 146 147
3 34 148 149
3 35 150 151
3 35 152 154
3 152 4 153
3 152 153 154
3 17 155 157
3 155 35 156
3 155 156 157
3 36 35 17
3 36 4 35
3 36 27 4
3 37 27 36
3 37 2 27
3 37 38 2
3 39 38 37
3 39 6 38
3 158 39 159
3 160 159 5
3 158 159 160
3 161 39 162
3 163 6 164
3 165 164 39
3 163 164 165
3 168 167 6
3 166 167 168
3 18 169 171
3 169 170 171
3 174 173 18
3 172 173 174
3 20 175 177
3 177 176 7
3 175 176 177
3 40 178 180
3 180 179 20
3 178 179 180
3 40 181 182
3 40 183 184
3 41 185 187
3 187 186 40
3 185 186 187
3 41 188 189
3 41 190 192
3 190 42 191
3 190 191 192
3 43 42 41
3 43 9 42
3 22 43 8
3 44 43 22
3 44 9 43
3 44 24 9
3 193 24 194
3 195 194 44
3 193 194 195
3 197 196 24
3 199 198 0
3 200 10 201
3 202 10 203
3 205 204 10
3 206 16 207
3 208 16 209
3 208 209 210
3 212 211 16
3 214 213 1
3 42 215 217
3 215 15 216
3 215 216 217
3 45 15 42
3 45 3 15
3 25 45 9
3 46 45 25
3 46 3 45
3 46 34 3
3 47 34 46
3 47 218 220
3 220 219 34
3 218 219 220
3 221 26 222
3 48 223 225
3 223 26 224
3 223 224 225
3 48 11 26
3 28 48 4
3 49 48 28
3 49 11 48
3 49 47 11
3 50 47 49
3 50 226 228
3 228 227 47
3 226 227 228
3 50 229 230
3 51 231 233
3 233 232 50
3 231 232 233
3 51 234 235
3 30 51 12
3 236 51 237
3 238 237 30
3 236 237 238
3 240 239 51
3 52 241 242
3 52 243 244
3 32 52 13
3 53 52 32
3 53 245 247
3 247 246 52
3 245 246 247
3 53 248 250
3 248 23 249
3 248 249 250
3 54 23 53
3 54 1 23
3 38 33 2
3 55 33 38
3 55 14 33
3 251 55 252
3 253 252 6
3 251 252 253
3 56 254 256
3 254 55 255
3 254 255 256
3 56 14 55
3 56 54 14
3 257 54 258
3 259 258 56
3 257 258 259
3 260 1 261
3 262 261 54
3 260 261 262
3 264 263 1
