ply
format ascii 1.0
element vertex 91
property float x
property float y
property float z
element face 59
property list uchar int vertex_index
end_header
19.503742 -84.721771 -32.366146
12.844696 -84.257057 -37.918404
17.90452 -78.139366 -33.665016
17.760523 -91.137077 -33.945873
18.563049 -86.624626 -33.426643
16.854282 -79.923065 -34.833282
16.12274 -92.543304 -35.033203
16.539288 -85.125084 -35.252239
17.759859 -83.391434 -34.133255
18.724796 -81.344254 -33.02639
18.457818 -90.360024 -33.358965
17.506431 -89.6852 -34.268901
17.907694 -87.428974 -34.009287
18.859081 -88.103798 -33.09935
14.968004 -91.585296 -35.92258
15.099085 -93.000061 -35.5961
15.908143 -91.071968 -35.372301
14.968004 -91.585296 -35.92258
20.307195 -85.296436 -31.386366
19.9311 -86.321579 -31.923488
19.914986 -83.726128 -31.784201
20.307195 -85.296436 -31.386366
13.115067 -85.943482 -37.654896
11.90768 -84.633888 -38.430638
13.978545 -85.377201 -37.121015
13.115067 -85.943482 -37.654896
16.146425 -83.348423 -35.555018
15.481942 -84.111103 -36.071888
16.756711 -82.481598 -34.995525
17.149573 -84.258259 -34.692747
16.146425 -83.348423 -35.555018
18.780524 -78.841949 -32.705285
19.190662 -80.444394 -32.385972
18.314658 -79.74181 -33.345703
18.274323 -77.045567 -33.131332
18.780524 -78.841949 -32.705285
18.72935 -91.834694 -32.949652
17.952182 -92.567997 -33.565579
18.72935 -91.834694 -32.949652
18.457818 -90.360024 -33.358965
19.460754 -87.273007 -32.453736
18.859081 -88.103798 -33.09935
19.033395 -85.673199 -32.896394
19.9311 -86.321579 -31.923488
19.460754 -87.273007 -32.453736
11.610445 -82.893726 -38.682755
11.90768 -84.633888 -38.430638
15.820664 -78.818802 -35.680398
16.303922 -80.747413 -35.345539
16.456487 -78.14664 -35.097501
15.820664 -78.818802 -35.680398
16.981606 -77.254791 -34.513368
17.379401 -79.031216 -34.249149
16.456487 -78.14664 -35.097501
17.42088 -76.252029 -34.005335
16.981606 -77.254791 -34.513368
16.278105 -93.868568 -34.640503
15.099085 -93.000061 -35.5961
17.133291 -93.271111 -34.109244
16.278105 -93.868568 -34.640503
16.941631 -91.840191 -34.489538
17.952182 -92.567997 -33.565579
17.133291 -93.271111 -34.109244
16.727034 -90.368854 -34.828636
16.941631 -91.840191 -34.489538
15.908143 -91.071968 -35.372301
17.506431 -89.6852 -34.268901
16.727034 -90.368854 -34.828636
12.465979 -82.450977 -38.198561
11.610445 -82.893726 -38.682755
13.634646 -83.677089 -37.404971
12.465979 -82.450977 -38.198561
13.978545 -85.377201 -37.121015
13.634646 -83.677089 -37.404971
15.825841 -85.811215 -35.787933
15.481942 -84.111103 -36.071888
16.895813 -86.679203 -34.922084
15.825841 -85.811215 -35.787933
17.551168 -85.874855 -34.339441
17.907694 -87.428974 -34.009287
16.895813 -86.679203 -34.922084
17.307071 -81.65725 -34.483268
16.756711 -82.481598 -34.995525
16.303922 -80.747413 -35.345539
19.525514 -82.037369 -32.114323
19.914986 -83.726128 -31.784201
19.114269 -83.033013 -32.696268
19.525514 -82.037369 -32.114323
19.190662 -80.444394 -32.385972
18.274323 -77.045567 -33.131332
17.42088 -76.252029 -34.005335
3 11 10 3
3 12 4 13
3 14 6 15
3 17 16 6
3 0 18 19
3 0 20 21
3 1 22 23
3 1 24 25
3 26 7 27
3 28 8 29
3 30 29 7
3 28 29 30
3 2 9 5
3 2 31 33
3 33 32 9
3 31 32 33
3 2 34 35
3 3 36 37
3 39 38 3
3 4 40 41
3 4 42 44
3 42 0 43
3 42 43 44
3 45 1 46
3 47 5 48
3 49 5 50
3 51 2 52
3 53 52 5
3 51 52 53
3 55 54 2
3 6 56 57
3 6 58 59
3 6 60 62
3 60 3 61
3 60 61 62
3 63 3 64
3 65 64 6
3 63 64 65
3 67 66 3
3 68 1 69
3 70 1 71
3 73 72 1
3 7 74 75
3 7 76 77
3 7 78 80
3 78 4 79
3 78 79 80
3 8 4 7
3 8 0 4
3 5 81 83
3 81 8 82
3 81 82 83
3 9 8 5
3 9 0 8
3 9 84 86
3 86 85 0
3 84 85 86
3 88 87 9
3 90 89 2
