ply
format ascii 1.0
element vertex 375
property float x
property float y
property float z
element face 300
property list uchar int vertex_index
end_header
-7.702896 -16.886509 -42.25375
0.5548 -5.926605 -56.475021
6.733288 -21.913244 -57.417297
-2.785696 -12.322133 -49.095417
-1.063585 -19.281502 -50.507858
-8.921474 -22.108322 -39.573311
-6.10212 -20.3703 -43.001514
-0.708675 -3.489205 -55.087608
-2.363856 -6.759623 -51.426079
-0.993494 -9.481371 -52.675064
1.010359 -16.184998 -54.27874
5.09691 -30.57962 -53.699284
0.772224 0.269692 -58.9641
3.416296 -25.558735 -54.17783
-5.035266 -15.16153 -45.492462
-0.313185 -23.653267 -50.944824
-7.479469 -21.476006 -41.219223
-6.844587 -18.767365 -42.541447
-0.015407 -4.694543 -55.878014
-0.787547 -6.344474 -53.994648
5.924092 -26.152817 -55.529606
6.920376 -28.525734 -55.208832
0.785864 3.281712 -60.006958
1.565351 2.026477 -60.917099
1.537877 5.146084 -61.881367
2.553969 -29.582937 -52.443626
1.894538 -27.229998 -52.526093
-11.096439 -25.037466 -36.742275
-12.662298 -25.362011 -35.140202
-2.482432 -9.556389 -50.341003
-3.352441 -8.20309 -49.659512
-3.453541 -10.889563 -48.64222
-3.838731 -13.852109 -47.27655
-4.281425 -16.791893 -45.977463
-3.208428 -15.245732 -47.76619
-1.784299 -22.756624 -48.974686
-1.544715 -25.140055 -49.096497
-0.687689 -21.315855 -50.789398
1.487695 -18.462677 -54.328495
-8.237055 -24.189396 -39.883511
-1.427804 -2.128966 -54.402439
-1.537685 -5.207825 -53.158585
-1.573426 -8.037682 -52.165604
-1.817818 -10.925265 -50.918324
-2.253404 -13.882366 -49.485233
-0.047427 -17.916796 -52.328354
0.013434 -1.643433 -56.97023
0.746679 -2.78056 -57.868763
1.477161 -1.032351 -59.718678
4.274629 -27.901854 -54.049484
4.993495 -23.817327 -55.781727
-6.291903 -16.246288 -43.832161
-5.479628 -17.845926 -44.273777
-4.915319 -19.601425 -44.605843
0.023568 -26.220226 -50.917969
0.441343 -19.838053 -52.652508
0.874867 -22.144991 -52.70406
1.340593 -24.798794 -52.602962
2.711498 -23.288736 -54.272991
-7.948681 -18.229236 -41.605717
-8.434777 -17.301227 -41.445469
-7.273741 -17.826937 -42.397599
-7.519527 -19.169665 -41.749566
-7.948681 -18.229236 -41.605717
0.183762 -6.921663 -55.506547
-0.101342 -6.305632 -55.208044
0.269697 -5.310574 -56.176518
0.486598 -7.538231 -55.852363
0.11556 -8.533288 -54.88389
0.183762 -6.921663 -55.506547
0.877625 -6.768983 -56.750919
0.486598 -7.538231 -55.852363
7.201586 -23.111866 -57.203224
6.796988 -25.231652 -56.259378
6.32869 -24.03303 -56.473451
7.576853 -21.002759 -58.147892
7.201586 -23.111866 -57.203224
0.739185 4.753251 -60.392351
0.395629 3.863291 -59.518147
1.115191 5.685437 -61.329555
1.161871 4.213898 -60.944162
0.739185 4.753251 -60.392351
1.139929 -28.040296 -51.665501
1.432843 -29.261696 -51.680693
-11.532287 -26.24916 -36.062048
-10.82369 -26.182534 -36.809305
-1.601993 -20.10029 -49.546604
-1.809199 -19.251283 -49.329109
-1.270791 -18.432495 -50.290363
-1.423942 -21.019063 -49.741272
-1.96235 -21.837851 -48.780018
-1.601993 -20.10029 -49.546604
-9.6546 -22.369511 -38.788576
-9.373209 -21.106932 -39.414934
-9.297214 -23.390395 -38.915876
-9.6546 -22.369511 -38.788576
-8.579265 -23.148859 -39.728411
-8.955005 -24.430932 -39.070977
-9.297214 -23.390395 -38.915876
-6.507919 -21.836405 -42.273375
-7.196594 -22.389257 -41.382229
-6.790795 -20.923153 -42.110368
-5.902607 -21.327234 -43.093159
-6.507919 -21.836405 -42.273375
-1.185746 -11.082828 -51.925258
-1.597908 -11.804775 -51.046888
-1.405656 -10.203318 -51.796694
5.555236 -31.865823 -53.531568
4.601017 -32.684641 -52.84816
7.375006 -29.93862 -54.934954
7.848705 -27.678663 -55.870785
0.392829 -0.68687 -57.967165
0.035703 -0.081791 -57.549074
0.415099 0.874772 -58.546009
1.960942 1.501698 -61.360946
1.982657 3.088017 -61.921594
-13.463185 -25.422292 -34.35837
-13.090148 -26.566517 -34.453522
-2.796895 -6.085645 -51.104542
-2.319373 -5.29531 -51.998165
-3.813832 -7.407273 -49.417168
-3.874853 -8.889947 -48.827776
-5.424058 -14.270056 -45.363747
-4.794447 -13.7801 -46.183701
-5.663584 -15.703909 -44.662312
-6.052376 -14.812435 -44.533596
-5.424058 -14.270056 -45.363747
-4.347975 -18.974491 -45.479868
-4.598372 -18.196659 -45.291653
-4.031028 -17.569725 -46.165678
-4.701577 -20.469293 -44.771534
-4.347975 -18.974491 -45.479868
-2.494247 -15.392375 -48.812613
-2.041435 -14.80876 -49.636566
-0.802439 -25.62045 -50.05727
-1.418204 -26.363844 -49.133106
-0.92895 -24.396661 -50.02066
-0.144809 -24.936746 -50.931396
-0.634062 -26.90393 -50.043842
-0.802439 -25.62045 -50.05727
1.492595 -21.401941 -53.572176
1.181281 -20.303834 -53.516278
1.799009 -19.560783 -54.384394
1.725458 -22.728842 -53.521627
1.10773 -23.471893 -52.653511
1.492595 -21.401941 -53.572176
2.410911 -21.973813 -54.356641
2.026045 -24.043765 -53.437976
1.725458 -22.728842 -53.521627
-8.55797 -20.840143 -40.265497
-9.373209 -21.106932 -39.414934
-7.836968 -20.523985 -41.088453
-8.200471 -21.792164 -40.396267
-8.55797 -20.840143 -40.265497
-7.162028 -20.121686 -41.880335
-7.836968 -20.523985 -41.088453
-7.519527 -19.169665 -41.749566
-0.487411 -7.130597 -54.266361
-0.401477 -5.519509 -54.936331
-0.101342 -6.305632 -55.208044
-0.590385 -8.699046 -53.606569
-0.890521 -7.912922 -53.334856
-0.487411 -7.130597 -54.266361
-0.745105 -10.231204 -52.895296
-0.590385 -8.699046 -53.606569
7.29513 -26.418111 -56.098991
6.422234 -27.339275 -55.369219
6.796988 -25.231652 -56.259378
7.848705 -27.678663 -55.870785
7.29513 -26.418111 -56.098991
0.421918 2.380782 -59.067438
0.395629 3.863291 -59.518147
0.779044 1.775702 -59.485529
0.415099 0.874772 -58.546009
0.421918 2.380782 -59.067438
1.96892 4.647821 -62.403728
1.982657 3.088017 -61.921594
1.551614 3.58628 -61.399233
1.762558 -30.438166 -51.63946
2.062012 -31.815061 -51.564298
2.224254 -28.406467 -52.484859
1.762558 -30.438166 -51.63946
1.432843 -29.261696 -51.680693
-11.879368 -25.199738 -35.941238
-12.306077 -24.119009 -35.803437
-11.523148 -23.956736 -36.604473
-12.315217 -26.411433 -35.261012
-11.879368 -25.199738 -35.941238
-11.532287 -26.24916 -36.062048
-13.090148 -26.566517 -34.453522
-12.315217 -26.411433 -35.261012
-3.925403 -10.233184 -48.31913
-3.874853 -8.889947 -48.827776
-3.402991 -9.546326 -49.150866
-4.003584 -11.644116 -47.758579
-3.925403 -10.233184 -48.31913
-4.196179 -13.125389 -47.075744
-4.003584 -11.644116 -47.758579
-3.646136 -12.370836 -47.959385
-4.436998 -14.50682 -46.384506
-4.794447 -13.7801 -46.183701
-4.196179 -13.125389 -47.075744
-3.49453 -16.796644 -47.060041
-4.031028 -17.569725 -46.165678
-3.744927 -16.018813 -46.871826
-2.342529 -23.509004 -48.064445
-1.96235 -21.837851 -48.780018
-2.262749 -24.700101 -48.134676
-2.342529 -23.509004 -48.064445
-1.664507 -23.948339 -49.035591
-2.142957 -25.891817 -48.195582
-2.262749 -24.700101 -48.134676
1.795942 -16.519054 -55.251032
1.249027 -17.323837 -54.303618
1.557274 -15.380215 -55.226154
2.106114 -17.595405 -55.277176
1.795942 -16.519054 -55.251032
2.414361 -15.651781 -56.199713
1.799009 -19.560783 -54.384394
2.106114 -17.595405 -55.277176
-10.742083 -23.834083 -37.373058
-11.523148 -23.956736 -36.604473
-10.384697 -24.854967 -37.500359
-10.742083 -23.834083 -37.373058
-10.82369 -26.182534 -36.809305
-10.384697 -24.854967 -37.500359
-8.673941 -25.526246 -39.20352
-8.955005 -24.430932 -39.070977
-7.98554 -25.158029 -40.051209
-8.673941 -25.526246 -39.20352
-7.575387 -23.745953 -40.714373
-7.858262 -22.832701 -40.551367
-7.196594 -22.389257 -41.382229
-7.98554 -25.158029 -40.051209
-7.575387 -23.745953 -40.714373
-1.851347 -2.979981 -53.486345
-1.880386 -1.555553 -53.950655
-1.906287 -4.51941 -52.864418
-1.851347 -2.979981 -53.486345
-1.482744 -3.668395 -53.780512
-1.95077 -5.983724 -52.292332
-2.319373 -5.29531 -51.998165
-1.906287 -4.51941 -52.864418
-1.815701 -13.283325 -50.330343
-2.035611 -12.403816 -50.201779
-1.597908 -11.804775 -51.046888
-2.041435 -14.80876 -49.636566
-1.815701 -13.283325 -50.330343
-1.185746 -11.082828 -51.925258
-0.745105 -10.231204 -52.895296
-0.772274 -17.568535 -51.270037
-1.270791 -18.432495 -50.290363
-0.264195 -16.886183 -52.180284
-0.555506 -18.599149 -51.418106
-0.772274 -17.568535 -51.270037
0.225529 -16.139032 -53.144729
-0.264195 -16.886183 -52.180284
0.008761 -15.108419 -52.99666
0.754422 -15.273134 -54.119923
0.481466 -17.050897 -53.303547
0.225529 -16.139032 -53.144729
1.242339 -14.428979 -55.087215
0.754422 -15.273134 -54.119923
1.557274 -15.380215 -55.226154
1.242339 -14.428979 -55.087215
6.466969 -30.83888 -54.286343
5.555236 -31.865823 -53.531568
6.008643 -29.552677 -54.454058
6.466969 -30.83888 -54.286343
7.375006 -29.93862 -54.934954
-8.245112 -16.036915 -42.063164
-8.434777 -17.301227 -41.445469
-1.449452 -0.613284 -54.901659
-1.880386 -1.555553 -53.950655
-1.06031 -1.230571 -55.309034
-1.449452 -0.613284 -54.901659
-0.700746 -1.91069 -55.651619
-1.06824 -2.809086 -54.745024
-1.06031 -1.230571 -55.309034
-0.339691 -0.987804 -56.59293
0.035703 -0.081791 -57.549074
-0.347621 -2.566319 -56.028919
-0.700746 -1.91069 -55.651619
-0.339691 -0.987804 -56.59293
1.066922 -3.59279 -58.13558
0.970983 -5.165813 -57.438709
0.65074 -4.353582 -57.171892
1.432163 -2.718686 -59.060537
1.066922 -3.59279 -58.13558
1.11192 -1.906455 -58.79372
1.846741 -1.664486 -60.079329
1.432163 -2.718686 -59.060537
1.916847 -0.027716 -60.761736
1.521256 0.497063 -60.317888
1.960942 1.501698 -61.360946
1.846741 -1.664486 -60.079329
1.916847 -0.027716 -60.761736
1.524107 6.650341 -62.291592
1.115191 5.685437 -61.329555
1.962134 6.163877 -62.847634
1.524107 6.650341 -62.291592
1.96892 4.647821 -62.403728
1.962134 6.163877 -62.847634
4.208074 -31.366485 -52.983498
4.601017 -32.684641 -52.84816
2.936603 -30.868144 -52.355669
2.062012 -31.815061 -51.564298
3.796933 -30.027603 -53.158598
2.936603 -30.868144 -52.355669
3.414299 -28.742396 -53.246555
4.68577 -29.240737 -53.874384
4.208074 -31.366485 -52.983498
3.796933 -30.027603 -53.158598
-13.155434 -24.284371 -34.969935
-12.306077 -24.119009 -35.803437
-13.155434 -24.284371 -34.969935
-13.463185 -25.422292 -34.35837
-7.451657 -15.60471 -42.923508
-8.245112 -16.036915 -42.063164
-3.291187 -6.807378 -50.221259
-2.796895 -6.085645 -51.104542
-2.858148 -7.481357 -50.542795
-3.291187 -6.807378 -50.221259
-3.813832 -7.407273 -49.417168
-6.746161 -15.284599 -43.712713
-6.052376 -14.812435 -44.533596
-6.9974 -16.566398 -43.042955
-7.451657 -15.60471 -42.923508
-6.746161 -15.284599 -43.712713
-5.309206 -20.942797 -43.895323
-5.902607 -21.327234 -43.093159
-5.508719 -19.985862 -43.803679
-5.309206 -20.942797 -43.895323
-4.701577 -20.469293 -44.771534
-2.971759 -16.074058 -47.953091
-2.730916 -14.564049 -48.625712
-2.494247 -15.392375 -48.812613
-3.49453 -16.796644 -47.060041
-2.971759 -16.074058 -47.953091
-2.070047 -27.091903 -48.240814
-2.142957 -25.891817 -48.195582
-2.070047 -27.091903 -48.240814
-1.418204 -26.363844 -49.133106
-0.508447 -28.27053 -50.017823
-0.634062 -26.90393 -50.043842
0.204444 -27.53541 -50.861439
-0.508447 -28.27053 -50.017823
0.862956 -26.824694 -51.703936
0.204444 -27.53541 -50.861439
0.68208 -25.50951 -51.760465
1.617565 -26.014396 -52.564527
1.139929 -28.040296 -51.665501
0.862956 -26.824694 -51.703936
3.075264 -21.222696 -55.212072
2.410911 -21.973813 -54.356641
3.471999 -22.340535 -55.171183
3.075264 -21.222696 -55.212072
3.824399 -23.475535 -55.123602
3.063897 -24.423735 -54.22541
3.471999 -22.340535 -55.171183
4.612998 -22.60483 -55.92555
4.204896 -24.688031 -54.979778
3.824399 -23.475535 -55.123602
5.347929 -21.761351 -56.710509
4.612998 -22.60483 -55.92555
6.217826 -20.80931 -57.528294
5.863392 -22.865285 -56.599512
5.347929 -21.761351 -56.710509
0.877625 -6.768983 -56.750919
0.970983 -5.165813 -57.438709
7.001456 -19.926975 -58.29665
6.217826 -20.80931 -57.528294
6.485993 -18.823041 -58.407646
7.576853 -21.002759 -58.147892
7.001456 -19.926975 -58.29665
3 0 59 60
3 0 61 63
3 61 17 62
3 61 62 63
3 1 64 66
3 66 65 18
3 64 65 66
3 1 67 69
3 67 68 69
3 1 70 71
3 2 72 74
3 74 73 20
3 72 73 74
3 2 75 76
3 77 22 78
3 79 24 80
3 81 80 22
3 79 80 81
3 82 26 83
3 85 84 27
3 3 31 29
3 3 32 31
3 3 34 32
3 4 86 88
3 86 87 88
3 4 89 91
3 89 35 90
3 89 90 91
3 4 37 35
3 5 92 93
3 5 94 95
3 5 96 98
3 96 39 97
3 96 97 98
3 6 99 101
3 101 100 16
3 99 100 101
3 6 102 103
3 7 41 40
3 9 42 19
3 9 43 42
3 9 104 106
3 106 105 43
3 104 105 106
3 11 107 108
3 110 109 21
3 12 111 113
3 111 46 112
3 111 112 113
3 12 47 46
3 12 48 47
3 115 114 23
3 13 49 25
3 13 50 49
3 117 116 28
3 8 118 119
3 121 120 30
3 14 122 123
3 14 124 126
3 124 51 125
3 124 125 126
3 14 52 51
3 127 53 128
3 129 128 33
3 127 128 129
3 131 130 53
3 133 132 44
3 15 134 136
3 136 135 36
3 134 135 136
3 15 137 139
3 137 54 138
3 137 138 139
3 10 55 45
3 140 56 141
3 142 141 38
3 140 141 142
3 143 57 144
3 145 144 56
3 143 144 145
3 146 58 147
3 148 147 57
3 146 147 148
3 149 5 150
3 151 16 152
3 153 152 5
3 151 152 153
3 17 154 156
3 154 16 155
3 154 155 156
3 17 6 16
3 18 19 7
3 157 19 158
3 159 158 18
3 157 158 159
3 160 9 161
3 162 161 19
3 160 161 162
3 164 163 9
3 20 21 11
3 165 21 166
3 167 166 20
3 165 166 167
3 169 168 21
3 22 170 171
3 22 172 174
3 172 12 173
3 172 173 174
3 22 23 12
3 24 23 22
3 24 175 177
3 177 176 23
3 175 176 177
3 178 25 179
3 26 180 182
3 180 25 181
3 180 181 182
3 26 13 25
3 27 183 185
3 183 28 184
3 183 184 185
3 186 28 187
3 188 187 27
3 186 187 188
3 190 189 28
3 29 30 8
3 31 30 29
3 31 191 193
3 193 192 30
3 191 192 193
3 31 194 195
3 32 196 198
3 198 197 31
3 196 197 198
3 32 199 201
3 199 14 200
3 199 200 201
3 32 33 14
3 34 33 32
3 34 202 204
3 204 203 33
3 202 203 204
3 35 205 206
3 35 207 208
3 35 209 211
3 209 36 210
3 209 210 211
3 37 36 35
3 37 15 36
3 212 38 213
3 214 213 10
3 212 213 214
3 215 38 216
3 215 216 217
3 219 218 38
3 220 27 221
3 222 27 223
3 225 224 27
3 39 226 227
3 39 228 229
3 16 39 5
3 230 39 231
3 232 231 16
3 230 231 232
3 234 233 39
3 40 235 236
3 41 237 239
3 239 238 40
3 237 238 239
3 41 240 242
3 240 8 241
3 240 241 242
3 19 41 7
3 42 41 19
3 42 8 41
3 42 29 8
3 43 29 42
3 43 3 29
3 43 44 3
3 243 44 244
3 245 244 43
3 243 244 245
3 247 246 44
3 249 248 9
3 250 4 251
3 252 45 253
3 254 253 4
3 252 253 254
3 255 45 256
3 255 256 257
3 258 10 259
3 260 259 45
3 258 259 260
3 261 10 262
3 264 263 10
3 21 265 267
3 267 266 11
3 265 266 267
3 269 268 21
3 270 0 271
3 272 40 273
3 274 40 275
3 276 7 277
3 278 277 40
3 276 277 278
3 46 279 280
3 46 281 283
3 281 7 282
3 281 282 283
3 46 18 7
3 47 18 46
3 47 1 18
3 47 284 286
3 286 285 1
3 284 285 286
3 48 287 289
3 289 288 47
3 287 288 289
3 48 290 291
3 23 48 12
3 292 48 293
3 294 293 23
3 292 293 294
3 296 295 48
3 297 24 298
3 299 24 300
3 302 301 24
3 303 11 304
3 25 305 306
3 49 307 309
3 309 308 25
3 307 308 309
3 49 310 312
3 310 11 311
3 310 311 312
3 49 20 11
3 50 20 49
3 50 2 20
3 28 313 314
3 316 315 28
3 317 0 318
3 30 319 321
3 321 320 8
3 319 320 321
3 323 322 30
3 51 324 325
3 51 326 328
3 326 0 327
3 326 327 328
3 51 17 0
3 52 17 51
3 52 6 17
3 33 52 14
3 53 52 33
3 53 6 52
3 53 329 331
3 331 330 6
3 329 330 331
3 333 332 53
3 44 34 3
3 334 34 335
3 336 335 44
3 334 335 336
3 338 337 34
3 36 339 340
3 342 341 36
3 54 343 344
3 54 345 346
3 45 37 4
3 55 37 45
3 55 15 37
3 38 55 10
3 56 55 38
3 56 15 55
3 56 54 15
3 57 54 56
3 57 347 349
3 349 348 54
3 347 348 349
3 57 350 352
3 350 26 351
3 350 351 352
3 58 26 57
3 58 13 26
3 353 58 354
3 355 58 356
3 357 13 358
3 359 358 58
3 357 358 359
3 360 50 361
3 362 361 13
3 360 361 362
3 363 50 364
3 365 2 366
3 367 366 50
3 365 366 367
3 369 368 1
3 370 2 371
3 370 371 372
3 374 373 2
