ply
format ascii 1.0
element vertex 439
property float x
property float y
property float z
element face 381
property list uchar int vertex_index
end_header
13.501556 38.421734 -31.474936
14.57519 40.555191 -17.374008
22.26025 36.877525 -9.669761
25.855656 47.091255 -7.729711
13.085152 39.913818 -23.335815
12.51213 43.311134 -34.526249
28.344809 38.882763 -4.846082
14.6113 46.744373 -19.787746
13.519922 46.53767 -22.840754
13.568707 40.304974 -20.181709
16.216801 47.156544 -17.219398
16.022404 40.050598 -14.947287
17.969681 46.319054 -14.927681
20.058363 45.267227 -12.837152
22.270069 43.819027 -10.88036
24.454746 42.271545 -9.008092
26.468983 40.559093 -7.078228
24.734915 35.230785 -8.099723
12.545908 44.287266 -30.171745
12.793027 45.591999 -26.41678
13.097261 39.026192 -27.194925
13.051982 40.908585 -33.058899
13.222508 40.48901 -35.315857
14.024439 37.177952 -17.568159
14.557769 37.016663 -16.251987
21.075941 37.710609 -10.471559
14.55934 43.637192 -18.582399
14.000788 43.633606 -19.9786
14.000315 40.540554 -18.764048
13.614765 37.237362 -19.005957
17.163034 50.274097 -17.262556
17.076397 46.846458 -16.039871
18.148699 49.876629 -15.999745
21.207581 44.649414 -11.825382
17.234175 53.539322 -18.546772
16.208885 50.32951 -18.556698
16.893179 39.708092 -13.898707
27.419052 39.749889 -6.020877
26.802599 37.018089 -6.770744
25.695454 38.120605 -7.692201
12.342095 47.666908 -29.722593
13.191743 43.185295 -23.10483
13.08612 46.094166 -24.625647
12.952221 42.782806 -24.904093
12.842831 42.257931 -26.730568
13.033535 39.306168 -25.194252
11.863657 44.54018 -38.366383
12.605894 42.55164 -36.827606
18.88308 39.078072 -12.118745
29.169872 39.820263 -2.44979
28.577095 40.818111 -3.642381
29.191162 37.714428 -3.693779
14.675196 50.075207 -21.179207
13.996055 49.674023 -22.688522
14.037299 46.763893 -21.237043
13.546597 43.51091 -21.481443
13.284135 40.110252 -21.601994
13.334272 37.024239 -20.501499
15.297237 43.942677 -17.320148
15.247519 40.469807 -16.144688
16.062157 43.697437 -16.119675
16.900276 43.126747 -14.943327
17.849234 42.844849 -13.937879
18.941742 45.75832 -13.874448
18.902458 42.333397 -12.931304
20.046642 41.930634 -12.006659
21.078001 41.173645 -11.157403
22.225979 40.227104 -10.253781
15.425617 53.316936 -21.234964
15.403001 50.227158 -19.809736
15.327348 46.926277 -18.480412
10.58864 44.338852 -44.620419
11.755322 43.836269 -40.760864
15.205111 37.062614 -15.140425
23.365755 43.119675 -9.959093
23.448404 39.736423 -9.408023
26.653486 46.243656 -6.372164
27.841303 41.950832 -4.943255
27.026741 42.897949 -6.214925
26.161036 43.87616 -7.373199
25.472124 41.543915 -8.075027
24.567543 38.737659 -8.550353
23.47188 36.136311 -8.90751
12.53229 43.677353 -32.297432
12.941226 41.205299 -30.805103
12.60769 45.030544 -28.322273
12.838402 41.797192 -28.66954
13.247703 38.849426 -29.310736
13.623482 38.35161 -32.61289
13.398695 39.595036 -33.404871
13.276769 39.66516 -32.266917
21.68076 35.435325 -9.728938
21.088606 35.851867 -10.129837
21.668095 37.294067 -10.07066
22.274703 35.103635 -9.388049
21.68076 35.435325 -9.728938
18.172629 51.578671 -16.631778
17.655867 50.075363 -16.631151
17.679797 51.777405 -17.263184
17.715367 53.410017 -17.905292
17.738321 54.918358 -18.504471
17.679797 51.777405 -17.263184
17.198605 51.906709 -17.904664
17.715367 53.410017 -17.905292
16.862575 38.05188 -13.480691
17.371629 39.548623 -13.431719
25.444907 47.577364 -8.324887
25.740156 48.801502 -7.859811
25.532308 45.921686 -8.123592
25.444907 47.577364 -8.324887
26.949812 35.349767 -6.637333
27.349531 36.72953 -6.266462
26.34303 35.778364 -7.06145
26.949812 35.349767 -6.637333
12.331102 49.258307 -29.650294
12.156782 48.761249 -30.588468
13.129953 38.318981 -23.614857
13.104145 38.015156 -24.544076
13.059344 39.609993 -24.265034
12.559012 42.931387 -35.676928
12.257807 43.953049 -36.514764
12.210925 44.332796 -35.364086
13.347786 40.207407 -36.517634
13.667753 39.182535 -35.740825
18.865586 37.108092 -11.684117
19.410738 38.720816 -11.69498
29.57804 37.251955 -3.047168
29.180517 38.767345 -3.071785
29.567395 38.304873 -2.425173
13.528327 35.590414 -19.126836
13.662109 35.595682 -18.398624
19.500053 45.512773 -13.3558
19.532595 47.297154 -13.83233
20.090905 47.051607 -13.313681
15.869293 53.410027 -20.534864
15.870456 54.939142 -21.26079
15.857985 51.865138 -19.822249
15.414309 51.772047 -20.52235
15.869293 53.410027 -20.534864
10.671598 44.874265 -43.465599
10.141976 45.549335 -44.151579
12.225015 42.865127 -40.0389
11.809489 44.188225 -39.563623
12.279183 43.217083 -38.841659
23.910251 42.69561 -9.483593
23.827241 44.422234 -9.749917
24.371737 43.998169 -9.274417
26.991704 45.631323 -5.731432
26.746158 47.249185 -5.811096
24.199218 33.9457 -8.233085
23.567701 34.398463 -8.636978
24.103397 35.683548 -8.503616
12.539099 43.982309 -31.234589
12.345301 45.252985 -32.030779
12.35211 45.557941 -30.967936
13.462263 47.884756 -23.620471
13.70033 49.452933 -23.544355
13.757988 48.105846 -22.764638
12.876895 47.146599 -26.242576
13.023442 47.397683 -25.347009
12.939573 45.843083 -25.521214
12.699072 46.901033 -27.148719
12.876895 47.146599 -26.242576
12.700359 45.311272 -27.369526
12.606404 46.620306 -28.101466
12.699072 46.901033 -27.148719
13.301309 37.671276 -27.473641
13.37653 37.582893 -28.531546
13.172482 38.937809 -28.252831
13.483957 39.385249 -34.53335
13.137245 40.698797 -34.187378
13.398695 39.595036 -33.404871
13.667753 39.182535 -35.740825
13.483957 39.385249 -34.53335
14.053121 35.477323 -17.033441
13.866945 35.565977 -17.679725
14.319786 35.396679 -16.375355
14.053121 35.477323 -17.033441
14.291104 37.097307 -16.910073
14.595883 35.42483 -15.749613
14.319786 35.396679 -16.375355
20.537029 36.279716 -10.494873
20.507168 38.037084 -10.871386
20.537029 36.279716 -10.494873
21.088606 35.851867 -10.129837
13.866945 35.565977 -17.679725
13.662109 35.595682 -18.398624
13.819602 37.207657 -18.287058
20.632207 46.65562 -12.743507
20.090905 47.051607 -13.313681
21.206816 46.346714 -12.237622
20.632972 44.95832 -12.331267
20.632207 46.65562 -12.743507
21.732987 46.081038 -11.734096
21.206816 46.346714 -12.237622
22.264231 45.665844 -11.261585
21.738825 44.23422 -11.352871
21.732987 46.081038 -11.734096
17.231802 55.052727 -19.231159
17.738321 54.918358 -18.504471
16.773572 53.52122 -19.190767
17.231802 55.052727 -19.231159
16.72153 51.934416 -18.551735
16.260927 51.916314 -19.19573
16.773572 53.52122 -19.190767
16.418031 38.085341 -13.949219
15.982643 38.256594 -14.473508
16.457791 39.879345 -14.422997
16.418031 38.085341 -13.949219
16.862575 38.05188 -13.480691
24.831853 43.511831 -8.762783
24.371737 43.998169 -9.274417
27.657758 38.09543 -5.891528
27.881931 39.316326 -5.433479
28.120636 37.661867 -5.30413
27.110826 38.383989 -6.39581
27.657758 38.09543 -5.891528
27.349531 36.72953 -6.266462
25.789458 36.329622 -7.522178
26.249026 37.569347 -7.231472
26.34303 35.778364 -7.06145
25.309188 34.884712 -7.725939
25.215184 36.675695 -7.895962
25.789458 36.329622 -7.522178
24.8305 33.4914 -7.876422
25.309188 34.884712 -7.725939
12.250203 47.247763 -30.74336
12.156782 48.761249 -30.588468
12.444002 45.977087 -29.947169
12.35211 45.557941 -30.967936
12.250203 47.247763 -30.74336
13.166126 37.844138 -25.4727
13.197989 37.704149 -26.473036
13.065398 39.16618 -26.194589
13.166126 37.844138 -25.4727
13.104145 38.015156 -24.544076
11.886688 44.947319 -37.284153
11.529642 45.942115 -38.037876
12.234775 43.54591 -37.596995
11.886688 44.947319 -37.284153
12.257807 43.953049 -36.514764
12.650301 42.222813 -38.072271
12.279183 43.217083 -38.841659
12.234775 43.54591 -37.596995
13.039479 41.238722 -37.273508
12.914201 41.520325 -36.071731
13.347786 40.207407 -36.517634
12.650301 42.222813 -38.072271
13.039479 41.238722 -37.273508
18.347819 37.438996 -12.111811
18.36658 39.233612 -12.541739
18.347819 37.438996 -12.111811
18.865586 37.108092 -11.684117
26.053586 48.206798 -7.218207
25.740156 48.801502 -7.859811
28.873483 40.319187 -3.046086
28.497971 41.899244 -2.949473
28.794359 41.40032 -2.353178
29.51166 36.303325 -3.628655
29.57804 37.251955 -3.047168
29.04549 36.589018 -4.21915
29.51166 36.303325 -3.628655
28.622314 37.173186 -4.795301
28.767986 38.298595 -4.269931
29.04549 36.589018 -4.21915
28.120636 37.661867 -5.30413
28.622314 37.173186 -4.795301
14.335625 49.874615 -21.933864
14.316116 51.369015 -22.702364
14.655686 51.569607 -21.947707
13.23679 38.530329 -21.86393
13.137299 38.432112 -22.73084
13.184643 40.012035 -22.468905
13.261859 36.987322 -21.313682
13.23679 38.530329 -21.86393
13.309203 38.567245 -21.051747
13.320179 35.535561 -20.696802
13.261859 36.987322 -21.313682
13.388081 35.483852 -19.874607
13.474519 37.1308 -19.753728
13.528327 35.590414 -19.126836
13.320179 35.535561 -20.696802
13.388081 35.483852 -19.874607
14.073557 35.778878 -31.098956
13.883634 37.073746 -31.873724
13.691479 37.126866 -30.700168
17.849657 41.117001 -13.451306
17.371629 39.548623 -13.431719
17.371206 41.276471 -13.918293
18.672137 51.23873 -15.95907
18.172629 51.578671 -16.631778
18.637027 49.62039 -15.427516
18.672137 51.23873 -15.95907
18.547518 47.841603 -14.891485
18.05919 48.097842 -15.463713
18.637027 49.62039 -15.427516
19.033549 47.561235 -14.364868
19.532595 47.297154 -13.83233
18.455711 46.038687 -14.401065
18.547518 47.841603 -14.891485
19.033549 47.561235 -14.364868
18.376269 40.861275 -12.948018
17.849657 41.117001 -13.451306
18.375846 42.589123 -13.434591
18.892769 40.705734 -12.525025
18.36658 39.233612 -12.541739
18.376269 40.861275 -12.948018
19.992519 40.147097 -11.638936
19.410738 38.720816 -11.69498
19.464861 40.504353 -12.062702
20.508198 39.768603 -11.214309
19.992519 40.147097 -11.638936
20.562321 41.552139 -11.582031
21.076971 39.442127 -10.814481
20.507168 38.037084 -10.871386
20.508198 39.768603 -11.214309
29.046858 40.707588 -1.678187
28.794359 41.40032 -2.353178
29.454753 39.313885 -1.737242
29.046858 40.707588 -1.678187
29.567395 38.304873 -2.425173
29.454753 39.313885 -1.737242
15.409555 54.80069 -21.99795
15.870456 54.939142 -21.26079
15.030897 53.190472 -21.975585
15.409555 54.80069 -21.99795
15.050407 51.696072 -21.207086
14.655686 51.569607 -21.947707
15.030897 53.190472 -21.975585
15.805943 50.278334 -19.183217
15.857985 51.865138 -19.822249
16.260927 51.916314 -19.19573
9.968275 44.981338 -45.235739
10.141976 45.549335 -44.151579
10.433775 43.875056 -45.813351
9.968275 44.981338 -45.235739
11.440513 45.369545 -39.212248
11.529642 45.942115 -38.037876
11.386346 45.017589 -40.409488
11.440513 45.369545 -39.212248
11.809489 44.188225 -39.563623
11.254939 44.622974 -41.535822
11.386346 45.017589 -40.409488
12.217433 42.665756 -41.238796
12.225015 42.865127 -40.0389
11.722889 43.434099 -41.945479
12.217433 42.665756 -41.238796
11.254939 44.622974 -41.535822
11.722889 43.434099 -41.945479
11.139548 43.68539 -43.875256
10.671598 44.874265 -43.465599
11.087911 43.285094 -45.10738
11.139548 43.68539 -43.875256
10.433775 43.875056 -45.813351
11.087911 43.285094 -45.10738
14.00556 37.003622 -33.011677
13.623482 38.35161 -32.61289
13.883634 37.073746 -31.873724
14.919553 35.447805 -15.193832
14.595883 35.42483 -15.749613
14.88144 37.039639 -15.696206
15.573996 36.762602 -14.570078
15.613758 38.556606 -15.043856
15.982643 38.256594 -14.473508
15.241729 35.324753 -14.631101
15.573996 36.762602 -14.570078
14.919553 35.447805 -15.193832
15.241729 35.324753 -14.631101
22.783707 45.299374 -10.742237
22.264231 45.665844 -11.261585
23.33155 44.949697 -10.281604
23.827241 44.422234 -9.749917
22.817912 43.469351 -10.419726
22.783707 45.299374 -10.742237
23.33155 44.949697 -10.281604
26.452501 47.782999 -6.539433
26.746158 47.249185 -5.811096
26.254571 46.667456 -7.050937
26.053586 48.206798 -7.218207
26.452501 47.782999 -6.539433
28.249187 42.381141 -3.694961
28.497971 41.899244 -2.949473
27.881291 42.947502 -4.345398
28.249187 42.381141 -3.694961
28.209199 41.384472 -4.292818
27.585612 43.484911 -5.016977
27.881291 42.947502 -4.345398
27.178331 43.958469 -5.652812
27.585612 43.484911 -5.016977
27.434022 42.424391 -5.57909
26.840114 44.570802 -6.293544
26.991704 45.631323 -5.731432
27.178331 43.958469 -5.652812
25.684998 44.314138 -7.945336
25.532308 45.921686 -8.123592
26.008346 45.483707 -7.551455
25.340542 43.148016 -8.29625
25.684998 44.314138 -7.945336
25.81658 42.710037 -7.724113
24.963435 41.90773 -8.541559
24.831853 43.511831 -8.762783
25.340542 43.148016 -8.29625
22.880518 34.733029 -9.006923
22.274703 35.103635 -9.388049
22.866065 36.506918 -9.288635
22.880518 34.733029 -9.006923
23.567701 34.398463 -8.636978
24.199218 33.9457 -8.233085
24.8305 33.4914 -7.876422
12.261442 44.715364 -34.257506
12.210925 44.332796 -35.364086
12.271521 44.898474 -33.143097
12.345301 45.252985 -32.030779
12.52221 43.494243 -33.41184
12.261442 44.715364 -34.257506
12.271521 44.898474 -33.143097
13.96483 51.080782 -23.435254
14.316116 51.369015 -22.702364
13.96483 51.080782 -23.435254
13.70033 49.452933 -23.544355
13.245362 47.663004 -24.512918
13.462263 47.884756 -23.620471
13.303021 46.315918 -23.733201
13.245362 47.663004 -24.512918
13.023442 47.397683 -25.347009
12.473606 47.938488 -28.801626
12.331102 49.258307 -29.650294
12.474892 46.348726 -29.022433
12.473606 47.938488 -28.801626
12.606404 46.620306 -28.101466
13.564552 37.340711 -29.618068
13.691479 37.126866 -30.700168
13.37463 38.63558 -30.392836
13.564552 37.340711 -29.618068
13.37653 37.582893 -28.531546
13.301309 37.671276 -27.473641
13.197989 37.704149 -26.473036
13.129953 38.318981 -23.614857
13.137299 38.432112 -22.73084
3 0 88 90
3 90 89 21
3 88 89 90
3 1 24 23
3 2 91 93
3 93 92 25
3 91 92 93
3 2 94 95
3 1 28 26
3 1 23 28
3 96 32 97
3 98 97 30
3 96 97 98
3 99 34 100
3 101 30 102
3 103 102 34
3 101 102 103
3 105 104 36
3 3 106 107
3 3 108 109
3 110 38 111
3 113 112 38
3 114 40 115
3 4 43 41
3 4 45 43
3 4 116 118
3 118 117 45
3 116 117 118
3 5 119 121
3 119 47 120
3 119 120 121
3 123 122 22
3 125 124 48
3 126 51 127
3 128 127 49
3 126 127 128
3 7 54 52
3 9 55 27
3 9 56 55
3 9 57 56
3 130 129 29
3 10 60 58
3 12 61 31
3 12 62 61
3 13 131 133
3 131 63 132
3 131 132 133
3 13 64 63
3 13 65 64
3 14 66 33
3 14 67 66
3 134 68 135
3 136 69 137
3 138 137 68
3 136 137 138
3 10 70 35
3 10 58 70
3 139 71 140
3 141 72 142
3 143 142 46
3 141 142 143
3 11 73 59
3 15 144 146
3 144 74 145
3 144 145 146
3 15 75 74
3 147 76 148
3 6 77 50
3 16 78 37
3 16 79 78
3 16 80 79
3 17 81 39
3 17 82 81
3 17 149 151
3 151 150 82
3 149 150 151
3 18 152 154
3 152 83 153
3 152 153 154
3 18 84 83
3 8 155 157
3 157 156 53
3 155 156 157
3 19 158 160
3 160 159 42
3 158 159 160
3 19 161 162
3 19 163 165
3 163 85 164
3 163 164 165
3 20 86 44
3 20 87 86
3 20 166 168
3 168 167 87
3 166 167 168
3 21 22 5
3 169 22 170
3 171 170 21
3 169 170 171
3 173 172 22
3 23 174 175
3 24 176 178
3 178 177 23
3 176 177 178
3 24 179 180
3 25 181 182
3 184 183 25
3 26 27 7
3 28 27 26
3 28 9 27
3 28 29 9
3 23 29 28
3 23 185 187
3 187 186 29
3 185 186 187
3 30 31 10
3 32 31 30
3 32 12 31
3 188 13 189
3 190 33 191
3 192 191 13
3 190 191 192
3 193 33 194
3 195 14 196
3 197 196 33
3 195 196 197
3 34 198 199
3 34 200 201
3 34 202 204
3 202 35 203
3 202 203 204
3 30 35 34
3 30 10 35
3 36 205 207
3 207 206 11
3 205 206 207
3 209 208 36
3 210 15 211
3 212 37 213
3 214 213 6
3 212 213 214
3 38 215 217
3 215 37 216
3 215 216 217
3 38 16 37
3 38 39 16
3 218 39 219
3 220 219 38
3 218 219 220
3 221 17 222
3 223 222 39
3 221 222 223
3 225 224 17
3 40 226 227
3 40 228 230
3 228 18 229
3 228 229 230
3 41 42 8
3 43 42 41
3 43 19 42
3 43 44 19
3 45 44 43
3 45 20 44
3 45 231 233
3 233 232 20
3 231 232 233
3 235 234 45
3 236 46 237
3 47 238 240
3 238 46 239
3 238 239 240
3 47 241 243
3 243 242 46
3 241 242 243
3 22 47 5
3 244 47 245
3 246 245 22
3 244 245 246
3 248 247 47
3 48 249 250
3 252 251 48
3 253 3 254
3 49 255 257
3 255 50 256
3 255 256 257
3 51 50 49
3 51 6 50
3 258 51 259
3 260 51 261
3 262 6 263
3 264 263 51
3 262 263 264
3 266 265 6
3 52 267 269
3 267 53 268
3 267 268 269
3 54 53 52
3 54 8 53
3 27 54 7
3 55 54 27
3 55 8 54
3 55 41 8
3 56 41 55
3 56 4 41
3 56 270 272
3 272 271 4
3 270 271 272
3 57 273 275
3 275 274 56
3 273 274 275
3 57 276 277
3 29 57 9
3 278 57 279
3 280 279 29
3 278 279 280
3 282 281 57
3 285 284 0
3 283 284 285
3 58 59 1
3 60 59 58
3 60 11 59
3 31 60 10
3 61 60 31
3 61 11 60
3 61 36 11
3 62 36 61
3 62 286 288
3 288 287 36
3 286 287 288
3 289 32 290
3 291 32 292
3 293 12 294
3 295 294 32
3 293 294 295
3 63 296 297
3 63 298 300
3 298 12 299
3 298 299 300
3 63 62 12
3 64 62 63
3 64 301 303
3 303 302 62
3 301 302 303
3 64 304 306
3 304 48 305
3 304 305 306
3 65 48 64
3 65 307 309
3 309 308 48
3 307 308 309
3 33 65 13
3 66 65 33
3 66 310 312
3 312 311 65
3 310 311 312
3 66 313 315
3 313 25 314
3 313 314 315
3 67 25 66
3 67 2 25
3 316 49 317
3 318 49 319
3 321 320 49
3 68 322 323
3 68 324 325
3 68 326 328
3 326 52 327
3 326 327 328
3 69 52 68
3 69 7 52
3 35 329 331
3 329 69 330
3 329 330 331
3 70 69 35
3 70 7 69
3 70 26 7
3 58 26 70
3 58 1 26
3 71 332 333
3 71 334 335
3 46 336 337
3 72 338 340
3 340 339 46
3 338 339 340
3 72 341 342
3 343 72 344
3 345 72 346
3 348 347 72
3 349 71 350
3 351 71 352
3 354 353 71
3 357 356 0
3 355 356 357
3 59 24 1
3 73 24 59
3 73 358 360
3 360 359 24
3 358 359 360
3 361 73 362
3 363 362 11
3 361 362 363
3 364 73 365
3 367 366 73
3 368 14 369
3 74 370 371
3 74 372 374
3 372 14 373
3 372 373 374
3 74 67 14
3 75 67 74
3 75 2 67
3 76 375 376
3 76 377 379
3 377 3 378
3 377 378 379
3 50 380 381
3 77 382 384
3 384 383 50
3 382 383 384
3 77 385 386
3 37 77 6
3 78 77 37
3 78 387 389
3 389 388 77
3 387 388 389
3 78 390 392
3 390 76 391
3 390 391 392
3 79 76 78
3 79 3 76
3 79 393 395
3 395 394 3
3 393 394 395
3 80 396 398
3 398 397 79
3 396 397 398
3 80 399 401
3 399 15 400
3 399 400 401
3 39 80 16
3 81 80 39
3 81 15 80
3 81 75 15
3 82 75 81
3 82 2 75
3 82 402 404
3 404 403 2
3 402 403 404
3 406 405 82
3 408 407 17
3 409 5 410
3 83 411 412
3 83 413 415
3 413 5 414
3 413 414 415
3 83 21 5
3 84 21 83
3 84 0 21
3 53 416 417
3 419 418 53
3 42 420 422
3 422 421 8
3 420 421 422
3 424 423 42
3 425 40 426
3 85 427 429
3 427 40 428
3 427 428 429
3 85 18 40
3 44 85 19
3 86 85 44
3 86 18 85
3 86 84 18
3 87 84 86
3 87 0 84
3 87 430 432
3 432 431 0
3 430 431 432
3 434 433 87
3 436 435 20
3 438 437 4
