ply
format ascii 1.0
element vertex 99
property float x
property float y
property float z
element face 79
property list uchar int vertex_index
end_header
5.960558 94.517586 -31.466719
0.901946 97.88591 -33.10598
3.790611 98.149498 -28.013096
3.156641 93.284851 -36.154034
0.957488 99.945847 -28.814053
2.376076 99.737564 -26.163784
3.556507 96.217896 -32.334934
1.989529 95.768272 -34.76622
4.643645 94.011894 -33.847271
-0.550598 99.847427 -31.438551
2.370756 98.145378 -30.665726
4.901969 96.481682 -29.808603
6.293938 96.310768 -27.2458
7.395557 94.527428 -28.984001
1.438593 92.442902 -38.344898
5.564444 91.604057 -35.182186
1.717164 100.399494 -24.997751
0.99394 100.598884 -26.419995
-1.252247 100.715408 -30.414773
-1.842769 100.469955 -31.768459
7.494459 95.316688 -26.810859
6.983344 96.076042 -25.837325
8.045269 94.425018 -27.679959
6.844748 95.419098 -28.1149
7.494459 95.316688 -26.810859
8.615968 93.425522 -28.53218
8.045269 94.425018 -27.679959
0.082934 97.587242 -34.355704
-0.487376 98.574154 -33.545534
1.777308 94.116264 -36.634278
1.193752 95.357975 -35.940371
2.573085 94.526561 -35.460127
2.297617 92.863877 -37.249466
0.918284 93.69529 -37.729709
1.777308 94.116264 -36.634278
6.700314 90.747315 -34.598547
6.286612 91.904815 -34.039747
0.284647 100.703026 -27.74513
-0.498204 100.764618 -29.102524
1.666782 99.841706 -27.488919
0.284647 100.703026 -27.74513
0.99394 100.598884 -26.419995
6.484669 93.36158 -32.182014
7.162143 93.526668 -30.99146
-1.213647 99.554913 -32.711819
-1.842769 100.469955 -31.768459
0.175674 98.866669 -32.272266
-0.487376 98.574154 -33.545534
-1.213647 99.554913 -32.711819
0.203445 99.896637 -30.126302
-1.252247 100.715408 -30.414773
-0.498204 100.764618 -29.102524
3.065726 99.48405 -24.752326
1.717164 100.399494 -24.997751
3.694642 98.815933 -25.813345
3.065726 99.48405 -24.752326
4.40191 98.0219 -26.738001
3.083343 98.943531 -27.08844
3.694642 98.815933 -25.813345
5.653574 97.102535 -26.354353
6.983344 96.076042 -25.837325
5.042274 97.230133 -27.629448
4.40191 98.0219 -26.738001
5.653574 97.102535 -26.354353
7.879643 93.531589 -29.750101
7.162143 93.526668 -30.99146
6.678057 94.522507 -30.22536
7.879643 93.531589 -29.750101
8.615968 93.425522 -28.53218
0.626726 96.528423 -35.185823
0.082934 97.587242 -34.355704
1.445738 96.827091 -33.9361
0.626726 96.528423 -35.185823
1.193752 95.357975 -35.940371
0.128985 93.052678 -38.869295
0.918284 93.69529 -37.729709
0.684782 91.691235 -39.399351
0.128985 93.052678 -38.869295
5.826213 93.108734 -33.37229
5.302102 94.26474 -32.656995
6.484669 93.36158 -32.182014
5.104045 92.807975 -34.514729
5.826213 93.108734 -33.37229
6.286612 91.904815 -34.039747
5.970591 90.360996 -35.677214
6.700314 90.747315 -34.598547
4.771767 91.180954 -36.280525
5.970591 90.360996 -35.677214
3.567865 92.021351 -36.766449
4.360543 92.444454 -35.66811
4.771767 91.180954 -36.280525
2.708842 91.600377 -37.861881
2.297617 92.863877 -37.249466
3.567865 92.021351 -36.766449
1.919417 91.049382 -38.867106
2.708842 91.600377 -37.861881
3.189665 90.206856 -38.384089
0.684782 91.691235 -39.399351
1.919417 91.049382 -38.867106
3 16 5 17
3 0 8 6
3 18 9 19
3 2 10 4
3 2 11 10
3 20 12 21
3 22 13 23
3 24 23 12
3 22 23 24
3 26 25 13
3 1 27 28
3 3 29 31
3 31 30 7
3 29 30 31
3 3 32 34
3 32 14 33
3 32 33 34
3 35 15 36
3 37 4 38
3 5 39 41
3 39 4 40
3 39 40 41
3 5 2 4
3 6 7 1
3 8 7 6
3 8 3 7
3 43 42 0
3 9 44 45
3 9 46 48
3 46 1 47
3 46 47 48
3 4 49 51
3 49 9 50
3 49 50 51
3 10 9 4
3 10 1 9
3 10 6 1
3 11 6 10
3 11 0 6
3 52 5 53
3 54 5 55
3 56 2 57
3 58 57 5
3 56 57 58
3 12 59 60
3 12 61 63
3 61 2 62
3 61 62 63
3 12 11 2
3 13 11 12
3 13 0 11
3 13 64 66
3 66 65 0
3 64 65 66
3 68 67 13
3 7 69 71
3 71 70 1
3 69 70 71
3 73 72 7
3 14 74 75
3 14 76 77
3 78 8 79
3 80 79 0
3 78 79 80
3 15 81 83
3 81 8 82
3 81 82 83
3 15 3 8
3 84 15 85
3 86 15 87
3 88 3 89
3 90 89 15
3 88 89 90
3 91 14 92
3 93 92 3
3 91 92 93
3 94 14 95
3 94 95 96
3 98 97 14
