ply
format ascii 1.0
element vertex 139
property float x
property float y
property float z
element face 102
property list uchar int vertex_index
end_header
-0.85126 10.39757 59.432438
-9.282175 8.751303 65.339279
-4.238898 10.518209 61.733982
2.532931 10.450878 57.039978
-6.651435 9.162059 63.633179
-8.000343 7.80046 64.768661
-5.269654 8.763385 62.812866
5.513698 12.827404 54.359257
7.306422 12.974748 52.987164
0.825066 10.403061 58.259499
0.285477 12.644273 58.112507
1.977898 12.703503 56.916378
-2.58254 10.435379 60.622036
-3.722089 8.58452 61.810207
3.771334 12.723847 55.642471
-7.259581 9.557389 63.928421
-6.691681 9.951248 63.484459
-6.691681 9.951248 63.484459
-6.145737 9.893961 63.140858
6.720041 11.8227 53.677548
6.41006 12.901076 53.67321
5.823679 11.749028 54.363594
7.680226 11.908535 52.923437
6.720041 11.8227 53.677548
-0.553789 9.307865 59.465711
0.284374 9.31061 58.879242
-0.013097 10.400315 58.845968
-0.282892 11.520922 58.772472
-0.609258 12.591952 58.74527
-1.177626 11.468601 59.405236
-9.925227 9.434416 65.555656
-10.109009 8.110357 65.947376
-9.414473 7.567574 65.661884
-8.773557 7.092153 65.376575
-8.641259 8.275882 65.05397
-10.109009 8.110357 65.947376
-10.241307 6.926628 66.269981
-9.414473 7.567574 65.661884
-5.109091 7.720249 62.922159
-5.923948 7.900964 63.420398
-3.7101 11.469587 61.147161
-4.479807 11.479805 61.665621
-3.410719 10.476794 61.178009
-2.88192 11.428172 60.591189
-3.7101 11.469587 61.147161
2.909584 9.394196 56.996645
3.426927 10.495876 56.387146
3.426927 10.495876 56.387146
4.046129 11.632361 55.688392
3.152133 11.587362 56.341224
-9.140141 9.924277 64.988147
-8.57495 9.352011 64.781471
-7.325889 8.48126 64.20092
-7.289292 7.419501 64.398296
-6.614838 8.100301 63.830555
-7.934035 8.876589 64.496162
-7.325889 8.48126 64.20092
-7.259581 9.557389 63.928421
-8.57495 9.352011 64.781471
-8.641259 8.275882 65.05397
-7.934035 8.876589 64.496162
-5.454847 9.694624 62.730701
-4.754276 9.640797 62.273424
-4.939469 10.572036 62.19126
-5.960545 8.962722 63.223022
-5.454847 9.694624 62.730701
-6.145737 9.893961 63.140858
-6.614838 8.100301 63.830555
-5.923948 7.900964 63.420398
-5.960545 8.962722 63.223022
-4.939469 10.572036 62.19126
-4.479807 11.479805 61.665621
6.010819 14.011304 53.725047
5.1175 14.019737 54.371218
6.907181 14.084976 53.039
6.010819 14.011304 53.725047
6.41006 12.901076 53.67321
7.80441 14.22608 52.328164
6.907181 14.084976 53.039
8.174872 13.058309 52.289887
7.80441 14.22608 52.328164
8.548675 11.992096 52.22616
8.174872 13.058309 52.289887
7.680226 11.908535 52.923437
1.141471 9.309445 58.274912
1.995404 9.333353 57.665152
1.678999 10.426969 57.649738
1.141471 9.309445 58.274912
0.284374 9.31061 58.879242
-0.0894 13.745845 58.094158
-0.609258 12.591952 58.74527
0.7613 13.829012 57.488539
-0.0894 13.745845 58.094158
1.131687 12.673888 57.514443
1.607511 13.858627 56.890474
0.7613 13.829012 57.488539
-9.925227 9.434416 65.555656
-9.140141 9.924277 64.988147
-8.024318 6.694695 65.003158
-7.289292 7.419501 64.398296
-8.024318 6.694695 65.003158
-8.773557 7.092153 65.376575
-2.318846 9.39313 60.670719
-1.453205 9.374225 60.07592
-1.7169 10.416474 60.027237
-2.88862 8.4677 61.264804
-2.318846 9.39313 60.670719
-3.152315 9.509949 61.216121
-3.508462 7.483293 61.892767
-2.88862 8.4677 61.264804
-4.335309 7.630816 62.420829
-4.495871 8.673952 62.311537
-5.109091 7.720249 62.922159
-3.508462 7.483293 61.892767
-4.335309 7.630816 62.420829
-2.043266 11.487505 60.000034
-2.88192 11.428172 60.591189
-1.7169 10.416474 60.027237
-1.177626 11.468601 59.405236
-2.043266 11.487505 60.000034
2.909584 9.394196 56.996645
1.995404 9.333353 57.665152
-0.553789 9.307865 59.465711
-1.453205 9.374225 60.07592
2.442623 13.862852 56.311554
1.607511 13.858627 56.890474
3.339341 13.873024 55.6746
2.442623 13.862852 56.311554
2.874616 12.713675 56.279425
4.246317 13.967958 55.012825
3.339341 13.873024 55.6746
4.642516 12.775626 55.000864
5.1175 14.019737 54.371218
4.246317 13.967958 55.012825
4.917311 11.684139 55.046785
4.642516 12.775626 55.000864
4.046129 11.632361 55.688392
5.823679 11.749028 54.363594
4.917311 11.684139 55.046785
3 16 15 4
3 17 4 18
3 19 8 20
3 21 20 7
3 19 20 21
3 23 22 8
3 0 24 26
3 26 25 9
3 24 25 26
3 0 27 29
3 27 10 28
3 27 28 29
3 0 9 10
3 1 30 31
3 1 32 34
3 34 33 5
3 32 33 34
3 1 35 37
3 35 36 37
3 2 13 12
3 39 38 6
3 2 40 41
3 2 42 44
3 42 12 43
3 42 43 44
3 3 45 46
3 3 14 11
3 3 47 49
3 49 48 14
3 47 48 49
3 51 50 1
3 4 52 54
3 52 5 53
3 52 53 54
3 55 5 56
3 57 56 4
3 55 56 57
3 58 1 59
3 60 59 5
3 58 59 60
3 61 6 62
3 63 62 2
3 61 62 63
3 4 64 66
3 64 6 65
3 64 65 66
3 4 67 69
3 69 68 6
3 67 68 69
3 70 2 71
3 7 72 73
3 8 74 76
3 76 75 7
3 74 75 76
3 8 77 78
3 8 79 80
3 83 82 8
3 81 82 83
3 9 84 86
3 86 85 3
3 84 85 86
3 88 87 9
3 10 89 90
3 10 91 92
3 10 93 95
3 93 11 94
3 93 94 95
3 9 11 10
3 9 3 11
3 97 96 1
3 5 98 99
3 101 100 5
3 12 102 104
3 104 103 0
3 102 103 104
3 13 105 107
3 107 106 12
3 105 106 107
3 13 108 109
3 6 13 2
3 110 13 111
3 112 111 6
3 110 111 112
3 114 113 13
3 12 115 116
3 12 117 119
3 117 0 118
3 117 118 119
3 121 120 3
3 123 122 0
3 11 124 125
3 14 126 128
3 128 127 11
3 126 127 128
3 14 129 130
3 14 131 133
3 131 7 132
3 131 132 133
3 134 7 135
3 136 135 14
3 134 135 136
3 138 137 7
