ply
format ascii 1.0
element vertex 75
property float x
property float y
property float z
element face 58
property list uchar int vertex_index
end_header
22.052872 -101.780922 -1.9054
24.234276 -101.702904 -6.162905
20.710011 -101.384636 0.22722
20.254152 -102.991234 -2.767775
21.687775 -103.301338 -4.961048
19.922195 -104.413567 -5.92662
20.993364 -99.488152 3.509475
22.242458 -100.095047 1.229018
23.508297 -100.172668 -0.812577
24.54723 -100.052689 -3.000256
23.286032 -101.731056 -3.791811
19.353096 -103.468662 -3.36318
19.540689 -102.699131 -1.78291
19.187117 -104.179829 -4.942602
20.088173 -103.702401 -4.347198
19.353096 -103.468662 -3.36318
18.904711 -104.84441 -6.487246
19.187117 -104.179829 -4.942602
20.168045 -100.081433 2.906675
20.319838 -99.107899 4.539011
22.295998 -103.271717 -5.959008
21.427865 -104.000763 -6.553051
24.767035 -100.741371 -5.604523
24.923513 -99.916264 -4.023199
24.390753 -100.877797 -4.581581
19.768619 -101.895832 -0.285413
20.026369 -101.029674 1.265548
20.482081 -102.187935 -1.270277
19.768619 -101.895832 -0.285413
19.540689 -102.699131 -1.78291
20.545075 -104.556877 -7.035837
21.427865 -104.000763 -6.553051
20.804985 -103.857452 -5.443834
19.604601 -105.077961 -7.592302
20.545075 -104.556877 -7.035837
19.604601 -105.077961 -7.592302
18.904711 -104.84441 -6.487246
24.639138 -101.462578 -7.137983
23.984143 -102.445866 -7.725411
21.131529 -98.591965 4.922508
20.319838 -99.107899 4.539011
21.755204 -98.824776 3.927448
21.131529 -98.591965 4.922508
20.851688 -100.436394 1.868348
20.168045 -100.081433 2.906675
20.026369 -101.029674 1.265548
22.379751 -99.128223 2.787219
21.755204 -98.824776 3.927448
21.617911 -99.791599 2.369247
22.95888 -99.235241 1.746816
22.379751 -99.128223 2.787219
23.5918 -99.274051 0.726018
22.95888 -99.235241 1.746816
22.875377 -100.133858 0.20822
24.066446 -99.317059 -0.370929
23.5918 -99.274051 0.726018
24.027763 -100.112679 -1.906416
24.585912 -99.257069 -1.464768
24.066446 -99.317059 -0.370929
23.095126 -102.486576 -5.374389
22.486903 -102.516197 -4.37643
22.295998 -103.271717 -5.959008
23.569249 -102.4725 -6.559936
23.760154 -101.71698 -4.977358
23.095126 -102.486576 -5.374389
23.984143 -102.445866 -7.725411
23.569249 -102.4725 -6.559936
25.041963 -99.016388 -2.467424
24.585912 -99.257069 -1.464768
25.418245 -98.879963 -3.490367
25.041963 -99.016388 -2.467424
24.923513 -99.916264 -4.023199
25.171897 -100.501046 -6.579601
24.767035 -100.741371 -5.604523
24.639138 -101.462578 -7.137983
3 11 3 12
3 13 5 14
3 15 14 3
3 13 14 15
3 17 16 5
3 18 6 19
3 0 7 2
3 0 8 7
3 0 10 8
3 21 20 4
3 1 22 24
3 24 23 9
3 22 23 24
3 25 2 26
3 3 27 29
3 27 2 28
3 27 28 29
3 3 0 2
3 3 4 0
3 5 4 3
3 5 30 32
3 32 31 4
3 30 31 32
3 5 33 34
3 36 35 5
3 38 37 1
3 6 39 40
3 6 41 42
3 2 43 45
3 43 6 44
3 43 44 45
3 7 6 2
3 7 46 48
3 48 47 6
3 46 47 48
3 7 49 50
3 8 51 53
3 53 52 7
3 51 52 53
3 8 54 55
3 8 56 58
3 56 9 57
3 56 57 58
3 10 9 8
3 10 1 9
3 4 10 0
3 59 10 60
3 61 60 4
3 59 60 61
3 62 1 63
3 64 63 10
3 62 63 64
3 66 65 1
3 9 67 68
3 71 70 9
3 69 70 71
3 74 73 1
3 72 73 74
