ply
format ascii 1.0
element vertex 317
property float x
property float y
property float z
element face 312
property list uchar int vertex_index
end_header
-23.207834 -101.476479 -17.823416
-20.65406 -96.706924 -27.292664
-17.109613 -106.913513 -17.189896
-15.242822 -103.856842 -26.901981
-19.3589 -104.416779 -7.049994
-20.702953 -104.746986 -17.388226
-16.596136 -105.98851 -22.054403
-19.825632 -103.442924 -22.569304
-24.838165 -97.100708 -17.857126
-22.205433 -99.632301 -22.936457
-23.707245 -94.78701 -22.778194
-21.910589 -91.548729 -27.094776
-19.704453 -87.303192 -30.573189
-13.454274 -107.674767 -16.489532
-16.800638 -106.678642 -12.253839
-20.550327 -105.068741 -12.124619
-23.406897 -102.267464 -12.568782
-25.281885 -98.339928 -12.762202
-26.145264 -93.579086 -13.019058
-13.02667 -107.273857 -20.950775
-11.748682 -105.712845 -25.693869
-18.510265 -100.780144 -27.213907
-21.96063 -103.332985 -17.794542
-20.344931 -104.257027 -20.039188
-21.740046 -102.567055 -20.231028
-25.24539 -94.654396 -17.967482
-24.386406 -96.077057 -20.284225
-24.754404 -93.453377 -20.314045
-23.342838 -87.743927 -24.567961
-23.253902 -90.717056 -24.741653
-22.308605 -88.852852 -26.690329
-20.9013 -89.543068 -28.85808
-21.186342 -103.427094 -6.931154
-19.993996 -104.929665 -9.650033
-21.68548 -103.803703 -9.610712
-22.033255 -103.89473 -12.468111
-23.139887 -102.391327 -9.823745
-25.283627 -98.558075 -9.878201
-25.910517 -96.400795 -9.920916
-25.836975 -96.103638 -12.803288
-15.264047 -107.450958 -16.779325
-13.257844 -107.615868 -18.689604
-15.225049 -107.237526 -19.235786
-16.029848 -105.122429 -24.420544
-14.173397 -106.05304 -24.002806
-13.527843 -105.004967 -26.296234
-21.463282 -98.405922 -25.190308
-20.501587 -100.424187 -25.090054
-19.678596 -98.833504 -27.3337
-24.833719 -90.865303 -20.48102
-18.988314 -106.001976 -17.321175
-17.102037 -106.518867 -19.665842
-18.874922 -105.499969 -19.830399
-18.351736 -104.849388 -22.32411
-17.612696 -103.882027 -24.82375
-19.578358 -94.747108 -29.368839
-18.566141 -96.969032 -29.538586
-24.133324 -99.363113 -17.976439
-22.857725 -100.606766 -20.396229
-23.704838 -98.489029 -20.431623
-23.138802 -97.303093 -22.779274
-22.360041 -95.973877 -25.050158
-24.022621 -92.162811 -22.749489
-22.842783 -93.274574 -25.117609
-21.359621 -94.248795 -27.286331
-20.258919 -92.115814 -29.293579
-11.701962 -107.611481 -15.990908
-13.240942 -107.420364 -14.217925
-15.140982 -107.328667 -14.343625
-17.056746 -106.950256 -14.702065
-18.689947 -106.093132 -12.332602
-18.928188 -106.19976 -14.818298
-20.645876 -105.116898 -14.834582
-22.206108 -103.640999 -14.986362
-23.411814 -101.959618 -15.255113
-24.014097 -100.597565 -7.077854
-24.351067 -100.60968 -9.838076
-24.48173 -100.418381 -12.493823
-24.356287 -100.080582 -15.445896
-25.13685 -97.801888 -15.437806
-25.64443 -95.318062 -15.43365
-25.88608 -92.8312 -15.431875
-11.54293 -107.660278 -18.011049
-11.19253 -107.419182 -20.299614
-10.467072 -106.877647 -22.657333
-14.798903 -106.793159 -21.595253
-12.402703 -106.657364 -23.318142
-21.190586 -101.658089 -22.716059
-17.428446 -99.120293 -29.425869
-25.100363 -92.673073 -19.147725
-24.999897 -94.053887 -19.140763
-25.345855 -93.273583 -17.974443
-22.319631 -87.366485 -26.633371
-22.825722 -88.298389 -25.629145
-22.836747 -86.812023 -25.572187
-21.73755 -87.771569 -27.647084
-22.319631 -87.366485 -26.633371
-22.187271 -103.013095 -8.316385
-21.435911 -103.615398 -8.270933
-21.937702 -102.824791 -6.976606
-22.914475 -102.306907 -8.422902
-22.412683 -103.097515 -9.717229
-22.187271 -103.013095 -8.316385
-26.087149 -95.365032 -8.733934
-25.8465 -96.515126 -8.582092
-26.088286 -95.286373 -10.176823
-26.087149 -95.365032 -8.733934
-13.955026 -103.743977 -27.732238
-13.097537 -104.318039 -27.429364
-14.385333 -104.430904 -26.599107
-18.465245 -94.868515 -30.413457
-19.000667 -93.731586 -30.267128
-24.082114 -90.719314 -22.682654
-24.42817 -91.514057 -21.615254
-24.487663 -90.07056 -21.54842
-19.41659 -88.646835 -30.771803
-20.015014 -89.766773 -29.914248
-20.302876 -88.42313 -29.715635
-18.766479 -87.334503 -31.583945
-19.41659 -88.646835 -30.771803
-12.987483 -107.115307 -13.091191
-12.328155 -107.326702 -14.137334
-15.97081 -107.003654 -13.298732
-14.991644 -107.09895 -13.154119
-15.821472 -106.773937 -12.109226
-18.747909 -105.069607 -8.421958
-18.438457 -104.708958 -7.127405
-24.529333 -99.661786 -7.131112
-24.33009 -99.632954 -5.79198
-24.697818 -99.667843 -8.511222
-24.182582 -100.603623 -8.457965
-24.529333 -99.661786 -7.131112
-10.830431 -105.887444 -25.349122
-11.157442 -106.359703 -24.161259
-12.075693 -106.185104 -24.506006
-10.41758 -105.339173 -26.460257
-10.830431 -105.887444 -25.349122
-18.892823 -101.513077 -26.068748
-19.888484 -101.335099 -25.006821
-19.505926 -100.602166 -26.151981
-17.776848 -101.603466 -27.162732
-18.892823 -101.513077 -26.068748
-16.828084 -98.078427 -30.469684
-17.997293 -98.044663 -29.482228
-17.396932 -97.002796 -30.526043
-23.29837 -89.230491 -24.654807
-23.697755 -89.996437 -23.678736
-23.742223 -88.509873 -23.59189
-21.033897 -88.116677 -28.730959
-21.604952 -89.19796 -27.774204
-21.73755 -87.771569 -27.647084
-20.435474 -86.996738 -29.588513
-20.302876 -88.42313 -29.715635
-21.033897 -88.116677 -28.730959
-16.501658 -106.388961 -10.997313
-15.821472 -106.773937 -12.109226
-25.533055 -97.593766 -8.560735
-25.164098 -98.642041 -8.531285
-25.597072 -97.479435 -9.899559
-25.533055 -97.593766 -8.560735
-25.8465 -96.515126 -8.582092
-26.051516 -95.137795 -11.618009
-25.873746 -96.252217 -11.362102
-26.088286 -95.286373 -10.176823
-26.20566 -93.875518 -11.725894
-25.991119 -94.841362 -12.911173
-26.051516 -95.137795 -11.618009
-12.260905 -104.743984 -27.111894
-11.371324 -105.097924 -26.810711
-12.638262 -105.358906 -25.995051
-12.260905 -104.743984 -27.111894
-13.097537 -104.318039 -27.429364
-25.120178 -89.942257 -19.242177
-25.14002 -91.379036 -19.231212
-24.834143 -89.457981 -20.347294
-25.120178 -89.942257 -19.242177
-24.487663 -90.07056 -21.54842
-24.834143 -89.457981 -20.347294
-23.732048 -87.108722 -23.432569
-23.742223 -88.509873 -23.59189
-23.278236 -86.216243 -24.510001
-23.732048 -87.108722 -23.432569
-22.836747 -86.812023 -25.572187
-23.278236 -86.216243 -24.510001
-19.017944 -103.994678 -5.727059
-18.438457 -104.708958 -7.127405
-19.902055 -103.671132 -5.761378
-19.017944 -103.994678 -5.727059
-20.815776 -103.176289 -5.701958
-20.272621 -103.921937 -6.990574
-19.902055 -103.671132 -5.761378
-21.593361 -102.608494 -5.544335
-20.815776 -103.176289 -5.701958
-21.937702 -102.824791 -6.976606
-21.593361 -102.608494 -5.544335
-17.959136 -95.979477 -30.498331
-19.072249 -95.85807 -29.453713
-18.465245 -94.868515 -30.413457
-17.396932 -97.002796 -30.526043
-17.959136 -95.979477 -30.498331
-24.794061 -92.15934 -20.397533
-25.100363 -92.673073 -19.147725
-25.14002 -91.379036 -19.231212
-23.638261 -91.439933 -23.745571
-24.082114 -90.719314 -22.682654
-23.697755 -89.996437 -23.678736
-19.340947 -92.415939 -30.229498
-19.000667 -93.731586 -30.267128
-19.918639 -93.431461 -29.331209
-19.693823 -91.053146 -30.131998
-20.580109 -90.829441 -29.07583
-20.015014 -89.766773 -29.914248
-19.340947 -92.415939 -30.229498
-19.693823 -91.053146 -30.131998
-11.558664 -107.42226 -15.023826
-10.982494 -107.485146 -15.820939
-12.471452 -107.515923 -15.104416
-11.558664 -107.42226 -15.023826
-12.328155 -107.326702 -14.137334
-14.041625 -107.144798 -13.091269
-12.987483 -107.115307 -13.091191
-14.190962 -107.374516 -14.280775
-14.041625 -107.144798 -13.091269
-14.991644 -107.09895 -13.154119
-17.468778 -106.200538 -11.023881
-16.501658 -106.388961 -10.997313
-19.065458 -105.32605 -9.721978
-18.747909 -105.069607 -8.421958
-19.676448 -104.673222 -8.350013
-18.413433 -105.907783 -11.063262
-19.065458 -105.32605 -9.721978
-19.341971 -105.511398 -10.991318
-17.745292 -106.385887 -12.293221
-17.468778 -106.200538 -11.023881
-18.413433 -105.907783 -11.063262
-23.730148 -100.54155 -5.785998
-24.33009 -99.632954 -5.79198
-23.351579 -101.410027 -7.049956
-23.730148 -100.54155 -5.785998
-23.576992 -101.494446 -8.4508
-22.914475 -102.306907 -8.422902
-23.351579 -101.410027 -7.049956
-24.817347 -99.583877 -9.858138
-24.697818 -99.667843 -8.511222
-25.164098 -98.642041 -8.531285
-25.666201 -92.361985 -16.70664
-25.345855 -93.273583 -17.974443
-25.565735 -93.742798 -16.699679
-26.285978 -92.566085 -11.790677
-26.20566 -93.875518 -11.725894
-26.197221 -92.207065 -12.972024
-26.285978 -92.566085 -11.790677
-26.067629 -91.833123 -14.178433
-26.015672 -93.205143 -14.225466
-26.197221 -92.207065 -12.972024
-25.883351 -91.486881 -15.547276
-26.067629 -91.833123 -14.178433
-25.666201 -92.361985 -16.70664
-25.883351 -91.486881 -15.547276
-10.802892 -107.516823 -16.68293
-10.982494 -107.485146 -15.820939
-10.723375 -107.541222 -17.693001
-10.802892 -107.516823 -16.68293
-11.622446 -107.63588 -17.000978
-10.554105 -107.47852 -18.738907
-10.723375 -107.541222 -17.693001
-10.378905 -107.357972 -19.88319
-10.554105 -107.47852 -18.738907
-11.36773 -107.53973 -19.155331
-9.951833 -107.122731 -21.012034
-10.378905 -107.357972 -19.88319
-9.589104 -106.851963 -22.190894
-9.951833 -107.122731 -21.012034
-10.829801 -107.148415 -21.478473
-9.233145 -106.496173 -23.358568
-9.589104 -106.851963 -22.190894
-10.189626 -106.469844 -23.830854
-11.434888 -106.767505 -22.987738
-11.157442 -106.359703 -24.161259
-9.233145 -106.496173 -23.358568
-10.189626 -106.469844 -23.830854
-10.41758 -105.339173 -26.460257
-11.371324 -105.097924 -26.810711
-20.232983 -101.95205 -23.819823
-20.846086 -101.041138 -23.903056
-19.888484 -101.335099 -25.006821
-19.550506 -102.844467 -23.746446
-20.508109 -102.550507 -22.642682
-20.232983 -101.95205 -23.819823
-18.444038 -103.064019 -24.873669
-18.719164 -103.662475 -23.696527
-19.550506 -102.844467 -23.746446
-17.328063 -103.154407 -25.967654
-18.444038 -103.064019 -24.873669
-16.143126 -103.141815 -27.006769
-16.427759 -103.869434 -25.862865
-17.328063 -103.154407 -25.967654
-16.16882 -98.986321 -30.437413
-16.828084 -98.078427 -30.469684
-16.739405 -99.958877 -29.394231
-16.16882 -98.986321 -30.437413
-17.280314 -100.788803 -28.28825
-17.969355 -99.950219 -28.319888
-16.739405 -99.958877 -29.394231
-17.776848 -101.603466 -27.162732
-17.280314 -100.788803 -28.28825
-14.831542 -103.101925 -27.992394
-16.143126 -103.141815 -27.006769
-13.955026 -103.743977 -27.732238
-14.831542 -103.101925 -27.992394
-19.804274 -85.761612 -30.467937
-20.435474 -86.996738 -29.588513
-18.984417 -86.013069 -31.43552
-19.804274 -85.761612 -30.467937
-19.084238 -84.471489 -31.330269
-18.766479 -87.334503 -31.583945
-18.984417 -86.013069 -31.43552
3 0 24 22
3 89 27 90
3 91 90 25
3 89 90 91
3 92 30 93
3 94 93 28
3 92 93 94
3 96 95 30
3 97 34 98
3 99 98 32
3 97 98 99
3 100 36 101
3 102 101 34
3 100 101 102
3 103 38 104
3 106 105 38
3 2 42 40
3 3 45 43
3 3 107 109
3 109 108 45
3 107 108 109
3 1 48 46
3 5 52 50
3 7 53 23
3 7 54 53
3 111 110 55
3 8 59 57
3 10 60 26
3 10 61 60
3 112 62 113
3 114 113 49
3 112 113 114
3 11 63 29
3 11 64 63
3 11 65 64
3 12 115 117
3 117 116 31
3 115 116 117
3 12 118 119
3 120 67 121
3 14 122 124
3 122 68 123
3 122 123 124
3 14 69 68
3 4 125 126
3 15 70 33
3 15 71 70
3 15 72 71
3 16 73 35
3 16 74 73
3 127 75 128
3 129 76 130
3 131 130 75
3 129 130 131
3 17 77 37
3 17 78 77
3 17 79 78
3 18 80 39
3 18 81 80
3 13 82 66
3 19 83 41
3 19 84 83
3 6 85 51
3 20 86 44
3 20 132 134
3 134 133 86
3 132 133 134
3 20 135 136
3 9 87 58
3 21 137 139
3 139 138 47
3 137 138 139
3 21 140 141
3 142 88 143
3 144 143 56
3 142 143 144
3 22 23 5
3 24 23 22
3 24 7 23
3 25 26 8
3 27 26 25
3 27 10 26
3 28 145 147
3 145 29 146
3 145 146 147
3 30 29 28
3 30 11 29
3 30 31 11
3 148 31 149
3 150 149 30
3 148 149 150
3 151 12 152
3 153 152 31
3 151 152 153
3 154 14 155
3 32 33 4
3 34 33 32
3 34 15 33
3 34 35 15
3 36 35 34
3 36 16 35
3 156 37 157
3 38 158 160
3 158 37 159
3 158 159 160
3 38 17 37
3 38 39 17
3 161 39 162
3 163 162 38
3 161 162 163
3 164 18 165
3 166 165 39
3 164 165 166
3 40 41 13
3 42 41 40
3 42 19 41
3 43 44 6
3 45 44 43
3 45 20 44
3 45 167 169
3 169 168 20
3 167 168 169
3 171 170 45
3 46 47 9
3 48 47 46
3 48 21 47
3 172 49 173
3 174 49 175
3 177 176 49
3 178 28 179
3 180 28 181
3 183 182 28
3 184 4 185
3 186 4 187
3 188 32 189
3 190 189 4
3 188 189 190
3 191 32 192
3 194 193 32
3 50 51 2
3 52 51 50
3 52 6 51
3 23 52 5
3 53 52 23
3 53 6 52
3 53 43 6
3 54 43 53
3 54 3 43
3 55 56 1
3 195 56 196
3 197 196 55
3 195 196 197
3 199 198 56
3 57 58 0
3 59 58 57
3 59 9 58
3 26 59 8
3 60 59 26
3 60 9 59
3 60 46 9
3 61 46 60
3 61 1 46
3 49 200 202
3 200 27 201
3 200 201 202
3 62 27 49
3 62 10 27
3 29 203 205
3 203 62 204
3 203 204 205
3 63 62 29
3 63 10 62
3 63 61 10
3 64 61 63
3 64 1 61
3 64 55 1
3 65 55 64
3 65 206 208
3 208 207 55
3 206 207 208
3 31 65 11
3 209 65 210
3 211 210 31
3 209 210 211
3 213 212 65
3 214 66 215
3 67 216 218
3 216 66 217
3 216 217 218
3 67 13 66
3 219 67 220
3 68 221 223
3 221 67 222
3 221 222 223
3 68 13 67
3 68 40 13
3 69 40 68
3 69 2 40
3 224 14 225
3 33 226 228
3 228 227 4
3 226 227 228
3 70 229 231
3 231 230 33
3 229 230 231
3 70 232 234
3 232 14 233
3 232 233 234
3 70 69 14
3 71 69 70
3 71 2 69
3 71 50 2
3 72 50 71
3 72 5 50
3 35 72 15
3 73 72 35
3 73 5 72
3 73 22 5
3 74 22 73
3 74 0 22
3 75 235 236
3 75 237 238
3 75 239 241
3 239 36 240
3 239 240 241
3 76 36 75
3 76 16 36
3 37 242 244
3 242 76 243
3 242 243 244
3 77 76 37
3 77 16 76
3 77 74 16
3 78 74 77
3 78 0 74
3 78 57 0
3 79 57 78
3 79 8 57
3 39 79 17
3 80 79 39
3 80 8 79
3 80 25 8
3 81 25 80
3 81 245 247
3 247 246 25
3 245 246 247
3 248 18 249
3 250 18 251
3 252 81 253
3 254 253 18
3 252 253 254
3 255 81 256
3 258 257 81
3 66 259 260
3 82 261 263
3 263 262 66
3 261 262 263
3 82 264 265
3 41 82 13
3 83 82 41
3 83 266 268
3 268 267 82
3 266 267 268
3 83 269 270
3 84 271 273
3 273 272 83
3 271 272 273
3 84 274 275
3 51 42 2
3 85 42 51
3 85 19 42
3 44 85 6
3 86 85 44
3 86 19 85
3 86 84 19
3 276 84 277
3 278 277 86
3 276 277 278
3 280 279 84
3 282 281 20
3 58 24 0
3 87 24 58
3 87 7 24
3 47 87 9
3 283 87 284
3 285 284 47
3 283 284 285
3 286 7 287
3 288 287 87
3 286 287 288
3 289 54 290
3 291 290 7
3 289 290 291
3 292 54 293
3 294 3 295
3 296 295 54
3 294 295 296
3 56 48 1
3 88 48 56
3 88 21 48
3 297 88 298
3 299 88 300
3 301 21 302
3 303 302 88
3 301 302 303
3 305 304 21
3 306 3 307
3 309 308 3
3 310 12 311
3 312 12 313
3 312 313 314
3 316 315 12
