ply
format ascii 1.0
element vertex 389
property float x
property float y
property float z
element face 379
property list uchar int vertex_index
end_header
27.88249 -51.488163 22.418795
27.991325 -43.630466 28.398256
32.606537 -36.465221 26.59214
32.313087 -43.818714 20.454342
23.212395 -51.254776 29.970528
18.126045 -58.624001 31.275383
29.41334 -50.786205 17.970602
28.139803 -47.829815 25.601604
30.451252 -43.981354 24.729631
30.036732 -47.723877 21.518885
31.477835 -46.964848 16.976696
20.309593 -50.405785 32.785358
20.770905 -54.844223 30.765022
17.80966 -53.871979 33.632565
22.664211 -46.688072 32.041569
14.840263 -52.384418 36.145401
27.351994 -39.359825 30.705206
29.790962 -35.795162 29.976257
30.26046 -40.062946 27.59371
32.68111 -40.307438 23.742565
25.806728 -51.576477 26.547266
25.587397 -55.478523 23.300623
23.345854 -55.58173 27.326441
20.845013 -59.351677 27.882378
18.073109 -62.834614 28.273588
15.306521 -56.973381 34.334251
15.458179 -61.620457 31.6537
24.903008 -43.086964 31.406792
25.533951 -47.577583 29.195492
32.212666 -32.172337 29.148346
28.736103 -51.106037 20.307314
27.6353 -53.113667 20.742941
28.022287 -49.738937 24.110643
29.158621 -47.864262 23.603479
28.931231 -49.606709 22.058039
29.785799 -49.210079 19.845434
19.11216 -52.112282 33.200581
17.536274 -51.466782 34.506546
27.676973 -41.627228 29.600935
28.867073 -39.716473 29.249926
29.095768 -41.897575 28.013504
31.423203 -44.014099 22.689121
31.55162 -42.071121 24.358192
33.041878 -43.460995 18.246279
24.573675 -51.517998 28.306849
24.586147 -53.523724 26.998264
23.334412 -53.486816 28.70915
19.478399 -56.761757 31.048695
20.814457 -57.08815 29.509375
19.56311 -58.977528 29.657728
19.54817 -61.248802 27.952229
18.297436 -60.671711 29.782911
13.926895 -63.215778 31.692713
15.398598 -63.840836 29.999628
13.766388 -65.480072 29.915852
22.863764 -40.298271 33.46035
24.521744 -40.705002 32.339565
23.272043 -42.582397 32.679588
22.831587 -49.057194 31.181965
24.115368 -47.141857 30.733076
24.328186 -49.4198 29.633873
25.716864 -49.590343 27.96027
31.265676 -36.179523 28.371592
30.995792 -34.00779 29.595716
28.112953 -45.715042 27.106838
29.325998 -43.837234 26.620304
29.335163 -45.865108 25.133512
30.291964 -45.954132 23.130699
31.215492 -45.691616 20.989859
31.966105 -45.377045 18.737167
30.878254 -47.233791 19.393894
21.771791 -50.874252 31.463568
22.017981 -53.131981 30.335102
20.610395 -52.647427 31.828341
19.28747 -54.408382 32.279411
18.039581 -56.272331 32.534748
22.085846 -44.47472 33.003376
21.000059 -46.238903 33.319157
21.374945 -48.415604 32.530956
28.212925 -35.439899 31.375671
28.62369 -37.623306 30.284468
30.097157 -37.984341 28.777433
31.362745 -38.179073 27.255095
30.485895 -41.918144 26.211342
31.61861 -40.089977 25.749262
32.542068 -45.059948 16.339397
26.951611 -51.568302 24.5194
26.768702 -53.356003 22.963686
25.787264 -53.541862 24.936985
24.583097 -55.511524 25.365265
23.385437 -57.470081 25.689859
22.114717 -55.373871 29.057556
22.119587 -57.541473 27.585403
16.307701 -53.096809 34.947166
16.616579 -55.550232 33.935825
16.687353 -57.902451 32.86277
15.307487 -59.331982 33.191444
16.798092 -60.215324 31.472479
25.750523 -38.943924 32.003899
26.202806 -41.267654 30.977552
26.529257 -43.475842 29.930645
23.767225 -44.815762 31.747849
25.367712 -45.282593 30.30135
26.724962 -45.623184 28.830517
26.981249 -47.681412 27.432142
26.90333 -49.831223 26.103701
17.320774 -50.235144 34.906692
18.109868 -50.668694 34.29517
32.386158 -43.025098 21.35409
31.941216 -43.122791 22.47148
31.868145 -43.916407 21.571731
32.818335 -42.908054 20.257969
32.386158 -43.025098 21.35409
32.677482 -43.639854 19.35031
33.18273 -42.729195 19.153938
32.818335 -42.908054 20.257969
13.162646 -63.908769 31.702901
13.195773 -62.764696 32.557657
13.082392 -65.040917 30.81447
13.846642 -64.347925 30.804282
13.162646 -63.908769 31.702901
13.005419 -66.111992 29.903435
13.082392 -65.040917 30.81447
22.272683 -41.240919 33.602365
22.051072 -40.055288 33.965626
22.476822 -42.382982 33.211984
23.067903 -41.440334 33.069969
22.272683 -41.240919 33.602365
32.471192 -35.414206 27.311715
31.800761 -35.271357 28.201441
31.936107 -36.322372 27.481866
29.211174 -51.54076 16.931108
29.722887 -50.50806 16.786726
29.953218 -49.778217 17.713413
30.139447 -48.990154 18.650829
29.59957 -49.998142 18.908018
29.722887 -50.50806 16.786726
29.953218 -49.778217 17.713413
20.205125 -46.00119 33.870283
20.742996 -45.036099 33.723164
20.842269 -49.410695 32.658157
20.567529 -48.279303 33.130815
20.034853 -49.274394 33.258016
27.987842 -38.491566 30.494837
27.83161 -37.379227 30.973389
27.195762 -38.247486 31.183758
32.684434 -39.353779 24.491284
32.153185 -39.245048 25.494632
32.14986 -40.198707 24.745914
33.196834 -39.405205 23.514059
32.684434 -39.353779 24.491284
21.454448 -59.442181 26.927037
22.091735 -58.537079 26.77855
21.4823 -58.446575 27.733891
20.853214 -60.356335 26.980829
21.454448 -59.442181 26.927037
18.748874 -63.00478 27.291905
19.486404 -62.211874 27.131225
18.81064 -62.041708 28.112908
18.015358 -63.87493 27.328745
18.748874 -63.00478 27.291905
15.573982 -52.740613 35.546284
16.140884 -51.875103 35.346691
15.407165 -51.518907 35.945808
15.96155 -56.261807 34.135038
15.900817 -55.135801 34.597639
15.245787 -55.847376 34.796852
15.382833 -60.476219 32.422572
14.641326 -60.107254 33.235359
14.716672 -61.251492 32.466487
16.147033 -61.965897 30.804787
16.81699 -61.263331 30.714177
16.128135 -60.91789 31.56309
16.025133 -64.173478 29.119956
15.265854 -64.988975 29.058892
24.940244 -38.685663 32.583527
25.567648 -37.777787 32.447931
26.047734 -55.3069 22.258939
26.638387 -54.24564 22.090471
26.17805 -54.417263 23.132154
29.620764 -34.650091 30.546449
28.831745 -34.472459 31.246156
29.001943 -35.617531 30.675964
31.463399 -32.01544 29.918095
30.854962 -32.933166 30.14178
31.604229 -33.090063 29.372031
32.110411 -31.069119 29.688734
31.463399 -32.01544 29.918095
28.565855 -51.909033 19.366934
28.904474 -51.749117 18.198578
29.074722 -50.946121 19.138958
28.015453 -52.912848 19.584747
28.565855 -51.909033 19.366934
28.185702 -52.109852 20.525127
27.462139 -53.967108 19.796255
28.015453 -52.912848 19.584747
18.897811 -50.991444 33.642187
19.710876 -51.259034 32.99297
19.496527 -50.138195 33.434576
18.324217 -51.789532 33.853563
18.897811 -50.991444 33.642187
18.109868 -50.668694 34.29517
19.496527 -50.138195 33.434576
20.034853 -49.274394 33.258016
32.005425 -42.151302 23.306016
31.487412 -43.04261 23.523657
31.941216 -43.122791 22.47148
32.570169 -41.26946 22.998202
32.116365 -41.189279 24.050379
32.005425 -42.151302 23.306016
33.105227 -40.331503 22.754391
32.570169 -41.26946 22.998202
33.543449 -42.554741 17.995554
33.18273 -42.729195 19.153938
33.318889 -43.305643 16.997816
33.543449 -42.554741 17.995554
31.762971 -46.686091 15.730536
31.272194 -47.610655 15.99367
15.012659 -53.552894 35.702427
14.272399 -53.192817 36.332912
14.586876 -56.62578 34.99127
15.245787 -55.847376 34.796852
13.95103 -62.049152 32.485993
13.195773 -62.764696 32.557657
14.692537 -62.418118 31.673206
14.716672 -61.251492 32.466487
13.95103 -62.049152 32.485993
14.449749 -65.808594 29.017004
15.265854 -64.988975 29.058892
14.582493 -64.660454 29.95774
13.65468 -66.586384 28.916742
14.449749 -65.808594 29.017004
12.893711 -67.218304 28.904325
13.65468 -66.586384 28.916742
13.005419 -66.111992 29.903435
22.668391 -39.194351 33.818582
22.051072 -40.055288 33.965626
23.496865 -39.362837 33.311752
22.668391 -39.194351 33.818582
23.692754 -40.501637 32.899957
24.325854 -39.566202 32.75136
23.496865 -39.362837 33.311752
25.488105 -56.318494 22.436408
24.985427 -56.51268 23.474551
31.665819 -34.18549 28.813503
31.130734 -35.093657 28.983654
31.800761 -35.271357 28.201441
32.274256 -33.267764 28.589818
31.604229 -33.090063 29.372031
31.665819 -34.18549 28.813503
29.211174 -51.54076 16.931108
28.904474 -51.749117 18.198578
30.685674 -48.00201 18.425058
30.332026 -48.221935 19.619664
30.139447 -48.990154 18.650829
30.985465 -47.867539 17.216459
31.178044 -47.09932 18.185295
30.685674 -48.00201 18.425058
31.272194 -47.610655 15.99367
30.985465 -47.867539 17.216459
21.285889 -44.154007 33.565274
21.883724 -43.329144 33.373879
21.542952 -45.356811 33.161266
21.285889 -44.154007 33.565274
20.742996 -45.036099 33.723164
20.380086 -47.190953 33.524916
20.205125 -46.00119 33.870283
21.187502 -47.327253 32.925056
20.380086 -47.190953 33.524916
20.567529 -48.279303 33.130815
33.130682 -35.569229 26.365137
33.185604 -36.568071 25.63089
14.679023 -51.209165 36.491636
15.407165 -51.518907 35.945808
14.164676 -51.992763 36.701248
14.679023 -51.209165 36.491636
14.272399 -53.192817 36.332912
14.164676 -51.992763 36.701248
27.626227 -36.287523 31.518991
27.394586 -35.142651 32.025156
28.418307 -36.531602 30.83007
27.626227 -36.287523 31.518991
27.83161 -37.379227 30.973389
32.025252 -38.289597 26.247549
31.490678 -39.134525 26.502178
32.153185 -39.245048 25.494632
32.647148 -37.432671 25.916071
31.984641 -37.322147 26.923617
32.025252 -38.289597 26.247549
33.185604 -36.568071 25.63089
32.647148 -37.432671 25.916071
33.196834 -39.405205 23.514059
33.105227 -40.331503 22.754391
33.068984 -44.10512 16.044374
33.318889 -43.305643 16.997816
32.791973 -44.260471 17.292838
32.295088 -45.73364 15.411886
32.009951 -46.012398 16.658047
31.762971 -46.686091 15.730536
32.805199 -44.797748 15.016162
32.295088 -45.73364 15.411886
33.068984 -44.10512 16.044374
32.805199 -44.797748 15.016162
24.483277 -56.52918 24.506872
24.985427 -56.51268 23.474551
25.085247 -55.495024 24.332944
23.884447 -57.508459 24.669169
24.483277 -56.52918 24.506872
23.984267 -56.490803 25.527562
23.291379 -58.435755 24.868953
23.884447 -57.508459 24.669169
22.72466 -58.501383 25.830778
22.752512 -57.505777 26.637631
22.091735 -58.537079 26.77855
23.291379 -58.435755 24.868953
22.72466 -58.501383 25.830778
20.204792 -61.304897 27.015754
20.853214 -60.356335 26.980829
20.196592 -60.30024 27.917303
20.204792 -61.304897 27.015754
19.486404 -62.211874 27.131225
16.75517 -51.06009 35.126381
17.320774 -50.235144 34.906692
16.921988 -52.281796 34.726856
16.75517 -51.06009 35.126381
16.140884 -51.875103 35.346691
15.746378 -53.90909 35.10331
15.573982 -52.740613 35.546284
15.012659 -53.552894 35.702427
16.46214 -54.323521 34.441496
15.746378 -53.90909 35.10331
15.900817 -55.135801 34.597639
14.60957 -57.714968 34.503194
14.586876 -56.62578 34.99127
14.610053 -58.894268 33.931791
14.641326 -60.107254 33.235359
15.307004 -58.152681 33.762847
14.60957 -57.714968 34.503194
14.610053 -58.894268 33.931791
17.566662 -61.491524 29.869393
17.547764 -60.443517 30.627695
16.81699 -61.263331 30.714177
17.454498 -62.572975 29.114731
18.185272 -61.753163 29.02825
17.566662 -61.491524 29.869393
16.117243 -63.076087 29.977752
16.147033 -61.965897 30.804787
15.428389 -62.730647 30.826664
16.117243 -63.076087 29.977752
16.025133 -64.173478 29.119956
17.362389 -63.670367 28.256936
17.454498 -62.572975 29.114731
18.015358 -63.87493 27.328745
17.362389 -63.670367 28.256936
26.395027 -38.039535 31.833104
25.567648 -37.777787 32.447931
26.551259 -39.151875 31.354552
27.195762 -38.247486 31.183758
26.395027 -38.039535 31.833104
25.136133 -39.824463 32.171732
24.940244 -38.685663 32.583527
24.325854 -39.566202 32.75136
22.678945 -43.528559 32.841482
22.476822 -42.382982 33.211984
21.883724 -43.329144 33.373879
27.071686 -54.124472 20.980098
27.202001 -53.234835 21.853313
26.638387 -54.24564 22.090471
27.462139 -53.967108 19.796255
27.071686 -54.124472 20.980098
26.047734 -55.3069 22.258939
25.488105 -56.318494 22.436408
28.0995 -34.292623 31.83639
27.394586 -35.142651 32.025156
28.0995 -34.292623 31.83639
28.831745 -34.472459 31.246156
30.223179 -33.756405 30.356178
29.620764 -34.650091 30.546449
30.393377 -34.901476 29.785986
30.223179 -33.756405 30.356178
30.854962 -32.933166 30.14178
32.471192 -35.414206 27.311715
33.130682 -35.569229 26.365137
32.867569 -32.386299 28.289623
32.274256 -33.267764 28.589818
32.762053 -31.275903 28.925013
32.867569 -32.386299 28.289623
32.110411 -31.069119 29.688734
32.762053 -31.275903 28.925013
3 0 31 30
3 0 34 32
3 0 30 34
3 106 37 107
3 1 40 38
3 3 108 110
3 110 109 41
3 108 109 110
3 3 111 112
3 3 113 115
3 113 43 114
3 113 114 115
3 4 46 44
3 5 49 47
3 5 51 49
3 116 52 117
3 118 54 119
3 120 119 52
3 118 119 120
3 122 121 54
3 123 55 124
3 125 57 126
3 127 126 55
3 125 126 127
3 4 60 58
3 4 44 60
3 2 128 130
3 130 129 62
3 128 129 130
3 6 131 132
3 7 66 64
3 9 67 33
3 9 68 67
3 9 70 68
3 6 133 135
3 135 134 35
3 133 134 135
3 6 136 137
3 11 73 71
3 13 74 36
3 13 75 74
3 138 77 139
3 11 140 142
3 140 78 141
3 140 141 142
3 11 71 78
3 16 143 145
3 143 80 144
3 143 144 145
3 18 81 39
3 18 82 81
3 8 83 65
3 19 84 42
3 19 146 148
3 148 147 84
3 146 147 148
3 19 149 150
3 10 85 69
3 20 88 86
3 22 89 45
3 22 90 89
3 12 91 72
3 23 92 48
3 23 151 153
3 153 152 92
3 151 152 153
3 23 154 155
3 24 156 158
3 158 157 50
3 156 157 158
3 24 159 160
3 15 161 163
3 161 93 162
3 161 162 163
3 25 164 166
3 164 94 165
3 164 165 166
3 25 95 94
3 26 167 169
3 167 96 168
3 167 168 169
3 26 97 96
3 26 170 172
3 172 171 97
3 170 171 172
3 174 173 53
3 175 98 176
3 27 99 56
3 27 100 99
3 14 101 76
3 28 102 59
3 28 103 102
3 28 104 103
3 20 105 61
3 20 86 105
3 21 177 179
3 179 178 87
3 177 178 179
3 17 180 182
3 182 181 79
3 180 181 182
3 29 183 185
3 185 184 63
3 183 184 185
3 29 186 187
3 30 188 190
3 190 189 6
3 188 189 190
3 31 191 193
3 193 192 30
3 191 192 193
3 31 194 195
3 32 33 7
3 34 33 32
3 34 9 33
3 34 35 9
3 30 35 34
3 30 6 35
3 196 36 197
3 198 197 11
3 196 197 198
3 37 199 201
3 199 36 200
3 199 200 201
3 37 13 36
3 202 11 203
3 38 39 16
3 40 39 38
3 40 18 39
3 41 42 8
3 204 42 205
3 206 205 41
3 204 205 206
3 207 19 208
3 209 208 42
3 207 208 209
3 211 210 19
3 43 212 213
3 43 214 215
3 217 216 10
3 44 45 20
3 46 45 44
3 46 22 45
3 47 48 12
3 49 48 47
3 49 23 48
3 49 50 23
3 51 50 49
3 51 24 50
3 219 218 15
3 220 25 221
3 52 222 223
3 52 224 226
3 224 26 225
3 224 225 226
3 52 53 26
3 54 53 52
3 54 227 229
3 229 228 53
3 227 228 229
3 54 230 231
3 234 233 54
3 232 233 234
3 55 235 236
3 55 237 238
3 55 239 241
3 239 56 240
3 239 240 241
3 57 56 55
3 57 27 56
3 58 59 14
3 60 59 58
3 60 28 59
3 60 61 28
3 44 61 60
3 44 20 61
3 243 242 21
3 62 63 17
3 244 63 245
3 246 245 62
3 244 245 246
3 247 29 248
3 249 248 63
3 247 248 249
3 251 250 6
3 64 65 1
3 66 65 64
3 66 8 65
3 33 66 7
3 67 66 33
3 67 8 66
3 67 41 8
3 68 41 67
3 68 3 41
3 68 69 3
3 70 69 68
3 70 10 69
3 35 70 9
3 252 70 253
3 254 253 35
3 252 253 254
3 255 10 256
3 257 256 70
3 255 256 257
3 259 258 10
3 71 72 4
3 73 72 71
3 73 12 72
3 36 73 11
3 74 73 36
3 74 12 73
3 74 47 12
3 75 47 74
3 75 5 47
3 260 76 261
3 77 262 264
3 262 76 263
3 262 263 264
3 77 14 76
3 265 77 266
3 78 267 269
3 267 77 268
3 267 268 269
3 78 14 77
3 78 58 14
3 71 58 78
3 71 4 58
3 271 270 2
3 272 15 273
3 274 15 275
3 277 276 15
3 278 79 279
3 80 280 282
3 280 79 281
3 280 281 282
3 80 17 79
3 39 80 16
3 81 80 39
3 81 17 80
3 81 62 17
3 82 62 81
3 82 2 62
3 65 40 1
3 83 40 65
3 83 18 40
3 42 83 8
3 84 83 42
3 84 18 83
3 84 82 18
3 283 82 284
3 285 284 84
3 283 284 285
3 286 2 287
3 288 287 82
3 286 287 288
3 290 289 2
3 292 291 19
3 69 43 3
3 85 43 69
3 85 293 295
3 295 294 43
3 293 294 295
3 296 85 297
3 298 297 10
3 296 297 298
3 299 85 300
3 302 301 85
3 86 87 0
3 88 87 86
3 88 21 87
3 45 88 20
3 89 88 45
3 89 21 88
3 89 303 305
3 305 304 21
3 303 304 305
3 90 306 308
3 308 307 89
3 306 307 308
3 90 309 310
3 72 46 4
3 91 46 72
3 91 22 46
3 48 91 12
3 92 91 48
3 92 22 91
3 92 90 22
3 311 90 312
3 313 312 92
3 311 312 313
3 315 314 90
3 50 316 318
3 318 317 23
3 316 317 318
3 320 319 50
3 321 37 322
3 93 323 325
3 323 37 324
3 323 324 325
3 93 13 37
3 326 93 327
3 328 327 15
3 326 327 328
3 94 329 331
3 329 93 330
3 329 330 331
3 94 13 93
3 94 75 13
3 95 75 94
3 95 5 75
3 332 25 333
3 96 334 335
3 96 336 338
3 336 25 337
3 336 337 338
3 96 95 25
3 97 95 96
3 97 5 95
3 97 51 5
3 339 51 340
3 341 340 97
3 339 340 341
3 342 24 343
3 344 343 51
3 342 343 344
3 53 345 347
3 347 346 26
3 345 346 347
3 349 348 53
3 350 24 351
3 353 352 24
3 98 354 355
3 98 356 358
3 356 16 357
3 356 357 358
3 56 359 361
3 359 98 360
3 359 360 361
3 99 98 56
3 99 16 98
3 99 38 16
3 100 38 99
3 100 1 38
3 76 362 364
3 362 57 363
3 362 363 364
3 101 57 76
3 101 27 57
3 59 101 14
3 102 101 59
3 102 27 101
3 102 100 27
3 103 100 102
3 103 1 100
3 103 64 1
3 104 64 103
3 104 7 64
3 61 104 28
3 105 104 61
3 105 7 104
3 105 32 7
3 86 32 105
3 86 0 32
3 87 31 0
3 365 31 366
3 367 366 87
3 365 366 367
3 369 368 31
3 371 370 21
3 79 372 373
3 375 374 79
3 63 376 378
3 378 377 17
3 376 377 378
3 380 379 63
3 382 381 2
3 383 29 384
3 385 29 386
3 388 387 29
