ply
format ascii 1.0
element vertex 190
property float x
property float y
property float z
element face 160
property list uchar int vertex_index
end_header
-40.892967 -4.314759 -44.579628
-39.190456 -2.62526 -53.58268
-38.449287 7.455056 -49.990658
-41.099709 -9.827952 -45.705181
-40.303734 -9.312509 -50.098518
-40.325157 -3.343539 -49.076515
-37.065346 9.107649 -55.223106
-39.93689 1.782361 -47.414135
-38.994411 3.045355 -52.323814
-37.452198 3.990263 -56.891773
-41.171169 -7.216521 -43.218262
-40.743034 -6.432964 -47.569061
-40.664776 -3.790097 -46.843323
-39.826672 -5.885133 -51.826439
-39.673531 -9.29282 -52.168461
-39.11235 -5.688902 -53.922504
-39.569691 2.260707 -49.878342
-36.129929 9.811992 -57.620647
-37.29528 6.738202 -56.199741
-36.29493 7.395437 -58.463852
-40.762657 -9.305288 -47.98505
-40.349625 -6.01554 -49.734585
-39.829727 -2.947532 -51.387348
-37.865173 8.27117 -52.614086
-34.807022 12.891461 -58.80069
-40.234257 0.804351 -45.17667
-40.473228 -1.316062 -46.238697
-40.172928 -0.740762 -48.457302
-39.760735 -0.331553 -50.710258
-39.173923 0.227505 -52.978043
-38.087631 6.17526 -53.867886
-38.265671 3.680221 -54.733665
-38.423107 0.614936 -55.221249
-37.424953 0.918329 -57.521038
-40.947716 -5.550216 -45.023477
-41.086816 -7.001097 -44.342794
-41.032068 -5.76564 -43.898945
-40.778872 -4.052428 -45.711475
-40.83362 -5.287885 -46.155325
-40.947716 -5.550216 -45.023477
-38.763044 -2.49434 -54.677843
-38.723991 -4.026161 -54.847755
-39.151403 -4.157081 -53.752592
-38.625518 7.106764 -48.758688
-38.15941 8.456247 -49.380593
-38.866069 6.015218 -49.365046
-38.625518 7.106764 -48.758688
-38.61572 6.445239 -50.603245
-38.866069 6.015218 -49.365046
-35.651247 8.946149 -59.185974
-36.212429 8.603715 -58.042249
-35.568747 10.154426 -58.764371
-35.746199 7.521657 -59.512692
-35.651247 8.946149 -59.185974
-41.201794 -11.397384 -44.842436
-41.181507 -9.808194 -44.745203
-41.083769 -11.234057 -45.887194
-41.185854 -12.803489 -45.024449
-41.201794 -11.397384 -44.842436
-40.931183 -9.56662 -46.845116
-40.915243 -10.972725 -47.027128
-41.083769 -11.234057 -45.887194
-34.587826 13.960608 -58.237626
-35.33178 12.485171 -57.601927
-40.209667 -10.936983 -50.217121
-40.499567 -10.970229 -49.113655
-39.551384 -10.918285 -52.20862
-39.289644 -9.199037 -53.127849
-40.085573 1.293356 -46.295403
-39.913547 2.336069 -45.747124
-39.764864 2.825074 -46.865856
-41.217237 -8.502479 -43.501744
-41.268963 -8.745252 -42.524819
-41.217237 -8.502479 -43.501744
-41.086816 -7.001097 -44.342794
-41.051086 -8.306812 -45.586254
-41.181507 -9.808194 -44.745203
-40.872749 -6.609319 -46.518194
-40.921371 -8.130458 -46.637121
-41.051086 -8.306812 -45.586254
-40.703905 -5.11153 -47.206192
-40.872749 -6.609319 -46.518194
-40.83362 -5.287885 -46.155325
-39.009054 -7.397078 -54.004871
-39.289644 -9.199037 -53.127849
-39.39294 -7.490861 -53.045483
-38.629383 -5.606431 -54.999874
-38.526087 -7.314607 -55.082241
-39.009054 -7.397078 -54.004871
-38.629383 -5.606431 -54.999874
-38.723991 -4.026161 -54.847755
-39.609871 3.178871 -48.076784
-39.764864 2.825074 -46.865856
-39.426271 3.418044 -49.308887
-39.75329 2.021534 -48.646239
-39.609871 3.178871 -48.076784
-39.175922 3.848065 -50.547087
-39.426271 3.418044 -49.308887
-38.888283 4.240389 -51.769823
-39.282051 2.653031 -51.101078
-39.175922 3.848065 -50.547087
-36.380783 5.855401 -58.708672
-36.959418 4.152813 -57.922632
-36.873564 5.69285 -57.677813
-35.832053 5.98162 -59.757511
-36.380783 5.855401 -58.708672
-35.746199 7.521657 -59.512692
-40.729028 -10.966618 -48.056921
-40.915243 -10.972725 -47.027128
-40.533195 -9.308898 -49.041784
-40.499567 -10.970229 -49.113655
-40.729028 -10.966618 -48.056921
-37.924039 8.904177 -50.613974
-38.15941 8.456247 -49.380593
-37.631982 9.312234 -51.925687
-38.15723 7.863113 -51.302372
-37.924039 8.904177 -50.613974
-37.310118 9.709153 -53.244733
-37.631982 9.312234 -51.925687
-36.910204 10.127393 -54.549244
-37.46526 8.68941 -53.918596
-37.310118 9.709153 -53.244733
-36.460942 10.593266 -55.813135
-36.910204 10.127393 -54.549244
-35.993233 10.945437 -57.011905
-36.597637 9.45982 -56.421876
-36.460942 10.593266 -55.813135
-35.468475 11.351726 -58.210668
-35.993233 10.945437 -57.011905
-35.33178 12.485171 -57.601927
-34.907294 11.694161 -59.354393
-35.568747 10.154426 -58.764371
-35.468475 11.351726 -58.210668
-41.218592 -7.572883 -42.148035
-41.268963 -8.745252 -42.524819
-41.095026 -6.03783 -42.85108
-41.218592 -7.572883 -42.148035
-40.955925 -4.586949 -43.531763
-41.032068 -5.76564 -43.898945
-41.095026 -6.03783 -42.85108
-39.894566 -10.927139 -51.252093
-40.209667 -10.936983 -50.217121
-39.988632 -9.302665 -51.133489
-39.894566 -10.927139 -51.252093
-39.551384 -10.918285 -52.20862
-40.789575 -3.165724 -44.217554
-40.955925 -4.586949 -43.531763
-40.024393 1.883447 -44.587147
-39.913547 2.336069 -45.747124
-40.299938 0.502354 -44.104859
-40.024393 1.883447 -44.587147
-40.46022 -0.60617 -44.516075
-40.299938 0.502354 -44.104859
-40.579706 -1.666376 -45.047089
-40.46022 -0.60617 -44.516075
-40.353742 -0.255856 -45.707684
-40.683098 -2.81541 -45.409163
-40.789575 -3.165724 -44.217554
-40.579706 -1.666376 -45.047089
-38.323663 6.853296 -51.914959
-38.61572 6.445239 -50.603245
-38.15723 7.863113 -51.302372
-38.434893 5.805341 -52.541859
-38.323663 6.853296 -51.914959
-37.976402 7.223215 -53.240986
-38.541021 4.610307 -53.09585
-38.888283 4.240389 -51.769823
-38.434893 5.805341 -52.541859
-38.379369 -0.874242 -55.497128
-38.763044 -2.49434 -54.677843
-38.806781 -1.005162 -54.401965
-37.880292 -0.722546 -56.647022
-38.379369 -0.874242 -55.497128
-37.92403 0.766633 -56.371144
-37.367042 -0.631457 -57.674293
-37.880292 -0.722546 -56.647022
-36.945795 2.616846 -58.237264
-37.438575 2.454296 -57.206406
-36.959418 4.152813 -57.922632
-36.89839 1.07121 -58.47468
-36.945795 2.616846 -58.237264
-36.419231 2.769728 -59.190906
-37.367042 -0.631457 -57.674293
-36.89839 1.07121 -58.47468
-34.071258 14.183519 -59.460527
-34.587826 13.960608 -58.237626
-34.187748 13.093167 -60.044615
-34.071258 14.183519 -59.460527
-34.907294 11.694161 -59.354393
-34.187748 13.093167 -60.044615
3 0 34 36
3 36 35 10
3 34 35 36
3 0 37 39
3 37 12 38
3 37 38 39
3 1 15 13
3 1 40 42
3 42 41 15
3 40 41 42
3 2 43 44
3 2 45 46
3 2 47 48
3 49 19 50
3 51 50 17
3 49 50 51
3 53 52 19
3 3 54 55
3 3 56 58
3 56 57 58
3 3 59 61
3 59 20 60
3 59 60 61
3 5 21 11
3 5 22 21
3 62 24 63
3 4 64 65
3 67 66 14
3 7 68 70
3 68 25 69
3 68 69 70
3 7 26 25
3 7 27 26
3 8 28 16
3 8 29 28
3 6 30 23
3 9 31 18
3 9 32 31
3 9 33 32
3 10 71 72
3 74 73 10
3 75 3 76
3 77 11 78
3 79 78 3
3 77 78 79
3 12 80 82
3 80 11 81
3 80 81 82
3 12 5 11
3 13 14 4
3 15 14 13
3 15 83 85
3 85 84 14
3 83 84 85
3 15 86 88
3 86 87 88
3 90 89 15
3 91 7 92
3 93 16 94
3 95 94 7
3 93 94 95
3 96 16 97
3 98 8 99
3 100 99 16
3 98 99 100
3 17 18 6
3 19 18 17
3 19 9 18
3 19 101 103
3 103 102 9
3 101 102 103
3 106 105 19
3 104 105 106
3 20 107 108
3 20 109 111
3 109 4 110
3 109 110 111
3 11 20 3
3 21 20 11
3 21 4 20
3 21 13 4
3 22 13 21
3 22 1 13
3 112 2 113
3 114 23 115
3 116 115 2
3 114 115 116
3 117 23 118
3 119 6 120
3 121 120 23
3 119 120 121
3 122 6 123
3 124 17 125
3 126 125 6
3 124 125 126
3 24 127 129
3 127 17 128
3 127 128 129
3 24 130 132
3 132 131 17
3 130 131 132
3 133 10 134
3 135 10 136
3 137 0 138
3 139 138 10
3 137 138 139
3 14 140 142
3 142 141 4
3 140 141 142
3 144 143 14
3 145 0 146
3 25 147 148
3 25 149 150
3 25 151 152
3 26 153 155
3 155 154 25
3 153 154 155
3 26 156 158
3 156 0 157
3 156 157 158
3 26 12 0
3 27 12 26
3 27 5 12
3 16 27 7
3 28 27 16
3 28 5 27
3 28 22 5
3 29 22 28
3 29 1 22
3 23 159 161
3 161 160 2
3 159 160 161
3 30 162 164
3 164 163 23
3 162 163 164
3 30 165 167
3 165 8 166
3 165 166 167
3 18 30 6
3 31 30 18
3 31 8 30
3 31 29 8
3 32 29 31
3 32 1 29
3 32 168 170
3 170 169 1
3 168 169 170
3 33 171 173
3 173 172 32
3 171 172 173
3 33 174 175
3 176 33 177
3 178 177 9
3 176 177 178
3 179 33 180
3 179 180 181
3 183 182 33
3 184 24 185
3 186 24 187
3 189 188 24
