ply
format ascii 1.0
element vertex 68
property float x
property float y
property float z
element face 51
property list uchar int vertex_index
end_header
-18.869564 50.915951 55.215115
-15.249997 52.62014 52.779823
-19.512213 43.396816 58.852577
-17.067295 51.852139 54.059898
-18.368988 54.672264 53.164406
-16.631323 55.374012 52.080235
-19.043755 47.133724 57.057617
-17.760481 44.462872 57.800507
-17.400299 48.172291 55.966549
-19.489333 52.154579 54.763599
-19.704336 50.312269 55.711018
-20.182368 44.689268 58.416101
-21.061059 44.084591 58.823317
-20.390904 42.792139 59.259792
-19.277984 45.26527 57.955097
-19.948139 46.557722 57.518622
-20.182368 44.689268 58.416101
-16.913506 45.049465 57.151774
-17.117132 43.164448 58.075675
-16.733415 46.904175 56.234794
-17.58039 46.317582 56.883528
-16.913506 45.049465 57.151774
-16.534129 48.676443 55.314232
-16.733415 46.904175 56.234794
-19.063326 55.898741 52.71929
-18.247362 56.404421 52.197705
-15.072364 54.41411 51.768682
-14.40105 52.772255 52.213718
-19.785438 41.615543 59.655645
-20.390904 42.792139 59.259792
-17.378529 56.755295 51.655619
-18.247362 56.404421 52.197705
-17.500155 55.023138 52.622321
-15.763027 55.791046 51.418889
-15.94066 53.997076 52.430029
-15.072364 54.41411 51.768682
-16.503981 57.074679 51.108711
-15.763027 55.791046 51.418889
-17.378529 56.755295 51.655619
-16.503981 57.074679 51.108711
-19.791432 48.421156 56.632269
-19.948139 46.557722 57.518622
-18.95666 49.024838 56.136366
-19.704336 50.312269 55.711018
-19.791432 48.421156 56.632269
-18.862826 42.113845 59.18745
-19.785438 41.615543 59.655645
-17.98696 42.646873 58.661416
-17.343612 41.34845 58.936583
-17.117132 43.164448 58.075675
-18.636347 43.929844 58.326542
-18.862826 42.113845 59.18745
-17.98696 42.646873 58.661416
-16.367628 50.516367 54.360906
-17.233797 50.012215 55.013223
-16.534129 48.676443 55.314232
-15.458979 50.900368 53.720869
-16.158646 52.23614 53.41986
-16.367628 50.516367 54.360906
-14.557109 51.105034 53.112797
-15.458979 50.900368 53.720869
-14.40105 52.772255 52.213718
-14.557109 51.105034 53.112797
-19.239045 54.032736 53.738245
-19.489333 52.154579 54.763599
-18.619276 52.794107 54.18976
-19.239045 54.032736 53.738245
-19.063326 55.898741 52.71929
3 0 9 10
3 1 5 3
3 2 11 13
3 11 12 13
3 2 14 16
3 14 6 15
3 14 15 16
3 17 7 18
3 19 8 20
3 21 20 7
3 19 20 21
3 23 22 8
3 25 24 4
3 27 26 1
3 28 2 29
3 3 4 0
3 5 4 3
3 5 30 32
3 32 31 4
3 30 31 32
3 33 5 34
3 35 34 1
3 33 34 35
3 36 5 37
3 39 38 5
3 6 40 41
3 6 42 44
3 42 0 43
3 42 43 44
3 45 2 46
3 7 47 49
3 47 48 49
3 7 50 52
3 50 2 51
3 50 51 52
3 7 6 2
3 8 6 7
3 8 0 6
3 8 3 0
3 53 3 54
3 55 54 8
3 53 54 55
3 56 1 57
3 58 57 3
3 56 57 58
3 59 1 60
3 62 61 1
3 4 63 65
3 65 64 0
3 63 64 65
3 67 66 4
