ply
format ascii 1.0
element vertex 247
property float x
property float y
property float z
element face 219
property list uchar int vertex_index
end_header
32.113571 -17.100584 -59.008057
36.448921 -5.256531 -58.734932
36.045441 7.987721 -60.01115
34.668114 -11.356591 -59.116707
33.698982 -3.117537 -62.362423
31.651331 -8.788216 -62.323772
28.830105 -14.950172 -61.546738
37.040668 -13.404509 -55.751751
34.857605 -19.433697 -55.986134
34.382202 -27.779234 -52.791004
31.740557 -25.922327 -55.593208
25.632677 -20.553526 -60.325909
35.164154 2.61628 -61.630436
33.450893 -14.005194 -59.239178
33.139454 -10.187976 -60.809769
31.909554 -12.976199 -60.70089
30.321888 -11.895532 -62.00779
30.490187 -16.137774 -60.317783
38.076599 -14.467805 -53.767605
36.131088 -16.393431 -55.862682
33.123787 -27.048977 -54.16663
37.070042 -2.285953 -58.268261
36.465218 1.515784 -59.598286
35.913494 -1.369007 -60.166157
27.116428 -9.888318 -64.104568
35.626282 -8.191032 -59.07132
35.144917 -3.974267 -60.664051
34.306477 -7.111215 -60.752548
32.881584 -6.204051 -62.254906
31.186708 -5.005483 -63.808205
29.914116 -7.938358 -63.60688
28.669271 -11.076525 -63.078331
27.280945 -13.743756 -62.584877
37.570992 -6.553785 -56.727051
36.842754 -9.472034 -57.187603
35.953426 -12.198713 -57.512581
34.84108 -15.382644 -57.556198
33.515812 -18.572008 -57.452484
35.518314 -28.922586 -51.078964
34.667114 -23.722582 -54.364014
33.352913 -22.880184 -55.808857
31.946968 -21.492786 -57.343552
30.336588 -24.515476 -56.97345
30.498053 -20.357914 -58.623478
28.895578 -19.244892 -59.8134
27.292568 -17.769354 -60.991299
25.783278 -16.625029 -61.874847
24.212074 -15.46303 -62.67749
36.921764 4.051274 -58.723217
35.685165 5.350591 -60.920387
34.295856 6.513942 -62.953407
34.534531 -0.110267 -62.090397
26.21146 -9.502415 -64.518681
26.422049 -11.370937 -63.744125
35.54907 9.684 -60.597482
36.191126 9.06222 -59.398329
35.434299 8.394736 -61.041948
35.54907 9.684 -60.597482
38.047419 -7.189298 -55.669323
37.83722 -5.216935 -56.421181
37.451045 -12.058521 -55.506412
37.969011 -12.59017 -54.51434
37.558633 -13.936157 -54.759678
36.941711 -11.438271 -56.469677
37.352089 -10.092284 -56.224339
37.451045 -12.058521 -55.506412
34.950258 -28.35091 -51.934984
34.74681 -30.528782 -51.071321
34.178754 -29.957107 -51.927341
35.107432 -26.341441 -52.719969
35.675488 -26.913117 -51.863948
34.950258 -28.35091 -51.934984
34.524658 -25.750908 -53.577509
35.249887 -24.313115 -53.506473
35.107432 -26.341441 -52.719969
29.52204 -23.994837 -57.560805
29.35798 -25.998593 -56.785883
29.602773 -21.916056 -58.385818
30.41732 -22.436695 -57.798464
29.52204 -23.994837 -57.560805
28.801535 -21.359545 -58.980779
29.696815 -19.801403 -59.218439
29.602773 -21.916056 -58.385818
26.462623 -19.16144 -60.658604
27.225587 -19.850285 -60.16667
26.395642 -21.242372 -59.833975
23.340317 -16.734848 -62.289438
24.154393 -17.359347 -61.92267
23.362737 -14.946742 -63.016316
23.340317 -16.734848 -62.289438
37.280996 2.012779 -58.034681
37.451393 3.262007 -57.579712
36.620939 7.255143 -58.871955
36.191126 9.06222 -59.398329
38.079169 -16.555934 -53.000479
38.454125 -15.187342 -52.759003
37.630933 -16.031879 -53.918415
38.079169 -16.555934 -53.000479
37.112968 -15.500231 -54.910488
37.558633 -13.936157 -54.759678
37.630933 -16.031879 -53.918415
36.658178 -16.994692 -54.965953
36.585878 -14.89897 -55.807216
37.112968 -15.500231 -54.910488
36.078484 -18.566009 -55.063406
36.658178 -16.994692 -54.965953
35.441742 -20.086143 -55.125132
35.494346 -17.913564 -55.924408
36.078484 -18.566009 -55.063406
33.580467 -29.405127 -52.693569
34.178754 -29.957107 -51.927341
32.951259 -29.039998 -53.381382
33.752994 -27.414105 -53.478817
33.580467 -29.405127 -52.693569
32.228363 -28.470548 -54.130993
32.951259 -29.039998 -53.381382
31.536748 -27.907222 -54.844282
32.432172 -26.485652 -54.879919
32.228363 -28.470548 -54.130993
25.519325 -22.666677 -59.48822
26.395642 -21.242372 -59.833975
26.28229 -23.355522 -58.996286
36.76763 -0.385085 -58.933273
37.052723 0.745034 -58.472216
37.355135 -1.155835 -57.807203
33.342875 -1.130638 -63.102798
32.91126 -2.599003 -63.15469
26.80459 -7.968678 -64.901226
27.702528 -8.459644 -64.390961
26.80459 -7.968678 -64.901226
26.21146 -9.502415 -64.518681
32.502561 -4.142259 -63.100932
32.91126 -2.599003 -63.15469
33.290283 -4.660794 -62.308664
31.655124 -3.542975 -63.877581
32.502561 -4.142259 -63.100932
32.034146 -5.604767 -63.031555
30.838229 -3.039455 -64.575226
31.655124 -3.542975 -63.877581
30.337294 -4.484347 -64.457123
30.838229 -3.039455 -64.575226
29.700997 -5.950785 -64.35646
30.337294 -4.484347 -64.457123
30.550412 -6.47192 -63.707543
29.101372 -7.484664 -64.142117
29.700997 -5.950785 -64.35646
28.478949 -9.053748 -63.877842
29.101372 -7.484664 -64.142117
29.291694 -9.507442 -63.342605
27.892849 -10.482422 -63.591449
27.702528 -8.459644 -64.390961
28.478949 -9.053748 -63.877842
26.504308 -13.298656 -62.984279
26.422049 -11.370937 -63.744125
27.198687 -11.816037 -63.344723
37.586745 -3.083019 -57.191786
37.355135 -1.155835 -57.807203
37.320517 -4.419869 -57.497656
37.586745 -3.083019 -57.191786
37.83722 -5.216935 -56.421181
38.418041 -13.089289 -53.486485
38.454125 -15.187342 -52.759003
38.418041 -13.089289 -53.486485
37.969011 -12.59017 -54.51434
37.716207 -8.633159 -55.994062
38.047419 -7.189298 -55.669323
37.206873 -8.01291 -56.957327
37.716207 -8.633159 -55.994062
37.352089 -10.092284 -56.224339
35.29088 -30.980382 -50.276727
34.74681 -30.528782 -51.071321
36.015802 -29.392635 -50.209778
35.29088 -30.980382 -50.276727
36.220434 -27.38597 -50.950328
36.015802 -29.392635 -50.209778
36.220434 -27.38597 -50.950328
35.675488 -26.913117 -51.863948
35.346497 -22.230585 -54.314072
35.249887 -24.313115 -53.506473
34.76236 -21.578139 -55.175074
35.441742 -20.086143 -55.125132
35.346497 -22.230585 -54.314072
30.805445 -27.390315 -55.47187
31.536748 -27.907222 -54.844282
30.10346 -26.686889 -56.161991
29.35798 -25.998593 -56.785883
31.038573 -25.218902 -56.283329
30.805445 -27.390315 -55.47187
30.10346 -26.686889 -56.161991
28.027093 -20.588054 -59.57772
28.801535 -21.359545 -58.980779
27.93305 -22.702708 -58.7451
28.094073 -18.507123 -60.402349
28.027093 -20.588054 -59.57772
27.225587 -19.850285 -60.16667
25.755474 -14.739293 -62.629265
26.504308 -13.298656 -62.984279
26.532111 -15.184393 -62.229862
24.703439 -22.079316 -59.88971
25.519325 -22.666677 -59.48822
24.864694 -19.904595 -60.74688
24.703439 -22.079316 -59.88971
23.935456 -21.430385 -60.31068
24.939995 -17.940347 -61.521349
25.707977 -18.589278 -61.100378
24.864694 -19.904595 -60.74688
24.997676 -16.04403 -62.276168
24.939995 -17.940347 -61.521349
24.154393 -17.359347 -61.92267
24.969873 -14.158293 -63.030586
25.755474 -14.739293 -62.629265
24.997676 -16.04403 -62.276168
24.070814 -13.696009 -63.410732
24.969873 -14.158293 -63.030586
24.070814 -13.696009 -63.410732
23.362737 -14.946742 -63.016316
37.059101 5.28692 -58.227989
37.451393 3.262007 -57.579712
36.483603 6.019497 -59.367183
36.620939 7.255143 -58.871955
37.059101 5.28692 -58.227989
36.693491 2.783529 -59.160752
37.280996 2.012779 -58.034681
37.052723 0.745034 -58.472216
35.254161 7.076171 -61.496567
35.434299 8.394736 -61.041948
35.865303 6.669156 -60.465768
34.559507 7.657846 -62.513076
35.254161 7.076171 -61.496567
34.99051 5.932266 -61.936897
33.797945 8.281146 -63.537365
34.559507 7.657846 -62.513076
33.760649 0.372997 -62.966786
34.116757 -1.613902 -62.22641
33.342875 -1.130638 -63.102798
34.127882 1.841036 -62.797945
33.760649 0.372997 -62.966786
34.442694 3.204309 -62.567965
34.849343 1.253007 -61.860416
34.127882 1.841036 -62.797945
34.008544 5.153141 -63.22945
34.730005 4.565111 -62.291922
34.442694 3.204309 -62.567965
33.550358 6.909019 -63.849422
34.008544 5.153141 -63.22945
33.797945 8.281146 -63.537365
33.550358 6.909019 -63.849422
3 0 15 13
3 0 17 15
3 1 23 21
3 53 52 24
3 2 54 55
3 2 56 57
3 3 27 25
3 5 28 14
3 5 29 28
3 5 30 29
3 6 31 16
3 6 32 31
3 58 33 59
3 7 60 62
3 62 61 18
3 60 61 62
3 7 63 65
3 63 34 64
3 63 64 65
3 7 35 34
3 8 36 19
3 8 37 36
3 9 66 68
3 66 38 67
3 66 67 68
3 9 69 71
3 71 70 38
3 69 70 71
3 9 72 74
3 72 39 73
3 72 73 74
3 10 40 20
3 10 41 40
3 75 42 76
3 77 43 78
3 79 78 42
3 77 78 79
3 80 44 81
3 82 81 43
3 80 81 82
3 11 83 85
3 83 45 84
3 83 84 85
3 11 46 45
3 86 47 87
3 89 88 47
3 90 48 91
3 12 49 22
3 12 50 49
3 4 51 26
3 92 2 93
3 13 14 3
3 15 14 13
3 15 5 14
3 15 16 5
3 17 16 15
3 17 6 16
3 94 18 95
3 96 18 97
3 98 7 99
3 100 99 18
3 98 99 100
3 101 19 102
3 103 102 7
3 101 102 103
3 104 19 105
3 106 8 107
3 108 107 19
3 106 107 108
3 109 9 110
3 111 20 112
3 113 112 9
3 111 112 113
3 114 20 115
3 116 10 117
3 118 117 20
3 116 117 118
3 119 11 120
3 119 120 121
3 21 122 124
3 122 22 123
3 122 123 124
3 23 22 21
3 23 12 22
3 126 125 4
3 24 127 128
3 130 129 24
3 25 26 1
3 27 26 25
3 27 4 26
3 14 27 3
3 28 27 14
3 28 4 27
3 28 131 133
3 133 132 4
3 131 132 133
3 29 134 136
3 136 135 28
3 134 135 136
3 29 137 138
3 29 139 140
3 30 141 143
3 143 142 29
3 141 142 143
3 30 144 145
3 16 30 5
3 31 30 16
3 31 146 148
3 148 147 30
3 146 147 148
3 31 149 151
3 149 24 150
3 149 150 151
3 32 24 31
3 32 152 154
3 154 153 24
3 152 153 154
3 155 21 156
3 33 157 159
3 157 21 158
3 157 158 159
3 33 1 21
3 18 160 161
3 163 162 18
3 164 33 165
3 34 166 168
3 166 33 167
3 166 167 168
3 34 1 33
3 34 25 1
3 35 25 34
3 35 3 25
3 19 35 7
3 36 35 19
3 36 3 35
3 36 13 3
3 37 13 36
3 37 0 13
3 38 169 170
3 38 171 172
3 38 173 174
3 176 175 38
3 39 177 178
3 39 179 181
3 179 8 180
3 179 180 181
3 20 39 9
3 40 39 20
3 40 8 39
3 40 37 8
3 41 37 40
3 41 0 37
3 182 10 183
3 42 184 185
3 42 186 188
3 186 10 187
3 186 187 188
3 42 41 10
3 43 41 42
3 43 0 41
3 43 17 0
3 44 17 43
3 44 6 17
3 189 44 190
3 189 190 191
3 45 192 194
3 192 44 193
3 192 193 194
3 45 6 44
3 45 32 6
3 46 32 45
3 46 195 197
3 197 196 32
3 195 196 197
3 198 11 199
3 200 11 201
3 200 201 202
3 203 46 204
3 205 204 11
3 203 204 205
3 47 206 208
3 206 46 207
3 206 207 208
3 47 209 211
3 211 210 46
3 209 210 211
3 47 212 213
3 215 214 47
3 48 216 217
3 48 218 220
3 218 2 219
3 218 219 220
3 22 221 223
3 221 48 222
3 221 222 223
3 49 48 22
3 49 2 48
3 49 224 226
3 226 225 2
3 224 225 226
3 50 227 229
3 229 228 49
3 227 228 229
3 50 230 231
3 26 23 1
3 51 23 26
3 51 12 23
3 232 51 233
3 234 233 4
3 232 233 234
3 235 51 236
3 237 12 238
3 239 238 51
3 237 238 239
3 240 50 241
3 242 241 12
3 240 241 242
3 243 50 244
3 246 245 50
