ply
format ascii 1.0
element vertex 406
property float x
property float y
property float z
element face 298
property list uchar int vertex_index
end_header
-14.461926 -37.684673 -31.60664
-13.550313 -8.881948 -40.656483
-5.337533 -24.225563 -43.484829
-17.616425 -9.022282 -37.290989
-7.734025 -26.126661 -40.218906
-1.829467 -15.735155 -49.787899
-22.034983 -13.54069 -30.934017
-12.419728 -32.357655 -34.255943
-9.778469 -31.729252 -37.428913
-13.396799 -3.192276 -43.258327
-3.780631 -18.347557 -46.353893
-0.187276 -7.91672 -54.538074
-0.496717 -10.981037 -53.115528
-21.827093 -11.200577 -32.301598
-19.85795 -13.934122 -32.902866
-19.784435 -11.345804 -34.220993
-15.545173 -8.947663 -39.049294
-15.641744 -11.552667 -37.764561
-26.92926 -27.683229 -19.011282
-11.090792 -32.299232 -35.805538
-10.086149 -29.43528 -37.148087
-6.506559 -25.276848 -41.836567
-7.478789 -28.212496 -40.424713
-6.295749 -27.279675 -42.038826
-15.782218 2.590561 -43.90073
-13.521107 -0.217891 -44.366753
-2.454705 -19.042572 -48.278233
-15.457319 -6.306959 -40.342201
-5.703093 -22.284168 -43.184803
-11.65427 0.084995 -45.741539
-1.377998 -12.684284 -51.175453
-22.030216 -16.005705 -29.758476
-20.033504 -16.268993 -31.645658
-17.644913 -11.688527 -35.993034
-12.279221 6.435754 -47.451317
-27.1245 -25.286634 -19.749426
-24.068394 -18.038631 -26.617857
-23.931259 -15.767161 -27.825327
-24.006306 -13.243286 -28.968004
-14.655306 -35.192177 -31.49086
-13.32722 -35.126633 -33.051865
-8.68283 -28.859293 -38.867172
-13.461905 -5.971872 -42.018341
-11.456211 -5.834406 -43.561428
-4.487835 -21.337162 -44.937225
-2.73509 -16.902384 -48.139992
-3.434168 -20.203009 -46.609863
-4.228986 -23.34951 -45.141541
-14.364539 -38.996488 -31.756147
-14.930559 -38.949981 -30.994515
-13.866484 -37.663927 -32.357914
-14.364539 -38.996488 -31.756147
0.183762 -6.921663 -55.506547
-0.101342 -6.305632 -55.208044
0.11556 -8.533288 -54.88389
0.183762 -6.921663 -55.506547
-20.784936 -9.885514 -33.982366
-20.805764 -11.27319 -33.261296
-21.806265 -9.8129 -33.022669
-13.577036 -10.225482 -40.036118
-14.574466 -10.258339 -39.232523
-14.547743 -8.914805 -39.852889
-12.653185 -10.028439 -40.85387
-13.577036 -10.225482 -40.036118
-27.521162 -27.761279 -18.097196
-26.788923 -28.962132 -18.67441
-10.318545 -28.381441 -37.012211
-10.773888 -29.669425 -36.35035
-5.269553 -25.363986 -43.546192
-5.748661 -26.891042 -42.82319
-5.816641 -25.752619 -42.761827
-13.669801 1.326991 -44.839236
-14.651663 1.186335 -44.133741
-14.800356 2.731217 -44.606224
-16.590182 -4.799447 -40.140392
-16.526015 -6.265141 -39.498404
-5.902607 -21.327234 -43.093159
-6.308406 -22.793339 -42.365019
-1.185746 -11.082828 -51.925258
-1.597908 -11.804775 -51.046888
-0.698153 -12.600322 -52.381391
-0.238862 -11.693376 -53.380795
-18.912184 -15.18495 -33.209531
-18.827762 -13.978475 -33.832893
-17.630669 -10.355405 -36.642012
-18.615535 -10.227456 -35.833467
-18.601291 -8.894334 -36.482445
-15.64156 -12.84537 -37.17726
-14.663849 -12.817395 -38.006174
-13.251122 7.88239 -47.295824
-13.217671 6.307344 -46.832062
-27.973289 -23.946441 -19.122191
-27.773364 -25.294716 -18.807684
-24.982616 -17.920539 -25.599761
-24.130503 -19.210159 -26.032069
-24.924382 -14.200429 -27.441361
-24.919821 -15.484777 -26.811065
-24.961906 -12.938491 -28.012699
-23.968782 -14.505223 -28.396666
-24.924382 -14.200429 -27.441361
-14.816529 -33.924504 -31.448457
-15.290478 -35.05806 -30.775067
-13.06821 -32.558821 -33.51334
-12.635459 -31.191139 -34.149997
-12.873474 -33.742144 -33.653904
-13.521956 -33.94331 -32.911301
-13.06821 -32.558821 -33.51334
-12.275778 -33.660894 -34.378838
-12.729524 -35.045383 -33.776798
-12.873474 -33.742144 -33.653904
-10.370417 -33.257976 -36.700693
-11.026579 -33.542967 -35.889005
-10.434631 -32.014242 -36.617226
-9.777749 -33.00906 -37.470894
-10.370417 -33.257976 -36.700693
-8.208427 -27.492977 -39.543039
-8.896828 -27.861194 -38.695351
-8.422425 -26.494878 -39.371218
-7.998283 -29.649445 -39.739725
-7.440853 -29.381936 -40.489895
-14.451577 -3.295445 -42.43911
-14.439608 -1.858965 -43.065357
-13.429352 -4.582074 -42.638334
-14.48413 -4.685243 -41.819116
-14.451577 -3.295445 -42.43911
-11.593008 -1.399863 -45.222156
-10.719146 -1.109268 -45.946394
-10.612098 -6.940622 -43.734501
-10.584568 -5.504687 -44.333302
-11.549735 -7.181691 -42.919248
-10.612098 -6.940622 -43.734501
-4.347975 -18.974491 -45.479868
-4.031028 -17.569725 -46.165678
-4.134233 -19.84236 -45.645559
-4.701577 -20.469293 -44.771534
-4.347975 -18.974491 -45.479868
-2.282278 -16.31877 -48.963946
-2.494247 -15.392375 -48.812613
-2.041435 -14.80876 -49.636566
-3.292257 -21.190933 -46.742088
-2.944437 -19.622791 -47.444048
-2.802525 -20.610714 -47.576273
-3.689666 -22.764183 -46.007927
-3.831577 -21.77626 -45.875702
-3.292257 -21.190933 -46.742088
-4.151815 -24.402164 -45.224855
-3.689666 -22.764183 -46.007927
-0.487411 -7.130597 -54.266361
-0.101342 -6.305632 -55.208044
-0.590385 -8.699046 -53.606569
-0.487411 -7.130597 -54.266361
-0.341997 -9.448878 -53.826801
-0.745105 -10.231204 -52.895296
-0.590385 -8.699046 -53.606569
-0.039161 -10.065447 -54.172617
-0.341997 -9.448878 -53.826801
0.11556 -8.533288 -54.88389
-0.238862 -11.693376 -53.380795
-0.039161 -10.065447 -54.172617
-18.791004 -12.684316 -34.491957
-18.827762 -13.978475 -33.832893
-19.821192 -12.639963 -33.56193
-14.622752 -11.560841 -38.590156
-15.593459 -10.250165 -38.406928
-14.574466 -10.258339 -39.232523
-14.663849 -12.817395 -38.006174
-14.622752 -11.560841 -38.590156
-26.228396 -28.823729 -19.519926
-26.788923 -28.962132 -18.67441
-26.244544 -27.733968 -19.920139
-26.228396 -28.823729 -19.519926
-11.940678 -31.130612 -34.904278
-12.635459 -31.191139 -34.149997
-11.27621 -31.101401 -35.679075
-11.75526 -32.328444 -35.030741
-11.940678 -31.130612 -34.904278
-10.58847 -30.867256 -36.476812
-11.27621 -31.101401 -35.679075
-10.773888 -29.669425 -36.35035
-6.849334 -28.915526 -41.296951
-7.440853 -29.381936 -40.489895
-6.887269 -27.746085 -41.231769
-6.296641 -28.546993 -42.063242
-6.849334 -28.915526 -41.296951
-6.296641 -28.546993 -42.063242
-5.748661 -26.891042 -42.82319
-15.632317 1.032454 -43.386559
-16.815994 2.682106 -43.205385
-14.501762 -0.371772 -43.61957
-15.632317 1.032454 -43.386559
-14.651663 1.186335 -44.133741
-13.458953 -1.705083 -43.81254
-14.439608 -1.858965 -43.065357
-14.501762 -0.371772 -43.61957
-3.49453 -16.796644 -47.060041
-4.031028 -17.569725 -46.165678
-1.966351 -18.31303 -49.17555
-2.142086 -17.388863 -49.033066
-1.653732 -16.659322 -49.930384
-2.297553 -19.980825 -48.431792
-1.966351 -18.31303 -49.17555
-2.802525 -20.610714 -47.576273
-2.297553 -19.980825 -48.431792
-18.63483 -7.532661 -37.126265
-18.601291 -8.894334 -36.482445
-17.605568 -7.622803 -37.972797
-18.63483 -7.532661 -37.126265
-16.569942 -7.585493 -38.85195
-16.580799 -8.984973 -38.170141
-17.605568 -7.622803 -37.972797
-15.501246 -7.627311 -39.695748
-16.569942 -7.585493 -38.85195
-16.526015 -6.265141 -39.498404
-7.98554 -25.158029 -40.051209
-8.422425 -26.494878 -39.371218
-7.323872 -24.714585 -40.88207
-7.98554 -25.158029 -40.051209
-6.710139 -24.289679 -41.690901
-7.120292 -25.701754 -41.027737
-7.323872 -24.714585 -40.88207
-6.104826 -23.780508 -42.510685
-6.710139 -24.289679 -41.690901
-6.308406 -22.793339 -42.365019
-11.839016 1.663161 -46.167622
-12.736383 1.478434 -45.526629
-10.850836 0.355401 -46.375761
-11.839016 1.663161 -46.167622
-10.719146 -1.109268 -45.946394
-10.850836 0.355401 -46.375761
-1.815701 -13.283325 -50.330343
-1.597908 -11.804775 -51.046888
-1.603733 -14.20972 -50.481676
-2.041435 -14.80876 -49.636566
-1.815701 -13.283325 -50.330343
-0.937358 -11.83266 -52.14549
-1.185746 -11.082828 -51.925258
-0.745105 -10.231204 -52.895296
-1.138793 -13.451946 -51.411354
-0.937358 -11.83266 -52.14549
-0.698153 -12.600322 -52.381391
-1.364527 -14.977381 -50.717577
-1.603733 -14.20972 -50.481676
-1.138793 -13.451946 -51.411354
-1.653732 -16.659322 -49.930384
-1.364527 -14.977381 -50.717577
-15.027936 -37.655939 -30.907636
-14.930559 -38.949981 -30.994515
-21.119566 -17.389322 -30.058334
-22.105099 -17.203178 -29.135491
-20.12121 -17.520965 -31.001925
-21.119566 -17.389322 -30.058334
-21.03186 -16.137349 -30.702067
-19.164129 -17.484372 -31.938176
-20.12121 -17.520965 -31.001925
-18.999961 -16.352385 -32.580928
-19.945727 -15.101557 -32.274262
-18.912184 -15.18495 -33.209531
-19.164129 -17.484372 -31.938176
-18.999961 -16.352385 -32.580928
-19.685296 -10.056095 -34.947447
-20.784936 -9.885514 -33.982366
-18.714674 -11.517166 -35.107014
-19.685296 -10.056095 -34.947447
-18.615535 -10.227456 -35.833467
-17.721243 -12.855677 -35.377977
-18.791004 -12.684316 -34.491957
-18.714674 -11.517166 -35.107014
-16.643144 -12.9133 -36.291496
-16.643328 -11.620597 -36.878798
-15.64156 -12.84537 -37.17726
-17.721243 -12.855677 -35.377977
-16.643144 -12.9133 -36.291496
-16.975366 4.318333 -43.72542
-16.815994 2.682106 -43.205385
-15.913796 4.254447 -44.415266
-16.975366 4.318333 -43.72542
-14.800356 2.731217 -44.606224
-15.913796 4.254447 -44.415266
-12.151491 4.838541 -47.022511
-13.217671 6.307344 -46.832062
-11.326308 5.155723 -47.656241
-12.151491 4.838541 -47.022511
-12.322 7.998914 -47.877262
-13.251122 7.88239 -47.295824
-11.405969 6.714455 -48.076001
-12.322 7.998914 -47.877262
-11.326308 5.155723 -47.656241
-11.405969 6.714455 -48.076001
-27.675744 -26.493013 -18.438612
-27.521162 -27.761279 -18.097196
-27.02688 -26.484932 -19.380354
-27.675744 -26.493013 -18.438612
-27.773364 -25.294716 -18.807684
-26.342164 -26.535671 -20.28921
-26.244544 -27.733968 -19.920139
-27.02688 -26.484932 -19.380354
-27.245618 -23.967557 -20.150138
-27.973289 -23.946441 -19.122191
-26.416869 -25.330453 -20.666461
-27.245618 -23.967557 -20.150138
-26.342164 -26.535671 -20.28921
-26.416869 -25.330453 -20.666461
-23.18036 -19.43851 -26.98413
-24.130503 -19.210159 -26.032069
-23.124188 -18.219642 -27.565182
-23.18036 -19.43851 -26.98413
-24.988388 -16.620513 -26.20733
-24.982616 -17.920539 -25.599761
-23.999827 -16.902896 -27.221592
-24.988388 -16.620513 -26.20733
-24.919821 -15.484777 -26.811065
-23.05562 -17.083907 -28.168917
-23.124188 -18.219642 -27.565182
-23.999827 -16.902896 -27.221592
-22.980738 -15.886433 -28.791902
-22.105099 -17.203178 -29.135491
-23.05562 -17.083907 -28.168917
-24.967346 -11.673173 -28.653295
-24.961906 -12.938491 -28.012699
-23.988074 -11.963933 -29.632053
-24.967346 -11.673173 -28.653295
-23.002413 -12.112635 -30.61506
-23.020644 -13.391988 -29.951011
-23.988074 -11.963933 -29.632053
-22.898468 -10.942579 -31.298851
-21.931038 -12.370634 -31.617807
-23.002413 -12.112635 -30.61506
-22.890955 -9.575327 -32.012278
-22.898468 -10.942579 -31.298851
-21.806265 -9.8129 -33.022669
-22.890955 -9.575327 -32.012278
-15.124626 -36.409691 -30.849746
-15.290478 -35.05806 -30.775067
-14.558616 -36.438425 -31.54875
-15.027936 -37.655939 -30.907636
-15.124626 -36.409691 -30.849746
-14.185999 -33.976082 -32.130798
-14.816529 -33.924504 -31.448457
-13.991263 -35.159405 -32.271363
-14.185999 -33.976082 -32.130798
-13.521956 -33.94331 -32.911301
-13.299131 -36.384907 -33.080527
-13.866484 -37.663927 -32.357914
-13.894573 -36.405653 -32.329252
-13.299131 -36.384907 -33.080527
-12.729524 -35.045383 -33.776798
-11.61131 -33.631683 -35.153635
-12.275778 -33.660894 -34.378838
-11.75526 -32.328444 -35.030741
-11.61131 -33.631683 -35.153635
-11.026579 -33.542967 -35.889005
-9.598488 -28.149188 -37.835808
-10.318545 -28.381441 -37.012211
-9.38449 -29.147286 -38.007629
-9.598488 -28.149188 -37.835808
-8.896828 -27.861194 -38.695351
-8.600304 -29.972843 -38.960954
-8.080809 -28.535895 -39.645942
-7.998283 -29.649445 -39.739725
-9.148124 -31.407823 -38.241825
-9.230649 -30.294272 -38.148043
-8.600304 -29.972843 -38.960954
-9.777749 -33.00906 -37.470894
-9.148124 -31.407823 -38.241825
-15.481837 -4.852786 -40.981047
-16.590182 -4.799447 -40.140392
-14.459612 -6.139416 -41.180271
-15.481837 -4.852786 -40.981047
-14.48413 -4.685243 -41.819116
-12.587689 -0.066448 -45.054146
-13.669801 1.326991 -44.839236
-12.736383 1.478434 -45.526629
-12.526426 -1.551306 -44.534763
-12.587689 -0.066448 -45.054146
-11.593008 -1.399863 -45.222156
-12.464272 -3.038498 -43.98055
-13.458953 -1.705083 -43.81254
-12.526426 -1.551306 -44.534763
-11.493979 -4.359563 -44.132101
-10.584568 -5.504687 -44.333302
-12.426505 -4.513341 -43.409878
-12.464272 -3.038498 -43.98055
-11.493979 -4.359563 -44.132101
-12.552582 -7.250424 -42.147705
-12.459058 -5.903139 -42.789884
-11.549735 -7.181691 -42.919248
-12.596786 -8.705462 -41.466776
-13.506109 -7.42691 -41.337412
-12.552582 -7.250424 -42.147705
-12.653185 -10.028439 -40.85387
-12.596786 -8.705462 -41.466776
-5.309206 -20.942797 -43.895323
-5.902607 -21.327234 -43.093159
-5.095464 -21.810665 -44.061014
-5.309206 -20.942797 -43.895323
-4.701577 -20.469293 -44.771534
-2.971759 -16.074058 -47.953091
-2.494247 -15.392375 -48.812613
-3.257861 -17.62497 -47.246943
-3.49453 -16.796644 -47.060041
-2.971759 -16.074058 -47.953091
-4.715279 -24.925959 -44.374548
-5.269553 -25.363986 -43.546192
-4.783259 -23.787537 -44.313185
-4.715279 -24.925959 -44.374548
-4.151815 -24.402164 -45.224855
3 0 48 49
3 0 50 51
3 52 11 53
3 55 54 11
3 56 15 57
3 58 57 13
3 56 57 58
3 1 59 61
3 61 60 16
3 59 60 61
3 1 62 63
3 64 18 65
3 66 20 67
3 2 23 21
3 2 68 70
3 70 69 23
3 68 69 70
3 71 25 72
3 73 72 24
3 71 72 73
3 74 27 75
3 76 28 77
3 78 30 79
3 81 80 12
3 6 32 31
3 83 82 14
3 3 84 86
3 84 33 85
3 84 85 86
3 88 87 17
3 89 34 90
3 91 35 92
3 93 36 94
3 95 37 96
3 97 38 98
3 99 98 37
3 97 98 99
3 100 39 101
3 7 102 103
3 7 104 106
3 104 40 105
3 104 105 106
3 7 107 109
3 109 108 40
3 107 108 109
3 8 110 112
3 112 111 19
3 110 111 112
3 8 113 114
3 4 115 117
3 115 41 116
3 115 116 117
3 119 118 22
3 9 120 121
3 9 122 124
3 122 42 123
3 122 123 124
3 126 125 29
3 127 43 128
3 130 129 43
3 10 131 132
3 10 133 135
3 133 44 134
3 133 134 135
3 5 136 138
3 136 45 137
3 136 137 138
3 139 46 140
3 141 140 26
3 139 140 141
3 142 47 143
3 144 143 46
3 142 143 144
3 146 145 47
3 11 147 148
3 11 149 150
3 11 151 153
3 151 12 152
3 151 152 153
3 154 12 155
3 156 155 11
3 154 155 156
3 158 157 12
3 13 14 6
3 15 14 13
3 15 159 161
3 161 160 14
3 159 160 161
3 16 17 3
3 162 17 163
3 164 163 16
3 162 163 164
3 166 165 17
3 18 167 168
3 18 169 170
3 171 7 172
3 173 19 174
3 175 174 7
3 173 174 175
3 20 176 178
3 176 19 177
3 176 177 178
3 20 8 19
3 21 22 4
3 23 22 21
3 23 179 181
3 181 180 22
3 179 180 181
3 23 182 183
3 185 184 23
3 24 186 187
3 25 188 190
3 190 189 24
3 188 189 190
3 25 191 193
3 191 9 192
3 191 192 193
3 194 10 195
3 196 26 197
3 198 197 5
3 196 197 198
3 199 26 200
3 202 201 26
3 203 3 204
3 205 3 206
3 207 16 208
3 209 208 3
3 207 208 209
3 27 210 212
3 210 16 211
3 210 211 212
3 27 1 16
3 213 4 214
3 215 4 216
3 217 21 218
3 219 218 4
3 217 218 219
3 28 220 222
3 220 21 221
3 220 221 222
3 28 2 21
3 223 29 224
3 225 29 226
3 228 227 29
3 30 229 230
3 30 231 233
3 231 5 232
3 231 232 233
3 12 234 236
3 234 30 235
3 234 235 236
3 237 30 238
3 239 238 12
3 237 238 239
3 240 5 241
3 242 241 30
3 240 241 242
3 244 243 5
3 245 0 246
3 31 247 248
3 32 249 251
3 251 250 31
3 249 250 251
3 32 252 253
3 14 32 6
3 254 32 255
3 256 255 14
3 254 255 256
3 258 257 32
3 259 15 260
3 33 261 263
3 261 15 262
3 261 262 263
3 33 264 266
3 266 265 15
3 264 265 266
3 17 33 3
3 267 33 268
3 269 268 17
3 267 268 269
3 271 270 33
3 272 24 273
3 274 24 275
3 277 276 24
3 34 278 279
3 34 280 281
3 282 34 283
3 284 34 285
3 287 286 34
3 288 18 289
3 35 290 292
3 290 18 291
3 290 291 292
3 35 293 295
3 295 294 18
3 293 294 295
3 296 35 297
3 298 35 299
3 301 300 35
3 36 302 303
3 36 304 305
3 306 36 307
3 37 308 310
3 308 36 309
3 308 309 310
3 37 311 313
3 313 312 36
3 311 312 313
3 37 314 316
3 314 31 315
3 314 315 316
3 38 31 37
3 38 6 31
3 317 38 318
3 319 38 320
3 321 6 322
3 323 322 38
3 321 322 323
3 324 13 325
3 326 325 6
3 324 325 326
3 327 13 328
3 330 329 13
3 39 331 332
3 39 333 335
3 333 0 334
3 333 334 335
3 336 39 337
3 40 338 340
3 338 39 339
3 338 339 340
3 40 0 39
3 40 341 343
3 343 342 0
3 341 342 343
3 345 344 40
3 19 346 348
3 348 347 7
3 346 347 348
3 350 349 19
3 351 20 352
3 41 353 355
3 353 20 354
3 353 354 355
3 41 8 20
3 22 41 4
3 356 41 357
3 358 357 22
3 356 357 358
3 359 8 360
3 361 360 41
3 359 360 361
3 363 362 8
3 364 27 365
3 42 366 368
3 366 27 367
3 366 367 368
3 42 1 27
3 29 369 371
3 369 25 370
3 369 370 371
3 372 25 373
3 374 373 29
3 372 373 374
3 375 9 376
3 377 376 25
3 375 376 377
3 43 378 379
3 43 380 382
3 380 9 381
3 380 381 382
3 43 42 9
3 383 42 384
3 385 384 43
3 383 384 385
3 386 1 387
3 388 387 42
3 386 387 388
3 390 389 1
3 391 28 392
3 44 393 395
3 393 28 394
3 393 394 395
3 44 2 28
3 45 396 397
3 45 398 400
3 398 10 399
3 398 399 400
3 26 45 5
3 46 45 26
3 46 10 45
3 46 44 10
3 47 44 46
3 47 2 44
3 47 401 403
3 403 402 2
3 401 402 403
3 405 404 47
