ply
format ascii 1.0
element vertex 201
property float x
property float y
property float z
element face 164
property list uchar int vertex_index
end_header
-30.491217 -46.420429 9.835872
-28.126276 -57.573799 12.193204
-29.148973 -52.14209 10.88497
-28.682524 -51.433903 6.227519
-30.165236 -45.762459 5.272201
-28.710236 -57.900925 17.149403
-30.679102 -46.768402 14.420677
-29.81595 -49.258118 10.487147
-28.942884 -51.813686 8.667343
-29.615316 -48.98634 8.086806
-29.421925 -48.555153 5.77656
-30.403902 -45.936172 7.601927
-28.374746 -60.446899 17.898106
-30.09849 -50.175407 17.228275
-30.035139 -49.872124 14.922357
-28.596312 -54.951279 11.621951
-27.824711 -57.347683 9.902024
-28.349817 -54.554131 9.242258
-29.100971 -48.363663 3.432726
-30.015837 -45.184879 3.124067
-28.429142 -57.756611 14.642009
-29.085026 -55.301586 16.332142
-28.827875 -55.227039 13.889509
-29.333282 -52.429737 13.12332
-29.935953 -49.58049 12.663248
-30.588783 -46.69524 12.111073
-31.297733 -43.296104 9.458395
-31.21649 -42.962482 7.27678
-31.056915 -42.722347 5.16644
-30.931459 -42.103222 2.890738
-30.667322 -41.731903 0.648234
-30.379299 -41.177322 -1.630559
-29.996037 -40.676765 -3.879376
-27.771603 -58.746545 11.36474
-27.961589 -58.779541 12.623003
-30.367199 -48.730412 18.050212
-30.131929 -50.208469 18.327924
-30.366187 -48.709179 16.910586
-30.367199 -48.730412 18.050212
-28.371749 -52.812528 6.537837
-28.501929 -53.00242 7.757748
-28.812704 -51.623795 7.447431
-28.181845 -52.731209 5.338543
-28.371749 -52.812528 6.537837
-28.519879 -51.2955 5.03938
-28.181845 -52.731209 5.338543
-27.448759 -58.468989 9.009431
-27.66549 -57.140972 8.665859
-28.398958 -59.108854 16.326351
-28.231212 -60.381842 16.700702
-28.542491 -59.173912 17.523754
-28.569689 -57.828768 15.895706
-28.258411 -59.036698 15.072654
-28.398958 -59.108854 16.326351
-29.292098 -54.007557 15.909444
-29.375413 -54.056109 17.100049
-29.163522 -53.970283 14.688127
-28.95645 -55.264313 15.110826
-29.292098 -54.007557 15.909444
-29.416226 -52.571632 14.305032
-29.080579 -53.828388 13.506414
-29.163522 -53.970283 14.688127
-31.700758 -41.771782 9.285734
-31.680734 -41.983408 10.408354
-31.660137 -41.604971 8.194926
-31.257112 -43.129293 8.367587
-31.700758 -41.771782 9.285734
-31.516628 -41.127689 5.031816
-31.577421 -41.25815 6.08327
-31.4539 -40.818127 3.893965
-30.994187 -42.412785 4.028589
-31.516628 -41.127689 5.031816
-31.129606 -40.142319 0.422355
-31.245134 -40.404705 1.616647
-30.985594 -39.865028 -0.717041
-30.523311 -41.454612 -0.491163
-31.129606 -40.142319 0.422355
-30.485976 -39.072371 -3.985436
-30.65126 -39.344406 -2.95771
-29.81152 -40.303812 -4.954506
-30.485976 -39.072371 -3.985436
-28.52578 -60.423023 19.176479
-28.257982 -61.650795 18.491301
-28.409016 -61.626919 19.769675
-28.668086 -59.200176 18.71816
-28.52578 -60.423023 19.176479
-28.835831 -57.927189 18.343809
-28.542491 -59.173912 17.523754
-28.668086 -59.200176 18.71816
-29.882145 -51.493019 17.548116
-30.131929 -50.208469 18.327924
-29.79883 -51.444468 16.35751
-29.882145 -51.493019 17.548116
-30.066814 -50.023765 16.075316
-29.767155 -51.292826 15.204551
-29.79883 -51.444468 16.35751
-30.334511 -48.557537 15.757627
-30.066814 -50.023765 16.075316
-30.366187 -48.709179 16.910586
-30.656492 -47.005676 15.506787
-30.357121 -48.320263 14.671517
-30.334511 -48.557537 15.757627
-27.928043 -55.744196 8.335976
-27.66549 -57.140972 8.665859
-28.087264 -55.950907 9.572141
-28.205396 -54.372642 8.045206
-28.646351 -53.183909 8.954801
-28.501929 -53.00242 7.757748
-27.928043 -55.744196 8.335976
-28.205396 -54.372642 8.045206
-28.889579 -49.856125 4.8139
-28.519879 -51.2955 5.03938
-29.052225 -49.994528 6.00204
-28.729102 -49.76038 3.641984
-28.889579 -49.856125 4.8139
-29.261448 -48.459408 4.604643
-28.564395 -49.545681 2.454642
-28.729102 -49.76038 3.641984
-28.97857 -48.113825 2.365719
-28.564395 -49.545681 2.454642
-29.436003 -46.524433 2.21139
-28.97857 -48.113825 2.365719
-29.558404 -46.774271 3.278397
-29.840723 -45.103471 2.008812
-29.436003 -46.524433 2.21139
-27.62082 -58.633488 10.219151
-27.771603 -58.746545 11.36474
-27.975493 -57.460741 11.047614
-27.62082 -58.633488 10.219151
-27.448759 -58.468989 9.009431
-28.113302 -61.551596 17.227242
-28.257982 -61.650795 18.491301
-28.113302 -61.551596 17.227242
-28.231212 -60.381842 16.700702
-28.113022 -58.870947 13.847405
-28.258411 -59.036698 15.072654
-28.277709 -57.665205 13.417606
-27.961589 -58.779541 12.623003
-28.113022 -58.870947 13.847405
-29.006186 -56.639849 17.957211
-28.835831 -57.927189 18.343809
-29.193582 -55.34018 17.548581
-29.375413 -54.056109 17.100049
-28.897631 -56.601256 16.740772
-29.006186 -56.639849 17.957211
-29.193582 -55.34018 17.548581
-29.68421 -51.150931 14.022838
-29.416226 -52.571632 14.305032
-29.767155 -51.292826 15.204551
-30.965238 -45.456736 15.331302
-30.656492 -47.005676 15.506787
-30.975119 -45.427096 14.191304
-30.965238 -45.456736 15.331302
-30.92996 -45.390514 13.036501
-30.633942 -46.731821 13.265875
-30.975119 -45.427096 14.191304
-30.936229 -45.24758 11.921481
-30.92996 -45.390514 13.036501
-30.887446 -45.110174 10.783881
-30.54 -46.557834 10.973472
-30.936229 -45.24758 11.921481
-31.290705 -43.548012 10.595142
-31.680734 -41.983408 10.408354
-30.894475 -44.858266 9.647133
-30.887446 -45.110174 10.783881
-31.290705 -43.548012 10.595142
-31.657208 -41.378218 7.13844
-31.660137 -41.604971 8.194926
-31.136702 -42.842415 6.22161
-31.657208 -41.378218 7.13844
-31.577421 -41.25815 6.08327
-30.298534 -43.562643 1.892147
-29.840723 -45.103471 2.008812
-30.473648 -43.644051 3.007402
-31.377203 -40.590364 2.737899
-31.4539 -40.818127 3.893965
-30.799391 -41.917563 1.769486
-31.377203 -40.590364 2.737899
-31.245134 -40.404705 1.616647
-30.166466 -43.376984 0.770895
-30.298534 -43.562643 1.892147
-30.799391 -41.917563 1.769486
-30.058026 -42.985342 -0.354622
-30.166466 -43.376984 0.770895
-29.914015 -42.708051 -1.494019
-30.058026 -42.985342 -0.354622
-30.523311 -41.454612 -0.491163
-29.751143 -42.40707 -2.584517
-29.914015 -42.708051 -1.494019
-30.84289 -39.594684 -1.833302
-30.985594 -39.865028 -0.717041
-30.187668 -40.927043 -2.754968
-30.84289 -39.594684 -1.833302
-30.65126 -39.344406 -2.95771
-29.559513 -42.156791 -3.708926
-29.751143 -42.40707 -2.584517
-30.187668 -40.927043 -2.754968
-29.357214 -41.898445 -4.747444
-29.559513 -42.156791 -3.708926
-29.357214 -41.898445 -4.747444
-29.81152 -40.303812 -4.954506
3 0 9 7
3 0 11 9
3 1 33 34
3 35 13 36
3 38 37 13
3 2 17 15
3 3 39 41
3 41 40 8
3 39 40 41
3 3 42 43
3 3 44 45
3 4 18 10
3 4 19 18
3 47 46 16
3 5 48 50
3 50 49 12
3 48 49 50
3 5 51 53
3 51 20 52
3 51 52 53
3 54 21 55
3 56 22 57
3 58 57 21
3 56 57 58
3 59 23 60
3 61 60 22
3 59 60 61
3 6 24 14
3 6 25 24
3 62 26 63
3 64 27 65
3 66 65 26
3 64 65 66
3 67 28 68
3 69 29 70
3 71 70 28
3 69 70 71
3 72 30 73
3 74 31 75
3 76 75 30
3 74 75 76
3 77 32 78
3 80 79 32
3 7 8 2
3 9 8 7
3 9 3 8
3 9 10 3
3 11 10 9
3 11 4 10
3 81 12 82
3 81 82 83
3 84 12 85
3 86 5 87
3 88 87 12
3 86 87 88
3 13 89 90
3 13 91 92
3 13 93 95
3 93 14 94
3 93 94 95
3 96 14 97
3 98 97 13
3 96 97 98
3 99 6 100
3 101 100 14
3 99 100 101
3 15 16 1
3 17 16 15
3 17 102 104
3 104 103 16
3 102 103 104
3 8 17 2
3 105 17 106
3 107 106 8
3 105 106 107
3 109 108 17
3 10 110 112
3 112 111 3
3 110 111 112
3 18 113 115
3 115 114 10
3 113 114 115
3 18 116 117
3 18 118 119
3 19 120 122
3 122 121 18
3 120 121 122
3 19 123 124
3 16 125 127
3 127 126 1
3 125 126 127
3 129 128 16
3 12 130 131
3 133 132 12
3 20 134 135
3 20 136 138
3 136 1 137
3 136 137 138
3 139 5 140
3 21 141 142
3 21 143 145
3 143 5 144
3 143 144 145
3 21 20 5
3 22 20 21
3 22 1 20
3 22 15 1
3 23 15 22
3 23 2 15
3 14 146 148
3 146 23 147
3 146 147 148
3 24 23 14
3 24 2 23
3 24 7 2
3 25 7 24
3 25 0 7
3 149 6 150
3 151 6 152
3 153 25 154
3 155 154 6
3 153 154 155
3 156 25 157
3 158 0 159
3 160 159 25
3 158 159 160
3 26 161 162
3 26 163 165
3 163 0 164
3 163 164 165
3 26 11 0
3 27 11 26
3 27 4 11
3 166 27 167
3 28 168 170
3 168 27 169
3 168 169 170
3 28 4 27
3 28 19 4
3 29 19 28
3 29 171 173
3 173 172 19
3 171 172 173
3 174 29 175
3 30 176 178
3 176 29 177
3 176 177 178
3 30 179 181
3 181 180 29
3 179 180 181
3 30 182 183
3 31 184 186
3 186 185 30
3 184 185 186
3 31 187 188
3 189 31 190
3 32 191 193
3 191 31 192
3 191 192 193
3 32 194 196
3 196 195 31
3 194 195 196
3 32 197 198
3 200 199 32
