ply
format ascii 1.0
element vertex 180
property float x
property float y
property float z
element face 149
property list uchar int vertex_index
end_header
33.183807 -52.805302 -22.322746
33.652588 -53.451992 -26.78924
35.262997 -47.817394 -26.242903
30.231304 -56.442131 -13.543339
32.361008 -52.2812 -17.821411
34.372074 -47.62191 -21.768732
36.134693 -42.657005 -25.483181
30.585606 -56.897415 -15.929866
29.069157 -57.390244 -9.083043
28.190847 -58.96751 -6.92787
32.751274 -52.694912 -20.068754
33.420067 -50.082481 -20.037844
33.864891 -50.170601 -22.109339
35.798466 -45.175678 -25.975214
36.607185 -42.489937 -27.573576
36.93922 -39.81842 -27.2253
33.493698 -53.11409 -24.656767
34.256916 -50.38591 -24.345158
34.627213 -50.378166 -26.628357
30.970978 -53.945793 -13.560876
31.902992 -52.041344 -15.532432
31.299883 -54.445976 -15.732675
31.72328 -54.749752 -18.082777
32.004864 -55.325661 -20.322222
32.338737 -55.610462 -22.689949
32.556084 -55.923359 -24.979122
29.238674 -58.226471 -11.493718
33.811558 -47.757442 -19.560122
34.887379 -47.66172 -24.0954
35.304779 -45.272381 -23.802423
35.648449 -42.693424 -23.475861
28.146699 -58.59951 -5.706948
28.554808 -57.81961 -6.805
36.859146 -42.165397 -28.693046
36.409071 -43.753204 -27.824326
37.020842 -40.915858 -28.453912
36.859146 -42.165397 -28.693046
31.321407 -56.073637 -18.234451
31.154443 -55.823583 -17.006321
30.75257 -57.147469 -17.157995
31.462199 -56.361592 -19.354173
31.864072 -55.037706 -19.2025
31.321407 -56.073637 -18.234451
31.840348 -57.014803 -22.879805
31.721384 -56.822246 -21.641915
31.949022 -57.171251 -24.024392
32.447411 -55.76691 -23.834536
31.840348 -57.014803 -22.879805
28.750754 -59.054466 -10.403325
29.153916 -57.808357 -10.28838
28.665995 -58.636353 -9.197988
28.806698 -59.485941 -11.573127
28.750754 -59.054466 -10.403325
32.644447 -51.056646 -17.762746
32.415439 -50.936718 -16.618257
32.132 -52.161272 -16.676921
34.576563 -46.406637 -21.67472
34.296305 -46.474403 -20.570415
34.091816 -47.689676 -20.664427
36.277065 -41.40978 -25.33009
36.033943 -41.42799 -24.326431
35.891571 -42.675214 -24.479521
37.060709 -38.541505 -27.062323
37.319073 -38.294601 -28.10682
34.207668 -52.058977 -27.731599
33.763861 -53.37314 -27.963442
30.022869 -57.921178 -14.893023
30.408455 -56.669773 -14.736603
29.845717 -57.693537 -13.699759
30.152296 -58.198 -16.038197
30.022869 -57.921178 -14.893023
30.75257 -57.147469 -17.157995
30.152296 -58.198 -16.038197
28.993963 -57.030978 -7.882586
29.446795 -56.178522 -9.101609
28.630002 -58.178877 -8.005457
28.993963 -57.030978 -7.882586
28.554808 -57.81961 -6.805
28.22684 -59.424986 -8.120401
28.665995 -58.636353 -9.197988
28.630002 -58.178877 -8.005457
36.004711 -45.096075 -27.025144
35.530732 -46.496536 -26.109058
35.736977 -46.416933 -27.158989
36.202826 -43.832808 -26.774395
36.004711 -45.096075 -27.025144
36.409071 -43.753204 -27.824326
37.186859 -39.580099 -28.279774
36.773202 -41.154179 -27.399438
37.020842 -40.915858 -28.453912
37.319073 -38.294601 -28.10682
37.186859 -39.580099 -28.279774
34.694981 -50.522064 -27.651158
34.1399 -51.915079 -26.708799
34.207668 -52.058977 -27.731599
35.112591 -49.070418 -27.535879
34.694981 -50.522064 -27.651158
35.430483 -47.790031 -27.343152
34.945105 -49.09778 -26.43563
35.112591 -49.070418 -27.535879
35.736977 -46.416933 -27.158989
35.430483 -47.790031 -27.343152
31.436985 -52.993569 -14.546654
31.745566 -51.768169 -14.505954
31.279559 -52.720394 -13.520176
31.554447 -56.679846 -20.458052
31.462199 -56.361592 -19.354173
32.171801 -55.468061 -21.506085
31.554447 -56.679846 -20.458052
31.721384 -56.822246 -21.641915
32.014112 -57.324852 -25.179697
31.949022 -57.171251 -24.024392
32.629959 -56.001381 -26.111559
32.014112 -57.324852 -25.179697
32.087988 -57.402874 -26.312134
33.178212 -54.765698 -27.016618
33.104336 -54.687675 -25.884181
32.629959 -56.001381 -26.111559
33.289485 -54.686846 -28.19082
33.763861 -53.37314 -27.963442
33.178212 -54.765698 -27.016618
30.845086 -53.603653 -12.487998
31.279559 -52.720394 -13.520176
30.506631 -54.786774 -12.472553
30.845086 -53.603653 -12.487998
30.136794 -56.034942 -12.463784
30.601141 -55.193962 -13.552107
30.506631 -54.786774 -12.472553
29.55572 -56.508999 -10.233636
29.446795 -56.178522 -9.101609
29.640479 -56.927112 -11.438974
29.55572 -56.508999 -10.233636
29.153916 -57.808357 -10.28838
29.734989 -57.334301 -12.518528
30.136794 -56.034942 -12.463784
29.640479 -56.927112 -11.438974
29.349403 -58.585707 -12.674948
29.845717 -57.693537 -13.699759
29.734989 -57.334301 -12.518528
29.349403 -58.585707 -12.674948
28.806698 -59.485941 -11.573127
27.752986 -59.739317 -5.780177
28.146699 -58.59951 -5.706948
27.758572 -60.170208 -6.927657
27.752986 -59.739317 -5.780177
28.22684 -59.424986 -8.120401
27.758572 -60.170208 -6.927657
32.195713 -50.79254 -15.540776
31.745566 -51.768169 -14.505954
32.195713 -50.79254 -15.540776
32.415439 -50.936718 -16.618257
33.173977 -49.957287 -18.870962
32.644447 -51.056646 -17.762746
32.890538 -51.18184 -18.929628
33.369722 -48.794767 -18.632101
33.173977 -49.957287 -18.870962
33.615813 -48.919961 -19.798983
33.571897 -47.643909 -18.485298
33.369722 -48.794767 -18.632101
34.006666 -46.541956 -19.459282
33.571897 -47.643909 -18.485298
34.006666 -46.541956 -19.459282
34.296305 -46.474403 -20.570415
35.042916 -45.231873 -22.691566
34.576563 -46.406637 -21.67472
34.838426 -46.447146 -22.785578
35.214751 -43.942394 -22.528284
35.042916 -45.231873 -22.691566
35.476614 -43.982903 -23.639142
35.353243 -42.811706 -22.371223
35.214751 -43.942394 -22.528284
35.738577 -41.590423 -23.222501
35.353243 -42.811706 -22.371223
35.738577 -41.590423 -23.222501
36.033943 -41.42799 -24.326431
36.679328 -39.990488 -26.20115
36.277065 -41.40978 -25.33009
36.536957 -41.237713 -26.35424
36.679328 -39.990488 -26.20115
37.060709 -38.541505 -27.062323
3 31 9 32
3 0 12 10
3 33 14 34
3 36 35 14
3 1 18 16
3 3 21 19
3 37 22 38
3 39 38 7
3 37 38 39
3 40 23 41
3 42 41 22
3 40 41 42
3 43 24 44
3 45 25 46
3 47 46 24
3 45 46 47
3 48 26 49
3 50 49 8
3 48 49 50
3 52 51 26
3 4 53 55
3 55 54 20
3 53 54 55
3 5 27 11
3 5 56 58
3 58 57 27
3 56 57 58
3 2 28 17
3 6 29 13
3 6 30 29
3 6 59 61
3 61 60 30
3 59 60 61
3 63 62 15
3 65 64 1
3 66 7 67
3 68 67 3
3 66 67 68
3 69 7 70
3 72 71 7
3 73 8 74
3 9 75 77
3 75 8 76
3 75 76 77
3 9 78 80
3 80 79 8
3 78 79 80
3 10 11 4
3 12 11 10
3 12 5 11
3 81 13 82
3 83 82 2
3 81 82 83
3 14 84 86
3 84 13 85
3 84 85 86
3 14 6 13
3 14 15 6
3 87 15 88
3 89 88 14
3 87 88 89
3 91 90 15
3 16 17 0
3 18 17 16
3 18 2 17
3 92 18 93
3 94 93 1
3 92 93 94
3 95 18 96
3 97 2 98
3 99 98 18
3 97 98 99
3 101 100 2
3 19 102 104
3 102 20 103
3 102 103 104
3 21 20 19
3 21 4 20
3 7 21 3
3 22 21 7
3 22 4 21
3 22 10 4
3 23 10 22
3 23 0 10
3 105 23 106
3 24 107 109
3 107 23 108
3 107 108 109
3 24 0 23
3 24 16 0
3 25 16 24
3 25 1 16
3 110 25 111
3 112 25 113
3 112 113 114
3 115 1 116
3 117 116 25
3 115 116 117
3 120 119 1
3 118 119 120
3 121 19 122
3 123 19 124
3 125 3 126
3 127 126 19
3 125 126 127
3 8 128 129
3 26 130 132
3 132 131 8
3 130 131 132
3 26 133 135
3 133 3 134
3 133 134 135
3 26 136 138
3 138 137 3
3 136 137 138
3 140 139 26
3 141 9 142
3 143 9 144
3 146 145 9
3 20 147 148
3 150 149 20
3 11 151 153
3 153 152 4
3 151 152 153
3 27 154 156
3 156 155 11
3 154 155 156
3 27 157 158
3 27 159 160
3 162 161 27
3 17 12 0
3 28 12 17
3 28 5 12
3 13 28 2
3 29 28 13
3 29 5 28
3 29 163 165
3 165 164 5
3 163 164 165
3 30 166 168
3 168 167 29
3 166 167 168
3 30 169 170
3 30 171 172
3 174 173 30
3 15 175 177
3 177 176 6
3 175 176 177
3 179 178 15
