ply
format ascii 1.0
element vertex 249
property float x
property float y
property float z
element face 250
property list uchar int vertex_index
end_header
10.774954 83.594551 6.69945
-3.452244 93.456955 9.530544
4.764969 88.263931 8.058882
1.826442 82.94294 18.219578
8.847392 78.932617 14.890977
10.078156 86.597771 3.15851
8.259385 85.666 7.341908
6.732028 89.677719 3.153274
4.373772 77.626297 21.426958
5.526759 81.022331 16.526861
0.839647 91.035126 8.539913
-1.572343 95.620453 3.829599
2.676294 92.911423 3.20684
4.842122 93.831238 -1.818658
-5.011624 90.478188 15.327094
-2.212769 85.006035 19.639391
-0.868327 88.412331 14.104456
3.28132 85.930092 13.025321
6.779299 83.847816 11.695386
10.006962 81.570091 10.373031
10.472222 84.971916 5.134821
9.708656 84.534256 6.950962
9.100993 86.337059 5.135484
3.683187 75.801208 23.946602
2.812233 89.783691 8.143847
1.727223 92.034599 5.919994
3.753846 90.633141 5.652465
7.781494 90.131279 0.691451
5.857683 91.675751 0.86914
6.866902 92.090187 -1.626743
-7.190258 91.349472 16.105892
1.185716 81.208328 20.802431
-0.906036 82.196053 21.642979
-0.089078 83.929642 18.93688
-1.541867 86.746109 16.915091
0.568092 85.716293 16.140884
1.19695 87.316444 13.436546
2.423549 84.701073 15.502277
7.292968 79.932961 15.719049
6.202913 82.426689 14.128376
7.859835 81.453804 13.300328
8.467397 82.725288 11.003293
9.362027 80.452522 12.543518
9.603834 88.326874 0.925572
6.636407 87.004822 7.544157
5.626786 89.166649 5.558418
7.483928 87.704926 5.326361
8.512897 88.229614 2.929996
2.469775 78.578369 22.367807
3.126667 80.353386 19.824308
3.708586 82.054733 17.312267
4.911148 79.415123 18.97781
6.64254 78.380112 18.158232
8.270149 77.310715 17.329321
-1.187114 92.143326 9.117673
-0.347087 93.30706 6.333482
0.484347 94.228683 3.744597
1.566431 95.04332 0.765487
4.818071 91.204506 3.264663
3.812587 93.374107 0.737813
2.736655 95.539291 -2.028476
-6.460823 93.025856 13.12436
-4.266675 92.051147 12.436203
-3.640879 87.88858 17.438261
-3.028234 89.527245 14.736745
-2.147366 90.899696 11.963951
-0.092427 89.817741 11.361245
1.95076 88.599976 10.860655
3.883756 87.339317 10.444316
4.316193 83.61731 14.811766
5.075334 84.939316 12.300048
5.847999 86.037994 9.919147
7.506027 84.886627 9.425334
9.105663 83.693428 8.932027
11.185251 82.84674 7.035548
11.221017 83.51334 6.061744
11.221017 83.51334 6.061744
11.069651 84.202022 5.279429
10.623588 84.283233 5.917135
-4.146936 94.630527 8.387128
-4.561104 93.990989 9.832866
7.887072 91.124623 -1.493734
7.324198 91.110733 -0.467646
8.344368 90.145169 -0.334637
7.555823 92.031398 -2.803568
7.887072 91.124623 -1.493734
9.584583 78.528324 14.339053
9.8419 79.288276 13.165324
9.104709 79.692569 13.717247
10.634335 86.583348 2.180368
10.397175 87.447899 1.063899
9.840995 87.462322 2.042041
7.187965 77.022583 18.905175
6.386806 77.533879 19.321172
8.001769 76.487885 18.49072
7.456345 77.845414 17.743777
7.187965 77.022583 18.905175
8.833828 76.03656 17.876622
8.001769 76.487885 18.49072
4.353668 94.798458 -3.148589
3.300934 95.652484 -3.253498
3.789388 94.685265 -1.923567
-2.746445 96.321884 3.959506
-2.072683 95.146534 5.234481
-2.573036 84.041348 21.036911
-1.919669 82.636357 22.038705
-1.559403 83.601044 20.641185
-3.237971 85.488487 19.973779
-2.573036 84.041348 21.036911
-2.926824 86.447307 18.538826
-3.952026 86.92976 18.873214
-3.237971 85.488487 19.973779
10.195536 82.182091 9.354711
9.744886 83.243759 8.634209
9.556313 82.63176 9.652529
10.644883 81.240524 9.846068
10.195536 82.182091 9.354711
10.978694 84.959747 4.272748
10.781661 85.772674 3.284593
10.275189 85.784843 4.146666
10.978694 84.959747 4.272748
11.069651 84.202022 5.279429
4.299839 74.285598 24.739878
3.37393 74.816853 25.167493
4.548975 75.369808 23.468868
4.299839 74.285598 24.739878
4.894267 76.282353 22.209046
4.028479 76.713752 22.68678
4.548975 75.369808 23.468868
5.252422 77.156971 20.955535
4.894267 76.282353 22.209046
6.514024 92.971581 -2.927038
5.501634 93.842106 -3.022995
5.854512 92.960712 -1.722701
6.514024 92.971581 -2.927038
7.555823 92.031398 -2.803568
-2.232577 96.744278 2.51825
-1.081225 96.057857 2.366233
-7.590668 90.486679 17.561304
-8.332687 91.780762 16.489689
-6.450579 90.036984 17.16588
-7.590668 90.486679 17.561304
-5.361262 89.601342 16.776481
-6.100941 90.91383 15.716493
-6.450579 90.036984 17.16588
0.13984 81.702191 21.222705
-0.174214 80.840538 22.432034
0.871662 80.346676 22.01176
10.12148 79.971897 12.034807
10.443948 80.530682 10.949564
9.684494 81.011307 11.458274
10.12148 79.971897 12.034807
9.8419 79.288276 13.165324
10.178006 88.289349 -0.090863
9.255538 89.242966 -0.217577
10.178006 88.289349 -0.090863
10.397175 87.447899 1.063899
10.634335 86.583348 2.180368
10.781661 85.772674 3.284593
9.255538 89.242966 -0.217577
8.344368 90.145169 -0.334637
8.692664 89.229077 0.808512
2.728156 76.24559 24.429422
3.37393 74.816853 25.167493
2.12145 77.63417 23.640024
2.728156 76.24559 24.429422
3.076481 77.189788 23.157204
1.513691 79.031696 22.794448
2.12145 77.63417 23.640024
1.827745 79.893349 21.585119
0.871662 80.346676 22.01176
1.513691 79.031696 22.794448
5.521109 78.051384 19.730961
4.64246 78.52071 20.202384
5.252422 77.156971 20.955535
5.776844 78.897617 18.568021
5.521109 78.051384 19.730961
6.386806 77.533879 19.321172
9.088668 76.8442 16.737447
9.377289 77.655151 15.518275
8.55877 78.121666 16.110149
9.088668 76.8442 16.737447
8.833828 76.03656 17.876622
-1.880069 93.407971 7.878519
-3.012633 94.064785 8.084954
-2.319679 92.80014 9.324109
-1.460055 93.989837 6.486423
-1.880069 93.407971 7.878519
-0.7671 92.725193 7.725577
-0.959715 94.463757 5.081541
-2.072683 95.146534 5.234481
-1.460055 93.989837 6.486423
-0.052879 95.361973 2.323733
-1.081225 96.057857 2.366233
-0.543998 94.924568 3.787098
0.488162 95.769291 0.834178
-0.052879 95.361973 2.323733
1.025389 94.636001 2.255042
1.060042 96.064857 -0.609449
0.488162 95.769291 0.834178
1.645153 96.312843 -2.006431
1.060042 96.064857 -0.609449
2.151543 95.291305 -0.631494
2.18402 96.507538 -3.340979
1.645153 96.312843 -2.006431
2.18402 96.507538 -3.340979
3.300934 95.652484 -3.253498
4.353668 94.798458 -3.148589
5.501634 93.842106 -3.022995
-4.146936 94.630527 8.387128
-3.012633 94.064785 8.084954
-2.746445 96.321884 3.959506
-2.232577 96.744278 2.51825
-7.878023 92.627484 14.928378
-8.332687 91.780762 16.489689
-7.513305 93.465676 13.437612
-7.878023 92.627484 14.928378
-6.825541 92.187664 14.615126
-7.188078 94.31268 11.872274
-7.513305 93.465676 13.437612
-6.065394 93.77544 11.629774
-7.188078 94.31268 11.872274
-4.968319 93.288085 11.285695
-6.065394 93.77544 11.629774
-5.363749 92.538501 12.780282
-3.859459 92.754051 10.983374
-4.561104 93.990989 9.832866
-4.968319 93.288085 11.285695
-1.184236 81.200276 22.937461
-0.174214 80.840538 22.432034
-1.184236 81.200276 22.937461
-1.919669 82.636357 22.038705
-4.67589 88.306538 17.832065
-3.952026 86.92976 18.873214
-4.326251 89.183384 16.382677
-5.361262 89.601342 16.776481
-4.67589 88.306538 17.832065
10.046383 83.664173 7.643676
9.407159 84.113842 7.941494
9.744886 83.243759 8.634209
10.579532 83.194321 7.517921
10.241805 84.064403 6.825206
10.046383 83.664173 7.643676
11.185251 82.84674 7.035548
10.579532 83.194321 7.517921
10.644883 81.240524 9.846068
10.443948 80.530682 10.949564
9.584583 78.528324 14.339053
9.377289 77.655151 15.518275
3 0 74 75
3 0 76 78
3 78 77 20
3 76 77 78
3 0 20 21
3 1 79 80
3 2 26 24
3 81 29 82
3 83 82 27
3 81 82 83
3 85 84 29
3 3 33 31
3 3 35 33
3 3 37 35
3 4 40 38
3 4 42 40
3 4 86 88
3 88 87 42
3 86 87 88
3 5 89 91
3 91 90 43
3 89 90 91
3 6 46 44
3 5 47 22
3 5 43 47
3 8 48 23
3 8 49 48
3 8 51 49
3 92 52 93
3 94 53 95
3 96 95 52
3 94 95 96
3 98 97 53
3 10 55 54
3 12 56 25
3 12 57 56
3 7 58 45
3 13 59 28
3 13 60 59
3 13 99 101
3 101 100 60
3 99 100 101
3 11 102 103
3 14 61 30
3 14 62 61
3 15 104 106
3 106 105 32
3 104 105 106
3 15 107 108
3 15 109 111
3 109 63 110
3 109 110 111
3 16 64 34
3 16 65 64
3 16 66 65
3 17 67 36
3 17 68 67
3 9 69 50
3 18 70 39
3 18 71 70
3 18 72 71
3 19 73 41
3 19 112 114
3 114 113 73
3 112 113 114
3 19 115 116
3 20 117 119
3 119 118 5
3 117 118 119
3 121 120 20
3 21 22 6
3 20 22 21
3 20 5 22
3 122 23 123
3 124 23 125
3 126 8 127
3 128 127 23
3 126 127 128
3 130 129 8
3 24 25 10
3 26 25 24
3 26 12 25
3 27 28 7
3 29 28 27
3 29 13 28
3 29 131 133
3 133 132 13
3 131 132 133
3 135 134 29
3 137 136 11
3 138 30 139
3 140 30 141
3 142 14 143
3 144 143 30
3 142 143 144
3 31 145 147
3 145 32 146
3 145 146 147
3 33 32 31
3 33 15 32
3 33 34 15
3 35 34 33
3 35 16 34
3 35 36 16
3 37 36 35
3 37 17 36
3 38 39 9
3 40 39 38
3 40 18 39
3 40 41 18
3 42 41 40
3 42 19 41
3 42 148 150
3 150 149 19
3 148 149 150
3 152 151 42
3 43 153 154
3 156 155 43
3 158 157 5
3 44 45 2
3 46 45 44
3 46 7 45
3 22 46 6
3 47 46 22
3 47 7 46
3 47 27 7
3 43 27 47
3 43 159 161
3 161 160 27
3 159 160 161
3 23 162 163
3 48 164 166
3 166 165 23
3 164 165 166
3 48 167 168
3 48 169 171
3 169 31 170
3 169 170 171
3 49 31 48
3 49 3 31
3 49 50 3
3 51 50 49
3 51 9 50
3 172 51 173
3 174 173 8
3 172 173 174
3 52 175 177
3 175 51 176
3 175 176 177
3 52 9 51
3 52 38 9
3 53 38 52
3 53 4 38
3 53 178 180
3 180 179 4
3 178 179 180
3 182 181 53
3 54 183 185
3 185 184 1
3 183 184 185
3 55 186 188
3 188 187 54
3 186 187 188
3 55 189 191
3 189 11 190
3 189 190 191
3 25 55 10
3 56 55 25
3 56 11 55
3 56 192 194
3 194 193 11
3 192 193 194
3 57 195 197
3 197 196 56
3 195 196 197
3 57 198 199
3 45 26 2
3 58 26 45
3 58 12 26
3 28 58 7
3 59 58 28
3 59 12 58
3 59 57 12
3 60 57 59
3 60 200 202
3 202 201 57
3 200 201 202
3 60 203 204
3 206 205 60
3 208 207 13
3 210 209 1
3 212 211 11
3 30 213 214
3 61 215 217
3 217 216 30
3 215 216 217
3 61 218 219
3 61 220 221
3 62 222 224
3 224 223 61
3 222 223 224
3 62 225 227
3 225 1 226
3 225 226 227
3 32 228 229
3 231 230 32
3 63 232 233
3 63 234 236
3 234 14 235
3 234 235 236
3 34 63 15
3 64 63 34
3 64 14 63
3 64 62 14
3 65 62 64
3 65 1 62
3 65 54 1
3 66 54 65
3 66 10 54
3 36 66 16
3 67 66 36
3 67 10 66
3 67 24 10
3 68 24 67
3 68 2 24
3 50 37 3
3 69 37 50
3 69 17 37
3 39 69 9
3 70 69 39
3 70 17 69
3 70 68 17
3 71 68 70
3 71 2 68
3 71 44 2
3 72 44 71
3 72 6 44
3 41 72 18
3 73 72 41
3 73 6 72
3 73 21 6
3 237 21 238
3 239 238 73
3 237 238 239
3 240 0 241
3 242 241 21
3 240 241 242
3 244 243 0
3 246 245 19
3 248 247 4
