ply
format ascii 1.0
element vertex 278
property float x
property float y
property float z
element face 241
property list uchar int vertex_index
end_header
-35.186871 58.668724 6.534682
-32.45055 67.327248 12.862076
-31.053873 71.268654 20.939232
-37.630531 44.434753 7.488549
-34.269394 66.130615 3.451054
-31.089268 76.246208 15.025334
-30.392595 82.21888 14.008677
-35.998081 50.823803 9.877137
-33.668316 63.569801 9.510971
-32.922848 70.542595 6.844294
-36.841595 52.719406 3.933721
-30.632446 71.626816 25.63863
-31.841394 74.121269 10.596179
-32.074619 77.532578 4.520561
-37.089249 43.666286 10.540902
-30.450527 80.019089 16.851994
-33.277695 67.044838 8.309391
-32.671528 68.987038 9.991183
-35.608166 54.83622 8.173018
-36.443279 51.745476 7.013088
-36.016811 55.671703 5.318001
-31.108234 78.494545 12.040297
-31.424343 75.324448 12.808066
-31.505192 77.338593 9.74626
-31.959337 75.844315 7.711316
-31.617996 79.007774 6.462151
-38.032261 45.463158 4.426282
-35.518196 59.787434 3.513445
-30.821842 74.29512 20.357199
-31.070539 73.903511 17.932491
-30.779903 77.044281 17.405954
-30.77301 79.265411 14.489414
-30.765234 81.357635 11.455886
-36.279102 46.773212 11.757179
-35.461063 49.940109 12.799889
-35.156357 53.710651 11.174404
-34.786663 57.3582 9.725929
-34.400726 61.121853 8.0884
-33.986855 64.9468 6.433579
-33.538647 68.445084 5.283829
-33.093952 72.117279 3.831921
-36.808544 47.618462 8.846822
-37.216919 48.653805 5.957278
-36.307896 56.826107 2.368718
-37.197685 53.399796 0.929916
-30.832584 71.605812 23.271048
-30.587435 74.516182 22.811871
-31.991251 68.846451 14.543989
-31.364199 73.08638 15.760335
-31.710554 72.070175 13.714223
-32.137383 70.892334 11.648635
-32.3508 72.380524 8.681271
-32.477814 74.219971 5.663456
-32.629986 75.747681 2.471565
-32.190273 79.06958 1.252796
-36.823433 43.212638 11.901789
-37.228535 41.588749 11.263042
-36.962719 41.135101 12.623929
-32.742836 66.354225 12.042229
-32.608526 65.579821 13.434465
-32.561039 68.157143 11.42663
-32.853325 67.184121 10.606782
-32.742836 66.354225 12.042229
-31.175503 71.137184 19.717315
-31.157308 69.89434 21.050674
-31.330936 78.906376 9.242292
-31.306713 77.916569 10.893279
-31.132458 79.484352 10.389311
-31.387338 79.740966 7.600238
-31.561594 78.173183 8.104205
-31.330936 78.906376 9.242292
-38.00065 42.836874 6.840179
-37.768085 42.441097 8.289929
-37.831396 44.948955 5.957415
-38.201515 43.351077 5.309045
-38.00065 42.836874 6.840179
-34.656266 64.799191 2.679007
-34.503472 64.286833 4.186356
-30.651082 77.195968 18.647765
-30.800873 75.669701 18.881577
-30.672052 75.821388 20.123387
-35.199696 49.349978 14.215682
-35.604189 47.910806 13.608666
-34.748309 55.02025 11.877123
-34.933615 53.14566 12.533228
-34.563462 56.844025 11.152886
-34.97151 55.534425 10.450166
-34.748309 55.02025 11.877123
-33.834003 61.782127 10.298969
-33.515917 62.733612 11.024109
-34.034521 62.345827 8.799685
-34.200209 60.558153 9.587683
-33.834003 61.782127 10.298969
-37.245911 51.057663 3.324861
-37.433573 49.024862 4.33664
-37.029257 50.686605 4.945499
-36.07955 58.672911 1.458355
-35.913046 58.30677 2.941082
-35.6847 60.153574 2.030718
-37.363922 53.681456 -0.702314
-36.938603 55.366663 0.078925
-37.607462 51.674605 0.219742
-37.363922 53.681456 -0.702314
-30.749544 70.138562 25.742396
-30.650012 70.195488 26.940425
-30.732515 71.616314 24.454839
-30.849613 70.12806 24.558605
-30.749544 70.138562 25.742396
-31.793405 69.488354 15.520815
-31.910373 67.952866 15.885262
-32.262974 79.64077 -0.371285
-31.968926 80.687061 0.588862
-32.493111 78.005547 0.303907
-32.262974 79.64077 -0.371285
-37.497445 42.056863 9.816106
-37.228535 41.588749 11.263042
-37.35989 44.05052 9.014726
-37.768085 42.441097 8.289929
-37.497445 42.056863 9.816106
-34.376262 66.770065 1.921224
-34.024523 67.932095 2.790541
-30.298931 80.062282 18.29002
-30.486394 78.683372 18.370785
-30.234391 81.454712 16.707973
-30.298931 80.062282 18.29002
-30.205425 82.554608 15.286314
-30.421561 81.118984 15.430336
-30.234391 81.454712 16.707973
-33.351719 64.475502 10.366676
-33.515917 62.733612 11.024109
-33.156408 66.21302 9.765886
-33.473005 65.30732 8.910181
-33.351719 64.475502 10.366676
-32.974612 68.015938 9.150287
-33.156408 66.21302 9.765886
-32.853325 67.184121 10.606782
-30.523076 71.479363 27.007296
-30.650012 70.195488 26.940425
-30.48027 73.06506 25.595959
-30.523076 71.479363 27.007296
-32.354433 66.442741 14.199484
-32.608526 65.579821 13.434465
-38.403158 43.678252 3.818966
-38.201515 43.351077 5.309045
-38.239916 45.600922 2.947216
-38.403158 43.678252 3.818966
-35.127873 61.115242 4.217551
-35.352533 59.228079 5.024064
-34.96221 60.555887 5.72817
-35.280667 61.6276 2.710203
-35.127873 61.115242 4.217551
-35.6847 60.153574 2.030718
-35.280667 61.6276 2.710203
-34.656266 64.799191 2.679007
-34.376262 66.770065 1.921224
-30.615215 78.531685 17.128974
-30.651082 77.195968 18.647765
-30.486394 78.683372 18.370785
-30.960957 80.915897 10.097105
-31.132458 79.484352 10.389311
-30.936734 79.92609 11.748092
-36.013208 46.327358 13.087311
-36.41836 44.766102 12.509928
-35.870083 48.356661 12.278534
-36.013208 46.327358 13.087311
-35.604189 47.910806 13.608666
-35.085968 51.260389 13.34597
-35.199696 49.349978 14.215682
-35.30871 51.82538 11.987146
-35.085968 51.260389 13.34597
-34.933615 53.14566 12.533228
-34.393177 58.676327 10.406448
-34.563462 56.844025 11.152886
-34.593694 59.240026 8.907165
-34.393177 58.676327 10.406448
-34.200209 60.558153 9.587683
-34.569137 61.782452 6.505029
-34.96221 60.555887 5.72817
-34.793798 59.895288 7.311541
-34.362202 63.694925 5.677618
-34.569137 61.782452 6.505029
-34.19379 63.034326 7.260989
-34.128124 65.538708 4.942317
-34.503472 64.286833 4.186356
-34.362202 63.694925 5.677618
-33.659149 69.089329 3.706929
-34.024523 67.932095 2.790541
-33.904021 67.287849 4.367441
-33.436802 70.925427 2.980974
-33.659149 69.089329 3.706929
-33.316299 70.281182 4.557875
-33.192648 72.799427 2.184722
-33.436802 70.925427 2.980974
-36.684176 45.219749 11.149041
-36.823433 43.212638 11.901789
-36.41836 44.766102 12.509928
-37.841244 47.429539 3.571142
-37.62459 47.058481 5.19178
-37.433573 49.024862 4.33664
-38.239916 45.600922 2.947216
-37.841244 47.429539 3.571142
-36.493708 57.079819 0.798326
-36.07955 58.672911 1.458355
-36.752791 55.112952 1.649317
-36.493708 57.079819 0.798326
-36.938603 55.366663 0.078925
-37.423956 51.397858 1.822959
-37.245911 51.057663 3.324861
-37.01964 53.059601 2.431818
-37.423956 51.397858 1.822959
-37.607462 51.674605 0.219742
-31.050743 69.990406 22.221339
-31.157308 69.89434 21.050674
-30.940098 70.158985 23.387248
-30.849613 70.12806 24.558605
-30.943229 71.437233 22.10514
-31.050743 69.990406 22.221339
-30.940098 70.158985 23.387248
-30.554848 75.931919 21.350724
-30.672052 75.821388 20.123387
-30.704639 74.405651 21.584535
-30.457764 74.509743 24.182579
-30.609941 73.071499 24.225251
-30.48027 73.06506 25.595959
-30.420482 75.920074 22.735285
-30.457764 74.509743 24.182579
-30.554848 75.931919 21.350724
-30.420482 75.920074 22.735285
-32.124783 67.202343 15.04044
-31.910373 67.952866 15.885262
-32.2209 68.086849 13.703032
-32.354433 66.442741 14.199484
-32.124783 67.202343 15.04044
-31.183836 72.454612 18.213945
-31.175503 71.137184 19.717315
-31.062206 72.586083 19.435862
-31.330666 72.046047 17.127867
-31.183836 72.454612 18.213945
-31.217369 73.494946 16.846413
-31.479879 71.608318 16.128988
-31.330666 72.046047 17.127867
-31.653057 71.100216 15.105932
-31.479879 71.608318 16.128988
-31.537377 72.578278 14.737279
-31.850902 70.458313 14.129106
-31.793405 69.488354 15.520815
-31.653057 71.100216 15.105932
-32.960665 74.614628 1.504544
-33.192648 72.799427 2.184722
-32.861969 73.93248 3.151743
-30.155765 83.72921 13.671894
-30.205425 82.554608 15.286314
-30.347606 83.403404 12.365726
-30.155765 83.72921 13.671894
-30.533925 82.972782 11.08933
-30.578914 81.788258 12.732281
-30.347606 83.403404 12.365726
-30.730725 82.542377 9.793464
-30.533925 82.972782 11.08933
-30.960957 80.915897 10.097105
-30.730725 82.542377 9.793464
-31.384607 80.728523 6.035228
-31.387338 79.740966 7.600238
-31.631863 79.963368 4.881488
-31.384607 80.728523 6.035228
-31.860174 79.225769 3.910693
-31.846308 78.270176 5.491356
-31.631863 79.963368 4.881488
-31.918001 79.99427 2.27681
-31.968926 80.687061 0.588862
-32.132446 78.301079 2.886678
-31.860174 79.225769 3.910693
-31.918001 79.99427 2.27681
-32.712967 76.344597 0.913291
-32.410129 77.408631 1.862181
-32.493111 78.005547 0.303907
-32.960665 74.614628 1.504544
-32.712967 76.344597 0.913291
3 55 14 56
3 55 56 57
3 1 58 59
3 1 60 62
3 60 17 61
3 60 61 62
3 0 20 18
3 2 63 64
3 65 23 66
3 67 66 21
3 65 66 67
3 68 25 69
3 70 69 23
3 68 69 70
3 3 71 72
3 3 73 75
3 73 26 74
3 73 74 75
3 4 76 77
3 78 30 79
3 80 79 28
3 78 79 80
3 6 31 15
3 6 32 31
3 81 34 82
3 83 35 84
3 85 36 86
3 87 86 35
3 85 86 87
3 8 88 89
3 8 90 92
3 90 37 91
3 90 91 92
3 8 38 37
3 9 39 16
3 9 40 39
3 7 41 33
3 10 42 19
3 10 93 95
3 95 94 42
3 93 94 95
3 96 43 97
3 98 97 27
3 96 97 98
3 99 44 100
3 102 101 44
3 11 103 104
3 11 105 107
3 105 45 106
3 105 106 107
3 11 46 45
3 108 47 109
3 5 48 29
3 12 49 22
3 12 50 49
3 12 51 50
3 13 52 24
3 13 53 52
3 110 54 111
3 113 112 54
3 14 114 115
3 14 116 118
3 116 3 117
3 116 117 118
3 120 119 4
3 121 15 122
3 123 15 124
3 125 6 126
3 127 126 15
3 125 126 127
3 128 8 129
3 130 16 131
3 132 131 8
3 130 131 132
3 17 133 135
3 133 16 134
3 133 134 135
3 17 9 16
3 18 19 7
3 20 19 18
3 20 10 19
3 136 11 137
3 139 138 11
3 21 22 5
3 23 22 21
3 23 12 22
3 23 24 12
3 25 24 23
3 25 13 24
3 140 1 141
3 26 142 143
3 26 144 145
3 146 27 147
3 148 147 0
3 146 147 148
3 149 27 150
3 152 151 27
3 154 153 4
3 28 29 2
3 30 29 28
3 30 5 29
3 15 155 157
3 155 30 156
3 155 156 157
3 31 30 15
3 31 5 30
3 31 21 5
3 32 21 31
3 32 158 160
3 160 159 21
3 158 159 160
3 161 33 162
3 34 163 165
3 163 33 164
3 163 164 165
3 34 7 33
3 166 34 167
3 35 168 170
3 168 34 169
3 168 169 170
3 35 7 34
3 35 18 7
3 36 18 35
3 36 0 18
3 171 36 172
3 37 173 175
3 173 36 174
3 173 174 175
3 37 0 36
3 37 176 178
3 178 177 0
3 176 177 178
3 38 179 181
3 181 180 37
3 179 180 181
3 38 182 184
3 182 4 183
3 182 183 184
3 16 38 8
3 39 38 16
3 39 4 38
3 39 185 187
3 187 186 4
3 185 186 187
3 40 188 190
3 190 189 39
3 188 189 190
3 40 191 192
3 33 193 195
3 193 14 194
3 193 194 195
3 41 14 33
3 41 3 14
3 19 41 7
3 42 41 19
3 42 3 41
3 42 26 3
3 196 26 197
3 198 197 42
3 196 197 198
3 200 199 26
3 27 20 0
3 43 20 27
3 43 10 20
3 201 43 202
3 44 203 205
3 203 43 204
3 203 204 205
3 44 10 43
3 44 206 208
3 208 207 10
3 206 207 208
3 210 209 44
3 211 2 212
3 45 213 214
3 45 215 217
3 215 2 216
3 215 216 217
3 45 28 2
3 46 28 45
3 46 218 220
3 220 219 28
3 218 219 220
3 221 46 222
3 223 222 11
3 221 222 223
3 224 46 225
3 227 226 46
3 47 228 229
3 47 230 232
3 230 1 231
3 230 231 232
3 29 233 235
3 235 234 2
3 233 234 235
3 48 236 238
3 238 237 29
3 236 237 238
3 48 239 240
3 22 48 5
3 49 48 22
3 49 241 243
3 243 242 48
3 241 242 243
3 49 244 246
3 244 47 245
3 244 245 246
3 50 47 49
3 50 1 47
3 50 17 1
3 51 17 50
3 51 9 17
3 24 51 12
3 52 51 24
3 52 9 51
3 52 40 9
3 53 40 52
3 53 247 249
3 249 248 40
3 247 248 249
3 250 6 251
3 252 6 253
3 254 32 255
3 256 255 6
3 254 255 256
3 257 32 258
3 260 259 32
3 261 25 262
3 263 25 264
3 265 13 266
3 267 266 25
3 265 266 267
3 54 268 269
3 54 270 272
3 270 13 271
3 270 271 272
3 54 53 13
3 273 53 274
3 275 274 54
3 273 274 275
3 277 276 53
