ply
format ascii 1.0
element vertex 346
property float x
property float y
property float z
element face 289
property list uchar int vertex_index
end_header
1.06962 -31.75075 -48.935802
9.896015 -36.803749 -38.542763
4.474018 -28.330954 -45.362991
-4.264316 -33.963917 -52.170731
12.589748 -25.727612 -36.28434
9.466059 -22.934072 -39.775108
2.972758 -30.315971 -47.140476
2.176239 -23.441504 -49.057457
7.130352 -33.014774 -41.797718
5.591346 -35.092548 -43.753754
3.943786 -37.333996 -45.444675
1.780784 -39.488113 -47.077805
-1.398603 -33.27002 -50.595955
15.761265 -28.172314 -32.884968
0.256323 -12.588025 -54.572708
2.037019 -30.847561 -48.121201
1.652712 -27.496544 -49.081059
0.734063 -28.094727 -49.976421
-0.313894 -28.915182 -50.794243
12.06302 -37.118362 -35.980076
10.57549 -35.518318 -37.635612
7.774426 -31.62042 -40.932674
8.497135 -34.905781 -40.150379
7.885916 -41.199341 -41.234653
7.117887 -37.484047 -41.974739
6.379678 -38.88158 -42.845222
4.901145 -36.340462 -44.513298
5.505625 -40.126881 -43.747276
3.485872 -42.429024 -45.397106
-4.254978 -37.88015 -51.139179
-2.683875 -37.336884 -50.431309
-1.241956 -36.769386 -49.690746
-2.819561 -33.577686 -51.445652
-2.800595 -29.899485 -52.442337
-4.107867 -30.397272 -53.107018
12.297017 -23.039227 -37.190548
13.87878 -24.32375 -35.46706
4.01611 -25.224817 -46.199638
9.27484 -38.354111 -39.426334
-5.688683 -30.941902 -53.796352
10.964811 -24.235935 -38.084057
9.225402 -20.248314 -40.69725
3.730483 -29.231882 -46.298523
3.280348 -25.801311 -47.207577
2.56385 -26.783707 -48.062122
1.48949 -24.386539 -49.825985
13.617902 -38.886517 -34.284988
6.416376 -29.724216 -42.685398
5.749111 -30.73403 -43.574879
7.845899 -36.306568 -41.040562
6.371161 -34.150986 -42.792042
5.024193 -31.779104 -44.501469
4.260169 -32.648827 -45.416012
3.424856 -33.767197 -46.281246
2.475583 -34.816647 -47.12923
4.506823 -41.14513 -44.642262
2.913307 -38.59074 -46.278206
1.326275 -35.482399 -48.061417
0.424161 -40.064941 -47.954445
0.189342 -36.320454 -48.798466
-0.097388 -32.614124 -49.770565
-1.494761 -29.625389 -51.589207
17.270098 -26.520041 -31.851494
14.098236 -27.121836 -34.62775
15.613637 -25.466867 -33.630264
10.235753 -36.161034 -38.089188
10.998411 -37.12644 -37.241514
10.658674 -37.769155 -37.69509
9.535344 -35.19013 -38.890482
9.875082 -34.547415 -38.436906
10.235753 -36.161034 -38.089188
9.196575 -35.854765 -39.346571
8.835904 -34.241146 -39.69429
9.535344 -35.19013 -38.890482
6.759155 -40.837395 -42.458129
7.132797 -40.04046 -42.039938
7.512274 -41.996275 -41.652845
6.322128 -41.460045 -42.909156
5.942652 -39.50423 -43.296249
6.759155 -40.837395 -42.458129
13.053653 -22.383421 -36.743225
12.22474 -21.837535 -37.623276
4.245064 -26.777886 -45.781315
4.582488 -26.262442 -45.332558
4.811442 -27.815511 -44.914234
10.215435 -23.585003 -38.929583
10.366637 -24.848309 -38.540922
9.617261 -24.197378 -39.386448
10.062041 -22.303046 -39.390411
10.811417 -22.953978 -38.544885
10.215435 -23.585003 -38.929583
9.345731 -21.591193 -40.236179
9.941713 -20.960167 -39.851482
10.062041 -22.303046 -39.390411
1.023555 -24.517455 -50.366272
1.571101 -25.941541 -49.453522
1.105166 -26.072457 -49.993809
0.948703 -22.966398 -50.819298
1.023555 -24.517455 -50.366272
13.269164 -39.652851 -34.741493
14.012183 -40.524146 -33.925697
12.500325 -36.372097 -35.471353
11.75582 -35.622976 -36.286522
8.227415 -38.12668 -40.691033
8.56037 -37.33034 -40.233448
8.941886 -39.150452 -39.883919
4.822749 -43.016558 -44.254021
5.360718 -42.545013 -43.801743
-0.235526 -40.387424 -48.311323
0.683326 -42.119175 -47.456963
-2.781702 -28.134054 -52.957859
-3.418108 -28.334053 -53.32275
-5.581015 -29.109642 -54.333957
-6.37005 -29.150096 -54.719755
16.644924 -28.686977 -31.943603
15.901911 -29.498209 -32.525368
16.515681 -27.346177 -32.368231
17.39934 -27.860841 -31.426865
16.644924 -28.686977 -31.943603
13.343992 -26.424724 -35.456045
13.475897 -27.801061 -35.090004
12.721653 -27.103949 -35.918299
15.561196 -24.14423 -34.058408
14.746209 -24.895308 -34.548662
14.693767 -23.572672 -34.976806
16.416974 -24.580595 -33.16119
15.561196 -24.14423 -34.058408
2.556468 -23.094738 -48.55262
3.108522 -24.274641 -47.62768
2.728293 -24.621407 -48.132517
0.594186 -12.294778 -54.104812
0.637828 -13.689127 -53.620611
0.272802 -11.151296 -55.035195
0.594186 -12.294778 -54.104812
-0.103767 -11.30226 -55.585832
0.272802 -11.151296 -55.035195
8.905672 -23.290328 -40.266762
9.617261 -24.197378 -39.386448
8.779342 -22.06721 -40.647982
8.905672 -23.290328 -40.266762
0.645841 -26.371549 -50.44149
1.105166 -26.072457 -49.993809
1.193388 -27.795635 -49.52874
0.142918 -26.703285 -50.895427
0.645841 -26.371549 -50.44149
-0.381061 -27.113513 -51.304339
0.142918 -26.703285 -50.895427
0.210085 -28.504955 -50.385332
-0.948368 -27.407004 -51.742897
-0.381061 -27.113513 -51.304339
11.742176 -37.926462 -36.413746
12.491723 -38.768774 -35.589037
11.319255 -36.31834 -36.807844
11.742176 -37.926462 -36.413746
10.998411 -37.12644 -37.241514
11.012055 -34.822954 -37.11429
11.75582 -35.622976 -36.286522
11.319255 -36.31834 -36.807844
10.276129 -33.968563 -37.945627
11.012055 -34.822954 -37.11429
10.276129 -33.968563 -37.945627
9.875082 -34.547415 -38.436906
8.47455 -32.598466 -40.085437
8.178314 -31.161738 -40.421867
8.13578 -33.263101 -40.541527
8.47455 -32.598466 -40.085437
8.835904 -34.241146 -39.69429
7.501901 -39.341694 -41.604696
7.863409 -38.71542 -41.158121
8.247424 -40.573067 -40.788078
3.791441 -44.300524 -44.991606
4.312273 -43.658504 -44.631443
2.82594 -42.729397 -45.853604
3.791441 -44.300524 -44.991606
1.973396 -41.258941 -46.693953
2.633328 -40.958568 -46.237455
2.82594 -42.729397 -45.853604
-3.333534 -39.636972 -50.261042
-4.187792 -39.810755 -50.651613
-2.547982 -39.365339 -49.907106
-3.333534 -39.636972 -50.261042
-3.469426 -37.608517 -50.785244
-1.789544 -39.023396 -49.549755
-2.547982 -39.365339 -49.907106
-1.962916 -37.053135 -50.061027
-1.068585 -38.739647 -49.179474
-1.789544 -39.023396 -49.549755
-4.071744 -28.582946 -53.655091
-3.418108 -28.334053 -53.32275
-3.454231 -30.148378 -52.774677
15.088037 -28.952824 -33.386761
15.901911 -29.498209 -32.525368
13.844534 -23.025683 -35.881481
13.087899 -23.681489 -36.328804
13.053653 -22.383421 -36.743225
14.693767 -23.572672 -34.976806
13.844534 -23.025683 -35.881481
4.354798 -24.778936 -45.732636
4.582488 -26.262442 -45.332558
3.810983 -23.658628 -46.648775
4.354798 -24.778936 -45.732636
2.054178 -21.875774 -49.502863
1.677064 -22.168602 -49.996361
0.255346 -13.955569 -54.145536
0.637828 -13.689127 -53.620611
-0.155723 -12.704339 -55.156502
0.255346 -13.955569 -54.145536
10.344583 -38.559 -38.149277
10.658674 -37.769155 -37.69509
10.033996 -39.334181 -38.591062
9.585427 -37.57893 -38.984549
10.344583 -38.559 -38.149277
9.71587 -40.112891 -39.046369
10.033996 -39.334181 -38.591062
8.941886 -39.150452 -39.883919
9.71587 -40.112891 -39.046369
8.747046 -42.436895 -40.340993
8.247424 -40.573067 -40.788078
8.293744 -43.023287 -40.872421
8.747046 -42.436895 -40.340993
7.512274 -41.996275 -41.652845
8.293744 -43.023287 -40.872421
-5.127828 -37.977597 -51.527567
-4.187792 -39.810755 -50.651613
-5.03871 -36.132919 -51.989947
-5.127828 -37.977597 -51.527567
-5.043379 -34.174803 -52.505723
-4.259647 -35.922033 -51.654955
-5.03871 -36.132919 -51.989947
-5.755562 -32.663795 -53.318533
-4.9765 -32.45291 -52.983542
-5.043379 -34.174803 -52.505723
-6.526511 -30.984557 -54.181299
-5.755562 -32.663795 -53.318533
-6.37005 -29.150096 -54.719755
-6.526511 -30.984557 -54.181299
11.950172 -26.378132 -36.763849
12.721653 -27.103949 -35.918299
11.137704 -25.632294 -37.663708
10.366637 -24.848309 -38.540922
11.777279 -24.981774 -37.184199
11.950172 -26.378132 -36.763849
11.137704 -25.632294 -37.663708
11.477521 -22.355624 -38.098131
11.630914 -23.637581 -37.637303
10.811417 -22.953978 -38.544885
12.22474 -21.837535 -37.623276
11.477521 -22.355624 -38.098131
9.949898 -19.705117 -40.248344
9.941713 -20.960167 -39.851482
9.28788 -18.969544 -41.064054
9.949898 -19.705117 -40.248344
8.659014 -20.724331 -41.109052
9.345731 -21.591193 -40.236179
8.779342 -22.06721 -40.647982
8.61896 -19.429909 -41.50325
8.659014 -20.724331 -41.109052
9.28788 -18.969544 -41.064054
8.61896 -19.429909 -41.50325
1.333689 -22.64112 -50.380625
1.677064 -22.168602 -49.996361
1.832864 -23.914021 -49.441721
1.333689 -22.64112 -50.380625
0.948703 -22.966398 -50.819298
14.392714 -39.635433 -33.429403
14.012183 -40.524146 -33.925697
13.993835 -38.085854 -33.847217
14.392714 -39.635433 -33.429403
12.840461 -38.002439 -35.132532
13.269164 -39.652851 -34.741493
12.491723 -38.768774 -35.589037
13.277767 -37.256175 -34.62381
12.840461 -38.002439 -35.132532
12.500325 -36.372097 -35.471353
13.993835 -38.085854 -33.847217
13.277767 -37.256175 -34.62381
7.497819 -30.185876 -41.283414
8.178314 -31.161738 -40.421867
6.818793 -29.237773 -42.159776
7.497819 -30.185876 -41.283414
7.095401 -30.672318 -41.809036
6.17274 -28.234643 -43.040594
6.818793 -29.237773 -42.159776
5.782621 -28.512142 -43.575437
6.17274 -28.234643 -43.040594
5.448989 -29.017049 -44.020178
5.782621 -28.512142 -43.575437
6.082743 -30.229123 -43.130139
5.111565 -29.532492 -44.468935
4.811442 -27.815511 -44.914234
5.448989 -29.017049 -44.020178
7.481893 -36.895308 -41.50765
8.227415 -38.12668 -40.691033
7.863409 -38.71542 -41.158121
5.860119 -42.035889 -43.35425
6.322128 -41.460045 -42.909156
5.006224 -40.636005 -44.194769
5.860119 -42.035889 -43.35425
5.360718 -42.545013 -43.801743
3.996347 -41.787077 -45.019684
4.822749 -43.016558 -44.254021
4.312273 -43.658504 -44.631443
1.295084 -41.547355 -47.132273
0.683326 -42.119175 -47.456963
1.102472 -39.776527 -47.516125
1.973396 -41.258941 -46.693953
1.295084 -41.547355 -47.132273
-0.408898 -38.417164 -48.822595
-0.235526 -40.387424 -48.311323
-1.068585 -38.739647 -49.179474
-1.538802 -27.762107 -52.140379
-0.948368 -27.407004 -51.742897
-0.904327 -29.270285 -51.191725
-2.128785 -27.997006 -52.531294
-2.147678 -29.762437 -52.015772
-2.781702 -28.134054 -52.957859
-1.538802 -27.762107 -52.140379
-2.128785 -27.997006 -52.531294
-4.790606 -28.837327 -53.98929
-4.898275 -30.669587 -53.451685
-5.581015 -29.109642 -54.333957
-4.071744 -28.582946 -53.655091
-4.790606 -28.837327 -53.98929
18.143894 -26.938466 -30.911426
17.39934 -27.860841 -31.426865
18.141531 -25.589912 -31.291742
18.143894 -26.938466 -30.911426
14.256522 -28.427585 -34.258152
13.475897 -27.801061 -35.090004
14.929751 -27.647075 -33.756359
15.088037 -28.952824 -33.386761
14.256522 -28.427585 -34.258152
17.245204 -25.107182 -32.271805
16.441868 -25.993454 -32.740879
16.416974 -24.580595 -33.16119
18.141531 -25.589912 -31.291742
17.245204 -25.107182 -32.271805
3.476403 -23.986394 -47.123711
3.648229 -25.513064 -46.703608
3.108522 -24.274641 -47.62768
3.810983 -23.658628 -46.648775
3.476403 -23.986394 -47.123711
2.556468 -23.094738 -48.55262
2.054178 -21.875774 -49.502863
-0.103767 -11.30226 -55.585832
-0.155723 -12.704339 -55.156502
3 0 17 15
3 0 18 17
3 1 65 67
3 65 20 66
3 65 66 67
3 1 68 70
3 70 69 20
3 68 69 70
3 1 71 73
3 71 22 72
3 71 72 73
3 74 25 75
3 76 75 23
3 74 75 76
3 77 27 78
3 79 78 25
3 77 78 79
3 3 30 29
3 3 32 30
3 3 34 32
3 81 80 35
3 2 82 84
3 82 37 83
3 82 83 84
3 5 85 87
3 85 40 86
3 85 86 87
3 5 88 90
3 90 89 40
3 88 89 90
3 5 91 93
3 91 41 92
3 91 92 93
3 6 44 42
3 94 45 95
3 96 95 16
3 94 95 96
3 98 97 45
3 99 46 100
3 102 101 19
3 8 47 21
3 8 48 47
3 103 49 104
3 105 104 38
3 103 104 105
3 9 50 24
3 9 51 50
3 9 52 51
3 10 53 26
3 10 54 53
3 106 55 107
3 11 56 28
3 11 57 56
3 108 58 109
3 12 59 31
3 12 60 59
3 12 61 60
3 111 110 33
3 113 112 39
3 13 114 115
3 13 116 118
3 116 62 117
3 116 117 118
3 4 119 121
3 119 63 120
3 119 120 121
3 122 64 123
3 124 123 36
3 122 123 124
3 126 125 64
3 7 127 129
3 129 128 43
3 127 128 129
3 14 130 131
3 14 132 133
3 14 134 135
3 136 5 137
3 139 138 5
3 15 16 6
3 17 16 15
3 17 140 142
3 142 141 16
3 140 141 142
3 17 143 144
3 18 145 147
3 147 146 17
3 145 146 147
3 18 148 149
3 150 19 151
3 20 152 154
3 152 19 153
3 152 153 154
3 20 155 157
3 157 156 19
3 155 156 157
3 20 158 159
3 161 160 20
3 162 21 163
3 22 164 166
3 164 21 165
3 164 165 166
3 22 8 21
3 23 167 169
3 167 24 168
3 167 168 169
3 25 24 23
3 25 9 24
3 25 26 9
3 27 26 25
3 27 10 26
3 170 28 171
3 172 28 173
3 174 11 175
3 176 175 28
3 174 175 176
3 29 177 178
3 30 179 181
3 181 180 29
3 179 180 181
3 30 182 183
3 30 184 186
3 184 31 185
3 184 185 186
3 32 31 30
3 32 12 31
3 32 33 12
3 34 33 32
3 34 187 189
3 189 188 33
3 187 188 189
3 190 13 191
3 35 36 4
3 192 36 193
3 194 193 35
3 192 193 194
3 196 195 36
3 37 197 198
3 37 199 200
3 202 201 7
3 203 14 204
3 206 205 14
3 207 1 208
3 209 38 210
3 211 210 1
3 209 210 211
3 212 38 213
3 215 214 38
3 216 23 217
3 218 23 219
3 221 220 23
3 222 29 223
3 224 29 225
3 226 3 227
3 228 227 29
3 226 227 228
3 229 39 230
3 231 230 3
3 229 230 231
3 232 39 233
3 235 234 39
3 236 4 237
3 40 238 239
3 40 240 242
3 240 4 241
3 240 241 242
3 40 35 4
3 243 35 244
3 245 244 40
3 243 244 245
3 247 246 35
3 41 248 249
3 41 250 251
3 252 41 253
3 254 253 5
3 252 253 254
3 255 41 256
3 258 257 41
3 42 43 2
3 44 43 42
3 44 7 43
3 16 44 6
3 45 44 16
3 45 7 44
3 45 259 261
3 261 260 7
3 259 260 261
3 263 262 45
3 46 264 265
3 46 266 267
3 19 268 270
3 268 46 269
3 268 269 270
3 271 46 272
3 273 272 19
3 271 272 273
3 275 274 46
3 21 276 277
3 47 278 280
3 280 279 21
3 278 279 280
3 47 281 282
3 47 283 284
3 48 285 287
3 287 286 47
3 285 286 287
3 48 288 290
3 288 2 289
3 288 289 290
3 38 22 1
3 49 22 38
3 49 8 22
3 24 291 293
3 291 49 292
3 291 292 293
3 50 49 24
3 50 8 49
3 50 48 8
3 51 48 50
3 51 2 48
3 51 42 2
3 52 42 51
3 52 6 42
3 26 52 9
3 53 52 26
3 53 6 52
3 53 15 6
3 54 15 53
3 54 0 15
3 294 27 295
3 55 296 298
3 296 27 297
3 296 297 298
3 55 10 27
3 28 299 301
3 299 55 300
3 299 300 301
3 56 55 28
3 56 10 55
3 56 54 10
3 57 54 56
3 57 0 54
3 58 302 303
3 58 304 306
3 304 11 305
3 304 305 306
3 31 307 309
3 307 58 308
3 307 308 309
3 59 58 31
3 59 11 58
3 59 57 11
3 60 57 59
3 60 0 57
3 60 18 0
3 61 18 60
3 61 310 312
3 312 311 18
3 310 311 312
3 33 61 12
3 313 61 314
3 315 314 33
3 313 314 315
3 317 316 61
3 39 34 3
3 318 34 319
3 320 319 39
3 318 319 320
3 322 321 34
3 62 323 324
3 62 325 326
3 63 327 328
3 63 329 331
3 329 13 330
3 329 330 331
3 36 63 4
3 64 63 36
3 64 13 63
3 64 62 13
3 332 62 333
3 334 333 64
3 332 333 334
3 336 335 62
3 43 37 2
3 337 37 338
3 339 338 43
3 337 338 339
3 341 340 37
3 343 342 7
3 345 344 14
