ply
format ascii 1.0
element vertex 197
property float x
property float y
property float z
element face 178
property list uchar int vertex_index
end_header
-8.513668 -83.872902 12.558245
-12.81342 -85.705833 3.303697
-3.991147 -78.475258 21.557755
-9.736647 -79.295883 17.786531
-7.41392 -76.677887 22.109728
-6.23589 -81.360313 17.294996
-12.946303 -76.937111 18.122652
-12.020826 -81.035355 13.240738
-10.72578 -85.30603 7.878253
-14.099521 -81.784157 8.573771
-16.18434 -81.516594 3.589798
-9.169416 -81.525337 15.28721
-7.978746 -80.417358 17.497725
-7.359486 -82.764709 14.900207
-5.46796 -83.770775 14.733373
-7.784057 -86.066032 9.971106
-18.439632 -78.941025 1.26365
-12.569847 -78.881439 15.816228
-13.721192 -79.384262 13.528535
-13.109643 -81.426582 11.065588
-14.620116 -79.85746 11.147508
-16.592569 -79.762817 6.311508
-17.549658 -79.396095 3.813675
-17.112434 -81.10865 1.246755
-5.678368 -77.680054 21.745237
-11.933471 -85.395096 5.75528
-11.094454 -87.535011 2.99401
-10.168532 -77.238441 20.022713
-9.114195 -75.872253 22.185541
-8.439875 -78.184906 19.921852
-6.783738 -79.041985 19.755249
-5.097005 -80.115982 19.282516
-13.900772 -85.562469 0.866377
-11.374712 -78.129875 18.026047
-10.896426 -80.257706 15.578413
-10.263785 -82.515793 12.941604
-9.60905 -84.732674 10.231458
-11.393857 -83.16468 10.630816
-12.437106 -83.487488 8.49643
-13.557265 -83.683075 5.934038
-15.600857 -79.932877 8.789106
-15.165697 -81.816093 5.967841
-14.570761 -83.650391 3.487957
-15.580495 -83.423569 0.944062
-8.916321 -86.812859 7.618987
-7.546412 -84.491337 12.42486
-6.969322 -83.937241 13.595841
-7.936577 -83.318805 13.729226
-8.148862 -84.969467 11.264675
-7.181607 -85.587902 11.131291
-7.546412 -84.491337 12.42486
-19.044153 -77.890858 1.143915
-18.649101 -78.08263 2.503674
-14.454976 -78.652729 13.50335
-13.928113 -78.387955 14.783818
-14.904438 -78.889328 12.312837
-14.170654 -79.620861 12.338021
-14.454976 -78.652729 13.50335
-18.204114 -78.310166 3.778686
-17.751959 -78.547775 5.061764
-18.649101 -78.08263 2.503674
-17.994645 -79.16856 2.538663
-18.204114 -78.310166 3.778686
-4.313575 -77.172951 22.806014
-5.157186 -76.775349 22.899755
-4.834758 -78.077656 21.651496
-3.523065 -77.623226 22.647841
-4.313575 -77.172951 22.806014
-3.136816 -78.755916 21.602699
-3.523065 -77.623226 22.647841
-5.304994 -81.885052 17.121681
-4.735551 -81.262886 18.115441
-5.666448 -80.738147 18.288756
-4.548713 -84.257294 14.615849
-5.090923 -84.968373 13.406423
-13.578016 -86.482426 -0.478387
-14.415356 -85.426689 -0.391162
-13.210815 -75.847508 19.258402
-13.741978 -76.200306 18.204327
-12.424177 -76.454727 19.209429
-13.210815 -75.847508 19.258402
-12.160508 -77.533493 18.074349
-11.638382 -77.051109 19.161127
-12.424177 -76.454727 19.209429
-16.32191 -78.970639 8.772239
-15.901342 -78.938515 10.009127
-16.845637 -82.008758 -0.058038
-17.553733 -80.868465 0.026152
-7.682104 -75.548394 23.180728
-8.532241 -75.145577 23.218635
-8.264057 -76.27507 22.147635
-6.023559 -84.440274 13.512424
-6.413723 -83.267742 14.81679
-6.969322 -83.937241 13.595841
-5.090923 -84.968373 13.406423
-6.023559 -84.440274 13.512424
-6.797032 -86.729561 9.806056
-7.181607 -85.587902 11.131291
-7.380579 -87.149403 8.666756
-6.797032 -86.729561 9.806056
-18.900116 -78.643505 -0.127373
-18.217332 -79.784653 0.0346
-18.900116 -78.643505 -0.127373
-19.044153 -77.890858 1.143915
-13.540668 -77.164379 17.080876
-13.741978 -76.200306 18.204327
-13.35244 -78.136543 15.927664
-12.758075 -77.909275 16.96944
-13.540668 -77.164379 17.080876
-13.145519 -79.132851 14.672382
-13.35244 -78.136543 15.927664
-13.928113 -78.387955 14.783818
-17.273415 -78.731136 6.310681
-16.817766 -78.885608 7.53344
-17.071114 -79.579456 5.062591
-17.273415 -78.731136 6.310681
-17.751959 -78.547775 5.061764
-18.217332 -79.784653 0.0346
-17.553733 -80.868465 0.026152
-17.776033 -80.024837 1.255202
-5.999293 -76.483143 22.880799
-6.867069 -75.982059 23.063045
-6.546144 -77.17897 21.927482
-5.999293 -76.483143 22.880799
-5.157186 -76.775349 22.899755
-11.023379 -86.295551 5.546755
-10.419534 -86.251019 6.608241
-11.329626 -85.350563 6.816766
-10.60387 -87.365509 4.166119
-11.023379 -86.295551 5.546755
-11.513963 -86.465053 4.374645
-10.230341 -88.378063 2.796438
-10.60387 -87.365509 4.166119
-9.641364 -76.555347 21.104127
-9.921093 -75.419467 22.231722
-10.448262 -76.102562 21.150308
-4.18963 -80.517132 19.2177
-3.636701 -79.69677 20.35532
-4.544076 -79.29562 20.420136
-4.18963 -80.517132 19.2177
-4.735551 -81.262886 18.115441
-4.921029 -83.090283 15.84087
-5.304994 -81.885052 17.121681
-5.851925 -82.565544 16.014184
-4.921029 -83.090283 15.84087
-4.548713 -84.257294 14.615849
-13.019199 -86.611839 0.677795
-12.475523 -86.683521 1.896455
-13.357096 -85.634151 2.085037
-13.019199 -86.611839 0.677795
-13.578016 -86.482426 -0.478387
-11.035291 -76.605392 20.15946
-10.448262 -76.102562 21.150308
-10.771622 -77.684158 19.02438
-11.035291 -76.605392 20.15946
-11.638382 -77.051109 19.161127
-15.410972 -78.900807 11.188328
-14.904438 -78.889328 12.312837
-15.110487 -79.895169 9.968307
-15.410972 -78.900807 11.188328
-15.901342 -78.938515 10.009127
-16.096713 -79.847847 7.550307
-16.32191 -78.970639 8.772239
-16.817766 -78.885608 7.53344
-15.255218 -84.357239 -0.35232
-14.415356 -85.426689 -0.391162
-14.740634 -84.493019 0.905219
-16.079667 -83.166218 -0.209384
-16.346464 -82.266109 1.095409
-16.845637 -82.008758 -0.058038
-15.255218 -84.357239 -0.35232
-16.079667 -83.166218 -0.209384
-9.388051 -74.686585 23.29633
-9.921093 -75.419467 22.231722
-9.388051 -74.686585 23.29633
-8.532241 -75.145577 23.218635
-7.682104 -75.548394 23.180728
-6.867069 -75.982059 23.063045
-3.136816 -78.755916 21.602699
-3.636701 -79.69677 20.35532
-7.946712 -87.522816 7.490696
-7.380579 -87.149403 8.666756
-8.350189 -86.439446 8.795046
-9.514804 -87.004433 6.478608
-9.821051 -86.059445 7.74862
-10.419534 -86.251019 6.608241
-8.592259 -87.797287 6.311305
-9.514804 -87.004433 6.478608
-7.946712 -87.522816 7.490696
-8.592259 -87.797287 6.311305
-11.61604 -87.59811 1.741611
-11.953937 -86.620422 3.148853
-12.475523 -86.683521 1.896455
-10.717377 -88.579319 1.49343
-11.61604 -87.59811 1.741611
-10.230341 -88.378063 2.796438
-10.717377 -88.579319 1.49343
3 0 13 11
3 0 45 47
3 47 46 13
3 45 46 47
3 0 48 50
3 48 15 49
3 48 49 50
3 52 51 16
3 53 18 54
3 55 20 56
3 57 56 18
3 55 56 57
3 58 22 59
3 60 16 61
3 62 61 22
3 60 61 62
3 2 63 65
3 65 64 24
3 63 64 65
3 2 66 67
3 2 68 69
3 1 26 25
3 3 29 27
3 5 30 12
3 5 31 30
3 5 70 72
3 72 71 31
3 70 71 72
3 74 73 14
3 76 75 32
3 6 77 78
3 6 79 80
3 6 81 83
3 81 33 82
3 81 82 83
3 7 34 17
3 7 35 34
3 7 37 35
3 9 38 19
3 9 39 38
3 84 40 85
3 10 41 21
3 10 42 41
3 10 43 42
3 87 86 23
3 4 88 90
3 90 89 28
3 88 89 90
3 8 44 36
3 11 12 3
3 13 12 11
3 13 5 12
3 13 14 5
3 91 14 92
3 93 92 13
3 91 92 93
3 95 94 14
3 15 96 97
3 15 98 99
3 16 100 101
3 103 102 16
3 104 6 105
3 106 17 107
3 108 107 6
3 106 107 108
3 18 109 111
3 109 17 110
3 109 110 111
3 18 7 17
3 18 19 7
3 20 19 18
3 20 9 19
3 112 21 113
3 22 114 116
3 114 21 115
3 114 115 116
3 22 10 21
3 22 23 10
3 16 23 22
3 16 117 119
3 119 118 23
3 117 118 119
3 24 120 122
3 122 121 4
3 120 121 122
3 124 123 24
3 25 125 127
3 127 126 8
3 125 126 127
3 26 128 130
3 130 129 25
3 128 129 130
3 26 131 132
3 27 133 135
3 133 28 134
3 133 134 135
3 29 28 27
3 29 4 28
3 12 29 3
3 30 29 12
3 30 4 29
3 30 24 4
3 31 24 30
3 31 2 24
3 31 136 138
3 138 137 2
3 136 137 138
3 140 139 31
3 14 141 143
3 143 142 5
3 141 142 143
3 145 144 14
3 32 146 148
3 148 147 1
3 146 147 148
3 150 149 32
3 151 27 152
3 33 153 155
3 153 27 154
3 153 154 155
3 33 3 27
3 17 33 6
3 34 33 17
3 34 3 33
3 34 11 3
3 35 11 34
3 35 0 11
3 35 36 0
3 37 36 35
3 37 8 36
3 19 37 7
3 38 37 19
3 38 8 37
3 38 25 8
3 39 25 38
3 39 1 25
3 156 20 157
3 40 158 160
3 158 20 159
3 158 159 160
3 40 9 20
3 21 161 163
3 161 40 162
3 161 162 163
3 41 40 21
3 41 9 40
3 41 39 9
3 42 39 41
3 42 1 39
3 42 32 1
3 43 32 42
3 43 164 166
3 166 165 32
3 164 165 166
3 23 43 10
3 167 43 168
3 169 168 23
3 167 168 169
3 171 170 43
3 28 172 173
3 175 174 28
3 177 176 4
3 179 178 2
3 36 15 0
3 44 15 36
3 44 180 182
3 182 181 15
3 180 181 182
3 183 44 184
3 185 184 8
3 183 184 185
3 186 44 187
3 189 188 44
3 190 26 191
3 192 191 1
3 190 191 192
3 193 26 194
3 196 195 26
