ply
format ascii 1.0
element vertex 131
property float x
property float y
property float z
element face 95
property list uchar int vertex_index
end_header
-28.803818 25.975107 23.832312
-33.587845 29.172998 9.82352
-35.078304 27.118294 8.510171
-34.46312 26.866724 10.803795
-32.063694 25.567303 17.954548
-31.189913 24.969246 20.227827
-33.49585 31.226406 6.381044
-33.847496 31.436037 4.247594
-30.260336 24.369364 22.45195
-35.560482 27.330395 6.249264
-34.324924 29.139473 7.46236
-33.79039 26.431965 13.170094
-32.979866 26.0676 15.494598
-29.698555 26.776861 21.472754
-34.789095 25.808625 11.384085
-35.102534 25.953346 10.273685
-31.442854 23.744179 20.789969
-31.912036 24.136978 19.598583
-33.082321 32.218546 5.872554
-32.793366 32.223915 6.98186
-35.939115 26.256598 6.852007
-36.117396 26.345439 5.78603
-33.255198 30.171559 9.18296
-33.623737 30.154796 8.00238
-33.956384 29.156236 8.64294
-33.258206 24.971195 16.06619
-33.717022 25.157583 14.858802
-31.759091 26.666842 17.444423
-31.303959 26.49306 18.575108
-34.063339 31.284233 3.230898
-33.464644 32.319575 3.715696
-33.434187 27.525733 12.621694
-33.058191 27.332487 13.804603
-35.410126 26.07913 9.126873
-35.698026 26.150548 7.982461
-34.770712 26.992509 9.656983
-35.410126 26.07913 9.126873
-35.102534 25.953346 10.273685
-32.348926 24.436006 18.461944
-32.800119 24.721046 17.296166
-31.626804 25.268274 19.091188
-32.348926 24.436006 18.461944
-31.912036 24.136978 19.598583
-30.867069 26.194032 19.711748
-31.303959 26.49306 18.575108
-31.626804 25.268274 19.091188
-28.535002 27.17908 23.342858
-28.133288 26.782469 24.451844
-33.671673 31.331221 5.314319
-34.291052 30.421203 4.708193
-34.115229 30.316388 5.774917
-33.258145 32.323362 4.805829
-33.671673 31.331221 5.314319
-33.082321 32.218546 5.872554
-33.464644 32.319575 3.715696
-33.258145 32.323362 4.805829
-30.434274 23.18545 23.035232
-30.978065 23.444238 21.90203
-29.779143 23.922273 23.630769
-30.434274 23.18545 23.035232
-29.050885 24.725144 24.32095
-29.532077 25.172235 23.142131
-29.779143 23.922273 23.630769
-28.331207 25.578902 24.9806
-29.050885 24.725144 24.32095
-28.133288 26.782469 24.451844
-28.331207 25.578902 24.9806
-35.754995 27.31851 5.237317
-36.117396 26.345439 5.78603
-35.147545 28.368382 5.709027
-35.754995 27.31851 5.237317
-35.319393 27.224345 7.379717
-35.939115 26.256598 6.852007
-35.698026 26.150548 7.982461
-34.529766 29.272921 6.315575
-35.147545 28.368382 5.709027
-34.942703 28.234934 6.855812
-33.910387 30.182939 6.921702
-34.115229 30.316388 5.774917
-34.529766 29.272921 6.315575
-33.2092 31.198263 7.461722
-33.910387 30.182939 6.921702
-33.623737 30.154796 8.00238
-32.793366 32.223915 6.98186
-33.2092 31.198263 7.461722
-34.122284 25.339765 13.696549
-34.45273 25.591245 12.567235
-33.385128 26.249783 14.332346
-34.122284 25.339765 13.696549
-33.717022 25.157583 14.858802
-32.652929 27.150304 14.966855
-33.058191 27.332487 13.804603
-33.385128 26.249783 14.332346
-32.52178 25.817451 16.724573
-33.258206 24.971195 16.06619
-32.800119 24.721046 17.296166
-32.217177 26.91699 16.214448
-32.52178 25.817451 16.724573
-31.759091 26.666842 17.444423
-32.652929 27.150304 14.966855
-32.217177 26.91699 16.214448
-30.725124 24.669305 21.339889
-31.442854 23.744179 20.789969
-30.978065 23.444238 21.90203
-30.121389 27.097839 20.334211
-30.867069 26.194032 19.711748
-30.444234 25.873053 20.85029
-28.982371 27.579957 22.163078
-29.251186 26.375984 22.652533
-28.535002 27.17908 23.342858
-29.403911 27.868945 21.044604
-28.982371 27.579957 22.163078
-30.121389 27.097839 20.334211
-29.403911 27.868945 21.044604
-34.475966 30.377876 3.708219
-34.291052 30.421203 4.708193
-34.475966 30.377876 3.708219
-34.063339 31.284233 3.230898
-34.126755 26.649345 11.986944
-34.789095 25.808625 11.384085
-34.45273 25.591245 12.567235
-33.770552 27.743113 11.438544
-34.126755 26.649345 11.986944
-33.434187 27.525733 12.621694
-33.332915 28.896249 10.948407
-34.025483 28.019861 10.313657
-33.770552 27.743113 11.438544
-32.91333 30.043194 10.418274
-33.332915 28.896249 10.948407
-33.255198 30.171559 9.18296
-32.91333 30.043194 10.418274
3 14 3 15
3 16 5 17
3 19 18 6
3 20 9 21
3 1 10 2
3 1 22 24
3 24 23 10
3 22 23 24
3 25 12 26
3 28 27 4
3 0 13 8
3 30 29 7
3 32 31 11
3 33 2 34
3 3 35 37
3 35 2 36
3 35 36 37
3 3 1 2
3 38 4 39
3 5 40 42
3 40 4 41
3 40 41 42
3 5 43 45
3 45 44 4
3 43 44 45
3 47 46 0
3 6 48 50
3 48 7 49
3 48 49 50
3 51 7 52
3 53 52 6
3 51 52 53
3 55 54 7
3 56 8 57
3 58 8 59
3 60 0 61
3 62 61 8
3 60 61 62
3 63 0 64
3 66 65 0
3 9 67 68
3 9 69 70
3 2 71 73
3 71 9 72
3 71 72 73
3 10 9 2
3 10 74 76
3 76 75 9
3 74 75 76
3 10 77 79
3 77 6 78
3 77 78 79
3 80 6 81
3 82 81 10
3 80 81 82
3 84 83 6
3 85 11 86
3 12 87 89
3 87 11 88
3 87 88 89
3 12 90 92
3 92 91 11
3 90 91 92
3 4 93 95
3 93 12 94
3 93 94 95
3 96 12 97
3 98 97 4
3 96 97 98
3 100 99 12
3 8 101 103
3 101 5 102
3 101 102 103
3 13 5 8
3 13 104 106
3 106 105 5
3 104 105 106
3 107 13 108
3 109 108 0
3 107 108 109
3 110 13 111
3 113 112 13
3 7 114 115
3 117 116 7
3 11 118 120
3 118 3 119
3 118 119 120
3 121 3 122
3 123 122 11
3 121 122 123
3 124 1 125
3 126 125 3
3 124 125 126
3 127 1 128
3 130 129 1
