ply
format ascii 1.0
element vertex 432
property float x
property float y
property float z
element face 407
property list uchar int vertex_index
end_header
28.680504 -8.791149 47.526157
28.945545 -28.682827 36.169899
28.238106 -21.957628 50.663063
28.205482 -18.7806 41.847904
28.179535 -31.650135 44.656727
29.604414 -14.397416 34.468029
28.034277 -26.898037 47.699665
28.980986 -17.54443 58.447803
28.656271 -6.927646 43.437244
28.442852 -23.637499 39.064934
28.695898 -16.547228 37.959099
29.175957 -21.833649 35.176369
29.838181 -27.1752 32.175602
28.410606 -15.479771 48.857655
28.304506 -13.964599 44.669449
28.10449 -20.45023 46.130817
28.097252 -25.463209 43.260933
28.418884 -30.278038 40.344433
28.144033 -38.621532 51.016651
28.93461 -10.385562 52.00592
28.708546 -16.821257 53.641556
28.513748 -11.763564 40.746346
29.163181 -9.454471 37.109974
30.213106 -7.152472 33.838291
28.33551 -37.792732 46.222034
28.068043 -30.49844 51.027451
28.074928 -33.356361 51.771534
28.805391 -4.60809 44.807911
28.626007 -8.017879 45.447437
28.665306 -26.157694 37.681774
28.739868 -22.847355 37.182095
29.033983 -25.249914 35.646721
29.508404 -24.508762 33.657639
29.360149 -27.902363 34.086304
28.325041 -18.584995 49.756786
28.227608 -17.921047 47.43021
28.144951 -21.273241 48.271656
28.040157 -26.074076 45.302891
28.11759 -28.588432 44.046188
28.225679 -27.831861 41.840538
28.276085 -31.095049 42.476536
27.588268 -41.539787 56.797642
28.826504 -13.601125 52.860889
28.978006 -14.216537 55.086922
28.715899 -20.393837 56.829147
28.217178 -16.370989 43.143578
28.367683 -12.779483 42.607941
28.34025 -15.310931 41.190193
29.111229 -15.560193 36.11393
28.884506 -13.036872 37.620094
29.344366 -12.052407 35.790955
29.635033 -8.269409 35.473557
29.920622 -10.656656 34.082752
30.552004 -9.936952 32.401005
30.199993 -13.544256 32.781555
28.238934 -38.074478 48.606323
28.096039 -24.366922 49.228382
28.06838 -27.506666 50.058075
28.051928 -29.934273 48.483654
28.127825 -32.4561 46.974453
28.779144 -5.731852 41.530987
28.285484 -21.319361 40.397385
28.394527 -17.868427 39.837112
28.884487 -19.307274 36.650948
29.352062 -18.170671 34.835308
29.901691 -17.17955 33.12434
29.653927 -20.929121 33.465733
28.537741 -12.188941 48.238323
28.475315 -11.260719 46.12674
28.335157 -14.598533 46.679832
28.187643 -17.23461 45.338108
28.111877 -19.75231 44.047905
28.046965 -23.80965 46.760223
28.055973 -22.882643 44.611828
28.127657 -22.048231 42.47488
28.232481 -24.694777 41.078548
28.418005 -27.277382 39.639145
28.657692 -29.644958 38.124798
27.951077 -36.602882 55.152008
28.067507 -36.150009 52.657093
28.005136 -38.924206 53.557995
28.106815 -41.238316 51.903305
28.799728 -9.398879 49.73867
28.661047 -12.935065 50.48502
28.553684 -16.113989 51.268841
28.448294 -19.405619 52.083126
28.873386 -17.243586 56.134007
27.499271 -39.373589 58.365368
28.461546 -10.51885 44.034275
28.555489 -9.238187 42.146778
28.738831 -8.211342 40.245552
28.554245 -14.206172 39.400536
28.758186 -10.882257 38.949863
29.024437 -7.066776 38.527809
29.439056 -5.713508 36.82217
29.954308 -4.429938 35.179295
28.190214 -35.30175 47.788136
28.256226 -34.778309 45.473717
28.438694 -37.264427 43.833488
28.346588 -34.193577 43.210648
28.478846 -33.530991 40.944912
28.056413 -33.55055 53.063553
28.081032 -32.179887 52.550883
28.653256 -8.404514 46.486797
28.736047 -6.643289 46.178068
28.763295 -7.029924 47.217428
28.148563 -30.119284 44.351457
28.093843 -29.000222 45.101255
28.124815 -30.531073 45.406525
27.638826 -42.779922 56.02442
27.433633 -42.806778 57.162466
29.112895 -12.727502 55.802917
29.040406 -12.471118 54.633389
28.099646 -27.728629 51.282873
28.122803 -26.282122 50.844015
28.072215 -31.367846 48.897058
28.059985 -30.216356 49.755553
28.080273 -31.649929 50.168957
28.110164 -32.628759 48.142458
28.089877 -31.195186 47.729053
28.072215 -31.367846 48.897058
28.7613 -5.169533 43.171239
28.83586 -4.009755 43.856573
28.730831 -5.767868 44.122577
28.717707 -6.329749 42.484116
28.822736 -4.571636 42.218111
28.7613 -5.169533 43.171239
28.490979 -21.895387 38.764519
28.412295 -20.736319 39.430745
28.364168 -22.47843 39.73116
29.9375 -25.407967 32.019595
29.772611 -24.074748 32.760614
29.673292 -25.841981 32.916621
30.121595 -26.704363 31.229605
29.9375 -25.407967 32.019595
27.901444 -39.004856 54.829966
27.978107 -37.763544 54.355002
27.874415 -37.844194 55.626972
28.055423 -42.556681 52.368437
28.000498 -41.353727 53.122921
28.1715 -42.400721 51.13311
28.055423 -42.556681 52.368437
28.999227 -8.591472 51.627197
29.070861 -8.935151 52.703806
28.867169 -9.892221 50.872295
28.931787 -8.09813 50.493572
28.999227 -8.591472 51.627197
28.927186 -17.394008 57.290905
28.998332 -15.861859 56.792395
29.052132 -16.01228 57.949293
28.660198 -20.081871 55.646936
28.597456 -21.643127 56.072925
27.297573 -39.233376 59.520342
27.49477 -38.110508 59.070143
27.112949 -40.378569 59.970274
27.314647 -40.518782 58.8153
27.297573 -39.233376 59.520342
30.395556 -5.177031 33.676645
30.266157 -3.815764 34.347147
30.083707 -5.791205 34.508793
30.552132 -6.52812 33.016745
30.395556 -5.177031 33.676645
30.917659 -9.149746 31.600132
30.746998 -11.160358 31.691381
30.238424 -16.645117 32.234956
30.098451 -18.543426 32.346057
28.137349 -37.158899 50.64026
28.099086 -35.923137 51.460482
28.10577 -37.38577 51.836872
28.497089 -36.995474 42.741979
28.540156 -38.436752 42.994247
28.451035 -35.460049 42.43056
28.392641 -35.729002 43.522068
28.497089 -36.995474 42.741979
28.517164 -35.128756 41.297691
28.412717 -33.862284 42.07778
28.451035 -35.460049 42.43056
28.07759 -30.750926 52.178841
28.099478 -29.224516 51.767561
28.071486 -31.9274 51.399493
28.07759 -30.750926 52.178841
28.081032 -32.179887 52.550883
28.083716 -33.07889 50.540999
28.080273 -31.649929 50.168957
28.071486 -31.9274 51.399493
28.825739 -4.938394 45.858305
28.912673 -3.19794 45.519832
28.715699 -6.312985 45.127674
28.825739 -4.938394 45.858305
28.736047 -6.643289 46.178068
28.055126 -27.743044 45.729607
28.037217 -26.486057 46.501278
28.052186 -28.155024 46.927993
28.078874 -27.331254 44.67454
28.055126 -27.743044 45.729607
28.093843 -29.000222 45.101255
27.741225 -41.504463 55.57009
27.69301 -40.312646 56.449789
27.741225 -41.504463 55.57009
27.638826 -42.779922 56.02442
29.018708 -10.55563 53.092888
29.070861 -8.935151 52.703806
28.964655 -12.163412 53.520372
28.880557 -11.993343 52.433405
29.018708 -10.55563 53.092888
28.902255 -13.908831 53.973906
28.964655 -12.163412 53.520372
29.040406 -12.471118 54.633389
28.753834 -20.476422 58.007686
28.848443 -18.969133 57.638475
28.886378 -19.051718 58.817014
28.633965 -21.885128 57.277849
28.753834 -20.476422 58.007686
28.597456 -21.643127 56.072925
28.633965 -21.885128 57.277849
30.570992 -12.96401 31.881656
30.746998 -11.160358 31.691381
30.375999 -11.740604 32.59128
28.246084 -39.468359 49.09306
28.191484 -38.348005 49.811487
28.198633 -39.741886 50.298224
28.313703 -39.321696 47.837589
28.246084 -39.468359 49.09306
28.361991 -39.180823 46.645444
28.287222 -37.933605 47.414179
28.313703 -39.321696 47.837589
28.136633 -24.71225 50.429169
28.167072 -23.162275 49.945723
28.207666 -23.507604 51.146509
28.08221 -25.936794 49.643229
28.136633 -24.71225 50.429169
28.122803 -26.282122 50.844015
28.068212 -29.002553 50.542763
28.099646 -27.728629 51.282873
28.099478 -29.224516 51.767561
28.061011 -29.673143 47.319988
28.052186 -28.155024 46.927993
28.043102 -28.416155 48.09166
28.09896 -30.934056 46.565387
28.061011 -29.673143 47.319988
28.089877 -31.195186 47.729053
28.15368 -32.053117 45.81559
28.124815 -30.531073 45.406525
28.09896 -30.934056 46.565387
29.081546 -16.241962 59.120068
29.052132 -16.01228 57.949293
29.152692 -14.709813 58.621558
28.989477 -17.727604 59.539785
29.081546 -16.241962 59.120068
29.090038 -16.425137 60.21205
28.886378 -19.051718 58.817014
28.989477 -17.727604 59.539785
28.90513 -2.852969 44.501989
28.912673 -3.19794 45.519832
28.90513 -2.852969 44.501989
28.83586 -4.009755 43.856573
28.887445 -4.119698 41.320127
28.822736 -4.571636 42.218111
28.893961 -5.12697 40.606403
28.887445 -4.119698 41.320127
28.466817 -19.010852 39.150608
28.340006 -19.593894 40.117249
28.412295 -20.736319 39.430745
28.617502 -18.350252 38.211602
28.545212 -17.207828 38.898105
28.466817 -19.010852 39.150608
28.639487 -21.500315 37.823099
28.490979 -21.895387 38.764519
28.59136 -23.242427 38.123514
28.711796 -19.730275 37.557526
28.639487 -21.500315 37.823099
28.812178 -21.077314 36.916522
28.790192 -17.927251 37.305024
28.617502 -18.350252 38.211602
28.711796 -19.730275 37.557526
29.97457 -20.418212 32.516754
30.098451 -18.543426 32.346057
29.777809 -19.054336 33.295036
29.845372 -22.284927 32.66466
29.581165 -22.718941 33.561686
29.772611 -24.074748 32.760614
29.97457 -20.418212 32.516754
29.845372 -22.284927 32.66466
28.009292 -36.376446 53.90455
28.052703 -34.947374 53.506332
27.994488 -35.173811 54.75379
27.949659 -40.196672 53.950266
27.901444 -39.004856 54.829966
28.055976 -40.081261 52.73065
27.949659 -40.196672 53.950266
28.000498 -41.353727 53.122921
28.180024 -41.050278 50.741551
28.198633 -39.741886 50.298224
28.125424 -39.929924 51.459978
28.180024 -41.050278 50.741551
28.1715 -42.400721 51.13311
28.804476 -7.424632 48.249221
28.763295 -7.029924 47.217428
28.864088 -7.728497 49.355478
28.931787 -8.09813 50.493572
28.740116 -9.095014 48.632413
28.804476 -7.424632 48.249221
28.864088 -7.728497 49.355478
29.050642 -14.348334 56.268853
29.112895 -12.727502 55.802917
29.185531 -12.859299 56.984848
28.925696 -15.730062 55.610464
29.050642 -14.348334 56.268853
28.998332 -15.861859 56.792395
28.738941 -18.506746 55.299366
28.794643 -18.818711 56.481577
28.660198 -20.081871 55.646936
28.656521 -18.295581 54.05314
28.790966 -17.032421 54.887782
28.738941 -18.506746 55.299366
28.526395 -19.587762 53.273926
28.57842 -18.113438 52.862341
28.656521 -18.295581 54.05314
28.406518 -20.976293 52.599853
28.526395 -19.587762 53.273926
28.301424 -22.252297 51.889822
28.3432 -20.681624 51.373095
28.406518 -20.976293 52.599853
28.207666 -23.507604 51.146509
28.301424 -22.252297 51.889822
27.947411 -35.391622 55.954411
27.994488 -35.173811 54.75379
27.85575 -36.676626 56.377945
27.947411 -35.391622 55.954411
27.779088 -37.917938 56.852909
27.874415 -37.844194 55.626972
27.85575 -36.676626 56.377945
27.629848 -38.061979 57.984625
27.49477 -38.110508 59.070143
27.648511 -39.229548 57.233652
27.779088 -37.917938 56.852909
27.629848 -38.061979 57.984625
27.543769 -40.456688 57.581505
27.69301 -40.312646 56.449789
27.648511 -39.229548 57.233652
27.359145 -41.601881 58.031437
27.543769 -40.456688 57.581505
27.314647 -40.518782 58.8153
27.433633 -42.806778 57.162466
27.359145 -41.601881 58.031437
28.873804 -6.366715 39.963686
28.893961 -5.12697 40.606403
28.758987 -6.971597 40.88827
29.016607 -5.794432 39.104815
28.873804 -6.366715 39.963686
28.881634 -7.639059 39.38668
29.184069 -5.16974 38.25022
29.016607 -5.794432 39.104815
29.391379 -4.493106 37.3974
29.184069 -5.16974 38.25022
29.231746 -6.390142 37.674989
29.597372 -3.878805 36.62941
29.391379 -4.493106 37.3974
29.854998 -3.237019 35.807972
29.597372 -3.878805 36.62941
29.696682 -5.071723 36.000732
30.120708 -2.624811 35.007887
29.854998 -3.237019 35.807972
30.120708 -2.624811 35.007887
30.266157 -3.815764 34.347147
30.721581 -7.92036 32.298102
30.552132 -6.52812 33.016745
30.382555 -8.544712 33.119648
30.721581 -7.92036 32.298102
30.917659 -9.149746 31.600132
30.387575 -14.827471 32.063564
30.050842 -15.361903 32.952947
30.238424 -16.645117 32.234956
30.570992 -12.96401 31.881656
30.387575 -14.827471 32.063564
28.071217 -34.753185 52.214314
28.056413 -33.55055 53.063553
28.052703 -34.947374 53.506332
28.102797 -34.526314 51.017702
28.071217 -34.753185 52.214314
28.099086 -35.923137 51.460482
28.083716 -33.07889 50.540999
28.102797 -34.526314 51.017702
28.1848 -36.885372 49.435097
28.137349 -37.158899 50.64026
28.191484 -38.348005 49.811487
28.16044 -35.499008 49.026003
28.1848 -36.885372 49.435097
28.214574 -36.688114 48.19723
28.141359 -34.051584 48.5493
28.16044 -35.499008 49.026003
28.159019 -33.878925 47.381294
28.110164 -32.628759 48.142458
28.141359 -34.051584 48.5493
28.421822 -38.913052 45.415394
28.361991 -39.180823 46.645444
28.448304 -40.301142 45.838804
28.473415 -38.648899 44.22112
28.540156 -38.436752 42.994247
28.387102 -37.528579 45.027761
28.421822 -38.913052 45.415394
28.473415 -38.648899 44.22112
28.599485 -34.708285 40.106346
28.517164 -35.128756 41.297691
28.573318 -33.127685 39.838822
28.599485 -34.708285 40.106346
28.543336 -31.501209 39.538582
28.448865 -31.904514 40.644672
28.573318 -33.127685 39.838822
28.66274 -31.184669 38.428764
28.538288 -29.961498 39.234616
28.543336 -31.501209 39.538582
28.796068 -30.852055 37.34325
28.66274 -31.184669 38.428764
28.939994 -30.370989 36.365801
28.801619 -29.163892 37.147348
28.796068 -30.852055 37.34325
29.104427 -29.952365 35.358721
28.939994 -30.370989 36.365801
29.311729 -29.562133 34.316924
29.152847 -28.292595 35.128101
29.104427 -29.952365 35.358721
29.526111 -29.311132 33.27321
29.311729 -29.562133 34.316924
29.765127 -28.947551 32.317859
29.599165 -27.538781 33.130953
29.526111 -29.311132 33.27321
30.001579 -28.417825 31.390502
29.765127 -28.947551 32.317859
30.284992 -27.946988 30.444505
30.121595 -26.704363 31.229605
30.001579 -28.417825 31.390502
3 101 26 102
3 0 103 105
3 103 28 104
3 103 104 105
3 1 31 29
3 1 33 31
3 2 36 34
3 4 106 108
3 106 38 107
3 106 107 108
3 4 40 38
3 110 109 41
3 111 43 112
3 3 47 45
3 5 50 48
3 5 52 50
3 5 54 52
3 113 57 114
3 115 58 116
3 117 116 25
3 115 116 117
3 118 59 119
3 120 119 58
3 118 119 120
3 8 121 123
3 123 122 27
3 121 122 123
3 8 124 126
3 124 60 125
3 124 125 126
3 9 127 129
3 129 128 61
3 127 128 129
3 11 63 30
3 11 64 63
3 11 66 64
3 12 130 132
3 132 131 32
3 130 131 132
3 12 133 134
3 13 69 67
3 15 70 35
3 15 71 70
3 6 72 56
3 16 73 37
3 16 74 73
3 16 75 74
3 17 76 39
3 17 77 76
3 135 80 136
3 137 136 78
3 135 136 137
3 138 81 139
3 141 140 81
3 19 142 143
3 19 144 146
3 144 82 145
3 144 145 146
3 19 83 82
3 20 84 42
3 20 85 84
3 7 147 149
3 147 86 148
3 147 148 149
3 151 150 44
3 152 87 153
3 156 155 87
3 154 155 156
3 14 88 68
3 21 89 46
3 21 90 89
3 10 91 62
3 22 92 49
3 22 93 92
3 22 94 93
3 23 95 51
3 23 157 159
3 159 158 95
3 157 158 159
3 23 160 161
3 163 162 53
3 165 164 65
3 18 166 168
3 168 167 79
3 166 167 168
3 24 96 55
3 24 97 96
3 169 98 170
3 171 99 172
3 173 172 98
3 171 172 173
3 174 100 175
3 176 175 99
3 174 175 176
3 177 25 178
3 26 179 181
3 179 25 180
3 179 180 181
3 26 182 184
3 184 183 25
3 182 183 184
3 185 27 186
3 28 187 189
3 187 27 188
3 187 188 189
3 28 8 27
3 29 30 9
3 31 30 29
3 31 11 30
3 31 32 11
3 33 32 31
3 33 12 32
3 34 35 13
3 36 35 34
3 36 15 35
3 190 37 191
3 192 191 6
3 190 191 192
3 38 193 195
3 193 37 194
3 193 194 195
3 38 16 37
3 38 39 16
3 40 39 38
3 40 17 39
3 41 196 197
3 199 198 41
3 200 19 201
3 202 42 203
3 204 203 19
3 202 203 204
3 43 205 207
3 205 42 206
3 205 206 207
3 43 20 42
3 208 44 209
3 210 209 7
3 208 209 210
3 211 44 212
3 214 213 44
3 45 46 14
3 47 46 45
3 47 21 46
3 48 49 10
3 50 49 48
3 50 22 49
3 50 51 22
3 52 51 50
3 52 23 51
3 52 53 23
3 54 53 52
3 54 215 217
3 217 216 53
3 215 216 217
3 218 55 219
3 220 219 18
3 218 219 220
3 221 55 222
3 223 24 224
3 225 224 55
3 223 224 225
3 226 56 227
3 228 227 2
3 226 227 228
3 57 229 231
3 229 56 230
3 229 230 231
3 57 6 56
3 25 232 234
3 232 57 233
3 232 233 234
3 58 57 25
3 58 6 57
3 58 235 237
3 237 236 6
3 235 236 237
3 59 238 240
3 240 239 58
3 238 239 240
3 59 241 243
3 241 4 242
3 241 242 243
3 244 7 245
3 244 245 246
3 247 7 248
3 247 248 249
3 251 250 7
3 27 252 253
3 255 254 27
3 60 256 257
3 60 258 259
3 61 62 3
3 260 62 261
3 262 261 61
3 260 261 262
3 263 10 264
3 265 264 62
3 263 264 265
3 30 266 268
3 268 267 9
3 266 267 268
3 63 269 271
3 271 270 30
3 269 270 271
3 63 272 274
3 272 10 273
3 272 273 274
3 63 48 10
3 64 48 63
3 64 5 48
3 64 65 5
3 66 65 64
3 66 275 277
3 277 276 65
3 275 276 277
3 32 66 11
3 278 66 279
3 280 279 32
3 278 279 280
3 282 281 66
3 67 68 0
3 69 68 67
3 69 14 68
3 35 69 13
3 70 69 35
3 70 14 69
3 70 45 14
3 71 45 70
3 71 3 45
3 56 36 2
3 72 36 56
3 72 15 36
3 37 72 6
3 73 72 37
3 73 15 72
3 73 71 15
3 74 71 73
3 74 3 71
3 74 61 3
3 75 61 74
3 75 9 61
3 39 75 16
3 76 75 39
3 76 9 75
3 76 29 9
3 77 29 76
3 77 1 29
3 78 283 285
3 283 79 284
3 283 284 285
3 80 79 78
3 80 18 79
3 286 80 287
3 81 288 290
3 288 80 289
3 288 289 290
3 81 18 80
3 81 291 293
3 293 292 18
3 291 292 293
3 295 294 81
3 296 0 297
3 82 298 299
3 82 300 302
3 300 0 301
3 300 301 302
3 82 67 0
3 83 67 82
3 83 13 67
3 42 83 19
3 84 83 42
3 84 13 83
3 84 34 13
3 85 34 84
3 85 2 34
3 303 43 304
3 303 304 305
3 86 306 308
3 306 43 307
3 306 307 308
3 86 20 43
3 44 86 7
3 309 86 310
3 311 310 44
3 309 310 311
3 312 20 313
3 314 313 86
3 312 313 314
3 315 85 316
3 317 316 20
3 315 316 317
3 318 85 319
3 320 2 321
3 322 321 85
3 320 321 322
3 324 323 2
3 325 78 326
3 327 78 328
3 331 330 78
3 329 330 331
3 87 332 333
3 87 334 336
3 334 335 336
3 87 337 339
3 337 41 338
3 337 338 339
3 340 41 341
3 342 341 87
3 340 341 342
3 344 343 41
3 68 28 0
3 88 28 68
3 88 8 28
3 46 88 14
3 89 88 46
3 89 8 88
3 89 60 8
3 90 60 89
3 90 345 347
3 347 346 60
3 345 346 347
3 62 47 3
3 91 47 62
3 91 21 47
3 49 91 10
3 92 91 49
3 92 21 91
3 92 90 21
3 93 90 92
3 93 348 350
3 350 349 90
3 348 349 350
3 93 351 352
3 94 353 355
3 355 354 93
3 353 354 355
3 94 356 357
3 51 94 22
3 95 94 51
3 95 358 360
3 360 359 94
3 358 359 360
3 95 361 362
3 364 363 95
3 53 365 367
3 367 366 23
3 365 366 367
3 369 368 53
3 65 54 5
3 370 54 371
3 372 371 65
3 370 371 372
3 374 373 54
3 79 375 377
3 375 26 376
3 375 376 377
3 378 26 379
3 380 379 79
3 378 379 380
3 382 381 26
3 55 383 385
3 385 384 18
3 383 384 385
3 96 386 388
3 388 387 55
3 386 387 388
3 96 389 390
3 96 391 393
3 391 59 392
3 391 392 393
3 97 59 96
3 97 4 59
3 394 24 395
3 394 395 396
3 98 397 398
3 98 399 401
3 399 24 400
3 399 400 401
3 98 97 24
3 99 97 98
3 99 4 97
3 99 40 4
3 100 40 99
3 100 17 40
3 402 100 403
3 404 100 405
3 406 17 407
3 408 407 100
3 406 407 408
3 409 77 410
3 411 410 17
3 409 410 411
3 412 77 413
3 414 1 415
3 416 415 77
3 414 415 416
3 417 1 418
3 419 33 420
3 421 420 1
3 419 420 421
3 422 33 423
3 424 12 425
3 426 425 33
3 424 425 426
3 427 12 428
3 431 430 12
3 429 430 431
