ply
format ascii 1.0
element vertex 236
property float x
property float y
property float z
element face 225
property list uchar int vertex_index
end_header
-19.253696 -99.389374 3.303454
-21.346092 -91.557503 14.151481
-14.265622 -93.330376 13.217782
-10.867319 -99.412415 2.218378
-17.526117 -102.651947 -2.017383
-16.802374 -96.689102 8.392347
-12.845732 -96.710205 7.519037
-15.257839 -99.994003 2.843173
-13.256799 -102.783119 -2.590271
-20.405722 -95.464699 9.049294
-13.922832 -86.296234 23.380836
-15.866362 -89.941818 18.648777
-18.209824 -93.119141 13.787756
-10.416962 -92.73909 12.295582
-8.451479 -95.627571 6.768939
-18.421757 -101.107574 0.619922
-18.068645 -98.076263 5.959574
-16.107285 -98.432518 5.547693
-17.366598 -99.895325 3.032289
-16.463102 -101.422974 0.432492
-20.887318 -93.562309 11.596823
-14.90249 -88.09285 21.144352
-16.635166 -88.180496 21.341049
-20.326599 -90.515213 16.693224
-18.721285 -91.181709 16.585331
-19.834019 -92.440857 14.131624
-19.333769 -94.340057 11.485061
-13.292128 -91.482697 15.610081
-11.266647 -91.163475 15.076377
-12.319373 -93.101738 12.786457
-11.87146 -98.086983 4.893762
-10.654531 -96.356224 7.003964
-9.472711 -97.581863 4.381485
-7.274163 -96.853302 4.039747
-8.460331 -98.782593 1.766624
-9.812329 -100.638283 -0.472933
-21.814177 -89.513878 16.649969
-18.481009 -87.922211 21.549595
-16.549519 -104.078293 -4.751107
-18.676989 -103.572578 -4.404124
-15.542757 -95.071686 10.860429
-13.513172 -95.046448 10.359493
-14.845695 -96.744392 8.110745
-14.101925 -98.349197 5.331278
-13.101516 -99.784233 2.631133
-12.150612 -101.201057 -0.17686
-14.404581 -101.38829 0.272241
-15.442706 -102.791069 -2.124578
-19.781507 -97.453331 6.274178
-21.338173 -96.639465 6.319758
-13.962584 -89.732574 18.43482
-15.146972 -91.68557 15.919973
-17.628981 -89.738739 19.007435
-17.020414 -91.70591 16.100983
-16.302433 -93.374771 13.547482
-17.518616 -94.960518 11.064866
-18.745066 -96.209717 8.792126
-8.217362 -92.011131 11.943481
-11.496668 -94.854721 9.753918
-9.409108 -94.215248 9.506427
-10.999816 -102.451408 -2.995399
-19.748536 -99.904873 2.066619
-19.332566 -100.763973 0.724853
-18.837727 -100.248474 1.961688
-21.788046 -92.09198 12.786067
-21.558659 -93.094383 11.508738
-21.116705 -92.559906 12.874152
-17.076633 -87.345661 22.574419
-16.244628 -87.313102 22.55941
-22.422443 -88.922379 16.501354
-22.069234 -88.507313 17.794366
-22.069234 -88.507313 17.794366
-21.379225 -89.059403 17.842326
-13.498555 -85.270531 24.628074
-13.994687 -84.415832 26.032269
-14.418964 -85.441536 24.785031
-12.956079 -86.093464 23.184869
-13.498555 -85.270531 24.628074
-13.436469 -87.120838 21.981037
-12.956079 -86.093464 23.184869
-18.478313 -89.541008 19.053562
-18.054995 -88.830475 20.278515
-18.904328 -88.632744 20.324642
-9.852763 -91.674481 13.477165
-10.277605 -90.886673 14.867563
-10.841805 -91.951283 13.68598
-9.317162 -92.375111 12.119532
-8.752963 -91.310501 13.301115
-9.852763 -91.674481 13.477165
-7.820467 -94.545895 7.94751
-8.299281 -93.839733 9.316254
-8.930294 -94.92141 8.137683
-7.37072 -95.228264 6.607377
-7.820467 -94.545895 7.94751
-6.13567 -96.382072 3.89315
-6.693255 -97.402512 2.698932
-18.98804 -101.585556 -0.590599
-18.54022 -102.357743 -1.909252
-17.973937 -101.879761 -0.698731
-18.98804 -101.585556 -0.590599
-19.332566 -100.763973 0.724853
-21.419232 -94.094345 10.190653
-21.178435 -95.04554 8.916888
-20.64652 -94.513504 10.323059
-21.419232 -94.094345 10.190653
-21.558659 -93.094383 11.508738
-14.888461 -86.370971 23.579304
-14.418964 -85.441536 24.785031
-15.37829 -87.269279 22.461061
-14.412661 -87.194542 22.262594
-14.888461 -86.370971 23.579304
-15.768828 -88.136673 21.242701
-15.37829 -87.269279 22.461061
-16.244628 -87.313102 22.55941
-19.523942 -90.848461 16.639277
-19.024466 -90.262493 17.84251
-19.827123 -89.929245 17.896456
-12.279388 -91.323086 15.343229
-11.647929 -90.401127 16.382531
-12.66067 -90.560738 16.649383
-7.286339 -98.367157 1.562371
-6.693255 -97.402512 2.698932
-7.867247 -97.817948 2.903186
-7.927307 -99.31382 0.475353
-7.286339 -98.367157 1.562371
-8.603306 -100.241665 -0.644426
-7.927307 -99.31382 0.475353
-9.13633 -99.710438 0.646845
-9.265876 -101.189606 -1.824826
-8.603306 -100.241665 -0.644426
-12.761527 -103.388035 -3.960218
-13.865828 -103.474495 -3.786969
-22.216546 -89.994552 15.317009
-21.982504 -91.016365 14.067764
-21.580134 -90.535691 15.400725
-22.216546 -89.994552 15.317009
-22.422443 -88.922379 16.501354
-18.808689 -87.010776 22.80319
-17.999554 -87.216519 22.678692
-19.287194 -87.655934 21.574416
-18.808689 -87.010776 22.80319
-18.904328 -88.632744 20.324642
-19.287194 -87.655934 21.574416
-20.635436 -89.56007 17.863954
-19.827123 -89.929245 17.896456
-21.070388 -90.014545 16.671596
-20.635436 -89.56007 17.863954
-21.379225 -89.059403 17.842326
-17.033766 -104.539715 -5.977962
-16.006287 -104.665825 -6.045585
-18.097501 -104.286857 -5.80447
-17.033766 -104.539715 -5.977962
-17.613254 -103.825435 -4.577616
-19.017944 -103.994678 -5.727059
-18.097501 -104.286857 -5.80447
-19.115656 -102.818058 -3.102622
-18.101553 -103.112262 -3.210754
-18.54022 -102.357743 -1.909252
-19.561099 -103.249031 -4.438443
-19.115656 -102.818058 -3.102622
-19.902055 -103.671132 -5.761378
-19.017944 -103.994678 -5.727059
-19.561099 -103.249031 -4.438443
-14.958782 -103.47847 -3.554123
-13.865828 -103.474495 -3.786969
-14.349753 -102.787094 -2.357425
-15.512189 -104.122082 -4.867387
-14.958782 -103.47847 -3.554123
-15.996112 -103.434681 -3.437843
-16.006287 -104.665825 -6.045585
-15.512189 -104.122082 -4.867387
-20.355708 -97.993725 4.92101
-20.091803 -98.961747 3.435648
-19.517602 -98.421353 4.788816
-21.134041 -97.586792 4.9438
-20.355708 -97.993725 4.92101
-20.55984 -97.046398 6.296968
-21.859493 -97.00069 5.058941
-21.134041 -97.586792 4.9438
-21.64466 -95.632923 7.55212
-20.871948 -96.052082 7.684526
-21.178435 -95.04554 8.916888
-22.086717 -95.995399 6.326059
-21.64466 -95.632923 7.55212
-22.608038 -96.356625 5.065241
-21.859493 -97.00069 5.058941
-22.086717 -95.995399 6.326059
-21.788046 -92.09198 12.786067
-21.982504 -91.016365 14.067764
-13.926298 -88.019146 20.862795
-13.436469 -87.120838 21.981037
-14.412661 -87.194542 22.262594
-13.456345 -88.839008 19.508029
-13.926298 -88.019146 20.862795
-14.432537 -88.912712 19.789586
-12.995897 -89.685676 18.061753
-13.456345 -88.839008 19.508029
-13.627356 -90.607636 17.02245
-12.66067 -90.560738 16.649383
-12.995897 -89.685676 18.061753
-17.558087 -88.051354 21.445322
-17.076633 -87.345661 22.574419
-17.999554 -87.216519 22.678692
-18.175133 -90.460224 17.796383
-18.478313 -89.541008 19.053562
-19.024466 -90.262493 17.84251
-19.748536 -99.904873 2.066619
-20.091803 -98.961747 3.435648
-10.673525 -90.120945 16.207756
-11.647929 -90.401127 16.382531
-10.673525 -90.120945 16.207756
-10.277605 -90.886673 14.867563
-7.65249 -90.887409 13.137879
-8.752963 -91.310501 13.301115
-7.167068 -91.608196 11.776858
-7.65249 -90.887409 13.137879
-7.703408 -92.737674 10.534781
-8.813235 -93.11319 10.724954
-8.299281 -93.839733 9.316254
-7.167068 -91.608196 11.776858
-7.703408 -92.737674 10.534781
-6.782062 -95.841129 5.242781
-7.37072 -95.228264 6.607377
-7.862821 -96.240437 5.404343
-6.782062 -95.841129 5.242781
-6.13567 -96.382072 3.89315
-9.85962 -102.096169 -3.08606
-9.265876 -101.189606 -1.824826
-10.406073 -101.544846 -1.734166
-11.633036 -103.222179 -4.162782
-12.128308 -102.617264 -2.792835
-12.761527 -103.388035 -3.960218
-10.421556 -102.937007 -4.284359
-11.633036 -103.222179 -4.162782
-9.85962 -102.096169 -3.08606
-10.421556 -102.937007 -4.284359
3 0 61 63
3 63 62 15
3 61 62 63
3 0 18 16
3 0 15 18
3 1 64 66
3 66 65 20
3 64 65 66
3 67 22 68
3 1 25 23
3 1 20 25
3 2 29 27
3 3 32 30
3 3 34 32
3 3 35 34
3 70 69 36
3 71 36 72
3 4 39 38
3 5 42 40
3 7 43 17
3 7 44 43
3 7 46 44
3 4 47 19
3 4 38 47
3 9 49 48
3 10 73 75
3 73 74 75
3 10 76 77
3 10 78 79
3 11 50 21
3 11 51 50
3 80 52 81
3 82 81 37
3 80 81 82
3 12 53 24
3 12 54 53
3 12 55 54
3 9 56 26
3 9 48 56
3 13 83 85
3 85 84 28
3 83 84 85
3 13 86 88
3 86 57 87
3 86 87 88
3 6 58 41
3 14 59 31
3 14 89 91
3 91 90 59
3 89 90 91
3 14 92 93
3 95 94 33
3 8 60 45
3 15 96 98
3 98 97 4
3 96 97 98
3 100 99 15
3 16 17 5
3 18 17 16
3 18 7 17
3 18 19 7
3 15 19 18
3 15 4 19
3 20 101 103
3 103 102 9
3 101 102 103
3 105 104 20
3 106 10 107
3 108 21 109
3 110 109 10
3 108 109 110
3 22 111 113
3 111 21 112
3 111 112 113
3 22 11 21
3 23 114 116
3 114 24 115
3 114 115 116
3 25 24 23
3 25 12 24
3 25 26 12
3 20 26 25
3 20 9 26
3 27 117 119
3 117 28 118
3 117 118 119
3 29 28 27
3 29 13 28
3 30 31 6
3 32 31 30
3 32 14 31
3 32 33 14
3 34 33 32
3 34 120 122
3 122 121 33
3 120 121 122
3 34 123 124
3 35 125 127
3 127 126 34
3 125 126 127
3 35 128 129
3 131 130 8
3 36 132 134
3 134 133 1
3 132 133 134
3 136 135 36
3 137 37 138
3 139 37 140
3 142 141 37
3 143 23 144
3 36 145 147
3 145 23 146
3 145 146 147
3 36 1 23
3 38 148 149
3 39 150 152
3 152 151 38
3 150 151 152
3 39 153 154
3 155 39 156
3 157 156 4
3 155 156 157
3 158 39 159
3 162 161 39
3 160 161 162
3 40 41 2
3 42 41 40
3 42 6 41
3 17 42 5
3 43 42 17
3 43 6 42
3 43 30 6
3 44 30 43
3 44 3 30
3 44 45 3
3 46 45 44
3 46 8 45
3 19 46 7
3 47 46 19
3 47 8 46
3 47 163 165
3 165 164 8
3 163 164 165
3 38 166 168
3 168 167 47
3 166 167 168
3 38 169 170
3 48 171 173
3 173 172 0
3 171 172 173
3 49 174 176
3 176 175 48
3 174 175 176
3 49 177 178
3 179 49 180
3 181 180 9
3 179 180 181
3 182 49 183
3 186 185 49
3 184 185 186
3 188 187 1
3 21 189 191
3 191 190 10
3 189 190 191
3 50 192 194
3 194 193 21
3 192 193 194
3 50 195 196
3 50 197 199
3 197 27 198
3 197 198 199
3 51 27 50
3 51 2 27
3 37 200 202
3 200 22 201
3 200 201 202
3 52 22 37
3 52 11 22
3 24 203 205
3 203 52 204
3 203 204 205
3 53 52 24
3 53 11 52
3 53 51 11
3 54 51 53
3 54 2 51
3 54 40 2
3 55 40 54
3 55 5 40
3 26 55 12
3 56 55 26
3 56 5 55
3 56 16 5
3 48 16 56
3 48 0 16
3 207 206 0
3 28 208 209
3 211 210 28
3 57 212 213
3 57 214 215
3 41 29 2
3 58 29 41
3 58 13 29
3 31 58 6
3 59 58 31
3 59 13 58
3 59 57 13
3 216 57 217
3 218 217 59
3 216 217 218
3 220 219 57
3 33 221 223
3 223 222 14
3 221 222 223
3 225 224 33
3 45 35 3
3 60 35 45
3 60 226 228
3 228 227 35
3 226 227 228
3 229 60 230
3 231 230 8
3 229 230 231
3 232 60 233
3 235 234 60
