ply
format ascii 1.0
element vertex 306
property float x
property float y
property float z
element face 261
property list uchar int vertex_index
end_header
33.814747 -53.44556 -31.289806
32.113583 -52.85273 -39.548855
35.547741 -37.839806 -46.011456
24.8403 -29.120569 -57.009975
35.800137 -47.716244 -30.580038
35.92836 -47.055702 -34.905865
33.972427 -45.630245 -42.836975
31.950472 -44.540043 -46.210323
33.436302 -36.449947 -49.348881
33.204552 -53.543365 -35.559166
35.270535 -46.513367 -39.087589
36.83567 -39.206902 -42.446362
28.707493 -23.474199 -58.148159
33.875134 -53.294289 -29.137644
34.762749 -50.665962 -28.673958
34.937756 -50.459248 -30.915874
35.920895 -47.460602 -32.799686
34.867279 -50.468887 -33.101627
30.044765 -47.461239 -46.259705
36.210957 -45.016472 -28.075075
37.67157 -40.824638 -36.234497
32.668713 -53.413391 -37.57449
34.277332 -50.089268 -37.394257
33.75457 -49.838402 -39.248631
34.698872 -42.052441 -44.408627
35.478233 -42.485828 -42.677288
36.236477 -38.587696 -44.297421
35.992432 -34.008961 -47.744385
33.975307 -32.134979 -51.063679
32.778732 -31.031019 -52.596134
31.332939 -29.892118 -54.095356
28.379372 -27.481709 -56.598316
26.784445 -26.289219 -57.654633
25.405973 -24.779827 -58.650532
35.597969 -47.762669 -28.443401
36.555649 -44.727947 -30.179819
36.800751 -44.383057 -32.327553
36.835262 -44.274315 -34.409672
36.815907 -43.716702 -36.627182
33.086769 -49.243927 -41.248978
32.193409 -48.775024 -43.048676
32.99527 -45.163841 -44.604057
33.869907 -41.162849 -46.160355
34.52541 -37.139961 -47.81456
32.765583 -40.539299 -47.751808
32.717377 -56.196228 -29.55125
32.465481 -56.49876 -31.785063
33.646889 -53.437988 -33.377525
34.692402 -50.218502 -35.32933
35.637718 -46.967823 -37.01186
36.566429 -43.428593 -38.566628
34.667152 -46.217312 -40.98391
36.129211 -42.935974 -40.690201
37.285656 -39.937473 -40.295113
35.063446 -33.038177 -49.474491
29.870333 -28.858303 -55.350533
23.7742 -23.605106 -59.45351
28.896745 -49.147741 -46.228926
29.508502 -49.465889 -45.538298
29.304104 -47.234656 -46.957638
28.896745 -49.147741 -46.228926
36.409071 -43.753204 -27.824326
36.661032 -43.428665 -28.943795
38.02154 -39.124764 -36.990106
37.638995 -40.534353 -37.265535
31.519658 -54.633488 -38.780187
31.103305 -54.600499 -39.632716
32.391148 -53.13306 -38.561673
31.797223 -54.913818 -37.793005
31.519658 -54.633488 -38.780187
36.228108 -36.234261 -45.923929
36.572475 -36.608206 -45.066912
35.892109 -38.213751 -45.154438
35.770087 -35.924384 -46.877921
36.450453 -34.318838 -46.790394
36.228108 -36.234261 -45.923929
31.835394 -32.627133 -52.497858
32.505901 -33.140613 -51.789812
31.112498 -32.057683 -53.247469
32.055836 -30.461568 -53.345745
31.835394 -32.627133 -52.497858
25.607625 -29.823671 -56.518919
24.536875 -31.371192 -56.179199
25.812373 -27.704894 -57.332304
26.579697 -28.407996 -56.841248
25.607625 -29.823671 -56.518919
31.142426 -50.528233 -43.081066
31.67631 -50.749434 -42.19623
32.472871 -44.851942 -45.40719
32.023717 -46.871389 -44.594645
31.501318 -46.55949 -45.397778
32.101901 -57.583446 -28.602797
32.710606 -56.137816 -28.397623
31.689813 -58.051904 -31.943488
31.851611 -57.954729 -30.851468
32.693139 -54.996876 -34.730654
32.369941 -55.138258 -35.743187
33.42572 -53.490676 -34.468345
32.914307 -54.944187 -33.639833
32.693139 -54.996876 -34.730654
37.387554 -37.7323 -42.182353
37.612547 -38.097585 -41.106728
37.060663 -39.572187 -41.370738
34.74681 -30.528782 -51.071321
34.178754 -29.957107 -51.927341
28.934915 -30.315534 -55.143157
29.665465 -31.049343 -54.498291
29.52204 -23.994837 -57.560805
29.35798 -25.998593 -56.785883
28.543433 -25.477954 -57.373238
29.602773 -21.916056 -58.385818
29.52204 -23.994837 -57.560805
28.801535 -21.359545 -58.980779
29.602773 -21.916056 -58.385818
22.780538 -24.931665 -59.042564
23.551219 -25.794798 -58.60526
34.318942 -51.980125 -28.905801
34.207668 -52.058977 -27.731599
33.763861 -53.37314 -27.963442
30.548465 -48.020088 -45.422468
29.508502 -49.465889 -45.538298
30.997619 -46.000641 -46.235014
31.501318 -46.55949 -45.397778
30.548465 -48.020088 -45.422468
30.402227 -45.542059 -47.037699
31.35508 -44.081461 -47.013008
30.997619 -46.000641 -46.235014
29.661566 -45.315475 -47.735632
30.402227 -45.542059 -47.037699
29.304104 -47.234656 -46.957638
36.004711 -45.096075 -27.025144
35.736977 -46.416933 -27.158989
36.004711 -45.096075 -27.025144
36.409071 -43.753204 -27.824326
37.992369 -39.445458 -35.980749
37.643813 -41.035166 -35.212761
37.992369 -39.445458 -35.980749
38.02154 -39.124764 -36.990106
32.102021 -55.07327 -36.750849
31.797223 -54.913818 -37.793005
32.936633 -53.478378 -36.566828
32.369941 -55.138258 -35.743187
32.102021 -55.07327 -36.750849
36.882788 -36.980131 -44.112256
37.182384 -37.289734 -43.186726
36.536074 -38.897299 -43.371892
36.882788 -36.980131 -44.112256
36.572475 -36.608206 -45.066912
36.67743 -32.395054 -47.594826
36.450453 -34.318838 -46.790394
36.252861 -31.935823 -48.542488
36.67743 -32.395054 -47.594826
33.104188 -33.692593 -51.023584
33.705804 -34.292463 -50.20628
32.834686 -35.850077 -50.166185
33.37702 -31.582999 -51.829906
33.104188 -33.692593 -51.023584
32.505901 -33.140613 -51.789812
33.580467 -29.405127 -52.693569
34.178754 -29.957107 -51.927341
33.37702 -31.582999 -51.829906
32.951259 -29.039998 -53.381382
33.580467 -29.405127 -52.693569
32.228363 -28.470548 -54.130993
32.951259 -29.039998 -53.381382
32.055836 -30.461568 -53.345745
31.536748 -27.907222 -54.844282
32.228363 -28.470548 -54.130993
27.377161 -29.004241 -56.31309
28.189435 -29.627237 -55.767048
27.581909 -26.885464 -57.126475
27.377161 -29.004241 -56.31309
26.579697 -28.407996 -56.841248
26.971526 -24.110218 -58.498337
27.93305 -22.702708 -58.7451
27.745969 -24.881709 -57.901396
26.28229 -23.355522 -58.996286
26.971526 -24.110218 -58.498337
26.095209 -25.534523 -58.152582
25.519325 -22.666677 -59.48822
26.28229 -23.355522 -58.996286
34.694981 -50.522064 -27.651158
34.207668 -52.058977 -27.731599
35.112591 -49.070418 -27.535879
34.694981 -50.522064 -27.651158
35.180359 -49.214315 -28.55868
35.430483 -47.790031 -27.343152
35.112591 -49.070418 -27.535879
35.904463 -46.389571 -28.259238
35.736977 -46.416933 -27.158989
35.430483 -47.790031 -27.343152
36.833378 -43.284402 -29.996167
36.661032 -43.428665 -28.943795
36.383303 -44.872209 -29.127447
36.995844 -43.140511 -31.111854
36.833378 -43.284402 -29.996167
37.118395 -42.968066 -32.185721
36.995844 -43.140511 -31.111854
36.6782 -44.555502 -31.253686
37.208403 -42.814375 -33.259289
37.118395 -42.968066 -32.185721
37.225659 -42.760004 -34.300348
37.208403 -42.814375 -33.259289
36.818006 -44.328686 -33.368612
37.253416 -42.549476 -35.322085
37.643813 -41.035166 -35.212761
37.225659 -42.760004 -34.300348
37.211163 -41.980385 -37.461878
37.638995 -40.534353 -37.265535
37.243739 -42.27067 -36.430839
31.636398 -52.788286 -40.44632
31.103305 -54.600499 -39.632716
32.122991 -50.983885 -41.296381
32.600176 -51.048328 -40.398916
31.636398 -52.788286 -40.44632
32.640089 -49.009476 -42.148827
32.122991 -50.983885 -41.296381
31.67631 -50.749434 -42.19623
31.622787 -48.676981 -43.816954
31.142426 -50.528233 -43.081066
32.59434 -46.969432 -43.826366
31.622787 -48.676981 -43.816954
32.023717 -46.871389 -44.594645
31.762636 -42.081089 -47.78375
32.358027 -42.539671 -46.981065
31.35508 -44.081461 -47.013008
32.190741 -39.991855 -48.551212
31.762636 -42.081089 -47.78375
32.5261 -37.94718 -49.349749
33.100943 -38.494623 -48.550344
32.190741 -39.991855 -48.551212
32.834686 -35.850077 -50.166185
32.5261 -37.94718 -49.349749
23.814265 -30.578757 -56.627251
24.536875 -31.371192 -56.179199
24.084269 -28.552529 -57.383493
23.814265 -30.578757 -56.627251
33.289485 -54.686846 -28.19082
33.763861 -53.37314 -27.963442
33.296256 -54.745258 -29.344447
33.289485 -54.686846 -28.19082
32.710606 -56.137816 -28.397623
31.977559 -57.803463 -29.734561
32.101901 -57.583446 -28.602797
32.591429 -56.347494 -30.668157
31.977559 -57.803463 -29.734561
31.851611 -57.954729 -30.851468
32.323603 -56.474573 -32.843603
31.689813 -58.051904 -31.943488
33.056185 -54.968374 -32.581294
32.323603 -56.474573 -32.843603
32.914307 -54.944187 -33.639833
37.086424 -41.836331 -38.431601
37.211163 -41.980385 -37.461878
36.691168 -43.572648 -37.596905
37.446038 -40.09077 -39.295844
37.086424 -41.836331 -38.431601
36.926043 -41.683033 -39.43087
37.746557 -38.476356 -40.067341
37.446038 -40.09077 -39.295844
37.746557 -38.476356 -40.067341
37.612547 -38.097585 -41.106728
37.387554 -37.7323 -42.182353
37.182384 -37.289734 -43.186726
35.788368 -31.45043 -49.407541
36.252861 -31.935823 -48.542488
35.527939 -33.523569 -48.609438
35.29088 -30.980382 -50.276727
34.519376 -32.586578 -50.269085
34.74681 -30.528782 -51.071321
35.788368 -31.45043 -49.407541
35.29088 -30.980382 -50.276727
30.396769 -31.566251 -53.870703
31.112498 -32.057683 -53.247469
30.601636 -29.375211 -54.722944
30.396769 -31.566251 -53.870703
29.665465 -31.049343 -54.498291
30.805445 -27.390315 -55.47187
31.536748 -27.907222 -54.844282
30.601636 -29.375211 -54.722944
29.124852 -28.170006 -55.974424
28.934915 -30.315534 -55.143157
28.189435 -29.627237 -55.767048
30.10346 -26.686889 -56.161991
29.124852 -28.170006 -55.974424
29.35798 -25.998593 -56.785883
30.805445 -27.390315 -55.47187
30.10346 -26.686889 -56.161991
28.801535 -21.359545 -58.980779
27.93305 -22.702708 -58.7451
24.367106 -26.382158 -58.203772
25.123137 -26.950198 -57.830253
24.084269 -28.552529 -57.383493
24.590086 -24.192467 -59.052021
24.367106 -26.382158 -58.203772
23.551219 -25.794798 -58.60526
24.703439 -22.079316 -59.88971
25.519325 -22.666677 -59.48822
24.590086 -24.192467 -59.052021
22.984765 -22.785181 -59.886839
22.780538 -24.931665 -59.042564
21.991104 -24.11174 -59.475893
23.935456 -21.430385 -60.31068
22.984765 -22.785181 -59.886839
24.703439 -22.079316 -59.88971
23.935456 -21.430385 -60.31068
3 0 15 13
3 0 17 15
3 57 18 58
3 60 59 18
3 62 61 19
3 64 63 20
3 1 65 66
3 1 67 69
3 67 21 68
3 67 68 69
3 1 23 21
3 2 26 24
3 2 70 72
3 72 71 26
3 70 71 72
3 2 73 75
3 73 27 74
3 73 74 75
3 76 29 77
3 78 30 79
3 80 79 29
3 78 79 80
3 3 81 82
3 3 83 85
3 83 32 84
3 83 84 85
3 3 33 32
3 4 34 14
3 4 35 34
3 4 36 35
3 5 37 16
3 5 38 37
3 86 40 87
3 7 88 90
3 88 41 89
3 88 89 90
3 7 42 41
3 7 44 42
3 91 45 92
3 93 46 94
3 9 95 96
3 9 97 99
3 97 47 98
3 97 98 99
3 9 48 47
3 10 49 22
3 10 50 49
3 6 51 39
3 11 52 25
3 11 53 52
3 11 100 102
3 102 101 53
3 100 101 102
3 8 54 43
3 104 103 28
3 105 55 106
3 12 107 109
3 109 108 31
3 107 108 109
3 12 110 111
3 12 112 113
3 114 56 115
3 13 116 118
3 116 14 117
3 116 117 118
3 15 14 13
3 15 4 14
3 15 16 4
3 17 16 15
3 17 5 16
3 18 119 120
3 18 121 123
3 121 7 122
3 121 122 123
3 18 124 126
3 126 125 7
3 124 125 126
3 129 128 18
3 127 128 129
3 19 130 131
3 133 132 19
3 20 134 135
3 137 136 20
3 21 138 139
3 21 140 142
3 140 9 141
3 140 141 142
3 21 22 9
3 23 22 21
3 23 10 22
3 24 25 6
3 26 25 24
3 26 11 25
3 26 143 145
3 145 144 11
3 143 144 145
3 147 146 26
3 27 148 149
3 27 150 151
3 152 28 153
3 154 153 8
3 152 153 154
3 29 155 157
3 155 28 156
3 155 156 157
3 29 158 160
3 160 159 28
3 158 159 160
3 29 161 162
3 30 163 165
3 165 164 29
3 163 164 165
3 30 166 167
3 168 31 169
3 32 170 172
3 170 31 171
3 170 171 172
3 32 12 31
3 32 173 175
3 175 174 12
3 173 174 175
3 33 176 178
3 178 177 32
3 176 177 178
3 33 179 180
3 14 181 182
3 34 183 185
3 185 184 14
3 183 184 185
3 34 186 187
3 34 188 190
3 188 19 189
3 188 189 190
3 35 19 34
3 35 191 193
3 193 192 19
3 191 192 193
3 35 194 195
3 36 196 198
3 198 197 35
3 196 197 198
3 36 199 200
3 16 36 4
3 37 36 16
3 37 201 203
3 203 202 36
3 201 202 203
3 37 204 206
3 204 20 205
3 204 205 206
3 38 20 37
3 38 207 209
3 209 208 20
3 207 208 209
3 210 1 211
3 212 39 213
3 214 213 1
3 212 213 214
3 40 215 217
3 215 39 216
3 215 216 217
3 40 6 39
3 218 40 219
3 41 220 222
3 220 40 221
3 220 221 222
3 41 6 40
3 41 24 6
3 42 24 41
3 42 2 24
3 42 43 2
3 44 43 42
3 44 8 43
3 223 44 224
3 225 224 7
3 223 224 225
3 226 44 227
3 228 8 229
3 230 229 44
3 228 229 230
3 232 231 8
3 233 3 234
3 236 235 3
3 237 13 238
3 45 239 241
3 239 13 240
3 239 240 241
3 45 0 13
3 242 45 243
3 46 244 246
3 244 45 245
3 244 245 246
3 46 0 45
3 247 46 248
3 47 249 251
3 249 46 250
3 249 250 251
3 47 0 46
3 47 17 0
3 48 17 47
3 48 5 17
3 22 48 9
3 49 48 22
3 49 5 48
3 49 38 5
3 50 38 49
3 50 252 254
3 254 253 38
3 252 253 254
3 39 23 1
3 51 23 39
3 51 10 23
3 25 51 6
3 52 51 25
3 52 10 51
3 52 50 10
3 53 50 52
3 53 255 257
3 257 256 50
3 255 256 257
3 53 258 259
3 261 260 53
3 263 262 11
3 43 27 2
3 54 27 43
3 54 264 266
3 266 265 27
3 264 265 266
3 28 54 8
3 267 54 268
3 269 268 28
3 267 268 269
3 271 270 54
3 272 30 273
3 55 274 276
3 274 30 275
3 274 275 276
3 55 277 279
3 279 278 30
3 277 278 279
3 31 280 282
3 280 55 281
3 280 281 282
3 283 55 284
3 285 284 31
3 283 284 285
3 287 286 55
3 289 288 12
3 290 33 291
3 292 291 3
3 290 291 292
3 56 293 295
3 293 33 294
3 293 294 295
3 56 296 298
3 298 297 33
3 296 297 298
3 299 56 300
3 299 300 301
3 302 56 303
3 305 304 56
