ply
format ascii 1.0
element vertex 166
property float x
property float y
property float z
element face 118
property list uchar int vertex_index
end_header
-22.979025 26.330202 -46.457176
-11.662385 37.875607 -48.197468
-21.283123 29.123161 -51.259705
-24.901787 26.412086 -51.858982
-19.582142 29.372225 -46.121399
-7.974351 40.239117 -50.975651
-6.601257 40.393776 -52.200508
-20.237146 30.276564 -53.75568
-21.963499 29.052063 -54.040504
-18.659056 29.580902 -43.520718
-22.235195 27.778261 -48.901733
-23.992796 26.434523 -49.266933
-23.155521 27.735691 -51.623295
-22.630331 22.953129 -38.748615
-22.331062 24.571241 -41.106846
-21.901876 26.235067 -43.722687
-20.174253 27.915201 -43.519901
-21.240883 27.792826 -46.144302
-12.722005 37.019463 -46.477886
-25.762539 24.970205 -49.233505
-7.348762 41.115609 -50.604489
-8.002721 40.992205 -49.882183
-6.662215 41.192938 -51.216917
-7.287804 40.316446 -51.588079
-7.348762 41.115609 -50.604489
-20.495094 30.173388 -55.126791
-19.608024 30.756115 -54.859947
-23.825283 25.636371 -46.56015
-23.300795 25.501722 -45.175417
-22.86042 28.396543 -54.121977
-22.291432 28.92007 -55.372318
-21.972296 22.966864 -37.523958
-22.707422 22.048169 -37.458002
-21.566632 25.422469 -41.172012
-21.66153 24.648271 -39.85116
-21.352039 26.254382 -42.479933
-22.116469 25.403154 -42.414766
-21.566632 25.422469 -41.172012
-20.033015 29.288244 -47.384372
-20.862385 28.498545 -47.395824
-20.411513 28.582526 -46.132851
-12.192195 37.447535 -47.337677
-12.053482 37.952259 -46.220531
-11.523671 38.380331 -47.080323
-8.56885 40.167324 -50.176857
-8.002721 40.992205 -49.882183
-8.64825 39.48374 -51.301916
-8.56885 40.167324 -50.176857
-7.983128 39.56819 -51.977396
-8.64825 39.48374 -51.301916
-7.296581 39.64552 -52.589824
-7.983128 39.56819 -51.977396
-7.287804 40.316446 -51.588079
-6.498983 39.663136 -53.170336
-7.296581 39.64552 -52.589824
-21.35827 29.561137 -55.269203
-21.100322 29.664313 -53.898092
-20.495094 30.173388 -55.126791
-22.291432 28.92007 -55.372318
-21.35827 29.561137 -55.269203
-17.847272 30.478947 -43.240521
-18.152721 29.754286 -42.127859
-18.282745 30.293132 -44.642054
-17.847272 30.478947 -43.240521
-18.744288 30.188794 -45.942394
-19.120599 29.476563 -44.821058
-18.282745 30.293132 -44.642054
-19.188658 30.032851 -47.342081
-18.744288 30.188794 -45.942394
-12.376351 37.031153 -48.619074
-11.778144 37.405135 -49.451756
-25.801052 25.663274 -51.804149
-25.277835 26.343905 -53.110071
-10.982301 38.752062 -47.963068
-11.523671 38.380331 -47.080323
-11.09909 38.156887 -49.073191
-10.982301 38.752062 -47.963068
-11.778144 37.405135 -49.451756
-11.09909 38.156887 -49.073191
-23.456431 27.738357 -52.913372
-22.55951 28.393877 -52.831899
-22.86042 28.396543 -54.121977
-24.329564 27.076555 -53.031216
-24.028654 27.073888 -51.741138
-23.456431 27.738357 -52.913372
-25.277835 26.343905 -53.110071
-24.329564 27.076555 -53.031216
-23.411107 22.133696 -38.744011
-22.707422 22.048169 -37.458002
-23.295108 23.003574 -40.029854
-23.411107 22.133696 -38.744011
-21.811165 23.839216 -38.672044
-21.972296 22.966864 -37.523958
-22.480697 23.762185 -39.92773
-21.811165 23.839216 -38.672044
-21.66153 24.648271 -39.85116
-23.145474 23.812631 -41.208969
-23.295108 23.003574 -40.029854
-22.480697 23.762185 -39.92773
-22.976814 24.622241 -42.500252
-23.145474 23.812631 -41.208969
-22.762221 25.454154 -43.808172
-22.976814 24.622241 -42.500252
-22.116469 25.403154 -42.414766
-22.440451 26.282635 -45.089931
-23.300795 25.501722 -45.175417
-22.762221 25.454154 -43.808172
-18.911777 28.840659 -42.286738
-18.152721 29.754286 -42.127859
-19.669375 28.007808 -42.286329
-18.911777 28.840659 -42.286738
-19.416654 28.748051 -43.520309
-20.488228 27.094449 -42.37854
-19.669375 28.007808 -42.286329
-21.038065 27.075134 -43.621294
-21.352039 26.254382 -42.479933
-20.488228 27.094449 -42.37854
-21.359541 28.491262 -48.77454
-21.738039 27.785544 -47.523018
-20.862385 28.498545 -47.395824
-20.883505 29.163712 -49.953525
-21.759159 28.450711 -50.080719
-21.359541 28.491262 -48.77454
-20.033015 29.288244 -47.384372
-19.188658 30.032851 -47.342081
-20.391414 29.817794 -51.171486
-20.883505 29.163712 -49.953525
-19.868426 30.394495 -52.419473
-20.760134 29.699863 -52.507692
-20.391414 29.817794 -51.171486
-19.337001 30.913362 -53.544565
-19.868426 30.394495 -52.419473
-19.608024 30.756115 -54.859947
-19.337001 30.913362 -53.544565
-12.517928 37.522531 -45.240827
-12.053482 37.952259 -46.220531
-13.152178 36.572018 -45.403707
-12.517928 37.522531 -45.240827
-12.906161 36.603081 -47.759283
-12.192195 37.447535 -47.337677
-12.376351 37.031153 -48.619074
-13.386692 36.202305 -46.693014
-12.906161 36.603081 -47.759283
-13.152178 36.572018 -45.403707
-13.386692 36.202305 -46.693014
-5.985201 41.169174 -51.863764
-6.662215 41.192938 -51.216917
-5.846584 40.377201 -52.729429
-5.985201 41.169174 -51.863764
-6.498983 39.663136 -53.170336
-5.846584 40.377201 -52.729429
-24.332169 25.688532 -47.965029
-23.825283 25.636371 -46.56015
-23.48591 26.382362 -47.862054
-25.21704 24.956373 -47.948315
-24.332169 25.688532 -47.965029
-24.877668 25.702364 -49.250219
-26.076069 24.208186 -47.909586
-25.21704 24.956373 -47.948315
-26.231428 24.942334 -50.491411
-25.332163 25.691145 -50.546244
-25.801052 25.663274 -51.804149
-26.661366 24.187698 -49.156542
-26.231428 24.942334 -50.491411
-26.076069 24.208186 -47.909586
-26.661366 24.187698 -49.156542
3 20 5 21
3 22 6 23
3 24 23 5
3 22 23 24
3 26 25 7
3 0 27 28
3 2 12 10
3 30 29 8
3 31 13 32
3 33 14 34
3 35 15 36
3 37 36 14
3 35 36 37
3 4 16 9
3 4 17 16
3 4 38 40
3 40 39 17
3 38 39 40
3 1 41 43
3 41 18 42
3 41 42 43
3 3 19 11
3 5 44 45
3 5 46 47
3 5 48 49
3 6 50 52
3 52 51 5
3 50 51 52
3 6 53 54
3 7 8 2
3 55 8 56
3 57 56 7
3 55 56 57
3 59 58 8
3 60 9 61
3 62 9 63
3 64 4 65
3 66 65 9
3 64 65 66
3 68 67 4
3 70 69 1
3 72 71 3
3 73 1 74
3 75 1 76
3 78 77 1
3 10 11 0
3 12 11 10
3 12 3 11
3 8 12 2
3 79 12 80
3 81 80 8
3 79 80 81
3 82 3 83
3 84 83 12
3 82 83 84
3 86 85 3
3 13 87 88
3 13 89 90
3 91 13 92
3 14 93 95
3 93 13 94
3 93 94 95
3 14 96 98
3 98 97 13
3 96 97 98
3 14 99 100
3 15 101 103
3 103 102 14
3 101 102 103
3 15 104 106
3 104 0 105
3 104 105 106
3 9 107 108
3 16 109 111
3 111 110 9
3 109 110 111
3 16 112 113
3 16 114 116
3 114 15 115
3 114 115 116
3 17 15 16
3 17 0 15
3 17 10 0
3 117 10 118
3 119 118 17
3 117 118 119
3 120 2 121
3 122 121 10
3 120 121 122
3 124 123 4
3 125 2 126
3 127 7 128
3 129 128 2
3 127 128 129
3 130 7 131
3 133 132 7
3 18 134 135
3 18 136 137
3 138 18 139
3 140 139 1
3 138 139 140
3 141 18 142
3 144 143 18
3 145 6 146
3 147 6 148
3 150 149 6
3 11 151 153
3 153 152 0
3 151 152 153
3 19 154 156
3 156 155 11
3 154 155 156
3 19 157 158
3 159 19 160
3 161 160 3
3 159 160 161
3 162 19 163
3 165 164 19
