ply
format ascii 1.0
element vertex 325
property float x
property float y
property float z
element face 253
property list uchar int vertex_index
end_header
3.276666 -12.904658 -58.049446
18.9021 -22.793791 -60.080601
30.892057 -34.223248 -52.399582
12.412229 -23.045351 -59.037655
10.117143 -18.293949 -60.231071
29.502285 -42.636364 -49.250134
21.786877 -26.258224 -58.631618
3.881884 -5.460009 -61.390991
14.957343 -27.261711 -57.975075
16.020559 -19.132427 -61.28178
27.999498 -31.772766 -54.93578
7.669884 -24.310488 -56.989151
9.391181 -22.519838 -58.330372
8.420417 -20.092274 -58.878487
30.759689 -43.622879 -47.815693
2.104189 -14.575431 -56.173569
3.034404 -3.895882 -60.985645
12.915442 -18.960501 -60.768799
14.202544 -21.045616 -60.21114
32.23307 -35.250206 -50.98349
24.23345 -33.621815 -55.348423
25.863834 -34.951981 -54.377789
26.374949 -30.526773 -56.027863
20.240353 -24.694677 -59.335796
0.498485 -14.361269 -53.961105
1.474319 -12.67296 -55.895691
2.475217 -10.87838 -57.806614
11.196833 -20.739254 -59.606697
31.615898 -39.444412 -49.350616
30.186077 -38.551544 -50.804634
22.788231 -32.036945 -56.244526
23.328238 -27.984489 -57.757011
21.209846 -30.685802 -56.955624
19.799265 -29.040844 -57.651985
18.299976 -26.990986 -58.415894
2.859688 -7.337517 -59.515053
3.578204 -9.159481 -59.692738
7.269623 -17.940706 -59.176003
8.836547 -16.204605 -60.580193
16.972197 -25.328871 -58.958233
15.570946 -23.24168 -59.58844
17.411747 -21.276392 -60.585995
28.772173 -37.487926 -52.105415
25.120913 -39.449203 -52.779079
27.385489 -36.101147 -53.348068
29.460598 -33.240383 -53.646049
7.201586 -23.111866 -57.203224
6.796988 -25.231652 -56.259378
7.576853 -21.002759 -58.147892
8.045151 -22.201381 -57.933819
7.201586 -23.111866 -57.203224
3.000599 -14.816395 -57.137652
2.414361 -15.651781 -56.199713
2.690428 -13.740044 -57.111508
3.635747 -14.045568 -58.006359
3.000599 -14.816395 -57.137652
13.834692 -17.976053 -61.359253
13.180072 -16.9421 -61.657643
31.835394 -32.627133 -52.497858
32.505901 -33.140613 -51.789812
31.562563 -34.736727 -51.691536
31.112498 -32.057683 -53.247469
31.835394 -32.627133 -52.497858
25.607625 -29.823671 -56.518919
25.3042 -32.074294 -55.688143
24.536875 -31.371192 -56.179199
26.579697 -28.407996 -56.841248
25.607625 -29.823671 -56.518919
19.763846 -21.641015 -60.548338
20.432973 -22.591458 -60.175936
19.571227 -23.744234 -59.708199
19.062818 -20.790948 -60.893124
19.763846 -21.641015 -60.548338
0.25874 -13.383492 -53.803583
0.008761 -15.108419 -52.99666
1.648594 -10.959457 -56.67882
1.188772 -11.838646 -55.699772
2.149042 -10.062168 -57.634281
1.974768 -11.77567 -56.851152
1.648594 -10.959457 -56.67882
10.94701 -17.438345 -60.836698
11.486855 -18.660998 -60.524512
10.656988 -19.516602 -59.918884
21.729487 -33.45829 -55.834606
22.3797 -34.258024 -55.460346
20.940295 -32.782719 -56.190155
21.999038 -31.361373 -56.600075
21.729487 -33.45829 -55.834606
18.788149 -30.166289 -57.218146
19.45552 -31.285946 -56.822815
18.038505 -29.14136 -57.6001
19.04962 -28.015915 -58.03394
18.788149 -30.166289 -57.218146
7.524078 -15.843038 -60.128222
6.776103 -16.810992 -59.3324
8.30754 -14.974988 -60.830317
8.053085 -17.072655 -59.878098
7.524078 -15.843038 -60.128222
15.614926 -28.365144 -57.656025
14.633954 -29.568876 -57.100574
15.96477 -26.295291 -58.466654
16.622353 -27.398725 -58.147604
15.614926 -28.365144 -57.656025
13.052487 -24.103051 -58.782452
12.115018 -25.149516 -58.181139
16.895759 -18.166424 -61.776086
17.591353 -19.238407 -61.428194
16.716153 -20.20441 -60.933887
27.685313 -38.986477 -51.950599
28.37034 -39.659982 -51.323864
24.353331 -38.689725 -53.295446
23.923431 -40.854742 -52.563026
28.934915 -30.315534 -55.143157
29.665465 -31.049343 -54.498291
28.730048 -32.506574 -54.290914
22.780538 -24.931665 -59.042564
23.551219 -25.794798 -58.60526
22.557558 -27.121356 -58.194315
7.29513 -26.418111 -56.098991
6.796988 -25.231652 -56.259378
8.22346 -25.571039 -56.760945
7.29513 -26.418111 -56.098991
8.530532 -23.415163 -57.659762
9.084108 -24.675714 -57.431555
8.22346 -25.571039 -56.760945
30.402227 -45.542059 -47.037699
31.35508 -44.081461 -47.013008
29.661566 -45.315475 -47.735632
30.402227 -45.542059 -47.037699
29.032863 -44.822218 -48.452853
30.130987 -43.129621 -48.532914
29.661566 -45.315475 -47.735632
1.795942 -16.519054 -55.251032
1.557274 -15.380215 -55.226154
1.795942 -16.519054 -55.251032
2.414361 -15.651781 -56.199713
3.091845 -2.179495 -61.688589
2.625363 -3.096252 -60.712812
3.544268 -2.973616 -61.925573
3.091845 -2.179495 -61.688589
3.968008 -3.755679 -62.128246
3.458144 -4.677945 -61.188318
3.544268 -2.973616 -61.925573
13.964559 -28.496727 -57.348514
14.633954 -29.568876 -57.100574
14.478243 -19.018611 -61.080423
13.558993 -20.003059 -60.48997
13.834692 -17.976053 -61.359253
15.387251 -18.062016 -61.615743
15.111551 -20.089022 -60.74646
14.478243 -19.018611 -61.080423
16.257429 -17.116578 -62.141024
15.387251 -18.062016 -61.615743
33.104188 -33.692593 -51.023584
32.834686 -35.850077 -50.166185
33.104188 -33.692593 -51.023584
32.505901 -33.140613 -51.789812
25.048642 -34.286898 -54.863106
24.724792 -36.441114 -54.094801
23.909599 -35.776032 -54.580118
27.377161 -29.004241 -56.31309
28.189435 -29.627237 -55.767048
27.187224 -31.149769 -55.481822
27.377161 -29.004241 -56.31309
26.579697 -28.407996 -56.841248
21.217841 -23.329966 -59.827982
21.991104 -24.11174 -59.475893
21.013615 -25.47645 -58.983707
21.217841 -23.329966 -59.827982
20.432973 -22.591458 -60.175936
0.225529 -16.139032 -53.144729
0.008761 -15.108419 -52.99666
0.754422 -15.273134 -54.119923
0.225529 -16.139032 -53.144729
0.700855 -12.682801 -54.732479
0.25874 -13.383492 -53.803583
0.986402 -13.517114 -54.928398
0.700855 -12.682801 -54.732479
1.188772 -11.838646 -55.699772
1.242339 -14.428979 -55.087215
0.754422 -15.273134 -54.119923
0.986402 -13.517114 -54.928398
1.789254 -13.624195 -56.03463
1.557274 -15.380215 -55.226154
1.242339 -14.428979 -55.087215
11.53318 -23.905695 -58.470844
12.115018 -25.149516 -58.181139
10.022656 -23.642938 -58.117203
9.084108 -24.675714 -57.431555
10.925482 -22.752646 -58.755365
10.022656 -23.642938 -58.117203
10.294007 -21.629546 -58.968534
11.804531 -21.892302 -59.322176
11.53318 -23.905695 -58.470844
10.925482 -22.752646 -58.755365
12.34616 -17.771621 -61.105563
12.056138 -19.849877 -60.187748
11.486855 -18.660998 -60.524512
13.180072 -16.9421 -61.657643
12.34616 -17.771621 -61.105563
31.762636 -42.081089 -47.78375
31.35508 -44.081461 -47.013008
32.190741 -39.991855 -48.551212
31.762636 -42.081089 -47.78375
31.187794 -41.533645 -48.583155
32.5261 -37.94718 -49.349749
32.190741 -39.991855 -48.551212
31.924484 -37.347309 -50.167053
32.834686 -35.850077 -50.166185
32.5261 -37.94718 -49.349749
23.10231 -35.050459 -55.012295
23.909599 -35.776032 -54.580118
23.510841 -32.82938 -55.796475
23.10231 -35.050459 -55.012295
22.3797 -34.258024 -55.460346
23.814265 -30.578757 -56.627251
24.536875 -31.371192 -56.179199
23.510841 -32.82938 -55.796475
23.058234 -30.010717 -57.000768
24.084269 -28.552529 -57.383493
23.814265 -30.578757 -56.627251
20.160811 -32.108425 -56.474635
20.940295 -32.782719 -56.190155
20.504555 -29.863323 -57.303804
20.160811 -32.108425 -56.474635
19.45552 -31.285946 -56.822815
2.566896 -4.816261 -60.019081
2.625363 -3.096252 -60.712812
2.479538 -6.537078 -59.283785
2.566896 -4.816261 -60.019081
2.947046 -5.6167 -60.250349
2.341278 -8.291736 -58.488501
2.479538 -6.537078 -59.283785
2.667452 -9.107948 -58.660834
2.149042 -10.062168 -57.634281
2.341278 -8.291736 -58.488501
4.447457 -4.623724 -62.267857
3.968008 -3.755679 -62.128246
4.315523 -6.361779 -61.474634
4.447457 -4.623724 -62.267857
4.163683 -8.211515 -60.625507
3.730044 -7.309745 -60.541865
4.315523 -6.361779 -61.474634
4.002341 -10.095662 -59.767561
4.163683 -8.211515 -60.625507
3.851572 -11.96825 -58.945915
3.427435 -11.032069 -58.871092
4.002341 -10.095662 -59.767561
3.635747 -14.045568 -58.006359
3.851572 -11.96825 -58.945915
6.485993 -18.823041 -58.407646
6.776103 -16.810992 -59.3324
7.001456 -19.926975 -58.29665
6.485993 -18.823041 -58.407646
7.84502 -19.01649 -59.027245
7.576853 -21.002759 -58.147892
7.001456 -19.926975 -58.29665
9.112264 -14.15029 -61.531254
8.30754 -14.974988 -60.830317
9.666802 -15.275852 -61.271906
9.112264 -14.15029 -61.531254
10.3071 -16.320525 -61.097345
9.476845 -17.249277 -60.405632
9.666802 -15.275852 -61.271906
10.94701 -17.438345 -60.836698
10.3071 -16.320525 -61.097345
17.286243 -28.229782 -57.876435
18.038505 -29.14136 -57.6001
17.636087 -26.159928 -58.687064
17.286243 -28.229782 -57.876435
16.622353 -27.398725 -58.147604
14.325043 -26.211231 -58.251161
13.964559 -28.496727 -57.348514
13.947644 -23.103184 -59.369194
13.052487 -24.103051 -58.782452
13.307386 -22.045483 -59.624398
14.631845 -24.201215 -59.057844
13.947644 -23.103184 -59.369194
14.886745 -22.143648 -59.89979
15.264145 -25.251695 -58.781757
14.325043 -26.211231 -58.251161
14.631845 -24.201215 -59.057844
18.317642 -20.032249 -61.145821
19.062818 -20.790948 -60.893124
18.156923 -22.035092 -60.333298
18.317642 -20.032249 -61.145821
17.591353 -19.238407 -61.428194
16.895759 -18.166424 -61.776086
16.257429 -17.116578 -62.141024
28.392254 -44.327535 -49.100789
29.032863 -44.822218 -48.452853
28.735396 -42.234201 -49.896224
28.392254 -44.327535 -49.100789
29.077292 -40.191792 -50.673474
29.844181 -40.593954 -50.027384
28.735396 -42.234201 -49.896224
29.479125 -38.019735 -51.455025
29.077292 -40.191792 -50.673474
28.37034 -39.659982 -51.323864
24.69813 -41.541496 -52.066147
23.923431 -40.854742 -52.563026
25.859684 -39.967115 -52.287431
24.69813 -41.541496 -52.066147
25.492373 -37.200592 -53.578434
24.353331 -38.689725 -53.295446
24.724792 -36.441114 -54.094801
26.991971 -38.293087 -52.571926
25.859684 -39.967115 -52.287431
26.253201 -37.775175 -53.063574
28.078831 -36.794536 -52.726742
27.685313 -38.986477 -51.950599
26.991971 -38.293087 -52.571926
30.396769 -31.566251 -53.870703
31.112498 -32.057683 -53.247469
30.176327 -33.731815 -53.022816
30.396769 -31.566251 -53.870703
29.665465 -31.049343 -54.498291
28.934915 -30.315534 -55.143157
28.189435 -29.627237 -55.767048
24.367106 -26.382158 -58.203772
24.084269 -28.552529 -57.383493
24.367106 -26.382158 -58.203772
23.551219 -25.794798 -58.60526
22.780538 -24.931665 -59.042564
21.991104 -24.11174 -59.475893
3 46 11 47
3 48 13 49
3 50 49 11
3 48 49 50
3 0 51 53
3 53 52 15
3 51 52 53
3 0 54 55
3 57 56 17
3 2 58 60
3 60 59 19
3 58 59 60
3 2 61 62
3 63 22 64
3 65 64 20
3 63 64 65
3 67 66 22
3 1 68 70
3 70 69 23
3 68 69 70
3 1 71 72
3 73 24 74
3 75 25 76
3 77 26 78
3 79 78 25
3 77 78 79
3 4 27 12
3 4 80 82
3 82 81 27
3 80 81 82
3 5 28 14
3 5 29 28
3 83 30 84
3 85 32 86
3 87 86 30
3 85 86 87
3 88 33 89
3 90 34 91
3 92 91 33
3 90 91 92
3 7 35 16
3 7 36 35
3 93 37 94
3 95 38 96
3 97 96 37
3 95 96 97
3 8 98 99
3 8 100 102
3 100 39 101
3 100 101 102
3 3 103 104
3 9 40 18
3 9 41 40
3 9 105 107
3 107 106 41
3 105 106 107
3 108 42 109
3 110 43 111
3 10 44 21
3 10 45 44
3 10 112 114
3 114 113 45
3 112 113 114
3 6 115 117
3 117 116 31
3 115 116 117
3 11 118 119
3 11 120 121
3 11 122 124
3 122 12 123
3 122 123 124
3 13 12 11
3 13 4 12
3 125 14 126
3 127 14 128
3 129 5 130
3 131 130 14
3 129 130 131
3 15 132 133
3 135 134 15
3 136 16 137
3 138 16 139
3 140 7 141
3 142 141 16
3 140 141 142
3 143 8 144
3 17 18 3
3 145 18 146
3 147 146 17
3 145 146 147
3 148 9 149
3 150 149 18
3 148 149 150
3 152 151 9
3 19 153 154
3 156 155 19
3 20 157 159
3 157 21 158
3 157 158 159
3 22 21 20
3 22 10 21
3 22 160 162
3 162 161 10
3 160 161 162
3 164 163 22
3 23 165 167
3 167 166 6
3 165 166 167
3 169 168 23
3 24 170 171
3 24 172 173
3 174 24 175
3 25 176 178
3 176 24 177
3 176 177 178
3 25 179 181
3 181 180 24
3 179 180 181
3 25 182 184
3 182 15 183
3 182 183 184
3 26 15 25
3 26 0 15
3 185 3 186
3 12 187 188
3 27 189 191
3 191 190 12
3 189 190 191
3 27 192 194
3 192 3 193
3 192 193 194
3 27 17 3
3 195 17 196
3 197 196 27
3 195 196 197
3 199 198 17
3 14 200 201
3 28 202 204
3 204 203 14
3 202 203 204
3 28 205 206
3 28 207 209
3 207 19 208
3 207 208 209
3 29 19 28
3 29 2 19
3 210 20 211
3 30 212 214
3 212 20 213
3 212 213 214
3 30 215 217
3 217 216 20
3 215 216 217
3 30 218 220
3 218 31 219
3 218 219 220
3 32 31 30
3 32 6 31
3 221 32 222
3 33 223 225
3 223 32 224
3 223 224 225
3 33 6 32
3 33 23 6
3 34 23 33
3 34 1 23
3 16 226 227
3 35 228 230
3 230 229 16
3 228 229 230
3 35 231 232
3 35 233 235
3 233 26 234
3 233 234 235
3 36 26 35
3 36 0 26
3 236 7 237
3 238 7 239
3 240 36 241
3 242 241 7
3 240 241 242
3 243 36 244
3 245 0 246
3 247 246 36
3 245 246 247
3 249 248 0
3 37 250 251
3 37 252 253
3 37 254 256
3 254 13 255
3 254 255 256
3 38 13 37
3 38 4 13
3 257 38 258
3 259 38 260
3 261 4 262
3 263 262 38
3 261 262 263
3 265 264 4
3 266 34 267
3 39 268 270
3 268 34 269
3 268 269 270
3 39 1 34
3 271 8 272
3 18 273 275
3 275 274 3
3 273 274 275
3 40 276 278
3 278 277 18
3 276 277 278
3 40 279 281
3 279 8 280
3 279 280 281
3 40 39 8
3 41 39 40
3 41 1 39
3 41 282 284
3 284 283 1
3 282 283 284
3 286 285 41
3 288 287 9
3 289 5 290
3 291 5 292
3 293 29 294
3 295 294 5
3 293 294 295
3 42 296 298
3 296 29 297
3 296 297 298
3 42 2 29
3 43 299 300
3 43 301 302
3 21 303 305
3 303 43 304
3 303 304 305
3 44 43 21
3 44 306 308
3 308 307 43
3 306 307 308
3 44 309 311
3 309 42 310
3 309 310 311
3 45 42 44
3 45 2 42
3 45 312 314
3 314 313 2
3 312 313 314
3 316 315 45
3 318 317 10
3 31 319 320
3 322 321 31
3 324 323 6
