ply
format ascii 1.0
element vertex 216
property float x
property float y
property float z
element face 186
property list uchar int vertex_index
end_header
-39.887543 -9.875766 17.442411
-39.089279 -19.2829 15.5522
-39.403805 -18.560732 19.41765
-39.522457 -14.608348 16.496391
-38.54417 -1.864094 7.710533
-40.068359 -5.603367 14.570599
-39.317024 -10.597344 13.572127
-38.966648 -6.366356 10.667436
-38.503643 -15.289291 12.627016
-37.837139 -19.796106 11.522815
-37.399246 -23.690491 9.939051
-39.718502 -11.837421 19.031565
-39.637115 -14.215826 18.606501
-39.730106 -12.209197 16.986084
-39.35944 -19.052141 17.500528
-39.209419 -21.198494 16.887642
-39.04834 -23.56502 16.091923
-38.856182 -21.53237 14.804499
-40.055904 -3.556097 12.898801
-39.651741 -6.033584 12.552891
-39.571888 -3.849008 11.093891
-38.641602 -10.721183 11.644296
-38.882057 -13.008667 13.056209
-37.534077 -21.865908 10.667974
-39.514156 -16.617331 18.027859
-39.313419 -17.033855 16.140057
-39.410198 -1.661795 9.493997
-39.998508 -7.728629 15.984201
-39.747852 -10.168484 15.470473
-39.732769 -8.010128 14.031563
-39.156513 -8.434867 12.098418
-38.313 -8.690154 10.186785
-38.021519 -6.464181 8.781143
-39.745064 -9.537573 19.430042
-39.98822 -7.414794 17.851547
-39.441463 -12.649778 15.002096
-39.124599 -15.109071 14.545974
-38.833981 -17.368103 14.075858
-38.562859 -19.613943 13.510547
-38.26804 -21.847353 12.656407
-38.109238 -23.834982 11.932865
-37.966583 -25.831114 10.919712
-39.80576 -2.574673 11.242233
-39.813896 -3.702552 11.996346
-40.047767 -2.428217 12.144689
-38.372068 -11.953875 11.412738
-38.18322 -10.875768 10.752105
-39.29562 -19.563573 20.113333
-39.184148 -19.353328 21.114756
-39.292333 -18.350487 20.419072
-38.977598 -24.617287 15.62218
-38.858419 -23.588387 15.044066
-38.652086 -3.01693 8.455192
-39.0851 -2.91578 9.346924
-38.977184 -1.762944 8.602265
-37.44923 -6.661971 7.967291
-37.864439 -5.423708 8.093424
-37.668104 -7.714404 8.653937
-37.44923 -6.661971 7.967291
-39.520855 -9.355895 20.454633
-39.578328 -10.558542 20.244379
-39.977831 -6.219774 18.149354
-39.827108 -7.262187 18.912498
-40.07757 -6.320764 17.116089
-39.977831 -6.219774 18.149354
-37.979714 -18.683786 11.79455
-37.527559 -18.776896 10.83594
-38.199999 -19.705025 12.516681
-38.342574 -18.592704 12.788417
-37.979714 -18.683786 11.79455
-39.677808 -13.026623 18.819033
-39.553232 -13.968994 19.581785
-39.593925 -12.779792 19.794317
-39.334333 -20.036342 18.22017
-39.356516 -19.790638 19.178731
-39.381622 -18.806437 18.459089
-39.259323 -21.109519 17.913727
-39.334333 -20.036342 18.22017
-39.28443 -20.125318 17.194085
-39.214033 -22.193126 17.524636
-39.259323 -21.109519 17.913727
-39.128879 -22.381757 16.489783
-39.133494 -23.376389 17.126777
-39.214033 -22.193126 17.524636
-38.76234 -22.572063 14.400354
-38.858419 -23.588387 15.044066
-38.952261 -22.548695 15.448211
-38.125765 -3.123664 7.558119
-38.016123 -1.981682 6.917887
-38.492296 -13.097618 12.118695
-38.76183 -11.864925 12.350252
-38.372068 -11.953875 11.412738
-38.303089 -14.237929 11.904098
-38.69285 -14.148979 12.841613
-38.492296 -13.097618 12.118695
-37.372648 -19.838205 10.522654
-37.527559 -18.776896 10.83594
-37.221117 -20.873106 10.095233
-37.685608 -20.831007 11.095394
-37.372648 -19.838205 10.522654
-37.094687 -21.853687 9.683673
-37.221117 -20.873106 10.095233
-37.027271 -22.765978 9.319211
-37.466662 -22.778199 10.303513
-37.094687 -21.853687 9.683673
-39.433769 -17.372351 19.695128
-39.292333 -18.350487 20.419072
-39.550425 -15.199898 19.289554
-39.553232 -13.968994 19.581785
-39.488945 -16.40065 19.000233
-39.550425 -15.199898 19.289554
-39.575636 -15.416578 18.31718
-39.45898 -17.589032 18.722755
-39.433769 -17.372351 19.695128
-39.488945 -16.40065 19.000233
-39.697013 -0.374857 9.689276
-39.724914 -1.481066 10.442286
-39.34902 -0.537665 8.7875
-39.697013 -0.374857 9.689276
-38.916006 -0.638814 7.895768
-38.977184 -1.762944 8.602265
-39.34902 -0.537665 8.7875
-38.412189 -0.729098 6.969993
-38.916006 -0.638814 7.895768
-38.016123 -1.981682 6.917887
-38.412189 -0.729098 6.969993
-39.29562 -19.563573 20.113333
-39.356516 -19.790638 19.178731
-39.084936 -24.527583 16.71613
-39.133494 -23.376389 17.126777
-39.084936 -24.527583 16.71613
-38.977598 -24.617287 15.62218
-38.018919 -9.860254 10.02335
-38.18322 -10.875768 10.752105
-38.477301 -9.705668 10.915541
-39.491043 -2.755402 10.293944
-39.80576 -2.574673 11.242233
-39.724914 -1.481066 10.442286
-39.165945 -4.009387 10.146871
-39.491043 -2.755402 10.293944
-39.0851 -2.91578 9.346924
-38.863325 -5.268061 9.933644
-39.269268 -5.107682 10.880664
-39.165945 -4.009387 10.146871
-38.652086 -3.01693 8.455192
-38.125765 -3.123664 7.558119
-38.39076 -5.316973 8.990497
-37.864439 -5.423708 8.093424
-38.494084 -6.415268 9.72429
-38.863325 -5.268061 9.933644
-38.39076 -5.316973 8.990497
-37.813845 -8.827391 9.356758
-38.16726 -7.577167 9.483964
-37.668104 -7.714404 8.653937
-38.018919 -9.860254 10.02335
-37.813845 -8.827391 9.356758
-39.565047 -11.708466 20.045141
-39.593925 -12.779792 19.794317
-39.731783 -10.687497 19.230804
-39.565047 -11.708466 20.045141
-39.578328 -10.558542 20.244379
-39.70553 -8.323576 19.701746
-39.520855 -9.355895 20.454633
-39.866642 -8.476183 18.640794
-39.70553 -8.323576 19.701746
-39.827108 -7.262187 18.912498
-40.082714 -6.477682 16.182416
-39.993364 -7.571711 16.917874
-40.07757 -6.320764 17.116089
-40.117639 -5.415051 15.475614
-40.033434 -6.665998 15.2774
-40.082714 -6.477682 16.182416
-40.178949 -4.354738 14.704749
-40.117639 -5.415051 15.475614
-40.172721 -3.331104 13.868849
-40.062131 -4.579732 13.7347
-40.178949 -4.354738 14.704749
-40.211244 -2.317162 13.176094
-40.172721 -3.331104 13.868849
-40.047767 -2.428217 12.144689
-40.211244 -2.317162 13.176094
-38.075975 -15.452943 11.694013
-38.303089 -14.237929 11.904098
-38.312965 -16.430378 12.346651
-38.075975 -15.452943 11.694013
-38.478134 -17.469785 13.071072
-38.668812 -16.328697 13.351437
-38.312965 -16.430378 12.346651
-38.69842 -18.491023 13.793202
-38.478134 -17.469785 13.071072
-38.342574 -18.592704 12.788417
-38.468269 -22.729554 13.326308
-38.76234 -22.572063 14.400354
-38.562111 -21.689861 13.730453
-38.388869 -23.723368 12.964537
-38.468269 -22.729554 13.326308
-38.188639 -22.841167 12.294636
-38.30539 -24.728592 12.473992
-38.388869 -23.723368 12.964537
-38.234062 -25.726658 11.967415
-38.30539 -24.728592 12.473992
-38.03791 -24.833048 11.426289
-38.201418 -26.760321 11.513449
-38.234062 -25.726658 11.967415
-36.985366 -23.671897 8.918995
-37.027271 -22.765978 9.319211
-37.327219 -24.559351 9.391087
-36.985366 -23.671897 8.918995
-37.610888 -25.629663 9.881417
-37.682914 -24.760803 10.429381
-37.327219 -24.559351 9.391087
-37.943745 -26.646653 10.459881
-37.610888 -25.629663 9.881417
-38.178579 -27.575859 11.053618
-38.201418 -26.760321 11.513449
-37.943745 -26.646653 10.459881
3 0 13 11
3 1 15 14
3 1 17 15
3 42 20 43
3 44 43 18
3 42 43 44
3 46 45 21
3 3 24 12
3 3 25 24
3 2 47 49
3 47 48 49
3 51 50 16
3 5 29 27
3 7 30 19
3 7 31 30
3 4 52 54
3 54 53 26
3 52 53 54
3 55 32 56
3 58 57 32
3 59 33 60
3 61 34 62
3 64 63 34
3 6 35 28
3 8 36 22
3 8 37 36
3 9 65 66
3 9 67 69
3 67 38 68
3 67 68 69
3 9 39 38
3 10 40 23
3 10 41 40
3 11 70 72
3 70 12 71
3 70 71 72
3 13 12 11
3 13 3 12
3 14 73 75
3 75 74 2
3 73 74 75
3 15 76 78
3 78 77 14
3 76 77 78
3 15 79 80
3 15 81 83
3 81 16 82
3 81 82 83
3 17 16 15
3 17 84 86
3 86 85 16
3 84 85 86
3 18 19 5
3 20 19 18
3 20 7 19
3 88 87 4
3 21 22 6
3 89 22 90
3 91 90 21
3 89 90 91
3 92 8 93
3 94 93 22
3 92 93 94
3 95 9 96
3 97 23 98
3 99 98 9
3 97 98 99
3 100 23 101
3 102 10 103
3 104 103 23
3 102 103 104
3 105 2 106
3 12 107 108
3 24 109 111
3 111 110 12
3 109 110 111
3 24 112 114
3 112 2 113
3 112 113 114
3 24 14 2
3 25 14 24
3 25 1 14
3 115 26 116
3 117 26 118
3 119 4 120
3 121 120 26
3 119 120 121
3 122 4 123
3 125 124 4
3 127 126 2
3 16 128 129
3 131 130 16
3 27 28 0
3 29 28 27
3 29 6 28
3 19 29 5
3 30 29 19
3 30 6 29
3 30 21 6
3 31 21 30
3 31 132 134
3 134 133 21
3 132 133 134
3 26 135 137
3 135 20 136
3 135 136 137
3 138 20 139
3 140 139 26
3 138 139 140
3 141 7 142
3 143 142 20
3 141 142 143
3 145 144 4
3 32 146 147
3 32 148 150
3 148 7 149
3 148 149 150
3 32 31 7
3 151 31 152
3 153 152 32
3 151 152 153
3 155 154 31
3 156 11 157
3 33 158 160
3 158 11 159
3 158 159 160
3 33 0 11
3 161 33 162
3 34 163 165
3 163 33 164
3 163 164 165
3 34 0 33
3 34 27 0
3 166 27 167
3 168 167 34
3 166 167 168
3 169 5 170
3 171 170 27
3 169 170 171
3 172 5 173
3 174 18 175
3 176 175 5
3 174 175 176
3 177 18 178
3 180 179 18
3 28 13 0
3 35 13 28
3 35 3 13
3 22 35 6
3 36 35 22
3 36 3 35
3 36 25 3
3 37 25 36
3 37 1 25
3 181 8 182
3 183 8 184
3 185 37 186
3 187 186 8
3 185 186 187
3 38 188 190
3 188 37 189
3 188 189 190
3 38 1 37
3 38 17 1
3 39 17 38
3 39 191 193
3 193 192 17
3 191 192 193
3 23 39 9
3 40 39 23
3 40 194 196
3 196 195 39
3 194 195 196
3 40 197 198
3 41 199 201
3 201 200 40
3 199 200 201
3 41 202 203
3 204 10 205
3 206 10 207
3 208 41 209
3 210 209 10
3 208 209 210
3 211 41 212
3 215 214 41
3 213 214 215
