ply
format ascii 1.0
element vertex 462
property float x
property float y
property float z
element face 450
property list uchar int vertex_index
end_header
17.241879 88.481178 26.429325
10.599897 99.449577 7.455632
17.824593 98.703148 13.343709
10.891241 91.560295 18.951277
27.726677 82.772102 27.465693
22.603289 81.540802 34.195953
20.756092 67.568146 45.687832
11.019115 95.910431 13.368349
20.759415 104.214119 2.059986
17.74247 93.887482 20.233046
21.036634 96.52179 16.984173
20.654341 91.345406 23.935469
23.233923 87.686874 27.64477
20.07905 85.626686 30.277863
18.233772 71.834801 42.045895
17.248285 64.646339 46.734131
13.714798 102.92942 3.439349
17.541553 102.484367 6.416369
14.27821 99.659882 10.040358
14.562564 95.625549 16.362837
14.295361 90.617554 22.478405
9.585421 102.109344 1.176534
25.985991 88.520096 24.172861
25.474577 82.893356 31.138166
24.786049 76.540604 37.687458
13.534868 84.834038 28.199711
16.443193 82.217316 32.439625
19.291204 79.042831 36.438156
21.76564 74.61866 40.395939
23.95067 69.768822 43.559746
19.671362 59.796673 50.500294
22.987696 62.325924 48.976692
26.002436 63.920647 46.21191
18.972343 104.90979 0.746774
17.544418 91.222351 23.437271
19.271191 92.897774 21.896442
18.922411 89.935532 25.373259
20.385666 88.464729 27.26717
18.677933 87.033226 28.505241
12.117036 101.259338 5.530342
14.217066 101.46244 6.789361
12.493215 99.66201 8.734569
10.992865 93.854187 16.150442
12.725959 95.773544 14.903667
12.685988 93.59256 17.787674
14.36972 93.19088 19.439243
12.595929 91.18634 20.68054
11.711999 102.75399 2.054606
27.907249 85.544609 23.742525
28.780554 84.945908 21.526844
17.751642 100.840256 9.650537
19.37429 101.783241 8.066544
19.407272 99.829994 11.7201
22.46739 95.072281 18.68054
22.980381 84.799828 30.849701
24.508057 85.561295 29.217396
24.086994 82.363457 32.788532
25.240976 79.823853 34.374916
23.79228 79.091759 36.02924
17.9499 80.800789 34.43013
19.596695 70.012932 43.781494
20.059713 73.624146 41.12817
21.312105 71.271637 43.02919
22.964991 72.497551 41.866009
22.452126 68.685387 44.819233
19.152771 55.989571 52.533936
22.619844 58.374756 51.449707
24.154636 59.618816 50.256111
24.589478 63.218376 47.760178
25.61047 60.109272 49.040073
30.227188 85.339157 13.247881
10.844901 97.808792 10.382954
17.799303 96.396461 16.839363
19.497269 97.753708 15.160838
19.420107 95.388763 18.628363
20.946259 94.088722 20.434729
22.304773 92.597343 22.115948
23.444134 90.510246 24.232214
21.971952 89.772896 25.673441
21.763588 86.704292 29.14444
21.328085 83.732597 32.254925
17.783924 68.320442 44.455418
19.052952 66.171562 46.343796
15.347579 104.267288 1.451608
17.298697 104.049088 2.857849
15.781756 102.88018 4.891172
15.974777 101.152542 8.40045
16.162729 99.366463 11.60649
12.592032 97.796799 11.836019
14.394074 97.704124 13.246385
16.153561 97.279732 14.880915
16.100378 94.809967 18.328938
16.0604 92.371582 21.403152
15.673729 89.534676 24.505558
13.361618 104.212311 0.10965
28.876999 87.34729 17.861406
29.530214 83.981392 19.369381
19.162457 103.453186 4.478634
21.091383 98.702736 13.499908
27.08707 88.373764 22.274601
26.916876 85.727203 25.917362
24.673443 88.321503 25.969114
25.821466 85.850945 27.563906
26.497929 80.118752 32.621994
26.162823 77.07267 35.90287
25.785217 73.899399 39.032486
12.456595 88.554054 23.578854
13.924811 87.794334 25.381454
15.484394 86.726219 27.436607
16.950748 85.414459 29.535727
18.323143 84.014435 31.490515
19.740873 82.471771 33.368931
21.021471 80.445648 35.400532
18.74777 75.427979 39.374954
20.508995 76.894447 38.504929
22.092371 78.162033 37.377861
23.325935 76.019279 38.907768
24.384912 73.278061 40.646492
25.350368 70.505447 42.103954
18.521315 62.240051 48.73217
20.170942 63.636208 48.239063
20.933617 57.300678 52.116966
21.398298 61.148357 49.881302
21.835659 64.999123 47.429062
23.468096 65.928871 46.475498
25.000813 66.817024 45.058453
18.017656 105.107796 0.085716
18.815698 105.525536 -1.210238
10.390277 100.166011 5.931934
9.567839 99.19006 6.878305
11.358467 100.354457 6.492987
11.148847 101.070892 4.969289
10.390277 100.166011 5.931934
28.166237 82.599144 26.347291
28.256523 83.985398 24.485707
27.816963 84.158355 25.604109
23.166407 95.354588 17.789337
23.116779 94.107437 19.645213
18.976575 54.071356 53.49424
18.297926 55.363425 52.586372
18.12173 53.44521 53.546677
24.728396 58.027242 50.875225
24.010694 57.662638 51.460752
25.456313 58.27247 50.267206
24.882553 59.864044 49.648092
24.728396 58.027242 50.875225
26.073564 58.57083 49.533609
25.456313 58.27247 50.267206
21.507421 104.320385 1.015651
20.592607 104.857636 0.189747
21.567426 103.598808 3.019745
21.507421 104.320385 1.015651
17.516104 66.48339 45.594774
16.816492 67.394158 44.660891
16.548673 65.557106 45.800247
8.512808 101.681477 0.787986
8.867309 101.150383 2.348956
9.34084 102.635429 -0.422536
8.512808 101.681477 0.787986
10.464264 103.005584 0.015283
9.34084 102.635429 -0.422536
28.45995 87.662792 19.012794
28.528311 88.845867 17.036545
29.443695 82.840565 21.21354
29.155384 84.46365 20.448113
29.068865 83.322823 22.292271
29.770018 82.312348 20.164684
29.443695 82.840565 21.21354
20.152004 102.204906 6.996438
20.198811 101.307132 8.855066
26.53653 88.44693 23.223731
26.633178 89.745598 21.352713
26.082639 89.818764 22.301842
26.091006 82.942207 30.249424
26.264451 84.421001 28.462294
25.648021 84.372151 29.351036
25.986253 81.506054 31.88008
26.602683 81.554905 30.991339
26.091006 82.942207 30.249424
11.449736 87.51839 23.959302
11.645993 88.80981 22.700686
13.72984 86.314186 26.790582
12.987725 86.778942 25.81992
12.792754 85.298794 27.229048
15.757331 82.956329 31.355871
15.539192 81.34885 32.753405
16.69697 83.815888 30.987676
16.011108 84.554901 29.903923
15.757331 82.956329 31.355871
18.490771 73.63139 40.710425
17.810677 74.600537 39.681093
17.553678 72.803947 41.016564
19.096339 61.018362 49.616232
18.201535 60.414438 49.708912
18.776558 59.192749 50.592974
21.589394 55.938211 52.873699
20.718864 55.475935 53.090108
26.164803 65.659951 44.824463
25.663991 67.108139 44.247734
25.501624 65.368836 45.635182
26.558191 64.057419 45.447601
26.164803 65.659951 44.824463
30.607295 85.352184 10.367147
30.285417 86.218609 11.392077
30.549067 84.472733 12.22295
19.69907 105.205471 -0.466859
18.815698 105.525536 -1.210238
19.865879 104.561954 1.40338
20.592607 104.857636 0.189747
19.69907 105.205471 -0.466859
16.30097 63.627553 46.932464
16.548673 65.557106 45.800247
9.883039 101.495895 2.792385
8.867309 101.150383 2.348956
10.946328 101.818218 3.231421
10.64871 102.431667 1.61557
9.883039 101.495895 2.792385
11.914518 102.006664 3.792474
10.946328 101.818218 3.231421
11.148847 101.070892 4.969289
28.343902 85.245259 22.634684
28.411727 86.462101 20.845512
27.975074 86.761451 21.953353
28.693175 83.686047 23.377866
28.343902 85.245259 22.634684
28.256523 83.985398 24.485707
29.068865 83.322823 22.292271
28.693175 83.686047 23.377866
20.215301 100.330509 10.681843
20.198811 101.307132 8.855066
19.390781 100.806618 9.893322
22.466322 96.183129 16.987081
21.750944 96.907883 16.138897
21.752012 95.797035 17.832356
22.466322 96.183129 16.987081
23.166407 95.354588 17.789337
25.449697 89.704148 23.366662
26.082639 89.818764 22.301842
12.543774 83.77266 28.576802
12.792754 85.298794 27.229048
16.199979 80.633229 33.771452
15.539192 81.34885 32.753405
16.953332 79.924965 34.766705
17.196547 81.509052 33.434877
16.199979 80.633229 33.771452
17.696788 79.129608 35.815754
16.953332 79.924965 34.766705
18.36744 78.250629 36.819767
18.620552 79.92181 35.434143
17.696788 79.129608 35.815754
18.517263 57.289198 51.609795
18.297926 55.363425 52.586372
19.412067 57.893122 51.517115
18.776558 59.192749 50.592974
18.517263 57.289198 51.609795
23.243299 57.040608 52.05755
22.432507 56.475251 52.54007
23.38724 58.996786 50.852909
23.243299 57.040608 52.05755
24.010694 57.662638 51.460752
26.23088 60.359735 48.233697
26.426863 62.265423 46.819616
25.806453 62.01496 47.625991
26.23088 60.359735 48.233697
26.073564 58.57083 49.533609
30.187306 84.197147 15.156043
29.914118 85.806545 14.512629
30.484537 83.506481 14.065817
30.187306 84.197147 15.156043
30.444655 82.364472 15.97398
30.806415 82.640057 13.040887
30.549067 84.472733 12.22295
30.484537 83.506481 14.065817
9.953189 97.720195 9.701841
10.722399 98.629185 8.919293
9.830687 98.540588 8.23818
10.095498 96.907044 11.082918
9.953189 97.720195 9.701841
10.182605 95.957863 12.575615
10.932008 96.859611 11.875652
10.095498 96.907044 11.082918
10.190297 95.012024 13.907481
10.182605 95.957863 12.575615
10.177173 93.983902 15.298527
11.00599 94.882309 14.759396
10.190297 95.012024 13.907481
10.155895 92.910481 16.661361
10.177173 93.983902 15.298527
10.105083 91.763534 18.061778
10.942053 92.707241 17.55086
10.155895 92.910481 16.661361
9.830687 98.540588 8.23818
9.567839 99.19006 6.878305
28.084036 81.276241 28.078721
27.626645 81.385742 29.168252
23.035471 92.869968 21.362917
23.116779 94.107437 19.645213
22.386082 93.834812 20.398244
22.874454 91.553794 23.174081
23.605151 91.82642 22.42105
23.035471 92.869968 21.362917
17.296858 70.898392 42.349371
17.553678 72.803947 41.016564
17.071934 69.141212 43.554133
16.816492 67.394158 44.660891
18.008848 70.077621 43.250657
17.296858 70.898392 42.349371
17.071934 69.141212 43.554133
16.323138 104.158188 2.154729
17.180833 104.677445 1.141253
16.205274 104.786544 0.438132
11.527553 103.327908 0.454319
10.464264 103.005584 0.015283
10.64871 102.431667 1.61557
12.352362 104.057068 -0.518159
11.527553 103.327908 0.454319
12.536808 103.48315 1.082128
13.123012 104.722859 -1.585897
12.352362 104.057068 -0.518159
14.200544 104.808632 -0.893555
13.123012 104.722859 -1.585897
15.193524 104.83612 -0.222576
14.200544 104.808632 -0.893555
14.354598 104.2398 0.780629
16.205274 104.786544 0.438132
15.193524 104.83612 -0.222576
28.92706 88.492099 15.85293
28.528311 88.845867 17.036545
29.239024 86.810611 16.819391
28.92706 88.492099 15.85293
28.828777 86.146599 19.694125
28.45995 87.662792 19.012794
28.411727 86.462101 20.845512
29.565631 85.127662 17.573379
29.239024 86.810611 16.819391
29.203606 85.664341 18.615393
29.838819 83.518265 18.216793
29.565631 85.127662 17.573379
30.078624 81.849221 19.012096
29.838819 83.518265 18.216793
29.770018 82.312348 20.164684
28.166237 82.599144 26.347291
28.084036 81.276241 28.078721
18.13552 104.479439 1.802312
18.017656 105.107796 0.085716
17.180833 104.677445 1.141253
20.046087 103.039879 5.202483
19.268373 102.618213 6.272589
20.152004 102.204906 6.996438
20.844566 103.420345 3.993159
19.960936 103.833652 3.26931
20.046087 103.039879 5.202483
21.567426 103.598808 3.019745
20.844566 103.420345 3.993159
21.057357 99.76688 11.571748
20.215301 100.330509 10.681843
20.249327 99.266365 12.610004
21.778319 97.998356 14.396765
21.064008 97.612263 15.24204
21.750944 96.907883 16.138897
21.800215 99.093556 12.473355
21.778319 97.998356 14.396765
21.057357 99.76688 11.571748
21.800215 99.093556 12.473355
27.18227 89.588978 20.346731
26.633178 89.745598 21.352713
27.564985 88.176029 21.219391
27.18227 89.588978 20.346731
27.49716 86.959186 23.008563
27.975074 86.761451 21.953353
27.564985 88.176029 21.219391
24.178768 90.699222 23.396338
23.605151 91.82642 22.42105
24.793423 89.604851 24.264789
24.178768 90.699222 23.396338
24.058788 89.415875 25.100664
25.329717 88.4208 25.070988
25.449697 89.704148 23.366662
24.793423 89.604851 24.264789
26.812156 84.35913 27.639023
26.369171 85.789074 26.740634
26.264451 84.421001 28.462294
27.217056 82.88158 28.413188
27.321776 84.249652 26.691527
26.812156 84.35913 27.639023
27.626645 81.385742 29.168252
27.217056 82.88158 28.413188
27.012271 80.059067 31.746402
26.602683 81.554905 30.991339
26.918485 78.659276 33.299063
27.012271 80.059067 31.746402
26.750932 77.136235 34.939501
26.918485 78.659276 33.299063
26.330376 78.595711 34.262432
26.603502 75.516159 36.632444
26.750932 77.136235 34.939501
26.414699 73.929524 38.197252
26.603502 75.516159 36.632444
25.97402 75.486035 37.467678
26.21255 72.285374 39.816873
26.414699 73.929524 38.197252
10.059549 90.582538 19.440663
10.105083 91.763534 18.061778
10.863316 90.312931 20.386898
10.059549 90.582538 19.440663
10.031624 89.335174 20.876283
11.71566 90.125954 21.25153
11.743585 91.373317 19.815908
10.863316 90.312931 20.386898
12.526262 89.870197 22.129697
11.71566 90.125954 21.25153
11.645993 88.80981 22.700686
12.253618 87.158802 24.918619
11.449736 87.51839 23.959302
13.190703 88.174194 24.480154
12.253618 87.158802 24.918619
12.987725 86.778942 25.81992
13.378334 83.287556 29.605331
12.543774 83.77266 28.576802
14.303168 84.264691 29.235914
13.378334 83.287556 29.605331
15.277931 85.210781 28.854363
14.509631 85.780129 27.818159
14.303168 84.264691 29.235914
16.217571 86.070339 28.486167
15.277931 85.210781 28.854363
16.011108 84.554901 29.903923
18.095723 76.443203 38.288166
17.810677 74.600537 39.681093
19.019487 77.235405 37.906555
18.36744 78.250629 36.819767
18.095723 76.443203 38.288166
25.995126 70.588398 41.352608
26.21255 72.285374 39.816873
25.567792 72.202423 40.56822
16.92895 62.674366 47.827841
16.30097 63.627553 46.932464
17.565465 61.471222 48.826861
18.201535 60.414438 49.708912
17.8848 63.443195 47.733151
16.92895 62.674366 47.827841
17.565465 61.471222 48.826861
19.82844 54.820381 53.298593
18.976575 54.071356 53.49424
20.043194 56.645124 52.325451
19.82844 54.820381 53.298593
20.718864 55.475935 53.090108
21.77673 57.837717 51.783336
21.589394 55.938211 52.873699
22.432507 56.475251 52.54007
25.838769 68.95235 42.770485
25.17559 68.661236 43.581204
25.663991 67.108139 44.247734
25.995126 70.588398 41.352608
25.838769 68.95235 42.770485
26.982619 62.402195 46.055307
26.558191 64.057419 45.447601
26.426863 62.265423 46.819616
29.940818 86.920204 12.571662
29.914118 85.806545 14.512629
29.940818 86.920204 12.571662
30.285417 86.218609 11.392077
3 126 33 127
3 0 36 34
3 0 38 36
3 1 41 39
3 3 44 42
3 3 46 44
3 1 128 129
3 1 130 132
3 130 39 131
3 130 131 132
3 4 133 135
3 135 134 48
3 133 134 135
3 2 52 50
3 137 136 53
3 5 56 54
3 5 58 56
3 6 62 60
3 6 64 62
3 138 65 139
3 138 139 140
3 141 67 142
3 143 69 144
3 145 144 67
3 143 144 145
3 147 146 69
3 8 148 149
3 8 150 151
3 9 74 72
3 11 75 35
3 11 76 75
3 11 78 76
3 13 79 37
3 13 80 79
3 15 152 154
3 152 81 153
3 152 153 154
3 15 82 81
3 16 85 83
3 18 86 40
3 18 87 86
3 7 88 71
3 19 89 43
3 19 90 89
3 19 91 90
3 20 92 45
3 20 93 92
3 21 155 156
3 21 157 158
3 21 159 160
3 16 94 47
3 16 83 94
3 161 95 162
3 163 96 164
3 165 164 49
3 163 164 165
3 167 166 96
3 17 97 84
3 169 168 51
3 10 98 73
3 22 170 172
3 170 99 171
3 170 171 172
3 22 100 99
3 12 101 77
3 23 102 55
3 23 173 175
3 175 174 102
3 173 174 175
3 23 176 178
3 176 103 177
3 176 177 178
3 24 104 57
3 24 105 104
3 179 106 180
3 25 181 183
3 181 107 182
3 181 182 183
3 25 108 107
3 26 184 185
3 26 186 188
3 186 109 187
3 186 187 188
3 26 110 109
3 27 111 59
3 27 112 111
3 14 189 191
3 189 113 190
3 189 190 191
3 28 114 61
3 28 115 114
3 28 116 115
3 29 117 63
3 29 118 117
3 30 192 194
3 192 119 193
3 192 193 194
3 30 120 119
3 195 121 196
3 31 122 66
3 31 123 122
3 31 124 123
3 32 125 68
3 32 197 199
3 199 198 125
3 197 198 199
3 32 200 201
3 204 203 70
3 202 203 204
3 33 205 206
3 33 207 209
3 207 8 208
3 207 208 209
3 34 35 9
3 36 35 34
3 36 11 35
3 36 37 11
3 38 37 36
3 38 13 37
3 210 15 211
3 39 40 16
3 41 40 39
3 41 18 40
3 42 43 7
3 44 43 42
3 44 19 43
3 44 45 19
3 46 45 44
3 46 20 45
3 212 21 213
3 214 47 215
3 216 215 21
3 214 215 216
3 39 217 219
3 217 47 218
3 217 218 219
3 39 16 47
3 48 220 222
3 220 49 221
3 220 221 222
3 223 49 224
3 225 224 48
3 223 224 225
3 227 226 49
3 50 51 17
3 52 51 50
3 52 228 230
3 230 229 51
3 228 229 230
3 53 231 233
3 233 232 10
3 231 232 233
3 235 234 53
3 236 22 237
3 54 55 12
3 56 55 54
3 56 23 55
3 56 57 23
3 58 57 56
3 58 24 57
3 238 25 239
3 240 26 241
3 242 59 243
3 244 243 26
3 242 243 244
3 245 59 246
3 247 27 248
3 249 248 59
3 247 248 249
3 60 61 14
3 62 61 60
3 62 28 61
3 62 63 28
3 64 63 62
3 64 29 63
3 65 250 251
3 65 252 254
3 252 30 253
3 252 253 254
3 255 66 256
3 67 257 259
3 257 66 258
3 257 258 259
3 67 31 66
3 67 68 31
3 69 68 67
3 69 32 68
3 69 260 262
3 262 261 32
3 260 261 262
3 264 263 69
3 265 70 266
3 267 70 268
3 267 268 269
3 272 271 70
3 270 271 272
3 273 71 274
3 275 274 1
3 273 274 275
3 276 71 277
3 278 7 279
3 280 279 71
3 278 279 280
3 281 7 282
3 283 42 284
3 285 284 7
3 283 284 285
3 286 42 287
3 288 3 289
3 290 289 42
3 288 289 290
3 291 1 292
3 294 293 4
3 72 73 2
3 74 73 72
3 74 10 73
3 35 74 9
3 75 74 35
3 75 10 74
3 75 53 10
3 76 53 75
3 76 295 297
3 297 296 53
3 295 296 297
3 76 298 300
3 298 77 299
3 298 299 300
3 78 77 76
3 78 12 77
3 37 78 11
3 79 78 37
3 79 12 78
3 79 54 12
3 80 54 79
3 80 5 54
3 301 14 302
3 81 303 304
3 81 305 307
3 305 14 306
3 305 306 307
3 81 60 14
3 82 60 81
3 82 6 60
3 83 308 310
3 308 84 309
3 308 309 310
3 85 84 83
3 85 17 84
3 40 85 16
3 86 85 40
3 86 17 85
3 86 50 17
3 87 50 86
3 87 2 50
3 71 41 1
3 88 41 71
3 88 18 41
3 43 88 7
3 89 88 43
3 89 18 88
3 89 87 18
3 90 87 89
3 90 2 87
3 90 72 2
3 91 72 90
3 91 9 72
3 45 91 19
3 92 91 45
3 92 9 91
3 92 34 9
3 93 34 92
3 93 0 34
3 47 311 313
3 313 312 21
3 311 312 313
3 94 314 316
3 316 315 47
3 314 315 316
3 94 317 318
3 94 319 320
3 83 321 323
3 323 322 94
3 321 322 323
3 83 324 325
3 95 326 327
3 95 328 329
3 49 330 332
3 330 95 331
3 330 331 332
3 96 95 49
3 96 333 335
3 335 334 95
3 333 334 335
3 96 336 337
3 340 339 96
3 338 339 340
3 342 341 4
3 84 343 345
3 343 33 344
3 343 344 345
3 97 33 84
3 97 8 33
3 51 97 17
3 346 97 347
3 348 347 51
3 346 347 348
3 349 8 350
3 351 350 97
3 349 350 351
3 353 352 8
3 73 52 2
3 98 52 73
3 98 354 356
3 356 355 52
3 354 355 356
3 357 98 358
3 359 358 10
3 357 358 359
3 360 98 361
3 363 362 98
3 99 364 365
3 99 366 367
3 99 368 370
3 368 48 369
3 368 369 370
3 100 48 99
3 100 4 48
3 77 371 372
3 101 373 375
3 375 374 77
3 373 374 375
3 101 376 378
3 376 22 377
3 376 377 378
3 55 101 12
3 102 101 55
3 102 22 101
3 102 100 22
3 379 100 380
3 381 380 102
3 379 380 381
3 382 4 383
3 384 383 100
3 382 383 384
3 386 385 4
3 103 387 388
3 103 389 390
3 57 103 23
3 104 103 57
3 104 391 393
3 393 392 103
3 391 392 393
3 104 394 395
3 105 396 398
3 398 397 104
3 396 397 398
3 105 399 400
3 401 3 402
3 403 3 404
3 403 404 405
3 406 46 407
3 408 407 3
3 406 407 408
3 106 409 411
3 409 46 410
3 409 410 411
3 106 20 46
3 412 106 413
3 107 414 416
3 414 106 415
3 414 415 416
3 107 20 106
3 107 93 20
3 108 93 107
3 108 0 93
3 417 25 418
3 419 25 420
3 421 108 422
3 423 422 25
3 421 422 423
3 109 424 426
3 424 108 425
3 424 425 426
3 109 0 108
3 109 38 0
3 110 38 109
3 110 13 38
3 59 110 26
3 111 110 59
3 111 13 110
3 111 80 13
3 112 80 111
3 112 5 80
3 113 427 428
3 113 429 431
3 429 27 430
3 429 430 431
3 61 113 14
3 114 113 61
3 114 27 113
3 114 112 27
3 115 112 114
3 115 5 112
3 115 58 5
3 116 58 115
3 116 24 58
3 63 116 28
3 117 116 63
3 117 24 116
3 117 105 24
3 118 105 117
3 118 432 434
3 434 433 105
3 432 433 434
3 435 15 436
3 119 437 438
3 119 439 441
3 439 15 440
3 439 440 441
3 119 82 15
3 120 82 119
3 120 6 82
3 442 65 443
3 121 444 446
3 444 65 445
3 444 445 446
3 121 30 65
3 66 447 449
3 447 121 448
3 447 448 449
3 122 121 66
3 122 30 121
3 122 120 30
3 123 120 122
3 123 6 120
3 123 64 6
3 124 64 123
3 124 29 64
3 68 124 31
3 125 124 68
3 125 29 124
3 125 118 29
3 450 118 451
3 452 451 125
3 450 451 452
3 454 453 118
3 457 456 32
3 455 456 457
3 70 458 459
3 461 460 70
