ply
format ascii 1.0
element vertex 720
property float x
property float y
property float z
element face 605
property list uchar int vertex_index
end_header
6.71544 -90.80027 12.810859
-11.479445 -64.831635 -47.242298
-1.088017 -79.792175 -43.532417
-11.001259 -77.69043 -43.186172
-13.840785 -91.124298 -16.600214
-16.699186 -87.438637 -24.742283
-9.650433 -93.303276 -7.509133
5.405323 -94.311111 7.394632
-6.426416 -72.700928 -45.408051
-1.73701 -73.077301 -44.709534
-6.781259 -65.37056 -46.860241
-7.210773 -57.835186 -48.236122
-2.975256 -90.765991 6.865397
-11.770905 -92.605118 -12.236908
-20.419228 -81.585022 -24.612211
-17.735985 -84.950386 -28.597164
-10.434052 -91.04084 -34.601368
-6.004094 -79.255928 -43.774742
-11.123042 -71.487617 -45.373695
-11.830182 -94.147476 -20.831543
-15.479136 -89.400826 -20.750246
-18.990723 -84.002075 -20.336899
1.037653 -92.742287 6.815278
-13.919643 -90.553543 -28.0872
-14.472732 -88.062889 -31.839426
-15.45074 -80.579834 -38.731098
-15.622813 -75.745621 -41.756474
-8.868196 -68.909569 -46.30875
-6.791616 -68.867119 -46.21933
-9.180356 -65.132454 -47.167278
-9.184661 -61.739174 -47.874416
-10.70395 -85.386665 -39.319492
-2.082812 -69.388306 -45.260876
0.418884 -72.727486 -44.168541
-0.516142 -88.956726 -41.073612
-5.947546 -82.149307 -42.86507
-8.486318 -78.594826 -43.583405
-8.754559 -75.393188 -44.576591
-11.018495 -74.744629 -44.306595
-12.856139 -92.695045 -18.73209
-13.690388 -91.83149 -20.672955
-14.667053 -90.351646 -18.66708
-18.098349 -85.250694 -18.31801
1.971608 -91.258972 9.385991
0.058957 -90.535652 9.194467
-4.177681 -91.708298 4.430247
-2.111796 -92.980072 4.203487
-3.034714 -93.994408 1.721347
-10.588598 -91.422569 -4.880975
-9.537365 -91.54068 -2.727271
-8.407208 -93.600471 -5.313007
-8.690336 -95.097504 -10.144952
-12.880303 -91.884872 -14.484056
-10.976186 -94.13591 -14.854177
-11.845257 -93.596695 -16.887865
-11.037823 -94.843597 -18.976793
-14.88046 -90.0868 -24.597361
-13.488619 -91.648651 -26.313354
-15.464643 -88.898247 -26.535988
-18.171942 -83.524422 -30.48822
-16.11002 -86.623817 -30.317049
-16.497889 -85.095375 -32.13995
-14.782145 -86.476616 -33.609962
-17.620592 -77.24292 -39.08226
-15.707624 -78.035034 -40.314842
12.329015 -91.487717 15.307596
4.500126 -95.767937 4.75315
-3.833673 -76.211472 -44.519989
-1.334983 -76.621651 -44.116459
-4.078916 -72.765564 -45.184956
-4.40976 -69.274391 -45.808556
-4.524995 -65.826317 -46.346069
-4.761484 -61.883659 -46.963612
-7.070065 -61.655396 -47.549168
-9.481711 -57.739536 -48.713139
-2.973127 -90.949799 -39.777489
-3.11145 -88.358376 -40.987804
-5.691044 -87.553223 -40.661739
-10.759895 -80.605408 -41.999779
-14.658983 -89.571884 -14.212287
-15.626995 -88.68013 -16.372269
-4.951408 -89.536736 7.150014
-6.127394 -90.357445 4.744124
-10.784862 -92.979858 -9.893472
-18.572491 -84.563293 -24.67745
-17.390522 -86.03418 -26.690254
-19.258316 -83.137505 -26.677191
-10.516444 -89.313278 -36.329231
0.749159 -76.46859 -43.667942
3.0146 -76.006126 -43.01355
-5.180735 -57.659626 -47.708118
12.739014 -89.515724 18.208704
11.048181 -89.523201 17.198641
-0.999648 -83.000717 -42.846344
-3.290149 -85.550964 -42.063587
-3.43031 -82.726189 -42.953884
-3.694414 -79.411659 -43.815746
-6.333854 -75.93679 -44.650303
-8.734094 -72.284569 -45.465984
-11.303862 -68.182198 -46.338673
-12.565663 -93.313286 -22.707804
-14.292293 -91.062042 -22.634031
-16.106276 -88.497108 -22.745331
-16.39819 -87.891342 -18.571758
-17.226692 -86.814911 -20.653742
-17.901941 -85.776772 -22.669811
-19.640358 -82.988014 -22.549618
3.226453 -93.550575 7.086451
2.296817 -94.905441 4.55631
-0.97543 -91.817787 6.775949
-7.294092 -90.936905 2.330425
-8.426311 -91.33004 -0.159474
-9.792207 -94.793877 -12.626728
-8.827577 -96.366295 -15.101625
-15.801844 -87.85743 -28.402931
-14.144505 -89.493286 -29.965118
-12.448741 -90.859703 -31.505774
-12.602352 -89.52639 -33.268539
-12.629021 -88.121216 -34.996841
-12.856964 -86.158356 -36.742882
-13.015305 -84.052261 -38.391628
-13.297605 -81.798569 -39.779968
-13.215068 -79.517677 -41.229565
-13.465159 -76.723671 -42.534504
-15.807659 -72.784645 -43.167927
-13.412255 -74.007286 -43.773075
12.087263 -80.644897 -38.478718
7.329822 -91.8941 11.769035
7.692485 -91.007076 13.153858
6.31255 -91.648937 11.474076
7.329822 -91.8941 11.769035
-11.52999 -63.004614 -47.699072
-10.380446 -63.155023 -47.661562
-10.329901 -64.982045 -47.204788
-10.617539 -86.472981 -38.587263
-9.464175 -87.013172 -39.053028
0.163281 -79.973194 -43.27344
0.194195 -81.579803 -42.997299
-0.928579 -69.284592 -44.916277
-2.228552 -67.490464 -45.526717
-0.518449 -90.288014 -40.519356
0.758593 -90.493911 -40.518413
-9.743789 -78.142628 -43.384788
-8.383146 -80.064942 -43.058842
-9.640617 -79.612743 -42.860225
-0.400581 -89.362602 10.440111
0.49741 -89.750805 10.450549
-4.133045 -93.23264 1.892476
-3.606197 -92.851353 3.075797
-4.704529 -92.089585 3.246925
-3.631931 -94.29498 0.522521
-4.133045 -93.23264 1.892476
-8.543861 -94.360275 -7.700783
-7.922249 -94.508872 -6.60272
-9.028821 -93.451874 -6.41107
-9.170385 -94.20039 -8.827043
-8.063813 -95.257389 -9.018692
-8.543861 -94.360275 -7.700783
-17.554668 -83.447605 -32.319097
-17.334916 -84.309899 -31.314085
-18.391695 -82.662128 -31.493232
-16.6573 -84.260102 -33.053612
-17.554668 -83.447605 -32.319097
-18.811875 -75.35099 -39.254514
-18.621976 -76.597133 -38.433471
-18.947126 -74.024746 -40.062882
-17.755843 -75.916675 -39.890627
-18.811875 -75.35099 -39.254514
12.065694 -92.431881 13.868304
11.415904 -91.413887 14.882147
6.080422 -95.391616 6.270094
6.377896 -94.530063 7.685323
4.952725 -95.039524 6.073891
5.627823 -96.12003 4.949353
6.080422 -95.391616 6.270094
-10.544727 -57.678381 -48.855002
-9.333186 -59.739355 -48.293777
-10.396202 -59.6782 -48.43564
-10.57918 -55.858269 -49.277554
-10.544727 -57.678381 -48.855002
-4.27588 -90.478836 -39.563483
-2.986632 -92.060162 -39.118622
-5.634838 -88.780549 -40.005607
-4.332085 -89.251511 -40.219614
-4.27588 -90.478836 -39.563483
-10.74412 -81.910054 -41.326595
-9.484008 -82.403923 -41.685202
-15.578969 -88.237415 -14.019565
-15.049176 -88.730469 -12.937652
-5.964255 -88.884754 7.256209
-5.380707 -88.464912 8.39551
-6.552248 -89.295109 6.053265
-5.539401 -89.947091 5.947069
-5.964255 -88.884754 7.256209
-15.049176 -88.730469 -12.937652
-14.155091 -89.921036 -12.998088
-9.328973 -91.793011 -35.049197
-9.296933 -92.54031 -34.233774
-10.475248 -90.177059 -35.4653
-9.370169 -90.929229 -35.913128
-9.328973 -91.793011 -35.049197
2.856631 -74.245883 -43.207167
1.716742 -74.366806 -43.591045
1.558773 -72.606563 -43.784662
4.126329 -75.815033 -42.597441
2.856631 -74.245883 -43.207167
12.157315 -88.540336 19.16773
12.998428 -88.561737 19.650357
11.311898 -88.544075 18.662698
11.893597 -89.519463 17.703672
12.157315 -88.540336 19.16773
-0.911717 -84.507831 -42.444925
0.35321 -84.693901 -42.309645
-4.48458 -85.273338 -41.951597
-3.2008 -86.95467 -41.525695
-4.395231 -86.677044 -41.413705
-12.197923 -93.730381 -21.769673
-11.742522 -94.296456 -22.715624
-11.374782 -94.71355 -21.777493
-16.829451 -87.057308 -17.352976
-16.012593 -88.285736 -17.472013
-16.443854 -87.451702 -16.253232
-1.975343 -91.291889 6.820673
-1.446989 -90.675026 8.046589
-2.446903 -90.149128 8.091313
-0.988801 -93.47736 4.309411
-1.494565 -94.077042 2.965978
-8.33016 -90.07901 2.464646
-7.781144 -89.85931 3.667024
-7.960814 -92.330669 -1.520386
-8.981838 -91.43536 -1.443372
-8.516341 -92.43599 -2.804285
-7.366253 -92.205544 -0.310746
-7.960814 -92.330669 -1.520386
-9.362752 -96.055191 -16.107965
-9.901882 -95.251103 -14.977901
-10.437057 -94.939999 -15.984241
-8.378063 -97.039288 -16.295027
-9.362752 -96.055191 -16.107965
-10.938842 -95.145671 -20.978685
-10.542662 -95.493732 -20.05131
-11.434003 -94.495537 -19.904168
-11.374782 -94.71355 -21.777493
-10.938842 -95.145671 -20.978685
-12.977511 -91.810531 -27.929271
-12.761999 -92.358086 -27.042349
-13.704131 -91.101097 -27.200277
-13.013695 -91.393566 -28.873533
-12.977511 -91.810531 -27.929271
-13.787675 -86.483318 -35.180571
-13.705583 -87.298916 -34.303402
-14.864237 -85.661019 -34.487131
-13.901647 -85.501889 -36.053591
-12.742992 -87.139786 -35.869861
-13.787675 -86.483318 -35.180571
-15.24345 -81.786903 -37.933319
-16.450412 -80.012322 -38.070519
-14.233023 -82.316047 -38.561363
-14.025733 -83.523117 -37.763584
-15.24345 -81.786903 -37.933319
-15.922441 -71.329696 -43.774818
-17.042292 -70.874256 -43.385168
-14.724739 -71.941017 -44.077393
-14.609957 -73.395965 -43.470501
-15.922441 -71.329696 -43.774818
-13.488455 -72.431114 -44.36569
-14.724739 -71.941017 -44.077393
11.76092 -78.842254 -38.6969
10.803611 -79.201595 -39.2533
5.657491 -93.404358 8.765962
6.377896 -94.530063 7.685323
-10.382598 -61.458383 -48.015131
-9.182509 -63.435814 -47.520847
-10.380446 -63.155023 -47.661562
-10.396202 -59.6782 -48.43564
-10.382598 -61.458383 -48.015131
-9.447786 -86.022862 -39.693754
-9.464175 -87.013172 -39.053028
-10.716147 -84.300682 -39.986452
-9.447786 -86.022862 -39.693754
-21.522528 -79.56292 -25.829324
-20.701297 -80.960743 -25.687414
-21.24046 -80.187198 -24.75412
-10.399841 -91.741013 -33.743376
-9.296933 -92.54031 -34.233774
0.322269 -70.954182 -44.370109
-0.831964 -71.057896 -44.714709
-0.928579 -69.284592 -44.916277
1.558773 -72.606563 -43.784662
0.322269 -70.954182 -44.370109
-7.336959 -55.839381 -48.629919
-8.341753 -55.874675 -48.864176
0.732654 -89.095135 -41.015346
0.758593 -90.493911 -40.518413
-0.669965 -87.485836 -41.55856
0.732654 -89.095135 -41.015346
-7.11376 -81.842182 -42.699675
-5.813279 -83.572509 -42.352339
-7.216932 -80.372066 -43.224238
-7.11376 -81.842182 -42.699675
-8.383146 -80.064942 -43.058842
-18.528669 -84.354805 -17.128929
-17.67953 -85.736984 -17.226102
-18.927461 -83.873516 -18.249803
-18.528669 -84.354805 -17.128929
-19.373648 -83.249206 -19.259247
-18.544536 -84.626385 -19.327455
-18.927461 -83.873516 -18.249803
-19.800116 -82.646843 -20.434119
-19.373648 -83.249206 -19.259247
1.453736 -90.112465 10.546311
2.406973 -90.502854 10.599123
1.015283 -90.897312 9.290229
1.453736 -90.112465 10.546311
0.49741 -89.750805 10.450549
-1.956024 -94.58421 1.724908
-1.494565 -94.077042 2.965978
-2.573255 -93.48724 2.962417
-2.518403 -95.04488 0.381817
-1.956024 -94.58421 1.724908
-2.518403 -95.04488 0.381817
-3.631931 -94.29498 0.522521
-10.062981 -91.481624 -3.804123
-10.520653 -90.51474 -2.518927
-11.046269 -90.455684 -3.595779
-7.951263 -93.465885 -4.097152
-8.516341 -92.43599 -2.804285
-8.972286 -92.570575 -4.020139
-7.370166 -94.503487 -5.449175
-7.951263 -93.465885 -4.097152
-7.370166 -94.503487 -5.449175
-7.922249 -94.508872 -6.60272
-7.564227 -96.115303 -10.284948
-8.063813 -95.257389 -9.018692
-8.207455 -95.934742 -11.460902
-7.564227 -96.115303 -10.284948
-10.871593 -94.670391 -17.001085
-10.437057 -94.939999 -15.984241
-11.410722 -93.866302 -15.871021
-11.44154 -94.220146 -17.932329
-10.467875 -95.293842 -18.045549
-10.871593 -94.670391 -17.001085
-14.184539 -90.867726 -25.455357
-13.324953 -92.029354 -25.431907
-14.020873 -91.248428 -24.57391
-15.799428 -84.950722 -33.788618
-15.640017 -85.785996 -32.874956
-16.6573 -84.260102 -33.053612
-14.864237 -85.661019 -34.487131
-15.799428 -84.950722 -33.788618
-17.535339 -78.343864 -38.246099
-18.621976 -76.597133 -38.433471
-16.535666 -78.911377 -38.906679
-16.450412 -80.012322 -38.070519
-17.535339 -78.343864 -38.246099
-16.799359 -76.312732 -40.506918
-16.664108 -77.638977 -39.698551
-17.755843 -75.916675 -39.890627
-16.756954 -75.168026 -41.227734
-15.665218 -76.890327 -41.035658
-16.799359 -76.312732 -40.506918
13.021623 -92.428887 14.332177
13.174877 -91.448017 15.77696
13.021623 -92.428887 14.332177
12.065694 -92.431881 13.868304
5.16207 -96.794277 3.632491
5.627823 -96.12003 4.949353
4.030889 -96.444844 3.408301
5.16207 -96.794277 3.632491
-3.449643 -65.709469 -46.069313
-2.228552 -67.490464 -45.526717
-3.303903 -67.607312 -45.803472
-4.643239 -63.854988 -46.65484
-3.567888 -63.73814 -46.378084
-3.449643 -65.709469 -46.069313
-9.477222 -55.82685 -49.102684
-8.341753 -55.874675 -48.864176
-8.346242 -57.787361 -48.474631
-9.477222 -55.82685 -49.102684
-10.57918 -55.858269 -49.277554
-1.699669 -92.514446 -39.239708
-2.986632 -92.060162 -39.118622
-1.746941 -91.28455 -39.871294
-1.699669 -92.514446 -39.239708
-3.042288 -89.654088 -40.382646
-1.816103 -89.988838 -40.476451
-1.746941 -91.28455 -39.871294
-5.685028 -86.274468 -41.250673
-4.395231 -86.677044 -41.413705
-4.401247 -87.9558 -40.824771
-6.941332 -87.106141 -40.364877
-5.634838 -88.780549 -40.005607
-6.949582 -85.877831 -41.016182
-6.941332 -87.106141 -40.364877
-5.685028 -86.274468 -41.250673
-6.949582 -85.877831 -41.016182
-9.519934 -81.070233 -42.267029
-9.484008 -82.403923 -41.685202
-10.880577 -79.147919 -42.592975
-9.640617 -79.612743 -42.860225
-9.519934 -81.070233 -42.267029
-16.062975 -87.791538 -15.099556
-15.142989 -89.126007 -15.292278
-15.578969 -88.237415 -14.019565
-16.443854 -87.451702 -16.253232
-16.062975 -87.791538 -15.099556
-3.459923 -89.547604 8.255582
-2.446903 -90.149128 8.091313
-4.447999 -88.932976 8.397891
-5.380707 -88.464912 8.39551
-3.963332 -90.151364 7.007706
-3.459923 -89.547604 8.255582
-4.447999 -88.932976 8.397891
-5.679386 -91.414158 3.403864
-4.704529 -92.089585 3.246925
-5.152537 -91.032871 4.587186
-11.571516 -90.327522 -4.70685
-11.046269 -90.455684 -3.595779
-12.029187 -89.360637 -3.421653
-11.112903 -91.300835 -6.018661
-11.571516 -90.327522 -4.70685
-12.095821 -90.205787 -5.844535
-10.64382 -92.241188 -7.33274
-10.119515 -92.362922 -6.195054
-11.112903 -91.300835 -6.018661
-11.211035 -92.079479 -8.524909
-10.217647 -93.141567 -8.701303
-10.64382 -92.241188 -7.33274
-11.767467 -91.836021 -9.687925
-11.211035 -92.079479 -8.524909
-12.260489 -91.648651 -10.859643
-11.277884 -92.792488 -11.06519
-11.767467 -91.836021 -9.687925
-12.711051 -91.437653 -12.010398
-12.260489 -91.648651 -10.859643
-13.26575 -91.077529 -13.133972
-12.325604 -92.244995 -13.360482
-12.711051 -91.437653 -12.010398
-13.769643 -90.728378 -14.348171
-13.26575 -91.077529 -13.133972
-14.155091 -89.921036 -12.998088
-20.120841 -81.736985 -26.719904
-19.838772 -82.361264 -25.644701
-20.701297 -80.960743 -25.687414
-19.481005 -82.511204 -27.682327
-20.120841 -81.736985 -26.719904
-18.719839 -83.417644 -28.642314
-18.497151 -84.043946 -27.637177
-19.481005 -82.511204 -27.682327
-18.937818 -82.704662 -29.587842
-17.953964 -84.237404 -29.542692
-18.719839 -83.417644 -28.642314
-19.141855 -81.985821 -30.60494
-18.937818 -82.704662 -29.587842
-18.391695 -82.662128 -31.493232
-19.141855 -81.985821 -30.60494
-9.275775 -90.111255 -36.760982
-9.370169 -90.929229 -35.913128
-10.523786 -88.436287 -37.092133
-9.275775 -90.111255 -36.760982
0.039798 -78.387932 -43.565461
0.163281 -79.973194 -43.27344
-1.2115 -78.206913 -43.824438
1.08187 -78.311402 -43.341202
0.039798 -78.387932 -43.565461
-0.292912 -76.54512 -43.892201
2.142057 -78.074959 -43.079628
1.08187 -78.311402 -43.341202
3.274777 -77.843727 -42.752432
2.142057 -78.074959 -43.079628
1.88188 -76.237358 -43.340746
4.352781 -77.592166 -42.388864
4.612959 -79.429767 -42.127747
3.274777 -77.843727 -42.752432
4.352781 -77.592166 -42.388864
4.126329 -75.815033 -42.597441
-3.774764 -61.755479 -46.679083
-3.567888 -63.73814 -46.378084
-3.984389 -59.643463 -47.051336
-3.774764 -61.755479 -46.679083
-4.97111 -59.771642 -47.335865
-4.113902 -57.742435 -47.339865
-3.984389 -59.643463 -47.051336
-6.32194 -55.751601 -48.365917
-6.195754 -57.747406 -47.97212
-7.336959 -55.839381 -48.629919
-5.266865 -55.822147 -48.031932
-6.32194 -55.751601 -48.365917
-4.113902 -57.742435 -47.339865
-5.266865 -55.822147 -48.031932
13.619996 -89.493927 18.676089
13.879411 -88.53994 20.117742
12.998428 -88.561737 19.650357
13.379876 -90.462021 17.227514
13.619996 -89.493927 18.676089
12.534014 -90.501721 16.75815
13.174877 -91.448017 15.77696
13.379876 -90.462021 17.227514
10.775487 -90.431629 15.827669
11.415904 -91.413887 14.882147
11.688598 -90.505459 16.253118
10.396324 -88.468018 18.148022
11.311898 -88.544075 18.662698
10.660042 -87.488891 19.61208
10.090139 -89.404724 16.73847
10.396324 -88.468018 18.148022
9.438282 -88.349541 17.687852
9.817445 -90.313152 15.367498
10.775487 -90.431629 15.827669
10.090139 -89.404724 16.73847
7.096673 -89.913708 14.167644
7.692485 -91.007076 13.153858
8.073718 -90.120514 14.510642
0.23838 -83.184074 -42.654263
0.35321 -84.693901 -42.309645
-1.043832 -81.396446 -43.18938
0.194195 -81.579803 -42.997299
0.23838 -83.184074 -42.654263
-1.813796 -88.657551 -41.030708
-0.518449 -90.288014 -40.519356
-1.816103 -89.988838 -40.476451
-2.056968 -85.782955 -42.053547
-0.669965 -87.485836 -41.55856
-1.903145 -87.253845 -41.568599
-4.618848 -83.850135 -42.464329
-4.48458 -85.273338 -41.951597
-5.813279 -83.572509 -42.352339
-2.127048 -84.370567 -42.498695
-2.056968 -85.782955 -42.053547
-3.360229 -84.138576 -42.508736
-2.214979 -82.863453 -42.900114
-0.911717 -84.507831 -42.444925
-2.127048 -84.370567 -42.498695
-12.024884 -93.92564 -23.510301
-11.742522 -94.296456 -22.715624
-12.863475 -92.861671 -23.629131
-12.024884 -93.92564 -23.510301
-13.72679 -91.73605 -23.592245
-12.863475 -92.861671 -23.629131
-13.428978 -92.187664 -22.670918
-14.586377 -90.574421 -23.615696
-14.020873 -91.248428 -24.57391
-13.72679 -91.73605 -23.592245
-17.248269 -86.571018 -18.444884
-16.829451 -87.057308 -17.352976
-17.67953 -85.736984 -17.226102
-20.124933 -82.139813 -21.540478
-19.31554 -83.495045 -21.443258
-19.800116 -82.646843 -20.434119
-20.535094 -81.474709 -22.570551
-20.124933 -82.139813 -21.540478
-20.924529 -80.773212 -23.601847
-20.029793 -82.286518 -23.580914
-20.535094 -81.474709 -22.570551
-21.24046 -80.187198 -24.75412
-20.924529 -80.773212 -23.601847
6.147498 -89.663319 13.871785
7.096673 -89.913708 14.167644
5.729754 -90.527366 12.553195
6.147498 -89.663319 13.871785
5.326863 -91.376034 11.216411
6.31255 -91.648937 11.474076
5.729754 -90.527366 12.553195
4.75212 -93.165493 8.529756
5.657491 -93.404358 8.765962
3.035262 -91.639423 9.525436
3.470627 -90.883305 10.738567
2.406973 -90.502854 10.599123
3.662685 -92.785225 8.375666
3.035262 -91.639423 9.525436
2.599031 -92.404774 8.236221
4.315888 -93.930843 7.240541
4.75212 -93.165493 8.529756
3.662685 -92.785225 8.375666
2.929234 -96.013596 3.309881
4.030889 -96.444844 3.408301
3.398471 -95.336689 4.65473
-0.929796 -90.033958 9.255847
-0.400581 -89.362602 10.440111
-1.389334 -88.860908 10.501492
-0.458236 -91.176719 7.985208
-0.929796 -90.033958 9.255847
-1.446989 -90.675026 8.046589
-0.420619 -92.896218 5.595641
-1.543613 -92.39893 5.489718
-0.988801 -93.47736 4.309411
0.585923 -93.358468 5.615306
0.031111 -92.280037 6.795613
-0.420619 -92.896218 5.595641
1.215505 -94.440044 4.485822
1.667235 -93.823864 5.685794
0.585923 -93.358468 5.615306
1.785493 -95.517082 3.249081
1.215505 -94.440044 4.485822
2.929234 -96.013596 3.309881
1.785493 -95.517082 3.249081
-7.197795 -89.56958 4.873874
-6.552248 -89.295109 6.053265
-6.710743 -90.647175 3.537275
-7.197795 -89.56958 4.873874
-7.781144 -89.85931 3.667024
-6.262735 -91.703888 2.197014
-5.679386 -91.414158 3.403864
-6.710743 -90.647175 3.537275
-9.938832 -90.582154 -1.367211
-10.92212 -89.556213 -1.158866
-10.520653 -90.51474 -2.518927
-9.383305 -90.476833 -0.083312
-9.938832 -90.582154 -1.367211
-8.981838 -91.43536 -1.443372
-8.896269 -90.275577 1.219696
-9.383305 -90.476833 -0.083312
-7.860202 -91.133472 1.085476
-8.33016 -90.07901 2.464646
-8.896269 -90.275577 1.219696
-6.800143 -92.008976 0.934204
-7.860202 -91.133472 1.085476
-7.366253 -92.205544 -0.310746
-6.262735 -91.703888 2.197014
-6.800143 -92.008976 0.934204
-8.75839 -95.782928 -12.70179
-8.207455 -95.934742 -11.460902
-9.241271 -94.94569 -11.38584
-8.276075 -96.569137 -13.939239
-8.75839 -95.782928 -12.70179
-9.309892 -95.580086 -13.864176
-7.706209 -97.406757 -15.25514
-8.276075 -96.569137 -13.939239
-7.706209 -97.406757 -15.25514
-8.378063 -97.039288 -16.295027
-10.039682 -95.902393 -19.165087
-10.467875 -95.293842 -18.045549
-10.039682 -95.902393 -19.165087
-10.542662 -95.493732 -20.05131
-12.624067 -92.784809 -26.13046
-13.324953 -92.029354 -25.431907
-12.624067 -92.784809 -26.13046
-12.761999 -92.358086 -27.042349
-13.126126 -90.863438 -29.812492
-13.013695 -91.393566 -28.873533
-14.032074 -90.023415 -29.026159
-12.278244 -91.546646 -30.58282
-13.126126 -90.863438 -29.812492
-13.296623 -90.176494 -30.735446
-11.378402 -92.267349 -31.250851
-12.278244 -91.546646 -30.58282
-11.407186 -91.650444 -32.195579
-11.378402 -92.267349 -31.250851
-11.483991 -90.983788 -33.076961
-11.407186 -91.650444 -32.195579
-12.525547 -90.193047 -32.387156
-11.518202 -90.283615 -33.934953
-10.399841 -91.741013 -33.743376
-11.483991 -90.983788 -33.076961
-11.694046 -86.858826 -37.298958
-10.523786 -88.436287 -37.092133
-11.686704 -87.735817 -36.536057
-13.946562 -84.576165 -36.939211
-13.901647 -85.501889 -36.053591
-12.936134 -85.105309 -37.567255
-13.946562 -84.576165 -36.939211
-14.025733 -83.523117 -37.763584
-11.773217 -85.805779 -38.123331
-11.694046 -86.858826 -37.298958
-12.936134 -85.105309 -37.567255
-11.859628 -84.719463 -38.85556
-10.617539 -86.472981 -38.587263
-11.773217 -85.805779 -38.123331
-12.012975 -82.506634 -40.21669
-10.716147 -84.300682 -39.986452
-12.000778 -83.592617 -39.54973
-11.971706 -81.366188 -40.941489
-12.012975 -82.506634 -40.21669
-13.256336 -80.658123 -40.504767
-11.987482 -80.061543 -41.614672
-10.74412 -81.910054 -41.326595
-11.971706 -81.366188 -40.941489
-16.795728 -73.821877 -42.007439
-16.756954 -75.168026 -41.227734
-16.888151 -72.341388 -42.713166
-18.122784 -70.430999 -42.930407
-17.042292 -70.874256 -43.385168
-15.715236 -74.265133 -42.4622
-16.795728 -73.821877 -42.007439
-16.888151 -72.341388 -42.713166
-12.291575 -72.799785 -44.63245
-12.215375 -74.375957 -44.039835
-13.488455 -72.431114 -44.36569
-12.343849 -71.171279 -45.166
-11.070768 -73.116123 -44.840145
-12.291575 -72.799785 -44.63245
-12.380145 -69.626339 -45.705019
-12.343849 -71.171279 -45.166
-12.470555 -67.973629 -46.187508
-11.213452 -69.834907 -45.856184
-12.380145 -69.626339 -45.705019
-12.580979 -66.230263 -46.73172
-12.470555 -67.973629 -46.187508
-12.66877 -64.554981 -47.183532
-11.391654 -66.506917 -46.790486
-12.580979 -66.230263 -46.73172
-12.630683 -62.903094 -47.682684
-12.66877 -64.554981 -47.183532
-13.820008 -62.62644 -47.623919
-11.52999 -63.004614 -47.699072
-12.630683 -62.903094 -47.682684
11.231728 -81.087647 -38.962912
9.948076 -79.644344 -39.737493
10.803611 -79.201595 -39.2533
12.465979 -82.450977 -38.198561
11.610445 -82.893726 -38.682755
11.231728 -81.087647 -38.962912
12.878664 -80.082679 -37.950943
11.76092 -78.842254 -38.6969
12.552321 -78.280037 -38.169124
13.25593 -81.871009 -37.685128
12.878664 -80.082679 -37.950943
13.634646 -83.677089 -37.404971
12.465979 -82.450977 -38.198561
13.25593 -81.871009 -37.685128
3 0 127 128
3 0 129 130
3 1 29 27
3 1 131 133
3 133 132 29
3 131 132 133
3 134 31 135
3 2 136 137
3 139 138 32
3 140 34 141
3 3 142 144
3 142 36 143
3 142 143 144
3 3 38 36
3 4 41 39
3 145 44 146
3 147 47 148
3 149 148 45
3 147 148 149
3 151 150 47
3 6 50 48
3 6 152 154
3 154 153 50
3 152 153 154
3 6 155 157
3 155 51 156
3 155 156 157
3 4 54 52
3 4 39 54
3 5 58 56
3 158 61 159
3 160 159 59
3 158 159 160
3 162 161 61
3 163 63 164
3 167 166 63
3 165 166 167
3 169 168 65
3 7 170 171
3 7 172 174
3 172 66 173
3 172 173 174
3 8 69 67
3 10 70 28
3 10 71 70
3 10 73 71
3 175 74 176
3 177 176 30
3 175 176 177
3 179 178 74
3 180 75 181
3 182 77 183
3 184 183 75
3 182 183 184
3 185 78 186
3 188 187 79
3 189 81 190
3 191 82 192
3 193 192 81
3 191 192 193
3 194 79 195
3 14 86 84
3 16 196 197
3 16 198 200
3 198 87 199
3 198 199 200
3 9 88 68
3 201 89 202
3 203 202 33
3 201 202 203
3 205 204 89
3 11 90 72
3 206 91 207
3 208 92 209
3 210 209 91
3 208 209 210
3 211 93 212
3 213 94 214
3 215 214 76
3 213 214 215
3 17 95 35
3 17 96 95
3 17 97 96
3 18 98 37
3 18 99 98
3 19 216 218
3 216 100 217
3 216 217 218
3 20 101 40
3 20 102 101
3 219 103 220
3 221 220 80
3 219 220 221
3 21 104 42
3 21 105 104
3 21 106 105
3 22 107 43
3 22 108 107
3 12 222 224
3 222 109 223
3 222 223 224
3 226 225 46
3 227 110 228
3 229 111 230
3 231 230 49
3 229 230 231
3 233 232 111
3 13 112 83
3 234 113 235
3 236 235 53
3 234 235 236
3 238 237 113
3 19 239 241
3 241 240 55
3 239 240 241
3 19 242 243
3 23 244 246
3 246 245 57
3 244 245 246
3 23 247 248
3 15 114 85
3 24 115 60
3 24 116 115
3 24 117 116
3 249 118 250
3 251 250 62
3 249 250 251
3 252 119 253
3 254 253 118
3 252 253 254
3 25 255 256
3 25 257 259
3 257 120 258
3 257 258 259
3 25 121 120
3 26 122 64
3 26 123 122
3 260 124 261
3 262 125 263
3 264 263 124
3 262 263 264
3 266 265 125
3 267 126 268
3 269 7 270
3 27 28 8
3 29 28 27
3 29 10 28
3 29 30 10
3 271 30 272
3 273 272 29
3 271 272 273
3 275 274 30
3 31 276 277
3 31 278 279
3 282 281 14
3 280 281 282
3 283 16 284
3 32 33 9
3 285 33 286
3 287 286 32
3 285 286 287
3 289 288 33
3 291 290 11
3 34 292 293
3 34 294 295
3 296 35 297
3 36 298 300
3 298 35 299
3 298 299 300
3 36 17 35
3 36 37 17
3 38 37 36
3 38 18 37
3 39 40 19
3 41 40 39
3 41 20 40
3 301 42 302
3 303 42 304
3 305 21 306
3 307 306 42
3 305 306 307
3 309 308 21
3 310 43 311
3 44 312 314
3 312 43 313
3 312 313 314
3 44 22 43
3 45 46 12
3 47 46 45
3 47 315 317
3 317 316 46
3 315 316 317
3 47 318 319
3 321 320 47
3 48 322 324
3 322 49 323
3 322 323 324
3 50 49 48
3 50 325 327
3 327 326 49
3 325 326 327
3 50 328 329
3 331 330 50
3 51 332 333
3 51 334 335
3 52 53 13
3 54 53 52
3 54 336 338
3 338 337 53
3 336 337 338
3 54 339 341
3 339 55 340
3 339 340 341
3 39 55 54
3 39 19 55
3 56 342 344
3 342 57 343
3 342 343 344
3 58 57 56
3 58 23 57
3 59 60 15
3 61 60 59
3 61 24 60
3 61 62 24
3 345 62 346
3 347 346 61
3 345 346 347
3 349 348 62
3 63 350 351
3 63 352 354
3 352 25 353
3 352 353 354
3 63 64 25
3 355 64 356
3 357 356 63
3 355 356 357
3 358 26 359
3 360 359 64
3 358 359 360
3 65 361 362
3 364 363 65
3 66 365 366
3 66 367 368
3 67 68 2
3 69 68 67
3 69 9 68
3 28 69 8
3 70 69 28
3 70 9 69
3 70 32 9
3 71 32 70
3 71 369 371
3 371 370 32
3 369 370 371
3 71 372 374
3 372 72 373
3 372 373 374
3 73 72 71
3 73 11 72
3 30 73 10
3 74 73 30
3 74 11 73
3 74 375 377
3 377 376 11
3 375 376 377
3 379 378 74
3 75 380 381
3 75 382 383
3 75 384 386
3 384 76 385
3 384 385 386
3 77 76 75
3 77 387 389
3 389 388 76
3 387 388 389
3 390 77 391
3 392 77 393
3 395 394 77
3 78 396 397
3 78 398 400
3 398 3 399
3 398 399 400
3 79 80 4
3 401 80 402
3 403 402 79
3 401 402 403
3 405 404 80
3 406 12 407
3 81 408 409
3 81 410 412
3 410 12 411
3 410 411 412
3 81 45 12
3 82 45 81
3 82 413 415
3 415 414 45
3 413 414 415
3 416 48 417
3 416 417 418
3 419 48 420
3 419 420 421
3 422 6 423
3 424 423 48
3 422 423 424
3 425 83 426
3 427 426 6
3 425 426 427
3 428 83 429
3 430 13 431
3 432 431 83
3 430 431 432
3 433 13 434
3 435 52 436
3 437 436 13
3 435 436 437
3 79 438 440
3 438 52 439
3 438 439 440
3 79 4 52
3 84 85 5
3 86 85 84
3 86 15 85
3 441 86 442
3 443 442 14
3 441 442 443
3 444 86 445
3 446 15 447
3 448 447 86
3 446 447 448
3 449 59 450
3 451 450 15
3 449 450 451
3 452 59 453
3 455 454 59
3 87 456 457
3 87 458 459
3 68 460 462
3 462 461 2
3 460 461 462
3 88 463 465
3 465 464 68
3 463 464 465
3 88 466 467
3 33 88 9
3 89 88 33
3 89 468 470
3 470 469 88
3 468 469 470
3 89 471 473
3 471 472 473
3 475 474 89
3 72 476 477
3 90 478 480
3 480 479 72
3 478 479 480
3 90 481 482
3 483 90 484
3 485 484 11
3 483 484 485
3 486 90 487
3 489 488 90
3 91 490 492
3 490 491 492
3 91 493 494
3 91 495 497
3 495 65 496
3 495 496 497
3 92 65 91
3 92 498 500
3 500 499 65
3 498 499 500
3 501 92 502
3 501 502 503
3 504 92 505
3 504 505 506
3 509 508 92
3 507 508 509
3 510 0 511
3 510 511 512
3 93 513 514
3 93 515 517
3 515 2 516
3 515 516 517
3 76 518 520
3 518 34 519
3 518 519 520
3 94 34 76
3 94 521 523
3 523 522 34
3 521 522 523
3 35 524 526
3 524 94 525
3 524 525 526
3 95 94 35
3 95 527 529
3 529 528 94
3 527 528 529
3 95 530 532
3 530 93 531
3 530 531 532
3 96 93 95
3 96 2 93
3 96 67 2
3 97 67 96
3 97 8 67
3 37 97 17
3 98 97 37
3 98 8 97
3 98 27 8
3 99 27 98
3 99 1 27
3 100 533 534
3 100 535 536
3 40 100 19
3 101 100 40
3 101 537 539
3 539 538 100
3 537 538 539
3 101 540 542
3 540 56 541
3 540 541 542
3 102 56 101
3 102 5 56
3 80 41 4
3 103 41 80
3 103 20 41
3 42 543 545
3 543 103 544
3 543 544 545
3 104 103 42
3 104 20 103
3 104 102 20
3 105 102 104
3 105 5 102
3 105 84 5
3 106 84 105
3 106 14 84
3 546 106 547
3 548 547 21
3 546 547 548
3 549 106 550
3 551 14 552
3 553 552 106
3 551 552 553
3 555 554 14
3 556 0 557
3 558 0 559
3 562 561 0
3 560 561 562
3 563 7 564
3 43 565 567
3 565 566 567
3 107 568 570
3 570 569 43
3 568 569 570
3 107 571 573
3 571 7 572
3 571 572 573
3 107 66 7
3 108 66 107
3 108 574 576
3 576 575 66
3 574 575 576
3 577 44 578
3 577 578 579
3 109 580 582
3 580 44 581
3 580 581 582
3 109 22 44
3 46 109 12
3 583 109 584
3 585 584 46
3 583 584 585
3 586 22 587
3 588 587 109
3 586 587 588
3 589 108 590
3 591 590 22
3 589 590 591
3 592 108 593
3 595 594 108
3 596 82 597
3 110 598 600
3 598 82 599
3 598 599 600
3 110 601 603
3 603 602 82
3 601 602 603
3 49 604 606
3 604 605 606
3 111 607 609
3 609 608 49
3 607 608 609
3 111 610 611
3 111 612 614
3 612 110 613
3 612 613 614
3 615 110 616
3 617 616 111
3 615 616 617
3 619 618 110
3 83 51 6
3 112 51 83
3 112 620 622
3 622 621 51
3 620 621 622
3 53 112 13
3 113 112 53
3 113 623 625
3 625 624 112
3 623 624 625
3 113 626 627
3 629 628 113
3 55 630 631
3 633 632 55
3 57 634 635
3 637 636 57
3 85 58 5
3 114 58 85
3 114 23 58
3 60 114 15
3 115 114 60
3 115 23 114
3 115 638 640
3 640 639 23
3 638 639 640
3 116 641 643
3 643 642 115
3 641 642 643
3 116 644 645
3 116 646 647
3 117 648 650
3 650 649 116
3 648 649 650
3 117 651 653
3 651 16 652
3 651 652 653
3 62 117 24
3 118 117 62
3 118 16 117
3 118 87 16
3 119 87 118
3 119 654 656
3 656 655 87
3 654 655 656
3 657 119 658
3 120 659 661
3 659 119 660
3 659 660 661
3 120 662 664
3 664 663 119
3 662 663 664
3 120 665 667
3 665 31 666
3 665 666 667
3 121 31 120
3 121 668 670
3 670 669 31
3 668 669 670
3 64 121 25
3 122 121 64
3 122 671 673
3 673 672 121
3 671 672 673
3 122 674 676
3 674 78 675
3 674 675 676
3 123 78 122
3 123 3 78
3 677 26 678
3 124 679 681
3 679 680 681
3 124 682 684
3 682 26 683
3 682 683 684
3 124 123 26
3 125 123 124
3 125 3 123
3 125 38 3
3 685 38 686
3 687 686 125
3 685 686 687
3 688 18 689
3 690 689 38
3 688 689 690
3 691 18 692
3 693 99 694
3 695 694 18
3 693 694 695
3 696 99 697
3 698 1 699
3 700 699 99
3 698 699 700
3 701 1 702
3 701 702 703
3 705 704 1
3 126 706 708
3 706 707 708
3 126 709 711
3 709 710 711
3 712 126 713
3 712 713 714
3 715 126 716
3 719 718 126
3 717 718 719
