ply
format ascii 1.0
element vertex 523
property float x
property float y
property float z
element face 552
property list uchar int vertex_index
end_header
-33.306313 -9.364587 -17.582508
-22.699825 4.374025 -18.287949
-33.58823 -22.330196 -3.590874
-26.965027 -9.586326 -10.78345
-28.051201 -2.864251 -17.768002
-31.323875 -18.532808 0.788782
-28.060505 -15.014726 -5.002098
-32.72282 -16.633415 -10.516335
-38.384956 -8.600811 -24.766571
-34.640598 -1.701307 -25.035797
-29.504341 4.938723 -25.81354
-37.165417 -24.073114 -10.10365
-37.58604 -16.67696 -17.536863
-24.563931 -8.832864 -8.232061
-24.386044 -8.930233 -4.160193
-26.773281 -13.144411 -3.152482
-25.355312 -11.220985 -5.651246
-27.160284 -12.492417 -7.710477
-36.237854 -8.917751 -21.337856
-36.708424 -5.112305 -24.827965
-33.977333 -5.478679 -21.324968
-32.194401 -20.815424 -1.008101
-33.79435 -22.282486 2.2928
-34.591702 -24.40274 0.021694
-35.937847 -26.22089 -2.822922
-37.277473 -27.440422 -6.117321
-35.459194 -23.48773 -6.696714
-32.805031 -13.106665 -13.954384
-35.318722 -16.671288 -14.001791
-35.707573 -12.916404 -17.619143
-38.01524 -12.552472 -21.312368
-30.158056 -9.834822 -13.978119
-30.686367 -6.004763 -17.665159
-27.336052 -6.433951 -14.071551
-31.386702 -15.47874 2.30196
-28.784342 -14.43709 -0.559285
-29.362547 -16.929815 -2.170329
-30.812309 -18.581591 -4.287061
-32.872047 -19.579983 -7.132265
-30.063107 -16.036192 -7.439783
-29.922323 -13.096654 -10.700305
-35.259209 2.260363 -29.226114
-31.439205 -2.269812 -21.386208
-32.811111 5.731169 -29.798031
-35.201199 -20.23472 -10.35909
-37.328514 -20.503502 -13.939283
-23.564173 -8.003903 -5.246374
-24.712479 -10.161271 -4.82541
-24.135893 -9.259463 -5.964876
-24.883627 -10.114203 -6.858728
-34.80254 -9.082504 -19.455158
-35.053795 -7.132172 -21.231262
-33.61327 -7.367009 -19.472324
-32.767895 -21.5753 -2.219809
-33.434166 -22.597359 -0.550148
-34.132977 -23.577951 -1.74174
-35.260635 -25.424065 -1.296462
-34.850517 -24.275349 -3.217216
-35.652138 -24.920656 -4.751655
-34.489079 -22.908453 -5.162865
-33.092033 -11.312638 -15.78287
-34.350739 -12.987918 -15.854262
-34.573784 -11.072628 -17.649786
-35.969566 -10.939658 -19.4744
-28.577105 -9.855154 -12.321551
-28.8162 -8.10172 -14.118732
-27.189005 -8.110516 -12.435557
-27.294889 -14.181767 -3.994235
-28.058788 -15.075071 -2.64191
-28.605587 -15.990408 -3.578274
-30.027065 -17.896887 -3.043045
-29.474602 -16.872272 -4.60043
-30.424276 -17.465658 -5.795598
-28.979826 -15.657684 -6.055332
-27.077518 -11.224742 -9.183144
-28.440969 -12.884582 -9.098914
-28.410307 -11.416012 -10.639634
-29.944756 -11.505733 -12.265027
-35.707306 -3.351641 -24.922064
-35.967464 -1.281719 -26.944824
-34.988377 0.29642 -27.120441
-29.405161 -4.54632 -17.642887
-31.078365 -4.154015 -19.525454
-29.684305 -2.557502 -19.530064
-30.53479 1.360792 -23.578466
-32.57832 3.66153 -27.560131
-31.164164 5.263888 -27.682312
-31.259195 -17.146523 1.614359
-32.410866 -17.416765 3.106375
-32.411606 -18.944067 2.444937
-34.975918 -24.26828 3.064724
-37.196831 -25.765842 -8.185977
-37.913692 -27.901981 -7.993477
-37.944172 -26.140572 -10.042842
-37.953297 -24.274128 -11.920617
-32.794415 -18.246538 -8.792809
-34.138119 -20.119362 -8.661911
-33.9958 -18.431499 -10.394508
-36.49958 -16.58993 -15.819702
-36.426765 -18.496611 -14.087229
-37.515255 -18.705273 -15.812498
-38.261383 -20.716078 -15.72759
-38.224636 -10.576091 -23.074661
-25.742239 -9.448513 -9.368529
-25.629225 -7.919911 -10.836685
-24.372889 -7.479661 -9.592837
-26.515675 -11.848907 -2.438535
-25.551357 -11.118936 -3.642823
-25.981339 -12.239854 -4.398224
-26.675222 -13.142764 -5.32043
-27.541313 -13.801698 -6.346776
-26.205534 -12.018412 -6.589809
-25.781744 -10.664065 -7.907405
-37.376312 -8.779933 -23.022263
-37.633381 -6.797679 -24.877293
-36.431923 -6.978242 -23.040106
-35.435841 -5.291259 -23.080763
-34.292133 -3.653412 -23.088083
-31.564133 -19.629971 -0.150628
-32.530987 -20.305357 1.537039
-32.906647 -21.536171 0.607506
-34.22113 -23.560587 1.29631
-36.567177 -26.797865 -4.376095
-36.427963 -25.416199 -6.347872
-36.282097 -23.741701 -8.346511
-32.804501 -14.993234 -12.24991
-34.097847 -16.71431 -12.276604
-34.128178 -14.860917 -14.007213
-35.400234 -14.73401 -15.758708
-36.698257 -14.759229 -17.581413
-37.803192 -14.673208 -19.418182
-36.929909 -12.828581 -19.394022
-37.127399 -10.806742 -21.173326
-31.672213 -9.634058 -15.678158
-32.055058 -7.690702 -17.637512
-30.376135 -7.865719 -15.851851
-28.892666 -6.23195 -15.770092
-27.627108 -4.576051 -15.936668
-25.77836 -6.322477 -12.525937
-22.373621 2.613851 -16.336149
-30.348524 -13.492285 1.471506
-30.04224 -15.079229 0.813171
-30.08293 -16.512751 0.17903
-27.713703 -13.847642 -1.844419
-28.992355 -15.869181 -1.288948
-30.234711 -17.725197 -0.761309
-30.763941 -18.851509 -1.605537
-31.410206 -19.715874 -2.653603
-32.21941 -20.420969 -3.945745
-33.17865 -20.97859 -5.449702
-31.782515 -19.164618 -5.607641
-31.500349 -17.857418 -7.213361
-31.395626 -16.406349 -8.955166
-28.619158 -14.259866 -7.617728
-29.920029 -14.549645 -9.12968
-31.348402 -14.77298 -10.691243
-31.403131 -13.151731 -12.335534
-31.501995 -11.396059 -14.014988
-35.481041 4.183924 -31.41391
-32.435505 -5.764461 -19.542454
-32.787525 -3.820689 -21.429222
-33.114117 -1.811834 -23.367729
-30.181883 -0.601928 -21.601242
-31.76309 -0.136483 -23.444796
-33.471966 0.100996 -25.315054
-33.873962 2.072362 -27.459726
-34.056282 4.04563 -29.512568
-20.042727 7.115457 -16.792494
-32.769588 -15.81768 3.863409
-33.551556 -20.864407 3.218842
-34.216236 -21.525171 -6.877334
-35.223919 -21.813181 -8.525756
-36.247345 -22.13755 -10.18881
-35.294289 -18.549601 -12.235342
-36.305725 -20.33189 -12.181386
-37.211372 -22.245621 -12.095476
-38.103882 -22.536831 -13.867895
-23.542631 -8.168115 -6.156078
-23.850033 -8.631683 -5.605625
-23.256771 -7.540335 -5.796828
-23.904407 -8.718406 -6.55381
-23.542631 -8.168115 -6.156078
-23.512048 4.318502 -19.200996
-23.335788 3.383197 -18.1905
-22.805083 5.269673 -19.210151
-23.512048 4.318502 -19.200996
-38.503475 -7.709229 -25.63946
-38.838611 -8.678798 -25.57016
-30.178064 4.107617 -25.681057
-29.284208 3.93822 -24.712208
-30.334252 5.101306 -26.747926
-31.007976 4.270199 -26.615443
-30.178064 4.107617 -25.681057
-29.691326 6.000969 -27.003622
-30.521237 6.163551 -27.938009
-30.334252 5.101306 -26.747926
-35.37388 -24.541024 4.027195
-35.450437 -25.182432 3.373735
-37.983011 -17.641905 -17.567808
-37.947619 -18.656061 -16.705626
-37.550647 -17.691116 -16.674681
-38.061892 -16.601512 -18.488758
-37.983011 -17.641905 -17.567808
-38.76021 -9.604449 -24.755314
-38.68005 -10.592088 -23.909359
-38.304796 -9.588451 -23.920616
-38.838611 -8.678798 -25.57016
-38.76021 -9.604449 -24.755314
-24.9687 -10.024584 -3.901508
-25.474932 -10.443758 -3.33951
-24.892275 -9.349407 -3.598194
-34.953485 -24.929353 0.907725
-34.7682 -24.508276 1.545033
-34.406416 -23.981664 0.659002
-35.165442 -25.416882 0.295472
-34.953485 -24.929353 0.907725
-36.097452 -26.786102 -1.79192
-35.758846 -26.38769 -1.02869
-35.599241 -25.822477 -2.059692
-36.364303 -27.147401 -2.627383
-36.097452 -26.786102 -1.79192
-36.252512 -26.509377 -3.599509
-36.678968 -27.435889 -3.40397
-36.364303 -27.147401 -2.627383
-25.109652 -6.221965 -11.819147
-25.703792 -7.121194 -11.681311
-25.035085 -7.020682 -10.974521
-22.241732 1.822531 -15.468654
-22.972915 1.634591 -16.237608
-29.826616 -12.364264 1.040598
-30.551478 -12.493127 1.683578
-29.413291 -14.758159 0.126943
-29.500759 -14.005577 0.470742
-28.87181 -13.684507 -0.215486
-37.3046 -5.064802 -25.752382
-37.767078 -5.907489 -25.777047
-37.170902 -5.954992 -24.852629
-35.883933 2.302774 -30.120416
-35.79163 1.365906 -29.092375
-35.370125 3.222144 -30.320012
-35.994849 3.264555 -31.214314
-35.883933 2.302774 -30.120416
-29.489335 0.139761 -21.597
-29.264381 -0.823874 -20.579037
-31.996253 0.802178 -24.466624
-31.14894 0.612155 -23.511631
-31.382103 1.550815 -24.533459
-32.850691 0.920917 -25.401753
-32.617528 -0.017743 -24.379925
-31.996253 0.802178 -24.466624
-33.051689 1.9066 -26.474089
-33.672964 1.086679 -26.38739
-32.850691 0.920917 -25.401753
-33.607578 5.822271 -30.811233
-34.230164 4.979501 -30.668501
-33.433696 4.8884 -29.6553
-32.976349 6.619432 -30.904984
-33.607578 5.822271 -30.811233
-20.176592 7.838301 -17.668947
-19.517584 8.254974 -16.834975
-20.726282 6.76176 -17.562264
-20.176592 7.838301 -17.668947
-32.078145 -15.64821 3.082685
-32.263996 -14.727255 3.376107
-31.572553 -14.557785 2.595383
-33.049518 -17.52181 3.932529
-32.98753 -18.405155 3.589081
-37.582511 -28.474867 -5.955915
-37.310642 -28.130772 -5.068431
-38.121885 -28.977031 -7.750929
-38.176321 -28.079342 -8.869109
-38.566752 -21.675418 -15.754343
-38.639997 -20.665222 -16.682832
-38.406261 -13.524858 -21.352628
-38.300238 -14.585226 -20.405535
-37.909216 -13.61284 -20.365275
-23.946975 -7.891111 -8.30646
-24.118426 -8.505107 -7.687403
-24.278274 -9.145776 -7.000737
-24.50976 -9.686833 -6.411802
-23.904407 -8.718406 -6.55381
-24.118426 -8.505107 -7.687403
-24.723779 -9.473534 -7.545395
-24.278274 -9.145776 -7.000737
-28.236165 -13.427273 -0.849876
-28.87181 -13.684507 -0.215486
-36.35264 -3.267601 -25.844534
-36.853199 -4.147933 -25.797484
-36.207865 -4.231973 -24.875014
-36.482719 -2.232641 -26.855914
-36.35264 -3.267601 -25.844534
-35.837385 -2.31668 -25.933444
-36.610003 -1.380128 -27.766618
-36.482719 -2.232641 -26.855914
-36.145758 -0.405135 -27.951731
-36.610003 -1.380128 -27.766618
-35.656214 0.383935 -28.039539
-36.145758 -0.405135 -27.951731
-35.47792 -0.49265 -27.032632
-35.123793 1.278391 -28.173277
-35.79163 1.365906 -29.092375
-35.656214 0.383935 -28.039539
-29.799432 2.149254 -23.594671
-29.665788 1.121122 -22.585612
-30.693289 2.318651 -24.563519
-29.799432 2.149254 -23.594671
-31.382103 1.550815 -24.533459
-30.693289 2.318651 -24.563519
-31.715054 3.46902 -26.554352
-32.403868 2.701184 -26.524291
-31.871242 4.462709 -27.621221
-31.715054 3.46902 -26.554352
-31.007976 4.270199 -26.615443
-31.3473 6.29254 -28.881939
-32.170774 6.526181 -29.939799
-31.987637 5.497528 -28.740172
-31.3473 6.29254 -28.881939
-30.521237 6.163551 -27.938009
-32.9879 -19.168806 3.258362
-32.98753 -18.405155 3.589081
-32.411236 -18.180416 2.775656
-34.844328 -23.563764 3.571338
-34.253544 -22.570867 3.185377
-34.385134 -23.275383 2.678762
-34.844328 -23.563764 3.571338
-35.37388 -24.541024 4.027195
-38.191561 -27.198638 -9.893791
-38.176321 -28.079342 -8.869109
-37.928932 -27.021276 -9.018159
-38.255049 -26.301032 -10.925839
-38.191561 -27.198638 -9.893791
-38.259611 -25.367811 -11.864726
-38.255049 -26.301032 -10.925839
-37.948735 -25.20735 -10.98173
-38.327893 -24.488273 -12.807707
-38.259611 -25.367811 -11.864726
-38.320683 -19.661464 -16.663171
-37.888319 -19.710676 -15.770044
-37.947619 -18.656061 -16.705626
-38.639997 -20.665222 -16.682832
-38.320683 -19.661464 -16.663171
-38.600935 -11.564806 -23.083079
-38.496237 -12.552996 -22.201932
-38.119938 -11.564281 -22.193514
-38.600935 -11.564806 -23.083079
-38.68005 -10.592088 -23.909359
-24.406917 -6.800557 -10.352597
-25.035085 -7.020682 -10.974521
-25.001057 -7.699786 -10.214761
-23.851454 -7.21451 -8.986848
-24.46841 -8.156263 -8.912449
-23.946975 -7.891111 -8.30646
-23.764846 -6.533231 -9.687613
-23.851454 -7.21451 -8.986848
-24.406917 -6.800557 -10.352597
-23.764846 -6.533231 -9.687613
-25.95709 -10.808744 -2.737366
-26.546445 -11.138203 -2.149226
-26.033516 -11.483922 -3.040679
-25.95709 -10.808744 -2.737366
-25.474932 -10.443758 -3.33951
-28.199039 -1.955036 -18.662416
-27.344853 -2.005447 -17.814735
-28.590086 4.74781 -24.787863
-29.284208 3.93822 -24.712208
-28.830253 5.720977 -25.910297
-28.590086 4.74781 -24.787863
-35.145594 -24.862122 2.429239
-34.598524 -23.914434 2.180517
-34.7682 -24.508276 1.545033
-35.450437 -25.182432 3.373735
-35.145594 -24.862122 2.429239
-35.499909 -25.927544 -0.363606
-35.165442 -25.416882 0.295472
-34.926169 -24.913403 -0.637384
-35.499909 -25.927544 -0.363606
-35.758846 -26.38769 -1.02869
-36.955494 -27.809493 -4.197819
-36.678968 -27.435889 -3.40397
-36.922325 -27.119143 -5.246708
-37.310642 -28.130772 -5.068431
-36.955494 -27.809493 -4.197819
-25.137339 -5.44914 -12.581719
-25.109652 -6.221965 -11.819147
-25.903841 -5.498848 -13.390391
-25.137339 -5.44914 -12.581719
-26.682687 -5.554585 -14.163199
-26.557206 -6.378214 -13.298744
-25.903841 -5.498848 -13.390391
-26.828215 -4.625635 -15.095757
-27.48158 -5.505001 -15.004109
-26.682687 -5.554585 -14.163199
-26.967997 -3.733986 -16.000296
-26.828215 -4.625635 -15.095757
-27.180044 -2.878087 -16.915962
-27.839154 -3.720151 -16.852335
-26.967997 -3.733986 -16.000296
-27.344853 -2.005447 -17.814735
-27.180044 -2.878087 -16.915962
-23.172686 2.503111 -17.214599
-22.972915 1.634591 -16.237608
-22.536723 3.493938 -17.312049
-23.335788 3.383197 -18.1905
-23.172686 2.503111 -17.214599
-31.053464 -13.564557 2.180156
-30.551478 -12.493127 1.683578
-30.867613 -14.485513 1.886733
-31.572553 -14.557785 2.595383
-31.053464 -13.564557 2.180156
-29.653901 -13.212105 0.79991
-29.826616 -12.364264 1.040598
-30.195382 -14.285757 1.142338
-29.653901 -13.212105 0.79991
-29.500759 -14.005577 0.470742
-27.101832 -12.133181 -1.789501
-26.546445 -11.138203 -2.149226
-27.700845 -13.132549 -1.492443
-27.101832 -12.133181 -1.789501
-27.114689 -12.848275 -2.141477
-28.249022 -14.142366 -1.201852
-28.236165 -13.427273 -0.849876
-27.700845 -13.132549 -1.492443
-24.384801 -8.204536 -3.886284
-24.892275 -9.349407 -3.598194
-23.867559 -7.785842 -4.416085
-24.384801 -8.204536 -3.886284
-23.456623 -7.322677 -4.959176
-23.975108 -8.467068 -4.703283
-23.867559 -7.785842 -4.416085
-23.061751 -6.917424 -5.467242
-23.456623 -7.322677 -4.959176
-23.256771 -7.540335 -5.796828
-23.061751 -6.917424 -5.467242
-38.127688 -6.807663 -25.694822
-38.503475 -7.709229 -25.63946
-38.009169 -7.699245 -24.821932
-38.127688 -6.807663 -25.694822
-37.767078 -5.907489 -25.777047
-37.3046 -5.064802 -25.752382
-36.853199 -4.147933 -25.797484
-36.140631 4.116779 -32.353878
-35.994849 3.264555 -31.214314
-35.59679 5.069835 -32.54267
-36.140631 4.116779 -32.353878
-29.015591 -1.801661 -19.543447
-28.867753 -2.710876 -18.649033
-28.199039 -1.955036 -18.662416
-29.933094 -1.579715 -20.565653
-29.015591 -1.801661 -19.543447
-29.264381 -0.823874 -20.579037
-30.358337 0.379432 -22.589854
-29.489335 0.139761 -21.597
-29.665788 1.121122 -22.585612
-33.226141 2.866946 -27.509929
-33.051689 1.9066 -26.474089
-32.403868 2.701184 -26.524291
-34.942543 5.048649 -31.619172
-34.768662 4.114777 -30.463239
-34.230164 4.979501 -30.668501
-35.59679 5.069835 -32.54267
-34.942543 5.048649 -31.619172
-32.976349 6.619432 -30.904984
-32.170774 6.526181 -29.939799
-29.691326 6.000969 -27.003622
-28.830253 5.720977 -25.910297
-21.638212 2.909904 -15.536604
-22.241732 1.822531 -15.468654
-21.793799 3.662966 -16.44092
-21.638212 2.909904 -15.536604
-21.956902 4.543052 -17.416821
-22.536723 3.493938 -17.312049
-21.793799 3.662966 -16.44092
-19.462421 7.483483 -16.000622
-19.517584 8.254974 -16.834975
-19.964354 6.296588 -15.915801
-19.462421 7.483483 -16.000622
-20.628352 5.913768 -16.669093
-19.964354 6.296588 -15.915801
-20.628352 5.913768 -16.669093
-20.726282 6.76176 -17.562264
-22.054831 5.391044 -18.309991
-21.956902 4.543052 -17.416821
-22.805083 5.269673 -19.210151
-22.054831 5.391044 -18.309991
-32.916235 -14.791189 4.056871
-32.263996 -14.727255 3.376107
-33.440643 -15.794545 4.670822
-32.916235 -14.791189 4.056871
-33.228879 -16.722267 4.311046
-32.590227 -16.617223 3.484892
-33.049518 -17.52181 3.932529
-33.440643 -15.794545 4.670822
-33.228879 -16.722267 4.311046
-33.557875 -20.128976 3.645314
-32.9879 -19.168806 3.258362
-32.981581 -19.904237 2.831889
-34.132147 -21.861828 3.648397
-33.672953 -21.573446 2.755821
-34.253544 -22.570867 3.185377
-34.112423 -21.082365 4.152685
-34.132147 -21.861828 3.648397
-33.557875 -20.128976 3.645314
-34.112423 -21.082365 4.152685
-37.900621 -28.705647 -6.893994
-37.582511 -28.474867 -5.955915
-37.595582 -27.671202 -7.055399
-37.900621 -28.705647 -6.893994
-38.121885 -28.977031 -7.750929
-38.403185 -23.619624 -13.781347
-38.327893 -24.488273 -12.807707
-38.028589 -23.405479 -12.894256
-38.488001 -22.585794 -14.824496
-38.182632 -21.626455 -14.797743
-38.566752 -21.675418 -15.754343
-38.403185 -23.619624 -13.781347
-38.488001 -22.585794 -14.824496
-38.170468 -15.599636 -19.429417
-38.061892 -16.601512 -18.488758
-37.694616 -15.675084 -18.477522
-38.170468 -15.599636 -19.429417
-38.300238 -14.585226 -20.405535
-38.406261 -13.524858 -21.352628
-38.496237 -12.552996 -22.201932
3 177 48 178
3 179 178 46
3 177 178 179
3 181 180 48
3 0 52 50
3 1 182 183
3 1 184 185
3 2 55 53
3 2 57 55
3 2 59 57
3 0 62 60
3 0 50 62
3 3 66 64
3 6 69 67
3 6 71 69
3 6 73 71
3 3 76 74
3 3 64 76
3 8 186 187
3 9 79 78
3 9 80 79
3 4 83 81
3 10 188 189
3 10 190 192
3 190 86 191
3 190 191 192
3 10 193 195
3 195 194 86
3 193 194 195
3 5 89 87
3 197 196 90
3 11 93 91
3 11 94 93
3 7 97 95
3 12 100 98
3 12 198 200
3 200 199 100
3 198 199 200
3 12 201 202
3 8 203 205
3 205 204 102
3 203 204 205
3 8 206 207
3 13 105 103
3 14 208 210
3 208 107 209
3 208 209 210
3 16 108 47
3 16 109 108
3 16 111 109
3 13 112 49
3 13 103 112
3 18 115 113
3 20 116 51
3 20 117 116
3 21 120 118
3 23 121 54
3 23 211 213
3 213 212 121
3 211 212 213
3 23 214 215
3 24 216 218
3 218 217 56
3 216 217 218
3 24 219 220
3 24 221 223
3 221 122 222
3 221 222 223
3 26 123 58
3 26 124 123
3 27 127 125
3 29 128 61
3 29 129 128
3 29 131 129
3 18 132 63
3 18 113 132
3 31 135 133
3 33 136 65
3 33 137 136
3 224 138 225
3 226 225 104
3 224 225 226
3 227 139 228
3 229 140 230
3 35 231 233
3 231 141 232
3 231 232 233
3 35 142 141
3 15 143 106
3 36 144 68
3 36 145 144
3 36 146 145
3 37 147 70
3 37 148 147
3 37 150 148
3 39 151 72
3 39 152 151
3 17 153 110
3 40 154 75
3 40 155 154
3 40 156 155
3 31 157 77
3 31 133 157
3 19 234 236
3 236 235 114
3 234 235 236
3 41 237 238
3 41 239 241
3 239 158 240
3 239 240 241
3 32 159 134
3 42 160 82
3 42 161 160
3 242 162 243
3 244 163 245
3 246 245 84
3 244 245 246
3 247 164 248
3 249 248 163
3 247 248 249
3 250 165 251
3 252 251 164
3 250 251 252
3 43 166 85
3 43 253 255
3 255 254 166
3 253 254 255
3 43 256 257
3 258 167 259
3 261 260 167
3 34 262 264
3 262 168 263
3 262 263 264
3 266 265 88
3 22 169 119
3 25 267 268
3 270 269 92
3 38 170 149
3 44 171 96
3 44 172 171
3 28 173 126
3 45 174 99
3 45 175 174
3 45 176 175
3 272 271 101
3 30 273 275
3 275 274 130
3 273 274 275
3 277 276 13
3 46 47 14
3 48 47 46
3 48 16 47
3 48 49 16
3 278 49 279
3 280 279 48
3 278 279 280
3 281 13 282
3 283 282 49
3 281 282 283
3 50 51 18
3 52 51 50
3 52 20 51
3 53 54 21
3 55 54 53
3 55 23 54
3 55 56 23
3 57 56 55
3 57 24 56
3 57 58 24
3 59 58 57
3 59 26 58
3 60 61 27
3 62 61 60
3 62 29 61
3 62 63 29
3 50 63 62
3 50 18 63
3 64 65 31
3 66 65 64
3 66 33 65
3 284 35 285
3 67 68 15
3 69 68 67
3 69 36 68
3 69 70 36
3 71 70 69
3 71 37 70
3 71 72 37
3 73 72 71
3 73 39 72
3 74 75 17
3 76 75 74
3 76 40 75
3 76 77 40
3 64 77 76
3 64 31 77
3 78 286 288
3 288 287 19
3 286 287 288
3 79 289 291
3 291 290 78
3 289 290 291
3 79 292 293
3 79 294 295
3 80 296 298
3 298 297 79
3 296 297 298
3 80 299 301
3 299 41 300
3 299 300 301
3 81 82 32
3 83 82 81
3 83 42 82
3 302 84 303
3 304 84 305
3 307 306 84
3 308 85 309
3 86 310 312
3 310 85 311
3 310 311 312
3 86 43 85
3 86 313 315
3 315 314 43
3 313 314 315
3 317 316 86
3 87 88 34
3 89 88 87
3 89 318 320
3 320 319 88
3 318 319 320
3 90 321 323
3 323 322 22
3 321 322 323
3 325 324 90
3 91 92 25
3 93 92 91
3 93 326 328
3 328 327 92
3 326 327 328
3 93 329 330
3 94 331 333
3 333 332 93
3 331 332 333
3 94 334 335
3 95 96 38
3 97 96 95
3 97 44 96
3 98 99 28
3 100 99 98
3 100 45 99
3 100 101 45
3 336 101 337
3 338 337 100
3 336 337 338
3 340 339 101
3 102 341 343
3 343 342 30
3 341 342 343
3 345 344 102
3 103 104 3
3 105 104 103
3 105 346 348
3 348 347 104
3 346 347 348
3 349 105 350
3 351 350 13
3 349 350 351
3 352 105 353
3 355 354 105
3 356 106 357
3 107 358 360
3 358 106 359
3 358 359 360
3 107 15 106
3 47 107 14
3 108 107 47
3 108 15 107
3 108 67 15
3 109 67 108
3 109 6 67
3 109 110 6
3 111 110 109
3 111 17 110
3 49 111 16
3 112 111 49
3 112 17 111
3 112 74 17
3 103 74 112
3 103 3 74
3 113 114 8
3 115 114 113
3 115 19 114
3 51 115 18
3 116 115 51
3 116 19 115
3 116 78 19
3 117 78 116
3 117 9 78
3 362 361 4
3 363 10 364
3 366 365 10
3 118 119 5
3 120 119 118
3 120 22 119
3 54 120 21
3 121 120 54
3 121 22 120
3 121 90 22
3 367 90 368
3 369 368 121
3 367 368 369
3 371 370 90
3 56 372 374
3 374 373 23
3 372 373 374
3 376 375 56
3 122 377 378
3 122 379 381
3 379 25 380
3 379 380 381
3 58 122 24
3 123 122 58
3 123 25 122
3 123 91 25
3 124 91 123
3 124 11 91
3 125 126 7
3 127 126 125
3 127 28 126
3 61 127 27
3 128 127 61
3 128 28 127
3 128 98 28
3 129 98 128
3 129 12 98
3 129 130 12
3 131 130 129
3 131 30 130
3 63 131 29
3 132 131 63
3 132 30 131
3 132 102 30
3 113 102 132
3 113 8 102
3 133 134 0
3 135 134 133
3 135 32 134
3 65 135 31
3 136 135 65
3 136 32 135
3 136 81 32
3 137 81 136
3 137 4 81
3 104 66 3
3 138 66 104
3 138 33 66
3 382 138 383
3 384 138 385
3 386 33 387
3 388 387 138
3 386 387 388
3 389 137 390
3 391 390 33
3 389 390 391
3 392 137 393
3 394 4 395
3 396 395 137
3 394 395 396
3 398 397 4
3 139 399 400
3 139 401 403
3 401 1 402
3 401 402 403
3 140 404 405
3 140 406 408
3 406 34 407
3 406 407 408
3 409 140 410
3 141 411 413
3 411 140 412
3 411 412 413
3 141 34 140
3 141 87 34
3 142 87 141
3 142 5 87
3 106 414 415
3 143 416 418
3 418 417 106
3 416 417 418
3 143 419 421
3 419 35 420
3 419 420 421
3 68 143 15
3 144 143 68
3 144 35 143
3 144 142 35
3 145 142 144
3 145 5 142
3 145 118 5
3 146 118 145
3 146 21 118
3 70 146 36
3 147 146 70
3 147 21 146
3 147 53 21
3 148 53 147
3 148 2 53
3 148 149 2
3 150 149 148
3 150 38 149
3 72 150 37
3 151 150 72
3 151 38 150
3 151 95 38
3 152 95 151
3 152 7 95
3 110 73 6
3 153 73 110
3 153 39 73
3 75 153 17
3 154 153 75
3 154 39 153
3 154 152 39
3 155 152 154
3 155 7 152
3 155 125 7
3 156 125 155
3 156 27 125
3 77 156 40
3 157 156 77
3 157 27 156
3 157 60 27
3 133 60 157
3 133 0 60
3 422 14 423
3 424 14 425
3 426 46 427
3 428 427 14
3 426 427 428
3 429 46 430
3 432 431 46
3 114 433 435
3 435 434 8
3 433 434 435
3 437 436 114
3 439 438 19
3 158 440 441
3 158 442 443
3 134 52 0
3 159 52 134
3 159 20 52
3 82 159 32
3 160 159 82
3 160 20 159
3 160 117 20
3 161 117 160
3 161 9 117
3 444 83 445
3 446 445 4
3 444 445 446
3 162 447 449
3 447 83 448
3 447 448 449
3 162 42 83
3 84 450 452
3 450 162 451
3 450 451 452
3 163 162 84
3 163 42 162
3 163 161 42
3 164 161 163
3 164 9 161
3 164 80 9
3 165 80 164
3 165 41 80
3 85 453 455
3 453 165 454
3 453 454 455
3 166 165 85
3 166 41 165
3 166 158 41
3 456 158 457
3 458 457 166
3 456 457 458
3 460 459 158
3 462 461 43
3 464 463 10
3 465 139 466
3 467 139 468
3 469 1 470
3 471 470 139
3 469 470 471
3 167 472 473
3 167 474 475
3 167 476 477
3 479 478 167
3 480 1 481
3 483 482 1
3 168 484 485
3 168 486 487
3 88 168 34
3 488 168 489
3 490 489 88
3 488 489 490
3 492 491 168
3 119 89 5
3 169 89 119
3 169 493 495
3 495 494 89
3 493 494 495
3 496 169 497
3 498 497 22
3 496 497 498
3 499 169 500
3 502 501 169
3 92 503 505
3 505 504 25
3 503 504 505
3 507 506 92
3 149 59 2
3 170 59 149
3 170 26 59
3 96 170 38
3 171 170 96
3 171 26 170
3 171 124 26
3 172 124 171
3 172 11 124
3 126 97 7
3 173 97 126
3 173 44 97
3 99 173 28
3 174 173 99
3 174 44 173
3 174 172 44
3 175 172 174
3 175 11 172
3 175 94 11
3 176 94 175
3 176 508 510
3 510 509 94
3 508 509 510
3 101 176 45
3 511 176 512
3 513 512 101
3 511 512 513
3 515 514 176
3 130 516 518
3 518 517 12
3 516 517 518
3 520 519 130
3 522 521 30
