ply
format ascii 1.0
element vertex 173
property float x
property float y
property float z
element face 141
property list uchar int vertex_index
end_header
36.261192 -36.636971 18.116011
39.261776 -27.58552 4.995993
38.865883 -24.191956 3.531689
37.774391 -33.066753 16.775806
38.495647 -32.436893 11.716951
37.215153 -36.01004 13.128543
39.221519 -28.862436 10.248365
38.816212 -31.311802 6.494578
35.550999 -36.711376 20.59383
37.073284 -34.896317 17.38098
37.583584 -34.539696 14.928283
36.802681 -36.38821 15.663866
39.177876 -25.952135 4.252406
39.191456 -26.940674 2.363399
39.144062 -28.707151 3.269231
39.07383 -29.296629 12.74074
38.699863 -31.929962 9.028061
39.264973 -26.527399 6.85752
37.898643 -31.431118 18.416174
38.719219 -31.005802 13.544765
38.199341 -32.775982 14.34951
37.930031 -34.147507 12.604197
39.303204 -27.081749 9.319995
39.272995 -28.392757 7.638644
38.943501 -30.658352 10.92433
39.07988 -30.117117 8.400819
39.141144 -29.451008 5.845171
36.374439 -37.839024 13.982924
36.358896 -35.80276 18.964481
36.003799 -35.839962 20.203391
35.906095 -36.674174 19.35492
36.667238 -35.766644 17.748496
36.764942 -34.932433 18.596966
36.358896 -35.80276 18.964481
38.952669 -29.395157 13.976997
39.095789 -28.568618 13.476848
39.209141 -25.873154 7.601255
39.143915 -25.635172 6.388957
37.836517 -32.248936 17.59599
37.561577 -32.285562 18.819419
37.499451 -33.10338 17.999235
38.088047 -32.132009 16.357862
38.150173 -31.314192 17.178047
37.836517 -32.248936 17.59599
37.986866 -32.921368 15.562658
38.300522 -31.986624 15.144714
38.088047 -32.132009 16.357862
37.384161 -35.719793 11.847413
37.7416 -34.788527 11.58524
37.572592 -35.078773 12.86637
38.762277 -23.789512 2.288555
38.583772 -23.289967 3.201056
39.262361 -27.972092 9.78418
39.281495 -27.257862 10.598854
39.240652 -28.148205 11.063039
38.854769 -30.903556 5.200964
39.017235 -29.973159 4.87626
38.978678 -30.381405 6.169874
35.926431 -38.746779 14.242164
36.141295 -38.04105 15.167781
35.628137 -35.790617 21.344328
35.142556 -36.681694 21.682302
35.628137 -35.790617 21.344328
36.003799 -35.839962 20.203391
37.148897 -34.018162 18.301822
36.764942 -34.932433 18.596966
37.423838 -33.981535 17.078393
37.499451 -33.10338 17.999235
37.148897 -34.018162 18.301822
39.103304 -25.508851 2.989746
38.947307 -24.628762 2.629387
39.021879 -25.072046 3.892047
39.110094 -26.003121 2.045242
39.103304 -25.508851 2.989746
39.184666 -26.446404 3.307902
39.145979 -26.500206 1.170278
39.110094 -26.003121 2.045242
39.141035 -27.41161 1.427211
39.145979 -26.500206 1.170278
39.117338 -28.294848 1.880127
39.141035 -27.41161 1.427211
39.167759 -27.823912 2.816315
39.029213 -29.166766 2.313147
39.002489 -28.754463 0.924044
39.117338 -28.294848 1.880127
39.166808 -28.365302 12.309226
39.095789 -28.568618 13.476848
39.147675 -29.079532 11.494553
39.240652 -28.148205 11.063039
39.166808 -28.365302 12.309226
38.4422 -32.806612 9.441536
38.597755 -32.183428 10.372506
38.340091 -33.060077 10.785981
38.522604 -32.515978 8.098702
38.4422 -32.806612 9.441536
38.580779 -32.206898 6.83196
38.758038 -31.620882 7.761319
38.522604 -32.515978 8.098702
38.64135 -31.827223 5.54214
38.580779 -32.206898 6.83196
38.717954 -23.619391 4.376712
38.583772 -23.289967 3.201056
38.94437 -24.46745 4.726042
38.717954 -23.619391 4.376712
39.100367 -25.34754 5.0864
39.021879 -25.072046 3.892047
38.94437 -24.46745 4.726042
39.221424 -26.239767 5.554963
39.100367 -25.34754 5.0864
39.143915 -25.635172 6.388957
37.616741 -31.374519 19.552254
37.561577 -32.285562 18.819419
37.940052 -30.559723 19.099136
37.616741 -31.374519 19.552254
38.177408 -30.526176 18.027181
37.940052 -30.559723 19.099136
38.177408 -30.526176 18.027181
38.150173 -31.314192 17.178047
38.560461 -31.101534 14.742342
38.775364 -30.249744 14.37901
38.45928 -31.890892 13.947138
38.560461 -31.101534 14.742342
38.300522 -31.986624 15.144714
38.057283 -33.915385 11.229604
38.340091 -33.060077 10.785981
38.212839 -33.2922 12.160574
38.057283 -33.915385 11.229604
37.7416 -34.788527 11.58524
35.082271 -37.582117 20.879442
35.142556 -36.681694 21.682302
34.673828 -37.552435 21.967914
35.475544 -37.516728 19.660087
35.082271 -37.582117 20.879442
35.830641 -37.479525 18.421178
35.906095 -36.674174 19.35492
35.475544 -37.516728 19.660087
36.084671 -37.440024 17.234324
35.830641 -37.479525 18.421178
38.762277 -23.789512 2.288555
38.947307 -24.628762 2.629387
39.270167 -26.405133 10.086618
39.281495 -27.257862 10.598854
39.228257 -26.150329 8.832493
39.270167 -26.405133 10.086618
39.284088 -26.804574 8.088757
39.209141 -25.873154 7.601255
39.228257 -26.150329 8.832493
38.896524 -30.151215 13.142753
38.952669 -29.395157 13.976997
38.775364 -30.249744 14.37901
39.018694 -29.60123 3.588291
39.142603 -29.079079 4.557201
39.017235 -29.973159 4.87626
39.029213 -29.166766 2.313147
39.018694 -29.60123 3.588291
38.854769 -30.903556 5.200964
38.64135 -31.827223 5.54214
36.355415 -37.315643 16.008252
36.531937 -36.512591 16.889938
36.084671 -37.440024 17.234324
36.58856 -37.113617 14.823395
36.355415 -37.315643 16.008252
36.141295 -38.04105 15.167781
36.158495 -38.431469 12.97008
35.926431 -38.746779 14.242164
35.710487 -39.339224 13.229321
36.567173 -37.568394 12.685191
36.158495 -38.431469 12.97008
36.98753 -36.653902 12.258
36.794796 -36.924532 13.555734
36.567173 -37.568394 12.685191
37.384161 -35.719793 11.847413
36.98753 -36.653902 12.258
3 0 28 30
3 30 29 8
3 28 29 30
3 0 31 33
3 31 9 32
3 31 32 33
3 0 11 9
3 1 13 12
3 1 14 13
3 34 15 35
3 36 17 37
3 3 38 40
3 38 18 39
3 38 39 40
3 3 41 43
3 43 42 18
3 41 42 43
3 3 44 46
3 44 20 45
3 44 45 46
3 5 21 10
3 5 47 49
3 49 48 21
3 47 48 49
3 2 50 51
3 6 52 54
3 52 22 53
3 52 53 54
3 6 23 22
3 4 24 19
3 7 25 16
3 7 26 25
3 7 55 57
3 57 56 26
3 55 56 57
3 58 27 59
3 8 60 61
3 63 62 8
3 9 64 65
3 9 66 68
3 66 3 67
3 66 67 68
3 9 10 3
3 11 10 9
3 11 5 10
3 12 69 71
3 71 70 2
3 69 70 71
3 13 72 74
3 74 73 12
3 72 73 74
3 13 75 76
3 13 77 78
3 14 79 81
3 81 80 13
3 79 80 81
3 14 82 84
3 82 83 84
3 15 85 86
3 15 87 89
3 87 6 88
3 87 88 89
3 90 16 91
3 92 91 4
3 90 91 92
3 93 16 94
3 95 7 96
3 97 96 16
3 95 96 97
3 99 98 7
3 100 2 101
3 102 2 103
3 104 12 105
3 106 105 2
3 104 105 106
3 17 107 109
3 107 12 108
3 107 108 109
3 17 1 12
3 18 110 111
3 18 112 113
3 18 114 115
3 117 116 18
3 118 19 119
3 20 120 122
3 120 19 121
3 120 121 122
3 20 4 19
3 10 20 3
3 21 20 10
3 21 4 20
3 21 123 125
3 125 124 4
3 123 124 125
3 127 126 21
3 128 8 129
3 128 129 130
3 131 8 132
3 133 0 134
3 135 134 8
3 133 134 135
3 137 136 0
3 139 138 2
3 22 140 141
3 22 142 143
3 22 144 146
3 144 17 145
3 144 145 146
3 23 17 22
3 23 1 17
3 19 147 149
3 147 15 148
3 147 148 149
3 24 15 19
3 24 6 15
3 16 24 4
3 25 24 16
3 25 6 24
3 25 23 6
3 26 23 25
3 26 1 23
3 26 14 1
3 150 14 151
3 152 151 26
3 150 151 152
3 154 153 14
3 156 155 7
3 157 11 158
3 159 158 0
3 157 158 159
3 27 160 162
3 160 11 161
3 160 161 162
3 27 5 11
3 163 27 164
3 163 164 165
3 166 27 167
3 168 5 169
3 170 169 27
3 168 169 170
3 172 171 5
