ply
format ascii 1.0
element vertex 267
property float x
property float y
property float z
element face 248
property list uchar int vertex_index
end_header
15.242155 81.890648 0.482383
14.124074 88.363304 -10.148912
12.764057 83.148087 3.800973
15.053135 78.613724 5.340942
12.542088 80.05941 8.303547
12.335803 86.393028 -0.782051
17.386803 83.456345 -8.476902
16.614473 86.074013 -13.649548
10.009239 93.006241 -11.346598
11.511187 89.686516 -5.955264
14.872993 85.304581 -4.703724
12.87429 90.963318 -15.439209
15.25014 88.220139 -19.0187
16.809195 85.016365 -21.952478
11.66708 83.432129 5.424038
12.719615 81.597313 6.071642
11.485166 84.947578 3.410675
16.450239 81.228111 -1.382841
16.464342 79.485222 1.147216
14.783605 77.063133 7.648014
16.081053 76.159126 6.034906
13.80195 84.293747 -0.177402
13.663912 85.767113 -2.57143
15.147151 83.55069 -2.024206
16.382196 82.944954 -4.158832
11.431129 92.135765 -13.470309
13.392971 89.909065 -12.775327
17.540815 84.905869 -15.497406
15.890975 87.378578 -16.28112
16.880049 85.89962 -18.150202
16.148685 86.643433 -20.610697
14.00708 82.600883 2.116235
15.185398 80.307213 2.894299
13.996528 80.979149 4.451349
13.783451 79.510582 6.740267
13.508827 77.908142 9.069861
10.752177 88.251823 -1.107297
11.190515 86.568924 1.202226
12.709728 84.629532 1.568487
15.862462 85.96534 -9.413059
15.400556 87.336281 -11.998566
17.125265 84.764091 -11.147341
16.26619 77.910866 3.62228
10.816807 91.432388 -8.744668
12.816434 89.150276 -8.132473
11.950336 88.029213 -3.223473
13.23511 87.538971 -5.267873
14.606377 86.805374 -7.383995
16.25338 84.375313 -6.726715
17.613081 81.936333 -5.864286
9.251848 94.342728 -14.107973
10.812897 93.189552 -16.179844
11.96735 92.162842 -18.216333
14.799804 88.590851 -14.470092
14.078777 89.745872 -17.321611
13.202599 90.739044 -20.097635
14.358573 89.04184 -21.645426
15.10928 87.46077 -23.144848
15.807346 85.5411 -24.39579
12.180635 78.736786 10.388757
13.191929 76.185516 11.402054
11.185251 82.84674 7.035548
11.631314 82.765529 6.397842
11.221017 83.51334 6.061744
11.221017 83.51334 6.061744
11.069651 84.202022 5.279429
15.111877 74.977002 9.151692
15.280776 75.79491 7.991209
14.614706 76.245224 8.808497
13.758522 89.136184 -11.46212
12.753963 90.343334 -11.795772
13.119514 89.570453 -10.482564
17.637158 84.651985 -17.650973
17.210432 85.402744 -16.823804
17.967541 84.155109 -16.324575
17.339925 84.967636 -18.853575
17.637158 84.651985 -17.650973
10.634335 86.583348 2.180368
10.397175 87.447899 1.063899
16.709139 75.771641 5.101886
16.616293 74.847873 6.260803
11.163997 90.559452 -7.349966
10.210113 91.602859 -7.620737
10.557303 90.729923 -6.226035
17.645093 81.173946 -4.58448
16.997639 82.440643 -5.011559
17.029651 81.678257 -3.731753
18.233691 80.656872 -5.457422
17.645093 81.173946 -4.58448
9.630544 93.674485 -12.727286
8.589316 94.651905 -12.8871
8.968011 93.983662 -11.506412
17.100105 83.986702 -22.569631
16.599181 84.249069 -23.791288
16.30827 85.278732 -23.174134
12.013806 77.951011 11.475421
11.530784 79.114029 10.957427
12.519453 76.675376 11.98207
12.686282 77.461151 10.895405
12.013806 77.951011 11.475421
12.157581 81.848121 6.721644
12.193347 82.514721 5.74784
11.631314 82.765529 6.397842
12.068818 81.07917 7.837597
12.630851 80.828361 7.187594
12.157581 81.848121 6.721644
10.978694 84.959747 4.272748
10.781661 85.772674 3.284593
11.576123 84.189853 4.417357
10.978694 84.959747 4.272748
11.069651 84.202022 5.279429
17.955649 82.86517 -9.333187
18.083227 82.118935 -7.996405
17.113276 79.900833 -1.081909
17.063672 80.819835 -2.343758
17.120327 79.029388 0.183119
17.113276 79.900833 -1.081909
16.45729 80.356666 -0.117812
17.00575 78.279621 1.437663
17.661735 77.823788 0.473567
17.120327 79.029388 0.183119
15.9295 75.342907 7.184655
15.432329 76.61113 6.84146
15.280776 75.79491 7.991209
16.616293 74.847873 6.260803
15.9295 75.342907 7.184655
10.79524 89.910752 -4.812978
10.557303 90.729923 -6.226035
17.063672 80.819835 -2.343758
17.029651 81.678257 -3.731753
16.416218 82.086533 -2.770837
11.773041 91.456684 -12.143263
10.720184 92.571003 -12.408454
11.062096 91.891922 -11.081408
12.41205 91.022415 -13.122818
11.773041 91.456684 -12.143263
12.753963 90.343334 -11.795772
16.974243 85.339542 -20.083822
16.514367 86.271526 -19.380449
17.339925 84.967636 -18.853575
17.304498 84.526008 -20.754713
16.47894 85.829899 -21.281588
16.974243 85.339542 -20.083822
18.043135 83.195766 -20.27606
17.547832 83.686123 -21.473826
17.304498 84.526008 -20.754713
13.977317 76.667728 9.51942
14.614706 76.245224 8.808497
14.146216 77.485637 8.358937
10.178006 88.289349 -0.090863
9.829709 89.205441 -1.234011
10.971346 87.410373 0.047465
10.178006 88.289349 -0.090863
10.397175 87.447899 1.063899
11.33784 85.758251 2.30645
10.634335 86.583348 2.180368
10.781661 85.772674 3.284593
17.82488 83.519042 -10.668406
17.256034 84.110218 -9.812121
17.955649 82.86517 -9.333187
17.643529 84.180286 -12.036943
17.82488 83.519042 -10.668406
17.388133 84.835247 -13.288047
16.869869 85.419052 -12.398445
17.643529 84.180286 -12.036943
17.851304 84.251175 -14.211976
17.077644 85.489941 -14.573477
17.388133 84.835247 -13.288047
18.294227 83.578575 -15.033568
17.851304 84.251175 -14.211976
17.967541 84.155109 -16.324575
18.294227 83.578575 -15.033568
16.906674 77.492443 2.675195
17.00575 78.279621 1.437663
16.365266 78.698044 2.384748
16.801707 76.647511 3.895573
16.173622 77.034996 4.828593
16.709139 75.771641 5.101886
16.906674 77.492443 2.675195
16.801707 76.647511 3.895573
9.335537 93.270733 -10.175626
8.968011 93.983662 -11.506412
9.739321 92.483807 -8.874661
10.210113 91.602859 -7.620737
10.413023 92.219314 -10.045633
9.335537 93.270733 -10.175626
9.739321 92.483807 -8.874661
11.465881 91.104996 -9.780442
11.062096 91.891922 -11.081408
10.413023 92.219314 -10.045633
12.465694 89.96394 -9.474345
11.465881 91.104996 -9.780442
11.81662 90.291332 -8.438571
13.470254 88.75679 -9.140693
13.119514 89.570453 -10.482564
12.465694 89.96394 -9.474345
10.415734 89.193405 -2.388994
9.829709 89.205441 -1.234011
11.014814 89.0821 -3.447082
10.415734 89.193405 -2.388994
11.351256 88.140518 -2.165385
11.730761 88.857865 -4.589368
10.79524 89.910752 -4.812978
11.014814 89.0821 -3.447082
18.196366 81.358929 -6.690097
18.083227 82.118935 -7.996405
17.499942 82.696339 -7.170594
18.196366 81.358929 -6.690097
18.233691 80.656872 -5.457422
8.147986 95.340439 -14.336844
8.589316 94.651905 -12.8871
8.858339 94.89695 -15.49682
8.147986 95.340439 -14.336844
9.638863 94.320362 -16.532755
8.858339 94.89695 -15.49682
10.032373 93.76614 -15.143908
10.3162 93.764923 -17.58421
9.638863 94.320362 -16.532755
10.893427 93.251568 -18.602454
10.3162 93.764923 -17.58421
11.390123 92.676197 -17.198088
11.512283 92.605423 -19.615398
10.893427 93.251568 -18.602454
12.129907 91.893524 -20.556049
11.512283 92.605423 -19.615398
12.584974 91.450943 -19.156984
12.679217 91.156799 -21.452606
12.129907 91.893524 -20.556049
13.257204 90.308197 -22.226501
12.679217 91.156799 -21.452606
13.780586 89.890442 -20.87153
13.754532 89.453125 -22.987988
13.257204 90.308197 -22.226501
14.129886 88.66259 -23.737699
13.754532 89.453125 -22.987988
14.733926 88.251305 -22.395137
14.567967 87.68726 -24.390869
14.129886 88.66259 -23.737699
14.917 86.727425 -25.01634
14.567967 87.68726 -24.390869
15.458313 86.500935 -23.770319
15.266189 85.653252 -25.568356
14.375843 86.839577 -26.188906
14.917 86.727425 -25.01634
16.067111 84.437069 -24.951584
15.266189 85.653252 -25.568356
16.067111 84.437069 -24.951584
16.599181 84.249069 -23.791288
17.100105 83.986702 -22.569631
17.547832 83.686123 -21.473826
11.912446 80.485184 8.811326
12.068818 81.07917 7.837597
11.73172 79.823871 9.853931
11.530784 79.114029 10.957427
12.361362 79.398098 9.346152
11.912446 80.485184 8.811326
11.73172 79.823871 9.853931
13.818868 75.806415 10.685517
13.977317 76.667728 9.51942
13.350378 77.046829 10.235957
12.967576 75.437671 12.497974
12.519453 76.675376 11.98207
13.666153 74.874843 11.847575
12.967576 75.437671 12.497974
13.4418 74.126999 12.943496
13.818868 75.806415 10.685517
13.666153 74.874843 11.847575
3 63 62 14
3 61 62 63
3 64 14 65
3 0 18 17
3 68 67 19
3 66 67 68
3 0 23 21
3 0 17 23
3 1 69 71
3 69 26 70
3 69 70 71
3 72 29 73
3 74 73 27
3 72 73 74
3 76 75 29
3 2 33 31
3 4 34 15
3 4 35 34
3 77 37 78
3 2 38 16
3 2 31 38
3 6 41 39
3 3 42 32
3 80 79 20
3 9 81 83
3 81 43 82
3 81 82 83
3 9 44 43
3 5 45 36
3 10 46 22
3 10 47 46
3 10 48 47
3 84 49 85
3 86 85 24
3 84 85 86
3 88 87 49
3 8 89 91
3 89 50 90
3 89 90 91
3 11 51 25
3 11 52 51
3 7 53 40
3 12 54 28
3 12 55 54
3 12 56 55
3 13 57 30
3 13 58 57
3 13 92 94
3 94 93 58
3 92 93 94
3 95 59 96
3 97 60 98
3 99 98 59
3 97 98 99
3 14 15 2
3 100 15 101
3 102 101 14
3 100 101 102
3 103 4 104
3 105 104 15
3 103 104 105
3 106 16 107
3 14 108 110
3 108 16 109
3 108 109 110
3 14 2 16
3 112 111 6
3 17 113 114
3 18 115 117
3 117 116 17
3 115 116 117
3 18 118 120
3 118 119 120
3 19 20 3
3 121 20 122
3 123 122 19
3 121 122 123
3 125 124 20
3 126 9 127
3 21 22 5
3 23 22 21
3 23 10 22
3 23 24 10
3 17 24 23
3 17 128 130
3 130 129 24
3 128 129 130
3 131 25 132
3 133 132 8
3 131 132 133
3 26 134 136
3 134 25 135
3 134 135 136
3 26 11 25
3 27 28 7
3 29 28 27
3 29 12 28
3 29 30 12
3 137 30 138
3 139 138 29
3 137 138 139
3 140 13 141
3 142 141 30
3 140 141 142
3 145 144 13
3 143 144 145
3 31 32 0
3 33 32 31
3 33 3 32
3 15 33 2
3 34 33 15
3 34 3 33
3 34 19 3
3 35 19 34
3 35 146 148
3 148 147 19
3 146 147 148
3 149 36 150
3 37 151 153
3 151 36 152
3 151 152 153
3 37 5 36
3 16 154 156
3 154 37 155
3 154 155 156
3 38 37 16
3 38 5 37
3 38 21 5
3 31 21 38
3 31 0 21
3 39 40 1
3 41 40 39
3 41 7 40
3 157 41 158
3 159 158 6
3 157 158 159
3 160 41 161
3 162 7 163
3 164 163 41
3 162 163 164
3 165 27 166
3 167 166 7
3 165 166 167
3 168 27 169
3 171 170 27
3 32 18 0
3 42 18 32
3 42 172 174
3 174 173 18
3 172 173 174
3 20 42 3
3 175 42 176
3 177 176 20
3 175 176 177
3 179 178 42
3 180 8 181
3 43 182 183
3 43 184 186
3 184 8 185
3 184 185 186
3 43 187 189
3 189 188 8
3 187 188 189
3 44 190 192
3 192 191 43
3 190 191 192
3 44 193 195
3 193 1 194
3 193 194 195
3 36 196 197
3 45 198 200
3 200 199 36
3 198 199 200
3 45 201 203
3 201 9 202
3 201 202 203
3 22 45 5
3 46 45 22
3 46 9 45
3 46 44 9
3 47 44 46
3 47 1 44
3 47 39 1
3 48 39 47
3 48 6 39
3 24 48 10
3 49 48 24
3 49 6 48
3 49 204 206
3 206 205 6
3 204 205 206
3 208 207 49
3 50 209 210
3 50 211 212
3 25 50 8
3 51 50 25
3 51 213 215
3 215 214 50
3 213 214 215
3 51 216 217
3 52 218 220
3 220 219 51
3 218 219 220
3 52 221 222
3 40 26 1
3 53 26 40
3 53 11 26
3 28 53 7
3 54 53 28
3 54 11 53
3 54 52 11
3 55 52 54
3 55 223 225
3 225 224 52
3 223 224 225
3 55 226 227
3 56 228 230
3 230 229 55
3 228 229 230
3 56 231 232
3 30 56 12
3 57 56 30
3 57 233 235
3 235 234 56
3 233 234 235
3 57 236 237
3 58 238 240
3 240 239 57
3 238 239 240
3 58 241 243
3 241 242 243
3 58 244 245
3 247 246 58
3 249 248 13
3 250 4 251
3 59 252 253
3 59 254 256
3 254 4 255
3 254 255 256
3 59 35 4
3 60 35 59
3 60 257 259
3 259 258 35
3 257 258 259
3 260 60 261
3 262 60 263
3 262 263 264
3 266 265 60
