ply
format ascii 1.0
element vertex 373
property float x
property float y
property float z
element face 360
property list uchar int vertex_index
end_header
13.464132 60.684536 47.224503
-5.795286 63.968281 31.46624
-0.148513 58.804996 39.270344
7.788511 67.332054 39.135071
9.629138 80.467567 29.711304
15.572306 75.611443 37.837547
-4.03351 54.929577 38.951721
-2.196039 67.883461 31.491142
6.66969 82.372482 25.617872
10.646885 64.421936 43.072845
11.619124 71.370583 38.772312
14.463529 68.461357 42.717411
-3.163933 61.363049 35.492836
0.772231 65.689148 35.380978
4.8117 69.820679 35.215446
3.699585 62.837261 39.344936
6.691823 59.850239 43.241848
9.502278 56.702152 46.943981
10.442877 86.482727 24.33975
8.756617 74.270538 34.522747
12.811666 78.454735 33.74456
16.067297 56.692272 50.973591
-0.215423 69.762032 31.569969
12.012352 62.412579 45.251472
12.612301 66.321564 43.081066
13.984997 64.491982 45.148262
15.849061 66.467873 44.866364
15.353656 62.608768 47.130798
-2.120765 56.862629 39.112942
-3.518925 58.202129 37.304451
-1.721919 60.1581 37.33651
-1.237623 63.480282 35.47308
0.225331 62.181244 37.386269
2.243209 64.301682 37.37149
1.863674 60.897465 39.333
4.871537 57.918465 43.145168
6.258606 56.148132 45.068153
8.052547 58.374023 45.026508
8.127953 81.573311 27.538622
10.084864 83.681168 26.94165
12.05064 85.76355 26.258385
11.552681 82.711281 28.953894
6.767687 72.109055 34.840973
8.197563 70.795898 36.872688
13.624142 73.407646 38.475132
12.21334 75.028351 36.26524
14.208841 77.063965 35.831284
14.63519 80.480385 33.067184
15.956764 79.049141 35.103279
17.443676 77.458427 37.201378
15.714282 53.00235 52.756325
17.443081 54.737278 52.638809
17.881754 58.588825 50.685654
-2.489146 53.507664 40.825089
-0.685351 55.317501 40.980816
1.281937 57.410904 41.060448
-4.083085 65.854431 31.512266
-5.366555 67.100304 29.374292
6.277532 79.494972 28.100616
7.6658 78.524033 30.057125
9.157479 65.620346 41.267078
9.681625 69.199081 39.096321
11.14467 67.852219 41.060005
12.991599 69.915848 40.761414
15.035342 71.937622 40.466705
16.873585 73.773094 39.987232
16.359945 69.961983 42.652847
-6.342579 60.668999 33.418087
-5.398443 56.25872 37.142319
-4.940107 59.406464 35.449741
-4.507285 62.658249 33.540749
-2.629249 64.671745 33.58099
-0.71777 66.810661 33.472061
1.278279 68.835136 33.426952
3.234044 70.822159 33.310036
2.890041 67.768906 35.385387
4.350421 66.284241 37.470684
5.737008 65.023788 39.303631
3.250825 59.182076 41.319706
5.168313 61.316643 41.315613
7.103216 63.581764 41.206841
8.647472 61.98283 43.279053
10.159177 60.52993 45.181244
11.559645 58.691505 47.188713
8.901155 87.141983 22.434937
10.83539 89.065567 21.822519
5.143047 73.122421 32.847996
7.12847 75.269112 32.516979
9.212802 77.357475 32.232796
10.200458 72.700645 36.786869
10.767974 76.172661 34.343437
11.300366 79.525215 31.769608
13.2218 81.741074 31.01095
15.071468 83.695343 30.272118
12.888312 56.773376 49.128761
14.713467 58.655216 49.15329
16.609615 60.702393 48.921551
-0.004497 71.398064 30.367984
0.744219 70.86388 31.408518
6.013774 54.467535 45.801097
5.301256 55.254076 44.918752
6.977146 55.477671 45.913759
6.013774 54.467535 45.801097
-6.4563 64.452997 30.452493
-6.667573 62.942881 31.42691
7.993037 69.063976 38.003879
7.202888 69.727394 36.971475
6.998362 67.995472 38.102667
18.12173 53.44521 53.546677
17.281771 52.71517 53.605221
18.297926 55.363425 52.586372
18.12173 53.44521 53.546677
-1.828672 52.644469 41.724913
-2.776152 51.822689 41.559669
-0.926775 53.549387 41.802777
-1.587248 54.412582 40.902952
-1.828672 52.644469 41.724913
0.083852 54.600762 41.878591
-0.926775 53.549387 41.802777
-2.894925 68.421307 30.465397
-3.838448 67.406791 30.475959
-3.139562 66.868946 31.501704
6.013357 77.969433 29.2879
5.237708 78.413601 28.293553
6.707491 77.483963 30.266154
6.971666 79.009502 29.078871
6.013357 77.969433 29.2879
16.816492 67.394158 44.660891
16.548673 65.557106 45.800247
-6.530547 59.088881 34.346697
-7.211232 59.657263 33.34153
-4.715977 55.594149 38.04702
-5.621319 54.554535 38.014204
-4.938852 53.889963 38.918905
3.084708 57.531628 42.16476
2.266381 58.29649 41.190077
2.100264 56.646042 42.035132
-6.015629 67.486439 28.409239
-5.106296 68.603554 28.341547
6.851283 83.776073 24.323705
5.941244 82.688606 24.70727
9.672016 86.812355 23.387344
8.696052 85.776714 23.713241
9.466913 85.447086 24.665647
11.449736 87.51839 23.959302
11.645993 88.80981 22.700686
10.639133 87.774147 23.081134
12.987725 86.778942 25.81992
12.792754 85.298794 27.229048
15.757331 82.956329 31.355871
14.853329 82.087864 31.669651
15.539192 81.34885 32.753405
16.011108 84.554901 29.903923
15.757331 82.956329 31.355871
17.810677 74.600537 39.681093
17.553678 72.803947 41.016564
12.618805 54.879705 49.969316
11.978468 55.883018 49.024881
15.115267 55.759592 50.966864
14.938759 53.914631 51.85823
15.89079 54.847311 51.864958
15.390382 57.673744 50.06344
14.438352 56.741064 50.056713
15.115267 55.759592 50.966864
18.201535 60.414438 49.708912
18.776558 59.192749 50.592974
-0.936311 70.405797 30.456181
-1.926619 69.466511 30.416767
-1.205731 68.822746 31.530555
-0.936311 70.405797 30.456181
-0.004497 71.398064 30.367984
16.30097 63.627553 46.932464
16.548673 65.557106 45.800247
15.601358 64.53832 45.998581
4.607722 56.139242 43.95726
3.895064 56.899822 43.077492
5.565072 57.033299 44.106661
4.607722 56.139242 43.95726
5.301256 55.254076 44.918752
7.874116 56.590616 45.892937
7.155577 57.261077 45.047331
6.977146 55.477671 45.913759
8.598982 55.75468 46.851673
8.777413 57.538088 45.985245
7.874116 56.590616 45.892937
8.309451 82.992379 26.265083
7.580319 83.391964 25.304708
7.398822 81.972897 26.578247
9.287907 84.046307 25.966597
8.309451 82.992379 26.265083
9.106409 82.62724 27.240136
10.26387 85.081947 25.6407
9.466913 85.447086 24.665647
9.287907 84.046307 25.966597
12.543774 83.77266 28.576802
12.792754 85.298794 27.229048
11.801661 84.237415 27.606139
6.48795 70.383972 35.955618
5.789694 70.964867 35.02821
5.509956 69.239784 36.142854
7.482625 71.452476 35.856831
6.48795 70.383972 35.955618
7.202888 69.727394 36.971475
16.199979 80.633229 33.771452
15.539192 81.34885 32.753405
15.295977 79.764763 34.085231
16.953332 79.924965 34.766705
16.199979 80.633229 33.771452
17.696788 79.129608 35.815754
16.953332 79.924965 34.766705
16.70022 78.253784 36.152328
18.36744 78.250629 36.819767
17.696788 79.129608 35.815754
16.417372 51.847706 53.663978
15.435637 50.989143 53.605446
16.578682 53.869814 52.697567
16.417372 51.847706 53.663978
17.281771 52.71517 53.605221
18.517263 57.289198 51.609795
17.662418 56.663052 51.662232
18.297926 55.363425 52.586372
18.776558 59.192749 50.592974
18.517263 57.289198 51.609795
-4.212901 53.281318 39.780325
-4.938852 53.889963 38.918905
-3.440719 52.570362 40.717009
-3.727725 50.885387 41.451589
-2.776152 51.822689 41.559669
-3.261328 54.218621 39.888405
-4.212901 53.281318 39.780325
-3.440719 52.570362 40.717009
1.067497 55.647463 41.918408
0.298293 56.364203 41.020632
0.083852 54.600762 41.878591
2.100264 56.646042 42.035132
1.067497 55.647463 41.918408
-4.480183 68.029728 29.406972
-4.72482 66.477367 30.443279
-3.838448 67.406791 30.475959
-5.106296 68.603554 28.341547
-4.480183 68.029728 29.406972
-2.894925 68.421307 30.465397
-1.926619 69.466511 30.416767
5.716642 81.311161 25.900641
5.941244 82.688606 24.70727
5.520563 79.872406 27.142013
5.237708 78.413601 28.293553
6.473611 80.933727 26.859244
5.716642 81.311161 25.900641
5.520563 79.872406 27.142013
17.296858 70.898392 42.349371
17.553678 72.803947 41.016564
16.616765 71.867538 41.32004
17.071934 69.141212 43.554133
16.104503 68.214928 43.759605
16.816492 67.394158 44.660891
17.296858 70.898392 42.349371
17.071934 69.141212 43.554133
-6.941219 61.293239 32.402834
-7.211232 59.657263 33.34153
-6.068932 62.31864 32.442163
-6.667573 62.942881 31.42691
-6.941219 61.293239 32.402834
-6.299333 55.279773 37.047699
-5.621319 54.554535 38.014204
-6.058479 56.883741 36.208813
-6.299333 55.279773 37.047699
-5.829311 58.457613 35.362524
-6.058479 56.883741 36.208813
-5.169275 57.832592 36.29603
-5.641343 60.037731 34.433914
-6.530547 59.088881 34.346697
-5.829311 58.457613 35.362524
1.49107 70.400432 32.33701
0.744219 70.86388 31.408518
0.531428 69.298584 32.498461
2.256162 69.828648 33.368494
2.468952 71.393944 32.278552
1.49107 70.400432 32.33701
5.279317 67.471565 37.270473
5.509956 69.239784 36.142854
4.58106 68.05246 36.343065
5.972611 66.841339 38.186947
5.279317 67.471565 37.270473
5.043715 65.654014 38.387158
6.762759 66.177921 39.219351
6.998362 67.995472 38.102667
5.972611 66.841339 38.186947
4.061181 58.55027 42.232437
3.084708 57.531628 42.16476
3.895064 56.899822 43.077492
-6.241934 66.019009 29.40652
-6.4563 64.452997 30.452493
-5.58092 65.534292 30.420266
-6.241934 66.019009 29.40652
-6.015629 67.486439 28.409239
6.851283 83.776073 24.323705
7.580319 83.391964 25.304708
7.967015 86.160824 22.732238
8.696052 85.776714 23.713241
8.170355 87.452324 21.493816
7.967015 86.160824 22.732238
9.064507 88.373382 21.182493
8.170355 87.452324 21.493816
10.031624 89.335174 20.876283
9.064507 88.373382 21.182493
9.868272 88.103775 22.128728
10.863316 90.312931 20.386898
10.031624 89.335174 20.876283
11.71566 90.125954 21.25153
10.863316 90.312931 20.386898
11.71566 90.125954 21.25153
11.645993 88.80981 22.700686
12.253618 87.158802 24.918619
11.449736 87.51839 23.959302
11.246758 86.123138 25.299067
12.253618 87.158802 24.918619
12.987725 86.778942 25.81992
3.486598 72.474434 32.137676
2.468952 71.393944 32.278552
4.441099 73.624565 31.906655
3.486598 72.474434 32.137676
4.188546 71.97229 33.079016
5.446115 74.783157 31.66159
4.441099 73.624565 31.906655
6.438827 75.856503 31.496081
5.446115 74.783157 31.66159
6.135758 74.195767 32.682488
7.397135 76.896573 31.287052
6.707491 77.483963 30.266154
6.438827 75.856503 31.496081
13.378334 83.287556 29.605331
12.543774 83.77266 28.576802
12.387241 82.226178 29.982422
14.303168 84.264691 29.235914
13.378334 83.287556 29.605331
14.146634 82.718209 30.641534
15.277931 85.210781 28.854363
14.303168 84.264691 29.235914
15.277931 85.210781 28.854363
16.011108 84.554901 29.903923
18.095723 76.443203 38.288166
17.158631 75.61576 38.594305
17.810677 74.600537 39.681093
18.36744 78.250629 36.819767
18.095723 76.443203 38.288166
9.308394 54.824171 47.816801
8.598982 55.75468 46.851673
10.28545 55.847406 47.932491
9.308394 54.824171 47.816801
11.314134 56.842083 48.054857
10.530962 57.696828 47.066347
10.28545 55.847406 47.932491
12.223979 57.73244 48.158737
11.314134 56.842083 48.054857
11.978468 55.883018 49.024881
14.734464 51.997812 52.718487
15.435637 50.989143 53.605446
14.734464 51.997812 52.718487
14.938759 53.914631 51.85823
13.525775 55.800144 50.044449
12.618805 54.879705 49.969316
13.80089 57.714296 49.141025
13.525775 55.800144 50.044449
14.438352 56.741064 50.056713
16.92895 62.674366 47.827841
16.30097 63.627553 46.932464
15.981636 61.65558 48.026174
17.565465 61.471222 48.826861
17.245685 59.645609 49.803602
18.201535 60.414438 49.708912
16.92895 62.674366 47.827841
17.565465 61.471222 48.826861
3 98 97 22
3 0 25 23
3 0 27 25
3 2 30 28
3 2 32 30
3 2 34 32
3 99 36 100
3 102 101 36
3 1 103 104
3 4 39 38
3 4 41 39
3 3 105 107
3 105 43 106
3 105 106 107
3 5 46 44
3 5 48 46
3 5 49 48
3 108 51 109
3 111 110 51
3 112 53 113
3 114 54 115
3 116 115 53
3 114 115 116
3 118 117 54
3 7 119 121
3 121 120 56
3 119 120 121
3 122 58 123
3 124 59 125
3 126 125 58
3 124 125 126
3 9 62 60
3 11 63 24
3 11 64 63
3 11 66 64
3 128 127 26
3 129 67 130
3 6 131 133
3 131 68 132
3 131 132 133
3 12 69 29
3 12 70 69
3 12 71 70
3 13 72 31
3 13 73 72
3 13 75 73
3 15 76 33
3 15 77 76
3 134 78 135
3 136 135 55
3 134 135 136
3 16 79 35
3 16 80 79
3 16 81 80
3 17 82 37
3 17 83 82
3 138 137 57
3 8 139 140
3 18 141 143
3 141 84 142
3 141 142 143
3 18 85 84
3 18 144 146
3 146 145 85
3 144 145 146
3 148 147 40
3 14 86 74
3 19 87 42
3 19 88 87
3 10 89 61
3 20 90 45
3 20 91 90
3 20 92 91
3 149 93 150
3 151 150 47
3 149 150 151
3 153 152 93
3 155 154 65
3 156 94 157
3 21 158 160
3 160 159 50
3 158 159 160
3 21 161 163
3 161 95 162
3 161 162 163
3 21 96 95
3 165 164 52
3 22 166 168
3 168 167 7
3 166 167 168
3 170 169 22
3 23 24 9
3 25 24 23
3 25 11 24
3 25 26 11
3 27 26 25
3 27 171 173
3 173 172 26
3 171 172 173
3 28 29 6
3 30 29 28
3 30 12 29
3 30 31 12
3 32 31 30
3 32 13 31
3 32 33 13
3 34 33 32
3 34 15 33
3 174 35 175
3 36 176 178
3 176 35 177
3 176 177 178
3 36 16 35
3 36 37 16
3 179 37 180
3 181 180 36
3 179 180 181
3 182 17 183
3 184 183 37
3 182 183 184
3 38 185 187
3 187 186 8
3 185 186 187
3 39 188 190
3 190 189 38
3 188 189 190
3 39 191 193
3 191 18 192
3 191 192 193
3 39 40 18
3 41 40 39
3 41 194 196
3 196 195 40
3 194 195 196
3 197 42 198
3 199 198 14
3 197 198 199
3 43 200 202
3 200 42 201
3 200 201 202
3 43 19 42
3 44 45 10
3 46 45 44
3 46 20 45
3 46 47 20
3 48 47 46
3 48 203 205
3 205 204 47
3 203 204 205
3 48 206 207
3 49 208 210
3 210 209 48
3 208 209 210
3 49 211 212
3 213 50 214
3 51 215 217
3 215 50 216
3 215 216 217
3 51 21 50
3 51 52 21
3 218 52 219
3 220 219 51
3 218 219 220
3 222 221 52
3 223 6 224
3 53 225 227
3 225 226 227
3 53 228 230
3 228 6 229
3 228 229 230
3 53 28 6
3 54 28 53
3 54 2 28
3 54 55 2
3 231 55 232
3 233 232 54
3 231 232 233
3 235 234 55
3 56 57 1
3 236 57 237
3 238 237 56
3 236 237 238
3 240 239 57
3 242 241 7
3 243 8 244
3 58 245 246
3 58 247 249
3 247 8 248
3 247 248 249
3 58 38 8
3 59 38 58
3 59 4 38
3 60 61 3
3 62 61 60
3 62 10 61
3 24 62 9
3 63 62 24
3 63 10 62
3 63 44 10
3 64 44 63
3 64 5 44
3 64 65 5
3 66 65 64
3 66 250 252
3 252 251 65
3 250 251 252
3 26 66 11
3 253 66 254
3 255 254 26
3 253 254 255
3 257 256 66
3 67 258 259
3 67 260 262
3 260 1 261
3 260 261 262
3 68 263 264
3 68 265 266
3 29 68 6
3 69 68 29
3 69 267 269
3 269 268 68
3 267 268 269
3 69 270 272
3 270 67 271
3 270 271 272
3 70 67 69
3 70 1 67
3 70 56 1
3 71 56 70
3 71 7 56
3 31 71 12
3 72 71 31
3 72 7 71
3 72 22 7
3 73 22 72
3 73 273 275
3 275 274 22
3 273 274 275
3 73 276 278
3 276 74 277
3 276 277 278
3 75 74 73
3 75 14 74
3 33 75 13
3 76 75 33
3 76 14 75
3 76 279 281
3 281 280 14
3 279 280 281
3 77 282 284
3 284 283 76
3 282 283 284
3 77 285 287
3 285 3 286
3 285 286 287
3 55 34 2
3 78 34 55
3 78 15 34
3 35 288 290
3 288 78 289
3 288 289 290
3 79 78 35
3 79 15 78
3 79 77 15
3 80 77 79
3 80 3 77
3 80 60 3
3 81 60 80
3 81 9 60
3 37 81 16
3 82 81 37
3 82 9 81
3 82 23 9
3 83 23 82
3 83 0 23
3 57 291 293
3 293 292 1
3 291 292 293
3 295 294 57
3 297 296 8
3 84 298 299
3 84 300 301
3 84 302 303
3 85 304 306
3 306 305 84
3 304 305 306
3 85 307 308
3 85 309 310
3 312 311 85
3 40 313 315
3 315 314 18
3 313 314 315
3 317 316 40
3 74 318 319
3 86 320 322
3 322 321 74
3 320 321 322
3 86 323 324
3 42 86 14
3 87 86 42
3 87 325 327
3 327 326 86
3 325 326 327
3 87 328 330
3 328 59 329
3 328 329 330
3 88 59 87
3 88 4 59
3 61 43 3
3 89 43 61
3 89 19 43
3 45 89 10
3 90 89 45
3 90 19 89
3 90 88 19
3 91 88 90
3 91 4 88
3 91 41 4
3 92 41 91
3 92 331 333
3 333 332 41
3 331 332 333
3 47 92 20
3 93 92 47
3 93 334 336
3 336 335 92
3 334 335 336
3 93 337 338
3 340 339 93
3 65 49 5
3 341 49 342
3 343 342 65
3 341 342 343
3 345 344 49
3 346 17 347
3 348 17 349
3 350 83 351
3 352 351 17
3 350 351 352
3 94 353 355
3 353 83 354
3 353 354 355
3 94 0 83
3 50 356 357
3 359 358 50
3 360 94 361
3 95 362 364
3 362 94 363
3 362 363 364
3 95 0 94
3 95 27 0
3 96 27 95
3 96 365 367
3 367 366 27
3 365 366 367
3 52 96 21
3 368 96 369
3 370 369 52
3 368 369 370
3 372 371 96
