ply
format ascii 1.0
element vertex 40
property float x
property float y
property float z
element face 28
property list uchar int vertex_index
end_header
28.016815 27.499903 -54.807323
26.261774 28.852722 -54.177841
27.499695 27.381243 -52.20269
26.424349 29.062464 -56.939674
27.319815 27.067322 -50.824623
26.639495 27.961005 -51.80204
28.085632 27.528603 -56.103454
27.289399 28.309884 -57.16963
27.220582 28.281183 -55.873498
26.020535 28.696745 -52.789615
25.353254 29.480073 -53.822706
25.112014 29.324096 -52.43448
26.880734 28.116982 -53.190265
26.020535 28.696745 -52.789615
26.639495 27.961005 -51.80204
25.477332 29.595702 -55.187365
24.568811 30.223053 -54.832229
25.353254 29.480073 -53.822706
25.558619 29.700573 -56.568281
25.477332 29.595702 -55.187365
26.343061 28.957593 -55.558757
25.622139 29.684999 -57.880827
24.756409 30.323109 -57.509434
25.558619 29.700573 -56.568281
26.534465 28.938601 -58.133705
25.622139 29.684999 -57.880827
26.534465 28.938601 -58.133705
27.289399 28.309884 -57.16963
28.089199 26.489612 -51.020799
27.319815 27.067322 -50.824623
28.30967 26.704234 -52.333091
28.089199 26.489612 -51.020799
28.56823 26.763564 -53.635408
27.758255 27.440573 -53.505006
28.30967 26.704234 -52.333091
28.798883 26.771282 -54.927019
28.56823 26.763564 -53.635408
28.8677 26.799983 -56.223151
28.085632 27.528603 -56.103454
28.798883 26.771282 -54.927019
3 4 2 5
3 0 3 1
3 0 6 8
3 8 7 3
3 6 7 8
3 9 1 10
3 9 10 11
3 2 12 14
3 12 1 13
3 12 13 14
3 2 0 1
3 1 15 17
3 15 16 17
3 3 18 20
3 20 19 1
3 18 19 20
3 3 21 23
3 21 22 23
3 3 24 25
3 27 26 3
3 28 2 29
3 30 2 31
3 32 0 33
3 34 33 2
3 32 33 34
3 35 0 36
3 39 38 0
3 37 38 39
