ply
format ascii 1.0
element vertex 568
property float x
property float y
property float z
element face 565
property list uchar int vertex_index
end_header
-24.416458 57.992569 -5.871986
-19.035164 72.169449 -20.290688
-15.894688 83.499794 -24.074327
-15.100258 75.685143 -28.206007
-29.55978 39.275188 -4.04625
-25.81707 46.227539 -7.309085
-22.320774 53.267517 -11.412629
-22.066885 65.975075 -12.66338
-19.004997 59.587944 -16.720751
-13.47189 84.828743 -28.69005
-9.439204 70.031128 -36.483856
-7.347888 73.580124 -39.45919
-25.453453 53.646847 -3.141323
-26.612892 48.291359 -4.367642
-25.160198 52.354977 -6.581172
-24.005226 49.916138 -9.254821
-23.781534 55.920677 -9.117818
-19.889597 75.147667 -17.594931
-21.348673 71.799477 -13.311667
-20.707226 69.244545 -16.264057
-20.866219 63.287777 -15.079028
-19.313993 66.027023 -18.368132
-17.604107 68.542824 -22.009205
-12.712161 76.065399 -32.195244
-13.857501 71.04628 -29.240585
-11.691688 71.301956 -33.050335
-7.383429 79.283424 -38.865128
-24.079044 59.335617 -2.069497
-18.006306 78.039391 -22.133999
-17.197039 74.412445 -24.261696
-15.81554 79.889969 -26.579479
-28.062462 44.55201 -2.274116
-27.637907 42.755775 -5.620966
-23.368347 63.756958 -5.420521
-22.478725 67.981865 -9.298411
-23.325575 62.245419 -9.051966
-22.367254 59.721287 -11.920923
-20.654762 56.744801 -13.944818
-15.834935 70.027657 -25.490309
-9.761084 72.735992 -36.335934
-8.514183 71.983841 -38.013641
-8.733464 74.69207 -37.790123
-24.907253 55.970806 -4.408037
-25.437902 53.047173 -4.887107
-24.818073 55.137455 -6.223133
-24.457478 54.157471 -7.861814
-24.195772 57.218124 -7.641479
-19.539656 73.771912 -19.087435
-20.376101 72.277168 -16.960701
-19.926653 70.751328 -18.202469
-20.102865 67.706093 -17.394646
-19.27042 69.214073 -19.315285
-18.490591 67.390282 -20.155788
-18.387766 70.473465 -21.258465
-11.407918 75.885155 -34.179047
-12.217752 73.75795 -32.703129
-10.990214 73.304268 -34.569389
-10.55768 70.834579 -34.834972
-17.064867 82.335747 -21.575705
-18.172026 79.57122 -20.67626
-17.073925 80.878639 -23.104769
-17.031721 79.02137 -24.219194
-15.966636 81.755737 -25.396528
-5.787256 78.26725 -40.57375
-27.903643 45.115089 -0.379935
-27.282681 47.016796 -1.520557
-26.359308 47.180099 -5.973026
-27.19458 45.48658 -4.917053
-26.742472 44.368301 -6.445006
-25.074263 44.887184 -8.455791
-23.115829 51.641792 -10.352625
-23.149094 48.395073 -10.220917
-22.212532 49.746075 -11.19237
-21.321411 51.603271 -12.266465
-21.78817 68.861893 -12.985924
-21.93696 69.976273 -11.303857
-22.422909 66.914909 -11.005127
-22.952602 65.085121 -9.226655
-22.716724 64.153267 -10.85032
-22.950268 61.109642 -10.615059
-22.324694 62.947586 -12.131008
-20.068932 61.410843 -15.863936
-20.827814 60.02454 -14.44767
-19.845474 58.194256 -15.2747
-16.185335 75.188866 -26.230818
-16.596291 72.157242 -24.902761
-15.597353 72.993469 -26.860346
-13.129295 68.877228 -29.736654
-14.034595 68.285751 -27.86471
-14.70355 84.298325 -26.449383
-9.13873 67.315514 -36.552589
-8.323514 69.127014 -38.069057
-7.22965 70.9534 -39.622467
-5.951653 72.544525 -41.012646
-30.652462 38.283203 -1.453516
-29.800026 39.932575 -2.316808
-26.647421 49.029785 -2.607349
-26.026447 51.026672 -3.817936
-25.909678 50.141186 -5.466919
-25.524765 49.332127 -6.901182
-24.916788 47.998878 -8.239202
-24.736029 51.109875 -7.977771
-23.904388 52.87207 -9.203392
-23.14197 54.850117 -10.375597
-19.922279 76.517921 -16.225636
-20.649185 74.835785 -13.918686
-20.643553 73.647041 -15.44956
-21.094313 70.837112 -14.960418
-21.380365 67.823425 -14.510477
-21.573601 64.587616 -13.922339
-20.864107 66.275253 -15.624177
-20.123369 64.566666 -16.617033
-19.246082 62.691372 -17.414698
-18.478825 64.159836 -19.0319
-17.679077 65.507431 -20.735655
-13.930139 75.958214 -30.218752
-14.500572 73.472946 -28.846483
-13.448523 73.615318 -30.652956
-12.807647 71.415421 -31.171829
-12.18896 68.932205 -31.472622
-11.222514 68.732826 -33.174057
-10.239335 68.154869 -34.791508
-8.942876 80.084793 -37.020748
-24.754911 56.647079 -2.59944
-24.318916 58.935711 -4.094621
-18.984482 76.753433 -19.848265
-18.622671 75.226868 -21.243061
-18.145788 73.387741 -22.273649
-17.650948 76.341919 -23.383801
-16.643517 77.278847 -25.406734
-15.545347 77.727608 -27.468924
-14.767299 82.417023 -27.663015
-14.641724 80.258514 -28.730673
-14.280143 78.287498 -29.660641
-13.028385 78.348747 -31.703077
-5.887982 75.267906 -40.863308
-4.326736 73.891098 -42.420341
-2.89034 72.054436 -43.798397
-28.863029 42.559067 -1.354752
-28.847145 41.95771 -3.118279
-27.371778 46.293793 -3.309386
-27.988533 43.794579 -4.000572
-28.605776 41.045723 -4.763103
-24.068827 46.636803 -9.333776
-23.923439 60.927864 -5.711459
-22.938154 65.994064 -7.316799
-23.461605 63.078388 -7.346342
-23.901878 59.953682 -7.447454
-23.57366 59.154572 -9.138976
-23.094467 57.933842 -10.441552
-22.394842 56.356327 -11.600611
-21.613262 61.524765 -13.474925
-21.623964 58.394073 -12.989436
-21.46876 55.108601 -12.66229
-20.400572 53.311069 -13.478413
-17.506281 71.493088 -23.115316
-16.764822 69.329475 -23.680523
-14.860387 70.702179 -27.392378
-14.941196 67.892677 -26.115395
-9.395574 75.096477 -36.930053
-9.247274 73.714031 -37.063029
-9.909384 74.118438 -36.202959
-10.523949 74.402576 -35.319687
-11.199066 74.594711 -34.374218
-10.732801 75.69302 -35.124516
-9.909384 74.118438 -36.202959
-10.375649 73.02013 -35.452662
-10.523949 74.402576 -35.319687
-16.479778 82.91777 -22.825016
-16.422577 83.600872 -21.990301
-15.837488 84.182896 -23.239612
-29.907746 37.999134 -4.346875
-30.405926 37.186322 -3.89504
-30.057961 38.462376 -3.594415
-29.364356 38.718727 -4.769856
-29.907746 37.999134 -4.346875
-26.854136 48.345616 -1.089561
-27.140828 47.283519 -0.585089
-25.929729 44.689203 -7.497851
-26.392429 43.759584 -7.065811
-26.279771 45.29792 -6.877045
-25.445667 45.557361 -7.882438
-25.558325 44.019025 -8.071203
-25.929729 44.689203 -7.497851
-18.903844 57.963777 -16.324198
-19.324082 57.266934 -15.601173
-19.425235 58.8911 -15.997725
-18.491374 58.534073 -16.978899
-18.903844 57.963777 -16.324198
-13.2292 67.429378 -28.936943
-12.808203 67.575424 -29.81305
-30.174758 39.439552 -0.948218
-30.550371 38.594652 -0.53429
-29.74854 40.264238 -1.379864
-30.226244 39.107889 -1.885162
-30.174758 39.439552 -0.948218
-25.73995 52.336759 -3.479629
-25.964113 51.401252 -2.841933
-25.677616 52.71134 -2.503627
-17.199841 67.407921 -22.206187
-17.237327 65.890224 -21.569412
-17.641592 67.025127 -21.37243
-9.745398 80.298302 -35.995594
-9.650243 79.069535 -36.301218
-24.416978 57.991348 -2.334468
-24.578729 56.860224 -1.523581
-24.240795 58.204493 -1.25861
-13.975441 80.506615 -29.813771
-14.062098 81.60672 -29.278095
-13.79465 79.521107 -30.278754
-14.460933 79.273006 -29.195657
-13.975441 80.506615 -29.813771
-13.168772 79.551731 -31.299973
-13.654264 78.318123 -30.681859
-13.79465 79.521107 -30.278754
-7.363919 77.877529 -39.072096
-8.103473 78.336257 -38.206854
-5.083033 76.113502 -41.470585
-5.837619 76.767578 -40.718529
-5.032671 77.613174 -41.325806
-4.302411 75.425098 -42.249102
-5.107359 74.579502 -41.641824
-5.083033 76.113502 -41.470585
-2.010779 72.636269 -44.360475
-2.762987 73.642617 -43.700587
-2.170779 71.023842 -44.451531
-2.010779 72.636269 -44.360475
-27.879136 41.351362 -5.875725
-28.36307 40.496336 -5.446794
-28.121841 41.900749 -5.192035
-22.618107 45.764816 -10.563672
-23.117997 46.726452 -10.192664
-22.649205 47.433437 -10.591925
-23.547342 62.70376 -4.629933
-23.197032 64.117656 -4.467881
-23.645893 62.342411 -5.56599
-23.824887 61.289213 -4.775403
-23.547342 62.70376 -4.629933
-21.327545 72.336681 -12.506395
-20.977801 73.854836 -12.809905
-20.998929 73.317631 -13.615177
-22.163007 69.444988 -9.367441
-21.892125 70.442193 -10.370165
-22.207842 68.979069 -10.301134
-22.395211 68.394165 -8.291567
-22.163007 69.444988 -9.367441
-22.70844 66.987965 -8.307605
-22.624925 67.400264 -7.30076
-22.395211 68.394165 -8.291567
-15.879453 68.682702 -24.86708
-16.344396 68.33361 -23.962187
-16.299878 69.678566 -24.585416
-14.531878 66.647297 -26.259335
-14.487896 68.089214 -26.990052
-14.078577 66.843834 -27.133993
-14.55605 65.231506 -25.570141
-14.965369 66.476887 -25.426201
-14.531878 66.647297 -26.259335
-23.83759 59.580933 -1.01214
-24.240795 58.204493 -1.25861
-16.972051 82.986328 -20.716363
-16.422577 83.600872 -21.990301
-17.554358 81.700134 -20.409416
-16.972051 82.986328 -20.716363
-17.618446 80.953484 -21.125982
-18.107937 80.317871 -19.959693
-17.554358 81.700134 -20.409416
-12.754891 84.155407 -30.3752
-13.477181 83.891835 -29.257783
-12.7496 85.092315 -29.807467
-5.688786 79.631005 -40.390919
-6.585342 78.775337 -39.719439
-6.486873 80.139092 -39.536608
-4.834633 79.0313 -41.229776
-5.688786 79.631005 -40.390919
-5.032671 77.613174 -41.325806
-4.834633 79.0313 -41.229776
-27.451308 46.332666 -0.014778
-27.767722 45.228658 0.568729
-27.593162 46.065942 -0.950246
-27.451308 46.332666 -0.014778
-27.140828 47.283519 -0.585089
-26.904884 42.921917 -6.686421
-27.352601 42.115654 -6.274401
-27.190189 43.562038 -6.032986
-26.904884 42.921917 -6.686421
-26.392429 43.759584 -7.065811
-25.127369 43.29731 -8.552218
-25.558325 44.019025 -8.071203
-24.578694 44.132702 -8.928665
-25.127369 43.29731 -8.552218
-22.180923 48.108938 -11.077651
-22.649205 47.433437 -10.591925
-22.680813 49.070574 -10.706644
-21.663273 48.850708 -11.560692
-22.180923 48.108938 -11.077651
-21.217713 49.779306 -12.097739
-21.663273 48.850708 -11.560692
-21.766972 50.674673 -11.729418
-20.747432 50.646583 -12.62084
-21.217713 49.779306 -12.097739
-23.026468 65.258236 -5.420843
-23.197032 64.117656 -4.467881
-19.694359 56.414708 -14.966528
-20.099004 55.68998 -14.301588
-20.250118 57.469529 -14.609759
-19.694359 56.414708 -14.966528
-19.324082 57.266934 -15.601173
-13.68185 67.13364 -28.000971
-13.581945 68.58149 -28.800682
-13.2292 67.429378 -28.936943
-14.078577 66.843834 -27.133993
-13.68185 67.13364 -28.000971
-15.228045 84.704689 -24.485436
-15.837488 84.182896 -23.239612
-14.632476 85.103955 -25.672964
-15.299119 83.899059 -25.261855
-15.228045 84.704689 -24.485436
-13.98727 85.500805 -26.862001
-14.632476 85.103955 -25.672964
-13.37144 85.766014 -27.982335
-14.08772 84.563534 -27.569716
-13.98727 85.500805 -26.862001
-12.64961 86.068814 -29.168683
-13.37144 85.766014 -27.982335
-12.7496 85.092315 -29.807467
-12.64961 86.068814 -29.168683
-8.596388 66.875343 -37.396568
-8.429149 65.510422 -37.481318
-8.971491 65.950592 -36.637338
-8.188779 67.781093 -38.154802
-8.596388 66.875343 -37.396568
-8.731122 68.221264 -37.310823
-7.736042 68.593418 -38.867937
-8.188779 67.781093 -38.154802
-7.18911 69.506611 -39.644642
-7.736042 68.593418 -38.867937
-7.776582 70.040207 -38.845762
-6.633813 70.296303 -40.328932
-7.18911 69.506611 -39.644642
-5.994814 71.091865 -41.024022
-6.633813 70.296303 -40.328932
-6.590651 71.748963 -40.317556
-5.299681 71.741035 -41.704494
-5.994814 71.091865 -41.024022
-31.07656 37.466257 -1.017111
-30.550371 38.594652 -0.53429
-31.098123 37.113979 -1.91281
-31.522221 36.297033 -1.476405
-31.07656 37.466257 -1.017111
-30.604301 37.966383 -2.298048
-31.098123 37.113979 -1.91281
-30.178083 38.791069 -2.729694
-30.604301 37.966383 -2.298048
-30.226244 39.107889 -1.885162
-29.679903 39.603881 -3.181529
-30.057961 38.462376 -3.594415
-30.178083 38.791069 -2.729694
-26.2746 50.402809 -2.236639
-26.536506 49.35211 -1.632957
-26.336934 50.028228 -3.212643
-26.2746 50.402809 -2.236639
-25.964113 51.401252 -2.841933
-20.285732 75.676853 -15.072161
-20.220745 76.259529 -14.16694
-19.857292 77.100597 -15.320415
-18.75802 61.878939 -17.792103
-18.637477 60.327224 -17.44513
-19.12554 61.139658 -17.067725
-18.374392 62.61317 -18.600704
-18.75802 61.878939 -17.792103
-18.862454 63.425604 -18.223299
-17.967818 63.208963 -19.378073
-18.374392 62.61317 -18.600704
-17.567943 63.882761 -20.22995
-17.967818 63.208963 -19.378073
-18.078951 64.833633 -19.883778
-17.157066 64.382673 -21.028281
-17.567943 63.882761 -20.22995
-16.715316 64.765467 -21.862038
-17.157066 64.382673 -21.028281
-17.237327 65.890224 -21.569412
-12.338035 67.602913 -30.681034
-12.808203 67.575424 -29.81305
-12.659128 68.904717 -30.604638
-11.896591 67.60252 -31.554473
-12.338035 67.602913 -30.681034
-11.413369 67.502831 -32.40519
-11.896591 67.60252 -31.554473
-11.705737 68.832515 -32.32334
-10.955679 67.343983 -33.263813
-11.413369 67.502831 -32.40519
-10.464089 67.055004 -34.072539
-10.955679 67.343983 -33.263813
-10.730925 68.443848 -33.982782
-9.974919 66.822056 -34.973562
-10.464089 67.055004 -34.072539
-9.424616 66.402378 -35.854103
-9.974919 66.822056 -34.973562
-9.689032 67.735191 -35.672049
-8.971491 65.950592 -36.637338
-9.424616 66.402378 -35.854103
-8.883197 78.736942 -37.284664
-9.650243 79.069535 -36.301218
-8.163152 79.684109 -37.942938
-8.103473 78.336257 -38.206854
-8.883197 78.736942 -37.284664
-8.961498 81.340145 -36.67412
-9.745398 80.298302 -35.995594
-9.76402 81.553653 -35.648966
-8.073012 81.101315 -37.705141
-8.961498 81.340145 -36.67412
-8.091634 82.356666 -37.358513
-7.293288 80.70063 -38.627331
-8.163152 79.684109 -37.942938
-8.073012 81.101315 -37.705141
-6.486873 80.139092 -39.536608
-7.293288 80.70063 -38.627331
-25.310405 54.042566 -2.16324
-25.677616 52.71134 -2.503627
-24.961134 55.542682 -1.892298
-24.578729 56.860224 -1.523581
-25.104182 55.146963 -2.870381
-25.310405 54.042566 -2.16324
-24.961134 55.542682 -1.892298
-19.45082 77.984226 -16.513382
-19.857292 77.100597 -15.320415
-19.508749 77.333649 -17.318016
-19.45082 77.984226 -16.513382
-19.492408 76.648522 -18.002663
-19.905938 75.832794 -16.910283
-19.508749 77.333649 -17.318016
-18.633623 78.860298 -19.543328
-18.107937 80.317871 -19.959693
-19.039851 77.451404 -19.12933
-18.633623 78.860298 -19.543328
-18.578254 78.162327 -20.262262
-19.437039 75.95055 -18.721598
-19.492408 76.648522 -18.002663
-19.039851 77.451404 -19.12933
-14.124885 82.685975 -28.744266
-14.119594 83.622883 -28.176533
-13.477181 83.891835 -29.257783
-14.704511 81.337769 -28.196844
-14.124885 82.685975 -28.744266
-14.062098 81.60672 -29.278095
-12.475723 79.631065 -32.345355
-13.168772 79.551731 -31.299973
-12.371708 78.398685 -32.690707
-12.475723 79.631065 -32.345355
-12.213596 77.257012 -32.936791
-12.870273 77.207073 -31.949161
-12.371708 78.398685 -32.690707
-11.561474 77.166889 -33.928692
-12.06004 75.975277 -33.187145
-12.213596 77.257012 -32.936791
-10.882764 76.969716 -34.880367
-11.561474 77.166889 -33.928692
-10.732801 75.69302 -35.124516
-10.882764 76.969716 -34.880367
-8.778491 76.040581 -37.669352
-9.395574 75.096477 -36.930053
-8.038937 75.581852 -38.534593
-8.778491 76.040581 -37.669352
-7.346148 75.025879 -39.369127
-8.040676 74.136097 -38.624657
-8.038937 75.581852 -38.534593
-6.565832 77.369442 -39.926407
-7.363919 77.877529 -39.072096
-6.585342 78.775337 -39.719439
-6.616195 75.86977 -40.071186
-6.565832 77.369442 -39.926407
-5.837619 76.767578 -40.718529
-6.617935 74.424015 -40.161249
-7.346148 75.025879 -39.369127
-6.616195 75.86977 -40.071186
-4.487222 72.414322 -42.408342
-5.299681 71.741035 -41.704494
-5.139195 73.217811 -41.716493
-3.481185 74.560947 -43.011558
-4.302411 75.425098 -42.249102
-3.608538 72.972767 -43.109369
-3.481185 74.560947 -43.011558
-2.762987 73.642617 -43.700587
-3.769024 71.495991 -43.09737
-4.487222 72.414322 -42.408342
-3.608538 72.972767 -43.109369
-3.068246 70.536358 -43.808757
-3.94693 69.977913 -43.107731
-3.769024 71.495991 -43.09737
-2.348686 69.505764 -44.461891
-3.068246 70.536358 -43.808757
-2.170779 71.023842 -44.451531
-28.27407 44.074865 0.07733
-27.767722 45.228658 0.568729
-28.753763 42.796854 -0.410078
-28.27407 44.074865 0.07733
-28.383336 43.837078 -0.867344
-29.280042 41.577484 -0.898836
-28.753763 42.796854 -0.410078
-29.331527 41.245821 -1.83578
-29.74854 40.264238 -1.379864
-29.280042 41.577484 -0.898836
-26.965051 48.023291 -2.063953
-26.854136 48.345616 -1.089561
-26.536506 49.35211 -1.632957
-28.887354 39.603994 -5.128283
-29.364356 38.718727 -4.769856
-29.082778 40.160455 -4.404676
-28.887354 39.603994 -5.128283
-28.36307 40.496336 -5.446794
-27.879136 41.351362 -5.875725
-27.352601 42.115654 -6.274401
-24.075976 45.007511 -9.367657
-24.578694 44.132702 -8.928665
-24.571545 45.761994 -8.894783
-23.577863 45.847317 -9.749094
-23.608961 47.515938 -9.777347
-23.117997 46.726452 -10.192664
-24.075976 45.007511 -9.367657
-23.577863 45.847317 -9.749094
-23.710506 60.735152 -1.922781
-23.83759 59.580933 -1.01214
-23.90269 60.493089 -2.954422
-23.710506 60.735152 -1.922781
-24.022626 60.293137 -3.966983
-24.19898 59.135664 -3.082059
-23.90269 60.493089 -2.954422
-24.121178 59.931787 -4.90304
-24.022626 60.293137 -3.966983
-23.824887 61.289213 -4.775403
-20.576658 75.282803 -12.902599
-20.220745 76.259529 -14.16694
-20.576658 75.282803 -12.902599
-20.977801 73.854836 -12.809905
-21.621688 71.42508 -11.502491
-21.327545 72.336681 -12.506395
-21.642817 70.887875 -12.307762
-21.621688 71.42508 -11.502491
-21.892125 70.442193 -10.370165
-22.811371 66.376789 -6.368982
-22.624925 67.400264 -7.30076
-23.15325 64.875511 -6.36866
-23.026468 65.258236 -5.420843
-22.811371 66.376789 -6.368982
-20.287012 51.500483 -13.226814
-20.747432 50.646583 -12.62084
-20.860992 52.45717 -12.872439
-19.971908 53.973114 -14.068385
-20.527667 55.027935 -13.711616
-20.099004 55.68998 -14.301588
-19.827267 52.228107 -13.780819
-19.971908 53.973114 -14.068385
-20.287012 51.500483 -13.226814
-19.827267 52.228107 -13.780819
-18.491374 58.534073 -16.978899
-18.637477 60.327224 -17.44513
-16.780199 67.801246 -23.041846
-17.199841 67.407921 -22.206187
-17.184464 68.936149 -22.844864
-16.780199 67.801246 -23.041846
-16.344396 68.33361 -23.962187
-15.432583 67.615212 -25.179623
-15.879453 68.682702 -24.86708
-15.388065 68.960167 -25.802852
-15.456756 66.199421 -24.490429
-15.432583 67.615212 -25.179623
-14.965369 66.476887 -25.426201
3 159 41 160
3 161 160 39
3 159 160 161
3 0 44 42
3 0 46 44
3 1 49 47
3 1 51 49
3 1 53 51
3 162 56 163
3 164 163 54
3 162 163 164
3 165 39 166
3 167 166 56
3 165 166 167
3 2 168 170
3 168 58 169
3 168 169 170
3 2 60 58
3 2 62 60
3 4 171 173
3 171 172 173
3 4 174 175
3 176 65 177
3 5 68 66
3 5 178 180
3 180 179 68
3 178 179 180
3 5 181 183
3 181 69 182
3 181 182 183
3 6 72 70
3 6 73 72
3 7 76 74
3 7 78 76
3 7 80 78
3 8 83 81
3 8 184 186
3 186 185 83
3 184 185 186
3 8 187 188
3 3 86 84
3 190 189 87
3 10 91 90
3 11 92 40
3 11 93 92
3 191 94 192
3 193 95 194
3 195 194 94
3 193 194 195
3 12 196 198
3 196 97 197
3 196 197 198
3 14 98 43
3 14 99 98
3 14 101 99
3 16 102 45
3 16 103 102
3 17 106 104
3 19 107 48
3 19 108 107
3 19 110 108
3 21 111 50
3 21 112 111
3 21 113 112
3 22 114 52
3 22 199 201
3 201 200 114
3 199 200 201
3 23 117 115
3 25 118 55
3 25 119 118
3 25 120 119
3 10 121 57
3 10 90 121
3 202 122 203
3 27 204 206
3 204 123 205
3 204 205 206
3 27 124 123
3 28 125 59
3 28 126 125
3 28 128 126
3 30 129 61
3 30 130 129
3 9 131 89
3 207 132 208
3 209 133 210
3 211 210 132
3 209 210 211
3 212 134 213
3 214 213 133
3 212 213 214
3 26 215 216
3 217 135 218
3 219 218 63
3 217 218 219
3 220 136 221
3 222 221 135
3 220 221 222
3 223 137 224
3 226 225 137
3 31 138 64
3 31 139 138
3 13 140 96
3 32 141 67
3 32 142 141
3 32 227 229
3 229 228 142
3 227 228 229
3 15 143 100
3 232 231 71
3 230 231 232
3 33 233 234
3 33 235 237
3 235 144 236
3 235 236 237
3 18 238 240
3 240 239 105
3 238 239 240
3 34 241 243
3 243 242 75
3 241 242 243
3 34 244 245
3 34 246 248
3 246 145 247
3 246 247 248
3 35 146 77
3 35 147 146
3 35 148 147
3 36 149 79
3 36 150 149
3 20 151 109
3 37 152 82
3 37 153 152
3 37 154 153
3 29 155 127
3 38 156 85
3 38 249 251
3 251 250 156
3 249 250 251
3 24 157 116
3 252 158 253
3 254 253 88
3 252 253 254
3 257 256 158
3 255 256 257
3 39 40 10
3 41 40 39
3 41 11 40
3 42 43 12
3 44 43 42
3 44 14 43
3 44 45 14
3 46 45 44
3 46 16 45
3 47 48 17
3 49 48 47
3 49 19 48
3 49 50 19
3 51 50 49
3 51 21 50
3 51 52 21
3 53 52 51
3 53 22 52
3 54 55 23
3 56 55 54
3 56 25 55
3 56 57 25
3 39 57 56
3 39 10 57
3 258 27 259
3 58 260 261
3 58 262 263
3 58 264 266
3 264 59 265
3 264 265 266
3 60 59 58
3 60 28 59
3 60 61 28
3 62 61 60
3 62 30 61
3 269 268 9
3 267 268 269
3 270 63 271
3 272 271 26
3 270 271 272
3 273 63 274
3 276 275 63
3 277 64 278
3 65 279 281
3 279 64 280
3 279 280 281
3 65 31 64
3 66 67 13
3 68 67 66
3 68 32 67
3 68 282 284
3 284 283 32
3 282 283 284
3 286 285 68
3 69 287 288
3 69 289 290
3 70 71 15
3 72 71 70
3 72 291 293
3 293 292 71
3 291 292 293
3 72 294 295
3 73 296 298
3 298 297 72
3 296 297 298
3 73 299 300
3 301 33 302
3 74 75 18
3 76 75 74
3 76 34 75
3 76 77 34
3 78 77 76
3 78 35 77
3 78 79 35
3 80 79 78
3 80 36 79
3 81 82 20
3 83 82 81
3 83 37 82
3 83 303 305
3 305 304 37
3 303 304 305
3 307 306 83
3 84 85 29
3 86 85 84
3 86 38 85
3 87 88 24
3 308 88 309
3 310 309 87
3 308 309 310
3 312 311 88
3 313 2 314
3 315 89 316
3 317 316 2
3 315 316 317
3 318 89 319
3 320 9 321
3 322 321 89
3 320 321 322
3 323 9 324
3 326 325 9
3 90 327 329
3 327 328 329
3 91 330 332
3 332 331 90
3 330 331 332
3 91 333 334
3 40 91 10
3 92 91 40
3 92 335 337
3 337 336 91
3 335 336 337
3 92 338 339
3 93 340 342
3 342 341 92
3 340 341 342
3 93 343 344
3 94 345 346
3 94 347 349
3 347 348 349
3 94 350 351
3 95 352 354
3 354 353 94
3 352 353 354
3 95 355 357
3 355 4 356
3 355 356 357
3 358 96 359
3 97 360 362
3 360 96 361
3 360 361 362
3 97 13 96
3 43 97 12
3 98 97 43
3 98 13 97
3 98 66 13
3 99 66 98
3 99 5 66
3 99 100 5
3 101 100 99
3 101 15 100
3 45 101 14
3 102 101 45
3 102 15 101
3 102 70 15
3 103 70 102
3 103 6 70
3 104 363 365
3 363 105 364
3 363 364 365
3 106 105 104
3 106 18 105
3 48 106 17
3 107 106 48
3 107 18 106
3 107 74 18
3 108 74 107
3 108 7 74
3 108 109 7
3 110 109 108
3 110 20 109
3 50 110 19
3 111 110 50
3 111 20 110
3 111 81 20
3 112 81 111
3 112 8 81
3 112 366 368
3 368 367 8
3 366 367 368
3 113 369 371
3 371 370 112
3 369 370 371
3 113 372 373
3 52 113 21
3 114 113 52
3 114 374 376
3 376 375 113
3 374 375 376
3 114 377 378
3 381 380 114
3 379 380 381
3 115 116 3
3 117 116 115
3 117 24 116
3 55 117 23
3 118 117 55
3 118 24 117
3 118 87 24
3 119 87 118
3 119 382 384
3 384 383 87
3 382 383 384
3 119 385 386
3 120 387 389
3 389 388 119
3 387 388 389
3 120 390 391
3 57 120 25
3 121 120 57
3 121 392 394
3 394 393 120
3 392 393 394
3 121 395 396
3 90 397 399
3 399 398 121
3 397 398 399
3 90 400 401
3 122 402 403
3 122 404 406
3 404 26 405
3 404 405 406
3 407 122 408
3 407 408 409
3 410 122 411
3 410 411 412
3 413 26 414
3 415 414 122
3 413 414 415
3 417 416 26
3 418 12 419
3 123 420 421
3 123 422 424
3 422 12 423
3 422 423 424
3 123 42 12
3 124 42 123
3 124 0 42
3 425 104 426
3 427 104 428
3 429 17 430
3 431 430 104
3 429 430 431
3 59 432 433
3 125 434 436
3 436 435 59
3 434 435 436
3 125 437 439
3 437 17 438
3 437 438 439
3 125 47 17
3 126 47 125
3 126 1 47
3 126 127 1
3 128 127 126
3 128 29 127
3 61 128 28
3 129 128 61
3 129 29 128
3 129 84 29
3 130 84 129
3 130 3 84
3 89 62 2
3 131 62 89
3 131 30 62
3 440 131 441
3 442 441 9
3 440 441 442
3 132 443 445
3 443 131 444
3 443 444 445
3 132 30 131
3 132 130 30
3 133 130 132
3 133 3 130
3 133 115 3
3 134 115 133
3 134 23 115
3 446 134 447
3 448 134 449
3 450 23 451
3 452 451 134
3 450 451 452
3 453 54 454
3 455 454 23
3 453 454 455
3 456 54 457
3 459 458 54
3 460 41 461
3 462 41 463
3 464 11 465
3 466 465 41
3 464 465 466
3 63 467 469
3 469 468 26
3 467 468 469
3 135 470 472
3 472 471 63
3 470 471 472
3 135 473 475
3 473 11 474
3 473 474 475
3 135 93 11
3 136 93 135
3 136 476 478
3 478 477 93
3 476 477 478
3 479 136 480
3 137 481 483
3 481 136 482
3 481 482 483
3 137 484 486
3 486 485 136
3 484 485 486
3 137 487 489
3 487 488 489
3 492 491 137
3 490 491 492
3 64 493 494
3 138 495 497
3 497 496 64
3 495 496 497
3 138 498 499
3 138 500 502
3 500 95 501
3 500 501 502
3 139 95 138
3 139 4 95
3 96 503 505
3 503 65 504
3 503 504 505
3 140 65 96
3 140 31 65
3 67 140 13
3 141 140 67
3 141 31 140
3 141 139 31
3 142 139 141
3 142 4 139
3 142 506 508
3 508 507 4
3 506 507 508
3 510 509 142
3 512 511 32
3 100 69 5
3 143 69 100
3 143 513 515
3 515 514 69
3 513 514 515
3 71 143 15
3 516 143 517
3 518 517 71
3 516 517 518
3 520 519 143
3 521 27 522
3 523 27 524
3 525 124 526
3 527 526 27
3 525 526 527
3 144 528 530
3 528 124 529
3 528 529 530
3 144 0 124
3 105 531 532
3 534 533 105
3 75 535 537
3 537 536 18
3 535 536 537
3 539 538 75
3 145 540 541
3 145 542 544
3 542 33 543
3 542 543 544
3 77 145 34
3 146 145 77
3 146 33 145
3 146 144 33
3 147 144 146
3 147 0 144
3 147 46 0
3 148 46 147
3 148 16 46
3 79 148 35
3 149 148 79
3 149 16 148
3 149 103 16
3 150 103 149
3 150 6 103
3 109 80 7
3 151 80 109
3 151 36 80
3 82 151 20
3 152 151 82
3 152 36 151
3 152 150 36
3 153 150 152
3 153 6 150
3 153 73 6
3 154 73 153
3 154 545 547
3 547 546 73
3 545 546 547
3 548 154 549
3 550 549 37
3 548 549 550
3 551 154 552
3 554 553 154
3 556 555 8
3 127 53 1
3 155 53 127
3 155 22 53
3 85 155 29
3 156 155 85
3 156 22 155
3 156 557 559
3 559 558 22
3 557 558 559
3 561 560 156
3 116 86 3
3 157 86 116
3 157 38 86
3 88 157 24
3 158 157 88
3 158 38 157
3 158 562 564
3 564 563 38
3 562 563 564
3 567 566 158
3 565 566 567
