ply
format ascii 1.0
element vertex 221
property float x
property float y
property float z
element face 187
property list uchar int vertex_index
end_header
-20.597038 56.571087 -52.50872
-22.337431 46.181484 -51.025429
-33.795647 56.244007 -41.198788
-28.943462 50.868393 -47.705826
-21.577196 52.104603 -51.983803
-32.42952 63.566265 -43.809952
-31.657909 53.53941 -44.877621
-23.079561 59.685081 -52.059589
-32.640152 45.786072 -42.243858
-29.77965 43.362221 -45.494568
-26.397219 40.976101 -47.930923
-21.11426 54.738537 -52.313644
-34.353283 52.212273 -39.777328
-33.859699 47.287411 -40.324253
-33.359783 51.035824 -41.765717
-30.303427 52.015213 -46.454716
-30.843588 48.212837 -45.219345
-29.411924 47.13538 -46.625824
-28.156557 42.225521 -46.811428
-27.788309 45.887436 -47.85984
-26.118477 44.713097 -48.863369
-27.439455 49.706005 -48.791588
-24.00839 57.364517 -51.628372
-24.500025 61.359173 -51.584633
-22.036623 49.441422 -51.560146
-33.133934 59.662987 -42.609592
-32.836365 54.718456 -43.078747
-32.177246 58.52346 -44.411606
-31.028494 56.986603 -46.074013
-34.615643 57.237495 -39.110779
-34.696388 62.077545 -38.153152
-33.958977 61.173302 -40.554428
-33.265236 64.722099 -41.82132
-21.735699 57.949486 -52.357056
-32.149155 49.742466 -43.664944
-31.182667 44.486938 -44.083187
-24.493193 43.954697 -49.692688
-24.081144 47.186356 -50.435101
-23.615648 50.338448 -51.091991
-23.154848 53.490417 -51.631927
-22.482819 55.892414 -52.056259
-20.157029 55.34594 -52.497438
-20.41564 54.429665 -52.3999
-20.855649 55.654812 -52.411182
-21.619493 44.026673 -50.964733
-22.520927 44.536631 -50.697005
-25.17525 62.124122 -51.267095
-24.944195 60.05426 -51.334759
-20.995802 50.381531 -51.950796
-21.225516 49.049941 -51.738968
-21.806909 50.773013 -51.771974
-30.654256 58.738754 -46.634355
-31.216733 59.407013 -45.872263
-30.424124 56.508377 -46.765592
-30.654256 58.738754 -46.634355
-34.968564 57.864845 -37.904908
-34.91903 55.231105 -38.318638
-34.348955 63.960746 -38.816902
-34.607591 64.531582 -37.657709
-33.980249 63.508625 -40.01754
-34.327682 61.625423 -39.35379
-34.348955 63.960746 -38.816902
-33.633379 65.283023 -40.650986
-33.612106 62.9477 -41.187874
-33.980249 63.508625 -40.01754
-32.810488 43.942431 -41.591328
-33.420261 44.6931 -40.631525
-33.249926 46.536741 -41.284056
-32.116594 43.29397 -42.482123
-32.810488 43.942431 -41.591328
-29.946426 41.531363 -44.890119
-30.647934 42.093721 -44.184429
-30.481158 43.92458 -44.788877
-29.11381 40.920975 -45.590706
-29.946426 41.531363 -44.890119
-26.54578 39.269836 -47.439199
-27.425449 39.894547 -46.879452
-27.276888 41.600811 -47.371175
-25.587436 38.66433 -47.964862
-26.54578 39.269836 -47.439199
-25.564653 40.581785 -48.387332
-25.587436 38.66433 -47.964862
-25.194167 46.182991 -49.6669
-25.305835 44.333897 -49.278028
-26.006809 46.562191 -49.252241
-24.988143 47.798821 -50.038107
-24.287168 45.570526 -50.063895
-25.194167 46.182991 -49.6669
-24.129485 52.377879 -51.101196
-24.427961 50.887022 -50.775599
-23.899085 53.953863 -51.371164
-23.385248 51.914433 -51.361959
-24.129485 52.377879 -51.101196
-20.623702 53.173288 -52.28298
-20.85517 51.856321 -52.11806
-21.345728 53.42157 -52.148724
-20.623702 53.173288 -52.28298
-20.41564 54.429665 -52.3999
-31.917246 62.696844 -44.740233
-32.003681 65.105196 -44.427733
-34.106491 49.749842 -40.05079
-34.366788 47.709929 -39.269888
-34.61358 50.172359 -38.996426
-26.667299 49.058645 -49.21635
-26.006809 46.562191 -49.252241
-26.778966 47.209551 -48.827478
-24.698377 58.056933 -51.356628
-24.325856 55.890913 -51.369387
-24.254207 59.361845 -51.606502
-24.698377 58.056933 -51.356628
-24.944195 60.05426 -51.334759
-21.369627 47.376154 -51.5045
-21.520031 45.746185 -51.237141
-22.187027 47.811453 -51.292788
-21.369627 47.376154 -51.5045
-21.225516 49.049941 -51.738968
-20.995802 50.381531 -51.950796
-20.85517 51.856321 -52.11806
-31.791109 60.175442 -45.04106
-32.303383 61.044863 -44.110779
-31.917246 62.696844 -44.740233
-31.60287 57.755032 -45.242809
-31.791109 60.175442 -45.04106
-31.216733 59.407013 -45.872263
-30.061591 54.022682 -46.955944
-30.66596 54.500908 -46.264364
-30.424124 56.508377 -46.765592
-29.381608 53.449272 -47.581499
-29.623444 51.441803 -47.080271
-30.061591 54.022682 -46.955944
-28.685882 52.609094 -48.168625
-29.381608 53.449272 -47.581499
-21.619493 44.026673 -50.964733
-21.520031 45.746185 -51.237141
-34.78785 52.718495 -38.651912
-34.61358 50.172359 -38.996426
-34.484463 54.724884 -39.444053
-34.78785 52.718495 -38.651912
-34.91903 55.231105 -38.318638
-34.977804 62.681093 -36.843788
-34.607591 64.531582 -37.657709
-35.008936 60.28487 -37.426094
-34.977804 62.681093 -36.843788
-34.656015 59.65752 -38.631965
-34.968564 57.864845 -37.904908
-35.008936 60.28487 -37.426094
-33.211069 66.940815 -41.426016
-33.633379 65.283023 -40.650986
-32.81983 66.555183 -42.507935
-33.211069 66.940815 -41.426016
-32.401972 65.977266 -43.502251
-32.847378 64.144182 -42.815636
-32.81983 66.555183 -42.507935
-32.003681 65.105196 -44.427733
-32.401972 65.977266 -43.502251
-20.062528 56.715075 -52.558473
-20.645404 57.914242 -52.527362
-24.556596 63.310091 -51.534788
-25.17525 62.124122 -51.267095
-23.947211 62.339258 -51.776254
-24.556596 63.310091 -51.534788
-23.236978 61.502212 -52.013733
-23.789793 60.522127 -51.822111
-23.947211 62.339258 -51.776254
-22.525526 60.486919 -52.202486
-23.236978 61.502212 -52.013733
-21.853595 59.619121 -52.351219
-22.40763 58.817284 -52.208323
-22.525526 60.486919 -52.202486
-21.214734 58.603442 -52.451531
-21.853595 59.619121 -52.351219
-20.645404 57.914242 -52.527362
-21.166369 57.260286 -52.432888
-21.214734 58.603442 -52.451531
-34.025375 45.25771 -39.651165
-34.366788 47.709929 -39.269888
-34.025375 45.25771 -39.651165
-33.420261 44.6931 -40.631525
-31.387851 42.644403 -43.401787
-32.116594 43.29397 -42.482123
-31.911409 45.136505 -43.163522
-31.387851 42.644403 -43.401787
-30.647934 42.093721 -44.184429
-28.302263 40.352625 -46.249136
-29.11381 40.920975 -45.590706
-28.968103 42.793871 -46.152998
-28.302263 40.352625 -46.249136
-27.425449 39.894547 -46.879452
-25.425283 42.450283 -48.853555
-25.564653 40.581785 -48.387332
-26.257848 42.844599 -48.397146
-24.612641 42.071083 -49.268215
-25.425283 42.450283 -48.853555
-25.305835 44.333897 -49.278028
-23.742366 41.699294 -49.661366
-24.612641 42.071083 -49.268215
-23.598807 43.423237 -50.030634
-23.742366 41.699294 -49.661366
-23.392783 45.039067 -50.401841
-23.598807 43.423237 -50.030634
-24.287168 45.570526 -50.063895
-23.209287 46.68392 -50.730265
-22.520927 44.536631 -50.697005
-23.392783 45.039067 -50.401841
-27.933879 52.027901 -48.711506
-28.191458 50.287199 -48.248707
-28.685882 52.609094 -48.168625
-27.152794 51.362812 -49.231682
-27.933879 52.027901 -48.711506
-26.667299 49.058645 -49.21635
-27.152794 51.362812 -49.231682
-24.660709 49.310976 -50.447153
-24.988143 47.798821 -50.038107
-23.848396 48.762402 -50.763546
-24.660709 49.310976 -50.447153
-24.427961 50.887022 -50.775599
-23.581619 55.427467 -51.63015
-23.899085 53.953863 -51.371164
-24.325856 55.890913 -51.369387
-20.157029 55.34594 -52.497438
-20.062528 56.715075 -52.558473
3 0 41 43
3 43 42 11
3 41 42 43
3 1 44 45
3 2 14 12
3 3 17 15
3 3 19 17
3 3 21 19
3 46 23 47
3 4 48 50
3 50 49 24
3 48 49 50
3 5 27 25
3 51 28 52
3 54 53 28
3 55 29 56
3 57 30 58
3 59 31 60
3 61 60 30
3 59 60 61
3 62 32 63
3 64 63 31
3 62 63 64
3 8 65 67
3 67 66 13
3 65 66 67
3 8 68 69
3 6 34 26
3 9 35 16
3 9 70 72
3 72 71 35
3 70 71 72
3 9 73 74
3 10 75 77
3 77 76 18
3 75 76 77
3 10 78 79
3 10 80 81
3 82 36 83
3 84 83 20
3 82 83 84
3 85 37 86
3 87 86 36
3 85 86 87
3 88 38 89
3 90 39 91
3 92 91 38
3 90 91 92
3 7 40 22
3 7 33 40
3 11 93 95
3 95 94 4
3 93 94 95
3 97 96 11
3 99 98 5
3 12 100 102
3 100 13 101
3 100 101 102
3 14 13 12
3 14 8 13
3 15 16 6
3 17 16 15
3 17 9 16
3 17 18 9
3 19 18 17
3 19 10 18
3 19 20 10
3 21 20 19
3 21 103 105
3 105 104 20
3 103 104 105
3 106 22 107
3 23 108 110
3 108 22 109
3 108 109 110
3 23 7 22
3 24 111 113
3 113 112 1
3 111 112 113
3 115 114 24
3 117 116 4
3 25 26 2
3 27 26 25
3 27 6 26
3 118 27 119
3 120 119 5
3 118 119 120
3 28 121 123
3 121 27 122
3 121 122 123
3 28 6 27
3 28 15 6
3 124 15 125
3 126 125 28
3 124 125 126
3 127 3 128
3 129 128 15
3 127 128 129
3 131 130 3
3 133 132 1
3 134 12 135
3 29 136 138
3 136 12 137
3 136 137 138
3 29 2 12
3 30 139 140
3 30 141 142
3 30 143 145
3 143 29 144
3 143 144 145
3 31 29 30
3 31 2 29
3 31 25 2
3 32 25 31
3 32 5 25
3 146 32 147
3 148 32 149
3 150 5 151
3 152 151 32
3 150 151 152
3 154 153 5
3 156 155 0
3 157 23 158
3 159 23 160
3 161 7 162
3 163 162 23
3 161 162 163
3 164 7 165
3 166 33 167
3 168 167 7
3 166 167 168
3 169 33 170
3 171 0 172
3 173 172 33
3 171 172 173
3 13 174 175
3 177 176 13
3 26 14 2
3 34 14 26
3 34 8 14
3 16 34 6
3 35 34 16
3 35 8 34
3 35 178 180
3 180 179 8
3 178 179 180
3 182 181 35
3 18 183 185
3 185 184 9
3 183 184 185
3 187 186 18
3 20 188 190
3 190 189 10
3 188 189 190
3 36 191 193
3 193 192 20
3 191 192 193
3 36 194 195
3 36 196 197
3 37 198 200
3 200 199 36
3 198 199 200
3 37 201 203
3 201 1 202
3 201 202 203
3 204 21 205
3 206 205 3
3 204 205 206
3 207 21 208
3 210 209 21
3 211 37 212
3 38 213 215
3 213 37 214
3 213 214 215
3 38 1 37
3 38 24 1
3 39 24 38
3 39 4 24
3 22 216 218
3 216 39 217
3 216 217 218
3 40 39 22
3 40 4 39
3 40 11 4
3 33 11 40
3 33 0 11
3 220 219 0
