ply
format ascii 1.0
element vertex 205
property float x
property float y
property float z
element face 193
property list uchar int vertex_index
end_header
38.665218 -22.508972 20.44525
36.55138 -29.317961 24.142368
38.831509 -29.493685 15.213255
37.716724 -21.785332 24.606779
36.573269 -33.080791 21.424831
37.981461 -29.688328 19.782097
38.744862 -19.077911 17.925116
38.966675 -22.739258 15.835244
36.299271 -25.114038 26.611439
37.894089 -25.833654 22.541046
38.840721 -26.154871 17.988253
39.213024 -26.000933 13.293904
37.008064 -21.260544 26.479818
35.705276 -34.869858 22.094826
36.4566 -34.968548 19.812952
37.22451 -33.140007 19.222664
38.59956 -20.493134 21.290966
38.732243 -18.804087 20.018343
38.80085 -20.771013 19.119158
38.834789 -20.990992 16.989529
38.896198 -22.736053 18.166807
35.688225 -31.01285 24.90947
35.506172 -28.986784 26.295168
35.455025 -26.813988 27.337948
36.421822 -27.314631 25.447775
37.209911 -25.466599 24.588924
37.254601 -27.434322 23.534327
38.456173 -29.621235 17.638187
38.478157 -27.884886 19.022499
38.85812 -27.967747 16.645266
39.091763 -26.184994 15.589038
39.117748 -27.840607 14.212956
39.259785 -27.433975 11.877712
38.289436 -22.139477 22.543779
36.571941 -31.332287 22.816696
37.328995 -29.521881 22.082476
37.334839 -31.317919 20.688334
38.401703 -31.197266 15.939919
38.617188 -19.421871 15.776585
38.732365 -21.095919 14.680305
38.919876 -22.768435 13.571072
36.217484 -22.893373 27.501551
37.083801 -23.5455 25.62788
37.817379 -23.750904 23.666845
38.359333 -24.185495 21.553663
37.928101 -27.883123 21.282362
38.424709 -26.100407 20.374327
38.767464 -24.353785 19.24264
39.010155 -24.457762 16.879642
39.113941 -24.488958 14.565876
39.104168 -24.337484 12.191789
39.237129 -25.728518 10.853241
36.542329 -20.956011 27.405926
36.960254 -20.121887 26.839447
36.358896 -35.80276 18.964481
36.003799 -35.839962 20.203391
36.764942 -34.932433 18.596966
36.358896 -35.80276 18.964481
38.952669 -29.395157 13.976997
39.095789 -28.568618 13.476848
38.974628 -28.667146 14.713106
37.959536 -20.954038 24.022989
37.686554 -20.721139 24.966548
38.00308 -21.962404 23.575279
38.245891 -21.13111 22.991489
37.959536 -20.954038 24.022989
36.116993 -33.085176 22.527186
35.682997 -33.979709 22.862184
36.139273 -33.975324 21.759829
36.572605 -32.206539 22.120764
36.116329 -32.210924 23.223118
36.116993 -33.085176 22.527186
37.561577 -32.285562 18.819419
37.499451 -33.10338 17.999235
38.088047 -32.132009 16.357862
38.150173 -31.314192 17.178047
38.300522 -31.986624 15.144714
38.088047 -32.132009 16.357862
38.726494 -18.172725 18.300587
38.720185 -18.035813 19.3472
38.738552 -18.940999 18.97173
38.643484 -18.375606 17.206302
38.726494 -18.172725 18.300587
38.681025 -19.249891 16.85085
38.579648 -18.547587 16.132036
38.643484 -18.375606 17.206302
35.768976 -24.880007 27.53212
35.346853 -25.729982 27.895375
35.877148 -25.964013 26.974694
36.258377 -24.003706 27.056495
35.728083 -23.769675 27.977176
35.768976 -24.880007 27.53212
39.281495 -27.257862 10.598854
39.240652 -28.148205 11.063039
37.332224 -20.458745 25.903067
36.960254 -20.121887 26.839447
37.362394 -21.522938 25.543298
37.686554 -20.721139 24.966548
37.332224 -20.458745 25.903067
35.628137 -35.790617 21.344328
35.219694 -35.760935 22.4328
35.142556 -36.681694 21.682302
36.080938 -34.919203 20.953889
35.628137 -35.790617 21.344328
36.003799 -35.839962 20.203391
37.148897 -34.018162 18.301822
36.840555 -34.054277 19.517808
36.764942 -34.932433 18.596966
37.499451 -33.10338 17.999235
37.148897 -34.018162 18.301822
38.665901 -19.648611 20.654654
38.633533 -18.620415 21.066934
38.567192 -19.464939 21.703245
35.114523 -30.943601 25.893802
35.186493 -31.952613 25.244018
35.023497 -29.930568 26.586651
35.114523 -30.943601 25.893802
35.597199 -29.999817 25.602319
34.935144 -28.824331 27.209487
35.023497 -29.930568 26.586651
35.480598 -27.900386 26.816558
34.909571 -27.737933 27.730877
34.935144 -28.824331 27.209487
39.166808 -28.365302 12.309226
39.188766 -27.637291 13.045334
39.095789 -28.568618 13.476848
39.240652 -28.148205 11.063039
39.166808 -28.365302 12.309226
38.400953 -20.307939 22.365082
38.567192 -19.464939 21.703245
38.444498 -21.316305 21.917372
38.400953 -20.307939 22.365082
38.245891 -21.13111 22.991489
35.208258 -34.873848 23.171253
35.219694 -35.760935 22.4328
35.208258 -34.873848 23.171253
35.682997 -33.979709 22.862184
35.674471 -32.051206 24.269506
35.186493 -31.952613 25.244018
36.130083 -31.172569 23.863083
35.674471 -32.051206 24.269506
36.116329 -32.210924 23.223118
37.616741 -31.374519 19.552254
37.279674 -32.228963 19.955499
37.561577 -32.285562 18.819419
37.940052 -30.559723 19.099136
37.65815 -30.503124 20.235216
37.616741 -31.374519 19.552254
38.177408 -30.526176 18.027181
38.218817 -29.654781 18.710142
37.940052 -30.559723 19.099136
38.428938 -30.40925 16.789053
38.177408 -30.526176 18.027181
38.150173 -31.314192 17.178047
38.560461 -31.101534 14.742342
38.775364 -30.249744 14.37901
38.616606 -30.345475 15.576587
38.560461 -31.101534 14.742342
38.300522 -31.986624 15.144714
38.717352 -17.788224 20.379354
38.633533 -18.620415 21.066934
38.717352 -17.788224 20.379354
38.720185 -18.035813 19.3472
38.412357 -18.601773 15.06446
38.579648 -18.547587 16.132036
38.48362 -19.44954 14.700237
38.412357 -18.601773 15.06446
38.541208 -20.286564 14.152097
38.48362 -19.44954 14.700237
38.674777 -20.258895 15.228445
38.623991 -21.062354 13.577327
38.541208 -20.286564 14.152097
38.717747 -21.898612 13.022711
38.623991 -21.062354 13.577327
38.826121 -21.932177 14.125688
38.843046 -22.674828 12.466246
38.717747 -21.898612 13.022711
34.887148 -26.589916 28.201463
34.909571 -27.737933 27.730877
34.887148 -26.589916 28.201463
35.346853 -25.729982 27.895375
35.698597 -22.667926 28.350488
35.728083 -23.769675 27.977176
36.147039 -21.772426 27.916793
35.698597 -22.667926 28.350488
36.612774 -22.076958 26.990685
36.542329 -20.956011 27.405926
36.147039 -21.772426 27.916793
38.935192 -23.459353 11.776605
38.843046 -22.674828 12.466246
39.012022 -23.55296 12.881431
39.046057 -24.159121 11.085268
38.935192 -23.459353 11.776605
39.112538 -24.854639 10.415993
39.046057 -24.159121 11.085268
39.170648 -25.033001 11.522515
39.195219 -25.473713 9.599115
39.112538 -24.854639 10.415993
39.270167 -26.405133 10.086618
39.248457 -26.581246 11.365476
39.281495 -27.257862 10.598854
39.195219 -25.473713 9.599115
39.270167 -26.405133 10.086618
38.952669 -29.395157 13.976997
38.775364 -30.249744 14.37901
3 52 12 53
3 54 14 55
3 57 56 14
3 0 18 16
3 0 20 18
3 1 22 21
3 1 24 22
3 1 26 24
3 2 29 27
3 2 31 29
3 2 58 60
3 60 59 31
3 58 59 60
3 3 61 62
3 3 63 65
3 63 33 64
3 63 64 65
3 4 66 68
3 68 67 13
3 66 67 68
3 4 69 71
3 69 34 70
3 69 70 71
3 4 36 34
3 73 72 15
3 74 37 75
3 77 76 37
3 6 78 80
3 80 79 17
3 78 79 80
3 6 81 82
3 6 83 85
3 83 38 84
3 83 84 85
3 7 39 19
3 7 40 39
3 8 86 88
3 88 87 23
3 86 87 88
3 8 89 91
3 89 41 90
3 89 90 91
3 8 42 41
3 9 43 25
3 9 44 43
3 5 45 35
3 10 46 28
3 10 47 46
3 10 48 47
3 11 49 30
3 11 50 49
3 11 51 50
3 93 92 32
3 12 94 95
3 12 96 98
3 96 3 97
3 96 97 98
3 99 13 100
3 99 100 101
3 14 102 104
3 102 13 103
3 102 103 104
3 14 4 13
3 14 15 4
3 105 15 106
3 107 106 14
3 105 106 107
3 109 108 15
3 16 110 112
3 110 17 111
3 110 111 112
3 18 17 16
3 18 6 17
3 18 19 6
3 20 19 18
3 20 7 19
3 21 113 114
3 22 115 117
3 117 116 21
3 115 116 117
3 22 118 119
3 22 120 122
3 120 23 121
3 120 121 122
3 24 23 22
3 24 8 23
3 24 25 8
3 26 25 24
3 26 9 25
3 27 28 5
3 29 28 27
3 29 10 28
3 29 30 10
3 31 30 29
3 31 11 30
3 31 32 11
3 123 32 124
3 125 124 31
3 123 124 125
3 127 126 32
3 128 16 129
3 33 130 132
3 130 16 131
3 130 131 132
3 33 0 16
3 13 133 134
3 136 135 13
3 137 21 138
3 34 139 141
3 139 21 140
3 139 140 141
3 34 1 21
3 34 35 1
3 36 35 34
3 36 5 35
3 15 36 4
3 142 36 143
3 144 143 15
3 142 143 144
3 145 5 146
3 147 146 36
3 145 146 147
3 148 27 149
3 150 149 5
3 148 149 150
3 37 151 153
3 151 27 152
3 151 152 153
3 37 2 27
3 37 154 156
3 156 155 2
3 154 155 156
3 158 157 37
3 17 159 160
3 162 161 17
3 38 163 164
3 38 165 166
3 19 38 6
3 39 38 19
3 39 167 169
3 169 168 38
3 167 168 169
3 39 170 171
3 40 172 174
3 174 173 39
3 172 173 174
3 40 175 176
3 23 177 178
3 180 179 23
3 41 181 182
3 41 183 184
3 41 185 187
3 185 12 186
3 185 186 187
3 42 12 41
3 42 3 12
3 25 42 8
3 43 42 25
3 43 3 42
3 43 33 3
3 44 33 43
3 44 0 33
3 35 26 1
3 45 26 35
3 45 9 26
3 28 45 5
3 46 45 28
3 46 9 45
3 46 44 9
3 47 44 46
3 47 0 44
3 47 20 0
3 48 20 47
3 48 7 20
3 30 48 10
3 49 48 30
3 49 7 48
3 49 40 7
3 50 40 49
3 50 188 190
3 190 189 40
3 188 189 190
3 50 191 192
3 51 193 195
3 195 194 50
3 193 194 195
3 51 196 197
3 32 51 11
3 198 51 199
3 200 199 32
3 198 199 200
3 202 201 51
3 204 203 2
