ply
format ascii 1.0
element vertex 125
property float x
property float y
property float z
element face 104
property list uchar int vertex_index
end_header
28.533028 -61.504387 -13.996135
28.818604 -64.21405 -23.774693
28.79034 -63.010532 -18.92079
30.919535 -57.397522 -18.386124
31.341959 -58.419144 -23.069662
28.262833 -59.882462 -9.312933
26.314438 -64.999603 -9.599839
29.460131 -58.944942 -13.856179
29.718985 -59.498585 -16.146528
28.915182 -63.507545 -21.381483
30.085854 -60.717442 -20.909515
30.20652 -61.174026 -23.327293
31.472141 -58.726345 -25.380272
30.090298 -61.829971 -25.682331
27.59812 -63.993546 -14.462627
28.760384 -62.161102 -16.622694
27.584227 -64.969154 -16.877981
29.892931 -60.219364 -18.530512
31.104031 -58.034031 -20.593882
28.374723 -60.745411 -11.652536
27.316889 -62.388599 -9.248597
27.436592 -63.248268 -11.855387
28.639805 -64.779701 -26.185272
27.006504 -65.832561 -15.783692
27.591174 -64.48135 -15.670304
27.013451 -65.344758 -14.576016
31.321407 -56.073637 -18.234451
30.75257 -57.147469 -17.157995
31.462199 -56.361592 -19.354173
31.321407 -56.073637 -18.234451
31.840348 -57.014803 -22.879805
31.721384 -56.822246 -21.641915
31.222995 -58.226588 -21.831772
31.949022 -57.171251 -24.024392
31.840348 -57.014803 -22.879805
32.087988 -57.402874 -26.312134
31.479283 -58.848505 -26.517308
28.750754 -59.054466 -10.403325
28.665995 -58.636353 -9.197988
28.318778 -60.313936 -10.482734
28.806698 -59.485941 -11.573127
28.750754 -59.054466 -10.403325
26.815663 -63.694101 -9.424218
26.829069 -63.155428 -8.123373
26.327844 -64.460929 -8.298994
26.354101 -65.401905 -10.853174
26.915177 -64.526238 -11.980948
26.875515 -64.123936 -10.727613
28.510529 -64.970371 -27.325998
27.799974 -66.346348 -26.344958
29.301997 -63.470333 -27.075139
28.510529 -64.970371 -27.325998
30.022869 -57.921178 -14.893023
29.845717 -57.693537 -13.699759
30.152296 -58.198 -16.038197
30.022869 -57.921178 -14.893023
29.589558 -59.221763 -15.001354
30.31926 -58.448054 -17.266326
30.75257 -57.147469 -17.157995
30.152296 -58.198 -16.038197
30.788362 -60.400318 -26.668337
31.479283 -58.848505 -26.517308
30.781219 -60.278158 -25.531302
28.22684 -59.424986 -8.120401
28.665995 -58.636353 -9.197988
25.787489 -65.768715 -8.401438
26.327844 -64.460929 -8.298994
25.756168 -66.310646 -9.735809
25.787489 -65.768715 -8.401438
26.972877 -66.321739 -17.050689
27.006504 -65.832561 -15.783692
27.584901 -65.352631 -18.066728
26.972877 -66.321739 -17.050689
28.187957 -64.37332 -19.088133
28.187283 -63.989843 -17.899386
27.584901 -65.352631 -18.066728
28.250379 -64.621826 -20.31848
28.852761 -63.259039 -20.151136
28.187957 -64.37332 -19.088133
28.21373 -64.984921 -21.501821
28.250379 -64.621826 -20.31848
28.165441 -65.338173 -22.698425
28.866893 -63.860798 -22.578088
28.21373 -64.984921 -21.501821
31.554447 -56.679846 -20.458052
31.462199 -56.361592 -19.354173
31.011783 -57.715777 -19.490003
31.554447 -56.679846 -20.458052
31.721384 -56.822246 -21.641915
32.014112 -57.324852 -25.179697
31.949022 -57.171251 -24.024392
31.40705 -58.572744 -24.224967
32.014112 -57.324852 -25.179697
32.087988 -57.402874 -26.312134
29.349403 -58.585707 -12.674948
29.845717 -57.693537 -13.699759
28.917427 -59.845176 -12.754357
29.349403 -58.585707 -12.674948
28.806698 -59.485941 -11.573127
27.794566 -60.627684 -8.120188
28.22684 -59.424986 -8.120401
27.321593 -61.880752 -8.088021
26.829069 -63.155428 -8.123373
27.789861 -61.135531 -9.280765
27.794566 -60.627684 -8.120188
27.321593 -61.880752 -8.088021
26.995942 -64.898877 -13.284568
27.517356 -63.620907 -13.159007
26.915177 -64.526238 -11.980948
27.013451 -65.344758 -14.576016
26.995942 -64.898877 -13.284568
26.354101 -65.401905 -10.853174
25.756168 -66.310646 -9.735809
28.073869 -65.692806 -23.927874
28.165441 -65.338173 -22.698425
27.984469 -65.975631 -25.133164
27.799974 -66.346348 -26.344958
28.729205 -64.496876 -24.979982
28.073869 -65.692806 -23.927874
27.984469 -65.975631 -25.133164
30.027244 -61.995468 -26.823669
29.365051 -63.304836 -25.933802
29.301997 -63.470333 -27.075139
30.788362 -60.400318 -26.668337
30.027244 -61.995468 -26.823669
3 0 8 7
3 1 11 9
3 1 13 11
3 23 16 24
3 25 24 14
3 23 24 25
3 3 26 27
3 3 28 29
3 2 17 15
3 4 18 10
3 4 30 32
3 32 31 18
3 30 31 32
3 4 33 34
3 36 35 12
3 5 37 38
3 5 39 41
3 39 19 40
3 39 40 41
3 6 42 44
3 42 20 43
3 42 43 44
3 6 21 20
3 6 45 47
3 47 46 21
3 45 46 47
3 48 22 49
3 51 50 22
3 7 52 53
3 8 54 56
3 56 55 7
3 54 55 56
3 8 57 59
3 57 3 58
3 57 58 59
3 9 10 2
3 11 10 9
3 11 4 10
3 11 12 4
3 13 12 11
3 13 60 62
3 62 61 12
3 60 61 62
3 63 5 64
3 65 6 66
3 68 67 6
3 14 15 0
3 16 15 14
3 16 2 15
3 69 16 70
3 71 16 72
3 73 2 74
3 75 74 16
3 73 74 75
3 76 9 77
3 78 77 2
3 76 77 78
3 79 9 80
3 81 1 82
3 83 82 9
3 81 82 83
3 15 8 0
3 17 8 15
3 17 3 8
3 10 17 2
3 18 17 10
3 18 3 17
3 18 84 86
3 86 85 3
3 84 85 86
3 88 87 18
3 12 89 91
3 91 90 4
3 89 90 91
3 93 92 12
3 94 7 95
3 19 96 98
3 96 7 97
3 96 97 98
3 19 0 7
3 99 5 100
3 20 101 102
3 20 103 105
3 103 5 104
3 103 104 105
3 20 19 5
3 21 19 20
3 21 0 19
3 21 14 0
3 106 14 107
3 108 107 21
3 106 107 108
3 110 109 14
3 112 111 6
3 113 1 114
3 22 115 116
3 22 117 119
3 117 1 118
3 117 118 119
3 22 13 1
3 120 13 121
3 122 121 22
3 120 121 122
3 124 123 13
