ply
format ascii 1.0
element vertex 115
property float x
property float y
property float z
element face 83
property list uchar int vertex_index
end_header
-2.159414 2.618351 -63.907612
-1.171281 -7.482529 -58.61541
-1.609417 7.86278 -64.809166
-0.967914 -4.640103 -59.454624
-1.899208 5.343213 -64.478088
-0.567769 -12.820652 -55.740295
-1.453385 0.360106 -62.134014
-2.32936 -0.133599 -63.094769
-1.656259 -2.40526 -61.332668
-1.852878 -5.151157 -60.478836
-2.46372 10.138514 -66.427834
-0.463858 -10.016495 -56.598957
-2.029311 3.980782 -64.19285
-1.54015 4.130035 -63.577659
-1.670253 2.767604 -63.292422
-2.553975 3.758407 -64.756167
-2.423872 5.120838 -65.041404
-2.029311 3.980782 -64.19285
-2.658078 2.494744 -64.43992
-2.553975 3.758407 -64.756167
-1.109905 -0.79365 -61.17622
-0.99894 0.432214 -61.475611
-1.211342 -2.176333 -60.775547
-1.554822 -1.022577 -61.733341
-1.109905 -0.79365 -61.17622
-1.583938 -7.717075 -59.064318
-1.924736 -6.55139 -59.996031
-1.51208 -6.316843 -59.547123
-1.074874 7.987293 -64.063195
-1.227933 6.681351 -63.922886
-1.488225 9.120579 -64.933266
-1.074874 7.987293 -64.063195
-2.036569 9.000647 -65.6185
-1.915376 10.258447 -65.7426
-1.488225 9.120579 -64.933266
-2.851225 -0.300482 -63.610132
-2.450245 -1.507171 -62.690827
-0.103767 -11.30226 -55.585832
-0.087288 -9.865531 -56.048319
0.272802 -11.151296 -55.035195
-0.924754 -11.513545 -56.718786
-0.964418 -13.021394 -56.197235
-0.557698 -4.550227 -58.838223
-0.86717 -3.293754 -59.836525
-0.652075 -5.899667 -58.46736
-0.557698 -4.550227 -58.838223
-0.753758 -7.320881 -58.047753
-1.069597 -6.061316 -59.035017
-0.652075 -5.899667 -58.46736
-1.372828 5.421568 -63.757347
-1.54015 4.130035 -63.577659
-1.754313 6.602996 -64.643627
-1.227933 6.681351 -63.922886
-1.372828 5.421568 -63.757347
-2.336806 6.478487 -65.339199
-2.191911 7.73827 -65.504738
-1.754313 6.602996 -64.643627
-2.336806 6.478487 -65.339199
-2.423872 5.120838 -65.041404
-0.1567 -14.071883 -54.72933
-0.155723 -12.704339 -55.156502
-0.54871 -14.382162 -55.185462
-0.1567 -14.071883 -54.72933
-0.964418 -13.021394 -56.197235
-0.54871 -14.382162 -55.185462
-1.317239 1.638481 -62.405622
-0.99894 0.432214 -61.475611
-1.806399 1.489229 -63.020813
-1.670253 2.767604 -63.292422
-1.317239 1.638481 -62.405622
-2.113695 -2.643002 -61.809776
-2.450245 -1.507171 -62.690827
-1.992809 -1.269429 -62.213718
-1.312086 -3.522682 -60.393646
-1.211342 -2.176333 -60.775547
-0.86717 -3.293754 -59.836525
-2.212004 -4.01595 -61.38286
-2.113695 -2.643002 -61.809776
-1.754568 -3.778209 -60.905752
-2.28901 -5.364034 -60.913019
-2.212004 -4.01595 -61.38286
-2.28901 -5.364034 -60.913019
-1.924736 -6.55139 -59.996031
-2.31858 11.452376 -66.464623
-1.915376 10.258447 -65.7426
-2.924088 11.219729 -67.122974
-2.31858 11.452376 -66.464623
-2.619062 8.876137 -66.314072
-2.036569 9.000647 -65.6185
-2.191911 7.73827 -65.504738
-3.085441 9.979824 -67.066159
-2.619062 8.876137 -66.314072
-2.924088 11.219729 -67.122974
-3.085441 9.979824 -67.066159
-2.74305 1.118769 -64.033499
-2.658078 2.494744 -64.43992
-2.244387 1.242376 -63.50119
-2.74305 1.118769 -64.033499
-2.851225 -0.300482 -63.610132
-0.400046 -8.587864 -57.039526
-0.087288 -9.865531 -56.048319
-0.81757 -8.749512 -57.607183
-0.753758 -7.320881 -58.047753
-0.400046 -8.587864 -57.039526
-0.515813 -11.418574 -56.169626
-0.103767 -11.30226 -55.585832
-0.155723 -12.704339 -55.156502
-0.872798 -10.111467 -57.148117
-0.515813 -11.418574 -56.169626
-0.924754 -11.513545 -56.718786
-1.22651 -8.844484 -58.156343
-0.81757 -8.749512 -57.607183
-0.872798 -10.111467 -57.148117
-1.583938 -7.717075 -59.064318
-1.22651 -8.844484 -58.156343
3 0 12 14
3 12 4 13
3 12 13 14
3 0 15 17
3 17 16 4
3 15 16 17
3 0 18 19
3 20 6 21
3 22 8 23
3 24 23 6
3 22 23 24
3 1 9 3
3 1 25 27
3 27 26 9
3 25 26 27
3 2 28 29
3 2 30 31
3 2 32 34
3 32 10 33
3 32 33 34
3 36 35 7
3 37 11 38
3 37 38 39
3 41 40 5
3 42 3 43
3 44 3 45
3 46 1 47
3 48 47 3
3 46 47 48
3 4 49 50
3 4 51 53
3 51 2 52
3 51 52 53
3 4 54 56
3 56 55 2
3 54 55 56
3 58 57 4
3 59 5 60
3 61 5 62
3 64 63 5
3 6 65 66
3 6 67 69
3 67 0 68
3 67 68 69
3 6 7 0
3 8 7 6
3 8 70 72
3 72 71 7
3 70 71 72
3 3 73 75
3 73 8 74
3 73 74 75
3 9 8 3
3 9 76 78
3 78 77 8
3 76 77 78
3 9 79 80
3 82 81 9
3 10 83 84
3 10 85 86
3 87 10 88
3 89 88 2
3 87 88 89
3 90 10 91
3 93 92 10
3 7 94 96
3 96 95 0
3 94 95 96
3 98 97 7
3 11 99 100
3 11 101 103
3 101 1 102
3 101 102 103
3 5 104 106
3 104 11 105
3 104 105 106
3 107 11 108
3 109 108 5
3 107 108 109
3 110 1 111
3 112 111 11
3 110 111 112
3 114 113 1
