ply
format ascii 1.0
element vertex 91
property float x
property float y
property float z
element face 74
property list uchar int vertex_index
end_header
-32.090153 -34.016129 31.186029
-36.693016 -35.222507 24.837915
-34.692616 -34.605007 28.39769
-32.690239 -38.19949 29.835768
-34.890442 -38.908554 26.624008
-31.149107 -35.887165 31.659674
-31.494761 -37.887096 31.036245
-32.451077 -36.114876 30.545197
-35.778927 -34.919861 26.710941
-34.840565 -36.803482 27.577749
-35.861469 -37.064003 25.74671
-35.790569 -39.068115 24.778715
-33.437035 -34.321434 29.906834
-33.692806 -36.409054 29.199005
-33.852825 -38.48991 28.369801
-36.672713 -36.311714 24.313344
-36.256939 -37.232462 24.767742
-36.277242 -36.143255 25.292313
-32.226937 -39.087044 30.040868
-31.629198 -38.930847 30.641106
-32.0925 -38.043293 30.436007
-32.78239 -39.226487 29.3814
-32.319088 -40.114041 29.5865
-32.226937 -39.087044 30.040868
-34.362816 -39.793593 27.021857
-33.844008 -39.584271 27.894754
-34.371634 -38.699232 27.496904
-34.834704 -39.93129 26.118666
-34.362816 -39.793593 27.021857
-35.967402 -40.40538 23.230191
-35.655758 -40.169932 24.22063
-36.102213 -39.303564 23.788276
-31.321934 -36.88713 31.34796
-30.838861 -37.735157 31.558183
-30.666034 -36.735191 31.869897
-36.221489 -38.234518 24.283744
-35.826019 -38.066059 25.262712
-36.256939 -37.232462 24.767742
-36.102213 -39.303564 23.788276
-36.221489 -38.234518 24.283744
-33.290183 -33.265457 30.203226
-32.763594 -34.168782 30.546432
-32.616742 -33.112804 30.842823
-33.933815 -33.362578 29.525681
-33.290183 -33.265457 30.203226
-34.561605 -33.504364 28.77111
-34.064825 -34.463221 29.152262
-33.933815 -33.362578 29.525681
-35.154303 -33.614339 27.978177
-34.561605 -33.504364 28.77111
-35.697458 -33.771766 27.134802
-35.235771 -34.762434 27.554316
-35.154303 -33.614339 27.978177
-36.178599 -33.992044 26.276112
-35.697458 -33.771766 27.134802
-36.635643 -34.143367 25.339599
-36.235972 -35.071184 25.774428
-36.178599 -33.992044 26.276112
-30.465281 -35.827864 32.121089
-30.666034 -36.735191 31.869897
-30.921303 -34.878042 31.946025
-30.465281 -35.827864 32.121089
-30.237477 -34.818741 32.40744
-31.391826 -33.942524 31.709203
-31.61963 -34.951647 31.422852
-30.921303 -34.878042 31.946025
-31.8906 -32.960229 31.464557
-31.391826 -33.942524 31.709203
-32.616742 -33.112804 30.842823
-31.8906 -32.960229 31.464557
-31.034448 -38.701183 31.226547
-30.378548 -38.549244 31.748484
-30.838861 -37.735157 31.558183
-31.034448 -38.701183 31.226547
-31.629198 -38.930847 30.641106
-33.363684 -39.371696 28.648416
-32.78239 -39.226487 29.3814
-33.271532 -38.3447 29.102784
-33.363684 -39.371696 28.648416
-33.844008 -39.584271 27.894754
-35.284767 -40.01107 25.19602
-34.834704 -39.93129 26.118666
-35.340505 -38.988335 25.701361
-35.284767 -40.01107 25.19602
-35.655758 -40.169932 24.22063
-37.056576 -34.155832 24.397281
-36.635643 -34.143367 25.339599
-37.05151 -35.285217 23.878987
-37.056576 -34.155832 24.397281
-36.672713 -36.311714 24.313344
-37.05151 -35.285217 23.878987
3 0 7 5
3 1 10 8
3 1 15 17
3 17 16 10
3 15 16 17
3 3 18 20
3 20 19 6
3 18 19 20
3 3 21 23
3 21 22 23
3 2 13 12
3 4 14 9
3 4 24 26
3 26 25 14
3 24 25 26
3 4 27 28
3 31 30 11
3 29 30 31
3 5 32 34
3 32 6 33
3 32 33 34
3 7 6 5
3 7 3 6
3 8 9 2
3 10 9 8
3 10 4 9
3 10 11 4
3 35 11 36
3 37 36 10
3 35 36 37
3 39 38 11
3 40 12 41
3 42 41 0
3 40 41 42
3 43 12 44
3 45 2 46
3 47 46 12
3 45 46 47
3 48 2 49
3 50 8 51
3 52 51 2
3 50 51 52
3 53 8 54
3 55 1 56
3 57 56 8
3 55 56 57
3 58 5 59
3 60 5 61
3 60 61 62
3 63 0 64
3 65 64 5
3 63 64 65
3 66 0 67
3 69 68 0
3 6 70 72
3 70 71 72
3 74 73 6
3 12 7 0
3 13 7 12
3 13 3 7
3 9 13 2
3 14 13 9
3 14 3 13
3 14 75 77
3 77 76 3
3 75 76 77
3 79 78 14
3 11 80 82
3 82 81 4
3 80 81 82
3 84 83 11
3 85 1 86
3 87 1 88
3 90 89 1
