ply
format ascii 1.0
element vertex 324
property float x
property float y
property float z
element face 306
property list uchar int vertex_index
end_header
-4.84901 20.338627 53.584236
10.067377 30.895485 59.100849
17.190144 36.660641 60.863956
-3.694092 32.370285 50.033188
4.077915 38.456913 52.145973
2.514397 25.194952 56.47451
19.882843 23.780363 66.014908
-8.489848 17.933165 51.772488
-8.139748 23.450336 50.398663
-7.407825 29.216814 48.941814
-4.299783 26.105581 52.034351
-0.634149 28.781446 53.23756
7.005913 34.673969 55.622032
10.773339 37.818066 56.781925
13.129683 26.534208 62.48241
13.686233 33.484062 60.324448
16.819893 28.965656 63.497456
20.177362 31.329996 63.715485
-6.765344 35.325352 46.970512
0.105205 35.04467 51.168327
3.179906 31.598673 54.430809
6.345139 27.960848 57.829613
-6.692063 19.189861 52.693718
-8.206762 20.673477 51.199219
-6.473364 21.985044 52.005795
-6.222353 24.760918 51.275684
-4.645636 23.242298 52.796516
-2.723981 24.538723 53.55146
8.456666 32.664135 57.379272
8.925774 36.306503 56.203167
10.356116 34.121422 58.028389
15.030713 27.674999 63.106503
16.673733 25.301903 64.595306
20.038258 27.543617 64.924324
-5.591647 30.604479 49.582253
-7.113036 32.193527 48.012016
-5.267342 33.714653 48.560066
-3.252731 35.471275 49.033482
-1.215314 37.012188 49.571491
-1.73673 33.693947 50.643253
0.995665 27.062311 54.86824
1.314111 30.010387 53.920979
2.930827 28.227852 55.60004
4.719132 29.736618 56.129658
4.459897 26.520491 57.182194
15.384819 34.985981 60.674305
13.945792 37.178848 59.015976
15.766531 38.850292 59.319027
18.220839 22.746126 65.89238
-9.266755 28.033768 48.076462
-7.768991 26.325403 49.714233
-5.93175 27.601414 50.478905
-3.982207 29.115671 51.122269
-2.128729 30.453552 51.705112
-2.478567 27.385332 52.672256
-0.779496 25.847166 54.256134
5.494751 36.468529 53.892765
5.850236 40.023136 52.595844
7.329755 38.149105 54.3727
-10.151103 14.271279 51.469681
11.484853 28.464895 60.86935
11.922412 31.941486 59.862724
13.470432 29.976007 61.494442
15.326862 31.288258 62.018532
16.957396 32.893909 62.194046
18.419146 26.366465 64.893539
18.421053 30.335381 63.623581
18.660667 34.156891 62.350437
-9.00474 30.858402 47.244423
-8.599343 33.74041 46.407124
0.691017 38.509178 50.051971
2.140039 36.722668 51.685184
-0.169845 31.829023 52.31041
1.705021 33.446857 52.777569
3.656868 34.921234 53.372196
5.165376 32.955929 55.134693
6.709293 31.268299 56.800236
8.296515 29.118692 58.640232
7.905153 25.763889 59.59906
9.813125 27.12184 60.316002
12.150188 35.751419 58.510559
12.673644 39.632179 57.226124
-3.933809 20.884147 53.996389
-3.832122 22.335983 53.60253
-4.747323 21.790463 53.190376
16.510501 23.544258 65.041359
15.730063 24.776433 64.331894
4.231368 40.200991 51.476795
3.352581 39.313254 51.323433
-9.182759 18.639981 51.059138
-9.293141 17.302775 51.334725
-8.968397 22.776982 50.002999
-9.001904 21.388552 50.403277
-8.173255 22.061906 50.798941
-8.868555 24.265926 49.611699
-8.968397 22.776982 50.002999
-7.95437 24.88787 50.056448
-8.683177 25.70346 49.269483
-8.868555 24.265926 49.611699
-1.008098 24.382198 54.635006
-1.751739 25.192945 53.903797
-1.980341 23.727976 54.282669
-0.053333 24.865953 55.043858
-1.008098 24.382198 54.635006
9.995673 38.880633 55.815422
9.071891 38.124851 55.526043
9.849557 37.062285 56.492546
10.918162 39.684273 56.072738
9.995673 38.880633 55.815422
-9.363381 13.520589 52.261854
-10.152185 12.999481 51.786604
-9.364463 12.248792 52.578778
-8.538158 14.07134 52.749804
-9.325881 14.822029 51.957631
-9.363381 13.520589 52.261854
20.310357 33.156287 63.085
19.55201 34.569734 62.402476
19.419014 32.743443 63.032961
-7.517724 36.16853 46.114597
-8.434723 35.376058 45.832903
-7.682343 34.532881 46.688818
-6.529347 36.916621 46.432008
-7.517724 36.16853 46.114597
8.73125 24.741616 60.452518
7.741287 24.089318 60.062208
9.685236 25.420592 60.810989
8.859139 26.442864 59.957531
8.73125 24.741616 60.452518
10.607906 26.050341 61.159563
9.685236 25.420592 60.810989
6.058247 41.761105 51.95602
6.786951 40.826536 52.855339
13.551798 40.421426 57.410601
13.309718 38.405513 58.12105
14.187872 39.194761 58.305527
12.812576 41.476145 56.504909
13.551798 40.421426 57.410601
-2.871295 22.984195 53.980002
-3.684808 23.890511 53.173988
-3.832122 22.335983 53.60253
-1.980341 23.727976 54.282669
-2.871295 22.984195 53.980002
14.908554 25.962981 63.587492
14.080198 27.104603 62.794456
13.958039 25.392585 63.275446
15.852223 26.488451 63.850904
14.908554 25.962981 63.587492
15.730063 24.776433 64.331894
20.791564 26.168599 65.416259
19.960551 25.66199 65.469616
20.713856 24.286972 65.961552
20.841189 28.060085 64.844357
20.791564 26.168599 65.416259
21.594494 26.685067 65.336292
20.91074 29.953274 64.239937
20.10781 29.436807 64.319905
20.841189 28.060085 64.844357
21.022365 31.826581 63.618399
20.91074 29.953274 64.239937
-5.004765 35.337559 48.041105
-5.753766 36.142908 47.246328
-6.016343 34.520003 47.765289
-3.997459 36.215869 48.277813
-5.004765 35.337559 48.041105
-4.260037 34.592964 48.796774
-3.052181 37.025097 48.48513
-3.997459 36.215869 48.277813
-2.234023 36.241732 49.302487
-2.033472 37.795553 48.754135
-3.052181 37.025097 48.48513
15.098242 40.030483 58.457053
14.187872 39.194761 58.305527
14.856162 38.01457 59.167502
18.065279 21.002053 66.316849
17.284054 22.266369 65.689896
17.128494 20.522296 66.114364
18.958463 21.404415 66.441666
18.065279 21.002053 66.316849
18.802903 19.660342 66.866135
19.789465 21.921534 66.50293
19.051841 23.263244 65.953644
18.958463 21.404415 66.441666
20.675959 22.480659 66.462433
19.789465 21.921534 66.50293
21.506972 22.987268 66.409076
20.713856 24.286972 65.961552
20.675959 22.480659 66.462433
-9.041216 20.010137 50.772503
-9.182759 18.639981 51.059138
-8.348305 19.303321 51.485854
-9.041216 20.010137 50.772503
-9.001904 21.388552 50.403277
-9.432059 26.557642 48.450598
-10.21299 27.22758 47.636628
-8.517873 27.179586 48.895347
-9.432059 26.557642 48.450598
-8.683177 25.70346 49.269483
0.834247 25.473526 55.349911
0.108085 26.454739 54.562187
-0.053333 24.865953 55.043858
1.593613 24.539846 56.153046
1.755031 26.128632 55.671375
0.834247 25.473526 55.349911
7.526711 39.889521 53.743767
6.786951 40.826536 52.855339
6.589995 39.08612 53.484272
8.273881 39.046152 54.61081
8.127764 37.227804 55.287934
9.071891 38.124851 55.526043
7.526711 39.889521 53.743767
8.273881 39.046152 54.61081
17.345816 38.536775 60.159596
18.111698 37.261989 60.948225
-10.935318 13.591298 51.003687
-10.152185 12.999481 51.786604
-10.888632 14.843423 50.730326
-10.935318 13.591298 51.003687
-10.123769 15.471832 51.183321
-10.888632 14.843423 50.730326
-10.123769 15.471832 51.183321
-9.325881 14.822029 51.957631
-8.495253 16.652973 52.109034
-9.293141 17.302775 51.334725
-7.675308 17.288228 52.530039
-8.495253 16.652973 52.109034
-7.680713 16.008036 52.866585
-6.776415 17.916576 52.990654
-7.590955 18.561513 52.233103
-7.675308 17.288228 52.530039
-5.855773 18.395125 53.484445
-6.776415 17.916576 52.990654
-4.934247 18.969508 53.929704
-5.770537 19.764244 53.138977
-5.855773 18.395125 53.484445
-4.058144 19.464294 54.354311
-4.934247 18.969508 53.929704
17.447286 24.024014 65.243843
16.510501 23.544258 65.041359
17.284054 22.266369 65.689896
18.84696 36.010115 61.691465
18.111698 37.261989 60.948225
17.925406 35.408766 61.607197
19.738302 36.422958 61.743504
18.84696 36.010115 61.691465
19.55201 34.569734 62.402476
20.310357 33.156287 63.085
21.022365 31.826581 63.618399
-9.985894 28.707824 47.303934
-10.21299 27.22758 47.636628
-9.854886 30.120141 46.887914
-9.985894 28.707824 47.303934
-9.135748 29.446085 47.660443
-9.72753 31.656408 46.409899
-9.854886 30.120141 46.887914
-9.524831 33.097412 45.99125
-9.72753 31.656408 46.409899
-8.802041 32.299406 46.825773
-9.308431 34.589346 45.546724
-9.524831 33.097412 45.99125
-9.308431 34.589346 45.546724
-8.434723 35.376058 45.832903
-6.529347 36.916621 46.432008
-5.753766 36.142908 47.246328
-1.037562 38.632297 48.968653
-2.033472 37.795553 48.754135
-0.084396 39.380792 49.208893
-1.037562 38.632297 48.968653
-0.262149 37.760683 49.811731
0.852801 40.197834 49.402027
-0.084396 39.380792 49.208893
1.659132 39.339386 50.276432
0.852801 40.197834 49.402027
2.383643 38.446131 51.093038
1.659132 39.339386 50.276432
1.415528 37.615923 50.868578
3.108977 37.58979 51.915578
3.352581 39.313254 51.323433
2.383643 38.446131 51.093038
-3.933809 20.884147 53.996389
-4.058144 19.464294 54.354311
2.373625 23.702101 56.910549
1.593613 24.539846 56.153046
3.336844 24.223368 57.315493
2.373625 23.702101 56.910549
4.309594 24.886138 57.669335
3.487147 25.857722 56.828352
3.336844 24.223368 57.315493
5.249365 25.500706 58.033609
4.309594 24.886138 57.669335
6.191986 26.220884 58.357319
5.402518 27.240669 57.505904
5.249365 25.500706 58.033609
6.971993 25.122405 59.242042
7.741287 24.089318 60.062208
7.125146 26.862368 58.714337
6.191986 26.220884 58.357319
6.971993 25.122405 59.242042
11.44377 26.721868 61.436237
10.648989 27.793367 60.592676
10.607906 26.050341 61.159563
12.266185 25.756525 62.242767
12.307268 27.499551 61.67588
11.44377 26.721868 61.436237
13.044455 24.679237 63.020027
12.266185 25.756525 62.242767
13.958039 25.392585 63.275446
13.044455 24.679237 63.020027
5.117528 40.984102 51.70173
4.231368 40.200991 51.476795
4.964075 39.240025 52.370908
5.117528 40.984102 51.70173
6.058247 41.761105 51.95602
11.868314 40.59133 56.294838
10.918162 39.684273 56.072738
11.723491 38.725122 57.004024
11.868314 40.59133 56.294838
12.812576 41.476145 56.504909
16.634009 39.631601 59.387131
16.478338 37.755466 60.091492
17.345816 38.536775 60.159596
16.012786 40.898291 58.560612
16.634009 39.631601 59.387131
15.098242 40.030483 58.457053
16.012786 40.898291 58.560612
3 0 24 22
3 0 26 24
3 0 82 84
3 84 83 26
3 82 83 84
3 1 30 28
3 85 32 86
3 3 36 34
3 3 37 36
3 3 39 37
3 5 42 40
3 5 44 42
3 4 87 88
3 2 47 45
3 7 89 90
3 8 91 93
3 93 92 23
3 91 92 93
3 8 94 95
3 8 96 98
3 96 50 97
3 96 97 98
3 10 51 25
3 10 52 51
3 10 54 52
3 99 55 100
3 101 100 27
3 99 100 101
3 103 102 55
3 12 58 56
3 13 104 106
3 106 105 29
3 104 105 106
3 13 107 108
3 109 59 110
3 109 110 111
3 114 113 59
3 112 113 114
3 14 62 60
3 16 63 31
3 16 64 63
3 6 65 48
3 17 66 33
3 17 67 66
3 17 115 117
3 117 116 67
3 115 116 117
3 9 68 49
3 18 69 35
3 18 118 120
3 120 119 69
3 118 119 120
3 18 121 122
3 19 70 38
3 19 71 70
3 11 72 53
3 20 73 41
3 20 74 73
3 20 75 74
3 21 76 43
3 21 77 76
3 123 78 124
3 125 79 126
3 127 126 78
3 125 126 127
3 129 128 79
3 131 130 57
3 15 80 61
3 132 81 133
3 134 133 46
3 132 133 134
3 136 135 81
3 22 23 7
3 24 23 22
3 24 8 23
3 24 25 8
3 26 25 24
3 26 10 25
3 26 27 10
3 137 27 138
3 139 138 26
3 137 138 139
3 141 140 27
3 28 29 12
3 30 29 28
3 30 13 29
3 142 31 143
3 144 143 14
3 142 143 144
3 32 145 147
3 145 31 146
3 145 146 147
3 32 16 31
3 148 33 149
3 150 149 6
3 148 149 150
3 151 33 152
3 151 152 153
3 154 17 155
3 156 155 33
3 154 155 156
3 158 157 17
3 34 35 9
3 36 35 34
3 36 18 35
3 36 159 161
3 161 160 18
3 159 160 161
3 37 162 164
3 164 163 36
3 162 163 164
3 37 165 166
3 37 167 169
3 167 38 168
3 167 168 169
3 39 38 37
3 39 19 38
3 40 41 11
3 42 41 40
3 42 20 41
3 42 43 20
3 44 43 42
3 44 21 43
3 45 46 15
3 47 46 45
3 47 170 172
3 172 171 46
3 170 171 172
3 173 48 174
3 173 174 175
3 176 48 177
3 176 177 178
3 179 6 180
3 181 180 48
3 179 180 181
3 182 6 183
3 186 185 6
3 184 185 186
3 23 187 189
3 189 188 7
3 187 188 189
3 191 190 23
3 192 49 193
3 50 194 196
3 194 49 195
3 194 195 196
3 50 9 49
3 25 50 8
3 51 50 25
3 51 9 50
3 51 34 9
3 52 34 51
3 52 3 34
3 52 53 3
3 54 53 52
3 54 11 53
3 27 54 10
3 55 54 27
3 55 11 54
3 55 40 11
3 197 40 198
3 199 198 55
3 197 198 199
3 200 5 201
3 202 201 40
3 200 201 202
3 56 57 4
3 58 57 56
3 58 203 205
3 205 204 57
3 203 204 205
3 29 58 12
3 206 58 207
3 208 207 29
3 206 207 208
3 210 209 58
3 212 211 2
3 59 213 214
3 59 215 216
3 59 217 218
3 220 219 59
3 221 7 222
3 223 7 224
3 223 224 225
3 226 22 227
3 228 227 7
3 226 227 228
3 229 22 230
3 231 0 232
3 233 232 22
3 231 232 233
3 235 234 0
3 60 61 1
3 62 61 60
3 62 15 61
3 31 62 14
3 63 62 31
3 63 15 62
3 63 45 15
3 64 45 63
3 64 2 45
3 48 236 238
3 236 32 237
3 236 237 238
3 65 32 48
3 65 16 32
3 33 65 6
3 66 65 33
3 66 16 65
3 66 64 16
3 67 64 66
3 67 2 64
3 67 239 241
3 241 240 2
3 239 240 241
3 244 243 67
3 242 243 244
3 246 245 17
3 49 247 248
3 68 249 251
3 251 250 49
3 249 250 251
3 68 252 253
3 35 68 9
3 69 68 35
3 69 254 256
3 256 255 68
3 254 255 256
3 69 257 258
3 260 259 69
3 262 261 18
3 38 263 264
3 70 265 267
3 267 266 38
3 265 266 267
3 70 268 269
3 70 270 271
3 71 272 274
3 274 273 70
3 272 273 274
3 71 275 277
3 275 4 276
3 275 276 277
3 53 39 3
3 72 39 53
3 72 19 39
3 41 72 11
3 73 72 41
3 73 19 72
3 73 71 19
3 74 71 73
3 74 4 71
3 74 56 4
3 75 56 74
3 75 12 56
3 43 75 20
3 76 75 43
3 76 12 75
3 76 28 12
3 77 28 76
3 77 1 28
3 279 278 0
3 280 5 281
3 282 5 283
3 284 44 285
3 286 285 5
3 284 285 286
3 287 44 288
3 289 21 290
3 291 290 44
3 289 290 291
3 78 292 293
3 78 294 296
3 294 21 295
3 294 295 296
3 78 77 21
3 79 77 78
3 79 1 77
3 79 60 1
3 297 60 298
3 299 298 79
3 297 298 299
3 300 14 301
3 302 301 60
3 300 301 302
3 303 14 304
3 306 305 14
3 57 307 309
3 309 308 4
3 307 308 309
3 311 310 57
3 61 30 1
3 80 30 61
3 80 13 30
3 46 80 15
3 81 80 46
3 81 13 80
3 81 312 314
3 314 313 13
3 312 313 314
3 316 315 81
3 317 47 318
3 319 318 2
3 317 318 319
3 320 47 321
3 323 322 47
