ply
format ascii 1.0
element vertex 236
property float x
property float y
property float z
element face 179
property list uchar int vertex_index
end_header
-22.269123 -74.375648 -6.571964
-27.804794 -59.345737 -0.554578
-24.687418 -69.210152 -7.316487
-14.92994 -85.290909 -1.648702
-17.995033 -80.628281 -1.194451
-20.604429 -75.891136 -1.407728
-22.825748 -71.328384 -2.093705
-25.041176 -66.465782 -3.106242
-25.824518 -66.69178 -7.78218
-25.572514 -68.256645 -9.837978
-19.360601 -78.345985 -1.518396
-23.936007 -68.84201 -2.417841
-21.084185 -76.838303 -6.55312
-20.664371 -78.467346 -8.809135
-22.019423 -75.788574 -8.906476
-26.343327 -62.820045 -1.650876
-23.494173 -71.814697 -6.932064
-23.227722 -73.28949 -9.095648
-24.406713 -70.741112 -9.309509
-3.282255 -80.918282 19.152884
-4.374097 -82.40979 16.948366
-12.137626 -87.661209 0.489213
-17.418554 -82.518929 -3.849376
-18.393295 -81.802353 -6.45655
-18.780102 -80.245781 -3.859435
-20.182991 -77.655495 -3.893081
-21.371941 -75.337364 -4.110065
-22.586876 -72.834953 -4.4345
-23.758347 -70.290161 -4.794774
-24.845863 -67.858307 -5.179274
-16.57884 -82.908867 -1.362831
-19.28845 -81.063736 -8.965045
-26.112339 -64.086197 -3.595548
-26.296155 -66.163337 -9.079777
-26.367547 -65.498516 -8.0774
-27.228374 -60.489452 -0.263381
-27.434876 -59.833395 0.749465
-27.637106 -59.945291 -1.495072
-27.228374 -60.489452 -0.263381
-25.469491 -68.950207 -10.860287
-26.075591 -67.623554 -11.058151
-5.304994 -81.885052 17.121681
-4.735551 -81.262886 18.115441
-14.0926 -86.346645 -1.735926
-14.415356 -85.426689 -0.391162
-22.29598 -72.458869 -1.93741
-22.432792 -71.665318 -0.714524
-22.706312 -72.081669 -3.264102
-22.176544 -73.212154 -3.107807
-22.29598 -72.458869 -1.93741
-25.499893 -65.915897 -4.3868
-25.402237 -66.61216 -5.423316
-24.94352 -67.162045 -4.142758
-17.286936 -81.768574 -1.278641
-16.845637 -82.008758 -0.058038
-17.553733 -80.868465 0.026152
-19.511339 -80.211052 -7.615841
-18.840872 -81.433044 -7.710797
-19.063761 -80.58036 -6.361593
-20.439208 -79.292286 -10.057416
-21.120558 -77.987651 -10.029655
-23.059587 -74.095901 -10.263921
-23.720147 -72.706688 -10.344715
-26.668242 -62.925736 -3.983324
-26.227833 -63.453121 -2.623212
-26.783735 -62.292659 -3.010988
-26.556094 -63.587282 -4.926089
-26.668242 -62.925736 -3.983324
-2.421428 -81.305084 19.091393
-2.897293 -82.149036 17.913359
-11.238962 -88.642418 0.241032
-11.820783 -88.575005 -0.910685
-26.170153 -66.94577 -10.107676
-25.698516 -67.474212 -8.810079
-26.296155 -66.163337 -9.079777
-26.673229 -66.312679 -11.327849
-26.075591 -67.623554 -11.058151
-26.170153 -66.94577 -10.107676
-14.605221 -86.214577 -3.02506
-15.442484 -85.040558 -2.865321
-18.900116 -78.643505 -0.127373
-18.677817 -79.487133 -1.356424
-18.217332 -79.784653 0.0346
-19.504638 -77.593338 -0.247108
-18.900116 -78.643505 -0.127373
-20.126551 -76.365914 -0.191774
-19.982515 -77.118561 -1.463062
-19.504638 -77.593338 -0.247108
-22.961062 -70.537929 -0.92845
-22.432792 -71.665318 -0.714524
-23.516191 -69.294742 -1.090518
-23.380878 -70.085197 -2.255773
-22.961062 -70.537929 -0.92845
-24.046449 -68.158756 -1.393764
-23.516191 -69.294742 -1.090518
-24.599034 -66.970642 -1.737964
-24.488591 -67.653896 -2.762042
-24.046449 -68.158756 -1.393764
-18.217332 -79.784653 0.0346
-17.553733 -80.868465 0.026152
-20.874278 -77.652825 -7.681127
-20.1993 -78.912857 -7.537886
-20.409207 -78.098335 -6.409878
-21.798084 -76.648266 -10.078326
-21.120558 -77.987651 -10.029655
-21.341897 -77.12796 -8.857805
-26.49764 -62.226606 -0.811531
-25.933524 -63.335319 -0.34986
-26.906372 -61.682446 -2.043221
-26.49764 -62.226606 -0.811531
-27.346781 -61.15506 -3.403333
-26.783735 -62.292659 -3.010988
-26.906372 -61.682446 -2.043221
-24.309643 -71.432499 -10.451645
-23.720147 -72.706688 -10.344715
-23.817217 -72.015301 -9.202579
-24.886591 -70.19244 -10.596052
-24.989614 -69.498879 -9.573743
-25.469491 -68.950207 -10.860287
-24.309643 -71.432499 -10.451645
-24.886591 -70.19244 -10.596052
-28.009377 -58.778852 0.361498
-27.434876 -59.833395 0.749465
-4.18963 -80.517132 19.2177
-3.636701 -79.69677 20.35532
-3.828176 -81.664036 18.050625
-4.18963 -80.517132 19.2177
-4.735551 -81.262886 18.115441
-3.443214 -82.89479 16.8111
-2.897293 -82.149036 17.913359
-3.828176 -81.664036 18.050625
-4.921029 -83.090283 15.84087
-5.304994 -81.885052 17.121681
-4.001781 -83.576802 15.723345
-4.921029 -83.090283 15.84087
-3.443214 -82.89479 16.8111
-4.001781 -83.576802 15.723345
-13.019199 -86.611839 0.677795
-12.475523 -86.683521 1.896455
-12.696443 -87.531796 -0.666969
-13.019199 -86.611839 0.677795
-11.820783 -88.575005 -0.910685
-12.696443 -87.531796 -0.666969
-14.0926 -86.346645 -1.735926
-14.605221 -86.214577 -3.02506
-17.905924 -82.160641 -5.152963
-17.658485 -83.018982 -6.561792
-17.171115 -83.37727 -5.258205
-19.257165 -79.802075 -5.063036
-19.063761 -80.58036 -6.361593
-18.586698 -81.024067 -5.157992
-19.95861 -78.506932 -5.079859
-19.257165 -79.802075 -5.063036
-19.481547 -78.950638 -3.876258
-20.633588 -77.246899 -5.223101
-20.409207 -78.098335 -6.409878
-19.95861 -78.506932 -5.079859
-20.751441 -75.138203 -0.251188
-20.126551 -76.365914 -0.191774
-21.18532 -74.740246 -1.594421
-20.751441 -75.138203 -0.251188
-21.569077 -74.463359 -2.945589
-20.988185 -75.61425 -2.758896
-21.18532 -74.740246 -1.594421
-21.979408 -74.086158 -4.272282
-21.569077 -74.463359 -2.945589
-22.176544 -73.212154 -3.107807
-25.891565 -66.028897 -6.724769
-25.335191 -67.275043 -6.480727
-25.402237 -66.61216 -5.423316
-26.367547 -65.498516 -8.0774
-25.891565 -66.028897 -6.724769
-15.255218 -84.357239 -0.35232
-14.415356 -85.426689 -0.391162
-16.079667 -83.166218 -0.209384
-16.845637 -82.008758 -0.058038
-15.75439 -84.099888 -1.505767
-15.255218 -84.357239 -0.35232
-16.079667 -83.166218 -0.209384
-16.266934 -83.849537 -2.722386
-15.442484 -85.040558 -2.865321
-15.75439 -84.099888 -1.505767
-16.686791 -83.654568 -3.965658
-16.266934 -83.849537 -2.722386
-16.998697 -82.713898 -2.606103
-17.171115 -83.37727 -5.258205
-16.686791 -83.654568 -3.965658
-18.085684 -82.717079 -7.73229
-17.658485 -83.018982 -6.561792
-18.533261 -82.34777 -8.986538
-18.085684 -82.717079 -7.73229
-18.840872 -81.433044 -7.710797
-18.990236 -81.941445 -10.175663
-18.533261 -82.34777 -8.986538
-19.976411 -79.765541 -8.88709
-19.511339 -80.211052 -7.615841
-20.1993 -78.912857 -7.537886
-19.751247 -80.590481 -10.135371
-19.976411 -79.765541 -8.88709
-20.439208 -79.292286 -10.057416
-18.990236 -81.941445 -10.175663
-19.751247 -80.590481 -10.135371
-22.455438 -75.345444 -10.169335
-22.623573 -74.539032 -9.001062
-23.059587 -74.095901 -10.263921
-21.798084 -76.648266 -10.078326
-22.455438 -75.345444 -10.169335
-25.154535 -65.790138 -2.095556
-24.599034 -66.970642 -1.737964
-25.80561 -63.96727 -1.367873
-25.933524 -63.335319 -0.34986
-25.690116 -64.600346 -2.340209
-25.80561 -63.96727 -1.367873
-26.227833 -63.453121 -2.623212
-25.576757 -65.27599 -3.350895
-25.154535 -65.790138 -2.095556
-25.690116 -64.600346 -2.340209
-26.035475 -64.726105 -4.631453
-25.499893 -65.915897 -4.3868
-25.576757 -65.27599 -3.350895
-26.035475 -64.726105 -4.631453
-26.556094 -63.587282 -4.926089
-28.386666 -58.267797 -1.007723
-28.009377 -58.778852 0.361498
-28.206467 -58.84515 -1.962086
-28.386666 -58.267797 -1.007723
-27.637106 -59.945291 -1.495072
-28.206467 -58.84515 -1.962086
-2.78237 -79.977429 20.400264
-3.636701 -79.69677 20.35532
-2.78237 -79.977429 20.400264
-2.421428 -81.305084 19.091393
-11.61604 -87.59811 1.741611
-12.475523 -86.683521 1.896455
-11.61604 -87.59811 1.741611
-11.238962 -88.642418 0.241032
3 34 33 8
3 0 14 12
3 1 35 36
3 1 37 38
3 2 18 16
3 40 39 9
3 41 20 42
3 3 43 44
3 4 24 22
3 5 25 10
3 5 26 25
3 6 45 46
3 6 47 49
3 47 27 48
3 47 48 49
3 6 28 27
3 7 29 11
3 7 50 52
3 52 51 29
3 50 51 52
3 4 53 55
3 53 30 54
3 53 54 55
3 4 22 30
3 56 31 57
3 58 57 23
3 56 57 58
3 60 59 13
3 62 61 17
3 63 32 64
3 65 64 15
3 63 64 65
3 67 66 32
3 69 68 19
3 71 70 21
3 8 9 2
3 72 9 73
3 74 73 8
3 72 73 74
3 77 76 9
3 75 76 77
3 79 78 3
3 80 10 81
3 82 81 4
3 80 81 82
3 83 10 84
3 85 5 86
3 87 86 10
3 85 86 87
3 88 6 89
3 90 11 91
3 92 91 6
3 90 91 92
3 93 11 94
3 95 7 96
3 97 96 11
3 95 96 97
3 98 4 99
3 12 100 102
3 100 13 101
3 100 101 102
3 14 13 12
3 14 103 105
3 105 104 13
3 103 104 105
3 106 15 107
3 108 15 109
3 112 111 15
3 110 111 112
3 16 17 0
3 18 17 16
3 18 113 115
3 115 114 17
3 113 114 115
3 9 18 2
3 116 18 117
3 118 117 9
3 116 117 118
3 120 119 18
3 121 1 122
3 123 19 124
3 20 125 127
3 125 19 126
3 125 126 127
3 20 128 130
3 130 129 19
3 128 129 130
3 131 20 132
3 133 20 134
3 136 135 20
3 137 21 138
3 139 21 140
3 142 141 21
3 144 143 3
3 22 145 147
3 145 23 146
3 145 146 147
3 24 23 22
3 24 148 150
3 150 149 23
3 148 149 150
3 10 24 4
3 25 24 10
3 25 151 153
3 153 152 24
3 151 152 153
3 25 154 156
3 154 12 155
3 154 155 156
3 26 12 25
3 26 0 12
3 157 5 158
3 159 5 160
3 161 26 162
3 163 162 5
3 161 162 163
3 27 164 166
3 164 26 165
3 164 165 166
3 27 0 26
3 27 16 0
3 28 16 27
3 28 2 16
3 11 28 6
3 29 28 11
3 29 2 28
3 29 8 2
3 167 8 168
3 169 168 29
3 167 168 169
3 171 170 8
3 172 3 173
3 30 174 175
3 30 176 178
3 176 3 177
3 176 177 178
3 30 179 181
3 181 180 3
3 179 180 181
3 22 182 184
3 184 183 30
3 182 183 184
3 22 185 186
3 23 187 188
3 31 189 191
3 191 190 23
3 189 190 191
3 31 192 193
3 13 194 196
3 194 31 195
3 194 195 196
3 197 31 198
3 199 198 13
3 197 198 199
3 201 200 31
3 17 14 0
3 202 14 203
3 204 203 17
3 202 203 204
3 206 205 14
3 207 7 208
3 15 209 210
3 32 211 213
3 213 212 15
3 211 212 213
3 32 214 216
3 214 7 215
3 214 215 216
3 32 217 219
3 219 218 7
3 217 218 219
3 221 220 32
3 222 1 223
3 224 1 225
3 227 226 1
3 19 228 229
3 231 230 19
3 21 232 233
3 235 234 21
