ply
format ascii 1.0
element vertex 197
property float x
property float y
property float z
element face 169
property list uchar int vertex_index
end_header
-24.928791 99.192078 -35.163021
-28.706581 86.888481 -42.093388
-26.190983 100.515488 -29.119143
-28.199165 95.342072 -33.6035
-29.904785 89.053482 -37.215813
-26.991142 93.517403 -39.120998
-32.269669 72.866165 -42.119499
-31.384478 81.168968 -40.056366
-23.777267 101.570938 -32.816078
-24.47732 102.228279 -29.776485
-27.228264 98.114716 -31.419777
-26.630388 97.501846 -34.455513
-27.635059 94.608315 -36.446823
-25.975426 96.5373 -37.254829
-33.156902 69.159531 -41.030712
-32.859203 74.029388 -39.906822
-29.418186 87.949234 -39.762043
-30.698605 85.154221 -38.842518
-30.142876 84.170174 -41.155159
-30.755745 80.010902 -42.406883
-29.452816 82.9328 -43.336586
-28.647842 95.876663 -30.518625
-29.588701 92.863602 -32.506279
-30.313948 89.881638 -34.451759
-28.527514 91.650818 -38.057587
-28.03425 90.255226 -40.537834
-24.138033 98.190254 -37.751072
-32.374424 68.388268 -43.19455
-31.477873 71.563553 -44.273594
-31.070963 86.431595 -36.045578
-31.785322 82.527405 -37.48278
-32.404797 78.361816 -38.746632
-31.910189 77.132614 -41.122429
-31.255253 75.833107 -43.312508
-25.276122 99.608315 -33.660336
-24.70036 100.797744 -32.486864
-24.353029 100.381508 -33.989549
-25.77959 98.346962 -34.809267
-26.126921 98.763199 -33.306582
-25.276122 99.608315 -33.660336
-33.100279 74.546447 -38.666483
-33.270308 72.345405 -39.325786
-25.581639 101.596482 -27.896505
-24.724807 102.452877 -28.225176
-25.334151 101.371883 -29.447814
-26.390439 100.661625 -27.630706
-25.581639 101.596482 -27.896505
-26.916722 99.537068 -28.730002
-26.390439 100.661625 -27.630706
-28.655842 93.864933 -34.484785
-29.35061 92.625698 -33.936174
-28.893933 94.102837 -33.05489
-30.635662 77.275463 -43.882679
-31.005499 77.922004 -42.859696
-30.385908 79.364361 -43.429867
-30.845712 75.081585 -44.322529
-30.635662 77.275463 -43.882679
-24.697058 96.780075 -38.721458
-23.693905 97.556923 -38.930592
-24.127294 101.899608 -31.296281
-23.533767 102.913196 -29.973125
-23.18374 102.584526 -31.492921
-25.050387 101.126415 -30.967067
-24.127294 101.899608 -31.296281
-24.70036 100.797744 -32.486864
-25.907218 100.27002 -30.638396
-25.334151 101.371883 -29.447814
-25.050387 101.126415 -30.967067
-26.425859 99.069634 -31.788714
-26.709623 99.315102 -30.26946
-25.907218 100.27002 -30.638396
-26.929326 97.808281 -32.937645
-26.425859 99.069634 -31.788714
-26.126921 98.763199 -33.306582
-33.419157 69.910477 -39.887732
-33.579212 67.501739 -40.255682
-33.008053 71.594459 -40.468767
-33.419157 69.910477 -39.887732
-33.270308 72.345405 -39.325786
-29.734443 80.82531 -43.894718
-30.385908 79.364361 -43.429867
-30.104281 81.471851 -42.871735
-23.860634 103.173805 -28.444602
-23.533767 102.913196 -29.973125
-23.860634 103.173805 -28.444602
-24.724807 102.452877 -28.225176
-27.435362 98.336681 -29.880319
-26.916722 99.537068 -28.730002
-26.709623 99.315102 -30.26946
-28.145151 97.217655 -29.429742
-27.435362 98.336681 -29.880319
-27.938053 96.995689 -30.969201
-28.775007 96.091644 -29.028108
-28.145151 97.217655 -29.429742
-29.249353 94.665744 -29.969033
-28.775007 96.091644 -29.028108
-29.719782 93.159214 -30.96286
-29.249353 94.665744 -29.969033
-29.118271 94.370132 -31.512452
-30.143054 91.545807 -32.065442
-29.719782 93.159214 -30.96286
-29.951324 91.37262 -33.479019
-30.505677 90.054825 -33.038182
-30.143054 91.545807 -32.065442
-29.713233 91.134716 -34.908915
-29.951324 91.37262 -33.479019
-29.35061 92.625698 -33.936174
-29.508651 90.720638 -36.290942
-30.109367 89.46756 -35.833786
-29.713233 91.134716 -34.908915
-28.373788 93.498054 -35.906447
-28.655842 93.864933 -34.484785
-27.917112 94.975194 -35.025161
-28.820016 92.019306 -36.711828
-28.373788 93.498054 -35.906447
-28.081286 93.129567 -37.252205
-29.21615 90.35215 -37.6367
-29.508651 90.720638 -36.290942
-28.820016 92.019306 -36.711828
-22.711062 102.226295 -32.951732
-23.18374 102.584526 -31.492921
-23.325637 101.141296 -34.208248
-22.711062 102.226295 -32.951732
-23.9014 99.951866 -35.38172
-24.353029 100.381508 -33.989549
-23.325637 101.141296 -34.208248
-23.50602 99.450954 -36.675745
-24.533412 98.691166 -36.457047
-23.9014 99.951866 -35.38172
-23.060519 98.838386 -37.958158
-23.50602 99.450954 -36.675745
-23.693905 97.556923 -38.930592
-23.060519 98.838386 -37.958158
-33.211069 66.940815 -41.426016
-33.579212 67.501739 -40.255682
-32.81983 66.555183 -42.507935
-33.211069 66.940815 -41.426016
-32.765663 68.773899 -42.112631
-32.401972 65.977266 -43.502251
-32.81983 66.555183 -42.507935
-31.976132 67.516198 -44.120031
-32.401972 65.977266 -43.502251
-31.527857 69.10384 -44.659554
-31.976132 67.516198 -44.120031
-31.926148 69.97591 -43.734072
-31.044784 70.598102 -45.210771
-31.527857 69.10384 -44.659554
-30.901597 88.370781 -33.818664
-30.505677 90.054825 -33.038182
-31.280105 86.645759 -34.615574
-30.901597 88.370781 -33.818664
-30.692456 88.156616 -35.248669
-31.602168 84.895398 -35.448436
-31.280105 86.645759 -34.615574
-31.959347 82.943303 -36.167037
-31.602168 84.895398 -35.448436
-31.428142 84.4795 -36.764179
-32.282201 80.962097 -36.834158
-31.959347 82.943303 -36.167037
-32.591938 78.879303 -37.466083
-32.282201 80.962097 -36.834158
-32.09506 80.444611 -38.114706
-32.873075 76.712661 -38.086388
-32.591938 78.879303 -37.466083
-32.632 76.195602 -39.326727
-33.100279 74.546447 -38.666483
-32.873075 76.712661 -38.086388
-30.957022 72.946808 -44.803072
-31.366563 73.69833 -43.793051
-30.845712 75.081585 -44.322529
-31.044784 70.598102 -45.210771
-30.957022 72.946808 -44.803072
-25.615755 95.953598 -38.473337
-25.056729 97.363777 -37.50295
-24.697058 96.780075 -38.721458
-26.123613 94.443649 -39.406422
-26.483284 95.027352 -38.187914
-25.615755 95.953598 -38.473337
-26.676583 92.873501 -40.227615
-26.123613 94.443649 -39.406422
-27.198137 91.242413 -40.936033
-27.512696 91.886314 -39.829416
-26.676583 92.873501 -40.227615
-27.611838 89.627445 -41.695499
-27.198137 91.242413 -40.936033
-27.948003 87.944073 -42.473276
-28.370416 88.571854 -41.315611
-27.611838 89.627445 -41.695499
-28.33894 86.073375 -43.170229
-27.948003 87.944073 -42.473276
-28.712057 84.095535 -43.791828
-29.079698 84.91064 -42.714987
-28.33894 86.073375 -43.170229
-29.077354 82.129311 -44.312902
-28.712057 84.095535 -43.791828
-29.734443 80.82531 -43.894718
-29.077354 82.129311 -44.312902
3 0 34 36
3 36 35 8
3 34 35 36
3 0 37 39
3 37 11 38
3 37 38 39
3 0 13 11
3 40 15 41
3 1 18 16
3 1 20 18
3 2 42 44
3 44 43 9
3 42 43 44
3 2 45 46
3 2 47 48
3 3 21 10
3 3 22 21
3 3 49 51
3 51 50 22
3 49 50 51
3 5 24 12
3 5 25 24
3 6 27 14
3 6 28 27
3 4 29 23
3 7 30 17
3 7 31 30
3 7 32 31
3 52 33 53
3 54 53 19
3 52 53 54
3 56 55 33
3 58 57 26
3 8 59 61
3 59 9 60
3 59 60 61
3 62 9 63
3 64 63 8
3 62 63 64
3 65 2 66
3 67 66 9
3 65 66 67
3 68 10 69
3 70 69 2
3 68 69 70
3 11 71 73
3 71 10 72
3 71 72 73
3 11 3 10
3 11 12 3
3 13 12 11
3 13 5 12
3 74 14 75
3 15 76 78
3 76 14 77
3 76 77 78
3 15 6 14
3 16 17 4
3 18 17 16
3 18 7 17
3 18 19 7
3 20 19 18
3 20 79 81
3 81 80 19
3 79 80 81
3 9 82 83
3 85 84 9
3 10 86 88
3 88 87 2
3 86 87 88
3 21 89 91
3 91 90 10
3 89 90 91
3 21 92 93
3 21 94 95
3 22 96 98
3 98 97 21
3 96 97 98
3 22 99 100
3 22 101 103
3 101 23 102
3 101 102 103
3 104 23 105
3 106 105 22
3 104 105 106
3 107 4 108
3 109 108 23
3 107 108 109
3 12 110 112
3 112 111 3
3 110 111 112
3 24 113 115
3 115 114 12
3 113 114 115
3 24 116 118
3 116 4 117
3 116 117 118
3 24 16 4
3 25 16 24
3 25 1 16
3 119 8 120
3 121 8 122
3 123 0 124
3 125 124 8
3 123 124 125
3 126 26 127
3 128 127 0
3 126 127 128
3 129 26 130
3 132 131 26
3 14 133 134
3 27 135 137
3 137 136 14
3 135 136 137
3 27 138 139
3 27 140 141
3 28 142 144
3 144 143 27
3 142 143 144
3 28 145 146
3 23 147 148
3 29 149 151
3 151 150 23
3 149 150 151
3 29 152 153
3 17 29 4
3 30 29 17
3 30 154 156
3 156 155 29
3 154 155 156
3 30 157 158
3 31 159 161
3 161 160 30
3 159 160 161
3 31 162 163
3 31 164 166
3 164 15 165
3 164 165 166
3 32 15 31
3 32 6 15
3 19 32 7
3 33 32 19
3 33 6 32
3 33 28 6
3 167 28 168
3 169 168 33
3 167 168 169
3 171 170 28
3 26 13 0
3 172 13 173
3 174 173 26
3 172 173 174
3 175 5 176
3 177 176 13
3 175 176 177
3 178 5 179
3 180 25 181
3 182 181 5
3 180 181 182
3 183 25 184
3 185 1 186
3 187 186 25
3 185 186 187
3 188 1 189
3 190 20 191
3 192 191 1
3 190 191 192
3 193 20 194
3 196 195 20
