ply
format ascii 1.0
element vertex 65
property float x
property float y
property float z
element face 41
property list uchar int vertex_index
end_header
-11.895277 11.632329 66.137627
-17.002823 19.245121 66.459076
-18.084494 21.628271 66.150627
-20.087059 20.322773 67.012733
-15.633735 17.190786 66.483658
-15.044274 20.410131 65.319351
-17.948335 18.809726 66.874393
-17.314758 17.676212 66.988526
-19.728812 22.176836 66.405735
-19.085777 20.975522 66.58168
-18.727529 22.829585 65.974682
-20.655228 21.377111 66.787658
-19.728812 22.176836 66.405735
-12.797101 11.063191 66.726623
-12.127713 10.246542 66.578926
-15.040287 16.23777 66.476642
-16.017948 15.631727 67.044915
-14.079392 20.9052 64.693752
-14.403982 19.418588 65.299881
-14.708029 22.100198 64.646186
-14.079392 20.9052 64.693752
-17.17721 22.138722 65.671833
-17.543658 20.436696 66.304851
-16.636375 20.947147 65.826057
-17.817395 23.28618 65.568321
-17.17721 22.138722 65.671833
-18.727529 22.829585 65.974682
-17.817395 23.28618 65.568321
-12.541778 12.462036 66.261582
-11.628232 13.05078 65.630581
-11.231778 10.874928 65.95483
-12.127713 10.246542 66.578926
-11.008883 12.145346 65.521191
-11.231778 10.874928 65.95483
-11.628232 13.05078 65.630581
-11.008883 12.145346 65.521191
-18.489171 20.001301 66.720169
-17.948335 18.809726 66.874393
-17.543658 20.436696 66.304851
-19.490454 19.348552 67.151222
-18.489171 20.001301 66.720169
-19.085777 20.975522 66.58168
-20.38227 18.534032 67.543827
-19.490454 19.348552 67.151222
-21.011598 19.476918 67.343723
-20.38227 18.534032 67.543827
-21.011598 19.476918 67.343723
-20.655228 21.377111 66.787658
-12.797101 11.063191 66.726623
-12.541778 12.462036 66.261582
-16.630215 16.649045 67.000817
-16.017948 15.631727 67.044915
-16.318279 18.217954 66.471367
-17.314758 17.676212 66.988526
-16.630215 16.649045 67.000817
-14.698712 17.808916 65.882035
-15.040287 16.23777 66.476642
-15.339004 18.800458 65.901505
-14.698712 17.808916 65.882035
-14.403982 19.418588 65.299881
-15.6571 21.529651 65.256195
-16.636375 20.947147 65.826057
-16.023549 19.827626 65.889213
-15.6571 21.529651 65.256195
-14.708029 22.100198 64.646186
3 1 6 7
3 8 3 9
3 10 9 2
3 8 9 10
3 12 11 3
3 0 13 14
3 15 4 16
3 17 5 18
3 20 19 5
3 21 2 22
3 23 22 1
3 21 22 23
3 24 2 25
3 27 26 2
3 29 28 0
3 30 0 31
3 32 0 33
3 35 34 0
3 2 36 38
3 38 37 1
3 36 37 38
3 3 39 41
3 41 40 2
3 39 40 41
3 3 42 43
3 3 44 45
3 47 46 3
3 49 48 0
3 4 50 51
3 4 52 54
3 52 1 53
3 52 53 54
3 55 4 56
3 5 57 59
3 57 4 58
3 57 58 59
3 5 1 4
3 5 60 62
3 62 61 1
3 60 61 62
3 64 63 5
