ply
format ascii 1.0
element vertex 582
property float x
property float y
property float z
element face 606
property list uchar int vertex_index
end_header
31.200109 -9.470311 2.799803
25.195616 -3.933396 -8.002165
20.06815 4.045437 -9.326323
22.518356 0.688836 -5.017037
32.872856 -14.245028 -0.198012
27.088085 -1.158599 -1.198447
32.998184 -1.564164 3.360689
15.576838 17.085634 -16.251871
19.537027 13.339046 -22.03451
19.400257 8.12622 -14.9815
24.891895 1.17836 -14.593688
27.312773 -7.615458 -2.496353
20.652552 5.955794 -6.309343
22.810778 4.799997 -4.66835
31.733643 3.285143 0.777332
17.28134 12.324363 -15.566113
17.489849 10.650105 -12.690426
22.503397 -0.258792 -8.620264
22.024481 2.037099 -11.47241
24.794682 -1.468041 -11.107872
28.948654 -5.515916 0.69325
26.596697 -4.785892 -1.589813
29.097589 -8.859453 0.043888
18.187336 8.668803 -10.156691
19.156353 7.299252 -8.041495
21.065975 2.133911 -7.043036
23.337385 -2.154346 -6.094872
31.589365 -12.18079 1.587435
25.488531 3.909325 -3.038204
28.357309 3.459891 -1.378173
29.908033 -1.441556 0.850272
31.657686 -5.744719 3.254996
15.559017 18.467215 -19.05599
25.649744 21.550053 -6.135771
17.325132 16.647635 -21.845013
17.253422 14.378525 -18.777065
19.42083 10.597263 -18.446175
19.646107 5.857807 -11.942741
22.02552 4.36117 -14.669696
25.033373 4.244755 -18.36076
24.538118 -0.401967 -3.134582
24.645819 -3.610777 -3.826251
26.013191 -6.003912 -5.181726
30.083166 -11.06216 -1.414209
28.889065 -9.394645 -4.435842
28.183262 -7.255598 -7.658573
16.351789 19.627478 -22.872217
22.104624 7.656668 -5.391988
23.378239 7.180956 -4.663148
16.666588 13.034801 -13.10327
16.922676 12.321252 -11.799616
23.863245 -2.184386 -8.344473
23.59919 -1.038158 -9.763303
25.054792 -2.841982 -9.5476
26.32527 -3.197081 -10.933547
26.535955 -4.550164 -9.331366
30.042128 -7.529512 1.723456
28.852932 -7.266866 0.418169
30.049597 -9.160564 1.349257
18.379601 10.022124 -8.607068
19.08622 9.341042 -7.725604
21.536572 3.220647 -5.657043
20.681847 3.941954 -6.614969
21.684855 1.50374 -5.983401
22.117867 -0.007904 -6.548535
22.724457 -0.781831 -5.505849
27.737858 6.169209 -2.363871
29.401955 5.827757 -1.401584
32.39323 0.901332 2.032899
30.78701 0.964791 0.828085
31.502377 -1.545696 2.095177
30.732576 -3.753663 2.028727
32.263264 -3.841157 3.394451
27.151794 21.078035 -5.466533
25.937727 18.148092 -5.513575
15.486334 17.929113 -17.674999
16.304306 16.377657 -18.777014
16.35218 15.413348 -17.360813
18.302597 10.11979 -15.240389
18.244198 11.296176 -16.905071
19.393126 9.331918 -16.686668
20.717873 8.831404 -18.373735
20.591246 7.576759 -16.548811
19.078606 6.283673 -9.784349
18.775032 7.154504 -10.990305
19.871992 4.823431 -10.622087
23.405874 1.365841 -12.841656
22.040707 3.119056 -13.042845
23.363482 2.762305 -14.566969
24.812096 2.716088 -16.330843
26.383698 2.873666 -18.251097
26.451361 1.266361 -16.501534
26.236597 1.295082 -2.145058
24.870405 1.63735 -3.040499
25.752701 -0.83113 -2.185918
26.78105 -6.240563 -1.963985
25.607763 -4.326816 -2.676103
25.948631 -5.71925 -3.201591
25.222698 -4.96742 -4.345128
26.619293 -6.903749 -3.809939
32.256557 -13.396688 0.906861
30.848818 -11.75307 0.082574
31.564018 -12.756776 -0.827969
18.354805 14.938001 -21.885479
19.545048 14.855602 -23.757275
19.936834 8.781098 -6.913162
20.967751 8.007919 -6.110141
21.677273 5.260693 -5.460317
22.526503 2.595079 -4.761594
31.029858 5.818552 -0.447948
33.888168 0.754244 3.333774
15.722299 16.303753 -14.832928
16.36735 14.660743 -15.927656
16.503851 13.753873 -14.467749
17.436422 11.269319 -14.102243
18.351774 9.137512 -13.672262
21.277113 1.729652 -8.921646
20.940063 2.815601 -10.190002
22.184511 0.894605 -9.985554
23.334837 0.252174 -11.221595
24.839849 -0.275582 -12.727106
26.389563 -0.293051 -14.619729
26.27965 -1.764397 -12.708573
27.985928 -3.512352 -0.249628
26.669008 -3.058315 -1.359213
27.702845 -5.306517 -0.502575
27.789053 -6.859637 -0.784133
28.072483 -8.140725 -1.245636
17.313669 11.481401 -10.643981
17.792105 10.737965 -9.575804
18.596823 7.997897 -9.050905
19.477989 5.480424 -8.615496
19.875908 6.448666 -7.124324
20.026939 4.630994 -7.587741
20.53878 2.992309 -8.176007
21.661848 0.787009 -7.747064
22.820599 -1.182826 -7.330189
24.137857 -3.164264 -6.907279
31.366171 -11.063798 2.338961
34.249893 -15.858527 0.266155
26.689072 6.252254 -22.3011
24.818535 6.602633 -3.866493
26.274675 6.293883 -3.109717
26.911406 3.552381 -2.201324
27.610588 1.057697 -1.258756
30.009371 3.331115 -0.365439
29.132748 0.963836 -0.280491
28.412109 -1.439984 -0.223123
29.317749 -3.723047 0.853246
30.267679 -5.705458 1.929797
31.364119 -7.722754 3.158725
15.13402 21.136513 -20.925602
15.646318 19.228035 -20.527197
14.96555 20.644585 -19.509972
16.419107 18.308096 -21.679235
16.371529 17.289221 -20.292524
17.280674 15.448832 -20.287537
18.330015 13.661294 -20.298004
17.275352 13.285766 -17.206757
18.295666 12.446203 -18.645491
19.455776 11.952368 -20.239605
17.794098 9.657481 -11.390041
18.552258 8.106492 -12.344067
19.522022 6.955884 -13.478999
20.860252 3.809629 -11.738295
20.778837 4.945787 -13.287456
20.740295 6.164931 -14.92329
22.014275 5.853314 -16.552505
26.540987 4.523632 -20.254681
24.073168 4.35317 -3.878107
23.630318 2.072315 -3.905163
23.426857 0.141065 -4.097725
25.522493 -2.700669 -2.370523
24.437016 -2.150417 -3.421965
23.503845 -1.553699 -4.483349
23.927114 -2.957685 -4.970535
24.68679 -4.218709 -5.590319
25.556522 -5.021492 -6.597411
30.345932 -10.543356 0.849554
29.375591 -9.933532 -0.651549
28.608027 -9.299617 -2.007066
29.386044 -10.233929 -2.937976
27.9527 -8.562702 -3.430776
27.374329 -7.683801 -4.762673
27.064228 -6.834277 -6.236911
26.577856 -5.607552 -7.682651
16.061087 19.725389 -22.259917
15.948788 20.469141 -22.640391
23.812667 8.409922 -4.668209
23.110013 8.619863 -5.01187
16.780286 13.257448 -11.44606
16.567515 13.654657 -12.029428
19.244808 10.449502 -7.587063
18.804552 10.840826 -7.978207
29.954441 7.274241 -1.472693
29.15213 7.216442 -1.881205
27.919155 20.947527 -5.105818
27.712049 22.564613 -5.384259
28.099559 19.373667 -4.799241
27.332198 19.504175 -5.159956
27.919155 20.947527 -5.105818
21.258937 9.18508 -6.066487
20.691598 9.575572 -6.423412
34.320383 2.07674 3.232059
33.608095 2.034251 2.640821
16.202432 14.729852 -14.007174
16.113075 15.028813 -14.650339
15.811656 16.004792 -14.189763
27.03715 -3.226861 -11.805174
27.103819 -3.965472 -10.952084
17.791021 11.813745 -9.319409
17.477353 12.11743 -9.797676
34.897148 -16.687795 0.602518
34.533291 -16.184264 1.267297
34.634647 -16.256532 -0.380349
34.897148 -16.687795 0.602518
27.479926 6.574771 -23.38497
27.404705 5.622555 -22.298757
26.807257 7.647505 -3.15314
26.006363 7.702052 -3.520013
14.722382 21.875349 -19.83852
15.049785 20.890549 -20.217787
14.806617 22.121313 -20.546335
25.522402 23.279593 -6.415782
26.110991 24.785915 -6.366238
26.238332 23.056374 -6.086227
24.907608 21.902483 -6.464753
25.522402 23.279593 -6.415782
25.03594 20.126327 -6.149777
24.293804 20.478758 -6.478759
24.907608 21.902483 -6.464753
25.343402 16.782856 -5.509214
26.148703 16.540076 -5.158914
14.806617 22.121313 -20.546335
14.976819 22.133486 -21.32593
20.071029 10.441552 -19.316924
20.088502 11.119104 -20.213639
19.438303 11.274815 -19.34289
21.403914 8.794165 -19.290684
21.392859 8.030605 -18.352352
24.302699 4.936265 -18.332904
24.200259 4.260568 -17.395674
25.011503 5.127591 -19.348443
24.280829 5.819101 -19.320587
24.302699 4.936265 -18.332904
25.78718 4.384194 -19.307721
25.76531 5.267029 -20.295403
25.011503 5.127591 -19.348443
27.249669 3.042541 -19.316343
27.172244 2.1862 -18.308081
27.128975 -0.23691 -15.511696
27.124325 -1.036397 -14.593999
29.137555 -9.814287 -3.686909
29.897322 -10.621975 -3.564841
29.648832 -10.202333 -4.313774
27.623745 -7.044937 -6.947742
27.739555 -7.584774 -6.113796
28.299072 -7.795435 -6.824628
28.039975 -6.628885 -8.435978
27.237272 -5.804862 -8.448017
27.380559 -6.431575 -7.670612
17.28909 17.349381 -22.525264
16.836078 18.179612 -22.442375
16.87212 17.477866 -21.762124
16.272306 20.508587 -23.47417
15.948788 20.469141 -22.640391
16.77883 19.6125 -23.736042
16.272306 20.508587 -23.47417
22.473205 8.857719 -5.37629
21.827374 9.009455 -5.70741
22.741432 7.418812 -5.027568
22.473205 8.857719 -5.37629
23.110013 8.619863 -5.01187
16.43947 14.011432 -12.681255
16.283801 14.370316 -13.324934
16.794632 12.678026 -12.451443
16.43947 14.011432 -12.681255
16.567515 13.654657 -12.029428
27.209162 -4.642014 -10.150993
27.103819 -3.965472 -10.952084
26.430613 -3.873622 -10.132456
18.451242 11.181366 -8.418939
18.08477 11.455824 -8.835041
18.732911 9.681583 -8.166336
18.451242 11.181366 -8.418939
18.804552 10.840826 -7.978207
28.320082 7.387168 -2.362348
27.538848 7.585168 -2.780217
28.569907 5.998483 -1.882728
28.320082 7.387168 -2.362348
29.15213 7.216442 -1.881205
26.989357 22.820365 -5.751608
27.712049 22.564613 -5.384259
26.400769 21.314044 -5.801152
26.238332 23.056374 -6.086227
26.989357 22.820365 -5.751608
26.725164 18.039203 -5.183477
26.54476 19.613063 -5.490054
27.332198 19.504175 -5.159956
26.148703 16.540076 -5.158914
26.725164 18.039203 -5.183477
21.329545 7.403282 -17.43989
21.392859 8.030605 -18.352352
20.65456 8.204081 -17.461273
23.365313 3.519343 -15.498779
22.696332 4.318776 -15.550142
22.694501 3.561738 -14.618333
24.08962 3.496235 -16.380716
23.365313 3.519343 -15.498779
24.087789 2.739197 -15.448906
24.922735 3.480421 -17.345802
24.200259 4.260568 -17.395674
24.08962 3.496235 -16.380716
27.206076 1.382548 -17.4333
27.172244 2.1862 -18.308081
26.41753 2.070013 -17.376316
29.406499 -9.658584 -5.112941
29.648832 -10.202333 -4.313774
28.651973 -8.864958 -5.213262
29.406499 -9.658584 -5.112941
28.905781 -8.055232 -7.50344
28.299072 -7.795435 -6.824628
28.802272 -7.435578 -8.357319
28.905781 -8.055232 -7.50344
18.345701 15.640285 -22.652252
17.830865 16.495102 -22.632019
17.839968 15.792818 -21.865246
18.940823 15.599086 -23.58815
18.345701 15.640285 -22.652252
18.949927 14.896801 -22.821377
19.481804 15.679869 -24.536703
18.940823 15.599086 -23.58815
20.176139 9.962162 -6.824922
19.670116 10.16953 -7.180841
20.452292 8.394509 -6.511651
20.176139 9.962162 -6.824922
20.691598 9.575572 -6.423412
21.536188 7.832293 -5.751065
21.258937 9.18508 -6.066487
21.827374 9.009455 -5.70741
31.607687 7.097955 -0.447431
30.768392 7.269638 -0.995875
31.861303 5.795514 0.107962
31.607687 7.097955 -0.447431
32.213196 4.52881 0.720602
31.381751 4.551848 0.164692
31.861303 5.795514 0.107962
32.530833 3.2997 1.362601
32.213196 4.52881 0.720602
32.860626 2.107794 1.990384
32.063437 2.093237 1.405115
32.530833 3.2997 1.362601
33.140699 0.827788 2.683337
32.860626 2.107794 1.990384
33.608095 2.034251 2.640821
16.58522 13.394337 -13.785509
16.202432 14.729852 -14.007174
16.283801 14.370316 -13.324934
27.069368 -1.77207 -13.638421
27.124325 -1.036397 -14.593999
26.334606 -1.028724 -13.664151
27.01434 -2.510519 -12.692687
26.30246 -2.480739 -11.82106
27.03715 -3.226861 -11.805174
27.069368 -1.77207 -13.638421
27.01434 -2.510519 -12.692687
32.629181 -13.892364 -1.130351
33.274468 -14.631511 -0.862866
20.793093 12.542371 -22.938491
20.192857 13.33621 -22.974441
20.137263 12.545208 -21.99856
17.238135 12.489147 -10.331765
16.975783 12.837523 -10.868242
17.552887 11.109683 -10.109893
17.238135 12.489147 -10.331765
17.477353 12.11743 -9.797676
18.085853 10.380045 -9.091436
17.791021 11.813745 -9.319409
18.08477 11.455824 -8.835041
19.511527 9.06107 -7.319383
19.244808 10.449502 -7.587063
19.670116 10.16953 -7.180841
31.874454 -11.181698 3.113974
31.28314 -10.267055 2.569382
31.791423 -10.384954 3.344394
31.968581 -11.882684 2.793989
31.874454 -11.181698 3.113974
32.080179 -12.44118 2.418226
31.477768 -11.622294 1.963198
31.968581 -11.882684 2.793989
32.281104 -13.036974 2.039966
32.080179 -12.44118 2.418226
32.6147 -13.644922 1.699679
31.922961 -12.788739 1.247148
32.281104 -13.036974 2.039966
32.927515 -14.195826 1.264936
32.6147 -13.644922 1.699679
33.235664 -14.619996 0.712499
32.564706 -13.820858 0.354425
32.927515 -14.195826 1.264936
33.924183 -15.426745 0.944583
34.533291 -16.184264 1.267297
33.561374 -15.051778 0.034071
33.235664 -14.619996 0.712499
33.924183 -15.426745 0.944583
33.962986 -15.438261 -0.630782
33.274468 -14.631511 -0.862866
33.561374 -15.051778 0.034071
33.962986 -15.438261 -0.630782
34.634647 -16.256532 -0.380349
26.663902 7.219362 -23.334508
25.882597 6.923736 -22.258815
27.454756 7.54188 -24.418378
26.663902 7.219362 -23.334508
27.479926 6.574771 -23.38497
25.278294 7.856427 -3.898401
24.532815 8.12076 -4.269881
25.546605 6.448258 -3.488105
25.278294 7.856427 -3.898401
26.006363 7.702052 -3.520013
27.006266 6.231546 -2.736794
26.807257 7.647505 -3.15314
27.538848 7.585168 -2.780217
30.215907 5.823155 -0.924766
29.954441 7.274241 -1.472693
30.768392 7.269638 -0.995875
34.601641 0.902259 3.962452
34.320383 2.07674 3.232059
34.198793 -0.337847 4.041294
34.601641 0.902259 3.962452
33.753801 -1.497051 4.054752
33.443176 -0.40496 3.347231
34.198793 -0.337847 4.041294
33.325369 -2.65744 4.035401
33.753801 -1.497051 4.054752
32.957909 -3.795936 4.052283
32.630724 -2.70266 3.37757
33.325369 -2.65744 4.035401
32.668312 -4.877327 4.060056
32.957909 -3.795936 4.052283
32.365523 -5.829108 3.990328
31.960475 -4.792938 3.324724
32.668312 -4.877327 4.060056
32.127879 -6.794191 3.899006
32.365523 -5.829108 3.990328
31.981096 -7.783208 3.850871
31.510903 -6.733737 3.20686
32.127879 -6.794191 3.899006
31.899913 -8.690524 3.764308
31.981096 -7.783208 3.850871
31.817908 -9.564303 3.584847
31.282114 -8.596533 2.979264
31.899913 -8.690524 3.764308
31.791423 -10.384954 3.344394
31.817908 -9.564303 3.584847
15.390169 20.182274 -20.726399
15.708351 19.525667 -21.087407
15.452202 20.479906 -21.28661
14.672423 21.643074 -19.096515
14.722382 21.875349 -19.83852
14.911379 20.463373 -18.803027
14.672423 21.643074 -19.096515
15.208113 19.374688 -18.576036
15.262284 19.5559 -19.282981
14.911379 20.463373 -18.803027
15.171771 19.105638 -17.88554
15.522676 18.198164 -18.365495
15.208113 19.374688 -18.576036
15.194973 18.804217 -17.211206
15.171771 19.105638 -17.88554
15.240225 18.382478 -16.499643
15.531586 17.507373 -16.963435
15.194973 18.804217 -17.211206
15.314397 18.0437 -15.779491
15.240225 18.382478 -16.499643
15.387128 17.65276 -15.070019
15.649569 16.694693 -15.5424
15.314397 18.0437 -15.779491
15.481554 17.474781 -14.39896
15.387128 17.65276 -15.070019
15.811656 16.004792 -14.189763
15.481554 17.474781 -14.39896
25.179931 18.425347 -5.838679
25.03594 20.126327 -6.149777
25.793735 19.849072 -5.824673
25.179931 18.425347 -5.838679
25.343402 16.782856 -5.509214
15.339904 21.223658 -21.667084
15.182703 22.220631 -22.067411
14.976819 22.133486 -21.32593
15.452202 20.479906 -21.28661
15.339904 21.223658 -21.667084
16.032713 18.768065 -21.103216
16.094746 19.065697 -21.663426
15.708351 19.525667 -21.087407
20.096637 11.851869 -21.101108
20.137263 12.545208 -21.99856
19.496401 12.645707 -21.137058
20.096637 11.851869 -21.101108
20.088502 11.119104 -20.213639
20.719551 9.558622 -19.280704
20.071029 10.441552 -19.316924
20.069351 9.714333 -18.409955
20.719551 9.558622 -19.280704
21.403914 8.794165 -19.290684
17.118173 11.901326 -11.221799
16.780286 13.257448 -11.44606
16.975783 12.837523 -10.868242
22.04106 6.54156 -17.441737
21.329545 7.403282 -17.43989
21.302761 6.715037 -16.550658
22.69071 5.064848 -16.491546
22.019897 5.107242 -15.6111
22.696332 4.318776 -15.550142
22.79315 5.740545 -17.428776
22.69071 5.064848 -16.491546
22.04106 6.54156 -17.441737
22.79315 5.740545 -17.428776
25.839353 6.131341 -21.318613
25.882597 6.923736 -22.258815
26.615029 5.387943 -21.277891
25.839353 6.131341 -21.318613
25.76531 5.267029 -20.295403
27.330663 4.758244 -21.275547
27.404705 5.622555 -22.298757
26.615029 5.387943 -21.277891
27.328314 3.867524 -20.318134
26.462342 3.698649 -19.252889
27.249669 3.042541 -19.316343
27.330663 4.758244 -21.275547
27.328314 3.867524 -20.318134
27.159874 0.542796 -16.452598
26.420462 0.486655 -15.560631
27.128975 -0.23691 -15.511696
27.206076 1.382548 -17.4333
27.159874 0.542796 -16.452598
24.098387 6.891794 -4.26482
23.812667 8.409922 -4.668209
24.532815 8.12076 -4.269881
31.974762 -13.148238 -1.445329
32.218437 -13.500902 -0.512991
32.629181 -13.892364 -1.130351
31.234326 -12.339913 -1.648929
31.974762 -13.148238 -1.445329
30.4939 -11.492605 -1.942049
30.823592 -11.909468 -1.121089
31.234326 -12.339913 -1.648929
30.145339 -11.078489 -2.703932
29.897322 -10.621975 -3.564841
29.734605 -10.648045 -2.176093
30.4939 -11.492605 -1.942049
30.145339 -11.078489 -2.703932
27.894605 -8.009536 -5.376677
28.131697 -8.539223 -4.599258
28.651973 -8.864958 -5.213262
27.219279 -7.259039 -5.499792
27.894605 -8.009536 -5.376677
27.739555 -7.584774 -6.113796
27.216321 -5.276168 -9.272374
26.556905 -5.078858 -8.507008
27.237272 -5.804862 -8.448017
27.209162 -4.642014 -10.150993
27.216321 -5.276168 -9.272374
28.039975 -6.628885 -8.435978
28.802272 -7.435578 -8.357319
16.385448 18.967787 -22.275726
16.061087 19.725389 -22.259917
16.094746 19.065697 -21.663426
16.802419 18.839303 -23.038866
16.385448 18.967787 -22.275726
16.836078 18.179612 -22.442375
16.77883 19.6125 -23.736042
16.802419 18.839303 -23.038866
17.28909 17.349381 -22.525264
17.830865 16.495102 -22.632019
20.196868 14.094488 -23.835823
19.541038 14.097324 -22.895893
20.192857 13.33621 -22.974441
20.167458 14.930356 -24.705761
20.196868 14.094488 -23.835823
19.481804 15.679869 -24.536703
20.167458 14.930356 -24.705761
3 186 46 187
3 188 48 189
3 190 50 191
3 1 53 51
3 1 55 53
3 0 58 56
3 192 60 193
3 3 63 61
3 3 65 63
3 194 67 195
3 6 70 68
3 6 72 70
3 196 73 197
3 200 199 73
3 198 199 200
3 7 77 75
3 9 80 78
3 9 82 80
3 2 85 83
3 10 88 86
3 10 89 88
3 10 91 89
3 5 94 92
3 11 97 95
3 11 99 97
3 4 102 100
3 8 104 103
3 201 106 202
3 13 107 47
3 13 108 107
3 203 110 204
3 205 113 206
3 207 206 111
3 205 206 207
3 16 114 49
3 16 115 114
3 17 118 116
3 19 119 52
3 19 120 119
3 19 122 120
3 209 208 54
3 20 125 123
3 22 126 57
3 22 127 126
3 210 129 211
3 24 130 59
3 24 131 130
3 12 132 105
3 25 133 62
3 25 134 133
3 25 135 134
3 26 136 64
3 26 137 136
3 212 139 213
3 215 214 139
3 217 216 140
3 218 142 219
3 29 143 66
3 29 144 143
3 14 145 109
3 30 146 69
3 30 147 146
3 30 148 147
3 31 149 71
3 31 150 149
3 220 153 221
3 222 221 151
3 220 221 222
3 33 223 225
3 223 224 225
3 33 226 227
3 33 228 230
3 228 229 230
3 232 231 74
3 233 151 234
3 32 155 152
3 35 156 76
3 35 157 156
3 15 158 112
3 36 159 79
3 36 160 159
3 36 235 237
3 237 236 160
3 235 236 237
3 239 238 81
3 23 161 128
3 37 162 84
3 37 163 162
3 18 164 117
3 38 165 87
3 38 166 165
3 38 167 166
3 39 240 241
3 39 242 244
3 242 243 244
3 39 245 247
3 245 168 246
3 245 246 247
3 249 248 90
3 251 250 121
3 28 169 141
3 40 170 93
3 40 171 170
3 21 172 124
3 41 173 96
3 41 174 173
3 41 175 174
3 42 176 98
3 42 177 176
3 27 178 138
3 43 179 101
3 43 180 179
3 44 252 254
3 252 181 253
3 252 253 254
3 44 182 181
3 44 183 182
3 45 255 257
3 255 184 256
3 255 256 257
3 45 185 184
3 45 258 260
3 260 259 185
3 258 259 260
3 34 261 263
3 263 262 154
3 261 262 263
3 46 264 265
3 46 266 267
3 268 47 269
3 48 270 272
3 270 47 271
3 270 271 272
3 48 13 47
3 273 49 274
3 50 275 277
3 275 49 276
3 275 276 277
3 50 16 49
3 51 52 17
3 53 52 51
3 53 19 52
3 53 54 19
3 55 54 53
3 55 278 280
3 280 279 54
3 278 279 280
3 56 57 20
3 58 57 56
3 58 22 57
3 281 59 282
3 60 283 285
3 283 59 284
3 283 284 285
3 60 24 59
3 61 62 12
3 63 62 61
3 63 25 62
3 63 64 25
3 65 64 63
3 65 26 64
3 286 66 287
3 67 288 290
3 288 66 289
3 288 289 290
3 67 29 66
3 68 69 14
3 70 69 68
3 70 30 69
3 70 71 30
3 72 71 70
3 72 31 71
3 73 291 292
3 73 293 295
3 293 33 294
3 293 294 295
3 73 74 33
3 296 74 297
3 298 297 73
3 296 297 298
3 300 299 74
3 75 76 32
3 77 76 75
3 77 35 76
3 78 79 15
3 80 79 78
3 80 36 79
3 80 81 36
3 82 81 80
3 82 301 303
3 303 302 81
3 301 302 303
3 83 84 23
3 85 84 83
3 85 37 84
3 86 87 18
3 88 87 86
3 88 38 87
3 88 304 306
3 306 305 38
3 304 305 306
3 89 307 309
3 309 308 88
3 307 308 309
3 89 310 312
3 310 39 311
3 310 311 312
3 89 90 39
3 91 90 89
3 91 313 315
3 315 314 90
3 313 314 315
3 92 93 28
3 94 93 92
3 94 40 93
3 95 96 21
3 97 96 95
3 97 41 96
3 97 98 41
3 99 98 97
3 99 42 98
3 100 101 27
3 102 101 100
3 102 43 101
3 316 44 317
3 319 318 44
3 320 45 321
3 323 322 45
3 103 324 326
3 326 325 34
3 324 325 326
3 104 327 329
3 329 328 103
3 327 328 329
3 104 330 331
3 332 105 333
3 106 334 336
3 334 105 335
3 334 335 336
3 106 12 105
3 47 337 339
3 337 106 338
3 337 338 339
3 107 106 47
3 107 12 106
3 107 61 12
3 108 61 107
3 108 3 61
3 340 109 341
3 342 109 343
3 344 14 345
3 346 345 109
3 344 345 346
3 347 14 348
3 349 68 350
3 351 350 14
3 349 350 351
3 110 352 354
3 352 68 353
3 352 353 354
3 110 6 68
3 111 112 7
3 113 112 111
3 113 15 112
3 49 355 357
3 355 113 356
3 355 356 357
3 114 113 49
3 114 15 113
3 114 78 15
3 115 78 114
3 115 9 78
3 116 117 2
3 118 117 116
3 118 18 117
3 52 118 17
3 119 118 52
3 119 18 118
3 119 86 18
3 120 86 119
3 120 10 86
3 120 121 10
3 122 121 120
3 122 358 360
3 360 359 121
3 358 359 360
3 54 122 19
3 361 122 362
3 363 362 54
3 361 362 363
3 365 364 122
3 123 124 5
3 125 124 123
3 125 21 124
3 57 125 20
3 126 125 57
3 126 21 125
3 126 95 21
3 127 95 126
3 127 11 95
3 367 366 4
3 370 369 8
3 368 369 370
3 371 128 372
3 129 373 375
3 373 128 374
3 373 374 375
3 129 23 128
3 59 376 378
3 376 129 377
3 376 377 378
3 130 129 59
3 130 23 129
3 130 83 23
3 131 83 130
3 131 2 83
3 105 379 381
3 379 60 380
3 379 380 381
3 132 60 105
3 132 24 60
3 62 132 12
3 133 132 62
3 133 24 132
3 133 131 24
3 134 131 133
3 134 2 131
3 134 116 2
3 135 116 134
3 135 17 116
3 64 135 25
3 136 135 64
3 136 17 135
3 136 51 17
3 137 51 136
3 137 1 51
3 382 138 383
3 384 383 0
3 382 383 384
3 385 138 386
3 387 27 388
3 389 388 138
3 387 388 389
3 390 27 391
3 392 100 393
3 394 393 27
3 392 393 394
3 395 100 396
3 397 4 398
3 399 398 100
3 397 398 399
3 139 400 401
3 139 402 404
3 402 4 403
3 402 403 404
3 139 405 407
3 407 406 4
3 405 406 407
3 409 408 139
3 140 410 411
3 414 413 140
3 412 413 414
3 415 141 416
3 142 417 419
3 417 141 418
3 417 418 419
3 142 28 141
3 66 420 422
3 420 142 421
3 420 421 422
3 143 142 66
3 143 28 142
3 143 92 28
3 144 92 143
3 144 5 92
3 109 423 425
3 423 67 424
3 423 424 425
3 145 67 109
3 145 29 67
3 69 145 14
3 146 145 69
3 146 29 145
3 146 144 29
3 147 144 146
3 147 5 144
3 147 123 5
3 148 123 147
3 148 20 123
3 71 148 30
3 149 148 71
3 149 20 148
3 149 56 20
3 150 56 149
3 150 0 56
3 426 110 427
3 428 110 429
3 430 6 431
3 432 431 110
3 430 431 432
3 433 6 434
3 435 72 436
3 437 436 6
3 435 436 437
3 438 72 439
3 440 31 441
3 442 441 72
3 440 441 442
3 443 31 444
3 445 150 446
3 447 446 31
3 445 446 447
3 448 150 449
3 450 0 451
3 452 451 150
3 450 451 452
3 454 453 0
3 151 455 457
3 455 152 456
3 455 456 457
3 153 152 151
3 153 32 152
3 458 153 459
3 460 153 461
3 462 32 463
3 464 463 153
3 462 463 464
3 465 75 466
3 467 466 32
3 465 466 467
3 468 75 469
3 470 7 471
3 472 471 75
3 470 471 472
3 473 7 474
3 475 111 476
3 477 476 7
3 475 476 477
3 478 111 479
3 481 480 111
3 74 482 484
3 484 483 33
3 482 483 484
3 486 485 74
3 151 487 489
3 487 488 489
3 151 490 491
3 152 492 494
3 492 154 493
3 492 493 494
3 155 154 152
3 155 34 154
3 76 155 32
3 156 155 76
3 156 34 155
3 156 103 34
3 157 103 156
3 157 8 103
3 112 77 7
3 158 77 112
3 158 35 77
3 79 158 15
3 159 158 79
3 159 35 158
3 159 157 35
3 160 157 159
3 160 8 157
3 160 495 497
3 497 496 8
3 495 496 497
3 499 498 160
3 81 500 502
3 502 501 36
3 500 501 502
3 504 503 81
3 128 505 507
3 505 50 506
3 505 506 507
3 161 50 128
3 161 16 50
3 84 161 23
3 162 161 84
3 162 16 161
3 162 115 16
3 163 115 162
3 163 9 115
3 117 85 2
3 164 85 117
3 164 37 85
3 87 164 18
3 165 164 87
3 165 37 164
3 165 163 37
3 166 163 165
3 166 9 163
3 166 82 9
3 167 82 166
3 167 508 510
3 510 509 82
3 508 509 510
3 511 167 512
3 513 512 38
3 511 512 513
3 514 167 515
3 517 516 167
3 518 140 519
3 168 520 522
3 520 140 521
3 520 521 522
3 168 523 525
3 525 524 140
3 523 524 525
3 90 168 39
3 526 168 527
3 528 527 90
3 526 527 528
3 530 529 168
3 121 91 10
3 531 91 532
3 533 532 121
3 531 532 533
3 535 534 91
3 141 536 538
3 536 48 537
3 536 537 538
3 169 48 141
3 169 13 48
3 93 169 28
3 170 169 93
3 170 13 169
3 170 108 13
3 171 108 170
3 171 3 108
3 124 94 5
3 172 94 124
3 172 40 94
3 96 172 21
3 173 172 96
3 173 40 172
3 173 171 40
3 174 171 173
3 174 3 171
3 174 65 3
3 175 65 174
3 175 26 65
3 98 175 41
3 176 175 98
3 176 26 175
3 176 137 26
3 177 137 176
3 177 1 137
3 138 58 0
3 178 58 138
3 178 22 58
3 101 178 27
3 179 178 101
3 179 22 178
3 179 127 22
3 180 127 179
3 180 11 127
3 539 102 540
3 541 540 4
3 539 540 541
3 542 102 543
3 544 43 545
3 546 545 102
3 544 545 546
3 181 547 548
3 181 549 551
3 549 43 550
3 549 550 551
3 181 180 43
3 182 180 181
3 182 11 180
3 182 99 11
3 183 99 182
3 183 42 99
3 552 183 553
3 554 553 44
3 552 553 554
3 184 555 557
3 555 183 556
3 555 556 557
3 184 42 183
3 184 177 42
3 185 177 184
3 185 1 177
3 185 55 1
3 558 55 559
3 560 559 185
3 558 559 560
3 562 561 55
3 564 563 45
3 154 565 567
3 565 46 566
3 565 566 567
3 568 46 569
3 570 569 154
3 568 569 570
3 572 571 46
3 574 573 34
3 575 104 576
3 577 576 8
3 575 576 577
3 578 104 579
3 581 580 104
