ply
format ascii 1.0
element vertex 116
property float x
property float y
property float z
element face 97
property list uchar int vertex_index
end_header
-25.757992 -66.42749 5.78307
-26.309904 -71.871307 12.713911
-27.495924 -62.643124 14.008441
-26.442709 -67.008507 10.765595
-26.806616 -62.055412 9.081034
-28.141218 -62.854691 19.084496
-27.796902 -59.985283 13.052801
-27.138342 -62.447247 11.485378
-27.416929 -59.919292 10.536277
-26.115307 -66.791336 8.350996
-26.061766 -69.389748 9.226228
-25.748426 -68.902863 6.629049
-27.300743 -65.053291 15.115637
-26.78689 -67.312317 13.467674
-26.917917 -64.911522 12.349843
-26.574505 -64.530136 9.809471
-26.210567 -64.28933 7.36253
-27.851858 -62.656292 16.556379
-28.087679 -60.316784 15.503299
-26.366873 -69.476738 11.776113
-26.072813 -71.841103 10.232697
-27.771603 -58.746545 11.36474
-27.606915 -59.952287 11.794539
-27.961589 -58.779541 12.623003
-26.283399 -73.056725 13.272393
-26.396273 -73.17065 14.620413
-26.422779 -71.985233 14.061931
-26.207468 -72.987297 12.030054
-26.283399 -73.056725 13.272393
-28.002417 -64.142735 19.565856
-28.262746 -62.931883 20.26764
-27.875363 -64.021985 18.340513
-28.002417 -64.142735 19.565856
-27.996538 -62.755492 17.820438
-27.730683 -63.922785 17.076454
-27.875363 -64.021985 18.340513
-28.398958 -59.108854 16.326351
-28.231212 -60.381842 16.700702
-28.258411 -59.036698 15.072654
-28.398958 -59.108854 16.326351
-25.944704 -71.676987 8.942871
-26.06729 -70.615426 9.729463
-25.93918 -70.45131 8.439637
-25.864398 -72.740917 8.138939
-25.992507 -72.905034 9.428765
-25.944704 -71.676987 8.942871
-26.476391 -70.840194 13.542862
-26.422779 -71.985233 14.061931
-28.409016 -61.626919 19.769675
-28.262746 -62.931883 20.26764
-28.257982 -61.650795 18.491301
-28.409016 -61.626919 19.769675
-25.782511 -70.207867 7.141047
-25.93918 -70.45131 8.439637
-25.905096 -69.146305 7.927639
-25.576414 -67.608184 4.892553
-25.565292 -66.337055 4.515203
-27.043816 -66.182804 14.291656
-26.94586 -67.395229 14.768174
-27.202787 -66.265716 15.592156
-27.62082 -58.633488 10.219151
-27.771603 -58.746545 11.36474
-27.244868 -59.754793 9.326557
-27.62082 -58.633488 10.219151
-26.939712 -60.822853 8.598935
-27.111773 -60.987352 9.808656
-27.244868 -59.754793 9.326557
-26.599816 -61.991924 7.816528
-26.939712 -60.822853 8.598935
-26.301792 -63.108883 6.957276
-26.508592 -63.172371 8.221782
-26.599816 -61.991924 7.816528
-25.998998 -64.166969 6.007271
-26.301792 -63.108883 6.957276
-25.77271 -65.23605 5.217542
-25.984279 -65.35841 6.5728
-25.998998 -64.166969 6.007271
-25.565292 -66.337055 4.515203
-25.77271 -65.23605 5.217542
-27.455125 -65.121285 16.356083
-27.202787 -66.265716 15.592156
-27.576301 -63.854792 15.836008
-27.455125 -65.121285 16.356083
-27.730683 -63.922785 17.076454
-28.113302 -61.551596 17.227242
-27.996538 -62.755492 17.820438
-28.257982 -61.650795 18.491301
-27.969769 -61.486538 16.029839
-28.113302 -61.551596 17.227242
-28.231212 -60.381842 16.700702
-28.113022 -58.870947 13.847405
-27.94229 -60.151033 14.27805
-28.258411 -59.036698 15.072654
-27.961589 -58.779541 12.623003
-28.113022 -58.870947 13.847405
-26.714884 -68.560699 13.919743
-26.94586 -67.395229 14.768174
-26.504875 -69.64291 13.073963
-26.714884 -68.560699 13.919743
-26.576881 -68.394527 12.621894
-26.338389 -70.674023 12.245012
-26.476391 -70.840194 13.542862
-26.504875 -69.64291 13.073963
-26.088923 -72.972195 10.789447
-26.207468 -72.987297 12.030054
-26.191358 -71.856205 11.473304
-26.008617 -74.036125 9.985515
-26.088923 -72.972195 10.789447
-25.992507 -72.905034 9.428765
-25.571631 -68.845871 5.315543
-25.753209 -67.665177 6.20606
-25.576414 -67.608184 4.892553
-25.640953 -70.098843 5.849484
-25.571631 -68.845871 5.315543
-25.782511 -70.207867 7.141047
-25.640953 -70.098843 5.849484
3 21 8 22
3 23 22 6
3 21 22 23
3 0 11 9
3 1 24 26
3 24 25 26
3 1 27 28
3 2 14 12
3 4 15 7
3 4 16 15
3 5 29 30
3 5 31 32
3 5 33 35
3 33 17 34
3 33 34 35
3 36 18 37
3 39 38 18
3 3 19 13
3 40 20 41
3 42 41 10
3 40 41 42
3 45 44 20
3 43 44 45
3 46 1 47
3 6 7 2
3 8 7 6
3 8 4 7
3 48 5 49
3 51 50 5
3 9 10 3
3 11 10 9
3 11 52 54
3 54 53 10
3 52 53 54
3 56 55 0
3 12 57 59
3 57 13 58
3 57 58 59
3 14 13 12
3 14 3 13
3 7 14 2
3 15 14 7
3 15 3 14
3 15 9 3
3 16 9 15
3 16 0 9
3 60 8 61
3 62 8 63
3 64 4 65
3 66 65 8
3 64 65 66
3 67 4 68
3 69 16 70
3 71 70 4
3 69 70 71
3 72 16 73
3 74 0 75
3 76 75 16
3 74 75 76
3 78 77 0
3 79 12 80
3 17 81 83
3 81 12 82
3 81 82 83
3 17 2 12
3 84 17 85
3 86 85 5
3 84 85 86
3 18 87 89
3 87 17 88
3 87 88 89
3 18 2 17
3 18 6 2
3 90 6 91
3 92 91 18
3 90 91 92
3 94 93 6
3 13 95 96
3 19 97 99
3 99 98 13
3 97 98 99
3 19 100 102
3 100 1 101
3 100 101 102
3 10 19 3
3 20 19 10
3 20 1 19
3 20 103 105
3 105 104 1
3 103 104 105
3 108 107 20
3 106 107 108
3 109 11 110
3 111 110 0
3 109 110 111
3 112 11 113
3 115 114 11
