ply
format ascii 1.0
element vertex 399
property float x
property float y
property float z
element face 356
property list uchar int vertex_index
end_header
-6.843683 -10.74527 -62.383541
-24.41132 -18.04439 -62.186375
-27.743507 -2.764247 -66.39164
-28.766459 11.198074 -67.609978
-20.565809 9.297992 -71.403191
-31.51689 -2.265918 -64.361755
-24.782305 10.607401 -70.088676
-20.953468 15.600555 -71.806412
-22.206392 -11.181579 -65.077896
-20.270281 -19.060766 -62.11871
-18.115826 -12.154461 -64.759903
-14.323195 -13.193902 -63.818836
-16.780558 19.832895 -72.539192
-26.329346 -10.377151 -64.576042
-23.558575 -3.571368 -67.490562
-4.647791 -4.043397 -63.830811
-32.095146 4.61782 -64.751823
-28.325191 4.519611 -67.584152
-24.343576 3.714571 -69.235764
-8.864308 -9.341716 -63.934467
-10.916285 -14.121056 -62.532845
-32.794743 -5.770606 -62.643429
-33.252125 -2.127849 -62.975212
-23.041756 16.113386 -70.903435
-20.850338 -7.740684 -66.453651
-20.129206 -11.440189 -65.091812
-18.814537 -8.283052 -66.303543
-16.879663 -8.884597 -65.9729
-17.268307 -5.378385 -67.369377
-29.036316 -6.227584 -64.856422
-28.316509 -10.170425 -63.959351
-27.0546 -6.429511 -65.622925
-25.020178 -6.687931 -66.159187
-25.641911 -3.136526 -67.074348
-30.690634 11.055087 -65.899429
-32.201202 7.952474 -64.613464
-30.433409 8.14599 -66.32444
-30.292589 4.719998 -66.287941
-28.569187 8.017735 -67.764694
-22.688829 10.030943 -70.889206
-24.7034 7.211983 -69.747269
-22.533005 6.690963 -70.411728
-22.28476 2.998682 -69.646858
-20.475546 5.874117 -70.726677
-13.207275 -10.257468 -64.829948
-12.573621 -13.600041 -63.237255
-11.443507 -10.864321 -64.116325
-9.879335 -11.402729 -63.385937
-29.717655 -2.472282 -65.476662
-26.880306 10.843429 -68.953255
-24.968615 13.640576 -70.044861
-22.89757 13.227142 -71.058563
-20.799547 12.735209 -71.771904
-23.431381 -14.408346 -63.723282
-22.408682 -18.642641 -62.200397
-21.362452 -15.036819 -63.668415
-19.437899 -15.444736 -63.522804
-17.294174 -15.708885 -63.261028
-16.104992 -12.574626 -64.382065
-26.497824 -17.80958 -61.830261
-27.584814 -13.895411 -62.954777
-25.499245 -14.247893 -63.412498
-24.261589 -10.543338 -65.013672
-22.861313 -7.270419 -66.39859
-21.472439 -4.083535 -67.673813
-4.51328 -1.251544 -64.87175
-5.750908 -4.875681 -64.297531
-6.86904 -8.702463 -63.309917
-33.595612 1.27291 -63.051601
-31.899225 1.306768 -64.645561
-30.040985 1.259541 -66.023506
-28.079994 0.886048 -67.087692
-26.568693 7.664855 -68.941177
-26.361372 4.235392 -68.549263
-26.095385 0.441742 -67.862755
-24.065407 -0.088794 -68.386856
-21.853281 -0.516764 -68.753357
-18.840471 17.771967 -72.339432
-18.72513 14.848913 -72.430794
-18.705328 11.901537 -72.183708
-7.931568 -7.52239 -64.358017
-7.703669 -10.111396 -63.095947
-8.528319 -12.065496 -62.57098
-7.328245 -12.475909 -61.840508
-34.02789 -2.09884 -62.182862
-33.840469 -3.832655 -62.104175
-19.047544 -6.498162 -66.963352
-19.832438 -8.011868 -66.378597
-20.065444 -6.226978 -67.038406
-18.274428 -5.045829 -67.496269
-18.041422 -6.830718 -66.83646
-19.047544 -6.498162 -66.963352
-29.728547 11.12658 -66.754704
-29.829583 12.516248 -66.497028
-28.867495 12.587741 -67.352303
-23.888779 -20.068117 -61.470518
-24.932891 -19.94175 -61.349772
-11.684438 -9.246205 -64.887962
-12.325391 -10.560894 -64.473137
-12.566322 -8.942778 -65.244774
-10.878162 -9.671923 -64.471741
-11.684438 -9.246205 -64.887962
-31.256294 -4.175211 -64.096182
-31.895221 -5.927554 -63.237018
-32.155817 -4.018262 -63.502592
-30.617272 -2.3691 -64.919208
-30.356677 -4.278392 -64.653635
-31.256294 -4.175211 -64.096182
-24.95556 15.174708 -69.895134
-25.968438 13.857899 -69.388443
-15.917307 -9.25647 -65.702682
-16.112445 -7.495287 -66.453056
-27.506934 -17.704521 -61.548226
-26.978719 -19.599386 -61.001356
-4.580535 -2.64747 -64.351281
-4.030622 -2.335396 -63.990246
-4.097877 -3.731323 -63.469776
-5.177324 -3.069483 -64.631863
-5.110069 -1.673557 -65.152332
-4.580535 -2.64747 -64.351281
-5.19935 -4.459539 -64.064171
-5.728883 -3.485626 -64.865223
-5.177324 -3.069483 -64.631863
-32.882251 4.709821 -63.919384
-32.93528 6.377147 -63.850204
-32.148174 6.285147 -64.682643
-32.845379 2.945365 -63.901712
-33.632485 3.037365 -63.069273
-32.882251 4.709821 -63.919384
-21.000402 1.021717 -69.337868
-22.069021 1.240959 -69.200108
-21.216142 2.77944 -69.784618
-20.845088 -0.820814 -68.789299
-21.000402 1.021717 -69.337868
-17.810515 18.802431 -72.439312
-18.906502 19.083251 -72.119286
-17.876545 20.113715 -72.219166
-17.694127 14.458026 -72.572571
-17.748759 15.893008 -72.612652
-17.684226 12.984338 -72.449028
-18.715229 13.375225 -72.307251
-17.694127 14.458026 -72.572571
-7.39127 -6.72975 -64.435791
-8.001867 -6.066897 -65.02433
-6.860006 -7.319786 -63.911741
-7.400304 -8.112426 -63.833967
-7.39127 -6.72975 -64.435791
-20.733796 -20.82116 -61.423821
-21.802996 -20.612097 -61.464664
-21.339481 -18.851703 -62.159554
-13.92283 -14.930674 -63.002697
-14.8385 -14.775168 -63.264257
-11.360017 -15.636335 -62.022315
-12.188685 -15.375827 -62.374519
-11.744953 -13.860549 -62.88505
-10.554893 -15.848453 -61.665165
-10.998625 -17.363732 -61.154635
-11.360017 -15.636335 -62.022315
-10.156047 -14.338445 -62.169463
-9.794656 -16.065843 -61.301783
-10.554893 -15.848453 -61.665165
-7.646636 -13.755559 -61.415245
-7.002641 -13.762895 -61.092612
-33.611778 -5.654034 -61.938284
-33.304018 -7.497516 -61.793228
-33.023434 -3.949228 -62.80932
-33.611778 -5.654034 -61.938284
-33.840469 -3.832655 -62.104175
-22.946143 17.509479 -70.727867
-23.992131 16.411113 -70.324421
-22.014705 17.266565 -71.224083
-22.946143 17.509479 -70.727867
-20.970561 17.01015 -71.675571
-21.997612 15.85697 -71.354923
-22.014705 17.266565 -71.224083
-16.306767 -5.742181 -67.151295
-16.112445 -7.495287 -66.453056
-17.073985 -7.131491 -66.671138
-28.676412 -8.199005 -64.407886
-29.264325 -10.023062 -63.571038
-29.624229 -8.051641 -64.019573
-4.170666 -5.080275 -62.969906
-4.097877 -3.731323 -63.469776
-3.620751 -4.768201 -62.608871
-4.246145 -6.399779 -62.464453
-4.72327 -5.362901 -63.325357
-4.170666 -5.080275 -62.969906
-30.700136 12.433273 -65.606648
-29.829583 12.516248 -66.497028
-31.488326 11.001214 -65.008167
-30.700136 12.433273 -65.606648
-31.445918 9.50378 -65.256446
-32.24361 9.449908 -64.365184
-31.488326 11.001214 -65.008167
-20.311535 4.217158 -70.324528
-21.216142 2.77944 -69.784618
-21.380153 4.4364 -70.186768
-15.764791 17.859251 -72.831917
-16.776472 18.384999 -72.666851
-15.768876 19.307147 -72.704258
-18.783857 -21.069448 -61.277265
-19.734844 -21.004807 -61.343876
-19.319295 -19.125407 -62.052099
-10.096076 -9.941126 -64.106547
-10.661421 -11.133525 -63.751131
-10.878162 -9.671923 -64.471741
-9.588563 -8.91062 -64.380811
-9.371821 -10.372222 -63.660202
-10.096076 -9.941126 -64.106547
-32.456781 -7.697482 -62.382065
-33.304018 -7.497516 -61.793228
-32.456781 -7.697482 -62.382065
-31.895221 -5.927554 -63.237018
-30.016008 -6.156044 -64.343515
-29.624229 -8.051641 -64.019573
-29.376985 -4.349933 -65.166542
-30.016008 -6.156044 -64.343515
-30.356677 -4.278392 -64.653635
-27.867361 12.636648 -68.171001
-28.867495 12.587741 -67.352303
-26.924284 12.459325 -68.84264
-27.823383 11.020751 -68.281616
-27.867361 12.636648 -68.171001
-25.924461 12.242002 -69.499058
-26.924284 12.459325 -68.84264
-25.968438 13.857899 -69.388443
-24.005185 14.876981 -70.474148
-24.95556 15.174708 -69.895134
-23.992131 16.411113 -70.324421
-18.903104 -17.317392 -62.754147
-19.319295 -19.125407 -62.052099
-19.85409 -17.252751 -62.820757
-17.831242 -17.449466 -62.623259
-18.903104 -17.317392 -62.754147
-18.366036 -15.576811 -63.391916
-16.863855 -17.741472 -62.391846
-17.831242 -17.449466 -62.623259
-16.323989 -16.03266 -62.985354
-16.863855 -17.741472 -62.391846
-15.729398 -14.46553 -63.545872
-16.323989 -16.03266 -62.985354
-16.699583 -14.141756 -63.821546
-15.214094 -12.884264 -64.10045
-14.8385 -14.775168 -63.264257
-15.729398 -14.46553 -63.545872
-15.529971 -11.101485 -64.907265
-16.492328 -10.729612 -65.177482
-15.917307 -9.25647 -65.702682
-14.639073 -11.411123 -64.62565
-15.214094 -12.884264 -64.10045
-15.529971 -11.101485 -64.907265
-14.081112 -9.942906 -65.131206
-13.765235 -11.725685 -64.324392
-14.639073 -11.411123 -64.62565
-13.3936 -8.554417 -65.592884
-14.081112 -9.942906 -65.131206
-12.566322 -8.942778 -65.244774
-13.3936 -8.554417 -65.592884
-16.798991 21.058273 -72.242367
-17.876545 20.113715 -72.219166
-15.727356 20.583433 -72.506535
-16.798991 21.058273 -72.242367
-15.745788 21.808811 -72.209709
-15.768876 19.307147 -72.704258
-15.727356 20.583433 -72.506535
-25.976143 -19.824345 -61.171715
-26.978719 -19.599386 -61.001356
-25.454572 -17.926985 -62.008318
-24.932891 -19.94175 -61.349772
-25.976143 -19.824345 -61.171715
-28.854855 -11.953966 -63.131937
-29.264325 -10.023062 -63.571038
-28.489007 -13.81646 -62.62965
-28.854855 -11.953966 -63.131937
-27.950662 -12.032918 -63.457064
-28.050429 -15.747437 -62.110484
-28.489007 -13.81646 -62.62965
-27.041319 -15.852495 -62.392519
-27.506934 -17.704521 -61.548226
-28.050429 -15.747437 -62.110484
-20.376494 -4.398404 -67.648487
-20.065444 -6.226978 -67.038406
-21.161389 -5.912109 -67.063732
-3.943185 -0.859455 -64.498623
-3.460527 -1.943308 -63.617119
-4.030622 -2.335396 -63.990246
-4.419796 0.19497 -65.349804
-3.849701 0.587059 -64.976677
-3.943185 -0.859455 -64.498623
-5.040192 -0.19875 -65.687313
-4.419796 0.19497 -65.349804
-5.040192 -0.19875 -65.687313
-5.110069 -1.673557 -65.152332
-6.304613 -4.08599 -64.969761
-5.728883 -3.485626 -64.865223
-6.30094 -5.406395 -64.405548
-6.304613 -4.08599 -64.969761
-5.274829 -5.779043 -63.558718
-5.19935 -4.459539 -64.064171
-4.72327 -5.362901 -63.325357
-5.804272 -6.255367 -63.733862
-5.274829 -5.779043 -63.558718
-6.354304 -6.786081 -63.841879
-6.30094 -5.406395 -64.405548
-5.804272 -6.255367 -63.733862
-6.363338 -8.168757 -63.240055
-6.860006 -7.319786 -63.911741
-6.354304 -6.786081 -63.841879
-6.432021 -9.52208 -62.686857
-6.363338 -8.168757 -63.240055
-6.419343 -10.543483 -62.223669
-6.856362 -9.723866 -62.846729
-6.432021 -9.52208 -62.686857
-33.020505 7.930769 -63.615549
-32.24361 9.449908 -64.365184
-33.754583 6.355443 -62.852289
-33.020505 7.930769 -63.615549
-32.93528 6.377147 -63.850204
-34.330281 1.365795 -62.196911
-33.632485 3.037365 -63.069273
-34.199633 -0.398461 -62.221056
-34.330281 1.365795 -62.196911
-33.423868 -0.427469 -63.013407
-34.02789 -2.09884 -62.182862
-34.199633 -0.398461 -62.221056
-20.654667 -2.6042 -68.249527
-21.66286 -2.30015 -68.213585
-20.845088 -0.820814 -68.789299
-20.376494 -4.398404 -67.648487
-20.654667 -2.6042 -68.249527
-19.914062 18.095855 -71.942082
-18.906502 19.083251 -72.119286
-19.89697 16.686261 -72.072922
-20.970561 17.01015 -71.675571
-19.914062 18.095855 -71.942082
-17.806429 17.354535 -72.566971
-17.810515 18.802431 -72.439312
-16.776472 18.384999 -72.666851
-18.782801 16.31044 -72.385113
-17.806429 17.354535 -72.566971
-17.748759 15.893008 -72.612652
-17.650547 11.488774 -72.256931
-17.684226 12.984338 -72.449028
-18.603859 10.321162 -71.932651
-17.650547 11.488774 -72.256931
-19.534099 9.019389 -71.542393
-19.635569 10.599764 -71.79345
-18.603859 10.321162 -71.932651
-19.488968 7.307452 -71.204136
-20.520678 7.586055 -71.064934
-19.534099 9.019389 -71.542393
-19.41609 5.585242 -70.804058
-19.488968 7.307452 -71.204136
-20.311535 4.217158 -70.324528
-19.41609 5.585242 -70.804058
-17.540734 -3.606444 -68.024109
-18.274428 -5.045829 -67.496269
-16.58941 -3.982592 -67.858666
-17.540734 -3.606444 -68.024109
-16.306767 -5.742181 -67.151295
-16.58941 -3.982592 -67.858666
-9.029466 -7.935397 -64.621859
-9.588563 -8.91062 -64.380811
-8.563095 -7.025734 -64.833634
-8.001867 -6.066897 -65.02433
-8.397938 -8.432053 -64.146242
-9.029466 -7.935397 -64.621859
-8.563095 -7.025734 -64.833634
-22.88746 -20.367242 -61.47753
-23.888779 -20.068117 -61.470518
-23.410001 -18.343516 -62.193386
-22.281774 -22.336698 -60.741797
-22.88746 -20.367242 -61.47753
-21.802996 -20.612097 -61.464664
-20.733796 -20.82116 -61.423821
-19.734844 -21.004807 -61.343876
-13.048043 -15.133744 -62.711906
-13.92283 -14.930674 -63.002697
-13.448408 -13.396971 -63.528045
-13.048043 -15.133744 -62.711906
-12.188685 -15.375827 -62.374519
-9.637573 -12.979282 -62.596008
-10.156047 -14.338445 -62.169463
-10.39781 -12.761893 -62.959391
-8.962065 -13.310665 -62.18853
-9.637573 -12.979282 -62.596008
-9.203827 -11.734113 -62.978459
-8.246672 -13.550352 -61.780482
-8.962065 -13.310665 -62.18853
-7.928282 -12.270702 -62.205744
-7.646636 -13.755559 -61.415245
-8.246672 -13.550352 -61.780482
-6.780295 -12.477369 -61.543797
-7.002641 -13.762895 -61.092612
-7.085964 -11.610589 -62.112025
-6.538015 -11.612049 -61.815314
-6.780295 -12.477369 -61.543797
-6.538015 -11.612049 -61.815314
-6.419343 -10.543483 -62.223669
3 84 22 85
3 86 26 87
3 88 87 24
3 86 87 88
3 89 28 90
3 91 90 26
3 89 90 91
3 2 31 29
3 2 33 31
3 3 92 94
3 92 34 93
3 92 93 94
3 3 36 34
3 3 38 36
3 4 41 39
3 4 43 41
3 1 95 96
3 97 46 98
3 99 98 44
3 97 98 99
3 101 100 46
3 5 102 104
3 104 103 21
3 102 103 104
3 5 105 107
3 105 48 106
3 105 106 107
3 108 50 109
3 7 51 23
3 7 52 51
3 8 55 53
3 10 56 25
3 10 57 56
3 10 58 57
3 111 110 27
3 112 59 113
3 13 60 30
3 13 61 60
3 13 62 61
3 14 63 32
3 14 64 63
3 15 114 116
3 114 65 115
3 114 115 116
3 15 117 119
3 119 118 65
3 117 118 119
3 15 120 122
3 120 66 121
3 120 121 122
3 16 123 125
3 125 124 35
3 123 124 125
3 16 126 128
3 126 68 127
3 126 127 128
3 16 69 68
3 17 70 37
3 17 71 70
3 6 72 49
3 18 73 40
3 18 74 73
3 18 75 74
3 129 76 130
3 131 130 42
3 129 130 131
3 133 132 76
3 12 134 136
3 134 77 135
3 134 135 136
3 137 78 138
3 139 79 140
3 141 140 78
3 139 140 141
3 142 80 143
3 144 67 145
3 146 145 80
3 144 145 146
3 9 147 149
3 149 148 54
3 147 148 149
3 11 150 151
3 20 152 154
3 154 153 45
3 152 153 154
3 20 155 157
3 155 156 157
3 20 158 160
3 158 159 160
3 19 82 47
3 19 81 82
3 161 83 162
3 163 21 164
3 22 165 167
3 165 21 166
3 165 166 167
3 22 5 21
3 168 23 169
3 170 23 171
3 172 7 173
3 174 173 23
3 172 173 174
3 24 25 8
3 26 25 24
3 26 10 25
3 26 27 10
3 28 27 26
3 28 175 177
3 177 176 27
3 175 176 177
3 29 178 180
3 178 30 179
3 178 179 180
3 31 30 29
3 31 13 30
3 31 32 13
3 33 32 31
3 33 14 32
3 181 15 182
3 181 182 183
3 186 185 15
3 184 185 186
3 34 187 188
3 34 189 190
3 34 191 193
3 191 35 192
3 191 192 193
3 36 35 34
3 36 16 35
3 36 37 16
3 38 37 36
3 38 17 37
3 39 40 6
3 41 40 39
3 41 18 40
3 41 42 18
3 43 42 41
3 43 194 196
3 196 195 42
3 194 195 196
3 199 198 12
3 197 198 199
3 202 201 9
3 200 201 202
3 44 45 11
3 46 45 44
3 46 20 45
3 46 47 20
3 203 47 204
3 205 204 46
3 203 204 205
3 206 19 207
3 208 207 47
3 206 207 208
3 21 209 210
3 212 211 21
3 213 29 214
3 48 215 217
3 215 29 216
3 215 216 217
3 48 2 29
3 218 3 219
3 220 49 221
3 222 221 3
3 220 221 222
3 50 223 225
3 223 49 224
3 223 224 225
3 50 6 49
3 23 226 228
3 226 50 227
3 226 227 228
3 51 50 23
3 51 6 50
3 51 39 6
3 52 39 51
3 52 4 39
3 53 54 1
3 55 54 53
3 55 9 54
3 25 55 8
3 56 55 25
3 56 9 55
3 56 229 231
3 231 230 9
3 229 230 231
3 57 232 234
3 234 233 56
3 232 233 234
3 57 235 236
3 57 237 238
3 58 239 241
3 241 240 57
3 239 240 241
3 58 242 244
3 242 11 243
3 242 243 244
3 27 58 10
3 245 58 246
3 247 246 27
3 245 246 247
3 248 11 249
3 250 249 58
3 248 249 250
3 251 44 252
3 253 252 11
3 251 252 253
3 254 44 255
3 257 256 44
3 258 12 259
3 260 12 261
3 260 261 262
3 264 263 12
3 59 265 266
3 59 267 269
3 267 1 268
3 267 268 269
3 30 270 271
3 60 272 274
3 274 273 30
3 272 273 274
3 60 275 276
3 60 277 279
3 277 59 278
3 277 278 279
3 61 59 60
3 61 1 59
3 61 53 1
3 62 53 61
3 62 8 53
3 32 62 13
3 63 62 32
3 63 8 62
3 63 24 8
3 64 24 63
3 64 280 282
3 282 281 24
3 280 281 282
3 65 283 285
3 283 284 285
3 65 286 288
3 286 287 288
3 65 289 290
3 292 291 65
3 66 293 294
3 66 295 296
3 297 66 298
3 299 298 15
3 297 298 299
3 300 66 301
3 304 303 66
3 302 303 304
3 305 67 306
3 305 306 307
3 308 67 309
3 310 0 311
3 312 311 67
3 310 311 312
3 35 313 314
3 317 316 35
3 315 316 317
3 68 318 319
3 68 320 321
3 68 322 324
3 322 22 323
3 322 323 324
3 69 22 68
3 69 5 22
3 37 69 16
3 70 69 37
3 70 5 69
3 70 48 5
3 71 48 70
3 71 2 48
3 49 38 3
3 72 38 49
3 72 17 38
3 40 72 6
3 73 72 40
3 73 17 72
3 73 71 17
3 74 71 73
3 74 2 71
3 74 33 2
3 75 33 74
3 75 14 33
3 42 75 18
3 76 75 42
3 76 14 75
3 76 64 14
3 325 64 326
3 327 326 76
3 325 326 327
3 329 328 64
3 77 330 331
3 77 332 334
3 332 7 333
3 332 333 334
3 335 77 336
3 337 336 12
3 335 336 337
3 78 338 340
3 338 77 339
3 338 339 340
3 78 7 77
3 78 52 7
3 79 52 78
3 79 4 52
3 341 79 342
3 343 79 344
3 345 4 346
3 347 346 79
3 345 346 347
3 348 43 349
3 350 349 4
3 348 349 350
3 351 43 352
3 354 353 43
3 355 28 356
3 357 28 358
3 360 359 28
3 361 19 362
3 80 363 364
3 80 365 367
3 365 19 366
3 365 366 367
3 80 81 19
3 67 81 80
3 67 0 81
3 54 368 370
3 370 369 1
3 368 369 370
3 373 372 54
3 371 372 373
3 375 374 9
3 45 376 378
3 378 377 11
3 376 377 378
3 380 379 45
3 47 381 383
3 383 382 20
3 381 382 383
3 82 384 386
3 386 385 47
3 384 385 386
3 82 387 388
3 82 389 391
3 389 83 390
3 389 390 391
3 81 83 82
3 81 0 83
3 83 392 393
3 83 394 396
3 394 0 395
3 394 395 396
3 397 0 398
