ply
format ascii 1.0
element vertex 171
property float x
property float y
property float z
element face 133
property list uchar int vertex_index
end_header
-25.253162 -85.318695 12.746408
-26.1341 -76.557358 14.928005
-25.915646 -85.686722 7.248753
-25.566565 -80.896317 16.760914
-26.017191 -80.953911 5.869428
-24.591566 -87.331856 13.33229
-25.125507 -87.597961 10.704863
-25.579269 -87.800873 7.968442
-25.595064 -85.630058 10.072493
-25.707813 -78.495346 21.220081
-25.333969 -80.730583 19.544703
-25.81657 -78.758171 18.58518
-26.07513 -76.479652 12.234706
-25.971485 -78.713463 13.066381
-24.82699 -85.048325 15.446054
-26.138523 -76.77713 17.61322
-26.256893 -74.242142 13.830876
-26.105032 -74.103287 11.346196
-25.547924 -78.269791 23.629385
-25.06604 -82.788872 17.603888
-25.90638 -78.854225 15.738256
-25.756014 -80.942749 13.949438
-25.873917 -83.414612 9.303265
-26.035402 -83.301361 6.717061
-25.988426 -77.618675 19.430132
-25.762192 -78.626758 19.902631
-25.934047 -77.487262 20.747583
-26.027373 -77.700172 11.269623
-26.030318 -76.406158 10.931175
-24.583802 -84.831395 16.855361
-24.440857 -85.870034 15.785491
-26.283399 -73.056725 13.272393
-26.396273 -73.17065 14.620413
-26.207468 -72.987297 12.030054
-26.180962 -74.172714 12.588536
-26.283399 -73.056725 13.272393
-25.938465 -86.823048 6.163528
-25.770276 -87.880123 6.523373
-25.747457 -86.743797 7.608598
-26.027355 -85.631126 5.909131
-25.938465 -86.823048 6.163528
-25.776585 -77.20377 24.51596
-25.462466 -78.016129 24.959384
-25.830689 -77.287392 23.225784
-25.776585 -77.20377 24.51596
-25.474874 -81.972595 15.795446
-25.224612 -82.918873 16.216933
-25.316302 -81.842594 17.182401
-25.81679 -81.056942 12.631713
-25.86375 -79.828106 13.50791
-25.924526 -79.942299 12.190185
-25.696208 -82.162323 13.026986
-25.81679 -81.056942 12.631713
-25.875742 -82.292874 10.308626
-25.755159 -83.398255 10.7039
-26.026297 -82.127636 6.293245
-26.004751 -82.169265 7.691391
-25.995646 -80.995541 7.267575
-26.077762 -82.132847 4.905718
-26.086868 -83.306572 5.329535
-26.026297 -82.127636 6.293245
-24.515321 -88.365651 12.233056
-24.14998 -88.167633 13.571628
-24.782291 -88.498703 10.919342
-24.515321 -88.365651 12.233056
-24.858536 -87.464909 12.018576
-25.070231 -88.777657 9.499582
-24.782291 -88.498703 10.919342
-25.352388 -87.699417 9.336652
-25.297111 -88.879112 8.131372
-25.070231 -88.777657 9.499582
-25.520891 -79.612965 20.382392
-25.201432 -80.592132 20.840768
-25.388354 -79.474514 21.678457
-25.975551 -78.817078 11.685461
-26.023308 -77.596558 12.650543
-26.027373 -77.700172 11.269623
-25.924526 -79.942299 12.190185
-25.975551 -78.817078 11.685461
-25.988824 -79.797051 6.834377
-25.995646 -80.995541 7.267575
-24.323145 -87.011799 14.728609
-24.14998 -88.167633 13.571628
-24.709278 -86.19009 14.389172
-24.323145 -87.011799 14.728609
-24.440857 -85.870034 15.785491
-26.304561 -75.634068 18.377937
-26.149403 -76.628154 18.944153
-26.255713 -75.661541 17.064808
-26.304561 -75.634068 18.377937
-26.253501 -75.551655 15.7222
-26.136311 -76.667244 16.270612
-26.255713 -75.661541 17.064808
-26.314898 -74.394047 15.173636
-26.396273 -73.17065 14.620413
-26.195497 -75.39975 14.379441
-26.253501 -75.551655 15.7222
-26.314898 -74.394047 15.173636
-26.045269 -75.217975 10.486921
-26.030318 -76.406158 10.931175
-26.090081 -75.29147 11.790451
-25.572715 -88.966873 6.716758
-25.297111 -88.879112 8.131372
-25.572715 -88.966873 6.716758
-25.770276 -87.880123 6.523373
-25.187113 -79.114624 24.08495
-25.462466 -78.016129 24.959384
-25.308409 -79.361737 22.883109
-25.187113 -79.114624 24.08495
-25.627868 -78.382568 22.424733
-25.388354 -79.474514 21.678457
-25.308409 -79.361737 22.883109
-25.910634 -77.40017 22.021133
-25.627868 -78.382568 22.424733
-25.830689 -77.287392 23.225784
-25.934047 -77.487262 20.747583
-25.910634 -77.40017 22.021133
-25.007421 -81.630951 19.923525
-25.201432 -80.592132 20.840768
-24.873456 -82.660095 18.953118
-25.007421 -81.630951 19.923525
-25.200004 -81.759727 18.574295
-24.703327 -83.701668 17.934278
-24.873456 -82.660095 18.953118
-24.946515 -83.918599 16.524971
-24.583802 -84.831395 16.855361
-24.703327 -83.701668 17.934278
-25.105086 -84.048599 15.138016
-24.946515 -83.918599 16.524971
-25.224612 -82.918873 16.216933
-25.318172 -84.183785 13.788193
-25.040076 -85.18351 14.096231
-25.105086 -84.048599 15.138016
-25.977546 -77.767651 18.0992
-25.988426 -77.618675 19.430132
-26.149403 -76.628154 18.944153
-25.569598 -81.995812 14.389708
-25.474874 -81.972595 15.795446
-25.66129 -80.919533 15.355176
-25.569598 -81.995812 14.389708
-25.696208 -82.162323 13.026986
-25.444782 -84.350296 12.425472
-25.318172 -84.183785 13.788193
-25.615733 -84.505978 11.088514
-25.424113 -85.474377 11.409451
-25.444782 -84.350296 12.425472
-25.73449 -84.522335 9.687879
-25.615733 -84.505978 11.088514
-25.755159 -83.398255 10.7039
-25.924008 -82.225891 8.984493
-25.875742 -82.292874 10.308626
-25.954659 -83.357987 8.010163
-25.924008 -82.225891 8.984493
-26.004751 -82.169265 7.691391
-26.087232 -84.438446 5.643285
-26.027355 -85.631126 5.909131
-25.975524 -84.494042 6.982907
-26.087232 -84.438446 5.643285
-26.086868 -83.306572 5.329535
-26.088923 -72.972195 10.789447
-26.207468 -72.987297 12.030054
-26.008617 -74.036125 9.985515
-26.088923 -72.972195 10.789447
-26.045269 -75.217975 10.486921
-26.008617 -74.036125 9.985515
-25.952938 -79.723492 5.453167
-25.988824 -79.797051 6.834377
-26.007349 -80.881294 4.447518
-25.952938 -79.723492 5.453167
-26.077762 -82.132847 4.905718
-26.007349 -80.881294 4.447518
3 0 6 5
3 0 8 6
3 24 11 25
3 26 25 9
3 24 25 26
3 28 27 12
3 29 14 30
3 31 16 32
3 33 17 34
3 35 34 16
3 33 34 35
3 2 36 38
3 38 37 7
3 36 37 38
3 2 39 40
3 41 18 42
3 44 43 18
3 3 19 10
3 3 45 47
3 47 46 19
3 45 46 47
3 1 20 15
3 48 21 49
3 50 49 13
3 48 49 50
3 52 51 21
3 53 22 54
3 4 55 57
3 55 23 56
3 55 56 57
3 4 58 60
3 60 59 23
3 58 59 60
3 5 61 62
3 6 63 65
3 65 64 5
3 63 64 65
3 6 66 67
3 6 68 70
3 68 7 69
3 68 69 70
3 8 7 6
3 8 2 7
3 9 71 73
3 71 10 72
3 71 72 73
3 11 10 9
3 11 3 10
3 12 13 1
3 74 13 75
3 76 75 12
3 74 75 76
3 78 77 13
3 79 4 80
3 81 5 82
3 14 83 85
3 83 5 84
3 83 84 85
3 14 0 5
3 86 15 87
3 88 15 89
3 90 1 91
3 92 91 15
3 90 91 92
3 16 93 94
3 16 95 97
3 95 1 96
3 95 96 97
3 16 12 1
3 17 12 16
3 17 98 100
3 100 99 12
3 98 99 100
3 7 101 102
3 104 103 7
3 18 105 106
3 18 107 108
3 18 109 111
3 109 9 110
3 109 110 111
3 112 9 113
3 114 113 18
3 112 113 114
3 116 115 9
3 10 117 118
3 19 119 121
3 121 120 10
3 119 120 121
3 19 122 123
3 19 124 126
3 124 14 125
3 124 125 126
3 127 14 128
3 129 128 19
3 127 128 129
3 130 0 131
3 132 131 14
3 130 131 132
3 15 133 135
3 133 11 134
3 133 134 135
3 20 11 15
3 20 3 11
3 13 20 1
3 21 20 13
3 21 3 20
3 21 136 138
3 138 137 3
3 136 137 138
3 140 139 21
3 141 0 142
3 143 8 144
3 145 144 0
3 143 144 145
3 22 146 148
3 146 8 147
3 146 147 148
3 22 2 8
3 149 22 150
3 23 151 153
3 151 22 152
3 151 152 153
3 23 2 22
3 23 154 156
3 156 155 2
3 154 155 156
3 158 157 23
3 159 17 160
3 161 17 162
3 164 163 17
3 165 4 166
3 167 4 168
3 170 169 4
