ply
format ascii 1.0
element vertex 95
property float x
property float y
property float z
element face 77
property list uchar int vertex_index
end_header
-22.689062 -102.222488 -7.022058
-21.205214 -101.265007 -1.768029
-22.380814 -97.361916 3.798123
-24.010569 -98.46051 -1.662234
-19.554323 -102.063538 -1.80112
-20.243376 -100.420372 0.829783
-23.276196 -98.011917 1.052763
-24.452297 -96.329994 0.952235
-20.44521 -102.925484 -4.472763
-22.00038 -101.789894 -4.157516
-25.296185 -94.518723 0.762825
-20.929909 -98.534119 3.567842
-21.893049 -99.42054 0.882389
-22.765472 -99.998917 -1.706917
-23.446198 -100.485535 -4.494142
-25.002867 -96.721954 -1.862615
-19.748536 -99.904873 2.066619
-19.332566 -100.763973 0.724853
-22.187271 -103.013095 -8.316385
-21.937702 -102.824791 -6.976606
-22.914475 -102.306907 -8.422902
-22.187271 -103.013095 -8.316385
-24.566507 -95.32399 2.231917
-24.074345 -96.180889 2.232462
-25.387153 -95.644348 -1.936002
-25.149526 -95.620339 -0.549895
-25.533812 -94.542732 -0.623282
-18.98804 -101.585556 -0.590599
-18.54022 -102.357743 -1.909252
-19.89885 -101.241955 -0.485669
-18.98804 -101.585556 -0.590599
-19.332566 -100.763973 0.724853
-23.486295 -97.02185 2.282726
-22.828505 -97.686916 2.425443
-23.038604 -96.69685 3.655406
-23.864247 -97.170955 1.002499
-23.486295 -97.02185 2.282726
-24.074345 -96.180889 2.232462
-19.115656 -102.818058 -3.102622
-18.54022 -102.357743 -1.909252
-19.561099 -103.249031 -4.438443
-19.115656 -102.818058 -3.102622
-19.999766 -102.494511 -3.136941
-19.902055 -103.671132 -5.761378
-19.561099 -103.249031 -4.438443
-20.815776 -103.176289 -5.701958
-19.902055 -103.671132 -5.761378
-21.593361 -102.608494 -5.544335
-20.815776 -103.176289 -5.701958
-21.222795 -102.357689 -4.315139
-22.344721 -102.006191 -5.589787
-21.937702 -102.824791 -6.976606
-21.593361 -102.608494 -5.544335
-25.380716 -93.452332 1.957314
-24.98845 -94.418354 2.137212
-25.597973 -93.471355 0.664274
-25.380716 -93.452332 1.957314
-25.533812 -94.542732 -0.623282
-25.597973 -93.471355 0.664274
-20.355708 -97.993725 4.92101
-20.091803 -98.961747 3.435648
-21.134041 -97.586792 4.9438
-20.355708 -97.993725 4.92101
-21.859493 -97.00069 5.058941
-21.655361 -97.948017 3.682983
-21.134041 -97.586792 4.9438
-22.608038 -96.356625 5.065241
-21.859493 -97.00069 5.058941
-23.038604 -96.69685 3.655406
-22.608038 -96.356625 5.065241
-20.586642 -99.477246 2.198813
-19.748536 -99.904873 2.066619
-20.091803 -98.961747 3.435648
-24.874241 -95.424358 0.85753
-24.566507 -95.32399 2.231917
-24.98845 -94.418354 2.137212
-25.237165 -96.781345 -3.299904
-25.387153 -95.644348 -1.936002
-25.621451 -95.703739 -3.373291
-24.824475 -97.695148 -3.18436
-25.237165 -96.781345 -3.299904
-24.328326 -98.564426 -3.084169
-24.506718 -97.591232 -1.762424
-24.824475 -97.695148 -3.18436
-24.046141 -99.576939 -4.500123
-23.728383 -99.473022 -3.078188
-24.328326 -98.564426 -3.084169
-23.730148 -100.54155 -5.785998
-24.046141 -99.576939 -4.500123
-24.33009 -99.632954 -5.79198
-23.351579 -101.410027 -7.049956
-23.06763 -101.354011 -5.7581
-23.730148 -100.54155 -5.785998
-22.914475 -102.306907 -8.422902
-23.351579 -101.410027 -7.049956
3 16 5 17
3 0 18 19
3 0 20 21
3 22 7 23
3 1 8 4
3 1 9 8
3 2 12 11
3 3 13 6
3 3 14 13
3 24 15 25
3 26 25 10
3 24 25 26
3 27 4 28
3 5 29 31
3 29 4 30
3 29 30 31
3 5 1 4
3 32 6 33
3 34 33 2
3 32 33 34
3 7 35 37
3 35 6 36
3 35 36 37
3 7 3 6
3 4 38 39
3 8 40 42
3 42 41 4
3 40 41 42
3 8 43 44
3 8 45 46
3 9 47 49
3 49 48 8
3 47 48 49
3 9 50 52
3 50 0 51
3 50 51 52
3 53 10 54
3 55 10 56
3 58 57 10
3 59 11 60
3 61 11 62
3 63 2 64
3 65 64 11
3 63 64 65
3 66 2 67
3 69 68 2
3 11 70 72
3 70 5 71
3 70 71 72
3 12 5 11
3 12 1 5
3 6 12 2
3 13 12 6
3 13 1 12
3 13 9 1
3 14 9 13
3 14 0 9
3 10 73 75
3 73 7 74
3 73 74 75
3 15 7 10
3 15 3 7
3 76 15 77
3 76 77 78
3 79 15 80
3 81 3 82
3 83 82 15
3 81 82 83
3 84 14 85
3 86 85 3
3 84 85 86
3 87 14 88
3 87 88 89
3 90 0 91
3 92 91 14
3 90 91 92
3 94 93 0
