ply
format ascii 1.0
element vertex 272
property float x
property float y
property float z
element face 243
property list uchar int vertex_index
end_header
-30.611696 69.632652 -46.147949
-25.055664 79.681992 -49.069157
-25.850475 62.889072 -50.949558
-21.012814 82.302345 -49.673672
-22.671362 74.920593 -51.055756
-30.280018 60.490906 -47.194698
-27.666294 57.595451 -49.557453
-28.404991 66.675323 -49.020493
-23.249777 96.923592 -40.110111
-30.016071 78.717819 -44.45285
-25.562683 90.640617 -43.494026
-27.206093 83.300789 -46.130955
-28.182354 75.359734 -47.9063
-25.863533 71.487724 -50.358673
-25.895142 48.411285 -49.641113
-24.643322 54.417309 -51.110401
-31.577841 66.644127 -45.045513
-31.404972 61.827423 -45.670513
-30.552885 65.232376 -46.748466
-29.485106 63.615936 -48.097626
-29.551622 68.24826 -47.719936
-24.555365 93.867325 -41.886459
-24.209164 83.406372 -48.273109
-25.43652 85.156822 -46.79446
-26.166262 81.65609 -47.712025
-27.828863 79.51149 -47.026817
-26.731749 77.809975 -48.526932
-27.162319 73.579201 -49.179077
-25.608418 75.594452 -49.787273
-22.002832 64.836464 -52.242771
-26.836586 60.294838 -50.306664
-26.137745 55.924522 -50.458809
-25.388365 58.749348 -51.084885
-16.463722 57.499294 -52.629559
-23.097467 81.217133 -49.474411
-23.885691 77.43206 -50.179352
-21.931053 78.844131 -50.428631
-29.819754 56.030151 -47.457172
-28.428303 54.349796 -48.631424
-29.044476 58.864475 -48.460003
-28.277042 62.035664 -49.263485
-27.147003 64.775856 -50.114426
-30.436171 74.330063 -45.33255
-25.256083 95.369896 -39.691845
-26.362024 92.229599 -41.334232
-27.189426 88.999664 -42.853165
-26.350424 87.074554 -45.037495
-27.971298 85.25827 -44.24707
-28.701893 81.325821 -45.289219
-29.175785 76.996353 -46.324474
-29.49456 72.511276 -47.109055
-28.424501 71.041679 -48.533184
-27.253 69.452614 -49.720451
-26.008495 67.115936 -50.721592
-24.320526 73.254951 -50.812355
-24.655886 69.056564 -51.210629
-24.613167 65.261009 -51.484943
-23.394396 63.319344 -51.967876
-21.971491 61.288757 -52.345383
-26.866133 53.019619 -49.671776
-25.240274 51.435596 -50.459206
-25.17525 62.124122 -51.267095
-24.944195 60.05426 -51.334759
-25.61942 60.81921 -51.017222
-15.762224 55.913044 -52.617423
-15.512198 57.507246 -52.572346
-21.627722 83.556126 -49.094986
-20.553877 84.006385 -49.161716
-22.055141 81.759739 -49.574042
-22.670049 83.01352 -48.995356
-21.627722 83.556126 -49.094986
-30.654256 58.738754 -46.634355
-31.216733 59.407013 -45.872263
-30.842495 61.159165 -46.432606
-30.049886 58.260528 -47.325935
-30.424124 56.508377 -46.765592
-30.654256 58.738754 -46.634355
-30.635662 77.275463 -43.882679
-30.385908 79.364361 -43.429867
-30.226121 76.523941 -44.8927
-30.845712 75.081585 -44.322529
-30.635662 77.275463 -43.882679
-24.25293 96.146744 -39.900978
-24.697058 96.780075 -38.721458
-23.693905 97.556923 -38.930592
-23.96973 68.112187 -51.517724
-23.854186 69.991894 -51.37266
-23.948371 66.214409 -51.654881
-24.634526 67.158786 -51.347786
-23.96973 68.112187 -51.517724
-23.338985 65.243577 -51.896347
-24.003782 64.290177 -51.72641
-23.948371 66.214409 -51.654881
-21.327171 61.89036 -52.426783
-21.987161 63.062611 -52.294077
-21.342841 63.664213 -52.375477
-21.33263 60.273077 -52.445694
-21.327171 61.89036 -52.426783
-25.194167 46.182991 -49.6669
-26.006809 46.562191 -49.252241
-24.988143 47.798821 -50.038107
-25.194167 46.182991 -49.6669
-24.129485 52.377879 -51.101196
-24.427961 50.887022 -50.775599
-24.941798 52.926452 -50.784804
-23.899085 53.953863 -51.371164
-24.129485 52.377879 -51.101196
-19.978408 82.592056 -49.700029
-20.553877 84.006385 -49.161716
-20.404777 80.932945 -50.118546
-19.978408 82.592056 -49.700029
-31.491407 64.235775 -45.358013
-31.917246 62.696844 -44.740233
-32.003681 65.105196 -44.427733
-29.734443 80.82531 -43.894718
-30.385908 79.364361 -43.429867
-23.433375 94.616459 -42.071154
-23.902571 95.395458 -40.998285
-22.780582 96.144593 -41.18298
-24.031131 93.08567 -42.909615
-23.433375 94.616459 -42.071154
-24.53479 91.472317 -43.713398
-25.059024 92.253971 -42.690242
-24.031131 93.08567 -42.909615
-24.822842 84.281597 -47.533784
-24.479388 86.01189 -46.964416
-23.86571 85.136665 -47.703741
-22.861924 72.923908 -51.295224
-21.963741 73.592941 -51.390229
-21.897365 66.632527 -52.147047
-22.643203 66.002137 -52.033794
-21.256826 65.411892 -52.307678
-21.897365 66.632527 -52.147047
-21.342841 63.664213 -52.375477
-21.256826 65.411892 -52.307678
-26.667299 49.058645 -49.21635
-26.006809 46.562191 -49.252241
-24.698377 58.056933 -51.356628
-24.325856 55.890913 -51.369387
-25.015844 56.583329 -51.097643
-24.698377 58.056933 -51.356628
-24.944195 60.05426 -51.334759
-16.599934 55.855972 -52.631085
-17.258994 57.269731 -52.643822
-16.599934 55.855972 -52.631085
-15.762224 55.913044 -52.617423
-23.225897 84.108139 -48.394705
-23.86571 85.136665 -47.703741
-23.653316 82.311753 -48.87376
-23.225897 84.108139 -48.394705
-22.670049 83.01352 -48.995356
-20.863896 79.203838 -50.496025
-21.471933 80.573238 -50.051152
-20.404777 80.932945 -50.118546
-21.364469 77.51395 -50.802248
-20.863896 79.203838 -50.496025
-21.734623 75.552181 -51.115811
-22.301207 76.882362 -50.742193
-21.364469 77.51395 -50.802248
-21.963741 73.592941 -51.390229
-21.734623 75.552181 -51.115811
-31.791109 60.175442 -45.04106
-31.917246 62.696844 -44.740233
-31.791109 60.175442 -45.04106
-31.216733 59.407013 -45.872263
-30.061591 54.022682 -46.955944
-30.424124 56.508377 -46.765592
-29.381608 53.449272 -47.581499
-30.061591 54.022682 -46.955944
-29.124029 55.189973 -48.044298
-28.685882 52.609094 -48.168625
-29.381608 53.449272 -47.581499
-22.616391 98.205056 -39.137678
-23.693905 97.556923 -38.930592
-23.060519 98.838386 -37.958158
-22.124525 97.517879 -40.233587
-22.616391 98.205056 -39.137678
-22.780582 96.144593 -41.18298
-22.124525 97.517879 -40.233587
-31.976132 67.516198 -44.120031
-32.003681 65.105196 -44.427733
-32.401972 65.977266 -43.502251
-31.527857 69.10384 -44.659554
-31.976132 67.516198 -44.120031
-31.044784 70.598102 -45.210771
-31.094769 68.138389 -45.596731
-31.527857 69.10384 -44.659554
-17.125211 58.961687 -52.628622
-17.258994 57.269731 -52.643822
-16.197981 59.135464 -52.576076
-17.125211 58.961687 -52.628622
-15.512198 57.507246 -52.572346
-16.197981 59.135464 -52.576076
-30.957022 72.946808 -44.803072
-30.845712 75.081585 -44.322529
-30.523933 71.981358 -45.740249
-31.044784 70.598102 -45.210771
-30.957022 72.946808 -44.803072
-25.615755 95.953598 -38.473337
-24.697058 96.780075 -38.721458
-26.123613 94.443649 -39.406422
-25.615755 95.953598 -38.473337
-26.676583 92.873501 -40.227615
-26.123613 94.443649 -39.406422
-25.809054 93.799747 -40.513039
-27.198137 91.242413 -40.936033
-26.676583 92.873501 -40.227615
-27.611838 89.627445 -41.695499
-27.198137 91.242413 -40.936033
-26.775725 90.614632 -42.093699
-27.948003 87.944073 -42.473276
-27.611838 89.627445 -41.695499
-25.054521 89.772297 -44.471907
-24.53479 91.472317 -43.713398
-24.991439 87.030399 -46.122124
-24.479388 86.01189 -46.964416
-25.448391 87.989265 -45.243641
-24.991439 87.030399 -46.122124
-25.893472 86.115688 -45.915977
-25.956553 88.857585 -44.26576
-25.054521 89.772297 -44.471907
-25.448391 87.989265 -45.243641
-28.33894 86.073375 -43.170229
-27.948003 87.944073 -42.473276
-27.580362 87.128967 -43.550117
-28.712057 84.095535 -43.791828
-28.33894 86.073375 -43.170229
-29.077354 82.129311 -44.312902
-28.712057 84.095535 -43.791828
-28.336596 83.292046 -44.768145
-29.358982 80.02182 -44.871035
-29.734443 80.82531 -43.894718
-29.077354 82.129311 -44.312902
-23.686506 72.091087 -51.173523
-23.495944 74.087772 -50.934055
-22.861924 72.923908 -51.295224
-24.488206 71.155757 -51.011492
-23.686506 72.091087 -51.173523
-23.854186 69.991894 -51.37266
-24.556596 63.310091 -51.534788
-25.17525 62.124122 -51.267095
-25.231821 64.075041 -51.217251
-23.947211 62.339258 -51.776254
-24.556596 63.310091 -51.534788
-24.003782 64.290177 -51.72641
-23.236978 61.502212 -52.013733
-23.947211 62.339258 -51.776254
-22.698614 64.077904 -52.105323
-23.338985 65.243577 -51.896347
-22.643203 66.002137 -52.033794
-22.525526 60.486919 -52.202486
-23.236978 61.502212 -52.013733
-22.682944 62.304051 -52.156629
-21.853595 59.619121 -52.351219
-22.525526 60.486919 -52.202486
-21.853595 59.619121 -52.351219
-21.33263 60.273077 -52.445694
-27.933879 52.027901 -48.711506
-28.685882 52.609094 -48.168625
-27.152794 51.362812 -49.231682
-27.933879 52.027901 -48.711506
-27.647218 53.684708 -49.1516
-26.380637 50.715452 -49.656444
-26.667299 49.058645 -49.21635
-27.152794 51.362812 -49.231682
-24.660709 49.310976 -50.447153
-24.988143 47.798821 -50.038107
-25.567708 49.92344 -50.050159
-24.660709 49.310976 -50.447153
-24.427961 50.887022 -50.775599
-23.899085 53.953863 -51.371164
-24.325856 55.890913 -51.369387
3 0 18 16
3 0 20 18
3 1 24 22
3 1 26 24
3 1 28 26
3 2 32 30
3 2 61 63
3 63 62 32
3 61 62 63
3 65 64 33
3 3 66 67
3 3 68 70
3 68 34 69
3 68 69 70
3 3 36 34
3 5 71 73
3 73 72 17
3 71 72 73
3 5 74 76
3 74 37 75
3 74 75 76
3 5 39 37
3 7 40 19
3 7 41 40
3 9 77 78
3 9 79 81
3 79 42 80
3 79 80 81
3 8 82 84
3 82 43 83
3 82 83 84
3 10 44 21
3 10 45 44
3 11 46 23
3 11 47 46
3 11 48 47
3 12 49 25
3 12 50 49
3 12 51 50
3 13 52 27
3 13 53 52
3 4 54 35
3 85 55 86
3 87 56 88
3 89 88 55
3 87 88 89
3 90 57 91
3 92 91 56
3 90 91 92
3 93 58 94
3 95 94 29
3 93 94 95
3 97 96 58
3 14 98 99
3 14 100 101
3 6 59 38
3 15 60 31
3 15 102 104
3 104 103 60
3 102 103 104
3 15 105 106
3 107 3 108
3 110 109 3
3 16 111 113
3 111 17 112
3 111 112 113
3 18 17 16
3 18 5 17
3 18 19 5
3 20 19 18
3 20 7 19
3 114 9 115
3 116 21 117
3 118 117 8
3 116 117 118
3 119 21 120
3 121 10 122
3 123 122 21
3 121 122 123
3 22 124 126
3 124 23 125
3 124 125 126
3 24 23 22
3 24 11 23
3 24 25 11
3 26 25 24
3 26 12 25
3 26 27 12
3 28 27 26
3 28 13 27
3 128 127 4
3 129 29 130
3 131 29 132
3 134 133 29
3 135 14 136
3 30 31 6
3 32 31 30
3 32 15 31
3 32 137 139
3 139 138 15
3 137 138 139
3 141 140 32
3 33 142 143
3 145 144 33
3 146 22 147
3 34 148 150
3 148 22 149
3 148 149 150
3 34 1 22
3 34 35 1
3 36 35 34
3 36 4 35
3 151 36 152
3 153 152 3
3 151 152 153
3 154 36 155
3 156 4 157
3 158 157 36
3 156 157 158
3 160 159 4
3 17 161 162
3 164 163 17
3 37 165 166
3 37 167 168
3 37 169 171
3 169 38 170
3 169 170 171
3 39 38 37
3 39 6 38
3 19 39 5
3 40 39 19
3 40 6 39
3 40 30 6
3 41 30 40
3 41 2 30
3 172 8 173
3 172 173 174
3 175 8 176
3 178 177 8
3 179 16 180
3 179 180 181
3 182 16 183
3 184 0 185
3 186 185 16
3 184 185 186
3 187 33 188
3 189 33 190
3 192 191 33
3 42 193 194
3 42 195 197
3 195 0 196
3 195 196 197
3 43 198 199
3 43 200 201
3 21 43 8
3 44 43 21
3 44 202 204
3 204 203 43
3 202 203 204
3 44 205 206
3 45 207 209
3 209 208 44
3 207 208 209
3 45 210 211
3 212 10 213
3 23 214 215
3 46 216 218
3 218 217 23
3 216 217 218
3 46 219 221
3 219 10 220
3 219 220 221
3 46 45 10
3 47 45 46
3 47 222 224
3 224 223 45
3 222 223 224
3 47 225 226
3 48 227 229
3 229 228 47
3 227 228 229
3 48 230 232
3 230 9 231
3 230 231 232
3 25 48 11
3 49 48 25
3 49 9 48
3 49 42 9
3 50 42 49
3 50 0 42
3 50 20 0
3 51 20 50
3 51 7 20
3 27 51 12
3 52 51 27
3 52 7 51
3 52 41 7
3 53 41 52
3 53 2 41
3 35 28 1
3 54 28 35
3 54 13 28
3 233 54 234
3 235 234 4
3 233 234 235
3 55 236 238
3 236 54 237
3 236 237 238
3 55 13 54
3 55 53 13
3 56 53 55
3 56 2 53
3 56 239 241
3 241 240 2
3 239 240 241
3 57 242 244
3 244 243 56
3 242 243 244
3 57 245 246
3 29 247 249
3 247 57 248
3 247 248 249
3 58 57 29
3 58 250 252
3 252 251 57
3 250 251 252
3 58 253 254
3 256 255 58
3 38 257 258
3 59 259 261
3 261 260 38
3 259 260 261
3 59 262 264
3 262 14 263
3 262 263 264
3 31 59 6
3 60 59 31
3 60 14 59
3 60 265 267
3 267 266 14
3 265 266 267
3 269 268 60
3 271 270 15
