ply
format ascii 1.0
element vertex 163
property float x
property float y
property float z
element face 137
property list uchar int vertex_index
end_header
13.532147 -51.377697 -35.660637
17.440735 -66.569321 -32.810265
14.648417 -47.624504 -33.821999
19.932846 -69.351608 -29.514053
19.293419 -73.820496 -31.444805
18.25127 -62.401558 -30.920311
15.535528 -59.183659 -34.183075
14.156552 -49.671257 -34.694786
11.962225 -49.205231 -37.261276
18.794392 -68.139534 -31.178839
19.138132 -66.012291 -30.191189
17.959534 -64.593384 -31.777885
16.974285 -60.902557 -32.555092
16.530275 -63.120056 -33.477154
19.763641 -71.83403 -30.363121
18.372461 -70.256142 -32.14423
15.551397 -51.215469 -33.086987
15.016281 -53.224113 -34.052525
20.096495 -66.996529 -28.57312
18.563292 -60.185192 -29.968857
17.342272 -58.575344 -31.637726
15.989229 -57.094936 -33.310432
14.560484 -55.176296 -34.868374
18.644125 -75.951767 -32.597649
17.752005 -72.461334 -33.237125
16.935999 -68.805519 -33.74292
15.155871 -66.813507 -35.48703
15.914079 -65.019348 -34.471607
14.948956 -61.156322 -35.134014
13.024535 -53.338371 -36.469334
13.092727 -49.498198 -35.975624
13.40493 -48.644977 -35.492699
13.844349 -50.524477 -35.177712
12.747186 -50.291464 -36.460957
12.307766 -48.411964 -36.775943
13.092727 -49.498198 -35.975624
14.230742 -45.858423 -34.14609
14.905518 -46.588274 -33.379637
19.52853 -72.827263 -30.903963
20.159588 -73.498474 -30.035208
19.924477 -74.491707 -30.576051
15.964984 -52.97085 -32.760655
16.234088 -52.113415 -32.256172
15.697426 -53.975172 -33.243424
15.283839 -52.219791 -33.569756
15.964984 -52.97085 -32.760655
20.014671 -68.174069 -29.043586
20.492313 -68.638813 -28.144746
20.410488 -69.816352 -28.615212
18.813457 -63.098408 -30.080945
19.256888 -64.903774 -29.716384
18.694701 -64.206924 -30.55575
18.407281 -61.293375 -30.444584
18.969468 -61.990225 -29.605218
18.813457 -63.098408 -30.080945
18.274323 -77.045567 -33.131332
19.150326 -77.74815 -32.171601
18.780524 -78.841949 -32.705285
16.894139 -71.517738 -34.079389
17.344622 -73.413014 -33.79139
16.486135 -69.68983 -34.332287
17.344002 -70.633426 -33.490022
16.894139 -71.517738 -34.079389
14.628688 -64.802782 -35.854177
14.211305 -65.74522 -36.32602
15.007792 -63.905702 -35.346466
15.534975 -65.916427 -34.979318
14.628688 -64.802782 -35.854177
14.52523 -61.97419 -35.67767
15.431517 -63.087835 -34.80281
15.007792 -63.905702 -35.346466
12.645203 -54.130278 -36.964922
13.496489 -55.217768 -36.132998
12.209115 -52.193634 -37.26661
12.645203 -54.130278 -36.964922
13.709517 -47.885267 -35.036445
13.95545 -46.861891 -34.600052
14.402484 -48.64788 -34.258392
13.709517 -47.885267 -35.036445
13.40493 -48.644977 -35.492699
11.544202 -47.387346 -37.566309
12.307766 -48.411964 -36.775943
11.1617 -48.219921 -38.068668
11.544202 -47.387346 -37.566309
19.74013 -75.627858 -31.082074
19.924477 -74.491707 -30.576051
14.230742 -45.858423 -34.14609
13.95545 -46.861891 -34.600052
20.384961 -71.04153 -29.044902
20.410488 -69.816352 -28.615212
20.300359 -72.282742 -29.469435
20.159588 -73.498474 -30.035208
19.848244 -70.592819 -29.938587
20.384961 -71.04153 -29.044902
20.300359 -72.282742 -29.469435
15.320101 -48.378124 -33.030158
14.905518 -46.588274 -33.379637
15.771591 -50.173606 -32.662651
16.234088 -52.113415 -32.256172
15.099907 -49.419987 -33.454493
15.320101 -48.378124 -33.030158
15.771591 -50.173606 -32.662651
20.525956 -67.473957 -27.669027
20.492313 -68.638813 -28.144746
20.181146 -65.915768 -28.087255
20.525956 -67.473957 -27.669027
19.73607 -65.395893 -28.90735
19.617314 -66.50441 -29.382154
19.256888 -64.903774 -29.716384
20.181146 -65.915768 -28.087255
19.73607 -65.395893 -28.90735
19.042915 -60.713499 -29.179562
18.969468 -61.990225 -29.605218
18.651508 -58.864149 -29.583672
19.042915 -60.713499 -29.179562
18.115639 -58.355909 -30.386108
18.651508 -58.864149 -29.583672
17.505129 -57.550985 -31.220542
18.115639 -58.355909 -30.386108
17.952782 -59.380268 -30.803292
16.860422 -56.650787 -32.036024
17.505129 -57.550985 -31.220542
16.183901 -55.910584 -32.872377
16.860422 -56.650787 -32.036024
16.665751 -57.83514 -32.474079
15.502755 -55.159525 -33.681478
15.697426 -53.975172 -33.243424
16.183901 -55.910584 -32.872377
19.415484 -76.693493 -31.658496
19.150326 -77.74815 -32.171601
18.968772 -74.886132 -32.021227
19.74013 -75.627858 -31.082074
19.415484 -76.693493 -31.658496
17.790682 -75.15823 -33.471652
18.274323 -77.045567 -33.131332
18.198065 -74.20655 -32.917387
17.790682 -75.15823 -33.471652
17.344622 -73.413014 -33.79139
14.69554 -67.737118 -36.003233
14.211305 -65.74522 -36.32602
15.596072 -68.693825 -35.204342
14.69554 -67.737118 -36.003233
16.045935 -67.809513 -34.614975
16.486135 -69.68983 -34.332287
15.596072 -68.693825 -35.204342
14.113337 -60.04759 -35.938587
14.52523 -61.97419 -35.67767
14.4587 -59.126743 -35.465338
14.113337 -60.04759 -35.938587
14.751986 -58.140411 -34.989868
15.242242 -60.16999 -34.658545
14.4587 -59.126743 -35.465338
14.264464 -56.13673 -35.332518
15.048006 -57.179977 -34.525725
14.751986 -58.140411 -34.989868
13.79251 -54.257334 -35.668854
14.264464 -56.13673 -35.332518
13.496489 -55.217768 -36.132998
11.67796 -50.127064 -37.662581
12.49338 -51.271801 -36.865305
12.209115 -52.193634 -37.26661
11.1617 -48.219921 -38.068668
11.67796 -50.127064 -37.662581
3 0 30 32
3 32 31 7
3 30 31 32
3 0 33 35
3 33 8 34
3 33 34 35
3 1 11 9
3 1 13 11
3 2 36 37
3 4 38 40
3 38 14 39
3 38 39 40
3 4 15 14
3 41 16 42
3 43 17 44
3 45 44 16
3 43 44 45
3 3 46 48
3 46 18 47
3 46 47 48
3 5 49 51
3 51 50 10
3 49 50 51
3 5 52 54
3 52 19 53
3 52 53 54
3 5 20 19
3 6 21 12
3 6 22 21
3 55 23 56
3 55 56 57
3 58 24 59
3 60 25 61
3 62 61 24
3 60 61 62
3 63 26 64
3 65 27 66
3 67 66 26
3 65 66 67
3 68 28 69
3 70 69 27
3 68 69 70
3 71 29 72
3 74 73 29
3 7 75 77
3 77 76 2
3 75 76 77
3 79 78 7
3 8 80 81
3 8 82 83
3 84 4 85
3 9 10 3
3 11 10 9
3 11 5 10
3 11 12 5
3 13 12 11
3 13 6 12
3 87 86 2
3 88 3 89
3 14 90 91
3 14 92 94
3 92 3 93
3 92 93 94
3 14 9 3
3 15 9 14
3 15 1 9
3 95 2 96
3 16 97 98
3 16 99 101
3 99 2 100
3 99 100 101
3 16 7 2
3 17 7 16
3 17 0 7
3 18 102 103
3 18 104 105
3 10 18 3
3 106 18 107
3 108 107 10
3 106 107 108
3 110 109 18
3 19 111 112
3 19 113 114
3 19 115 116
3 20 117 119
3 119 118 19
3 117 118 119
3 20 120 121
3 12 20 5
3 21 20 12
3 21 122 124
3 124 123 20
3 122 123 124
3 21 125 127
3 125 17 126
3 125 126 127
3 22 17 21
3 22 0 17
3 23 128 129
3 23 130 132
3 130 4 131
3 130 131 132
3 133 23 134
3 24 135 137
3 135 23 136
3 135 136 137
3 24 4 23
3 24 15 4
3 25 15 24
3 25 1 15
3 26 138 139
3 26 140 141
3 26 142 144
3 142 25 143
3 142 143 144
3 27 25 26
3 27 1 25
3 27 13 1
3 28 13 27
3 28 6 13
3 145 28 146
3 147 28 148
3 149 6 150
3 151 150 28
3 149 150 151
3 152 22 153
3 154 153 6
3 152 153 154
3 29 155 157
3 155 22 156
3 155 156 157
3 29 0 22
3 29 8 0
3 158 8 159
3 160 159 29
3 158 159 160
3 162 161 8
