ply
format ascii 1.0
element vertex 506
property float x
property float y
property float z
element face 449
property list uchar int vertex_index
end_header
-36.140617 24.743269 -2.762159
-27.877342 8.522047 -4.472547
-17.605505 15.61138 -10.025839
-39.500278 7.73863 5.445869
-14.550202 26.169161 -19.842663
-33.407303 17.995834 -4.516971
-38.160152 17.155731 0.390924
-34.620991 7.441425 -0.618486
-15.472306 20.639458 -13.92986
-21.671423 11.27799 -7.197966
-37.180702 21.437956 -1.511858
-36.181309 17.391493 -2.405836
-24.521759 9.650179 -5.899381
-38.120876 2.672256 4.97876
-31.341251 8.024161 -2.837941
-14.88412 23.433418 -16.638063
-14.313872 28.910019 -23.300066
-30.828434 13.523044 -4.642313
-38.901203 12.48189 2.674172
-37.531322 7.520549 2.173289
-36.868679 12.46729 -0.357445
-34.050972 12.78219 -2.803934
-17.225344 22.597589 -10.97902
-16.327145 17.919907 -11.827921
-19.364504 13.386274 -8.540758
-21.36598 18.195713 -8.392928
-36.86116 25.122297 -0.281719
-38.120697 21.376661 1.483129
-35.858509 23.587074 -3.324842
-36.632481 23.24271 -2.276652
-36.314159 21.512833 -2.822751
-26.234123 9.044352 -5.187624
-39.089474 2.861164 6.575329
-38.918587 5.42007 5.125198
-17.919403 12.246794 -9.531073
-17.260456 13.346479 -10.407122
-14.667913 24.926197 -18.144371
-15.379498 21.401518 -17.92137
-15.278069 22.798264 -19.421021
-15.265424 24.079512 -21.217133
-14.43209 27.537416 -21.575338
-32.176266 15.696325 -4.606751
-31.888891 18.475769 -5.334414
-38.527824 14.794084 1.43483
-38.011017 12.46099 1.098098
-37.658947 14.89941 -0.074221
-34.851204 17.481974 -3.5242
-35.282635 15.097109 -2.615889
-33.778435 15.422246 -3.714493
-32.513988 13.010849 -3.744674
-21.94702 8.249401 -6.588009
-20.677887 9.034754 -7.285177
-19.542448 9.934175 -8.031267
-20.436295 12.220563 -7.85292
-20.185648 19.126884 -8.937988
-36.145973 7.563379 0.634229
-36.187599 27.147417 0.370522
-37.510494 23.323927 0.497151
-15.871095 19.315071 -12.786996
-16.281216 15.923846 -12.44264
-15.955761 17.196974 -13.574436
-34.409248 20.17119 -4.317873
-37.677505 19.320568 -0.661148
-37.277508 17.223835 -1.100457
-36.811028 19.443062 -2.045615
-35.65448 19.58559 -3.295075
-32.971989 7.55426 -1.779579
-15.139335 22.038509 -15.216558
-15.683294 18.643145 -14.938807
-15.497595 19.997566 -16.303665
-14.266035 30.064302 -25.205132
-29.333113 11.055344 -4.585247
-27.671764 11.490211 -5.280514
-39.238781 10.217085 4.024858
-38.616364 7.611697 3.719054
-38.345833 10.064389 2.385626
-37.217918 9.95652 0.885408
-35.839073 9.988238 -0.533
-36.571625 14.977857 -1.422911
-35.537395 12.581017 -1.664766
-34.330372 10.102192 -1.76168
-32.826096 10.208201 -2.7372
-31.103401 10.694918 -3.754903
-17.403137 18.962492 -10.472685
-16.882185 16.781879 -10.910749
-16.639336 20.267448 -11.349235
-16.03249 21.600172 -12.25616
-15.524339 22.861252 -13.246079
-15.042773 24.304506 -14.480832
-18.702837 10.968656 -8.725841
-18.417536 14.470013 -9.254356
-25.95673 12.045493 -5.950358
-24.450115 12.931572 -6.584192
-22.867392 13.812187 -7.223685
-22.756636 17.161627 -7.816692
-21.465918 14.755341 -7.8345
-20.226963 15.758598 -8.448822
-19.133871 16.941877 -9.106687
-18.231232 18.119215 -9.765924
-18.136496 21.637844 -10.235709
-36.543167 24.931116 -1.757406
-38.806625 17.07897 2.045204
-38.31216 19.280218 0.923266
-37.759327 21.321142 -0.112141
-37.159275 23.332996 -0.986117
-16.740219 14.422385 -11.3614
-35.764729 25.111975 -3.142564
-35.623674 24.533878 -3.423905
-35.999563 24.165171 -3.0435
-27.055732 8.7832 -4.830085
-26.332107 7.537729 -4.794007
-27.153716 7.276576 -4.436469
-39.209433 6.57935 5.285533
-39.317741 5.357468 6.045618
-39.608587 6.516747 6.205954
-28.047843 7.165693 -4.044185
-28.739272 8.402794 -4.096815
-27.153716 7.276576 -4.436469
-28.047843 7.165693 -4.044185
-34.852854 6.165411 0.040748
-35.615345 6.226389 0.667106
-35.383482 7.502402 0.007872
-34.220695 21.37644 -4.56319
-34.829517 21.009132 -4.104066
-35.452133 20.716333 -3.592667
-35.984319 20.549211 -3.058913
-35.781972 21.679954 -3.356505
-34.829517 21.009132 -4.104066
-35.031864 19.87839 -3.806474
-35.452133 20.716333 -3.592667
-23.911611 8.530776 -5.896675
-24.655864 8.164223 -5.539549
-23.780164 10.15142 -6.248037
-23.911611 8.530776 -5.896675
-38.200542 1.539077 5.604107
-38.684842 1.633531 6.402392
-38.605175 2.76671 5.777045
-37.59815 1.435061 4.795
-38.200542 1.539077 5.604107
-31.542569 6.581258 -2.264579
-32.357938 6.346308 -1.735398
-32.15662 7.78921 -2.30876
-15.745027 19.832504 -17.748534
-15.784757 20.4236 -18.627263
-14.742397 27.935887 -24.167957
-14.781186 27.161991 -23.186217
-14.289953 29.487161 -24.252599
-14.718478 28.513029 -25.12049
-14.742397 27.935887 -24.167957
-29.956726 13.807952 -5.032951
-29.209066 12.574102 -5.004417
-30.080773 12.289194 -4.61378
-15.94183 23.443914 -12.470446
-16.248843 22.895669 -12.050409
-15.687754 24.074454 -12.965406
-15.778415 22.230712 -12.751119
-15.94183 23.443914 -12.470446
-14.90052 26.185201 -14.674621
-15.157929 25.352075 -14.091534
-14.868658 24.971092 -15.049415
-14.90052 26.185201 -14.674621
-26.637126 13.322669 -6.02095
-26.814247 11.767852 -5.615436
-27.494643 13.045029 -5.686028
-24.309904 14.59921 -6.931434
-25.088552 14.12493 -6.635382
-23.518542 15.039517 -7.251181
-23.658753 13.371879 -6.903938
-24.309904 14.59921 -6.931434
-22.061308 17.67867 -8.10481
-22.749917 18.863204 -8.077658
-22.054589 19.380247 -8.365775
-19.122821 18.74224 -9.34423
-19.659759 18.034381 -9.022338
-19.64871 19.834744 -9.259881
-18.671501 19.330909 -9.673849
-18.682551 17.530546 -9.436305
-19.122821 18.74224 -9.34423
-18.624133 21.090224 -9.908741
-18.183864 19.878529 -10.000816
-18.671501 19.330909 -9.673849
-37.683725 6.238522 2.886478
-38.226246 6.284096 3.659361
-38.073843 7.566123 2.946172
-36.476478 25.963878 -0.718716
-36.317482 25.868288 -1.45656
-36.702163 25.026706 -1.019562
-35.767063 28.009199 -0.032741
-35.749733 28.154762 0.79496
-39.004718 17.075529 2.930059
-39.011612 15.877951 2.612127
-38.409075 20.320043 2.056575
-38.205647 21.377998 2.4015
-38.216428 20.32844 1.203197
-38.504807 19.271822 1.776644
-38.409075 20.320043 2.056575
-16.549964 14.251265 -12.241484
-16.41312 14.897225 -12.823632
-16.014122 16.944049 -14.732672
-15.95668 17.625689 -15.468536
-35.353815 23.842897 -3.780908
-35.554147 22.717075 -3.60755
-35.353815 23.842897 -3.780908
-35.623674 24.533878 -3.423905
-35.554147 22.717075 -3.60755
-35.781972 21.679954 -3.356505
-36.086334 22.549954 -3.073796
-25.512047 7.861309 -5.18367
-26.332107 7.537729 -4.794007
-25.377941 9.347265 -5.543502
-24.655864 8.164223 -5.539549
-25.512047 7.861309 -5.18367
-39.403185 4.078015 6.770684
-39.465027 2.964751 7.449074
-39.00403 4.140617 5.850264
-39.403185 4.078015 6.770684
-39.317741 5.357468 6.045618
-30.655884 6.739169 -2.778865
-30.471227 8.153851 -3.279513
-17.800167 11.131484 -9.757462
-18.103697 10.587151 -9.303394
-17.470694 11.681327 -10.195487
-17.800167 11.131484 -9.757462
-17.58993 12.796636 -9.969098
-17.245171 12.215267 -10.664923
-17.470694 11.681327 -10.195487
-15.734043 21.121972 -19.377088
-15.784757 20.4236 -18.627263
-15.328784 22.099891 -18.671195
-15.722587 21.900198 -20.249901
-15.734043 21.121972 -19.377088
-15.716264 22.540822 -21.147957
-15.722587 21.900198 -20.249901
-15.271746 23.438888 -20.319077
-15.738799 23.271712 -22.126867
-15.716264 22.540822 -21.147957
-15.256962 24.746738 -22.14475
-15.738799 23.271712 -22.126867
-14.840295 26.47569 -22.323853
-15.256962 24.746738 -22.14475
-14.848757 25.808464 -21.396235
-14.372981 28.223717 -22.437702
-14.781186 27.161991 -23.186217
-14.840295 26.47569 -22.323853
-31.303824 16.034335 -5.038531
-30.629908 14.947695 -5.056312
-31.50235 14.609685 -4.624532
-31.160137 17.424057 -5.402363
-31.303824 16.034335 -5.038531
-32.032578 17.086047 -4.970582
-31.115322 18.901792 -5.707173
-31.160137 17.424057 -5.402363
-16.84527 23.394377 -11.411839
-17.195189 24.588876 -11.233297
-21.49828 7.108124 -6.633601
-22.097238 6.711885 -6.272489
-20.863714 7.5008 -6.982185
-21.49828 7.108124 -6.633601
-21.312453 8.642077 -6.936593
-20.311554 7.95138 -7.371677
-20.863714 7.5008 -6.982185
-20.110167 9.484464 -7.658222
-19.743834 8.401091 -7.744722
-20.311554 7.95138 -7.371677
-21.373098 19.937546 -8.640183
-22.054589 19.380247 -8.365775
-20.782933 20.403132 -8.912713
-20.775814 18.661299 -8.665458
-21.373098 19.937546 -8.640183
-20.17554 21.089246 -9.208393
-20.782933 20.403132 -8.912713
-19.64871 19.834744 -9.259881
-20.17554 21.089246 -9.208393
-36.346624 6.319824 1.31952
-37.039299 6.298409 2.08905
-36.838648 7.541964 1.403759
-36.346624 6.319824 1.31952
-35.615345 6.226389 0.667106
-36.563637 26.261709 0.831941
-36.524379 26.134857 0.044402
-36.900417 25.249149 0.505821
-36.150295 27.260909 1.295397
-36.563637 26.261709 0.831941
-35.749733 28.154762 0.79496
-36.150295 27.260909 1.295397
-37.874665 22.433089 1.877526
-38.205647 21.377998 2.4015
-37.569563 23.406722 1.384537
-37.815596 22.350294 0.99014
-37.874665 22.433089 1.877526
-37.225084 24.349964 0.895255
-37.569563 23.406722 1.384537
-36.900417 25.249149 0.505821
-37.185827 24.223112 0.107716
-37.225084 24.349964 0.895255
-16.250393 15.533789 -13.38953
-16.41312 14.897225 -12.823632
-16.118489 16.56041 -13.008538
-33.759529 20.443441 -4.728689
-33.258556 19.355762 -4.828238
-33.908276 19.083512 -4.417422
-33.759529 20.443441 -4.728689
-34.220695 21.37644 -4.56319
-22.624241 7.830387 -6.240989
-22.097238 6.711885 -6.272489
-22.492795 9.451031 -6.592351
-22.624241 7.830387 -6.240989
-22.354996 10.965326 -6.897329
-21.809221 9.763696 -6.892988
-22.492795 9.451031 -6.592351
-39.188658 1.723815 7.328166
-39.465027 2.964751 7.449074
-39.188658 1.723815 7.328166
-38.684842 1.633531 6.402392
-33.193596 6.242398 -1.179521
-34.018097 6.18598 -0.598975
-33.79649 7.497842 -1.199032
-33.193596 6.242398 -1.179521
-32.357938 6.346308 -1.735398
-31.542569 6.581258 -2.264579
-30.655884 6.739169 -2.778865
-15.863831 18.302899 -16.150965
-15.95668 17.625689 -15.468536
-15.590445 19.320355 -15.621236
-15.804075 19.130527 -16.939682
-15.438547 20.699542 -17.112517
-15.745027 19.832504 -17.748534
-15.863831 18.302899 -16.150965
-15.804075 19.130527 -16.939682
-14.703498 29.220135 -26.201473
-14.718478 28.513029 -25.12049
-14.210512 30.729758 -26.202043
-14.703498 29.220135 -26.201473
-28.378391 12.791536 -5.352051
-28.502439 11.272778 -4.93288
-29.209066 12.574102 -5.004417
-27.494643 13.045029 -5.686028
-28.378391 12.791536 -5.352051
-29.956726 13.807952 -5.032951
-30.629908 14.947695 -5.056312
-32.499351 19.59573 -5.236959
-32.648097 18.235802 -4.925693
-33.258556 19.355762 -4.828238
-31.766621 19.870562 -5.607915
-32.499351 19.59573 -5.236959
-31.115322 18.901792 -5.707173
-31.766621 19.870562 -5.607915
-30.352302 9.489229 -3.737993
-30.471227 8.153851 -3.279513
-31.222326 9.35954 -3.296422
-29.467157 9.669442 -4.153166
-30.352302 9.489229 -3.737993
-30.218257 10.875131 -4.170075
-28.605227 9.788695 -4.528897
-28.739272 8.402794 -4.096815
-29.467157 9.669442 -4.153166
-16.552266 22.229307 -11.596947
-16.93234 21.432519 -11.164127
-16.84527 23.394377 -11.411839
-16.335913 20.93381 -11.802698
-16.552266 22.229307 -11.596947
-16.248843 22.895669 -12.050409
-15.398712 24.630448 -13.474158
-15.687754 24.074454 -12.965406
-15.283556 23.582879 -13.863456
-15.398712 24.630448 -13.474158
-15.157929 25.352075 -14.091534
-14.916939 23.838093 -15.417278
-15.091054 23.171508 -14.848695
-14.868658 24.971092 -15.049415
-14.789331 24.535548 -16.128031
-15.011727 22.735964 -15.92731
-14.916939 23.838093 -15.417278
-14.633489 25.200486 -16.80547
-14.789331 24.535548 -16.128031
-14.525386 25.946875 -17.558625
-14.776017 24.179807 -17.391217
-14.633489 25.200486 -16.80547
-14.403138 26.576133 -18.313043
-14.525386 25.946875 -17.558625
-14.344283 27.197615 -19.162188
-14.609058 25.547679 -18.993517
-14.403138 26.576133 -18.313043
-14.244966 27.822682 -19.977455
-14.344283 27.197615 -19.162188
-19.280741 8.866223 -8.144645
-19.743834 8.401091 -7.744722
-18.860935 9.383463 -8.491933
-19.280741 8.866223 -8.144645
-19.122642 10.451415 -8.378554
-18.495414 9.948082 -8.900778
-18.860935 9.383463 -8.491933
-18.31112 11.607725 -9.128457
-18.103697 10.587151 -9.303394
-18.495414 9.948082 -8.900778
-25.84186 13.681891 -6.318465
-26.637126 13.322669 -6.02095
-25.203423 12.488532 -6.267275
-25.84186 13.681891 -6.318465
-25.088552 14.12493 -6.635382
-23.744343 11.792116 -6.590442
-23.780164 10.15142 -6.248037
-24.485937 11.290875 -6.241786
-22.952981 12.232424 -6.910189
-23.744343 11.792116 -6.590442
-23.658753 13.371879 -6.903938
-22.269407 12.545089 -7.210826
-22.354996 10.965326 -6.897329
-22.952981 12.232424 -6.910189
-23.488627 18.443189 -7.824225
-22.749917 18.863204 -8.077658
-23.463164 16.714237 -7.547684
-23.488627 18.443189 -7.824225
-22.812014 15.486907 -7.520188
-23.518542 15.039517 -7.251181
-23.463164 16.714237 -7.547684
-18.581207 22.852048 -10.157213
-18.624133 21.090224 -9.908741
-18.076512 23.373386 -10.486752
-18.581207 22.852048 -10.157213
-17.620936 23.853258 -10.858407
-17.68092 22.117717 -10.607364
-18.076512 23.373386 -10.486752
-17.195189 24.588876 -11.233297
-17.620936 23.853258 -10.858407
-38.377358 5.188282 4.362433
-38.767476 6.515884 4.422126
-38.226246 6.284096 3.659361
-37.978502 3.814376 4.289214
-38.519732 4.046163 5.051979
-38.377358 5.188282 4.362433
-37.683725 6.238522 2.886478
-37.039299 6.298409 2.08905
-37.464859 2.66018 4.128125
-37.978502 3.814376 4.289214
-37.59815 1.435061 4.795
-37.464859 2.66018 4.128125
-34.852854 6.165411 0.040748
-34.018097 6.18598 -0.598975
-36.176777 25.625519 -2.129094
-35.975502 25.531596 -2.63147
-36.341892 24.837193 -2.259783
-36.176777 25.625519 -2.129094
-36.317482 25.868288 -1.45656
-36.139698 26.976439 -0.392596
-36.476478 25.963878 -0.718716
-36.524379 26.134857 0.044402
-36.139698 26.976439 -0.392596
-35.767063 28.009199 -0.032741
-39.803593 7.839109 6.350106
-39.608587 6.516747 6.205954
-39.695761 8.914248 5.680262
-39.803593 7.839109 6.350106
-39.565012 10.153475 4.969756
-39.369529 8.977858 4.735364
-39.695761 8.914248 5.680262
-39.42057 11.337948 4.289776
-39.565012 10.153475 4.969756
-39.251781 12.470351 3.614433
-39.069992 11.349488 3.349515
-39.42057 11.337948 4.289776
-39.058901 13.579411 2.926611
-39.251781 12.470351 3.614433
-38.872212 14.735508 2.306941
-38.714514 13.637987 2.054501
-39.058901 13.579411 2.926611
-38.667225 15.936527 1.740017
-38.872212 14.735508 2.306941
-39.011612 15.877951 2.612127
-38.752039 18.171198 2.337613
-39.004718 17.075529 2.930059
-38.559393 18.179594 1.484235
-38.752039 18.171198 2.337613
-38.504807 19.271822 1.776644
-35.764729 25.111975 -3.142564
-35.975502 25.531596 -2.63147
-16.985052 12.753221 -11.142062
-17.245171 12.215267 -10.664923
-17.000338 13.884432 -10.884261
-16.779466 13.500535 -11.700864
-16.510717 15.173115 -11.90202
-16.549964 14.251265 -12.241484
-16.985052 12.753221 -11.142062
-16.779466 13.500535 -11.700864
-16.150355 16.220964 -14.050487
-15.819527 17.92006 -14.256622
-16.014122 16.944049 -14.732672
-16.250393 15.533789 -13.38953
-16.150355 16.220964 -14.050487
-14.18591 28.50681 -20.843792
-14.491146 26.853288 -20.709001
-14.244966 27.822682 -19.977455
-14.078046 29.271043 -21.707574
-14.18591 28.50681 -20.843792
-14.018937 29.957345 -22.569938
-14.372981 28.223717 -22.437702
-14.078046 29.271043 -21.707574
-13.943246 30.575243 -23.438959
-14.018937 29.957345 -22.569938
-13.919328 31.152385 -24.391492
-14.289953 29.487161 -24.252599
-13.943246 30.575243 -23.438959
-13.857455 31.723338 -25.326881
-13.919328 31.152385 -24.391492
-14.210512 30.729758 -26.202043
-13.857455 31.723338 -25.326881
3 0 106 108
3 108 107 28
3 106 107 108
3 0 28 29
3 1 109 111
3 109 31 110
3 109 110 111
3 3 112 114
3 112 33 113
3 112 113 114
3 1 115 116
3 1 117 118
3 2 35 34
3 4 38 36
3 4 39 38
3 4 40 39
3 5 42 41
3 6 45 43
3 5 48 46
3 5 41 48
3 9 51 50
3 9 53 51
3 7 119 121
3 121 120 55
3 119 120 121
3 8 60 58
3 123 122 61
3 10 64 62
3 124 65 125
3 126 125 30
3 124 125 126
3 127 61 128
3 129 128 65
3 127 128 129
3 12 130 131
3 12 132 133
3 13 134 136
3 136 135 32
3 134 135 136
3 13 137 138
3 14 139 141
3 141 140 66
3 139 140 141
3 15 69 67
3 143 142 37
3 16 144 145
3 16 146 148
3 146 70 147
3 146 147 148
3 17 149 151
3 151 150 71
3 149 150 151
3 18 75 73
3 20 76 44
3 20 77 76
3 11 78 63
3 21 79 47
3 21 80 79
3 21 81 80
3 17 82 49
3 17 71 82
3 22 85 83
3 152 86 153
3 154 87 155
3 156 155 86
3 154 155 156
3 157 88 158
3 160 159 88
3 24 89 52
3 24 90 89
3 161 91 162
3 163 162 72
3 161 162 163
3 164 92 165
3 166 93 167
3 168 167 92
3 166 167 168
3 25 169 171
3 169 94 170
3 169 170 171
3 25 95 94
3 25 96 95
3 172 97 173
3 174 173 54
3 172 173 174
3 175 98 176
3 177 176 97
3 175 176 177
3 178 99 179
3 180 179 98
3 178 179 180
3 19 181 183
3 183 182 74
3 181 182 183
3 26 184 186
3 186 185 100
3 184 185 186
3 188 187 56
3 189 101 190
3 27 191 192
3 27 193 195
3 193 102 194
3 193 194 195
3 27 103 102
3 26 104 57
3 26 100 104
3 23 105 84
3 197 196 59
3 199 198 68
3 28 200 201
3 203 202 28
3 29 30 10
3 28 30 29
3 28 204 206
3 206 205 30
3 204 205 206
3 31 207 208
3 31 209 211
3 209 12 210
3 209 210 211
3 212 32 213
3 33 214 216
3 214 32 215
3 214 215 216
3 33 13 32
3 218 217 14
3 34 219 220
3 35 221 223
3 223 222 34
3 221 222 223
3 35 224 225
3 36 37 15
3 38 37 36
3 38 226 228
3 228 227 37
3 226 227 228
3 38 229 230
3 39 231 233
3 233 232 38
3 231 232 233
3 39 234 235
3 39 236 237
3 40 238 240
3 240 239 39
3 238 239 240
3 40 241 243
3 241 16 242
3 241 242 243
3 41 244 246
3 246 245 17
3 244 245 246
3 42 247 249
3 249 248 41
3 247 248 249
3 42 250 251
3 43 44 18
3 45 44 43
3 45 20 44
3 46 47 11
3 48 47 46
3 48 21 47
3 48 49 21
3 41 49 48
3 41 17 49
3 253 252 22
3 50 254 255
3 51 256 258
3 258 257 50
3 256 257 258
3 51 259 260
3 51 261 263
3 261 52 262
3 261 262 263
3 53 52 51
3 53 24 52
3 264 25 265
3 266 54 267
3 268 267 25
3 266 267 268
3 269 54 270
3 272 271 54
3 55 273 275
3 275 274 19
3 273 274 275
3 277 276 55
3 278 56 279
3 280 279 26
3 278 279 280
3 281 56 282
3 284 283 56
3 285 27 286
3 287 57 288
3 289 288 27
3 287 288 289
3 290 57 291
3 292 26 293
3 294 293 57
3 292 293 294
3 58 59 23
3 60 59 58
3 60 295 297
3 297 296 59
3 295 296 297
3 61 298 300
3 300 299 5
3 298 299 300
3 302 301 61
3 62 63 6
3 64 63 62
3 64 11 63
3 30 64 10
3 65 64 30
3 65 11 64
3 65 46 11
3 61 46 65
3 61 5 46
3 303 50 304
3 305 50 306
3 307 9 308
3 309 308 50
3 307 308 309
3 32 310 311
3 313 312 32
3 66 314 316
3 316 315 7
3 314 315 316
3 318 317 66
3 320 319 14
3 67 68 8
3 69 68 67
3 69 321 323
3 323 322 68
3 321 322 323
3 37 69 15
3 324 69 325
3 326 325 37
3 324 325 326
3 328 327 69
3 70 329 330
3 70 331 332
3 71 72 1
3 333 72 334
3 335 334 71
3 333 334 335
3 337 336 72
3 339 338 17
3 340 42 341
3 342 341 5
3 340 341 342
3 343 42 344
3 346 345 42
3 73 74 3
3 75 74 73
3 75 19 74
3 44 75 18
3 76 75 44
3 76 19 75
3 76 55 19
3 77 55 76
3 77 7 55
3 63 45 6
3 78 45 63
3 78 20 45
3 47 78 11
3 79 78 47
3 79 20 78
3 79 77 20
3 80 77 79
3 80 7 77
3 80 66 7
3 81 66 80
3 81 14 66
3 49 81 21
3 82 81 49
3 82 14 81
3 82 347 349
3 349 348 14
3 347 348 349
3 71 350 352
3 352 351 82
3 350 351 352
3 71 353 355
3 353 1 354
3 353 354 355
3 83 84 2
3 85 84 83
3 85 23 84
3 356 85 357
3 358 357 22
3 356 357 358
3 86 359 361
3 359 85 360
3 359 360 361
3 86 23 85
3 86 58 23
3 87 58 86
3 87 8 58
3 362 87 363
3 88 364 366
3 364 87 365
3 364 365 366
3 88 8 87
3 88 67 8
3 367 67 368
3 369 368 88
3 367 368 369
3 370 15 371
3 372 371 67
3 370 371 372
3 373 15 374
3 375 36 376
3 377 376 15
3 375 376 377
3 378 36 379
3 380 4 381
3 382 381 36
3 380 381 382
3 384 383 4
3 52 385 386
3 89 387 389
3 389 388 52
3 387 388 389
3 89 390 391
3 89 392 394
3 392 34 393
3 392 393 394
3 90 34 89
3 90 2 34
3 72 31 1
3 91 31 72
3 91 12 31
3 395 91 396
3 92 397 399
3 397 91 398
3 397 398 399
3 92 12 91
3 92 400 402
3 402 401 12
3 400 401 402
3 93 403 405
3 405 404 92
3 403 404 405
3 93 406 408
3 406 9 407
3 406 407 408
3 94 409 410
3 94 411 412
3 94 413 415
3 413 93 414
3 413 414 415
3 95 93 94
3 95 9 93
3 95 53 9
3 96 53 95
3 96 24 53
3 54 96 25
3 97 96 54
3 97 24 96
3 97 90 24
3 98 90 97
3 98 2 90
3 98 83 2
3 99 83 98
3 99 22 83
3 416 99 417
3 418 99 419
3 420 22 421
3 422 421 99
3 420 421 422
3 424 423 22
3 74 33 3
3 425 33 426
3 427 426 74
3 425 426 427
3 428 13 429
3 430 429 33
3 428 429 430
3 432 431 19
3 433 13 434
3 436 435 13
3 438 437 7
3 100 439 441
3 441 440 0
3 439 440 441
3 443 442 100
3 56 444 446
3 446 445 26
3 444 445 446
3 448 447 56
3 449 3 450
3 451 3 452
3 453 73 454
3 455 454 3
3 453 454 455
3 456 73 457
3 458 18 459
3 460 459 73
3 458 459 460
3 461 18 462
3 463 43 464
3 465 464 18
3 463 464 465
3 101 466 468
3 466 43 467
3 466 467 468
3 101 6 43
3 469 101 470
3 102 471 473
3 471 101 472
3 471 472 473
3 102 6 101
3 102 62 6
3 103 62 102
3 103 10 62
3 57 103 27
3 104 103 57
3 104 10 103
3 104 29 10
3 100 29 104
3 100 0 29
3 475 474 0
3 84 35 2
3 105 35 84
3 105 476 478
3 478 477 35
3 476 477 478
3 59 105 23
3 479 105 480
3 481 480 59
3 479 480 481
3 483 482 105
3 68 60 8
3 484 60 485
3 486 485 68
3 484 485 486
3 488 487 60
3 489 40 490
3 491 490 4
3 489 490 491
3 492 40 493
3 494 16 495
3 496 495 40
3 494 495 496
3 497 16 498
3 499 70 500
3 501 500 16
3 499 500 501
3 502 70 503
3 505 504 70
