ply
format ascii 1.0
element vertex 260
property float x
property float y
property float z
element face 189
property list uchar int vertex_index
end_header
-2.873408 -8.296381 -60.364635
-9.220489 -20.672253 -59.134983
-2.571131 -2.880743 -62.286884
-31.276833 -31.632622 -54.14249
-22.002359 -26.064127 -59.332886
-18.035213 -26.700003 -59.047825
-14.14992 -27.223017 -58.221031
-1.361066 -13.222135 -56.654175
-2.725143 -5.576911 -61.347202
-3.69354 -6.117154 -62.109001
-3.956782 -8.742924 -61.220646
-24.058987 -25.591228 -59.288456
-19.199406 -22.948847 -60.569042
-16.086992 -26.858742 -58.740253
-15.351362 -23.562218 -59.850536
-13.380198 -23.822151 -59.296257
-8.282699 -24.007294 -57.426285
-7.767795 -20.665674 -58.50082
-7.186303 -17.832533 -59.39785
-8.60975 -17.556103 -60.175407
-1.996595 -7.951622 -59.513226
-28.750517 -28.606497 -56.76799
-26.916248 -28.832409 -57.34029
-22.71332 -29.5769 -57.914185
-20.63158 -29.917707 -57.92823
-21.197311 -22.581553 -60.728931
-19.984327 -26.262249 -59.315311
-18.547195 -30.458036 -57.693859
-16.494661 -30.525164 -57.469593
-10.89261 -20.702879 -59.752899
-10.193501 -17.575851 -60.797485
-1.281738 -10.206438 -57.697277
-2.08922 -10.792953 -58.469547
-2.284882 -13.682994 -57.541992
-3.104773 -11.131582 -59.41021
-15.892449 -21.668139 -60.686599
-16.342419 -23.284836 -60.11685
-14.929164 -21.843311 -60.433281
-15.892449 -21.668139 -60.686599
-1.583938 -7.717075 -59.064318
-1.924736 -6.55139 -59.996031
-31.43208 -33.378384 -53.214043
-32.117855 -31.50785 -53.626551
-29.454896 -26.75478 -57.229149
-29.801247 -28.40719 -56.344734
-28.510631 -26.733143 -57.639059
-29.454896 -26.75478 -57.229149
-2.97211 -1.674055 -63.20619
-2.450245 -1.507171 -62.690827
-25.856828 -29.028821 -57.530916
-26.584395 -27.025614 -58.163887
-20.733796 -20.82116 -61.423821
-21.802996 -20.612097 -61.464664
-14.37043 -29.040484 -57.623404
-15.338966 -28.858347 -57.883015
-15.118456 -27.040879 -58.480642
-13.420548 -28.998185 -57.40876
-14.37043 -29.040484 -57.623404
-13.172263 -27.25465 -57.945818
-13.420548 -28.998185 -57.40876
-12.513059 -23.809596 -59.044332
-13.017103 -21.973101 -59.919697
-11.773308 -20.413466 -60.148018
-11.269265 -22.24996 -59.272654
-10.554893 -15.848453 -61.665165
-10.998625 -17.363732 -61.154635
-9.794656 -16.065843 -61.301783
-10.554893 -15.848453 -61.665165
-6.931669 -16.441208 -59.871282
-7.575665 -16.433871 -60.193917
-1.321402 -11.714287 -57.175726
-0.924754 -11.513545 -56.718786
-0.964418 -13.021394 -56.197235
-2.786716 -13.916906 -57.940666
-2.347236 -15.161568 -57.038508
-3.196661 -12.6412 -58.874775
-2.694827 -12.407288 -58.476101
-2.786716 -13.916906 -57.940666
-3.631837 -11.393209 -59.775513
-3.196661 -12.6412 -58.874775
-30.514212 -33.65363 -53.651537
-30.354259 -31.764239 -54.589805
-3.136553 -4.49808 -62.227972
-3.059547 -3.149996 -62.697813
-2.648137 -4.228827 -61.817043
-3.620751 -4.768201 -62.608871
-3.136553 -4.49808 -62.227972
-3.209341 -5.847033 -61.728102
-4.170666 -5.080275 -62.969906
-3.620751 -4.768201 -62.608871
-4.246145 -6.399779 -62.464453
-4.170666 -5.080275 -62.969906
-4.377766 -7.712664 -62.020275
-4.246145 -6.399779 -62.464453
-3.825161 -7.430039 -61.664823
-4.48005 -9.099891 -61.49377
-4.377766 -7.712664 -62.020275
-24.756724 -23.71517 -59.900812
-25.155764 -25.405023 -59.13797
-23.712612 -23.841535 -60.021559
-24.756724 -23.71517 -59.900812
-22.684298 -24.077985 -60.043774
-23.030673 -25.827678 -59.310671
-23.712612 -23.841535 -60.021559
-18.783857 -21.069448 -61.277265
-19.734844 -21.004807 -61.343876
-18.266441 -22.97815 -60.476103
-18.783857 -21.069448 -61.277265
-17.684344 -24.853728 -59.715494
-18.617309 -24.824425 -59.808434
-18.266441 -22.97815 -60.476103
-16.710234 -24.933098 -59.561708
-17.061102 -26.779373 -58.894039
-17.684344 -24.853728 -59.715494
-15.719177 -25.21048 -59.295395
-16.710234 -24.933098 -59.561708
-16.342419 -23.284836 -60.11685
-13.943582 -21.973278 -60.156141
-14.36578 -23.692185 -59.573397
-14.929164 -21.843311 -60.433281
-13.017103 -21.973101 -59.919697
-13.943582 -21.973278 -60.156141
-7.481908 -23.930312 -57.076334
-7.667057 -25.682792 -56.534722
-7.224455 -22.259502 -57.613602
-7.481908 -23.930312 -57.076334
-8.025247 -22.336484 -57.963552
-7.011678 -20.696127 -58.108015
-7.224455 -22.259502 -57.613602
-7.477049 -19.249104 -58.949335
-6.720932 -19.279556 -58.55653
-7.011678 -20.696127 -58.108015
-8.287388 -16.295656 -60.582695
-7.575665 -16.433871 -60.193917
-7.898027 -17.694318 -59.786628
-0.945359 -14.582904 -55.642403
-0.964418 -13.021394 -56.197235
-2.113695 -2.643002 -61.809776
-2.450245 -1.507171 -62.690827
-2.212004 -4.01595 -61.38286
-2.113695 -2.643002 -61.809776
-2.28901 -5.364034 -60.913019
-2.648137 -4.228827 -61.817043
-2.212004 -4.01595 -61.38286
-2.360869 -6.764266 -60.430214
-2.28901 -5.364034 -60.913019
-1.924736 -6.55139 -59.996031
-31.43208 -33.378384 -53.214043
-30.514212 -33.65363 -53.651537
-8.471959 -25.824546 -56.844565
-7.667057 -25.682792 -56.534722
-9.093729 -23.924115 -57.792332
-8.471959 -25.824546 -56.844565
-9.562625 -22.256595 -58.646681
-8.751594 -22.339773 -58.280634
-9.093729 -23.924115 -57.792332
-31.999285 -29.680539 -54.558188
-32.117855 -31.50785 -53.626551
-31.064405 -29.920253 -55.031984
-31.999285 -29.680539 -54.558188
-30.354259 -31.764239 -54.589805
-31.064405 -29.920253 -55.031984
-29.0911 -30.251176 -55.902555
-29.801247 -28.40719 -56.344734
-28.099661 -30.689056 -56.139587
-29.0911 -30.251176 -55.902555
-27.833382 -28.719453 -57.05414
-27.182527 -30.802011 -56.425737
-28.099661 -30.689056 -56.139587
-27.593497 -26.846099 -57.925209
-27.833382 -28.719453 -57.05414
-28.510631 -26.733143 -57.639059
-26.584395 -27.025614 -58.163887
-27.593497 -26.846099 -57.925209
-2.97211 -1.674055 -63.20619
-3.059547 -3.149996 -62.697813
-26.192747 -30.763628 -56.757689
-27.182527 -30.802011 -56.425737
-26.192747 -30.763628 -56.757689
-25.856828 -29.028821 -57.530916
-24.428198 -27.408231 -58.504999
-25.155764 -25.405023 -59.13797
-23.755364 -29.401066 -57.817864
-24.428198 -27.408231 -58.504999
-23.386153 -27.584064 -58.60132
-23.005138 -31.507654 -57.129033
-23.755364 -29.401066 -57.817864
-21.947541 -31.630322 -57.207219
-23.005138 -31.507654 -57.129033
-20.906672 -31.800725 -57.214241
-21.947541 -31.630322 -57.207219
-21.67245 -29.747304 -57.921208
-19.834798 -31.970618 -57.179257
-20.906672 -31.800725 -57.214241
-22.281774 -22.336698 -60.741797
-21.802996 -20.612097 -61.464664
-21.599835 -24.32284 -60.030909
-22.684298 -24.077985 -60.043774
-22.281774 -22.336698 -60.741797
-20.198358 -22.7652 -60.648987
-20.733796 -20.82116 -61.423821
-19.734844 -21.004807 -61.343876
-18.792605 -32.240783 -57.062071
-19.834798 -31.970618 -57.179257
-19.589388 -30.187871 -57.811045
-17.793068 -32.317318 -56.975918
-18.792605 -32.240783 -57.062071
-16.766801 -32.350882 -56.863785
-17.793068 -32.317318 -56.975918
-17.520928 -30.4916 -57.581726
-15.751416 -32.649728 -56.623481
-16.766801 -32.350882 -56.863785
-15.5428 -30.691558 -57.247685
-16.290827 -28.691953 -58.104923
-15.338966 -28.858347 -57.883015
-15.751416 -32.649728 -56.623481
-15.5428 -30.691558 -57.247685
-12.787402 -25.554217 -58.483431
-13.172263 -27.25465 -57.945818
-13.765059 -25.522584 -58.758644
-12.787402 -25.554217 -58.483431
-12.513059 -23.809596 -59.044332
-10.398685 -22.271908 -58.955639
-11.269265 -22.24996 -59.272654
-10.056549 -20.687566 -59.443941
-9.562625 -22.256595 -58.646681
-10.398685 -22.271908 -58.955639
-11.348179 -18.927246 -60.632341
-11.773308 -20.413466 -60.148018
-10.543055 -19.139365 -60.275192
-11.348179 -18.927246 -60.632341
-10.998625 -17.363732 -61.154635
-9.00278 -16.055968 -60.990744
-9.401625 -17.565977 -60.486446
-9.794656 -16.065843 -61.301783
-8.287388 -16.295656 -60.582695
-9.00278 -16.055968 -60.990744
-6.532709 -17.847442 -59.038094
-6.720932 -19.279556 -58.55653
-6.532709 -17.847442 -59.038094
-6.931669 -16.441208 -59.871282
-0.872798 -10.111467 -57.148117
-0.924754 -11.513545 -56.718786
-1.22651 -8.844484 -58.156343
-0.872798 -10.111467 -57.148117
-1.639166 -9.07903 -58.605252
-1.583938 -7.717075 -59.064318
-1.22651 -8.844484 -58.156343
-1.399281 -14.739045 -56.151399
-0.945359 -14.582904 -55.642403
-1.861188 -14.969475 -56.595308
-2.347236 -15.161568 -57.038508
-1.822974 -13.452565 -57.098084
-1.399281 -14.739045 -56.151399
-1.861188 -14.969475 -56.595308
-4.057842 -10.19888 -60.680731
-3.530778 -9.937253 -60.315428
-3.631837 -11.393209 -59.775513
-4.48005 -9.099891 -61.49377
-4.057842 -10.19888 -60.680731
3 0 9 8
3 0 10 9
3 35 14 36
3 38 37 14
3 1 17 16
3 1 19 17
3 39 20 40
3 3 41 42
3 43 21 44
3 46 45 21
3 2 47 48
3 50 49 22
3 4 23 11
3 4 24 23
3 51 25 52
3 5 26 12
3 5 27 26
3 5 28 27
3 6 53 55
3 55 54 13
3 53 54 55
3 6 56 57
3 6 58 59
3 61 60 15
3 62 29 63
3 64 30 65
3 67 66 30
3 69 68 18
3 7 70 72
3 70 31 71
3 70 71 72
3 7 32 31
3 73 33 74
3 75 34 76
3 77 76 33
3 75 76 77
3 79 78 34
3 81 80 3
3 8 82 84
3 84 83 2
3 82 83 84
3 9 85 87
3 87 86 8
3 85 86 87
3 9 88 89
3 9 90 91
3 10 92 94
3 94 93 9
3 92 93 94
3 10 95 96
3 97 11 98
3 99 11 100
3 101 4 102
3 103 102 11
3 101 102 103
3 104 12 105
3 106 12 107
3 108 5 109
3 110 109 12
3 108 109 110
3 111 13 112
3 113 112 5
3 111 112 113
3 14 114 116
3 114 13 115
3 114 115 116
3 14 6 13
3 14 15 6
3 117 15 118
3 119 118 14
3 117 118 119
3 121 120 15
3 16 122 123
3 17 124 126
3 126 125 16
3 124 125 126
3 17 127 128
3 17 129 131
3 129 18 130
3 129 130 131
3 19 18 17
3 19 132 134
3 134 133 18
3 132 133 134
3 135 7 136
3 137 2 138
3 139 2 140
3 141 8 142
3 143 142 2
3 141 142 143
3 20 144 146
3 144 8 145
3 144 145 146
3 20 0 8
3 148 147 3
3 149 16 150
3 151 16 152
3 153 1 154
3 155 154 16
3 153 154 155
3 156 3 157
3 158 3 159
3 161 160 3
3 21 162 163
3 21 164 165
3 21 166 168
3 166 22 167
3 166 167 168
3 169 22 170
3 171 170 21
3 169 170 171
3 173 172 22
3 175 174 2
3 22 176 177
3 179 178 22
3 11 180 181
3 23 182 184
3 184 183 11
3 182 183 184
3 23 185 186
3 23 187 188
3 24 189 191
3 191 190 23
3 189 190 191
3 24 192 193
3 25 194 195
3 25 196 198
3 196 4 197
3 196 197 198
3 12 199 201
3 199 25 200
3 199 200 201
3 26 25 12
3 26 4 25
3 26 24 4
3 27 24 26
3 27 202 204
3 204 203 24
3 202 203 204
3 27 205 206
3 28 207 209
3 209 208 27
3 207 208 209
3 28 210 211
3 13 28 5
3 212 28 213
3 214 213 13
3 212 213 214
3 216 215 28
3 15 217 219
3 219 218 6
3 217 218 219
3 221 220 15
3 29 222 223
3 29 224 226
3 224 1 225
3 224 225 226
3 227 29 228
3 30 229 231
3 229 29 230
3 229 230 231
3 30 1 29
3 30 19 1
3 232 19 233
3 234 233 30
3 232 233 234
3 236 235 19
3 18 237 238
3 240 239 18
3 31 241 242
3 31 243 244
3 31 245 247
3 245 20 246
3 245 246 247
3 32 20 31
3 32 0 20
3 248 7 249
3 33 250 251
3 33 252 254
3 252 7 253
3 252 253 254
3 33 32 7
3 34 32 33
3 34 0 32
3 34 10 0
3 255 10 256
3 257 256 34
3 255 256 257
3 259 258 10
