ply
format ascii 1.0
element vertex 331
property float x
property float y
property float z
element face 333
property list uchar int vertex_index
end_header
-25.16872 -56.253098 26.075338
-27.498064 -47.885513 30.29166
-30.96493 -50.367477 23.137405
-32.757977 -42.375534 28.029186
-21.196325 -52.287697 32.073872
-19.077785 -61.389969 28.371344
-28.20936 -43.878731 31.664782
-30.291883 -45.397324 29.220285
-30.707226 -41.432194 30.731134
-23.833128 -60.194496 23.247107
-26.754641 -56.944942 21.809433
-23.308544 -54.558453 29.548283
-20.126123 -56.923706 30.483059
-22.235357 -58.789383 27.332396
-20.962685 -63.065495 24.604332
-26.513111 -52.16663 28.325857
-28.17454 -53.396786 24.637085
-29.420673 -49.510765 27.131546
-32.107094 -46.42466 25.912924
-34.482925 -43.067539 24.457907
-24.334984 -50.248634 31.220142
-16.974771 -58.923752 31.387299
-15.850789 -63.71133 29.183262
-28.512203 -41.965977 32.153328
-29.551363 -42.691601 31.206131
-24.450005 -58.264996 24.783661
-25.237003 -58.590904 22.687149
-25.962767 -56.752083 24.051783
-24.241158 -55.521526 27.958008
-22.725975 -56.73867 28.520321
-23.686008 -57.488506 26.804346
-23.081999 -59.535831 25.455631
-27.03356 -49.989273 29.407742
-28.005367 -50.767578 27.816273
-28.591608 -48.704792 28.79409
-31.536337 -43.92926 28.693848
-31.307096 -45.878563 27.65309
-32.557396 -44.376144 26.975971
-33.340916 -44.921761 25.066978
-33.727291 -42.717842 26.29192
-26.411894 -46.923309 31.492367
-24.835108 -47.893116 31.958988
-25.871124 -49.148529 30.79014
-25.509115 -51.27594 29.864683
-29.586998 -51.942795 23.874224
-28.873425 -53.701134 22.493481
-20.125067 -50.628571 33.180809
-19.489279 -53.124996 32.602512
-19.6595 -59.106167 29.499714
-18.536673 -57.80389 31.037886
-18.136675 -60.184608 29.939917
-16.514666 -61.275574 30.349148
-17.44417 -62.547665 28.86231
-16.962069 -64.755112 27.540197
-18.542589 -63.581551 27.079575
-27.931589 -45.814461 31.02319
-29.018129 -46.645287 29.724621
-29.307438 -44.638161 30.549328
-30.535831 -43.444454 30.03973
-31.688835 -42.029385 29.524349
-26.746969 -44.800026 32.143242
-23.917021 -62.123257 19.402962
-24.577847 -60.3974 21.05311
-22.351713 -53.551758 30.825649
-20.622156 -54.558571 31.392689
-21.692345 -55.779167 30.035757
-21.216099 -58.013325 28.9611
-20.655094 -60.201393 27.816689
-20.065685 -62.312122 26.599506
-21.571001 -60.981438 26.039742
-22.36912 -61.591652 24.10778
-25.848656 -54.178249 27.318857
-26.739391 -54.741879 25.419029
-27.415785 -52.770145 26.675549
-28.824266 -51.546597 25.892311
-30.297014 -49.952011 25.234255
-30.001656 -47.347626 28.213957
-30.792917 -47.973888 26.582865
-31.658291 -48.338352 24.566601
-32.881954 -46.809315 23.819277
-34.057716 -45.097519 23.131559
-21.615477 -49.846867 32.780281
-23.2271 -48.916718 32.366318
-22.739782 -51.215931 31.699047
-23.853319 -52.34296 30.465805
-24.852428 -53.401371 29.010521
-13.79548 -67.040131 28.015516
-27.394007 -55.235683 23.393894
-18.974909 -55.524914 31.884245
-17.496641 -56.421791 32.283669
-14.334961 -64.634422 29.501068
-15.417838 -65.998817 27.744415
-32.874542 -40.253483 28.927032
-33.83519 -40.678631 27.419706
-34.778965 -40.954025 25.613325
-35.520947 -41.271748 23.662544
-29.031411 -41.425238 31.985383
-28.589557 -41.199123 32.322541
-28.589557 -41.199123 32.322541
-28.067932 -41.421681 32.52208
-28.145285 -40.654827 32.691292
-30.593857 -51.262237 22.443722
-29.904891 -52.049897 22.812132
-30.275964 -51.155136 23.505814
-27.478164 -44.339379 31.904012
-27.0042 -43.749001 32.360022
-27.735396 -43.288353 32.120792
-24.205487 -60.295948 22.150109
-23.867532 -61.210566 21.438341
-23.495172 -61.109113 22.535339
-26.384954 -57.781282 21.10763
-25.626134 -58.604263 21.546488
-25.995822 -57.767923 22.248291
-27.066148 -56.982566 20.636258
-26.384954 -57.781282 21.10763
-23.495172 -61.109113 22.535339
-22.763168 -61.807692 22.965676
-23.101124 -60.893074 23.677444
-34.83675 -43.168506 23.385565
-34.624145 -44.183497 22.722391
-34.27032 -44.082529 23.794733
-21.878542 -48.688883 33.034699
-21.085592 -49.081742 33.237593
-13.558097 -68.199692 27.163591
-14.383591 -67.592323 27.114847
-24.916037 -61.177069 17.879707
-24.242505 -62.065285 18.195306
-24.590553 -61.235041 19.087363
-28.521155 -54.491936 21.817736
-29.191485 -53.728688 21.36946
-16.443926 -58.179212 32.022362
-16.704861 -56.928232 32.470547
-17.235706 -57.672771 31.835484
-16.208544 -59.431698 31.552546
-15.677698 -58.687158 32.187609
-16.443926 -58.179212 32.022362
-15.362403 -62.95047 29.980055
-15.694342 -61.732592 30.562998
-16.182727 -62.493452 29.766205
-15.092875 -64.172876 29.342165
-14.604489 -63.412016 30.138958
-15.362403 -62.95047 29.980055
-16.737864 -65.887505 26.728637
-17.455495 -65.289131 26.570194
-20.226689 -63.762183 24.87464
-19.778189 -63.385496 25.872228
-20.514185 -62.688809 25.601919
-32.78239 -39.226487 29.3814
-32.319088 -40.114041 29.5865
-34.362816 -39.793593 27.021857
-33.844008 -39.584271 27.894754
-34.834704 -39.93129 26.118666
-34.307077 -40.816328 26.516516
-34.362816 -39.793593 27.021857
-35.967402 -40.40538 23.230191
-35.655758 -40.169932 24.22063
-35.832238 -41.387076 22.582671
-35.967402 -40.40538 23.230191
-29.550991 -41.78805 31.511784
-29.031783 -42.328789 31.67973
-29.031411 -41.425238 31.985383
-30.128923 -41.158347 31.274286
-30.129295 -42.061898 30.968632
-29.550991 -41.78805 31.511784
-27.886817 -42.331976 32.365065
-27.442546 -41.787679 32.733816
-28.067932 -41.421681 32.52208
-28.360782 -42.922354 31.909055
-27.735396 -43.288353 32.120792
-27.886817 -42.331976 32.365065
-25.623501 -47.408213 31.725678
-25.032574 -46.802193 32.258585
-25.820967 -46.317289 32.025275
-29.548105 -52.929066 22.121761
-29.230212 -52.821964 23.183853
-29.904891 -52.049897 22.812132
-29.191485 -53.728688 21.36946
-29.548105 -52.929066 22.121761
-19.285329 -51.099457 33.398178
-18.717156 -50.32219 33.863228
-19.556894 -49.851304 33.645859
-18.967435 -52.34767 33.109029
-19.285329 -51.099457 33.398178
-19.807173 -51.876784 32.891661
-18.689998 -53.586557 32.81719
-18.967435 -52.34767 33.109029
-18.245755 -64.702351 26.339883
-17.455495 -65.289131 26.570194
-17.752329 -64.168331 27.309886
-20.662678 -64.043665 23.876309
-21.359023 -63.326904 23.553138
-26.236592 -44.200098 32.566405
-27.0042 -43.749001 32.360022
-25.988504 -45.255648 32.350712
-26.236592 -44.200098 32.566405
-26.579431 -45.861668 31.817805
-25.820967 -46.317289 32.025275
-25.988504 -45.255648 32.350712
-23.537119 -62.073494 20.613267
-23.22134 -62.971008 19.816932
-24.247434 -61.260328 20.228036
-23.537119 -62.073494 20.613267
-23.867532 -61.210566 21.438341
-24.920966 -60.372113 19.912437
-24.590553 -61.235041 19.087363
-24.247434 -61.260328 20.228036
-25.296557 -59.507511 20.729468
-24.907425 -59.494152 21.87013
-25.626134 -58.604263 21.546488
-24.920966 -60.372113 19.912437
-25.296557 -59.507511 20.729468
-31.308554 -50.380022 22.030394
-31.620235 -49.549458 22.760339
-22.06224 -62.589983 23.304862
-21.359023 -63.326904 23.553138
-21.665903 -62.328574 24.356056
-22.06224 -62.589983 23.304862
-22.763168 -61.807692 22.965676
-31.966915 -48.534895 23.474936
-31.620235 -49.549458 22.760339
-31.311611 -49.352914 23.852003
-32.578747 -47.770376 23.101275
-31.966915 -48.534895 23.474936
-32.270122 -47.573833 24.192939
-33.216801 -46.891001 22.707422
-32.578747 -47.770376 23.101275
-33.804682 -46.035103 22.363563
-33.216801 -46.891001 22.707422
-33.469835 -45.953417 23.475418
-34.405368 -45.072079 22.029929
-33.804682 -46.035103 22.363563
-34.405368 -45.072079 22.029929
-34.624145 -44.183497 22.722391
-20.340387 -49.472594 33.437857
-19.556894 -49.851304 33.645859
-19.772214 -48.695326 33.902907
-20.870272 -50.237719 32.980545
-20.340387 -49.472594 33.437857
-21.085592 -49.081742 33.237593
-24.293087 -47.249922 32.435951
-25.032574 -46.802193 32.258585
-23.489083 -47.761723 32.639616
-24.293087 -47.249922 32.435951
-24.031104 -48.404917 32.162653
-22.684354 -48.223809 32.827717
-23.489083 -47.761723 32.639616
-22.421288 -49.381793 32.5733
-21.878542 -48.688883 33.034699
-22.684354 -48.223809 32.827717
-13.054511 -67.466622 28.10507
-13.280952 -66.281449 28.888343
-12.817128 -68.626182 27.253145
-13.054511 -67.466622 28.10507
-13.558097 -68.199692 27.163591
-23.626332 -62.90815 18.575784
-23.22134 -62.971008 19.816932
-23.626332 -62.90815 18.575784
-24.242505 -62.065285 18.195306
-27.781447 -55.259211 22.267943
-28.133716 -54.468409 22.943687
-28.521155 -54.491936 21.817736
-27.461763 -56.11384 21.475712
-27.074324 -56.090312 22.601664
-27.781447 -55.259211 22.267943
-27.066148 -56.982566 20.636258
-27.461763 -56.11384 21.475712
-30.593857 -51.262237 22.443722
-31.308554 -50.380022 22.030394
-18.432813 -54.786517 32.458056
-18.689998 -53.586557 32.81719
-19.232094 -54.324955 32.243378
-17.693679 -55.234955 32.657769
-18.432813 -54.786517 32.458056
-18.235775 -55.973353 32.083957
-16.956119 -55.692013 32.840942
-17.693679 -55.234955 32.657769
-16.164338 -56.198453 33.027821
-16.956119 -55.692013 32.840942
-16.704861 -56.928232 32.470547
-15.978491 -60.607609 31.03347
-16.208544 -59.431698 31.552546
-16.744718 -60.099663 30.868223
-15.978491 -60.607609 31.03347
-15.694342 -61.732592 30.562998
-13.792358 -63.887531 30.289979
-14.604489 -63.412016 30.138958
-13.550693 -65.078594 29.631118
-13.792358 -63.887531 30.289979
-14.06522 -65.837277 28.758292
-13.280952 -66.281449 28.888343
-13.550693 -65.078594 29.631118
-15.19477 -67.071666 26.979297
-14.383591 -67.592323 27.114847
-14.606659 -66.519474 27.879966
-15.965749 -66.509357 26.830747
-16.189954 -65.376964 27.642306
-16.737864 -65.887505 26.728637
-15.19477 -67.071666 26.979297
-15.965749 -66.509357 26.830747
-19.016641 -64.020211 26.112262
-19.304137 -62.946837 26.83954
-19.778189 -63.385496 25.872228
-18.245755 -64.702351 26.339883
-19.016641 -64.020211 26.112262
-20.226689 -63.762183 24.87464
-20.662678 -64.043665 23.876309
-30.64068 -40.473732 31.073991
-30.128923 -41.158347 31.274286
-31.23543 -40.703396 30.488551
-30.64068 -40.473732 31.073991
-31.726235 -41.001992 29.885159
-31.198031 -41.73079 30.127741
-31.23543 -40.703396 30.488551
-32.281689 -41.141434 29.22569
-31.726235 -41.001992 29.885159
-32.319088 -40.114041 29.5865
-33.363684 -39.371696 28.648416
-32.78239 -39.226487 29.3814
-33.354866 -40.466057 28.173369
-33.363684 -39.371696 28.648416
-33.844008 -39.584271 27.894754
-35.284767 -40.01107 25.19602
-34.834704 -39.93129 26.118666
-35.149956 -41.112887 24.637935
-35.284767 -40.01107 25.19602
-35.655758 -40.169932 24.22063
-35.355761 -42.270611 22.987884
-34.83675 -43.168506 23.385565
-35.001936 -42.169643 24.060226
-35.355761 -42.270611 22.987884
-35.832238 -41.387076 22.582671
3 97 96 23
3 98 23 99
3 98 99 100
3 0 27 25
3 0 30 28
3 0 25 30
3 1 34 32
3 3 37 35
3 3 39 37
3 1 42 40
3 1 32 42
3 2 101 103
3 103 102 44
3 101 102 103
3 4 47 46
3 5 50 48
3 5 52 50
3 5 54 52
3 6 57 55
3 8 58 24
3 8 59 58
3 6 104 106
3 104 60 105
3 104 105 106
3 6 55 60
3 9 107 109
3 107 62 108
3 107 108 109
3 10 110 112
3 112 111 26
3 110 111 112
3 10 113 114
3 11 65 63
3 13 66 29
3 13 67 66
3 13 69 67
3 9 70 31
3 9 115 117
3 117 116 70
3 115 116 117
3 15 73 71
3 17 74 33
3 17 75 74
3 7 76 56
3 18 77 36
3 18 78 77
3 18 79 78
3 19 80 38
3 19 118 120
3 120 119 80
3 118 119 120
3 121 81 122
3 20 82 41
3 20 83 82
3 20 84 83
3 15 85 43
3 15 71 85
3 124 123 86
3 127 126 61
3 125 126 127
3 16 87 72
3 129 128 45
3 12 88 64
3 21 89 49
3 21 130 132
3 132 131 89
3 130 131 132
3 21 133 135
3 133 134 135
3 22 136 138
3 138 137 51
3 136 137 138
3 22 139 141
3 139 90 140
3 139 140 141
3 22 91 90
3 143 142 53
3 14 144 146
3 146 145 68
3 144 145 146
3 147 92 148
3 149 93 150
3 151 94 152
3 153 152 93
3 151 152 153
3 154 95 155
3 157 156 95
3 23 24 6
3 158 24 159
3 160 159 23
3 158 159 160
3 161 8 162
3 163 162 24
3 161 162 163
3 23 164 166
3 164 165 166
3 23 167 169
3 167 6 168
3 167 168 169
3 25 26 9
3 27 26 25
3 27 10 26
3 28 29 11
3 30 29 28
3 30 13 29
3 30 31 13
3 25 31 30
3 25 9 31
3 32 33 15
3 34 33 32
3 34 17 33
3 35 36 7
3 37 36 35
3 37 18 36
3 37 38 18
3 39 38 37
3 39 19 38
3 40 170 172
3 170 41 171
3 170 171 172
3 42 41 40
3 42 20 41
3 42 43 20
3 32 43 42
3 32 15 43
3 44 45 16
3 173 45 174
3 175 174 44
3 173 174 175
3 177 176 45
3 46 178 180
3 178 179 180
3 47 181 183
3 183 182 46
3 181 182 183
3 47 184 185
3 48 49 12
3 50 49 48
3 50 21 49
3 50 51 21
3 52 51 50
3 52 22 51
3 52 53 22
3 54 53 52
3 54 186 188
3 188 187 53
3 186 187 188
3 190 189 14
3 55 56 1
3 57 56 55
3 57 7 56
3 24 57 6
3 58 57 24
3 58 7 57
3 58 35 7
3 59 35 58
3 59 3 35
3 60 191 192
3 60 193 194
3 60 195 197
3 195 40 196
3 195 196 197
3 55 40 60
3 55 1 40
3 198 61 199
3 62 200 202
3 200 61 201
3 200 201 202
3 62 203 205
3 205 204 61
3 203 204 205
3 26 62 9
3 206 62 207
3 208 207 26
3 206 207 208
3 210 209 62
3 212 211 2
3 63 64 4
3 65 64 63
3 65 12 64
3 29 65 11
3 66 65 29
3 66 12 65
3 66 48 12
3 67 48 66
3 67 5 48
3 67 68 5
3 69 68 67
3 69 14 68
3 31 69 13
3 70 69 31
3 70 14 69
3 70 213 215
3 215 214 14
3 213 214 215
3 217 216 70
3 71 72 0
3 73 72 71
3 73 16 72
3 33 73 15
3 74 73 33
3 74 16 73
3 74 44 16
3 75 44 74
3 75 2 44
3 56 34 1
3 76 34 56
3 76 17 34
3 36 76 7
3 77 76 36
3 77 17 76
3 77 75 17
3 78 75 77
3 78 2 75
3 78 218 220
3 220 219 2
3 218 219 220
3 79 221 223
3 223 222 78
3 221 222 223
3 79 224 225
3 38 79 18
3 80 79 38
3 80 226 228
3 228 227 79
3 226 227 228
3 80 229 230
3 232 231 80
3 233 46 234
3 233 234 235
3 81 236 238
3 236 46 237
3 236 237 238
3 81 4 46
3 41 239 240
3 82 241 243
3 243 242 41
3 241 242 243
3 82 244 245
3 82 246 248
3 246 81 247
3 246 247 248
3 83 81 82
3 83 4 81
3 83 63 4
3 84 63 83
3 84 11 63
3 43 84 20
3 85 84 43
3 85 11 84
3 85 28 11
3 71 28 85
3 71 0 28
3 86 249 250
3 253 252 86
3 251 252 253
3 61 254 255
3 257 256 61
3 72 27 0
3 87 27 72
3 87 10 27
3 45 87 16
3 258 87 259
3 260 259 45
3 258 259 260
3 261 10 262
3 263 262 87
3 261 262 263
3 265 264 10
3 267 266 2
3 64 47 4
3 88 47 64
3 88 268 270
3 270 269 47
3 268 269 270
3 49 88 12
3 89 88 49
3 89 271 273
3 273 272 88
3 271 272 273
3 89 274 275
3 278 277 89
3 276 277 278
3 51 279 281
3 281 280 21
3 279 280 281
3 283 282 51
3 90 284 285
3 90 286 287
3 90 288 290
3 288 86 289
3 288 289 290
3 91 86 90
3 91 291 293
3 293 292 86
3 291 292 293
3 53 91 22
3 294 91 295
3 296 295 53
3 294 295 296
3 298 297 91
3 68 54 5
3 299 54 300
3 301 300 68
3 299 300 301
3 303 302 54
3 305 304 14
3 306 8 307
3 308 8 309
3 310 59 311
3 312 311 8
3 310 311 312
3 92 313 315
3 313 59 314
3 313 314 315
3 92 3 59
3 316 92 317
3 93 318 320
3 318 92 319
3 318 319 320
3 93 3 92
3 93 39 3
3 94 39 93
3 94 19 39
3 321 94 322
3 95 323 325
3 323 94 324
3 323 324 325
3 95 19 94
3 95 326 328
3 328 327 19
3 326 327 328
3 330 329 95
