ply
format ascii 1.0
element vertex 450
property float x
property float y
property float z
element face 385
property list uchar int vertex_index
end_header
19.607821 -9.392749 -65.605782
25.885391 12.901059 -70.331955
22.898739 1.457074 -69.116684
8.444925 -5.943151 -64.610107
25.727671 -12.853556 -63.383682
33.300034 10.04835 -64.121323
30.48975 -1.073428 -65.342247
24.841261 29.23443 -63.631645
18.293835 18.186838 -73.109123
21.403652 13.221372 -72.132568
20.324045 7.077155 -71.174805
24.37088 7.073595 -70.170547
28.288628 -7.03097 -64.677353
26.940033 18.080448 -69.445061
5.750049 -9.19916 -61.632618
16.96113 -11.658252 -64.498337
22.292202 -10.866738 -64.822174
29.768728 12.012524 -67.697067
32.067852 4.689155 -65.258591
28.552561 6.129224 -68.059029
26.763741 0.452781 -67.652771
24.713245 -5.416555 -66.441727
24.217447 15.891437 -71.25914
22.116257 16.039993 -72.122536
23.643719 13.232411 -71.392044
22.943487 10.353755 -71.266449
25.108635 10.102015 -70.419189
21.069075 31.384092 -64.652138
20.444698 29.082575 -68.550247
23.965036 25.253073 -69.149048
25.630735 23.021351 -69.017525
25.255157 20.827904 -70.074203
27.287302 20.44384 -68.595917
17.706259 15.273244 -73.035255
21.689037 4.353676 -70.209328
21.932076 -1.605262 -68.308235
9.734975 -8.125635 -64.279411
30.389215 14.340158 -66.98735
31.626343 11.014199 -65.988663
32.123539 -2.080468 -63.946957
32.986767 0.85626 -63.843174
31.275679 1.932207 -65.473106
30.365316 5.838687 -66.807907
29.580635 2.719475 -66.794373
27.612946 3.23903 -67.988892
28.747688 -0.374093 -66.522072
26.492752 -6.049039 -65.697884
25.306492 -9.116512 -64.932793
23.523939 -8.176571 -65.680847
23.929554 -11.928989 -64.143974
18.692289 20.966219 -72.863876
20.370443 18.505741 -72.659012
19.890051 15.681136 -72.733261
19.264727 12.785802 -72.525658
18.859592 9.892452 -72.038788
20.890469 10.090434 -71.75795
22.346956 7.179839 -70.796684
23.69669 4.158694 -69.688644
29.487879 -3.963211 -65.106041
22.206472 27.277985 -69.023392
21.82028 25.535286 -70.382034
24.667879 18.631979 -70.854576
26.321981 15.765289 -70.104721
18.846392 -7.597072 -66.305588
12.573281 -8.974834 -64.839996
13.922001 -11.152685 -64.230782
15.66815 -9.80503 -65.109627
18.449503 -10.364349 -65.169319
19.587528 -11.849392 -64.591675
22.513399 -14.430454 -63.355141
20.988541 -13.112321 -64.03154
20.825848 -9.853436 -65.370132
28.962889 17.553076 -67.833138
28.411558 15.165916 -68.65892
27.933945 12.350042 -69.080772
33.721233 3.792339 -63.505493
32.804859 7.304097 -64.745438
31.060152 8.423479 -66.498329
29.105152 9.121027 -68.089653
27.224487 9.583654 -69.312004
26.492895 6.721782 -69.242821
25.608347 3.969526 -69.017921
24.910152 1.056279 -68.475304
27.63847 -3.217019 -66.208427
25.775747 -2.512399 -67.115738
23.866495 -1.894935 -67.842773
22.869965 -4.853596 -67.02784
21.896641 -7.571875 -66.159561
19.884138 31.125906 -66.233944
19.987268 31.601821 -65.26374
20.965944 30.908177 -65.622342
20.653756 29.757418 -67.571396
19.565729 29.847634 -68.173141
19.774787 30.522478 -67.19429
26.611551 22.774721 -68.213325
25.843172 23.956122 -68.274155
27.439834 21.485965 -68.002522
26.459018 21.732596 -68.806721
26.611551 22.774721 -68.213325
16.622128 14.970522 -73.037022
17.453623 13.782366 -72.842998
21.941283 1.435523 -69.27586
21.336433 2.883825 -69.822182
22.293888 2.905375 -69.663006
22.415408 -0.074094 -68.712459
21.457952 -0.095645 -68.871635
21.941283 1.435523 -69.27586
7.748359 -6.854913 -63.84876
7.172301 -5.917531 -63.91255
7.868867 -5.005769 -64.673896
8.32647 -7.957962 -63.71773
7.629905 -8.869724 -62.956383
7.748359 -6.854913 -63.84876
9.08995 -7.034393 -64.444759
8.971495 -9.049204 -63.552381
8.32647 -7.957962 -63.71773
32.680004 11.823846 -64.687588
33.490765 11.292243 -63.680806
32.463189 10.531274 -65.054993
31.843159 12.30677 -65.621258
32.680004 11.823846 -64.687588
25.517081 -10.985034 -64.158237
26.21146 -9.502415 -64.518681
26.422049 -11.370937 -63.744125
23.965052 30.004492 -63.316979
24.885831 29.571416 -62.445492
23.870102 29.595744 -64.426265
23.965052 30.004492 -63.316979
24.715301 28.764634 -64.671486
23.870102 29.595744 -64.426265
21.456457 18.64074 -72.273411
20.651208 19.747906 -72.447373
21.737222 19.882905 -72.061771
23.258172 27.095872 -68.318089
22.343973 28.033269 -68.197307
22.717489 24.373129 -70.382683
22.892658 25.394179 -69.765541
23.789867 24.232022 -69.766189
21.632829 24.497011 -70.908562
22.717489 24.373129 -70.382683
17.443797 19.256152 -73.158657
17.643023 20.645843 -73.036034
18.493062 19.576529 -72.9865
19.251224 6.971964 -71.256744
18.518997 8.379612 -71.688736
19.591819 8.484803 -71.606797
5.249605 -8.231355 -61.595447
5.347674 -6.468993 -62.365864
5.848117 -7.436798 -62.403034
5.088264 -10.115502 -60.737501
5.249605 -8.231355 -61.595447
5.52979 -11.233211 -60.686199
5.088264 -10.115502 -60.737501
13.429119 -8.25111 -65.336292
12.777052 -7.063076 -65.693931
14.103479 -9.340035 -65.031685
13.247641 -10.063759 -64.535389
13.429119 -8.25111 -65.336292
14.976554 -8.666208 -65.471108
14.795075 -10.478858 -64.670205
14.103479 -9.340035 -65.031685
18.298882 -6.377129 -66.76273
18.069615 -8.042959 -66.078434
17.545968 -12.590846 -64.162897
16.727715 -13.37949 -63.749302
17.705317 -11.011301 -64.833828
18.290154 -11.943894 -64.498388
17.545968 -12.590846 -64.162897
22.490979 -16.21856 -62.628264
23.362737 -14.946742 -63.016316
23.340317 -16.734848 -62.289438
20.241784 -14.219065 -63.586344
20.965091 -14.908147 -63.293091
19.541277 -13.587601 -63.866411
20.288035 -12.480856 -64.311608
20.241784 -14.219065 -63.586344
29.855742 17.095239 -67.001251
29.128104 18.64184 -67.33297
25.716121 28.808077 -62.663505
24.885831 29.571416 -62.445492
25.726928 28.355552 -63.727407
25.716121 28.808077 -62.663505
23.166852 15.965715 -71.690838
22.329364 17.407866 -72.005173
23.379959 17.333588 -71.573475
20.166668 32.016042 -64.204197
21.170513 31.726101 -63.52821
19.084862 32.233771 -64.815799
20.166668 32.016042 -64.204197
19.987268 31.601821 -65.26374
19.33837 29.133409 -69.018375
18.459401 29.898469 -68.64127
19.565729 29.847634 -68.173141
20.223478 28.320142 -69.304794
19.33837 29.133409 -69.018375
25.010323 25.071984 -68.339916
24.137454 26.083416 -68.380916
24.797885 24.137212 -69.083286
25.010323 25.071984 -68.339916
25.843172 23.956122 -68.274155
24.622716 23.116162 -69.700428
23.789867 24.232022 -69.766189
24.797885 24.137212 -69.083286
25.442946 21.924627 -69.545864
24.434927 22.019438 -70.228767
24.622716 23.116162 -69.700428
16.89286 16.46905 -73.162628
17.186647 17.925847 -73.199562
18.000047 16.730041 -73.072189
16.89286 16.46905 -73.162628
16.622128 14.970522 -73.037022
20.700762 4.218228 -70.311813
20.018267 5.579968 -70.794552
21.006541 5.715416 -70.692067
20.700762 4.218228 -70.311813
21.336433 2.883825 -69.822182
21.032832 -1.617312 -68.40414
21.457952 -0.095645 -68.871635
21.521458 -3.094534 -67.834846
21.032832 -1.617312 -68.40414
6.400921 -8.482917 -62.360016
5.848117 -7.436798 -62.403034
6.49899 -6.720555 -63.130432
6.834841 -9.697249 -62.178763
6.183968 -10.413491 -61.451364
6.400921 -8.482917 -62.360016
9.561478 -10.110805 -63.380863
8.971495 -9.049204 -63.552381
10.325806 -9.269337 -64.013492
10.152309 -11.254507 -63.114945
9.561478 -10.110805 -63.380863
16.091798 -12.446278 -64.046017
16.727715 -13.37949 -63.749302
31.224595 13.96975 -66.120602
30.568905 15.48878 -66.578358
31.007779 12.677179 -66.488007
31.224595 13.96975 -66.120602
31.843159 12.30677 -65.621258
32.555153 -0.612104 -63.895066
33.342875 -1.130638 -63.102798
32.91126 -2.599003 -63.15469
26.80459 -7.968678 -64.901226
27.39069 -6.540005 -65.187618
27.702528 -8.459644 -64.390961
25.899622 -7.582776 -65.315338
26.80459 -7.968678 -64.901226
26.21146 -9.502415 -64.518681
22.07896 31.079322 -63.827225
21.170513 31.726101 -63.52821
21.984009 30.670575 -64.936512
22.07896 31.079322 -63.827225
20.965944 30.908177 -65.622342
21.984009 30.670575 -64.936512
24.715301 28.764634 -64.671486
25.726928 28.355552 -63.727407
19.812131 20.978144 -72.549804
18.95561 22.138162 -72.566547
19.531366 19.73598 -72.761444
19.812131 20.978144 -72.549804
20.651208 19.747906 -72.447373
21.24335 17.272867 -72.390774
21.456457 18.64074 -72.273411
22.329364 17.407866 -72.005173
18.232857 12.538645 -72.5882
17.453623 13.782366 -72.842998
18.485493 14.029523 -72.780457
19.062159 11.339127 -72.282223
18.03029 11.09197 -72.344765
18.232857 12.538645 -72.5882
8.585006 -4.082488 -65.439685
7.868867 -5.005769 -64.673896
9.218136 -5.136928 -65.288361
8.585006 -4.082488 -65.439685
34.061596 9.42505 -63.097035
33.490765 11.292243 -63.680806
32.502561 -4.142259 -63.100932
32.91126 -2.599003 -63.15469
31.655124 -3.542975 -63.877581
32.502561 -4.142259 -63.100932
30.838229 -3.039455 -64.575226
31.306645 -1.576948 -64.644602
31.655124 -3.542975 -63.877581
30.337294 -4.484347 -64.457123
29.988815 -2.51832 -65.224144
30.838229 -3.039455 -64.575226
29.700997 -5.950785 -64.35646
30.337294 -4.484347 -64.457123
29.101372 -7.484664 -64.142117
28.888253 -5.49709 -64.891697
29.700997 -5.950785 -64.35646
28.478949 -9.053748 -63.877842
29.101372 -7.484664 -64.142117
27.702528 -8.459644 -64.390961
28.478949 -9.053748 -63.877842
26.504308 -13.298656 -62.984279
26.422049 -11.370937 -63.744125
21.463086 28.935564 -67.960735
20.653756 29.757418 -67.571396
21.325585 28.18028 -68.78682
21.463086 28.935564 -67.960735
22.343973 28.033269 -68.197307
21.104365 27.417847 -69.541367
20.223478 28.320142 -69.304794
21.325585 28.18028 -68.78682
23.085754 26.265529 -69.08622
23.258172 27.095872 -68.318089
24.137454 26.083416 -68.380916
20.911269 26.546498 -70.220687
21.104365 27.417847 -69.541367
22.013376 26.406636 -69.702713
20.74913 25.520793 -70.862614
20.911269 26.546498 -70.220687
20.74913 25.520793 -70.862614
21.632829 24.497011 -70.908562
24.15119 21.028177 -70.680927
24.434927 22.019438 -70.228767
23.857551 19.930215 -71.071113
24.15119 21.028177 -70.680927
24.961518 19.729942 -70.464389
23.605175 18.70386 -71.371193
22.794846 20.002095 -71.58773
23.857551 19.930215 -71.071113
24.442663 17.261708 -71.056858
23.379959 17.333588 -71.573475
23.605175 18.70386 -71.371193
17.818127 21.931271 -72.832947
18.081449 23.103214 -72.535618
18.95561 22.138162 -72.566547
17.818127 21.931271 -72.832947
17.643023 20.645843 -73.036034
16.336609 18.995161 -73.249096
17.443797 19.256152 -73.158657
17.186647 17.925847 -73.199562
17.739106 9.68225 -72.050537
18.03029 11.09197 -72.344765
17.739106 9.68225 -72.050537
18.518997 8.379612 -71.688736
19.251224 6.971964 -71.256744
20.018267 5.579968 -70.794552
19.15887 -6.144201 -66.863499
18.298882 -6.377129 -66.76273
19.616121 -7.504174 -66.331173
19.15887 -6.144201 -66.863499
19.996836 -8.402012 -65.98127
19.227107 -8.49491 -65.955685
19.616121 -7.504174 -66.331173
5.52979 -11.233211 -60.686199
6.183968 -10.413491 -61.451364
9.863162 -6.228171 -65.123013
9.08995 -7.034393 -64.444759
9.218136 -5.136928 -65.288361
10.537989 -7.395764 -64.872654
9.863162 -6.228171 -65.123013
11.128819 -8.539466 -64.606735
10.325806 -9.269337 -64.013492
10.537989 -7.395764 -64.872654
11.957141 -7.820363 -65.152946
12.777052 -7.063076 -65.693931
11.744958 -9.693936 -64.293785
11.128819 -8.539466 -64.606735
11.957141 -7.820363 -65.152946
12.3489 -10.849335 -63.989765
11.520578 -11.568438 -63.443554
11.744958 -9.693936 -64.293785
13.02326 -11.938261 -63.685158
12.3489 -10.849335 -63.989765
13.247641 -10.063759 -64.535389
13.683351 -13.038192 -63.388634
13.02326 -11.938261 -63.685158
14.572234 -12.193494 -63.912239
13.683351 -13.038192 -63.388634
15.445308 -11.519666 -64.351662
14.572234 -12.193494 -63.912239
14.795075 -10.478858 -64.670205
16.31464 -10.731641 -64.803982
16.091798 -12.446278 -64.046017
15.445308 -11.519666 -64.351662
15.839346 -8.050631 -65.861061
14.976554 -8.666208 -65.471108
16.480494 -9.146938 -65.480454
15.839346 -8.050631 -65.861061
17.126984 -10.073549 -65.174809
16.31464 -10.731641 -64.803982
16.480494 -9.146938 -65.480454
17.87117 -9.426597 -65.5103
17.705317 -11.011301 -64.833828
17.126984 -10.073549 -65.174809
18.647948 -8.980711 -65.737454
17.87117 -9.426597 -65.5103
18.069615 -8.042959 -66.078434
18.859167 -12.686415 -64.209566
19.541277 -13.587601 -63.866411
19.018515 -11.10687 -64.880497
18.859167 -12.686415 -64.209566
18.290154 -11.943894 -64.498388
25.755474 -14.739293 -62.629265
26.504308 -13.298656 -62.984279
24.969873 -14.158293 -63.030586
25.755474 -14.739293 -62.629265
24.070814 -13.696009 -63.410732
24.828612 -12.391272 -63.763828
24.969873 -14.158293 -63.030586
23.221477 -13.179721 -63.749558
24.070814 -13.696009 -63.410732
23.362737 -14.946742 -63.016316
21.72752 -15.567213 -62.954892
22.490979 -16.21856 -62.628264
21.75097 -13.771387 -63.693341
21.72752 -15.567213 -62.954892
20.965091 -14.908147 -63.293091
28.290311 20.087222 -67.71436
27.439834 21.485965 -68.002522
28.125096 18.998458 -68.214528
28.290311 20.087222 -67.71436
29.128104 18.64184 -67.33297
29.676052 15.946617 -67.410244
29.855742 17.095239 -67.001251
30.568905 15.48878 -66.578358
33.797945 8.281146 -63.537365
34.061596 9.42505 -63.097035
34.559507 7.657846 -62.513076
33.760649 0.372997 -62.966786
33.342875 -1.130638 -63.102798
34.127882 1.841036 -62.797945
33.760649 0.372997 -62.966786
33.354 2.324299 -63.674334
34.442694 3.204309 -62.567965
34.127882 1.841036 -62.797945
34.008544 5.153141 -63.22945
34.442694 3.204309 -62.567965
33.550358 6.909019 -63.849422
34.008544 5.153141 -63.22945
33.263046 5.548218 -64.125465
33.052447 8.676223 -64.43338
33.797945 8.281146 -63.537365
33.550358 6.909019 -63.849422
21.990403 -4.718701 -67.194649
21.521458 -3.094534 -67.834846
22.401021 -3.229429 -67.668037
21.50374 -6.077841 -66.760509
21.990403 -4.718701 -67.194649
22.383303 -6.212735 -66.5937
21.141246 -7.491575 -66.25816
21.50374 -6.077841 -66.760509
20.605849 -8.632355 -65.863445
21.141246 -7.491575 -66.25816
21.361244 -8.712656 -65.764847
20.216835 -9.623093 -65.487957
19.996836 -8.402012 -65.98127
20.605849 -8.632355 -65.863445
3 1 24 22
3 1 26 24
3 90 89 27
3 88 89 90
3 91 28 92
3 91 92 93
3 94 30 95
3 96 32 97
3 98 97 30
3 96 97 98
3 100 99 33
3 2 101 103
3 103 102 34
3 101 102 103
3 2 104 106
3 104 35 105
3 104 105 106
3 3 107 109
3 107 108 109
3 3 110 112
3 110 111 112
3 3 113 115
3 113 36 114
3 113 114 115
3 5 116 117
3 5 118 120
3 118 38 119
3 118 119 120
3 6 41 39
3 6 43 41
3 6 45 43
3 4 121 123
3 121 47 122
3 121 122 123
3 4 49 47
3 7 124 125
3 7 126 127
3 7 128 129
3 130 51 131
3 130 131 132
3 9 52 23
3 9 53 52
3 9 55 53
3 11 56 25
3 11 57 56
3 133 59 134
3 135 60 136
3 137 136 29
3 135 136 137
3 139 138 60
3 13 61 31
3 13 62 61
3 8 140 142
3 142 141 50
3 140 141 142
3 10 143 145
3 145 144 54
3 143 144 145
3 14 146 148
3 146 147 148
3 14 149 150
3 14 151 152
3 153 64 154
3 155 65 156
3 157 156 64
3 155 156 157
3 158 66 159
3 160 159 65
3 158 159 160
3 161 63 162
3 15 163 164
3 15 165 167
3 165 67 166
3 165 166 167
3 168 69 169
3 168 169 170
3 171 70 172
3 173 68 174
3 175 174 70
3 173 174 175
3 176 72 177
3 17 73 37
3 17 74 73
3 18 75 40
3 18 76 75
3 18 77 76
3 19 78 42
3 19 79 78
3 19 80 79
3 20 81 44
3 20 82 81
3 12 83 58
3 21 84 46
3 21 85 84
3 21 86 85
3 16 87 48
3 16 71 87
3 178 7 179
3 181 180 7
3 22 182 184
3 182 23 183
3 182 183 184
3 24 23 22
3 24 9 23
3 24 25 9
3 26 25 24
3 26 11 25
3 27 185 186
3 189 188 27
3 187 188 189
3 28 190 192
3 190 191 192
3 28 193 194
3 195 29 196
3 30 197 199
3 197 29 198
3 197 198 199
3 30 200 202
3 202 201 29
3 200 201 202
3 30 203 205
3 203 31 204
3 203 204 205
3 32 31 30
3 32 13 31
3 33 206 208
3 208 207 8
3 206 207 208
3 210 209 33
3 34 211 213
3 213 212 10
3 211 212 213
3 215 214 34
3 35 216 217
3 35 218 219
3 220 14 221
3 220 221 222
3 225 224 14
3 223 224 225
3 36 226 227
3 36 228 230
3 228 229 230
3 231 15 232
3 233 37 234
3 38 235 237
3 235 37 236
3 235 236 237
3 38 17 37
3 39 238 240
3 238 40 239
3 238 239 240
3 41 40 39
3 41 18 40
3 41 42 18
3 43 42 41
3 43 19 42
3 43 44 19
3 45 44 43
3 45 20 44
3 241 46 242
3 243 242 12
3 241 242 243
3 47 244 246
3 244 46 245
3 244 245 246
3 47 21 46
3 47 48 21
3 49 48 47
3 49 16 48
3 247 27 248
3 249 27 250
3 252 251 27
3 254 253 7
3 255 50 256
3 51 257 259
3 257 50 258
3 257 258 259
3 51 8 50
3 23 260 262
3 260 51 261
3 260 261 262
3 52 51 23
3 52 8 51
3 52 33 8
3 53 33 52
3 53 263 265
3 265 264 33
3 263 264 265
3 53 266 268
3 266 54 267
3 266 267 268
3 55 54 53
3 55 10 54
3 25 55 9
3 56 55 25
3 56 10 55
3 56 34 10
3 57 34 56
3 57 2 34
3 269 3 270
3 272 271 3
3 273 5 274
3 275 39 276
3 277 39 278
3 279 6 280
3 281 280 39
3 279 280 281
3 282 58 283
3 284 283 6
3 282 283 284
3 285 58 286
3 287 12 288
3 289 288 58
3 287 288 289
3 290 12 291
3 293 292 12
3 294 4 295
3 296 28 297
3 59 298 300
3 298 28 299
3 298 299 300
3 59 301 303
3 303 302 28
3 301 302 303
3 29 304 306
3 304 59 305
3 304 305 306
3 60 59 29
3 60 307 309
3 309 308 59
3 307 308 309
3 60 310 311
3 313 312 60
3 31 314 315
3 61 316 318
3 318 317 31
3 316 317 318
3 61 319 321
3 319 320 321
3 61 322 324
3 322 22 323
3 322 323 324
3 62 22 61
3 62 1 22
3 50 325 327
3 325 326 327
3 329 328 50
3 332 331 8
3 330 331 332
3 54 333 334
3 336 335 54
3 338 337 10
3 339 63 340
3 341 63 342
3 343 0 344
3 345 344 63
3 343 344 345
3 347 346 14
3 348 36 349
3 350 349 3
3 348 349 350
3 351 36 352
3 355 354 36
3 353 354 355
3 64 356 357
3 64 358 360
3 358 359 360
3 64 361 363
3 361 362 363
3 65 364 366
3 366 365 64
3 364 365 366
3 65 367 368
3 65 369 370
3 66 371 373
3 373 372 65
3 371 372 373
3 66 374 376
3 374 15 375
3 374 375 376
3 377 66 378
3 379 66 380
3 381 15 382
3 383 382 66
3 381 382 383
3 384 67 385
3 386 385 15
3 384 385 386
3 63 387 389
3 387 67 388
3 387 388 389
3 63 0 67
3 390 68 391
3 67 392 394
3 392 68 393
3 392 393 394
3 67 0 68
3 395 4 396
3 397 4 398
3 399 49 400
3 401 400 4
3 399 400 401
3 69 402 404
3 402 49 403
3 402 403 404
3 69 16 49
3 405 69 406
3 70 407 409
3 407 69 408
3 407 408 409
3 70 16 69
3 70 71 16
3 68 71 70
3 68 0 71
3 410 32 411
3 72 412 414
3 412 32 413
3 412 413 414
3 72 13 32
3 37 415 417
3 415 72 416
3 415 416 417
3 73 72 37
3 73 13 72
3 73 62 13
3 74 62 73
3 74 1 62
3 418 5 419
3 418 419 420
3 40 421 422
3 75 423 425
3 425 424 40
3 423 424 425
3 75 426 427
3 75 428 429
3 76 430 432
3 432 431 75
3 430 431 432
3 76 433 435
3 433 5 434
3 433 434 435
3 76 38 5
3 77 38 76
3 77 17 38
3 42 77 18
3 78 77 42
3 78 17 77
3 78 74 17
3 79 74 78
3 79 1 74
3 79 26 1
3 80 26 79
3 80 11 26
3 44 80 19
3 81 80 44
3 81 11 80
3 81 57 11
3 82 57 81
3 82 2 57
3 58 45 6
3 83 45 58
3 83 20 45
3 46 83 12
3 84 83 46
3 84 20 83
3 84 82 20
3 85 82 84
3 85 2 82
3 85 35 2
3 86 35 85
3 86 436 438
3 438 437 35
3 436 437 438
3 48 86 21
3 87 86 48
3 87 439 441
3 441 440 86
3 439 440 441
3 87 442 443
3 71 444 446
3 446 445 87
3 444 445 446
3 71 447 449
3 447 0 448
3 447 448 449
