ply
format ascii 1.0
element vertex 195
property float x
property float y
property float z
element face 180
property list uchar int vertex_index
end_header
-12.497372 55.828548 30.364466
-14.665742 43.935627 36.078884
-7.790776 50.973724 38.508099
-8.669576 44.878292 41.224606
-13.578707 49.660172 33.608532
-14.596293 57.398819 25.856632
-11.562975 61.843426 26.707647
-12.3351 41.262295 40.054142
-11.300931 47.370781 37.59655
-10.263702 53.53162 34.668552
-9.349186 59.78133 31.124268
-6.718515 57.508762 35.275307
-13.049191 52.861027 31.938391
-14.550749 50.805798 31.443377
-14.070861 53.823551 29.748749
-14.986986 54.509731 27.702885
-13.559896 56.759003 28.08864
-13.125687 59.6394 26.30545
-12.032877 58.844448 28.563545
-8.254289 47.978268 39.866787
-9.906941 46.265175 39.488983
-9.611558 49.368752 37.948372
-10.787144 50.555126 36.119289
-8.96472 52.609978 36.518101
-8.485525 55.67049 34.945385
-7.200222 54.300827 36.953079
-15.116285 40.78178 37.411957
-7.539859 61.91748 31.387581
-8.899623 62.727253 29.317951
-7.117313 64.937714 29.438747
-6.840066 46.412754 41.747162
-6.364498 49.627583 40.353756
-5.844195 52.850349 38.886089
-4.392292 51.63306 40.608929
-14.12292 46.784561 34.905136
-15.263539 47.710091 32.746677
-10.466995 43.006302 40.779888
-11.762097 44.254425 38.967781
-13.025334 45.443451 37.01498
-12.459031 48.532131 35.687256
-11.981493 51.622692 34.139011
-11.415777 54.731968 32.558109
-10.894468 57.876099 30.80143
-9.764556 56.631588 33.007591
-8.079884 58.645527 33.264973
-10.507592 60.870888 28.908312
-10.048685 63.775871 27.065456
-15.438513 42.884718 35.739454
-15.663785 41.307794 36.405991
-14.891013 42.358703 36.745421
-6.4563 64.452997 30.452493
-7.328586 63.427597 30.413164
-6.667573 62.942881 31.42691
-5.880211 47.392239 41.884991
-6.074185 45.666404 42.635475
-5.642427 48.999653 41.188288
-6.602282 48.020168 41.050459
-5.880211 47.392239 41.884991
-4.656324 50.002392 41.315875
-5.378395 50.630322 40.481342
-5.642427 48.999653 41.188288
-15.340743 49.843333 30.973626
-15.06049 51.233263 30.293378
-15.265024 56.289168 25.624991
-15.460371 54.844623 26.548117
-14.791639 55.954275 26.779758
-15.006871 57.801619 24.749164
-15.265024 56.289168 25.624991
-14.338513 58.929006 24.939622
-15.006871 57.801619 24.749164
-12.072239 62.167496 25.678683
-12.853594 61.065483 25.477584
-12.344331 60.741413 26.506549
-11.334109 63.35354 25.706026
-12.072239 62.167496 25.678683
-13.148055 40.357302 39.728714
-12.556517 39.797055 40.582468
-12.949089 41.86307 39.122013
-13.148055 40.357302 39.728714
-9.568285 43.942297 41.002247
-9.804144 42.365972 41.623528
-8.905434 43.301968 41.845887
-6.530547 59.088881 34.346697
-7.211232 59.657263 33.34153
-7.399199 58.077145 34.27014
-5.621319 54.554535 38.014204
-4.938852 53.889963 38.918905
-9.238209 64.769253 27.197823
-9.474154 63.251562 28.191704
-8.663678 64.244944 28.32407
-9.801369 65.285686 26.060499
-9.238209 64.769253 27.197823
-14.820546 52.74214 29.446064
-15.06049 51.233263 30.293378
-14.310805 52.314675 30.596063
-14.528924 54.166641 28.725817
-15.278609 53.085229 28.423132
-14.820546 52.74214 29.446064
-11.705073 40.605398 40.935396
-12.556517 39.797055 40.582468
-15.91313 39.948299 36.883419
-15.378144 39.2751 37.918368
-15.91313 39.948299 36.883419
-15.663785 41.307794 36.405991
-7.772524 65.350174 28.384468
-8.663678 64.244944 28.32407
-8.008468 63.832483 29.378349
-7.952379 44.119203 42.122187
-8.905434 43.301968 41.845887
-7.037624 44.886435 42.383465
-6.074185 45.666404 42.635475
-7.754821 45.645523 41.485884
-7.952379 44.119203 42.122187
-7.037624 44.886435 42.383465
-4.212901 53.281318 39.780325
-4.938852 53.889963 38.918905
-5.118244 52.241704 39.747509
-3.727725 50.885387 41.451589
-4.656324 50.002392 41.315875
-3.440719 52.570362 40.717009
-3.727725 50.885387 41.451589
-4.212901 53.281318 39.780325
-3.440719 52.570362 40.717009
-14.961741 45.778109 34.481085
-15.233152 44.353641 35.067959
-14.394331 45.360094 35.49201
-15.532051 46.240873 33.401855
-14.961741 45.778109 34.481085
-14.69323 47.247326 33.825907
-15.996055 46.823475 32.28367
-15.532051 46.240873 33.401855
-15.697138 48.295479 31.625276
-14.907144 49.257945 32.095027
-15.340743 49.843333 30.973626
-15.996055 46.823475 32.28367
-15.697138 48.295479 31.625276
-15.718424 53.47679 27.283394
-15.278609 53.085229 28.423132
-15.718424 53.47679 27.283394
-15.460371 54.844623 26.548117
-13.60321 60.049297 25.164031
-14.338513 58.929006 24.939622
-13.86099 58.519109 26.081041
-13.60321 60.049297 25.164031
-12.853594 61.065483 25.477584
-14.538647 40.117044 38.407622
-15.378144 39.2751 37.918368
-14.339681 41.622812 37.800921
-14.538647 40.117044 38.407622
-14.11441 43.199736 37.134384
-14.891013 42.358703 36.745421
-14.339681 41.622812 37.800921
-10.771021 41.477402 41.298269
-9.804144 42.365972 41.623528
-11.401048 42.134298 40.417015
-11.705073 40.605398 40.935396
-10.771021 41.477402 41.298269
-12.662587 43.359134 38.578833
-12.949089 41.86307 39.122013
-12.048599 42.75836 39.510962
-13.294206 43.953648 37.602432
-12.662587 43.359134 38.578833
-12.393716 44.848938 37.991381
-13.845538 44.689539 36.546932
-14.11441 43.199736 37.134384
-13.294206 43.953648 37.602432
-6.941219 61.293239 32.402834
-7.809871 60.281503 32.326277
-7.211232 59.657263 33.34153
-6.667573 62.942881 31.42691
-6.941219 61.293239 32.402834
-6.299333 55.279773 37.047699
-6.522208 53.575588 37.919584
-5.621319 54.554535 38.014204
-6.058479 56.883741 36.208813
-6.959369 55.904794 36.114193
-6.299333 55.279773 37.047699
-5.829311 58.457613 35.362524
-6.058479 56.883741 36.208813
-6.530547 59.088881 34.346697
-5.829311 58.457613 35.362524
-16.005924 43.302733 34.728529
-15.438513 42.884718 35.739454
-15.233152 44.353641 35.067959
-10.576964 64.319763 25.884931
-11.334109 63.35354 25.706026
-10.80583 62.809649 26.886552
-10.576964 64.319763 25.884931
-9.801369 65.285686 26.060499
-6.241934 66.019009 29.40652
-6.4563 64.452997 30.452493
-6.891008 66.405144 28.441467
-6.241934 66.019009 29.40652
-7.772524 65.350174 28.384468
-6.891008 66.405144 28.441467
3 0 14 12
3 0 16 14
3 0 18 16
3 2 21 19
3 2 23 21
3 2 25 23
3 1 47 49
3 49 48 26
3 47 48 49
3 50 29 51
3 52 51 27
3 50 51 52
3 53 30 54
3 55 31 56
3 57 56 30
3 55 56 57
3 58 33 59
3 60 59 31
3 58 59 60
3 4 35 34
3 62 61 13
3 5 63 65
3 65 64 15
3 63 64 65
3 5 66 67
3 5 68 69
3 6 70 72
3 72 71 17
3 70 71 72
3 6 73 74
3 7 75 76
3 7 77 78
3 3 79 81
3 79 36 80
3 79 80 81
3 8 37 20
3 8 38 37
3 8 39 38
3 9 40 22
3 9 41 40
3 9 43 41
3 11 44 24
3 11 82 84
3 84 83 44
3 82 83 84
3 86 85 32
3 10 45 42
3 87 46 88
3 89 88 28
3 87 88 89
3 91 90 46
3 12 13 4
3 14 13 12
3 14 92 94
3 94 93 13
3 92 93 94
3 14 95 97
3 95 15 96
3 95 96 97
3 16 15 14
3 16 5 15
3 16 17 5
3 18 17 16
3 18 6 17
3 98 7 99
3 19 20 3
3 21 20 19
3 21 8 20
3 21 22 8
3 23 22 21
3 23 9 22
3 23 24 9
3 25 24 23
3 25 11 24
3 26 100 101
3 103 102 26
3 27 28 10
3 29 28 27
3 29 104 106
3 106 105 28
3 104 105 106
3 107 3 108
3 30 109 110
3 30 111 113
3 111 3 112
3 111 112 113
3 30 19 3
3 31 19 30
3 31 2 19
3 31 32 2
3 33 32 31
3 33 114 116
3 116 115 32
3 114 115 116
3 117 33 118
3 119 33 120
3 122 121 33
3 34 123 125
3 125 124 1
3 123 124 125
3 35 126 128
3 128 127 34
3 126 127 128
3 35 129 130
3 13 35 4
3 131 35 132
3 133 132 13
3 131 132 133
3 135 134 35
3 15 136 137
3 139 138 15
3 17 140 142
3 142 141 5
3 140 141 142
3 144 143 17
3 145 26 146
3 147 26 148
3 149 1 150
3 151 150 26
3 149 150 151
3 36 152 153
3 36 154 156
3 154 7 155
3 154 155 156
3 20 36 3
3 37 36 20
3 37 7 36
3 37 157 159
3 159 158 7
3 157 158 159
3 38 160 162
3 162 161 37
3 160 161 162
3 38 163 165
3 163 1 164
3 163 164 165
3 38 34 1
3 39 34 38
3 39 4 34
3 22 39 8
3 40 39 22
3 40 4 39
3 40 12 4
3 41 12 40
3 41 0 12
3 41 42 0
3 43 42 41
3 43 10 42
3 24 43 9
3 44 43 24
3 44 10 43
3 44 27 10
3 166 27 167
3 168 167 44
3 166 167 168
3 170 169 27
3 32 25 2
3 171 25 172
3 173 172 32
3 171 172 173
3 174 11 175
3 176 175 25
3 174 175 176
3 177 11 178
3 180 179 11
3 183 182 1
3 181 182 183
3 42 18 0
3 45 18 42
3 45 6 18
3 28 45 10
3 46 45 28
3 46 6 45
3 46 184 186
3 186 185 6
3 184 185 186
3 188 187 46
3 189 29 190
3 191 29 192
3 194 193 29
