ply
format ascii 1.0
element vertex 202
property float x
property float y
property float z
element face 171
property list uchar int vertex_index
end_header
7.936269 -53.129108 58.811436
11.325616 -55.194225 60.070999
10.115498 -50.51738 62.524101
3.196808 -46.210274 58.6404
0.194792 -44.394115 55.920452
-2.757479 -42.355247 52.930183
6.588973 -48.453671 60.881695
4.639749 -51.139187 56.734016
-4.133321 -37.649883 54.101578
11.154855 -48.973431 64.101776
1.003449 -42.938072 58.005428
-0.481119 -41.971989 56.615173
-1.318513 -43.380169 54.415657
-1.96563 -41.018845 55.104843
9.61756 -54.240788 59.47921
10.261029 -56.52042 58.141308
7.602786 -46.962971 62.711555
5.937502 -46.05513 61.729847
2.37036 -47.713863 56.502949
3.870318 -48.629726 57.742992
3.101084 -50.193905 55.519745
12.406111 -53.759129 61.815922
10.680036 -52.881096 61.336876
8.993317 -51.901966 60.715485
4.26261 -44.901299 60.695873
1.647028 -45.273315 57.306168
0.90385 -46.864883 55.109165
-0.550291 -45.646183 53.891907
12.01999 -57.417652 58.75827
9.419018 -48.006496 63.530037
8.304234 -49.468136 61.788742
7.249779 -50.742352 59.950504
4.869884 -47.260258 59.878597
5.486351 -49.656712 58.884491
6.324593 -52.149757 57.898441
-3.381091 -39.915966 53.706497
-4.088665 -41.331226 51.544388
11.816755 -48.200737 64.838345
12.084532 -49.37249 64.340214
-0.796745 -40.759224 56.940261
-0.011056 -41.243107 57.684725
-1.539 -40.282652 56.185097
-1.223375 -41.495417 55.860008
-0.796745 -40.759224 56.940261
8.26556 -54.34522 58.115576
9.106205 -54.90106 58.449463
8.776915 -53.684948 59.145323
7.492809 -53.880142 57.705807
8.26556 -54.34522 58.115576
5.669106 -44.800295 62.154354
6.485254 -45.276762 62.637615
2.369287 -49.707981 54.902386
2.735722 -48.953884 56.011347
2.003925 -48.46796 55.393988
1.985099 -50.410965 53.764364
2.716896 -50.896889 54.381723
2.369287 -49.707981 54.902386
12.987694 -53.006481 62.587475
13.258343 -54.148036 61.956562
10.397767 -51.699238 61.930488
11.280577 -52.184721 62.178646
10.998308 -51.002863 62.772258
-2.366967 -43.607378 52.606016
-1.647483 -44.119839 53.348753
-2.037996 -42.867708 53.67292
-3.029654 -43.093196 51.936084
-2.366967 -43.607378 52.606016
11.672803 -56.305938 59.414635
12.547656 -56.751585 59.626856
12.200468 -55.639871 60.28322
10.646083 -57.646316 57.456877
9.855816 -57.154469 57.1876
9.12144 -46.756834 63.976055
10.052255 -47.169664 64.369259
5.006882 -52.334297 56.167545
5.849304 -52.839582 56.749758
5.482171 -51.644472 57.316228
-3.705664 -36.93099 55.181044
-4.489974 -36.535013 54.294304
-3.390467 -38.154801 54.881281
-3.705664 -36.93099 55.181044
-3.757206 -38.782925 53.904038
-3.014353 -39.287842 54.68374
-3.390467 -38.154801 54.881281
-4.73569 -40.897492 50.802482
-4.452367 -40.209522 51.777068
-4.366507 -42.089878 50.519983
-4.73569 -40.897492 50.802482
11.517986 -50.230888 63.561096
12.084532 -49.37249 64.340214
10.635177 -49.745406 63.312939
10.998308 -51.002863 62.772258
11.517986 -50.230888 63.561096
0.731228 -41.726149 58.379852
1.486854 -42.186728 59.038366
0.261165 -42.45503 57.3103
0.731228 -41.726149 58.379852
-0.011056 -41.243107 57.684725
9.42794 -56.040876 57.780512
9.939294 -55.380604 58.810259
9.106205 -54.90106 58.449463
9.855816 -57.154469 57.1876
9.42794 -56.040876 57.780512
7.317896 -45.730683 63.128469
8.213324 -46.235072 63.566814
6.770144 -46.509051 62.220701
7.317896 -45.730683 63.128469
6.485254 -45.276762 62.637615
3.457712 -51.42147 54.944758
4.227044 -51.894112 55.551893
3.870417 -50.666546 56.12688
3.073523 -52.124454 53.806736
3.457712 -51.42147 54.944758
2.716896 -50.896889 54.381723
-4.854585 -37.217439 53.270525
-4.489974 -36.535013 54.294304
-4.474695 -38.368851 53.055662
-4.854585 -37.217439 53.270525
12.740716 -54.922324 61.155682
13.258343 -54.148036 61.956562
11.865863 -54.476677 60.943461
12.200468 -55.639871 60.28322
12.740716 -54.922324 61.155682
12.143614 -52.623738 62.418169
12.987694 -53.006481 62.587475
11.543073 -53.320113 61.576399
12.143614 -52.623738 62.418169
11.280577 -52.184721 62.178646
3.993281 -43.695054 61.073915
4.83166 -44.22338 61.637367
3.405257 -44.337103 60.058658
3.993281 -43.695054 61.073915
2.872356 -44.991591 59.030922
3.729709 -45.555786 59.668137
3.405257 -44.337103 60.058658
1.775677 -43.355489 58.713436
1.486854 -42.186728 59.038366
2.097466 -44.523111 58.363806
1.775677 -43.355489 58.713436
1.325238 -44.105694 57.655798
2.421918 -45.741794 57.973284
2.872356 -44.991591 59.030922
2.097466 -44.523111 58.363806
1.27067 -48.04347 54.697096
2.003925 -48.46796 55.393988
1.637105 -47.289373 55.806057
0.534242 -47.518352 54.041254
1.27067 -48.04347 54.697096
-0.192828 -46.909002 53.432625
0.534242 -47.518352 54.041254
0.17678 -46.255533 54.500536
-0.904483 -46.394512 52.751522
-0.192828 -46.909002 53.432625
-1.263373 -45.252846 53.086878
-0.934402 -44.513176 54.153782
-1.647483 -44.119839 53.348753
-0.904483 -46.394512 52.751522
-1.263373 -45.252846 53.086878
12.835905 -57.872869 58.891394
12.547656 -56.751585 59.626856
12.313966 -58.506394 58.007858
12.835905 -57.872869 58.891394
11.525563 -58.094932 57.765358
11.14051 -56.969036 58.449789
10.646083 -57.646316 57.456877
11.819539 -59.183674 57.014946
12.313966 -58.506394 58.007858
11.525563 -58.094932 57.765358
10.920174 -47.653132 64.655129
11.816755 -48.200737 64.838345
10.286936 -48.489964 63.815906
10.920174 -47.653132 64.655129
10.052255 -47.169664 64.369259
8.510902 -47.484734 63.120796
9.12144 -46.756834 63.976055
8.213324 -46.235072 63.566814
5.100056 -45.478214 61.21286
5.669106 -44.800295 62.154354
4.83166 -44.22338 61.637367
6.686972 -53.390467 57.249309
7.492809 -53.880142 57.705807
7.130431 -52.639432 58.354939
6.686972 -53.390467 57.249309
5.849304 -52.839582 56.749758
5.006882 -52.334297 56.167545
4.227044 -51.894112 55.551893
-2.306622 -39.839281 55.382914
-1.539 -40.282652 56.185097
-2.673361 -40.467405 54.40567
-2.306622 -39.839281 55.382914
-3.014353 -39.287842 54.68374
-4.098579 -39.501892 52.858122
-3.757206 -38.782925 53.904038
-4.474695 -38.368851 53.055662
-3.734878 -40.623596 52.625442
-4.098579 -39.501892 52.858122
-4.452367 -40.209522 51.777068
-3.695247 -42.581186 51.243187
-3.029654 -43.093196 51.936084
-3.423072 -41.843237 52.237285
-3.695247 -42.581186 51.243187
-4.366507 -42.089878 50.519983
3 37 9 38
3 39 11 40
3 41 13 42
3 43 42 11
3 41 42 43
3 0 44 46
3 46 45 14
3 44 45 46
3 0 47 48
3 49 17 50
3 51 20 52
3 53 52 18
3 51 52 53
3 56 55 20
3 54 55 56
3 57 21 58
3 2 59 61
3 59 22 60
3 59 60 61
3 2 23 22
3 4 25 10
3 4 26 25
3 4 27 26
3 5 62 64
3 64 63 12
3 62 63 64
3 5 65 66
3 1 67 69
3 67 28 68
3 67 68 69
3 71 70 15
3 72 29 73
3 6 30 16
3 6 31 30
3 3 32 24
3 7 33 19
3 7 34 33
3 7 74 76
3 76 75 34
3 74 75 76
3 8 77 78
3 8 79 80
3 8 81 83
3 81 35 82
3 81 82 83
3 84 36 85
3 87 86 36
3 9 88 89
3 9 90 92
3 90 2 91
3 90 91 92
3 93 10 94
3 11 95 97
3 95 10 96
3 95 96 97
3 11 4 10
3 11 12 4
3 13 12 11
3 13 5 12
3 14 15 1
3 98 15 99
3 100 99 14
3 98 99 100
3 102 101 15
3 103 16 104
3 17 105 107
3 105 16 106
3 105 106 107
3 17 6 16
3 18 19 3
3 20 19 18
3 20 7 19
3 20 108 110
3 110 109 7
3 108 109 110
3 113 112 20
3 111 112 113
3 114 8 115
3 117 116 8
3 21 118 119
3 21 120 122
3 120 1 121
3 120 121 122
3 123 21 124
3 22 125 127
3 125 21 126
3 125 126 127
3 22 1 21
3 22 14 1
3 23 14 22
3 23 0 14
3 128 24 129
3 130 24 131
3 132 3 133
3 134 133 24
3 132 133 134
3 10 135 136
3 25 137 139
3 139 138 10
3 137 138 139
3 25 140 142
3 140 3 141
3 140 141 142
3 25 18 3
3 26 18 25
3 26 143 145
3 145 144 18
3 143 144 145
3 26 146 147
3 27 148 150
3 150 149 26
3 148 149 150
3 27 151 152
3 12 27 4
3 153 27 154
3 155 154 12
3 153 154 155
3 157 156 27
3 28 158 159
3 28 160 161
3 15 28 1
3 162 28 163
3 164 163 15
3 162 163 164
3 167 166 28
3 165 166 167
3 168 9 169
3 29 170 172
3 170 9 171
3 170 171 172
3 29 2 9
3 16 173 175
3 173 29 174
3 173 174 175
3 30 29 16
3 30 2 29
3 30 23 2
3 31 23 30
3 31 0 23
3 24 176 178
3 176 17 177
3 176 177 178
3 32 17 24
3 32 6 17
3 19 32 3
3 33 32 19
3 33 6 32
3 33 31 6
3 34 31 33
3 34 0 31
3 34 179 181
3 181 180 0
3 179 180 181
3 183 182 34
3 185 184 7
3 186 13 187
3 35 188 190
3 188 13 189
3 188 189 190
3 35 5 13
3 191 35 192
3 193 192 8
3 191 192 193
3 36 194 196
3 194 35 195
3 194 195 196
3 36 5 35
3 36 197 199
3 199 198 5
3 197 198 199
3 201 200 36
