ply
format ascii 1.0
element vertex 303
property float x
property float y
property float z
element face 243
property list uchar int vertex_index
end_header
-33.532192 53.716431 17.899597
-26.8092 28.706676 62.751804
-32.471657 57.825024 20.05521
-31.931911 55.944073 24.644115
-32.734913 51.45232 22.900045
-30.853399 58.332737 35.218224
-30.534985 48.803738 43.921673
-30.930428 51.026707 38.860455
-31.235579 52.902145 33.734478
-30.027351 38.390343 51.436218
-29.878351 46.520771 48.80579
-25.069794 25.129332 65.169983
-31.552652 54.45821 28.947731
-31.867407 58.694351 23.155439
-32.19762 56.759335 22.341602
-30.667253 57.640324 37.846004
-30.754038 50.083042 41.319389
-30.706165 54.111916 39.629547
-30.901585 54.824692 37.017487
-33.140511 52.37257 20.456516
-33.278557 48.913948 21.958454
-33.730389 50.156349 19.382532
-34.428158 47.462101 18.328541
-29.691593 37.103001 53.492836
-31.198454 56.365646 31.89786
-31.387239 53.71064 31.294176
-31.332335 57.188751 29.527542
-31.499418 57.610695 27.252522
-32.94088 56.094173 18.898537
-32.031837 52.736549 26.082054
-32.403915 50.362328 25.264143
-32.29969 53.709064 23.78437
-32.636791 54.691875 21.321169
-30.57863 44.95282 45.267578
-30.788445 45.931103 42.86644
-31.119625 48.164509 37.88636
-31.271704 49.226429 35.383808
-31.093502 51.732876 36.368553
-31.053055 55.62241 34.462238
-29.540979 41.181644 52.452076
-29.949553 42.420338 50.228634
-30.302254 43.75507 47.755997
-26.011032 26.875502 64.056641
-25.422836 30.927248 63.037453
-31.431887 50.128475 32.964046
-31.79862 51.830822 28.39319
-31.735786 55.099113 26.769865
-31.663202 58.231056 25.157494
-31.96358 59.186924 22.151912
-31.836486 59.804125 22.570672
-30.531807 59.034399 38.06742
-30.553424 57.206528 39.100481
-30.572879 55.442324 39.992253
-30.591069 53.50627 40.966248
-30.553424 57.206528 39.100481
-30.686709 55.87612 38.737775
-30.572879 55.442324 39.992253
-33.743623 54.292996 16.611933
-33.876776 52.447066 17.350611
-33.876776 52.447066 17.350611
-33.975874 50.667024 18.092078
-33.631291 51.93639 18.641064
-27.366227 27.678652 62.420935
-27.069541 26.708638 63.167944
-29.482019 36.371268 54.539727
-29.772652 34.981901 53.947569
-31.234291 58.488147 29.824026
-31.265394 56.777198 30.712701
-31.167351 58.076595 31.009185
-31.310863 58.734368 28.599383
-31.234291 58.488147 29.824026
-32.603052 58.566498 18.848101
-32.837664 57.701072 18.269764
-32.706269 56.959598 19.476873
-30.827004 60.157088 34.089878
-30.92481 58.719651 33.942678
-30.94491 49.102711 39.61656
-30.856715 48.630878 40.846027
-30.842233 50.554874 40.089922
-31.025026 49.595608 38.373407
-31.039508 47.671612 39.129513
-30.94491 49.102711 39.61656
-30.92481 58.719651 33.942678
-31.024638 57.364487 33.564685
-30.953227 56.977574 34.840231
-32.801916 49.659616 23.613936
-32.636417 49.114621 24.795985
-32.569414 50.907324 24.082094
-33.364846 47.07886 22.587205
-33.606697 47.664989 21.355375
-34.797402 46.157358 17.73536
-34.683243 48.110974 16.980008
-30.214727 37.010345 50.747398
-30.098069 36.269239 51.821766
-30.191963 38.969923 50.224659
-30.214727 37.010345 50.747398
-29.217234 42.507412 52.879093
-29.305404 40.385063 53.533834
-29.913952 44.470555 49.517212
-29.686985 43.776633 50.708996
-29.651384 45.826849 49.997574
-30.057618 47.193979 47.585442
-30.26957 45.811129 47.060545
-30.090302 45.137921 48.280894
-25.821717 23.993814 65.064552
-25.339116 23.16645 65.655006
-25.540413 26.002417 64.613312
-26.292336 24.8669 64.507881
-25.821717 23.993814 65.064552
-24.622033 31.956336 63.008617
-24.95554 29.936894 63.599655
-25.192771 32.887191 62.454567
-24.622033 31.956336 63.008617
-31.578581 52.715986 29.804892
-31.495875 52.342202 30.978114
-31.469946 54.084425 30.120953
-31.675636 53.144516 28.670461
-31.701566 51.402293 29.527621
-31.578581 52.715986 29.804892
-31.555811 59.341627 25.401133
-31.58131 57.920876 26.205008
-31.473919 59.031447 26.448647
-31.647293 59.487894 24.358448
-31.555811 59.341627 25.401133
-32.376987 59.335884 19.513427
-32.265705 58.75226 20.601797
-32.128687 58.219416 21.744993
-32.032514 57.726843 22.748521
-31.96358 59.186924 22.151912
-32.265705 58.75226 20.601797
-32.334638 57.29218 21.198406
-32.128687 58.219416 21.744993
-30.646726 59.431139 36.7499
-30.7398 59.777345 35.43601
-30.760326 57.986531 36.532114
-30.646726 59.431139 36.7499
-30.531807 59.034399 38.06742
-30.615006 51.491833 41.811169
-30.644512 49.44339 42.620531
-30.505479 50.852181 43.11231
-30.730101 52.097479 40.474468
-30.615006 51.491833 41.811169
-30.591069 53.50627 40.966248
-33.832613 48.28619 20.067414
-33.606697 47.664989 21.355375
-33.504473 49.535148 20.670493
-34.079273 48.809225 18.855536
-34.181498 46.939066 19.540419
-33.832613 48.28619 20.067414
-34.324759 49.319901 17.565083
-34.079273 48.809225 18.855536
-33.975874 50.667024 18.092078
-34.683243 48.110974 16.980008
-34.324759 49.319901 17.565083
-29.93019 35.625568 52.850075
-29.772652 34.981901 53.947569
-29.859472 37.746672 52.464527
-30.098069 36.269239 51.821766
-29.93019 35.625568 52.850075
-29.617767 47.918827 49.142447
-29.651384 45.826849 49.997574
-29.835632 48.587778 48.006348
-29.617767 47.918827 49.142447
-24.567673 24.073759 65.677826
-25.339116 23.16645 65.655006
-31.394405 58.94534 27.461872
-31.415876 57.399723 28.390032
-31.310863 58.734368 28.599383
-31.473919 59.031447 26.448647
-31.394405 58.94534 27.461872
-33.104559 56.701417 17.718373
-33.400215 55.512546 17.218903
-33.236536 54.905302 18.399067
-33.104559 56.701417 17.718373
-32.837664 57.701072 18.269764
-32.603052 58.566498 18.848101
-32.376987 59.335884 19.513427
-32.217876 51.549438 25.673099
-32.257351 49.849576 26.435312
-32.071312 51.036686 26.844267
-27.189982 29.652261 61.954895
-26.582872 30.769241 62.212969
-30.827004 60.157088 34.089878
-30.7398 59.777345 35.43601
-30.690244 43.437371 44.737587
-30.59157 42.993958 45.895683
-30.795151 43.926512 43.537018
-30.690244 43.437371 44.737587
-30.683537 45.441962 44.067009
-30.881566 44.530781 42.303696
-30.795151 43.926512 43.537018
-30.873918 46.554909 41.619552
-30.771242 48.007072 42.092914
-30.856715 48.630878 40.846027
-30.881566 44.530781 42.303696
-30.873918 46.554909 41.619552
-31.122081 46.200182 38.658558
-31.039508 47.671612 39.129513
-31.197748 46.79662 37.483742
-31.122081 46.200182 38.658558
-31.195664 48.695469 36.635084
-31.273787 47.327579 36.232466
-31.197748 46.79662 37.483742
-31.097337 57.736105 32.282497
-31.125754 55.994028 33.180049
-31.024638 57.364487 33.564685
-31.167351 58.076595 31.009185
-31.097337 57.736105 32.282497
-33.743623 54.292996 16.611933
-33.400215 55.512546 17.218903
-32.458124 48.582512 25.94621
-32.257351 49.849576 26.435312
-32.458124 48.582512 25.94621
-32.636417 49.114621 24.795985
-33.073738 48.39043 23.143141
-32.801916 49.659616 23.613936
-33.006735 50.183134 22.429249
-33.073738 48.39043 23.143141
-33.364846 47.07886 22.587205
-34.52158 45.453819 19.080067
-34.274919 44.930785 20.291945
-34.181498 46.939066 19.540419
-34.52158 45.453819 19.080067
-34.797402 46.157358 17.73536
-27.366227 27.678652 62.420935
-27.189982 29.652261 61.954895
-29.38071 38.345742 54.054215
-29.482019 36.371268 54.539727
-29.616286 39.142322 52.972456
-29.38071 38.345742 54.054215
-29.305404 40.385063 53.533834
-29.482698 43.157286 51.820717
-29.217234 42.507412 52.879093
-29.745266 41.800991 51.340355
-29.482698 43.157286 51.820717
-29.686985 43.776633 50.708996
-30.153064 40.984921 49.620867
-30.191963 38.969923 50.224659
-29.988452 40.405341 50.832426
-30.329414 41.652287 48.384549
-30.153064 40.984921 49.620867
-30.125903 43.087704 48.992316
-30.453383 42.395083 47.139893
-30.329414 41.652287 48.384549
-30.440442 44.353945 46.511787
-30.59157 42.993958 45.895683
-30.453383 42.395083 47.139893
-30.407758 46.410004 45.816336
-30.440442 44.353945 46.511787
-30.26957 45.811129 47.060545
-30.385935 48.335463 45.143383
-30.556807 46.878279 44.594625
-30.407758 46.410004 45.816336
-30.057618 47.193979 47.585442
-29.835632 48.587778 48.006348
-30.351264 50.30727 44.374077
-30.385935 48.335463 45.143383
-30.505479 50.852181 43.11231
-30.351264 50.30727 44.374077
-26.670457 25.793051 63.820363
-26.292336 24.8669 64.507881
-26.410116 27.791089 63.404223
-27.069541 26.708638 63.167944
-26.670457 25.793051 63.820363
-24.213208 26.035064 65.14555
-24.567673 24.073759 65.677826
-24.77902 27.037936 64.66592
-24.213208 26.035064 65.14555
-25.249638 27.91102 64.10925
-25.540413 26.002417 64.613312
-24.77902 27.037936 64.66592
-25.716934 28.901375 63.547047
-25.249638 27.91102 64.10925
-24.95554 29.936894 63.599655
-25.88969 31.879527 62.355793
-26.582872 30.769241 62.212969
-26.116018 29.816962 62.894628
-25.88969 31.879527 62.355793
-25.192771 32.887191 62.454567
-31.362603 47.830135 34.997661
-31.273787 47.327579 36.232466
-31.442695 48.281159 33.78778
-31.362603 47.830135 34.997661
-31.351796 49.677452 34.173927
-31.541882 48.729082 32.584969
-31.442695 48.281159 33.78778
-31.518199 50.551119 31.813049
-31.409563 51.919557 32.129111
-31.495875 52.342202 30.978114
-31.541882 48.729082 32.584969
-31.518199 50.551119 31.813049
-31.831886 50.052763 29.159563
-31.701566 51.402293 29.527621
-31.954703 50.583822 27.999835
-31.831886 50.052763 29.159563
-31.915229 52.283685 27.237622
-32.071312 51.036686 26.844267
-31.954703 50.583822 27.999835
-31.749395 59.719541 23.35742
-31.765304 58.462704 24.156467
-31.647293 59.487894 24.358448
-31.836486 59.804125 22.570672
-31.749395 59.719541 23.35742
3 49 48 13
3 51 50 15
3 52 17 53
3 54 15 55
3 56 55 17
3 54 55 56
3 0 57 58
3 0 21 19
3 0 59 61
3 61 60 21
3 59 60 61
3 1 62 63
3 64 23 65
3 66 26 67
3 68 67 24
3 66 67 68
3 70 69 26
3 2 71 73
3 73 72 28
3 71 72 73
3 3 31 29
3 2 32 14
3 2 28 32
3 5 74 75
3 6 34 33
3 7 76 78
3 78 77 16
3 76 77 78
3 7 79 81
3 79 35 80
3 79 80 81
3 7 37 35
3 5 38 18
3 5 82 84
3 84 83 38
3 82 83 84
3 4 85 87
3 87 86 30
3 85 86 87
3 89 88 20
3 91 90 22
3 9 92 93
3 9 94 95
3 96 39 97
3 10 98 100
3 98 40 99
3 98 99 100
3 10 41 40
3 10 101 103
3 103 102 41
3 101 102 103
3 11 104 105
3 11 106 108
3 106 42 107
3 106 107 108
3 109 43 110
3 112 111 43
3 8 44 36
3 12 113 115
3 115 114 25
3 113 114 115
3 12 116 118
3 116 45 117
3 116 117 118
3 12 46 45
3 119 47 120
3 121 120 27
3 119 120 121
3 123 122 47
3 125 124 2
3 13 14 3
3 126 14 127
3 128 127 13
3 126 127 128
3 129 2 130
3 131 130 14
3 129 130 131
3 15 132 134
3 134 133 5
3 132 133 134
3 136 135 15
3 137 16 138
3 139 138 6
3 137 138 139
3 17 140 142
3 140 16 141
3 140 141 142
3 17 7 16
3 17 18 7
3 15 18 17
3 15 5 18
3 19 20 4
3 21 20 19
3 21 143 145
3 145 144 20
3 143 144 145
3 21 146 148
3 146 22 147
3 146 147 148
3 149 22 150
3 151 150 21
3 149 150 151
3 153 152 22
3 23 154 155
3 23 156 158
3 156 9 157
3 156 157 158
3 159 10 160
3 162 161 10
3 163 11 164
3 24 25 8
3 26 25 24
3 26 12 25
3 26 27 12
3 165 27 166
3 167 166 26
3 165 166 167
3 169 168 27
3 28 170 172
3 172 171 0
3 170 171 172
3 174 173 28
3 176 175 2
3 29 177 179
3 177 30 178
3 177 178 179
3 31 30 29
3 31 4 30
3 14 31 3
3 32 31 14
3 32 4 31
3 32 19 4
3 28 19 32
3 28 0 19
3 181 180 1
3 183 182 5
3 33 184 185
3 34 186 188
3 188 187 33
3 186 187 188
3 34 189 190
3 16 34 6
3 191 34 192
3 193 192 16
3 191 192 193
3 195 194 34
3 35 196 197
3 35 198 199
3 35 200 202
3 200 36 201
3 200 201 202
3 37 36 35
3 37 8 36
3 18 37 7
3 38 37 18
3 38 8 37
3 38 24 8
3 203 24 204
3 205 204 38
3 203 204 205
3 207 206 24
3 209 208 0
3 30 210 211
3 213 212 30
3 20 214 216
3 216 215 4
3 214 215 216
3 218 217 20
3 22 219 221
3 219 220 221
3 223 222 22
3 225 224 1
3 226 23 227
3 39 228 230
3 228 23 229
3 228 229 230
3 39 9 23
3 231 39 232
3 40 233 235
3 233 39 234
3 233 234 235
3 40 9 39
3 40 236 238
3 238 237 9
3 236 237 238
3 41 239 241
3 241 240 40
3 239 240 241
3 41 242 243
3 41 244 246
3 244 33 245
3 244 245 246
3 247 33 248
3 249 248 41
3 247 248 249
3 250 6 251
3 252 251 33
3 250 251 252
3 254 253 10
3 255 6 256
3 258 257 6
3 42 259 260
3 42 261 263
3 261 1 262
3 261 262 263
3 264 11 265
3 266 11 267
3 268 42 269
3 270 269 11
3 268 269 270
3 43 271 273
3 271 42 272
3 271 272 273
3 43 1 42
3 43 274 276
3 276 275 1
3 274 275 276
3 278 277 43
3 36 279 280
3 44 281 283
3 283 282 36
3 281 282 283
3 44 284 285
3 25 44 8
3 286 44 287
3 288 287 25
3 286 287 288
3 290 289 44
3 45 291 292
3 45 293 294
3 45 295 297
3 295 29 296
3 295 296 297
3 46 29 45
3 46 3 29
3 27 46 12
3 47 46 27
3 47 3 46
3 47 13 3
3 298 13 299
3 300 299 47
3 298 299 300
3 302 301 13
