ply
format ascii 1.0
element vertex 327
property float x
property float y
property float z
element face 276
property list uchar int vertex_index
end_header
-26.28582 -85.588722 1.693339
-22.169987 -68.085388 -18.941614
-21.292746 -73.068146 -25.844028
-23.870268 -72.708977 -10.730302
-21.375542 -61.962879 -19.396452
-20.936401 -64.533592 -22.559935
-25.978977 -90.167053 2.773947
-25.771439 -94.566742 -2.009389
-26.461424 -90.088371 -2.653966
-26.311277 -84.88755 -3.782234
-24.592297 -74.389427 -6.073152
-23.078833 -67.331856 -11.78156
-19.742313 -74.656525 -29.597338
-20.253742 -66.519852 -25.957144
-25.549301 -79.568329 -4.850148
-23.119125 -70.80928 -15.004985
-22.285465 -64.97332 -15.843429
-20.795156 -60.270473 -21.236414
-26.237331 -87.861603 2.302618
-26.264339 -90.306763 0.030295
-26.407736 -87.88028 -0.50786
-26.480066 -87.345795 -3.140842
-26.328568 -85.149673 -0.920218
-23.935095 -66.999146 -5.662582
-22.684166 -71.182388 -18.758066
-22.091337 -69.569618 -20.64978
-20.628351 -65.617775 -24.289478
-25.732471 -79.858711 -2.213901
-24.239746 -73.642303 -8.473173
-24.76532 -76.331856 -7.773578
-24.415907 -75.595238 -10.211693
-23.532423 -71.921684 -12.836292
-22.691534 -66.137459 -13.808308
-21.700796 -64.867653 -19.228844
-21.59745 -66.37587 -20.738224
-21.142439 -63.226299 -21.011946
-20.497204 -61.430786 -22.777954
-25.899761 -92.423988 0.565724
-26.220503 -92.482155 -2.280395
-24.139326 -71.624504 -6.735959
-23.794262 -70.915451 -9.043651
-23.428505 -70.06797 -11.348263
-23.430239 -68.190453 -9.697712
-20.268089 -70.715614 -27.561176
-20.66787 -73.997719 -27.673836
-19.484419 -71.43634 -29.370575
-21.72337 -72.083908 -24.040312
-21.391882 -67.499069 -22.425068
-21.193932 -68.856728 -24.072691
-20.784771 -69.742653 -25.860188
-19.797867 -67.414299 -27.545923
-26.099752 -82.632095 -1.588946
-25.976442 -82.171967 -4.192528
-25.059214 -76.830276 -5.328341
-25.280678 -78.955391 -7.317334
-23.202305 -72.527519 -16.7246
-22.658278 -69.503654 -17.080233
-23.051373 -68.907555 -13.306332
-22.676756 -67.90094 -15.279881
-22.225624 -66.538513 -17.297411
-21.855688 -63.481056 -17.633389
-24.060692 -65.975705 -4.921919
-24.115904 -67.243718 -4.503424
-23.871015 -65.670448 -6.064583
-24.060692 -65.975705 -4.921919
-23.967927 -73.740208 -11.567652
-24.240747 -75.183338 -11.308347
-24.143088 -74.152107 -10.470997
-23.701346 -72.315331 -11.783297
-23.799005 -73.346562 -12.620646
-23.967927 -73.740208 -11.567652
-21.506596 -74.807175 -25.926575
-21.957998 -75.896264 -25.058656
-21.744149 -74.157235 -24.97611
-20.328563 -59.922933 -22.846442
-20.64618 -60.850629 -22.007184
-20.477539 -59.342777 -22.075672
-20.130668 -60.284031 -23.569384
-20.328563 -59.922933 -22.846442
-25.939369 -91.29552 1.669836
-25.682504 -92.404965 1.858764
-25.722112 -91.276497 2.962875
-26.448117 -91.12754 -3.859095
-26.327656 -92.324433 -3.672309
-26.340964 -91.285263 -2.46718
-26.506533 -89.884915 -4.036761
-26.448117 -91.12754 -3.859095
-26.388055 -86.010941 -4.884726
-26.472449 -87.240063 -4.56403
-26.395671 -86.116672 -3.461538
-26.257197 -84.682556 -5.070491
-26.388055 -86.010941 -4.884726
-23.96091 -70.28529 -7.094969
-24.139104 -70.569611 -5.901413
-23.788378 -69.930763 -8.248815
-23.966794 -71.269978 -7.889805
-23.96091 -70.28529 -7.094969
-23.606367 -68.568264 -8.575846
-23.612251 -69.552952 -9.370681
-23.788378 -69.930763 -8.248815
-19.311575 -69.762783 -29.279466
-19.876254 -71.075977 -28.465875
-19.70341 -69.40242 -28.374766
-21.837464 -71.408062 -23.152995
-22.119502 -73.051956 -23.120103
-25.387153 -95.644348 -1.936002
-25.533812 -94.542732 -0.623282
-25.996738 -81.49643 -0.641658
-26.125224 -82.7901 -0.16
-25.671518 -80.666771 -5.847948
-25.885088 -81.96859 -5.519139
-25.762871 -80.870148 -4.521338
-24.825755 -75.609851 -5.700747
-24.960712 -75.719219 -4.471969
-24.727253 -74.498795 -4.844374
-25.140594 -78.686074 -8.486055
-25.022999 -77.643624 -7.545456
-24.882915 -77.374306 -8.714177
-25.410981 -80.069549 -8.299735
-25.140594 -78.686074 -8.486055
-23.160715 -71.668399 -15.864793
-23.426145 -73.099559 -15.661745
-23.384555 -72.24044 -14.801938
-20.320719 -75.94003 -28.805104
-20.783498 -75.610626 -27.843353
-20.205092 -74.327122 -28.635587
-20.943991 -59.661192 -20.499133
-21.085349 -61.116676 -20.316433
-21.234184 -60.507395 -19.579152
-20.648489 -58.684069 -21.378836
-20.943991 -59.661192 -20.499133
-20.477539 -59.342777 -22.075672
-20.648489 -58.684069 -21.378836
-24.036988 -68.256932 -5.364724
-24.115904 -67.243718 -4.503424
-23.858795 -67.972611 -6.558281
-24.036988 -68.256932 -5.364724
-23.756293 -66.706017 -6.78437
-23.858795 -67.972611 -6.558281
-23.756293 -66.706017 -6.78437
-23.871015 -65.670448 -6.064583
-22.666784 -71.914185 -19.603763
-22.958111 -72.662453 -18.662104
-22.37037 -71.107799 -20.549619
-22.666784 -71.914185 -19.603763
-22.387752 -70.376003 -19.703923
-22.021448 -70.150917 -21.457729
-22.37037 -71.107799 -20.549619
-20.421538 -64.06496 -24.256357
-20.782376 -65.075683 -23.424706
-20.575563 -63.522869 -23.391585
-20.211661 -64.454298 -25.082386
-20.421538 -64.06496 -24.256357
-20.024356 -64.905337 -25.916219
-20.441046 -66.068814 -25.123311
-20.211661 -64.454298 -25.082386
-19.793534 -65.369278 -26.733551
-20.024356 -64.905337 -25.916219
-25.621451 -95.703739 -3.373291
-25.922431 -94.580632 -3.391264
-25.650568 -78.832413 -1.243552
-25.813097 -80.109737 -0.954135
-25.527428 -78.614975 -2.618088
-25.650568 -78.832413 -1.243552
-25.435842 -78.469784 -3.936212
-25.640886 -79.71352 -3.532024
-25.527428 -78.614975 -2.618088
-24.708209 -77.005997 -9.933235
-24.882915 -77.374306 -8.714177
-24.590613 -75.963547 -8.992636
-24.52367 -76.56538 -11.110748
-24.708209 -77.005997 -9.933235
-24.52367 -76.56538 -11.110748
-24.240747 -75.183338 -11.308347
-23.591204 -72.796642 -13.717591
-23.799005 -73.346562 -12.620646
-23.325774 -71.365482 -13.920638
-23.384555 -72.24044 -14.801938
-23.591204 -72.796642 -13.717591
-22.757121 -65.279816 -13.022037
-22.885184 -66.734657 -12.794934
-22.95077 -65.877015 -12.008662
-22.562481 -64.821462 -14.065789
-22.757121 -65.279816 -13.022037
-22.359446 -64.239393 -15.08335
-22.488499 -65.55539 -14.825869
-22.562481 -64.821462 -14.065789
-22.162605 -63.552523 -15.996351
-22.359446 -64.239393 -15.08335
-19.276643 -76.732204 -30.640425
-19.818116 -76.339012 -29.746414
-19.20084 -75.049717 -30.491349
-20.355964 -61.971466 -23.500595
-20.575563 -63.522869 -23.391585
-20.716803 -62.982189 -22.668945
-20.355964 -61.971466 -23.500595
-20.130668 -60.284031 -23.569384
-25.597973 -93.471355 0.664274
-25.682504 -92.404965 1.858764
-25.8356 -93.495365 -0.721833
-25.533812 -94.542732 -0.623282
-25.597973 -93.471355 0.664274
-26.146963 -93.538338 -3.526767
-25.922431 -94.580632 -3.391264
-25.995971 -93.524449 -2.144892
-26.146963 -93.538338 -3.526767
-26.327656 -92.324433 -3.672309
-26.515854 -88.513627 -4.2802
-26.506533 -89.884915 -4.036761
-26.470745 -88.717083 -2.897404
-26.515854 -88.513627 -4.2802
-26.472449 -87.240063 -4.56403
-24.530521 -73.230915 -5.188678
-24.727253 -74.498795 -4.844374
-24.304036 -71.848454 -5.520082
-24.139104 -70.569611 -5.901413
-24.365811 -73.006966 -6.404556
-24.530521 -73.230915 -5.188678
-24.304036 -71.848454 -5.520082
-23.503865 -67.301671 -8.801934
-23.606367 -68.568264 -8.575846
-23.317953 -66.85524 -9.903473
-23.503865 -67.301671 -8.801934
-23.142249 -66.425941 -10.945397
-23.254536 -67.761155 -10.739636
-23.317953 -66.85524 -9.903473
-22.95077 -65.877015 -12.008662
-23.142249 -66.425941 -10.945397
-18.888042 -70.114688 -30.117567
-19.311575 -69.762783 -29.279466
-18.993401 -71.798676 -30.259215
-18.888042 -70.114688 -30.117567
-19.122349 -73.408768 -30.372597
-19.613366 -73.046433 -29.483956
-18.993401 -71.798676 -30.259215
-19.20084 -75.049717 -30.491349
-19.122349 -73.408768 -30.372597
-25.772568 -90.149963 4.119511
-25.722112 -91.276497 2.962875
-25.97013 -89.063213 3.926126
-25.772568 -90.149963 4.119511
-26.099307 -87.910488 3.690461
-26.108154 -89.014328 2.538283
-25.97013 -89.063213 3.926126
-26.188197 -86.718567 3.436063
-26.099307 -87.910488 3.690461
-26.212442 -85.582127 3.131424
-26.261575 -86.725163 1.997978
-26.188197 -86.718567 3.436063
-21.95946 -73.665115 -24.074252
-22.119502 -73.051956 -23.120103
-21.508058 -72.576027 -24.94217
-21.744149 -74.157235 -24.97611
-21.95946 -73.665115 -24.074252
-21.67172 -69.115643 -22.345373
-22.021448 -70.150917 -21.457729
-21.741609 -68.534344 -21.537424
-21.572745 -69.794472 -23.169185
-21.67172 -69.115643 -22.345373
-21.292907 -68.177898 -23.24888
-21.458651 -70.470318 -24.056501
-21.837464 -71.408062 -23.152995
-21.572745 -69.794472 -23.169185
-19.468299 -67.751762 -28.36714
-19.70341 -69.40242 -28.374766
-20.032978 -69.064956 -27.553549
-19.565596 -65.816502 -27.52794
-20.025804 -66.967075 -26.751534
-19.793534 -65.369278 -26.733551
-19.260175 -66.139702 -28.327039
-19.565596 -65.816502 -27.52794
-19.468299 -67.751762 -28.36714
-19.260175 -66.139702 -28.327039
-25.387153 -95.644348 -1.936002
-25.621451 -95.703739 -3.373291
-26.212077 -84.450253 2.817673
-26.212442 -85.582127 3.131424
-26.218258 -84.268414 1.481142
-26.212077 -84.450253 2.817673
-26.239632 -84.048889 0.174364
-26.307194 -85.369198 0.38656
-26.218258 -84.268414 1.481142
-26.21416 -83.890884 -1.254582
-26.239632 -84.048889 0.174364
-26.125224 -82.7901 -0.16
-25.916111 -81.245403 -1.901423
-25.996738 -81.49643 -0.641658
-25.813097 -80.109737 -0.954135
-26.089779 -83.324765 -5.275638
-26.257197 -84.682556 -5.070491
-26.143859 -83.529758 -3.987381
-26.089779 -83.324765 -5.275638
-25.885088 -81.96859 -5.519139
-25.190799 -77.100758 -4.175308
-24.960712 -75.719219 -4.471969
-25.304257 -78.199303 -5.089244
-25.435842 -78.469784 -3.936212
-25.190799 -77.100758 -4.175308
-25.537206 -80.360302 -7.081542
-25.671518 -80.666771 -5.847948
-25.41499 -79.26186 -6.083741
-25.537206 -80.360302 -7.081542
-25.410981 -80.069549 -8.299735
-23.491643 -74.050754 -16.623143
-23.426145 -73.099559 -15.661745
-23.21718 -73.335018 -17.645371
-23.491643 -74.050754 -16.623143
-22.943236 -71.854953 -17.741333
-22.958111 -72.662453 -18.662104
-23.21718 -73.335018 -17.645371
-21.947716 -62.806391 -16.891331
-22.070577 -64.227188 -16.738409
-22.162605 -63.552523 -15.996351
-21.725773 -62.010475 -17.793914
-21.947716 -62.806391 -16.891331
-21.4857 -61.251386 -18.675446
-21.615615 -62.721968 -18.514921
-21.725773 -62.010475 -17.793914
-21.234184 -60.507395 -19.579152
-21.4857 -61.251386 -18.675446
-21.194158 -75.271962 -26.841479
-21.506596 -74.807175 -25.926575
-20.980308 -73.532933 -26.758932
-21.194158 -75.271962 -26.841479
-20.783498 -75.610626 -27.843353
-20.320719 -75.94003 -28.805104
-19.818116 -76.339012 -29.746414
3 0 20 18
3 0 22 20
3 61 23 62
3 64 63 23
3 1 25 24
3 3 30 28
3 3 65 67
3 67 66 30
3 65 66 67
3 3 68 70
3 68 31 69
3 68 69 70
3 2 71 73
3 71 72 73
3 4 35 33
3 74 36 75
3 76 75 17
3 74 75 76
3 78 77 36
3 6 79 81
3 79 37 80
3 79 80 81
3 8 38 19
3 8 82 84
3 84 83 38
3 82 83 84
3 8 85 86
3 9 87 89
3 89 88 21
3 87 88 89
3 9 90 91
3 92 39 93
3 94 40 95
3 96 95 39
3 94 95 96
3 97 42 98
3 99 98 40
3 97 98 99
3 100 45 101
3 102 101 43
3 100 101 102
3 103 46 104
3 5 47 34
3 13 48 26
3 13 49 48
3 13 50 49
3 7 105 106
3 107 51 108
3 14 52 27
3 14 109 111
3 111 110 52
3 109 110 111
3 10 112 114
3 112 53 113
3 112 113 114
3 115 54 116
3 117 116 29
3 115 116 117
3 119 118 54
3 15 120 122
3 120 55 121
3 120 121 122
3 15 56 55
3 11 57 41
3 16 58 32
3 16 59 58
3 16 60 59
3 12 123 125
3 125 124 44
3 123 124 125
3 126 17 127
3 128 127 4
3 126 127 128
3 129 17 130
3 132 131 17
3 18 19 6
3 20 19 18
3 20 8 19
3 20 21 8
3 22 21 20
3 22 9 21
3 23 133 134
3 23 135 136
3 23 137 138
3 140 139 23
3 24 141 142
3 25 143 145
3 145 144 24
3 143 144 145
3 25 146 147
3 148 26 149
3 150 149 5
3 148 149 150
3 151 26 152
3 153 13 154
3 155 154 26
3 153 154 155
3 157 156 13
3 159 158 7
3 160 27 161
3 162 27 163
3 164 14 165
3 166 165 27
3 164 165 166
3 28 29 10
3 30 29 28
3 30 167 169
3 169 168 29
3 167 168 169
3 30 170 171
3 173 172 30
3 31 174 175
3 31 176 178
3 176 15 177
3 176 177 178
3 179 32 180
3 181 180 11
3 179 180 181
3 182 32 183
3 184 16 185
3 186 185 32
3 184 185 186
3 188 187 16
3 191 190 12
3 189 190 191
3 33 34 1
3 35 34 33
3 35 5 34
3 17 35 4
3 36 35 17
3 36 5 35
3 36 192 194
3 194 193 5
3 192 193 194
3 196 195 36
3 37 197 198
3 37 199 201
3 199 7 200
3 199 200 201
3 19 37 6
3 38 37 19
3 38 7 37
3 38 202 204
3 204 203 7
3 202 203 204
3 206 205 38
3 21 207 209
3 209 208 8
3 207 208 209
3 211 210 21
3 212 10 213
3 39 214 215
3 39 216 218
3 216 10 217
3 216 217 218
3 39 28 10
3 40 28 39
3 40 3 28
3 40 41 3
3 42 41 40
3 42 11 41
3 219 42 220
3 221 42 222
3 223 11 224
3 225 224 42
3 223 224 225
3 227 226 11
3 43 44 2
3 45 44 43
3 45 12 44
3 228 45 229
3 230 45 231
3 232 12 233
3 234 233 45
3 232 233 234
3 236 235 12
3 237 6 238
3 239 6 240
3 241 18 242
3 243 242 6
3 241 242 243
3 244 18 245
3 246 0 247
3 248 247 18
3 246 247 248
3 46 249 250
3 46 251 253
3 251 2 252
3 251 252 253
3 34 25 1
3 47 25 34
3 47 254 256
3 256 255 25
3 254 255 256
3 26 47 5
3 48 47 26
3 48 257 259
3 259 258 47
3 257 258 259
3 48 260 262
3 260 46 261
3 260 261 262
3 49 46 48
3 49 2 46
3 49 43 2
3 50 43 49
3 50 263 265
3 265 264 43
3 263 264 265
3 266 50 267
3 268 267 13
3 266 267 268
3 269 50 270
3 272 271 50
3 274 273 7
3 275 0 276
3 277 0 278
3 279 22 280
3 281 280 0
3 279 280 281
3 51 282 284
3 282 22 283
3 282 283 284
3 51 9 22
3 27 285 287
3 285 51 286
3 285 286 287
3 52 51 27
3 52 9 51
3 52 288 290
3 290 289 9
3 288 289 290
3 292 291 52
3 53 293 294
3 53 295 297
3 295 14 296
3 295 296 297
3 29 53 10
3 54 53 29
3 54 14 53
3 54 298 300
3 300 299 14
3 298 299 300
3 302 301 54
3 55 303 304
3 55 305 306
3 55 307 309
3 307 24 308
3 307 308 309
3 56 24 55
3 56 1 24
3 41 31 3
3 57 31 41
3 57 15 31
3 32 57 11
3 58 57 32
3 58 15 57
3 58 56 15
3 59 56 58
3 59 1 56
3 59 33 1
3 60 33 59
3 60 4 33
3 310 60 311
3 312 311 16
3 310 311 312
3 313 60 314
3 315 4 316
3 317 316 60
3 315 316 317
3 319 318 4
3 44 320 322
3 322 321 2
3 320 321 322
3 324 323 44
3 326 325 12
