ply
format ascii 1.0
element vertex 540
property float x
property float y
property float z
element face 448
property list uchar int vertex_index
end_header
14.797931 28.089905 -25.86307
17.589762 29.067917 -34.95266
10.278909 43.411259 -47.006283
14.753637 37.472233 -41.211712
30.172199 18.961533 -40.243797
17.205872 19.597523 -24.599867
12.694709 41.893986 -39.316936
14.112998 37.87606 -36.165794
20.485817 25.994606 -37.014313
9.624811 41.331745 -51.713696
15.168272 33.333366 -33.039062
16.03688 28.409618 -30.050537
18.485043 24.561495 -31.728247
21.553907 21.4835 -33.383591
12.710616 40.868866 -44.33905
16.356121 33.426601 -38.076279
17.287556 34.05043 -43.662697
6.429564 42.011696 -53.356174
24.695646 19.155222 -34.581291
28.991682 23.039219 -44.991119
13.745407 38.281487 -33.750843
24.792486 24.195648 -41.06308
1.047975 39.422447 -55.68964
15.005258 30.74239 -29.151543
15.386925 28.252796 -27.951511
17.874529 21.921776 -28.00028
17.591269 24.055183 -29.463293
20.363384 20.796787 -30.988771
13.597275 39.701786 -40.23275
12.679545 41.495243 -41.716728
13.775928 39.296471 -42.827259
13.857929 38.983917 -45.433525
14.963898 37.403446 -43.979111
16.286312 31.093664 -33.973938
15.719032 33.477089 -35.578976
17.041096 31.268528 -36.581345
8.03511 41.830597 -52.555729
7.583994 40.459362 -54.631912
5.906688 40.485771 -55.13279
7.037131 39.107323 -56.521713
18.336597 16.342569 -23.419025
28.649492 20.049568 -39.948441
28.060644 22.197983 -42.322823
29.681162 21.013882 -42.633266
15.017047 25.7784 -24.618792
16.946207 21.581692 -25.874153
18.066757 19.874098 -26.443823
13.473065 39.925804 -37.71941
14.408243 37.745361 -38.713966
18.961226 27.323032 -35.820499
18.435442 29.503881 -37.663242
19.873419 28.010212 -38.629059
26.396519 26.119425 -46.656605
11.314211 41.552402 -48.12801
9.949978 42.393517 -49.420147
11.093491 40.729912 -50.544327
10.784547 39.91531 -52.884331
31.727131 17.739569 -40.512348
31.274662 19.729752 -42.881111
14.674098 33.170597 -30.636385
15.651365 30.838766 -31.55899
16.838945 28.616817 -32.469662
17.184593 26.491869 -31.005571
18.141506 26.72366 -33.374405
19.605026 25.02919 -34.290104
22.698002 22.433542 -36.001812
2.628823 39.942478 -55.657734
11.690456 43.031929 -43.130093
11.587182 42.231335 -45.594341
12.686348 40.303417 -46.844608
14.708333 35.613155 -34.691128
15.190147 35.565742 -37.361382
15.617129 35.519581 -39.741993
17.672783 31.764908 -39.391171
16.911438 33.675224 -40.91074
15.9643 35.639397 -42.453217
16.313305 35.678055 -45.214493
8.464456 43.146034 -50.429066
6.974022 43.558678 -51.382603
4.869245 42.025818 -53.914089
4.238549 40.151749 -55.607819
18.221628 17.973936 -24.891226
23.047857 20.258156 -33.946384
24.226883 21.341768 -36.61134
25.44245 22.292202 -39.251328
26.443382 23.292225 -41.902256
27.3039 24.197001 -44.512939
28.077101 24.924236 -47.07983
13.623482 38.35161 -32.61289
13.398695 39.595036 -33.404871
24.27236 23.773066 -39.793073
23.976217 24.762892 -40.73156
0.797917 38.18131 -56.274938
1.567961 38.548872 -56.370653
15.092428 28.171351 -26.907291
14.929557 29.493011 -27.49732
14.63506 29.411565 -26.4531
18.415106 22.086891 -29.121151
18.523832 21.091237 -28.329518
19.76826 20.528742 -29.823763
19.659534 21.524396 -30.615396
9.614655 43.905161 -47.572727
9.81341 44.517542 -46.428671
8.152764 39.812123 -55.306486
8.397386 40.366383 -54.268332
8.966155 39.719143 -54.942905
7.879333 39.136103 -56.251386
7.310562 39.783343 -55.576813
8.152764 39.812123 -55.306486
29.663815 18.451346 -38.990007
30.427526 17.944311 -39.174453
29.410846 19.50555 -40.096119
28.902461 18.995363 -38.842329
29.663815 18.451346 -38.990007
15.487291 24.658192 -24.982078
15.145109 24.622214 -24.044866
17.07604 20.589607 -25.23701
16.569515 21.485694 -24.975138
16.699348 20.493609 -24.337995
13.793031 38.900932 -36.942602
13.347786 40.207407 -36.517634
13.667753 39.182535 -35.740825
26.012638 25.692158 -45.280874
25.557549 26.667727 -46.339594
11.845616 40.232282 -49.957434
11.203851 41.141157 -49.336168
11.955976 40.643528 -48.749276
11.405504 39.218237 -53.687055
11.547714 39.555792 -52.436757
11.213334 38.754851 -54.868089
10.592377 39.451923 -54.065365
11.405504 39.218237 -53.687055
32.456989 17.048455 -40.594103
31.944275 16.733642 -39.415491
32.674133 16.042529 -39.497246
32.203383 18.08551 -41.791626
32.456989 17.048455 -40.594103
14.4156 33.296307 -29.522305
14.27775 34.501297 -30.280893
21.317118 22.552551 -34.240021
20.515985 23.265993 -33.820475
20.752774 22.196942 -32.964044
22.125954 21.958521 -34.692701
21.889165 23.027572 -35.549132
21.317118 22.552551 -34.240021
2.957577 40.977682 -54.935383
2.13405 40.86405 -55.038252
12.225015 42.865127 -40.0389
12.279183 43.217083 -38.841659
13.884476 38.803869 -46.731302
14.447336 38.189493 -46.013575
14.938302 34.47326 -33.865095
14.487023 35.669456 -33.48182
14.716992 34.529562 -32.655787
18.37088 30.958143 -39.838847
18.054112 30.634394 -38.527206
18.752209 29.827629 -38.974882
17.099497 33.862827 -42.286718
17.583548 32.929161 -41.520859
17.771606 33.116764 -42.896838
5.917558 42.920267 -52.749519
6.189787 43.693758 -51.762734
6.701793 42.785187 -52.369388
5.649405 42.018757 -53.635131
5.137398 42.927328 -53.028476
5.917558 42.920267 -52.749519
4.795062 39.462273 -56.267092
5.072618 40.31876 -55.370305
5.629131 39.629284 -56.029578
3.959853 39.258885 -56.320633
4.795062 39.462273 -56.267092
18.820094 17.239036 -25.103678
18.279113 17.158252 -24.155126
18.877578 16.423353 -24.367578
18.758523 18.145961 -25.922891
18.820094 17.239036 -25.103678
23.871752 19.706689 -34.263838
23.246212 19.18591 -32.999451
24.070107 18.634442 -33.316904
26.27981 21.706266 -39.45068
25.668022 21.22024 -38.149996
26.780276 22.206277 -40.776144
25.942916 22.792213 -40.576792
26.27981 21.706266 -39.45068
30.934621 20.775718 -44.132116
31.678259 20.105777 -44.256804
16.77883 19.6125 -23.736042
16.699348 20.493609 -24.337995
16.272306 20.508587 -23.47417
13.483957 39.385249 -34.53335
13.398695 39.595036 -33.404871
13.929202 38.078773 -34.958319
13.667753 39.182535 -35.740825
13.483957 39.385249 -34.53335
21.004047 26.266858 -38.279608
21.306868 25.236016 -37.362048
24.381138 25.238104 -42.087187
23.976217 24.762892 -40.73156
25.210622 24.730269 -42.484112
24.381138 25.238104 -42.087187
0.296511 39.137769 -55.631475
0.51584 40.405834 -55.102951
0.296511 39.137769 -55.631475
0.797917 38.18131 -56.274938
14.738724 30.737808 -28.097336
14.58118 32.082203 -28.779884
15.196091 29.497593 -28.551527
14.738724 30.737808 -28.097336
14.929557 29.493011 -27.49732
17.732899 22.98848 -28.731786
17.144936 23.892039 -28.358018
17.286566 22.825336 -27.626511
18.273476 23.153594 -29.852657
17.732899 22.98848 -28.731786
18.415106 22.086891 -29.121151
18.720363 23.40675 -30.985135
18.038156 24.308339 -30.59577
18.273476 23.153594 -29.852657
19.218342 23.735939 -32.136373
18.720363 23.40675 -30.985135
20.157512 21.853585 -31.766634
19.659534 21.524396 -30.615396
20.958645 21.140144 -32.186181
20.752774 22.196942 -32.964044
20.157512 21.853585 -31.766634
15.00032 37.399258 -45.286367
14.447336 38.189493 -46.013575
14.410913 38.193681 -44.706318
18.017117 33.326208 -44.241635
17.771606 33.116764 -42.896838
17.46497 34.183437 -45.055695
18.017117 33.326208 -44.241635
8.622943 41.052 -53.23024
8.82996 41.581171 -52.134712
9.417794 40.802574 -52.809224
7.809552 41.144979 -53.59382
8.622943 41.052 -53.23024
8.397386 40.366383 -54.268332
6.194353 38.94006 -56.724039
5.629131 39.629284 -56.029578
6.471909 39.796547 -55.827252
18.345701 15.640285 -22.652252
17.830865 16.495102 -22.632019
18.940823 15.599086 -23.58815
18.345701 15.640285 -22.652252
19.481804 15.679869 -24.536703
18.877578 16.423353 -24.367578
18.940823 15.599086 -23.58815
24.811712 18.10796 -33.525833
24.070107 18.634442 -33.316904
28.109985 19.528495 -38.683234
28.902461 18.995363 -38.842329
27.883331 20.584949 -39.799237
28.109985 19.528495 -38.683234
28.355068 21.123776 -41.135632
27.588907 21.659156 -40.986428
27.883331 20.584949 -39.799237
15.356261 25.806137 -25.631919
15.246703 26.96189 -26.254058
14.907489 26.934153 -25.240931
15.356261 25.806137 -25.631919
15.487291 24.658192 -24.982078
16.451871 22.559838 -25.609758
16.569515 21.485694 -24.975138
16.822405 22.655293 -26.563448
16.451871 22.559838 -25.609758
17.410368 21.751734 -26.937216
17.286566 22.825336 -27.626511
16.822405 22.655293 -26.563448
18.619946 20.067398 -27.551289
18.523832 21.091237 -28.329518
17.970643 20.897937 -27.222051
12.650301 42.222813 -38.072271
12.279183 43.217083 -38.841659
13.039479 41.238722 -37.273508
13.347786 40.207407 -36.517634
13.083887 40.909895 -38.518173
12.650301 42.222813 -38.072271
13.039479 41.238722 -37.273508
19.471198 29.080794 -39.457791
18.752209 29.827629 -38.974882
19.15443 28.757047 -38.14615
20.697848 27.274661 -39.086981
20.179618 27.002409 -37.821686
21.004047 26.266858 -38.279608
20.257267 28.351709 -39.9512
20.697848 27.274661 -39.086981
19.471198 29.080794 -39.457791
20.257267 28.351709 -39.9512
25.866093 27.030271 -47.691759
25.557549 26.667727 -46.339594
26.768227 26.436413 -48.051581
26.237801 27.347259 -49.086735
25.866093 27.030271 -47.691759
11.702186 39.963093 -51.266755
11.845616 40.232282 -49.957434
10.939019 40.322611 -51.714329
11.702186 39.963093 -51.266755
11.547714 39.555792 -52.436757
9.997662 40.094357 -53.394541
9.417794 40.802574 -52.809224
10.204679 40.623527 -52.299014
9.805492 39.63097 -54.575575
9.997662 40.094357 -53.394541
10.592377 39.451923 -54.065365
31.204991 17.333329 -39.308729
31.422136 16.327403 -38.211872
31.944275 16.733642 -39.415491
30.949665 18.350551 -40.378073
30.427526 17.944311 -39.174453
31.204991 17.333329 -39.308729
31.977148 19.080601 -42.976007
31.500896 18.734661 -41.69673
32.203383 18.08551 -41.791626
31.678259 20.105777 -44.256804
31.977148 19.080601 -42.976007
14.469905 34.448177 -31.454448
14.073557 35.778878 -31.098956
14.27775 34.501297 -30.280893
14.921185 33.251981 -31.837724
14.716992 34.529562 -32.655787
14.469905 34.448177 -31.454448
14.839678 31.956494 -29.893964
14.4156 33.296307 -29.522305
14.58118 32.082203 -28.779884
15.5412 27.043335 -27.298279
15.092428 28.171351 -26.907291
15.246703 26.96189 -26.254058
15.912475 27.110769 -28.322845
15.5412 27.043335 -27.298279
16.237453 27.18918 -29.372357
15.711903 28.331207 -29.001024
15.912475 27.110769 -28.322845
17.014648 25.011962 -29.078736
17.144936 23.892039 -28.358018
16.81131 26.230306 -29.849874
17.014648 25.011962 -29.078736
17.387931 25.273526 -30.234432
16.610737 27.450744 -30.528054
16.237453 27.18918 -29.372357
16.81131 26.230306 -29.849874
19.778333 23.969786 -33.417301
19.045034 24.795343 -33.009175
19.218342 23.735939 -32.136373
20.342677 24.325397 -34.693278
19.778333 23.969786 -33.417301
20.515985 23.265993 -33.820475
20.783073 24.808104 -36.055382
20.045421 25.511898 -35.652209
20.342677 24.325397 -34.693278
21.306868 25.236016 -37.362048
20.783073 24.808104 -36.055382
22.41296 23.455483 -36.855797
21.889165 23.027572 -35.549132
23.225119 22.892013 -37.262439
22.41296 23.455483 -36.855797
1.343626 40.604034 -55.054205
0.51584 40.405834 -55.102951
1.838399 39.682462 -55.673687
1.343626 40.604034 -55.054205
2.13405 40.86405 -55.038252
2.358385 38.808887 -56.3547
1.567961 38.548872 -56.370653
1.838399 39.682462 -55.673687
10.433775 43.875056 -45.813351
9.81341 44.517542 -46.428671
12.217433 42.665756 -41.238796
12.225015 42.865127 -40.0389
12.687127 41.694615 -40.516832
11.722889 43.434099 -41.945479
12.217433 42.665756 -41.238796
12.185 42.263586 -42.423411
11.222506 44.220804 -42.720437
11.722889 43.434099 -41.945479
11.139548 43.68539 -43.875256
11.222506 44.220804 -42.720437
11.087911 43.285094 -45.10738
11.139548 43.68539 -43.875256
11.638819 42.631632 -44.362217
10.933046 42.821297 -46.300312
10.433775 43.875056 -45.813351
11.087911 43.285094 -45.10738
12.642044 40.019035 -48.107574
11.955976 40.643528 -48.749276
12.00028 40.927909 -47.486309
13.298686 39.463619 -47.436844
13.272139 39.643667 -46.139066
13.884476 38.803869 -46.731302
12.642044 40.019035 -48.107574
13.298686 39.463619 -47.436844
14.00556 37.003622 -33.011677
13.623482 38.35161 -32.61289
14.22687 36.947321 -34.220985
14.00556 37.003622 -33.011677
14.487023 35.669456 -33.48182
17.96422 31.974003 -40.761074
18.37088 30.958143 -39.838847
17.29211 32.720066 -40.150955
17.96422 31.974003 -40.761074
17.583548 32.929161 -41.520859
15.675023 36.536562 -45.904058
15.00032 37.399258 -45.286367
15.638602 36.540751 -44.596802
16.977845 34.997249 -45.831592
16.80043 34.864243 -44.438595
17.46497 34.183437 -45.055695
16.354855 35.786564 -46.537031
16.977845 34.997249 -45.831592
15.675023 36.536562 -45.904058
16.354855 35.786564 -46.537031
14.40233 29.470848 -25.450284
14.63506 29.411565 -26.4531
14.51831 28.197007 -24.879824
14.40233 29.470848 -25.450284
14.122709 29.577949 -24.467038
14.627868 27.041254 -24.257685
14.907489 26.934153 -25.240931
14.51831 28.197007 -24.879824
14.755403 25.733587 -23.676678
14.627868 27.041254 -24.257685
14.883465 24.577401 -23.102752
15.145109 24.622214 -24.044866
14.755403 25.733587 -23.676678
9.45019 43.39629 -48.77966
9.614655 43.905161 -47.572727
10.114444 42.902388 -48.213215
8.707428 43.772548 -49.284119
9.45019 43.39629 -48.77966
9.207217 42.769776 -49.924606
7.986718 44.114449 -49.857092
8.707428 43.772548 -49.284119
7.241501 44.320771 -50.333861
7.986718 44.114449 -49.857092
7.719239 43.352356 -50.905834
6.514993 44.57828 -50.792956
7.241501 44.320771 -50.333861
6.514993 44.57828 -50.792956
6.189787 43.693758 -51.762734
4.322287 43.005188 -53.309333
5.137398 42.927328 -53.028476
4.077788 42.019352 -54.06356
4.322287 43.005188 -53.309333
3.76244 41.082318 -54.910426
4.077788 42.019352 -54.06356
4.553897 41.088784 -54.760954
3.433686 40.047114 -55.632776
2.957577 40.977682 -54.935383
3.76244 41.082318 -54.910426
3.15499 39.154249 -56.345591
3.433686 40.047114 -55.632776
3.959853 39.258885 -56.320633
2.358385 38.808887 -56.3547
3.15499 39.154249 -56.345591
7.607748 38.506382 -57.268608
7.879333 39.136103 -56.251386
8.449949 38.535162 -56.998282
6.752485 38.340668 -57.443678
7.607748 38.506382 -57.268608
5.909707 38.173405 -57.646004
6.194353 38.94006 -56.724039
6.752485 38.340668 -57.443678
17.22946 18.824326 -23.902691
16.77883 19.6125 -23.736042
16.802419 18.839303 -23.038866
17.794823 17.196849 -23.31227
17.28909 17.349381 -22.525264
17.830865 16.495102 -22.632019
17.737338 18.012532 -24.04837
17.794823 17.196849 -23.31227
18.279113 17.158252 -24.155126
17.71375 18.785729 -24.745546
17.22946 18.824326 -23.902691
17.737338 18.012532 -24.04837
18.681088 19.096042 -26.699189
18.144192 18.924017 -25.667524
18.758523 18.145961 -25.922891
18.619946 20.067398 -27.551289
18.681088 19.096042 -26.699189
20.43347 19.736777 -30.01717
19.76826 20.528742 -29.823763
21.078235 20.096433 -31.227652
20.43347 19.736777 -30.01717
21.673496 20.43979 -32.425063
20.958645 21.140144 -32.186181
21.078235 20.096433 -31.227652
22.420471 19.827118 -32.706459
23.246212 19.18591 -32.999451
22.300882 20.870828 -33.664988
21.673496 20.43979 -32.425063
22.420471 19.827118 -32.706459
23.989559 22.346126 -37.567203
23.225119 22.892013 -37.262439
23.462443 21.887655 -36.306576
25.481955 18.610374 -34.769699
24.811712 18.10796 -33.525833
25.294619 19.65175 -35.814977
25.481955 18.610374 -34.769699
25.060238 20.745023 -36.830002
24.461264 20.248495 -35.596316
25.294619 19.65175 -35.814977
24.834667 21.816985 -37.931334
25.060238 20.745023 -36.830002
25.668022 21.22024 -38.149996
24.597342 22.821343 -38.887197
23.989559 22.346126 -37.567203
24.834667 21.816985 -37.931334
25.117468 23.243925 -40.157204
24.27236 23.773066 -39.793073
24.597342 22.821343 -38.887197
26.036069 24.278558 -42.9037
25.210622 24.730269 -42.484112
25.617934 23.743936 -41.482668
27.252013 22.745104 -42.112539
26.780276 22.206277 -40.776144
27.588907 21.659156 -40.986428
26.466328 24.730946 -44.209041
26.036069 24.278558 -42.9037
26.873641 23.744613 -43.207598
26.850209 25.158213 -45.584772
26.012638 25.692158 -45.280874
26.466328 24.730946 -44.209041
27.608518 25.838819 -48.263193
26.768227 26.436413 -48.051581
27.23681 25.521831 -46.868218
30.137871 21.417783 -44.008194
30.477912 20.371817 -42.757188
30.934621 20.775718 -44.132116
29.793131 22.430452 -45.18712
29.336422 22.02655 -43.812192
30.137871 21.417783 -44.008194
29.379568 23.396708 -46.362623
29.793131 22.430452 -45.18712
30.181017 22.787941 -46.558624
28.922277 24.339217 -47.406979
28.534391 23.981727 -46.035474
29.379568 23.396708 -46.362623
28.377902 25.261108 -48.45937
28.922277 24.339217 -47.406979
27.608518 25.838819 -48.263193
28.377902 25.261108 -48.45937
3 88 20 89
3 90 21 91
3 93 92 22
3 0 94 96
3 94 24 95
3 94 95 96
3 98 97 25
3 99 27 100
3 3 30 28
3 3 32 30
3 1 35 33
3 2 101 102
3 103 37 104
3 103 104 105
3 106 39 107
3 108 107 37
3 106 107 108
3 4 109 110
3 4 111 113
3 111 41 112
3 111 112 113
3 4 43 41
3 115 114 44
3 5 116 118
3 116 45 117
3 116 117 118
3 5 46 45
3 7 119 121
3 119 47 120
3 119 120 121
3 7 48 47
3 8 51 49
3 122 52 123
3 124 55 125
3 126 125 53
3 124 125 126
3 127 56 128
3 131 130 56
3 129 130 131
3 132 57 133
3 132 133 134
3 136 135 57
3 137 59 138
3 11 60 23
3 11 61 60
3 12 62 26
3 12 63 62
3 12 64 63
3 13 139 141
3 139 140 141
3 13 142 144
3 142 65 143
3 142 143 144
3 145 66 146
3 6 147 148
3 14 67 29
3 14 68 67
3 14 69 68
3 150 149 31
3 10 151 153
3 151 70 152
3 151 152 153
3 15 71 34
3 15 72 71
3 154 73 155
3 156 155 50
3 154 155 156
3 16 157 159
3 157 74 158
3 157 158 159
3 16 75 74
3 16 76 75
3 9 77 54
3 17 78 36
3 17 160 162
3 162 161 78
3 160 161 162
3 17 163 165
3 163 79 164
3 163 164 165
3 166 80 167
3 168 167 38
3 166 167 168
3 170 169 80
3 171 81 172
3 173 172 40
3 171 172 173
3 175 174 81
3 18 176 178
3 176 82 177
3 176 177 178
3 18 83 82
3 179 84 180
3 181 85 182
3 183 182 84
3 181 182 183
3 19 86 42
3 19 87 86
3 185 184 58
3 186 5 187
3 186 187 188
3 20 189 190
3 20 191 193
3 191 7 192
3 191 192 193
3 195 194 8
3 21 196 197
3 21 198 199
3 22 200 201
3 203 202 22
3 204 23 205
3 24 206 208
3 206 23 207
3 206 207 208
3 24 11 23
3 25 209 211
3 209 26 210
3 209 210 211
3 212 26 213
3 214 213 25
3 212 213 214
3 215 12 216
3 217 216 26
3 215 216 217
3 219 218 12
3 27 220 221
3 27 222 224
3 222 13 223
3 222 223 224
3 28 29 6
3 30 29 28
3 30 14 29
3 30 31 14
3 32 31 30
3 32 225 227
3 227 226 31
3 225 226 227
3 33 34 10
3 35 34 33
3 35 15 34
3 228 16 229
3 231 230 16
3 232 36 233
3 234 233 9
3 232 233 234
3 37 235 237
3 235 36 236
3 235 236 237
3 37 17 36
3 37 38 17
3 39 38 37
3 39 238 240
3 240 239 38
3 238 239 240
3 241 40 242
3 243 40 244
3 247 246 40
3 245 246 247
3 248 18 249
3 41 250 251
3 41 252 253
3 41 254 256
3 254 42 255
3 254 255 256
3 43 42 41
3 43 19 42
3 44 257 259
3 259 258 0
3 257 258 259
3 261 260 44
3 45 262 263
3 45 264 265
3 45 266 268
3 266 25 267
3 266 267 268
3 46 25 45
3 46 269 271
3 271 270 25
3 269 270 271
3 272 6 273
3 47 274 275
3 47 276 278
3 276 6 277
3 276 277 278
3 47 28 6
3 48 28 47
3 48 3 28
3 49 50 1
3 51 50 49
3 51 279 281
3 281 280 50
3 279 280 281
3 282 51 283
3 284 283 8
3 282 283 284
3 285 51 286
3 288 287 51
3 52 289 290
3 52 291 293
3 291 292 293
3 53 54 2
3 55 54 53
3 55 9 54
3 294 55 295
3 56 296 298
3 296 55 297
3 296 297 298
3 56 9 55
3 56 299 301
3 301 300 9
3 299 300 301
3 304 303 56
3 302 303 304
3 57 305 307
3 305 306 307
3 57 308 310
3 308 4 309
3 308 309 310
3 57 58 4
3 311 58 312
3 313 312 57
3 311 312 313
3 315 314 58
3 59 316 318
3 316 317 318
3 59 319 321
3 319 10 320
3 319 320 321
3 23 322 324
3 322 59 323
3 322 323 324
3 60 59 23
3 60 10 59
3 60 33 10
3 61 33 60
3 61 1 33
3 325 24 326
3 327 326 0
3 325 326 327
3 328 24 329
3 330 11 331
3 332 331 24
3 330 331 332
3 26 333 334
3 62 335 337
3 337 336 26
3 335 336 337
3 62 338 340
3 338 11 339
3 338 339 340
3 62 61 11
3 63 61 62
3 63 1 61
3 63 49 1
3 64 49 63
3 64 8 49
3 341 64 342
3 343 342 12
3 341 342 343
3 344 64 345
3 344 345 346
3 347 8 348
3 349 348 64
3 347 348 349
3 351 350 8
3 65 352 353
3 65 354 355
3 356 22 357
3 66 358 360
3 358 22 359
3 358 359 360
3 66 361 363
3 363 362 22
3 361 362 363
3 364 2 365
3 29 366 368
3 368 367 6
3 366 367 368
3 67 369 371
3 371 370 29
3 369 370 371
3 67 372 373
3 67 374 375
3 68 376 378
3 378 377 67
3 376 377 378
3 68 379 381
3 379 2 380
3 379 380 381
3 68 53 2
3 69 53 68
3 69 382 384
3 384 383 53
3 382 383 384
3 31 69 14
3 385 69 386
3 387 386 31
3 385 386 387
3 389 388 69
3 390 20 391
3 70 392 394
3 392 20 393
3 392 393 394
3 70 7 20
3 34 70 10
3 71 70 34
3 71 7 70
3 71 48 7
3 72 48 71
3 72 3 48
3 50 35 1
3 73 35 50
3 73 15 35
3 395 73 396
3 74 397 399
3 397 73 398
3 397 398 399
3 74 15 73
3 74 72 15
3 75 72 74
3 75 3 72
3 75 32 3
3 76 32 75
3 76 400 402
3 402 401 32
3 400 401 402
3 403 76 404
3 405 404 16
3 403 404 405
3 406 76 407
3 409 408 76
3 410 0 411
3 412 0 413
3 412 413 414
3 415 44 416
3 417 416 0
3 415 416 417
3 418 44 419
3 422 421 44
3 420 421 422
3 54 423 425
3 425 424 2
3 423 424 425
3 77 426 428
3 428 427 54
3 426 427 428
3 77 429 430
3 36 77 9
3 78 77 36
3 78 431 433
3 433 432 77
3 431 432 433
3 78 434 435
3 437 436 78
3 79 438 439
3 79 440 441
3 38 79 17
3 80 79 38
3 80 442 444
3 444 443 79
3 442 443 444
3 80 445 447
3 445 66 446
3 445 446 447
3 448 66 449
3 450 449 80
3 448 449 450
3 452 451 66
3 453 39 454
3 453 454 455
3 456 39 457
3 460 459 39
3 458 459 460
3 461 5 462
3 461 462 463
3 40 464 466
3 464 465 466
3 81 467 469
3 469 468 40
3 467 468 469
3 81 470 472
3 470 5 471
3 470 471 472
3 81 46 5
3 473 46 474
3 475 474 81
3 473 474 475
3 477 476 46
3 478 27 479
3 480 27 481
3 482 13 483
3 484 483 27
3 482 483 484
3 82 485 486
3 82 487 489
3 487 13 488
3 487 488 489
3 82 65 13
3 83 65 82
3 83 490 492
3 492 491 65
3 490 491 492
3 493 18 494
3 495 18 496
3 497 83 498
3 499 498 18
3 497 498 499
3 84 500 502
3 500 83 501
3 500 501 502
3 84 503 505
3 505 504 83
3 503 504 505
3 84 506 508
3 506 21 507
3 506 507 508
3 85 21 84
3 85 509 511
3 511 510 21
3 509 510 511
3 42 512 514
3 512 85 513
3 512 513 514
3 86 85 42
3 86 515 517
3 517 516 85
3 515 516 517
3 86 518 520
3 518 52 519
3 518 519 520
3 87 52 86
3 87 521 523
3 523 522 52
3 521 522 523
3 58 43 4
3 524 43 525
3 526 525 58
3 524 525 526
3 527 19 528
3 529 528 43
3 527 528 529
3 530 19 531
3 530 531 532
3 533 87 534
3 535 534 19
3 533 534 535
3 536 87 537
3 539 538 87
