ply
format ascii 1.0
element vertex 276
property float x
property float y
property float z
element face 257
property list uchar int vertex_index
end_header
-35.148685 -51.245071 -27.766279
-26.910576 -64.305252 -8.372621
-31.18865 -58.61401 -18.369013
-31.47887 -54.424015 -11.121252
-35.57563 -47.552517 -20.673944
-32.758831 -57.428562 -26.790991
-29.037773 -61.590431 -13.45422
-33.499035 -51.362915 -15.948343
-37.220871 -44.971561 -28.831141
-30.784777 -61.12011 -22.07172
-33.197727 -55.278038 -22.870277
-27.224144 -61.765274 -4.371099
-29.549377 -57.050438 -5.947886
-29.250834 -59.189922 -9.70512
-31.318205 -56.413811 -14.626274
-33.379097 -53.253422 -19.32214
-35.463818 -49.272774 -24.088095
-33.942715 -54.462208 -27.123306
-26.767792 -65.634895 -10.377374
-27.957811 -62.919647 -10.810432
-29.998699 -61.371464 -17.831785
-31.028357 -59.831558 -20.177551
-32.04491 -58.132584 -22.427734
-32.221142 -56.993488 -20.706776
-31.45109 -52.710964 -3.227919
-31.72308 -53.292042 -9.432466
-30.714506 -54.773899 -6.808947
-30.498817 -55.755482 -8.501895
-29.268639 -58.28627 -7.685504
-30.336708 -56.810436 -10.266831
-30.293507 -57.760975 -12.108358
-31.433958 -55.294388 -12.920373
-34.553684 -49.537491 -18.354401
-33.441826 -52.253677 -17.567581
-34.502491 -50.423134 -20.022093
-34.444359 -51.336449 -21.720293
-35.460522 -48.580826 -22.295874
-31.48805 -60.379627 -26.314247
-30.906553 -61.709938 -28.332386
-32.283028 -58.659229 -28.523071
-30.07925 -60.206444 -15.849923
-32.209038 -51.548763 -5.876814
-33.110058 -50.059345 -8.365663
-32.638969 -51.884476 -11.707279
-32.576855 -52.701698 -13.52943
-33.656586 -50.261898 -14.223347
-25.958611 -65.366013 -5.667358
-36.191879 -48.197758 -28.16534
-31.813005 -59.274349 -24.318327
-33.02095 -56.367771 -24.794743
-34.227577 -53.277561 -25.314302
-26.999849 -63.088367 -6.25663
-30.962704 -53.863853 -4.906942
-29.803232 -56.032501 -4.097448
-28.35718 -59.437767 -5.130463
-28.185335 -60.604271 -7.107281
-28.015427 -61.777596 -8.78892
-29.101971 -60.414169 -11.476011
-30.170952 -58.98251 -13.921995
-31.240749 -57.52845 -16.436089
-32.425392 -53.816139 -15.16246
-32.39452 -54.798153 -17.017008
-32.283913 -55.955547 -18.79664
-33.373547 -54.095325 -21.153658
-34.388844 -52.241985 -23.57583
-35.326813 -50.272568 -25.85429
-36.346443 -47.313549 -26.512373
-34.984619 -51.798357 -28.633589
-34.381634 -53.406925 -28.312102
-34.5457 -52.853639 -27.444792
-26.839184 -64.970073 -9.374997
-26.296155 -66.163337 -9.079777
-26.367547 -65.498516 -8.0774
-32.042501 -51.63999 -3.599006
-31.653581 -52.288347 -2.293593
-36.011716 -46.637707 -21.785742
-35.954162 -47.151862 -22.596706
-35.518076 -48.066671 -21.484909
-28.982532 -62.216143 -14.420264
-28.456315 -62.856746 -13.122734
-29.558512 -60.898438 -14.652071
-29.50327 -61.524149 -15.618115
-28.982532 -62.216143 -14.420264
-33.660826 -48.945896 -8.762549
-33.240908 -49.68957 -7.453612
-33.235591 -50.602695 -12.157898
-32.750565 -51.403716 -10.890746
-33.7444 -49.791407 -13.415931
-33.147778 -51.073187 -12.965313
-33.235591 -50.602695 -12.157898
-25.499893 -65.915897 -4.3868
-25.402237 -66.61216 -5.423316
-30.60129 -62.223849 -29.254807
-31.376871 -60.564451 -29.445909
-37.112412 -45.444555 -29.67485
-36.597915 -47.057654 -29.341949
-36.706375 -46.58466 -28.498241
-30.124112 -62.566124 -21.766716
-30.274138 -61.897518 -20.815414
-30.62883 -61.732605 -23.046352
-29.968165 -63.178619 -22.741347
-30.124112 -62.566124 -21.766716
-31.298891 -60.197229 -23.195023
-31.142944 -60.809725 -24.169655
-30.62883 -61.732605 -23.046352
-26.668242 -62.925736 -3.983324
-26.783735 -62.292659 -3.010988
-27.111997 -62.42682 -5.313865
-26.556094 -63.587282 -4.926089
-26.668242 -62.925736 -3.983324
-31.412529 -53.197443 -6.243106
-31.585871 -52.706308 -5.391878
-32.035696 -52.039898 -6.728042
-29.078758 -57.697501 -4.658739
-29.205686 -57.188532 -3.733521
-29.676305 -56.54147 -5.022667
-28.953278 -58.244102 -5.539174
-28.48266 -58.891165 -4.250028
-29.078758 -57.697501 -4.658739
-33.786997 -54.949993 -28.081634
-33.195055 -56.43317 -27.915477
-33.350773 -55.945385 -26.957148
-33.786997 -54.949993 -28.081634
-34.381634 -53.406925 -28.312102
-26.170153 -66.94577 -10.107676
-26.296155 -66.163337 -9.079777
-26.673229 -66.312679 -11.327849
-26.170153 -66.94577 -10.107676
-27.321324 -64.878979 -11.584312
-26.673229 -66.312679 -11.327849
-27.916334 -63.521355 -11.80084
-27.321324 -64.878979 -11.584312
-27.362801 -64.277271 -10.593903
-28.497792 -62.255039 -12.132326
-28.456315 -62.856746 -13.122734
-27.916334 -63.521355 -11.80084
-37.588867 -43.818476 -29.930264
-37.647524 -43.479822 -29.076523
-29.881099 -62.023195 -18.695447
-29.368573 -62.772642 -17.55982
-30.395929 -61.253242 -19.86833
-29.881099 -62.023195 -18.695447
-30.513528 -60.601511 -19.004668
-30.906567 -60.475834 -21.124636
-30.274138 -61.897518 -20.815414
-30.395929 -61.253242 -19.86833
-27.346781 -61.15506 -3.403333
-26.783735 -62.292659 -3.010988
-31.027664 -53.377365 -1.917339
-31.653581 -52.288347 -2.293593
-30.808986 -53.862314 -2.775669
-31.027664 -53.377365 -1.917339
-31.218793 -54.032971 -8.120707
-31.28843 -53.652466 -7.194109
-31.792717 -52.911538 -8.505868
-35.944778 -47.510615 -23.471383
-35.946427 -47.856589 -24.367493
-35.46217 -48.9268 -23.191985
-35.944778 -47.510615 -23.471383
-35.954162 -47.151862 -22.596706
-31.197302 -61.044782 -27.323317
-30.475431 -62.626381 -27.126502
-30.766179 -61.961225 -26.117432
-32.065109 -59.039096 -29.541251
-31.376871 -60.564451 -29.445909
-31.594791 -60.184584 -28.427729
-32.957154 -57.048504 -28.781517
-32.52093 -58.043896 -27.657031
-33.195055 -56.43317 -27.915477
-32.736016 -57.51997 -29.643168
-32.957154 -57.048504 -28.781517
-33.410141 -55.909244 -29.901613
-32.065109 -59.039096 -29.541251
-32.736016 -57.51997 -29.643168
-29.462995 -62.106659 -16.609046
-29.368573 -62.772642 -17.55982
-30.038974 -60.788954 -16.840854
-29.462995 -62.106659 -16.609046
-29.50327 -61.524149 -15.618115
-32.790398 -50.434279 -6.209188
-32.421475 -51.058889 -4.923453
-32.659548 -50.804054 -7.121239
-32.790398 -50.434279 -6.209188
-33.240908 -49.68957 -7.453612
-32.486206 -51.295189 -7.972466
-32.035696 -52.039898 -6.728042
-32.659548 -50.804054 -7.121239
-33.528773 -49.364023 -9.640847
-33.660826 -48.945896 -8.762549
-32.986109 -50.49115 -9.219938
-33.528773 -49.364023 -9.640847
-32.486206 -51.295189 -7.972466
-32.986109 -50.49115 -9.219938
-32.29262 -52.107499 -9.75334
-31.792717 -52.911538 -8.505868
-32.181024 -52.588259 -10.569872
-32.29262 -52.107499 -9.75334
-32.750565 -51.403716 -10.890746
-34.200516 -49.00203 -14.606024
-33.7444 -49.791407 -13.415931
-34.136337 -49.462872 -15.43995
-34.200516 -49.00203 -14.606024
-34.057562 -50.01338 -16.302448
-33.57781 -50.812407 -15.085845
-34.136337 -49.462872 -15.43995
-34.584886 -49.100668 -17.505477
-34.026359 -50.450203 -17.151372
-34.057562 -50.01338 -16.302448
-35.069009 -48.189881 -18.680806
-34.584886 -49.100668 -17.505477
-35.579982 -47.197394 -19.840578
-35.064657 -48.545004 -19.514173
-35.069009 -48.189881 -18.680806
-36.059538 -46.194445 -21.041244
-35.579982 -47.197394 -19.840578
-25.891565 -66.028897 -6.724769
-25.402237 -66.61216 -5.423316
-26.434593 -64.835633 -7.01999
-26.367547 -65.498516 -8.0774
-25.891565 -66.028897 -6.724769
-30.189307 -63.225266 -28.065531
-30.475431 -62.626381 -27.126502
-30.189307 -63.225266 -28.065531
-30.60129 -62.223849 -29.254807
-36.088755 -48.628348 -29.059013
-35.567158 -50.152004 -28.859482
-35.670282 -49.721415 -27.965809
-36.088755 -48.628348 -29.059013
-36.597915 -47.057654 -29.341949
-37.112412 -45.444555 -29.67485
-37.588867 -43.818476 -29.930264
-30.980466 -61.362364 -25.167615
-30.766179 -61.961225 -26.117432
-31.650528 -59.826988 -25.316287
-30.980466 -61.362364 -25.167615
-31.142944 -60.809725 -24.169655
-26.035475 -64.726105 -4.631453
-25.499893 -65.915897 -4.3868
-26.47923 -64.22719 -5.961994
-26.035475 -64.726105 -4.631453
-26.556094 -63.587282 -4.926089
-31.830064 -52.129863 -4.552366
-32.042501 -51.63999 -3.599006
-32.421475 -51.058889 -4.923453
-30.564793 -54.438758 -3.615181
-30.808986 -53.862314 -2.775669
-31.206897 -53.287408 -4.067431
-30.838605 -54.318876 -5.857945
-31.412529 -53.197443 -6.243106
-31.28843 -53.652466 -7.194109
-29.985057 -55.523083 -3.210433
-30.564793 -54.438758 -3.615181
-30.382968 -54.948177 -4.502195
-29.385885 -56.611179 -2.779158
-29.985057 -55.523083 -3.210433
-29.385885 -56.611179 -2.779158
-29.205686 -57.188532 -3.733521
-27.913299 -59.991307 -3.783015
-28.48266 -58.891165 -4.250028
-27.790662 -60.60152 -4.750781
-27.346781 -61.15506 -3.403333
-27.913299 -59.991307 -3.783015
-36.387739 -46.876976 -25.579632
-35.90513 -48.293161 -25.300234
-35.946427 -47.856589 -24.367493
-36.819193 -45.795134 -26.753622
-36.387739 -46.876976 -25.579632
-37.256407 -44.624139 -27.913006
-36.783657 -46.142555 -27.671757
-36.819193 -45.795134 -26.753622
-37.647524 -43.479822 -29.076523
-37.256407 -44.624139 -27.913006
-36.011716 -46.637707 -21.785742
-36.059538 -46.194445 -21.041244
-34.984619 -51.798357 -28.633589
-35.567158 -50.152004 -28.859482
3 0 67 69
3 69 68 17
3 67 68 69
3 1 70 72
3 70 18 71
3 70 71 72
3 1 19 18
3 2 21 20
3 2 23 21
3 73 24 74
3 3 27 25
3 3 29 27
3 3 31 29
3 4 34 32
3 4 36 34
3 4 75 77
3 77 76 36
3 75 76 77
3 5 39 37
3 6 78 79
3 6 80 82
3 80 40 81
3 80 81 82
3 83 42 84
3 85 43 86
3 87 45 88
3 89 88 43
3 87 88 89
3 90 46 91
3 93 92 38
3 8 94 96
3 96 95 47
3 94 95 96
3 9 97 98
3 9 99 101
3 99 100 101
3 9 102 104
3 102 48 103
3 102 103 104
3 10 49 22
3 10 50 49
3 11 105 106
3 11 107 109
3 107 51 108
3 107 108 109
3 110 52 111
3 112 111 41
3 110 111 112
3 12 53 26
3 12 113 115
3 115 114 53
3 113 114 115
3 12 116 118
3 116 54 117
3 116 117 118
3 13 55 28
3 13 56 55
3 13 57 56
3 14 58 30
3 14 59 58
3 7 60 44
3 15 61 33
3 15 62 61
3 15 63 62
3 16 64 35
3 16 65 64
3 16 66 65
3 17 119 121
3 121 120 5
3 119 120 121
3 123 122 17
3 18 124 125
3 18 126 127
3 18 128 129
3 19 130 132
3 132 131 18
3 130 131 132
3 19 133 135
3 133 6 134
3 133 134 135
3 137 136 8
3 20 138 139
3 21 140 142
3 142 141 20
3 140 141 142
3 21 143 145
3 143 9 144
3 143 144 145
3 21 22 9
3 23 22 21
3 23 10 22
3 146 11 147
3 24 148 149
3 24 150 151
3 25 152 154
3 152 26 153
3 152 153 154
3 27 26 25
3 27 12 26
3 27 28 12
3 29 28 27
3 29 13 28
3 29 30 13
3 31 30 29
3 31 14 30
3 32 33 7
3 34 33 32
3 34 15 33
3 34 35 15
3 36 35 34
3 36 16 35
3 36 155 157
3 157 156 16
3 155 156 157
3 159 158 36
3 37 160 162
3 160 38 161
3 160 161 162
3 39 38 37
3 39 163 165
3 165 164 38
3 163 164 165
3 166 39 167
3 168 167 5
3 166 167 168
3 169 39 170
3 169 170 171
3 173 172 39
3 174 20 175
3 40 176 178
3 176 20 177
3 176 177 178
3 40 2 20
3 179 41 180
3 42 181 183
3 181 41 182
3 181 182 183
3 42 184 186
3 186 185 41
3 184 185 186
3 187 42 188
3 189 42 190
3 192 191 42
3 193 25 194
3 43 195 197
3 195 25 196
3 195 196 197
3 43 3 25
3 43 44 3
3 45 44 43
3 45 7 44
3 198 45 199
3 200 45 201
3 202 7 203
3 204 203 45
3 202 203 204
3 205 32 206
3 207 206 7
3 205 206 207
3 208 32 209
3 210 4 211
3 212 211 32
3 210 211 212
3 214 213 4
3 46 215 216
3 46 217 219
3 217 1 218
3 217 218 219
3 38 220 221
3 223 222 38
3 47 224 226
3 226 225 0
3 224 225 226
3 228 227 47
3 230 229 8
3 231 37 232
3 48 233 235
3 233 37 234
3 233 234 235
3 48 5 37
3 22 48 9
3 49 48 22
3 49 5 48
3 49 17 5
3 50 17 49
3 50 0 17
3 236 46 237
3 51 238 240
3 238 46 239
3 238 239 240
3 51 1 46
3 41 241 243
3 241 24 242
3 241 242 243
3 52 24 41
3 52 244 246
3 246 245 24
3 244 245 246
3 26 247 249
3 247 52 248
3 247 248 249
3 53 52 26
3 53 250 252
3 252 251 52
3 250 251 252
3 53 253 254
3 256 255 53
3 54 257 258
3 54 259 261
3 259 11 260
3 259 260 261
3 28 54 12
3 55 54 28
3 55 11 54
3 55 51 11
3 56 51 55
3 56 1 51
3 56 19 1
3 57 19 56
3 57 6 19
3 30 57 13
3 58 57 30
3 58 6 57
3 58 40 6
3 59 40 58
3 59 2 40
3 44 31 3
3 60 31 44
3 60 14 31
3 33 60 7
3 61 60 33
3 61 14 60
3 61 59 14
3 62 59 61
3 62 2 59
3 62 23 2
3 63 23 62
3 63 10 23
3 35 63 15
3 64 63 35
3 64 10 63
3 64 50 10
3 65 50 64
3 65 0 50
3 65 47 0
3 66 47 65
3 66 8 47
3 262 66 263
3 264 263 16
3 262 263 264
3 265 66 266
3 267 8 268
3 269 268 66
3 267 268 269
3 271 270 8
3 273 272 4
3 275 274 0
