ply
format ascii 1.0
element vertex 123
property float x
property float y
property float z
element face 97
property list uchar int vertex_index
end_header
34.40773 -40.078697 19.453417
35.478424 -39.654533 14.501404
33.595901 -43.150291 15.749352
32.485699 -45.825512 11.820914
32.459229 -42.231483 22.253839
33.529343 -40.355568 21.766218
33.323582 -41.997395 20.061596
34.045021 -41.648487 17.744829
32.048107 -46.407333 14.484375
32.687759 -38.40012 25.240002
33.712559 -38.502972 23.285553
34.613544 -38.452858 21.165054
35.400089 -38.322079 18.726345
35.90815 -38.243076 16.352638
34.997124 -39.986233 16.963633
34.547169 -41.387844 15.257518
34.04607 -42.697739 13.174391
33.068329 -44.535549 13.692926
32.386158 -43.025098 21.35409
31.941216 -43.122791 22.47148
32.818335 -42.908054 20.257969
32.891406 -42.114439 21.157718
32.386158 -43.025098 21.35409
33.18273 -42.729195 19.153938
32.818335 -42.908054 20.257969
32.684434 -39.353779 24.491284
32.153185 -39.245048 25.494632
33.196834 -39.405205 23.514059
33.200159 -38.451546 24.262777
32.684434 -39.353779 24.491284
32.964168 -44.90695 11.489497
33.255483 -44.261969 12.425503
32.777014 -45.180531 12.75692
32.67923 -45.459183 10.498622
32.964168 -44.90695 11.489497
35.926431 -38.746779 14.242164
36.141295 -38.04105 15.167781
35.693287 -38.948805 15.427021
32.005425 -42.151302 23.306016
31.941216 -43.122791 22.47148
32.570169 -41.26946 22.998202
32.005425 -42.151302 23.306016
32.994286 -41.293526 22.010028
33.105227 -40.331503 22.754391
32.570169 -41.26946 22.998202
33.543449 -42.554741 17.995554
33.684302 -41.822941 18.903213
33.18273 -42.729195 19.153938
33.318889 -43.305643 16.997816
33.820461 -42.399389 16.74709
33.543449 -42.554741 17.995554
31.55733 -47.331897 14.747509
31.762971 -46.686091 15.730536
31.272194 -47.610655 15.99367
31.772247 -47.070965 13.535946
31.55733 -47.331897 14.747509
31.991043 -46.780054 12.204216
32.266903 -46.116422 13.152645
31.772247 -47.070965 13.535946
31.69385 -47.39806 11.289115
32.188507 -46.443517 10.905813
31.991043 -46.780054 12.204216
35.44019 -40.012085 12.313742
35.710487 -39.339224 13.229321
35.208126 -40.327394 13.585826
32.025252 -38.289597 26.247549
32.153185 -39.245048 25.494632
32.647148 -37.432671 25.916071
32.025252 -38.289597 26.247549
33.226215 -37.535521 24.954821
32.647148 -37.432671 25.916071
33.738615 -37.586946 23.977597
33.226215 -37.535521 24.954821
33.200159 -38.451546 24.262777
34.223336 -37.577492 23.028164
33.738615 -37.586946 23.977597
33.620951 -39.42927 22.525886
33.196834 -39.405205 23.514059
33.105227 -40.331503 22.754391
34.673828 -37.552435 21.967914
34.223336 -37.577492 23.028164
34.163051 -38.477915 22.225304
35.082271 -37.582117 20.879442
34.673828 -37.552435 21.967914
35.475544 -37.516728 19.660087
35.082271 -37.582117 20.879442
35.006816 -38.387468 19.945699
35.830641 -37.479525 18.421178
35.475544 -37.516728 19.660087
35.65412 -38.282578 17.539491
36.084671 -37.440024 17.234324
35.830641 -37.479525 18.421178
34.742498 -41.19405 13.963883
35.208126 -40.327394 13.585826
35.012796 -40.521189 14.879461
34.491949 -41.848997 12.922319
34.742498 -41.19405 13.963883
34.296619 -42.042791 14.215954
34.227926 -42.410454 11.932624
34.491949 -41.848997 12.922319
33.068984 -44.10512 16.044374
33.318889 -43.305643 16.997816
32.295088 -45.73364 15.411886
31.762971 -46.686091 15.730536
32.805199 -44.797748 15.016162
32.295088 -45.73364 15.411886
32.558218 -45.471441 14.08865
33.332115 -43.84292 14.721139
33.068984 -44.10512 16.044374
32.805199 -44.797748 15.016162
33.744354 -43.343063 12.166236
33.557199 -43.616644 13.433658
33.255483 -44.261969 12.425503
34.227926 -42.410454 11.932624
33.744354 -43.343063 12.166236
32.67923 -45.459183 10.498622
32.188507 -46.443517 10.905813
36.355415 -37.315643 16.008252
36.084671 -37.440024 17.234324
36.355415 -37.315643 16.008252
36.141295 -38.04105 15.167781
35.926431 -38.746779 14.242164
35.710487 -39.339224 13.229321
3 18 4 19
3 20 6 21
3 22 21 4
3 20 21 22
3 24 23 6
3 25 9 26
3 27 10 28
3 29 28 9
3 27 28 29
3 0 11 5
3 0 12 11
3 0 14 12
3 2 15 7
3 2 16 15
3 3 17 8
3 3 30 32
3 32 31 17
3 30 31 32
3 3 33 34
3 1 35 37
3 37 36 13
3 35 36 37
3 4 38 39
3 4 40 41
3 4 42 44
3 42 5 43
3 42 43 44
3 6 5 4
3 6 0 5
3 6 7 0
3 45 7 46
3 47 46 6
3 45 46 47
3 48 2 49
3 50 49 7
3 48 49 50
3 51 8 52
3 51 52 53
3 54 8 55
3 56 3 57
3 58 57 8
3 56 57 58
3 61 60 3
3 59 60 61
3 64 63 1
3 62 63 64
3 9 65 66
3 9 67 68
3 9 69 70
3 10 71 73
3 73 72 9
3 71 72 73
3 10 74 75
3 5 76 78
3 76 10 77
3 76 77 78
3 11 10 5
3 11 79 81
3 81 80 10
3 79 80 81
3 11 82 83
3 12 84 86
3 86 85 11
3 84 85 86
3 12 87 88
3 12 89 91
3 89 13 90
3 89 90 91
3 14 13 12
3 14 1 13
3 7 14 0
3 15 14 7
3 15 1 14
3 15 92 94
3 94 93 1
3 92 93 94
3 16 95 97
3 97 96 15
3 95 96 97
3 16 98 99
3 100 2 101
3 8 102 103
3 17 104 106
3 106 105 8
3 104 105 106
3 17 107 109
3 107 2 108
3 107 108 109
3 17 16 2
3 110 16 111
3 112 111 17
3 110 111 112
3 114 113 16
3 116 115 3
3 13 117 118
3 120 119 13
3 122 121 1
