ply
format ascii 1.0
element vertex 315
property float x
property float y
property float z
element face 263
property list uchar int vertex_index
end_header
-30.713982 0.982061 37.034676
-30.307217 -7.881915 52.732025
-33.031971 5.460977 30.197823
-29.837954 -3.48199 44.42215
-29.962809 -5.497807 48.470093
-31.25313 9.058376 36.724728
-31.724203 3.075271 33.616119
-32.305763 11.24941 32.994881
-33.61861 13.569678 29.25742
-30.072046 -1.135258 40.6717
-30.258711 4.586345 44.094128
-30.584408 6.844875 40.238327
-32.339787 -2.895125 30.671637
-30.39678 -2.917398 37.327747
-30.856787 -1.848989 35.557312
-30.207518 -11.48798 52.935009
-30.004793 -10.348992 50.886143
-30.101585 -6.707104 50.509731
-31.748755 10.124889 34.817223
-31.984037 14.237522 34.45472
-34.382908 14.681535 27.205223
-34.598923 18.684998 26.48266
-29.682396 -6.202343 42.734592
-29.818626 -5.094357 40.828728
-29.895786 -2.477667 42.525105
-30.370331 5.658574 42.149143
-32.349209 4.462821 31.945576
-32.03685 0.095722 32.082966
-32.719318 1.282753 30.41268
-29.568298 -11.830022 47.000523
-29.707584 -8.272243 46.700123
-29.852213 -4.629406 46.271202
-33.802521 6.377413 28.292767
-30.518412 -8.976631 54.831429
-30.997379 5.054575 36.900528
-31.178507 2.142331 35.340202
-31.465117 6.247111 35.179447
-32.029522 7.25785 33.363129
-32.677113 8.495512 31.545563
-32.94318 12.717268 31.139961
-33.333179 9.489513 29.813833
-34.837669 31.294888 23.733042
-34.82325 27.160337 24.742907
-34.750034 22.899487 25.655468
-30.044374 -4.100393 39.082912
-30.343832 -0.096722 38.782616
-30.22266 -2.848689 50.357525
-30.031418 -0.78534 46.106148
-30.046875 0.47602 44.151066
-30.139494 1.658584 42.369682
-30.331215 2.824472 40.466877
-30.635956 4.013829 38.557949
-30.894884 8.135766 38.406925
-31.407162 -0.915004 33.805126
-31.865277 15.804475 35.124566
-31.760271 13.693103 35.32943
-34.304831 20.263597 27.189581
-34.210245 18.208915 27.586272
-29.760175 -4.842167 43.578371
-29.665648 -6.707859 43.630487
-29.743427 -5.347683 44.474266
-29.624598 -12.48224 47.964398
-29.499595 -13.627868 47.078646
-29.835197 -6.885025 47.585108
-29.766293 -8.817101 47.735153
-29.893906 -7.429883 48.620138
-34.057716 4.760862 27.458854
-34.192034 6.80793 27.343404
-30.620491 -9.471652 55.888344
-30.474705 -10.822629 54.953772
-30.576784 -11.317651 56.010687
-33.280895 13.143473 30.19869
-33.063087 14.697885 30.849318
-33.400802 15.12409 29.908048
-33.87531 12.078699 28.514038
-33.732595 10.038616 28.792245
-33.475894 11.529595 29.535626
-34.653254 13.035839 26.476631
-34.769762 15.280205 26.160371
-35.194599 31.833014 22.481802
-34.83867 33.380146 23.088889
-35.143168 25.749132 24.077471
-35.163092 27.70612 23.62238
-35.10656 23.618707 24.533752
-34.786642 25.029912 25.199188
-35.143168 25.749132 24.077471
-35.413568 22.240568 23.834395
-35.057043 21.521348 24.956111
-35.10656 23.618707 24.533752
-30.332375 -1.521317 51.21311
-30.298592 -3.529291 51.385905
-30.137576 0.626117 47.050157
-30.064334 -1.337348 47.166237
-30.238846 3.940221 45.074913
-30.324011 6.014852 44.953806
-30.152793 2.531182 44.122597
-30.132928 1.885059 45.103382
-30.238846 3.940221 45.074913
-32.005849 -3.464765 31.488063
-31.854381 -1.969342 32.193727
-32.188319 -1.399702 31.377302
-32.149597 -4.943938 30.778518
-32.005849 -3.464765 31.488063
-30.452777 -4.37086 36.588882
-30.247025 -4.764903 37.470139
-30.68278 -3.836655 35.703665
-30.452777 -4.37086 36.588882
-30.626784 -2.383193 36.44253
-30.959409 -3.31641 34.802662
-30.68278 -3.836655 35.703665
-30.053551 -12.706995 52.061611
-30.169761 -13.2924 53.168593
-29.952188 -12.137501 51.037178
-30.053551 -12.706995 52.061611
-30.106155 -10.918486 51.910576
-29.842845 -11.741726 49.907207
-29.952188 -12.137501 51.037178
-29.914898 -9.855476 49.828164
-29.842845 -11.741726 49.907207
-29.963294 -8.034532 49.639958
-29.914898 -9.855476 49.828164
-30.053189 -8.528048 50.697937
-30.032197 -6.102455 49.489912
-29.893906 -7.429883 48.620138
-29.963294 -8.034532 49.639958
-31.64263 11.636787 35.510682
-31.500943 9.591632 35.770975
-31.394817 11.103531 36.464434
-31.866396 12.181206 34.635971
-31.64263 11.636787 35.510682
-31.760271 13.693103 35.32943
-33.720089 15.651255 28.973652
-33.400802 15.12409 29.908048
-34.102238 16.207183 27.947553
-34.000759 14.125606 28.231321
-33.720089 15.651255 28.973652
-34.490915 16.683267 26.843941
-34.102238 16.207183 27.947553
-34.210245 18.208915 27.586272
-34.877769 17.281937 25.79909
-34.769762 15.280205 26.160371
-34.490915 16.683267 26.843941
-29.582308 -8.112958 42.831903
-29.665648 -6.707859 43.630487
-29.635694 -7.505526 41.9135
-29.582308 -8.112958 42.831903
-29.750511 -5.64835 41.78166
-29.703809 -6.951533 40.960567
-29.635694 -7.505526 41.9135
-30.356897 6.598276 43.894947
-30.324011 6.014852 44.953806
-30.412706 7.134391 42.922455
-30.314521 5.122459 43.121635
-30.356897 6.598276 43.894947
-30.487828 7.830834 41.985586
-30.412706 7.134391 42.922455
-30.594866 8.423985 41.030178
-30.47737 6.251724 41.193735
-30.487828 7.830834 41.985586
-30.705353 8.896771 40.073351
-30.594866 8.423985 41.030178
-29.456692 -13.088147 46.080179
-29.499595 -13.627868 47.078646
-29.53363 -11.270644 46.011141
-29.456692 -13.088147 46.080179
-29.69665 -10.595991 47.885354
-29.624598 -12.48224 47.964398
-29.637941 -10.051132 46.850323
-29.69665 -10.595991 47.885354
-29.766293 -8.817101 47.735153
-29.603273 -9.491754 45.860941
-29.53363 -11.270644 46.011141
-29.637941 -10.051132 46.850323
-29.678242 -7.742809 45.613253
-29.603273 -9.491754 45.860941
-29.750557 -5.921391 45.398792
-29.678242 -7.742809 45.613253
-29.779899 -6.450824 46.485663
-29.845084 -4.055698 45.346676
-29.743427 -5.347683 44.474266
-29.750557 -5.921391 45.398792
-33.633583 4.363085 28.470576
-33.248308 3.904867 29.423105
-33.417246 5.919195 29.245295
-33.633583 4.363085 28.470576
-34.057716 4.760862 27.458854
-30.319258 -12.078304 54.005562
-30.169761 -13.2924 53.168593
-30.362965 -10.232305 53.883219
-30.319258 -12.078304 54.005562
-30.474705 -10.822629 54.953772
-32.104606 16.343538 34.138548
-31.865277 15.804475 35.124566
-32.267497 14.823576 33.483232
-32.104606 16.343538 34.138548
-32.42836 13.32952 32.753313
-32.1449 12.743466 33.724801
-32.267497 14.823576 33.483232
-32.747068 14.06345 31.825853
-33.063087 14.697885 30.849318
-32.624471 11.983339 32.067421
-32.42836 13.32952 32.753313
-32.747068 14.06345 31.825853
-33.967266 8.482566 28.031712
-33.56785 7.933463 29.0533
-33.732595 10.038616 28.792245
-34.192034 6.80793 27.343404
-33.967266 8.482566 28.031712
-34.257459 12.634628 27.48794
-33.87531 12.078699 28.514038
-34.000759 14.125606 28.231321
-34.257459 12.634628 27.48794
-34.653254 13.035839 26.476631
-34.519559 32.786108 24.311528
-34.83867 33.380146 23.088889
-34.53336 30.692749 24.824883
-34.519559 32.786108 24.311528
-35.170302 29.773396 23.117447
-35.194599 31.833014 22.481802
-34.83046 29.227612 24.237974
-35.170302 29.773396 23.117447
-35.163092 27.70612 23.62238
-34.52615 28.625473 25.329815
-34.53336 30.692749 24.824883
-34.83046 29.227612 24.237974
-34.494543 26.624997 25.818315
-34.52615 28.625473 25.329815
-34.457935 24.494572 26.274596
-34.494543 26.624997 25.818315
-34.786642 25.029912 25.199188
-34.380386 22.370842 26.775985
-34.457935 24.494572 26.274596
-34.674478 20.792243 26.069064
-34.304831 20.263597 27.189581
-34.380386 22.370842 26.775985
-34.981488 19.414103 25.369707
-34.674478 20.792243 26.069064
-35.057043 21.521348 24.956111
-34.877769 17.281937 25.79909
-34.981488 19.414103 25.369707
-29.801103 -6.507407 40.056458
-29.703809 -6.951533 40.960567
-29.913978 -6.010426 39.183549
-29.801103 -6.507407 40.056458
-29.9315 -4.597375 39.95582
-30.070822 -5.356401 38.347721
-29.913978 -6.010426 39.183549
-30.220577 -3.508896 38.20533
-30.247025 -4.764903 37.470139
-30.070822 -5.356401 38.347721
-30.641038 -7.596637 55.766748
-30.620491 -9.471652 55.888344
-30.542331 -7.045319 54.656909
-30.641038 -7.596637 55.766748
-30.664957 -5.665325 55.592228
-30.436734 -6.497962 53.607207
-30.412815 -8.429273 53.781727
-30.542331 -7.045319 54.656909
-30.34087 -6.045904 52.573155
-30.436734 -6.497962 53.607207
-30.238054 -5.458499 51.462007
-30.204401 -7.29451 51.620878
-30.34087 -6.045904 52.573155
-30.162123 -4.777896 50.433628
-30.238054 -5.458499 51.462007
-30.298592 -3.529291 51.385905
-30.270498 -0.993531 50.170777
-30.332375 -1.521317 51.21311
-30.159955 -2.369022 49.291926
-30.270498 -0.993531 50.170777
-30.030029 -3.693582 48.348209
-30.092734 -4.173248 49.413809
-30.159955 -2.369022 49.291926
-29.974731 -3.259381 47.248764
-29.907511 -5.063607 47.370648
-30.030029 -3.693582 48.348209
-29.941815 -2.707373 46.188675
-29.974731 -3.259381 47.248764
-30.064334 -1.337348 47.166237
-30.1252 1.254379 46.080923
-30.137576 0.626117 47.050157
-30.039147 -0.15466 45.128607
-30.1252 1.254379 46.080923
-30.132928 1.885059 45.103382
-30.860591 9.542217 39.15765
-30.739646 7.490321 39.322626
-30.705353 8.896771 40.073351
-31.018698 10.177091 38.250063
-30.860591 9.542217 39.15765
-31.197821 10.638397 37.408964
-31.074007 8.597071 37.565827
-31.018698 10.177091 38.250063
-31.394817 11.103531 36.464434
-31.197821 10.638397 37.408964
-31.234597 -2.849418 33.926569
-30.959409 -3.31641 34.802662
-31.131974 -1.381997 34.681219
-31.539537 -2.474705 33.054807
-31.722006 -0.409641 32.944046
-31.854381 -1.969342 32.193727
-31.234597 -2.849418 33.926569
-31.539537 -2.474705 33.054807
-33.091982 1.815755 29.530533
-32.875644 3.371865 30.305252
-33.248308 3.904867 29.423105
-32.89854 -0.400148 29.660231
-33.091982 1.815755 29.530533
-32.708775 -2.489087 29.78971
-32.529553 -0.806186 30.542158
-32.89854 -0.400148 29.660231
-32.523153 -4.443034 29.901791
-32.708775 -2.489087 29.78971
-32.332964 -6.491848 30.008672
-32.149597 -4.943938 30.778518
-32.523153 -4.443034 29.901791
3 0 14 13
3 1 16 15
3 1 17 16
3 54 19 55
3 56 21 57
3 3 58 60
3 58 22 59
3 58 59 60
3 3 24 22
3 2 28 26
3 61 29 62
3 4 63 65
3 63 30 64
3 63 64 65
3 4 31 30
3 67 66 32
3 68 33 69
3 68 69 70
3 5 36 34
3 7 37 18
3 7 38 37
3 8 71 73
3 71 39 72
3 71 72 73
3 8 40 39
3 8 74 76
3 76 75 40
3 74 75 76
3 78 77 20
3 79 41 80
3 81 42 82
3 83 43 84
3 85 84 42
3 83 84 85
3 88 87 43
3 86 87 88
3 9 44 23
3 9 45 44
3 89 46 90
3 91 47 92
3 10 93 94
3 10 95 97
3 95 48 96
3 95 96 97
3 10 49 48
3 11 50 25
3 11 51 50
3 11 52 51
3 6 53 35
3 12 98 100
3 100 99 27
3 98 99 100
3 12 101 102
3 13 103 104
3 14 105 107
3 107 106 13
3 105 106 107
3 14 108 109
3 15 110 111
3 16 112 114
3 114 113 15
3 112 113 114
3 16 115 116
3 16 117 118
3 17 119 121
3 121 120 16
3 119 120 121
3 17 122 124
3 122 4 123
3 122 123 124
3 125 18 126
3 127 126 5
3 125 126 127
3 19 128 130
3 128 18 129
3 128 129 130
3 19 7 18
3 131 8 132
3 133 20 134
3 135 134 8
3 133 134 135
3 21 136 138
3 136 20 137
3 136 137 138
3 21 139 141
3 141 140 20
3 139 140 141
3 22 142 143
3 22 144 145
3 22 146 148
3 146 23 147
3 146 147 148
3 24 23 22
3 24 9 23
3 149 10 150
3 151 25 152
3 153 152 10
3 151 152 153
3 154 25 155
3 156 11 157
3 158 157 25
3 156 157 158
3 160 159 11
3 26 27 6
3 28 27 26
3 28 12 27
3 29 161 162
3 29 163 164
3 165 29 166
3 30 167 169
3 167 29 168
3 167 168 169
3 30 170 172
3 172 171 29
3 170 171 172
3 30 173 174
3 31 175 177
3 177 176 30
3 175 176 177
3 31 178 180
3 178 3 179
3 178 179 180
3 32 181 183
3 183 182 2
3 181 182 183
3 185 184 32
3 186 15 187
3 33 188 190
3 188 15 189
3 188 189 190
3 33 1 15
3 34 35 0
3 36 35 34
3 36 6 35
3 18 36 5
3 37 36 18
3 37 6 36
3 37 26 6
3 38 26 37
3 38 2 26
3 191 19 192
3 193 19 194
3 195 7 196
3 197 196 19
3 195 196 197
3 39 198 199
3 39 200 202
3 200 7 201
3 200 201 202
3 39 38 7
3 40 38 39
3 40 2 38
3 40 32 2
3 203 32 204
3 205 204 40
3 203 204 205
3 207 206 32
3 20 208 210
3 210 209 8
3 208 209 210
3 212 211 20
3 41 213 214
3 41 215 216
3 217 41 218
3 42 219 221
3 219 41 220
3 219 220 221
3 42 222 224
3 224 223 41
3 222 223 224
3 42 225 226
3 43 227 229
3 229 228 42
3 227 228 229
3 43 230 231
3 43 232 234
3 232 21 233
3 232 233 234
3 235 21 236
3 237 236 43
3 235 236 237
3 239 238 21
3 23 240 241
3 44 242 244
3 244 243 23
3 242 243 244
3 44 245 246
3 44 247 249
3 247 13 248
3 247 248 249
3 45 13 44
3 45 0 13
3 250 33 251
3 252 33 253
3 252 253 254
3 255 1 256
3 257 256 33
3 255 256 257
3 258 1 259
3 260 17 261
3 262 261 1
3 260 261 262
3 46 263 265
3 263 17 264
3 263 264 265
3 46 4 17
3 266 46 267
3 268 46 269
3 270 4 271
3 272 271 46
3 270 271 272
3 273 31 274
3 275 274 4
3 273 274 275
3 47 276 278
3 276 31 277
3 276 277 278
3 47 3 31
3 279 47 280
3 48 281 283
3 281 47 282
3 281 282 283
3 48 3 47
3 48 24 3
3 49 24 48
3 49 9 24
3 25 49 10
3 50 49 25
3 50 9 49
3 50 45 9
3 51 45 50
3 51 0 45
3 51 34 0
3 52 34 51
3 52 5 34
3 284 52 285
3 286 285 11
3 284 285 286
3 287 52 288
3 289 5 290
3 291 290 52
3 289 290 291
3 293 292 5
3 35 14 0
3 53 14 35
3 53 294 296
3 296 295 14
3 294 295 296
3 27 53 6
3 297 53 298
3 299 298 27
3 297 298 299
3 301 300 53
3 302 28 303
3 304 303 2
3 302 303 304
3 305 28 306
3 307 12 308
3 309 308 28
3 307 308 309
3 310 12 311
3 314 313 12
3 312 313 314
