ply
format ascii 1.0
element vertex 372
property float x
property float y
property float z
element face 365
property list uchar int vertex_index
end_header
-29.181307 -27.797338 39.302681
-29.98098 -22.005087 54.184189
-29.596855 -14.227453 37.956196
-30.513762 -25.0196 31.954317
-31.574341 -10.805531 31.172953
-29.219492 -30.772476 47.589344
-29.226894 -17.935442 45.534904
-30.097269 -6.612409 37.61253
-30.421453 -12.334865 34.47332
-31.062031 -4.783832 34.048012
-29.492466 -36.586491 48.378136
-30.132004 -15.096819 53.402176
-29.529577 -19.909447 49.850327
-29.680897 -13.134459 48.928272
-29.498962 -10.711266 45.021759
-29.826128 -39.828651 56.842674
-30.603441 -17.024683 57.953533
-29.273319 -21.267891 38.448116
-29.664133 -26.236601 35.603863
-29.926613 -19.667223 34.93911
-30.978519 -18.118658 31.488857
-29.285299 -35.064003 44.325485
-29.04705 -29.211967 43.262245
-29.450111 -26.418226 50.666203
-29.111029 -24.543421 46.405727
-29.014856 -22.816666 42.330906
-29.219425 -16.035212 41.589844
-29.588991 -8.808709 41.092407
-30.508774 -5.824322 35.850018
-29.899584 -13.926009 51.188213
-29.825003 -9.36196 48.770184
-29.219557 -30.974016 39.845196
-29.421467 -33.23727 38.381706
-29.379889 -30.247162 37.831554
-29.401003 -17.77352 38.23608
-29.545897 -20.319984 36.715271
-29.73262 -16.914436 36.387444
-30.959475 -11.729503 32.785595
-30.648157 -15.450468 33.027782
-31.25605 -14.465955 31.354948
-29.335569 -33.796673 47.9132
-29.367495 -35.844116 46.312138
-29.214903 -32.96402 45.934856
-29.148682 -32.307873 43.83342
-29.101866 -30.103661 45.388626
-29.35771 -18.738781 47.730503
-29.29538 -22.178711 48.188457
-29.155766 -21.258713 46.05772
-29.031221 -23.507164 44.432713
-29.077568 -20.35339 43.838448
-29.087679 -19.566729 41.873882
-29.17963 -16.946796 43.458549
-29.648901 -7.213376 44.526382
-29.48222 -10.023573 42.929214
-30.061857 -25.877007 33.684944
-29.938995 -29.128216 34.099121
-29.84289 -10.533196 37.665501
-29.954807 -13.146448 36.23465
-30.230482 -9.493038 35.982117
-30.714348 -8.684348 34.288712
-31.269323 -7.92677 32.65506
-29.482063 -34.34026 49.996632
-29.370855 -31.630707 49.537815
-30.048706 -18.613539 53.778011
-29.754921 -20.887779 52.05928
-29.822653 -17.55603 51.680775
-29.606346 -16.535526 49.486279
-29.430893 -15.425714 47.156769
-29.345087 -14.346271 45.159836
-29.864845 -41.568356 54.827007
-30.293928 -19.415512 55.988068
-30.372757 -16.145521 55.623871
-30.430998 -12.668628 55.076115
-29.195717 -24.408371 38.864079
-29.367214 -27.179495 37.516987
-29.437077 -23.777782 37.000111
-29.776751 -23.196823 35.176216
-30.187084 -22.253435 33.52813
-30.154049 -16.007582 34.684338
-30.412281 -18.932402 33.183788
-30.710302 -21.595123 31.752584
-29.557243 -38.545647 46.765751
-29.266308 -34.365482 42.19775
-29.141117 -31.438042 41.786777
-29.069838 -28.397903 41.241211
-29.488457 -29.508865 51.233082
-29.292578 -28.565872 49.102184
-29.482155 -23.195496 50.312351
-29.257786 -25.331745 48.521057
-29.129696 -27.678421 46.899349
-29.029934 -26.904034 44.758141
-28.998661 -25.868069 42.866589
-29.049969 -25.440962 40.823196
-29.091419 -21.985281 40.387032
-29.201645 -18.578457 39.96666
-29.364826 -15.078013 39.65427
-29.324358 -13.387861 43.309319
-29.386692 -12.492611 41.344952
-29.562145 -11.333798 39.542507
-29.783581 -7.920458 39.284187
-29.617123 -29.3908 35.942303
-31.671911 -4.034406 32.304489
-31.959408 -6.992752 30.885399
-31.763685 -12.301865 30.364013
-31.604539 -14.132077 30.455011
-31.415195 -12.635743 31.26395
-29.839075 -23.042212 53.288592
-29.956271 -23.561318 54.411545
-29.665648 -6.707859 43.630487
-29.743427 -5.347683 44.474266
-30.436222 -26.749374 32.06553
-30.21027 -27.178077 32.930844
-30.28781 -25.448304 32.819631
-29.521426 -33.37643 50.881361
-29.568706 -34.843933 51.078466
-29.465822 -32.021654 50.651953
-29.426459 -32.985484 49.767224
-29.521426 -33.37643 50.881361
-29.624598 -12.48224 47.964398
-29.499595 -13.627868 47.078646
-29.555895 -14.280086 48.04252
-29.766293 -8.817101 47.735153
-29.893906 -7.429883 48.620138
-29.757585 -40.200111 57.773436
-29.827724 -38.75543 57.643274
-29.794903 -41.227081 56.791906
-29.72636 -41.598541 57.722668
-29.757585 -40.200111 57.773436
-29.845486 -40.698504 55.83484
-29.814262 -42.096934 55.784073
-29.794903 -41.227081 56.791906
-29.638274 -34.083303 36.686434
-29.543371 -34.387981 37.662743
-29.51637 -32.932592 37.405397
-30.556562 -18.691626 58.140776
-30.674292 -17.558498 59.024023
-30.448684 -18.220098 56.9708
-30.401806 -19.887041 57.158043
-30.556562 -18.691626 58.140776
-30.576784 -11.317651 56.010687
-30.541556 -13.151832 56.178219
-30.687342 -11.800855 57.112791
-30.474705 -10.822629 54.953772
-30.576784 -11.317651 56.010687
-31.150907 -19.625349 30.685008
-31.016799 -21.363582 30.816871
-30.84441 -19.85689 31.62072
-29.524855 -37.566069 47.571944
-29.612444 -38.909832 47.741366
-29.580056 -37.930254 48.547558
-29.375395 -36.422394 44.573113
-29.416494 -36.81245 45.566439
-29.326397 -35.454059 45.318811
-29.35342 -36.076763 43.606964
-29.375395 -36.422394 44.573113
-29.275803 -34.714742 43.261617
-29.343924 -35.727502 42.543097
-29.35342 -36.076763 43.606964
-29.469284 -27.963546 50.949643
-29.582721 -28.367545 52.055155
-29.563548 -26.822226 51.771715
-29.905597 -30.637743 34.332627
-30.088299 -30.333978 33.316007
-32.005849 -3.464765 31.488063
-31.854381 -1.969342 32.193727
-32.149597 -4.943938 30.778518
-31.81566 -5.513579 31.594944
-32.005849 -3.464765 31.488063
-30.452777 -4.37086 36.588882
-30.303021 -6.218366 36.731274
-30.247025 -4.764903 37.470139
-30.68278 -3.836655 35.703665
-30.452777 -4.37086 36.588882
-30.959409 -3.31641 34.802662
-30.785403 -5.304077 34.949015
-30.68278 -3.836655 35.703665
-30.053551 -12.706995 52.061611
-30.015794 -14.511414 52.295194
-30.169761 -13.2924 53.168593
-29.952188 -12.137501 51.037178
-30.053551 -12.706995 52.061611
-29.842845 -11.741726 49.907207
-29.790241 -13.530234 50.058242
-29.952188 -12.137501 51.037178
-29.914898 -9.855476 49.828164
-29.75295 -11.248209 48.849228
-29.842845 -11.741726 49.907207
-29.963294 -8.034532 49.639958
-29.914898 -9.855476 49.828164
-29.893906 -7.429883 48.620138
-29.963294 -8.034532 49.639958
-29.845063 -38.396889 56.620302
-29.827724 -38.75543 57.643274
-29.852673 -37.942369 55.503046
-29.833739 -39.374132 55.725418
-29.845063 -38.396889 56.620302
-29.320512 -32.105643 39.113451
-29.368066 -33.561386 39.336343
-29.267111 -32.429759 40.068089
-29.495581 -31.437538 37.130321
-29.51637 -32.932592 37.405397
-29.400678 -31.742216 38.10663
-30.716074 -15.891967 58.779636
-30.674292 -17.558498 59.024023
-30.786925 -16.425783 59.850127
-30.74041 -14.197143 58.443032
-30.627777 -15.329859 57.616928
-30.716074 -15.891967 58.779636
-31.44001 -16.040542 30.521237
-31.301244 -17.866893 30.588192
-31.117284 -16.292306 31.421903
-31.44001 -16.040542 30.521237
-31.604539 -14.132077 30.455011
-29.57364 -25.248782 51.529599
-29.563548 -26.822226 51.771715
-29.582308 -8.112958 42.831903
-29.565561 -8.618475 43.727798
-29.665648 -6.707859 43.630487
-29.635694 -7.505526 41.9135
-29.535606 -9.416141 42.010811
-29.582308 -8.112958 42.831903
-29.703809 -6.951533 40.960567
-29.635694 -7.505526 41.9135
-30.148839 -28.803681 33.137932
-30.000426 -27.502612 33.892032
-30.21027 -27.178077 32.930844
-30.298142 -30.009443 32.354819
-30.088299 -30.333978 33.316007
-30.148839 -28.803681 33.137932
-29.562789 -36.950585 49.410795
-29.580056 -37.930254 48.547558
-29.650379 -38.294348 49.580218
-29.557588 -35.827469 50.220044
-29.568706 -34.843933 51.078466
-29.487265 -35.463375 49.187384
-29.562789 -36.950585 49.410795
-29.557588 -35.827469 50.220044
-29.456692 -13.088147 46.080179
-29.38799 -14.885993 46.158302
-29.499595 -13.627868 47.078646
-29.53363 -11.270644 46.011141
-29.422024 -12.528768 45.090798
-29.456692 -13.088147 46.080179
-29.69665 -10.595991 47.885354
-29.624598 -12.48224 47.964398
-29.75295 -11.248209 48.849228
-29.69665 -10.595991 47.885354
-29.766293 -8.817101 47.735153
-29.603273 -9.491754 45.860941
-29.53363 -11.270644 46.011141
-29.678242 -7.742809 45.613253
-29.573932 -8.962321 44.774071
-29.603273 -9.491754 45.860941
-29.750557 -5.921391 45.398792
-29.678242 -7.742809 45.613253
-29.743427 -5.347683 44.474266
-29.750557 -5.921391 45.398792
-29.860408 -42.950541 54.869989
-29.814262 -42.096934 55.784073
-29.898444 -42.592921 53.912123
-29.860408 -42.950541 54.869989
-29.853097 -40.243984 54.717585
-29.845486 -40.698504 55.83484
-29.833739 -39.374132 55.725418
-29.862184 -41.222349 53.825052
-29.853097 -40.243984 54.717585
-29.898444 -42.592921 53.912123
-29.862184 -41.222349 53.825052
-29.47289 -34.669094 38.648969
-29.419489 -34.99321 39.603607
-29.368066 -33.561386 39.336343
-29.47289 -34.669094 38.648969
-29.543371 -34.387981 37.662743
-30.674356 -26.441564 31.140751
-30.793805 -24.761145 31.00369
-30.101788 -22.400245 55.327843
-29.956271 -23.561318 54.411545
-30.258261 -21.105457 56.229782
-30.401806 -19.887041 57.158043
-30.137454 -20.710299 55.086129
-30.101788 -22.400245 55.327843
-30.258261 -21.105457 56.229782
-30.512435 -14.890278 56.452097
-30.488099 -16.585102 56.788702
-30.627777 -15.329859 57.616928
-30.401877 -14.407075 55.349993
-30.512435 -14.890278 56.452097
-30.541556 -13.151832 56.178219
-30.319258 -12.078304 54.005562
-30.169761 -13.2924 53.168593
-30.281501 -13.882724 54.239145
-30.319258 -12.078304 54.005562
-30.474705 -10.822629 54.953772
-30.892075 -23.048907 30.902824
-30.793805 -24.761145 31.00369
-30.612032 -23.307361 31.853451
-30.892075 -23.048907 30.902824
-31.016799 -21.363582 30.816871
-31.150907 -19.625349 30.685008
-31.301244 -17.866893 30.588192
-29.659082 -39.845135 46.993252
-29.612444 -38.909832 47.741366
-29.615744 -39.481284 46.000256
-29.659082 -39.845135 46.993252
-29.511367 -38.163216 45.793245
-29.462369 -37.194882 46.538944
-29.416494 -36.81245 45.566439
-29.615744 -39.481284 46.000256
-29.511367 -38.163216 45.793245
-29.359061 -35.5096 41.512953
-29.343924 -35.727502 42.543097
-29.290487 -34.125492 41.244366
-29.359061 -35.5096 41.512953
-29.227891 -32.661772 41.038879
-29.290487 -34.125492 41.244366
-29.203713 -32.901762 41.992263
-29.180337 -31.206029 40.815987
-29.267111 -32.429759 40.068089
-29.227891 -32.661772 41.038879
-29.593468 -29.945842 52.338827
-29.582721 -28.367545 52.055155
-29.524623 -30.960733 51.499586
-29.593468 -29.945842 52.338827
-29.429656 -30.569786 50.385449
-29.465822 -32.021654 50.651953
-29.524623 -30.960733 51.499586
-29.726045 -22.483559 52.226137
-29.839075 -23.042212 53.288592
-29.86795 -21.446433 53.121735
-29.589662 -23.637417 51.352672
-29.726045 -22.483559 52.226137
-29.618538 -22.041638 51.185816
-29.466133 -24.806861 50.489277
-29.57364 -25.248782 51.529599
-29.589662 -23.637417 51.352672
-29.801103 -6.507407 40.056458
-29.686286 -8.364584 40.188297
-29.703809 -6.951533 40.960567
-29.913978 -6.010426 39.183549
-29.801103 -6.507407 40.056458
-30.070822 -5.356401 38.347721
-29.940425 -7.266433 38.448358
-29.913978 -6.010426 39.183549
-30.247025 -4.764903 37.470139
-30.070822 -5.356401 38.347721
-29.614198 -31.009357 36.185696
-29.495581 -31.437538 37.130321
-29.498506 -29.818981 36.886928
-29.744661 -30.769035 35.254218
-29.778059 -29.259508 35.020712
-29.905597 -30.637743 34.332627
-29.741737 -32.387592 35.497611
-29.614198 -31.009357 36.185696
-29.744661 -30.769035 35.254218
-30.436222 -26.749374 32.06553
-30.674356 -26.441564 31.140751
-31.234597 -2.849418 33.926569
-30.959409 -3.31641 34.802662
-31.539537 -2.474705 33.054807
-31.854381 -1.969342 32.193727
-31.366971 -4.409119 33.17625
-31.234597 -2.849418 33.926569
-31.539537 -2.474705 33.054807
-32.332964 -6.491848 30.008672
-32.149597 -4.943938 30.778518
-32.129897 -8.531633 30.134476
-32.332964 -6.491848 30.008672
-31.937363 -10.438022 30.278253
-31.766875 -8.899142 31.029176
-32.129897 -8.531633 30.134476
-31.763685 -12.301865 30.364013
-31.937363 -10.438022 30.278253
3 0 33 31
3 2 36 34
3 4 39 37
3 4 103 105
3 105 104 39
3 103 104 105
3 5 42 40
3 5 44 42
3 1 106 107
3 6 47 45
3 6 49 47
3 6 51 49
3 109 108 52
3 3 110 112
3 112 111 54
3 110 111 112
3 7 58 56
3 9 59 28
3 9 60 59
3 113 61 114
3 115 62 116
3 117 116 61
3 115 116 117
3 11 65 63
3 13 66 29
3 13 67 66
3 13 118 120
3 120 119 67
3 118 119 120
3 122 121 30
3 15 123 124
3 15 125 127
3 125 126 127
3 15 128 130
3 128 69 129
3 128 129 130
3 133 132 32
3 131 132 133
3 16 134 135
3 16 136 138
3 136 70 137
3 136 137 138
3 16 71 70
3 139 72 140
3 139 140 141
3 143 142 72
3 17 75 73
3 19 76 35
3 19 77 76
3 8 78 57
3 20 79 38
3 20 80 79
3 20 144 146
3 146 145 80
3 144 145 146
3 10 147 149
3 147 81 148
3 147 148 149
3 21 150 152
3 152 151 41
3 150 151 152
3 21 153 154
3 21 155 157
3 155 82 156
3 155 156 157
3 22 83 43
3 22 84 83
3 23 158 160
3 158 85 159
3 158 159 160
3 23 86 85
3 12 87 64
3 24 88 46
3 24 89 88
3 24 90 89
3 25 91 48
3 25 92 91
3 25 93 92
3 26 94 50
3 26 95 94
3 14 96 68
3 27 97 53
3 27 98 97
3 27 99 98
3 18 100 74
3 162 161 55
3 163 101 164
3 165 102 166
3 167 166 101
3 165 166 167
3 168 28 169
3 170 169 7
3 168 169 170
3 171 28 172
3 173 9 174
3 175 174 28
3 173 174 175
3 176 29 177
3 178 177 11
3 176 177 178
3 179 29 180
3 181 13 182
3 183 182 29
3 181 182 183
3 184 30 185
3 186 185 13
3 184 185 186
3 187 30 188
3 190 189 30
3 191 15 192
3 195 194 15
3 193 194 195
3 31 196 198
3 196 32 197
3 196 197 198
3 33 32 31
3 33 199 201
3 201 200 32
3 199 200 201
3 202 16 203
3 202 203 204
3 207 206 16
3 205 206 207
3 34 35 17
3 36 35 34
3 36 19 35
3 37 38 8
3 39 38 37
3 39 20 38
3 39 208 210
3 210 209 20
3 208 209 210
3 212 211 39
3 40 41 10
3 42 41 40
3 42 21 41
3 42 43 21
3 44 43 42
3 44 22 43
3 213 23 214
3 45 46 12
3 47 46 45
3 47 24 46
3 47 48 24
3 49 48 47
3 49 25 48
3 49 50 25
3 51 50 49
3 51 26 50
3 52 53 14
3 215 53 216
3 217 216 52
3 215 216 217
3 218 27 219
3 220 219 53
3 218 219 220
3 222 221 27
3 54 55 18
3 223 55 224
3 225 224 54
3 223 224 225
3 228 227 55
3 226 227 228
3 56 57 2
3 58 57 56
3 58 8 57
3 28 58 7
3 59 58 28
3 59 8 58
3 59 37 8
3 60 37 59
3 60 4 37
3 229 10 230
3 229 230 231
3 61 232 233
3 61 234 236
3 234 10 235
3 234 235 236
3 61 40 10
3 62 40 61
3 62 5 40
3 63 64 1
3 65 64 63
3 65 12 64
3 29 65 11
3 66 65 29
3 66 12 65
3 66 45 12
3 67 45 66
3 67 6 45
3 67 68 6
3 237 68 238
3 239 238 67
3 237 238 239
3 240 14 241
3 242 241 68
3 240 241 242
3 30 243 245
3 245 244 13
3 243 244 245
3 247 246 30
3 248 14 249
3 250 52 251
3 252 251 14
3 250 251 252
3 253 52 254
3 256 255 52
3 69 257 258
3 69 259 260
3 261 69 262
3 263 262 15
3 261 262 263
3 264 69 265
3 267 266 69
3 32 268 270
3 268 269 270
3 272 271 32
3 274 273 3
3 275 1 276
3 70 277 278
3 70 279 281
3 279 1 280
3 279 280 281
3 70 63 1
3 71 63 70
3 71 11 63
3 282 71 283
3 284 283 16
3 282 283 284
3 72 285 287
3 285 71 286
3 285 286 287
3 72 11 71
3 72 288 290
3 290 289 11
3 288 289 290
3 292 291 72
3 73 74 0
3 75 74 73
3 75 18 74
3 35 75 17
3 76 75 35
3 76 18 75
3 76 54 18
3 77 54 76
3 77 3 54
3 57 36 2
3 78 36 57
3 78 19 36
3 38 78 8
3 79 78 38
3 79 19 78
3 79 77 19
3 80 77 79
3 80 3 77
3 80 293 295
3 295 294 3
3 293 294 295
3 297 296 80
3 299 298 20
3 81 300 301
3 81 302 303
3 41 81 10
3 304 81 305
3 306 305 41
3 304 305 306
3 308 307 81
3 82 309 310
3 82 311 312
3 43 82 21
3 83 82 43
3 83 313 315
3 315 314 82
3 313 314 315
3 83 316 318
3 316 31 317
3 316 317 318
3 84 31 83
3 84 0 31
3 85 319 320
3 85 321 322
3 85 323 325
3 323 62 324
3 323 324 325
3 86 62 85
3 86 5 62
3 64 326 328
3 328 327 1
3 326 327 328
3 87 329 331
3 331 330 64
3 329 330 331
3 87 332 334
3 332 23 333
3 332 333 334
3 46 87 12
3 88 87 46
3 88 23 87
3 88 86 23
3 89 86 88
3 89 5 86
3 89 44 5
3 90 44 89
3 90 22 44
3 48 90 24
3 91 90 48
3 91 22 90
3 91 84 22
3 92 84 91
3 92 0 84
3 92 73 0
3 93 73 92
3 93 17 73
3 50 93 25
3 94 93 50
3 94 17 93
3 94 34 17
3 95 34 94
3 95 2 34
3 68 51 6
3 96 51 68
3 96 26 51
3 53 96 14
3 97 96 53
3 97 26 96
3 97 95 26
3 98 95 97
3 98 2 95
3 98 56 2
3 99 56 98
3 99 7 56
3 335 99 336
3 337 336 27
3 335 336 337
3 338 99 339
3 340 7 341
3 342 341 99
3 340 341 342
3 344 343 7
3 74 33 0
3 100 33 74
3 100 345 347
3 347 346 33
3 345 346 347
3 55 100 18
3 348 100 349
3 350 349 55
3 348 349 350
3 353 352 100
3 351 352 353
3 355 354 3
3 356 9 357
3 101 358 359
3 101 360 362
3 360 9 361
3 360 361 362
3 101 60 9
3 102 60 101
3 102 4 60
3 363 102 364
3 365 102 366
3 367 4 368
3 369 368 102
3 367 368 369
3 371 370 4
