ply
format ascii 1.0
element vertex 225
property float x
property float y
property float z
element face 193
property list uchar int vertex_index
end_header
15.157025 36.98386 -52.012749
23.752235 23.350485 -38.523067
20.39777 31.158201 -45.793301
19.068977 30.151377 -40.286522
22.353867 27.379463 -42.285053
23.535549 29.11179 -47.937122
25.628757 25.264891 -43.905144
12.59774 39.734653 -49.370541
12.026461 38.521164 -54.48978
15.036742 37.395069 -46.593624
17.862413 34.577801 -49.20908
21.105536 32.249378 -51.638092
24.444733 30.107424 -53.467571
22.127918 24.477425 -37.709782
21.522276 26.53911 -39.544903
23.159948 25.330137 -40.40004
23.96979 26.28056 -43.111294
13.874243 38.234241 -50.724979
12.310881 39.196274 -51.989182
13.622409 37.866772 -53.434055
19.673874 30.770187 -43.016453
18.255657 32.183098 -42.130978
18.746679 32.601986 -44.820572
17.642385 34.316444 -46.448692
19.180346 32.95718 -47.511467
19.520361 33.279083 -50.283253
20.826921 31.768414 -48.764004
25.335667 27.941116 -48.726913
24.018782 29.699642 -50.655056
9.210777 40.273403 -53.904751
20.641115 28.693207 -41.273342
21.372601 29.350899 -44.002613
21.952753 30.107162 -46.956348
23.091494 28.267294 -45.222
24.718578 27.21603 -46.022583
21.080328 23.621603 -35.096451
16.555622 35.835896 -53.410309
13.911024 38.623821 -48.029079
15.231706 37.125206 -49.344135
16.396404 35.895073 -47.85957
16.595188 35.844021 -50.612274
18.050156 34.703033 -52.04068
19.604113 33.615543 -53.083702
22.440695 30.727903 -49.877087
22.71752 31.211882 -52.552174
23.000557 31.443354 -55.191277
24.27236 23.773066 -39.793073
23.976217 24.762892 -40.73156
23.456091 24.340311 -39.461553
25.557481 28.240942 -50.064152
26.237801 27.347259 -49.086735
8.397386 40.366383 -54.268332
8.966155 39.719143 -54.942905
26.012638 25.692158 -45.280874
25.557549 26.667727 -46.339594
25.173668 26.24046 -44.963864
11.845616 40.232282 -49.957434
11.955976 40.643528 -48.749276
11.405504 39.218237 -53.687055
11.547714 39.555792 -52.436757
12.168671 38.858719 -53.239481
11.213334 38.754851 -54.868089
11.405504 39.218237 -53.687055
21.317118 22.552551 -34.240021
20.515985 23.265993 -33.820475
21.889165 23.027572 -35.549132
21.317118 22.552551 -34.240021
16.524817 35.731036 -54.807035
17.365285 35.264381 -54.056399
14.473883 38.009445 -47.311352
13.884476 38.803869 -46.731302
14.447336 38.189493 -46.013575
18.37088 30.958143 -39.838847
18.752209 29.827629 -38.974882
17.583548 32.929161 -41.520859
17.771606 33.116764 -42.896838
21.204934 32.391357 -52.992811
20.454222 33.07444 -53.715616
20.354824 32.932461 -52.360897
24.568811 30.223053 -54.832229
23.846723 30.891018 -55.694083
23.722645 30.775389 -54.329424
21.825097 25.508268 -38.627342
21.004047 26.266858 -38.279608
21.306868 25.236016 -37.362048
24.381138 25.238104 -42.087187
23.564869 25.805349 -41.755667
23.976217 24.762892 -40.73156
25.210622 24.730269 -42.484112
24.799273 25.772725 -43.508219
24.381138 25.238104 -42.087187
15.00032 37.399258 -45.286367
14.447336 38.189493 -46.013575
18.017117 33.326208 -44.241635
17.771606 33.116764 -42.896838
18.501168 32.392542 -43.475775
18.194532 33.459215 -45.634632
17.46497 34.183437 -45.055695
18.017117 33.326208 -44.241635
24.899039 29.120205 -51.028223
24.677225 28.820379 -49.690984
25.557481 28.240942 -50.064152
25.112014 29.324096 -52.43448
24.231758 29.903533 -52.061313
24.899039 29.120205 -51.028223
25.353254 29.480073 -53.822706
25.112014 29.324096 -52.43448
8.622943 41.052 -53.23024
9.417794 40.802574 -52.809224
8.622943 41.052 -53.23024
8.397386 40.366383 -54.268332
19.471198 29.080794 -39.457791
18.752209 29.827629 -38.974882
20.697848 27.274661 -39.086981
21.004047 26.266858 -38.279608
20.257267 28.351709 -39.9512
20.697848 27.274661 -39.086981
21.081696 27.616159 -40.409122
19.855046 29.422292 -40.779932
19.471198 29.080794 -39.457791
20.257267 28.351709 -39.9512
25.866093 27.030271 -47.691759
25.027123 27.578573 -47.374748
25.557549 26.667727 -46.339594
26.237801 27.347259 -49.086735
25.866093 27.030271 -47.691759
11.702186 39.963093 -51.266755
11.845616 40.232282 -49.957434
12.454311 39.465463 -50.679862
11.702186 39.963093 -51.266755
11.547714 39.555792 -52.436757
9.997662 40.094357 -53.394541
9.417794 40.802574 -52.809224
9.805492 39.63097 -54.575575
9.997662 40.094357 -53.394541
8.966155 39.719143 -54.942905
9.805492 39.63097 -54.575575
20.342677 24.325397 -34.693278
20.515985 23.265993 -33.820475
20.783073 24.808104 -36.055382
20.342677 24.325397 -34.693278
21.604123 24.049514 -36.403116
21.306868 25.236016 -37.362048
20.783073 24.808104 -36.055382
22.41296 23.455483 -36.855797
21.604123 24.049514 -36.403116
21.889165 23.027572 -35.549132
23.225119 22.892013 -37.262439
22.940076 23.913955 -38.116424
22.41296 23.455483 -36.855797
15.796138 36.280491 -54.002203
15.09684 36.854473 -53.303423
15.856324 36.409878 -52.711529
15.796138 36.280491 -54.002203
16.524817 35.731036 -54.807035
12.642044 40.019035 -48.107574
11.955976 40.643528 -48.749276
13.298686 39.463619 -47.436844
13.884476 38.803869 -46.731302
13.254382 39.179237 -48.69981
12.642044 40.019035 -48.107574
13.298686 39.463619 -47.436844
17.96422 31.974003 -40.761074
18.37088 30.958143 -39.838847
18.662317 31.167237 -41.20875
17.96422 31.974003 -40.761074
17.583548 32.929161 -41.520859
15.675023 36.536562 -45.904058
15.00032 37.399258 -45.286367
16.977845 34.997249 -45.831592
17.46497 34.183437 -45.055695
16.354855 35.786564 -46.537031
16.977845 34.997249 -45.831592
17.019395 35.105758 -47.154131
15.716573 36.645071 -47.226597
15.675023 36.536562 -45.904058
16.354855 35.786564 -46.537031
18.112552 34.69795 -53.371584
17.365285 35.264381 -54.056399
17.302889 35.269464 -52.725494
18.88953 34.154205 -53.893095
18.112552 34.69795 -53.371584
18.827134 34.159288 -52.562191
19.687742 33.636749 -54.504275
18.88953 34.154205 -53.893095
19.687742 33.636749 -54.504275
20.454222 33.07444 -53.715616
22.010925 31.87261 -53.449852
21.204934 32.391357 -52.992811
21.911528 31.73063 -52.095133
22.152444 31.988346 -54.769403
22.010925 31.87261 -53.449852
22.859039 31.327618 -53.871725
22.231019 32.02093 -56.112432
22.152444 31.988346 -54.769403
23.011502 31.513973 -56.600752
22.231019 32.02093 -56.112432
23.011502 31.513973 -56.600752
23.846723 30.891018 -55.694083
24.568811 30.223053 -54.832229
25.353254 29.480073 -53.822706
14.329531 37.295929 -54.014076
14.389717 37.425316 -52.723402
15.09684 36.854473 -53.303423
13.522719 37.595247 -54.688659
14.329531 37.295929 -54.014076
12.724745 37.922443 -55.216522
12.824435 38.193968 -53.961917
13.522719 37.595247 -54.688659
11.831169 38.160562 -55.642532
12.724745 37.922443 -55.216522
11.213334 38.754851 -54.868089
11.831169 38.160562 -55.642532
23.989559 22.346126 -37.567203
23.225119 22.892013 -37.262439
24.597342 22.821343 -38.887197
23.989559 22.346126 -37.567203
24.27236 23.773066 -39.793073
24.597342 22.821343 -38.887197
26.036069 24.278558 -42.9037
25.210622 24.730269 -42.484112
26.466328 24.730946 -44.209041
26.036069 24.278558 -42.9037
26.012638 25.692158 -45.280874
26.466328 24.730946 -44.209041
3 1 15 13
3 1 46 48
3 48 47 15
3 46 47 48
3 0 19 17
3 2 22 20
3 2 24 22
3 2 26 24
3 50 49 27
3 52 51 29
3 4 30 14
3 4 31 30
3 4 33 31
3 6 34 16
3 6 53 55
3 55 54 34
3 53 54 55
3 7 56 57
3 8 58 60
3 60 59 18
3 58 59 60
3 8 61 62
3 63 35 64
3 66 65 35
3 68 67 36
3 9 69 71
3 69 37 70
3 69 70 71
3 9 38 37
3 3 72 73
3 75 74 21
3 10 39 23
3 10 40 39
3 10 41 40
3 11 42 25
3 11 76 78
3 78 77 42
3 76 77 78
3 5 43 32
3 12 44 28
3 12 45 44
3 12 79 81
3 81 80 45
3 79 80 81
3 13 82 84
3 82 14 83
3 82 83 84
3 15 14 13
3 15 4 14
3 15 16 4
3 85 16 86
3 87 86 15
3 85 86 87
3 88 6 89
3 90 89 16
3 88 89 90
3 17 18 7
3 19 18 17
3 19 8 18
3 91 9 92
3 20 21 3
3 22 21 20
3 22 93 95
3 95 94 21
3 93 94 95
3 22 96 98
3 96 23 97
3 96 97 98
3 24 23 22
3 24 10 23
3 24 25 10
3 26 25 24
3 26 11 25
3 27 28 5
3 99 28 100
3 101 100 27
3 99 100 101
3 102 12 103
3 104 103 28
3 102 103 104
3 106 105 12
3 29 107 108
3 110 109 29
3 111 3 112
3 14 113 114
3 30 115 117
3 117 116 14
3 115 116 117
3 30 118 120
3 118 3 119
3 118 119 120
3 30 20 3
3 31 20 30
3 31 2 20
3 31 32 2
3 33 32 31
3 33 5 32
3 16 33 4
3 34 33 16
3 34 5 33
3 34 27 5
3 121 27 122
3 123 122 34
3 121 122 123
3 125 124 27
3 18 126 128
3 128 127 7
3 126 127 128
3 130 129 18
3 131 29 132
3 133 29 134
3 136 135 29
3 35 137 138
3 35 139 140
3 35 141 143
3 141 13 142
3 141 142 143
3 144 13 145
3 146 145 35
3 144 145 146
3 147 1 148
3 149 148 13
3 147 148 149
3 36 150 152
3 152 151 0
3 150 151 152
3 154 153 36
3 155 7 156
3 37 157 158
3 37 159 161
3 159 7 160
3 159 160 161
3 37 17 7
3 38 17 37
3 38 0 17
3 21 162 164
3 164 163 3
3 162 163 164
3 166 165 21
3 167 9 168
3 23 169 170
3 39 171 173
3 173 172 23
3 171 172 173
3 39 174 176
3 174 9 175
3 174 175 176
3 39 38 9
3 40 38 39
3 40 0 38
3 40 36 0
3 41 36 40
3 41 177 179
3 179 178 36
3 177 178 179
3 25 41 10
3 42 41 25
3 42 180 182
3 182 181 41
3 180 181 182
3 42 183 184
3 186 185 42
3 32 26 2
3 43 26 32
3 43 11 26
3 28 43 5
3 44 43 28
3 44 11 43
3 44 187 189
3 189 188 11
3 187 188 189
3 45 190 192
3 192 191 44
3 190 191 192
3 45 193 194
3 45 195 196
3 198 197 45
3 200 199 12
3 201 19 202
3 203 202 0
3 201 202 203
3 204 19 205
3 206 8 207
3 208 207 19
3 206 207 208
3 209 8 210
3 212 211 8
3 213 1 214
3 215 1 216
3 218 217 1
3 219 6 220
3 221 6 222
3 224 223 6
