ply
format ascii 1.0
element vertex 324
property float x
property float y
property float z
element face 278
property list uchar int vertex_index
end_header
-30.144936 -51.654709 48.997383
-29.843697 -41.794971 49.206223
-29.609426 -39.194122 41.523518
-29.647066 -45.25441 56.799969
-30.304245 -49.540039 45.868557
-29.761133 -38.003506 52.577393
-29.932043 -43.617485 52.997238
-29.314665 -33.885502 40.290981
-29.611273 -32.627914 36.429089
-29.526615 -54.010189 52.084591
-29.709036 -56.876617 47.733742
-30.046663 -44.9575 45.943802
-29.674246 -40.41692 45.23476
-27.688938 -51.830311 59.389771
-28.170582 -42.529236 64.059044
-28.74552 -46.69762 60.241333
-29.175537 -50.609451 56.305775
-29.925571 -48.785744 52.870377
-30.120882 -46.823128 49.367805
-30.353584 -50.44109 43.97818
-29.841349 -38.919613 54.608162
-29.910723 -52.904644 50.494785
-29.985214 -54.358036 48.40509
-28.776846 -60.339012 48.348656
-29.945307 -43.562263 47.48959
-29.874851 -42.810604 45.597618
-29.760921 -41.144623 47.220753
-29.513643 -43.207878 58.757797
-29.064079 -43.964039 60.665615
-29.28577 -45.950462 58.611668
-28.930758 -48.765701 58.385632
-29.455669 -47.982487 56.636444
-29.637136 -49.682877 54.6353
-29.792673 -46.987293 54.852161
-29.907804 -42.519764 51.090694
-30.018545 -45.212341 51.202271
-30.000925 -44.342651 49.385609
-30.103762 -45.906937 47.612614
-30.262135 -50.659782 47.408707
-30.197443 -53.161434 46.964973
-30.317732 -51.869362 45.419331
-29.777618 -39.916378 50.904858
-29.667645 -39.274017 48.71698
-29.763678 -42.625511 56.741138
-29.85597 -44.332726 54.912971
-29.859524 -40.876343 52.823097
-29.451815 -36.653717 40.828156
-29.259174 -57.942425 49.251369
-30.034285 -55.562275 46.252338
-29.816442 -42.147861 43.815514
-29.613148 -39.70005 43.401485
-29.465492 -37.780785 44.82074
-29.421541 -37.089523 42.888443
-28.870567 -41.910965 62.500454
-28.532822 -51.183609 57.984734
-28.78303 -53.027946 55.900856
-29.398132 -52.249535 54.184704
-29.795996 -51.412022 52.51289
-30.042192 -50.27224 51.01025
-29.955311 -46.242455 53.130249
-30.070663 -47.704647 51.15448
-30.171989 -49.212856 49.350105
-30.215942 -48.195698 47.668877
-30.201982 -47.217491 46.004543
-28.421659 -61.609121 47.893017
-28.782151 -61.133541 47.115521
-29.715196 -40.250053 40.845662
-29.703606 -40.437463 41.769543
-30.341757 -51.631449 43.741985
-30.358024 -50.904793 43.061645
-29.697122 -37.659092 51.510424
-29.705365 -38.615528 50.674156
-29.769376 -38.959942 51.741125
-29.794903 -41.227081 56.791906
-29.72636 -41.598541 57.722668
-29.814262 -42.096934 55.784073
-29.794903 -41.227081 56.791906
-29.419489 -34.99321 39.603607
-29.488064 -36.377318 39.872194
-29.38324 -35.26961 40.559568
-29.638274 -34.083303 36.686434
-29.51637 -32.932592 37.405397
-29.747609 -33.957811 35.697294
-29.638274 -34.083303 36.686434
-29.322184 -55.294344 51.781134
-29.266428 -54.380947 52.89205
-29.484105 -57.409521 48.492555
-29.440687 -56.734156 49.634872
-29.665618 -56.201252 48.876058
-29.508424 -58.121967 47.359019
-29.283493 -58.654871 48.117832
-29.484105 -57.409521 48.492555
-30.129614 -54.897312 45.579641
-30.115864 -54.361854 46.608655
-30.211193 -53.696891 45.935958
-30.028363 -44.705429 45.102007
-30.107471 -45.706806 45.194899
-29.612444 -38.909832 47.741366
-29.580056 -37.930254 48.547558
-29.375395 -36.422394 44.573113
-29.416494 -36.81245 45.566439
-29.35342 -36.076763 43.606964
-29.443517 -37.435154 43.854591
-29.375395 -36.422394 44.573113
-29.343924 -35.727502 42.543097
-29.35342 -36.076763 43.606964
-27.328446 -53.07882 59.036915
-27.17246 -52.019028 60.043576
-27.822171 -52.847837 58.363918
-27.328446 -53.07882 59.036915
-27.730514 -42.69845 64.752938
-28.027871 -41.446092 64.89164
-27.894692 -43.823571 63.896096
-27.730514 -42.69845 64.752938
-29.123868 -41.654079 61.553088
-29.059413 -40.667412 62.443779
-28.612164 -45.616991 61.240293
-28.771444 -44.2502 61.452435
-28.904799 -45.33083 60.453474
-28.359552 -46.951437 61.053631
-28.612164 -45.616991 61.240293
-28.488757 -47.909687 60.177679
-28.359552 -46.951437 61.053631
-30.107471 -45.706806 45.194899
-30.185131 -46.836801 45.225269
-30.124322 -46.087496 45.974172
-30.32211 -49.427788 44.187004
-30.328915 -49.990565 44.923369
-30.297441 -48.977262 45.132193
-30.343443 -49.841666 43.378668
-30.32211 -49.427788 44.187004
-30.358024 -50.904793 43.061645
-30.343443 -49.841666 43.378668
-29.708241 -36.675556 52.368847
-29.779502 -37.039038 53.49223
-29.852673 -37.942369 55.503046
-29.833739 -39.374132 55.725418
-29.81961 -37.497091 54.507614
-29.852673 -37.942369 55.503046
-29.779502 -37.039038 53.49223
-29.801241 -38.461559 53.592777
-29.81961 -37.497091 54.507614
-29.368066 -33.561386 39.336343
-29.267111 -32.429759 40.068089
-29.495581 -31.437538 37.130321
-29.51637 -32.932592 37.405397
-29.766461 -54.215266 50.25658
-29.574407 -54.768038 51.051483
-29.718669 -53.457416 51.289688
-29.803707 -54.941961 49.211732
-29.766461 -54.215266 50.25658
-29.947969 -53.63134 49.449938
-29.847125 -55.617327 48.069416
-29.665618 -56.201252 48.876058
-29.803707 -54.941961 49.211732
-28.373832 -60.843643 49.066985
-28.308764 -60.10079 50.258633
-28.711778 -59.596159 49.540304
-28.373832 -60.843643 49.066985
-28.421659 -61.609121 47.893017
-27.499498 -50.835234 60.394406
-27.17246 -52.019028 60.043576
-28.426491 -41.199478 64.113693
-28.027871 -41.446092 64.89164
-29.288861 -43.585959 59.711706
-29.220624 -42.680616 60.635668
-29.445406 -42.302536 59.681759
-30.271338 -53.050855 45.163138
-30.211193 -53.696891 45.935958
-30.257587 -52.515398 46.192152
-30.323831 -52.345585 44.462561
-30.335658 -51.155226 44.698756
-30.341757 -51.631449 43.741985
-30.271338 -53.050855 45.163138
-30.323831 -52.345585 44.462561
-29.650379 -38.294348 49.580218
-29.722631 -39.595197 49.810919
-29.705365 -38.615528 50.674156
-29.580056 -37.930254 48.547558
-29.650379 -38.294348 49.580218
-29.697122 -37.659092 51.510424
-29.708241 -36.675556 52.368847
-29.601342 -41.889724 58.730997
-29.445406 -42.302536 59.681759
-29.638661 -42.916695 57.749467
-29.601342 -41.889724 58.730997
-29.72636 -41.598541 57.722668
-29.860408 -42.950541 54.869989
-29.809824 -43.479118 55.827055
-29.814262 -42.096934 55.784073
-29.898444 -42.592921 53.912123
-29.894006 -43.975105 53.955105
-29.860408 -42.950541 54.869989
-29.853097 -40.243984 54.717585
-29.833739 -39.374132 55.725418
-29.862184 -41.222349 53.825052
-29.853097 -40.243984 54.717585
-29.850437 -39.897978 53.715629
-29.895784 -42.246914 52.910168
-29.898444 -42.592921 53.912123
-29.862184 -41.222349 53.825052
-29.557911 -37.736 40.185727
-29.636716 -39.006203 40.533408
-29.53062 -37.923919 41.175837
-29.557911 -37.736 40.185727
-29.488064 -36.377318 39.872194
-29.419489 -34.99321 39.603607
-29.368066 -33.561386 39.336343
-29.322184 -55.294344 51.781134
-29.574407 -54.768038 51.051483
-29.188464 -57.260462 50.364522
-29.440687 -56.734156 49.634872
-28.952942 -58.397866 49.991661
-29.188464 -57.260462 50.364522
-29.01801 -59.140718 48.800012
-28.711778 -59.596159 49.540304
-28.952942 -58.397866 49.991661
-29.042329 -59.853164 47.666476
-29.01801 -59.140718 48.800012
-29.283493 -58.654871 48.117832
-28.782151 -61.133541 47.115521
-29.042329 -59.853164 47.666476
-30.035739 -56.10811 45.179823
-30.129614 -54.897312 45.579641
-29.885505 -56.836043 45.889921
-30.035739 -56.10811 45.179823
-29.722881 -57.493214 46.630623
-29.871661 -56.219446 46.99304
-29.885505 -56.836043 45.889921
-29.508424 -58.121967 47.359019
-29.722881 -57.493214 46.630623
-29.942457 -43.631981 44.928915
-30.028363 -44.705429 45.102007
-29.960757 -43.884052 45.77071
-29.913252 -43.30061 44.037863
-29.942457 -43.631981 44.928915
-29.845647 -42.479232 44.706566
-29.898059 -43.043644 43.198069
-29.913252 -43.30061 44.037863
-29.807113 -41.914333 42.915541
-29.898059 -43.043644 43.198069
-29.705466 -40.690427 42.708527
-29.807113 -41.914333 42.915541
-29.714795 -40.923955 43.6085
-29.611287 -39.447086 42.462502
-29.703606 -40.437463 41.769543
-29.705466 -40.690427 42.708527
-29.659082 -39.845135 46.993252
-29.714283 -40.20932 47.968867
-29.612444 -38.909832 47.741366
-29.615744 -39.481284 46.000256
-29.717583 -40.780772 46.227756
-29.659082 -39.845135 46.993252
-29.511367 -38.163216 45.793245
-29.416494 -36.81245 45.566439
-29.569869 -39.098852 45.02775
-29.615744 -39.481284 46.000256
-29.511367 -38.163216 45.793245
-29.359061 -35.5096 41.512953
-29.436678 -36.87162 41.8583
-29.343924 -35.727502 42.543097
-29.290487 -34.125492 41.244366
-29.38324 -35.26961 40.559568
-29.359061 -35.5096 41.512953
-29.227891 -32.661772 41.038879
-29.290487 -34.125492 41.244366
-29.267111 -32.429759 40.068089
-29.227891 -32.661772 41.038879
-28.776484 -40.890343 63.334398
-29.059413 -40.667412 62.443779
-28.520575 -42.220101 63.279749
-28.426491 -41.199478 64.113693
-28.776484 -40.890343 63.334398
-28.967323 -42.937502 61.583034
-29.123868 -41.654079 61.553088
-29.220624 -42.680616 60.635668
-28.674688 -43.223664 62.369854
-28.967323 -42.937502 61.583034
-28.771444 -44.2502 61.452435
-28.324695 -43.532799 63.149149
-28.520575 -42.220101 63.279749
-28.674688 -43.223664 62.369854
-27.894692 -43.823571 63.896096
-28.324695 -43.532799 63.149149
-27.960465 -50.476033 59.751898
-27.499498 -50.835234 60.394406
-28.581376 -48.943728 59.249828
-28.488757 -47.909687 60.177679
-28.838139 -47.731661 59.313482
-28.382407 -50.152681 59.04938
-28.581376 -48.943728 59.249828
-28.73179 -49.974655 58.185183
-28.11088 -51.50696 58.687252
-27.960465 -50.476033 59.751898
-28.382407 -50.152681 59.04938
-28.244113 -52.524486 57.6614
-27.822171 -52.847837 58.363918
-28.11088 -51.50696 58.687252
-28.369217 -53.446655 56.619461
-28.244113 -52.524486 57.6614
-28.657926 -52.105778 56.942795
-28.519505 -54.290592 55.563984
-28.369217 -53.446655 56.619461
-28.894635 -53.889826 54.800182
-28.519505 -54.290592 55.563984
-29.202186 -53.50062 53.942107
-28.894635 -53.889826 54.800182
-29.090581 -52.63874 55.04278
-29.462373 -53.129862 53.134647
-29.266428 -54.380947 52.89205
-29.202186 -53.50062 53.942107
-30.246309 -47.815989 45.200186
-30.297441 -48.977262 45.132193
-30.253114 -48.378765 45.93655
-30.246309 -47.815989 45.200186
-30.185131 -46.836801 45.225269
-29.715196 -40.250053 40.845662
-29.636716 -39.006203 40.533408
-29.614198 -31.009357 36.185696
-29.495581 -31.437538 37.130321
-29.741737 -32.387592 35.497611
-29.614198 -31.009357 36.185696
-29.747609 -33.957811 35.697294
-29.741737 -32.387592 35.497611
3 0 22 21
3 65 64 23
3 1 26 24
3 3 29 27
3 3 31 29
3 3 33 31
3 1 36 34
3 1 24 36
3 2 66 67
3 4 40 38
3 69 68 19
3 5 70 72
3 72 71 41
3 70 71 72
3 73 43 74
3 76 75 43
3 5 45 20
3 5 41 45
3 7 77 79
3 79 78 46
3 77 78 79
3 8 80 81
3 8 82 83
3 9 84 85
3 10 86 88
3 86 47 87
3 86 87 88
3 10 89 91
3 91 90 47
3 89 90 91
3 92 48 93
3 94 93 39
3 92 93 94
3 11 95 96
3 12 49 25
3 12 50 49
3 98 97 42
3 99 51 100
3 101 52 102
3 103 102 51
3 101 102 103
3 105 104 52
3 13 106 107
3 13 108 109
3 14 110 111
3 14 112 113
3 114 53 115
3 15 116 118
3 118 117 28
3 116 117 118
3 15 119 120
3 15 121 122
3 16 54 30
3 16 55 54
3 16 56 55
3 17 57 32
3 17 58 57
3 6 59 44
3 18 60 35
3 18 61 60
3 18 62 61
3 11 63 37
3 11 123 125
3 125 124 63
3 123 124 125
3 126 19 127
3 128 127 4
3 126 127 128
3 129 19 130
3 132 131 19
3 134 133 5
3 135 20 136
3 137 20 138
3 139 5 140
3 141 140 20
3 139 140 141
3 143 142 7
3 144 8 145
3 21 146 148
3 148 147 9
3 146 147 148
3 22 149 151
3 151 150 21
3 149 150 151
3 22 152 154
3 152 10 153
3 152 153 154
3 23 155 157
3 155 156 157
3 159 158 23
3 24 25 11
3 26 25 24
3 26 12 25
3 160 13 161
3 162 14 163
3 27 164 166
3 164 28 165
3 164 165 166
3 29 28 27
3 29 15 28
3 29 30 15
3 31 30 29
3 31 16 30
3 31 32 16
3 33 32 31
3 33 17 32
3 34 35 6
3 36 35 34
3 36 18 35
3 36 37 18
3 24 37 36
3 24 11 37
3 38 39 0
3 40 39 38
3 40 167 169
3 169 168 39
3 167 168 169
3 19 40 4
3 170 40 171
3 172 171 19
3 170 171 172
3 174 173 40
3 41 42 1
3 175 42 176
3 177 176 41
3 175 176 177
3 179 178 42
3 181 180 5
3 182 27 183
3 43 184 186
3 184 27 185
3 184 185 186
3 43 3 27
3 43 44 3
3 187 44 188
3 189 188 43
3 187 188 189
3 190 6 191
3 192 191 44
3 190 191 192
3 20 193 194
3 45 195 197
3 197 196 20
3 195 196 197
3 45 198 200
3 198 6 199
3 198 199 200
3 45 34 6
3 41 34 45
3 41 1 34
3 46 201 203
3 203 202 2
3 201 202 203
3 205 204 46
3 207 206 7
3 209 208 9
3 47 210 211
3 47 212 213
3 47 214 216
3 214 23 215
3 214 215 216
3 217 23 218
3 219 218 47
3 217 218 219
3 221 220 23
3 39 22 0
3 48 22 39
3 48 10 22
3 222 48 223
3 224 48 225
3 226 10 227
3 228 227 48
3 226 227 228
3 230 229 10
3 25 231 233
3 233 232 11
3 231 232 233
3 49 234 236
3 236 235 25
3 234 235 236
3 49 237 238
3 49 239 240
3 50 241 243
3 243 242 49
3 241 242 243
3 50 244 246
3 244 2 245
3 244 245 246
3 42 26 1
3 247 26 248
3 249 248 42
3 247 248 249
3 250 12 251
3 252 251 26
3 250 251 252
3 51 253 254
3 51 255 257
3 255 12 256
3 255 256 257
3 51 50 12
3 52 50 51
3 52 2 50
3 52 46 2
3 258 46 259
3 260 259 52
3 258 259 260
3 261 7 262
3 263 262 46
3 261 262 263
3 264 7 265
3 267 266 7
3 53 268 269
3 53 270 272
3 270 14 271
3 270 271 272
3 28 273 275
3 273 53 274
3 273 274 275
3 276 53 277
3 278 277 28
3 276 277 278
3 279 14 280
3 281 280 53
3 279 280 281
3 283 282 14
3 284 13 285
3 30 286 288
3 288 287 15
3 286 287 288
3 54 289 291
3 291 290 30
3 289 290 291
3 54 292 294
3 292 13 293
3 292 293 294
3 54 295 297
3 297 296 13
3 295 296 297
3 55 298 300
3 300 299 54
3 298 299 300
3 55 301 302
3 55 303 304
3 56 305 307
3 307 306 55
3 305 306 307
3 56 308 310
3 308 9 309
3 308 309 310
3 32 56 16
3 57 56 32
3 57 9 56
3 57 21 9
3 58 21 57
3 58 0 21
3 44 33 3
3 59 33 44
3 59 17 33
3 35 59 6
3 60 59 35
3 60 17 59
3 60 58 17
3 61 58 60
3 61 0 58
3 61 38 0
3 62 38 61
3 62 4 38
3 37 62 18
3 63 62 37
3 63 4 62
3 63 311 313
3 313 312 4
3 311 312 313
3 315 314 63
3 317 316 2
3 318 8 319
3 320 8 321
3 323 322 8
