ply
format ascii 1.0
element vertex 412
property float x
property float y
property float z
element face 317
property list uchar int vertex_index
end_header
23.715256 -72.367905 -15.474648
-10.129201 -85.383118 22.528307
-17.518099 -86.510826 23.807789
16.919661 -84.011948 -17.351959
22.104193 -76.273903 -25.493099
-19.213346 -82.871529 28.87532
15.469126 -86.381912 -22.243086
15.840882 -83.422676 -7.643093
22.983088 -74.669159 -20.450842
19.525682 -80.417 -21.332428
-0.339501 -84.666565 16.190458
18.128838 -81.177673 -12.073897
25.118294 -69.510941 -14.986058
25.020105 -70.415031 -17.520441
-7.101701 -86.105583 19.370054
-9.094199 -86.877052 19.754707
-18.352308 -84.652069 26.439749
-17.552744 -82.983521 28.955221
-14.915095 -84.586838 26.189226
-15.85409 -86.445709 23.777771
18.801405 -81.066231 -16.817284
20.007652 -79.436417 -18.852571
18.137707 -82.432999 -19.538263
16.667393 -84.593636 -24.408291
15.263936 -84.916153 -10.207376
13.372685 -87.54776 -10.795903
9.264301 -87.495499 1.454726
22.632225 -75.46788 -23.09421
24.386555 -72.422211 -22.435818
23.962822 -73.224174 -24.981594
15.035872 -86.747894 -17.827045
16.166517 -85.351723 -19.893585
-3.31744 -84.29068 18.924057
-5.291974 -85.114723 19.336012
14.702277 -84.21656 -5.227304
12.828459 -86.64225 -5.609871
23.293398 -74.115013 -27.414692
8.003308 -87.409637 3.783667
22.145823 -75.288582 -15.709308
23.433336 -73.456734 -17.896551
21.846567 -76.330986 -18.426727
21.317543 -77.527519 -20.962931
20.743635 -78.544395 -23.349962
17.518753 -83.462769 -21.999548
18.837978 -81.465019 -23.847012
20.022552 -79.515762 -25.745384
0.945323 -85.707954 13.803818
-2.218762 -85.676018 16.252939
23.880695 -71.270729 -12.723876
22.646027 -72.97731 -10.445544
22.515951 -74.00415 -13.229556
20.881016 -77.025154 -13.659873
19.332655 -79.730499 -14.191824
17.603743 -82.57151 -14.824482
17.074009 -82.233978 -9.813203
16.406734 -83.83918 -12.380869
15.737069 -85.343613 -15.03654
12.357418 -85.356544 -0.623937
24.622719 -71.674568 -19.925697
-9.740316 -84.252899 23.790324
-10.680696 -84.557038 24.021057
-9.148378 -84.991001 22.365526
-9.740316 -84.252899 23.790324
-9.6117 -86.130085 21.141507
-8.630876 -85.737968 20.978725
-9.148378 -84.991001 22.365526
-17.100724 -85.585853 25.147962
-17.517828 -84.656475 26.463943
-17.935204 -85.581447 25.123769
-16.686094 -86.478267 23.79278
-16.268719 -85.553295 25.132953
-17.100724 -85.585853 25.147962
-17.076633 -87.345661 22.574419
-16.244628 -87.313102 22.55941
-16.686094 -86.478267 23.79278
12.758642 -87.938771 -9.564516
13.71094 -86.72485 -9.400715
12.305536 -88.854763 -10.872163
12.758642 -87.938771 -9.564516
8.849827 -88.48219 0.118742
8.197716 -88.460792 1.332259
14.5311 -87.524406 -19.013939
13.961018 -88.172165 -17.901205
-5.806773 -84.434326 20.6359
-4.846212 -83.983444 20.490801
-6.577886 -86.77832 18.065765
-7.58856 -87.219417 18.195659
14.095926 -84.574333 -4.065245
15.01951 -83.358257 -3.850619
13.159017 -85.787178 -4.256528
13.765368 -85.429405 -5.418588
14.095926 -84.574333 -4.065245
-18.890259 -82.034859 30.177558
-19.691985 -81.967884 30.037359
-17.227751 -82.134064 30.136225
-16.663602 -82.971363 28.847062
-13.994687 -84.415832 26.032269
-14.418964 -85.441536 24.785031
8.381207 -86.330318 5.264311
8.979844 -86.494388 3.981324
21.23686 -77.191738 -17.450722
21.996195 -75.809784 -17.068017
21.386488 -76.670536 -16.092012
18.336818 -82.078518 -25.076491
17.752685 -83.029327 -24.127651
17.251525 -83.642827 -25.357131
18.929105 -81.10389 -26.025678
19.430265 -80.49039 -24.796198
18.336818 -82.078518 -25.076491
19.567661 -80.001735 -26.90571
18.929105 -81.10389 -26.025678
0.667695 -84.069462 16.250135
0.001916 -83.508847 17.482535
0.302911 -85.18726 14.997138
1.310107 -84.590157 15.056815
0.667695 -84.069462 16.250135
-3.171484 -86.153454 16.336022
-2.768101 -84.983349 17.588498
-3.720823 -85.460785 17.671582
23.933481 -70.772438 -11.464196
24.542615 -69.898278 -12.611004
21.953833 -74.337185 -10.745418
22.123376 -73.64899 -9.385995
21.888795 -74.850605 -12.137424
22.580989 -73.49073 -11.83755
21.953833 -74.337185 -10.745418
21.071327 -76.361107 -12.352582
21.698484 -75.514652 -13.444714
21.888795 -74.850605 -12.137424
18.730746 -80.454086 -13.13286
19.539008 -79.073101 -12.813417
18.937099 -79.796688 -11.754454
16.457445 -82.828327 -8.728148
17.274487 -81.575988 -8.485594
16.657924 -82.170337 -7.400539
15.455158 -85.219509 -12.644898
15.835335 -84.377667 -11.294123
14.88376 -85.757995 -11.558152
15.120326 -85.971726 -13.972734
16.071901 -84.591397 -13.708704
15.455158 -85.219509 -12.644898
14.765441 -86.704369 -15.274074
15.120326 -85.971726 -13.972734
11.791396 -85.435356 0.580948
12.675797 -84.43861 0.798435
25.147807 -71.025227 -22.274217
25.032515 -71.329231 -23.49933
24.252349 -72.538048 -27.197513
23.952846 -72.849186 -28.337703
25.739911 -68.592633 -16.104728
25.773538 -68.103455 -14.837731
25.690817 -69.044678 -17.37192
25.739911 -68.592633 -16.104728
25.069199 -69.962986 -16.25325
25.59071 -69.562218 -18.585726
25.690817 -69.044678 -17.37192
-7.634628 -85.352234 20.786399
-6.711637 -84.929756 20.652921
-8.09795 -86.491318 19.56238
-7.634628 -85.352234 20.786399
-8.630876 -85.737968 20.978725
-8.584809 -87.605152 18.387985
-7.58856 -87.219417 18.195659
-8.09795 -86.491318 19.56238
-17.118046 -83.822201 27.721679
-17.952526 -83.817795 27.697485
-17.517828 -84.656475 26.463943
-16.663602 -82.971363 28.847062
-17.118046 -83.822201 27.721679
-15.799221 -84.62386 26.338681
-15.344777 -83.773022 27.464064
-15.384593 -85.516273 24.983499
-15.799221 -84.62386 26.338681
-16.268719 -85.553295 25.132953
-14.888461 -86.370971 23.579304
-14.418964 -85.441536 24.785031
-15.384593 -85.516273 24.983499
-15.37829 -87.269279 22.461061
-14.888461 -86.370971 23.579304
-15.37829 -87.269279 22.461061
-16.244628 -87.313102 22.55941
19.404528 -80.251324 -17.834927
20.317403 -78.744454 -17.663643
19.714279 -79.55936 -16.646
15.575285 -86.097233 -24.477536
16.068259 -85.487774 -23.325688
14.976151 -86.991371 -23.394934
16.112992 -85.222099 -25.513315
15.575285 -86.097233 -24.477536
17.251525 -83.642827 -25.357131
16.112992 -85.222099 -25.513315
-0.887467 -84.026249 17.446415
0.001916 -83.508847 17.482535
18.427594 -80.363323 -10.699378
18.937099 -79.796688 -11.754454
14.656565 -85.409046 -9.106452
15.552409 -84.169414 -8.925235
14.945038 -84.662307 -7.82431
14.31831 -86.231956 -10.501639
14.656565 -85.409046 -9.106452
13.71094 -86.72485 -9.400715
13.938134 -87.073799 -11.852415
14.88376 -85.757995 -11.558152
14.31831 -86.231956 -10.501639
12.90345 -88.444065 -12.052798
13.938134 -87.073799 -11.852415
12.90345 -88.444065 -12.052798
12.305536 -88.854763 -10.872163
9.853255 -87.463123 0.292064
10.244837 -86.504833 1.62028
9.853255 -87.463123 0.292064
8.849827 -88.48219 0.118742
24.820648 -71.730213 -24.772219
25.032515 -71.329231 -23.49933
24.174689 -72.823193 -23.708706
-20.004078 -82.677765 28.74906
-19.691985 -81.967884 30.037359
-19.631838 -83.591755 27.593193
-20.004078 -82.677765 28.74906
-19.201318 -84.482025 26.375408
-18.782827 -83.761799 27.657534
-19.631838 -83.591755 27.593193
-18.744338 -85.375705 25.248266
-19.201318 -84.482025 26.375408
-18.327233 -86.305084 23.932287
-17.935204 -85.581447 25.123769
-18.744338 -85.375705 25.248266
-17.999554 -87.216519 22.678692
-18.327233 -86.305084 23.932287
15.096422 -86.826321 -20.04721
15.601194 -86.049809 -18.860315
14.5311 -87.524406 -19.013939
14.747727 -87.341415 -21.22196
15.817821 -85.866817 -21.068336
15.096422 -86.826321 -20.04721
14.297413 -87.941536 -22.419947
14.747727 -87.341415 -21.22196
14.976151 -86.991371 -23.394934
14.297413 -87.941536 -22.419947
-3.858945 -83.571422 20.284824
-2.942629 -83.143768 20.14582
-4.304707 -84.702701 19.130035
-3.858945 -83.571422 20.284824
-4.846212 -83.983444 20.490801
-4.70809 -85.872806 17.877559
-3.720823 -85.460785 17.671582
-4.304707 -84.702701 19.130035
-6.196837 -85.610153 19.353033
-5.806773 -84.434326 20.6359
-6.711637 -84.929756 20.652921
-5.673023 -86.28289 18.048744
-6.196837 -85.610153 19.353033
-6.577886 -86.77832 18.065765
-4.70809 -85.872806 17.877559
-5.673023 -86.28289 18.048744
16.149431 -82.573799 -6.2283
16.657924 -82.170337 -7.400539
15.580129 -82.970741 -5.020405
15.01951 -83.358257 -3.850619
15.27158 -83.819618 -6.435199
16.149431 -82.573799 -6.2283
15.580129 -82.970741 -5.020405
14.375736 -85.059249 -6.616416
14.945038 -84.662307 -7.82431
15.27158 -83.819618 -6.435199
13.438827 -86.272095 -6.807699
14.375736 -85.059249 -6.616416
13.765368 -85.429405 -5.418588
12.486529 -87.486016 -6.9715
13.438827 -86.272095 -6.807699
22.25519 -75.7342 -27.601005
22.698795 -75.194458 -26.453896
21.660587 -76.813645 -26.640208
22.960368 -74.397816 -28.545626
22.25519 -75.7342 -27.601005
23.952846 -72.849186 -28.337703
22.960368 -74.397816 -28.545626
-18.059959 -82.090855 30.217509
-18.890259 -82.034859 30.177558
-18.383045 -82.927525 28.91527
-18.059959 -82.090855 30.217509
-17.227751 -82.134064 30.136225
-14.495244 -83.604786 27.39304
-15.344777 -83.773022 27.464064
-14.495244 -83.604786 27.39304
-13.994687 -84.415832 26.032269
-11.059263 -85.636906 22.758604
-10.680696 -84.557038 24.021057
-10.562984 -86.462212 21.304467
-11.059263 -85.636906 22.758604
-17.076633 -87.345661 22.574419
-17.999554 -87.216519 22.678692
9.61034 -86.537319 2.816854
10.244837 -86.504833 1.62028
8.633805 -87.452568 2.619197
9.61034 -86.537319 2.816854
8.979844 -86.494388 3.981324
7.56722 -88.417862 2.496729
8.197716 -88.460792 1.332259
8.633805 -87.452568 2.619197
7.390496 -87.190681 5.048924
8.381207 -86.330318 5.264311
7.006286 -88.205604 3.731614
7.390496 -87.190681 5.048924
7.56722 -88.417862 2.496729
7.006286 -88.205604 3.731614
20.92711 -77.883702 -18.639649
21.23686 -77.191738 -17.450722
20.317403 -78.744454 -17.663643
20.619767 -78.434574 -26.766351
21.660587 -76.813645 -26.640208
21.063372 -77.894833 -25.619242
20.619767 -78.434574 -26.766351
19.567661 -80.001735 -26.90571
1.94923 -85.137985 13.813409
1.310107 -84.590157 15.056815
1.558653 -86.283184 12.495821
1.94923 -85.137985 13.813409
-2.376436 -83.838306 18.813215
-2.942629 -83.143768 20.14582
-1.827097 -84.530975 17.477656
-2.376436 -83.838306 18.813215
-2.768101 -84.983349 17.588498
-1.279131 -85.171291 16.221699
-0.887467 -84.026249 17.446415
-1.827097 -84.530975 17.477656
-2.683905 -86.898376 14.961165
-3.171484 -86.153454 16.336022
-1.633317 -86.261353 15.020005
-2.683905 -86.898376 14.961165
-0.693687 -85.756626 14.988764
-1.279131 -85.171291 16.221699
-1.633317 -86.261353 15.020005
-0.051275 -86.277321 13.795444
0.302911 -85.18726 14.997138
-0.693687 -85.756626 14.988764
0.517409 -86.87756 12.51248
-0.051275 -86.277321 13.795444
1.558653 -86.283184 12.495821
0.517409 -86.87756 12.51248
-10.045483 -87.209179 19.917667
-9.6117 -86.130085 21.141507
-10.562984 -86.462212 21.304467
-9.587301 -87.977733 18.54692
-10.045483 -87.209179 19.917667
-8.584809 -87.605152 18.387985
-9.587301 -87.977733 18.54692
25.161414 -69.018383 -13.742095
25.773538 -68.103455 -14.837731
24.499494 -70.390835 -13.854967
25.161414 -69.018383 -13.742095
24.542615 -69.898278 -12.611004
22.807927 -72.26907 -9.13747
22.123376 -73.64899 -9.385995
23.316147 -71.625729 -10.32503
22.807927 -72.26907 -9.13747
23.263361 -72.12402 -11.58471
23.933481 -70.772438 -11.464196
23.316147 -71.625729 -10.32503
20.754084 -77.538822 -15.067294
21.386488 -76.670536 -16.092012
21.513419 -76.156868 -14.68459
20.313188 -77.720428 -12.547441
21.071327 -76.361107 -12.352582
20.106835 -78.377826 -13.925849
20.313188 -77.720428 -12.547441
19.539008 -79.073101 -12.813417
19.979904 -78.891494 -15.33327
20.754084 -77.538822 -15.067294
20.106835 -78.377826 -13.925849
19.06703 -80.398365 -15.504554
19.714279 -79.55936 -16.646
19.979904 -78.891494 -15.33327
17.90018 -80.891475 -9.569031
17.274487 -81.575988 -8.485594
17.601423 -81.705826 -10.94355
18.427594 -80.363323 -10.699378
17.90018 -80.891475 -9.569031
14.414842 -87.406509 -16.669326
15.38647 -86.045754 -16.431793
14.765441 -86.704369 -15.274074
13.961018 -88.172165 -17.901205
14.414842 -87.406509 -16.669326
13.259961 -84.224586 -0.331509
12.675797 -84.43861 0.798435
12.923496 -85.144325 -1.763561
13.259961 -84.224586 -0.331509
11.399813 -86.393646 -0.747267
11.791396 -85.435356 0.580948
11.988353 -86.279099 -1.981468
11.399813 -86.393646 -0.747267
12.923496 -85.144325 -1.763561
11.988353 -86.279099 -1.981468
12.223874 -86.921952 -4.474435
13.159017 -85.787178 -4.256528
11.820673 -87.84763 -5.809195
12.223874 -86.921952 -4.474435
12.486529 -87.486016 -6.9715
11.820673 -87.84763 -5.809195
25.392017 -70.191986 -19.788355
25.59071 -69.562218 -18.585726
24.821412 -71.044799 -18.723069
25.265889 -70.651405 -21.019157
24.504637 -72.048389 -21.180757
25.147807 -71.025227 -22.274217
25.392017 -70.191986 -19.788355
25.265889 -70.651405 -21.019157
24.587061 -72.092628 -25.980964
23.62811 -73.669594 -26.198143
24.252349 -72.538048 -27.197513
24.820648 -71.730213 -24.772219
24.587061 -72.092628 -25.980964
3 0 13 12
3 1 59 60
3 1 61 62
3 1 63 65
3 63 15 64
3 63 64 65
3 2 66 68
3 68 67 16
3 66 67 68
3 2 69 71
3 69 19 70
3 69 70 71
3 2 72 74
3 74 73 19
3 72 73 74
3 3 22 20
3 75 25 76
3 78 77 25
3 80 79 26
3 4 29 27
3 82 81 30
3 83 33 84
3 86 85 14
3 87 34 88
3 89 35 90
3 91 90 34
3 89 90 91
3 5 92 93
3 95 94 17
3 97 96 18
3 98 37 99
3 100 40 101
3 102 101 38
3 100 101 102
3 9 41 21
3 9 42 41
3 6 43 31
3 103 44 104
3 105 104 23
3 103 104 105
3 106 45 107
3 108 107 44
3 106 107 108
3 110 109 45
3 10 111 112
3 10 113 115
3 113 46 114
3 113 114 115
3 116 47 117
3 118 117 32
3 116 117 118
3 119 48 120
3 121 49 122
3 123 50 124
3 125 124 49
3 123 124 125
3 126 51 127
3 128 127 50
3 126 127 128
3 11 129 131
3 129 52 130
3 129 130 131
3 11 53 52
3 7 132 134
3 132 54 133
3 132 133 134
3 135 55 136
3 137 136 24
3 135 136 137
3 138 56 139
3 140 139 55
3 138 139 140
3 142 141 56
3 143 57 144
3 8 58 39
3 146 145 28
3 148 147 36
3 12 149 150
3 13 151 153
3 153 152 12
3 151 152 153
3 13 154 155
3 156 14 157
3 15 158 160
3 158 14 159
3 158 159 160
3 15 161 163
3 163 162 14
3 161 162 163
3 16 17 5
3 164 17 165
3 166 165 16
3 164 165 166
3 168 167 17
3 169 18 170
3 19 171 173
3 171 18 172
3 171 172 173
3 19 174 176
3 176 175 18
3 174 175 176
3 19 177 178
3 180 179 19
3 20 181 183
3 181 21 182
3 181 182 183
3 22 21 20
3 22 9 21
3 184 23 185
3 186 185 6
3 184 185 186
3 187 23 188
3 190 189 23
3 191 10 192
3 193 11 194
3 195 24 196
3 197 196 7
3 195 196 197
3 25 198 200
3 198 24 199
3 198 199 200
3 25 201 203
3 203 202 24
3 201 202 203
3 25 204 205
3 207 206 25
3 26 208 209
3 211 210 26
3 27 28 8
3 29 28 27
3 29 212 214
3 214 213 28
3 212 213 214
3 215 5 216
3 217 5 218
3 219 16 220
3 221 220 5
3 219 220 221
3 222 16 223
3 224 2 225
3 226 225 16
3 224 225 226
3 228 227 2
3 30 31 3
3 229 31 230
3 231 230 30
3 229 230 231
3 232 6 233
3 234 233 31
3 232 233 234
3 235 6 236
3 238 237 6
3 239 32 240
3 33 241 243
3 241 32 242
3 241 242 243
3 33 244 246
3 246 245 32
3 244 245 246
3 14 247 249
3 247 33 248
3 247 248 249
3 250 33 251
3 252 251 14
3 250 251 252
3 254 253 33
3 255 7 256
3 34 257 258
3 34 259 261
3 259 7 260
3 259 260 261
3 34 262 264
3 264 263 7
3 262 263 264
3 35 265 267
3 267 266 34
3 265 266 267
3 35 268 269
3 270 36 271
3 272 271 4
3 270 271 272
3 273 36 274
3 276 275 36
3 17 277 279
3 279 278 5
3 277 278 279
3 281 280 17
3 18 282 283
3 285 284 18
3 286 1 287
3 289 288 1
3 291 290 2
3 292 26 293
3 37 294 296
3 294 26 295
3 294 295 296
3 37 297 299
3 299 298 26
3 297 298 299
3 300 37 301
3 302 37 303
3 305 304 37
3 38 39 0
3 40 39 38
3 40 8 39
3 21 306 308
3 306 40 307
3 306 307 308
3 41 40 21
3 41 8 40
3 41 27 8
3 42 27 41
3 42 4 27
3 31 22 3
3 43 22 31
3 43 9 22
3 23 43 6
3 44 43 23
3 44 9 43
3 44 42 9
3 45 42 44
3 45 4 42
3 45 309 311
3 311 310 4
3 309 310 311
3 313 312 45
3 46 314 315
3 46 316 317
3 32 318 319
3 47 320 322
3 322 321 32
3 320 321 322
3 47 323 325
3 323 10 324
3 323 324 325
3 326 47 327
3 328 47 329
3 330 10 331
3 332 331 47
3 330 331 332
3 333 46 334
3 335 334 10
3 333 334 335
3 336 46 337
3 339 338 46
3 340 15 341
3 342 341 1
3 340 341 342
3 343 15 344
3 346 345 15
3 347 12 348
3 48 349 351
3 349 12 350
3 349 350 351
3 48 0 12
3 49 352 353
3 49 354 355
3 49 356 358
3 356 48 357
3 356 357 358
3 50 48 49
3 50 0 48
3 50 38 0
3 51 38 50
3 51 359 361
3 361 360 38
3 359 360 361
3 362 51 363
3 52 364 366
3 364 51 365
3 364 365 366
3 52 367 369
3 369 368 51
3 367 368 369
3 52 370 372
3 370 20 371
3 370 371 372
3 53 20 52
3 53 3 20
3 54 373 374
3 54 375 377
3 375 11 376
3 375 376 377
3 24 54 7
3 55 54 24
3 55 11 54
3 55 53 11
3 56 53 55
3 56 3 53
3 56 30 3
3 378 30 379
3 380 379 56
3 378 379 380
3 382 381 30
3 57 383 384
3 57 385 386
3 387 57 388
3 389 57 390
3 392 391 57
3 393 35 394
3 395 35 396
3 398 397 35
3 39 13 0
3 58 13 39
3 58 399 401
3 401 400 13
3 399 400 401
3 28 58 8
3 402 58 403
3 404 403 28
3 402 403 404
3 406 405 58
3 36 29 4
3 407 29 408
3 409 408 36
3 407 408 409
3 411 410 29
