ply
format ascii 1.0
element vertex 182
property float x
property float y
property float z
element face 161
property list uchar int vertex_index
end_header
-10.660212 -48.886456 -38.201885
-10.898592 -61.805645 -38.74511
-17.252865 -75.573921 -33.167027
-7.791169 -47.397781 -41.401192
-17.125031 -68.918205 -32.614697
-13.646776 -55.960278 -35.294994
-14.111869 -62.310497 -35.530373
-10.865894 -55.092682 -38.526669
-7.708489 -53.701511 -41.493649
-12.905939 -49.157032 -35.200829
-10.15792 -42.502815 -38.007824
-14.207091 -68.971558 -35.942856
-12.212186 -52.471405 -36.671833
-12.287104 -55.396145 -36.939537
-10.743895 -51.842186 -38.40757
-7.81196 -50.458946 -41.431019
-11.277216 -42.96944 -36.498878
-12.57311 -62.12352 -37.176888
-14.073483 -65.492851 -35.855618
-12.482464 -65.465096 -37.4123
-9.190685 -45.134857 -39.634136
-9.248404 -48.113167 -39.834526
-8.953876 -60.792675 -40.333176
-10.671221 -64.756172 -38.942528
-15.379721 -62.259693 -33.958847
-13.839079 -58.964676 -35.468739
-12.401284 -58.601009 -37.116325
-10.959164 -58.574551 -38.6105
-9.333726 -51.29047 -39.937172
-9.3461 -54.693581 -40.041553
-9.319484 -57.93121 -40.090019
-13.321709 -52.480186 -35.183395
-11.812364 -49.03389 -36.709999
-11.528109 -45.903446 -36.614483
-10.437547 -45.758015 -38.088734
-9.018455 -42.021435 -39.499084
-15.57011 -65.808731 -34.196873
-15.7354 -69.11348 -34.355015
-12.503695 -68.695885 -37.471157
-17.920113 -77.070511 -32.469926
-18.623363 -77.005005 -31.579093
-17.956116 -75.508415 -32.276194
-17.20659 -77.261021 -33.301069
-17.920113 -77.070511 -32.469926
-7.766386 -42.897957 -41.183605
-8.512431 -44.794962 -40.425829
-8.444639 -43.237852 -40.391913
-17.813707 -70.539608 -31.881276
-17.708348 -68.855621 -31.739628
-17.181431 -70.620525 -32.754436
-17.813707 -70.539608 -31.881276
-8.790535 -62.284508 -40.399765
-7.996014 -60.259808 -41.02936
-13.742928 -57.462477 -35.381867
-14.492362 -59.04591 -34.618799
-14.39621 -57.543711 -34.531927
-7.606126 -55.211819 -41.523956
-8.411623 -57.326668 -40.822142
-8.513986 -55.816361 -40.791834
-13.113824 -50.818609 -35.192112
-13.830909 -52.42045 -34.428447
-13.623024 -50.758873 -34.437164
-14.97478 -70.671872 -35.274641
-15.738934 -70.742832 -34.480721
-14.971246 -69.042519 -35.148936
-11.491848 -68.30288 -38.26037
-11.587458 -66.726029 -38.206843
-10.57561 -66.333023 -38.996055
-16.96851 -67.305858 -32.578432
-17.708348 -68.855621 -31.739628
-7.044657 -48.495317 -42.158934
-7.801564 -48.928364 -41.416106
-7.034262 -46.964735 -42.14402
-6.993342 -50.0466 -42.157713
-7.044657 -48.495317 -42.158934
-6.22604 -48.082971 -42.885627
-6.941607 -51.667883 -42.189028
-7.760224 -52.080229 -41.462334
-6.993342 -50.0466 -42.157713
-6.790499 -53.186878 -42.224115
-6.941607 -51.667883 -42.189028
-13.438401 -49.164531 -34.40556
-13.623024 -50.758873 -34.437164
-11.179816 -41.430321 -36.403184
-11.818776 -43.046438 -35.725856
-10.614338 -41.236087 -37.180696
-11.179816 -41.430321 -36.403184
-10.05469 -41.002775 -37.935169
-10.717568 -42.736127 -37.253351
-10.614338 -41.236087 -37.180696
-9.424732 -40.714937 -38.780603
-10.05469 -41.002775 -37.935169
-8.541291 -46.284117 -40.526024
-9.219545 -46.624012 -39.734331
-8.512431 -44.794962 -40.425829
-7.812673 -45.926424 -41.309357
-8.519787 -47.755474 -40.617859
-8.541291 -46.284117 -40.526024
-7.020583 -45.415313 -42.163605
-7.812673 -45.926424 -41.309357
-7.042088 -43.943956 -42.07177
-7.034262 -46.964735 -42.14402
-7.020583 -45.415313 -42.163605
-17.245348 -73.948383 -33.030602
-17.956116 -75.508415 -32.276194
-9.649207 -64.266256 -39.704441
-9.812548 -62.774424 -39.637852
-8.790535 -62.284508 -40.399765
-10.57561 -66.333023 -38.996055
-9.649207 -64.266256 -39.704441
-15.262683 -60.693418 -33.863853
-15.977415 -62.353292 -33.126207
-14.6094 -60.612184 -34.713793
-15.262683 -60.693418 -33.863853
-14.492362 -59.04591 -34.618799
-8.22882 -58.757401 -40.94372
-9.13668 -59.361942 -40.211597
-8.411623 -57.326668 -40.822142
-7.996014 -60.259808 -41.02936
-8.22882 -58.757401 -40.94372
-7.606126 -55.211819 -41.523956
-6.790499 -53.186878 -42.224115
-14.200419 -55.83573 -34.500115
-14.39621 -57.543711 -34.531927
-14.037886 -54.095684 -34.444315
-13.830909 -52.42045 -34.428447
-13.484243 -54.220232 -35.239194
-14.200419 -55.83573 -34.500115
-14.037886 -54.095684 -34.444315
-12.754689 -47.649956 -35.15498
-13.438401 -49.164531 -34.40556
-11.940327 -44.556159 -35.804004
-11.818776 -43.046438 -35.725856
-12.065774 -46.023162 -35.861807
-11.940327 -44.556159 -35.804004
-11.402662 -44.436443 -36.55668
-12.217024 -47.530239 -35.907656
-12.754689 -47.649956 -35.15498
-12.065774 -46.023162 -35.861807
-8.358524 -41.681141 -40.324387
-8.444639 -43.237852 -40.391913
-9.10457 -43.578146 -39.56661
-8.854999 -40.474247 -39.526234
-9.588188 -42.262125 -38.753454
-9.424732 -40.714937 -38.780603
-8.305801 -40.227339 -40.252523
-8.854999 -40.474247 -39.526234
-7.645871 -39.887045 -41.077826
-8.358524 -41.681141 -40.324387
-8.305801 -40.227339 -40.252523
-16.095855 -63.976602 -33.250507
-15.977415 -62.353292 -33.126207
-16.191049 -65.751121 -33.36952
-16.095855 -63.976602 -33.250507
-15.474915 -64.034212 -34.07786
-16.34757 -67.363468 -33.405785
-16.96851 -67.305858 -32.578432
-16.191049 -65.751121 -33.36952
-16.486615 -70.718163 -33.624595
-17.181431 -70.620525 -32.754436
-16.430215 -69.015842 -33.484856
-16.49015 -72.347515 -33.750301
-16.486615 -70.718163 -33.624595
-15.738934 -70.742832 -34.480721
-16.497667 -73.973053 -33.886726
-17.245348 -73.948383 -33.030602
-16.49015 -72.347515 -33.750301
-12.327191 -70.194031 -37.62195
-11.491848 -68.30288 -38.26037
-13.310686 -70.535363 -36.818062
-12.327191 -70.194031 -37.62195
-14.162384 -70.673199 -36.053911
-13.355393 -68.833721 -36.707006
-13.310686 -70.535363 -36.818062
-14.930073 -72.373513 -35.385696
-14.97478 -70.671872 -35.274641
-14.162384 -70.673199 -36.053911
-16.483085 -75.572452 -33.978739
-16.497667 -73.973053 -33.886726
-16.43681 -77.259552 -34.112781
-17.20659 -77.261021 -33.301069
-16.483085 -75.572452 -33.978739
3 0 14 12
3 2 39 41
3 39 40 41
3 2 42 43
3 1 19 17
3 46 45 20
3 44 45 46
3 4 47 48
3 4 49 50
3 52 51 22
3 5 53 55
3 53 25 54
3 53 54 55
3 7 26 13
3 7 27 26
3 3 28 21
3 8 29 15
3 8 30 29
3 8 56 58
3 58 57 30
3 56 57 58
3 9 59 61
3 59 31 60
3 59 60 61
3 9 32 31
3 10 33 16
3 10 34 33
3 10 35 34
3 6 36 24
3 11 37 18
3 11 62 64
3 64 63 37
3 62 63 64
3 65 38 66
3 67 66 23
3 65 66 67
3 68 4 69
3 12 13 5
3 14 13 12
3 14 7 13
3 70 15 71
3 72 71 3
3 70 71 72
3 73 15 74
3 73 74 75
3 76 8 77
3 78 77 15
3 76 77 78
3 80 79 8
3 81 9 82
3 83 16 84
3 85 16 86
3 87 10 88
3 89 88 16
3 87 88 89
3 91 90 10
3 17 18 6
3 19 18 17
3 19 11 18
3 20 21 0
3 92 21 93
3 94 93 20
3 92 93 94
3 95 3 96
3 97 96 21
3 95 96 97
3 98 3 99
3 98 99 100
3 102 101 3
3 103 2 104
3 22 23 1
3 105 23 106
3 107 106 22
3 105 106 107
3 109 108 23
3 110 24 111
3 25 112 114
3 112 24 113
3 112 113 114
3 25 6 24
3 13 25 5
3 26 25 13
3 26 6 25
3 26 17 6
3 27 17 26
3 27 1 17
3 21 14 0
3 28 14 21
3 28 7 14
3 15 28 3
3 29 28 15
3 29 7 28
3 29 27 7
3 30 27 29
3 30 1 27
3 30 22 1
3 115 22 116
3 117 116 30
3 115 116 117
3 119 118 22
3 121 120 8
3 122 5 123
3 31 124 125
3 31 126 128
3 126 5 127
3 126 127 128
3 31 12 5
3 32 12 31
3 32 0 12
3 129 9 130
3 16 131 132
3 33 133 135
3 135 134 16
3 133 134 135
3 33 136 138
3 136 9 137
3 136 137 138
3 33 32 9
3 34 32 33
3 34 0 32
3 34 20 0
3 35 20 34
3 35 139 141
3 141 140 20
3 139 140 141
3 142 35 143
3 144 143 10
3 142 143 144
3 145 35 146
3 149 148 35
3 147 148 149
3 24 150 151
3 36 152 154
3 154 153 24
3 152 153 154
3 36 155 157
3 155 4 156
3 155 156 157
3 18 36 6
3 37 36 18
3 37 4 36
3 37 158 160
3 160 159 4
3 158 159 160
3 163 162 37
3 161 162 163
3 164 2 165
3 164 165 166
3 23 19 1
3 38 19 23
3 38 11 19
3 167 38 168
3 169 38 170
3 171 11 172
3 173 172 38
3 171 172 173
3 176 175 11
3 174 175 176
3 177 2 178
3 181 180 2
3 179 180 181
