ply
format ascii 1.0
element vertex 446
property float x
property float y
property float z
element face 444
property list uchar int vertex_index
end_header
-40.820976 -9.411622 -30.364738
-40.854156 -27.051092 -31.189356
-41.312664 -16.522045 -31.491121
-41.5033 -16.346043 -38.409542
-39.099323 -34.481323 -16.320889
-38.858257 -38.903675 -29.740751
-38.937374 -36.599796 -22.968935
-40.655594 -25.933966 -24.456884
-41.174511 -12.364612 -31.03838
-41.320469 -11.756359 -34.176125
-40.085308 -32.84095 -30.470539
-41.366756 -10.273982 -41.831375
-37.543755 -40.719856 -18.61953
-39.779675 -29.787827 -17.048817
-39.980728 -30.398254 -20.523865
-40.396767 -25.486475 -21.122086
-40.813183 -21.144676 -24.750761
-41.228054 -21.500549 -31.502493
-41.430607 -16.313349 -34.823971
-41.400963 -11.167083 -37.714474
-37.732578 -39.569622 -15.190671
-40.730236 -12.592896 -27.970728
-38.935661 -37.631031 -26.384974
-40.041504 -32.103149 -27.180084
-39.037483 -35.415951 -19.683119
-40.044807 -31.139103 -23.938705
-40.770954 -26.527296 -27.83823
-41.081215 -21.365959 -28.067022
-41.08601 -16.555708 -28.264498
-41.007378 -10.615383 -30.674248
-41.120228 -10.233159 -32.086143
-40.922916 -8.832008 -31.568371
-40.52602 -29.926132 -30.919689
-40.538624 -30.284712 -32.647312
-40.906567 -27.159702 -32.976913
-41.263306 -9.788437 -43.785225
-41.002464 -6.785673 -45.467327
-40.119289 -27.571556 -19.183876
-40.369179 -23.270765 -21.196177
-41.294315 -18.936306 -31.471123
-41.356709 -19.011496 -33.149738
-41.376816 -16.582043 -33.172836
-41.231068 -9.21704 -35.415405
-41.359913 -11.29455 -35.95623
-41.264301 -8.744244 -37.253216
-41.280666 -8.330132 -39.068043
-41.091457 -6.063686 -38.526081
-38.074177 -41.988083 -29.321905
-41.449753 -19.090704 -36.617668
-41.362423 -21.672283 -36.746967
-38.247631 -39.262615 -22.457726
-38.228558 -39.873413 -24.12993
-38.919601 -37.183895 -24.735695
-39.536625 -34.845051 -26.775591
-39.518406 -34.411671 -24.995193
-38.490231 -37.031258 -15.819268
-38.386166 -37.639942 -17.496233
-39.054104 -35.009518 -17.925163
-40.354725 -28.22187 -22.657505
-39.99921 -30.928967 -22.254335
-40.411339 -28.515963 -24.288286
-40.461281 -28.759459 -26.014383
-40.727318 -26.183292 -26.185152
-40.97039 -23.898647 -28.045895
-40.886749 -23.861727 -26.321857
-40.736206 -18.844652 -24.905783
-40.972786 -18.848156 -26.589046
-40.858849 -16.750599 -26.521662
-40.946201 -14.62976 -28.027925
-40.630192 -14.628054 -26.417492
-41.272369 -14.235379 -31.342653
-41.348286 -14.32365 -32.912933
-41.263245 -12.023964 -32.598297
-41.183926 -9.684094 -33.676533
-41.046635 -7.487441 -34.674236
-39.568634 -35.675228 -30.206739
-39.482162 -36.383408 -31.879992
-40.089478 -33.210781 -32.327553
-40.512787 -30.665829 -34.463604
-41.476997 -13.180511 -40.05032
-37.43219 -41.502953 -20.193161
-38.239151 -38.813126 -20.709389
-39.543465 -32.590382 -18.405993
-40.271141 -27.850731 -20.950897
-40.550198 -25.701841 -22.750759
-40.783512 -23.534643 -24.587158
-40.627037 -23.288458 -22.973886
-40.565262 -21.026518 -23.064417
-40.360996 -18.766733 -23.10384
-41.08989 -24.183409 -31.442499
-41.137657 -24.3561 -33.102261
-41.286873 -21.572193 -33.202034
-41.408836 -19.08741 -34.84177
-41.479248 -16.275242 -36.613041
-41.397449 -13.9559 -34.592697
-41.442017 -13.644893 -36.289902
-41.480186 -13.575704 -38.153076
-41.409321 -10.72381 -39.675499
-41.266014 -7.929244 -41.077808
-36.915844 -41.932598 -14.728037
-41.170376 -24.547274 -34.912704
-41.404556 -19.191654 -40.472958
-40.539391 -9.257705 -29.304991
-40.622204 -7.94486 -30.70755
-40.407566 -10.783236 -27.830948
-40.786682 -10.746344 -29.303556
-38.8979 -38.280758 -27.959051
-39.560959 -35.232571 -28.421741
-40.089993 -32.327011 -28.829378
-40.512341 -29.488916 -29.293306
-37.607506 -40.201641 -16.986078
-38.343235 -38.079079 -19.145021
-38.946274 -36.135803 -21.254572
-39.583752 -32.870499 -20.252985
-39.569202 -33.356373 -21.870478
-39.54174 -33.871662 -23.398979
-40.057575 -31.522877 -25.54306
-40.456909 -29.321037 -27.540022
-40.804672 -26.87364 -29.494459
-41.018707 -24.231546 -29.650208
-41.15152 -21.627409 -29.722044
-41.221493 -18.997854 -29.815321
-40.980839 -21.265554 -26.499134
-41.128559 -18.813101 -28.263247
-41.226852 -16.525692 -29.894974
-41.153229 -14.373395 -29.746855
-41.000385 -12.49432 -29.465664
-40.947716 -5.550216 -45.023477
-41.086816 -7.001097 -44.342794
-40.83362 -5.287885 -46.155325
-40.947716 -5.550216 -45.023477
-41.171272 -7.744765 -36.926558
-41.247685 -8.980642 -36.334311
-41.154656 -7.981163 -36.007652
-41.08485 -6.404486 -37.56299
-41.177879 -7.403965 -37.889648
-41.171272 -7.744765 -36.926558
-38.814468 -39.222158 -30.648735
-38.422428 -40.764363 -30.439312
-38.466217 -40.445879 -29.531328
-41.483315 -17.624075 -38.523851
-41.456541 -18.996406 -37.627915
-41.476527 -17.718373 -37.513605
-40.693146 -16.762841 -25.679535
-40.797528 -17.797626 -25.713722
-40.631825 -17.809867 -24.871595
-40.578817 -15.701568 -25.62745
-40.744521 -15.689326 -26.469577
-40.693146 -16.762841 -25.679535
-41.091334 -8.926146 -33.360426
-41.152077 -9.958627 -32.881338
-41.059484 -9.200679 -32.565231
-41.022688 -7.82782 -33.859278
-41.11528 -8.585767 -34.175384
-41.091334 -8.926146 -33.360426
-40.699652 -29.188741 -34.56374
-40.525706 -30.475271 -33.555458
-40.71257 -28.998182 -33.655594
-40.691349 -29.223377 -35.439079
-40.699652 -29.188741 -34.56374
-41.397108 -11.704363 -41.931297
-41.452229 -13.157627 -41.040769
-41.421876 -11.727246 -40.940848
-41.201794 -11.397384 -44.842436
-41.283592 -11.377626 -43.882458
-41.181507 -9.808194 -44.745203
-37.487972 -41.111404 -19.406346
-36.999843 -42.532876 -19.043325
-37.055626 -42.141327 -18.256509
-39.845114 -29.921579 -17.94279
-39.652372 -30.910363 -16.861171
-40.383339 -20.899639 -22.232528
-40.46722 -22.148642 -22.130297
-40.285297 -22.021763 -21.298408
-40.281206 -19.769747 -22.25224
-40.463129 -19.896625 -23.084128
-40.383339 -20.899639 -22.232528
-41.170658 -6.678238 -40.797227
-41.27334 -8.129688 -40.072925
-41.177984 -6.878683 -39.792345
-41.142449 -6.394191 -41.780853
-41.170658 -6.678238 -40.797227
-39.449509 -36.564222 -32.801713
-39.743975 -35.079249 -32.981649
-41.247067 -23.197207 -34.870264
-41.154016 -24.451687 -34.007482
-41.230707 -23.101619 -33.965042
-41.261864 -23.246018 -36.672628
-41.345281 -21.854914 -37.639574
-41.405925 -17.632723 -41.326591
-41.445818 -17.625425 -40.385988
-40.348927 -8.344112 -29.401964
-40.27767 -9.08261 -28.631429
-40.211758 -9.845375 -27.894407
-40.138864 -10.744156 -27.08393
-40.27767 -9.08261 -28.631429
-40.473478 -10.020471 -28.56797
-40.211758 -9.845375 -27.894407
-38.547279 -39.144305 -26.03395
-38.193728 -40.265496 -24.906428
-38.58211 -38.752222 -25.257452
-38.916781 -37.955894 -27.172013
-38.528399 -39.469168 -26.820988
-38.547279 -39.144305 -26.03395
-40.666184 -7.46521 -31.435219
-40.447007 -6.974043 -30.931852
-40.960829 -8.500103 -32.306345
-41.059484 -9.200679 -32.565231
-41.021572 -9.532584 -31.827257
-40.896542 -27.435677 -33.820395
-40.71257 -28.998182 -33.655594
-40.722595 -28.722207 -32.812112
-41.217237 -8.502479 -43.501744
-41.315031 -10.031209 -42.8083
-41.268963 -8.745252 -42.524819
-41.132885 -8.287055 -44.626276
-41.217237 -8.502479 -43.501744
-41.086816 -7.001097 -44.342794
-41.051086 -8.306812 -45.586254
-41.181507 -9.808194 -44.745203
-41.132885 -8.287055 -44.626276
-40.872749 -6.609319 -46.518194
-41.051086 -8.306812 -45.586254
-40.872749 -6.609319 -46.518194
-40.83362 -5.287885 -46.155325
-37.148018 -41.694586 -17.508601
-37.055626 -42.141327 -18.256509
-39.997656 -27.46658 -18.247962
-39.949482 -28.679692 -18.116346
-39.827849 -28.574716 -17.180433
-40.132784 -26.45878 -19.254866
-39.997656 -27.46658 -18.247962
-40.271523 -25.416239 -20.223971
-40.258028 -26.529015 -20.152981
-40.132784 -26.45878 -19.254866
-40.257728 -24.308385 -20.261016
-40.382973 -24.37862 -21.159132
-40.271523 -25.416239 -20.223971
-40.187928 -23.151972 -20.319617
-40.257728 -24.308385 -20.261016
-40.285297 -22.021763 -21.298408
-40.187928 -23.151972 -20.319617
-41.083379 -5.745459 -39.521364
-41.177984 -6.878683 -39.792345
-41.186061 -7.196909 -38.797062
-38.01552 -42.326737 -30.175646
-37.588867 -43.818476 -29.930264
-37.647524 -43.479822 -29.076523
-38.363771 -41.103016 -31.293053
-38.01552 -42.326737 -30.175646
-38.422428 -40.764363 -30.439312
-41.406088 -20.381493 -36.682317
-41.34309 -21.759711 -35.787396
-41.386755 -20.468922 -35.722746
-41.412876 -20.287195 -37.692564
-41.406088 -20.381493 -36.682317
-41.456541 -18.996406 -37.627915
-41.345281 -21.854914 -37.639574
-41.412876 -20.287195 -37.692564
-38.238095 -39.568014 -23.293828
-37.820927 -41.000593 -23.031008
-37.830464 -40.695194 -22.194906
-41.062439 -7.116364 -35.637068
-41.154656 -7.981163 -36.007652
-41.138852 -8.352241 -35.044821
-40.047632 -33.492935 -33.205429
-39.743975 -35.079249 -32.981649
-39.78582 -34.797095 -32.103773
-40.259287 -32.220459 -34.273454
-40.047632 -33.492935 -33.205429
-40.301133 -31.938305 -33.395578
-40.462492 -30.895871 -35.300556
-40.259287 -32.220459 -34.273454
-40.462492 -30.895871 -35.300556
-40.691349 -29.223377 -35.439079
-41.482039 -14.619853 -40.17467
-41.49519 -16.20262 -39.354281
-41.490149 -14.763277 -39.229931
-41.482039 -14.619853 -40.17467
-41.452229 -13.157627 -41.040769
-41.345383 -11.46159 -42.908222
-41.397108 -11.704363 -41.931297
-41.315031 -10.031209 -42.8083
-41.345383 -11.46159 -42.908222
-41.283592 -11.377626 -43.882458
-37.009254 -42.792637 -19.963448
-36.999843 -42.532876 -19.043325
-37.422743 -41.815363 -21.062623
-37.009254 -42.792637 -19.963448
-37.839911 -40.382784 -21.325443
-37.830464 -40.695194 -22.194906
-37.422743 -41.815363 -21.062623
-39.534267 -32.31164 -17.539759
-39.321394 -33.535853 -17.363441
-39.312196 -33.257111 -16.497207
-39.727009 -31.322856 -18.621378
-39.534267 -32.31164 -17.539759
-39.94564 -30.226792 -19.680314
-39.762096 -31.494318 -19.464929
-39.727009 -31.322856 -18.621378
-40.014921 -28.813443 -19.01032
-39.845114 -29.921579 -17.94279
-39.949482 -28.679692 -18.116346
-40.090847 -28.953031 -19.89383
-40.014921 -28.813443 -19.01032
-40.195215 -27.711143 -20.067387
-40.125934 -29.124493 -20.737381
-39.94564 -30.226792 -19.680314
-40.090847 -28.953031 -19.89383
-40.44422 -17.770907 -23.970624
-40.631825 -17.809867 -24.871595
-40.548601 -18.805692 -24.004812
-41.305315 -21.709666 -34.014929
-41.230707 -23.101619 -33.965042
-41.212265 -22.964146 -33.152147
-41.366297 -20.467274 -34.834797
-41.305315 -21.709666 -34.014929
-41.347854 -20.329801 -34.021902
-41.429294 -19.089057 -35.729719
-41.386755 -20.468922 -35.722746
-41.366297 -20.467274 -34.834797
-41.218592 -7.572883 -42.148035
-41.268963 -8.745252 -42.524819
-41.316385 -9.101613 -41.454591
-41.218592 -7.572883 -42.148035
-41.142449 -6.394191 -41.780853
-36.517071 -42.850378 -13.514509
-36.418825 -43.212217 -14.387401
-36.967808 -41.697717 -13.765331
-36.517071 -42.850378 -13.514509
-37.376175 -40.51623 -13.996647
-37.324211 -40.75111 -14.959354
-36.967808 -41.697717 -13.765331
-37.795526 -39.297848 -14.384689
-37.376175 -40.51623 -13.996647
-38.174353 -38.028666 -14.698987
-38.111404 -38.30044 -15.504969
-37.795526 -39.297848 -14.384689
-38.526367 -36.781588 -14.970735
-38.174353 -38.028666 -14.698987
-38.830913 -35.50662 -15.221546
-38.794777 -35.756291 -16.070079
-38.526367 -36.781588 -14.970735
-39.085283 -34.329458 -15.422857
-38.830913 -35.50662 -15.221546
-39.312196 -33.257111 -16.497207
-39.085283 -34.329458 -15.422857
-39.58654 -30.855588 -15.914939
-39.652372 -30.910363 -16.861171
-39.681307 -29.614713 -16.144607
-39.58654 -30.855588 -15.914939
-39.827849 -28.574716 -17.180433
-39.681307 -29.614713 -16.144607
-39.126421 -37.962025 -31.718356
-38.814468 -39.222158 -30.648735
-39.170209 -37.643541 -30.810372
-39.126421 -37.962025 -31.718356
-39.449509 -36.564222 -32.801713
-41.028447 -26.129463 -34.78829
-40.896542 -27.435677 -33.820395
-41.038471 -25.853488 -33.944809
-41.266399 -23.109779 -35.829836
-41.247067 -23.197207 -34.870264
-41.34309 -21.759711 -35.787396
-41.16584 -24.683513 -35.755496
-41.266399 -23.109779 -35.829836
-41.261864 -23.246018 -36.672628
-41.028447 -26.129463 -34.78829
-41.16584 -24.683513 -35.755496
-41.483315 -17.624075 -38.523851
-41.49519 -16.20262 -39.354281
-41.433943 -19.046881 -39.55556
-41.445818 -17.625425 -40.385988
-41.366348 -20.614599 -39.502569
-41.433943 -19.046881 -39.55556
-41.338665 -19.158417 -41.434977
-41.405925 -17.632723 -41.326591
-41.316661 -20.684033 -40.467934
-41.338665 -19.158417 -41.434977
-41.366348 -20.614599 -39.502569
-41.316661 -20.684033 -40.467934
-40.390333 -7.68769 -30.103243
-40.580798 -8.601282 -30.00627
-40.348927 -8.344112 -29.401964
-40.447007 -6.974043 -30.931852
-40.390333 -7.68769 -30.103243
-40.102902 -18.730357 -22.179794
-40.281206 -19.769747 -22.25224
-40.204301 -17.685243 -23.128065
-40.102902 -18.730357 -22.179794
-40.44422 -17.770907 -23.970624
-40.204301 -17.685243 -23.128065
-40.404039 -14.587632 -25.606551
-40.578817 -15.701568 -25.62745
-40.467962 -13.630668 -26.386235
-40.404039 -14.587632 -25.606551
-40.517984 -12.613088 -27.162854
-40.680214 -13.610475 -27.19411
-40.467962 -13.630668 -26.386235
-40.35665 -11.708258 -27.092963
-40.138864 -10.744156 -27.08393
-40.568901 -11.688066 -27.900838
-40.517984 -12.613088 -27.162854
-40.35665 -11.708258 -27.092963
-37.68306 -43.132401 -28.158388
-37.647524 -43.479822 -29.076523
-37.256407 -44.624139 -27.913006
-38.121555 -41.596807 -28.453789
-37.68306 -43.132401 -28.158388
-38.513596 -40.054603 -28.663213
-38.466217 -40.445879 -29.531328
-38.121555 -41.596807 -28.453789
-37.8219 -41.28078 -23.823854
-37.820927 -41.000593 -23.031008
-37.8219 -41.28078 -23.823854
-38.193728 -40.265496 -24.906428
-38.533417 -39.743145 -27.772362
-38.528399 -39.469168 -26.820988
-38.878079 -38.592216 -28.849901
-38.513596 -40.054603 -28.663213
-38.533417 -39.743145 -27.772362
-36.834063 -42.300956 -15.562854
-36.418825 -43.212217 -14.387401
-37.179894 -41.435478 -16.691874
-36.834063 -42.300956 -15.562854
-37.261675 -41.06712 -15.857057
-37.575631 -40.460749 -17.802804
-37.148018 -41.694586 -17.508601
-37.179894 -41.435478 -16.691874
-40.81654 -7.908784 -31.86563
-40.77256 -8.388434 -31.13796
-40.666184 -7.46521 -31.435219
-40.960829 -8.500103 -32.306345
-40.81654 -7.908784 -31.86563
-40.917183 -6.804013 -34.240469
-41.022688 -7.82782 -33.859278
-40.933127 -6.321908 -35.15262
-40.917183 -6.804013 -34.240469
-41.062439 -7.116364 -35.637068
-40.933127 -6.321908 -35.15262
-40.962308 -5.146967 -38.050007
-41.08485 -6.404486 -37.56299
-40.955813 -4.722167 -39.013958
-40.962308 -5.146967 -38.050007
-41.083379 -5.745459 -39.521364
-40.955813 -4.722167 -39.013958
3 0 31 29
3 1 34 32
3 127 36 128
3 130 129 36
3 2 41 39
3 131 44 132
3 133 132 42
3 131 132 133
3 134 46 135
3 136 135 44
3 134 135 136
3 5 137 139
3 139 138 47
3 137 138 139
3 3 140 142
3 142 141 48
3 140 141 142
3 6 52 50
3 6 54 52
3 4 57 55
3 7 60 58
3 7 62 60
3 7 64 62
3 143 67 144
3 145 144 65
3 143 144 145
3 146 69 147
3 148 147 67
3 146 147 148
3 8 72 70
3 149 73 150
3 151 150 30
3 149 150 151
3 152 74 153
3 154 153 73
3 152 153 154
3 10 77 75
3 155 78 156
3 157 156 33
3 155 156 157
3 159 158 78
3 11 160 162
3 162 161 79
3 160 161 162
3 165 164 35
3 163 164 165
3 12 166 168
3 166 80 167
3 166 167 168
3 12 81 80
3 13 169 170
3 15 83 37
3 15 84 83
3 15 86 84
3 171 87 172
3 173 172 38
3 171 172 173
3 174 88 175
3 176 175 87
3 174 175 176
3 17 91 89
3 18 92 40
3 18 93 92
3 9 94 71
3 19 95 43
3 19 96 95
3 19 97 96
3 177 98 178
3 179 178 45
3 177 178 179
3 181 180 98
3 183 182 76
3 184 100 185
3 186 185 90
3 184 185 186
3 188 187 49
3 189 101 190
3 192 191 102
3 193 104 194
3 195 102 196
3 197 196 104
3 195 196 197
3 22 198 200
3 200 199 51
3 198 199 200
3 22 201 203
3 201 106 202
3 201 202 203
3 22 107 106
3 23 108 53
3 23 109 108
3 20 110 99
3 24 111 56
3 24 112 111
3 14 113 82
3 25 114 59
3 25 115 114
3 25 116 115
3 26 117 61
3 26 118 117
3 26 119 118
3 27 120 63
3 27 121 120
3 16 122 85
3 28 123 66
3 28 124 123
3 28 125 124
3 21 126 68
3 21 105 126
3 205 204 103
3 29 30 8
3 31 30 29
3 31 206 208
3 208 207 30
3 206 207 208
3 32 33 10
3 34 33 32
3 34 209 211
3 211 210 33
3 209 210 211
3 212 35 213
3 214 213 11
3 212 213 214
3 36 215 217
3 215 35 216
3 215 216 217
3 36 218 220
3 220 219 35
3 218 219 220
3 36 221 222
3 224 223 36
3 225 12 226
3 227 37 228
3 229 228 13
3 227 228 229
3 230 37 231
3 232 15 233
3 234 233 37
3 232 233 234
3 235 38 236
3 237 236 15
3 235 236 237
3 238 38 239
3 241 240 38
3 39 40 17
3 41 40 39
3 41 18 40
3 42 43 9
3 44 43 42
3 44 19 43
3 44 45 19
3 46 45 44
3 46 242 244
3 244 243 45
3 242 243 244
3 47 245 247
3 245 246 247
3 250 249 47
3 248 249 250
3 48 251 253
3 251 49 252
3 251 252 253
3 254 49 255
3 256 255 48
3 254 255 256
3 258 257 49
3 50 259 261
3 259 51 260
3 259 260 261
3 52 51 50
3 52 22 51
3 52 53 22
3 54 53 52
3 54 23 53
3 55 56 20
3 57 56 55
3 57 24 56
3 58 59 14
3 60 59 58
3 60 25 59
3 60 61 25
3 62 61 60
3 62 26 61
3 62 63 26
3 64 63 62
3 64 27 63
3 65 66 16
3 67 66 65
3 67 28 66
3 67 68 28
3 69 68 67
3 69 21 68
3 70 71 2
3 72 71 70
3 72 9 71
3 30 72 8
3 73 72 30
3 73 9 72
3 73 42 9
3 74 42 73
3 74 262 264
3 264 263 42
3 262 263 264
3 75 76 5
3 77 76 75
3 77 265 267
3 267 266 76
3 265 266 267
3 33 77 10
3 78 77 33
3 78 268 270
3 270 269 77
3 268 269 270
3 78 271 272
3 274 273 78
3 79 275 277
3 277 276 3
3 275 276 277
3 279 278 79
3 35 280 282
3 282 281 11
3 280 281 282
3 284 283 35
3 80 285 286
3 80 287 288
3 80 289 291
3 289 50 290
3 289 290 291
3 81 50 80
3 81 6 50
3 292 82 293
3 294 293 4
3 292 293 294
3 295 82 296
3 297 14 298
3 299 298 82
3 297 298 299
3 37 300 302
3 302 301 13
3 300 301 302
3 83 303 305
3 305 304 37
3 303 304 305
3 83 306 308
3 306 14 307
3 306 307 308
3 83 58 14
3 84 58 83
3 84 7 58
3 84 85 7
3 86 85 84
3 86 16 85
3 38 86 15
3 87 86 38
3 87 16 86
3 87 65 16
3 88 65 87
3 88 309 311
3 311 310 65
3 309 310 311
3 89 90 1
3 91 90 89
3 91 312 314
3 314 313 90
3 312 313 314
3 40 91 17
3 92 91 40
3 92 315 317
3 317 316 91
3 315 316 317
3 92 318 320
3 318 48 319
3 318 319 320
3 93 48 92
3 93 3 48
3 71 41 2
3 94 41 71
3 94 18 41
3 43 94 9
3 95 94 43
3 95 18 94
3 95 93 18
3 96 93 95
3 96 3 93
3 96 79 3
3 97 79 96
3 97 11 79
3 45 97 19
3 98 97 45
3 98 11 97
3 98 321 323
3 323 322 11
3 321 322 323
3 325 324 98
3 326 99 327
3 328 99 329
3 330 20 331
3 332 331 99
3 330 331 332
3 333 20 334
3 335 55 336
3 337 336 20
3 335 336 337
3 338 55 339
3 340 4 341
3 342 341 55
3 340 341 342
3 343 4 344
3 346 345 4
3 347 13 348
3 349 13 350
3 352 351 13
3 76 353 355
3 355 354 5
3 353 354 355
3 357 356 76
3 90 34 1
3 100 34 90
3 100 358 360
3 360 359 34
3 358 359 360
3 49 361 363
3 361 100 362
3 361 362 363
3 364 100 365
3 366 365 49
3 364 365 366
3 368 367 100
3 370 369 3
3 101 371 372
3 101 373 374
3 375 101 376
3 377 101 378
3 380 379 101
3 102 103 0
3 381 103 382
3 383 382 102
3 381 382 383
3 385 384 103
3 386 88 387
3 388 88 389
3 391 390 88
3 392 69 393
3 394 69 395
3 396 21 397
3 398 397 69
3 396 397 398
3 104 399 400
3 104 401 403
3 401 21 402
3 401 402 403
3 104 105 21
3 102 105 104
3 102 0 105
3 404 47 405
3 404 405 406
3 407 47 408
3 409 5 410
3 411 410 47
3 409 410 411
3 51 412 413
3 415 414 51
3 106 416 417
3 106 418 420
3 418 5 419
3 418 419 420
3 106 75 5
3 107 75 106
3 107 10 75
3 53 107 22
3 108 107 53
3 108 10 107
3 108 32 10
3 109 32 108
3 109 1 32
3 99 421 422
3 110 423 425
3 425 424 99
3 423 424 425
3 110 426 428
3 426 12 427
3 426 427 428
3 56 110 20
3 111 110 56
3 111 12 110
3 111 81 12
3 112 81 111
3 112 6 81
3 82 57 4
3 113 57 82
3 113 24 57
3 59 113 14
3 114 113 59
3 114 24 113
3 114 112 24
3 115 112 114
3 115 6 112
3 115 54 6
3 116 54 115
3 116 23 54
3 61 116 25
3 117 116 61
3 117 23 116
3 117 109 23
3 118 109 117
3 118 1 109
3 118 89 1
3 119 89 118
3 119 17 89
3 63 119 26
3 120 119 63
3 120 17 119
3 120 39 17
3 121 39 120
3 121 2 39
3 85 64 7
3 122 64 85
3 122 27 64
3 66 122 16
3 123 122 66
3 123 27 122
3 123 121 27
3 124 121 123
3 124 2 121
3 124 70 2
3 125 70 124
3 125 8 70
3 68 125 28
3 126 125 68
3 126 8 125
3 126 29 8
3 105 29 126
3 105 0 29
3 103 31 0
3 429 31 430
3 431 430 103
3 429 430 431
3 433 432 31
3 434 74 435
3 436 74 437
3 439 438 74
3 440 46 441
3 442 46 443
3 445 444 46
