ply
format ascii 1.0
element vertex 118
property float x
property float y
property float z
element face 90
property list uchar int vertex_index
end_header
0.585663 -40.66106 54.810001
-5.709272 -43.438599 61.064617
-2.428139 -42.023842 58.156281
-3.745743 -46.536469 57.335197
-7.350269 -48.067265 60.027905
-4.036331 -42.75639 59.659161
-3.102862 -44.361954 57.795681
-4.7438 -45.016979 59.263237
-5.469213 -47.249374 58.736214
-6.60503 -45.810478 60.679794
-7.541427 -44.094971 62.43206
-0.821383 -41.277859 56.467537
-1.541001 -43.521473 56.325214
-6.093893 -49.523712 57.920994
-7.913436 -50.267292 59.086933
-8.41235 -46.347382 61.970604
-9.146156 -48.684662 61.157936
-11.638558 -51.946815 60.763214
0.942832 -41.455336 53.931645
1.265482 -40.425798 53.912687
0.293998 -41.759384 54.709583
0.942832 -41.455336 53.931645
-4.872801 -43.097495 60.361889
-4.543215 -41.947092 60.564146
-5.379686 -42.288196 61.266874
-2.114287 -40.924553 58.268408
-2.923904 -41.241083 59.089011
-1.624761 -41.650851 57.311909
-1.310909 -40.551561 57.424036
-2.114287 -40.924553 58.268408
-2.998921 -46.181135 56.670502
-2.67748 -45.093878 56.900744
-3.424303 -45.449211 57.565439
-3.257956 -47.27232 56.355424
-2.998921 -46.181135 56.670502
-4.089317 -47.644882 57.03985
-3.257956 -47.27232 56.355424
-8.930751 -45.545033 62.807344
-7.976888 -45.221176 62.201332
-8.495289 -44.418827 63.038072
-10.099632 -49.160118 61.556598
-9.745327 -47.950005 62.056781
-9.443179 -49.835274 60.62158
-10.099632 -49.160118 61.556598
-11.345833 -50.791195 61.359237
-10.68938 -51.466351 60.424219
-3.728 -41.607357 59.840451
-4.543215 -41.947092 60.564146
-3.232235 -42.390116 58.907721
-2.923904 -41.241083 59.089011
-3.728 -41.607357 59.840451
0.937115 -39.682274 54.740398
1.265482 -40.425798 53.912687
-6.243053 -42.670708 61.922643
-5.379686 -42.288196 61.266874
-7.15913 -42.998894 62.606365
-6.62535 -43.766785 61.748339
-6.243053 -42.670708 61.922643
-8.10068 -43.202477 63.305183
-7.15913 -42.998894 62.606365
-8.495289 -44.418827 63.038072
-8.10068 -43.202477 63.305183
0.200373 -39.920517 55.682306
0.937115 -39.682274 54.740398
-0.50315 -40.228916 56.511074
-1.310909 -40.551561 57.424036
-0.11786 -40.969459 55.638769
0.200373 -39.920517 55.682306
-0.50315 -40.228916 56.511074
-0.409525 -42.067784 55.538351
0.293998 -41.759384 54.709583
-0.11786 -40.969459 55.638769
-0.769335 -43.189591 55.46719
-0.409525 -42.067784 55.538351
-1.181192 -42.399666 56.396376
-1.114907 -44.291151 55.389528
-0.769335 -43.189591 55.46719
-1.89655 -44.673637 56.16551
-2.321931 -43.941713 57.060448
-2.67748 -45.093878 56.900744
-1.114907 -44.291151 55.389528
-1.89655 -44.673637 56.16551
-4.951052 -48.001335 57.740358
-4.089317 -47.644882 57.03985
-4.607478 -46.892921 58.035705
-5.263392 -49.138504 57.332749
-4.951052 -48.001335 57.740358
-5.781553 -48.386543 58.328604
-5.592477 -50.319463 56.889917
-5.263392 -49.138504 57.332749
-6.486293 -50.646843 57.514332
-5.984877 -51.442594 56.483255
-5.592477 -50.319463 56.889917
-7.396064 -51.018633 58.097302
-6.486293 -50.646843 57.514332
-7.003664 -49.895502 58.503963
-8.25196 -51.437498 58.537256
-7.396064 -51.018633 58.097302
-9.378424 -46.781365 62.463116
-8.930751 -45.545033 62.807344
-8.779253 -47.516022 61.56427
-9.378424 -46.781365 62.463116
-9.745327 -47.950005 62.056781
-8.826819 -50.626589 59.586078
-8.529796 -49.475977 60.122434
-9.443179 -49.835274 60.62158
-8.25196 -51.437498 58.537256
-8.826819 -50.626589 59.586078
-11.052479 -52.714889 59.778413
-10.68938 -51.466351 60.424219
-12.037446 -53.049751 60.190859
-11.052479 -52.714889 59.778413
-12.265501 -51.095596 61.737253
-11.345833 -50.791195 61.359237
-12.647913 -52.292421 61.120264
-12.265501 -51.095596 61.737253
-12.037446 -53.049751 60.190859
-12.647913 -52.292421 61.120264
3 0 18 19
3 0 20 21
3 1 22 24
3 22 5 23
3 22 23 24
3 1 7 5
3 1 9 7
3 2 25 26
3 2 27 29
3 27 11 28
3 27 28 29
3 2 12 11
3 3 30 32
3 32 31 6
3 30 31 32
3 3 33 34
3 3 35 36
3 4 13 8
3 4 14 13
3 37 15 38
3 39 38 10
3 37 38 39
3 40 16 41
3 43 42 16
3 44 17 45
3 5 46 47
3 5 48 50
3 48 2 49
3 48 49 50
3 5 6 2
3 7 6 5
3 7 3 6
3 7 8 3
3 9 8 7
3 9 4 8
3 51 0 52
3 53 1 54
3 55 10 56
3 57 56 1
3 55 56 57
3 58 10 59
3 61 60 10
3 62 0 63
3 11 64 65
3 11 66 68
3 66 0 67
3 66 67 68
3 11 69 71
3 71 70 0
3 69 70 71
3 12 72 74
3 74 73 11
3 72 73 74
3 12 75 76
3 6 12 2
3 77 12 78
3 79 78 6
3 77 78 79
3 81 80 12
3 8 82 84
3 84 83 3
3 82 83 84
3 13 85 87
3 87 86 8
3 85 86 87
3 13 88 89
3 13 90 92
3 90 91 92
3 14 93 95
3 95 94 13
3 93 94 95
3 14 96 97
3 10 9 1
3 15 9 10
3 15 4 9
3 98 15 99
3 16 100 102
3 100 15 101
3 100 101 102
3 16 4 15
3 16 14 4
3 103 14 104
3 105 104 16
3 103 104 105
3 107 106 14
3 17 108 109
3 17 110 111
3 112 17 113
3 114 17 115
3 117 116 17
