ply
format ascii 1.0
element vertex 181
property float x
property float y
property float z
element face 156
property list uchar int vertex_index
end_header
-13.478993 80.568687 3.90679
-12.183507 74.567581 13.566277
-14.350509 75.378815 8.80468
-11.219787 79.803566 8.980708
-16.042833 84.701599 -11.064426
-15.516346 80.815224 -0.942544
-14.263101 85.347298 -6.130548
-12.406383 89.59362 -11.75801
-11.771672 77.12442 11.354138
-13.960202 77.878494 6.553362
-15.464056 75.539444 6.372009
-15.016711 78.169014 4.021979
-16.053892 78.252274 1.573659
-14.510001 80.793091 1.438338
-13.192331 85.623749 -3.823788
-13.346812 87.592995 -8.863025
-11.366384 89.959152 -9.116126
-13.663547 72.093994 13.661237
-14.742029 72.673141 11.039263
-13.31117 74.947395 11.22308
-12.779871 77.798431 8.84324
-12.3066 80.43084 6.300754
-16.827204 82.567375 -8.34859
-15.79103 72.959892 8.619195
-17.055504 78.129333 -0.772265
-16.541508 80.628731 -3.382732
-11.649879 83.06958 3.745895
-10.918272 85.498833 1.289219
-12.778604 83.232353 1.328067
-13.879245 83.254913 -1.07785
-14.934045 83.131546 -3.455997
-15.906651 82.933846 -5.89324
-15.218306 85.109543 -8.712429
-14.229665 87.305679 -11.434115
-13.271132 89.146286 -14.324279
-10.817649 90.105511 -7.939161
-11.871448 88.884545 -7.782608
-16.829073 83.390972 -10.924613
-17.221259 82.32386 -9.566695
-16.435018 83.634487 -9.706508
-16.150264 74.250366 6.358083
-15.945052 75.605442 5.235675
-10.722123 84.178901 3.693684
-11.116204 82.825894 5.026689
-11.533798 85.51022 0.031531
-10.571324 86.642491 -0.05174
-12.463964 84.37698 0.050956
-11.848438 84.365593 1.308643
-11.533798 85.51022 0.031531
-13.014284 84.38826 -1.152003
-13.328924 83.243633 0.125109
-12.463964 84.37698 0.050956
-11.157669 76.939865 12.521366
-11.97759 75.846001 12.460207
-11.363587 75.661445 13.627436
-10.904699 78.254154 11.34946
-11.157669 76.939865 12.521366
-10.628756 79.593727 10.162745
-11.495729 78.463993 10.167423
-10.904699 78.254154 11.34946
-16.400205 84.407463 -12.187912
-15.551399 85.712066 -12.368502
-15.72138 76.920227 4.06066
-15.945052 75.605442 5.235675
-15.240384 76.854229 5.196994
-15.535302 78.210644 2.797819
-16.23997 76.961857 2.8365
-15.72138 76.920227 4.06066
-12.241741 86.785691 -3.921412
-12.670827 85.572677 -2.524972
-12.784421 86.716843 -5.136439
-12.241741 86.785691 -3.921412
-13.319806 86.578618 -6.289819
-13.727716 85.485523 -4.977168
-12.784421 86.716843 -5.136439
-12.861662 87.701466 -7.656058
-13.804956 86.470146 -7.496787
-13.319806 86.578618 -6.289819
-12.356598 88.776073 -8.989576
-12.861662 87.701466 -7.656058
-11.871448 88.884545 -7.782608
-14.202788 72.383567 12.35025
-14.871066 71.286041 12.21789
-14.331824 70.996467 13.528878
-17.494239 81.372402 -8.260841
-17.115629 81.505341 -7.05761
-17.494239 81.372402 -8.260841
-17.221259 82.32386 -9.566695
-16.829073 83.390972 -10.924613
-16.400205 84.407463 -12.187912
-15.387795 71.406666 11.052738
-15.516831 70.019565 12.231365
-14.871066 71.286041 12.21789
-15.912295 71.550041 9.842704
-15.387795 71.406666 11.052738
-15.26653 72.816517 9.829229
-16.413628 71.708454 8.594741
-15.912295 71.550041 9.842704
-16.313752 72.96059 7.481675
-15.627543 74.249668 7.495602
-16.150264 74.250366 6.358083
-16.413628 71.708454 8.594741
-16.313752 72.96059 7.481675
-16.757584 76.936378 1.61735
-16.23997 76.961857 2.8365
-17.258389 76.874908 0.444388
-16.757584 76.936378 1.61735
-16.554698 78.190804 0.400697
-17.717841 76.865295 -0.793508
-17.258389 76.874908 0.444388
-17.522291 78.075703 -2.044774
-17.717841 76.865295 -0.793508
-17.265293 79.325401 -3.350008
-17.522291 78.075703 -2.044774
-16.798506 79.379032 -2.077498
-16.972781 80.536019 -4.574681
-17.265293 79.325401 -3.350008
-10.335358 80.972801 8.8427
-10.628756 79.593727 10.162745
-10.901158 81.192887 7.644096
-10.335358 80.972801 8.8427
-11.444564 81.506524 6.304119
-11.763193 80.117203 7.640731
-10.901158 81.192887 7.644096
-11.97824 81.75021 5.023325
-11.444564 81.506524 6.304119
-11.116204 82.825894 5.026689
-9.983346 86.600307 1.145207
-10.571324 86.642491 -0.05174
-10.356319 85.393528 2.465346
-9.983346 86.600307 1.145207
-11.284076 84.284207 2.517557
-10.722123 84.178901 3.693684
-10.356319 85.393528 2.465346
-13.535788 84.439331 -2.450819
-13.014284 84.38826 -1.152003
-12.670827 85.572677 -2.524972
-16.655353 81.688576 -5.829935
-16.972781 80.536019 -4.574681
-16.22408 81.781289 -4.637986
-16.366927 82.75061 -7.120915
-17.115629 81.505341 -7.05761
-16.655353 81.688576 -5.829935
-14.644815 87.014106 -12.553346
-15.551399 85.712066 -12.368502
-15.136249 86.003639 -11.24927
-14.165548 87.93441 -13.998428
-14.644815 87.014106 -12.553346
-13.750398 88.225983 -12.879197
-13.750279 88.67445 -15.360656
-14.165548 87.93441 -13.998428
-10.336079 91.090828 -9.312862
-10.817649 90.105511 -7.939161
-10.826071 90.951229 -10.547383
-10.336079 91.090828 -9.312862
-11.34607 90.768463 -11.868325
-11.886384 89.776386 -10.437068
-10.826071 90.951229 -10.547383
-11.814096 90.552314 -13.147724
-11.34607 90.768463 -11.868325
-12.24647 90.328648 -14.430858
-12.838757 89.369953 -13.041145
-11.814096 90.552314 -13.147724
-12.722644 89.95549 -15.565927
-12.24647 90.328648 -14.430858
-13.201791 89.483654 -16.602303
-13.750279 88.67445 -15.360656
-12.722644 89.95549 -15.565927
-13.806922 70.77761 14.732252
-14.331824 70.996467 13.528878
-13.080032 71.965733 14.794446
-13.806922 70.77761 14.732252
-13.223408 70.649349 15.865461
-12.340013 73.202526 14.746966
-12.923527 73.330787 13.613757
-13.080032 71.965733 14.794446
-11.59325 74.276336 14.802956
-12.340013 73.202526 14.746966
-11.749755 72.911282 15.983645
-11.363587 75.661445 13.627436
-11.59325 74.276336 14.802956
3 0 11 9
3 0 13 11
3 35 16 36
3 1 19 17
3 3 20 8
3 3 21 20
3 4 37 39
3 39 38 22
3 37 38 39
3 2 23 18
3 41 40 10
3 5 24 12
3 5 25 24
3 42 26 43
3 44 27 45
3 46 28 47
3 48 47 27
3 46 47 48
3 49 29 50
3 51 50 28
3 49 50 51
3 6 30 14
3 6 31 30
3 6 32 31
3 7 33 15
3 7 34 33
3 52 8 53
3 54 53 1
3 52 53 54
3 55 8 56
3 57 3 58
3 59 58 8
3 57 58 59
3 61 60 4
3 9 10 2
3 11 10 9
3 11 62 64
3 64 63 10
3 62 63 64
3 11 65 67
3 65 12 66
3 65 66 67
3 13 12 11
3 13 5 12
3 68 14 69
3 70 14 71
3 72 6 73
3 74 73 14
3 72 73 74
3 75 15 76
3 77 76 6
3 75 76 77
3 16 78 80
3 78 15 79
3 78 79 80
3 16 7 15
3 17 81 83
3 81 18 82
3 81 82 83
3 19 18 17
3 19 2 18
3 8 19 1
3 20 19 8
3 20 2 19
3 20 9 2
3 21 9 20
3 21 0 9
3 22 84 85
3 87 86 22
3 89 88 4
3 18 90 92
3 90 91 92
3 23 93 95
3 95 94 18
3 93 94 95
3 23 96 97
3 10 23 2
3 98 23 99
3 100 99 10
3 98 99 100
3 102 101 23
3 12 103 104
3 24 105 107
3 107 106 12
3 105 106 107
3 24 108 109
3 24 110 111
3 25 112 114
3 114 113 24
3 112 113 114
3 25 115 116
3 117 3 118
3 119 3 120
3 121 21 122
3 123 122 3
3 121 122 123
3 26 124 126
3 124 21 125
3 124 125 126
3 26 0 21
3 27 127 128
3 27 129 130
3 27 131 133
3 131 26 132
3 131 132 133
3 28 26 27
3 28 0 26
3 28 13 0
3 29 13 28
3 29 5 13
3 14 134 136
3 134 29 135
3 134 135 136
3 30 29 14
3 30 5 29
3 30 25 5
3 31 25 30
3 31 137 139
3 139 138 25
3 137 138 139
3 31 140 142
3 140 22 141
3 140 141 142
3 32 22 31
3 32 4 22
3 15 32 6
3 33 32 15
3 33 4 32
3 33 143 145
3 145 144 4
3 143 144 145
3 34 146 148
3 148 147 33
3 146 147 148
3 34 149 150
3 151 16 152
3 153 16 154
3 155 7 156
3 157 156 16
3 155 156 157
3 158 7 159
3 160 34 161
3 162 161 7
3 160 161 162
3 163 34 164
3 167 166 34
3 165 166 167
3 168 17 169
3 170 17 171
3 170 171 172
3 173 1 174
3 175 174 17
3 173 174 175
3 176 1 177
3 176 177 178
3 180 179 1
