ply
format ascii 1.0
element vertex 255
property float x
property float y
property float z
element face 213
property list uchar int vertex_index
end_header
-28.936014 41.314075 3.626086
-32.090881 33.221424 7.582677
-34.734608 29.40637 5.168791
-31.333277 36.978939 1.258767
-29.697054 40.595901 -0.44292
-32.325993 28.233009 14.439112
-30.544224 27.418818 19.195669
-27.658155 30.682455 21.98563
-27.631802 45.342228 1.517394
-33.081791 33.203114 3.183797
-30.449192 37.334061 5.51725
-30.733528 32.828381 12.298356
-29.261091 37.030102 10.125546
-30.199381 39.050781 2.443402
-30.44828 38.906101 0.384937
-29.352171 41.14138 1.548129
-28.266186 28.383053 22.853403
-26.860332 29.990061 24.268051
-32.668793 33.210686 5.364064
-31.807413 35.228062 4.348314
-31.253508 35.310627 6.534569
-30.83522 30.085495 15.659143
-31.549429 30.576517 13.315189
-29.985176 32.51125 14.663674
-32.92255 31.17012 8.5424
-32.480419 34.740105 0.254423
-31.500658 36.649311 -0.580706
-31.454489 27.76638 16.934298
-29.968584 29.594343 18.157419
-29.109266 28.961029 20.616453
-27.091114 33.088486 20.81131
-28.26549 43.284397 2.64076
-34.279182 31.132429 2.214201
-32.23254 35.056702 2.161696
-31.027308 37.094948 3.324041
-29.676773 39.284874 4.628934
-33.077984 28.619501 12.073294
-32.238815 30.913389 11.013028
-31.469955 32.977577 9.998768
-29.194538 34.657612 13.815763
-29.909897 34.975117 11.400312
-30.684624 35.090366 8.894938
-29.803003 37.366459 7.838513
-29.08663 39.322784 6.875657
-28.322136 41.54987 5.774459
-28.644497 43.034641 0.534596
-26.460669 29.569834 25.403999
-27.161544 28.789946 24.669713
-26.177017 30.834897 24.942058
-26.460669 29.569834 25.403999
-32.379837 33.216055 6.47337
-33.082321 32.218546 5.872554
-32.793366 32.223915 6.98186
-29.675214 32.148964 15.854859
-30.410198 31.298372 15.161409
-30.100237 30.936087 16.352593
-33.255198 30.171559 9.18296
-33.623737 30.154796 8.00238
-30.174758 39.439552 -0.948218
-30.550371 38.594652 -0.53429
-30.072667 39.751001 -0.028992
-29.74854 40.264238 -1.379864
-30.174758 39.439552 -0.948218
-30.999356 27.592599 18.064983
-31.759091 26.666842 17.444423
-31.303959 26.49306 18.575108
-28.083066 30.974545 20.773179
-28.808622 30.113831 20.088591
-28.38371 29.821742 21.301042
-27.374634 31.885471 21.39847
-27.799546 32.17756 20.186019
-28.083066 30.974545 20.773179
-34.919522 29.363042 4.168817
-35.526972 28.31317 3.697106
-35.342059 28.356497 4.69708
-33.680487 32.167772 2.698999
-34.063339 31.284233 3.230898
-33.464644 32.319575 3.715696
-33.223873 33.100565 2.242119
-33.822569 32.065222 1.757321
-33.680487 32.167772 2.698999
-32.657166 34.129908 2.672747
-32.799247 34.027359 1.731069
-33.223873 33.100565 2.242119
-32.701988 28.426255 13.256203
-33.434187 27.525733 12.621694
-33.058191 27.332487 13.804603
-28.466788 35.607399 14.46324
-28.843815 34.455984 14.981246
-29.585494 36.002609 10.762929
-29.215058 35.871914 12.038773
-28.890655 36.899406 11.40139
-28.41253 40.365213 7.474009
-28.73787 39.279493 8.111329
-28.030283 41.478756 6.92341
-28.704383 40.436327 6.325058
-28.41253 40.365213 7.474009
-27.684344 42.604771 6.393448
-28.030283 41.478756 6.92341
-30.867069 26.194032 19.711748
-31.303959 26.49306 18.575108
-27.864472 27.986441 23.962389
-28.535002 27.17908 23.342858
-28.133288 26.782469 24.451844
-27.563259 29.186557 23.560727
-27.864472 27.986441 23.962389
-27.161544 28.789946 24.669713
-26.556224 31.280923 23.731434
-26.955136 31.62712 22.590224
-27.259244 30.336258 23.126841
-26.556224 31.280923 23.731434
-26.177017 30.834897 24.942058
-34.291052 30.421203 4.708193
-34.115229 30.316388 5.774917
-33.258145 32.323362 4.805829
-33.082321 32.218546 5.872554
-32.875292 33.2069 4.273931
-33.464644 32.319575 3.715696
-33.258145 32.323362 4.805829
-28.524758 38.016339 10.834145
-28.890655 36.899406 11.40139
-28.825101 38.133152 9.736273
-28.524758 38.016339 10.834145
-27.767722 45.228658 0.568729
-27.315388 46.446236 0.933886
-35.147545 28.368382 5.709027
-35.342059 28.356497 4.69708
-35.754995 27.31851 5.237317
-34.529766 29.272921 6.315575
-35.147545 28.368382 5.709027
-34.115229 30.316388 5.774917
-34.529766 29.272921 6.315575
-33.2092 31.198263 7.461722
-33.623737 30.154796 8.00238
-32.506715 32.195772 8.062539
-32.793366 32.223915 6.98186
-33.2092 31.198263 7.461722
-32.502628 34.516174 -0.639773
-33.009501 33.646483 -0.143647
-32.012748 35.470777 -1.057338
-32.502628 34.516174 -0.639773
-31.990538 35.694708 -0.163142
-31.522221 36.297033 -1.476405
-32.012748 35.470777 -1.057338
-31.07656 37.466257 -1.017111
-30.974469 37.777706 -0.097885
-30.550371 38.594652 -0.53429
-31.522221 36.297033 -1.476405
-31.07656 37.466257 -1.017111
-32.652929 27.150304 14.966855
-33.058191 27.332487 13.804603
-32.217177 26.91699 16.214448
-31.759091 26.666842 17.444423
-31.890241 27.999695 15.686705
-32.652929 27.150304 14.966855
-32.217177 26.91699 16.214448
-29.666919 30.69051 17.601731
-30.100237 30.936087 16.352593
-30.401902 29.839919 16.908281
-30.121389 27.097839 20.334211
-30.867069 26.194032 19.711748
-28.982371 27.579957 22.163078
-28.535002 27.17908 23.342858
-29.403911 27.868945 21.044604
-28.982371 27.579957 22.163078
-28.687726 28.672041 21.734928
-29.826745 28.189923 19.906061
-30.121389 27.097839 20.334211
-29.403911 27.868945 21.044604
-29.238281 30.430488 18.859074
-29.538925 29.277686 19.386936
-28.808622 30.113831 20.088591
-29.666919 30.69051 17.601731
-29.238281 30.430488 18.859074
-27.451801 33.402161 19.631016
-27.799546 32.17756 20.186019
-26.682896 34.379074 20.368919
-27.451801 33.402161 19.631016
-26.671616 32.830135 22.003063
-27.374634 31.885471 21.39847
-26.955136 31.62712 22.590224
-26.322235 34.045963 21.587153
-26.671616 32.830135 22.003063
-26.682896 34.379074 20.368919
-26.322235 34.045963 21.587153
-27.963141 43.441614 3.730171
-28.600752 42.299236 3.133423
-28.298403 42.456453 4.222834
-27.697883 44.438347 3.150701
-27.963141 43.441614 3.730171
-27.381039 45.467263 2.589017
-27.948646 44.313312 2.079077
-27.697883 44.438347 3.150701
-27.1004 46.574045 2.007719
-27.381039 45.467263 2.589017
-27.315388 46.446236 0.933886
-27.1004 46.574045 2.007719
-34.475966 30.377876 3.708219
-34.919522 29.363042 4.168817
-34.291052 30.421203 4.708193
-34.691809 30.226071 2.691522
-34.475966 30.377876 3.708219
-34.063339 31.284233 3.230898
-34.795524 30.147268 1.7168
-34.691809 30.226071 2.691522
-34.352131 31.033033 1.304897
-34.795524 30.147268 1.7168
-34.352131 31.033033 1.304897
-33.822569 32.065222 1.757321
-32.923187 33.869061 0.777432
-33.009501 33.646483 -0.143647
-32.356479 34.898404 1.20806
-32.923187 33.869061 0.777432
-32.799247 34.027359 1.731069
-33.770552 27.743113 11.438544
-33.434187 27.525733 12.621694
-33.332915 28.896249 10.948407
-33.770552 27.743113 11.438544
-32.91333 30.043194 10.418274
-33.332915 28.896249 10.948407
-32.6584 29.766445 11.543161
-32.580683 31.041754 9.777714
-33.255198 30.171559 9.18296
-32.91333 30.043194 10.418274
-29.239134 33.382803 15.405202
-29.675214 32.148964 15.854859
-29.589857 33.584431 14.239719
-29.239134 33.382803 15.405202
-28.843815 34.455984 14.981246
-28.857378 35.713161 13.246499
-28.466788 35.607399 14.46324
-29.552218 34.816364 12.608038
-28.857378 35.713161 13.246499
-29.215058 35.871914 12.038773
-29.096057 38.30133 8.592757
-29.532047 37.19828 8.982029
-28.825101 38.133152 9.736273
-29.444817 38.344622 7.357085
-29.096057 38.30133 8.592757
-28.73787 39.279493 8.111329
-27.991464 42.57435 5.297021
-28.298403 42.456453 4.222834
-28.629075 41.431973 4.700273
-27.991464 42.57435 5.297021
-27.684344 42.604771 6.393448
-28.27407 44.074865 0.07733
-28.13815 44.188434 1.025995
-27.767722 45.228658 0.568729
-28.753763 42.796854 -0.410078
-28.27407 44.074865 0.07733
-29.280042 41.577484 -0.898836
-29.170776 41.815271 0.045838
-28.753763 42.796854 -0.410078
-29.74854 40.264238 -1.379864
-29.280042 41.577484 -0.898836
3 0 15 13
3 46 17 47
3 49 48 17
3 1 50 52
3 50 18 51
3 50 51 52
3 1 20 18
3 53 23 54
3 55 54 21
3 53 54 55
3 56 24 57
3 3 26 25
3 4 58 60
3 60 59 14
3 58 59 60
3 4 61 62
3 6 63 65
3 63 27 64
3 63 64 65
3 6 28 27
3 7 29 16
3 7 66 68
3 68 67 29
3 66 67 68
3 7 69 71
3 69 30 70
3 69 70 71
3 2 72 74
3 72 73 74
3 9 75 77
3 75 32 76
3 75 76 77
3 9 78 80
3 80 79 32
3 78 79 80
3 9 81 83
3 81 33 82
3 81 82 83
3 10 34 19
3 10 35 34
3 5 84 86
3 84 36 85
3 84 85 86
3 11 37 22
3 11 38 37
3 87 39 88
3 12 89 91
3 89 40 90
3 89 90 91
3 12 41 40
3 12 42 41
3 92 43 93
3 94 44 95
3 96 95 43
3 94 95 96
3 98 97 44
3 8 45 31
3 13 14 3
3 15 14 13
3 15 4 14
3 99 6 100
3 101 16 102
3 101 102 103
3 17 104 106
3 104 16 105
3 104 105 106
3 17 7 16
3 17 107 109
3 109 108 7
3 107 108 109
3 111 110 17
3 113 112 2
3 18 114 115
3 18 116 118
3 116 9 117
3 116 117 118
3 18 19 9
3 20 19 18
3 20 10 19
3 21 22 5
3 23 22 21
3 23 11 22
3 119 12 120
3 122 121 12
3 124 123 8
3 125 2 126
3 125 126 127
3 128 2 129
3 131 130 2
3 24 132 133
3 24 134 136
3 134 1 135
3 134 135 136
3 25 137 138
3 26 139 141
3 141 140 25
3 139 140 141
3 26 142 143
3 14 26 3
3 144 26 145
3 146 145 14
3 144 145 146
3 148 147 26
3 149 5 150
3 27 151 152
3 27 153 155
3 153 5 154
3 153 154 155
3 27 21 5
3 28 21 27
3 28 156 158
3 158 157 21
3 156 157 158
3 159 6 160
3 16 161 162
3 29 163 165
3 165 164 16
3 163 164 165
3 29 166 168
3 166 6 167
3 166 167 168
3 29 28 6
3 169 28 170
3 171 170 29
3 169 170 171
3 173 172 28
3 30 174 175
3 30 176 177
3 178 30 179
3 180 179 7
3 178 179 180
3 181 30 182
3 184 183 30
3 185 31 186
3 187 186 0
3 185 186 187
3 188 31 189
3 190 8 191
3 192 191 31
3 190 191 192
3 193 8 194
3 196 195 8
3 199 198 2
3 197 198 199
3 32 200 202
3 200 201 202
3 32 203 204
3 32 205 206
3 208 207 32
3 209 25 210
3 33 211 213
3 211 25 212
3 211 212 213
3 33 3 25
3 19 33 9
3 34 33 19
3 34 3 33
3 34 13 3
3 35 13 34
3 35 0 13
3 36 214 215
3 36 216 217
3 22 36 5
3 37 36 22
3 37 218 220
3 220 219 36
3 218 219 220
3 37 221 223
3 221 24 222
3 221 222 223
3 38 24 37
3 38 1 24
3 224 23 225
3 39 226 228
3 226 23 227
3 226 227 228
3 39 11 23
3 229 39 230
3 40 231 233
3 231 39 232
3 231 232 233
3 40 11 39
3 40 38 11
3 41 38 40
3 41 1 38
3 41 20 1
3 42 20 41
3 42 10 20
3 234 42 235
3 236 235 12
3 234 235 236
3 43 237 239
3 237 42 238
3 237 238 239
3 43 10 42
3 43 35 10
3 44 35 43
3 44 0 35
3 44 240 242
3 242 241 0
3 240 241 242
3 244 243 44
3 31 15 0
3 45 15 31
3 45 4 15
3 245 45 246
3 247 246 8
3 245 246 247
3 248 45 249
3 250 4 251
3 252 251 45
3 250 251 252
3 254 253 4
