ply
format ascii 1.0
element vertex 346
property float x
property float y
property float z
element face 307
property list uchar int vertex_index
end_header
-17.198212 10.592589 45.956512
-23.304344 -6.056851 43.01664
-21.563957 6.250315 42.286362
-29.328829 -2.925539 35.483978
-19.94381 12.913456 42.33535
-20.07147 17.801311 40.857975
-17.446987 15.6266 44.439274
-16.575878 6.095417 47.736008
-18.663134 4.163206 46.11187
-19.482025 8.480702 44.017788
-24.591703 -2.16434 41.001171
-26.350458 -4.527247 39.222931
-27.593018 -0.284941 37.033257
-14.153295 8.329476 49.512184
-11.597188 10.474047 51.2416
-21.572147 -3.962539 44.887562
-22.68766 0.009833 42.780327
-20.702673 2.173226 44.46603
-18.584778 11.91135 44.136673
-18.698315 14.35682 43.389252
-17.302372 13.033263 45.246986
-16.857405 8.309629 46.876511
-17.965891 7.316104 45.975857
-18.331093 9.39625 45.046024
-19.744896 10.656672 43.148895
-26.073078 -1.186904 39.040951
-12.744125 7.188514 51.069221
-12.912009 9.390967 50.377159
-11.514824 8.287932 51.850773
-13.920815 6.247594 50.250744
-22.664261 17.719925 37.583069
-22.087601 -1.938328 43.926159
-21.233364 -0.735934 44.646893
-20.125492 5.117217 44.244694
-19.729143 3.136571 45.263866
-21.175974 4.242414 43.324394
-22.175762 3.159391 42.499813
-27.797604 -3.743091 37.413353
-21.329819 16.602568 39.646038
-20.028307 15.376603 41.582825
-18.805439 16.837313 42.617596
-16.218414 4.120798 48.631912
-17.212681 3.177841 47.905334
-17.753828 5.286197 46.749241
-19.136374 6.252377 45.0079
-20.511702 7.297572 43.185604
-20.852888 9.433357 42.201221
-23.990551 -4.035083 42.011433
-24.735605 -5.293153 41.230644
-25.494242 -3.275497 40.09745
-26.902946 -2.400342 38.275745
-28.397739 -1.689829 36.37101
-15.680571 9.516026 47.761711
-15.918391 11.88544 46.950134
-14.418795 10.728676 48.680359
-13.053301 11.740725 49.678154
-10.139576 9.268133 52.727638
-15.022858 5.089121 49.525837
-15.398251 7.212796 48.610027
-21.338165 19.040848 38.901833
-16.077282 14.288371 46.199631
-21.775188 -7.021937 44.913425
-20.954952 -5.927223 45.839794
-22.486408 -4.94255 43.92194
-23.111065 -2.897388 42.898781
-23.675613 -1.0293 41.863903
-24.173019 1.025972 40.777699
-18.785587 -0.732902 47.37748
-18.234335 2.128755 47.161575
-20.238674 0.13413 45.554272
-21.711861 1.136384 43.612709
-29.999214 -1.005925 34.325455
-30.860443 -2.400672 33.571327
-11.430851 7.255739 52.179289
-12.129475 7.738223 51.459997
-12.045502 6.70603 51.788513
-12.045502 6.70603 51.788513
-12.646021 6.162043 51.416912
-22.599502 16.544418 38.032984
-23.228103 16.980266 37.076462
-20.480777 -1.264765 45.621246
-20.93812 -1.802515 45.214121
-22.069061 5.693873 41.867229
-21.87507 4.689922 42.386246
-21.369965 5.246365 42.805378
-22.267971 6.807021 41.297506
-22.069061 5.693873 41.867229
-23.716938 -6.690945 42.520773
-22.962555 -7.122968 43.437741
-29.007058 -4.013643 35.998407
-28.241445 -4.422419 36.963094
-28.563216 -3.334315 36.448666
-29.752616 -3.649066 35.085884
-29.430845 -4.73717 35.600313
-29.007058 -4.013643 35.998407
-19.986058 14.145029 41.959087
-20.636951 14.768843 41.013027
-20.594702 13.53727 41.38929
-17.437804 16.806638 44.140135
-18.11703 17.411994 43.229296
-18.126213 16.231957 43.528435
-20.544415 12.32554 41.782263
-20.444958 11.197148 42.189036
-19.844353 11.785064 42.742123
-20.594702 13.53727 41.38929
-20.544415 12.32554 41.782263
-11.658361 11.692682 50.889646
-12.386417 12.326021 50.107923
-12.325245 11.107386 50.459877
-9.371022 8.670691 53.469549
-10.103089 8.216826 53.019058
-14.316122 4.597039 50.312561
-14.885991 4.069745 49.934793
-15.31148 13.711998 47.086819
-15.997837 13.086906 46.574883
-15.232034 12.510533 47.46207
-20.979862 -7.526153 45.879632
-21.443151 -8.044664 45.293888
-21.263549 -4.944881 45.363678
-20.466833 -5.419324 46.354088
-20.77543 -4.436982 45.877972
-18.261137 -0.297405 47.815186
-18.029156 -1.278758 48.309643
-19.984092 1.647422 45.410692
-19.497327 2.129094 45.80961
-20.215908 2.654898 44.864948
-20.470674 1.153678 45.010151
-19.752092 0.627874 45.954813
-19.984092 1.647422 45.410692
-22.69254 2.656424 42.0469
-22.926653 3.740316 41.45212
-25.983942 -5.500587 39.719978
-25.176516 -5.88354 40.723835
-25.543031 -4.9102 40.226788
-30.334546 0.052117 33.664782
-29.547275 -0.344013 34.713028
-31.622566 -2.120256 32.590292
-31.164384 -1.394577 32.991611
-31.295262 -3.130943 33.172956
-31.622566 -2.120256 32.590292
-25.615553 -0.659544 39.47089
-25.33239 -1.675622 40.021061
-24.874865 -1.148262 40.451
-26.342349 -0.198737 38.49313
-25.615553 -0.659544 39.47089
-27.102319 0.252244 37.489283
-26.833048 -0.735923 38.037104
-26.342349 -0.198737 38.49313
-13.234365 5.691584 51.007673
-13.765101 5.176275 50.675015
-13.33247 6.718054 50.659982
-13.234365 5.691584 51.007673
-12.646021 6.162043 51.416912
-23.247221 18.247272 36.614025
-23.228103 16.980266 37.076462
-22.603707 18.938978 37.25714
-23.247221 18.247272 36.614025
-20.073833 19.148669 40.453772
-19.457111 18.535024 41.378348
-21.107512 -3.415818 45.334456
-20.77543 -4.436982 45.877972
-21.365239 -2.403713 44.853754
-21.829874 -2.950433 44.406861
-21.107512 -3.415818 45.334456
-21.660483 -1.337131 44.286526
-21.365239 -2.403713 44.853754
-20.93812 -1.802515 45.214121
-22.374963 4.148411 41.973955
-21.675868 3.700902 42.912104
-21.87507 4.689922 42.386246
-22.926653 3.740316 41.45212
-22.374963 4.148411 41.973955
-27.499487 -4.762064 37.860241
-26.775914 -5.154141 38.76503
-27.074031 -4.135169 38.318142
-27.499487 -4.762064 37.860241
-28.241445 -4.422419 36.963094
-21.287706 15.381826 40.044634
-21.932281 15.98574 39.064469
-20.679063 15.989586 40.614431
-21.287706 15.381826 40.044634
-20.636951 14.768843 41.013027
-18.824095 18.053024 42.258158
-19.457111 18.535024 41.378348
-19.438454 17.319312 41.737786
-18.824095 18.053024 42.258158
-18.11703 17.411994 43.229296
-16.715547 3.649319 48.268623
-16.495956 2.631358 48.773581
-15.998822 3.102836 49.13687
-21.208794 7.872955 42.217167
-21.734921 7.349327 41.767546
-21.03783 6.773943 42.735983
-21.379387 8.940848 41.724975
-21.208794 7.872955 42.217167
-20.682295 8.365464 42.693412
-21.49677 9.988035 41.28589
-21.379387 8.940848 41.724975
-20.998954 10.585491 41.715198
-20.298892 10.045015 42.675058
-20.444958 11.197148 42.189036
-21.49677 9.988035 41.28589
-20.998954 10.585491 41.715198
-14.482236 11.932151 48.327183
-15.232034 12.510533 47.46207
-15.168593 11.307058 47.815247
-13.799489 12.438175 48.826081
-14.482236 11.932151 48.327183
-13.736048 11.2347 49.179257
-13.067251 12.991243 49.358023
-13.799489 12.438175 48.826081
-13.067251 12.991243 49.358023
-12.386417 12.326021 50.107923
-10.790713 7.726725 52.580625
-11.430851 7.255739 52.179289
-10.8272 8.778033 52.289205
-10.790713 7.726725 52.580625
-10.103089 8.216826 53.019058
-9.366112 9.782516 53.194754
-9.371022 8.670691 53.469549
-10.146421 10.497909 52.415582
-9.366112 9.782516 53.194754
-10.875227 11.100866 51.672563
-10.868382 9.87109 51.984619
-10.146421 10.497909 52.415582
-11.658361 11.692682 50.889646
-10.875227 11.100866 51.672563
-15.483769 3.585584 49.487831
-15.998822 3.102836 49.13687
-15.620636 4.604959 49.078874
-15.483769 3.585584 49.487831
-14.885991 4.069745 49.934793
-14.471836 5.668357 49.88829
-14.316122 4.597039 50.312561
-13.765101 5.176275 50.675015
-21.99704 17.161247 38.614553
-22.599502 16.544418 38.032984
-21.932281 15.98574 39.064469
-21.94066 19.59944 37.916522
-22.603707 18.938978 37.25714
-22.001213 18.380387 38.242451
-20.707181 19.768438 39.475701
-20.704818 18.421079 39.879904
-20.073833 19.148669 40.453772
-21.296908 20.326614 38.53347
-20.707181 19.768438 39.475701
-21.94066 19.59944 37.916522
-21.296908 20.326614 38.53347
-15.339042 14.87873 46.773224
-15.31148 13.711998 47.086819
-16.058652 15.553272 45.900019
-15.339042 14.87873 46.773224
-16.743505 16.222386 45.019841
-16.762135 14.957486 45.319452
-16.058652 15.553272 45.900019
-17.437804 16.806638 44.140135
-16.743505 16.222386 45.019841
-22.197977 -7.605512 44.386133
-21.443151 -8.044664 45.293888
-22.539766 -6.539394 43.965032
-22.962555 -7.122968 43.437741
-22.197977 -7.605512 44.386133
-20.200156 -6.362777 46.756677
-20.466833 -5.419324 46.354088
-20.569744 -6.978796 46.342817
-20.200156 -6.362777 46.756677
-21.36507 -6.47458 45.37661
-20.979862 -7.526153 45.879632
-20.569744 -6.978796 46.342817
-24.416821 -0.580743 40.882366
-24.874865 -1.148262 40.451
-24.133658 -1.59682 41.432537
-24.665523 0.446894 40.339264
-24.416821 -0.580743 40.882366
-23.924316 -0.001664 41.320801
-24.914651 1.515427 39.768704
-24.665523 0.446894 40.339264
-18.494198 -1.755323 47.927357
-18.029156 -1.278758 48.309643
-19.256888 -1.263249 46.98654
-18.494198 -1.755323 47.927357
-16.975686 2.141786 48.446281
-16.495956 2.631358 48.773581
-17.486513 1.617243 48.074402
-16.975686 2.141786 48.446281
-17.723508 2.653298 47.533455
-17.985511 1.133424 47.707234
-17.486513 1.617243 48.074402
-18.749923 1.625186 46.758465
-18.981739 2.632663 46.212721
-19.497327 2.129094 45.80961
-17.985511 1.133424 47.707234
-18.749923 1.625186 46.758465
-19.025549 0.194358 46.866417
-18.261137 -0.297405 47.815186
-19.51213 -0.299386 46.465876
-19.025549 0.194358 46.866417
-19.752092 0.627874 45.954813
-19.983432 -0.829733 46.074936
-19.256888 -1.263249 46.98654
-19.51213 -0.299386 46.465876
-20.736019 -0.300902 45.100583
-20.480777 -1.264765 45.621246
-19.983432 -0.829733 46.074936
-22.460589 1.644921 42.603348
-21.943811 2.147887 43.056261
-22.69254 2.656424 42.0469
-22.948489 1.081646 42.187157
-22.199761 0.573109 43.196518
-22.460589 1.644921 42.603348
-23.691168 1.589715 41.185843
-23.43034 0.517903 41.779013
-22.948489 1.081646 42.187157
-24.43121 2.136059 40.160162
-23.691168 1.589715 41.185843
-24.914651 1.515427 39.768704
-24.43121 2.136059 40.160162
-22.267971 6.807021 41.297506
-21.734921 7.349327 41.767546
-24.432569 -6.309096 41.627775
-23.716938 -6.690945 42.520773
-24.019975 -5.675002 42.123642
-24.432569 -6.309096 41.627775
-25.176516 -5.88354 40.723835
-25.983942 -5.500587 39.719978
-26.775914 -5.154141 38.76503
-27.855673 0.698897 36.473616
-27.102319 0.252244 37.489283
-28.344178 0.016479 36.066929
-27.855673 0.698897 36.473616
-28.746538 -0.685965 35.735805
-27.995379 -0.987385 36.702134
-28.344178 0.016479 36.066929
-29.198476 -1.347877 35.348232
-28.746538 -0.685965 35.735805
-29.547275 -0.344013 34.713028
-30.73377 -0.697203 33.368675
-30.334546 0.052117 33.664782
-30.429828 -1.703299 33.948391
-30.73377 -0.697203 33.368675
-31.164384 -1.394577 32.991611
-30.518423 -3.386633 34.129559
-29.752616 -3.649066 35.085884
-30.094636 -2.663106 34.527653
-30.518423 -3.386633 34.129559
-31.295262 -3.130943 33.172956
3 0 20 18
3 0 23 21
3 0 18 23
3 73 28 74
3 75 74 26
3 73 74 75
3 76 26 77
3 78 30 79
3 80 32 81
3 2 35 33
3 2 82 84
3 84 83 35
3 82 83 84
3 2 85 86
3 1 87 88
3 3 89 91
3 91 90 37
3 89 90 91
3 3 92 94
3 92 93 94
3 4 95 97
3 95 39 96
3 95 96 97
3 6 40 19
3 6 98 100
3 100 99 40
3 98 99 100
3 7 43 41
3 9 44 22
3 9 45 44
3 9 46 45
3 4 101 103
3 103 102 24
3 101 102 103
3 4 104 105
3 10 49 47
3 12 50 25
3 12 51 50
3 13 54 52
3 14 55 27
3 14 106 108
3 108 107 55
3 106 107 108
3 109 56 110
3 111 57 112
3 13 58 29
3 13 52 58
3 5 59 38
3 113 60 114
3 115 114 53
3 113 114 115
3 116 61 117
3 15 118 120
3 118 62 119
3 118 119 120
3 15 63 62
3 15 64 63
3 16 65 31
3 16 66 65
3 121 67 122
3 8 68 42
3 17 123 125
3 125 124 34
3 123 124 125
3 17 126 128
3 126 69 127
3 126 127 128
3 17 70 69
3 130 129 36
3 11 131 133
3 133 132 48
3 131 132 133
3 134 71 135
3 136 72 137
3 139 138 72
3 18 19 4
3 20 19 18
3 20 6 19
3 21 22 7
3 23 22 21
3 23 9 22
3 23 24 9
3 18 24 23
3 18 4 24
3 140 25 141
3 142 141 10
3 140 141 142
3 143 25 144
3 145 12 146
3 147 146 25
3 145 146 147
3 26 27 13
3 28 27 26
3 28 14 27
3 148 29 149
3 26 150 152
3 150 29 151
3 150 151 152
3 26 13 29
3 30 153 154
3 30 155 156
3 158 157 5
3 159 15 160
3 161 31 162
3 163 162 15
3 161 162 163
3 32 164 166
3 164 31 165
3 164 165 166
3 32 16 31
3 33 34 8
3 35 34 33
3 35 17 34
3 35 36 17
3 167 36 168
3 169 168 35
3 167 168 169
3 171 170 36
3 37 172 174
3 174 173 11
3 172 173 174
3 176 175 37
3 177 38 178
3 39 179 181
3 179 38 180
3 179 180 181
3 39 5 38
3 19 39 4
3 40 39 19
3 40 5 39
3 40 182 184
3 184 183 5
3 182 183 184
3 186 185 40
3 41 187 189
3 187 42 188
3 187 188 189
3 43 42 41
3 43 8 42
3 22 43 7
3 44 43 22
3 44 8 43
3 44 33 8
3 45 33 44
3 45 2 33
3 45 190 192
3 192 191 2
3 190 191 192
3 46 193 195
3 195 194 45
3 193 194 195
3 46 196 197
3 24 46 9
3 198 46 199
3 200 199 24
3 198 199 200
3 202 201 46
3 47 48 1
3 49 48 47
3 49 11 48
3 25 49 10
3 50 49 25
3 50 11 49
3 50 37 11
3 51 37 50
3 51 3 37
3 52 53 0
3 54 53 52
3 54 203 205
3 205 204 53
3 203 204 205
3 27 54 13
3 55 54 27
3 55 206 208
3 208 207 54
3 206 207 208
3 55 209 210
3 212 211 55
3 213 28 214
3 56 215 217
3 215 28 216
3 215 216 217
3 56 14 28
3 218 56 219
3 220 56 221
3 222 14 223
3 224 223 56
3 222 223 224
3 226 225 14
3 227 41 228
3 57 229 231
3 229 41 230
3 229 230 231
3 57 7 41
3 29 232 234
3 232 57 233
3 232 233 234
3 58 57 29
3 58 7 57
3 58 21 7
3 52 21 58
3 52 0 21
3 38 235 237
3 235 30 236
3 235 236 237
3 59 30 38
3 59 238 240
3 240 239 30
3 238 239 240
3 241 59 242
3 243 242 5
3 241 242 243
3 244 59 245
3 247 246 59
3 53 20 0
3 60 20 53
3 60 6 20
3 248 60 249
3 250 60 251
3 252 6 253
3 254 253 60
3 252 253 254
3 256 255 6
3 61 257 258
3 61 259 261
3 259 1 260
3 259 260 261
3 62 262 263
3 62 264 265
3 62 266 268
3 266 61 267
3 266 267 268
3 63 61 62
3 63 1 61
3 63 47 1
3 64 47 63
3 64 10 47
3 31 64 15
3 65 64 31
3 65 10 64
3 65 269 271
3 271 270 10
3 269 270 271
3 66 272 274
3 274 273 65
3 272 273 274
3 66 275 276
3 67 277 278
3 67 279 280
3 42 281 282
3 68 283 285
3 285 284 42
3 283 284 285
3 68 286 287
3 34 68 8
3 288 68 289
3 290 289 34
3 288 289 290
3 292 291 68
3 293 67 294
3 69 295 297
3 295 67 296
3 295 296 297
3 69 298 300
3 300 299 67
3 298 299 300
3 69 301 303
3 301 32 302
3 301 302 303
3 70 32 69
3 70 16 32
3 36 70 17
3 304 70 305
3 306 305 36
3 304 305 306
3 307 16 308
3 309 308 70
3 307 308 309
3 310 66 311
3 312 311 16
3 310 311 312
3 313 66 314
3 316 315 66
3 318 317 2
3 48 319 321
3 321 320 1
3 319 320 321
3 323 322 48
3 325 324 11
3 326 12 327
3 328 12 329
3 330 51 331
3 332 331 12
3 330 331 332
3 71 333 335
3 333 51 334
3 333 334 335
3 71 3 51
3 336 71 337
3 72 338 340
3 338 71 339
3 338 339 340
3 72 3 71
3 72 341 343
3 343 342 3
3 341 342 343
3 345 344 72
