ply
format ascii 1.0
element vertex 218
property float x
property float y
property float z
element face 201
property list uchar int vertex_index
end_header
-38.436253 -27.689528 12.107186
-38.888065 -27.122202 20.65299
-36.447426 -30.660276 26.655968
-39.033596 -27.726284 16.483807
-38.794327 -31.710592 18.778147
-38.859272 -31.604057 14.350604
-37.864346 -26.530298 24.575151
-38.844193 -22.633142 22.173441
-39.218647 -23.187757 18.161631
-38.668499 -23.611755 13.996209
-38.058491 -31.188473 22.824379
-37.967056 -35.534634 20.753374
-35.34708 -30.422169 28.32653
-36.233891 -28.438181 27.369995
-38.810333 -27.611383 14.270337
-38.94865 -29.659445 15.461941
-38.737331 -29.554924 13.292209
-38.381756 -29.494892 11.019722
-38.308403 -22.235041 24.050444
-39.309227 -21.020544 18.939812
-36.652409 -37.400921 23.788774
-38.480988 -27.037663 22.649084
-37.94487 -29.035078 23.840443
-38.526859 -29.260691 21.768925
-38.70549 -33.769276 17.503698
-38.464905 -33.507599 19.820192
-38.337036 -35.544151 18.654757
-33.14333 -32.20948 30.499617
-34.430595 -32.403721 29.144529
-35.61599 -32.623672 27.558664
-36.57827 -33.064228 25.841284
-39.066467 -27.432222 18.478931
-38.871777 -29.433189 19.659883
-38.989391 -29.787264 17.620953
-38.907505 -31.771839 16.578114
-36.948658 -26.406559 26.478876
-37.720352 -24.333048 25.226372
-38.409298 -24.726877 23.396025
-38.876781 -24.81563 21.510685
-39.187435 -20.566414 20.809017
-39.155468 -22.962925 20.183773
-39.117088 -25.107819 19.48085
-39.121532 -25.490145 17.340338
-38.906857 -25.669554 15.152436
-38.501541 -25.622202 13.015118
-37.24128 -28.543011 25.601276
-37.308609 -30.953743 24.914085
-37.420135 -33.089157 23.956648
-38.525227 -31.410936 20.838598
-38.039783 -33.31868 21.942509
-37.410004 -35.347927 22.920059
-36.097796 -27.285649 27.704091
-35.622326 -28.327129 28.199348
-36.672713 -36.311714 24.313344
-36.256939 -37.232462 24.767742
-38.432203 -35.625152 17.529556
-38.521263 -34.656713 18.079228
-38.61643 -34.737715 16.954026
-38.213789 -36.550457 18.065043
-38.432203 -35.625152 17.529556
-34.271291 -31.322547 29.468409
-33.786963 -32.306601 29.822073
-33.627659 -31.225426 30.145954
-38.830383 -32.59773 14.837737
-38.8545 -32.681621 15.951492
-38.883388 -31.687948 15.464359
-38.807783 -32.491827 13.750951
-38.830383 -32.59773 14.837737
-37.627215 -23.202016 25.529792
-37.268952 -24.152149 26.090617
-39.29562 -19.563573 20.113333
-39.184148 -19.353328 21.114756
-38.787678 -24.640655 14.574323
-38.977598 -24.617287 15.62218
-38.858419 -23.588387 15.044066
-37.621943 -36.4956 21.306435
-37.343417 -36.402247 22.389777
-37.68853 -35.44128 21.836717
-35.178921 -29.319123 28.677615
-34.729534 -30.331771 29.05941
-35.790486 -29.430175 27.848263
-35.178921 -29.319123 28.677615
-35.622326 -28.327129 28.199348
-38.704916 -30.52428 12.709898
-38.765886 -31.548847 13.239095
-38.798301 -30.57949 13.821407
-38.527129 -30.494264 11.573654
-38.704916 -30.52428 12.709898
-38.559544 -29.524908 12.155966
-38.371771 -30.306705 10.433329
-38.527129 -30.494264 11.573654
-38.224622 -21.093356 24.368986
-37.92124 -22.153012 24.941828
-38.553081 -21.263153 23.400021
-38.224622 -21.093356 24.368986
-38.820977 -21.462204 22.46152
-38.576298 -22.434092 23.111942
-38.553081 -21.263153 23.400021
-39.334333 -20.036342 18.22017
-39.356516 -19.790638 19.178731
-39.259323 -21.109519 17.913727
-39.334333 -20.036342 18.22017
-39.214033 -22.193126 17.524636
-39.263937 -22.104151 18.550722
-39.259323 -21.109519 17.913727
-39.133494 -23.376389 17.126777
-39.214033 -22.193126 17.524636
-38.76234 -22.572063 14.400354
-38.858419 -23.588387 15.044066
-36.221489 -38.234518 24.283744
-36.256939 -37.232462 24.767742
-36.533133 -38.469967 23.293306
-36.102213 -39.303564 23.788276
-36.221489 -38.234518 24.283744
-38.049204 -36.552301 19.165038
-37.864214 -36.547543 20.214346
-38.152046 -35.539392 19.704065
-38.049204 -36.552301 19.165038
-38.213789 -36.550457 18.065043
-33.290183 -33.265457 30.203226
-32.616742 -33.112804 30.842823
-33.933815 -33.362578 29.525681
-33.290183 -33.265457 30.203226
-33.786963 -32.306601 29.822073
-34.561605 -33.504364 28.77111
-33.933815 -33.362578 29.525681
-34.888837 -31.412945 28.735529
-34.271291 -31.322547 29.468409
-34.729534 -30.331771 29.05941
-35.154303 -33.614339 27.978177
-34.561605 -33.504364 28.77111
-35.023292 -32.513696 28.351596
-35.697458 -33.771766 27.134802
-35.154303 -33.614339 27.978177
-36.178599 -33.992044 26.276112
-35.697458 -33.771766 27.134802
-36.09713 -32.84395 26.699974
-36.635643 -34.143367 25.339599
-36.178599 -33.992044 26.276112
-38.753493 -33.68034 16.414284
-38.806497 -32.770557 17.040906
-38.8545 -32.681621 15.951492
-38.61643 -34.737715 16.954026
-38.753493 -33.68034 16.414284
-38.807783 -32.491827 13.750951
-38.765886 -31.548847 13.239095
-36.883105 -25.188904 26.716869
-36.455179 -26.269838 27.258532
-37.334505 -25.369804 25.852624
-36.883105 -25.188904 26.716869
-37.268952 -24.152149 26.090617
-38.014377 -23.284045 24.638408
-37.627215 -23.202016 25.529792
-37.92124 -22.153012 24.941828
-38.992598 -20.42884 21.779308
-39.184148 -19.353328 21.114756
-39.015814 -21.599778 21.491229
-38.820977 -21.462204 22.46152
-38.992598 -20.42884 21.779308
-39.248331 -20.793479 19.874415
-39.29562 -19.563573 20.113333
-39.356516 -19.790638 19.178731
-39.084936 -24.527583 16.71613
-39.17009 -24.338951 17.750985
-39.133494 -23.376389 17.126777
-39.014195 -25.57985 16.246387
-39.084936 -24.527583 16.71613
-38.977598 -24.617287 15.62218
-32.417188 -32.056905 31.12135
-32.616742 -33.112804 30.842823
-31.8906 -32.960229 31.464557
-32.973273 -31.088987 30.776381
-32.417188 -32.056905 31.12135
-33.627659 -31.225426 30.145954
-32.973273 -31.088987 30.776381
-36.591274 -27.42237 26.924436
-36.097796 -27.285649 27.704091
-36.455179 -26.269838 27.258532
-37.056576 -34.155832 24.397281
-36.635643 -34.143367 25.339599
-36.999203 -33.076693 24.898966
-37.05151 -35.285217 23.878987
-37.056576 -34.155832 24.397281
-37.41507 -34.218542 23.438353
-37.031206 -36.374424 23.354416
-36.672713 -36.311714 24.313344
-37.05151 -35.285217 23.878987
-36.964619 -37.428743 22.824134
-37.031206 -36.374424 23.354416
-37.343417 -36.402247 22.389777
-36.845343 -38.497789 22.328666
-36.533133 -38.469967 23.293306
-36.964619 -37.428743 22.824134
-37.621943 -36.4956 21.306435
-37.864214 -36.547543 20.214346
-38.468269 -22.729554 13.326308
-38.76234 -22.572063 14.400354
-38.388869 -23.723368 12.964537
-38.468269 -22.729554 13.326308
-38.30539 -24.728592 12.473992
-38.58502 -24.616979 13.505664
-38.388869 -23.723368 12.964537
-38.234062 -25.726658 11.967415
-38.30539 -24.728592 12.473992
-38.201418 -26.760321 11.513449
-38.468897 -26.655865 12.561152
-38.234062 -25.726658 11.967415
-38.178579 -27.575859 11.053618
-38.201418 -26.760321 11.513449
-38.151331 -28.478541 10.509887
-38.409005 -28.59221 11.563454
-38.178579 -27.575859 11.053618
-38.139538 -29.274105 9.897623
-38.151331 -28.478541 10.509887
-37.909113 -28.257755 9.387787
-38.129553 -30.085918 9.311231
-38.371771 -30.306705 10.433329
-38.139538 -29.274105 9.897623
3 51 13 52
3 0 16 14
3 0 17 16
3 53 20 54
3 1 23 21
3 55 26 56
3 57 56 24
3 55 56 57
3 59 58 26
3 60 28 61
3 62 61 27
3 60 61 62
3 2 29 12
3 2 30 29
3 3 33 31
3 5 34 15
3 5 63 65
3 65 64 34
3 63 64 65
3 5 66 67
3 68 36 69
3 7 37 18
3 7 38 37
3 70 39 71
3 8 40 19
3 8 41 40
3 8 42 41
3 9 72 74
3 72 43 73
3 72 73 74
3 9 44 43
3 6 45 35
3 10 46 22
3 10 47 46
3 4 48 32
3 11 49 25
3 11 50 49
3 11 75 77
3 77 76 50
3 75 76 77
3 78 12 79
3 13 80 82
3 80 12 81
3 80 81 82
3 13 2 12
3 14 15 3
3 16 15 14
3 16 5 15
3 16 83 85
3 85 84 5
3 83 84 85
3 17 86 88
3 88 87 16
3 86 87 88
3 17 89 90
3 91 18 92
3 93 18 94
3 95 7 96
3 97 96 18
3 95 96 97
3 98 19 99
3 100 19 101
3 102 8 103
3 104 103 19
3 102 103 104
3 106 105 8
3 107 9 108
3 20 109 110
3 20 111 113
3 111 112 113
3 21 22 6
3 23 22 21
3 23 10 22
3 24 25 4
3 26 25 24
3 26 11 25
3 26 114 116
3 116 115 11
3 114 115 116
3 118 117 26
3 27 119 120
3 28 121 123
3 123 122 27
3 121 122 123
3 28 124 125
3 12 126 128
3 126 28 127
3 126 127 128
3 29 28 12
3 29 129 131
3 131 130 28
3 129 130 131
3 29 132 133
3 30 134 136
3 136 135 29
3 134 135 136
3 30 137 138
3 31 32 1
3 33 32 31
3 33 4 32
3 15 33 3
3 34 33 15
3 34 4 33
3 34 24 4
3 139 24 140
3 141 140 34
3 139 140 141
3 143 142 24
3 145 144 5
3 146 35 147
3 36 148 150
3 148 35 149
3 148 149 150
3 36 6 35
3 18 151 153
3 151 36 152
3 151 152 153
3 37 36 18
3 37 6 36
3 37 21 6
3 38 21 37
3 38 1 21
3 39 154 155
3 39 156 158
3 156 7 157
3 156 157 158
3 19 159 161
3 159 39 160
3 159 160 161
3 40 39 19
3 40 7 39
3 40 38 7
3 41 38 40
3 41 1 38
3 41 31 1
3 42 31 41
3 42 3 31
3 162 42 163
3 164 163 8
3 162 163 164
3 43 165 167
3 165 42 166
3 165 166 167
3 43 3 42
3 43 14 3
3 44 14 43
3 44 0 14
3 168 27 169
3 168 169 170
3 171 27 172
3 174 173 27
3 35 175 177
3 175 13 176
3 175 176 177
3 45 13 35
3 45 2 13
3 22 45 6
3 46 45 22
3 46 2 45
3 46 30 2
3 47 30 46
3 47 178 180
3 180 179 30
3 178 179 180
3 32 23 1
3 48 23 32
3 48 10 23
3 25 48 4
3 49 48 25
3 49 10 48
3 49 47 10
3 50 47 49
3 50 181 183
3 183 182 47
3 181 182 183
3 50 184 186
3 184 20 185
3 184 185 186
3 187 20 188
3 189 188 50
3 187 188 189
3 192 191 20
3 190 191 192
3 194 193 11
3 195 9 196
3 197 9 198
3 199 44 200
3 201 200 9
3 199 200 201
3 202 44 203
3 204 0 205
3 206 205 44
3 204 205 206
3 207 0 208
3 209 17 210
3 211 210 0
3 209 210 211
3 212 17 213
3 212 213 214
3 217 216 17
3 215 216 217
