ply
format ascii 1.0
element vertex 228
property float x
property float y
property float z
element face 177
property list uchar int vertex_index
end_header
26.854525 -81.101952 13.171919
25.425764 -82.031235 22.771566
22.234663 -80.497627 31.315216
24.839863 -90.451897 12.027068
27.16888 -75.804222 13.032483
25.001375 -86.432777 17.407383
26.810709 -85.055527 8.100346
26.354601 -81.97644 18.018692
26.178581 -86.071556 12.771084
26.979176 -86.425385 3.107061
27.051617 -78.330414 13.220621
26.993479 -77.969177 10.791114
26.926149 -80.569351 10.914803
23.193382 -81.093323 29.289858
25.956476 -82.085609 20.365084
25.661648 -86.31543 15.152015
25.619164 -88.504021 12.21826
26.165749 -88.18544 10.098989
27.239773 -76.254852 15.637203
26.985712 -79.02562 15.653616
25.24782 -84.256119 19.934
27.029753 -75.278976 10.747089
26.85696 -77.203758 8.456559
26.870213 -81.877609 5.822849
26.914646 -84.488899 5.815577
26.856319 -87.173943 5.484096
24.747965 -82.022179 24.863644
26.81237 -79.472511 18.22459
26.655319 -81.649277 15.640709
25.774462 -84.296989 17.706568
26.22933 -84.13488 15.304484
26.599874 -83.53994 12.954305
26.580589 -87.690048 7.879776
27.0217 -87.376724 1.755678
26.962048 -87.724518 2.8988
26.821732 -82.166581 11.908466
26.857544 -81.90028 10.779908
26.890337 -80.835651 12.043361
22.714022 -80.795475 30.302537
23.408006 -80.015598 30.620102
22.928646 -79.71775 31.632781
22.080075 -81.486007 29.978918
22.559434 -81.783856 28.966239
22.714022 -80.795475 30.302537
25.69112 -82.058422 21.568325
26.055822 -81.037353 21.597618
25.790467 -81.010166 22.80086
25.229514 -89.477959 12.122664
25.275973 -88.448933 13.463069
24.886323 -89.422871 13.367472
25.214236 -90.436543 10.876304
25.603886 -89.462604 10.9719
25.229514 -89.477959 12.122664
27.211832 -76.551056 16.897723
27.366698 -75.191742 16.872001
27.084801 -77.93644 16.905929
27.112742 -77.640236 15.645409
27.211832 -76.551056 16.897723
27.099317 -75.541599 11.889786
27.164504 -74.180999 11.964223
27.234068 -74.443623 13.10692
26.87773 -78.585041 8.446046
26.92522 -77.586467 9.623836
26.945989 -78.96775 9.613323
26.807257 -78.16391 7.224839
26.87773 -78.585041 8.446046
26.884356 -80.921966 7.129191
26.813884 -80.500835 5.907984
26.862678 -84.772213 6.957961
26.903315 -83.47591 7.084128
26.851346 -83.759224 8.226513
24.372758 -81.843311 25.978777
24.897837 -80.953175 26.126093
24.246107 -82.902424 24.61215
24.372758 -81.843311 25.978777
26.583486 -80.724475 18.121641
26.691615 -79.542652 19.424819
26.46273 -80.794616 19.32187
26.369633 -85.903244 11.567059
26.580279 -84.637436 11.65867
26.389228 -84.805748 12.862694
26.389014 -88.962989 7.590071
26.373169 -87.937744 8.989382
26.181594 -89.210685 8.699677
26.627975 -88.613548 6.472146
26.389014 -88.962989 7.590071
26.963934 -85.992848 1.936098
26.938932 -85.143006 3.260931
26.963934 -85.992848 1.936098
27.0217 -87.376724 1.755678
26.912324 -80.267837 9.675168
26.945989 -78.96775 9.613323
26.959814 -79.269264 10.852958
26.909066 -81.516136 9.633741
26.912324 -80.267837 9.675168
26.909066 -81.516136 9.633741
26.857544 -81.90028 10.779908
26.799824 -84.143368 9.372679
26.851346 -83.759224 8.226513
23.788042 -80.222759 29.593719
23.408006 -80.015598 30.620102
23.595467 -81.378884 28.191884
23.788042 -80.222759 29.593719
22.991064 -82.226204 27.8533
23.595467 -81.378884 28.191884
22.991064 -82.226204 27.8533
22.559434 -81.783856 28.966239
26.263668 -80.849201 20.495066
26.055822 -81.037353 21.597618
26.155538 -82.031025 19.191888
26.46273 -80.794616 19.32187
26.263668 -80.849201 20.495066
25.297216 -87.354637 14.929946
25.331511 -86.374104 16.279699
24.967079 -87.413311 16.05763
25.640406 -87.409726 13.685137
25.297216 -87.354637 14.929946
25.275973 -88.448933 13.463069
25.877178 -89.303314 9.912264
25.892457 -88.34473 11.158625
25.603886 -89.462604 10.9719
26.181594 -89.210685 8.699677
25.877178 -89.303314 9.912264
27.296622 -74.77264 14.259853
27.234068 -74.443623 13.10692
27.332068 -74.997955 15.562213
27.366698 -75.191742 16.872001
27.204327 -76.029537 14.334843
27.296622 -74.77264 14.259853
27.332068 -74.997955 15.562213
22.505859 -79.410954 32.676902
22.928646 -79.71775 31.632781
24.918779 -84.121914 21.102063
25.336792 -83.143677 21.352783
25.007751 -83.009472 22.520846
24.792462 -85.213864 19.757228
24.918779 -84.121914 21.102063
24.669239 -86.302193 18.49392
25.124598 -85.344448 18.670692
24.792462 -85.213864 19.757228
24.561983 -87.381645 17.119569
24.669239 -86.302193 18.49392
24.967079 -87.413311 16.05763
24.561983 -87.381645 17.119569
24.384077 -90.424839 13.099421
24.886323 -89.422871 13.367472
27.05059 -73.946537 10.745638
27.164504 -74.180999 11.964223
26.919044 -74.89748 9.579603
27.05059 -73.946537 10.745638
26.832648 -75.859871 8.434337
26.919044 -74.89748 9.579603
26.943357 -76.241367 9.601824
26.73768 -76.817009 7.233912
26.832648 -75.859871 8.434337
26.73768 -76.817009 7.233912
26.807257 -78.16391 7.224839
26.801398 -81.509159 4.663399
26.813884 -80.500835 5.907984
26.884451 -82.869118 4.618825
26.801398 -81.509159 4.663399
26.881098 -82.170265 7.087764
26.884356 -80.921966 7.129191
26.892429 -83.183254 5.819213
26.881098 -82.170265 7.087764
26.903315 -83.47591 7.084128
26.906668 -84.174762 4.615189
26.884451 -82.869118 4.618825
26.892429 -83.183254 5.819213
26.946911 -85.457142 4.461319
26.938932 -85.143006 3.260931
26.906668 -84.174762 4.615189
26.900619 -88.098797 4.087318
26.962048 -87.724518 2.8988
26.917747 -86.799664 4.295578
25.567695 -80.941353 23.974414
25.790467 -81.010166 22.80086
25.228796 -80.936825 25.020453
24.897837 -80.953175 26.126093
25.086865 -82.026707 23.817605
25.567695 -80.941353 23.974414
25.228796 -80.936825 25.020453
24.668851 -83.004944 23.566885
25.007751 -83.009472 22.520846
25.086865 -82.026707 23.817605
24.668851 -83.004944 23.566885
24.246107 -82.902424 24.61215
21.7748 -80.007965 32.406761
22.505859 -79.410954 32.676902
21.527909 -81.059059 30.989897
21.7748 -80.007965 32.406761
22.080075 -81.486007 29.978918
21.527909 -81.059059 30.989897
26.929147 -78.313541 19.45111
26.691615 -79.542652 19.424819
26.998131 -78.159886 18.191416
26.929147 -78.313541 19.45111
26.899041 -79.249066 16.939103
27.084801 -77.93644 16.905929
26.998131 -78.159886 18.191416
26.694406 -83.385575 11.799658
26.821732 -82.166581 11.908466
26.727199 -82.320946 13.063112
26.694406 -83.385575 11.799658
26.580279 -84.637436 11.65867
26.685696 -85.395229 9.23169
26.799824 -84.143368 9.372679
26.363217 -86.960186 10.231012
26.369633 -85.903244 11.567059
26.172165 -87.128498 11.435036
26.570636 -86.71249 9.121405
26.363217 -86.960186 10.231012
26.373169 -87.937744 8.989382
26.695649 -86.372788 7.990061
26.685696 -85.395229 9.23169
26.570636 -86.71249 9.121405
26.765839 -88.355495 5.274306
26.718454 -87.431995 6.681936
26.627975 -88.613548 6.472146
26.81014 -89.280349 3.877528
26.900619 -88.098797 4.087318
26.765839 -88.355495 5.274306
24.383156 -91.4048 11.661575
24.384077 -90.424839 13.099421
24.862199 -91.439381 10.551486
24.383156 -91.4048 11.661575
25.214236 -90.436543 10.876304
24.862199 -91.439381 10.551486
3 34 33 9
3 0 12 10
3 0 35 37
3 37 36 12
3 35 36 37
3 2 38 40
3 38 13 39
3 38 39 40
3 2 41 43
3 43 42 13
3 41 42 43
3 1 44 46
3 44 14 45
3 44 45 46
3 3 47 49
3 47 16 48
3 47 48 49
3 3 50 52
3 52 51 16
3 50 51 52
3 53 18 54
3 55 19 56
3 57 56 18
3 55 56 57
3 4 58 60
3 58 21 59
3 58 59 60
3 61 22 62
3 63 62 11
3 61 62 63
3 65 64 22
3 66 23 67
3 6 68 70
3 68 24 69
3 68 69 70
3 6 25 24
3 71 26 72
3 74 73 26
3 7 75 77
3 75 27 76
3 75 76 77
3 7 28 27
3 5 29 20
3 8 30 15
3 8 31 30
3 8 78 80
3 80 79 31
3 78 79 80
3 81 32 82
3 83 82 17
3 81 82 83
3 85 84 32
3 9 86 87
3 89 88 9
3 10 11 4
3 12 11 10
3 12 90 92
3 92 91 11
3 90 91 92
3 12 93 94
3 96 95 12
3 97 6 98
3 13 99 100
3 13 101 102
3 13 103 104
3 106 105 13
3 14 107 108
3 14 109 111
3 109 7 110
3 109 110 111
3 112 15 113
3 114 113 5
3 112 113 114
3 16 115 117
3 115 15 116
3 115 116 117
3 16 8 15
3 16 17 8
3 118 17 119
3 120 119 16
3 118 119 120
3 122 121 17
3 123 4 124
3 18 125 126
3 18 127 129
3 127 4 128
3 127 128 129
3 18 10 4
3 19 10 18
3 19 0 10
3 130 2 131
3 132 20 133
3 134 133 1
3 132 133 134
3 135 20 136
3 137 5 138
3 139 138 20
3 137 138 139
3 140 5 141
3 143 142 5
3 144 3 145
3 21 146 147
3 21 148 149
3 11 21 4
3 22 21 11
3 22 150 152
3 152 151 21
3 150 151 152
3 22 153 154
3 156 155 22
3 23 157 158
3 23 159 160
3 161 23 162
3 24 163 165
3 163 23 164
3 163 164 165
3 24 166 168
3 168 167 23
3 166 167 168
3 24 169 171
3 169 9 170
3 169 170 171
3 25 9 24
3 25 172 174
3 174 173 9
3 172 173 174
3 175 1 176
3 26 177 178
3 26 179 181
3 179 1 180
3 179 180 181
3 26 182 184
3 184 183 1
3 182 183 184
3 186 185 26
3 187 2 188
3 189 2 190
3 192 191 2
3 27 193 194
3 27 195 196
3 27 197 199
3 197 19 198
3 197 198 199
3 28 19 27
3 28 0 19
3 20 14 1
3 29 14 20
3 29 7 14
3 15 29 5
3 30 29 15
3 30 7 29
3 30 28 7
3 31 28 30
3 31 0 28
3 31 200 202
3 202 201 0
3 200 201 202
3 204 203 31
3 205 6 206
3 17 207 209
3 209 208 8
3 207 208 209
3 32 210 212
3 212 211 17
3 210 211 212
3 32 213 215
3 213 6 214
3 213 214 215
3 32 25 6
3 216 25 217
3 218 217 32
3 216 217 218
3 221 220 25
3 219 220 221
3 222 3 223
3 224 3 225
3 227 226 3
