ply
format ascii 1.0
element vertex 405
property float x
property float y
property float z
element face 366
property list uchar int vertex_index
end_header
0.553652 97.086395 -1.984386
-0.616333 75.333694 28.217207
-12.165771 96.98317 12.049584
-8.896947 102.263573 -0.979315
-6.305811 86.78952 21.062933
-7.915334 95.599503 10.620188
-10.633781 100.062721 5.46731
-6.204497 98.078629 4.732738
2.998762 97.405975 -7.049831
-1.788754 100.818565 -7.56439
-11.745271 83.444313 28.71244
-10.559891 88.034248 22.910446
-7.552029 82.554306 26.657089
3.064672 73.832497 26.388384
0.557608 79.485023 23.221088
7.73339 75.665054 19.652119
-5.583081 71.399277 35.140461
-4.649387 76.607101 30.181841
1.943679 69.417961 31.088472
-4.045904 99.911873 -1.638051
-6.788849 103.487556 -7.16234
-9.475116 92.212051 16.873486
-3.541291 81.029999 25.091055
-5.669964 94.525024 10.135188
-7.145299 96.924911 7.738959
-4.841628 95.8041 7.243711
-12.050479 80.693756 31.619574
-10.127557 80.639618 30.387253
-9.688969 83.110153 27.640539
-8.094213 80.178925 29.401022
4.916491 72.769989 25.533154
5.414763 74.938408 22.991135
6.131071 76.687645 20.484112
-17.462738 106.821983 -9.129094
-3.595396 71.095634 33.974743
-9.815529 101.195312 2.428046
-12.07534 102.044968 2.697087
-11.144073 103.065781 -0.52765
-0.590106 96.495262 0.902868
-2.892811 97.868103 1.206901
-1.822066 98.554924 -1.704334
-4.344572 102.232368 -7.27825
-8.43644 87.476044 21.963139
-10.037007 90.096764 20.04591
-7.991077 89.623886 19.016716
-5.7109 88.724495 18.225868
-2.545314 75.93869 29.189056
-4.12505 78.844208 27.718306
-2.033124 78.178596 26.713396
-10.102638 96.276627 11.507116
-11.49296 98.714058 8.642106
-9.330024 97.908043 8.162204
-8.328163 99.162636 4.961709
-7.459674 100.318283 1.737917
1.631386 97.475784 -4.653481
-0.740985 99.055695 -4.556604
0.597768 99.166367 -7.246492
-12.722132 88.663422 23.685801
-11.149156 85.929008 25.694098
-8.996323 85.16021 24.988531
-6.962847 84.820869 23.810541
1.183114 74.64106 27.347393
-0.082894 77.570435 25.693584
1.773126 76.689972 24.912241
-2.573023 94.672615 6.639364
-7.049263 74.516426 33.693909
-6.531219 77.131332 31.089067
-5.089988 73.981422 32.747696
-3.162588 73.528503 31.724024
-1.2533 73.014755 30.720366
0.168724 69.937057 32.093739
0.66948 72.349106 29.762285
2.545964 71.634216 28.779043
4.365752 70.956322 27.675219
-3.920547 97.023315 4.089413
-5.188413 99.148323 1.485453
-6.406403 101.156212 -1.393279
-3.010367 100.507744 -4.596641
-5.324234 101.723465 -4.269065
-7.752947 102.951042 -4.164104
-12.820015 95.128838 15.355774
-12.226847 90.821434 20.749146
-11.508295 92.709183 17.791393
-10.740107 94.612251 14.547102
-8.565787 93.905495 13.750864
-6.12033 79.655815 28.458403
-5.566209 81.829582 25.87793
-4.916452 83.935883 23.143642
-1.462436 80.204498 24.231943
-2.933303 83.07666 22.434431
-4.263173 85.97094 20.308167
-4.146936 94.630527 8.387128
-5.255796 95.164562 8.68945
-4.561104 93.990989 9.832866
-9.337688 79.120621 31.244423
-10.356343 79.349247 31.736733
-9.566474 77.83025 32.593902
-8.321016 78.890275 30.751308
-9.110885 80.409272 29.894137
-9.337688 79.120621 31.244423
6.017764 73.50338 23.669277
5.165627 73.854198 24.262144
5.768628 72.419171 24.940286
6.294458 74.377765 22.545851
6.017764 73.50338 23.669277
-12.87436 98.035362 10.796471
-13.244024 97.249237 12.358434
-9.537027 103.102829 -2.433521
-10.66059 103.503933 -2.207688
-10.02051 102.664677 -0.753483
-12.695443 83.480606 29.285115
-12.848047 82.105327 30.738682
-11.897875 82.069034 30.166007
-12.422453 84.78397 27.748468
-12.695443 83.480606 29.285115
-11.447214 84.68666 27.203269
-12.124395 86.026318 26.239297
-12.422453 84.78397 27.748468
7.187965 77.022583 18.905175
6.386806 77.533879 19.321172
6.932231 76.17635 20.068115
8.001769 76.487885 18.49072
7.187965 77.022583 18.905175
8.565448 75.213729 19.038021
8.833828 76.03656 17.876622
8.001769 76.487885 18.49072
-18.557559 106.644192 -8.951204
-18.107957 106.974102 -10.610769
-6.576633 71.629193 35.653874
-5.828576 70.133419 36.24503
-6.316172 72.957852 34.417185
-7.309724 73.187767 34.930597
-6.576633 71.629193 35.653874
-2.421915 72.01033 32.390248
-3.378992 72.312069 32.849384
-2.638319 70.793896 33.515608
-1.467271 71.753456 31.888419
-2.207944 73.271629 31.222195
-2.421915 72.01033 32.390248
1.056202 69.677509 31.591105
0.850471 68.477516 32.657814
1.737948 68.217968 32.155181
4.990632 69.539456 28.232133
4.077951 69.880382 28.829327
5.257792 70.506611 27.152201
4.990632 69.539456 28.232133
-11.751701 100.420749 5.693366
-12.18129 99.746418 7.280765
-11.063371 99.388389 7.054708
-13.182164 102.270832 3.006447
-12.709384 102.831486 1.352041
-2.746445 96.321884 3.959506
-3.246785 95.847965 5.364389
-2.072683 95.146534 5.234481
-7.954767 103.997951 -7.082849
-8.436816 103.729694 -5.58373
-7.270898 103.219299 -5.663222
-13.247594 94.269104 16.853972
-13.892765 95.415565 15.611432
-2.573036 84.041348 21.036911
-1.919669 82.636357 22.038705
-3.237971 85.488487 19.973779
-3.598238 84.5238 21.371299
-2.573036 84.041348 21.036911
-3.952026 86.92976 18.873214
-3.237971 85.488487 19.973779
2.426203 98.275677 -8.464772
3.644442 97.367214 -8.378651
-11.317804 79.376316 32.352893
-12.310305 79.432579 32.943803
-11.089018 80.666687 31.003414
-11.317804 79.376316 32.352893
-10.356343 79.349247 31.736733
4.299839 74.285598 24.739878
3.37393 74.816853 25.167493
3.990581 73.301243 25.960769
4.548975 75.369808 23.468868
4.299839 74.285598 24.739878
5.165627 73.854198 24.262144
4.894267 76.282353 22.209046
4.548975 75.369808 23.468868
5.772917 75.813027 21.737623
5.252422 77.156971 20.955535
4.894267 76.282353 22.209046
6.652613 75.252384 21.29234
5.772917 75.813027 21.737623
6.294458 74.377765 22.545851
7.453772 74.741088 20.876343
6.932231 76.17635 20.068115
6.652613 75.252384 21.29234
8.274781 74.411487 20.182519
7.453772 74.741088 20.876343
-16.378966 106.825749 -9.356018
-16.788466 106.47287 -7.605321
-16.977322 107.106609 -10.94825
-16.378966 106.825749 -9.356018
-18.107957 106.974102 -10.610769
-16.977322 107.106609 -10.94825
-4.829033 69.986538 35.658294
-5.828576 70.133419 36.24503
-3.83519 69.834716 35.075435
-4.589239 71.247456 34.557602
-4.829033 69.986538 35.658294
-2.896445 69.534454 34.631405
-3.83519 69.834716 35.075435
-2.638319 70.793896 33.515608
-2.896445 69.534454 34.631405
2.600097 67.979607 31.633002
1.737948 68.217968 32.155181
2.394367 66.779614 32.69971
2.866915 69.111202 30.535953
2.600097 67.979607 31.633002
-12.243751 103.341893 -0.260327
-12.709384 102.831486 1.352041
-11.609707 102.555374 1.084718
-11.825697 103.847496 -1.992987
-12.243751 103.341893 -0.260327
-11.825697 103.847496 -1.992987
-10.66059 103.503933 -2.207688
-1.741459 97.181682 1.054885
-2.232577 96.744278 2.51825
-1.081225 96.057857 2.366233
-3.74521 102.319851 -8.730118
-3.066663 101.525466 -7.42132
-2.4673 101.612949 -8.873188
-4.973498 102.999603 -8.786181
-3.74521 102.319851 -8.730118
-6.195636 103.627197 -8.728226
-5.566711 102.859962 -7.220295
-4.973498 102.999603 -8.786181
-7.433822 104.202846 -8.697004
-6.195636 103.627197 -8.728226
-7.590668 90.486679 17.561304
-8.332687 91.780762 16.489689
-8.733097 90.917969 17.945101
-6.450579 90.036984 17.16588
-7.590668 90.486679 17.561304
-6.850988 89.174191 18.621292
-5.361262 89.601342 16.776481
-6.450579 90.036984 17.16588
-0.174214 80.840538 22.432034
0.871662 80.346676 22.01176
1.225706 99.155872 -8.563102
1.798265 98.286171 -7.148162
2.426203 98.275677 -8.464772
-0.002244 100.01891 -8.723184
1.225706 99.155872 -8.563102
-1.195505 100.845009 -8.882133
-0.595493 99.992466 -7.405441
-0.002244 100.01891 -8.723184
-2.4673 101.612949 -8.873188
-1.195505 100.845009 -8.882133
-13.082191 80.860325 32.098948
-12.310305 79.432579 32.943803
-13.082191 80.860325 32.098948
-12.848047 82.105327 30.738682
-12.910883 87.393524 25.235149
-13.725983 88.687931 24.282116
-11.935644 87.296215 24.68995
-12.910883 87.393524 25.235149
-12.124395 86.026318 26.239297
2.728156 76.24559 24.429422
2.418899 75.261235 25.650312
3.37393 74.816853 25.167493
2.12145 77.63417 23.640024
2.728156 76.24559 24.429422
1.513691 79.031696 22.794448
1.165367 78.087497 24.066665
2.12145 77.63417 23.640024
0.871662 80.346676 22.01176
1.513691 79.031696 22.794448
5.521109 78.051384 19.730961
5.252422 77.156971 20.955535
5.521109 78.051384 19.730961
6.386806 77.533879 19.321172
8.565448 75.213729 19.038021
8.274781 74.411487 20.182519
-17.909116 106.430744 -7.423722
-16.788466 106.47287 -7.605321
-17.909116 106.430744 -7.423722
-18.557559 106.644192 -8.951204
-1.880069 93.407971 7.878519
-3.012633 94.064785 8.084954
-1.460055 93.989837 6.486423
-1.880069 93.407971 7.878519
-2.072683 95.146534 5.234481
-1.460055 93.989837 6.486423
-0.052879 95.361973 2.323733
-1.081225 96.057857 2.366233
0.488162 95.769291 0.834178
-0.052879 95.361973 2.323733
1.060042 96.064857 -0.609449
-0.018227 96.790829 -0.540759
0.488162 95.769291 0.834178
1.645153 96.312843 -2.006431
1.060042 96.064857 -0.609449
2.18402 96.507538 -3.340979
1.092519 97.28109 -3.318933
1.645153 96.312843 -2.006431
2.7483 96.620731 -4.566
2.18402 96.507538 -3.340979
3.431988 96.585826 -5.764176
2.315074 97.440879 -5.851656
2.7483 96.620731 -4.566
4.094122 96.557193 -6.996711
3.431988 96.585826 -5.764176
3.644442 97.367214 -8.378651
4.094122 96.557193 -6.996711
-8.050606 74.788639 34.163109
-8.311068 73.45998 35.399797
-7.309724 73.187767 34.930597
-7.798541 76.059025 32.897751
-8.799884 76.331238 33.366951
-8.050606 74.788639 34.163109
-6.790241 75.823879 32.391488
-7.539519 77.366478 31.59533
-7.798541 76.059025 32.897751
-0.084848 68.751876 33.166035
0.850471 68.477516 32.657814
-0.756259 70.214607 32.575106
-0.084848 68.751876 33.166035
-0.542288 71.475906 31.407052
-1.467271 71.753456 31.888419
-0.756259 70.214607 32.575106
3.168057 70.21933 29.381239
2.244822 70.526089 29.933757
2.866915 69.111202 30.535953
3.455858 71.295269 28.227131
3.168057 70.21933 29.381239
4.077951 69.880382 28.829327
5.533162 71.413444 26.081169
4.641121 71.863156 26.604186
5.257792 70.506611 27.152201
5.768628 72.419171 24.940286
5.533162 71.413444 26.081169
-12.537954 98.900806 9.092733
-12.87436 98.035362 10.796471
-11.829365 97.848614 10.345845
-12.537954 98.900806 9.092733
-12.18129 99.746418 7.280765
-12.47248 101.411873 4.308255
-11.751701 100.420749 5.693366
-11.354561 101.053844 4.082199
-12.47248 101.411873 4.308255
-13.182164 102.270832 3.006447
-3.707326 95.238358 6.941537
-4.146936 94.630527 8.387128
-3.012633 94.064785 8.084954
-3.406679 97.445709 2.648157
-2.746445 96.321884 3.959506
-2.232577 96.744278 2.51825
-8.965027 103.446563 -4.025915
-9.537027 103.102829 -2.433521
-8.324947 102.607307 -2.571709
-8.965027 103.446563 -4.025915
-8.436816 103.729694 -5.58373
-7.954767 103.997951 -7.082849
-7.433822 104.202846 -8.697004
-13.571146 96.322071 14.011529
-13.892765 95.415565 15.611432
-12.492893 96.056004 13.702679
-13.244024 97.249237 12.358434
-13.571146 96.322071 14.011529
-13.460888 89.95808 22.591121
-13.725983 88.687931 24.282116
-13.213245 91.037087 21.122794
-13.460888 89.95808 22.591121
-12.47449 89.742428 22.217474
-12.95101 92.115402 19.550657
-13.213245 91.037087 21.122794
-12.591734 93.059276 18.071781
-12.95101 92.115402 19.550657
-11.867571 91.765309 19.270269
-12.164155 93.91901 16.573583
-13.247594 94.269104 16.853972
-12.591734 93.059276 18.071781
-7.878023 92.627484 14.928378
-9.020452 93.058773 15.312175
-8.332687 91.780762 16.489689
-7.513305 93.465676 13.437612
-7.878023 92.627484 14.928378
-7.188078 94.31268 11.872274
-8.240561 94.752499 12.185526
-7.513305 93.465676 13.437612
-6.065394 93.77544 11.629774
-6.792649 95.062264 10.377688
-7.188078 94.31268 11.872274
-4.968319 93.288085 11.285695
-6.065394 93.77544 11.629774
-4.561104 93.990989 9.832866
-4.968319 93.288085 11.285695
-7.312716 78.655129 30.245044
-8.321016 78.890275 30.751308
-7.539519 77.366478 31.59533
-1.184236 81.200276 22.937461
-0.452414 79.844761 23.726516
-0.174214 80.840538 22.432034
-2.197869 81.640579 23.333187
-1.184236 81.200276 22.937461
-1.919669 82.636357 22.038705
-4.67589 88.306538 17.832065
-4.987037 87.347718 19.267018
-3.952026 86.92976 18.873214
-5.361262 89.601342 16.776481
-4.67589 88.306538 17.832065
3 91 25 92
3 93 92 23
3 91 92 93
3 94 27 95
3 94 95 96
3 97 29 98
3 99 98 27
3 97 98 99
3 100 31 101
3 102 101 30
3 100 101 102
3 104 103 31
3 2 105 106
3 3 37 35
3 3 107 109
3 109 108 37
3 107 108 109
3 0 40 38
3 4 44 42
3 4 45 44
3 1 48 46
3 5 51 49
3 7 52 24
3 7 53 52
3 8 56 54
3 10 110 112
3 112 111 26
3 110 111 112
3 10 113 114
3 10 115 117
3 115 58 116
3 115 116 117
3 12 59 28
3 12 60 59
3 13 63 61
3 15 118 120
3 120 119 32
3 118 119 120
3 15 121 122
3 15 123 125
3 123 124 125
3 127 126 33
3 16 128 129
3 16 130 132
3 130 65 131
3 130 131 132
3 16 67 65
3 133 68 134
3 135 134 34
3 133 134 135
3 136 69 137
3 138 137 68
3 136 137 138
3 18 139 141
3 139 70 140
3 139 140 141
3 18 71 70
3 18 72 71
3 142 73 143
3 145 144 73
3 6 146 148
3 148 147 50
3 146 147 148
3 150 149 36
3 151 74 152
3 153 152 64
3 151 152 153
3 19 75 39
3 19 76 75
3 9 77 55
3 20 78 41
3 20 79 78
3 20 154 156
3 156 155 79
3 154 155 156
3 157 80 158
3 11 81 57
3 21 82 43
3 21 83 82
3 21 84 83
3 17 85 66
3 22 86 47
3 22 87 86
3 14 88 62
3 159 89 160
3 161 90 162
3 163 162 89
3 161 162 163
3 165 164 90
3 23 24 5
3 25 24 23
3 25 7 24
3 167 166 8
3 168 26 169
3 27 170 172
3 170 26 171
3 170 171 172
3 27 10 26
3 27 28 10
3 29 28 27
3 29 12 28
3 30 173 175
3 175 174 13
3 173 174 175
3 31 176 178
3 178 177 30
3 176 177 178
3 31 179 180
3 31 181 183
3 181 32 182
3 181 182 183
3 184 32 185
3 186 185 31
3 184 185 186
3 187 15 188
3 189 188 32
3 187 188 189
3 191 190 15
3 192 33 193
3 194 33 195
3 197 196 33
3 198 16 199
3 200 34 201
3 202 201 16
3 200 201 202
3 203 34 204
3 206 205 34
3 207 18 208
3 207 208 209
3 211 210 18
3 35 36 6
3 37 36 35
3 37 212 214
3 214 213 36
3 212 213 214
3 37 215 216
3 218 217 37
3 38 219 221
3 219 39 220
3 219 220 221
3 40 39 38
3 40 19 39
3 222 41 223
3 224 223 9
3 222 223 224
3 225 41 226
3 227 20 228
3 229 228 41
3 227 228 229
3 231 230 20
3 42 43 11
3 44 43 42
3 44 21 43
3 44 232 234
3 234 233 21
3 232 233 234
3 45 235 237
3 237 236 44
3 235 236 237
3 45 238 239
3 46 47 17
3 48 47 46
3 48 22 47
3 241 240 14
3 49 50 2
3 51 50 49
3 51 6 50
3 24 51 5
3 52 51 24
3 52 6 51
3 52 35 6
3 53 35 52
3 53 3 35
3 54 55 0
3 56 55 54
3 56 9 55
3 242 56 243
3 244 243 8
3 242 243 244
3 245 56 246
3 247 9 248
3 249 248 56
3 247 248 249
3 251 250 9
3 26 252 253
3 255 254 26
3 256 57 257
3 58 258 260
3 258 57 259
3 258 259 260
3 58 11 57
3 28 58 10
3 59 58 28
3 59 11 58
3 59 42 11
3 60 42 59
3 60 4 42
3 61 62 1
3 63 62 61
3 63 14 62
3 261 63 262
3 263 262 13
3 261 262 263
3 264 63 265
3 266 14 267
3 268 267 63
3 266 267 268
3 270 269 14
3 32 271 272
3 274 273 32
3 276 275 15
3 33 277 278
3 280 279 33
3 281 64 282
3 283 64 284
3 286 285 64
3 287 38 288
3 289 38 290
3 291 0 292
3 293 292 38
3 291 292 293
3 294 0 295
3 296 54 297
3 298 297 0
3 296 297 298
3 299 54 300
3 301 8 302
3 303 302 54
3 301 302 303
3 304 8 305
3 307 306 8
3 65 308 310
3 308 309 310
3 65 311 313
3 311 312 313
3 65 314 316
3 314 66 315
3 314 315 316
3 67 66 65
3 67 17 66
3 34 67 16
3 68 67 34
3 68 17 67
3 68 46 17
3 69 46 68
3 69 1 46
3 70 317 318
3 70 319 320
3 70 321 323
3 321 69 322
3 321 322 323
3 71 69 70
3 71 1 69
3 71 61 1
3 72 61 71
3 72 13 61
3 324 72 325
3 326 325 18
3 324 325 326
3 73 327 329
3 327 72 328
3 327 328 329
3 73 13 72
3 73 30 13
3 330 30 331
3 332 331 73
3 330 331 332
3 334 333 30
3 50 335 337
3 337 336 2
3 335 336 337
3 339 338 50
3 36 340 342
3 342 341 6
3 340 341 342
3 344 343 36
3 64 345 347
3 345 25 346
3 345 346 347
3 74 25 64
3 74 7 25
3 39 348 350
3 348 74 349
3 348 349 350
3 75 74 39
3 75 7 74
3 75 53 7
3 76 53 75
3 76 3 53
3 55 40 0
3 77 40 55
3 77 19 40
3 41 77 9
3 78 77 41
3 78 19 77
3 78 76 19
3 79 76 78
3 79 3 76
3 79 351 353
3 353 352 3
3 351 352 353
3 355 354 79
3 357 356 20
3 80 358 359
3 80 360 362
3 360 2 361
3 360 361 362
3 57 363 364
3 81 365 367
3 367 366 57
3 365 366 367
3 81 368 369
3 43 81 11
3 82 81 43
3 82 370 372
3 372 371 81
3 370 371 372
3 82 373 375
3 373 80 374
3 373 374 375
3 83 80 82
3 83 2 80
3 83 49 2
3 84 49 83
3 84 5 49
3 376 84 377
3 378 377 21
3 376 377 378
3 379 84 380
3 381 5 382
3 383 382 84
3 381 382 383
3 384 23 385
3 386 385 5
3 384 385 386
3 387 23 388
3 390 389 23
3 66 391 393
3 391 29 392
3 391 392 393
3 85 29 66
3 85 12 29
3 47 85 17
3 86 85 47
3 86 12 85
3 86 60 12
3 87 60 86
3 87 4 60
3 62 48 1
3 88 48 62
3 88 22 48
3 394 88 395
3 396 395 14
3 394 395 396
3 89 397 399
3 397 88 398
3 397 398 399
3 89 22 88
3 89 87 22
3 90 87 89
3 90 4 87
3 90 45 4
3 400 45 401
3 402 401 90
3 400 401 402
3 404 403 45
