ply
format ascii 1.0
element vertex 482
property float x
property float y
property float z
element face 469
property list uchar int vertex_index
end_header
0.423336 17.603806 -62.421833
9.554511 8.075827 -70.306602
-3.053365 10.777586 -56.170235
4.192447 1.464197 -64.315552
4.485586 14.074 -67.914154
-3.803568 22.583231 -56.833961
10.864136 20.285072 -72.447449
17.200987 12.291487 -72.650742
15.264122 -0.494245 -68.806
-1.334594 14.104218 -59.297119
-1.043272 8.319516 -58.451939
0.57362 12.087274 -62.043568
2.406734 15.91398 -65.41259
22.542471 18.77574 -71.88781
6.537355 5.13424 -67.67247
6.177349 -2.114428 -64.755943
8.979717 1.260642 -67.753761
11.687537 -3.086766 -67.057777
12.4468 4.107905 -69.988068
-4.431386 1.925285 -51.977642
-2.551526 4.943588 -55.184654
4.38378 7.966296 -66.592293
6.877362 11.333016 -69.608589
-3.492841 16.488989 -56.712757
-1.498043 19.74719 -59.575962
0.437144 23.057316 -62.082024
4.844291 19.568981 -68.420563
10.216121 14.571643 -71.984024
13.973381 16.75271 -73.140541
13.206937 10.791758 -72.094757
16.160059 6.120474 -71.138039
19.002815 0.968042 -69.462723
17.751371 -5.157186 -67.219872
21.11084 -4.583806 -67.361458
14.284958 -7.527386 -65.832588
-0.504737 15.734521 -60.81749
-0.281643 12.974821 -60.781788
0.469333 14.934111 -62.306496
1.41134 13.951179 -63.712711
1.424315 16.70512 -63.967033
8.0249 6.475955 -69.068947
7.794404 3.257789 -67.860863
9.354028 4.651549 -69.147461
10.673654 2.726273 -68.988991
10.917172 6.120985 -70.228783
-3.982519 9.266482 -54.664173
-3.689624 6.251842 -54.154682
-2.820095 7.844036 -55.702961
-0.113117 7.395361 -59.737381
-0.800292 5.47125 -57.994781
3.377861 12.09609 -66.312279
4.455795 10.946624 -67.375572
5.571274 9.674022 -68.190063
5.65862 12.701612 -68.883423
-3.662834 19.69445 -56.856373
-2.514461 18.148014 -58.118401
-2.616371 21.089003 -58.136883
8.69834 15.990751 -71.439857
10.420907 17.503395 -72.324684
16.07946 17.664856 -73.290001
15.537998 14.6678 -73.038788
13.499143 13.659451 -72.712097
15.155934 11.655742 -72.511459
14.607234 8.547564 -71.720741
16.61862 9.472047 -72.062286
19.712488 4.08278 -70.414299
20.983828 1.413973 -69.435036
20.133587 -1.629363 -68.500046
-3.31976 0.579334 -52.778587
-4.281207 -1.004803 -51.156158
7.292809 -4.068388 -64.737686
5.946186 -5.674436 -63.17345
13.381606 -1.463587 -68.128799
12.980823 -5.151319 -66.547867
14.679812 -3.811411 -67.43058
16.010542 -6.296233 -66.612495
16.575172 -2.989737 -67.982727
-2.136523 12.180603 -57.740673
-2.011291 9.450718 -57.270916
-1.145014 11.215862 -59.024288
-0.222057 10.189709 -60.297729
0.626379 9.057108 -61.456264
1.445093 11.017087 -63.275806
2.325157 12.973505 -64.991356
3.400791 15.018707 -66.71579
5.33193 3.177706 -66.037338
5.157576 -0.082036 -64.69735
6.478463 1.576932 -66.388847
7.532007 -0.42677 -66.330643
8.725087 -2.221824 -66.269264
9.991348 -4.330706 -65.966614
10.34918 -0.630186 -67.59919
11.988064 0.549106 -68.581657
13.79915 1.719429 -69.416504
-4.717155 4.794669 -52.592754
-3.415836 3.412109 -53.595963
-1.756344 6.486912 -56.800442
4.261058 4.704139 -65.493065
5.339029 6.420121 -67.097672
6.678727 8.22253 -68.707405
8.190425 9.906129 -70.115952
-4.151834 12.051908 -55.146675
-4.484317 15.078216 -55.380024
-3.278873 13.632727 -56.507092
-2.397323 15.151985 -57.918209
-1.483024 16.944586 -59.438869
-0.5073 18.595163 -60.999119
-2.732723 24.004374 -57.940414
-1.665395 22.489956 -59.290443
-0.583659 21.457338 -60.823738
0.436055 20.464916 -62.386433
1.440402 19.408958 -63.970051
3.510202 17.694641 -66.9524
4.708848 16.839224 -68.357475
5.887183 15.655773 -69.449387
7.149692 14.395432 -70.317337
8.454092 12.992461 -70.915245
9.820934 11.402649 -71.260742
12.357868 18.475513 -72.93972
12.005651 15.68692 -72.69294
11.597817 12.632896 -72.122688
11.283685 9.559198 -71.33812
12.674148 7.654695 -71.167068
14.195891 5.378591 -70.734406
15.61688 2.816735 -70.036163
18.178402 6.866772 -71.338684
17.645729 3.522296 -70.347931
17.037081 0.259995 -69.222221
18.352209 -2.096395 -68.397041
19.471348 -4.691329 -67.42141
20.385851 -7.411275 -66.356758
11.341002 -6.665893 -65.465897
17.292837 -8.488846 -65.85128
-0.053861 5.920115 -59.383358
0.289694 6.810075 -60.257562
-3.733201 21.138841 -56.845167
-4.294234 20.488943 -56.271641
-4.3646 21.933333 -56.260435
9.873469 19.603516 -72.039395
10.042756 20.885174 -72.023258
10.642522 18.894233 -72.386066
9.651855 18.212677 -71.978012
9.873469 19.603516 -72.039395
16.369492 13.479643 -72.844765
16.622128 14.970522 -73.037022
17.453623 13.782366 -72.842998
21.941283 1.435523 -69.27586
21.336433 2.883825 -69.822182
21.457952 -0.095645 -68.871635
21.941283 1.435523 -69.27586
-3.250259 -0.936188 -52.337128
-2.826364 -0.201402 -53.138729
4.12329 -0.293576 -63.590526
3.670867 0.500545 -63.353543
7.172301 -5.917531 -63.91255
7.868867 -5.005769 -64.673896
21.456457 18.64074 -72.273411
21.737222 19.882905 -72.061771
-4.821766 6.372421 -52.947607
-5.387325 5.639744 -52.209856
-2.456282 3.464989 -54.83214
-2.888437 2.699249 -54.037795
-2.983681 4.177848 -54.390309
-1.174134 4.578901 -57.111677
-0.746503 4.011383 -57.604607
3.870344 6.951332 -65.69928
3.875591 8.474858 -66.120144
4.322419 6.335217 -66.042679
3.808983 5.320253 -65.149666
3.870344 6.951332 -65.69928
-4.808999 12.958452 -54.661473
-4.678464 11.526167 -54.476146
-3.988579 15.783603 -56.046391
-4.548797 16.616518 -55.539036
-4.053059 17.321904 -56.205403
-2.186643 24.70609 -58.485968
-2.739942 25.397472 -57.805534
-1.652979 23.948881 -59.160982
-2.199059 23.247165 -58.615429
-2.186643 24.70609 -58.485968
-0.073258 22.257327 -61.452881
-0.598537 22.740471 -60.661018
-0.088136 23.540461 -61.290161
2.030254 20.357132 -64.717848
1.468382 20.679608 -63.872875
1.949745 19.072254 -64.736388
2.030254 20.357132 -64.717848
4.177246 18.631811 -67.686481
3.584326 19.054774 -66.953179
4.251371 19.991944 -67.68726
6.601108 16.450072 -70.054611
5.976652 17.063356 -69.561245
7.232362 15.819902 -70.488586
6.518438 15.025602 -69.883362
6.601108 16.450072 -70.054611
14.169115 18.224721 -73.183701
15.222155 18.680794 -73.258431
15.026421 17.208783 -73.215271
13.165624 17.614111 -73.040131
13.361358 19.086123 -73.08329
14.169115 18.224721 -73.183701
19.251224 6.971964 -71.256744
18.518997 8.379612 -71.688736
-4.973847 1.296338 -51.238638
-5.091503 2.711994 -51.588669
-4.900796 -1.659202 -50.317327
-4.256347 -2.424442 -50.684906
5.595189 -2.950934 -63.950333
5.085303 -1.934737 -63.921036
5.667463 -1.098232 -64.726647
5.347674 -6.468993 -62.365864
5.848117 -7.436798 -62.403034
13.429119 -8.25111 -65.336292
12.777052 -7.063076 -65.693931
13.632891 -6.339353 -66.190227
14.103479 -9.340035 -65.031685
13.429119 -8.25111 -65.336292
14.976554 -8.666208 -65.471108
14.103479 -9.340035 -65.031685
18.298882 -6.377129 -66.76273
18.069615 -8.042959 -66.078434
17.522104 -6.823016 -66.535576
22.329364 17.407866 -72.005173
23.379959 17.333588 -71.573475
-3.836072 7.759162 -54.409427
-4.308001 7.101007 -53.728571
-4.454448 8.608327 -53.983317
-0.397449 4.95806 -58.512058
-0.456705 6.433306 -58.866081
-0.053861 5.920115 -59.383358
-0.746503 4.011383 -57.604607
-0.397449 4.95806 -58.512058
3.372632 10.539755 -65.980137
2.912241 11.154366 -65.48727
3.911599 9.965022 -66.511784
3.372632 10.539755 -65.980137
3.916828 11.521357 -66.843926
4.419787 9.45646 -66.983933
3.875591 8.474858 -66.120144
3.911599 9.965022 -66.511784
-4.138056 18.924634 -56.27721
-4.294234 20.488943 -56.271641
-3.577838 18.091719 -56.784565
-4.053059 17.321904 -56.205403
-4.138056 18.924634 -56.27721
0.515014 24.327417 -61.911383
-0.088136 23.540461 -61.290161
4.921899 20.91998 -68.302109
4.251371 19.991944 -67.68726
8.790571 17.456355 -71.535598
8.006686 16.617561 -71.049847
9.559624 16.747073 -71.882271
8.790571 17.456355 -71.535598
9.651855 18.212677 -71.978012
16.89286 16.46905 -73.162628
17.186647 17.925847 -73.199562
15.808729 16.166328 -73.164395
16.89286 16.46905 -73.162628
16.622128 14.970522 -73.037022
20.700762 4.218228 -70.311813
20.018267 5.579968 -70.794552
20.348158 2.748377 -69.924667
20.700762 4.218228 -70.311813
21.336433 2.883825 -69.822182
21.032832 -1.617312 -68.40414
20.558707 -0.107695 -68.967541
21.457952 -0.095645 -68.871635
21.521458 -3.094534 -67.834846
20.622214 -3.106584 -67.930752
21.032832 -1.617312 -68.40414
-3.730982 -1.728257 -51.525913
-3.800484 -0.212734 -51.967372
-3.250259 -0.936188 -52.337128
-4.256347 -2.424442 -50.684906
-3.730982 -1.728257 -51.525913
6.49899 -6.720555 -63.130432
6.619497 -4.871412 -63.955568
7.172301 -5.917531 -63.91255
5.848117 -7.436798 -62.403034
6.49899 -6.720555 -63.130432
0.659442 7.640949 -61.117004
0.289694 6.810075 -60.257562
0.256631 8.226235 -60.596823
1.068358 8.605853 -62.07904
0.659442 7.640949 -61.117004
1.477715 9.585843 -62.988811
1.068358 8.605853 -62.07904
1.035736 10.037097 -62.366035
1.945857 10.614864 -63.969034
1.477715 9.585843 -62.988811
2.385889 11.593073 -64.826809
1.945857 10.614864 -63.969034
1.885125 11.995296 -64.133581
2.851509 12.534797 -65.651817
2.912241 11.154366 -65.48727
2.385889 11.593073 -64.826809
-4.408334 23.550618 -56.286869
-4.3646 21.933333 -56.260435
10.951691 21.533655 -72.307984
10.042756 20.885174 -72.023258
21.456457 18.64074 -72.273411
22.329364 17.407866 -72.005173
18.232857 12.538645 -72.5882
17.453623 13.782366 -72.842998
18.03029 11.09197 -72.344765
18.232857 12.538645 -72.5882
8.585006 -4.082488 -65.439685
7.868867 -5.005769 -64.673896
8.008948 -3.145106 -65.503475
9.358218 -3.276265 -66.117939
9.218136 -5.136928 -65.288361
8.585006 -4.082488 -65.439685
22.794846 20.002095 -71.58773
21.737222 19.882905 -72.061771
23.605175 18.70386 -71.371193
22.794846 20.002095 -71.58773
23.379959 17.333588 -71.573475
23.605175 18.70386 -71.371193
-5.234388 4.146686 -51.896225
-5.387325 5.639744 -52.209856
-4.57427 3.359977 -52.285198
-5.091503 2.711994 -51.588669
-5.234388 4.146686 -51.896225
-4.20339 5.523255 -53.373718
-4.821766 6.372421 -52.947607
-4.308001 7.101007 -53.728571
-2.840399 1.282862 -53.629107
-3.367798 1.995722 -53.187275
-2.888437 2.699249 -54.037795
-2.826364 -0.201402 -53.138729
-2.840399 1.282862 -53.629107
-1.65216 5.086731 -56.514507
-1.278318 5.979081 -57.397611
-1.174134 4.578901 -57.111677
-2.049751 4.315069 -55.706614
-2.153935 5.71525 -55.992548
-1.65216 5.086731 -56.514507
-2.456282 3.464989 -54.83214
-2.049751 4.315069 -55.706614
3.729688 2.066453 -63.981043
3.670867 0.500545 -63.353543
3.763994 3.686424 -64.5698
3.808983 5.320253 -65.149666
4.226752 3.084168 -64.904308
3.729688 2.066453 -63.981043
3.763994 3.686424 -64.5698
-4.593806 10.133454 -54.234896
-4.454448 8.608327 -53.983317
-4.067177 10.659195 -54.905424
-4.593806 10.133454 -54.234896
-4.678464 11.526167 -54.476146
-5.09583 16.04447 -54.939331
-4.548797 16.616518 -55.539036
-4.97524 14.471606 -54.778147
-5.09583 16.04447 -54.939331
-4.318075 13.565062 -55.26335
-4.808999 12.958452 -54.661473
-4.97524 14.471606 -54.778147
-3.829108 24.13871 -56.777887
-4.408334 23.550618 -56.286869
-3.293685 24.849282 -57.331114
-2.739942 25.397472 -57.805534
-3.268146 23.293802 -57.387187
-3.829108 24.13871 -56.777887
-3.293685 24.849282 -57.331114
-1.139405 23.25678 -59.894371
-1.652979 23.948881 -59.160982
-1.124527 21.973647 -60.057091
-1.139405 23.25678 -59.894371
-0.598537 22.740471 -60.661018
1.041976 23.851841 -62.735663
0.515014 24.327417 -61.911383
0.966753 22.503787 -62.928862
1.041976 23.851841 -62.735663
0.966208 21.207587 -63.081066
0.4366 21.761116 -62.234229
0.966753 22.503787 -62.928862
0.938229 19.936937 -63.178242
0.966208 21.207587 -63.081066
1.468382 20.679608 -63.872875
1.941701 17.720335 -64.734879
1.432358 18.057039 -63.968542
1.949745 19.072254 -64.736388
2.432911 17.324765 -65.457657
1.915525 16.30955 -64.689811
1.941701 17.720335 -64.734879
2.984645 18.215096 -66.227562
3.584326 19.054774 -66.953179
2.958468 16.80431 -66.182495
2.432911 17.324765 -65.457657
2.984645 18.215096 -66.227562
5.559574 20.356599 -69.019634
4.921899 20.91998 -68.302109
5.455205 19.01996 -69.046833
5.559574 20.356599 -69.019634
5.387484 17.655082 -69.015289
4.776569 18.204103 -68.389019
5.455205 19.01996 -69.046833
5.298015 16.247498 -68.903431
5.387484 17.655082 -69.015289
5.976652 17.063356 -69.561245
7.924016 15.193091 -70.878597
7.232362 15.819902 -70.488586
8.006686 16.617561 -71.049847
11.810098 20.786601 -72.660393
10.951691 21.533655 -72.307984
16.336609 18.995161 -73.249096
17.186647 17.925847 -73.199562
16.336609 18.995161 -73.249096
15.222155 18.680794 -73.258431
12.556964 19.881822 -72.906529
13.361358 19.086123 -73.08329
11.611002 19.380292 -72.693585
11.810098 20.786601 -72.660393
12.556964 19.881822 -72.906529
17.739106 9.68225 -72.050537
16.909804 10.881767 -72.356514
18.03029 11.09197 -72.344765
17.398511 8.16941 -71.700485
17.739106 9.68225 -72.050537
18.518997 8.379612 -71.688736
18.945445 5.474776 -70.876492
19.251224 6.971964 -71.256744
20.018267 5.579968 -70.794552
19.15887 -6.144201 -66.863499
18.298882 -6.377129 -66.76273
18.611359 -4.924257 -67.320641
19.616121 -7.504174 -66.331173
19.15887 -6.144201 -66.863499
19.928599 -6.051302 -66.889084
19.996836 -8.402012 -65.98127
19.616121 -7.504174 -66.331173
-4.898758 -0.168706 -50.827896
-4.973847 1.296338 -51.238638
-4.356297 0.460241 -51.5669
-4.898758 -0.168706 -50.827896
-4.900796 -1.659202 -50.317327
4.605854 -1.066693 -63.781425
4.12329 -0.293576 -63.590526
4.675012 0.69108 -64.506451
4.605854 -1.066693 -63.781425
5.085303 -1.934737 -63.921036
5.479608 -4.730937 -63.159086
5.595189 -2.950934 -63.950333
6.061768 -3.894432 -63.964697
5.479608 -4.730937 -63.159086
5.347674 -6.468993 -62.365864
9.863162 -6.228171 -65.123013
9.218136 -5.136928 -65.288361
10.537989 -7.395764 -64.872654
9.863162 -6.228171 -65.123013
10.666175 -5.498299 -65.716256
11.128819 -8.539466 -64.606735
10.537989 -7.395764 -64.872654
11.957141 -7.820363 -65.152946
12.160913 -5.908606 -66.006882
12.777052 -7.063076 -65.693931
11.128819 -8.539466 -64.606735
11.957141 -7.820363 -65.152946
15.839346 -8.050631 -65.861061
14.976554 -8.666208 -65.471108
15.14775 -6.91181 -66.222542
16.480494 -9.146938 -65.480454
15.839346 -8.050631 -65.861061
16.651689 -7.392539 -66.231887
17.126984 -10.073549 -65.174809
16.480494 -9.146938 -65.480454
17.87117 -9.426597 -65.5103
17.126984 -10.073549 -65.174809
17.87117 -9.426597 -65.5103
18.069615 -8.042959 -66.078434
21.990403 -4.718701 -67.194649
21.521458 -3.094534 -67.834846
21.50374 -6.077841 -66.760509
21.990403 -4.718701 -67.194649
21.141246 -7.491575 -66.25816
20.748345 -5.99754 -66.859108
21.50374 -6.077841 -66.760509
20.605849 -8.632355 -65.863445
21.141246 -7.491575 -66.25816
19.996836 -8.402012 -65.98127
20.605849 -8.632355 -65.863445
3 0 37 35
3 0 39 37
3 1 42 40
3 1 44 42
3 2 47 45
3 134 133 48
3 4 51 50
3 4 53 51
3 5 135 137
3 135 54 136
3 135 136 137
3 5 56 54
3 6 138 139
3 6 140 142
3 140 58 141
3 140 141 142
3 7 143 145
3 143 60 144
3 143 144 145
3 7 62 60
3 7 64 62
3 146 66 147
3 149 148 66
3 151 150 68
3 3 152 153
3 155 154 70
3 8 74 72
3 8 76 74
3 9 79 77
3 11 80 36
3 11 81 80
3 11 82 81
3 12 83 38
3 12 84 83
3 13 156 157
3 14 87 85
3 16 88 41
3 16 89 88
3 16 91 89
3 18 92 43
3 18 93 92
3 158 94 159
3 20 95 46
3 20 160 162
3 162 161 95
3 160 161 162
3 10 96 78
3 164 163 49
3 21 165 166
3 21 167 169
3 167 97 168
3 167 168 169
3 21 98 97
3 22 99 52
3 22 100 99
3 170 101 171
3 23 172 174
3 172 102 173
3 172 173 174
3 23 103 102
3 23 104 103
3 24 105 55
3 24 106 105
3 175 107 176
3 177 108 178
3 179 178 107
3 177 178 179
3 25 180 182
3 180 109 181
3 180 181 182
3 25 110 109
3 183 111 184
3 186 185 111
3 26 187 189
3 187 112 188
3 187 188 189
3 26 113 112
3 190 114 191
3 192 115 193
3 194 193 114
3 192 193 194
3 27 116 57
3 27 117 116
3 28 195 197
3 197 196 59
3 195 196 197
3 28 198 200
3 198 118 199
3 198 199 200
3 28 119 118
3 29 120 61
3 29 121 120
3 29 122 121
3 30 123 63
3 30 124 123
3 201 125 202
3 31 126 65
3 31 127 126
3 31 128 127
3 33 129 67
3 33 130 129
3 19 203 204
3 206 205 69
3 15 207 209
3 209 208 86
3 207 208 209
3 211 210 71
3 17 131 90
3 34 212 214
3 214 213 73
3 212 213 214
3 34 215 216
3 34 217 218
3 32 132 75
3 32 219 221
3 221 220 132
3 219 220 221
3 35 36 9
3 37 36 35
3 37 11 36
3 37 38 11
3 39 38 37
3 39 12 38
3 223 222 13
3 40 41 14
3 42 41 40
3 42 16 41
3 42 43 16
3 44 43 42
3 44 18 43
3 45 224 226
3 224 46 225
3 224 225 226
3 47 46 45
3 47 20 46
3 48 49 10
3 227 49 228
3 229 228 48
3 227 228 229
3 231 230 49
3 50 232 233
3 51 234 236
3 236 235 50
3 234 235 236
3 51 237 239
3 237 21 238
3 237 238 239
3 51 52 21
3 53 52 51
3 53 22 52
3 54 240 241
3 54 242 244
3 242 23 243
3 242 243 244
3 54 55 23
3 56 55 54
3 56 24 55
3 245 25 246
3 247 26 248
3 249 57 250
3 58 251 253
3 251 57 252
3 251 252 253
3 58 27 57
3 254 59 255
3 60 256 258
3 256 59 257
3 256 257 258
3 60 28 59
3 60 61 28
3 62 61 60
3 62 29 61
3 62 63 29
3 64 63 62
3 64 30 63
3 259 65 260
3 66 261 263
3 261 65 262
3 261 262 263
3 66 31 65
3 66 67 31
3 264 67 265
3 266 265 66
3 264 265 266
3 267 33 268
3 269 268 67
3 267 268 269
3 68 69 19
3 270 69 271
3 272 271 68
3 270 271 272
3 274 273 69
3 70 71 15
3 275 71 276
3 277 276 70
3 275 276 277
3 279 278 71
3 72 73 17
3 74 73 72
3 74 34 73
3 74 75 34
3 76 75 74
3 76 32 75
3 77 78 2
3 79 78 77
3 79 10 78
3 36 79 9
3 80 79 36
3 80 10 79
3 80 48 10
3 81 48 80
3 81 280 282
3 282 281 48
3 280 281 282
3 81 283 284
3 82 285 287
3 287 286 81
3 285 286 287
3 82 288 289
3 38 82 11
3 83 82 38
3 83 290 292
3 292 291 82
3 290 291 292
3 83 293 295
3 293 50 294
3 293 294 295
3 84 50 83
3 84 4 50
3 296 5 297
3 298 6 299
3 301 300 13
3 302 7 303
3 305 304 7
3 85 86 3
3 87 86 85
3 87 15 86
3 41 87 14
3 88 87 41
3 88 15 87
3 88 70 15
3 89 70 88
3 89 306 308
3 308 307 70
3 306 307 308
3 89 309 311
3 309 90 310
3 309 310 311
3 91 90 89
3 91 17 90
3 43 91 16
3 92 91 43
3 92 17 91
3 92 72 17
3 93 72 92
3 93 8 72
3 312 13 313
3 314 13 315
3 317 316 13
3 94 318 319
3 94 320 322
3 320 19 321
3 320 321 322
3 46 323 325
3 323 94 324
3 323 324 325
3 95 94 46
3 95 19 94
3 95 68 19
3 326 68 327
3 328 327 95
3 326 327 328
3 330 329 68
3 78 47 2
3 96 47 78
3 96 20 47
3 49 96 10
3 331 96 332
3 333 332 49
3 331 332 333
3 334 20 335
3 336 335 96
3 334 335 336
3 338 337 20
3 339 3 340
3 97 341 342
3 97 343 345
3 343 3 344
3 343 344 345
3 97 85 3
3 98 85 97
3 98 14 85
3 52 98 21
3 99 98 52
3 99 14 98
3 99 40 14
3 100 40 99
3 100 1 40
3 346 45 347
3 101 348 350
3 348 45 349
3 348 349 350
3 101 2 45
3 102 351 352
3 102 353 354
3 102 355 357
3 355 101 356
3 355 356 357
3 103 101 102
3 103 2 101
3 103 77 2
3 104 77 103
3 104 9 77
3 55 104 23
3 105 104 55
3 105 9 104
3 105 35 9
3 106 35 105
3 106 0 35
3 358 5 359
3 107 360 361
3 107 362 364
3 362 5 363
3 362 363 364
3 107 56 5
3 108 56 107
3 108 24 56
3 365 108 366
3 109 367 369
3 367 108 368
3 367 368 369
3 109 24 108
3 109 106 24
3 110 106 109
3 110 0 106
3 370 25 371
3 372 25 373
3 374 110 375
3 376 375 25
3 374 375 376
3 111 377 379
3 377 110 378
3 377 378 379
3 111 0 110
3 111 39 0
3 380 39 381
3 382 381 111
3 380 381 382
3 383 12 384
3 385 384 39
3 383 384 385
3 112 386 387
3 112 388 390
3 388 12 389
3 388 389 390
3 112 84 12
3 113 84 112
3 113 4 84
3 391 26 392
3 393 26 394
3 395 113 396
3 397 396 26
3 395 396 397
3 114 398 400
3 398 113 399
3 398 399 400
3 114 4 113
3 114 53 4
3 115 53 114
3 115 22 53
3 57 401 403
3 401 115 402
3 401 402 403
3 116 115 57
3 116 22 115
3 116 100 22
3 117 100 116
3 117 1 100
3 404 6 405
3 59 406 407
3 409 408 59
3 118 410 411
3 118 412 414
3 412 6 413
3 412 413 414
3 118 58 6
3 119 58 118
3 119 27 58
3 61 119 28
3 120 119 61
3 120 27 119
3 120 117 27
3 121 117 120
3 121 1 117
3 121 44 1
3 122 44 121
3 122 18 44
3 63 122 29
3 123 122 63
3 123 18 122
3 123 93 18
3 124 93 123
3 124 8 93
3 415 64 416
3 417 416 7
3 415 416 417
3 125 418 420
3 418 64 419
3 418 419 420
3 125 30 64
3 65 421 423
3 421 125 422
3 421 422 423
3 126 125 65
3 126 30 125
3 126 124 30
3 127 124 126
3 127 8 124
3 127 76 8
3 128 76 127
3 128 32 76
3 67 128 31
3 129 128 67
3 129 32 128
3 129 424 426
3 426 425 32
3 424 425 426
3 130 427 429
3 429 428 129
3 427 428 429
3 130 430 431
3 69 432 434
3 434 433 19
3 432 433 434
3 436 435 69
3 86 437 439
3 439 438 3
3 437 438 439
3 441 440 86
3 71 442 444
3 444 443 15
3 442 443 444
3 446 445 71
3 90 447 448
3 131 449 451
3 451 450 90
3 449 450 451
3 131 452 453
3 73 131 17
3 454 131 455
3 456 455 73
3 454 455 456
3 458 457 131
3 75 459 461
3 461 460 34
3 459 460 461
3 132 462 464
3 464 463 75
3 462 463 464
3 132 465 466
3 132 467 468
3 470 469 132
3 471 33 472
3 473 33 474
3 475 130 476
3 477 476 33
3 475 476 477
3 478 130 479
3 481 480 130
