ply
format ascii 1.0
element vertex 257
property float x
property float y
property float z
element face 197
property list uchar int vertex_index
end_header
4.524652 45.870422 -51.033966
2.547865 50.815121 -49.416855
5.678085 49.859959 -47.443665
4.116498 72.26107 -42.846466
-0.663879 51.397968 -50.684605
1.197873 46.1502 -52.164555
10.754557 45.409679 -42.31078
5.962517 59.373276 -43.065521
7.43912 69.308304 -39.837875
7.50898 45.082863 -49.285118
5.707916 54.519516 -44.999008
5.001066 52.388859 -46.744396
-0.002713 53.951817 -49.62112
3.552162 48.393097 -50.027988
1.98478 48.49073 -50.779663
2.878182 46.250477 -51.574654
2.185599 44.054649 -53.053989
3.775328 43.984558 -52.704578
4.478739 60.499096 -44.448063
5.5135 62.447922 -42.923752
9.34791 45.623825 -45.851059
7.931114 46.618904 -47.215084
8.950401 44.399063 -48.139172
3.355834 53.122074 -47.871307
4.180923 50.422276 -48.486404
5.107872 47.787689 -49.309052
-1.411326 48.80175 -51.725319
0.962275 51.032234 -50.157211
0.283063 48.538754 -51.37915
3.532964 58.239052 -45.946468
8.802896 67.869286 -38.172028
7.687576 66.17173 -39.748405
6.503319 64.367264 -41.448715
6.948599 61.206802 -41.370113
7.114876 49.111855 -46.24007
6.618838 47.388573 -48.193325
6.055964 45.597881 -50.203308
5.405552 43.828838 -52.142864
6.063328 53.069769 -45.266886
6.393633 53.869368 -44.375755
0.436406 55.228836 -49.013454
-0.426773 55.408171 -49.434259
5.251411 64.018567 -42.940058
4.759606 62.955379 -43.603228
9.614655 43.905161 -47.572727
9.149155 45.011444 -46.995115
9.81341 44.517542 -46.428671
3.810607 54.094948 -47.094053
2.986675 54.552257 -47.628843
3.4546 71.147915 -43.551327
3.144615 72.815476 -43.538853
4.364361 70.597492 -42.849622
3.4546 71.147915 -43.551327
-1.6102 51.45537 -50.961374
-1.250968 52.867666 -50.49177
-1.037602 50.099859 -51.204962
-1.983923 50.157261 -51.481731
-1.6102 51.45537 -50.961374
1.75507 50.923677 -49.787033
1.333588 52.260092 -49.507925
2.126383 52.151535 -49.137747
0.349208 46.14205 -52.333517
-0.108197 47.336327 -51.940815
0.740468 47.344477 -51.771853
0.874534 44.898395 -52.814787
0.349208 46.14205 -52.333517
1.912438 42.920136 -53.736379
2.735965 43.033767 -53.63351
10.224934 46.084749 -42.996759
10.389942 46.640642 -41.927819
10.671598 44.874265 -43.465599
10.141976 45.549335 -44.151579
10.224934 46.084749 -42.996759
3.181947 59.772675 -45.859527
2.677009 58.598383 -46.534824
5.48979 58.400272 -43.895458
4.747901 58.963183 -44.586729
5.220628 59.936186 -43.756792
6.242232 57.782972 -43.179546
5.48979 58.400272 -43.895458
6.717239 70.105828 -40.554743
7.384457 70.982261 -39.775842
6.795176 68.485665 -40.645891
6.717239 70.105828 -40.554743
9.377267 66.894241 -37.328369
9.444125 68.536515 -37.284491
7.793249 64.590693 -39.751194
8.296125 65.38163 -38.938341
7.201121 63.68846 -40.601349
7.095448 65.269497 -40.59856
7.793249 64.590693 -39.751194
7.423761 62.108229 -40.562048
6.725959 62.787033 -41.409414
7.201121 63.68846 -40.601349
7.780111 48.551182 -45.656632
7.461038 49.787838 -45.229979
5.917558 42.920267 -52.749519
6.189787 43.693758 -51.762734
5.137398 42.927328 -53.028476
5.917558 42.920267 -52.749519
5.354491 53.454188 -45.871702
4.633223 53.728341 -46.530597
4.986648 54.793669 -45.657904
5.709903 52.004441 -46.139579
5.354491 53.454188 -45.871702
6.063328 53.069769 -45.266886
6.048412 50.739991 -46.489214
5.339576 51.124409 -47.094031
5.709903 52.004441 -46.139579
3.876604 73.938969 -42.802471
3.144615 72.815476 -43.538853
-0.920385 54.14459 -49.960027
-0.426773 55.408171 -49.434259
-0.333296 52.674892 -50.152862
-1.250968 52.867666 -50.49177
-0.920385 54.14459 -49.960027
3.53083 42.998722 -53.458805
2.735965 43.033767 -53.63351
2.980463 44.019604 -52.879283
10.885963 45.804294 -41.184446
10.389942 46.640642 -41.927819
4.242225 61.980967 -44.365383
3.654834 60.902697 -45.110325
4.996119 61.473509 -43.685907
4.242225 61.980967 -44.365383
4.759606 62.955379 -43.603228
8.097055 70.092087 -39.002327
7.384457 70.982261 -39.775842
8.639512 46.121364 -46.533071
8.18823 47.304707 -46.144138
8.896628 46.807167 -45.462126
2.530367 53.305011 -48.364973
2.986675 54.552257 -47.628843
2.951849 51.968598 -48.644081
2.126383 52.151535 -49.137747
2.530367 53.305011 -48.364973
4.17845 52.755466 -47.307851
3.810607 54.094948 -47.094053
4.633223 53.728341 -46.530597
-2.341434 48.762802 -51.909018
-1.983923 50.157261 -51.481731
-1.808479 47.413438 -52.223356
-2.341434 48.762802 -51.909018
0.851094 53.719883 -49.23988
0.436406 55.228836 -49.013454
0.479781 52.492025 -49.889165
0.851094 53.719883 -49.23988
1.333588 52.260092 -49.507925
-0.955391 47.467825 -52.1139
-0.564132 48.670252 -51.552234
-0.108197 47.336327 -51.940815
-1.808479 47.413438 -52.223356
-0.955391 47.467825 -52.1139
1.368397 43.85062 -53.259504
0.874534 44.898395 -52.814787
1.691736 45.102424 -52.609272
1.368397 43.85062 -53.259504
1.912438 42.920136 -53.736379
9.521611 46.191822 -44.766899
8.896628 46.807167 -45.462126
9.968275 44.981338 -45.235739
9.521611 46.191822 -44.766899
10.141976 45.549335 -44.151579
10.433775 43.875056 -45.813351
9.81341 44.517542 -46.428671
9.968275 44.981338 -45.235739
11.254939 44.622974 -41.535822
10.885963 45.804294 -41.184446
11.386346 45.017589 -40.409488
11.222506 44.220804 -42.720437
11.254939 44.622974 -41.535822
11.722889 43.434099 -41.945479
11.139548 43.68539 -43.875256
10.671598 44.874265 -43.465599
11.222506 44.220804 -42.720437
3.07524 57.110747 -46.666424
2.677009 58.598383 -46.534824
3.899172 56.653437 -46.131634
3.07524 57.110747 -46.666424
4.005852 59.369074 -45.197266
3.181947 59.772675 -45.859527
3.654834 60.902697 -45.110325
4.275014 57.833161 -45.335932
4.005852 59.369074 -45.197266
4.747901 58.963183 -44.586729
3.899172 56.653437 -46.131634
4.275014 57.833161 -45.335932
5.36249 55.973393 -44.862201
4.986648 54.793669 -45.657904
6.114931 55.356093 -44.14629
5.36249 55.973393 -44.862201
6.393633 53.869368 -44.375755
6.114931 55.356093 -44.14629
4.813941 73.222363 -42.101087
3.876604 73.938969 -42.802471
5.055928 71.582211 -42.059038
4.813941 73.222363 -42.101087
4.364361 70.597492 -42.849622
5.055928 71.582211 -42.059038
8.778944 69.372578 -38.169404
9.444125 68.536515 -37.284491
8.121008 68.588795 -39.004951
8.097055 70.092087 -39.002327
8.778944 69.372578 -38.169404
8.853786 66.230408 -38.150152
9.377267 66.894241 -37.328369
8.245236 67.020508 -38.960217
8.853786 66.230408 -38.150152
8.296125 65.38163 -38.938341
6.919403 66.917378 -40.601156
6.795176 68.485665 -40.645891
7.563348 67.740017 -39.79314
6.327275 66.015145 -41.451311
6.919403 66.917378 -40.601156
7.095448 65.269497 -40.59856
5.74632 64.978238 -42.20254
6.327275 66.015145 -41.451311
6.008409 63.407593 -42.186234
5.251411 64.018567 -42.940058
5.74632 64.978238 -42.20254
7.584863 60.45832 -40.556152
7.423761 62.108229 -40.562048
7.112736 59.70735 -41.472532
7.584863 60.45832 -40.556152
6.619695 58.790587 -42.320236
6.455558 60.290039 -42.217817
7.112736 59.70735 -41.472532
6.242232 57.782972 -43.179546
6.619695 58.790587 -42.320236
6.766808 50.365938 -45.887417
7.461038 49.787838 -45.229979
6.396481 49.485907 -46.841868
6.048412 50.739991 -46.489214
6.766808 50.365938 -45.887417
7.522995 47.86538 -46.727577
7.780111 48.551182 -45.656632
8.18823 47.304707 -46.144138
9.45019 43.39629 -48.77966
9.614655 43.905161 -47.572727
8.707428 43.772548 -49.284119
9.45019 43.39629 -48.77966
7.986718 44.114449 -49.857092
8.229691 44.740963 -48.712145
8.707428 43.772548 -49.284119
7.241501 44.320771 -50.333861
7.986718 44.114449 -49.857092
6.514993 44.57828 -50.792956
6.782472 45.340372 -49.744213
7.241501 44.320771 -50.333861
5.730758 44.713359 -51.173086
6.514993 44.57828 -50.792956
6.189787 43.693758 -51.762734
4.322287 43.005188 -53.309333
4.59044 43.906698 -52.423721
5.137398 42.927328 -53.028476
3.53083 42.998722 -53.458805
4.322287 43.005188 -53.309333
3 39 38 10
3 40 12 41
3 0 15 13
3 0 17 15
3 42 19 43
3 44 22 45
3 46 45 20
3 44 45 46
3 47 23 48
3 2 24 11
3 2 25 24
3 3 49 50
3 3 51 52
3 4 53 54
3 4 55 57
3 55 26 56
3 55 56 57
3 1 58 60
3 58 27 59
3 58 59 60
3 5 28 14
3 5 61 63
3 63 62 28
3 61 62 63
3 5 64 65
3 67 66 16
3 6 68 69
3 6 70 72
3 70 71 72
3 73 29 74
3 7 75 77
3 77 76 18
3 75 76 77
3 7 78 79
3 8 80 81
3 8 82 83
3 84 30 85
3 86 31 87
3 88 32 89
3 90 89 31
3 88 89 90
3 91 33 92
3 93 92 32
3 91 92 93
3 94 34 95
3 9 35 21
3 9 36 35
3 96 37 97
3 99 98 37
3 10 100 102
3 100 11 101
3 100 101 102
3 103 11 104
3 105 104 10
3 103 104 105
3 106 2 107
3 108 107 11
3 106 107 108
3 109 3 110
3 12 111 112
3 12 113 115
3 113 4 114
3 113 114 115
3 13 14 1
3 15 14 13
3 15 5 14
3 15 16 5
3 17 16 15
3 17 116 118
3 118 117 16
3 116 117 118
3 119 6 120
3 121 18 122
3 19 123 125
3 123 18 124
3 123 124 125
3 19 7 18
3 126 8 127
3 20 128 130
3 128 21 129
3 128 129 130
3 22 21 20
3 22 9 21
3 23 131 132
3 23 133 135
3 133 1 134
3 133 134 135
3 11 136 138
3 136 23 137
3 136 137 138
3 24 23 11
3 24 1 23
3 24 13 1
3 25 13 24
3 25 0 13
3 26 139 140
3 26 141 142
3 143 12 144
3 27 145 147
3 145 12 146
3 145 146 147
3 27 4 12
3 14 27 1
3 28 27 14
3 28 4 27
3 28 26 4
3 148 26 149
3 150 149 28
3 148 149 150
3 152 151 26
3 16 153 155
3 155 154 5
3 153 154 155
3 157 156 16
3 158 20 159
3 160 20 161
3 160 161 162
3 165 164 20
3 163 164 165
3 166 6 167
3 166 167 168
3 169 6 170
3 169 170 171
3 174 173 6
3 172 173 174
3 29 175 176
3 29 177 178
3 18 179 181
3 179 29 180
3 179 180 181
3 182 29 183
3 184 183 18
3 182 183 184
3 186 185 29
3 187 10 188
3 189 10 190
3 192 191 10
3 193 3 194
3 195 3 196
3 198 197 3
3 30 199 200
3 30 201 203
3 201 8 202
3 201 202 203
3 204 30 205
3 31 206 208
3 206 30 207
3 206 207 208
3 31 8 30
3 31 209 211
3 211 210 8
3 209 210 211
3 32 212 214
3 214 213 31
3 212 213 214
3 32 215 216
3 32 217 219
3 217 19 218
3 217 218 219
3 33 19 32
3 33 7 19
3 220 33 221
3 222 33 223
3 224 7 225
3 226 225 33
3 224 225 226
3 228 227 7
3 34 229 230
3 34 231 233
3 231 2 232
3 231 232 233
3 21 234 236
3 234 34 235
3 234 235 236
3 35 34 21
3 35 2 34
3 35 25 2
3 36 25 35
3 36 0 25
3 237 22 238
3 239 22 240
3 241 9 242
3 243 242 22
3 241 242 243
3 244 9 245
3 246 36 247
3 248 247 9
3 246 247 248
3 37 249 251
3 249 36 250
3 249 250 251
3 37 0 36
3 37 17 0
3 252 17 253
3 254 253 37
3 252 253 254
3 256 255 17
