ply
format ascii 1.0
element vertex 185
property float x
property float y
property float z
element face 167
property list uchar int vertex_index
end_header
-8.736671 93.161316 -27.075119
-10.481638 85.392593 -33.229332
-9.898586 89.508171 -30.724237
-6.402965 89.594193 -35.379047
-5.412499 93.887039 -32.055031
-11.625905 91.296135 -21.892733
-12.888869 88.368561 -25.769384
-7.272789 95.689697 -22.750813
-10.015993 93.122688 -17.214546
-9.512152 91.356277 -28.906168
-7.774937 91.817268 -31.359959
-7.143313 93.667824 -29.568913
-10.221039 92.374077 -24.534462
-12.314219 89.958305 -23.974653
-10.992281 90.791183 -26.385466
-11.364575 89.269501 -28.195992
-10.507637 83.142448 -34.255684
-8.98012 82.595497 -36.327492
-8.749706 85.267235 -35.498844
-4.080266 91.517609 -36.20298
-15.780288 84.865997 -22.404896
-12.027311 85.355888 -30.924883
-4.628001 97.885994 -23.178078
-8.752362 94.484741 -20.031054
-10.223072 87.588699 -32.07922
-8.608879 87.626839 -34.254837
-8.076806 89.902832 -33.068192
-5.918275 91.831856 -33.902725
-13.005133 89.847382 -19.110861
-14.8115 87.427322 -18.72315
-13.62375 88.808495 -21.337885
-14.156043 87.475716 -23.24012
-14.561402 85.909584 -24.896545
-13.270989 86.703285 -27.27462
-11.82733 87.308884 -29.647316
-6.780218 87.277794 -36.57077
-7.845289 94.711861 -25.117792
-6.262741 95.400459 -27.662449
-5.598841 96.671387 -25.448278
-12.174157 90.764694 -16.807575
-10.907909 92.284859 -19.553406
-9.512635 93.565521 -22.413719
-3.191413 91.262623 -37.19824
-2.782904 92.47411 -36.53667
-16.422577 83.600872 -21.990301
-15.837488 84.182896 -23.239612
-11.296239 84.256958 -32.615234
-12.069076 84.238606 -31.46301
-11.254475 85.37424 -32.077107
-10.494637 84.267521 -33.742508
-11.309238 83.131886 -33.128411
-11.296239 84.256958 -32.615234
-4.437693 93.85595 -33.30181
-4.690581 92.828358 -34.225656
-5.665387 92.859448 -32.978878
-8.091634 82.356666 -37.358513
-8.077474 83.660607 -36.900593
-15.63891 86.126937 -18.348978
-15.129494 86.788452 -19.652763
-3.732673 98.341103 -24.491891
-3.255822 98.914119 -23.258021
-10.6189 92.316848 -15.875991
-9.548391 93.429195 -16.028433
-11.095075 91.943691 -17.01106
-11.697982 91.137852 -15.672506
-10.6189 92.316848 -15.875991
-5.46045 95.590832 -28.863333
-5.006383 96.424484 -27.811051
-9.743879 82.868972 -35.291588
-9.76402 81.553653 -35.648966
-10.527779 81.827129 -34.613062
-7.962267 84.996476 -36.486269
-8.077474 83.660607 -36.900593
-8.864913 83.931366 -35.913168
-4.365854 90.318626 -36.843483
-5.527203 89.356919 -36.431517
-5.241615 90.555901 -35.791013
-4.365854 90.318626 -36.843483
-3.191413 91.262623 -37.19824
-16.329761 84.251453 -21.130958
-15.613888 85.50779 -21.493636
-16.329761 84.251453 -21.130958
-16.422577 83.600872 -21.990301
-12.754891 84.155407 -30.3752
-12.7496 85.092315 -29.807467
-12.754891 84.155407 -30.3752
-12.069076 84.238606 -31.46301
-11.215349 82.027916 -33.621659
-11.309238 83.131886 -33.128411
-10.527779 81.827129 -34.613062
-11.215349 82.027916 -33.621659
-5.42236 97.329128 -21.81869
-5.950395 96.787846 -22.964446
-6.744753 96.23098 -21.605058
-4.125277 98.371139 -21.982802
-5.42236 97.329128 -21.81869
-3.255822 98.914119 -23.258021
-4.125277 98.371139 -21.982802
-8.829483 94.280361 -17.498653
-9.548391 93.429195 -16.028433
-8.197667 94.961388 -18.906908
-9.384177 93.803714 -18.6228
-8.829483 94.280361 -17.498653
-7.48454 95.628502 -20.245179
-8.197667 94.961388 -18.906908
-6.744753 96.23098 -21.605058
-8.012576 95.087219 -21.390934
-7.48454 95.628502 -20.245179
-3.771576 92.671234 -35.375784
-4.99927 91.674733 -35.052853
-4.690581 92.828358 -34.225656
-2.782904 92.47411 -36.53667
-3.771576 92.671234 -35.375784
-13.908317 88.637352 -18.917006
-14.520463 87.814968 -17.560091
-13.61728 89.024998 -17.753946
-14.535619 87.479039 -20.96013
-15.129494 86.788452 -19.652763
-14.217625 88.117908 -20.030518
-14.801766 86.812649 -21.911248
-14.535619 87.479039 -20.96013
-13.889896 88.142105 -22.289003
-14.968166 86.170856 -22.822508
-15.613888 85.50779 -21.493636
-14.801766 86.812649 -21.911248
-15.228045 84.704689 -24.485436
-15.837488 84.182896 -23.239612
-15.170845 85.38779 -23.65072
-14.632476 85.103955 -25.672964
-15.228045 84.704689 -24.485436
-13.98727 85.500805 -26.862001
-14.632476 85.103955 -25.672964
-13.916196 86.306434 -26.085583
-13.37144 85.766014 -27.982335
-13.98727 85.500805 -26.862001
-12.64961 86.068814 -29.168683
-13.37144 85.766014 -27.982335
-12.54916 87.006085 -28.460968
-11.927321 86.332386 -30.286099
-12.7496 85.092315 -29.807467
-12.64961 86.068814 -29.168683
-8.961498 81.340145 -36.67412
-9.76402 81.553653 -35.648966
-8.961498 81.340145 -36.67412
-8.091634 82.356666 -37.358513
-6.977523 86.001755 -37.022232
-7.962267 84.996476 -36.486269
-7.764962 86.272514 -36.034807
-5.715829 88.198719 -37.027378
-6.591591 88.435993 -35.974908
-5.527203 89.356919 -36.431517
-5.897406 86.910579 -37.618096
-5.715829 88.198719 -37.027378
-4.833018 87.831504 -38.074703
-6.977523 86.001755 -37.022232
-5.897406 86.910579 -37.618096
-15.355567 86.608711 -17.355652
-14.520463 87.814968 -17.560091
-15.355567 86.608711 -17.355652
-15.63891 86.126937 -18.348978
-4.674433 97.059948 -26.703965
-5.006383 96.424484 -27.811051
-5.930791 96.035923 -26.555363
-4.218093 97.733799 -25.626991
-5.113421 97.27869 -24.313178
-3.732673 98.341103 -24.491891
-4.674433 97.059948 -26.703965
-4.218093 97.733799 -25.626991
-12.722644 89.95549 -15.565927
-11.697982 91.137852 -15.672506
-13.201791 89.483654 -16.602303
-12.722644 89.95549 -15.565927
-12.589645 90.306038 -17.959218
-13.61728 89.024998 -17.753946
-13.201791 89.483654 -16.602303
-5.900735 94.724514 -29.816565
-6.703027 94.534142 -28.615681
-5.46045 95.590832 -28.863333
-5.035329 94.834122 -31.059624
-6.277906 93.777432 -30.811972
-5.900735 94.724514 -29.816565
-4.131297 94.882602 -32.316175
-5.035329 94.834122 -31.059624
-4.437693 93.85595 -33.30181
-4.131297 94.882602 -32.316175
3 0 11 9
3 0 14 12
3 0 9 14
3 1 18 16
3 43 42 19
3 45 44 20
3 1 46 48
3 48 47 21
3 46 47 48
3 1 49 51
3 49 16 50
3 49 50 51
3 2 26 24
3 4 27 10
3 4 52 54
3 54 53 27
3 52 53 54
3 5 30 28
3 6 31 13
3 6 32 31
3 6 33 32
3 2 34 15
3 2 24 34
3 56 55 17
3 3 35 25
3 58 57 29
3 7 38 36
3 60 59 22
3 8 61 62
3 8 63 65
3 63 39 64
3 63 64 65
3 8 40 39
3 7 41 23
3 7 36 41
3 67 66 37
3 9 10 2
3 11 10 9
3 11 4 10
3 12 13 5
3 14 13 12
3 14 6 13
3 14 15 6
3 9 15 14
3 9 2 15
3 16 68 70
3 68 17 69
3 68 69 70
3 18 17 16
3 18 71 73
3 73 72 17
3 71 72 73
3 19 74 76
3 76 75 3
3 74 75 76
3 78 77 19
3 20 79 80
3 82 81 20
3 21 83 84
3 86 85 21
3 16 87 88
3 16 89 90
3 91 22 92
3 93 92 7
3 91 92 93
3 94 22 95
3 97 96 22
3 98 8 99
3 100 23 101
3 102 101 8
3 100 101 102
3 103 23 104
3 105 7 106
3 107 106 23
3 105 106 107
3 24 25 1
3 26 25 24
3 26 3 25
3 10 26 2
3 27 26 10
3 27 3 26
3 27 19 3
3 108 19 109
3 110 109 27
3 108 109 110
3 112 111 19
3 28 113 115
3 113 29 114
3 113 114 115
3 30 29 28
3 30 116 118
3 118 117 29
3 116 117 118
3 13 30 5
3 31 30 13
3 31 119 121
3 121 120 30
3 119 120 121
3 31 122 124
3 122 20 123
3 122 123 124
3 32 20 31
3 32 125 127
3 127 126 20
3 125 126 127
3 32 128 129
3 33 130 132
3 132 131 32
3 130 131 132
3 33 133 134
3 15 33 6
3 34 33 15
3 34 135 137
3 137 136 33
3 135 136 137
3 34 138 140
3 138 21 139
3 138 139 140
3 24 21 34
3 24 1 21
3 17 141 142
3 144 143 17
3 25 18 1
3 35 18 25
3 35 145 147
3 147 146 18
3 145 146 147
3 148 35 149
3 150 149 3
3 148 149 150
3 151 35 152
3 151 152 153
3 155 154 35
3 29 156 157
3 159 158 29
3 36 37 0
3 38 37 36
3 38 160 162
3 162 161 37
3 160 161 162
3 22 38 7
3 163 38 164
3 165 164 22
3 163 164 165
3 167 166 38
3 39 168 169
3 39 170 171
3 39 172 174
3 172 28 173
3 172 173 174
3 40 28 39
3 40 5 28
3 23 40 8
3 41 40 23
3 41 5 40
3 41 12 5
3 36 12 41
3 36 0 12
3 37 11 0
3 175 11 176
3 177 176 37
3 175 176 177
3 178 4 179
3 180 179 11
3 178 179 180
3 181 4 182
3 184 183 4
