ply
format ascii 1.0
element vertex 283
property float x
property float y
property float z
element face 249
property list uchar int vertex_index
end_header
28.418846 42.980377 -2.256566
29.871418 38.420071 3.787259
30.55789 33.826382 10.943452
25.3361 36.978184 19.961866
27.613411 43.819984 4.249182
27.817257 41.100574 7.766978
30.257576 36.26186 7.253824
27.853693 38.504406 11.617403
25.195086 33.401226 23.831646
27.864557 32.384258 19.404081
26.376532 51.378014 -5.463036
27.085135 48.761185 -2.233202
27.439148 46.279339 0.972162
29.191891 40.838833 0.668763
28.024189 35.55518 15.30321
30.642467 31.12365 14.780383
27.329922 45.01899 -5.0907
26.59181 43.675014 8.145424
26.590441 42.342163 9.947253
27.756599 39.944672 9.751551
23.791945 33.952305 26.119457
28.701376 41.131886 4.055698
28.521675 42.351337 2.343
29.535343 39.652267 2.227862
30.967407 35.927238 3.689492
30.432119 35.033619 9.133104
31.580847 33.809319 6.913429
31.990807 31.370298 10.710517
26.628475 36.387714 17.632967
29.213427 30.204437 18.953478
29.215391 31.831379 17.1441
27.732899 45.849308 -2.318344
27.299459 47.206047 -3.806404
27.92128 43.944172 -3.747542
27.712917 42.465958 5.992639
28.843407 39.982605 5.710956
30.054192 37.441982 5.436491
29.010548 38.693619 7.476652
29.095125 37.476833 9.361247
29.154686 36.203232 11.302219
23.899567 35.754566 24.326385
25.275505 35.239658 21.913715
26.637714 34.614929 19.62747
26.528027 32.945034 21.580694
26.251516 49.322342 -6.706703
27.328457 47.39851 -0.724955
28.073044 44.601231 -0.691259
27.569986 44.956432 2.591153
28.338732 43.436836 0.719962
28.923843 41.594913 -0.906583
31.368156 34.749283 5.191111
27.904617 37.132904 13.463628
29.224674 34.834663 13.20492
27.963408 34.094341 17.269646
29.378687 33.2309 15.039097
30.668861 32.489822 12.786793
32.018734 30.1747 12.628874
26.838831 48.254715 -5.250027
25.940866 42.891863 11.136922
26.00258 43.591002 10.107864
26.57423 41.676588 10.898173
25.940866 42.891863 11.136922
30.237344 37.688757 2.90034
30.069307 38.304855 2.120642
29.703381 39.036169 3.007561
30.419412 37.173654 3.738376
30.785339 36.442341 2.851457
30.237344 37.688757 2.90034
31.176894 33.245558 9.868121
31.114009 33.849176 8.962947
30.495005 34.430001 10.038278
31.274349 32.59834 10.826985
31.893352 32.017516 9.751653
31.176894 33.245558 9.868121
24.634263 38.247292 20.219136
24.669897 37.283797 21.146139
25.321304 37.832388 19.027567
24.634263 38.247292 20.219136
25.982287 36.682949 18.797417
25.967492 37.537153 17.863118
25.321304 37.832388 19.027567
29.899825 29.953191 17.815767
29.870908 29.113408 18.796975
26.128626 51.945355 -6.255352
26.15516 52.917143 -5.632917
26.314024 50.350178 -6.084869
26.066118 50.917518 -6.877185
26.128626 51.945355 -6.255352
27.383803 46.838925 0.123603
26.982032 48.228422 0.14474
27.037377 47.668836 0.993299
27.591698 44.388208 3.420167
27.082857 45.70475 3.560549
27.10457 45.136526 4.389563
29.465762 39.82317 -0.177965
29.331739 40.20121 -0.965639
29.057867 41.216873 -0.11891
32.078485 33.05303 6.011366
32.219575 32.583276 6.927732
27.964403 36.344042 14.383419
27.266659 37.549242 14.576612
27.326445 36.76038 15.496403
26.925651 49.4781 -3.025142
26.765428 50.319775 -2.344648
26.991704 45.631323 -5.731432
26.746158 47.249185 -5.811096
27.084376 46.636853 -5.170364
26.003265 44.257427 9.20695
26.04136 44.996401 8.224134
26.591125 43.008589 9.046339
26.003265 44.257427 9.20695
26.00258 43.591002 10.107864
27.15731 40.477842 10.800323
27.17352 41.143417 9.849402
26.57423 41.676588 10.898173
27.205856 39.75771 11.733248
27.805146 39.224539 10.684477
27.15731 40.477842 10.800323
23.66252 32.942992 27.152262
23.13561 34.075629 27.287021
24.391344 32.745387 25.96773
23.66252 32.942992 27.152262
25.092915 32.469848 24.823824
24.493516 33.676766 24.975552
24.391344 32.745387 25.96773
25.693024 31.37531 24.633993
25.795195 32.306689 23.641815
25.092915 32.469848 24.823824
26.29608 52.354886 -4.777529
26.15516 52.917143 -5.632917
27.02748 47.023785 1.890694
27.037377 47.668836 0.993299
29.860495 38.803892 1.35633
29.688768 39.397175 0.576781
29.363617 40.24555 1.448313
29.860495 38.803892 1.35633
30.069307 38.304855 2.120642
31.330998 35.09619 2.810675
30.785339 36.442341 2.851457
31.547484 34.653173 3.586136
31.330998 35.09619 2.810675
31.688372 33.237026 7.85311
31.006483 34.421469 8.023267
31.114009 33.849176 8.962947
32.219575 32.583276 6.927732
31.688372 33.237026 7.85311
32.576842 30.795766 9.675581
31.893352 32.017516 9.751653
32.646517 30.256259 10.589147
32.576842 30.795766 9.675581
26.628588 37.176647 16.661282
25.967492 37.537153 17.863118
27.326332 35.971447 16.468089
27.326445 36.76038 15.496403
26.628588 37.176647 16.661282
29.900807 30.766662 16.911078
29.214409 31.017908 18.048789
29.899825 29.953191 17.815767
30.614345 30.412798 15.729219
29.928929 31.477514 15.962242
29.900807 30.766662 16.911078
31.282498 30.025641 14.714193
30.614345 30.412798 15.729219
27.125403 44.404815 5.253022
27.10457 45.136526 4.389563
26.614603 44.33233 7.201143
26.04136 44.996401 8.224134
27.175156 43.727802 6.12475
26.614603 44.33233 7.201143
27.152363 43.070486 7.069031
27.663164 43.142971 5.12091
27.125403 44.404815 5.253022
27.175156 43.727802 6.12475
23.146446 35.165289 26.397124
23.13561 34.075629 27.287021
23.200257 36.066419 25.500588
23.146446 35.165289 26.397124
23.845756 34.853436 25.222921
23.28343 36.928156 24.5614
23.200257 36.066419 25.500588
23.951631 36.671988 23.328398
23.28343 36.928156 24.5614
24.6396 36.414534 22.122063
23.951631 36.671988 23.328398
24.587536 35.497112 23.12005
25.305802 36.108921 20.93779
24.669897 37.283797 21.146139
24.6396 36.414534 22.122063
26.461666 32.078593 22.516339
25.861556 33.17313 22.70617
25.795195 32.306689 23.641815
27.142971 31.867598 21.404986
26.461666 32.078593 22.516339
27.811236 31.58721 20.31668
27.196292 32.664646 20.492387
27.142971 31.867598 21.404986
28.485671 30.497299 20.091378
28.538992 31.294348 19.17878
27.811236 31.58721 20.31668
29.136754 29.426266 19.874451
28.485671 30.497299 20.091378
29.870908 29.113408 18.796975
29.136754 29.426266 19.874451
25.938086 49.917046 -7.348307
26.066118 50.917518 -6.877185
26.053586 48.206798 -7.218207
25.938086 49.917046 -7.348307
28.497971 41.899244 -2.949473
28.794359 41.40032 -2.353178
26.824223 49.611345 -1.444328
26.765428 50.319775 -2.344648
26.945884 48.930008 -0.690204
26.982032 48.228422 0.14474
27.206796 48.079847 -1.479078
26.824223 49.611345 -1.444328
26.945884 48.930008 -0.690204
27.092899 46.362331 2.700189
27.082857 45.70475 3.560549
27.504567 45.617885 1.781657
27.02748 47.023785 1.890694
27.092899 46.362331 2.700189
29.046858 40.707588 -1.678187
28.794359 41.40032 -2.353178
28.671345 42.287645 -1.581574
29.454753 39.313885 -1.737242
29.046858 40.707588 -1.678187
29.331739 40.20121 -0.965639
29.465762 39.82317 -0.177965
29.688768 39.397175 0.576781
31.747858 34.064195 4.336946
31.547484 34.653173 3.586136
31.167782 35.338261 4.440302
31.972139 33.523012 5.150208
31.474501 34.279301 6.05227
32.078485 33.05303 6.011366
32.351841 32.837924 4.296042
31.747858 34.064195 4.336946
31.972139 33.523012 5.150208
27.192372 39.042584 12.728136
27.205856 39.75771 11.733248
27.217833 38.356833 13.651248
27.266659 37.549242 14.576612
27.879155 37.818655 12.540515
27.192372 39.042584 12.728136
27.217833 38.356833 13.651248
32.660481 29.65846 11.548325
32.646517 30.256259 10.589147
32.00477 30.772499 11.669695
31.970632 29.551167 13.638438
31.330601 30.649175 13.704629
31.282498 30.025641 14.714193
32.64933 29.088085 12.576407
31.970632 29.551167 13.638438
32.660481 29.65846 11.548325
32.64933 29.088085 12.576407
26.57135 50.786514 -4.640059
26.29608 52.354886 -4.777529
27.032813 48.700531 -3.811743
26.925651 49.4781 -3.025142
27.192297 47.983616 -3.019803
26.802499 49.224865 -4.533554
27.032813 48.700531 -3.811743
27.069145 47.730381 -4.528215
26.607681 49.816364 -5.356532
26.57135 50.786514 -4.640059
26.802499 49.224865 -4.533554
26.452501 47.782999 -6.539433
26.545173 48.788528 -5.978365
26.746158 47.249185 -5.811096
26.053586 48.206798 -7.218207
26.452501 47.782999 -6.539433
28.249187 42.381141 -3.694961
28.170063 43.462274 -3.002054
28.497971 41.899244 -2.949473
27.881291 42.947502 -4.345398
28.249187 42.381141 -3.694961
27.585612 43.484911 -5.016977
27.625601 44.481581 -4.419121
27.881291 42.947502 -4.345398
27.178331 43.958469 -5.652812
27.585612 43.484911 -5.016977
26.991704 45.631323 -5.731432
27.178331 43.958469 -5.652812
3 58 18 59
3 61 60 18
3 1 23 21
3 1 62 64
3 64 63 23
3 62 63 64
3 1 65 67
3 65 24 66
3 65 66 67
3 2 68 70
3 70 69 25
3 68 69 70
3 2 71 73
3 71 27 72
3 71 72 73
3 3 74 75
3 3 76 77
3 3 78 80
3 78 28 79
3 78 79 80
3 82 81 29
3 0 33 31
3 5 34 17
3 5 35 34
3 5 37 35
3 7 38 19
3 7 39 38
3 8 40 20
3 8 41 40
3 8 43 41
3 10 83 84
3 10 85 87
3 85 44 86
3 85 86 87
3 12 88 90
3 88 45 89
3 88 89 90
3 12 46 45
3 4 91 93
3 91 47 92
3 91 92 93
3 13 48 22
3 13 49 48
3 13 94 96
3 96 95 49
3 94 95 96
3 6 50 36
3 98 97 26
3 14 99 101
3 99 51 100
3 99 100 101
3 14 52 51
3 9 53 42
3 15 54 30
3 15 55 54
3 15 56 55
3 11 102 103
3 16 57 32
3 16 104 106
3 106 105 57
3 104 105 106
3 107 17 108
3 18 109 111
3 109 17 110
3 109 110 111
3 18 5 17
3 18 19 5
3 112 19 113
3 114 113 18
3 112 113 114
3 115 7 116
3 117 116 19
3 115 116 117
3 118 20 119
3 120 20 121
3 122 8 123
3 124 123 20
3 122 123 124
3 127 126 8
3 125 126 127
3 128 10 129
3 130 12 131
3 21 22 4
3 23 22 21
3 23 13 22
3 23 132 134
3 134 133 13
3 132 133 134
3 136 135 23
3 24 137 138
3 24 139 140
3 25 26 6
3 141 26 142
3 143 142 25
3 141 142 143
3 145 144 26
3 27 146 147
3 27 148 149
3 28 150 151
3 28 152 154
3 152 14 153
3 152 153 154
3 29 30 9
3 155 30 156
3 157 156 29
3 155 156 157
3 158 15 159
3 160 159 30
3 158 159 160
3 162 161 15
3 31 32 11
3 33 32 31
3 33 16 32
3 163 4 164
3 17 165 166
3 34 167 169
3 169 168 17
3 167 168 169
3 34 170 172
3 170 4 171
3 170 171 172
3 34 21 4
3 35 21 34
3 35 1 21
3 35 36 1
3 37 36 35
3 37 6 36
3 19 37 5
3 38 37 19
3 38 6 37
3 38 25 6
3 39 25 38
3 39 2 25
3 20 173 174
3 40 175 177
3 177 176 20
3 175 176 177
3 40 178 179
3 40 180 181
3 41 182 184
3 184 183 40
3 182 183 184
3 41 185 187
3 185 3 186
3 185 186 187
3 41 42 3
3 43 42 41
3 43 9 42
3 188 43 189
3 190 189 8
3 188 189 190
3 191 43 192
3 193 9 194
3 195 194 43
3 193 194 195
3 196 29 197
3 198 197 9
3 196 197 198
3 199 29 200
3 202 201 29
3 44 203 204
3 44 205 206
3 208 207 0
3 209 11 210
3 45 211 212
3 45 213 215
3 213 11 214
3 213 214 215
3 45 31 11
3 46 31 45
3 46 0 31
3 47 216 217
3 47 218 220
3 218 12 219
3 218 219 220
3 22 47 4
3 48 47 22
3 48 12 47
3 48 46 12
3 49 46 48
3 49 0 46
3 49 221 223
3 223 222 0
3 221 222 223
3 226 225 49
3 224 225 226
3 228 227 13
3 36 24 1
3 50 24 36
3 50 229 231
3 231 230 24
3 229 230 231
3 26 50 6
3 232 50 233
3 234 233 26
3 232 233 234
3 237 236 50
3 235 236 237
3 238 7 239
3 51 240 241
3 51 242 244
3 242 7 243
3 242 243 244
3 51 39 7
3 52 39 51
3 52 2 39
3 42 28 3
3 53 28 42
3 53 14 28
3 30 53 9
3 54 53 30
3 54 14 53
3 54 52 14
3 55 52 54
3 55 2 52
3 55 27 2
3 56 27 55
3 56 245 247
3 247 246 27
3 245 246 247
3 248 56 249
3 250 249 15
3 248 249 250
3 251 56 252
3 254 253 56
3 255 10 256
3 32 257 259
3 259 258 11
3 257 258 259
3 57 260 262
3 262 261 32
3 260 261 262
3 57 263 265
3 263 10 264
3 263 264 265
3 57 44 10
3 266 44 267
3 268 267 57
3 266 267 268
3 270 269 44
3 271 33 272
3 273 272 0
3 271 272 273
3 274 33 275
3 276 16 277
3 278 277 33
3 276 277 278
3 279 16 280
3 282 281 16
