ply
format ascii 1.0
element vertex 227
property float x
property float y
property float z
element face 170
property list uchar int vertex_index
end_header
-21.210505 -79.171959 33.463261
-25.805563 -75.150398 30.607677
-26.160282 -76.479179 20.275085
-22.267767 -81.665016 28.337236
-18.067144 -79.544472 33.856762
-24.516602 -79.347961 27.132442
-26.005247 -76.137749 25.402536
-23.961836 -77.504768 32.460396
-26.535654 -72.099159 15.409951
-26.642878 -69.809082 14.371812
-20.803604 -77.702332 35.964352
-25.164316 -77.242729 28.814245
-25.377007 -77.762466 26.289383
-25.961351 -75.578758 27.928917
-24.766788 -75.597748 34.140316
-24.973513 -76.488029 31.461447
-24.218695 -78.498596 29.833664
-21.727722 -80.47393 30.934984
-20.170624 -81.06424 31.199398
-26.4706 -74.491005 19.142654
-26.372902 -74.545952 16.516396
-17.52762 -77.734879 36.312519
-26.113455 -76.304993 22.822184
-26.572725 -73.854897 26.939716
-27.863617 -65.430779 20.047216
-27.609507 -65.189278 17.596529
-22.264828 -77.383438 35.387093
-23.608389 -76.581779 34.919628
-22.70363 -78.513542 32.965874
-23.130354 -79.599373 30.403156
-23.528969 -80.608307 27.781389
-26.873854 -68.643612 15.220243
-26.79159 -69.764504 15.720126
-20.507983 -79.295616 33.635766
-20.304532 -78.560802 34.886311
-21.007055 -78.437145 34.713807
-25.389538 -75.819213 31.034562
-25.343634 -75.463668 32.315858
-25.759659 -74.794853 31.888973
-25.988426 -77.618675 19.430132
-25.934047 -77.487262 20.747583
-21.531289 -82.074509 28.480018
-21.261266 -81.478966 29.778892
-21.997744 -81.069473 29.63611
-26.553187 -73.327877 17.268082
-26.421751 -74.518479 17.829525
-26.602035 -73.300404 18.581211
-26.396273 -73.17065 14.620413
-26.422779 -71.985233 14.061931
-17.797382 -78.639676 35.084641
-18.390175 -77.763363 36.299732
-18.659937 -78.66816 35.071854
-17.192438 -79.399056 33.918314
-16.922676 -78.494259 35.146192
-17.797382 -78.639676 35.084641
-19.368899 -81.131214 31.339597
-19.691985 -81.967884 30.037359
-24.671452 -79.653709 25.836478
-24.236221 -80.370029 26.178838
-25.776585 -77.20377 24.51596
-25.462466 -78.016129 24.959384
-25.691127 -76.950108 25.845959
-26.059351 -76.221371 24.11236
-25.830689 -77.287392 23.225784
-25.776585 -77.20377 24.51596
-26.879478 -72.693951 27.741203
-26.564591 -73.674004 28.208689
-28.002417 -64.142735 19.565856
-28.123946 -64.219927 20.749001
-27.875363 -64.021985 18.340513
-27.736562 -65.310029 18.821872
-28.002417 -64.142735 19.565856
-27.730683 -63.922785 17.076454
-27.875363 -64.021985 18.340513
-22.808562 -76.387943 36.389283
-22.154184 -76.638344 36.666557
-24.236221 -80.370029 26.178838
-23.742404 -81.000202 26.503311
-24.022785 -79.978134 27.456916
-21.899822 -82.653724 27.219511
-22.55981 -82.145527 27.063757
-26.737978 -70.909542 16.239195
-26.634563 -72.10448 16.714859
-26.589266 -70.954121 14.890881
-26.737978 -70.909542 16.239195
-26.79159 -69.764504 15.720126
-26.476391 -70.840194 13.542862
-26.422779 -71.985233 14.061931
-26.589266 -70.954121 14.890881
-20.028168 -77.74709 36.125648
-20.678481 -76.898758 37.198208
-20.028168 -77.74709 36.125648
-20.304532 -78.560802 34.886311
-18.936302 -79.481873 33.832516
-18.659937 -78.66816 35.071854
-25.240271 -75.018528 33.655293
-25.218205 -74.554828 34.915071
-24.870151 -76.042889 32.800882
-25.240271 -75.018528 33.655293
-25.343634 -75.463668 32.315858
-20.482717 -81.774121 29.911099
-20.949173 -80.769085 31.067191
-21.261266 -81.478966 29.778892
-19.691985 -81.967884 30.037359
-20.482717 -81.774121 29.911099
-21.531289 -82.074509 28.480018
-21.899822 -82.653724 27.219511
-26.18101 -74.321754 30.042669
-26.170115 -74.054806 31.377296
-26.170115 -74.054806 31.377296
-25.759659 -74.794853 31.888973
-26.304561 -75.634068 18.377937
-26.149403 -76.628154 18.944153
-26.315441 -75.485092 19.708869
-26.255713 -75.661541 17.064808
-26.304561 -75.634068 18.377937
-26.421751 -74.518479 17.829525
-26.253501 -75.551655 15.7222
-26.255713 -75.661541 17.064808
-26.454278 -73.322555 15.963173
-26.553187 -73.327877 17.268082
-26.634563 -72.10448 16.714859
-26.314898 -74.394047 15.173636
-26.454278 -73.322555 15.963173
-26.396273 -73.17065 14.620413
-26.253501 -75.551655 15.7222
-26.314898 -74.394047 15.173636
-18.175065 -76.938641 37.460327
-18.390175 -77.763363 36.299732
-17.306497 -76.762139 37.571619
-18.175065 -76.938641 37.460327
-16.663102 -77.611469 36.24411
-17.306497 -76.762139 37.571619
-16.663102 -77.611469 36.24411
-16.922676 -78.494259 35.146192
-19.988042 -80.241757 32.503834
-20.507983 -79.295616 33.635766
-20.690565 -80.118099 32.33133
-19.988042 -80.241757 32.503834
-19.368899 -81.131214 31.339597
-18.317158 -80.37133 32.66828
-18.936302 -79.481873 33.832516
-17.484951 -80.414539 32.586995
-18.317158 -80.37133 32.66828
-17.192438 -79.399056 33.918314
-17.484951 -80.414539 32.586995
-25.101654 -78.860962 25.414949
-24.671452 -79.653709 25.836478
-24.946804 -78.555214 26.710912
-25.101654 -78.860962 25.414949
-25.462466 -78.016129 24.959384
-25.910634 -77.40017 22.021133
-25.830689 -77.287392 23.225784
-26.136868 -76.392086 21.548634
-25.934047 -77.487262 20.747583
-25.910634 -77.40017 22.021133
-26.258904 -74.535934 28.703289
-25.883457 -75.364578 29.268297
-26.18101 -74.321754 30.042669
-26.267038 -74.716827 27.434317
-26.258904 -74.535934 28.703289
-26.564591 -73.674004 28.208689
-26.849878 -72.805965 26.486823
-26.879478 -72.693951 27.741203
-26.567415 -73.999855 25.69072
-26.849878 -72.805965 26.486823
-26.283676 -75.141281 24.92213
-26.288986 -74.996323 26.171126
-26.567415 -73.999855 25.69072
-26.33778 -75.224903 23.631954
-26.059351 -76.221371 24.11236
-26.283676 -75.141281 24.92213
-26.330714 -75.287876 22.265878
-26.33778 -75.224903 23.631954
-26.354128 -75.374969 20.992328
-26.136868 -76.392086 21.548634
-26.330714 -75.287876 22.265878
-26.509287 -74.380882 20.426113
-26.315441 -75.485092 19.708869
-26.354128 -75.374969 20.992328
-26.672728 -73.334282 19.870164
-26.509287 -74.380882 20.426113
-26.602035 -73.300404 18.581211
-26.672728 -73.334282 19.870164
-28.006943 -65.333126 21.296537
-28.123946 -64.219927 20.749001
-27.751977 -66.564354 20.652713
-28.006943 -65.333126 21.296537
-27.624934 -66.548134 19.374543
-27.751977 -66.564354 20.652713
-27.497879 -66.427383 18.1492
-27.624934 -66.548134 19.374543
-27.736562 -65.310029 18.821872
-27.357169 -66.33371 16.832602
-27.497879 -66.427383 18.1492
-27.455125 -65.121285 16.356083
-27.357169 -66.33371 16.832602
-27.455125 -65.121285 16.356083
-27.730683 -63.922785 17.076454
-21.423572 -76.797791 36.955187
-20.678481 -76.898758 37.198208
-21.534216 -77.542885 35.675722
-21.423572 -76.797791 36.955187
-22.154184 -76.638344 36.666557
-24.690157 -75.086838 35.370558
-25.218205 -74.554828 34.915071
-24.110957 -75.578854 35.760214
-24.690157 -75.086838 35.370558
-24.187588 -76.089764 34.529972
-23.480342 -75.987113 36.15555
-24.110957 -75.578854 35.760214
-22.936608 -76.982608 35.153361
-22.808562 -76.387943 36.389283
-23.480342 -75.987113 36.15555
-23.19041 -81.617172 26.785833
-22.55981 -82.145527 27.063757
-22.898368 -81.136662 28.059313
-23.19041 -81.617172 26.785833
-23.742404 -81.000202 26.503311
-25.988426 -77.618675 19.430132
-26.149403 -76.628154 18.944153
-26.714884 -68.560699 13.919743
-26.873854 -68.643612 15.220243
-26.504875 -69.64291 13.073963
-26.714884 -68.560699 13.919743
-26.476391 -70.840194 13.542862
-26.504875 -69.64291 13.073963
3 31 9 32
3 0 33 35
3 35 34 10
3 33 34 35
3 1 13 11
3 1 36 38
3 36 15 37
3 36 37 38
3 1 11 15
3 2 39 40
3 3 41 43
3 43 42 17
3 41 42 43
3 44 20 45
3 46 45 19
3 44 45 46
3 48 47 8
3 4 49 51
3 49 21 50
3 49 50 51
3 4 52 54
3 54 53 21
3 52 53 54
3 56 55 18
3 5 57 58
3 6 59 61
3 61 60 12
3 59 60 61
3 6 62 64
3 62 22 63
3 62 63 64
3 65 23 66
3 67 24 68
3 69 25 70
3 71 70 24
3 69 70 71
3 73 72 25
3 74 26 75
3 7 27 14
3 7 28 27
3 7 29 28
3 5 30 16
3 5 76 78
3 78 77 30
3 76 77 78
3 80 79 3
3 81 8 82
3 9 83 85
3 83 8 84
3 83 84 85
3 9 86 88
3 88 87 8
3 86 87 88
3 10 89 90
3 92 91 10
3 93 4 94
3 11 12 5
3 13 12 11
3 13 6 12
3 95 14 96
3 15 97 99
3 97 14 98
3 97 98 99
3 15 7 14
3 15 16 7
3 11 16 15
3 11 5 16
3 17 18 0
3 100 18 101
3 102 101 17
3 100 101 102
3 104 103 18
3 106 105 3
3 108 107 1
3 109 1 110
3 19 111 113
3 113 112 2
3 111 112 113
3 20 114 116
3 116 115 19
3 114 115 116
3 20 117 118
3 8 119 121
3 119 20 120
3 119 120 121
3 122 20 123
3 124 123 8
3 122 123 124
3 126 125 20
3 21 127 128
3 21 129 130
3 21 131 132
3 134 133 21
3 18 135 137
3 137 136 0
3 135 136 137
3 139 138 18
3 140 4 141
3 142 4 143
3 145 144 4
3 12 146 148
3 148 147 5
3 146 147 148
3 150 149 12
3 22 151 152
3 22 153 155
3 153 2 154
3 153 154 155
3 156 13 157
3 158 157 1
3 156 157 158
3 23 159 161
3 159 13 160
3 159 160 161
3 23 6 13
3 162 23 163
3 164 23 165
3 166 6 167
3 168 167 23
3 166 167 168
3 169 22 170
3 171 170 6
3 169 170 171
3 172 22 173
3 174 2 175
3 176 175 22
3 174 175 176
3 177 19 178
3 179 178 2
3 177 178 179
3 180 19 181
3 183 182 19
3 24 184 185
3 24 186 187
3 24 188 189
3 25 190 192
3 192 191 24
3 190 191 192
3 25 193 194
3 25 195 196
3 198 197 25
3 199 10 200
3 26 201 203
3 201 10 202
3 201 202 203
3 26 0 10
3 14 204 205
3 27 206 208
3 208 207 14
3 206 207 208
3 27 209 210
3 27 211 213
3 211 26 212
3 211 212 213
3 28 26 27
3 28 0 26
3 28 17 0
3 29 17 28
3 29 3 17
3 16 29 7
3 30 29 16
3 30 3 29
3 30 214 216
3 216 215 3
3 214 215 216
3 218 217 30
3 220 219 2
3 221 9 222
3 223 9 224
3 226 225 9
