ply
format ascii 1.0
element vertex 237
property float x
property float y
property float z
element face 200
property list uchar int vertex_index
end_header
28.944464 -53.290249 40.558277
28.407644 -43.19997 47.939796
28.99247 -41.623077 38.32671
28.732792 -48.110203 44.358139
28.699644 -42.503819 42.979282
28.522139 -53.71851 45.426003
28.561804 -58.557541 41.407265
28.555483 -36.726521 41.650471
28.928911 -35.113022 37.12141
28.873472 -50.678719 42.333374
28.902555 -47.878902 41.814308
29.037552 -50.547516 39.801132
28.437021 -51.091862 47.335972
28.27607 -58.772209 43.767483
28.485855 -61.071999 39.345081
28.833456 -41.952778 40.636475
28.641617 -39.609077 42.155006
28.778389 -38.881779 39.863182
28.720123 -35.885578 39.26778
28.970884 -38.459545 37.556717
28.582672 -45.71854 46.125069
28.562073 -42.928059 45.414673
28.745733 -45.367607 43.573475
28.891092 -44.886707 41.109688
29.038988 -44.625591 38.742489
28.979492 -55.790565 38.400108
29.099873 -53.171688 37.944069
28.391289 -45.913567 48.664898
28.541145 -48.365376 46.850014
28.682125 -50.824818 44.815487
28.753481 -53.50156 43.062057
28.556826 -56.223564 43.506905
28.800938 -55.918354 40.967556
28.775084 -58.513683 38.91497
28.698582 -61.082005 36.640793
28.508135 -40.033371 44.608753
28.667789 -32.72438 38.732731
28.934444 -32.059151 36.561703
29.176882 -40.870972 36.00174
29.263309 -31.221903 34.547543
29.692074 -30.719902 32.460117
30.164976 -29.66045 30.605402
30.72146 -29.090542 28.640221
28.398058 -41.884442 47.504326
28.330438 -42.031105 48.759796
28.96919 -46.156046 40.266044
28.896823 -46.382804 41.461998
28.974922 -47.652143 40.618354
29.043138 -46.025488 39.082445
28.96504 -44.756149 39.926088
28.96919 -46.156046 40.266044
29.049547 -55.694541 37.118727
28.962282 -57.051386 37.403732
28.348543 -47.270679 48.975302
28.282145 -46.091677 49.807202
28.423471 -48.496584 48.06786
28.466217 -47.139471 47.757456
28.348543 -47.270679 48.975302
28.518955 -62.395007 36.868189
28.592219 -61.077002 37.992937
28.412592 -62.390003 38.220333
28.629254 -62.32009 35.541792
28.518955 -62.395007 36.868189
28.497089 -36.995474 42.741979
28.540156 -38.436752 42.994247
28.59855 -38.167799 41.902738
28.451035 -35.460049 42.43056
28.497089 -36.995474 42.741979
28.517164 -35.128756 41.297691
28.451035 -35.460049 42.43056
29.132355 -51.657288 37.749727
29.164201 -52.952438 36.702711
29.290318 -40.712546 34.867354
29.271105 -42.249704 35.079283
29.185428 -39.309235 35.697683
29.290318 -40.712546 34.867354
29.40826 -32.570025 33.739199
29.231116 -32.937211 34.813091
29.622643 -32.319025 32.695486
29.477691 -30.970903 33.50383
29.40826 -32.570025 33.739199
30.309855 -31.062101 29.731952
30.075086 -31.36499 30.720256
30.588096 -30.777147 28.749362
30.443218 -29.375496 29.622812
30.309855 -31.062101 29.731952
29.04242 -48.986451 39.611767
28.974922 -47.652143 40.618354
28.970053 -49.213209 40.80772
28.276674 -51.104158 48.643215
28.371409 -49.859827 48.310839
28.33363 -52.37162 47.610693
28.276674 -51.104158 48.643215
28.376189 -53.684945 46.655709
28.47958 -52.405186 46.380988
28.33363 -52.37162 47.610693
28.066548 -59.960385 43.970884
28.098706 -58.683206 45.029421
27.889184 -59.871382 45.232822
28.240282 -59.980686 42.777174
28.066548 -59.960385 43.970884
28.383148 -59.873352 41.597065
28.418937 -58.664875 42.587374
28.240282 -59.980686 42.777174
28.345174 -61.130581 40.565973
28.523829 -59.81477 40.376173
28.383148 -59.873352 41.597065
28.277439 -62.375605 39.502836
28.345174 -61.130581 40.565973
28.204176 -63.69361 38.378088
28.412592 -62.390003 38.220333
28.277439 -62.375605 39.502836
29.109738 -54.385103 36.890707
29.039682 -54.481127 38.172089
29.049547 -55.694541 37.118727
29.164201 -52.952438 36.702711
29.109738 -54.385103 36.890707
28.321914 -43.381548 49.151356
28.330438 -42.031105 48.759796
28.313737 -44.738346 49.513907
28.282145 -46.091677 49.807202
28.399467 -44.556769 48.302347
28.321914 -43.381548 49.151356
28.313737 -44.738346 49.513907
28.489083 -49.728619 47.092993
28.423471 -48.496584 48.06786
28.371409 -49.859827 48.310839
28.395886 -55.003782 45.670937
28.376189 -53.684945 46.655709
28.272852 -57.530632 44.841677
28.098706 -58.683206 45.029421
28.41323 -56.25631 44.711388
28.272852 -57.530632 44.841677
28.416448 -57.497886 43.637194
28.539482 -54.971037 44.466454
28.395886 -55.003782 45.670937
28.41323 -56.25631 44.711388
28.860078 -58.412945 37.661163
28.962282 -57.051386 37.403732
28.877288 -57.152124 38.657539
28.821827 -59.697106 36.524074
28.860078 -58.412945 37.661163
28.736833 -59.797844 37.777881
28.7754 -60.988833 35.422457
28.821827 -59.697106 36.524074
28.7754 -60.988833 35.422457
28.629254 -62.32009 35.541792
28.475273 -41.748486 46.241764
28.398058 -41.884442 47.504326
28.484859 -43.064014 46.677234
28.448304 -40.301142 45.838804
28.475273 -41.748486 46.241764
28.535104 -41.480715 45.011713
28.421822 -38.913052 45.415394
28.448304 -40.301142 45.838804
28.473415 -38.648899 44.22112
28.574876 -39.821224 43.381879
28.540156 -38.436752 42.994247
28.421822 -38.913052 45.415394
28.473415 -38.648899 44.22112
28.599485 -34.708285 40.106346
28.517164 -35.128756 41.297691
28.637803 -36.30605 40.459125
28.573318 -33.127685 39.838822
28.599485 -34.708285 40.106346
28.693956 -34.304979 39.000256
28.543336 -31.501209 39.538582
28.573318 -33.127685 39.838822
28.66274 -31.184669 38.428764
28.543336 -31.501209 39.538582
28.796068 -30.852055 37.34325
28.66274 -31.184669 38.428764
28.801116 -32.391765 37.647217
28.939994 -30.370989 36.365801
28.796068 -30.852055 37.34325
29.101194 -50.345202 38.678259
29.068713 -51.859602 38.872601
29.132355 -51.657288 37.749727
29.04242 -48.986451 39.611767
29.101194 -50.345202 38.678259
29.117338 -45.988889 37.833608
29.043138 -46.025488 39.082445
29.117359 -44.380586 37.565071
29.117338 -45.988889 37.833608
29.0941 -42.879329 37.357181
29.015729 -43.124334 38.534599
29.117359 -44.380586 37.565071
29.186306 -42.503277 36.194696
29.271105 -42.249704 35.079283
29.084676 -41.247025 37.164225
29.0941 -42.879329 37.357181
29.186306 -42.503277 36.194696
29.082429 -38.103521 36.475172
29.073883 -39.665259 36.779229
29.185428 -39.309235 35.697683
29.061442 -36.43026 36.257519
28.949897 -36.786283 37.339063
29.082429 -38.103521 36.475172
29.063917 -34.88277 36.100025
29.061442 -36.43026 36.257519
29.066683 -33.355835 35.820172
28.931677 -33.586087 36.841556
29.063917 -34.88277 36.100025
29.098876 -31.640527 35.554623
29.066683 -33.355835 35.820172
29.231116 -32.937211 34.813091
29.104427 -29.952365 35.358721
28.939994 -30.370989 36.365801
29.098876 -31.640527 35.554623
29.311729 -29.562133 34.316924
29.104427 -29.952365 35.358721
29.526111 -29.311132 33.27321
29.311729 -29.562133 34.316924
29.477691 -30.970903 33.50383
29.765127 -28.947551 32.317859
29.526111 -29.311132 33.27321
29.838636 -31.894716 31.647613
29.622643 -32.319025 32.695486
29.928525 -30.190176 31.532759
29.838636 -31.894716 31.647613
30.075086 -31.36499 30.720256
30.001579 -28.417825 31.390502
29.765127 -28.947551 32.317859
29.928525 -30.190176 31.532759
30.284992 -27.946988 30.444505
30.001579 -28.417825 31.390502
30.563234 -27.662034 29.461915
30.284992 -27.946988 30.444505
30.443218 -29.375496 29.622812
30.873818 -27.305792 28.532628
30.563234 -27.662034 29.461915
30.853503 -30.476926 27.769605
30.588096 -30.777147 28.749362
31.044873 -28.650565 27.653094
30.853503 -30.476926 27.769605
30.873818 -27.305792 28.532628
31.044873 -28.650565 27.653094
3 0 11 9
3 1 43 44
3 2 17 15
3 2 19 17
3 3 22 20
3 45 23 46
3 47 46 10
3 45 46 47
3 48 24 49
3 50 49 23
3 48 49 50
3 52 51 25
3 53 27 54
3 55 28 56
3 57 56 27
3 55 56 57
3 5 29 12
3 5 30 29
3 6 31 13
3 6 32 31
3 6 33 32
3 58 34 59
3 60 59 14
3 58 59 60
3 62 61 34
3 4 35 21
3 7 63 65
3 65 64 16
3 63 64 65
3 7 66 67
3 7 68 69
3 8 36 18
3 8 37 36
3 71 70 26
3 72 38 73
3 75 74 38
3 76 39 77
3 78 40 79
3 80 79 39
3 78 79 80
3 81 41 82
3 83 42 84
3 85 84 41
3 83 84 85
3 9 10 3
3 11 10 9
3 11 86 88
3 88 87 10
3 86 87 88
3 89 12 90
3 91 12 92
3 93 5 94
3 95 94 12
3 93 94 95
3 96 13 97
3 96 97 98
3 99 13 100
3 101 6 102
3 103 102 13
3 101 102 103
3 104 14 105
3 106 105 6
3 104 105 106
3 107 14 108
3 111 110 14
3 109 110 111
3 15 16 4
3 17 16 15
3 17 7 16
3 17 18 7
3 19 18 17
3 19 8 18
3 20 21 1
3 22 21 20
3 22 4 21
3 10 22 3
3 23 22 10
3 23 4 22
3 23 15 4
3 24 15 23
3 24 2 15
3 25 26 0
3 112 26 113
3 114 113 25
3 112 113 114
3 116 115 26
3 117 1 118
3 27 119 120
3 27 121 123
3 121 1 122
3 121 122 123
3 27 20 1
3 28 20 27
3 28 3 20
3 12 124 126
3 124 28 125
3 124 125 126
3 29 28 12
3 29 3 28
3 29 9 3
3 30 9 29
3 30 0 9
3 127 5 128
3 13 129 130
3 31 131 133
3 133 132 13
3 131 132 133
3 31 134 136
3 134 5 135
3 134 135 136
3 31 30 5
3 32 30 31
3 32 0 30
3 32 25 0
3 33 25 32
3 33 137 139
3 139 138 25
3 137 138 139
3 14 33 6
3 34 33 14
3 34 140 142
3 142 141 33
3 140 141 142
3 34 143 144
3 146 145 34
3 21 147 149
3 149 148 1
3 147 148 149
3 35 150 152
3 152 151 21
3 150 151 152
3 35 153 154
3 16 35 4
3 155 35 156
3 157 156 16
3 155 156 157
3 159 158 35
3 18 160 162
3 162 161 7
3 160 161 162
3 36 163 165
3 165 164 18
3 163 164 165
3 36 166 167
3 36 168 169
3 37 170 172
3 172 171 36
3 170 171 172
3 37 173 174
3 26 11 0
3 175 11 176
3 177 176 26
3 175 176 177
3 179 178 11
3 180 24 181
3 182 24 183
3 184 2 185
3 186 185 24
3 184 185 186
3 38 187 188
3 38 189 191
3 189 2 190
3 189 190 191
3 38 19 2
3 192 19 193
3 194 193 38
3 192 193 194
3 195 8 196
3 197 196 19
3 195 196 197
3 198 8 199
3 200 37 201
3 202 201 8
3 200 201 202
3 39 203 205
3 203 37 204
3 203 204 205
3 39 206 208
3 208 207 37
3 206 207 208
3 39 209 210
3 40 211 213
3 213 212 39
3 211 212 213
3 40 214 215
3 216 40 217
3 41 218 220
3 218 40 219
3 218 219 220
3 41 221 223
3 223 222 40
3 221 222 223
3 41 224 225
3 42 226 228
3 228 227 41
3 226 227 228
3 42 229 230
3 231 42 232
3 233 42 234
3 236 235 42
