ply
format ascii 1.0
element vertex 340
property float x
property float y
property float z
element face 317
property list uchar int vertex_index
end_header
-15.702964 26.112459 63.869106
-1.288523 30.260149 53.570263
-8.335062 28.877369 58.583012
-20.454311 36.1712 61.950378
5.774394 30.873129 49.107857
-18.100122 31.012718 63.198071
-16.931795 38.087936 60.11076
-14.395636 33.162357 60.736118
-4.901721 29.822056 55.980774
-7.291891 35.137589 55.417126
-0.18109 36.045143 50.63409
-19.370565 24.030899 65.798737
-21.650171 28.321718 64.790169
2.217687 30.846048 51.288765
-11.882342 27.93932 61.191849
-22.887346 40.603386 60.278561
-10.8845 34.24427 58.1679
-23.82123 32.985424 62.979782
4.555984 25.392708 51.715321
-16.835754 28.775753 63.483471
-16.170313 32.305695 61.960651
-14.962242 29.568768 62.347603
-3.086132 30.114107 54.721069
-4.251835 32.713245 54.424129
-2.529289 33.033375 53.230003
-0.761123 33.229218 52.100395
-16.269926 22.649172 65.193039
-17.550297 24.944088 64.986015
-18.716843 27.523121 64.550186
1.078981 33.390003 50.975025
0.466789 30.34971 52.497681
-21.719986 38.191105 61.294807
-21.269594 42.187462 59.667007
-20.058664 39.83427 60.458714
-10.060398 28.387495 59.889301
-11.337687 30.933027 59.746136
-9.551201 31.503063 58.368988
-21.100006 32.240402 63.446297
-22.859865 30.568573 64.002373
-22.230305 34.478287 62.682201
-23.467556 36.920486 61.619541
4.623231 33.583103 48.827213
6.441901 33.436329 47.730656
8.144506 33.617252 46.481953
7.619519 30.915119 47.847588
2.807128 25.189001 52.895023
-19.258553 33.611523 62.633877
-18.69593 37.282265 61.101654
-17.451399 34.629662 61.660091
-15.658883 35.794029 60.402336
-13.85398 36.273052 59.218025
-6.611969 29.389111 57.256557
-7.764667 32.047943 56.971237
-5.966563 32.326618 55.6782
-5.540099 35.428322 54.149372
-21.223396 22.431448 66.562584
-20.594761 26.062468 65.411865
-19.976555 29.849701 64.099838
2.933554 33.510651 49.859951
4.009546 30.700018 50.275337
-14.371784 23.790266 63.973022
-13.770254 27.152412 62.55513
-7.155228 26.620998 58.667923
-5.366582 26.935488 57.388741
-3.637489 27.419941 56.100063
-1.841409 27.432341 54.973907
-0.149673 27.532938 53.904953
-18.21344 40.830875 59.522324
-13.221837 30.435745 61.081146
-12.568788 33.685429 59.460293
-12.134514 37.19138 57.790886
-9.09409 34.821823 56.749779
-10.376077 37.50079 56.513069
-23.356621 26.940796 65.121117
-24.488245 28.946539 64.161858
1.607832 27.885952 52.721222
3.321573 27.938553 51.662224
5.155605 28.205122 50.421669
5.51517 22.891148 51.826546
6.269057 25.389326 50.576469
6.963823 28.122286 49.244255
-4.707354 35.601488 53.550117
-4.895967 34.070784 54.28675
-4.063222 34.243949 53.687496
-5.30288 37.058188 53.32226
-4.707354 35.601488 53.550117
-0.855387 37.411566 50.460701
-1.099158 35.969828 51.201957
0.070234 37.519638 49.880306
-0.855387 37.411566 50.460701
-19.728812 22.176836 66.405735
-18.727529 22.829585 65.974682
-20.296981 23.231174 66.180661
-20.655228 21.377111 66.787658
-19.728812 22.176836 66.405735
0.683945 36.105204 50.116667
0.070234 37.519638 49.880306
-13.436606 24.266822 63.317993
-13.743147 22.595267 64.020588
-6.580893 25.310386 58.773201
-7.472079 25.120729 59.413956
-5.68657 25.46763 58.13361
-6.260905 26.778243 58.028332
-6.580893 25.310386 58.773201
-3.110955 26.02749 56.276641
-3.959431 25.967548 56.839918
-2.212915 26.03369 55.713563
-2.739449 27.426141 55.536985
-3.110955 26.02749 56.276641
-13.743147 22.595267 64.020588
-14.708029 22.100198 64.646186
-14.079392 20.9052 64.693752
-1.313459 26.143695 55.109104
-2.212915 26.03369 55.713563
-22.745447 42.52853 59.488656
-23.488906 41.619191 59.72115
-21.061059 44.084591 58.823317
-20.390904 42.792139 59.259792
-10.116817 39.129433 55.652659
-9.480466 37.804987 55.784855
-10.991329 38.964779 56.307175
-10.116817 39.129433 55.652659
-22.503396 27.631257 64.955643
-22.838338 25.835762 65.516083
-21.985113 26.526223 65.350609
-24.622033 31.956336 63.008617
-24.95554 29.936894 63.599655
-24.154737 30.965982 63.57082
-24.391968 33.916279 62.425731
-25.192771 32.887191 62.454567
-24.622033 31.956336 63.008617
-23.731712 39.709955 60.405125
-24.021816 37.868505 61.075615
-23.177451 38.761936 60.949051
-23.488906 41.619191 59.72115
-24.333272 40.72576 59.847713
-23.731712 39.709955 60.405125
9.075161 33.600523 45.776152
8.77682 32.313761 46.488502
1.327597 26.51014 53.365368
0.729079 27.709445 53.313087
0.448844 26.333633 53.957234
5.981639 21.620593 51.84883
5.146315 21.489375 52.468578
5.612783 20.218819 52.490862
7.145177 25.475935 49.931388
6.764985 24.178925 50.579384
7.49256 26.842415 49.265282
6.61644 26.755806 49.910362
7.145177 25.475935 49.931388
7.855452 28.148004 48.595225
7.49256 26.842415 49.265282
-3.201949 34.404015 53.090433
-4.063222 34.243949 53.687496
-3.390562 32.87331 53.827066
-2.273257 34.463943 52.499914
-3.201949 34.404015 53.090433
-1.389174 34.561865 51.93511
-2.273257 34.463943 52.499914
-1.645206 33.131297 52.665199
-0.471106 34.63718 51.367243
-1.099158 35.969828 51.201957
-1.389174 34.561865 51.93511
-17.17721 22.138722 65.671833
-16.636375 20.947147 65.826057
-17.817395 23.28618 65.568321
-17.17721 22.138722 65.671833
-16.910111 23.79663 65.089527
-18.460431 24.487493 65.392376
-18.727529 22.829585 65.974682
-17.817395 23.28618 65.568321
-19.785438 41.615543 59.655645
-20.390904 42.792139 59.259792
-20.664129 41.010866 60.06286
-16.702789 39.97698 59.230801
-16.07624 38.611635 59.47472
-7.938373 36.623386 55.236884
-7.026728 36.643528 54.619203
4.880922 34.890728 48.15304
3.964694 34.959828 48.674543
5.790257 34.817341 47.604762
4.880922 34.890728 48.15304
5.532566 33.509716 48.278935
6.676089 34.899017 46.995528
5.790257 34.817341 47.604762
7.293203 33.526791 47.106305
7.527392 34.989479 46.371176
6.676089 34.899017 46.995528
8.514326 30.962694 47.17132
8.77682 32.313761 46.488502
7.882013 32.266185 47.164771
2.436128 23.925461 53.528997
1.927245 25.161664 53.452269
3.330842 23.899969 52.956692
2.436128 23.925461 53.528997
4.20527 24.001822 52.366841
3.681556 25.290855 52.305172
3.330842 23.899969 52.956692
-15.439784 37.464681 59.620508
-16.07624 38.611635 59.47472
-16.295339 36.940983 60.256548
-14.537332 37.704193 59.028352
-15.439784 37.464681 59.620508
-14.756431 36.033541 59.810181
-13.643917 38.058933 58.364002
-14.537332 37.704193 59.028352
-6.150832 36.788894 53.985326
-7.026728 36.643528 54.619203
-6.415995 35.282955 54.783249
-6.150832 36.788894 53.985326
-5.30288 37.058188 53.32226
-21.579766 20.531256 67.118649
-21.011598 19.476918 67.343723
-20.655228 21.377111 66.787658
-22.128017 21.635281 66.786663
-22.484386 19.735089 67.342727
-21.579766 20.531256 67.118649
-21.771726 23.581088 66.236817
-22.128017 21.635281 66.786663
-21.457408 25.396598 65.661457
-21.771726 23.581088 66.236817
-20.909078 24.246958 65.987224
-21.122466 27.192093 65.101017
-21.985113 26.526223 65.350609
-21.457408 25.396598 65.661457
1.31398 34.777634 50.287134
0.683945 36.105204 50.116667
0.448945 34.717573 50.804558
2.241267 34.837958 49.729597
1.31398 34.777634 50.287134
2.006267 33.450327 50.417488
3.119855 34.923602 49.190912
2.241267 34.837958 49.729597
3.778392 33.546877 49.343582
3.964694 34.959828 48.674543
3.119855 34.923602 49.190912
-13.135841 25.947895 62.609047
-14.071019 25.471339 63.264076
-13.436606 24.266822 63.317993
-12.191885 26.341349 61.927407
-12.826298 27.545866 61.873489
-13.135841 25.947895 62.609047
-11.297463 26.600511 61.309706
-12.191885 26.341349 61.927407
-10.386491 26.824599 60.658432
-10.97137 28.163407 60.540575
-11.297463 26.600511 61.309706
-9.540569 27.155805 60.009981
-10.386491 26.824599 60.658432
-8.677901 27.400742 59.356837
-9.19773 28.632432 59.236156
-9.540569 27.155805 60.009981
-8.087984 26.272557 59.399292
-7.472079 25.120729 59.413956
-7.745145 27.749184 58.625467
-8.677901 27.400742 59.356837
-8.087984 26.272557 59.399292
-4.823978 25.725322 57.484257
-5.68657 25.46763 58.13361
-4.502035 27.177715 56.744402
-4.823978 25.725322 57.484257
-3.959431 25.967548 56.839918
-15.6571 21.529651 65.256195
-16.636375 20.947147 65.826057
-15.320855 23.219719 64.583031
-15.6571 21.529651 65.256195
-14.708029 22.100198 64.646186
-0.467591 26.193994 54.574627
-0.995541 27.48264 54.43943
-1.313459 26.143695 55.109104
0.448844 26.333633 53.957234
-0.467591 26.193994 54.574627
-21.936571 43.320568 59.182879
-22.745447 42.52853 59.488656
-22.07847 41.395424 59.972784
-21.936571 43.320568 59.182879
-21.061059 44.084591 58.823317
-18.862826 42.113845 59.18745
-19.785438 41.615543 59.655645
-19.136052 40.332572 59.990519
-17.343612 41.34845 58.936583
-17.572617 39.459406 59.816542
-16.702789 39.97698 59.230801
-17.98696 42.646873 58.661416
-17.343612 41.34845 58.936583
-18.862826 42.113845 59.18745
-17.98696 42.646873 58.661416
-12.784184 38.518097 57.650433
-13.643917 38.058933 58.364002
-12.994247 36.732216 58.504455
-8.839472 36.465503 55.90321
-8.192991 34.979706 56.083452
-7.938373 36.623386 55.236884
-9.735084 36.161307 56.631424
-8.839472 36.465503 55.90321
-9.480466 37.804987 55.784855
-11.870548 38.810074 56.946083
-11.255295 37.346085 57.151978
-10.991329 38.964779 56.307175
-12.784184 38.518097 57.650433
-11.870548 38.810074 56.946083
-23.711087 24.97949 65.653393
-22.838338 25.835762 65.516083
-24.213208 26.035064 65.14555
-24.567673 24.073759 65.677826
-23.711087 24.97949 65.653393
-24.77902 27.037936 64.66592
-24.213208 26.035064 65.14555
-23.922433 27.943668 64.641487
-25.249638 27.91102 64.10925
-24.77902 27.037936 64.66592
-25.249638 27.91102 64.10925
-24.95554 29.936894 63.599655
-24.215131 35.88381 61.745611
-24.391968 33.916279 62.425731
-23.644393 34.952955 62.299661
-24.215131 35.88381 61.745611
-24.021816 37.868505 61.075615
8.449644 34.874323 45.755123
7.527392 34.989479 46.371176
8.449644 34.874323 45.755123
9.075161 33.600523 45.776152
2.20748 26.537477 52.808122
1.327597 26.51014 53.365368
1.927245 25.161664 53.452269
4.684863 22.751043 52.422453
5.146315 21.489375 52.468578
5.035577 24.141928 51.770933
4.20527 24.001822 52.366841
4.684863 22.751043 52.422453
6.388041 22.929837 51.204422
5.981639 21.620593 51.84883
5.892114 24.140237 51.201508
6.388041 22.929837 51.204422
6.764985 24.178925 50.579384
8.1833 29.54442 47.896891
7.291671 29.518702 48.545922
7.855452 28.148004 48.595225
8.514326 30.962694 47.17132
8.1833 29.54442 47.896891
3 0 21 19
3 1 24 22
3 1 25 24
3 0 27 26
3 0 19 27
3 1 30 25
3 3 33 31
3 2 36 34
3 3 39 37
3 3 31 39
3 4 42 41
3 4 44 42
3 5 48 46
3 7 49 20
3 7 50 49
3 8 53 51
3 81 54 82
3 83 82 23
3 81 82 83
3 85 84 54
3 10 86 87
3 10 88 89
3 11 90 91
3 11 92 94
3 92 55 93
3 92 93 94
3 11 56 55
3 5 57 28
3 5 46 57
3 10 95 96
3 13 58 29
3 13 59 58
3 98 97 60
3 99 62 100
3 101 63 102
3 103 102 62
3 101 102 103
3 104 64 105
3 106 65 107
3 108 107 64
3 106 107 108
3 109 60 110
3 109 110 111
3 113 112 65
3 15 114 115
3 117 116 32
3 6 67 47
3 14 68 61
3 16 69 35
3 16 70 69
3 9 71 52
3 118 72 119
3 121 120 72
3 12 122 124
3 122 73 123
3 122 123 124
3 17 74 38
3 17 125 127
3 127 126 74
3 125 126 127
3 17 128 130
3 128 129 130
3 15 131 133
3 133 132 40
3 131 132 133
3 15 134 136
3 134 135 136
3 138 137 43
3 139 75 140
3 141 140 66
3 139 140 141
3 18 76 45
3 18 77 76
3 142 78 143
3 142 143 144
3 145 79 146
3 147 80 148
3 149 148 79
3 147 148 149
3 151 150 80
3 19 20 5
3 21 20 19
3 21 7 20
3 22 23 8
3 24 23 22
3 24 152 154
3 154 153 23
3 152 153 154
3 24 155 156
3 25 157 159
3 159 158 24
3 157 158 159
3 25 160 162
3 160 10 161
3 160 161 162
3 26 163 164
3 27 165 167
3 167 166 26
3 165 166 167
3 27 168 170
3 168 11 169
3 168 169 170
3 27 28 11
3 19 28 27
3 19 5 28
3 25 29 10
3 30 29 25
3 30 13 29
3 31 32 15
3 33 32 31
3 33 171 173
3 173 172 32
3 171 172 173
3 175 174 6
3 34 35 14
3 36 35 34
3 36 16 35
3 177 176 9
3 37 38 12
3 39 38 37
3 39 17 38
3 39 40 17
3 31 40 39
3 31 15 40
3 41 178 179
3 42 180 182
3 182 181 41
3 180 181 182
3 42 183 184
3 42 185 187
3 185 43 186
3 185 186 187
3 44 43 42
3 44 188 190
3 190 189 43
3 188 189 190
3 191 45 192
3 193 45 194
3 195 18 196
3 197 196 45
3 195 196 197
3 46 47 3
3 48 47 46
3 48 6 47
3 20 48 5
3 49 48 20
3 49 6 48
3 49 198 200
3 200 199 6
3 198 199 200
3 50 201 203
3 203 202 49
3 201 202 203
3 50 204 205
3 51 52 2
3 53 52 51
3 53 9 52
3 23 53 8
3 54 53 23
3 54 9 53
3 54 206 208
3 208 207 9
3 206 207 208
3 210 209 54
3 55 211 213
3 211 212 213
3 55 214 216
3 214 215 216
3 55 217 218
3 56 219 221
3 221 220 55
3 219 220 221
3 56 222 224
3 222 12 223
3 222 223 224
3 28 56 11
3 57 56 28
3 57 12 56
3 57 37 12
3 46 37 57
3 46 3 37
3 29 225 227
3 227 226 10
3 225 226 227
3 58 228 230
3 230 229 29
3 228 229 230
3 58 231 232
3 58 233 235
3 233 41 234
3 233 234 235
3 59 41 58
3 59 4 41
3 60 61 0
3 236 61 237
3 238 237 60
3 236 237 238
3 239 14 240
3 241 240 61
3 239 240 241
3 242 14 243
3 244 34 245
3 246 245 14
3 244 245 246
3 247 34 248
3 249 2 250
3 251 250 34
3 249 250 251
3 62 252 253
3 62 254 256
3 254 2 255
3 254 255 256
3 62 51 2
3 63 51 62
3 63 8 51
3 257 63 258
3 64 259 261
3 259 63 260
3 259 260 261
3 64 8 63
3 64 22 8
3 65 22 64
3 65 1 22
3 262 26 263
3 60 264 266
3 264 26 265
3 264 265 266
3 60 0 26
3 65 66 1
3 267 66 268
3 269 268 65
3 267 268 269
3 271 270 66
3 32 272 274
3 274 273 15
3 272 273 274
3 276 275 32
3 47 33 3
3 67 33 47
3 67 277 279
3 279 278 33
3 277 278 279
3 280 67 281
3 282 281 6
3 280 281 282
3 283 67 284
3 286 285 67
3 61 21 0
3 68 21 61
3 68 7 21
3 35 68 14
3 69 68 35
3 69 7 68
3 69 50 7
3 70 50 69
3 70 287 289
3 289 288 50
3 287 288 289
3 52 36 2
3 71 36 52
3 71 16 36
3 290 71 291
3 292 291 9
3 290 291 292
3 72 293 295
3 293 71 294
3 293 294 295
3 72 16 71
3 72 70 16
3 296 70 297
3 298 297 72
3 296 297 298
3 300 299 70
3 73 301 302
3 73 303 305
3 303 304 305
3 38 73 12
3 74 73 38
3 74 306 308
3 308 307 73
3 306 307 308
3 74 309 310
3 312 311 74
3 40 313 315
3 315 314 17
3 313 314 315
3 317 316 40
3 43 318 319
3 321 320 43
3 66 30 1
3 75 30 66
3 75 13 30
3 45 322 324
3 322 75 323
3 322 323 324
3 76 75 45
3 76 13 75
3 76 59 13
3 77 59 76
3 77 4 59
3 78 325 326
3 78 327 329
3 327 18 328
3 327 328 329
3 330 78 331
3 79 332 334
3 332 78 333
3 332 333 334
3 79 18 78
3 79 77 18
3 80 77 79
3 80 4 77
3 80 44 4
3 335 44 336
3 337 336 80
3 335 336 337
3 339 338 44
