ply
format ascii 1.0
element vertex 272
property float x
property float y
property float z
element face 265
property list uchar int vertex_index
end_header
-33.328671 18.055944 -54.324146
-20.897701 21.215652 -70.901268
-20.395658 28.423046 -65.288147
-35.007565 10.496861 -59.908096
-28.242828 21.245871 -64.30249
-34.368629 15.029756 -57.674561
-20.777428 25.31465 -68.741577
-24.44957 25.215597 -65.214546
-24.86203 21.43977 -68.166527
-28.847717 16.65897 -66.45977
-24.942505 16.708841 -69.745407
-19.703669 30.309891 -61.035988
-16.276468 30.807854 -64.501144
-16.513315 28.152 -68.402946
-35.185242 4.569337 -61.085182
-30.134697 22.172674 -55.720894
-23.640783 27.622568 -61.34885
-27.601126 24.130507 -60.793674
-31.315235 19.804424 -59.483944
-31.949991 16.096741 -62.474487
-32.286018 10.947341 -64.116905
-34.85762 15.583912 -53.507957
-33.998215 16.588345 -56.015553
-20.831488 23.294777 -70.040291
-22.740875 23.56275 -68.607918
-22.989962 21.249847 -69.699112
-25.02536 19.170551 -69.048523
-22.850529 18.905573 -70.552299
-20.987654 18.419744 -71.544731
-35.197468 7.647876 -60.561531
-28.275146 24.120434 -56.292229
-19.95941 29.574038 -63.234303
-21.681076 29.032627 -61.324738
-22.030729 28.145332 -63.526058
-26.357977 23.291567 -64.944374
-26.09791 24.82729 -63.032444
-27.88802 22.89959 -62.784714
-29.464836 22.044754 -60.429657
-29.883581 20.593426 -62.003124
-31.691265 18.048475 -61.213924
-30.118694 18.852757 -63.483826
-28.968531 13.977408 -67.094627
-30.709639 13.811458 -65.313866
-36.80608 12.002115 -49.800495
-20.49354 27.056665 -67.222649
-22.371431 26.940001 -65.427238
-22.725697 25.414749 -67.030914
-24.613796 23.479828 -66.959877
-26.572578 21.423712 -66.431396
-28.553568 19.203978 -65.52993
-26.98864 19.125154 -67.351669
-27.013178 16.689646 -68.205818
-26.968262 14.075221 -68.732025
-17.992445 30.70216 -62.93919
-18.275803 29.677982 -65.117088
-16.411142 29.593161 -66.607941
-18.365227 28.499937 -67.005722
-18.567389 26.958275 -68.649895
-18.786346 25.080633 -70.018089
-18.734224 22.911333 -71.175667
-18.972532 20.394535 -71.899139
-16.817423 22.283651 -71.945541
-31.718367 20.261372 -55.257343
-25.237129 26.744162 -58.899155
-24.131124 26.555477 -63.361824
-25.564991 26.056959 -61.150555
-27.000448 25.178835 -58.909504
-28.899616 23.30147 -58.400822
-30.649509 21.293655 -57.88089
-32.482513 18.888277 -56.975891
-32.924576 17.417109 -58.719822
-33.335495 15.475577 -60.120365
-33.568474 13.294873 -61.28854
-30.362516 16.625256 -64.631783
-32.20118 13.669215 -63.407391
-33.764858 10.699701 -62.090122
-33.839809 7.909064 -62.617634
-34.093145 16.819928 -53.916051
-34.517889 16.199677 -52.628679
-33.753415 17.435693 -53.036773
-35.651247 8.946149 -59.185974
-35.568747 10.154426 -58.764371
-35.102517 9.072368 -60.234814
-35.746199 7.521657 -59.512692
-35.651247 8.946149 -59.185974
-27.356246 24.963797 -56.442622
-27.877435 24.404682 -55.159651
-29.829583 12.516248 -66.497028
-28.867495 12.587741 -67.352303
-36.510677 12.519846 -51.073923
-36.175342 13.251845 -50.228001
-37.102436 11.177707 -50.518892
-36.510677 12.519846 -51.073923
-35.112583 13.554319 -57.038862
-34.913631 14.488926 -56.340795
-34.587826 13.960608 -58.237626
-35.112583 13.554319 -57.038862
-24.95556 15.174708 -69.895134
-25.968438 13.857899 -69.388443
-25.955383 15.392031 -69.238716
-17.134456 30.755007 -63.720167
-17.08101 31.217758 -62.578568
-16.223022 31.270605 -63.359544
-16.462229 28.87258 -67.505443
-15.460201 29.415017 -67.192814
-15.511287 28.694436 -68.090317
-17.749679 24.802134 -70.535359
-17.687221 25.787935 -69.94244
-17.723618 23.717484 -71.114148
-18.760285 23.995983 -70.596878
-17.749679 24.802134 -70.535359
-16.765217 23.403643 -71.499085
-17.775824 22.597492 -71.560604
-17.723618 23.717484 -71.114148
-35.778534 2.896714 -60.256752
-35.82594 4.44235 -60.019337
-35.125096 3.014008 -61.213701
-35.778534 2.896714 -60.256752
-30.577961 21.61143 -54.3557
-29.696183 22.582485 -54.696793
-30.926532 21.217023 -55.489119
-31.369796 20.655779 -54.123924
-30.577961 21.61143 -54.3557
-20.451574 29.99811 -60.027992
-19.546843 30.580026 -59.820104
-23.446359 27.953147 -60.140709
-22.466506 28.658177 -60.128653
-22.66093 28.327598 -61.336794
-24.438956 27.183365 -60.124003
-24.244532 27.513944 -58.915862
-23.446359 27.953147 -60.140709
-18.906502 19.083251 -72.119286
-17.876545 20.113715 -72.219166
-35.201112 15.042744 -52.081732
-34.517889 16.199677 -52.628679
-35.536447 14.310745 -52.927654
-35.201112 15.042744 -52.081732
-35.158126 14.766004 -54.257493
-35.536447 14.310745 -52.927654
-34.728424 15.26822 -55.511291
-35.158126 14.766004 -54.257493
-34.427917 16.086129 -54.761755
-34.183422 15.809051 -56.845057
-34.913631 14.488926 -56.340795
-34.728424 15.26822 -55.511291
-22.946143 17.509479 -70.727867
-23.992131 16.411113 -70.324421
-23.896517 17.807207 -70.148853
-22.014705 17.266565 -71.224083
-22.946143 17.509479 -70.727867
-21.919092 18.662658 -71.048515
-20.970561 17.01015 -71.675571
-22.014705 17.266565 -71.224083
-15.344152 31.295378 -64.069402
-16.223022 31.270605 -63.359544
-15.290706 31.758129 -62.927803
-15.534105 27.915734 -68.883895
-15.511287 28.694436 -68.090317
-16.550705 27.323619 -69.134869
-15.534105 27.915734 -68.883895
-35.832053 5.98162 -59.757511
-35.746199 7.521657 -59.512692
-35.191355 6.108607 -60.823357
-35.82594 4.44235 -60.019337
-35.832053 5.98162 -59.757511
-28.766407 23.556365 -54.98246
-27.877435 24.404682 -55.159651
-29.204921 23.146554 -56.006562
-29.696183 22.582485 -54.696793
-28.766407 23.556365 -54.98246
-30.700136 12.433273 -65.606648
-29.839085 13.894433 -66.204247
-29.829583 12.516248 -66.497028
-31.488326 11.001214 -65.008167
-31.497828 12.379399 -64.715385
-30.700136 12.433273 -65.606648
-32.24361 9.449908 -64.365184
-31.488326 11.001214 -65.008167
-36.438227 12.649275 -48.925375
-36.175342 13.251845 -50.228001
-37.00029 11.494008 -48.516777
-36.438227 12.649275 -48.925375
-37.337807 10.729777 -49.285511
-37.00029 11.494008 -48.516777
-37.337807 10.729777 -49.285511
-37.102436 11.177707 -50.518892
-34.907294 11.694161 -59.354393
-35.568747 10.154426 -58.764371
-27.867361 12.636648 -68.171001
-28.867495 12.587741 -67.352303
-27.968396 14.026315 -67.913326
-26.924284 12.459325 -68.84264
-27.867361 12.636648 -68.171001
-26.924284 12.459325 -68.84264
-25.968438 13.857899 -69.388443
-24.95556 15.174708 -69.895134
-23.992131 16.411113 -70.324421
-33.002566 18.51953 -53.386922
-33.753415 17.435693 -53.036773
-18.790281 30.864972 -60.730553
-19.546843 30.580026 -59.820104
-17.934669 31.061107 -61.682153
-17.08101 31.217758 -62.578568
-18.848057 30.506025 -61.987589
-18.790281 30.864972 -60.730553
-17.934669 31.061107 -61.682153
-15.415017 30.710997 -65.16204
-15.344152 31.295378 -64.069402
-15.482354 30.103651 -66.215439
-15.460201 29.415017 -67.192814
-16.343805 30.200508 -65.554542
-15.415017 30.710997 -65.16204
-15.482354 30.103651 -66.215439
-17.577742 26.726756 -69.258343
-17.540352 27.555138 -68.526421
-16.550705 27.323619 -69.134869
-18.676868 26.019454 -69.333992
-17.577742 26.726756 -69.258343
-17.687221 25.787935 -69.94244
-16.798991 21.058273 -72.242367
-17.876545 20.113715 -72.219166
-17.894978 21.339093 -71.92234
-15.793913 22.946813 -71.858067
-16.765217 23.403643 -71.499085
-15.745788 21.808811 -72.209709
-15.793913 22.946813 -71.858067
-16.798991 21.058273 -72.242367
-15.745788 21.808811 -72.209709
-32.197413 19.622244 -53.853521
-31.369796 20.655779 -54.123924
-32.523519 19.158658 -54.790745
-33.002566 18.51953 -53.386922
-32.197413 19.622244 -53.853521
-21.440277 29.359478 -60.172368
-20.451574 29.99811 -60.027992
-20.692373 29.671259 -61.180363
-21.440277 29.359478 -60.172368
-22.466506 28.658177 -60.128653
-24.85693 27.076206 -57.761209
-24.244532 27.513944 -58.915862
-25.837238 26.275661 -57.746084
-24.85693 27.076206 -57.761209
-26.718897 25.492997 -57.751259
-25.837238 26.275661 -57.746084
-26.118789 25.961498 -58.90433
-27.637797 24.649634 -57.600866
-27.356246 24.963797 -56.442622
-26.718897 25.492997 -57.751259
-34.071258 14.183519 -59.460527
-34.587826 13.960608 -58.237626
-33.852062 15.252667 -58.897463
-34.187748 13.093167 -60.044615
-34.071258 14.183519 -59.460527
-33.451985 14.385225 -60.704453
-34.28802 11.895867 -60.598318
-34.907294 11.694161 -59.354393
-34.187748 13.093167 -60.044615
-33.020505 7.930769 -63.615549
-33.062914 9.428202 -63.36727
-32.24361 9.449908 -64.365184
-33.754583 6.355443 -62.852289
-33.020505 7.930769 -63.615549
-34.4273 4.685579 -62.086064
-34.512526 6.2392 -61.851408
-33.754583 6.355443 -62.852289
-35.125096 3.014008 -61.213701
-34.4273 4.685579 -62.086064
-19.914062 18.095855 -71.942082
-19.980093 19.407139 -71.721935
-18.906502 19.083251 -72.119286
-20.970561 17.01015 -71.675571
-19.914062 18.095855 -71.942082
3 0 77 79
3 77 21 78
3 77 78 79
3 0 22 21
3 1 25 23
3 1 27 25
3 1 28 27
3 3 80 81
3 3 82 84
3 82 29 83
3 82 83 84
3 85 30 86
3 2 33 31
3 4 36 34
3 4 38 36
3 4 40 38
3 88 87 41
3 89 43 90
3 92 91 43
3 5 93 94
3 5 95 96
3 6 46 44
3 8 47 24
3 8 48 47
3 8 50 48
3 10 51 26
3 10 52 51
3 10 97 99
3 99 98 52
3 97 98 99
3 12 100 102
3 100 53 101
3 100 101 102
3 12 54 53
3 13 103 105
3 103 55 104
3 103 104 105
3 13 56 55
3 13 57 56
3 106 58 107
3 108 59 109
3 110 109 58
3 108 109 110
3 111 61 112
3 113 112 59
3 111 112 113
3 14 114 115
3 14 116 117
3 15 118 119
3 15 120 122
3 120 62 121
3 120 121 122
3 11 123 124
3 16 125 127
3 127 126 32
3 125 126 127
3 16 128 130
3 128 63 129
3 128 129 130
3 7 64 45
3 17 65 35
3 17 66 65
3 17 67 66
3 18 68 37
3 18 69 68
3 18 70 69
3 19 71 39
3 19 72 71
3 9 73 49
3 20 74 42
3 20 75 74
3 20 76 75
3 132 131 60
3 21 133 134
3 21 135 136
3 21 137 138
3 22 139 141
3 141 140 21
3 139 140 141
3 22 142 144
3 142 5 143
3 142 143 144
3 23 24 6
3 25 24 23
3 25 8 24
3 25 26 8
3 27 26 25
3 27 10 26
3 27 145 147
3 147 146 10
3 145 146 147
3 28 148 150
3 150 149 27
3 148 149 150
3 28 151 152
3 153 12 154
3 153 154 155
3 156 13 157
3 159 158 13
3 29 160 161
3 29 162 164
3 162 14 163
3 162 163 164
3 30 165 166
3 30 167 169
3 167 15 168
3 167 168 169
3 31 32 11
3 33 32 31
3 33 16 32
3 34 35 7
3 36 35 34
3 36 17 35
3 36 37 17
3 38 37 36
3 38 18 37
3 38 39 18
3 40 39 38
3 40 19 39
3 41 42 9
3 170 42 171
3 172 171 41
3 170 171 172
3 173 20 174
3 175 174 42
3 173 174 175
3 177 176 20
3 43 178 179
3 43 180 181
3 43 182 183
3 185 184 43
3 186 3 187
3 44 45 2
3 46 45 44
3 46 7 45
3 24 46 6
3 47 46 24
3 47 7 46
3 47 34 7
3 48 34 47
3 48 4 34
3 48 49 4
3 50 49 48
3 50 9 49
3 26 50 8
3 51 50 26
3 51 9 50
3 51 41 9
3 52 41 51
3 52 188 190
3 190 189 41
3 188 189 190
3 52 191 192
3 194 193 52
3 196 195 10
3 197 0 198
3 199 11 200
3 53 201 202
3 53 203 205
3 203 11 204
3 203 204 205
3 53 31 11
3 54 31 53
3 54 2 31
3 206 12 207
3 55 208 209
3 55 210 212
3 210 12 211
3 210 211 212
3 55 54 12
3 56 54 55
3 56 2 54
3 56 44 2
3 57 44 56
3 57 6 44
3 213 57 214
3 215 214 13
3 213 214 215
3 58 216 218
3 216 57 217
3 216 217 218
3 58 6 57
3 58 23 6
3 59 23 58
3 59 1 23
3 59 60 1
3 61 60 59
3 61 219 221
3 221 220 60
3 219 220 221
3 222 61 223
3 224 61 225
3 227 226 61
3 62 228 229
3 62 230 232
3 230 0 231
3 230 231 232
3 32 233 235
3 235 234 11
3 233 234 235
3 237 236 32
3 63 238 239
3 63 240 241
3 45 33 2
3 64 33 45
3 64 16 33
3 35 64 7
3 65 64 35
3 65 16 64
3 65 63 16
3 66 63 65
3 66 242 244
3 244 243 63
3 242 243 244
3 66 245 247
3 245 30 246
3 245 246 247
3 67 30 66
3 67 15 30
3 37 67 17
3 68 67 37
3 68 15 67
3 68 62 15
3 69 62 68
3 69 0 62
3 69 22 0
3 70 22 69
3 70 5 22
3 39 70 18
3 71 70 39
3 71 5 70
3 71 248 250
3 250 249 5
3 248 249 250
3 72 251 253
3 253 252 71
3 251 252 253
3 72 254 256
3 254 3 255
3 254 255 256
3 49 40 4
3 73 40 49
3 73 19 40
3 42 73 9
3 74 73 42
3 74 19 73
3 74 72 19
3 75 72 74
3 75 3 72
3 75 29 3
3 76 29 75
3 76 14 29
3 257 76 258
3 259 258 20
3 257 258 259
3 260 76 261
3 262 14 263
3 264 263 76
3 262 263 264
3 266 265 14
3 60 28 1
3 267 28 268
3 269 268 60
3 267 268 269
3 271 270 28
