ply
format ascii 1.0
element vertex 54
property float x
property float y
property float z
element face 39
property list uchar int vertex_index
end_header
26.108456 -72.858078 3.599308
26.808336 -74.515984 8.412116
26.311291 -75.574333 3.760835
25.921938 -74.736649 1.503746
26.182175 -77.370117 1.39245
26.49342 -73.750618 5.976675
26.618401 -76.43026 6.011265
26.351958 -77.843041 2.527214
26.246733 -76.472225 2.576643
26.416516 -76.945148 3.711406
26.650878 -74.133301 7.194395
26.627719 -72.847015 7.086714
26.785177 -73.229699 8.304434
25.903739 -72.541413 2.485273
26.054455 -71.616066 3.545613
25.700774 -74.36607 0.382709
25.857065 -75.654313 0.385752
26.939882 -73.565041 9.578152
26.785177 -73.229699 8.304434
25.987184 -76.971046 0.330104
25.857065 -75.654313 0.385752
26.052056 -76.053383 1.448098
26.259187 -71.959221 4.721878
26.054455 -71.616066 3.545613
26.451669 -72.405491 5.910562
26.627719 -72.847015 7.086714
26.300938 -73.304348 4.787992
26.259187 -71.959221 4.721878
26.451669 -72.405491 5.910562
26.57007 -77.373112 4.836621
26.416516 -76.945148 3.711406
26.464846 -76.002296 4.88605
26.919044 -74.89748 9.579603
26.939882 -73.565041 9.578152
26.832648 -75.859871 8.434337
26.919044 -74.89748 9.579603
26.73768 -76.817009 7.233912
26.713369 -75.473122 7.21169
26.832648 -75.859871 8.434337
26.687978 -77.777161 6.002192
26.73768 -76.817009 7.233912
26.57007 -77.373112 4.836621
26.687978 -77.777161 6.002192
25.81048 -73.480698 1.437493
25.903739 -72.541413 2.485273
26.015197 -73.797364 2.551527
25.81048 -73.480698 1.437493
25.700774 -74.36607 0.382709
26.320927 -78.669876 1.350207
26.351958 -77.843041 2.527214
26.149974 -78.300346 0.17657
26.320927 -78.669876 1.350207
25.987184 -76.971046 0.330104
26.149974 -78.300346 0.17657
3 7 4 8
3 9 8 2
3 7 8 9
3 1 10 12
3 10 5 11
3 10 11 12
3 1 6 5
3 0 13 14
3 16 15 3
3 17 1 18
3 2 3 0
3 4 3 2
3 4 19 21
3 21 20 3
3 19 20 21
3 22 0 23
3 5 24 25
3 5 26 28
3 26 0 27
3 26 27 28
3 5 2 0
3 6 2 5
3 6 29 31
3 31 30 2
3 29 30 31
3 32 1 33
3 34 1 35
3 36 6 37
3 38 37 1
3 36 37 38
3 39 6 40
3 42 41 6
3 3 43 45
3 45 44 0
3 43 44 45
3 47 46 3
3 48 4 49
3 50 4 51
3 53 52 4
