ply
format ascii 1.0
element vertex 219
property float x
property float y
property float z
element face 185
property list uchar int vertex_index
end_header
30.472607 42.362617 45.787014
31.050484 54.319225 35.71843
33.356209 53.039417 22.095692
32.290665 56.735413 25.835651
30.73052 48.642803 41.014053
31.432478 59.617039 30.021313
30.606441 61.991219 34.378498
34.69239 48.346947 18.812731
31.753067 51.637165 31.526861
32.082947 60.540768 25.012024
30.590176 45.375763 43.56641
30.861052 44.84491 41.255482
30.720057 41.85854 43.561237
30.600122 38.5765 45.777542
35.257317 50.041592 15.895709
32.921223 50.957901 25.042547
33.51025 48.905571 23.218172
31.240984 57.153038 32.784798
31.613525 55.659618 30.781
31.398861 53.255241 33.482925
33.803638 54.910789 19.138382
33.142883 57.202606 20.944916
32.75444 55.101254 24.041624
32.434551 52.683464 26.861944
30.901291 51.528233 38.291008
31.211794 50.42654 36.1828
31.028534 47.523483 38.832474
31.033939 61.022903 32.072838
30.862011 58.045933 35.092854
30.184278 62.665504 36.47633
30.459419 58.946365 37.316589
30.669638 55.341755 38.067551
30.547527 52.309162 40.659473
30.37373 39.043175 47.926186
34.004265 50.755569 20.384428
34.171375 46.773766 21.424692
31.821188 58.395523 27.964907
31.993425 54.408241 28.768351
32.145844 50.250378 29.468658
31.505018 49.19825 34.233006
31.966012 62.557097 24.443597
32.218001 61.702175 23.408119
32.9921 48.968836 25.451556
32.740683 49.75647 26.385773
33.023701 59.197902 20.34816
33.337095 58.110607 19.448795
32.522553 55.918334 24.938637
32.678573 57.071915 23.403266
32.446686 57.888994 24.300279
30.979047 44.246151 40.252079
30.899256 42.904123 41.321488
30.82019 61.507061 33.225668
30.906559 62.849754 31.725768
30.69281 63.333912 32.878598
29.89969 63.070158 37.598087
29.996634 64.629146 35.994978
30.376528 57.456709 38.787403
30.233109 59.410212 38.33857
30.481638 55.654404 39.162884
30.564529 57.14406 37.69207
30.376528 57.456709 38.787403
30.420583 54.138107 40.458845
30.608582 53.825458 39.363512
30.481638 55.654404 39.162884
30.331266 37.508486 48.847485
30.210938 39.214773 49.060978
30.440123 37.220198 47.809256
30.331266 37.508486 48.847485
35.082575 47.162054 17.95513
35.365038 48.009377 16.49662
34.974854 49.19427 17.35422
34.810035 46.343752 19.238391
35.082575 47.162054 17.95513
33.925748 45.792416 22.724587
33.840812 47.839669 22.321432
33.595186 46.858318 23.621327
34.243473 44.633744 21.937528
33.925748 45.792416 22.724587
31.626833 59.006281 28.99311
31.726635 60.286661 27.505516
31.53228 60.897419 28.533718
31.399688 47.858875 35.495913
31.358406 49.812395 35.207903
31.253076 48.473021 36.47081
32.342827 59.791672 23.888466
32.218001 61.702175 23.408119
32.186806 58.638091 25.423837
32.446686 57.888994 24.300279
32.342827 59.791672 23.888466
30.828758 41.410939 42.474365
30.899256 42.904123 41.321488
30.790554 43.351725 42.40836
30.756835 40.043337 43.515636
30.828758 41.410939 42.474365
30.696867 38.402317 44.623789
30.756835 40.043337 43.515636
30.660089 40.21752 44.669389
30.634581 36.752352 45.645218
30.696867 38.402317 44.623789
30.458892 63.820157 33.984625
30.69281 63.333912 32.878598
35.125039 52.195723 15.1751
35.541565 50.73041 14.426885
34.885677 51.261877 16.682302
35.125039 52.195723 15.1751
34.603214 50.414555 18.140813
34.974854 49.19427 17.35422
34.885677 51.261877 16.682302
33.286614 47.942671 24.539369
33.215736 49.931736 24.130359
32.9921 48.968836 25.451556
33.595186 46.858318 23.621327
33.286614 47.942671 24.539369
33.667473 56.964698 18.545528
34.008865 55.896027 17.65258
33.47326 56.056697 20.041649
33.667473 56.964698 18.545528
33.337095 58.110607 19.448795
32.872795 58.122591 21.854912
33.023701 59.197902 20.34816
32.948662 56.15193 22.49327
32.872795 58.122591 21.854912
32.678573 57.071915 23.403266
32.497347 50.619251 27.295471
32.740683 49.75647 26.385773
32.677887 51.820683 25.952246
31.161447 47.021492 37.795647
31.253076 48.473021 36.47081
31.120164 48.975012 37.507637
31.062788 45.585437 39.040575
30.944793 46.184196 40.043978
30.979047 44.246151 40.252079
31.161447 47.021492 37.795647
31.062788 45.585437 39.040575
31.324088 61.708994 29.483519
31.53228 60.897419 28.533718
31.124818 62.411926 30.509282
30.906559 62.849754 31.725768
31.233208 60.319971 31.047075
31.324088 61.708994 29.483519
31.124818 62.411926 30.509282
30.24781 64.157299 35.033541
29.996634 64.629146 35.994978
30.395359 62.328361 35.427414
30.458892 63.820157 33.984625
30.24781 64.157299 35.033541
30.095538 61.269781 37.91844
29.89969 63.070158 37.598087
30.321849 60.805934 36.896459
30.095538 61.269781 37.91844
30.233109 59.410212 38.33857
30.364291 52.569929 41.747438
30.420583 54.138107 40.458845
30.487114 50.700066 41.927976
30.364291 52.569929 41.747438
30.57861 48.866886 42.105266
30.639024 50.475983 40.836763
30.487114 50.700066 41.927976
30.508439 47.233366 43.381445
30.660348 47.009283 42.290231
30.57861 48.866886 42.105266
30.433343 45.723778 44.641253
30.508439 47.233366 43.381445
30.374558 44.217205 45.751554
30.531391 43.86919 44.676712
30.433343 45.723778 44.641253
30.317203 42.490475 46.930893
30.374558 44.217205 45.751554
30.267765 40.830754 48.000479
30.210938 39.214773 49.060978
30.423168 40.702896 46.8566
30.317203 42.490475 46.930893
30.267765 40.830754 48.000479
30.55332 36.986861 46.734934
30.486926 38.809838 46.851864
30.440123 37.220198 47.809256
30.634581 36.752352 45.645218
30.55332 36.986861 46.734934
35.680716 48.619867 15.098271
35.541565 50.73041 14.426885
35.788437 46.587652 15.699181
35.680716 48.619867 15.098271
35.365038 48.009377 16.49662
34.158838 53.696476 18.303638
34.008865 55.896027 17.65258
34.259152 51.618865 18.926662
34.158838 53.696476 18.303638
33.903951 52.833179 19.761405
34.348327 49.551258 19.598579
34.603214 50.414555 18.140813
34.259152 51.618865 18.926662
34.549528 45.557161 20.544372
34.810035 46.343752 19.238391
34.431883 47.560356 20.118711
34.621626 43.417139 21.057208
34.549528 45.557161 20.544372
34.243473 44.633744 21.937528
31.857515 61.359284 26.029074
31.966012 62.557097 24.443597
31.952067 59.468145 26.488466
31.857515 61.359284 26.029074
31.726635 60.286661 27.505516
32.352993 49.402708 28.598828
32.497347 50.619251 27.295471
32.290197 51.466921 28.165301
31.53989 47.385897 34.460509
31.399688 47.858875 35.495913
31.666496 48.499111 33.260394
31.53989 47.385897 34.460509
31.79052 49.718569 31.907321
31.629043 50.417708 32.879933
31.666496 48.499111 33.260394
31.986909 49.025176 30.87822
31.949455 50.943771 30.49776
31.79052 49.718569 31.907321
32.1835 48.347483 29.839871
31.986909 49.025176 30.87822
32.352993 49.402708 28.598828
32.1835 48.347483 29.839871
3 40 9 41
3 0 12 10
3 0 13 12
3 43 42 15
3 1 19 17
3 44 21 45
3 3 46 48
3 46 22 47
3 46 47 48
3 3 23 22
3 4 26 24
3 50 49 11
3 6 51 53
3 51 27 52
3 51 52 53
3 6 28 27
3 54 29 55
3 56 30 57
3 58 31 59
3 60 59 30
3 58 59 60
3 61 32 62
3 63 62 31
3 61 62 63
3 64 33 65
3 67 66 33
3 7 68 70
3 70 69 14
3 68 69 70
3 7 71 72
3 2 34 20
3 73 35 74
3 75 74 16
3 73 74 75
3 77 76 35
3 5 78 80
3 78 36 79
3 78 79 80
3 8 37 18
3 8 38 37
3 81 39 82
3 83 82 25
3 81 82 83
3 9 84 85
3 9 86 88
3 86 3 87
3 86 87 88
3 10 11 4
3 12 11 10
3 12 89 91
3 91 90 11
3 89 90 91
3 12 92 93
3 13 94 96
3 96 95 12
3 94 95 96
3 13 97 98
3 99 6 100
3 101 14 102
3 103 14 104
3 105 7 106
3 107 106 14
3 105 106 107
3 15 16 2
3 108 16 109
3 110 109 15
3 108 109 110
3 112 111 16
3 17 18 5
3 19 18 17
3 19 8 18
3 113 20 114
3 21 115 117
3 115 20 116
3 115 116 117
3 21 2 20
3 118 21 119
3 22 120 122
3 120 21 121
3 120 121 122
3 22 2 21
3 22 15 2
3 23 15 22
3 23 123 125
3 125 124 15
3 123 124 125
3 24 25 1
3 26 25 24
3 26 126 128
3 128 127 25
3 126 127 128
3 11 26 4
3 129 26 130
3 131 130 11
3 129 130 131
3 133 132 26
3 134 5 135
3 27 136 137
3 27 138 140
3 138 5 139
3 138 139 140
3 27 17 5
3 28 17 27
3 28 1 17
3 29 141 142
3 29 143 145
3 143 6 144
3 143 144 145
3 146 29 147
3 30 148 150
3 148 29 149
3 148 149 150
3 30 6 29
3 30 28 6
3 31 28 30
3 31 1 28
3 31 24 1
3 32 24 31
3 32 4 24
3 151 32 152
3 153 32 154
3 155 4 156
3 157 156 32
3 155 156 157
3 158 10 159
3 160 159 4
3 158 159 160
3 161 10 162
3 163 0 164
3 165 164 10
3 163 164 165
3 166 0 167
3 33 168 169
3 33 170 172
3 170 0 171
3 170 171 172
3 33 13 0
3 173 13 174
3 175 174 33
3 173 174 175
3 177 176 13
3 14 178 179
3 182 181 14
3 180 181 182
3 20 183 184
3 34 185 187
3 187 186 20
3 185 186 187
3 34 188 190
3 188 7 189
3 188 189 190
3 16 34 2
3 35 34 16
3 35 7 34
3 35 191 193
3 193 192 7
3 191 192 193
3 196 195 35
3 194 195 196
3 197 9 198
3 36 199 201
3 199 9 200
3 199 200 201
3 36 3 9
3 18 36 5
3 37 36 18
3 37 3 36
3 37 23 3
3 38 23 37
3 38 202 204
3 204 203 23
3 202 203 204
3 25 19 1
3 39 19 25
3 39 8 19
3 205 39 206
3 207 39 208
3 209 8 210
3 211 210 39
3 209 210 211
3 212 38 213
3 214 213 8
3 212 213 214
3 215 38 216
3 218 217 38
