ply
format ascii 1.0
element vertex 392
property float x
property float y
property float z
element face 310
property list uchar int vertex_index
end_header
-29.774479 -57.993149 31.315214
-31.356112 -36.445007 25.68078
-33.866611 -33.575588 8.662981
-33.599075 -31.688858 -0.23598
-31.064917 -30.862476 28.859095
-32.176178 -35.558521 21.661152
-33.21207 -28.946411 21.177011
-33.860035 -32.84024 4.315682
-30.223713 -52.850487 33.920994
-30.302925 -48.042149 32.147114
-30.411425 -42.904785 30.736109
-30.674793 -36.872692 29.562943
-30.799004 -42.204433 26.575027
-33.804829 -15.400208 24.36441
-33.542397 -34.348831 13.058416
-31.976341 -39.533031 4.897191
-32.637669 -29.472332 23.16316
-33.141235 -25.980898 22.893354
-30.293415 -50.321072 35.040688
-30.262503 -50.666271 32.835613
-30.285158 -47.957752 34.184811
-30.314287 -40.23259 32.025707
-31.282045 -33.626175 27.166016
-30.847628 -33.749233 29.242624
-31.000599 -36.465061 27.701996
-30.769859 -39.570644 28.159216
-33.499241 -12.400336 25.872349
-33.740959 -33.97316 10.878396
-32.976528 -36.975956 8.874529
-32.097927 -39.793953 7.000101
-32.983574 -36.608402 6.775462
-33.770229 -32.265667 1.9798
-32.726215 -35.905838 2.144089
-31.728361 -33.061836 25.321177
-31.757275 -35.869675 23.760973
-32.188328 -32.63118 23.46032
-32.673912 -32.449375 21.348959
-34.771572 -29.964445 8.594901
-33.942795 -33.08746 6.628521
-34.860798 -29.534946 6.429333
-34.825039 -29.214466 4.152539
-30.239628 -50.648235 30.756084
-30.334015 -48.013992 29.931549
-30.274158 -45.449593 33.487556
-30.346823 -45.449844 31.409485
-30.441898 -45.438625 29.255987
-30.514158 -39.822083 30.176548
-30.584259 -42.559952 28.684519
-33.404144 -19.460886 24.329313
-33.62463 -22.282011 22.766977
-33.797836 -25.277775 20.918295
-33.741425 -28.533949 19.220119
-33.581722 -31.609491 17.370806
-33.979107 -31.31171 15.137114
-32.89856 -36.275684 4.531454
-33.284954 -31.16584 -2.566248
-33.042614 -24.456569 23.753158
-32.822322 -26.131335 23.905708
-30.284787 -49.157437 35.66428
-30.304066 -50.266718 36.138475
-30.280659 -47.975776 35.236342
-30.289286 -49.139412 34.61275
-30.284787 -49.157437 35.66428
-29.603146 -59.22896 30.728717
-29.504803 -60.329794 31.293591
-29.676136 -59.093983 31.880088
-30.22332 -38.956435 32.746824
-30.22483 -40.317656 33.049413
-31.200926 -37.889373 25.936144
-31.02317 -37.8994 26.946752
-31.178356 -36.455034 26.691388
-31.354805 -37.809084 24.881115
-31.200926 -37.889373 25.936144
-33.803785 -33.774374 9.770689
-34.144008 -32.289462 10.817301
-34.206834 -32.090676 9.709594
-33.070444 -33.499018 -0.179364
-33.156021 -33.787422 0.928527
-33.684652 -31.977263 0.87191
-32.9818 -33.089346 -1.236295
-33.070444 -33.499018 -0.179364
-31.912736 -31.423599 25.21304
-31.644071 -31.735835 26.146582
-32.142719 -31.208271 24.282611
-31.958344 -32.846508 24.390749
-31.912736 -31.423599 25.21304
-33.171054 -30.519686 20.280741
-32.901975 -32.271168 20.366715
-32.942991 -30.697893 21.262985
-35.17402 -28.261419 8.49838
-35.086188 -28.383562 9.67162
-35.218634 -28.04667 7.415596
-34.816185 -29.749696 7.512117
-35.17402 -28.261419 8.49838
-35.244837 -27.488416 3.965944
-35.253588 -27.674461 5.146492
-34.78928 -28.914196 2.968704
-35.244837 -27.488416 3.965944
-30.187146 -53.959231 34.436889
-30.21576 -53.775923 35.493689
-30.252327 -52.667179 34.977793
-30.140809 -54.065781 33.257574
-30.104242 -55.174525 33.77347
-30.187146 -53.959231 34.436889
-30.18753 -52.971187 32.754236
-30.140809 -54.065781 33.257574
-30.221026 -44.263487 34.138669
-30.247254 -45.529572 34.5291
-30.379124 -44.177314 31.072797
-30.309807 -44.089993 32.094623
-30.342108 -42.817463 31.757935
-30.846308 -30.975278 29.785982
-30.949933 -29.363002 29.59314
-30.572486 -35.493672 30.362687
-30.658904 -33.931942 30.202528
-30.761211 -35.310963 29.402783
-30.522734 -37.037534 30.573452
-30.572486 -35.493672 30.362687
-30.594476 -38.347387 29.869746
-30.442416 -38.51223 30.880254
-30.522734 -37.037534 30.573452
-30.681362 -43.710136 26.873978
-30.57399 -43.887895 27.928725
-30.691631 -42.382193 27.629773
-30.748949 -43.634946 25.805954
-30.681362 -43.710136 26.873978
-31.924948 -37.193914 21.859197
-31.715496 -37.349491 22.909107
-31.966727 -35.714098 22.711063
-33.430396 -15.83444 25.238003
-33.277602 -14.334504 25.991973
-33.652035 -13.900272 25.118379
-33.604487 -17.430547 24.346861
-33.230053 -17.864779 25.220455
-33.430396 -15.83444 25.238003
-33.974921 -22.015165 21.757515
-33.889975 -20.355254 22.644877
-34.061523 -23.513047 20.833174
-33.711233 -23.779893 21.842636
-33.974921 -22.015165 21.757515
-33.988838 -28.418249 18.138587
-34.062269 -26.77404 19.039079
-33.908987 -29.95602 17.213931
-33.661574 -30.07172 18.295462
-33.988838 -28.418249 18.138587
-33.760752 -32.83027 14.097765
-34.149161 -31.10761 14.032523
-33.930806 -32.62617 12.993174
-33.404074 -34.535206 14.164943
-33.622429 -33.016646 15.204293
-33.760752 -32.83027 14.097765
-33.153586 -36.013803 13.169873
-33.404074 -34.535206 14.164943
-31.516628 -41.127689 5.031816
-31.577421 -41.25815 6.08327
-32.037134 -39.663492 5.948646
-31.4539 -40.818127 3.893965
-31.516628 -41.127689 5.031816
-32.274581 -37.491672 2.364574
-32.159053 -37.229286 1.170283
-33.074599 -30.964796 -3.648686
-33.730104 -29.473486 -2.717899
-32.607408 -32.653879 -3.500317
-33.074599 -30.964796 -3.648686
-32.57054 -27.877053 24.040611
-32.36739 -29.628847 24.134031
-32.889452 -27.726615 23.028257
-32.57054 -27.877053 24.040611
-32.822322 -26.131335 23.905708
-30.287178 -51.402472 35.53764
-30.297829 -51.348118 36.635428
-30.304066 -50.266718 36.138475
-30.258564 -51.58578 34.480841
-30.252327 -52.667179 34.977793
-30.287178 -51.402472 35.53764
-30.293539 -41.481366 32.402734
-30.22483 -40.317656 33.049413
-30.362856 -41.568687 31.380908
-30.342108 -42.817463 31.757935
-30.293539 -41.481366 32.402734
-30.907799 -39.452192 27.175362
-30.885229 -38.017853 27.930606
-31.02317 -37.8994 26.946752
-30.922372 -40.769087 26.383267
-30.784432 -40.887539 27.367121
-30.907799 -39.452192 27.175362
-30.905403 -42.186302 25.512833
-30.922372 -40.769087 26.383267
-32.079893 -37.09906 20.787768
-32.368864 -35.526826 20.549926
-33.695591 -10.42654 25.802775
-33.282625 -10.834014 26.740757
-33.899309 -12.045165 24.939101
-33.695591 -10.42654 25.802775
-34.052103 -13.545101 24.185132
-33.652035 -13.900272 25.118379
-33.899309 -12.045165 24.939101
-34.030086 -32.438334 11.903164
-34.144008 -32.289462 10.817301
-33.641678 -34.160995 11.968406
-33.930806 -32.62617 12.993174
-34.030086 -32.438334 11.903164
-33.322437 -35.6558 10.985119
-33.223156 -35.843635 12.075129
-33.641678 -34.160995 11.968406
-32.940221 -37.157198 9.983186
-33.322437 -35.6558 10.985119
-33.358744 -35.474558 9.876463
-32.540155 -38.611707 8.993801
-32.940221 -37.157198 9.983186
-32.537228 -38.384954 7.937315
-32.100855 -40.020706 8.056587
-32.540155 -38.611707 8.993801
-32.634014 -35.607507 1.010671
-33.248222 -34.085752 2.061945
-33.156021 -33.787422 0.928527
-32.159053 -37.229286 1.170283
-32.634014 -35.607507 1.010671
-29.713374 -58.004258 30.149223
-29.853493 -56.834671 30.790044
-31.201502 -29.268048 28.682111
-30.949933 -29.363002 29.59314
-31.312349 -30.636155 27.915541
-31.201502 -29.268048 28.682111
-31.420913 -32.018005 27.069001
-31.173481 -32.244326 28.012555
-31.312349 -30.636155 27.915541
-31.505203 -33.344006 26.243596
-31.420913 -32.018005 27.069001
-31.644071 -31.735835 26.146582
-32.412999 -31.051756 23.31174
-32.142719 -31.208271 24.282611
-32.36739 -29.628847 24.134031
-32.617731 -33.972254 20.39383
-32.368864 -35.526826 20.549926
-32.425045 -34.003948 21.505056
-32.617731 -33.972254 20.39383
-32.901975 -32.271168 20.366715
-34.659315 -30.285105 9.675554
-35.086188 -28.383562 9.67162
-34.319091 -31.770017 8.628941
-34.206834 -32.090676 9.709594
-34.659315 -30.285105 9.675554
-35.271467 -27.834701 6.28489
-35.218634 -28.04667 7.415596
-34.842918 -29.374706 5.290936
-35.271467 -27.834701 6.28489
-35.253588 -27.674461 5.146492
-34.261875 -30.439796 1.882334
-34.297634 -30.740067 3.066169
-34.78928 -28.914196 2.968704
-34.176298 -30.151392 0.774444
-33.684652 -31.977263 0.87191
-34.261875 -30.439796 1.882334
-29.845329 -57.781025 32.480622
-29.676136 -59.093983 31.880088
-29.916192 -56.637112 31.954684
-29.845329 -57.781025 32.480622
-29.987042 -56.424988 33.120092
-29.853493 -56.834671 30.790044
-29.916192 -56.637112 31.954684
-30.206924 -51.87908 32.211545
-30.18753 -52.971187 32.754236
-30.243108 -51.758379 33.378304
-30.195487 -51.870061 31.171781
-30.206924 -51.87908 32.211545
-30.251065 -50.657253 31.795849
-30.159613 -51.909763 30.018079
-30.195487 -51.870061 31.171781
-30.237682 -50.535643 29.647992
-30.159613 -51.909763 30.018079
-30.284875 -49.218521 29.235724
-30.237682 -50.535643 29.647992
-30.286822 -49.331114 30.343817
-30.360315 -47.93648 28.835395
-30.284875 -49.218521 29.235724
-29.603146 -59.22896 30.728717
-29.713374 -58.004258 30.149223
-30.252754 -46.783651 34.877728
-30.280659 -47.975776 35.236342
-30.279658 -46.703672 33.836184
-30.252754 -46.783651 34.877728
-30.247254 -45.529572 34.5291
-30.273474 -44.089867 33.133659
-30.221026 -44.263487 34.138669
-30.310491 -45.449719 32.448521
-30.273474 -44.089867 33.133659
-30.309807 -44.089993 32.094623
-30.414257 -46.648796 28.497614
-30.360315 -47.93648 28.835395
-30.387957 -46.726309 29.593768
-30.737664 -32.418656 29.977747
-30.846308 -30.975278 29.785982
-30.956273 -32.305854 29.05086
-30.737664 -32.418656 29.977747
-30.658904 -33.931942 30.202528
-30.342481 -38.717484 31.804834
-30.22332 -38.956435 32.746824
-30.414223 -40.027337 31.101127
-30.342481 -38.717484 31.804834
-30.442416 -38.51223 30.880254
-30.502809 -45.327232 28.214458
-30.513078 -43.999289 28.970253
-30.57399 -43.887895 27.928725
-30.414257 -46.648796 28.497614
-30.502809 -45.327232 28.214458
-30.748949 -43.634946 25.805954
-30.905403 -42.186302 25.512833
-31.555386 -37.521418 23.921212
-31.354805 -37.809084 24.881115
-31.556694 -36.157341 24.720876
-31.555386 -37.521418 23.921212
-31.715496 -37.349491 22.909107
-31.924948 -37.193914 21.859197
-32.079893 -37.09906 20.787768
-33.116911 -12.811372 26.752486
-33.282625 -10.834014 26.740757
-33.116911 -12.811372 26.752486
-33.277602 -14.334504 25.991973
-33.046312 -19.554284 25.299822
-33.230053 -17.864779 25.220455
-33.174069 -21.196563 24.471138
-33.046312 -19.554284 25.299822
-34.201622 -15.176521 23.361232
-34.052103 -13.545101 24.185132
-33.980074 -16.914352 23.443594
-34.201622 -15.176521 23.361232
-33.779731 -18.944691 23.426046
-33.604487 -17.430547 24.346861
-33.980074 -16.914352 23.443594
-33.514387 -20.871448 23.548145
-33.779731 -18.944691 23.426046
-33.889975 -20.355254 22.644877
-33.284312 -22.607126 23.68997
-33.174069 -21.196563 24.471138
-33.514387 -20.871448 23.548145
-33.382933 -24.131455 22.830165
-33.042614 -24.456569 23.753158
-33.284312 -22.607126 23.68997
-34.090475 -25.145953 19.888168
-34.061523 -23.513047 20.833174
-33.76963 -26.905862 20.069207
-34.090475 -25.145953 19.888168
-34.062269 -26.77404 19.039079
-33.435732 -30.313454 19.302295
-33.171054 -30.519686 20.280741
-33.476748 -28.74018 20.198565
-33.35588 -31.851225 18.377639
-33.435732 -30.313454 19.302295
-33.661574 -30.07172 18.295462
-33.268946 -33.292108 17.380311
-33.35588 -31.851225 18.377639
-34.347952 -29.531331 15.013611
-34.149161 -31.10761 14.032523
-34.10768 -29.80713 16.097085
-34.347952 -29.531331 15.013611
-33.780414 -31.4606 16.25396
-33.908987 -29.95602 17.213931
-34.10768 -29.80713 16.097085
-33.423737 -33.165536 16.321138
-33.780414 -31.4606 16.25396
-33.622429 -33.016646 15.204293
-33.268946 -33.292108 17.380311
-33.423737 -33.165536 16.321138
-33.153586 -36.013803 13.169873
-33.223156 -35.843635 12.075129
-31.657208 -41.378218 7.13844
-31.660137 -41.604971 8.194926
-32.100855 -40.020706 8.056587
-31.657208 -41.378218 7.13844
-31.577421 -41.25815 6.08327
-32.360754 -37.676595 3.558257
-32.812387 -36.090761 3.337772
-32.274581 -37.491672 2.364574
-31.899644 -39.305269 3.741125
-32.437451 -37.904358 4.714322
-32.360754 -37.676595 3.558257
-31.377203 -40.590364 2.737899
-31.4539 -40.818127 3.893965
-31.899644 -39.305269 3.741125
-34.072355 -29.931824 -0.33904
-34.176298 -30.151392 0.774444
-33.915295 -29.670314 -1.504174
-33.730104 -29.473486 -2.717899
-33.442014 -31.427349 -1.401114
-34.072355 -29.931824 -0.33904
-33.915295 -29.670314 -1.504174
-32.824739 -32.827837 -2.401429
-32.9818 -33.089346 -1.236295
-33.442014 -31.427349 -1.401114
-32.824739 -32.827837 -2.401429
-32.607408 -32.653879 -3.500317
3 56 17 57
3 58 18 59
3 60 20 61
3 62 61 18
3 60 61 62
3 0 63 65
3 63 64 65
3 66 21 67
3 1 24 22
3 1 68 70
3 70 69 24
3 68 69 70
3 1 71 72
3 2 73 75
3 73 27 74
3 73 74 75
3 2 28 27
3 2 30 28
3 3 76 78
3 78 77 31
3 76 77 78
3 3 79 80
3 81 33 82
3 83 35 84
3 85 84 33
3 83 84 85
3 6 36 16
3 6 86 88
3 88 87 36
3 86 87 88
3 89 37 90
3 91 39 92
3 93 92 37
3 91 92 93
3 94 40 95
3 97 96 40
3 8 98 100
3 98 99 100
3 8 101 103
3 101 102 103
3 8 104 105
3 9 41 19
3 9 42 41
3 106 43 107
3 10 108 110
3 108 44 109
3 108 109 110
3 10 45 44
3 4 111 112
3 11 113 115
3 115 114 23
3 113 114 115
3 11 116 117
3 11 118 120
3 118 46 119
3 118 119 120
3 12 47 25
3 12 121 123
3 123 122 47
3 121 122 123
3 12 124 125
3 5 126 128
3 128 127 34
3 126 127 128
3 13 129 131
3 131 130 26
3 129 130 131
3 13 132 134
3 132 48 133
3 132 133 134
3 135 49 136
3 137 50 138
3 139 138 49
3 137 138 139
3 140 51 141
3 142 52 143
3 144 143 51
3 142 143 144
3 14 145 147
3 145 53 146
3 145 146 147
3 14 148 150
3 150 149 53
3 148 149 150
3 14 151 152
3 15 153 155
3 155 154 29
3 153 154 155
3 15 156 157
3 7 54 38
3 159 158 32
3 160 55 161
3 163 162 55
3 164 16 165
3 17 166 168
3 166 16 167
3 166 167 168
3 17 6 16
3 18 169 171
3 169 170 171
3 18 172 174
3 172 8 173
3 172 173 174
3 18 19 8
3 20 19 18
3 20 9 19
3 21 175 176
3 21 177 179
3 177 10 178
3 177 178 179
3 22 23 4
3 24 23 22
3 24 11 23
3 24 25 11
3 180 25 181
3 182 181 24
3 180 181 182
3 183 12 184
3 185 184 25
3 183 184 185
3 187 186 12
3 189 188 5
3 190 26 191
3 192 26 193
3 194 13 195
3 196 195 26
3 194 195 196
3 27 197 198
3 27 199 201
3 199 14 200
3 199 200 201
3 27 202 204
3 204 203 14
3 202 203 204
3 28 205 207
3 207 206 27
3 205 206 207
3 28 208 209
3 28 210 212
3 210 29 211
3 210 211 212
3 30 29 28
3 30 15 29
3 31 32 7
3 213 32 214
3 215 214 31
3 213 214 215
3 217 216 32
3 219 218 0
3 220 4 221
3 222 4 223
3 224 22 225
3 226 225 4
3 224 225 226
3 33 227 229
3 227 22 228
3 227 228 229
3 33 1 22
3 33 34 1
3 35 34 33
3 35 5 34
3 16 230 232
3 230 35 231
3 230 231 232
3 36 35 16
3 36 5 35
3 36 233 235
3 235 234 5
3 233 234 235
3 237 236 36
3 37 238 239
3 37 240 242
3 240 2 241
3 240 241 242
3 37 38 2
3 39 38 37
3 39 7 38
3 243 39 244
3 40 245 247
3 245 39 246
3 245 246 247
3 40 7 39
3 40 31 7
3 248 31 249
3 250 249 40
3 248 249 250
3 251 3 252
3 253 252 31
3 251 252 253
3 254 0 255
3 256 0 257
3 256 257 258
3 260 259 0
3 19 261 263
3 263 262 8
3 261 262 263
3 41 264 266
3 266 265 19
3 264 265 266
3 41 267 268
3 41 269 270
3 42 271 273
3 273 272 41
3 271 272 273
3 42 274 275
3 277 276 0
3 278 20 279
3 43 280 282
3 280 20 281
3 280 281 282
3 43 9 20
3 283 43 284
3 44 285 287
3 285 43 286
3 285 286 287
3 44 9 43
3 44 42 9
3 45 42 44
3 45 288 290
3 290 289 42
3 288 289 290
3 23 291 293
3 293 292 4
3 291 292 293
3 295 294 23
3 296 21 297
3 46 298 300
3 298 21 299
3 298 299 300
3 46 10 21
3 25 46 11
3 47 46 25
3 47 10 46
3 47 45 10
3 301 45 302
3 303 302 47
3 301 302 303
3 305 304 45
3 307 306 12
3 34 308 310
3 310 309 1
3 308 309 310
3 312 311 34
3 314 313 5
3 26 315 316
3 318 317 26
3 48 319 320
3 48 321 322
3 323 13 324
3 325 13 326
3 327 48 328
3 329 328 13
3 327 328 329
3 49 330 332
3 330 48 331
3 330 331 332
3 49 333 335
3 335 334 48
3 333 334 335
3 49 336 338
3 336 17 337
3 336 337 338
3 50 17 49
3 50 6 17
3 339 50 340
3 51 341 343
3 341 50 342
3 341 342 343
3 51 6 50
3 51 344 346
3 346 345 6
3 344 345 346
3 52 347 349
3 349 348 51
3 347 348 349
3 52 350 351
3 53 352 353
3 53 354 355
3 53 356 358
3 356 52 357
3 356 357 358
3 359 52 360
3 361 360 53
3 359 360 361
3 363 362 52
3 365 364 14
3 29 366 368
3 366 367 368
3 370 369 29
3 38 30 2
3 54 30 38
3 54 15 30
3 32 54 7
3 371 54 372
3 373 372 32
3 371 372 373
3 374 15 375
3 376 375 54
3 374 375 376
3 379 378 15
3 377 378 379
3 380 3 381
3 55 382 383
3 55 384 386
3 384 3 385
3 384 385 386
3 55 387 389
3 389 388 3
3 387 388 389
3 391 390 55
