ply
format ascii 1.0
element vertex 237
property float x
property float y
property float z
element face 201
property list uchar int vertex_index
end_header
16.068132 -40.252865 -53.615582
21.987591 -46.646782 -50.853413
10.959805 -31.836931 -55.518749
19.035744 -43.696529 -52.434822
23.585749 -37.930248 -53.811813
20.670744 -34.879635 -55.424686
17.777033 -31.291735 -56.784306
22.88903 -57.499294 -45.882118
24.780582 -49.137985 -48.799194
26.598454 -40.485027 -51.795784
28.563442 -47.008072 -47.655571
17.474382 -42.163548 -53.025089
19.749537 -39.361832 -53.879433
18.372089 -37.687775 -54.528343
19.111776 -33.531048 -55.993645
16.889463 -35.846832 -55.13018
21.752913 -61.467236 -44.564247
21.207172 -56.640972 -47.092377
14.310564 -31.876041 -56.226074
12.971775 -29.731743 -56.721954
23.248127 -48.191212 -49.844685
25.695551 -44.89365 -50.263573
24.275347 -43.633789 -51.353214
11.817808 -27.253681 -57.324623
20.384369 -45.476707 -51.637829
22.72595 -42.260281 -52.346973
21.284252 -40.844341 -53.166439
21.971169 -36.479103 -54.676167
24.296722 -58.050072 -44.721325
26.203585 -50.21788 -47.537449
23.775311 -53.606384 -47.255119
22.342728 -52.340801 -48.458328
20.789097 -51.141479 -49.461407
18.349556 -54.115433 -48.961815
19.311781 -49.985107 -50.228905
17.920269 -48.198322 -51.028065
16.504154 -46.522827 -51.641525
15.112739 -44.835297 -52.132511
14.77583 -38.104649 -54.203793
15.605727 -33.777695 -55.739498
16.272509 -29.468578 -57.336975
13.692744 -25.160751 -58.527248
27.282223 -46.018707 -48.951443
27.968506 -41.832039 -50.542313
28.156083 -48.921158 -46.926859
29.304104 -47.234656 -46.957638
10.499558 -33.981732 -54.709297
9.974601 -32.733605 -54.934343
11.554272 -33.016234 -55.27975
10.499558 -33.981732 -54.709297
11.96579 -30.784337 -56.120351
12.560257 -31.963641 -55.881353
11.554272 -33.016234 -55.27975
21.729487 -33.45829 -55.834606
22.3797 -34.258024 -55.460346
21.320957 -35.679369 -55.050427
20.940295 -32.782719 -56.190155
21.729487 -33.45829 -55.834606
18.788149 -30.166289 -57.218146
19.45552 -31.285946 -56.822815
18.444404 -32.411392 -56.388976
18.038505 -29.14136 -57.6001
18.788149 -30.166289 -57.218146
24.151608 -55.729725 -46.013643
24.855454 -56.005114 -45.433246
23.592876 -57.774683 -45.301721
23.332171 -55.552839 -46.568618
24.594749 -53.78327 -46.700143
24.151608 -55.729725 -46.013643
21.080592 -53.922196 -48.263784
21.77495 -54.490887 -47.775352
20.512814 -56.072281 -47.580809
20.303776 -53.322535 -48.765324
21.565913 -51.74114 -48.959868
21.080592 -53.922196 -48.263784
17.570782 -53.345559 -49.343052
17.035356 -55.499704 -48.720794
18.051895 -51.280395 -49.976597
18.830669 -52.05027 -49.59536
17.570782 -53.345559 -49.343052
17.356139 -50.387003 -50.376177
18.616025 -49.091714 -50.628485
18.051895 -51.280395 -49.976597
15.23715 -47.912088 -51.203975
15.978408 -48.69911 -50.987472
14.541442 -47.068323 -51.449469
15.808446 -45.679062 -51.887018
15.23715 -47.912088 -51.203975
14.070355 -37.228247 -54.390303
13.660098 -39.423483 -53.638859
14.485303 -35.06477 -55.158155
15.190779 -35.941172 -54.971645
14.070355 -37.228247 -54.390303
15.614926 -28.365144 -57.656025
15.291536 -30.67231 -56.781525
14.633954 -29.568876 -57.100574
16.622353 -27.398725 -58.147604
15.614926 -28.365144 -57.656025
13.052487 -24.103051 -58.782452
12.755276 -26.207216 -57.925936
12.115018 -25.149516 -58.181139
27.685313 -38.986477 -51.950599
28.37034 -39.659982 -51.323864
27.28348 -41.158533 -51.169049
24.353331 -38.689725 -53.295446
23.923431 -40.854742 -52.563026
23.15585 -40.095264 -53.079393
29.661566 -45.315475 -47.735632
29.304104 -47.234656 -46.957638
29.032863 -44.822218 -48.452853
29.661566 -45.315475 -47.735632
20.470693 -63.017275 -44.513592
21.207912 -63.337882 -43.916309
21.030826 -61.024838 -45.161926
20.470693 -63.017275 -44.513592
21.598885 -59.040866 -45.820861
22.320971 -59.483265 -45.223183
21.030826 -61.024838 -45.161926
20.757956 -58.611705 -46.425991
22.048101 -57.070133 -46.487247
21.598885 -59.040866 -45.820861
19.929524 -58.158661 -46.95089
20.757956 -58.611705 -46.425991
20.512814 -56.072281 -47.580809
19.929524 -58.158661 -46.95089
13.229652 -33.035789 -55.633413
13.837722 -34.113943 -55.401443
13.64117 -30.803892 -56.474014
13.229652 -33.035789 -55.633413
12.560257 -31.963641 -55.881353
13.964559 -28.496727 -57.348514
14.633954 -29.568876 -57.100574
13.64117 -30.803892 -56.474014
24.724792 -36.441114 -54.094801
23.909599 -35.776032 -54.580118
10.419672 -30.446805 -55.826866
9.974601 -32.733605 -54.934343
10.848674 -28.15518 -56.729803
11.388806 -29.545306 -56.421686
10.419672 -30.446805 -55.826866
11.235969 -26.00986 -57.614328
10.848674 -28.15518 -56.729803
12.115018 -25.149516 -58.181139
11.235969 -26.00986 -57.614328
23.10231 -35.050459 -55.012295
23.909599 -35.776032 -54.580118
22.778459 -37.204676 -54.24399
23.10231 -35.050459 -55.012295
22.3797 -34.258024 -55.460346
20.160811 -32.108425 -56.474635
20.940295 -32.782719 -56.190155
19.89126 -34.205342 -55.709165
20.160811 -32.108425 -56.474635
19.45552 -31.285946 -56.822815
22.451926 -61.694129 -43.962593
21.207912 -63.337882 -43.916309
23.723831 -59.985546 -44.041132
22.451926 -61.694129 -43.962593
23.024817 -59.758654 -44.642786
24.980602 -58.360834 -43.998892
23.723831 -59.985546 -44.041132
25.472359 -56.471052 -44.736182
24.980602 -58.360834 -43.998892
25.472359 -56.471052 -44.736182
24.855454 -56.005114 -45.433246
25.808886 -52.089017 -46.841308
26.976154 -50.526062 -46.867798
24.989448 -51.912132 -47.396284
25.808886 -52.089017 -46.841308
24.594749 -53.78327 -46.700143
17.776516 -56.18046 -48.360338
17.035356 -55.499704 -48.720794
19.084005 -54.809511 -48.515528
18.510965 -56.874538 -47.914051
17.776516 -56.18046 -48.360338
19.569327 -52.628456 -49.211611
20.303776 -53.322535 -48.765324
19.084005 -54.809511 -48.515528
16.686466 -49.536857 -50.680742
17.356139 -50.387003 -50.376177
17.212212 -47.360574 -51.334795
16.686466 -49.536857 -50.680742
15.978408 -48.69911 -50.987472
13.875535 -46.168549 -51.644504
14.541442 -47.068323 -51.449469
14.455868 -43.738031 -52.407431
13.875535 -46.168549 -51.644504
14.933565 -41.446815 -53.148966
15.590435 -42.544081 -52.874047
14.455868 -43.738031 -52.407431
14.287414 -40.372708 -53.443072
13.660098 -39.423483 -53.638859
15.421981 -39.178757 -53.909688
14.933565 -41.446815 -53.148966
14.287414 -40.372708 -53.443072
14.958146 -32.826868 -55.982786
14.485303 -35.06477 -55.158155
13.837722 -34.113943 -55.401443
17.286243 -28.229782 -57.876435
18.038505 -29.14136 -57.6001
17.024771 -30.380156 -57.060641
17.286243 -28.229782 -57.876435
16.622353 -27.398725 -58.147604
14.325043 -26.211231 -58.251161
13.964559 -28.496727 -57.348514
13.332259 -27.446247 -57.624601
13.947644 -23.103184 -59.369194
13.052487 -24.103051 -58.782452
14.631845 -24.201215 -59.057844
13.947644 -23.103184 -59.369194
14.325043 -26.211231 -58.251161
14.631845 -24.201215 -59.057844
27.383513 -48.612976 -47.59651
28.156083 -48.921158 -46.926859
26.976154 -50.526062 -46.867798
28.392254 -44.327535 -49.100789
29.032863 -44.822218 -48.452853
27.922832 -46.51339 -48.303507
28.735396 -42.234201 -49.896224
28.392254 -44.327535 -49.100789
27.625364 -43.925373 -49.746878
29.077292 -40.191792 -50.673474
28.735396 -42.234201 -49.896224
29.077292 -40.191792 -50.673474
28.37034 -39.659982 -51.323864
24.69813 -41.541496 -52.066147
23.500649 -42.947035 -51.850093
23.923431 -40.854742 -52.563026
25.859684 -39.967115 -52.287431
25.436901 -42.059408 -51.574499
24.69813 -41.541496 -52.066147
24.353331 -38.689725 -53.295446
24.724792 -36.441114 -54.094801
26.991971 -38.293087 -52.571926
25.859684 -39.967115 -52.287431
27.685313 -38.986477 -51.950599
26.991971 -38.293087 -52.571926
3 44 10 45
3 0 13 11
3 0 15 13
3 2 46 47
3 2 48 49
3 2 50 52
3 50 19 51
3 50 51 52
3 1 22 20
3 3 26 24
3 5 27 12
3 5 53 55
3 55 54 27
3 53 54 55
3 5 56 57
3 6 58 60
3 60 59 14
3 58 59 60
3 6 61 62
3 7 28 16
3 7 63 65
3 65 64 28
3 63 64 65
3 7 66 68
3 66 30 67
3 66 67 68
3 69 31 70
3 71 70 17
3 69 70 71
3 72 32 73
3 74 73 31
3 72 73 74
3 75 33 76
3 77 34 78
3 79 78 33
3 77 78 79
3 80 35 81
3 82 81 34
3 80 81 82
3 83 36 84
3 85 37 86
3 87 86 36
3 85 86 87
3 88 38 89
3 90 39 91
3 92 91 38
3 90 91 92
3 93 40 94
3 95 94 18
3 93 94 95
3 97 96 40
3 98 41 99
3 100 99 23
3 98 99 100
3 8 42 29
3 9 43 21
3 9 101 103
3 103 102 43
3 101 102 103
3 4 104 106
3 106 105 25
3 104 105 106
3 10 107 108
3 10 109 110
3 11 12 3
3 13 12 11
3 13 5 12
3 13 14 5
3 15 14 13
3 15 6 14
3 111 16 112
3 113 16 114
3 115 7 116
3 117 116 16
3 115 116 117
3 118 17 119
3 120 119 7
3 118 119 120
3 121 17 122
3 124 123 17
3 125 18 126
3 19 127 129
3 127 18 128
3 127 128 129
3 19 130 132
3 132 131 18
3 130 131 132
3 20 21 8
3 22 21 20
3 22 9 21
3 134 133 4
3 135 2 136
3 137 23 138
3 139 138 2
3 137 138 139
3 140 23 141
3 143 142 23
3 24 25 1
3 26 25 24
3 26 4 25
3 12 26 3
3 27 26 12
3 27 4 26
3 27 144 146
3 146 145 4
3 144 145 146
3 148 147 27
3 14 149 151
3 151 150 5
3 149 150 151
3 153 152 14
3 16 154 155
3 28 156 158
3 158 157 16
3 156 157 158
3 28 159 160
3 28 161 162
3 164 163 28
3 165 29 166
3 30 167 169
3 167 29 168
3 167 168 169
3 30 8 29
3 17 30 7
3 31 30 17
3 31 8 30
3 31 20 8
3 32 20 31
3 32 1 20
3 33 170 171
3 33 172 174
3 172 173 174
3 33 175 177
3 175 32 176
3 175 176 177
3 34 32 33
3 34 1 32
3 34 24 1
3 35 24 34
3 35 3 24
3 178 35 179
3 36 180 182
3 180 35 181
3 180 181 182
3 36 3 35
3 36 11 3
3 37 11 36
3 37 0 11
3 183 37 184
3 185 37 186
3 187 0 188
3 189 188 37
3 187 188 189
3 38 190 191
3 38 192 194
3 192 0 193
3 192 193 194
3 38 15 0
3 39 15 38
3 39 6 15
3 18 195 197
3 195 39 196
3 195 196 197
3 40 39 18
3 40 6 39
3 40 198 200
3 200 199 6
3 198 199 200
3 202 201 40
3 23 19 2
3 41 19 23
3 41 203 205
3 205 204 19
3 203 204 205
3 206 41 207
3 208 41 209
3 211 210 41
3 29 212 214
3 212 10 213
3 212 213 214
3 42 10 29
3 42 215 217
3 217 216 10
3 215 216 217
3 21 42 8
3 43 42 21
3 43 218 220
3 220 219 42
3 218 219 220
3 43 221 222
3 224 223 43
3 25 22 1
3 225 22 226
3 227 226 25
3 225 226 227
3 228 9 229
3 230 229 22
3 228 229 230
3 232 231 4
3 233 9 234
3 236 235 9
