ply
format ascii 1.0
element vertex 312
property float x
property float y
property float z
element face 267
property list uchar int vertex_index
end_header
19.849127 12.642424 41.263847
23.421862 -1.185511 40.966125
13.381823 11.506841 48.180542
29.656876 -0.929178 34.987762
18.452728 16.502609 41.912357
20.002111 21.151148 38.775917
26.498531 -0.97583 38.003254
16.661121 12.050678 44.85001
17.722254 8.388598 44.521973
15.161995 16.227093 45.473431
18.686041 4.940249 44.289268
19.480726 1.623837 44.240585
19.237617 14.501828 41.510559
20.019526 16.836351 40.011192
9.043322 13.14187 51.592609
24.602613 0.885098 39.363281
26.225416 0.931722 37.791096
24.95903 -0.886121 39.440849
23.773121 -2.87259 40.909908
22.292339 3.888329 40.844131
15.070654 11.775023 46.512337
15.587392 9.754637 46.408546
12.609189 13.524481 48.478184
13.523847 16.053577 47.09808
14.29453 13.810588 46.846004
15.996037 14.121001 45.09412
29.288834 1.052956 34.80233
16.543566 6.086507 46.210934
18.18248 6.602326 44.434826
17.135336 4.547993 45.947712
17.842653 1.11609 45.967667
18.226143 -0.52492 45.902729
19.886358 0.08545 44.162067
17.658449 18.848171 42.211292
18.51251 21.060041 40.624077
19.239531 18.85811 40.386333
11.60829 11.253731 49.831478
10.889793 13.253638 50.043564
27.726336 0.981255 36.338299
28.114815 -0.928543 36.462654
26.839256 -2.772601 38.027786
15.972477 2.488223 47.516602
23.106689 0.621101 40.879665
18.282232 12.346998 43.067879
18.876719 10.54535 42.82399
17.253719 10.149956 44.63295
16.083881 7.911573 46.288261
16.040092 18.69405 44.000706
16.856541 16.427034 43.678532
17.639158 14.303818 43.32756
19.294487 8.640429 42.803822
19.871277 6.960163 42.579494
20.268991 5.321519 42.559635
17.59123 2.956328 45.833019
19.118042 3.285 44.227787
20.65613 3.646386 42.578899
21.095795 2.05522 42.526318
21.479025 0.375277 42.533253
21.922323 -1.253218 42.423927
20.142694 11.699423 41.160282
20.574898 12.776986 40.397008
20.326589 13.762316 40.431045
20.020834 14.692018 40.554401
19.543372 13.572126 41.387203
20.574898 12.776986 40.397008
20.326589 13.762316 40.431045
22.051272 4.718528 40.867752
22.81406 4.928603 40.009777
13.636214 10.507201 48.13846
14.480629 10.641292 47.304358
14.226239 11.640932 47.34644
30.187077 -0.08009 34.229555
30.003056 0.910977 34.136839
29.472855 0.061889 34.895046
30.406842 -1.034847 34.277744
30.187077 -0.08009 34.229555
29.768166 -1.993951 35.117143
30.406842 -1.034847 34.277744
16.273291 4.277248 46.848286
16.839451 5.31725 46.079323
15.977406 5.046506 46.979897
17.588498 -1.548203 46.674183
17.432477 -0.725742 46.703163
18.444704 -1.287129 45.813198
17.588498 -1.548203 46.674183
20.453882 17.956761 39.159786
20.817121 16.906764 39.022138
11.052881 10.172399 50.522228
10.72616 11.144081 50.604564
10.366912 12.144035 50.710608
9.966558 13.197754 50.818087
9.443676 12.088151 51.48513
10.72616 11.144081 50.604564
11.249042 12.253685 49.937521
10.366912 12.144035 50.710608
22.853672 1.404792 40.933638
23.686548 1.626973 40.047361
19.594302 22.239242 38.935295
18.849501 22.193689 39.859375
19.25731 21.105594 39.699997
15.225133 7.73009 47.158712
15.835636 8.833105 46.348404
14.976888 8.651623 47.218854
15.486287 6.803544 47.096096
15.225133 7.73009 47.158712
14.75546 17.348847 45.618563
13.936387 17.262089 46.430887
14.342921 16.140335 46.285756
15.601043 17.460572 44.737068
15.194509 18.582325 44.8822
14.75546 17.348847 45.618563
16.963487 1.899449 46.659407
16.781854 2.722276 46.67481
16.15411 1.665396 47.501198
20.914649 -0.622795 43.274916
20.682692 0.230363 43.34766
20.118316 -0.767709 44.089323
21.136298 -1.437043 43.220253
21.700674 -0.43897 42.47859
20.914649 -0.622795 43.274916
20.411789 15.859279 39.804718
19.628571 15.66909 40.760875
20.020834 14.692018 40.554401
20.817121 16.906764 39.022138
20.411789 15.859279 39.804718
8.174872 13.058309 52.289887
8.67286 14.309641 51.630886
8.548675 11.992096 52.22616
8.174872 13.058309 52.289887
9.443676 12.088151 51.48513
8.548675 11.992096 52.22616
25.414015 0.90841 38.577189
26.029784 1.849901 37.714133
25.218383 1.826589 38.500225
25.151604 -1.845416 39.43231
25.921355 -1.890271 38.713513
25.72878 -0.930975 38.722051
24.55865 -2.83865 40.16684
25.151604 -1.845416 39.43231
24.366076 -1.879356 40.175379
23.947445 -3.794737 40.841516
24.55865 -2.83865 40.16684
23.056439 4.084586 40.01078
22.81406 4.928603 40.009777
22.446497 3.038406 40.91587
23.056439 4.084586 40.01078
20.316128 22.290067 37.981691
20.758622 21.19211 37.786312
14.738998 9.631099 47.252462
15.329023 10.76483 46.460442
14.480629 10.641292 47.304358
14.976888 8.651623 47.218854
14.738998 9.631099 47.252462
13.066518 14.789029 47.788132
12.676608 15.927872 47.893803
12.219279 14.663324 48.583855
29.828065 1.892477 33.994707
29.048495 1.912508 34.766178
29.828065 1.892477 33.994707
30.003056 0.910977 34.136839
17.240732 0.094763 46.735632
17.089198 0.97933 46.726731
18.034398 0.295585 45.935198
17.240732 0.094763 46.735632
17.432477 -0.725742 46.703163
19.274811 -0.981944 44.942867
19.056251 -0.219735 45.032398
18.444704 -1.287129 45.813198
20.118316 -0.767709 44.089323
19.274811 -0.981944 44.942867
18.085479 19.954106 41.417685
17.688734 21.07516 41.562697
17.261704 19.969225 42.356304
20.063885 18.967641 39.347357
19.629528 17.847231 40.198763
20.453882 17.956761 39.159786
20.445175 20.114159 38.542148
19.620821 20.004629 39.581125
20.063885 18.967641 39.347357
20.758622 21.19211 37.786312
20.445175 20.114159 38.542148
11.910584 10.269868 49.756428
12.797351 10.396422 48.93096
12.495057 11.380286 49.00601
11.910584 10.269868 49.756428
11.052881 10.172399 50.522228
9.558156 14.318296 50.920818
8.67286 14.309641 51.630886
10.481392 14.37418 50.146296
9.558156 14.318296 50.920818
9.966558 13.197754 50.818087
11.359581 14.527902 49.366545
10.481392 14.37418 50.146296
11.749491 13.38906 49.260874
12.219279 14.663324 48.583855
11.359581 14.527902 49.366545
26.78212 1.902509 36.964451
26.029784 1.849901 37.714133
27.53258 1.927275 36.238052
26.78212 1.902509 36.964451
26.975876 0.956489 37.064698
28.267246 1.876658 35.534163
27.53258 1.927275 36.238052
28.507585 1.017105 35.570314
29.048495 1.912508 34.766178
28.267246 1.876658 35.534163
28.259047 -1.852072 36.519503
29.030077 -1.852389 35.782056
28.885846 -0.92886 35.725208
27.621267 -2.774101 37.302069
28.259047 -1.852072 36.519503
27.477035 -1.850572 37.24522
26.968313 -3.691062 38.035454
27.621267 -2.774101 37.302069
26.091718 -2.788656 38.725779
26.668893 -1.874216 38.01552
25.921355 -1.890271 38.713513
26.230658 -3.708741 38.7064
26.091718 -2.788656 38.725779
25.48312 -3.724797 39.404393
26.968313 -3.691062 38.035454
26.230658 -3.708741 38.7064
15.096514 2.210472 48.397594
15.691862 3.247363 47.632731
15.314418 1.450228 48.334525
15.096514 2.210472 48.397594
16.15411 1.665396 47.501198
15.314418 1.450228 48.334525
24.43451 1.758972 39.289169
25.218383 1.826589 38.500225
23.854651 0.7531 40.121473
24.43451 1.758972 39.289169
23.686548 1.626973 40.047361
18.086696 22.205284 40.785349
17.688734 21.07516 41.562697
18.086696 22.205284 40.785349
18.849501 22.193689 39.859375
19.594302 22.239242 38.935295
20.316128 22.290067 37.981691
15.716129 5.891011 47.057433
16.313724 6.99904 46.249598
15.486287 6.803544 47.096096
15.977406 5.046506 46.979897
15.716129 5.891011 47.057433
13.636214 10.507201 48.13846
12.797351 10.396422 48.93096
13.158019 17.154492 47.190399
12.676608 15.927872 47.893803
13.158019 17.154492 47.190399
13.936387 17.262089 46.430887
15.639174 19.767213 44.149189
15.194509 18.582325 44.8822
16.452525 19.892164 43.251011
15.639174 19.767213 44.149189
16.849271 18.77111 43.105999
17.261704 19.969225 42.356304
16.452525 19.892164 43.251011
29.768166 -1.993951 35.117143
29.030077 -1.852389 35.782056
19.656489 10.650886 41.940354
20.142694 11.699423 41.160282
19.362923 11.593887 42.043919
19.865374 9.698425 41.930269
19.656489 10.650886 41.940354
19.085603 9.592889 42.813906
20.113377 8.854529 41.860585
19.865374 9.698425 41.930269
20.401771 8.014395 41.74842
20.113377 8.854529 41.860585
19.582882 7.800296 42.691658
20.651896 7.138606 41.699922
20.401771 8.014395 41.74842
20.850752 6.319284 41.689993
20.651896 7.138606 41.699922
20.070134 6.140841 42.569564
21.039598 5.435123 41.725504
20.850752 6.319284 41.689993
16.553907 3.518108 46.732157
16.273291 4.277248 46.848286
15.691862 3.247363 47.632731
17.716941 2.036209 45.900343
16.963487 1.899449 46.659407
17.089198 0.97933 46.726731
21.233168 4.597557 41.735136
21.039598 5.435123 41.725504
20.462561 4.483953 42.569267
21.474235 3.767358 41.711515
22.051272 4.718528 40.867752
21.233168 4.597557 41.735136
21.848225 2.121852 41.756964
22.446497 3.038406 40.91587
21.694067 2.971774 41.685225
22.03984 1.28188 41.760431
21.848225 2.121852 41.756964
21.28741 1.215248 42.529786
22.292857 0.498189 41.706459
22.853672 1.404792 40.933638
22.03984 1.28188 41.760431
21.234921 -2.332785 43.244091
21.136298 -1.437043 43.220253
22.022865 -2.195857 42.468977
21.234921 -2.332785 43.244091
22.772635 -2.162004 41.740076
22.672092 -1.219364 41.695026
22.022865 -2.195857 42.468977
22.948264 -3.005543 41.711968
23.597492 -2.029051 40.938017
22.772635 -2.162004 41.740076
23.147495 -3.930697 41.599945
22.948264 -3.005543 41.711968
23.947445 -3.794737 40.841516
23.147495 -3.930697 41.599945
3 0 59 60
3 0 61 63
3 63 62 12
3 61 62 63
3 0 64 65
3 1 17 15
3 1 18 17
3 66 19 67
3 2 68 70
3 70 69 20
3 68 69 70
3 2 24 22
3 2 20 24
3 3 71 73
3 73 72 26
3 71 72 73
3 3 74 75
3 3 76 77
3 78 29 79
3 80 79 27
3 78 79 80
3 81 31 82
3 84 83 31
3 4 35 33
3 86 85 13
3 88 87 36
3 89 37 90
3 91 90 14
3 89 90 91
3 92 36 93
3 94 93 37
3 92 93 94
3 6 38 16
3 6 39 38
3 6 40 39
3 95 42 96
3 5 97 99
3 99 98 34
3 97 98 99
3 7 45 43
3 100 46 101
3 102 101 21
3 100 101 102
3 104 103 46
3 9 105 107
3 107 106 23
3 105 106 107
3 9 108 110
3 108 47 109
3 108 109 110
3 9 48 47
3 7 49 25
3 7 43 49
3 8 50 44
3 10 51 28
3 10 52 51
3 111 53 112
3 113 112 41
3 111 112 113
3 11 54 30
3 11 55 54
3 11 56 55
3 114 57 115
3 116 115 32
3 114 115 116
3 117 58 118
3 119 118 57
3 117 118 119
3 12 13 4
3 120 13 121
3 122 121 12
3 120 121 122
3 124 123 13
3 125 14 126
3 127 14 128
3 130 129 14
3 15 131 133
3 131 16 132
3 131 132 133
3 17 16 15
3 17 6 16
3 17 134 136
3 136 135 6
3 134 135 136
3 18 137 139
3 139 138 17
3 137 138 139
3 18 140 141
3 19 142 143
3 19 144 145
3 147 146 5
3 20 21 7
3 148 21 149
3 150 149 20
3 148 149 150
3 152 151 21
3 22 153 155
3 153 23 154
3 153 154 155
3 24 23 22
3 24 9 23
3 24 25 9
3 20 25 24
3 20 7 25
3 26 156 157
3 159 158 26
3 27 28 8
3 29 28 27
3 29 10 28
3 160 30 161
3 31 162 164
3 162 30 163
3 162 163 164
3 31 11 30
3 31 32 11
3 165 32 166
3 167 166 31
3 165 166 167
3 169 168 32
3 33 170 172
3 170 34 171
3 170 171 172
3 35 34 33
3 35 5 34
3 13 35 4
3 173 35 174
3 175 174 13
3 173 174 175
3 176 5 177
3 178 177 35
3 176 177 178
3 180 179 5
3 36 181 183
3 183 182 2
3 181 182 183
3 185 184 36
3 14 186 187
3 37 188 190
3 190 189 14
3 188 189 190
3 37 191 192
3 37 193 195
3 193 22 194
3 193 194 195
3 36 22 37
3 36 2 22
3 16 196 197
3 38 198 200
3 200 199 16
3 198 199 200
3 38 201 202
3 38 203 205
3 203 26 204
3 203 204 205
3 39 26 38
3 39 3 26
3 39 206 208
3 208 207 3
3 206 207 208
3 40 209 211
3 211 210 39
3 209 210 211
3 40 212 213
3 214 40 215
3 216 215 6
3 214 215 216
3 217 40 218
3 217 218 219
3 221 220 40
3 222 41 223
3 224 41 225
3 227 226 41
3 228 15 229
3 42 230 232
3 230 15 231
3 230 231 232
3 42 1 15
3 34 233 234
3 236 235 34
3 238 237 5
3 43 44 0
3 45 44 43
3 45 8 44
3 21 45 7
3 46 45 21
3 46 8 45
3 46 27 8
3 239 27 240
3 241 240 46
3 239 240 241
3 243 242 27
3 245 244 2
3 23 246 247
3 249 248 23
3 47 250 251
3 47 252 253
3 47 254 256
3 254 33 255
3 254 255 256
3 48 33 47
3 48 4 33
3 25 48 9
3 49 48 25
3 49 4 48
3 49 12 4
3 43 12 49
3 43 0 12
3 258 257 3
3 44 259 261
3 261 260 0
3 259 260 261
3 50 262 264
3 264 263 44
3 262 263 264
3 50 265 266
3 28 50 8
3 51 50 28
3 51 267 269
3 269 268 50
3 267 268 269
3 51 270 271
3 52 272 274
3 274 273 51
3 272 273 274
3 52 275 276
3 41 277 279
3 277 29 278
3 277 278 279
3 53 29 41
3 53 10 29
3 30 280 282
3 280 53 281
3 280 281 282
3 54 53 30
3 54 10 53
3 54 52 10
3 55 52 54
3 55 283 285
3 285 284 52
3 283 284 285
3 55 286 288
3 286 19 287
3 286 287 288
3 56 19 55
3 56 289 291
3 291 290 19
3 289 290 291
3 32 56 11
3 57 56 32
3 57 292 294
3 294 293 56
3 292 293 294
3 57 295 297
3 295 42 296
3 295 296 297
3 58 42 57
3 58 1 42
3 298 58 299
3 300 58 301
3 302 1 303
3 304 303 58
3 302 303 304
3 305 18 306
3 307 306 1
3 305 306 307
3 308 18 309
3 311 310 18
