ply
format ascii 1.0
element vertex 131
property float x
property float y
property float z
element face 94
property list uchar int vertex_index
end_header
30.438377 -29.125673 -14.321609
32.148197 -38.313004 -0.512878
30.59948 -36.461582 -9.410638
29.375412 -28.565943 -16.578909
31.412113 -33.339188 -9.513145
31.991711 -33.816429 -7.309455
30.910721 -41.131069 -2.717758
29.836107 -32.332436 -13.941981
31.095629 -41.676731 -0.613701
31.403366 -29.488815 -12.055274
30.696718 -32.731346 -11.79077
30.000816 -35.972889 -11.42217
32.834255 -34.621277 -2.90017
32.481239 -34.190483 -5.083608
31.087751 -37.172451 -7.172688
29.906894 -28.845808 -15.450259
30.222439 -27.19426 -15.634756
30.753921 -27.474125 -14.506107
32.656973 -32.307995 -6.356237
32.374505 -32.127017 -7.530411
30.760258 -40.885255 -3.826068
30.296931 -42.455236 -3.67816
29.129456 -33.571099 -14.753045
29.556884 -33.893206 -13.701155
30.579928 -43.325088 -0.572935
31.161061 -41.95257 0.481605
30.526122 -42.961036 -1.564674
30.579928 -43.325088 -0.572935
31.774119 -29.753667 -10.96366
32.139972 -28.032303 -11.130674
31.420794 -31.374932 -10.831408
31.050042 -31.110081 -11.923022
31.774119 -29.753667 -10.96366
29.862827 -37.947778 -10.329375
29.563495 -37.703432 -11.335141
30.300148 -36.217236 -10.416404
32.611284 -36.697939 -0.607682
32.692879 -36.91655 0.519792
32.221108 -35.988581 -3.915231
32.355567 -36.263178 -2.884971
32.0446 -35.773184 -5.00695
32.657747 -34.40588 -3.991889
32.221108 -35.988581 -3.915231
31.347856 -37.264168 -6.05149
31.784495 -35.681467 -6.128148
32.0446 -35.773184 -5.00695
29.629731 -27.100226 -16.771426
30.222439 -27.19426 -15.634756
28.799481 -28.387763 -17.614224
29.629731 -27.100226 -16.771426
32.084705 -31.888396 -8.632255
31.778492 -31.678853 -9.692595
31.701912 -33.577809 -8.4113
32.084705 -31.888396 -8.632255
32.374505 -32.127017 -7.530411
31.3938 -39.518074 -2.793764
32.012538 -38.109042 -1.691324
31.529459 -39.722037 -1.615318
31.3938 -39.518074 -2.793764
30.760258 -40.885255 -3.826068
29.40237 -31.994078 -14.952837
29.703505 -30.390696 -15.142651
30.137242 -30.729055 -14.131795
29.40237 -31.994078 -14.952837
29.129456 -33.571099 -14.753045
32.191023 -38.622541 0.53096
32.692879 -36.91655 0.519792
31.664739 -40.304405 0.480548
31.161061 -41.95257 0.481605
31.621913 -39.994867 -0.563289
32.191023 -38.622541 0.53096
31.664739 -40.304405 0.480548
30.433668 -42.688205 -2.616702
31.003175 -41.4039 -1.665729
30.526122 -42.961036 -1.564674
30.296931 -42.455236 -3.67816
30.433668 -42.688205 -2.616702
29.172023 -30.110831 -16.2713
29.906894 -28.845808 -15.450259
29.703505 -30.390696 -15.142651
28.58108 -29.930568 -17.37173
29.172023 -30.110831 -16.2713
28.37769 -31.475456 -17.064121
28.799481 -28.387763 -17.614224
28.58108 -29.930568 -17.37173
31.217471 -27.654398 -13.441308
30.753921 -27.474125 -14.506107
31.699965 -27.835969 -12.308141
32.139972 -28.032303 -11.130674
30.920871 -29.307244 -13.188441
31.217471 -27.654398 -13.441308
31.699965 -27.835969 -12.308141
29.98719 -34.092661 -12.625549
29.556884 -33.893206 -13.701155
30.266413 -32.531891 -12.866376
31.054416 -33.035267 -10.651957
31.420794 -31.374932 -10.831408
31.778492 -31.678853 -9.692595
29.639239 -35.713432 -12.441249
29.98719 -34.092661 -12.625549
30.348767 -34.352118 -11.60647
29.297077 -37.250858 -12.318633
29.639239 -35.713432 -12.441249
29.297077 -37.250858 -12.318633
29.563495 -37.703432 -11.335141
32.611284 -36.697939 -0.607682
32.012538 -38.109042 -1.691324
32.954313 -34.852075 -1.801329
32.355567 -36.263178 -2.884971
33.394399 -33.271999 -1.812642
32.954313 -34.852075 -1.801329
33.300665 -32.897782 -2.938848
33.394399 -33.271999 -1.812642
33.124157 -32.682386 -4.030566
33.300665 -32.897782 -2.938848
32.657747 -34.40588 -3.991889
32.901737 -32.495022 -5.243313
33.124157 -32.682386 -4.030566
32.236475 -34.003456 -6.196531
32.656973 -32.307995 -6.356237
32.901737 -32.495022 -5.243313
30.63527 -38.754603 -7.115158
31.347856 -37.264168 -6.05149
30.450454 -38.367525 -8.148914
30.63527 -38.754603 -7.115158
29.997972 -39.949676 -8.091385
30.206318 -38.01209 -9.267889
30.843615 -36.817017 -8.291663
30.450454 -38.367525 -8.148914
29.862827 -37.947778 -10.329375
30.206318 -38.01209 -9.267889
3 0 15 17
3 15 3 16
3 15 16 17
3 18 5 19
3 21 20 6
3 23 22 7
3 24 8 25
3 27 26 8
3 28 9 29
3 30 10 31
3 32 31 9
3 30 31 32
3 2 11 4
3 2 33 35
3 35 34 11
3 33 34 35
3 1 36 37
3 38 12 39
3 40 13 41
3 42 41 12
3 40 41 42
3 43 14 44
3 45 44 13
3 43 44 45
3 3 46 47
3 3 48 49
3 50 4 51
3 5 52 54
3 52 4 53
3 52 53 54
3 5 2 4
3 6 55 57
3 57 56 1
3 55 56 57
3 59 58 6
3 7 60 62
3 62 61 0
3 60 61 62
3 64 63 7
3 65 1 66
3 8 67 68
3 8 69 71
3 69 1 70
3 69 70 71
3 8 6 1
3 72 6 73
3 74 73 8
3 72 73 74
3 76 75 6
3 77 3 78
3 79 78 0
3 77 78 79
3 80 3 81
3 80 81 82
3 84 83 3
3 85 0 86
3 9 87 88
3 9 89 91
3 89 0 90
3 89 90 91
3 9 7 0
3 10 7 9
3 10 92 94
3 94 93 7
3 92 93 94
3 4 95 97
3 95 10 96
3 95 96 97
3 11 10 4
3 11 98 100
3 100 99 10
3 98 99 100
3 11 101 102
3 104 103 11
3 106 105 1
3 12 107 108
3 12 109 110
3 12 111 112
3 13 113 115
3 115 114 12
3 113 114 115
3 13 116 117
3 13 118 120
3 118 5 119
3 118 119 120
3 14 5 13
3 14 2 5
3 121 14 122
3 123 14 124
3 123 124 125
3 126 2 127
3 128 127 14
3 126 127 128
3 130 129 2
