ply
format ascii 1.0
element vertex 136
property float x
property float y
property float z
element face 104
property list uchar int vertex_index
end_header
-31.794176 -29.646717 -8.963111
-30.088341 -28.741056 -13.309187
-31.59189 -38.552734 0.196476
-30.975916 -37.467976 -4.091496
-30.055363 -36.052746 -8.423282
-32.541813 -35.309177 -0.122747
-31.306482 -38.012047 -2.036044
-32.364525 -34.489834 -2.236611
-32.296616 -30.448387 -6.911201
-31.45101 -33.67086 -6.53476
-30.944059 -32.872204 -8.674646
-30.289478 -32.189175 -10.764252
-29.122047 -28.330641 -15.291567
-28.543272 -31.279724 -14.791643
-31.000198 -29.231592 -11.135777
-31.822947 -39.077507 2.585059
-31.929861 -34.141918 -4.434387
-29.383194 -31.819136 -12.914937
-33.070444 -33.499018 -0.179364
-33.156021 -33.787422 0.928527
-32.9818 -33.089346 -1.236295
-32.453169 -34.899506 -1.179679
-33.070444 -33.499018 -0.179364
-32.045396 -30.047552 -7.937156
-32.754539 -28.61289 -7.116844
-32.50332 -28.212055 -8.142799
-28.381253 -29.520625 -15.946141
-28.617556 -28.084985 -16.237338
-31.707418 -38.81512 1.390768
-32.274581 -37.491672 2.364574
-32.159053 -37.229286 1.170283
-31.129606 -40.142319 0.422355
-31.245134 -40.404705 1.616647
-31.707418 -38.81512 1.390768
-30.985594 -39.865028 -0.717041
-31.129606 -40.142319 0.422355
-30.485976 -39.072371 -3.985436
-30.65126 -39.344406 -2.95771
-31.141199 -37.740012 -3.06377
-30.301459 -38.699417 -5.060567
-29.81152 -40.303812 -4.954506
-30.485976 -39.072371 -3.985436
-32.397052 -32.452835 -4.582756
-32.607408 -32.653879 -3.500317
-30.288742 -36.429327 -7.3989
-30.986565 -35.238384 -6.45464
-30.753186 -34.861803 -7.479021
-29.583818 -37.680855 -8.297213
-30.288742 -36.429327 -7.3989
-29.323172 -37.259355 -9.31567
-29.583818 -37.680855 -8.297213
-28.227886 -32.720404 -14.589215
-27.831924 -32.354513 -15.473149
-32.634014 -35.607507 1.010671
-33.156021 -33.787422 0.928527
-32.066851 -36.930955 0.036865
-32.159053 -37.229286 1.170283
-32.634014 -35.607507 1.010671
-32.996119 -28.926147 -6.051279
-32.754539 -28.61289 -7.116844
-32.58043 -30.60607 -5.821162
-32.996119 -28.926147 -6.051279
-31.873813 -32.059624 -6.722981
-32.157626 -32.217306 -5.632942
-32.58043 -30.60607 -5.821162
-30.21548 -34.093388 -9.545042
-29.771133 -35.683658 -9.41936
-30.499711 -34.462475 -8.548964
-29.88819 -33.751873 -10.589845
-30.21548 -34.093388 -9.545042
-30.616768 -32.53069 -9.719449
-29.488214 -33.516793 -11.622478
-29.88819 -33.751873 -10.589845
-28.091866 -30.995167 -15.696179
-28.832659 -29.805183 -15.041605
-28.381253 -29.520625 -15.946141
-27.831924 -32.354513 -15.473149
-28.091866 -30.995167 -15.696179
-32.157416 -28.054989 -9.202208
-32.50332 -28.212055 -8.142799
-31.760427 -27.847426 -10.288541
-31.397187 -29.439155 -10.049444
-32.157416 -28.054989 -9.202208
-31.337601 -27.701009 -11.362953
-31.760427 -27.847426 -10.288541
-30.881672 -27.455741 -12.449658
-30.544269 -28.986324 -12.222482
-31.337601 -27.701009 -11.362953
-30.420963 -27.248501 -13.50213
-30.881672 -27.455741 -12.449658
-29.937815 -27.043294 -14.49332
-29.605194 -28.535849 -14.300377
-30.420963 -27.248501 -13.50213
-29.385778 -26.909312 -15.552585
-29.937815 -27.043294 -14.49332
-28.617556 -28.084985 -16.237338
-29.385778 -26.909312 -15.552585
-32.360754 -37.676595 3.558257
-32.274581 -37.491672 2.364574
-31.899644 -39.305269 3.741125
-32.360754 -37.676595 3.558257
-31.377203 -40.590364 2.737899
-31.899644 -39.305269 3.741125
-31.377203 -40.590364 2.737899
-31.245134 -40.404705 1.616647
-30.84289 -39.594684 -1.833302
-30.985594 -39.865028 -0.717041
-31.449186 -38.282391 -0.919784
-30.84289 -39.594684 -1.833302
-30.65126 -39.344406 -2.95771
-32.824739 -32.827837 -2.401429
-32.9818 -33.089346 -1.236295
-32.147193 -34.315876 -3.335499
-32.824739 -32.827837 -2.401429
-32.607408 -32.653879 -3.500317
-31.690435 -33.906389 -5.484573
-32.397052 -32.452835 -4.582756
-32.157626 -32.217306 -5.632942
-31.225991 -35.473913 -5.404453
-31.690435 -33.906389 -5.484573
-30.986565 -35.238384 -6.45464
-30.749018 -37.136942 -5.233008
-31.452889 -35.804947 -4.262942
-31.225991 -35.473913 -5.404453
-30.301459 -38.699417 -5.060567
-30.749018 -37.136942 -5.233008
-29.323172 -37.259355 -9.31567
-29.771133 -35.683658 -9.41936
-29.035072 -33.331773 -12.697821
-29.488214 -33.516793 -11.622478
-29.836336 -32.004155 -11.839595
-28.647847 -32.99011 -13.650862
-28.963233 -31.54943 -13.85329
-28.227886 -32.720404 -14.589215
-29.035072 -33.331773 -12.697821
-28.647847 -32.99011 -13.650862
3 18 5 19
3 20 7 21
3 22 21 5
3 20 21 22
3 0 23 25
3 23 8 24
3 23 24 25
3 0 10 8
3 0 11 10
3 27 26 12
3 2 28 30
3 28 15 29
3 28 29 30
3 2 31 33
3 33 32 15
3 31 32 33
3 2 34 35
3 3 36 38
3 38 37 6
3 36 37 38
3 3 39 41
3 39 40 41
3 42 16 43
3 4 44 46
3 46 45 9
3 44 45 46
3 4 47 48
3 4 49 50
3 1 17 14
3 52 51 13
3 5 53 54
3 5 55 57
3 55 2 56
3 55 56 57
3 5 6 2
3 7 6 5
3 7 3 6
3 8 58 59
3 8 60 61
3 8 62 64
3 62 9 63
3 62 63 64
3 10 9 8
3 10 4 9
3 10 65 67
3 67 66 4
3 65 66 67
3 11 68 70
3 70 69 10
3 68 69 70
3 11 71 72
3 12 13 1
3 73 13 74
3 75 74 12
3 73 74 75
3 77 76 13
3 78 0 79
3 80 14 81
3 82 81 0
3 80 81 82
3 83 14 84
3 85 1 86
3 87 86 14
3 85 86 87
3 88 1 89
3 90 12 91
3 92 91 1
3 90 91 92
3 93 12 94
3 96 95 12
3 15 97 98
3 15 99 100
3 15 101 102
3 104 103 15
3 6 105 107
3 107 106 2
3 105 106 107
3 109 108 6
3 110 7 111
3 16 112 114
3 112 7 113
3 112 113 114
3 16 3 7
3 9 115 117
3 115 16 116
3 115 116 117
3 118 16 119
3 120 119 9
3 118 119 120
3 121 3 122
3 123 122 16
3 121 122 123
3 125 124 3
3 127 126 4
3 14 11 0
3 17 11 14
3 17 128 130
3 130 129 11
3 128 129 130
3 13 17 1
3 131 17 132
3 133 132 13
3 131 132 133
3 135 134 17
