ply
format ascii 1.0
element vertex 333
property float x
property float y
property float z
element face 296
property list uchar int vertex_index
end_header
-27.448805 -32.771614 -55.511185
-20.432407 -62.292732 -45.57317
-20.368896 -48.652779 -51.138393
-19.038015 -34.023529 -56.430283
-24.212152 -66.239059 -40.191845
-24.452887 -60.613495 -43.740314
-31.939989 -38.619671 -50.238998
-28.231407 -39.473194 -52.20752
-24.089113 -40.552235 -53.361557
-19.797119 -41.395226 -53.808765
-23.296955 -33.438408 -56.34388
-10.347265 -27.411209 -57.004536
-24.603632 -54.302795 -47.051357
-20.528307 -55.74474 -48.374836
-16.064484 -56.799313 -49.111538
-15.908419 -49.393059 -51.333698
-15.596308 -42.041618 -53.544415
-15.008171 -34.774292 -55.77737
-24.486235 -63.327522 -41.995358
-29.431684 -31.895855 -55.037121
-29.751591 -35.674637 -53.160583
-27.83736 -35.983395 -53.964512
-26.218077 -40.071442 -52.846855
-25.749887 -36.548092 -54.509483
-23.796566 -36.940258 -54.878551
-25.469246 -32.694847 -56.175087
-10.8951 -30.995068 -55.965652
-18.385418 -62.720352 -46.366329
-22.357233 -48.172939 -50.804646
-22.475016 -51.540051 -49.374207
-20.33695 -52.337257 -49.776516
-18.278963 -56.257652 -48.874928
-18.378965 -52.583817 -50.132149
-16.174675 -53.058712 -50.23698
-18.196682 -49.007175 -51.347927
-19.566303 -37.443657 -55.218647
-17.738365 -41.501339 -53.841896
-17.446541 -38.018055 -54.988239
-15.524817 -38.269047 -54.722
-17.038942 -34.176601 -56.257977
-22.331778 -67.049156 -41.599251
-22.326283 -64.477661 -43.189476
-22.552197 -61.458302 -44.69466
-31.587328 -35.124146 -52.285595
-26.361168 -43.695786 -51.179165
-24.284149 -44.122364 -51.835049
-22.236708 -44.503654 -52.280399
-20.173035 -44.924473 -52.51709
-22.027487 -40.735458 -53.766407
-21.557281 -37.356579 -55.103298
-21.181763 -33.683743 -56.500252
-9.90476 -23.840937 -58.158379
-11.411883 -38.582523 -53.771549
-24.652098 -57.444839 -45.385246
-22.596664 -58.327919 -46.249352
-22.653791 -54.869938 -47.838688
-20.533926 -59.068707 -46.975609
-18.277325 -59.673912 -47.617489
-16.049492 -60.083256 -48.06144
-13.781921 -60.974552 -48.12307
-17.983139 -45.441158 -52.535282
-15.914693 -45.547909 -52.492146
-13.752273 -45.930809 -52.181141
-13.604139 -42.133579 -53.239819
-13.447295 -38.471313 -54.301701
-13.110537 -34.467857 -55.482433
-24.797409 -29.225233 -57.721542
-14.590939 -30.857952 -57.025776
-12.691176 -30.773354 -56.596489
-12.194607 -27.286283 -57.670605
-11.64592 -23.797041 -58.792408
-11.048077 -32.84075 -55.421999
-10.10124 -32.899485 -55.079611
-19.348492 -64.195423 -45.269385
-20.443164 -63.654998 -44.902429
-19.408912 -62.506542 -45.969749
-18.324998 -64.409233 -45.665964
-19.348492 -64.195423 -45.269385
-24.083838 -67.429039 -39.360094
-25.113473 -65.602882 -39.535044
-23.173645 -67.960316 -40.066799
-24.083838 -67.429039 -39.360094
-23.271965 -66.644107 -40.895548
-22.233458 -68.365364 -40.770502
-23.173645 -67.960316 -40.066799
-31.43208 -33.378384 -53.214043
-32.273103 -33.253612 -52.698103
-29.221826 -39.282393 -51.727528
-29.981918 -37.383114 -52.204059
-28.991499 -37.573915 -52.684052
-28.287686 -41.26541 -51.323721
-29.221826 -39.282393 -51.727528
-27.296287 -41.58449 -51.693342
-27.352566 -43.376705 -50.809544
-28.287686 -41.26541 -51.323721
-9.504242 -27.526504 -56.63369
-9.695429 -29.373493 -56.087721
-10.126012 -25.626073 -57.581457
-9.282989 -25.741368 -57.210611
-9.504242 -27.526504 -56.63369
-11.53278 -40.422939 -53.283508
-10.514108 -40.450075 -52.992145
-32.767738 -38.426821 -49.600315
-32.629264 -36.709467 -50.67303
-24.627865 -55.873817 -46.218302
-25.595729 -55.516333 -45.761364
-25.571496 -53.945311 -46.59442
-14.982218 -57.022589 -49.12847
-13.840937 -59.110208 -48.634236
-14.923203 -58.886933 -48.617304
-14.949322 -51.4711 -50.732671
-15.08245 -53.303927 -50.184313
-16.041547 -51.225886 -50.785339
-14.869838 -49.608093 -51.226926
-14.949322 -51.4711 -50.732671
-25.524975 -27.222026 -58.354513
-25.856828 -29.028821 -57.530916
-14.37043 -29.040484 -57.623404
-15.338966 -28.858347 -57.883015
-13.420548 -28.998185 -57.40876
-13.641058 -30.815653 -56.811132
-14.37043 -29.040484 -57.623404
-13.172263 -27.25465 -57.945818
-12.442891 -29.029819 -57.133547
-13.420548 -28.998185 -57.40876
-12.149964 -21.960546 -59.667772
-12.513059 -23.809596 -59.044332
-11.269265 -22.24996 -59.272654
-12.149964 -21.960546 -59.667772
-25.23675 -64.261714 -40.502976
-25.113473 -65.602882 -39.535044
-25.373792 -62.805946 -41.404732
-24.349193 -64.78329 -41.093602
-25.23675 -64.261714 -40.502976
-25.505748 -61.392305 -42.285179
-25.373792 -62.805946 -41.404732
-25.489074 -60.035291 -43.157657
-24.469561 -61.970509 -42.867836
-25.505748 -61.392305 -42.285179
-29.591638 -33.785246 -54.098852
-30.514212 -33.65363 -53.651537
-30.354259 -31.764239 -54.589805
-9.969346 -31.165422 -55.568279
-10.10124 -32.899485 -55.079611
-10.621182 -29.203139 -56.485094
-9.695429 -29.373493 -56.087721
-9.969346 -31.165422 -55.568279
-17.237285 -64.802605 -45.981279
-18.324998 -64.409233 -45.665964
-17.193479 -63.248852 -46.581494
-17.237285 -64.802605 -45.981279
-32.001717 -40.280519 -49.263374
-31.106895 -40.562132 -49.844183
-25.598358 -52.276646 -47.466557
-25.571496 -53.945311 -46.59442
-22.416125 -49.856495 -50.089427
-23.467385 -49.516621 -49.845356
-23.408493 -47.833065 -50.560575
-21.176662 -69.032116 -41.367333
-22.233458 -68.365364 -40.770502
-21.311273 -67.547218 -42.158408
-21.176662 -69.032116 -41.367333
-21.308526 -66.261471 -42.95352
-21.311273 -67.547218 -42.158408
-22.329031 -65.763408 -42.394363
-21.390102 -64.747463 -43.710583
-21.308526 -66.261471 -42.95352
-21.503059 -63.237783 -44.463175
-21.390102 -64.747463 -43.710583
-22.43924 -62.967982 -43.942068
-21.492302 -61.875517 -45.133915
-20.443164 -63.654998 -44.902429
-21.503059 -63.237783 -44.463175
-32.452934 -34.961705 -51.696329
-32.273103 -33.253612 -52.698103
-31.763658 -36.871909 -51.262297
-32.629264 -36.709467 -50.67303
-32.452934 -34.961705 -51.696329
-30.66946 -35.399392 -52.723089
-31.43208 -33.378384 -53.214043
-30.514212 -33.65363 -53.651537
-30.899787 -37.107869 -51.766565
-30.66946 -35.399392 -52.723089
-29.981918 -37.383114 -52.204059
-31.076118 -38.855631 -50.743267
-31.763658 -36.871909 -51.262297
-30.899787 -37.107869 -51.766565
-31.106895 -40.562132 -49.844183
-31.076118 -38.855631 -50.743267
-26.4039 -45.422897 -50.347799
-27.352566 -43.376705 -50.809544
-25.41046 -45.594488 -50.747835
-26.4039 -45.422897 -50.347799
-24.371951 -45.807778 -51.075777
-25.41046 -45.594488 -50.747835
-25.322658 -43.909075 -51.507107
-23.320691 -46.147651 -51.319847
-23.408493 -47.833065 -50.560575
-24.371951 -45.807778 -51.075777
-9.093729 -23.924115 -57.792332
-9.282989 -25.741368 -57.210611
-9.562625 -22.256595 -58.646681
-9.093729 -23.924115 -57.792332
-30.141831 -30.05187 -55.479299
-30.354259 -31.764239 -54.589805
-29.0911 -30.251176 -55.902555
-30.141831 -30.05187 -55.479299
-28.099661 -30.689056 -56.139587
-28.440244 -32.333734 -55.274153
-29.0911 -30.251176 -55.902555
-27.182527 -30.802011 -56.425737
-28.099661 -30.689056 -56.139587
-10.456608 -38.586187 -53.472313
-10.514108 -40.450075 -52.992145
-11.306468 -36.634478 -54.324947
-10.456608 -38.586187 -53.472313
-32.767738 -38.426821 -49.600315
-32.001717 -40.280519 -49.263374
-25.551387 -58.608511 -44.019628
-25.489074 -60.035291 -43.157657
-25.650993 -57.024183 -44.842095
-25.595729 -55.516333 -45.761364
-24.552492 -59.029167 -44.56278
-25.551387 -58.608511 -44.019628
-25.650993 -57.024183 -44.842095
-24.582729 -52.600071 -47.885666
-25.598358 -52.276646 -47.466557
-23.51842 -51.218699 -49.047091
-23.467385 -49.516621 -49.845356
-23.607808 -52.883642 -48.279331
-23.51842 -51.218699 -49.047091
-22.564403 -53.204994 -48.606448
-23.628712 -54.586366 -47.445023
-24.582729 -52.600071 -47.885666
-23.607808 -52.883642 -48.279331
-17.139432 -61.725632 -47.207073
-17.193479 -63.248852 -46.581494
-18.331372 -61.197132 -46.991909
-16.025516 -61.930304 -47.429049
-17.139432 -61.725632 -47.207073
-17.163409 -59.878584 -47.839464
-14.953793 -62.180792 -47.593103
-16.025516 -61.930304 -47.429049
-13.820008 -62.62644 -47.623919
-14.953793 -62.180792 -47.593103
-14.915707 -60.528904 -48.092255
-12.630683 -62.903094 -47.682684
-13.820008 -62.62644 -47.623919
-12.681228 -61.076073 -48.139458
-12.630683 -62.903094 -47.682684
-12.681228 -61.076073 -48.139458
-13.840937 -59.110208 -48.634236
-15.037313 -55.152288 -49.691191
-14.982218 -57.022589 -49.12847
-16.11958 -54.929012 -49.674259
-15.037313 -55.152288 -49.691191
-15.08245 -53.303927 -50.184313
-14.872975 -47.685519 -51.806151
-14.869838 -49.608093 -51.226926
-15.911556 -47.470484 -51.912922
-13.791765 -47.876969 -51.650648
-14.872975 -47.685519 -51.806151
-14.833483 -45.739359 -52.336643
-12.698533 -48.110531 -51.448957
-13.791765 -47.876969 -51.650648
-12.745199 -46.028126 -51.98073
-12.698533 -48.110531 -51.448957
-12.671131 -44.129511 -52.510069
-12.745199 -46.028126 -51.98073
-13.678206 -44.032194 -52.71048
-12.628908 -42.198467 -53.017643
-12.671131 -44.129511 -52.510069
-12.550486 -40.367334 -53.548584
-12.628908 -42.198467 -53.017643
-13.525717 -40.302446 -53.77076
-12.429589 -38.526918 -54.036625
-11.53278 -40.422939 -53.283508
-12.550486 -40.367334 -53.548584
-12.155795 -34.577145 -55.180389
-11.306468 -36.634478 -54.324947
-12.26121 -36.52519 -54.626991
-26.192747 -30.763628 -56.757689
-26.459025 -32.733231 -55.843136
-27.182527 -30.802011 -56.425737
-25.133328 -30.96004 -56.948314
-26.192747 -30.763628 -56.757689
-25.856828 -29.028821 -57.530916
-24.428198 -27.408231 -58.504999
-25.524975 -27.222026 -58.354513
-23.755364 -29.401066 -57.817864
-24.428198 -27.408231 -58.504999
-23.005138 -31.507654 -57.129033
-24.047182 -31.33182 -57.032711
-23.755364 -29.401066 -57.817864
-21.947541 -31.630322 -57.207219
-22.239359 -33.561076 -56.422066
-23.005138 -31.507654 -57.129033
-20.906672 -31.800725 -57.214241
-21.947541 -31.630322 -57.207219
-19.834798 -31.970618 -57.179257
-20.109889 -33.853636 -56.465268
-20.906672 -31.800725 -57.214241
-18.792605 -32.240783 -57.062071
-19.834798 -31.970618 -57.179257
-17.793068 -32.317318 -56.975918
-18.038479 -34.100065 -56.34413
-18.792605 -32.240783 -57.062071
-16.766801 -32.350882 -56.863785
-17.793068 -32.317318 -56.975918
-15.751416 -32.649728 -56.623481
-16.023556 -34.475447 -56.017674
-16.766801 -32.350882 -56.863785
-15.5428 -30.691558 -57.247685
-15.338966 -28.858347 -57.883015
-14.799555 -32.816122 -56.401573
-15.751416 -32.649728 -56.623481
-15.5428 -30.691558 -57.247685
-11.946115 -32.729893 -55.737417
-12.155795 -34.577145 -55.180389
-12.900856 -32.620606 -56.039461
-11.793138 -30.884211 -56.28107
-11.048077 -32.84075 -55.421999
-11.946115 -32.729893 -55.737417
-12.787402 -25.554217 -58.483431
-13.172263 -27.25465 -57.945818
-11.920264 -25.541662 -58.231507
-12.787402 -25.554217 -58.483431
-12.513059 -23.809596 -59.044332
-10.398685 -22.271908 -58.955639
-10.77534 -23.818989 -58.475393
-11.269265 -22.24996 -59.272654
-9.562625 -22.256595 -58.646681
-10.398685 -22.271908 -58.955639
3 0 21 19
3 0 23 21
3 0 25 23
3 71 26 72
3 1 73 74
3 1 75 77
3 75 27 76
3 75 76 77
3 2 30 28
3 2 32 30
3 2 34 32
3 3 37 35
3 3 39 37
3 4 78 79
3 4 80 81
3 4 82 84
3 82 40 83
3 82 83 84
3 5 41 18
3 5 42 41
3 85 43 86
3 7 87 89
3 89 88 20
3 87 88 89
3 7 90 91
3 7 92 94
3 92 44 93
3 92 93 94
3 8 45 22
3 8 46 45
3 8 48 46
3 10 49 24
3 10 50 49
3 11 95 96
3 11 97 99
3 97 51 98
3 97 98 99
3 100 52 101
3 6 102 103
3 12 104 106
3 104 53 105
3 104 105 106
3 12 54 53
3 13 55 29
3 13 56 55
3 13 57 56
3 14 58 31
3 14 59 58
3 14 107 109
3 109 108 59
3 107 108 109
3 15 110 112
3 112 111 33
3 110 111 112
3 15 113 114
3 9 60 47
3 16 61 36
3 16 62 61
3 16 63 62
3 17 64 38
3 17 65 64
3 115 66 116
3 117 67 118
3 119 68 120
3 121 120 67
3 119 120 121
3 122 69 123
3 124 123 68
3 122 123 124
3 125 70 126
3 128 127 70
3 129 4 130
3 131 18 132
3 133 132 4
3 131 132 133
3 134 18 135
3 136 5 137
3 138 137 18
3 136 137 138
3 19 139 141
3 139 20 140
3 139 140 141
3 21 20 19
3 21 7 20
3 21 22 7
3 23 22 21
3 23 8 22
3 23 24 8
3 25 24 23
3 25 10 24
3 26 142 143
3 26 144 146
3 144 11 145
3 144 145 146
3 27 147 148
3 27 149 150
3 152 151 6
3 153 12 154
3 28 155 157
3 155 29 156
3 155 156 157
3 30 29 28
3 30 13 29
3 30 31 13
3 32 31 30
3 32 14 31
3 32 33 14
3 34 33 32
3 34 15 33
3 35 36 9
3 37 36 35
3 37 16 36
3 37 38 16
3 39 38 37
3 39 17 38
3 40 158 159
3 40 160 161
3 18 40 4
3 41 40 18
3 41 162 164
3 164 163 40
3 162 163 164
3 41 165 166
3 42 167 169
3 169 168 41
3 167 168 169
3 42 170 172
3 170 1 171
3 170 171 172
3 43 173 174
3 43 175 177
3 175 6 176
3 175 176 177
3 20 178 180
3 178 43 179
3 178 179 180
3 181 43 182
3 183 182 20
3 181 182 183
3 184 6 185
3 186 185 43
3 184 185 186
3 188 187 6
3 44 189 190
3 44 191 192
3 22 44 7
3 45 44 22
3 45 193 195
3 195 194 44
3 193 194 195
3 45 196 198
3 196 28 197
3 196 197 198
3 46 28 45
3 46 2 28
3 46 47 2
3 48 47 46
3 48 9 47
3 24 48 8
3 49 48 24
3 49 9 48
3 49 35 9
3 50 35 49
3 50 3 35
3 51 199 200
3 51 201 202
3 203 19 204
3 205 19 206
3 207 0 208
3 209 208 19
3 207 208 209
3 211 210 0
3 52 212 213
3 52 214 215
3 217 216 6
3 218 5 219
3 53 220 221
3 53 222 224
3 222 5 223
3 222 223 224
3 53 42 5
3 54 42 53
3 54 1 42
3 225 12 226
3 29 227 228
3 55 229 231
3 231 230 29
3 229 230 231
3 55 232 234
3 232 12 233
3 232 233 234
3 55 54 12
3 56 54 55
3 56 1 54
3 56 27 1
3 57 27 56
3 57 235 237
3 237 236 27
3 235 236 237
3 31 57 13
3 58 57 31
3 58 238 240
3 240 239 57
3 238 239 240
3 58 241 242
3 59 243 245
3 245 244 58
3 243 244 245
3 59 246 247
3 59 248 249
3 251 250 59
3 33 252 254
3 254 253 14
3 252 253 254
3 256 255 33
3 47 34 2
3 60 34 47
3 60 15 34
3 36 60 9
3 61 60 36
3 61 15 60
3 61 257 259
3 259 258 15
3 257 258 259
3 62 260 262
3 262 261 61
3 260 261 262
3 62 263 264
3 62 265 266
3 63 267 269
3 269 268 62
3 267 268 269
3 63 270 271
3 38 63 16
3 64 63 38
3 64 272 274
3 274 273 63
3 272 273 274
3 64 275 277
3 275 52 276
3 275 276 277
3 65 52 64
3 65 278 280
3 280 279 52
3 278 279 280
3 281 25 282
3 283 282 0
3 281 282 283
3 66 284 286
3 284 25 285
3 284 285 286
3 66 10 25
3 287 66 288
3 289 66 290
3 291 10 292
3 293 292 66
3 291 292 293
3 294 50 295
3 296 295 10
3 294 295 296
3 297 50 298
3 299 3 300
3 301 300 50
3 299 300 301
3 302 3 303
3 304 39 305
3 306 305 3
3 304 305 306
3 307 39 308
3 309 17 310
3 311 310 39
3 309 310 311
3 67 312 313
3 67 314 316
3 314 17 315
3 314 315 316
3 67 65 17
3 68 65 67
3 68 317 319
3 319 318 65
3 317 318 319
3 68 320 322
3 320 26 321
3 320 321 322
3 69 26 68
3 69 11 26
3 323 69 324
3 70 325 327
3 325 69 326
3 325 326 327
3 70 11 69
3 70 51 11
3 328 51 329
3 330 329 70
3 328 329 330
3 332 331 51
