ply
format ascii 1.0
element vertex 253
property float x
property float y
property float z
element face 211
property list uchar int vertex_index
end_header
37.624447 10.544029 18.289042
34.157463 6.178484 26.350353
31.026176 -25.521042 28.425035
33.340748 -2.160655 27.106377
31.707611 -4.457472 30.424034
30.295212 -19.907303 31.567774
36.407673 17.352676 21.344315
34.742176 14.527452 25.422823
30.941992 -12.383764 30.981758
31.728838 -17.807615 28.056768
31.671221 2.139767 31.537239
32.062157 -0.645029 30.195448
31.31938 -1.99023 31.764099
37.859798 15.050875 17.577141
38.618374 15.868041 15.197357
38.414841 11.465608 15.958531
33.614166 9.112801 27.794525
34.502827 10.314893 25.866264
35.36071 11.837755 23.961527
35.048645 7.450119 24.472437
30.692245 -22.613098 29.977278
30.990198 -18.834585 29.783884
31.398664 -21.631502 28.151449
32.131248 -20.807047 26.379284
31.735815 -24.706959 26.498917
33.300213 5.007346 28.132797
33.72131 1.933358 26.847893
32.878807 0.731918 28.543056
32.516121 -3.379696 28.741219
32.118809 -7.264749 29.012987
30.036818 -23.640734 31.863588
30.405008 -26.233526 30.283609
37.011692 13.972909 19.938313
34.121449 17.264151 26.887569
34.968086 18.708443 24.807878
35.577694 15.728464 23.445679
36.209389 12.78537 21.964367
36.743946 9.484996 20.586048
30.891159 -5.903769 32.195198
31.283314 -8.362541 30.799259
31.703442 -11.217248 29.314648
30.575157 -16.110685 31.345572
31.322342 -15.189236 29.560074
32.159264 -14.267788 27.696932
31.307536 1.37895 32.355222
31.475531 3.380803 32.221266
31.131615 -0.686049 32.468653
31.4953 0.074769 31.650669
31.307536 1.37895 32.355222
34.405109 4.663747 25.650089
34.850701 5.299564 24.711131
34.603054 6.814302 25.411395
32.878406 4.162171 28.985433
33.046707 6.247018 28.830585
32.667704 2.024457 29.190563
33.08951 2.869632 28.337927
32.878406 4.162171 28.985433
29.9375 -25.407967 32.019595
29.772611 -24.074748 32.760614
30.121595 -26.704363 31.229605
30.220913 -24.93713 31.073598
29.9375 -25.407967 32.019595
38.943976 16.253861 14.022174
38.854168 13.911859 14.422613
36.825432 17.901941 20.215003
36.497481 19.444844 20.93422
36.709682 15.662792 20.641314
37.127442 16.212058 19.512002
36.825432 17.901941 20.215003
34.431812 15.895801 26.155196
34.012095 15.284217 27.119393
34.322458 13.915868 26.38702
36.050312 10.544725 22.279887
35.785049 12.311563 22.962947
35.625973 10.070917 23.278467
36.317591 8.894538 21.590727
36.476668 11.135183 21.275208
36.050312 10.544725 22.279887
36.597448 7.281244 20.794604
36.317591 8.894538 21.590727
33.768509 -1.674587 26.242983
33.95879 0.372419 26.113741
33.531029 -0.113649 26.977135
30.552132 -6.52812 33.016745
30.734583 -4.552679 32.855098
31.112653 -10.373152 30.890508
30.917659 -9.149746 31.600132
30.746998 -11.160358 31.691381
30.435184 -18.008994 31.456673
30.238424 -16.645117 32.234956
30.098451 -18.543426 32.346057
32.130428 -17.469409 27.135112
32.345641 -15.699495 26.955194
31.944051 -16.037701 27.87685
32.542469 -20.378662 25.423939
32.312679 -22.260438 25.497107
31.835122 4.122145 31.401626
31.475531 3.380803 32.221266
32.06391 2.728382 30.687655
31.835122 4.122145 31.401626
31.866689 0.747369 30.866343
32.259378 1.335983 30.016759
32.06391 2.728382 30.687655
38.239086 15.459458 16.387249
38.31715 17.674146 15.988751
37.937862 17.265563 17.178643
38.752402 11.710642 14.8032
38.854168 13.911859 14.422613
38.516608 13.666825 15.577944
36.079808 18.698499 22.072899
36.497481 19.444844 20.93422
33.758453 11.208542 27.572871
33.358949 10.361689 28.467248
34.202784 11.809588 26.60874
33.758453 11.208542 27.572871
34.058497 9.713847 26.830395
34.622501 12.421173 25.644544
34.322458 13.915868 26.38702
34.202784 11.809588 26.60874
35.46994 7.877099 23.533922
35.625973 10.070917 23.278467
35.204678 9.643937 24.216982
35.318445 5.769913 23.710658
35.46994 7.877099 23.533922
35.318445 5.769913 23.710658
34.850701 5.299564 24.711131
33.590159 -3.753824 26.308084
33.156978 -4.259366 27.177265
30.570992 -12.96401 31.881656
30.746998 -11.160358 31.691381
32.114962 -24.210394 25.556924
32.312679 -22.260438 25.497107
31.933532 -22.757003 26.4391
33.203683 8.299746 28.661449
33.358949 10.361689 28.467248
33.457189 7.060073 27.963661
33.203683 8.299746 28.661449
33.046707 6.247018 28.830585
32.470482 0.043444 29.369252
32.667704 2.024457 29.190563
32.259378 1.335983 30.016759
32.744665 -4.868887 27.994687
33.156978 -4.259366 27.177265
32.928434 -2.770176 27.923798
32.546009 -6.811413 28.13057
32.744665 -4.868887 27.994687
32.317465 -5.322223 28.877103
32.320286 -8.879009 28.281819
32.747486 -8.425673 27.399403
32.546009 -6.811413 28.13057
29.97457 -20.418212 32.516754
30.098451 -18.543426 32.346057
29.845372 -22.284927 32.66466
29.772611 -24.074748 32.760614
30.166015 -21.774018 31.715681
29.97457 -20.418212 32.516754
29.845372 -22.284927 32.66466
38.69377 18.029468 14.742763
38.31715 17.674146 15.988751
38.69377 18.029468 14.742763
38.943976 16.253861 14.022174
37.868355 8.674152 17.469924
37.464894 8.30852 18.593075
37.551495 16.75104 18.331416
37.937862 17.265563 17.178643
37.435745 14.511892 18.757727
37.551495 16.75104 18.331416
37.127442 16.212058 19.512002
33.723351 16.525246 27.845311
34.012095 15.284217 27.119393
33.845309 18.592722 27.559047
33.723351 16.525246 27.845311
34.207289 19.316621 26.616581
33.845309 18.592722 27.559047
34.630607 20.038767 25.576736
34.207289 19.316621 26.616581
34.544767 17.986297 25.847724
35.026804 20.833167 24.518212
34.630607 20.038767 25.576736
35.360014 19.376383 23.80468
35.026804 20.833167 24.518212
35.664818 17.886394 23.123581
35.360014 19.376383 23.80468
35.27289 17.218453 24.126779
35.992683 16.54057 22.394997
36.079808 18.698499 22.072899
35.664818 17.886394 23.123581
37.024643 7.779003 19.741578
37.464894 8.30852 18.593075
37.184196 10.014513 19.437545
37.024643 7.779003 19.741578
36.597448 7.281244 20.794604
34.187033 2.541183 25.898859
34.405109 4.663747 25.650089
33.939386 4.055921 26.599123
34.187033 2.541183 25.898859
33.95879 0.372419 26.113741
33.768509 -1.674587 26.242983
33.590159 -3.753824 26.308084
30.948693 -2.59591 32.639549
31.131615 -0.686049 32.468653
31.105269 -3.946999 31.979648
30.948693 -2.59591 32.639549
30.734583 -4.552679 32.855098
30.721581 -7.92036 32.298102
30.552132 -6.52812 33.016745
31.087236 -7.133155 31.497228
30.721581 -7.92036 32.298102
30.917659 -9.149746 31.600132
32.112603 -10.855258 28.43265
32.320286 -8.879009 28.281819
31.911125 -9.240998 29.163818
30.387575 -14.827471 32.063564
30.238424 -16.645117 32.234956
30.758575 -14.247224 31.163665
30.570992 -12.96401 31.881656
30.387575 -14.827471 32.063564
32.340514 -12.380529 27.623792
32.112603 -10.855258 28.43265
31.931353 -12.742518 28.50579
32.580755 -13.677908 26.829495
32.340514 -12.380529 27.623792
32.580755 -13.677908 26.829495
32.345641 -15.699495 26.955194
32.331632 -18.969125 26.29637
32.130428 -17.469409 27.135112
31.930043 -19.307331 27.218026
32.331632 -18.969125 26.29637
32.542469 -20.378662 25.423939
30.284992 -27.946988 30.444505
30.121595 -26.704363 31.229605
30.563234 -27.662034 29.461915
30.284992 -27.946988 30.444505
30.873818 -27.305792 28.532628
30.715592 -25.877284 29.354322
30.563234 -27.662034 29.461915
31.197231 -26.865814 27.545501
30.873818 -27.305792 28.532628
31.044873 -28.650565 27.653094
31.55205 -26.458773 26.582442
31.380995 -25.114001 27.461976
31.197231 -26.865814 27.545501
31.89671 -26.082282 25.592556
31.55205 -26.458773 26.582442
32.114962 -24.210394 25.556924
31.89671 -26.082282 25.592556
38.263552 9.134942 16.304668
38.019644 11.004818 17.123787
37.868355 8.674152 17.469924
38.619045 9.651906 15.176649
38.263552 9.134942 16.304668
38.752402 11.710642 14.8032
38.619045 9.651906 15.176649
3 44 10 45
3 46 12 47
3 48 47 10
3 46 47 48
3 0 15 13
3 1 17 16
3 1 19 17
3 1 49 51
3 51 50 19
3 49 50 51
3 2 22 20
3 2 24 22
3 52 25 53
3 54 27 55
3 56 55 25
3 54 55 56
3 4 28 11
3 4 29 28
3 57 30 58
3 59 31 60
3 61 60 30
3 59 60 61
3 63 62 14
3 6 64 65
3 6 66 68
3 66 32 67
3 66 67 68
3 7 69 71
3 69 33 70
3 69 70 71
3 7 34 33
3 7 35 34
3 72 36 73
3 74 73 18
3 72 73 74
3 75 37 76
3 77 76 36
3 75 76 77
3 79 78 37
3 3 80 82
3 82 81 26
3 80 81 82
3 83 38 84
3 8 85 87
3 85 39 86
3 85 86 87
3 8 40 39
3 5 88 90
3 88 41 89
3 88 89 90
3 9 42 21
3 9 43 42
3 9 91 93
3 93 92 43
3 91 92 93
3 95 94 23
3 10 96 97
3 10 98 99
3 10 100 102
3 100 11 101
3 100 101 102
3 12 11 10
3 12 4 11
3 13 103 105
3 103 14 104
3 103 104 105
3 15 14 13
3 15 106 108
3 108 107 14
3 106 107 108
3 109 6 110
3 16 111 112
3 17 113 115
3 115 114 16
3 113 114 115
3 17 116 118
3 116 7 117
3 116 117 118
3 17 18 7
3 19 18 17
3 19 119 121
3 121 120 18
3 119 120 121
3 19 122 123
3 125 124 19
3 127 126 3
3 128 8 129
3 20 21 5
3 22 21 20
3 22 9 21
3 22 23 9
3 24 23 22
3 24 130 132
3 132 131 23
3 130 131 132
3 133 16 134
3 25 135 137
3 135 16 136
3 135 136 137
3 25 1 16
3 25 26 1
3 27 26 25
3 27 3 26
3 11 138 140
3 138 27 139
3 138 139 140
3 28 27 11
3 28 3 27
3 28 141 143
3 143 142 3
3 141 142 143
3 29 144 146
3 146 145 28
3 144 145 146
3 29 147 149
3 147 148 149
3 150 5 151
3 30 152 153
3 30 154 156
3 154 5 155
3 154 155 156
3 30 20 5
3 31 20 30
3 31 2 20
3 14 157 158
3 160 159 14
3 162 161 0
3 163 13 164
3 32 165 167
3 165 13 166
3 165 166 167
3 32 0 13
3 33 168 169
3 33 170 171
3 33 172 173
3 34 174 176
3 176 175 33
3 174 175 176
3 34 177 178
3 34 179 180
3 35 181 183
3 183 182 34
3 181 182 183
3 35 184 186
3 184 6 185
3 184 185 186
3 18 35 7
3 36 35 18
3 36 6 35
3 36 32 6
3 37 32 36
3 37 0 32
3 37 187 189
3 189 188 0
3 187 188 189
3 191 190 37
3 26 192 194
3 194 193 1
3 192 193 194
3 196 195 26
3 198 197 3
3 199 12 200
3 38 201 203
3 201 12 202
3 201 202 203
3 38 4 12
3 204 38 205
3 39 206 208
3 206 38 207
3 206 207 208
3 39 4 38
3 39 29 4
3 40 29 39
3 40 209 211
3 211 210 29
3 209 210 211
3 41 212 213
3 41 214 216
3 214 8 215
3 214 215 216
3 21 41 5
3 42 41 21
3 42 8 41
3 42 40 8
3 43 40 42
3 43 217 219
3 219 218 40
3 217 218 219
3 43 220 221
3 223 222 43
3 23 224 226
3 226 225 9
3 224 225 226
3 228 227 23
3 229 31 230
3 231 31 232
3 233 2 234
3 235 234 31
3 233 234 235
3 236 2 237
3 236 237 238
3 239 24 240
3 241 240 2
3 239 240 241
3 242 24 243
3 245 244 24
3 246 15 247
3 248 247 0
3 246 247 248
3 249 15 250
3 252 251 15
