ply
format ascii 1.0
element vertex 646
property float x
property float y
property float z
element face 643
property list uchar int vertex_index
end_header
9.250692 -27.66485 69.416451
2.444294 -10.801052 65.552353
7.851661 5.654583 65.354134
-2.250749 -3.484975 61.471619
5.963232 -3.793854 66.388016
3.291438 -33.605999 64.46637
6.450805 -18.903114 68.273613
0.930298 -24.648548 64.645668
-2.355528 -16.310614 63.068176
13.982953 -2.896601 70.126259
-3.788702 -30.278872 58.639175
-0.740451 -0.224782 61.660587
10.018279 -32.296524 69.203278
6.194461 -30.772802 67.259232
13.210488 -29.227009 70.964294
14.061083 -34.075321 70.521507
4.622661 -14.690897 67.109901
2.100766 -17.52976 65.845985
0.05856 -13.699946 64.465988
-8.182179 -11.029363 58.768543
11.885159 6.938694 67.198387
15.028174 2.394298 69.561989
11.07889 1.465786 67.996078
4.451861 -7.56348 66.209076
8.66221 -7.739705 68.445587
6.779056 -11.593415 67.961555
8.897513 -15.57841 69.33287
-1.636421 -27.32695 61.932156
-5.287304 -25.640427 58.962349
0.06027 -7.053939 63.617439
-1.946435 -9.957125 62.864754
-3.947049 -6.299707 60.995159
7.045488 0.672947 66.055687
1.789581 -3.692847 63.988213
17.602711 -35.632572 70.825378
8.003241 -23.092482 69.060722
4.984214 -26.03278 67.187477
3.637497 -21.690853 66.697556
-4.096773 -12.471462 61.771294
18.732954 3.292785 70.557571
9.924055 -3.521494 68.40757
2.286068 -29.100935 64.79628
-0.290123 -31.842184 61.736652
9.657459 -29.92576 69.368813
8.094339 -31.601 68.282234
7.615064 -29.239046 68.366302
10.730081 -26.122356 70.230598
12.711747 -26.589966 71.013191
11.338125 -28.445066 70.312271
11.663272 -30.88213 70.16745
3.523782 -12.778301 66.359291
2.348571 -14.202653 65.826057
1.336809 -12.335898 65.093689
9.940904 6.297771 66.342186
11.439661 4.186077 67.591026
9.519076 3.67914 66.719673
3.398854 -9.14174 65.864243
5.569568 -9.497456 67.087578
4.585014 -11.074521 66.756699
8.291989 8.303608 64.948593
10.167439 9.008098 65.808525
-4.219498 -24.296053 60.473698
-1.019281 -5.204589 62.61063
-1.931712 -6.823499 62.368565
-2.972429 -4.959032 61.342148
-6.930441 -3.948346 58.497837
3.60789 2.254243 63.72702
-1.369937 -2.036467 61.69112
0.514106 -2.009542 62.854801
-0.222705 -3.776819 62.794804
1.058146 -5.466472 63.912025
2.140936 -35.298855 62.917759
17.365141 -33.023335 71.380501
12.344261 -35.812584 69.577049
7.302739 -20.975733 68.736748
5.903917 -22.398846 67.969055
5.011898 -20.2104 67.518341
-0.055641 -17.077515 64.544807
0.716143 -18.99696 65.007751
-1.310424 -18.294603 63.722385
-3.986542 -9.373013 61.497089
-2.880992 -11.201332 62.43573
-4.990967 -10.626152 60.999325
19.127926 6.401266 70.047722
17.248848 5.873239 69.660851
14.607818 -0.347624 69.919891
16.621016 0.056258 70.566963
6.470577 -1.487953 66.20491
8.674168 -1.340434 67.356796
7.960166 -3.548171 67.41227
9.859939 -9.862311 69.293701
10.668325 -7.681362 69.407204
11.976232 -9.830252 70.249451
7.730459 -17.177382 68.856735
9.945724 -17.594973 69.926376
8.642591 -19.339022 69.380676
9.565445 -21.539623 69.8433
2.987437 -25.49345 65.96386
3.705869 -27.607056 66.135704
1.659659 -26.852983 64.794403
-2.792339 -28.65642 60.371159
-0.881011 -29.491747 61.954826
-2.084599 -30.885267 60.255394
-1.396242 -33.231064 60.058582
-3.305017 -1.750502 60.389381
-4.042875 -3.170764 60.251251
10.418554 -34.84922 68.932266
8.626163 -34.012512 68.142784
6.717171 -33.125309 67.146507
4.72236 -32.134762 65.965744
15.549167 -32.424999 71.202896
13.713937 -31.657307 70.823273
12.035583 -33.260529 69.952545
5.598297 -16.709829 67.747467
4.220347 -18.107895 67.059425
3.302582 -16.104002 66.477386
1.139028 -15.60587 65.219322
-1.035664 -15.101476 63.886333
-7.026975 -9.891636 59.506657
-8.964153 -9.139044 57.982838
13.807569 7.611693 67.963074
15.374896 5.358217 69.103958
13.460829 4.859229 68.402924
13.0355 2.062542 68.790901
12.583067 -0.577007 69.111008
5.253482 -5.782151 66.357864
7.343419 -5.646967 67.455864
6.557571 -7.613643 67.348808
7.632972 -9.61123 68.172386
8.90892 -11.649939 69.02771
6.750036 -15.118504 68.247559
12.195436 9.705887 66.702698
-1.145104 -23.856407 63.215073
-0.443895 -26.003723 63.318314
-2.321599 -25.227522 61.92123
-3.424433 -26.41268 60.544487
-4.4732 -27.857178 58.931114
1.352684 -8.923396 64.678543
0.253382 -10.444942 64.251869
-0.784424 -8.702324 63.388729
-2.864041 -8.157091 62.022125
-4.921658 -7.667364 60.61483
-4.982302 -4.478613 59.93692
-5.926497 -5.809462 59.590603
5.873321 5.083057 64.369102
7.529129 3.188434 65.754799
5.593263 2.734803 64.769218
4.977787 0.409201 64.953499
4.45184 -1.810203 65.141571
1.157142 -0.072716 62.804546
2.450673 -1.888685 63.994942
3.890369 -3.859704 65.242897
3.074936 -5.708171 65.127022
2.221993 -7.311495 64.920609
15.923082 -34.897648 70.801674
8.677804 -25.296757 69.306206
7.177042 -26.845795 68.394928
6.485673 -24.693045 68.181412
4.411833 -23.868971 67.033417
2.889791 -19.544424 66.314796
1.540835 -20.955282 65.447517
-0.792782 -11.798322 63.787647
-1.996694 -13.088625 63.169727
-3.126308 -14.31417 62.520771
-6.181719 -11.819803 60.295216
-5.245758 -13.76646 61.060059
-4.34127 -15.598263 61.715309
9.036022 1.18344 67.01606
10.588119 -1.057313 68.268478
12.051579 -3.288756 69.370598
9.326697 -5.74034 68.48381
11.356806 -5.638577 69.436996
13.497211 -5.431718 70.334038
11.076714 -15.82787 70.341362
10.182471 -23.75736 70.091553
5.747869 -28.289658 67.377586
4.204246 -29.79439 66.084068
2.791122 -31.383696 64.644318
0.36775 -28.146624 63.464005
1.07404 -30.515877 63.425255
1.451851 -32.892982 63.053734
0.309535 -34.266041 61.471462
-6.221461 -27.125782 57.310547
8.071825 6.979095 65.151364
7.322696 7.960695 64.481887
7.102532 6.636182 64.684658
3.589873 -34.840425 64.356598
4.264883 -34.052242 65.126038
2.716187 -34.452427 63.692065
3.014622 -35.686853 63.582292
3.589873 -34.840425 64.356598
17.190426 -31.873445 71.558064
18.086735 -32.229055 71.560001
12.570848 -37.065953 69.354221
11.599027 -36.595915 69.068363
-2.861752 -16.980345 62.70288
-2.3392 -17.972339 63.029985
-1.832976 -17.302608 63.39528
-5.48324 -9.673118 60.540575
-4.488755 -9.999582 61.248207
-4.981027 -9.046549 60.789457
16.500301 7.100453 69.140881
17.428495 7.456348 69.384552
15.006293 -2.791704 70.485557
15.318725 -1.517216 70.382373
14.295386 -1.622113 70.023075
14.770625 -4.115477 70.609985
15.006293 -2.791704 70.485557
11.507907 -10.870773 70.146477
10.918086 -9.846281 69.771576
10.449761 -10.886802 69.668602
12.60221 -10.955215 70.615257
11.507907 -10.870773 70.146477
-3.440542 -31.369163 58.54557
-2.58849 -31.67236 59.353679
-2.93665 -30.582069 59.447285
-4.179104 -1.654126 59.79177
-3.79048 -1.000353 59.887911
-3.79048 -1.000353 59.887911
-2.924003 -1.007096 60.454901
13.965618 -28.33227 71.291279
13.716247 -27.013749 71.315727
12.961118 -27.908487 70.988743
14.219119 -29.512272 71.23804
13.965618 -28.33227 71.291279
13.462212 -30.442158 70.893783
14.470844 -30.727421 71.16753
14.219119 -29.512272 71.23804
-9.36353 -8.269968 57.548975
-8.418059 -8.601263 58.31393
7.415461 -12.564451 68.37014
8.480393 -12.592713 68.903217
7.843988 -11.621677 68.494632
5.686348 -14.904701 67.67873
6.270064 -14.150407 67.926117
5.206376 -13.936604 67.357288
-2.714644 -24.183084 61.844856
-1.733351 -24.541964 62.568151
-2.126397 -23.497527 62.491777
-5.460314 -3.630049 59.418577
-4.512588 -3.824689 60.094086
-4.990601 -2.976124 59.575743
-6.896581 -5.437093 58.838604
-6.428469 -4.878904 59.04422
-7.398553 -4.506536 58.292221
-6.469309 -6.360453 59.325561
-6.896581 -5.437093 58.838604
4.758162 3.644645 64.062862
5.733292 3.90893 64.56916
4.898191 4.818772 63.862804
4.036371 0.24299 64.444013
4.292839 1.331722 64.34026
3.351423 1.165511 63.830774
3.773398 -0.866712 64.538049
4.714813 -0.700501 65.047535
4.036371 0.24299 64.444013
0.208345 -0.148749 62.232567
0.453358 0.787204 62.162157
-0.495439 0.711171 61.590177
4.898191 4.818772 63.862804
5.170439 6.04168 63.718091
18.462602 -36.016417 70.691085
19.147627 -35.168412 70.88742
18.287736 -34.784567 71.021713
17.697789 -36.978206 70.46265
18.557679 -37.362051 70.328358
18.462602 -36.016417 70.691085
2.932584 -22.460283 66.207283
3.319752 -23.549342 66.375214
4.024665 -22.779912 66.865487
0.487314 -20.688858 64.772731
1.128489 -19.976121 65.227634
0.074968 -19.709697 64.552848
0.895506 -21.715238 64.952575
0.487314 -20.688858 64.772731
-5.813059 -14.309932 60.650925
-6.276208 -13.343239 60.296246
-5.360815 -15.225833 60.97855
-4.793514 -14.682361 61.387684
-5.813059 -14.309932 60.650925
-4.895808 -16.225033 61.284306
-5.360815 -15.225833 60.97855
19.648599 3.554575 70.658336
19.846086 5.108815 70.403412
18.93044 4.847025 70.302646
19.485248 1.978268 70.919303
19.648599 3.554575 70.658336
15.979117 2.59309 69.861275
16.152479 4.07505 69.63226
15.201535 3.876257 69.332974
17.496567 0.196717 70.786213
17.30948 -1.203601 70.973976
12.045369 -6.689189 69.884574
11.012566 -6.659969 69.4221
11.701128 -7.710581 69.869678
13.115571 -6.585759 70.333096
12.427008 -5.535147 69.885517
12.045369 -6.689189 69.884574
14.122608 -6.524038 70.721661
13.115571 -6.585759 70.333096
9.987113 -15.70314 69.837116
10.584357 -14.82284 70.056076
9.494757 -14.69811 69.55183
11.013597 -17.873478 70.398078
10.323585 -18.684635 70.131477
-1.628993 -35.165289 58.927679
-1.111231 -34.437598 59.861176
-1.914005 -33.958756 59.125085
-6.698098 -27.818871 56.368557
-7.060439 -26.678187 56.540463
-5.844247 -28.153011 57.252693
-6.698098 -27.818871 56.368557
11.720914 -26.356161 70.621894
12.456467 -25.484493 70.972622
11.465633 -25.250689 70.581325
5.187553 -12.128415 67.180687
6.284574 -12.387863 67.783115
5.682035 -11.333968 67.359127
4.656937 -12.980306 66.981983
5.187553 -12.128415 67.180687
4.054398 -11.926411 66.557995
4.073221 -13.734599 66.734596
5.206376 -13.936604 67.357288
4.656937 -12.980306 66.981983
7.469973 9.284288 64.224312
7.322696 7.960695 64.481887
8.409405 9.752568 64.643265
7.469973 9.284288 64.224312
9.229714 8.655853 65.378559
9.34713 10.104813 65.07323
8.409405 9.752568 64.643265
-4.645136 -23.229555 60.386673
-3.663594 -23.71735 61.12109
-5.123048 -23.903793 59.732389
-4.645136 -23.229555 60.386673
-5.656951 -24.575979 58.976715
-4.753401 -24.96824 59.718024
-5.123048 -23.903793 59.732389
-7.345702 -3.112259 58.002857
-6.434384 -3.364915 58.699035
-7.816098 -3.645333 57.792898
-7.345702 -3.112259 58.002857
-7.398553 -4.506536 58.292221
-7.816098 -3.645333 57.792898
2.836354 3.168652 63.041704
3.765475 3.404364 63.541763
2.667908 2.081175 63.204666
2.836354 3.168652 63.041704
3.351423 1.165511 63.830774
2.667908 2.081175 63.204666
2.394595 -36.466692 62.7374
3.014622 -35.686853 63.582292
1.514266 -35.919606 62.052307
1.767925 -37.087443 61.871948
2.394595 -36.466692 62.7374
18.168951 -33.479949 71.299274
18.086735 -32.229055 71.560001
17.483926 -34.327954 71.102939
18.287736 -34.784567 71.021713
18.168951 -33.479949 71.299274
13.298589 -36.144827 69.821049
14.157 -35.276196 70.293278
13.202672 -34.943953 70.049278
13.298589 -36.144827 69.821049
12.570848 -37.065953 69.354221
-0.938315 -19.358518 63.910165
0.074968 -19.709697 64.552848
-0.297141 -18.645781 64.365068
-1.957066 -18.971107 63.226664
-0.938315 -19.358518 63.910165
-1.957066 -18.971107 63.226664
-2.3392 -17.972339 63.029985
-7.744419 -11.974691 59.150488
-8.69451 -11.647134 58.399044
18.368035 7.720362 69.577988
19.236274 8.064969 69.721562
18.188387 6.137252 69.854287
18.368035 7.720362 69.577988
17.428495 7.456348 69.384552
16.325325 -1.315275 70.705909
15.614417 -0.145683 70.243427
15.318725 -1.517216 70.382373
17.30948 -1.203601 70.973976
16.325325 -1.315275 70.705909
12.355082 -8.785026 70.290802
11.701128 -7.710581 69.869678
11.322278 -8.755807 69.828328
13.020387 -9.858154 70.677078
12.355082 -8.785026 70.290802
13.020387 -9.858154 70.677078
12.60221 -10.955215 70.615257
9.672019 -19.556659 69.858627
10.323585 -18.684635 70.131477
9.294158 -18.466997 69.653526
9.104018 -20.439322 69.611988
10.133446 -20.656959 70.089939
9.672019 -19.556659 69.858627
-2.244312 -32.845259 59.255274
-1.74042 -32.058166 60.156988
-2.58849 -31.67236 59.353679
-1.914005 -33.958756 59.125085
-2.244312 -32.845259 59.255274
-4.548032 -2.364257 59.722706
-3.673946 -2.460633 60.320316
-4.179104 -1.654126 59.79177
-4.990601 -2.976124 59.575743
-4.548032 -2.364257 59.722706
-1.408158 0.632367 61.027542
-0.495439 0.711171 61.590177
-1.64172 -0.244236 61.090503
-1.408158 0.632367 61.027542
-1.956463 -1.150079 61.10577
-1.055194 -1.130624 61.675854
-1.64172 -0.244236 61.090503
-2.337477 -1.893485 61.04025
-1.956463 -1.150079 61.10577
-2.924003 -1.007096 60.454901
9.670296 -35.675045 68.343742
10.636173 -36.114233 68.745971
8.774101 -35.256691 67.949002
9.670296 -35.675045 68.343742
9.522358 -34.430866 68.537525
7.830405 -34.796869 67.47049
8.774101 -35.256691 67.949002
6.875909 -34.353268 66.972351
7.830405 -34.796869 67.47049
7.671667 -33.568911 67.644645
5.977749 -33.811898 66.466106
6.875909 -34.353268 66.972351
4.980344 -33.316624 65.875725
5.977749 -33.811898 66.466106
5.719765 -32.630036 66.556126
4.006899 -32.87038 65.216057
4.264883 -34.052242 65.126038
4.980344 -33.316624 65.875725
13.469407 -25.804243 71.321785
13.214126 -24.698771 71.281216
12.456467 -25.484493 70.972622
13.469407 -25.804243 71.321785
13.716247 -27.013749 71.315727
15.388459 -31.111267 71.357341
16.282439 -31.574277 71.469261
14.631552 -32.041153 71.013084
15.388459 -31.111267 71.357341
14.470844 -30.727421 71.16753
10.636173 -36.114233 68.745971
11.599027 -36.595915 69.068363
11.381407 -35.330902 69.254658
-7.44947 -8.977559 59.07584
-6.501244 -9.30586 59.794241
-7.995564 -9.51534 58.744748
-7.44947 -8.977559 59.07584
-8.418059 -8.601263 58.31393
-9.925094 -8.775031 57.170786
-9.36353 -8.269968 57.548975
-9.47017 -9.713909 57.641894
-9.925094 -8.775031 57.170786
-9.079183 -10.659069 58.034746
-8.573166 -10.084204 58.375691
-9.47017 -9.713909 57.641894
-8.69451 -11.647134 58.399044
-9.079183 -10.659069 58.034746
14.591233 6.484955 68.533516
15.563325 6.842942 68.862435
14.779662 7.96968 68.291993
9.974252 -11.780617 69.535607
10.449761 -10.886802 69.668602
9.384429 -10.756125 69.160706
9.50046 -12.733874 69.39925
9.974252 -11.780617 69.535607
9.50046 -12.733874 69.39925
8.480393 -12.592713 68.903217
8.474689 -14.556949 69.055797
9.494757 -14.69811 69.55183
7.415461 -12.564451 68.37014
6.284574 -12.387863 67.783115
7.40095 -14.326995 68.513142
6.270064 -14.150407 67.926117
7.823774 -15.348457 68.790214
8.474689 -14.556949 69.055797
7.40095 -14.326995 68.513142
10.322874 10.445581 65.53027
9.34713 10.104813 65.07323
11.336872 10.794476 65.977356
10.322874 10.445581 65.53027
11.181438 9.356993 66.255612
12.26346 11.303808 66.339257
11.336872 10.794476 65.977356
13.11734 10.131327 67.04528
12.26346 11.303808 66.339257
13.923407 9.08423 67.675468
13.11734 10.131327 67.04528
13.001503 8.65879 67.332886
14.779662 7.96968 68.291993
13.923407 9.08423 67.675468
-3.270548 -24.761788 61.197464
-2.714644 -24.183084 61.844856
-3.663594 -23.71735 61.12109
-5.448586 -8.193724 60.348327
-4.981027 -9.046549 60.789457
-4.4541 -8.520188 61.05596
-5.956371 -4.21348 59.217378
-5.460314 -3.630049 59.418577
-6.434384 -3.364915 58.699035
-5.96689 -7.289404 59.837675
-5.424078 -6.738413 60.102716
-6.469309 -6.360453 59.325561
-5.448586 -8.193724 60.348327
-5.96689 -7.289404 59.837675
4.600576 2.494523 64.248119
4.758162 3.644645 64.062862
3.765475 3.404364 63.541763
1.442534 0.917695 62.743429
0.453358 0.787204 62.162157
2.126049 0.002031 63.369537
1.442534 0.917695 62.743429
2.772814 -0.905953 63.964735
2.126049 0.002031 63.369537
1.803907 -0.9807 63.399744
3.451256 -1.849444 64.568257
3.773398 -0.866712 64.538049
2.772814 -0.905953 63.964735
6.113362 6.350419 64.192142
5.170439 6.04168 63.718091
6.862491 5.36882 64.861618
7.102532 6.636182 64.684658
6.113362 6.350419 64.192142
16.457154 -32.724167 71.291698
17.190426 -31.873445 71.558064
16.282439 -31.574277 71.469261
15.088 -35.687359 70.433361
14.992083 -34.486485 70.661591
14.157 -35.276196 70.293278
15.986519 -36.140833 70.51381
15.088 -35.687359 70.433361
16.826333 -36.508295 70.525661
16.762897 -35.26511 70.813526
15.986519 -36.140833 70.51381
17.697789 -36.978206 70.46265
16.826333 -36.508295 70.525661
2.607554 -24.361581 65.840435
3.699635 -24.68121 66.498638
3.319752 -23.549342 66.375214
1.578985 -23.939131 65.181339
1.958867 -25.070999 65.304764
2.607554 -24.361581 65.840435
1.884253 -22.092498 65.582264
2.932584 -22.460283 66.207283
2.589166 -21.323068 66.072537
1.884253 -22.092498 65.582264
0.895506 -21.715238 64.952575
0.590237 -23.561872 64.551651
1.578985 -23.939131 65.181339
-0.447463 -23.165801 63.836354
-0.107403 -24.252478 63.93037
0.590237 -23.561872 64.551651
-1.442061 -22.802865 63.163591
-0.447463 -23.165801 63.836354
-2.126397 -23.497527 62.491777
-1.442061 -22.802865 63.163591
-6.008971 -10.258894 60.252991
-5.48324 -9.673118 60.540575
-6.501244 -9.30586 59.794241
-6.744188 -12.369911 59.913825
-7.181949 -11.424583 59.53188
-7.744419 -11.974691 59.150488
-5.713738 -12.793132 60.677638
-6.744188 -12.369911 59.913825
-6.276208 -13.343239 60.296246
-3.854623 -16.62417 62.026447
-2.861752 -16.980345 62.70288
-3.348399 -15.954439 62.391742
-3.854623 -16.62417 62.026447
-4.895808 -16.225033 61.284306
20.002079 6.758571 70.103309
20.110427 8.422274 69.777149
19.236274 8.064969 69.721562
20.002079 6.758571 70.103309
19.846086 5.108815 70.403412
16.311872 5.615728 69.382405
16.500301 7.100453 69.140881
15.563325 6.842942 68.862435
17.089454 4.332561 69.910706
16.311872 5.615728 69.382405
16.152479 4.07505 69.63226
17.831508 3.042334 70.359066
17.990901 4.583012 70.109211
17.089454 4.332561 69.910706
16.775538 1.424071 70.363762
15.979117 2.59309 69.861275
15.824595 1.225278 70.064476
16.775538 1.424071 70.363762
17.496567 0.196717 70.786213
18.552536 1.81498 70.781517
17.831508 3.042334 70.359066
19.485248 1.978268 70.919303
18.552536 1.81498 70.781517
14.527754 -5.383036 70.713875
14.770625 -4.115477 70.609985
13.740082 -4.16416 70.230149
14.527754 -5.383036 70.713875
14.122608 -6.524038 70.721661
11.65706 -14.886575 70.530953
10.584357 -14.82284 70.056076
12.140625 -16.062275 70.790276
11.65706 -14.886575 70.530953
11.579092 -16.989927 70.605571
10.511219 -16.711422 70.133869
11.013597 -17.873478 70.398078
12.140625 -16.062275 70.790276
11.579092 -16.989927 70.605571
10.611676 -21.796884 70.302445
10.133446 -20.656959 70.089939
10.920189 -22.905753 70.426571
10.611676 -21.796884 70.302445
9.873958 -22.648491 69.967427
11.191828 -24.068191 70.511803
10.920189 -22.905753 70.426571
10.456276 -24.939858 70.161076
11.465633 -25.250689 70.581325
11.191828 -24.068191 70.511803
0.598566 -35.403199 61.329159
1.514266 -35.919606 62.052307
1.225235 -34.782448 62.19461
-0.258342 -34.955086 60.567616
-0.543354 -33.748553 60.765022
-1.111231 -34.437598 59.861176
0.598566 -35.403199 61.329159
-0.258342 -34.955086 60.567616
-6.15529 -25.232965 58.206375
-5.656951 -24.575979 58.976715
-6.622369 -25.975643 57.380474
-7.060439 -26.678187 56.540463
-5.754383 -26.383105 58.136448
-6.15529 -25.232965 58.206375
-6.622369 -25.975643 57.380474
-4.970117 -28.518709 58.062977
-5.34733 -27.49148 58.12083
-5.844247 -28.153011 57.252693
-4.627868 -29.729557 57.917007
-4.130951 -29.068025 58.785145
-4.970117 -28.518709 58.062977
-4.310888 -30.896121 57.708962
-4.627868 -29.729557 57.917007
-3.440542 -31.369163 58.54557
-4.310888 -30.896121 57.708962
3 0 45 43
3 0 48 46
3 0 43 48
3 1 52 50
3 2 55 53
3 1 58 56
3 1 50 58
3 2 183 185
3 183 59 184
3 183 184 185
3 2 53 59
3 3 64 62
3 3 69 67
3 3 62 69
3 5 186 187
3 5 188 190
3 188 71 189
3 188 189 190
3 191 72 192
3 194 193 73
3 6 76 74
3 8 79 77
3 8 195 197
3 197 196 79
3 195 196 197
3 198 82 199
3 200 199 80
3 198 199 200
3 201 84 202
3 9 203 205
3 205 204 85
3 203 204 205
3 9 206 207
3 4 89 87
3 208 92 209
3 210 209 90
3 208 209 210
3 212 211 92
3 6 95 93
3 6 74 95
3 7 99 97
3 10 102 100
3 10 213 215
3 215 214 102
3 213 214 215
3 217 216 104
3 218 104 219
3 12 107 106
3 13 108 44
3 13 109 108
3 14 220 222
3 222 221 47
3 220 221 222
3 14 223 224
3 14 225 227
3 225 111 226
3 225 226 227
3 12 112 49
3 12 106 112
3 16 115 113
3 18 116 51
3 18 117 116
3 228 119 229
3 20 122 120
3 22 123 54
3 22 124 123
3 23 127 125
3 25 128 57
3 25 129 128
3 25 230 232
3 232 231 129
3 230 231 232
3 16 233 235
3 233 130 234
3 233 234 235
3 16 113 130
3 20 131 60
3 20 120 131
3 236 134 237
3 238 237 132
3 236 237 238
3 28 135 61
3 28 136 135
3 29 139 137
3 31 140 63
3 31 141 140
3 239 142 240
3 241 240 105
3 239 240 241
3 242 143 243
3 244 243 65
3 242 243 244
3 246 245 143
3 247 146 248
3 249 248 144
3 247 248 249
3 250 147 251
3 252 251 66
3 250 251 252
3 253 148 254
3 255 254 147
3 253 254 255
3 11 256 258
3 256 149 257
3 256 257 258
3 33 150 68
3 33 151 150
3 33 152 151
3 29 153 70
3 29 137 153
3 259 144 260
3 34 261 263
3 261 262 263
3 34 264 266
3 264 265 266
3 15 154 110
3 35 157 155
3 37 158 75
3 37 267 269
3 269 268 158
3 267 268 269
3 17 159 114
3 270 160 271
3 272 271 78
3 270 271 272
3 274 273 160
3 30 161 138
3 38 162 81
3 38 163 162
3 19 164 118
3 275 165 276
3 277 166 278
3 279 278 165
3 277 278 279
3 281 280 166
3 39 282 284
3 284 283 83
3 282 283 284
3 39 285 286
3 21 287 289
3 289 288 121
3 287 288 289
3 291 290 86
3 32 167 145
3 40 168 88
3 40 169 168
3 24 170 126
3 292 171 293
3 294 293 91
3 292 293 294
3 295 172 296
3 297 296 171
3 295 296 297
3 299 298 172
3 26 300 302
3 300 173 301
3 300 301 302
3 304 303 94
3 35 174 96
3 35 155 174
3 36 175 156
3 41 176 98
3 41 177 176
3 27 178 133
3 42 179 101
3 42 180 179
3 42 181 180
3 307 306 103
3 305 306 307
3 308 182 309
3 311 310 182
3 43 44 12
3 45 44 43
3 45 13 44
3 46 312 314
3 312 47 313
3 312 313 314
3 48 47 46
3 48 14 47
3 48 49 14
3 43 49 48
3 43 12 49
3 50 51 16
3 52 51 50
3 52 18 51
3 53 54 20
3 55 54 53
3 55 22 54
3 56 57 23
3 58 57 56
3 58 25 57
3 58 315 317
3 317 316 25
3 315 316 317
3 50 318 320
3 320 319 58
3 318 319 320
3 50 321 323
3 321 16 322
3 321 322 323
3 59 324 325
3 59 326 327
3 59 328 330
3 328 60 329
3 328 329 330
3 53 60 59
3 53 20 60
3 331 61 332
3 333 61 334
3 335 28 336
3 337 336 61
3 335 336 337
3 62 63 29
3 64 63 62
3 64 31 63
3 338 65 339
3 340 65 341
3 343 342 65
3 344 66 345
3 346 66 347
3 349 348 66
3 67 68 11
3 69 68 67
3 69 33 68
3 69 70 33
3 62 70 69
3 62 29 70
3 71 350 351
3 71 352 354
3 352 353 354
3 72 355 356
3 72 357 359
3 357 34 358
3 357 358 359
3 73 360 362
3 362 361 15
3 360 361 362
3 364 363 73
3 74 75 35
3 76 75 74
3 76 37 75
3 77 78 17
3 79 78 77
3 79 365 367
3 367 366 78
3 365 366 367
3 79 368 369
3 371 370 79
3 80 81 30
3 82 81 80
3 82 38 81
3 373 372 19
3 374 83 375
3 84 376 378
3 376 83 377
3 376 377 378
3 84 39 83
3 85 86 21
3 379 86 380
3 381 380 85
3 379 380 381
3 383 382 86
3 87 88 32
3 89 88 87
3 89 40 88
3 90 91 24
3 92 91 90
3 92 384 386
3 386 385 91
3 384 385 386
3 92 387 388
3 390 389 92
3 93 94 26
3 95 94 93
3 95 391 393
3 393 392 94
3 391 392 393
3 95 394 396
3 394 96 395
3 394 395 396
3 74 96 95
3 74 35 96
3 97 98 36
3 99 98 97
3 99 41 98
3 100 101 27
3 102 101 100
3 102 42 101
3 102 103 42
3 397 103 398
3 399 398 102
3 397 398 399
3 401 400 103
3 104 105 3
3 402 105 403
3 404 403 104
3 402 403 404
3 406 405 105
3 407 11 408
3 409 11 410
3 411 67 412
3 413 412 11
3 411 412 413
3 104 414 416
3 414 67 415
3 414 415 416
3 104 3 67
3 106 417 418
3 107 419 421
3 421 420 106
3 419 420 421
3 107 422 423
3 44 107 12
3 108 107 44
3 108 424 426
3 426 425 107
3 424 425 426
3 108 427 428
3 109 429 431
3 431 430 108
3 429 430 431
3 109 432 434
3 432 5 433
3 432 433 434
3 47 435 437
3 435 436 437
3 439 438 47
3 440 110 441
3 111 442 444
3 442 110 443
3 442 443 444
3 111 15 110
3 49 111 14
3 112 111 49
3 112 15 111
3 112 73 15
3 106 73 112
3 106 445 447
3 447 446 73
3 445 446 447
3 113 114 6
3 115 114 113
3 115 17 114
3 51 115 16
3 116 115 51
3 116 17 115
3 116 77 17
3 117 77 116
3 117 8 77
3 448 118 449
3 119 450 452
3 450 118 451
3 450 451 452
3 119 19 118
3 453 119 454
3 455 119 456
3 457 19 458
3 459 458 119
3 457 458 459
3 461 460 19
3 120 462 464
3 462 121 463
3 462 463 464
3 122 121 120
3 122 21 121
3 54 122 20
3 123 122 54
3 123 21 122
3 123 85 21
3 124 85 123
3 124 9 85
3 125 126 4
3 127 126 125
3 127 24 126
3 57 127 23
3 128 127 57
3 128 24 127
3 128 90 24
3 129 90 128
3 129 465 467
3 467 466 90
3 465 466 467
3 129 468 469
3 471 470 129
3 472 26 473
3 475 474 25
3 130 476 477
3 130 478 480
3 478 26 479
3 478 479 480
3 130 93 26
3 113 93 130
3 113 6 93
3 60 481 482
3 131 483 485
3 485 484 60
3 483 484 485
3 131 486 487
3 131 488 489
3 120 490 492
3 492 491 131
3 490 491 492
3 120 493 494
3 132 133 7
3 134 133 132
3 134 27 133
3 61 495 497
3 495 134 496
3 495 496 497
3 135 134 61
3 135 27 134
3 135 100 27
3 136 100 135
3 136 10 100
3 137 138 1
3 139 138 137
3 139 30 138
3 63 139 29
3 140 139 63
3 140 30 139
3 140 80 30
3 141 80 140
3 141 498 500
3 500 499 80
3 498 499 500
3 105 64 3
3 142 64 105
3 142 31 64
3 65 501 503
3 501 142 502
3 501 502 503
3 143 142 65
3 143 31 142
3 143 141 31
3 504 141 505
3 506 505 143
3 504 505 506
3 508 507 141
3 144 145 2
3 146 145 144
3 146 32 145
3 66 509 511
3 509 146 510
3 509 510 511
3 147 146 66
3 147 32 146
3 147 87 32
3 148 87 147
3 148 4 87
3 149 512 513
3 149 514 515
3 68 149 11
3 150 149 68
3 150 516 518
3 518 517 149
3 516 517 518
3 150 519 521
3 519 148 520
3 519 520 521
3 151 148 150
3 151 4 148
3 151 125 4
3 152 125 151
3 152 23 125
3 70 152 33
3 153 152 70
3 153 23 152
3 153 56 23
3 137 56 153
3 137 1 56
3 144 522 523
3 144 524 526
3 524 2 525
3 524 525 526
3 110 527 529
3 527 72 528
3 527 528 529
3 154 72 110
3 154 34 72
3 530 154 531
3 532 531 15
3 530 531 532
3 533 154 534
3 535 34 536
3 537 536 154
3 535 536 537
3 539 538 34
3 155 156 0
3 157 156 155
3 157 36 156
3 75 157 35
3 158 157 75
3 158 36 157
3 158 97 36
3 540 97 541
3 542 541 158
3 540 541 542
3 543 7 544
3 545 544 97
3 543 544 545
3 114 76 6
3 159 76 114
3 159 37 76
3 78 159 17
3 160 159 78
3 160 37 159
3 160 546 548
3 548 547 37
3 546 547 548
3 550 549 160
3 551 7 552
3 553 132 554
3 555 554 7
3 553 554 555
3 556 132 557
3 559 558 132
3 138 52 1
3 161 52 138
3 161 18 52
3 81 161 30
3 162 161 81
3 162 18 161
3 162 117 18
3 163 117 162
3 163 8 117
3 118 560 562
3 560 82 561
3 560 561 562
3 164 82 118
3 164 38 82
3 563 164 564
3 565 564 19
3 563 564 565
3 165 566 568
3 566 164 567
3 566 567 568
3 165 38 164
3 165 163 38
3 166 163 165
3 166 8 163
3 166 569 571
3 571 570 8
3 569 570 571
3 573 572 166
3 83 574 576
3 574 575 576
3 578 577 83
3 121 579 581
3 579 84 580
3 579 580 581
3 582 84 583
3 584 583 121
3 582 583 584
3 585 39 586
3 587 586 84
3 585 586 587
3 86 588 590
3 590 589 21
3 588 589 590
3 592 591 86
3 593 39 594
3 596 595 39
3 145 55 2
3 167 55 145
3 167 22 55
3 88 167 32
3 168 167 88
3 168 22 167
3 168 124 22
3 169 124 168
3 169 9 124
3 126 89 4
3 170 89 126
3 170 40 89
3 91 170 24
3 171 170 91
3 171 40 170
3 171 169 40
3 172 169 171
3 172 9 169
3 172 597 599
3 599 598 9
3 597 598 599
3 601 600 172
3 173 602 603
3 173 604 605
3 94 173 26
3 606 173 607
3 608 607 94
3 606 607 608
3 610 609 173
3 96 611 612
3 174 613 615
3 615 614 96
3 613 614 615
3 174 616 617
3 174 618 620
3 618 46 619
3 618 619 620
3 155 46 174
3 155 0 46
3 156 45 0
3 175 45 156
3 175 13 45
3 98 175 36
3 176 175 98
3 176 13 175
3 176 109 13
3 177 109 176
3 177 5 109
3 133 99 7
3 178 99 133
3 178 41 99
3 101 178 27
3 179 178 101
3 179 41 178
3 179 177 41
3 180 177 179
3 180 5 177
3 180 71 5
3 181 71 180
3 181 621 623
3 623 622 71
3 621 622 623
3 103 181 42
3 624 181 625
3 626 625 103
3 624 625 626
3 628 627 181
3 629 28 630
3 182 631 632
3 182 633 635
3 633 28 634
3 633 634 635
3 182 136 28
3 636 136 637
3 638 637 182
3 636 637 638
3 639 10 640
3 641 640 136
3 639 640 641
3 642 10 643
3 645 644 10
